ply
format ascii 1.0
comment author: Proteus
comment object: PLCDomain
element vertex 12
property float x
property float y
property float z
element face 8 
property list uchar int vertex_index
end_header
0.0000000000000000e+00 0.0000000000000000e+00 0.0000000000000000e+00
5.0000000000000000e+00 0.0000000000000000e+00 0.0000000000000000e+00
2.7500000000000000e+01 0.0000000000000000e+00 1.5000000000000000e+00
2.7500000000000000e+01 0.0000000000000000e+00 2.0000000000000000e+00
5.0000000000000000e+00 0.0000000000000000e+00 2.0000000000000000e+00
0.0000000000000000e+00 0.0000000000000000e+00 2.0000000000000000e+00
0.0000000000000000e+00 1.0000000000000000e+00 0.0000000000000000e+00
5.0000000000000000e+00 1.0000000000000000e+00 0.0000000000000000e+00
2.7500000000000000e+01 1.0000000000000000e+00 1.5000000000000000e+00
2.7500000000000000e+01 1.0000000000000000e+00 2.0000000000000000e+00
5.0000000000000000e+00 1.0000000000000000e+00 2.0000000000000000e+00
0.0000000000000000e+00 1.0000000000000000e+00 2.0000000000000000e+00
4 0 1 7 6
4 1 2 8 7
4 2 3 9 8
4 3 4 10 9
4 4 5 11 10
4 5 0 6 11
6 0 1 2 3 4 5
6 6 7 8 9 10 11
