ply
format ascii 1.0
comment author: Proteus
comment object: PLCDomain
element vertex 16
property float x
property float y
property float z
element face 10 
property list uchar int vertex_index
end_header
0.0000000000000000e+00 0.0000000000000000e+00 0.0000000000000000e+00
0.0000000000000000e+00 0.0000000000000000e+00 7.2999999999999998e+00
3.3500000000000000e+01 0.0000000000000000e+00 7.2999999999999998e+00
9.9054659341832902e+01 0.0000000000000000e+00 2.8600000000000001e+01
1.0635465934183290e+02 0.0000000000000000e+00 2.8600000000000001e+01
1.5790000000000001e+02 0.0000000000000000e+00 7.2999999999999998e+00
1.9140000000000001e+02 0.0000000000000000e+00 7.2999999999999998e+00
1.9140000000000001e+02 0.0000000000000000e+00 0.0000000000000000e+00
0.0000000000000000e+00 2.0000000000000000e+00 0.0000000000000000e+00
0.0000000000000000e+00 2.0000000000000000e+00 7.2999999999999998e+00
3.3500000000000000e+01 2.0000000000000000e+00 7.2999999999999998e+00
9.9054659341832902e+01 2.0000000000000000e+00 2.8600000000000001e+01
1.0635465934183290e+02 2.0000000000000000e+00 2.8600000000000001e+01
1.5790000000000001e+02 2.0000000000000000e+00 7.2999999999999998e+00
1.9140000000000001e+02 2.0000000000000000e+00 7.2999999999999998e+00
1.9140000000000001e+02 2.0000000000000000e+00 0.0000000000000000e+00
8 0 1 2 3 4 5 6 7
8 8 9 10 11 12 13 14 15
4 0 1 9 8
4 1 9 10 2
4 2 10 11 3
4 3 11 12 4
4 4 12 13 5
4 5 13 14 6
4 6 14 15 7
4 0 8 15 7
