ply
format ascii 1.0
comment author: Proteus
comment object: PLCDomain
element vertex 8
property float x
property float y
property float z
element face 6 
property list uchar int vertex_index
end_header
0.0000000000000000e+00 0.0000000000000000e+00 0.0000000000000000e+00
8.0000000000000004e-01 0.0000000000000000e+00 0.0000000000000000e+00
8.0000000000000004e-01 2.0000000000000001e-01 0.0000000000000000e+00
0.0000000000000000e+00 2.0000000000000001e-01 0.0000000000000000e+00
0.0000000000000000e+00 0.0000000000000000e+00 2.0000000000000001e-01
8.0000000000000004e-01 0.0000000000000000e+00 2.0000000000000001e-01
8.0000000000000004e-01 2.0000000000000001e-01 2.0000000000000001e-01
0.0000000000000000e+00 2.0000000000000001e-01 2.0000000000000001e-01
4 0 1 2 3
4 0 1 5 4
4 1 2 6 5
4 2 3 7 6
4 3 0 4 7
4 4 5 6 7
