ply
format ascii 1.0
comment author: Proteus
comment object: DefaultPSLGDomain
element vertex 89
property float x
property float y
property float z
element face 89 
property list uchar int vertex_index
end_header
0.0000000000000000e+00 0.0000000000000000e+00 0.0000000000000000e+00
0.0000000000000000e+00 4.0999999999999998e-01 0.0000000000000000e+00
2.2000000000000002e+00 4.0999999999999998e-01 0.0000000000000000e+00
2.2000000000000002e+00 0.0000000000000000e+00 0.0000000000000000e+00
2.0499999999999999e-01 2.5500000000000000e-01 0.0000000000000000e+00
2.0869262637374369e-01 2.5486345866928939e-01 0.0000000000000000e+00
2.1236508490273187e-01 2.5445458041855729e-01 0.0000000000000000e+00
2.1599731789198343e-01 2.5377559839902181e-01 0.0000000000000000e+00
2.1956948734446621e-01 2.5283022097502206e-01 0.0000000000000000e+00
2.2306208330935764e-01 2.5162361147021778e-01 0.0000000000000000e+00
2.2645603043863044e-01 2.5016235996730640e-01 0.0000000000000000e+00
2.2973279216998893e-01 2.4845444731527641e-01 0.0000000000000000e+00
2.3287447196714428e-01 2.4650920154077752e-01 0.0000000000000000e+00
2.3586391106448965e-01 2.4433724690167416e-01 0.0000000000000000e+00
2.3868478218232786e-01 2.4195044586103295e-01 0.0000000000000000e+00
2.4132167870081120e-01 2.3936183429846314e-01 0.0000000000000000e+00
2.4376019880555649e-01 2.3658555031266254e-01 0.0000000000000000e+00
2.4598702414536106e-01 2.3363675700402525e-01 0.0000000000000000e+00
2.4798999257241860e-01 2.3053155965904534e-01 0.0000000000000000e+00
2.4975816456775310e-01 2.2728691778882690e-01 0.0000000000000000e+00
2.5128188298907783e-01 2.2392055250211551e-01 0.0000000000000000e+00
2.5255282581475769e-01 2.2045084971874737e-01 0.0000000000000000e+00
2.5356405159580570e-01 2.1689675975213094e-01 0.0000000000000000e+00
2.5431003736767011e-01 2.1327769380920650e-01 0.0000000000000000e+00
2.5478670881475174e-01 2.0961341797316510e-01 0.0000000000000000e+00
2.5499146252290261e-01 2.0592394524795649e-01 0.0000000000000000e+00
2.5492318019837168e-01 2.0222942625420148e-01 0.0000000000000000e+00
2.5458223477553710e-01 1.9855003917348985e-01 0.0000000000000000e+00
2.5397048838006830e-01 1.9490587954214950e-01 0.0000000000000000e+00
2.5309128215864096e-01 1.9131685049639585e-01 0.0000000000000000e+00
2.5194941803075283e-01 1.8780255406830357e-01 0.0000000000000000e+00
2.5055113246230443e-01 1.8438218412630480e-01 0.0000000000000000e+00
2.4890406240418489e-01 1.8107442154493567e-01 0.0000000000000000e+00
2.4701720358189463e-01 1.7789733217637752e-01 0.0000000000000000e+00
2.4490086136401196e-01 1.7486826818103718e-01 0.0000000000000000e+00
2.4256659447784368e-01 1.7200377325606386e-01 0.0000000000000000e+00
2.4002715187966456e-01 1.6931949227941237e-01 0.0000000000000000e+00
2.3729640312433936e-01 1.6683008586294484e-01 0.0000000000000000e+00
2.3438926261462364e-01 1.6454915028125261e-01 0.0000000000000000e+00
2.3132160814386779e-01 1.6248914321351929e-01 0.0000000000000000e+00
2.2811019417701567e-01 1.6066131570399689e-01 0.0000000000000000e+00
2.2477256034352711e-01 1.5907565071270383e-01 0.0000000000000000e+00
2.2132693564200415e-01 1.5774080859195902e-01 0.0000000000000000e+00
2.1779213887972179e-01 1.5666407978654062e-01 0.0000000000000000e+00
2.1418747589082851e-01 1.5585134501580489e-01 0.0000000000000000e+00
2.1053263409457504e-01 1.5530704315523630e-01 0.0000000000000000e+00
2.0684757496945724e-01 1.5503414699284884e-01 0.0000000000000000e+00
2.0315242503054276e-01 1.5503414699284884e-01 0.0000000000000000e+00
1.9946736590542494e-01 1.5530704315523630e-01 0.0000000000000000e+00
1.9581252410917149e-01 1.5585134501580489e-01 0.0000000000000000e+00
1.9220786112027824e-01 1.5666407978654062e-01 0.0000000000000000e+00
1.8867306435799580e-01 1.5774080859195902e-01 0.0000000000000000e+00
1.8522743965647287e-01 1.5907565071270383e-01 0.0000000000000000e+00
1.8188980582298436e-01 1.6066131570399689e-01 0.0000000000000000e+00
1.7867839185613218e-01 1.6248914321351929e-01 0.0000000000000000e+00
1.7561073738537633e-01 1.6454915028125261e-01 0.0000000000000000e+00
1.7270359687566061e-01 1.6683008586294484e-01 0.0000000000000000e+00
1.6997284812033545e-01 1.6931949227941237e-01 0.0000000000000000e+00
1.6743340552215633e-01 1.7200377325606384e-01 0.0000000000000000e+00
1.6509913863598802e-01 1.7486826818103715e-01 0.0000000000000000e+00
1.6298279641810537e-01 1.7789733217637752e-01 0.0000000000000000e+00
1.6109593759581509e-01 1.8107442154493564e-01 0.0000000000000000e+00
1.5944886753769555e-01 1.8438218412630480e-01 0.0000000000000000e+00
1.5805058196924715e-01 1.8780255406830357e-01 0.0000000000000000e+00
1.5690871784135904e-01 1.9131685049639582e-01 0.0000000000000000e+00
1.5602951161993170e-01 1.9490587954214944e-01 0.0000000000000000e+00
1.5541776522446285e-01 1.9855003917348979e-01 0.0000000000000000e+00
1.5507681980162830e-01 2.0222942625420148e-01 0.0000000000000000e+00
1.5500853747709736e-01 2.0592394524795646e-01 0.0000000000000000e+00
1.5521329118524826e-01 2.0961341797316507e-01 0.0000000000000000e+00
1.5568996263232987e-01 2.1327769380920650e-01 0.0000000000000000e+00
1.5643594840419428e-01 2.1689675975213094e-01 0.0000000000000000e+00
1.5744717418524229e-01 2.2045084971874734e-01 0.0000000000000000e+00
1.5871811701092217e-01 2.2392055250211548e-01 0.0000000000000000e+00
1.6024183543224685e-01 2.2728691778882687e-01 0.0000000000000000e+00
1.6201000742758137e-01 2.3053155965904534e-01 0.0000000000000000e+00
1.6401297585463892e-01 2.3363675700402525e-01 0.0000000000000000e+00
1.6623980119444348e-01 2.3658555031266254e-01 0.0000000000000000e+00
1.6867832129918880e-01 2.3936183429846314e-01 0.0000000000000000e+00
1.7131521781767209e-01 2.4195044586103293e-01 0.0000000000000000e+00
1.7413608893551033e-01 2.4433724690167416e-01 0.0000000000000000e+00
1.7712552803285569e-01 2.4650920154077752e-01 0.0000000000000000e+00
1.8026720783001102e-01 2.4845444731527638e-01 0.0000000000000000e+00
1.8354396956136954e-01 2.5016235996730646e-01 0.0000000000000000e+00
1.8693791669064233e-01 2.5162361147021778e-01 0.0000000000000000e+00
1.9043051265553373e-01 2.5283022097502206e-01 0.0000000000000000e+00
1.9400268210801652e-01 2.5377559839902181e-01 0.0000000000000000e+00
1.9763491509726808e-01 2.5445458041855729e-01 0.0000000000000000e+00
2.0130737362625628e-01 2.5486345866928939e-01 0.0000000000000000e+00
2 0 1
2 1 2
2 2 3
2 3 0
2 4 5
2 5 6
2 6 7
2 7 8
2 8 9
2 9 10
2 10 11
2 11 12
2 12 13
2 13 14
2 14 15
2 15 16
2 16 17
2 17 18
2 18 19
2 19 20
2 20 21
2 21 22
2 22 23
2 23 24
2 24 25
2 25 26
2 26 27
2 27 28
2 28 29
2 29 30
2 30 31
2 31 32
2 32 33
2 33 34
2 34 35
2 35 36
2 36 37
2 37 38
2 38 39
2 39 40
2 40 41
2 41 42
2 42 43
2 43 44
2 44 45
2 45 46
2 46 47
2 47 48
2 48 49
2 49 50
2 50 51
2 51 52
2 52 53
2 53 54
2 54 55
2 55 56
2 56 57
2 57 58
2 58 59
2 59 60
2 60 61
2 61 62
2 62 63
2 63 64
2 64 65
2 65 66
2 66 67
2 67 68
2 68 69
2 69 70
2 70 71
2 71 72
2 72 73
2 73 74
2 74 75
2 75 76
2 76 77
2 77 78
2 78 79
2 79 80
2 80 81
2 81 82
2 82 83
2 83 84
2 84 85
2 85 86
2 86 87
2 87 88
2 88 4
