<?xml version="1.0" encoding="UTF-8"?>
<svg xmlns="http://www.w3.org/2000/svg" xmlns:xlink="http://www.w3.org/1999/xlink" width="100pt" height="75pt" viewBox="0 0 100 75" version="1.1">
<g id="surface1">
<path style=" stroke:none;fill-rule:nonzero;fill:rgb(100%,0%,0%);fill-opacity:1;" d="M 58.800781 12.046875 C 58.800781 11.996094 58.882812 37.953125 58.851562 39.484375 C 58.800781 42.171875 56.109375 45.023438 53.734375 45.023438 C 51.941406 45.023438 16.171875 45.074219 13.796875 45.074219 C 11.371094 45.074219 8.523438 42.066406 8.46875 39.589844 C 8.46875 37.742188 8.523438 12.578125 8.46875 12.628906 C 8.523438 9.675781 11.476562 6.71875 14.378906 6.71875 C 14.429688 6.71875 53.261719 6.667969 53.261719 6.613281 C 56.058594 6.667969 58.800781 9.304688 58.800781 12.046875 "/>
<path style=" stroke:none;fill-rule:nonzero;fill:rgb(100%,100%,100%);fill-opacity:1;" d="M 14.324219 9.832031 C 15.40625 9.832031 52.273438 9.886719 53.140625 9.886719 C 54.449219 9.886719 55.714844 11.269531 55.714844 12.46875 L 55.714844 39.535156 C 55.714844 40.945312 54.160156 41.964844 53.078125 41.964844 C 51.996094 41.964844 15.855469 41.953125 14.445312 41.964844 C 12.992188 41.976562 11.714844 40.667969 11.765625 39.441406 C 11.816406 38.324219 11.714844 13.644531 11.714844 12.574219 C 11.714844 11.347656 13.136719 9.832031 14.324219 9.832031 "/>
<path style=" stroke:none;fill-rule:nonzero;fill:rgb(100%,0%,0%);fill-opacity:1;" d="M 14.5625 11.191406 L 52.984375 11.191406 C 53.933594 11.191406 54.488281 11.902344 54.488281 12.695312 L 54.488281 39.246094 C 54.488281 40.15625 53.65625 40.789062 52.867188 40.789062 C 52.074219 40.789062 15.550781 40.710938 14.523438 40.710938 C 13.496094 40.710938 12.902344 40.035156 12.902344 39.046875 C 12.902344 38.058594 13.003906 14.117188 12.960938 13.011719 C 12.921875 12.023438 13.574219 11.191406 14.5625 11.191406 "/>
<path style=" stroke:none;fill-rule:nonzero;fill:rgb(100%,100%,100%);fill-opacity:1;" d="M 17.226562 14.554688 L 19.496094 14.554688 L 19.496094 16.507812 L 20.867188 16.507812 L 20.867188 14.554688 L 23.003906 14.554688 L 23.003906 16.53125 L 24.351562 16.53125 L 24.351562 14.582031 L 26.671875 14.582031 L 26.671875 18.089844 L 25.472656 19.289062 L 25.472656 24.738281 L 29.996094 24.738281 L 29.996094 22.625 L 28.914062 21.546875 L 28.914062 18.089844 L 31.023438 18.089844 L 31.023438 20.066406 L 32.394531 20.066406 L 32.394531 18.089844 L 34.664062 18.089844 L 34.664062 20.066406 L 36.035156 20.066406 L 36.035156 18.089844 L 38.460938 18.089844 L 38.460938 21.414062 L 37.144531 22.730469 L 37.144531 24.761719 L 41.8125 24.761719 L 41.8125 19.011719 L 40.808594 18.011719 L 40.808594 14.554688 L 43.027344 14.554688 L 43.027344 16.558594 L 44.398438 16.558594 L 44.398438 14.582031 L 46.667969 14.582031 L 46.667969 16.53125 L 48.039062 16.53125 L 48.039062 14.554688 L 50.203125 14.554688 L 50.203125 18.089844 L 49.144531 19.144531 L 49.144531 31.9375 L 50.265625 33.058594 L 50.265625 36.582031 L 17.199219 36.582031 L 17.199219 33.046875 L 18.453125 31.871094 L 18.453125 19.171875 L 17.246094 18.042969 Z M 17.226562 14.554688 "/>
<path style=" stroke:none;fill-rule:nonzero;fill:rgb(100%,0%,0%);fill-opacity:1;" d="M 44.871094 20.066406 L 46.246094 20.066406 L 46.246094 24.761719 L 44.871094 24.761719 Z M 44.871094 20.066406 "/>
<path style=" stroke:none;fill-rule:nonzero;fill:rgb(100%,0%,0%);fill-opacity:1;" d="M 46.21875 33.074219 L 44.847656 33.074219 L 44.847656 28.457031 L 46.21875 28.457031 Z M 46.21875 33.074219 "/>
<path style=" stroke:none;fill-rule:nonzero;fill:rgb(100%,0%,0%);fill-opacity:1;" d="M 40.652344 31.964844 L 39.410156 31.964844 L 39.410156 28.457031 L 40.652344 28.457031 Z M 40.652344 31.964844 "/>
<path style=" stroke:none;fill-rule:nonzero;fill:rgb(100%,0%,0%);fill-opacity:1;" d="M 26.777344 28.457031 L 28.09375 28.457031 L 28.09375 31.964844 L 26.75 31.964844 Z M 26.777344 28.457031 "/>
<path style=" stroke:none;fill-rule:nonzero;fill:rgb(100%,0%,0%);fill-opacity:1;" d="M 22.554688 28.457031 L 22.554688 33.046875 L 21.238281 33.046875 L 21.238281 28.429688 Z M 22.554688 28.457031 "/>
<path style=" stroke:none;fill-rule:nonzero;fill:rgb(100%,0%,0%);fill-opacity:1;" d="M 22.609375 24.738281 L 21.238281 24.738281 L 21.238281 20.066406 L 22.609375 20.066406 Z M 22.609375 24.738281 "/>
<path style=" stroke:none;fill-rule:nonzero;fill:rgb(100%,0%,0%);fill-opacity:1;" d="M 30.628906 35.683594 L 36.667969 35.683594 L 36.667969 31.964844 C 36.667969 29.800781 34.109375 28.429688 33.554688 28.429688 C 33.003906 28.429688 30.628906 29.984375 30.601562 31.964844 C 30.601562 32.464844 30.628906 35.683594 30.628906 35.683594 "/>
<path style=" stroke:none;fill-rule:nonzero;fill:rgb(0%,0%,0%);fill-opacity:1;" d="M 8.402344 48.835938 L 10.1875 48.835938 L 10.1875 53.339844 C 10.1875 54.101562 10.210938 54.59375 10.253906 54.820312 C 10.328125 55.179688 10.511719 55.472656 10.800781 55.691406 C 11.085938 55.910156 11.480469 56.019531 11.980469 56.019531 C 12.484375 56.019531 12.867188 55.917969 13.125 55.710938 C 13.382812 55.503906 13.539062 55.246094 13.589844 54.945312 C 13.640625 54.644531 13.667969 54.144531 13.667969 53.445312 L 13.667969 48.722656 L 15.453125 48.722656 L 15.453125 53.195312 C 15.453125 54.257812 15.40625 55.007812 15.308594 55.445312 C 15.214844 55.886719 15.035156 56.253906 14.777344 56.558594 C 14.515625 56.859375 14.167969 57.097656 13.734375 57.277344 C 13.300781 57.457031 12.734375 57.546875 12.035156 57.546875 C 11.1875 57.546875 10.546875 57.449219 10.113281 57.253906 C 9.675781 57.058594 9.332031 56.804688 9.078125 56.492188 C 8.824219 56.183594 8.65625 55.855469 8.574219 55.511719 C 8.460938 55.007812 8.402344 54.257812 8.402344 53.269531 Z M 8.402344 48.835938 "/>
<path style=" stroke:none;fill-rule:nonzero;fill:rgb(0%,0%,0%);fill-opacity:1;" d="M 17.328125 54.617188 L 19.078125 54.449219 C 19.183594 55.027344 19.398438 55.449219 19.71875 55.71875 C 20.042969 55.988281 20.476562 56.121094 21.023438 56.121094 C 21.605469 56.121094 22.042969 56.003906 22.335938 55.761719 C 22.628906 55.523438 22.777344 55.242188 22.777344 54.921875 C 22.777344 54.714844 22.714844 54.539062 22.589844 54.394531 C 22.464844 54.25 22.25 54.125 21.941406 54.015625 C 21.730469 53.945312 21.25 53.820312 20.5 53.636719 C 19.535156 53.402344 18.804688 53.1875 18.417969 52.847656 C 17.871094 52.367188 17.648438 51.707031 17.648438 51.019531 C 17.648438 50.574219 17.777344 50.160156 18.035156 49.773438 C 18.292969 49.386719 18.664062 49.089844 19.148438 48.890625 C 19.632812 48.6875 20.21875 48.585938 20.902344 48.585938 C 22.023438 48.585938 22.863281 48.824219 23.429688 49.304688 C 23.996094 49.785156 24.292969 50.425781 24.320312 51.226562 L 22.519531 51.304688 C 22.445312 50.855469 22.277344 50.535156 22.023438 50.335938 C 21.769531 50.140625 21.390625 50.042969 20.882812 50.042969 C 20.363281 50.042969 19.953125 50.148438 19.65625 50.359375 C 19.464844 50.492188 19.371094 50.675781 19.371094 50.898438 C 19.371094 51.105469 19.460938 51.28125 19.636719 51.429688 C 19.863281 51.617188 20.417969 51.808594 21.292969 52.011719 C 22.167969 52.214844 22.816406 52.425781 23.234375 52.640625 C 23.65625 52.855469 23.984375 53.152344 24.21875 53.527344 C 24.457031 53.898438 24.574219 54.363281 24.574219 54.914062 C 24.574219 55.414062 24.433594 55.882812 24.148438 56.320312 C 23.867188 56.753906 23.464844 57.078125 22.945312 57.292969 C 22.425781 57.503906 21.78125 57.609375 21.007812 57.609375 C 19.878906 57.609375 19.011719 57.355469 18.410156 56.847656 C 17.804688 56.335938 17.445312 55.59375 17.328125 54.617188 "/>
<path style=" stroke:none;fill-rule:nonzero;fill:rgb(0%,0%,0%);fill-opacity:1;" d="M 34.34375 53.960938 L 33.210938 50.675781 L 32.101562 53.960938 Z M 37.398438 57.457031 L 35.59375 57.457031 L 34.878906 55.449219 L 31.589844 55.449219 L 30.914062 57.457031 L 29.152344 57.457031 L 32.355469 48.613281 L 34.109375 48.613281 Z M 37.398438 57.457031 "/>
<path style=" stroke:none;fill-rule:nonzero;fill:rgb(0%,0%,0%);fill-opacity:1;" d="M 39.777344 57.453125 L 38.082031 57.453125 L 38.082031 51.042969 L 39.65625 51.042969 L 39.65625 51.957031 C 39.925781 51.527344 40.167969 51.242188 40.382812 51.105469 C 40.597656 50.96875 40.84375 50.898438 41.117188 50.898438 C 41.5 50.898438 41.875 51.007812 42.230469 51.21875 L 41.707031 52.699219 C 41.421875 52.511719 41.15625 52.421875 40.910156 52.421875 C 40.671875 52.421875 40.472656 52.484375 40.308594 52.617188 C 40.140625 52.746094 40.011719 52.984375 39.917969 53.324219 C 39.824219 53.667969 39.777344 54.382812 39.777344 55.472656 Z M 39.777344 57.453125 "/>
<path style=" stroke:none;fill-rule:nonzero;fill:rgb(0%,0%,0%);fill-opacity:1;" d="M 42.59375 51.042969 L 44.128906 51.042969 L 44.128906 51.917969 C 44.679688 51.238281 45.332031 50.898438 46.089844 50.898438 C 46.492188 50.898438 46.84375 50.984375 47.140625 51.152344 C 47.433594 51.324219 47.679688 51.578125 47.867188 51.917969 C 48.144531 51.578125 48.441406 51.324219 48.761719 51.152344 C 49.082031 50.984375 49.425781 50.898438 49.789062 50.898438 C 50.25 50.898438 50.640625 50.996094 50.960938 51.1875 C 51.28125 51.378906 51.519531 51.660156 51.675781 52.027344 C 51.792969 52.300781 51.847656 52.746094 51.847656 53.355469 L 51.847656 57.453125 L 50.183594 57.453125 L 50.183594 53.789062 C 50.183594 53.15625 50.128906 52.746094 50.011719 52.558594 C 49.859375 52.316406 49.621094 52.199219 49.300781 52.199219 C 49.070312 52.199219 48.847656 52.269531 48.644531 52.414062 C 48.4375 52.558594 48.289062 52.773438 48.199219 53.050781 C 48.109375 53.332031 48.0625 53.773438 48.0625 54.375 L 48.0625 57.453125 L 46.398438 57.453125 L 46.398438 53.941406 C 46.398438 53.316406 46.371094 52.914062 46.308594 52.734375 C 46.25 52.554688 46.160156 52.417969 46.035156 52.328125 C 45.910156 52.242188 45.742188 52.199219 45.527344 52.199219 C 45.269531 52.199219 45.039062 52.269531 44.835938 52.410156 C 44.628906 52.550781 44.480469 52.753906 44.394531 53.019531 C 44.304688 53.285156 44.261719 53.722656 44.261719 54.339844 L 44.261719 57.453125 L 42.59375 57.453125 Z M 42.59375 51.042969 "/>
<path style=" stroke:none;fill-rule:nonzero;fill:rgb(0%,0%,0%);fill-opacity:1;" d="M 52.152344 51.046875 L 53.863281 51.046875 L 55.316406 55.59375 L 56.734375 51.046875 L 58.398438 51.046875 L 56.253906 57.210938 L 55.871094 58.328125 C 55.730469 58.703125 55.59375 58.988281 55.46875 59.183594 C 55.339844 59.382812 55.191406 59.542969 55.027344 59.664062 C 54.859375 59.789062 54.65625 59.882812 54.414062 59.953125 C 54.171875 60.019531 53.898438 60.054688 53.59375 60.054688 C 53.285156 60.054688 52.984375 60.019531 52.683594 59.953125 L 52.542969 58.625 C 52.792969 58.675781 53.019531 58.703125 53.222656 58.703125 C 53.597656 58.703125 53.871094 58.585938 54.050781 58.355469 C 54.230469 58.125 54.367188 57.828125 54.464844 57.472656 Z M 52.152344 51.046875 "/>
<path style=" stroke:none;fill-rule:nonzero;fill:rgb(0%,0%,0%);fill-opacity:1;" d="M 68.835938 54.371094 L 70.566406 54.535156 C 70.507812 55.449219 69.859375 56.605469 69.242188 57.074219 C 68.625 57.542969 67.84375 57.777344 66.894531 57.777344 C 65.71875 57.777344 64.753906 57.375 63.996094 56.574219 C 63.242188 55.769531 62.863281 54.671875 62.863281 53.28125 C 62.863281 51.808594 63.242188 50.664062 64.003906 49.851562 C 64.761719 49.035156 65.761719 48.628906 67 48.628906 C 68.082031 48.628906 68.960938 48.949219 69.636719 49.589844 C 70.039062 49.964844 70.621094 50.875 70.621094 51.730469 L 68.777344 51.640625 C 68.671875 51.179688 68.453125 50.820312 68.121094 50.554688 C 67.789062 50.289062 67.386719 50.15625 66.910156 50.15625 C 66.253906 50.15625 65.722656 50.390625 65.316406 50.859375 C 64.90625 51.332031 64.703125 52.09375 64.703125 53.148438 C 64.703125 54.265625 64.902344 55.0625 65.304688 55.539062 C 65.707031 56.011719 66.230469 56.25 66.875 56.25 C 67.347656 56.25 67.757812 56.097656 68.101562 55.796875 C 68.441406 55.496094 68.6875 55.019531 68.835938 54.371094 "/>
<path style=" stroke:none;fill-rule:nonzero;fill:rgb(0%,0%,0%);fill-opacity:1;" d="M 72.976562 54.304688 C 72.976562 54.941406 73.128906 55.429688 73.433594 55.765625 C 73.738281 56.105469 74.113281 56.273438 74.558594 56.273438 C 75.003906 56.273438 75.375 56.105469 75.679688 55.765625 C 75.980469 55.429688 76.132812 54.9375 76.132812 54.292969 C 76.132812 53.667969 75.980469 53.183594 75.679688 52.847656 C 75.375 52.507812 75.003906 52.339844 74.558594 52.339844 C 74.113281 52.339844 73.738281 52.507812 73.433594 52.847656 C 73.128906 53.183594 72.976562 53.671875 72.976562 54.304688 M 71.226562 54.214844 C 71.226562 53.652344 71.367188 53.109375 71.648438 52.582031 C 71.925781 52.054688 72.320312 51.652344 72.835938 51.375 C 73.347656 51.097656 73.917969 50.957031 74.550781 50.957031 C 75.527344 50.957031 76.328125 51.273438 76.953125 51.902344 C 77.574219 52.53125 77.886719 53.328125 77.886719 54.289062 C 77.886719 55.257812 77.570312 56.0625 76.941406 56.699219 C 76.3125 57.335938 75.519531 57.65625 74.5625 57.65625 C 73.972656 57.65625 73.40625 57.523438 72.871094 57.257812 C 72.335938 56.992188 71.925781 56.601562 71.648438 56.089844 C 71.367188 55.578125 71.226562 54.953125 71.226562 54.214844 "/>
<path style=" stroke:none;fill-rule:nonzero;fill:rgb(0%,0%,0%);fill-opacity:1;" d="M 84.945312 54.082031 C 84.945312 54.804688 85.085938 55.335938 85.371094 55.679688 C 85.652344 56.023438 86 56.195312 86.40625 56.195312 C 86.796875 56.195312 87.125 56.039062 87.382812 55.722656 C 87.644531 55.40625 87.773438 54.886719 87.773438 54.167969 C 87.773438 53.496094 87.640625 52.996094 87.371094 52.671875 C 87.105469 52.34375 86.773438 52.183594 86.375 52.183594 C 85.964844 52.183594 85.625 52.34375 85.351562 52.664062 C 85.082031 52.980469 84.945312 53.457031 84.945312 54.082031 M 83.277344 50.988281 L 84.847656 50.988281 L 84.847656 51.929688 C 85.054688 51.605469 85.328125 51.347656 85.675781 51.144531 C 86.023438 50.945312 86.410156 50.84375 86.832031 50.84375 C 87.570312 50.84375 88.199219 51.132812 88.714844 51.71875 C 89.230469 52.300781 89.488281 53.113281 89.488281 54.15625 C 89.488281 55.226562 89.226562 56.058594 88.707031 56.648438 C 88.1875 57.246094 87.558594 57.539062 86.820312 57.539062 C 86.46875 57.539062 86.148438 57.46875 85.863281 57.328125 C 85.578125 57.1875 85.277344 56.949219 84.960938 56.605469 L 84.960938 59.832031 L 83.277344 59.832031 Z M 83.277344 50.988281 "/>
<path style=" stroke:none;fill-rule:nonzero;fill:rgb(0%,0%,0%);fill-opacity:1;" d="M 89.972656 55.335938 L 91.683594 55.394531 C 91.753906 55.722656 91.902344 55.972656 92.125 56.144531 C 92.34375 56.316406 92.652344 56.402344 93.050781 56.402344 C 93.492188 56.402344 93.820312 56.320312 94.042969 56.160156 C 94.191406 56.046875 94.265625 55.898438 94.265625 55.707031 C 94.265625 55.578125 94.226562 55.472656 94.144531 55.386719 C 94.058594 55.308594 93.871094 55.234375 93.578125 55.164062 C 92.210938 54.863281 91.34375 54.585938 90.976562 54.339844 C 90.46875 53.992188 90.214844 53.511719 90.214844 52.894531 C 90.214844 52.339844 90.4375 51.875 90.875 51.496094 C 91.3125 51.117188 91.992188 50.929688 92.914062 50.929688 C 93.789062 50.929688 94.441406 51.070312 94.867188 51.355469 C 95.296875 51.644531 95.722656 52.246094 95.722656 52.933594 L 94.152344 52.921875 C 94.082031 52.671875 93.953125 52.480469 93.761719 52.347656 C 93.570312 52.214844 93.296875 52.148438 92.945312 52.148438 C 92.496094 52.148438 92.175781 52.210938 91.984375 52.335938 C 91.855469 52.421875 91.792969 52.539062 91.792969 52.679688 C 91.792969 52.800781 91.847656 52.902344 91.960938 52.988281 C 92.113281 53.097656 92.640625 53.257812 93.542969 53.464844 C 94.445312 53.667969 95.078125 53.917969 95.4375 54.21875 C 95.789062 54.519531 95.964844 54.9375 95.964844 55.476562 C 95.964844 56.066406 95.722656 56.570312 95.230469 56.992188 C 94.738281 57.414062 94.015625 57.625 93.050781 57.625 C 92.179688 57.625 91.488281 57.449219 90.980469 57.09375 C 90.46875 56.742188 89.972656 56.195312 89.972656 55.335938 "/>
<path style=" stroke:none;fill-rule:nonzero;fill:rgb(0%,0%,0%);fill-opacity:1;" d="M 10.007812 66.128906 C 10.007812 66.761719 10.15625 67.25 10.457031 67.585938 C 10.753906 67.925781 11.121094 68.09375 11.558594 68.09375 C 11.996094 68.09375 12.363281 67.925781 12.660156 67.585938 C 12.957031 67.25 13.105469 66.757812 13.105469 66.113281 C 13.105469 65.488281 12.957031 65.003906 12.660156 64.667969 C 12.363281 64.328125 11.996094 64.160156 11.558594 64.160156 C 11.121094 64.160156 10.753906 64.328125 10.457031 64.667969 C 10.15625 65.003906 10.007812 65.492188 10.007812 66.128906 M 8.289062 66.035156 C 8.289062 65.472656 8.425781 64.929688 8.699219 64.402344 C 8.976562 63.875 9.363281 63.472656 9.867188 63.195312 C 10.371094 62.917969 10.933594 62.777344 11.554688 62.777344 C 12.511719 62.777344 13.300781 63.09375 13.910156 63.722656 C 14.523438 64.351562 14.832031 65.148438 14.832031 66.109375 C 14.832031 67.078125 14.523438 67.882812 13.902344 68.519531 C 13.285156 69.15625 12.503906 69.476562 11.566406 69.476562 C 10.984375 69.476562 10.429688 69.34375 9.902344 69.078125 C 9.375 68.8125 8.976562 68.421875 8.699219 67.910156 C 8.425781 67.398438 8.289062 66.773438 8.289062 66.035156 "/>
<path style=" stroke:none;fill-rule:nonzero;fill:rgb(0%,0%,0%);fill-opacity:1;" d="M 15.0625 62.921875 L 16.074219 62.851562 L 16.074219 62.335938 C 16.074219 61.796875 16.238281 61.277344 16.460938 61.007812 C 16.890625 60.492188 18.445312 60.433594 18.90625 60.578125 L 18.949219 62.035156 C 18.679688 61.972656 18.09375 61.910156 17.792969 62.121094 C 17.664062 62.214844 17.699219 62.921875 17.699219 62.921875 L 18.964844 62.921875 L 18.964844 64.257812 L 17.699219 64.257812 L 17.699219 69.332031 L 16.140625 69.351562 L 16.160156 64.269531 L 15.0625 64.257812 Z M 15.0625 62.921875 "/>
<path style=" stroke:none;fill-rule:nonzero;fill:rgb(0%,0%,0%);fill-opacity:1;" d="M 24.335938 69.316406 L 24.335938 60.644531 L 30.683594 60.644531 L 30.683594 62.113281 L 26.066406 62.113281 L 26.066406 64.035156 L 30.363281 64.035156 L 30.363281 65.496094 L 26.066406 65.496094 L 26.066406 67.855469 L 30.847656 67.855469 L 30.847656 69.316406 Z M 24.335938 69.316406 "/>
<path style=" stroke:none;fill-rule:nonzero;fill:rgb(0%,0%,0%);fill-opacity:1;" d="M 37.882812 69.375 L 36.1875 69.375 L 36.1875 66.035156 C 36.1875 65.328125 36.152344 64.871094 36.078125 64.664062 C 36.007812 64.457031 35.890625 64.292969 35.726562 64.179688 C 35.5625 64.0625 35.367188 64.003906 35.136719 64.003906 C 34.84375 64.003906 34.582031 64.085938 34.347656 64.253906 C 34.113281 64.417969 33.953125 64.632812 33.867188 64.90625 C 33.78125 65.175781 33.738281 65.679688 33.738281 66.410156 L 33.738281 69.375 L 32.042969 69.375 L 32.042969 62.828125 L 33.617188 62.828125 L 33.617188 63.789062 C 34.175781 63.050781 34.878906 62.679688 35.730469 62.679688 C 36.105469 62.679688 36.445312 62.75 36.753906 62.886719 C 37.066406 63.023438 37.300781 63.199219 37.457031 63.414062 C 37.617188 63.628906 37.726562 63.871094 37.789062 64.140625 C 37.851562 64.414062 37.882812 64.800781 37.882812 65.304688 Z M 37.882812 69.375 "/>
<path style=" stroke:none;fill-rule:nonzero;fill:rgb(0%,0%,0%);fill-opacity:1;" d="M 40.664062 65.964844 C 40.664062 66.652344 40.796875 67.15625 41.058594 67.476562 C 41.320312 67.796875 41.648438 67.953125 42.035156 67.953125 C 42.449219 67.953125 42.796875 67.792969 43.082031 67.460938 C 43.367188 67.136719 43.511719 66.648438 43.511719 66.003906 C 43.511719 65.335938 43.375 64.835938 43.101562 64.507812 C 42.828125 64.183594 42.480469 64.019531 42.0625 64.019531 C 41.65625 64.019531 41.320312 64.179688 41.058594 64.5 C 40.796875 64.820312 40.664062 65.308594 40.664062 65.964844 M 39.148438 69.769531 L 41.085938 70.007812 C 41.117188 70.234375 41.191406 70.390625 41.308594 70.476562 C 41.46875 70.601562 41.722656 70.660156 42.070312 70.660156 C 42.511719 70.660156 42.84375 70.59375 43.066406 70.460938 C 43.214844 70.371094 43.328125 70.226562 43.402344 70.027344 C 43.457031 69.882812 43.480469 69.621094 43.480469 69.238281 L 43.480469 68.289062 C 42.976562 68.992188 42.335938 69.339844 41.5625 69.339844 C 40.703125 69.339844 40.019531 68.972656 39.515625 68.234375 C 39.125 67.652344 38.925781 66.929688 38.925781 66.0625 C 38.925781 64.972656 39.183594 64.140625 39.703125 63.566406 C 40.21875 62.992188 40.859375 62.707031 41.628906 62.707031 C 42.421875 62.707031 43.074219 63.058594 43.589844 63.765625 L 43.589844 62.855469 L 45.175781 62.855469 L 45.175781 68.675781 C 45.175781 69.441406 45.113281 70.015625 44.988281 70.390625 C 44.867188 70.769531 44.691406 71.066406 44.464844 71.285156 C 44.238281 71.5 43.9375 71.667969 43.5625 71.792969 C 43.1875 71.914062 42.710938 71.976562 42.136719 71.976562 C 41.050781 71.976562 40.28125 71.785156 39.824219 71.410156 C 39.371094 71.03125 39.144531 70.554688 39.144531 69.976562 C 39.144531 69.917969 39.144531 69.851562 39.148438 69.769531 "/>
<path style=" stroke:none;fill-rule:nonzero;fill:rgb(0%,0%,0%);fill-opacity:1;" d="M 46.5 62.964844 L 48.195312 62.964844 L 48.195312 69.375 L 46.5 69.375 Z M 46.5 60.527344 L 48.195312 60.527344 L 48.195312 62.097656 L 46.5 62.097656 Z M 46.5 60.527344 "/>
<path style=" stroke:none;fill-rule:nonzero;fill:rgb(0%,0%,0%);fill-opacity:1;" d="M 55.464844 69.375 L 53.769531 69.375 L 53.769531 66.121094 C 53.769531 65.429688 53.734375 64.984375 53.660156 64.78125 C 53.589844 64.582031 53.472656 64.421875 53.308594 64.3125 C 53.144531 64.199219 52.949219 64.144531 52.71875 64.144531 C 52.425781 64.144531 52.164062 64.222656 51.929688 64.382812 C 51.695312 64.542969 51.535156 64.757812 51.449219 65.019531 C 51.363281 65.285156 51.320312 65.773438 51.320312 66.484375 L 51.320312 69.375 L 49.625 69.375 L 49.625 62.996094 L 51.199219 62.996094 L 51.199219 63.933594 C 51.757812 63.214844 52.464844 62.851562 53.3125 62.851562 C 53.6875 62.851562 54.027344 62.917969 54.335938 63.054688 C 54.648438 63.1875 54.882812 63.359375 55.039062 63.566406 C 55.199219 63.773438 55.308594 64.011719 55.371094 64.277344 C 55.433594 64.539062 55.464844 64.917969 55.464844 65.410156 Z M 55.464844 69.375 "/>
<path style=" stroke:none;fill-rule:nonzero;fill:rgb(0%,0%,0%);fill-opacity:1;" d="M 60.582031 65.570312 C 60.570312 65.074219 60.445312 64.699219 60.203125 64.4375 C 59.960938 64.179688 59.667969 64.050781 59.320312 64.050781 C 58.949219 64.050781 58.644531 64.1875 58.402344 64.460938 C 58.164062 64.734375 58.042969 65.105469 58.046875 65.570312 Z M 60.484375 67.308594 L 62.25 67.429688 C 62.132812 68 61.613281 68.699219 61.144531 69.027344 C 60.675781 69.355469 60.089844 69.519531 59.386719 69.519531 C 58.273438 69.519531 57.449219 69.148438 56.914062 68.414062 C 56.492188 67.824219 56.28125 67.078125 56.28125 66.175781 C 56.28125 65.101562 56.558594 64.261719 57.113281 63.652344 C 57.667969 63.042969 58.371094 62.738281 59.21875 62.738281 C 60.171875 62.738281 60.925781 63.058594 61.476562 63.695312 C 62.027344 64.332031 62.289062 65.308594 62.265625 66.625 L 58.019531 66.625 C 58.03125 67.132812 58.167969 67.527344 58.429688 67.8125 C 58.691406 68.09375 59.015625 68.234375 59.40625 68.234375 C 59.671875 68.234375 59.894531 68.164062 60.074219 68.015625 C 60.257812 67.871094 60.394531 67.632812 60.484375 67.308594 "/>
<path style=" stroke:none;fill-rule:nonzero;fill:rgb(0%,0%,0%);fill-opacity:1;" d="M 67.042969 65.5625 C 67.03125 65.074219 66.90625 64.699219 66.664062 64.445312 C 66.421875 64.191406 66.128906 64.0625 65.785156 64.0625 C 65.414062 64.0625 65.109375 64.195312 64.867188 64.464844 C 64.625 64.734375 64.507812 65.101562 64.511719 65.5625 Z M 66.949219 67.277344 L 68.597656 67.371094 C 68.542969 68.058594 68.078125 68.652344 67.609375 68.976562 C 67.140625 69.300781 66.554688 69.460938 65.851562 69.460938 C 64.734375 69.460938 63.910156 69.097656 63.375 68.371094 C 62.953125 67.785156 62.742188 67.050781 62.742188 66.160156 C 62.742188 65.097656 63.019531 64.269531 63.574219 63.667969 C 64.128906 63.066406 64.832031 62.765625 65.679688 62.765625 C 66.632812 62.765625 67.386719 63.078125 67.9375 63.707031 C 68.488281 64.339844 68.753906 65.300781 68.726562 66.601562 L 64.480469 66.601562 C 64.492188 67.105469 64.628906 67.496094 64.890625 67.773438 C 65.152344 68.054688 65.476562 68.195312 65.867188 68.195312 C 66.132812 68.195312 66.355469 68.121094 66.539062 67.976562 C 66.71875 67.832031 66.855469 67.597656 66.949219 67.277344 "/>
<path style=" stroke:none;fill-rule:nonzero;fill:rgb(0%,0%,0%);fill-opacity:1;" d="M 73.546875 67.273438 L 75.242188 67.285156 C 75.316406 67.617188 75.460938 67.867188 75.683594 68.039062 C 75.90625 68.207031 76.214844 68.292969 76.613281 68.292969 C 77.050781 68.292969 77.382812 68.214844 77.601562 68.050781 C 77.75 67.941406 77.824219 67.789062 77.824219 67.601562 C 77.824219 67.472656 77.785156 67.363281 77.707031 67.28125 C 77.621094 67.199219 77.429688 67.125 77.136719 67.058594 C 75.769531 66.753906 74.902344 66.480469 74.539062 66.230469 C 74.03125 65.882812 73.777344 65.402344 73.777344 64.789062 C 73.777344 64.234375 73.996094 63.765625 74.433594 63.386719 C 74.875 63.011719 75.554688 62.820312 76.472656 62.820312 C 77.351562 62.820312 78.003906 62.964844 78.429688 63.25 C 78.855469 63.535156 79.253906 63.96875 79.253906 64.824219 L 77.710938 64.8125 C 77.644531 64.5625 77.511719 64.371094 77.324219 64.238281 C 77.128906 64.105469 76.859375 64.039062 76.503906 64.039062 C 76.058594 64.039062 75.738281 64.101562 75.546875 64.226562 C 75.417969 64.316406 75.351562 64.429688 75.351562 64.570312 C 75.351562 64.691406 75.40625 64.792969 75.519531 64.878906 C 75.671875 64.992188 76.203125 65.148438 77.105469 65.355469 C 78.007812 65.5625 78.636719 65.8125 78.996094 66.109375 C 79.351562 66.410156 79.527344 66.832031 79.527344 67.371094 C 79.527344 67.957031 79.28125 68.464844 78.792969 68.886719 C 78.300781 69.308594 77.574219 69.519531 76.613281 69.519531 C 75.738281 69.519531 75.046875 69.34375 74.539062 68.988281 C 74.03125 68.632812 73.675781 68.042969 73.546875 67.273438 "/>
<path style=" stroke:none;fill-rule:nonzero;fill:rgb(0%,0%,0%);fill-opacity:1;" d="M 71.140625 69.332031 L 69.445312 69.332031 L 69.445312 62.921875 L 71.019531 62.921875 L 71.019531 63.835938 C 71.289062 63.402344 71.535156 63.121094 71.75 62.984375 C 71.964844 62.847656 72.207031 62.777344 72.480469 62.777344 C 72.867188 62.777344 73.238281 62.886719 73.597656 63.097656 L 73.074219 64.578125 C 72.789062 64.390625 72.523438 64.296875 72.277344 64.296875 C 72.039062 64.296875 71.839844 64.363281 71.671875 64.496094 C 71.507812 64.625 71.378906 64.863281 71.285156 65.203125 C 71.1875 65.546875 71.140625 66.261719 71.140625 67.351562 Z M 71.140625 69.332031 "/>
<path style=" stroke:none;fill-rule:nonzero;fill:rgb(0%,0%,0%);fill-opacity:1;" d="M 80.300781 57.453125 L 78.605469 57.453125 L 78.605469 51.046875 L 80.179688 51.046875 L 80.179688 51.957031 C 80.449219 51.527344 80.691406 51.242188 80.90625 51.105469 C 81.121094 50.96875 81.367188 50.902344 81.640625 50.902344 C 82.023438 50.902344 82.398438 51.007812 82.753906 51.21875 L 82.230469 52.699219 C 81.945312 52.511719 81.679688 52.421875 81.433594 52.421875 C 81.195312 52.421875 80.996094 52.488281 80.832031 52.617188 C 80.664062 52.75 80.535156 52.984375 80.441406 53.328125 C 80.347656 53.667969 80.300781 54.382812 80.300781 55.472656 Z M 80.300781 57.453125 "/>
<path style=" stroke:none;fill-rule:nonzero;fill:rgb(0%,0%,0%);fill-opacity:1;" d="M 85.960938 68.300781 C 85.960938 69.734375 84.796875 70.894531 83.363281 70.894531 C 81.929688 70.894531 80.769531 69.734375 80.769531 68.300781 C 80.769531 66.867188 81.929688 65.703125 83.363281 65.703125 C 84.796875 65.703125 85.960938 66.867188 85.960938 68.300781 "/>
<path style=" stroke:none;fill-rule:nonzero;fill:rgb(100%,100%,100%);fill-opacity:1;" d="M 85.71875 68.28125 C 85.71875 69.5625 84.679688 70.601562 83.398438 70.601562 C 82.117188 70.601562 81.078125 69.5625 81.078125 68.28125 C 81.078125 67 82.117188 65.960938 83.398438 65.960938 C 84.679688 65.960938 85.71875 67 85.71875 68.28125 "/>
<path style=" stroke:none;fill-rule:nonzero;fill:rgb(0%,0%,0%);fill-opacity:1;" d="M 82.230469 66.839844 C 82.230469 66.839844 83.570312 66.863281 83.992188 66.863281 C 84.726562 66.863281 84.683594 68.410156 84.121094 68.375 C 84.511719 68.398438 84.527344 68.664062 84.511719 68.808594 C 84.472656 69.148438 84.511719 69.359375 84.511719 69.523438 C 84.511719 69.683594 84.683594 69.652344 84.683594 69.652344 L 84.664062 69.792969 L 84.175781 69.792969 C 84.175781 69.792969 84.164062 69.113281 84.175781 68.882812 C 84.1875 68.65625 84.03125 68.480469 83.839844 68.484375 C 83.617188 68.492188 83.554688 68.488281 82.652344 68.484375 L 82.628906 69.824219 L 82.21875 69.824219 Z M 82.230469 66.839844 "/>
<path style=" stroke:none;fill-rule:nonzero;fill:rgb(100%,100%,100%);fill-opacity:1;" d="M 82.628906 68.203125 L 82.628906 67.1875 C 82.628906 67.1875 83.34375 67.164062 83.820312 67.164062 C 84.296875 67.164062 84.226562 68.203125 83.882812 68.203125 Z M 82.628906 68.203125 "/>
</g>
</svg>
