ply
format ascii 1.0
comment author: Proteus
comment object: DefaultPSLGDomain
element vertex 4
property float x
property float y
property float z
element face 4 
property list uchar int vertex_index
end_header
0.0000000000000000e+00 0.0000000000000000e+00 0.0000000000000000e+00
1.0000000000000000e+00 0.0000000000000000e+00 0.0000000000000000e+00
1.0000000000000000e+00 1.0000000000000000e+00 0.0000000000000000e+00
0.0000000000000000e+00 1.0000000000000000e+00 0.0000000000000000e+00
2 0 1
2 1 2
2 2 3
2 3 0
