<?xml version="1.0" encoding="UTF-8" standalone="no"?>
<!DOCTYPE svg PUBLIC "-//W3C//DTD SVG 1.1//EN"
 "http://www.w3.org/Graphics/SVG/1.1/DTD/svg11.dtd">
<!-- Generated by graphviz version 2.40.1 (20161225.0304)
 -->
<!-- Title: ADR.h Pages: 1 -->
<svg width="244pt" height="140pt"
 viewBox="0.00 0.00 244.00 140.00" xmlns="http://www.w3.org/2000/svg" xmlns:xlink="http://www.w3.org/1999/xlink">
<g id="graph0" class="graph" transform="scale(1 1) rotate(0) translate(4 136)">
<title>ADR.h</title>
<polygon fill="#ffffff" stroke="transparent" points="-4,4 -4,-136 240,-136 240,4 -4,4"/>
<!-- Node0 -->
<g id="node1" class="node">
<title>Node0</title>
<polygon fill="#bfbfbf" stroke="#000000" points="66.5,-112.5 66.5,-131.5 113.5,-131.5 113.5,-112.5 66.5,-112.5"/>
<text text-anchor="middle" x="90" y="-119.5" font-family="Helvetica,sans-Serif" font-size="10.00" fill="#000000">ADR.h</text>
</g>
<!-- Node1 -->
<g id="node2" class="node">
<title>Node1</title>
<polygon fill="#ffffff" stroke="#bfbfbf" points="0,-.5 0,-19.5 44,-19.5 44,-.5 0,-.5"/>
<text text-anchor="middle" x="22" y="-7.5" font-family="Helvetica,sans-Serif" font-size="10.00" fill="#000000">cmath</text>
</g>
<!-- Node0&#45;&gt;Node1 -->
<g id="edge1" class="edge">
<title>Node0&#45;&gt;Node1</title>
<path fill="none" stroke="#191970" d="M66.3282,-116.0757C46.5879,-109.7474 19.7104,-97.5762 7,-76 -1.5428,-61.4984 4.1697,-42.563 10.8599,-28.6951"/>
<polygon fill="#191970" stroke="#191970" points="14.0796,-30.0965 15.7143,-19.6285 7.9085,-26.7923 14.0796,-30.0965"/>
</g>
<!-- Node2 -->
<g id="node3" class="node">
<title>Node2</title>
<polygon fill="#ffffff" stroke="#bfbfbf" points="132,-.5 132,-19.5 186,-19.5 186,-.5 132,-.5"/>
<text text-anchor="middle" x="159" y="-7.5" font-family="Helvetica,sans-Serif" font-size="10.00" fill="#000000">iostream</text>
</g>
<!-- Node0&#45;&gt;Node2 -->
<g id="edge2" class="edge">
<title>Node0&#45;&gt;Node2</title>
<path fill="none" stroke="#191970" d="M95.8829,-112.4509C107.3913,-93.7707 133.0488,-52.1238 147.8638,-28.0761"/>
<polygon fill="#191970" stroke="#191970" points="150.8666,-29.8747 153.132,-19.5249 144.9068,-26.203 150.8666,-29.8747"/>
</g>
<!-- Node3 -->
<g id="node4" class="node">
<title>Node3</title>
<g id="a_node4"><a xlink:href="_comp_kernel_8h.html" target="_top" xlink:title="CompKernel.h">
<polygon fill="#ffffff" stroke="#000000" points="16.5,-56.5 16.5,-75.5 95.5,-75.5 95.5,-56.5 16.5,-56.5"/>
<text text-anchor="middle" x="56" y="-63.5" font-family="Helvetica,sans-Serif" font-size="10.00" fill="#000000">CompKernel.h</text>
</a>
</g>
</g>
<!-- Node0&#45;&gt;Node3 -->
<g id="edge3" class="edge">
<title>Node0&#45;&gt;Node3</title>
<path fill="none" stroke="#191970" d="M84.0777,-112.2455C79.3973,-104.5367 72.7327,-93.5598 67.0711,-84.2348"/>
<polygon fill="#191970" stroke="#191970" points="70.0361,-82.3741 61.8545,-75.6427 64.0525,-86.007 70.0361,-82.3741"/>
</g>
<!-- Node4 -->
<g id="node5" class="node">
<title>Node4</title>
<g id="a_node5"><a xlink:href="_model_factory_8h.html" target="_top" xlink:title="ModelFactory.h">
<polygon fill="#ffffff" stroke="#000000" points="152,-56.5 152,-75.5 236,-75.5 236,-56.5 152,-56.5"/>
<text text-anchor="middle" x="194" y="-63.5" font-family="Helvetica,sans-Serif" font-size="10.00" fill="#000000">ModelFactory.h</text>
</a>
</g>
</g>
<!-- Node0&#45;&gt;Node4 -->
<g id="edge5" class="edge">
<title>Node0&#45;&gt;Node4</title>
<path fill="none" stroke="#191970" d="M108.1154,-112.2455C124.445,-103.4527 148.671,-90.4079 167.2339,-80.4125"/>
<polygon fill="#191970" stroke="#191970" points="168.9468,-83.4654 176.0922,-75.6427 165.6281,-77.3021 168.9468,-83.4654"/>
</g>
<!-- Node3&#45;&gt;Node1 -->
<g id="edge4" class="edge">
<title>Node3&#45;&gt;Node1</title>
<path fill="none" stroke="#191970" d="M50.0777,-56.2455C45.3973,-48.5367 38.7327,-37.5598 33.0711,-28.2348"/>
<polygon fill="#191970" stroke="#191970" points="36.0361,-26.3741 27.8545,-19.6427 30.0525,-30.007 36.0361,-26.3741"/>
</g>
<!-- Node4&#45;&gt;Node2 -->
<g id="edge6" class="edge">
<title>Node4&#45;&gt;Node2</title>
<path fill="none" stroke="#191970" d="M187.9035,-56.2455C183.0855,-48.5367 176.2249,-37.5598 170.3968,-28.2348"/>
<polygon fill="#191970" stroke="#191970" points="173.2947,-26.2677 165.0267,-19.6427 167.3587,-29.9777 173.2947,-26.2677"/>
</g>
</g>
</svg>
