<?xml version="1.0" encoding="UTF-8" standalone="no"?>
<!DOCTYPE svg PUBLIC "-//W3C//DTD SVG 1.1//EN"
 "http://www.w3.org/Graphics/SVG/1.1/DTD/svg11.dtd">
<!-- Generated by graphviz version 2.38.0 (20140413.2041)
 -->
<!-- Title: ADR.h Pages: 1 -->
<svg width="274pt" height="140pt"
 viewBox="0.00 0.00 273.51 140.00" xmlns="http://www.w3.org/2000/svg" xmlns:xlink="http://www.w3.org/1999/xlink">
<g id="graph0" class="graph" transform="scale(1 1) rotate(0) translate(4 136)">
<title>ADR.h</title>
<polygon fill="white" stroke="none" points="-4,4 -4,-136 269.511,-136 269.511,4 -4,4"/>
<!-- Node0 -->
<g id="node1" class="node"><title>Node0</title>
<polygon fill="#bfbfbf" stroke="black" points="58.0112,-112.5 58.0112,-131.5 105.011,-131.5 105.011,-112.5 58.0112,-112.5"/>
<text text-anchor="middle" x="81.5112" y="-119.5" font-family="Helvetica,sans-Serif" font-size="10.00">ADR.h</text>
</g>
<!-- Node1 -->
<g id="node2" class="node"><title>Node1</title>
<polygon fill="white" stroke="#bfbfbf" points="32.5112,-0.5 32.5112,-19.5 76.5112,-19.5 76.5112,-0.5 32.5112,-0.5"/>
<text text-anchor="middle" x="54.5112" y="-7.5" font-family="Helvetica,sans-Serif" font-size="10.00">cmath</text>
</g>
<!-- Node0&#45;&gt;Node1 -->
<g id="edge1" class="edge"><title>Node0&#45;&gt;Node1</title>
<path fill="none" stroke="midnightblue" d="M57.7562,-114.429C39.345,-107.946 15.0834,-96.0361 3.51122,-76 -7.3392,-57.2135 12.4342,-37.9364 30.4326,-25.3062"/>
<polygon fill="midnightblue" stroke="midnightblue" points="32.5595,-28.0963 38.9836,-19.6712 28.7077,-22.2513 32.5595,-28.0963"/>
</g>
<!-- Node2 -->
<g id="node3" class="node"><title>Node2</title>
<polygon fill="white" stroke="#bfbfbf" points="12.5112,-56.5 12.5112,-75.5 66.5112,-75.5 66.5112,-56.5 12.5112,-56.5"/>
<text text-anchor="middle" x="39.5112" y="-63.5" font-family="Helvetica,sans-Serif" font-size="10.00">iostream</text>
</g>
<!-- Node0&#45;&gt;Node2 -->
<g id="edge2" class="edge"><title>Node0&#45;&gt;Node2</title>
<path fill="none" stroke="midnightblue" d="M74.5758,-112.083C68.5821,-104.377 59.7594,-93.0333 52.4636,-83.6531"/>
<polygon fill="midnightblue" stroke="midnightblue" points="55.2198,-81.4958 46.3176,-75.7511 49.6943,-85.7934 55.2198,-81.4958"/>
</g>
<!-- Node3 -->
<g id="node4" class="node"><title>Node3</title>
<g id="a_node4"><a xlink:href="_comp_kernel_8h.html" target="_top" xlink:title="CompKernel.h">
<polygon fill="white" stroke="black" points="85.0112,-56.5 85.0112,-75.5 164.011,-75.5 164.011,-56.5 85.0112,-56.5"/>
<text text-anchor="middle" x="124.511" y="-63.5" font-family="Helvetica,sans-Serif" font-size="10.00">CompKernel.h</text>
</a>
</g>
</g>
<!-- Node0&#45;&gt;Node3 -->
<g id="edge3" class="edge"><title>Node0&#45;&gt;Node3</title>
<path fill="none" stroke="midnightblue" d="M88.6118,-112.083C94.7482,-104.377 103.781,-93.0333 111.25,-83.6531"/>
<polygon fill="midnightblue" stroke="midnightblue" points="114.051,-85.7542 117.543,-75.7511 108.575,-81.3936 114.051,-85.7542"/>
</g>
<!-- Node4 -->
<g id="node5" class="node"><title>Node4</title>
<g id="a_node5"><a xlink:href="_model_factory_8h.html" target="_top" xlink:title="ModelFactory.h">
<polygon fill="white" stroke="black" points="181.511,-56.5 181.511,-75.5 265.511,-75.5 265.511,-56.5 181.511,-56.5"/>
<text text-anchor="middle" x="223.511" y="-63.5" font-family="Helvetica,sans-Serif" font-size="10.00">ModelFactory.h</text>
</a>
</g>
</g>
<!-- Node0&#45;&gt;Node4 -->
<g id="edge5" class="edge"><title>Node0&#45;&gt;Node4</title>
<path fill="none" stroke="midnightblue" d="M104.012,-112.444C127.589,-103.478 164.834,-89.314 191.475,-79.1827"/>
<polygon fill="midnightblue" stroke="midnightblue" points="193.013,-82.3424 201.116,-75.5164 190.525,-75.7995 193.013,-82.3424"/>
</g>
<!-- Node3&#45;&gt;Node1 -->
<g id="edge4" class="edge"><title>Node3&#45;&gt;Node1</title>
<path fill="none" stroke="midnightblue" d="M113.265,-56.324C102.714,-48.1849 86.7106,-35.8395 74.069,-26.0874"/>
<polygon fill="midnightblue" stroke="midnightblue" points="76.0182,-23.1707 65.9626,-19.8339 71.7426,-28.7132 76.0182,-23.1707"/>
</g>
</g>
</svg>
