<?xml version="1.0" encoding="UTF-8" standalone="no"?>
<!DOCTYPE svg PUBLIC "-//W3C//DTD SVG 1.1//EN"
 "http://www.w3.org/Graphics/SVG/1.1/DTD/svg11.dtd">
<!-- Generated by graphviz version 2.42.3 (0)
 -->
<!-- Title: CLSVOF.h Pages: 1 -->
<svg width="313pt" height="140pt"
 viewBox="0.00 0.00 312.50 140.00" xmlns="http://www.w3.org/2000/svg" xmlns:xlink="http://www.w3.org/1999/xlink">
<g id="graph0" class="graph" transform="scale(1 1) rotate(0) translate(4 136)">
<title>CLSVOF.h</title>
<polygon fill="white" stroke="transparent" points="-4,4 -4,-136 308.5,-136 308.5,4 -4,4"/>
<!-- Node1 -->
<g id="node1" class="node">
<title>Node1</title>
<g id="a_node1"><a xlink:title=" ">
<polygon fill="#bfbfbf" stroke="black" points="116.5,-112.5 116.5,-131.5 178.5,-131.5 178.5,-112.5 116.5,-112.5"/>
<text text-anchor="middle" x="147.5" y="-119.5" font-family="Helvetica,sans-Serif" font-size="10.00">CLSVOF.h</text>
</a>
</g>
</g>
<!-- Node2 -->
<g id="node2" class="node">
<title>Node2</title>
<g id="a_node2"><a xlink:title=" ">
<polygon fill="white" stroke="#bfbfbf" points="0,-0.5 0,-19.5 47,-19.5 47,-0.5 0,-0.5"/>
<text text-anchor="middle" x="23.5" y="-7.5" font-family="Helvetica,sans-Serif" font-size="10.00">cmath</text>
</a>
</g>
</g>
<!-- Node1&#45;&gt;Node2 -->
<g id="edge1" class="edge">
<title>Node1&#45;&gt;Node2</title>
<path fill="none" stroke="midnightblue" d="M116.2,-120.96C82.86,-119.03 31.51,-110.24 6.5,-76 -3.67,-62.07 3.58,-42.55 11.52,-28.54"/>
<polygon fill="midnightblue" stroke="midnightblue" points="14.61,-30.2 16.92,-19.86 8.67,-26.5 14.61,-30.2"/>
</g>
<!-- Node3 -->
<g id="node3" class="node">
<title>Node3</title>
<g id="a_node3"><a xlink:title=" ">
<polygon fill="white" stroke="#bfbfbf" points="244.5,-0.5 244.5,-19.5 304.5,-19.5 304.5,-0.5 244.5,-0.5"/>
<text text-anchor="middle" x="274.5" y="-7.5" font-family="Helvetica,sans-Serif" font-size="10.00">iostream</text>
</a>
</g>
</g>
<!-- Node1&#45;&gt;Node3 -->
<g id="edge2" class="edge">
<title>Node1&#45;&gt;Node3</title>
<path fill="none" stroke="midnightblue" d="M178.52,-121.23C212.52,-119.6 265.67,-111.14 291.5,-76 301.72,-62.1 294.46,-42.57 286.5,-28.55"/>
<polygon fill="midnightblue" stroke="midnightblue" points="289.35,-26.5 281.09,-19.87 283.41,-30.2 289.35,-26.5"/>
</g>
<!-- Node4 -->
<g id="node4" class="node">
<title>Node4</title>
<g id="a_node4"><a xlink:title=" ">
<polygon fill="white" stroke="#bfbfbf" points="119,-56.5 119,-75.5 176,-75.5 176,-56.5 119,-56.5"/>
<text text-anchor="middle" x="147.5" y="-63.5" font-family="Helvetica,sans-Serif" font-size="10.00">valarray</text>
</a>
</g>
</g>
<!-- Node1&#45;&gt;Node4 -->
<g id="edge3" class="edge">
<title>Node1&#45;&gt;Node4</title>
<path fill="none" stroke="midnightblue" d="M147.5,-112.08C147.5,-105.01 147.5,-94.86 147.5,-85.99"/>
<polygon fill="midnightblue" stroke="midnightblue" points="151,-85.75 147.5,-75.75 144,-85.75 151,-85.75"/>
</g>
<!-- Node5 -->
<g id="node5" class="node">
<title>Node5</title>
<g id="a_node5"><a xlink:href="_comp_kernel_8h.html" target="_top" xlink:title=" ">
<polygon fill="white" stroke="black" points="16,-56.5 16,-75.5 101,-75.5 101,-56.5 16,-56.5"/>
<text text-anchor="middle" x="58.5" y="-63.5" font-family="Helvetica,sans-Serif" font-size="10.00">CompKernel.h</text>
</a>
</g>
</g>
<!-- Node1&#45;&gt;Node5 -->
<g id="edge4" class="edge">
<title>Node1&#45;&gt;Node5</title>
<path fill="none" stroke="midnightblue" d="M133.2,-112.32C119.32,-103.9 98.01,-90.97 81.7,-81.07"/>
<polygon fill="midnightblue" stroke="midnightblue" points="83.13,-77.85 72.76,-75.65 79.5,-83.83 83.13,-77.85"/>
</g>
<!-- Node6 -->
<g id="node6" class="node">
<title>Node6</title>
<g id="a_node6"><a xlink:href="_model_factory_8h.html" target="_top" xlink:title=" ">
<polygon fill="white" stroke="black" points="194,-56.5 194,-75.5 283,-75.5 283,-56.5 194,-56.5"/>
<text text-anchor="middle" x="238.5" y="-63.5" font-family="Helvetica,sans-Serif" font-size="10.00">ModelFactory.h</text>
</a>
</g>
</g>
<!-- Node1&#45;&gt;Node6 -->
<g id="edge6" class="edge">
<title>Node1&#45;&gt;Node6</title>
<path fill="none" stroke="midnightblue" d="M162.12,-112.32C176.45,-103.82 198.51,-90.73 215.25,-80.8"/>
<polygon fill="midnightblue" stroke="midnightblue" points="217.1,-83.77 223.92,-75.65 213.53,-77.75 217.1,-83.77"/>
</g>
<!-- Node5&#45;&gt;Node2 -->
<g id="edge5" class="edge">
<title>Node5&#45;&gt;Node2</title>
<path fill="none" stroke="midnightblue" d="M52.72,-56.08C47.83,-48.53 40.67,-37.49 34.67,-28.23"/>
<polygon fill="midnightblue" stroke="midnightblue" points="37.55,-26.24 29.17,-19.75 31.67,-30.05 37.55,-26.24"/>
</g>
<!-- Node6&#45;&gt;Node3 -->
<g id="edge7" class="edge">
<title>Node6&#45;&gt;Node3</title>
<path fill="none" stroke="midnightblue" d="M244.44,-56.08C249.48,-48.53 256.84,-37.49 263.01,-28.23"/>
<polygon fill="midnightblue" stroke="midnightblue" points="266.03,-30.01 268.67,-19.75 260.21,-26.13 266.03,-30.01"/>
</g>
</g>
</svg>
