<?xml version="1.0" encoding="UTF-8" standalone="no"?>
<!DOCTYPE svg PUBLIC "-//W3C//DTD SVG 1.1//EN"
 "http://www.w3.org/Graphics/SVG/1.1/DTD/svg11.dtd">
<!-- Generated by graphviz version 2.42.3 (0)
 -->
<!-- Title: ChVariablesBodyAddedMass.h Pages: 1 -->
<svg width="360pt" height="140pt"
 viewBox="0.00 0.00 359.50 140.00" xmlns="http://www.w3.org/2000/svg" xmlns:xlink="http://www.w3.org/1999/xlink">
<g id="graph0" class="graph" transform="scale(1 1) rotate(0) translate(4 136)">
<title>ChVariablesBodyAddedMass.h</title>
<polygon fill="white" stroke="transparent" points="-4,4 -4,-136 355.5,-136 355.5,4 -4,4"/>
<!-- Node1 -->
<g id="node1" class="node">
<title>Node1</title>
<g id="a_node1"><a xlink:title=" ">
<polygon fill="#bfbfbf" stroke="black" points="65.5,-112.5 65.5,-131.5 229.5,-131.5 229.5,-112.5 65.5,-112.5"/>
<text text-anchor="middle" x="147.5" y="-119.5" font-family="Helvetica,sans-Serif" font-size="10.00">ChVariablesBodyAddedMass.h</text>
</a>
</g>
</g>
<!-- Node2 -->
<g id="node2" class="node">
<title>Node2</title>
<g id="a_node2"><a xlink:href="_ch_body_added_mass_8h.html" target="_top" xlink:title=" ">
<polygon fill="white" stroke="black" points="0,-56.5 0,-75.5 119,-75.5 119,-56.5 0,-56.5"/>
<text text-anchor="middle" x="59.5" y="-63.5" font-family="Helvetica,sans-Serif" font-size="10.00">ChBodyAddedMass.h</text>
</a>
</g>
</g>
<!-- Node1&#45;&gt;Node2 -->
<g id="edge1" class="edge">
<title>Node1&#45;&gt;Node2</title>
<path fill="none" stroke="midnightblue" d="M124.52,-106.9C108.39,-97 87.32,-84.07 73.6,-75.65"/>
<polygon fill="midnightblue" stroke="midnightblue" points="123.01,-110.08 133.36,-112.32 126.67,-104.11 123.01,-110.08"/>
</g>
<!-- Node3 -->
<g id="node3" class="node">
<title>Node3</title>
<g id="a_node3"><a xlink:href="_ch_body_added_mass_8cpp.html" target="_top" xlink:title=" ">
<polygon fill="white" stroke="black" points="38,-0.5 38,-19.5 169,-19.5 169,-0.5 38,-0.5"/>
<text text-anchor="middle" x="103.5" y="-7.5" font-family="Helvetica,sans-Serif" font-size="10.00">ChBodyAddedMass.cpp</text>
</a>
</g>
</g>
<!-- Node1&#45;&gt;Node3 -->
<g id="edge3" class="edge">
<title>Node1&#45;&gt;Node3</title>
<path fill="none" stroke="midnightblue" d="M143.28,-102.59C139.98,-89.36 134.87,-71.26 128.5,-56 122.99,-42.81 114.6,-28.53 109.08,-19.67"/>
<polygon fill="midnightblue" stroke="midnightblue" points="139.9,-103.47 145.63,-112.38 146.7,-101.84 139.9,-103.47"/>
</g>
<!-- Node4 -->
<g id="node4" class="node">
<title>Node4</title>
<g id="a_node4"><a xlink:href="_ch_variables_body_added_mass_8cpp.html" target="_top" xlink:title=" ">
<polygon fill="white" stroke="black" points="175.5,-56.5 175.5,-75.5 351.5,-75.5 351.5,-56.5 175.5,-56.5"/>
<text text-anchor="middle" x="263.5" y="-63.5" font-family="Helvetica,sans-Serif" font-size="10.00">ChVariablesBodyAddedMass.cpp</text>
</a>
</g>
</g>
<!-- Node1&#45;&gt;Node4 -->
<g id="edge4" class="edge">
<title>Node1&#45;&gt;Node4</title>
<path fill="none" stroke="midnightblue" d="M175.22,-108.1C196.89,-98.01 226.4,-84.27 245.21,-75.52"/>
<polygon fill="midnightblue" stroke="midnightblue" points="173.47,-105.05 165.88,-112.44 176.42,-111.4 173.47,-105.05"/>
</g>
<!-- Node2&#45;&gt;Node3 -->
<g id="edge2" class="edge">
<title>Node2&#45;&gt;Node3</title>
<path fill="none" stroke="midnightblue" d="M73.23,-48.14C80.9,-38.74 90.13,-27.4 96.37,-19.75"/>
<polygon fill="midnightblue" stroke="midnightblue" points="70.37,-46.12 66.77,-56.08 75.8,-50.54 70.37,-46.12"/>
</g>
</g>
</svg>
