<?xml version="1.0" encoding="UTF-8" standalone="no"?>
<!DOCTYPE svg PUBLIC "-//W3C//DTD SVG 1.1//EN"
 "http://www.w3.org/Graphics/SVG/1.1/DTD/svg11.dtd">
<!-- Generated by graphviz version 2.42.3 (0)
 -->
<!-- Title: ChBodyAddedMass.cpp Pages: 1 -->
<svg width="328pt" height="207pt"
 viewBox="0.00 0.00 327.50 207.00" xmlns="http://www.w3.org/2000/svg" xmlns:xlink="http://www.w3.org/1999/xlink">
<g id="graph0" class="graph" transform="scale(1 1) rotate(0) translate(4 203)">
<title>ChBodyAddedMass.cpp</title>
<polygon fill="white" stroke="transparent" points="-4,4 -4,-203 323.5,-203 323.5,4 -4,4"/>
<!-- Node1 -->
<g id="node1" class="node">
<title>Node1</title>
<g id="a_node1"><a xlink:title=" ">
<polygon fill="#bfbfbf" stroke="black" points="128,-179.5 128,-198.5 259,-198.5 259,-179.5 128,-179.5"/>
<text text-anchor="middle" x="193.5" y="-186.5" font-family="Helvetica,sans-Serif" font-size="10.00">ChBodyAddedMass.cpp</text>
</a>
</g>
</g>
<!-- Node2 -->
<g id="node2" class="node">
<title>Node2</title>
<g id="a_node2"><a xlink:href="_ch_body_added_mass_8h.html" target="_top" xlink:title=" ">
<polygon fill="white" stroke="black" points="90,-123.5 90,-142.5 209,-142.5 209,-123.5 90,-123.5"/>
<text text-anchor="middle" x="149.5" y="-130.5" font-family="Helvetica,sans-Serif" font-size="10.00">ChBodyAddedMass.h</text>
</a>
</g>
</g>
<!-- Node1&#45;&gt;Node2 -->
<g id="edge1" class="edge">
<title>Node1&#45;&gt;Node2</title>
<path fill="none" stroke="midnightblue" d="M186.23,-179.08C179.96,-171.38 170.71,-160.03 163.07,-150.65"/>
<polygon fill="midnightblue" stroke="midnightblue" points="165.66,-148.29 156.63,-142.75 160.23,-152.71 165.66,-148.29"/>
</g>
<!-- Node4 -->
<g id="node4" class="node">
<title>Node4</title>
<g id="a_node4"><a xlink:href="_ch_variables_body_added_mass_8h.html" target="_top" xlink:title=" ">
<polygon fill="white" stroke="black" points="155.5,-67.5 155.5,-86.5 319.5,-86.5 319.5,-67.5 155.5,-67.5"/>
<text text-anchor="middle" x="237.5" y="-74.5" font-family="Helvetica,sans-Serif" font-size="10.00">ChVariablesBodyAddedMass.h</text>
</a>
</g>
</g>
<!-- Node1&#45;&gt;Node4 -->
<g id="edge5" class="edge">
<title>Node1&#45;&gt;Node4</title>
<path fill="none" stroke="midnightblue" d="M198.8,-179.28C204.04,-170.39 212.06,-156.08 217.5,-143 223.88,-127.67 229.28,-109.57 232.86,-96.37"/>
<polygon fill="midnightblue" stroke="midnightblue" points="236.27,-97.16 235.42,-86.6 229.5,-95.39 236.27,-97.16"/>
</g>
<!-- Node3 -->
<g id="node3" class="node">
<title>Node3</title>
<g id="a_node3"><a xlink:title=" ">
<polygon fill="white" stroke="#bfbfbf" points="0,-67.5 0,-86.5 137,-86.5 137,-67.5 0,-67.5"/>
<text text-anchor="middle" x="68.5" y="-74.5" font-family="Helvetica,sans-Serif" font-size="10.00">chrono/physics/ChBody.h</text>
</a>
</g>
</g>
<!-- Node2&#45;&gt;Node3 -->
<g id="edge2" class="edge">
<title>Node2&#45;&gt;Node3</title>
<path fill="none" stroke="midnightblue" d="M136.49,-123.32C123.97,-114.98 104.82,-102.21 90.03,-92.35"/>
<polygon fill="midnightblue" stroke="midnightblue" points="91.74,-89.29 81.48,-86.65 87.86,-95.11 91.74,-89.29"/>
</g>
<!-- Node2&#45;&gt;Node4 -->
<g id="edge3" class="edge">
<title>Node2&#45;&gt;Node4</title>
<path fill="none" stroke="midnightblue" d="M163.64,-123.32C177.37,-114.9 198.44,-101.97 214.56,-92.07"/>
<polygon fill="midnightblue" stroke="midnightblue" points="216.7,-94.87 223.4,-86.65 213.04,-88.9 216.7,-94.87"/>
</g>
<!-- Node5 -->
<g id="node5" class="node">
<title>Node5</title>
<g id="a_node5"><a xlink:title=" ">
<polygon fill="white" stroke="#bfbfbf" points="166,-0.5 166,-30.5 309,-30.5 309,-0.5 166,-0.5"/>
<text text-anchor="start" x="174" y="-18.5" font-family="Helvetica,sans-Serif" font-size="10.00">chrono/solver/ChVariables</text>
<text text-anchor="middle" x="237.5" y="-7.5" font-family="Helvetica,sans-Serif" font-size="10.00">BodyOwnMass.h</text>
</a>
</g>
</g>
<!-- Node4&#45;&gt;Node5 -->
<g id="edge4" class="edge">
<title>Node4&#45;&gt;Node5</title>
<path fill="none" stroke="midnightblue" d="M237.5,-67.48C237.5,-60.47 237.5,-50.19 237.5,-40.7"/>
<polygon fill="midnightblue" stroke="midnightblue" points="241,-40.52 237.5,-30.52 234,-40.52 241,-40.52"/>
</g>
</g>
</svg>
