<?xml version="1.0" encoding="UTF-8" standalone="no"?>
<!DOCTYPE svg PUBLIC "-//W3C//DTD SVG 1.1//EN"
 "http://www.w3.org/Graphics/SVG/1.1/DTD/svg11.dtd">
<!-- Generated by graphviz version 2.42.3 (0)
 -->
<!-- Title: ChVariablesBodyAddedMass.cpp Pages: 1 -->
<svg width="184pt" height="151pt"
 viewBox="0.00 0.00 184.00 151.00" xmlns="http://www.w3.org/2000/svg" xmlns:xlink="http://www.w3.org/1999/xlink">
<g id="graph0" class="graph" transform="scale(1 1) rotate(0) translate(4 147)">
<title>ChVariablesBodyAddedMass.cpp</title>
<polygon fill="white" stroke="transparent" points="-4,4 -4,-147 180,-147 180,4 -4,4"/>
<!-- Node1 -->
<g id="node1" class="node">
<title>Node1</title>
<g id="a_node1"><a xlink:title=" ">
<polygon fill="#bfbfbf" stroke="black" points="0,-123.5 0,-142.5 176,-142.5 176,-123.5 0,-123.5"/>
<text text-anchor="middle" x="88" y="-130.5" font-family="Helvetica,sans-Serif" font-size="10.00">ChVariablesBodyAddedMass.cpp</text>
</a>
</g>
</g>
<!-- Node2 -->
<g id="node2" class="node">
<title>Node2</title>
<g id="a_node2"><a xlink:href="_ch_variables_body_added_mass_8h.html" target="_top" xlink:title=" ">
<polygon fill="white" stroke="black" points="6,-67.5 6,-86.5 170,-86.5 170,-67.5 6,-67.5"/>
<text text-anchor="middle" x="88" y="-74.5" font-family="Helvetica,sans-Serif" font-size="10.00">ChVariablesBodyAddedMass.h</text>
</a>
</g>
</g>
<!-- Node1&#45;&gt;Node2 -->
<g id="edge1" class="edge">
<title>Node1&#45;&gt;Node2</title>
<path fill="none" stroke="midnightblue" d="M88,-123.08C88,-116.01 88,-105.86 88,-96.99"/>
<polygon fill="midnightblue" stroke="midnightblue" points="91.5,-96.75 88,-86.75 84.5,-96.75 91.5,-96.75"/>
</g>
<!-- Node3 -->
<g id="node3" class="node">
<title>Node3</title>
<g id="a_node3"><a xlink:title=" ">
<polygon fill="white" stroke="#bfbfbf" points="16.5,-0.5 16.5,-30.5 159.5,-30.5 159.5,-0.5 16.5,-0.5"/>
<text text-anchor="start" x="24.5" y="-18.5" font-family="Helvetica,sans-Serif" font-size="10.00">chrono/solver/ChVariables</text>
<text text-anchor="middle" x="88" y="-7.5" font-family="Helvetica,sans-Serif" font-size="10.00">BodyOwnMass.h</text>
</a>
</g>
</g>
<!-- Node2&#45;&gt;Node3 -->
<g id="edge2" class="edge">
<title>Node2&#45;&gt;Node3</title>
<path fill="none" stroke="midnightblue" d="M88,-67.48C88,-60.47 88,-50.19 88,-40.7"/>
<polygon fill="midnightblue" stroke="midnightblue" points="91.5,-40.52 88,-30.52 84.5,-40.52 91.5,-40.52"/>
</g>
</g>
</svg>
