<?xml version="1.0" encoding="UTF-8" standalone="no"?>
<!DOCTYPE svg PUBLIC "-//W3C//DTD SVG 1.1//EN"
 "http://www.w3.org/Graphics/SVG/1.1/DTD/svg11.dtd">
<!-- Generated by graphviz version 2.38.0 (20140413.2041)
 -->
<!-- Title: CompKernel.h Pages: 1 -->
<svg width="87pt" height="84pt"
 viewBox="0.00 0.00 87.00 84.00" xmlns="http://www.w3.org/2000/svg" xmlns:xlink="http://www.w3.org/1999/xlink">
<g id="graph0" class="graph" transform="scale(1 1) rotate(0) translate(4 80)">
<title>CompKernel.h</title>
<polygon fill="white" stroke="none" points="-4,4 -4,-80 83,-80 83,4 -4,4"/>
<!-- Node0 -->
<g id="node1" class="node"><title>Node0</title>
<polygon fill="#bfbfbf" stroke="black" points="-7.10543e-15,-56.5 -7.10543e-15,-75.5 79,-75.5 79,-56.5 -7.10543e-15,-56.5"/>
<text text-anchor="middle" x="39.5" y="-63.5" font-family="Helvetica,sans-Serif" font-size="10.00">CompKernel.h</text>
</g>
<!-- Node1 -->
<g id="node2" class="node"><title>Node1</title>
<polygon fill="white" stroke="#bfbfbf" points="17.5,-0.5 17.5,-19.5 61.5,-19.5 61.5,-0.5 17.5,-0.5"/>
<text text-anchor="middle" x="39.5" y="-7.5" font-family="Helvetica,sans-Serif" font-size="10.00">cmath</text>
</g>
<!-- Node0&#45;&gt;Node1 -->
<g id="edge1" class="edge"><title>Node0&#45;&gt;Node1</title>
<path fill="none" stroke="midnightblue" d="M39.5,-56.083C39.5,-49.0059 39.5,-38.8611 39.5,-29.9865"/>
<polygon fill="midnightblue" stroke="midnightblue" points="43.0001,-29.751 39.5,-19.7511 36.0001,-29.7511 43.0001,-29.751"/>
</g>
</g>
</svg>
