<?xml version="1.0" encoding="UTF-8" standalone="no"?>
<!DOCTYPE svg PUBLIC "-//W3C//DTD SVG 1.1//EN"
 "http://www.w3.org/Graphics/SVG/1.1/DTD/svg11.dtd">
<!-- Generated by graphviz version 2.42.3 (0)
 -->
<!-- Title: CompKernel.h Pages: 1 -->
<svg width="2764pt" height="84pt"
 viewBox="0.00 0.00 2763.50 84.00" xmlns="http://www.w3.org/2000/svg" xmlns:xlink="http://www.w3.org/1999/xlink">
<g id="graph0" class="graph" transform="scale(1 1) rotate(0) translate(4 80)">
<title>CompKernel.h</title>
<polygon fill="white" stroke="transparent" points="-4,4 -4,-80 2759.5,-80 2759.5,4 -4,4"/>
<!-- Node1 -->
<g id="node1" class="node">
<title>Node1</title>
<g id="a_node1"><a xlink:title=" ">
<polygon fill="#bfbfbf" stroke="black" points="1360,-56.5 1360,-75.5 1445,-75.5 1445,-56.5 1360,-56.5"/>
<text text-anchor="middle" x="1402.5" y="-63.5" font-family="Helvetica,sans-Serif" font-size="10.00">CompKernel.h</text>
</a>
</g>
</g>
<!-- Node2 -->
<g id="node2" class="node">
<title>Node2</title>
<g id="a_node2"><a xlink:href="_a_d_r_8h.html" target="_top" xlink:title=" ">
<polygon fill="white" stroke="black" points="0,-0.5 0,-19.5 47,-19.5 47,-0.5 0,-0.5"/>
<text text-anchor="middle" x="23.5" y="-7.5" font-family="Helvetica,sans-Serif" font-size="10.00">ADR.h</text>
</a>
</g>
</g>
<!-- Node1&#45;&gt;Node2 -->
<g id="edge1" class="edge">
<title>Node1&#45;&gt;Node2</title>
<path fill="none" stroke="midnightblue" d="M1349.69,-64.87C1133.15,-64.11 312.54,-58.65 56.5,-20 53.45,-19.54 50.27,-18.89 47.15,-18.16"/>
<polygon fill="midnightblue" stroke="midnightblue" points="1349.83,-68.37 1359.84,-64.91 1349.85,-61.37 1349.83,-68.37"/>
</g>
<!-- Node3 -->
<g id="node3" class="node">
<title>Node3</title>
<g id="a_node3"><a xlink:href="_elasto_plastic_8h.html" target="_top" xlink:title=" ">
<polygon fill="white" stroke="black" points="65.5,-0.5 65.5,-19.5 153.5,-19.5 153.5,-0.5 65.5,-0.5"/>
<text text-anchor="middle" x="109.5" y="-7.5" font-family="Helvetica,sans-Serif" font-size="10.00">ElastoPlastic.h</text>
</a>
</g>
</g>
<!-- Node1&#45;&gt;Node3 -->
<g id="edge2" class="edge">
<title>Node1&#45;&gt;Node3</title>
<path fill="none" stroke="midnightblue" d="M1349.77,-65.57C1178.21,-66.88 620.57,-67 162.5,-20 159.62,-19.7 156.66,-19.35 153.69,-18.95"/>
<polygon fill="midnightblue" stroke="midnightblue" points="1349.83,-69.07 1359.8,-65.49 1349.77,-62.07 1349.83,-69.07"/>
</g>
<!-- Node4 -->
<g id="node4" class="node">
<title>Node4</title>
<g id="a_node4"><a xlink:href="_added_mass_8h.html" target="_top" xlink:title=" ">
<polygon fill="white" stroke="black" points="171.5,-0.5 171.5,-19.5 253.5,-19.5 253.5,-0.5 171.5,-0.5"/>
<text text-anchor="middle" x="212.5" y="-7.5" font-family="Helvetica,sans-Serif" font-size="10.00">AddedMass.h</text>
</a>
</g>
</g>
<!-- Node1&#45;&gt;Node4 -->
<g id="edge3" class="edge">
<title>Node1&#45;&gt;Node4</title>
<path fill="none" stroke="midnightblue" d="M1349.69,-65.51C1187.07,-66.53 679.63,-65.55 262.5,-20 259.61,-19.68 256.63,-19.3 253.64,-18.87"/>
<polygon fill="midnightblue" stroke="midnightblue" points="1349.92,-69.01 1359.9,-65.44 1349.88,-62.01 1349.92,-69.01"/>
</g>
<!-- Node5 -->
<g id="node5" class="node">
<title>Node5</title>
<g id="a_node5"><a xlink:href="_c_l_s_v_o_f_8h.html" target="_top" xlink:title=" ">
<polygon fill="white" stroke="black" points="271.5,-0.5 271.5,-19.5 333.5,-19.5 333.5,-0.5 271.5,-0.5"/>
<text text-anchor="middle" x="302.5" y="-7.5" font-family="Helvetica,sans-Serif" font-size="10.00">CLSVOF.h</text>
</a>
</g>
</g>
<!-- Node1&#45;&gt;Node5 -->
<g id="edge4" class="edge">
<title>Node1&#45;&gt;Node5</title>
<path fill="none" stroke="midnightblue" d="M1349.73,-64.01C1163.92,-60.33 540.52,-46.27 342.5,-20 339.68,-19.63 336.76,-19.15 333.85,-18.61"/>
<polygon fill="midnightblue" stroke="midnightblue" points="1349.72,-67.51 1359.79,-64.21 1349.86,-60.51 1349.72,-67.51"/>
</g>
<!-- Node6 -->
<g id="node6" class="node">
<title>Node6</title>
<g id="a_node6"><a xlink:href="_dissipation_8h.html" target="_top" xlink:title=" ">
<polygon fill="white" stroke="black" points="351.5,-0.5 351.5,-19.5 431.5,-19.5 431.5,-0.5 351.5,-0.5"/>
<text text-anchor="middle" x="391.5" y="-7.5" font-family="Helvetica,sans-Serif" font-size="10.00">Dissipation.h</text>
</a>
</g>
</g>
<!-- Node1&#45;&gt;Node6 -->
<g id="edge5" class="edge">
<title>Node1&#45;&gt;Node6</title>
<path fill="none" stroke="midnightblue" d="M1349.23,-65.02C1203.34,-64.55 785.27,-59.54 440.5,-20 437.58,-19.66 434.57,-19.26 431.55,-18.81"/>
<polygon fill="midnightblue" stroke="midnightblue" points="1349.65,-68.52 1359.66,-65.05 1349.67,-61.52 1349.65,-68.52"/>
</g>
<!-- Node7 -->
<g id="node7" class="node">
<title>Node7</title>
<g id="a_node7"><a xlink:href="_dissipation2_d_8h.html" target="_top" xlink:title=" ">
<polygon fill="white" stroke="black" points="449.5,-0.5 449.5,-19.5 543.5,-19.5 543.5,-0.5 449.5,-0.5"/>
<text text-anchor="middle" x="496.5" y="-7.5" font-family="Helvetica,sans-Serif" font-size="10.00">Dissipation2D.h</text>
</a>
</g>
</g>
<!-- Node1&#45;&gt;Node7 -->
<g id="edge6" class="edge">
<title>Node1&#45;&gt;Node7</title>
<path fill="none" stroke="midnightblue" d="M1349.55,-64.15C1215.68,-61.59 852.95,-52 552.5,-20 549.56,-19.69 546.54,-19.32 543.51,-18.93"/>
<polygon fill="midnightblue" stroke="midnightblue" points="1349.86,-67.66 1359.92,-64.35 1349.99,-60.66 1349.86,-67.66"/>
</g>
<!-- Node8 -->
<g id="node8" class="node">
<title>Node8</title>
<g id="a_node8"><a xlink:href="_g_n___s_w2_d_c_v_8h.html" target="_top" xlink:title=" ">
<polygon fill="white" stroke="black" points="562,-0.5 562,-19.5 649,-19.5 649,-0.5 562,-0.5"/>
<text text-anchor="middle" x="605.5" y="-7.5" font-family="Helvetica,sans-Serif" font-size="10.00">GN_SW2DCV.h</text>
</a>
</g>
</g>
<!-- Node1&#45;&gt;Node8 -->
<g id="edge7" class="edge">
<title>Node1&#45;&gt;Node8</title>
<path fill="none" stroke="midnightblue" d="M1349.82,-63.76C1227.86,-60.48 916.77,-49.65 658.5,-20 655.44,-19.65 652.29,-19.24 649.12,-18.79"/>
<polygon fill="midnightblue" stroke="midnightblue" points="1349.91,-67.27 1360,-64.03 1350.09,-60.27 1349.91,-67.27"/>
</g>
<!-- Node9 -->
<g id="node9" class="node">
<title>Node9</title>
<g id="a_node9"><a xlink:href="_kappa_8h.html" target="_top" xlink:title=" ">
<polygon fill="white" stroke="black" points="667.5,-0.5 667.5,-19.5 723.5,-19.5 723.5,-0.5 667.5,-0.5"/>
<text text-anchor="middle" x="695.5" y="-7.5" font-family="Helvetica,sans-Serif" font-size="10.00">Kappa.h</text>
</a>
</g>
</g>
<!-- Node1&#45;&gt;Node9 -->
<g id="edge8" class="edge">
<title>Node1&#45;&gt;Node9</title>
<path fill="none" stroke="midnightblue" d="M1349.74,-64.52C1236.18,-62.83 960.44,-55.11 732.5,-20 729.63,-19.56 726.65,-19 723.68,-18.38"/>
<polygon fill="midnightblue" stroke="midnightblue" points="1349.85,-68.03 1359.89,-64.67 1349.94,-61.03 1349.85,-68.03"/>
</g>
<!-- Node10 -->
<g id="node10" class="node">
<title>Node10</title>
<g id="a_node10"><a xlink:href="_kappa2_d_8h.html" target="_top" xlink:title=" ">
<polygon fill="white" stroke="black" points="741.5,-0.5 741.5,-19.5 811.5,-19.5 811.5,-0.5 741.5,-0.5"/>
<text text-anchor="middle" x="776.5" y="-7.5" font-family="Helvetica,sans-Serif" font-size="10.00">Kappa2D.h</text>
</a>
</g>
</g>
<!-- Node1&#45;&gt;Node10 -->
<g id="edge9" class="edge">
<title>Node1&#45;&gt;Node10</title>
<path fill="none" stroke="midnightblue" d="M1349.87,-63.13C1247.49,-59 1014.55,-47.24 820.5,-20 817.72,-19.61 814.85,-19.15 811.98,-18.65"/>
<polygon fill="midnightblue" stroke="midnightblue" points="1349.82,-66.63 1359.95,-63.53 1350.1,-59.63 1349.82,-66.63"/>
</g>
<!-- Node11 -->
<g id="node11" class="node">
<title>Node11</title>
<g id="a_node11"><a xlink:href="_m_corr_8h.html" target="_top" xlink:title=" ">
<polygon fill="white" stroke="black" points="829.5,-0.5 829.5,-19.5 883.5,-19.5 883.5,-0.5 829.5,-0.5"/>
<text text-anchor="middle" x="856.5" y="-7.5" font-family="Helvetica,sans-Serif" font-size="10.00">MCorr.h</text>
</a>
</g>
</g>
<!-- Node1&#45;&gt;Node11 -->
<g id="edge10" class="edge">
<title>Node1&#45;&gt;Node11</title>
<path fill="none" stroke="midnightblue" d="M1349.91,-63.08C1257.03,-59.09 1058.1,-47.83 892.5,-20 889.58,-19.51 886.54,-18.9 883.53,-18.24"/>
<polygon fill="midnightblue" stroke="midnightblue" points="1349.76,-66.58 1359.9,-63.5 1350.05,-59.59 1349.76,-66.58"/>
</g>
<!-- Node12 -->
<g id="node12" class="node">
<title>Node12</title>
<g id="a_node12"><a xlink:href="_m_corr3_p_8h.html" target="_top" xlink:title=" ">
<polygon fill="white" stroke="black" points="902,-0.5 902,-19.5 967,-19.5 967,-0.5 902,-0.5"/>
<text text-anchor="middle" x="934.5" y="-7.5" font-family="Helvetica,sans-Serif" font-size="10.00">MCorr3P.h</text>
</a>
</g>
</g>
<!-- Node1&#45;&gt;Node12 -->
<g id="edge11" class="edge">
<title>Node1&#45;&gt;Node12</title>
<path fill="none" stroke="midnightblue" d="M1349.44,-61.31C1268.46,-55.26 1109.3,-41.67 975.5,-20 972.77,-19.56 969.94,-19.05 967.11,-18.5"/>
<polygon fill="midnightblue" stroke="midnightblue" points="1349.64,-64.84 1359.87,-62.08 1350.15,-57.86 1349.64,-64.84"/>
</g>
<!-- Node13 -->
<g id="node13" class="node">
<title>Node13</title>
<g id="a_node13"><a xlink:href="_move_mesh_8h.html" target="_top" xlink:title=" ">
<polygon fill="white" stroke="black" points="985,-0.5 985,-19.5 1064,-19.5 1064,-0.5 985,-0.5"/>
<text text-anchor="middle" x="1024.5" y="-7.5" font-family="Helvetica,sans-Serif" font-size="10.00">MoveMesh.h</text>
</a>
</g>
</g>
<!-- Node1&#45;&gt;Node13 -->
<g id="edge12" class="edge">
<title>Node1&#45;&gt;Node13</title>
<path fill="none" stroke="midnightblue" d="M1349.81,-58.55C1284.75,-50.41 1170.76,-35.58 1073.5,-20 1070.43,-19.51 1067.25,-18.98 1064.05,-18.43"/>
<polygon fill="midnightblue" stroke="midnightblue" points="1349.46,-62.03 1359.82,-59.8 1350.33,-55.08 1349.46,-62.03"/>
</g>
<!-- Node14 -->
<g id="node14" class="node">
<title>Node14</title>
<g id="a_node14"><a xlink:href="_move_mesh2_d_8h.html" target="_top" xlink:title=" ">
<polygon fill="white" stroke="black" points="1082.5,-0.5 1082.5,-19.5 1174.5,-19.5 1174.5,-0.5 1082.5,-0.5"/>
<text text-anchor="middle" x="1128.5" y="-7.5" font-family="Helvetica,sans-Serif" font-size="10.00">MoveMesh2D.h</text>
</a>
</g>
</g>
<!-- Node1&#45;&gt;Node14 -->
<g id="edge13" class="edge">
<title>Node1&#45;&gt;Node14</title>
<path fill="none" stroke="midnightblue" d="M1350.02,-54.66C1298.35,-44.47 1220.35,-29.1 1172.02,-19.58"/>
<polygon fill="midnightblue" stroke="midnightblue" points="1349.5,-58.12 1359.99,-56.62 1350.85,-51.25 1349.5,-58.12"/>
</g>
<!-- Node15 -->
<g id="node15" class="node">
<title>Node15</title>
<g id="a_node15"><a xlink:href="_n_c_l_s_8h.html" target="_top" xlink:title=" ">
<polygon fill="white" stroke="black" points="1193,-0.5 1193,-19.5 1244,-19.5 1244,-0.5 1193,-0.5"/>
<text text-anchor="middle" x="1218.5" y="-7.5" font-family="Helvetica,sans-Serif" font-size="10.00">NCLS.h</text>
</a>
</g>
</g>
<!-- Node1&#45;&gt;Node15 -->
<g id="edge14" class="edge">
<title>Node1&#45;&gt;Node15</title>
<path fill="none" stroke="midnightblue" d="M1363.67,-53.61C1327.73,-43.06 1275.29,-27.67 1244.25,-18.56"/>
<polygon fill="midnightblue" stroke="midnightblue" points="1362.76,-56.99 1373.34,-56.44 1364.73,-50.27 1362.76,-56.99"/>
</g>
<!-- Node16 -->
<g id="node16" class="node">
<title>Node16</title>
<g id="a_node16"><a xlink:href="_n_c_l_s3_p_8h.html" target="_top" xlink:title=" ">
<polygon fill="white" stroke="black" points="1262.5,-0.5 1262.5,-19.5 1324.5,-19.5 1324.5,-0.5 1262.5,-0.5"/>
<text text-anchor="middle" x="1293.5" y="-7.5" font-family="Helvetica,sans-Serif" font-size="10.00">NCLS3P.h</text>
</a>
</g>
</g>
<!-- Node1&#45;&gt;Node16 -->
<g id="edge15" class="edge">
<title>Node1&#45;&gt;Node16</title>
<path fill="none" stroke="midnightblue" d="M1375.98,-51.86C1355.77,-41.85 1328.51,-28.35 1310.97,-19.65"/>
<polygon fill="midnightblue" stroke="midnightblue" points="1374.47,-55.02 1384.99,-56.32 1377.58,-48.75 1374.47,-55.02"/>
</g>
<!-- Node17 -->
<g id="node17" class="node">
<title>Node17</title>
<g id="a_node17"><a xlink:href="_pres_8h.html" target="_top" xlink:title=" ">
<polygon fill="white" stroke="black" points="1343,-0.5 1343,-19.5 1390,-19.5 1390,-0.5 1343,-0.5"/>
<text text-anchor="middle" x="1366.5" y="-7.5" font-family="Helvetica,sans-Serif" font-size="10.00">Pres.h</text>
</a>
</g>
</g>
<!-- Node1&#45;&gt;Node17 -->
<g id="edge16" class="edge">
<title>Node1&#45;&gt;Node17</title>
<path fill="none" stroke="midnightblue" d="M1390.88,-47.57C1384.68,-38.27 1377.33,-27.25 1372.33,-19.75"/>
<polygon fill="midnightblue" stroke="midnightblue" points="1388.1,-49.7 1396.56,-56.08 1393.92,-45.82 1388.1,-49.7"/>
</g>
<!-- Node18 -->
<g id="node18" class="node">
<title>Node18</title>
<g id="a_node18"><a xlink:href="_pres_inc_8h.html" target="_top" xlink:title=" ">
<polygon fill="white" stroke="black" points="1408,-0.5 1408,-19.5 1469,-19.5 1469,-0.5 1408,-0.5"/>
<text text-anchor="middle" x="1438.5" y="-7.5" font-family="Helvetica,sans-Serif" font-size="10.00">PresInc.h</text>
</a>
</g>
</g>
<!-- Node1&#45;&gt;Node18 -->
<g id="edge17" class="edge">
<title>Node1&#45;&gt;Node18</title>
<path fill="none" stroke="midnightblue" d="M1414.12,-47.57C1420.32,-38.27 1427.67,-27.25 1432.67,-19.75"/>
<polygon fill="midnightblue" stroke="midnightblue" points="1411.08,-45.82 1408.44,-56.08 1416.9,-49.7 1411.08,-45.82"/>
</g>
<!-- Node19 -->
<g id="node19" class="node">
<title>Node19</title>
<g id="a_node19"><a xlink:href="_pres_init_8h.html" target="_top" xlink:title=" ">
<polygon fill="white" stroke="black" points="1487.5,-0.5 1487.5,-19.5 1549.5,-19.5 1549.5,-0.5 1487.5,-0.5"/>
<text text-anchor="middle" x="1518.5" y="-7.5" font-family="Helvetica,sans-Serif" font-size="10.00">PresInit.h</text>
</a>
</g>
</g>
<!-- Node1&#45;&gt;Node19 -->
<g id="edge18" class="edge">
<title>Node1&#45;&gt;Node19</title>
<path fill="none" stroke="midnightblue" d="M1430.22,-52.1C1451.89,-42.01 1481.4,-28.27 1500.21,-19.52"/>
<polygon fill="midnightblue" stroke="midnightblue" points="1428.47,-49.05 1420.88,-56.44 1431.42,-55.4 1428.47,-49.05"/>
</g>
<!-- Node20 -->
<g id="node20" class="node">
<title>Node20</title>
<g id="a_node20"><a xlink:href="_r_a_n_s2_p_8h.html" target="_top" xlink:title=" ">
<polygon fill="white" stroke="black" points="1568,-0.5 1568,-19.5 1631,-19.5 1631,-0.5 1568,-0.5"/>
<text text-anchor="middle" x="1599.5" y="-7.5" font-family="Helvetica,sans-Serif" font-size="10.00">RANS2P.h</text>
</a>
</g>
</g>
<!-- Node1&#45;&gt;Node20 -->
<g id="edge19" class="edge">
<title>Node1&#45;&gt;Node20</title>
<path fill="none" stroke="midnightblue" d="M1443.73,-53.7C1480.91,-43.51 1534.77,-28.74 1568.43,-19.52"/>
<polygon fill="midnightblue" stroke="midnightblue" points="1442.43,-50.42 1433.72,-56.44 1444.28,-57.18 1442.43,-50.42"/>
</g>
<!-- Node21 -->
<g id="node21" class="node">
<title>Node21</title>
<g id="a_node21"><a xlink:href="_r_a_n_s2_p2_d_8h.html" target="_top" xlink:title=" ">
<polygon fill="white" stroke="black" points="1649.5,-0.5 1649.5,-19.5 1727.5,-19.5 1727.5,-0.5 1649.5,-0.5"/>
<text text-anchor="middle" x="1688.5" y="-7.5" font-family="Helvetica,sans-Serif" font-size="10.00">RANS2P2D.h</text>
</a>
</g>
</g>
<!-- Node1&#45;&gt;Node21 -->
<g id="edge20" class="edge">
<title>Node1&#45;&gt;Node21</title>
<path fill="none" stroke="midnightblue" d="M1455.12,-55.07C1511.32,-44.45 1599.08,-27.88 1649.44,-18.38"/>
<polygon fill="midnightblue" stroke="midnightblue" points="1454.19,-51.68 1445.01,-56.97 1455.48,-58.56 1454.19,-51.68"/>
</g>
<!-- Node22 -->
<g id="node22" class="node">
<title>Node22</title>
<g id="a_node22"><a xlink:href="_r_a_n_s2_p___i_b_8h.html" target="_top" xlink:title=" ">
<polygon fill="white" stroke="black" points="1745.5,-0.5 1745.5,-19.5 1825.5,-19.5 1825.5,-0.5 1745.5,-0.5"/>
<text text-anchor="middle" x="1785.5" y="-7.5" font-family="Helvetica,sans-Serif" font-size="10.00">RANS2P_IB.h</text>
</a>
</g>
</g>
<!-- Node1&#45;&gt;Node22 -->
<g id="edge21" class="edge">
<title>Node1&#45;&gt;Node22</title>
<path fill="none" stroke="midnightblue" d="M1455.17,-58.69C1521.09,-50.62 1637.36,-35.77 1736.5,-20 1739.4,-19.54 1742.4,-19.04 1745.42,-18.52"/>
<polygon fill="midnightblue" stroke="midnightblue" points="1454.54,-55.24 1445.04,-59.93 1455.39,-62.19 1454.54,-55.24"/>
</g>
<!-- Node23 -->
<g id="node23" class="node">
<title>Node23</title>
<g id="a_node23"><a xlink:href="_r_a_n_s3_p_f_8h.html" target="_top" xlink:title=" ">
<polygon fill="white" stroke="black" points="1844,-0.5 1844,-19.5 1913,-19.5 1913,-0.5 1844,-0.5"/>
<text text-anchor="middle" x="1878.5" y="-7.5" font-family="Helvetica,sans-Serif" font-size="10.00">RANS3PF.h</text>
</a>
</g>
</g>
<!-- Node1&#45;&gt;Node23 -->
<g id="edge22" class="edge">
<title>Node1&#45;&gt;Node23</title>
<path fill="none" stroke="midnightblue" d="M1455.32,-61.18C1536.95,-54.89 1698.53,-40.94 1834.5,-20 1837.58,-19.53 1840.78,-18.98 1843.97,-18.4"/>
<polygon fill="midnightblue" stroke="midnightblue" points="1455,-57.69 1445.29,-61.94 1455.53,-64.67 1455,-57.69"/>
</g>
<!-- Node24 -->
<g id="node24" class="node">
<title>Node24</title>
<g id="a_node24"><a xlink:href="_r_a_n_s3_p_f2_d_8h.html" target="_top" xlink:title=" ">
<polygon fill="white" stroke="black" points="1931.5,-0.5 1931.5,-19.5 2015.5,-19.5 2015.5,-0.5 1931.5,-0.5"/>
<text text-anchor="middle" x="1973.5" y="-7.5" font-family="Helvetica,sans-Serif" font-size="10.00">RANS3PF2D.h</text>
</a>
</g>
</g>
<!-- Node1&#45;&gt;Node24 -->
<g id="edge23" class="edge">
<title>Node1&#45;&gt;Node24</title>
<path fill="none" stroke="midnightblue" d="M1455.22,-61.98C1549.33,-56.25 1752.33,-42.33 1922.5,-20 1925.35,-19.63 1928.29,-19.2 1931.24,-18.75"/>
<polygon fill="midnightblue" stroke="midnightblue" points="1454.87,-58.5 1445.1,-62.59 1455.3,-65.48 1454.87,-58.5"/>
</g>
<!-- Node25 -->
<g id="node25" class="node">
<title>Node25</title>
<g id="a_node25"><a xlink:href="_r_a_n_s3_p_sed_8h.html" target="_top" xlink:title=" ">
<polygon fill="white" stroke="black" points="2034,-0.5 2034,-19.5 2117,-19.5 2117,-0.5 2034,-0.5"/>
<text text-anchor="middle" x="2075.5" y="-7.5" font-family="Helvetica,sans-Serif" font-size="10.00">RANS3PSed.h</text>
</a>
</g>
</g>
<!-- Node1&#45;&gt;Node25 -->
<g id="edge24" class="edge">
<title>Node1&#45;&gt;Node25</title>
<path fill="none" stroke="midnightblue" d="M1455.52,-63C1563.12,-58.53 1814.72,-46.03 2024.5,-20 2027.53,-19.62 2030.66,-19.19 2033.8,-18.72"/>
<polygon fill="midnightblue" stroke="midnightblue" points="1455.1,-59.51 1445.26,-63.42 1455.39,-66.51 1455.1,-59.51"/>
</g>
<!-- Node26 -->
<g id="node26" class="node">
<title>Node26</title>
<g id="a_node26"><a xlink:href="_r_a_n_s3_p_sed2_d_8h.html" target="_top" xlink:title=" ">
<polygon fill="white" stroke="black" points="2135.5,-0.5 2135.5,-19.5 2231.5,-19.5 2231.5,-0.5 2135.5,-0.5"/>
<text text-anchor="middle" x="2183.5" y="-7.5" font-family="Helvetica,sans-Serif" font-size="10.00">RANS3PSed2D.h</text>
</a>
</g>
</g>
<!-- Node1&#45;&gt;Node26 -->
<g id="edge25" class="edge">
<title>Node1&#45;&gt;Node26</title>
<path fill="none" stroke="midnightblue" d="M1455.4,-63.43C1575.17,-59.49 1876.17,-47.48 2126.5,-20 2129.39,-19.68 2132.35,-19.32 2135.34,-18.93"/>
<polygon fill="midnightblue" stroke="midnightblue" points="1454.94,-59.94 1445.05,-63.76 1455.16,-66.93 1454.94,-59.94"/>
</g>
<!-- Node27 -->
<g id="node27" class="node">
<title>Node27</title>
<g id="a_node27"><a xlink:href="_r_d_l_s_8h.html" target="_top" xlink:title=" ">
<polygon fill="white" stroke="black" points="2250,-0.5 2250,-19.5 2301,-19.5 2301,-0.5 2250,-0.5"/>
<text text-anchor="middle" x="2275.5" y="-7.5" font-family="Helvetica,sans-Serif" font-size="10.00">RDLS.h</text>
</a>
</g>
</g>
<!-- Node1&#45;&gt;Node27 -->
<g id="edge26" class="edge">
<title>Node1&#45;&gt;Node27</title>
<path fill="none" stroke="midnightblue" d="M1455.07,-63.54C1614.01,-58.91 2087.97,-43.47 2240.5,-20 2243.48,-19.54 2246.57,-18.94 2249.62,-18.26"/>
<polygon fill="midnightblue" stroke="midnightblue" points="1454.96,-60.04 1445.06,-63.83 1455.16,-67.04 1454.96,-60.04"/>
</g>
<!-- Node28 -->
<g id="node28" class="node">
<title>Node28</title>
<g id="a_node28"><a xlink:href="_s_w2_d_8h.html" target="_top" xlink:title=" ">
<polygon fill="white" stroke="black" points="2319,-0.5 2319,-19.5 2374,-19.5 2374,-0.5 2319,-0.5"/>
<text text-anchor="middle" x="2346.5" y="-7.5" font-family="Helvetica,sans-Serif" font-size="10.00">SW2D.h</text>
</a>
</g>
</g>
<!-- Node1&#45;&gt;Node28 -->
<g id="edge27" class="edge">
<title>Node1&#45;&gt;Node28</title>
<path fill="none" stroke="midnightblue" d="M1455.13,-63.74C1622.88,-59.53 2143.72,-44.74 2310.5,-20 2313.18,-19.6 2315.94,-19.09 2318.7,-18.52"/>
<polygon fill="midnightblue" stroke="midnightblue" points="1454.97,-60.25 1445.06,-63.99 1455.15,-67.24 1454.97,-60.25"/>
</g>
<!-- Node29 -->
<g id="node29" class="node">
<title>Node29</title>
<g id="a_node29"><a xlink:href="_s_w2_d_c_v_8h.html" target="_top" xlink:title=" ">
<polygon fill="white" stroke="black" points="2392,-0.5 2392,-19.5 2459,-19.5 2459,-0.5 2392,-0.5"/>
<text text-anchor="middle" x="2425.5" y="-7.5" font-family="Helvetica,sans-Serif" font-size="10.00">SW2DCV.h</text>
</a>
</g>
</g>
<!-- Node1&#45;&gt;Node29 -->
<g id="edge28" class="edge">
<title>Node1&#45;&gt;Node29</title>
<path fill="none" stroke="midnightblue" d="M1455.4,-65.63C1602.96,-66.75 2031.37,-65.49 2383.5,-20 2386.16,-19.66 2388.91,-19.23 2391.66,-18.75"/>
<polygon fill="midnightblue" stroke="midnightblue" points="1455.3,-62.13 1445.27,-65.55 1455.24,-69.13 1455.3,-62.13"/>
</g>
<!-- Node30 -->
<g id="node30" class="node">
<title>Node30</title>
<g id="a_node30"><a xlink:href="_v_o_f_8h.html" target="_top" xlink:title=" ">
<polygon fill="white" stroke="black" points="2477.5,-0.5 2477.5,-19.5 2521.5,-19.5 2521.5,-0.5 2477.5,-0.5"/>
<text text-anchor="middle" x="2499.5" y="-7.5" font-family="Helvetica,sans-Serif" font-size="10.00">VOF.h</text>
</a>
</g>
</g>
<!-- Node1&#45;&gt;Node30 -->
<g id="edge29" class="edge">
<title>Node1&#45;&gt;Node30</title>
<path fill="none" stroke="midnightblue" d="M1455.32,-64.45C1642,-62.23 2270.14,-52.49 2468.5,-20 2471.38,-19.53 2474.36,-18.88 2477.3,-18.14"/>
<polygon fill="midnightblue" stroke="midnightblue" points="1455.17,-60.95 1445.21,-64.57 1455.25,-67.95 1455.17,-60.95"/>
</g>
<!-- Node31 -->
<g id="node31" class="node">
<title>Node31</title>
<g id="a_node31"><a xlink:href="_v_o_f3_p_8h.html" target="_top" xlink:title=" ">
<polygon fill="white" stroke="black" points="2539.5,-0.5 2539.5,-19.5 2595.5,-19.5 2595.5,-0.5 2539.5,-0.5"/>
<text text-anchor="middle" x="2567.5" y="-7.5" font-family="Helvetica,sans-Serif" font-size="10.00">VOF3P.h</text>
</a>
</g>
</g>
<!-- Node1&#45;&gt;Node31 -->
<g id="edge30" class="edge">
<title>Node1&#45;&gt;Node31</title>
<path fill="none" stroke="midnightblue" d="M1455.4,-64.28C1649.03,-61.45 2318.83,-49.66 2530.5,-20 2533.38,-19.6 2536.36,-19.07 2539.33,-18.46"/>
<polygon fill="midnightblue" stroke="midnightblue" points="1455.15,-60.79 1445.2,-64.43 1455.25,-67.79 1455.15,-60.79"/>
</g>
<!-- Node32 -->
<g id="node32" class="node">
<title>Node32</title>
<g id="a_node32"><a xlink:href="_v_o_s3_p_8h.html" target="_top" xlink:title=" ">
<polygon fill="white" stroke="black" points="2613.5,-0.5 2613.5,-19.5 2669.5,-19.5 2669.5,-0.5 2613.5,-0.5"/>
<text text-anchor="middle" x="2641.5" y="-7.5" font-family="Helvetica,sans-Serif" font-size="10.00">VOS3P.h</text>
</a>
</g>
</g>
<!-- Node1&#45;&gt;Node32 -->
<g id="edge31" class="edge">
<title>Node1&#45;&gt;Node32</title>
<path fill="none" stroke="midnightblue" d="M1455.17,-64.44C1656.52,-62.07 2377.56,-51.52 2604.5,-20 2607.38,-19.6 2610.36,-19.07 2613.33,-18.47"/>
<polygon fill="midnightblue" stroke="midnightblue" points="1455.11,-60.94 1445.15,-64.55 1455.19,-67.94 1455.11,-60.94"/>
</g>
<!-- Node33 -->
<g id="node33" class="node">
<title>Node33</title>
<g id="a_node33"><a xlink:href="_richards_8h.html" target="_top" xlink:title=" ">
<polygon fill="white" stroke="black" points="2687.5,-0.5 2687.5,-19.5 2755.5,-19.5 2755.5,-0.5 2687.5,-0.5"/>
<text text-anchor="middle" x="2721.5" y="-7.5" font-family="Helvetica,sans-Serif" font-size="10.00">Richards.h</text>
</a>
</g>
</g>
<!-- Node1&#45;&gt;Node33 -->
<g id="edge32" class="edge">
<title>Node1&#45;&gt;Node33</title>
<path fill="none" stroke="midnightblue" d="M1455.23,-64.34C1664.38,-61.55 2435.86,-49.45 2678.5,-20 2681.38,-19.65 2684.35,-19.21 2687.32,-18.7"/>
<polygon fill="midnightblue" stroke="midnightblue" points="1455.08,-60.85 1445.13,-64.48 1455.17,-67.84 1455.08,-60.85"/>
</g>
</g>
</svg>
