<?xml version="1.0" encoding="UTF-8" standalone="no"?>
<!DOCTYPE svg PUBLIC "-//W3C//DTD SVG 1.1//EN"
 "http://www.w3.org/Graphics/SVG/1.1/DTD/svg11.dtd">
<!-- Generated by graphviz version 2.38.0 (20140413.2041)
 -->
<!-- Title: Domain.cpp Pages: 1 -->
<svg width="428pt" height="140pt"
 viewBox="0.00 0.00 427.50 140.00" xmlns="http://www.w3.org/2000/svg" xmlns:xlink="http://www.w3.org/1999/xlink">
<g id="graph0" class="graph" transform="scale(1 1) rotate(0) translate(4 136)">
<title>Domain.cpp</title>
<polygon fill="white" stroke="none" points="-4,4 -4,-136 423.5,-136 423.5,4 -4,4"/>
<!-- Node0 -->
<g id="node1" class="node"><title>Node0</title>
<polygon fill="#bfbfbf" stroke="black" points="168.5,-112.5 168.5,-131.5 237.5,-131.5 237.5,-112.5 168.5,-112.5"/>
<text text-anchor="middle" x="203" y="-119.5" font-family="Helvetica,sans-Serif" font-size="10.00">Domain.cpp</text>
</g>
<!-- Node1 -->
<g id="node2" class="node"><title>Node1</title>
<g id="a_node2"><a xlink:href="_domain_8h.html" target="_top" xlink:title="Domain.h">
<polygon fill="white" stroke="black" points="62.5,-56.5 62.5,-75.5 121.5,-75.5 121.5,-56.5 62.5,-56.5"/>
<text text-anchor="middle" x="92" y="-63.5" font-family="Helvetica,sans-Serif" font-size="10.00">Domain.h</text>
</a>
</g>
</g>
<!-- Node0&#45;&gt;Node1 -->
<g id="edge1" class="edge"><title>Node0&#45;&gt;Node1</title>
<path fill="none" stroke="midnightblue" d="M185.166,-112.324C167.284,-103.625 139.525,-90.1202 118.954,-80.113"/>
<polygon fill="midnightblue" stroke="midnightblue" points="120.313,-76.8819 109.79,-75.6545 117.251,-83.1765 120.313,-76.8819"/>
</g>
<!-- Node2 -->
<g id="node3" class="node"><title>Node2</title>
<polygon fill="white" stroke="#bfbfbf" points="0,-0.5 0,-19.5 54,-19.5 54,-0.5 0,-0.5"/>
<text text-anchor="middle" x="27" y="-7.5" font-family="Helvetica,sans-Serif" font-size="10.00">iostream</text>
</g>
<!-- Node0&#45;&gt;Node2 -->
<g id="edge6" class="edge"><title>Node0&#45;&gt;Node2</title>
<path fill="none" stroke="midnightblue" d="M168.452,-119.081C135.036,-115.47 84.8981,-105.177 53,-76 39.8504,-63.9721 33.2345,-44.3992 29.9817,-29.8699"/>
<polygon fill="midnightblue" stroke="midnightblue" points="33.4022,-29.1218 28.0972,-19.9508 26.5252,-30.4284 33.4022,-29.1218"/>
</g>
<!-- Node3 -->
<g id="node4" class="node"><title>Node3</title>
<polygon fill="white" stroke="#bfbfbf" points="130,-0.5 130,-19.5 174,-19.5 174,-0.5 130,-0.5"/>
<text text-anchor="middle" x="152" y="-7.5" font-family="Helvetica,sans-Serif" font-size="10.00">vector</text>
</g>
<!-- Node0&#45;&gt;Node3 -->
<g id="edge8" class="edge"><title>Node0&#45;&gt;Node3</title>
<path fill="none" stroke="midnightblue" d="M194.834,-112.386C187.119,-103.8 175.749,-89.9211 169,-76 161.844,-61.2403 157.42,-43.0824 154.886,-29.7134"/>
<polygon fill="midnightblue" stroke="midnightblue" points="158.324,-29.0537 153.183,-19.7896 151.425,-30.2375 158.324,-29.0537"/>
</g>
<!-- Node5 -->
<g id="node6" class="node"><title>Node5</title>
<polygon fill="white" stroke="#bfbfbf" points="178,-56.5 178,-75.5 228,-75.5 228,-56.5 178,-56.5"/>
<text text-anchor="middle" x="203" y="-63.5" font-family="Helvetica,sans-Serif" font-size="10.00">fstream</text>
</g>
<!-- Node0&#45;&gt;Node5 -->
<g id="edge5" class="edge"><title>Node0&#45;&gt;Node5</title>
<path fill="none" stroke="midnightblue" d="M203,-112.083C203,-105.006 203,-94.8611 203,-85.9865"/>
<polygon fill="midnightblue" stroke="midnightblue" points="206.5,-85.751 203,-75.7511 199.5,-85.7511 206.5,-85.751"/>
</g>
<!-- Node6 -->
<g id="node7" class="node"><title>Node6</title>
<polygon fill="white" stroke="#bfbfbf" points="246.5,-56.5 246.5,-75.5 287.5,-75.5 287.5,-56.5 246.5,-56.5"/>
<text text-anchor="middle" x="267" y="-63.5" font-family="Helvetica,sans-Serif" font-size="10.00">string</text>
</g>
<!-- Node0&#45;&gt;Node6 -->
<g id="edge7" class="edge"><title>Node0&#45;&gt;Node6</title>
<path fill="none" stroke="midnightblue" d="M213.283,-112.324C222.836,-104.263 237.28,-92.0765 248.784,-82.3695"/>
<polygon fill="midnightblue" stroke="midnightblue" points="251.144,-84.9577 256.53,-75.8339 246.63,-79.6076 251.144,-84.9577"/>
</g>
<!-- Node7 -->
<g id="node8" class="node"><title>Node7</title>
<polygon fill="white" stroke="#bfbfbf" points="306,-56.5 306,-75.5 352,-75.5 352,-56.5 306,-56.5"/>
<text text-anchor="middle" x="329" y="-63.5" font-family="Helvetica,sans-Serif" font-size="10.00">cstring</text>
</g>
<!-- Node0&#45;&gt;Node7 -->
<g id="edge9" class="edge"><title>Node0&#45;&gt;Node7</title>
<path fill="none" stroke="midnightblue" d="M222.965,-112.444C243.609,-103.596 276.063,-89.6875 299.632,-79.5865"/>
<polygon fill="midnightblue" stroke="midnightblue" points="301.316,-82.6727 309.128,-75.5164 298.558,-76.2387 301.316,-82.6727"/>
</g>
<!-- Node8 -->
<g id="node9" class="node"><title>Node8</title>
<polygon fill="white" stroke="#bfbfbf" points="370.5,-56.5 370.5,-75.5 419.5,-75.5 419.5,-56.5 370.5,-56.5"/>
<text text-anchor="middle" x="395" y="-63.5" font-family="Helvetica,sans-Serif" font-size="10.00">cassert</text>
</g>
<!-- Node0&#45;&gt;Node8 -->
<g id="edge10" class="edge"><title>Node0&#45;&gt;Node8</title>
<path fill="none" stroke="midnightblue" d="M233.423,-112.444C268.025,-102.712 324.399,-86.8567 360.58,-76.6807"/>
<polygon fill="midnightblue" stroke="midnightblue" points="361.535,-80.0478 370.214,-73.971 359.64,-73.3092 361.535,-80.0478"/>
</g>
<!-- Node1&#45;&gt;Node2 -->
<g id="edge2" class="edge"><title>Node1&#45;&gt;Node2</title>
<path fill="none" stroke="midnightblue" d="M81.5566,-56.324C71.8538,-48.2631 57.1847,-36.0765 45.5003,-26.3695"/>
<polygon fill="midnightblue" stroke="midnightblue" points="47.5619,-23.532 37.6334,-19.8339 43.0887,-28.9163 47.5619,-23.532"/>
</g>
<!-- Node1&#45;&gt;Node3 -->
<g id="edge3" class="edge"><title>Node1&#45;&gt;Node3</title>
<path fill="none" stroke="midnightblue" d="M101.64,-56.324C110.51,-48.3414 123.875,-36.3128 134.608,-26.6529"/>
<polygon fill="midnightblue" stroke="midnightblue" points="137.093,-29.1251 142.185,-19.8339 132.41,-23.922 137.093,-29.1251"/>
</g>
<!-- Node4 -->
<g id="node5" class="node"><title>Node4</title>
<polygon fill="white" stroke="#bfbfbf" points="72,-0.5 72,-19.5 112,-19.5 112,-0.5 72,-0.5"/>
<text text-anchor="middle" x="92" y="-7.5" font-family="Helvetica,sans-Serif" font-size="10.00">utility</text>
</g>
<!-- Node1&#45;&gt;Node4 -->
<g id="edge4" class="edge"><title>Node1&#45;&gt;Node4</title>
<path fill="none" stroke="midnightblue" d="M92,-56.083C92,-49.0059 92,-38.8611 92,-29.9865"/>
<polygon fill="midnightblue" stroke="midnightblue" points="95.5001,-29.751 92,-19.7511 88.5001,-29.7511 95.5001,-29.751"/>
</g>
</g>
</svg>
