<?xml version="1.0" encoding="UTF-8" standalone="no"?>
<!DOCTYPE svg PUBLIC "-//W3C//DTD SVG 1.1//EN"
 "http://www.w3.org/Graphics/SVG/1.1/DTD/svg11.dtd">
<!-- Generated by graphviz version 2.40.1 (20161225.0304)
 -->
<!-- Title: Domain.cpp Pages: 1 -->
<svg width="428pt" height="140pt"
 viewBox="0.00 0.00 427.50 140.00" xmlns="http://www.w3.org/2000/svg" xmlns:xlink="http://www.w3.org/1999/xlink">
<g id="graph0" class="graph" transform="scale(1 1) rotate(0) translate(4 136)">
<title>Domain.cpp</title>
<polygon fill="#ffffff" stroke="transparent" points="-4,4 -4,-136 423.5,-136 423.5,4 -4,4"/>
<!-- Node0 -->
<g id="node1" class="node">
<title>Node0</title>
<polygon fill="#bfbfbf" stroke="#000000" points="168.5,-112.5 168.5,-131.5 237.5,-131.5 237.5,-112.5 168.5,-112.5"/>
<text text-anchor="middle" x="203" y="-119.5" font-family="Helvetica,sans-Serif" font-size="10.00" fill="#000000">Domain.cpp</text>
</g>
<!-- Node1 -->
<g id="node2" class="node">
<title>Node1</title>
<g id="a_node2"><a xlink:href="_domain_8h.html" target="_top" xlink:title="Domain.h">
<polygon fill="#ffffff" stroke="#000000" points="62.5,-56.5 62.5,-75.5 121.5,-75.5 121.5,-56.5 62.5,-56.5"/>
<text text-anchor="middle" x="92" y="-63.5" font-family="Helvetica,sans-Serif" font-size="10.00" fill="#000000">Domain.h</text>
</a>
</g>
</g>
<!-- Node0&#45;&gt;Node1 -->
<g id="edge1" class="edge">
<title>Node0&#45;&gt;Node1</title>
<path fill="none" stroke="#191970" d="M183.9184,-112.3733C166.2598,-103.4644 139.7947,-90.1127 119.7902,-80.0203"/>
<polygon fill="#191970" stroke="#191970" points="121.3372,-76.8806 110.8326,-75.5011 118.1842,-83.1303 121.3372,-76.8806"/>
</g>
<!-- Node2 -->
<g id="node3" class="node">
<title>Node2</title>
<polygon fill="#ffffff" stroke="#bfbfbf" points="0,-.5 0,-19.5 54,-19.5 54,-.5 0,-.5"/>
<text text-anchor="middle" x="27" y="-7.5" font-family="Helvetica,sans-Serif" font-size="10.00" fill="#000000">iostream</text>
</g>
<!-- Node0&#45;&gt;Node2 -->
<g id="edge6" class="edge">
<title>Node0&#45;&gt;Node2</title>
<path fill="none" stroke="#191970" d="M168.2331,-114.8718C129.7044,-106.3638 70.7789,-91.3502 54,-76 40.7524,-63.8805 33.8494,-44.3101 30.3539,-29.6209"/>
<polygon fill="#191970" stroke="#191970" points="33.7263,-28.6414 28.2966,-19.5437 26.8677,-30.0417 33.7263,-28.6414"/>
</g>
<!-- Node3 -->
<g id="node4" class="node">
<title>Node3</title>
<polygon fill="#ffffff" stroke="#bfbfbf" points="130,-.5 130,-19.5 174,-19.5 174,-.5 130,-.5"/>
<text text-anchor="middle" x="152" y="-7.5" font-family="Helvetica,sans-Serif" font-size="10.00" fill="#000000">vector</text>
</g>
<!-- Node0&#45;&gt;Node3 -->
<g id="edge8" class="edge">
<title>Node0&#45;&gt;Node3</title>
<path fill="none" stroke="#191970" d="M194.2391,-112.4879C186.5421,-103.6501 175.5735,-89.8086 169,-76 162.0069,-61.3101 157.6217,-43.3603 155.0603,-29.8902"/>
<polygon fill="#191970" stroke="#191970" points="158.4687,-29.0588 153.3205,-19.7989 151.5704,-30.2482 158.4687,-29.0588"/>
</g>
<!-- Node5 -->
<g id="node6" class="node">
<title>Node5</title>
<polygon fill="#ffffff" stroke="#bfbfbf" points="178,-56.5 178,-75.5 228,-75.5 228,-56.5 178,-56.5"/>
<text text-anchor="middle" x="203" y="-63.5" font-family="Helvetica,sans-Serif" font-size="10.00" fill="#000000">fstream</text>
</g>
<!-- Node0&#45;&gt;Node5 -->
<g id="edge5" class="edge">
<title>Node0&#45;&gt;Node5</title>
<path fill="none" stroke="#191970" d="M203,-112.2455C203,-104.9382 203,-94.6944 203,-85.7046"/>
<polygon fill="#191970" stroke="#191970" points="206.5001,-85.6426 203,-75.6427 199.5001,-85.6427 206.5001,-85.6426"/>
</g>
<!-- Node6 -->
<g id="node7" class="node">
<title>Node6</title>
<polygon fill="#ffffff" stroke="#bfbfbf" points="246.5,-56.5 246.5,-75.5 287.5,-75.5 287.5,-56.5 246.5,-56.5"/>
<text text-anchor="middle" x="267" y="-63.5" font-family="Helvetica,sans-Serif" font-size="10.00" fill="#000000">string</text>
</g>
<!-- Node0&#45;&gt;Node6 -->
<g id="edge7" class="edge">
<title>Node0&#45;&gt;Node6</title>
<path fill="none" stroke="#191970" d="M214.1479,-112.2455C223.5087,-104.0549 237.0858,-92.1749 248.1349,-82.5069"/>
<polygon fill="#191970" stroke="#191970" points="250.7588,-84.8618 255.9798,-75.6427 246.1492,-79.5937 250.7588,-84.8618"/>
</g>
<!-- Node7 -->
<g id="node8" class="node">
<title>Node7</title>
<polygon fill="#ffffff" stroke="#bfbfbf" points="306,-56.5 306,-75.5 352,-75.5 352,-56.5 306,-56.5"/>
<text text-anchor="middle" x="329" y="-63.5" font-family="Helvetica,sans-Serif" font-size="10.00" fill="#000000">cstring</text>
</g>
<!-- Node0&#45;&gt;Node7 -->
<g id="edge9" class="edge">
<title>Node0&#45;&gt;Node7</title>
<path fill="none" stroke="#191970" d="M224.6602,-112.3733C244.9772,-103.3435 275.564,-89.7494 298.375,-79.6111"/>
<polygon fill="#191970" stroke="#191970" points="299.9059,-82.7609 307.6225,-75.5011 297.0628,-76.3642 299.9059,-82.7609"/>
</g>
<!-- Node8 -->
<g id="node9" class="node">
<title>Node8</title>
<polygon fill="#ffffff" stroke="#bfbfbf" points="370.5,-56.5 370.5,-75.5 419.5,-75.5 419.5,-56.5 370.5,-56.5"/>
<text text-anchor="middle" x="395" y="-63.5" font-family="Helvetica,sans-Serif" font-size="10.00" fill="#000000">cassert</text>
</g>
<!-- Node0&#45;&gt;Node8 -->
<g id="edge10" class="edge">
<title>Node0&#45;&gt;Node8</title>
<path fill="none" stroke="#191970" d="M235.9927,-112.4231C265.964,-103.7169 311.6525,-90.4294 360.6487,-76.0973"/>
<polygon fill="#191970" stroke="#191970" points="361.8738,-79.3857 370.4883,-73.218 359.9078,-72.6674 361.8738,-79.3857"/>
</g>
<!-- Node1&#45;&gt;Node2 -->
<g id="edge2" class="edge">
<title>Node1&#45;&gt;Node2</title>
<path fill="none" stroke="#191970" d="M80.6779,-56.2455C71.0777,-47.9746 57.1108,-35.9416 45.8305,-26.2232"/>
<polygon fill="#191970" stroke="#191970" points="48.053,-23.5182 38.1924,-19.6427 43.484,-28.8214 48.053,-23.5182"/>
</g>
<!-- Node1&#45;&gt;Node3 -->
<g id="edge3" class="edge">
<title>Node1&#45;&gt;Node3</title>
<path fill="none" stroke="#191970" d="M102.4512,-56.2455C111.2269,-48.0549 123.9554,-36.1749 134.314,-26.5069"/>
<polygon fill="#191970" stroke="#191970" points="136.7461,-29.0246 141.6686,-19.6427 131.9699,-23.9072 136.7461,-29.0246"/>
</g>
<!-- Node4 -->
<g id="node5" class="node">
<title>Node4</title>
<polygon fill="#ffffff" stroke="#bfbfbf" points="72,-.5 72,-19.5 112,-19.5 112,-.5 72,-.5"/>
<text text-anchor="middle" x="92" y="-7.5" font-family="Helvetica,sans-Serif" font-size="10.00" fill="#000000">utility</text>
</g>
<!-- Node1&#45;&gt;Node4 -->
<g id="edge4" class="edge">
<title>Node1&#45;&gt;Node4</title>
<path fill="none" stroke="#191970" d="M92,-56.2455C92,-48.9382 92,-38.6944 92,-29.7046"/>
<polygon fill="#191970" stroke="#191970" points="95.5001,-29.6426 92,-19.6427 88.5001,-29.6427 95.5001,-29.6426"/>
</g>
</g>
</svg>
