<?xml version="1.0" encoding="UTF-8" standalone="no"?>
<!DOCTYPE svg PUBLIC "-//W3C//DTD SVG 1.1//EN"
 "http://www.w3.org/Graphics/SVG/1.1/DTD/svg11.dtd">
<!-- Generated by graphviz version 2.42.3 (0)
 -->
<!-- Title: Domain.h Pages: 1 -->
<svg width="196pt" height="84pt"
 viewBox="0.00 0.00 195.50 84.00" xmlns="http://www.w3.org/2000/svg" xmlns:xlink="http://www.w3.org/1999/xlink">
<g id="graph0" class="graph" transform="scale(1 1) rotate(0) translate(4 80)">
<title>Domain.h</title>
<polygon fill="white" stroke="transparent" points="-4,4 -4,-80 191.5,-80 191.5,4 -4,4"/>
<!-- Node1 -->
<g id="node1" class="node">
<title>Node1</title>
<g id="a_node1"><a xlink:title=" ">
<polygon fill="#bfbfbf" stroke="black" points="56.5,-56.5 56.5,-75.5 120.5,-75.5 120.5,-56.5 56.5,-56.5"/>
<text text-anchor="middle" x="88.5" y="-63.5" font-family="Helvetica,sans-Serif" font-size="10.00">Domain.h</text>
</a>
</g>
</g>
<!-- Node2 -->
<g id="node2" class="node">
<title>Node2</title>
<g id="a_node2"><a xlink:href="_domain_8cpp.html" target="_top" xlink:title=" ">
<polygon fill="white" stroke="black" points="0,-0.5 0,-19.5 75,-19.5 75,-0.5 0,-0.5"/>
<text text-anchor="middle" x="37.5" y="-7.5" font-family="Helvetica,sans-Serif" font-size="10.00">Domain.cpp</text>
</a>
</g>
</g>
<!-- Node1&#45;&gt;Node2 -->
<g id="edge1" class="edge">
<title>Node1&#45;&gt;Node2</title>
<path fill="none" stroke="midnightblue" d="M73.12,-48.72C64.13,-39.2 53.14,-27.56 45.76,-19.75"/>
<polygon fill="midnightblue" stroke="midnightblue" points="70.67,-51.22 80.08,-56.08 75.76,-46.41 70.67,-51.22"/>
</g>
<!-- Node3 -->
<g id="node3" class="node">
<title>Node3</title>
<g id="a_node3"><a xlink:href="test_domain_8cpp.html" target="_top" xlink:title=" ">
<polygon fill="white" stroke="black" points="93.5,-0.5 93.5,-19.5 187.5,-19.5 187.5,-0.5 93.5,-0.5"/>
<text text-anchor="middle" x="140.5" y="-7.5" font-family="Helvetica,sans-Serif" font-size="10.00">testDomain.cpp</text>
</a>
</g>
</g>
<!-- Node1&#45;&gt;Node3 -->
<g id="edge2" class="edge">
<title>Node1&#45;&gt;Node3</title>
<path fill="none" stroke="midnightblue" d="M104.18,-48.72C113.34,-39.2 124.55,-27.56 132.07,-19.75"/>
<polygon fill="midnightblue" stroke="midnightblue" points="101.5,-46.45 97.09,-56.08 106.54,-51.31 101.5,-46.45"/>
</g>
</g>
</svg>
