<?xml version="1.0" encoding="UTF-8" standalone="no"?>
<!DOCTYPE svg PUBLIC "-//W3C//DTD SVG 1.1//EN"
 "http://www.w3.org/Graphics/SVG/1.1/DTD/svg11.dtd">
<!-- Generated by graphviz version 2.40.1 (20161225.0304)
 -->
<!-- Title: DumpMesh.h Pages: 1 -->
<svg width="246pt" height="84pt"
 viewBox="0.00 0.00 246.00 84.00" xmlns="http://www.w3.org/2000/svg" xmlns:xlink="http://www.w3.org/1999/xlink">
<g id="graph0" class="graph" transform="scale(1 1) rotate(0) translate(4 80)">
<title>DumpMesh.h</title>
<polygon fill="#ffffff" stroke="transparent" points="-4,4 -4,-80 242,-80 242,4 -4,4"/>
<!-- Node13 -->
<g id="node1" class="node">
<title>Node13</title>
<polygon fill="#bfbfbf" stroke="#000000" points="69.5,-56.5 69.5,-75.5 144.5,-75.5 144.5,-56.5 69.5,-56.5"/>
<text text-anchor="middle" x="107" y="-63.5" font-family="Helvetica,sans-Serif" font-size="10.00" fill="#000000">DumpMesh.h</text>
</g>
<!-- Node14 -->
<g id="node2" class="node">
<title>Node14</title>
<g id="a_node2"><a xlink:href="_dump_mesh_8cpp.html" target="_top" xlink:title="DumpMesh.cpp">
<polygon fill="#ffffff" stroke="#000000" points="0,-.5 0,-19.5 86,-19.5 86,-.5 0,-.5"/>
<text text-anchor="middle" x="43" y="-7.5" font-family="Helvetica,sans-Serif" font-size="10.00" fill="#000000">DumpMesh.cpp</text>
</a>
</g>
</g>
<!-- Node13&#45;&gt;Node14 -->
<g id="edge1" class="edge">
<title>Node13&#45;&gt;Node14</title>
<path fill="none" stroke="#191970" d="M88.3086,-49.645C77.1781,-39.9058 63.4337,-27.8795 54.0202,-19.6427"/>
<polygon fill="#191970" stroke="#191970" points="86.0215,-52.2945 95.8521,-56.2455 90.631,-47.0264 86.0215,-52.2945"/>
</g>
<!-- Node15 -->
<g id="node3" class="node">
<title>Node15</title>
<g id="a_node3"><a xlink:href="_parallel_mesh_converter_8cpp.html" target="_top" xlink:title="ParallelMeshConverter.cpp">
<polygon fill="#ffffff" stroke="#000000" points="104,-.5 104,-19.5 238,-19.5 238,-.5 104,-.5"/>
<text text-anchor="middle" x="171" y="-7.5" font-family="Helvetica,sans-Serif" font-size="10.00" fill="#000000">ParallelMeshConverter.cpp</text>
</a>
</g>
</g>
<!-- Node13&#45;&gt;Node15 -->
<g id="edge2" class="edge">
<title>Node13&#45;&gt;Node15</title>
<path fill="none" stroke="#191970" d="M125.6914,-49.645C136.8219,-39.9058 150.5663,-27.8795 159.9798,-19.6427"/>
<polygon fill="#191970" stroke="#191970" points="123.369,-47.0264 118.1479,-56.2455 127.9785,-52.2945 123.369,-47.0264"/>
</g>
</g>
</svg>
