<?xml version="1.0" encoding="UTF-8" standalone="no"?>
<!DOCTYPE svg PUBLIC "-//W3C//DTD SVG 1.1//EN"
 "http://www.w3.org/Graphics/SVG/1.1/DTD/svg11.dtd">
<!-- Generated by graphviz version 2.40.1 (20161225.0304)
 -->
<!-- Title: DumpMesh.cpp Pages: 1 -->
<svg width="613pt" height="196pt"
 viewBox="0.00 0.00 613.00 196.00" xmlns="http://www.w3.org/2000/svg" xmlns:xlink="http://www.w3.org/1999/xlink">
<g id="graph0" class="graph" transform="scale(1 1) rotate(0) translate(4 192)">
<title>DumpMesh.cpp</title>
<polygon fill="#ffffff" stroke="transparent" points="-4,4 -4,-192 609,-192 609,4 -4,4"/>
<!-- Node0 -->
<g id="node1" class="node">
<title>Node0</title>
<polygon fill="#bfbfbf" stroke="#000000" points="310,-168.5 310,-187.5 396,-187.5 396,-168.5 310,-168.5"/>
<text text-anchor="middle" x="353" y="-175.5" font-family="Helvetica,sans-Serif" font-size="10.00" fill="#000000">DumpMesh.cpp</text>
</g>
<!-- Node1 -->
<g id="node2" class="node">
<title>Node1</title>
<g id="a_node2"><a xlink:href="_dump_mesh_8h.html" target="_top" xlink:title="DumpMesh.h">
<polygon fill="#ffffff" stroke="#000000" points="276.5,-112.5 276.5,-131.5 351.5,-131.5 351.5,-112.5 276.5,-112.5"/>
<text text-anchor="middle" x="314" y="-119.5" font-family="Helvetica,sans-Serif" font-size="10.00" fill="#000000">DumpMesh.h</text>
</a>
</g>
</g>
<!-- Node0&#45;&gt;Node1 -->
<g id="edge1" class="edge">
<title>Node0&#45;&gt;Node1</title>
<path fill="none" stroke="#191970" d="M346.2067,-168.2455C340.7822,-160.4564 333.0339,-149.3308 326.4967,-139.9439"/>
<polygon fill="#191970" stroke="#191970" points="329.3025,-137.8485 320.7154,-131.6427 323.5583,-141.849 329.3025,-137.8485"/>
</g>
<!-- Node14 -->
<g id="node15" class="node">
<title>Node14</title>
<polygon fill="#ffffff" stroke="#bfbfbf" points="369.5,-112.5 369.5,-131.5 416.5,-131.5 416.5,-112.5 369.5,-112.5"/>
<text text-anchor="middle" x="393" y="-119.5" font-family="Helvetica,sans-Serif" font-size="10.00" fill="#000000">PCU.h</text>
</g>
<!-- Node0&#45;&gt;Node14 -->
<g id="edge14" class="edge">
<title>Node0&#45;&gt;Node14</title>
<path fill="none" stroke="#191970" d="M359.9675,-168.2455C365.5311,-160.4564 373.478,-149.3308 380.1829,-139.9439"/>
<polygon fill="#191970" stroke="#191970" points="383.148,-141.8144 386.1124,-131.6427 377.4519,-137.7457 383.148,-141.8144"/>
</g>
<!-- Node2 -->
<g id="node3" class="node">
<title>Node2</title>
<g id="a_node3"><a xlink:href="mesh_8h.html" target="_top" xlink:title="mesh.h">
<polygon fill="#ffffff" stroke="#000000" points="257.5,-56.5 257.5,-75.5 306.5,-75.5 306.5,-56.5 257.5,-56.5"/>
<text text-anchor="middle" x="282" y="-63.5" font-family="Helvetica,sans-Serif" font-size="10.00" fill="#000000">mesh.h</text>
</a>
</g>
</g>
<!-- Node1&#45;&gt;Node2 -->
<g id="edge2" class="edge">
<title>Node1&#45;&gt;Node2</title>
<path fill="none" stroke="#191970" d="M308.426,-112.2455C304.0669,-104.617 297.8789,-93.7881 292.5867,-84.5267"/>
<polygon fill="#191970" stroke="#191970" points="295.5104,-82.5886 287.5101,-75.6427 289.4327,-86.0616 295.5104,-82.5886"/>
</g>
<!-- Node13 -->
<g id="node14" class="node">
<title>Node13</title>
<polygon fill="#ffffff" stroke="#bfbfbf" points="324.5,-56.5 324.5,-75.5 367.5,-75.5 367.5,-56.5 324.5,-56.5"/>
<text text-anchor="middle" x="346" y="-63.5" font-family="Helvetica,sans-Serif" font-size="10.00" fill="#000000">cstdio</text>
</g>
<!-- Node1&#45;&gt;Node13 -->
<g id="edge13" class="edge">
<title>Node1&#45;&gt;Node13</title>
<path fill="none" stroke="#191970" d="M319.574,-112.2455C323.9331,-104.617 330.1211,-93.7881 335.4133,-84.5267"/>
<polygon fill="#191970" stroke="#191970" points="338.5673,-86.0616 340.4899,-75.6427 332.4896,-82.5886 338.5673,-86.0616"/>
</g>
<!-- Node3 -->
<g id="node4" class="node">
<title>Node3</title>
<polygon fill="#ffffff" stroke="#bfbfbf" points="0,-.5 0,-19.5 30,-19.5 30,-.5 0,-.5"/>
<text text-anchor="middle" x="15" y="-7.5" font-family="Helvetica,sans-Serif" font-size="10.00" fill="#000000">set</text>
</g>
<!-- Node2&#45;&gt;Node3 -->
<g id="edge3" class="edge">
<title>Node2&#45;&gt;Node3</title>
<path fill="none" stroke="#191970" d="M257.457,-63.0703C214.7956,-57.6153 124.2052,-44.4292 39.7913,-19.7396"/>
<polygon fill="#191970" stroke="#191970" points="40.6455,-16.3421 30.0621,-16.8336 38.6421,-23.0492 40.6455,-16.3421"/>
</g>
<!-- Node4 -->
<g id="node5" class="node">
<title>Node4</title>
<polygon fill="#ffffff" stroke="#bfbfbf" points="48,-.5 48,-19.5 92,-19.5 92,-.5 48,-.5"/>
<text text-anchor="middle" x="70" y="-7.5" font-family="Helvetica,sans-Serif" font-size="10.00" fill="#000000">vector</text>
</g>
<!-- Node2&#45;&gt;Node4 -->
<g id="edge4" class="edge">
<title>Node2&#45;&gt;Node4</title>
<path fill="none" stroke="#191970" d="M257.2753,-60.2401C224.0765,-52.3934 163.0648,-37.5795 102.0822,-20.1913"/>
<polygon fill="#191970" stroke="#191970" points="102.8771,-16.7782 92.2994,-17.3792 100.9432,-23.5057 102.8771,-16.7782"/>
</g>
<!-- Node5 -->
<g id="node6" class="node">
<title>Node5</title>
<polygon fill="#ffffff" stroke="#bfbfbf" points="110,-.5 110,-19.5 166,-19.5 166,-.5 110,-.5"/>
<text text-anchor="middle" x="138" y="-7.5" font-family="Helvetica,sans-Serif" font-size="10.00" fill="#000000">algorithm</text>
</g>
<!-- Node2&#45;&gt;Node5 -->
<g id="edge5" class="edge">
<title>Node2&#45;&gt;Node5</title>
<path fill="none" stroke="#191970" d="M257.2455,-56.3733C233.7151,-47.2226 198.1313,-33.3844 171.9574,-23.2057"/>
<polygon fill="#191970" stroke="#191970" points="173.0201,-19.8636 162.4315,-19.5011 170.4829,-26.3877 173.0201,-19.8636"/>
</g>
<!-- Node6 -->
<g id="node7" class="node">
<title>Node6</title>
<polygon fill="#ffffff" stroke="#bfbfbf" points="184.5,-.5 184.5,-19.5 219.5,-19.5 219.5,-.5 184.5,-.5"/>
<text text-anchor="middle" x="202" y="-7.5" font-family="Helvetica,sans-Serif" font-size="10.00" fill="#000000">map</text>
</g>
<!-- Node2&#45;&gt;Node6 -->
<g id="edge6" class="edge">
<title>Node2&#45;&gt;Node6</title>
<path fill="none" stroke="#191970" d="M268.0651,-56.2455C255.9053,-47.7337 238.0536,-35.2375 223.9715,-25.3801"/>
<polygon fill="#191970" stroke="#191970" points="225.9747,-22.51 215.7752,-19.6427 221.9605,-28.2447 225.9747,-22.51"/>
</g>
<!-- Node7 -->
<g id="node8" class="node">
<title>Node7</title>
<polygon fill="#ffffff" stroke="#bfbfbf" points="237.5,-.5 237.5,-19.5 266.5,-19.5 266.5,-.5 237.5,-.5"/>
<text text-anchor="middle" x="252" y="-7.5" font-family="Helvetica,sans-Serif" font-size="10.00" fill="#000000">list</text>
</g>
<!-- Node2&#45;&gt;Node7 -->
<g id="edge7" class="edge">
<title>Node2&#45;&gt;Node7</title>
<path fill="none" stroke="#191970" d="M276.7744,-56.2455C272.6877,-48.617 266.8865,-37.7881 261.925,-28.5267"/>
<polygon fill="#191970" stroke="#191970" points="264.9732,-26.8047 257.1657,-19.6427 258.8028,-30.1103 264.9732,-26.8047"/>
</g>
<!-- Node8 -->
<g id="node9" class="node">
<title>Node8</title>
<polygon fill="#ffffff" stroke="#bfbfbf" points="285,-.5 285,-19.5 339,-19.5 339,-.5 285,-.5"/>
<text text-anchor="middle" x="312" y="-7.5" font-family="Helvetica,sans-Serif" font-size="10.00" fill="#000000">iostream</text>
</g>
<!-- Node2&#45;&gt;Node8 -->
<g id="edge8" class="edge">
<title>Node2&#45;&gt;Node8</title>
<path fill="none" stroke="#191970" d="M287.2256,-56.2455C291.3123,-48.617 297.1135,-37.7881 302.075,-28.5267"/>
<polygon fill="#191970" stroke="#191970" points="305.1972,-30.1103 306.8343,-19.6427 299.0268,-26.8047 305.1972,-30.1103"/>
</g>
<!-- Node9 -->
<g id="node10" class="node">
<title>Node9</title>
<polygon fill="#ffffff" stroke="#bfbfbf" points="357,-.5 357,-19.5 407,-19.5 407,-.5 357,-.5"/>
<text text-anchor="middle" x="382" y="-7.5" font-family="Helvetica,sans-Serif" font-size="10.00" fill="#000000">iomanip</text>
</g>
<!-- Node2&#45;&gt;Node9 -->
<g id="edge9" class="edge">
<title>Node2&#45;&gt;Node9</title>
<path fill="none" stroke="#191970" d="M299.4187,-56.2455C315.0485,-47.4928 338.2019,-34.527 356.0185,-24.5496"/>
<polygon fill="#191970" stroke="#191970" points="357.766,-27.5825 364.7809,-19.6427 354.3457,-21.475 357.766,-27.5825"/>
</g>
<!-- Node10 -->
<g id="node11" class="node">
<title>Node10</title>
<polygon fill="#ffffff" stroke="#bfbfbf" points="425,-.5 425,-19.5 475,-19.5 475,-.5 425,-.5"/>
<text text-anchor="middle" x="450" y="-7.5" font-family="Helvetica,sans-Serif" font-size="10.00" fill="#000000">fstream</text>
</g>
<!-- Node2&#45;&gt;Node10 -->
<g id="edge10" class="edge">
<title>Node2&#45;&gt;Node10</title>
<path fill="none" stroke="#191970" d="M306.789,-57.737C335.4916,-48.1695 382.9607,-32.3464 415.316,-21.5613"/>
<polygon fill="#191970" stroke="#191970" points="416.4545,-24.8712 424.8345,-18.3885 414.2409,-18.2304 416.4545,-24.8712"/>
</g>
<!-- Node11 -->
<g id="node12" class="node">
<title>Node11</title>
<polygon fill="#ffffff" stroke="#bfbfbf" points="493.5,-.5 493.5,-19.5 542.5,-19.5 542.5,-.5 493.5,-.5"/>
<text text-anchor="middle" x="518" y="-7.5" font-family="Helvetica,sans-Serif" font-size="10.00" fill="#000000">cassert</text>
</g>
<!-- Node2&#45;&gt;Node11 -->
<g id="edge11" class="edge">
<title>Node2&#45;&gt;Node11</title>
<path fill="none" stroke="#191970" d="M306.8232,-58.4656C309.9041,-57.5995 313.0182,-56.7569 316,-56 386.9789,-37.984 408.2562,-38.6918 483.2513,-20.0372"/>
<polygon fill="#191970" stroke="#191970" points="484.3361,-23.3733 493.1768,-17.5344 482.6245,-16.5857 484.3361,-23.3733"/>
</g>
<!-- Node12 -->
<g id="node13" class="node">
<title>Node12</title>
<polygon fill="#ffffff" stroke="#bfbfbf" points="561,-.5 561,-19.5 605,-19.5 605,-.5 561,-.5"/>
<text text-anchor="middle" x="583" y="-7.5" font-family="Helvetica,sans-Serif" font-size="10.00" fill="#000000">cmath</text>
</g>
<!-- Node2&#45;&gt;Node12 -->
<g id="edge12" class="edge">
<title>Node2&#45;&gt;Node12</title>
<path fill="none" stroke="#191970" d="M306.7819,-58.2921C309.8699,-57.4557 312.9969,-56.6675 316,-56 416.439,-33.6755 446.8997,-43.7075 550.8181,-19.9675"/>
<polygon fill="#191970" stroke="#191970" points="551.8278,-23.326 560.7698,-17.6434 550.2358,-16.5094 551.8278,-23.326"/>
</g>
</g>
</svg>
