<?xml version="1.0" encoding="UTF-8" standalone="no"?>
<!DOCTYPE svg PUBLIC "-//W3C//DTD SVG 1.1//EN"
 "http://www.w3.org/Graphics/SVG/1.1/DTD/svg11.dtd">
<!-- Generated by graphviz version 2.42.3 (0)
 -->
<!-- Title: ElastoPlastic.h Pages: 1 -->
<svg width="1079pt" height="140pt"
 viewBox="0.00 0.00 1079.00 140.00" xmlns="http://www.w3.org/2000/svg" xmlns:xlink="http://www.w3.org/1999/xlink">
<g id="graph0" class="graph" transform="scale(1 1) rotate(0) translate(4 136)">
<title>ElastoPlastic.h</title>
<polygon fill="white" stroke="transparent" points="-4,4 -4,-136 1075,-136 1075,4 -4,4"/>
<!-- Node1 -->
<g id="node1" class="node">
<title>Node1</title>
<g id="a_node1"><a xlink:title=" ">
<polygon fill="#bfbfbf" stroke="black" points="438.5,-112.5 438.5,-131.5 526.5,-131.5 526.5,-112.5 438.5,-112.5"/>
<text text-anchor="middle" x="482.5" y="-119.5" font-family="Helvetica,sans-Serif" font-size="10.00">ElastoPlastic.h</text>
</a>
</g>
</g>
<!-- Node2 -->
<g id="node2" class="node">
<title>Node2</title>
<g id="a_node2"><a xlink:title=" ">
<polygon fill="white" stroke="#bfbfbf" points="0,-0.5 0,-19.5 47,-19.5 47,-0.5 0,-0.5"/>
<text text-anchor="middle" x="23.5" y="-7.5" font-family="Helvetica,sans-Serif" font-size="10.00">cmath</text>
</a>
</g>
</g>
<!-- Node1&#45;&gt;Node2 -->
<g id="edge1" class="edge">
<title>Node1&#45;&gt;Node2</title>
<path fill="none" stroke="midnightblue" d="M438.41,-120.14C325.96,-117.49 35.27,-107.62 6.5,-76 -5.35,-62.98 2.68,-42.72 11.27,-28.28"/>
<polygon fill="midnightblue" stroke="midnightblue" points="14.29,-30.06 16.79,-19.77 8.42,-26.25 14.29,-30.06"/>
</g>
<!-- Node3 -->
<g id="node3" class="node">
<title>Node3</title>
<g id="a_node3"><a xlink:title=" ">
<polygon fill="white" stroke="#bfbfbf" points="415.5,-0.5 415.5,-19.5 475.5,-19.5 475.5,-0.5 415.5,-0.5"/>
<text text-anchor="middle" x="445.5" y="-7.5" font-family="Helvetica,sans-Serif" font-size="10.00">iostream</text>
</a>
</g>
</g>
<!-- Node1&#45;&gt;Node3 -->
<g id="edge2" class="edge">
<title>Node1&#45;&gt;Node3</title>
<path fill="none" stroke="midnightblue" d="M479.96,-112.11C476.32,-99.54 469.31,-75.88 462.5,-56 459.45,-47.1 455.8,-37.32 452.66,-29.16"/>
<polygon fill="midnightblue" stroke="midnightblue" points="455.81,-27.62 448.92,-19.57 449.29,-30.16 455.81,-27.62"/>
</g>
<!-- Node4 -->
<g id="node4" class="node">
<title>Node4</title>
<g id="a_node4"><a xlink:title=" ">
<polygon fill="white" stroke="#bfbfbf" points="119.5,-56.5 119.5,-75.5 175.5,-75.5 175.5,-56.5 119.5,-56.5"/>
<text text-anchor="middle" x="147.5" y="-63.5" font-family="Helvetica,sans-Serif" font-size="10.00">iomanip</text>
</a>
</g>
</g>
<!-- Node1&#45;&gt;Node4 -->
<g id="edge3" class="edge">
<title>Node1&#45;&gt;Node4</title>
<path fill="none" stroke="midnightblue" d="M438.36,-115.58C381.94,-108.38 281.07,-94.58 185.55,-76.06"/>
<polygon fill="midnightblue" stroke="midnightblue" points="186.21,-72.63 175.72,-74.14 184.87,-79.5 186.21,-72.63"/>
</g>
<!-- Node5 -->
<g id="node5" class="node">
<title>Node5</title>
<g id="a_node5"><a xlink:title=" ">
<polygon fill="white" stroke="#bfbfbf" points="194,-56.5 194,-75.5 241,-75.5 241,-56.5 194,-56.5"/>
<text text-anchor="middle" x="217.5" y="-63.5" font-family="Helvetica,sans-Serif" font-size="10.00">vector</text>
</a>
</g>
</g>
<!-- Node1&#45;&gt;Node5 -->
<g id="edge4" class="edge">
<title>Node1&#45;&gt;Node5</title>
<path fill="none" stroke="midnightblue" d="M438.25,-113.43C393.51,-105.55 322.2,-92.38 251.25,-76.03"/>
<polygon fill="midnightblue" stroke="midnightblue" points="251.77,-72.56 241.24,-73.7 250.19,-79.38 251.77,-72.56"/>
</g>
<!-- Node6 -->
<g id="node6" class="node">
<title>Node6</title>
<g id="a_node6"><a xlink:href="proteus__blas_8h.html" target="_top" xlink:title=" ">
<polygon fill="white" stroke="black" points="259.5,-56.5 259.5,-75.5 347.5,-75.5 347.5,-56.5 259.5,-56.5"/>
<text text-anchor="middle" x="303.5" y="-63.5" font-family="Helvetica,sans-Serif" font-size="10.00">proteus_blas.h</text>
</a>
</g>
</g>
<!-- Node1&#45;&gt;Node6 -->
<g id="edge5" class="edge">
<title>Node1&#45;&gt;Node6</title>
<path fill="none" stroke="midnightblue" d="M454.14,-112.44C423.76,-103.28 375.39,-88.69 341.68,-78.52"/>
<polygon fill="midnightblue" stroke="midnightblue" points="342.32,-75.05 331.73,-75.52 340.29,-81.76 342.32,-75.05"/>
</g>
<!-- Node7 -->
<g id="node7" class="node">
<title>Node7</title>
<g id="a_node7"><a xlink:href="_comp_kernel_8h.html" target="_top" xlink:title=" ">
<polygon fill="white" stroke="black" points="16,-56.5 16,-75.5 101,-75.5 101,-56.5 16,-56.5"/>
<text text-anchor="middle" x="58.5" y="-63.5" font-family="Helvetica,sans-Serif" font-size="10.00">CompKernel.h</text>
</a>
</g>
</g>
<!-- Node1&#45;&gt;Node7 -->
<g id="edge6" class="edge">
<title>Node1&#45;&gt;Node7</title>
<path fill="none" stroke="midnightblue" d="M438.31,-116.39C370.37,-109.15 235.94,-94.17 111.15,-76.03"/>
<polygon fill="midnightblue" stroke="midnightblue" points="111.44,-72.53 101.04,-74.54 110.43,-79.46 111.44,-72.53"/>
</g>
<!-- Node8 -->
<g id="node8" class="node">
<title>Node8</title>
<g id="a_node8"><a xlink:href="_model_factory_8h.html" target="_top" xlink:title=" ">
<polygon fill="white" stroke="black" points="365,-56.5 365,-75.5 454,-75.5 454,-56.5 365,-56.5"/>
<text text-anchor="middle" x="409.5" y="-63.5" font-family="Helvetica,sans-Serif" font-size="10.00">ModelFactory.h</text>
</a>
</g>
</g>
<!-- Node1&#45;&gt;Node8 -->
<g id="edge8" class="edge">
<title>Node1&#45;&gt;Node8</title>
<path fill="none" stroke="midnightblue" d="M470.77,-112.32C459.66,-104.11 442.76,-91.6 429.52,-81.81"/>
<polygon fill="midnightblue" stroke="midnightblue" points="431.56,-78.97 421.44,-75.83 427.4,-84.59 431.56,-78.97"/>
</g>
<!-- Node9 -->
<g id="node9" class="node">
<title>Node9</title>
<g id="a_node9"><a xlink:href="mohr_coulomb_8h.html" target="_top" xlink:title=" ">
<polygon fill="white" stroke="black" points="511,-56.5 511,-75.5 606,-75.5 606,-56.5 511,-56.5"/>
<text text-anchor="middle" x="558.5" y="-63.5" font-family="Helvetica,sans-Serif" font-size="10.00">mohrCoulomb.h</text>
</a>
</g>
</g>
<!-- Node1&#45;&gt;Node9 -->
<g id="edge10" class="edge">
<title>Node1&#45;&gt;Node9</title>
<path fill="none" stroke="midnightblue" d="M494.71,-112.32C506.28,-104.11 523.88,-91.6 537.66,-81.81"/>
<polygon fill="midnightblue" stroke="midnightblue" points="539.94,-84.48 546.07,-75.83 535.89,-78.77 539.94,-84.48"/>
</g>
<!-- Node10 -->
<g id="node10" class="node">
<title>Node10</title>
<g id="a_node10"><a xlink:href="mohr_coulomb2_8h.html" target="_top" xlink:title=" ">
<polygon fill="white" stroke="black" points="624,-56.5 624,-75.5 725,-75.5 725,-56.5 624,-56.5"/>
<text text-anchor="middle" x="674.5" y="-63.5" font-family="Helvetica,sans-Serif" font-size="10.00">mohrCoulomb2.h</text>
</a>
</g>
</g>
<!-- Node1&#45;&gt;Node10 -->
<g id="edge11" class="edge">
<title>Node1&#45;&gt;Node10</title>
<path fill="none" stroke="midnightblue" d="M512.92,-112.44C545.78,-103.2 598.28,-88.44 634.47,-78.26"/>
<polygon fill="midnightblue" stroke="midnightblue" points="635.54,-81.59 644.22,-75.52 633.65,-74.85 635.54,-81.59"/>
</g>
<!-- Node11 -->
<g id="node11" class="node">
<title>Node11</title>
<g id="a_node11"><a xlink:href="von_mises_8h.html" target="_top" xlink:title=" ">
<polygon fill="white" stroke="black" points="743.5,-56.5 743.5,-75.5 815.5,-75.5 815.5,-56.5 743.5,-56.5"/>
<text text-anchor="middle" x="779.5" y="-63.5" font-family="Helvetica,sans-Serif" font-size="10.00">vonMises.h</text>
</a>
</g>
</g>
<!-- Node1&#45;&gt;Node11 -->
<g id="edge12" class="edge">
<title>Node1&#45;&gt;Node11</title>
<path fill="none" stroke="midnightblue" d="M526.71,-113.39C575,-105.02 654.9,-90.97 733.14,-76.23"/>
<polygon fill="midnightblue" stroke="midnightblue" points="733.99,-79.63 743.16,-74.33 732.69,-72.75 733.99,-79.63"/>
</g>
<!-- Node12 -->
<g id="node12" class="node">
<title>Node12</title>
<g id="a_node12"><a xlink:href="tresca_8h.html" target="_top" xlink:title=" ">
<polygon fill="white" stroke="black" points="833.5,-56.5 833.5,-75.5 889.5,-75.5 889.5,-56.5 833.5,-56.5"/>
<text text-anchor="middle" x="861.5" y="-63.5" font-family="Helvetica,sans-Serif" font-size="10.00">tresca.h</text>
</a>
</g>
</g>
<!-- Node1&#45;&gt;Node12 -->
<g id="edge13" class="edge">
<title>Node1&#45;&gt;Node12</title>
<path fill="none" stroke="midnightblue" d="M526.74,-116.72C590.24,-110.24 711.05,-96.65 823.16,-76.08"/>
<polygon fill="midnightblue" stroke="midnightblue" points="824.09,-79.46 833.29,-74.19 822.81,-72.58 824.09,-79.46"/>
</g>
<!-- Node13 -->
<g id="node13" class="node">
<title>Node13</title>
<g id="a_node13"><a xlink:href="drucker_prager_8h.html" target="_top" xlink:title=" ">
<polygon fill="white" stroke="black" points="907.5,-56.5 907.5,-75.5 999.5,-75.5 999.5,-56.5 907.5,-56.5"/>
<text text-anchor="middle" x="953.5" y="-63.5" font-family="Helvetica,sans-Serif" font-size="10.00">druckerPrager.h</text>
</a>
</g>
</g>
<!-- Node1&#45;&gt;Node13 -->
<g id="edge14" class="edge">
<title>Node1&#45;&gt;Node13</title>
<path fill="none" stroke="midnightblue" d="M526.62,-117.02C600.9,-110.16 755.87,-95.08 897.17,-76.12"/>
<polygon fill="midnightblue" stroke="midnightblue" points="897.87,-79.55 907.31,-74.74 896.94,-72.62 897.87,-79.55"/>
</g>
<!-- Node14 -->
<g id="node14" class="node">
<title>Node14</title>
<g id="a_node14"><a xlink:href="mcdp_8h.html" target="_top" xlink:title=" ">
<polygon fill="white" stroke="black" points="1018,-56.5 1018,-75.5 1071,-75.5 1071,-56.5 1018,-56.5"/>
<text text-anchor="middle" x="1044.5" y="-63.5" font-family="Helvetica,sans-Serif" font-size="10.00">mcdp.h</text>
</a>
</g>
</g>
<!-- Node1&#45;&gt;Node14 -->
<g id="edge15" class="edge">
<title>Node1&#45;&gt;Node14</title>
<path fill="none" stroke="midnightblue" d="M526.78,-119.6C616.01,-116.26 823.84,-105.88 1007.74,-75.84"/>
<polygon fill="midnightblue" stroke="midnightblue" points="1008.57,-79.25 1017.86,-74.16 1007.43,-72.34 1008.57,-79.25"/>
</g>
<!-- Node7&#45;&gt;Node2 -->
<g id="edge7" class="edge">
<title>Node7&#45;&gt;Node2</title>
<path fill="none" stroke="midnightblue" d="M52.72,-56.08C47.83,-48.53 40.67,-37.49 34.67,-28.23"/>
<polygon fill="midnightblue" stroke="midnightblue" points="37.55,-26.24 29.17,-19.75 31.67,-30.05 37.55,-26.24"/>
</g>
<!-- Node8&#45;&gt;Node3 -->
<g id="edge9" class="edge">
<title>Node8&#45;&gt;Node3</title>
<path fill="none" stroke="midnightblue" d="M415.44,-56.08C420.48,-48.53 427.84,-37.49 434.01,-28.23"/>
<polygon fill="midnightblue" stroke="midnightblue" points="437.03,-30.01 439.67,-19.75 431.21,-26.13 437.03,-30.01"/>
</g>
</g>
</svg>
