<?xml version="1.0" encoding="UTF-8" standalone="no"?>
<!DOCTYPE svg PUBLIC "-//W3C//DTD SVG 1.1//EN"
 "http://www.w3.org/Graphics/SVG/1.1/DTD/svg11.dtd">
<!-- Generated by graphviz version 2.38.0 (20140413.2041)
 -->
<!-- Title: FMMandFSW.h Pages: 1 -->
<svg width="612pt" height="140pt"
 viewBox="0.00 0.00 612.00 140.00" xmlns="http://www.w3.org/2000/svg" xmlns:xlink="http://www.w3.org/1999/xlink">
<g id="graph0" class="graph" transform="scale(1 1) rotate(0) translate(4 136)">
<title>FMMandFSW.h</title>
<polygon fill="white" stroke="none" points="-4,4 -4,-136 608,-136 608,4 -4,4"/>
<!-- Node1 -->
<g id="node1" class="node"><title>Node1</title>
<polygon fill="#bfbfbf" stroke="black" points="155,-112.5 155,-131.5 241,-131.5 241,-112.5 155,-112.5"/>
<text text-anchor="middle" x="198" y="-119.5" font-family="Helvetica,sans-Serif" font-size="10.00">FMMandFSW.h</text>
</g>
<!-- Node2 -->
<g id="node2" class="node"><title>Node2</title>
<polygon fill="white" stroke="#bfbfbf" points="0,-0.5 0,-19.5 44,-19.5 44,-0.5 0,-0.5"/>
<text text-anchor="middle" x="22" y="-7.5" font-family="Helvetica,sans-Serif" font-size="10.00">vector</text>
</g>
<!-- Node1&#45;&gt;Node2 -->
<g id="edge1" class="edge"><title>Node1&#45;&gt;Node2</title>
<path fill="none" stroke="midnightblue" d="M184.19,-112.368C153.859,-93.4121 81.201,-48.0006 44.3078,-24.9424"/>
<polygon fill="midnightblue" stroke="midnightblue" points="46.0813,-21.9235 35.7463,-19.5914 42.3713,-27.8595 46.0813,-21.9235"/>
</g>
<!-- Node3 -->
<g id="node3" class="node"><title>Node3</title>
<polygon fill="white" stroke="#bfbfbf" points="287.5,-56.5 287.5,-75.5 338.5,-75.5 338.5,-56.5 287.5,-56.5"/>
<text text-anchor="middle" x="313" y="-63.5" font-family="Helvetica,sans-Serif" font-size="10.00">valarray</text>
</g>
<!-- Node1&#45;&gt;Node3 -->
<g id="edge2" class="edge"><title>Node1&#45;&gt;Node3</title>
<path fill="none" stroke="midnightblue" d="M216.222,-112.444C234.896,-103.675 264.156,-89.9355 285.617,-79.8579"/>
<polygon fill="midnightblue" stroke="midnightblue" points="287.299,-82.935 294.863,-75.5164 284.324,-76.5988 287.299,-82.935"/>
</g>
<!-- Node4 -->
<g id="node4" class="node"><title>Node4</title>
<polygon fill="white" stroke="#bfbfbf" points="62,-0.5 62,-19.5 106,-19.5 106,-0.5 62,-0.5"/>
<text text-anchor="middle" x="84" y="-7.5" font-family="Helvetica,sans-Serif" font-size="10.00">cmath</text>
</g>
<!-- Node1&#45;&gt;Node4 -->
<g id="edge3" class="edge"><title>Node1&#45;&gt;Node4</title>
<path fill="none" stroke="midnightblue" d="M189.055,-112.368C169.908,-93.8941 124.721,-50.2926 100.316,-26.7436"/>
<polygon fill="midnightblue" stroke="midnightblue" points="102.53,-24.0165 92.9038,-19.5914 97.6697,-29.0538 102.53,-24.0165"/>
</g>
<!-- Node5 -->
<g id="node5" class="node"><title>Node5</title>
<g id="a_node5"><a xlink:href="mesh_8h.html" target="_top" xlink:title="mesh.h">
<polygon fill="white" stroke="black" points="220.5,-56.5 220.5,-75.5 269.5,-75.5 269.5,-56.5 220.5,-56.5"/>
<text text-anchor="middle" x="245" y="-63.5" font-family="Helvetica,sans-Serif" font-size="10.00">mesh.h</text>
</a>
</g>
</g>
<!-- Node1&#45;&gt;Node5 -->
<g id="edge4" class="edge"><title>Node1&#45;&gt;Node5</title>
<path fill="none" stroke="midnightblue" d="M205.761,-112.083C212.537,-104.298 222.543,-92.8015 230.755,-83.3665"/>
<polygon fill="midnightblue" stroke="midnightblue" points="233.458,-85.592 237.383,-75.7511 228.178,-80.9963 233.458,-85.592"/>
</g>
<!-- Node5&#45;&gt;Node2 -->
<g id="edge6" class="edge"><title>Node5&#45;&gt;Node2</title>
<path fill="none" stroke="midnightblue" d="M220.349,-59.6557C185.498,-52.0071 119.622,-37.2091 54.3547,-20.2562"/>
<polygon fill="midnightblue" stroke="midnightblue" points="54.8726,-16.774 44.3123,-17.629 53.1009,-23.5461 54.8726,-16.774"/>
</g>
<!-- Node5&#45;&gt;Node4 -->
<g id="edge14" class="edge"><title>Node5&#45;&gt;Node4</title>
<path fill="none" stroke="midnightblue" d="M220.197,-56.6808C192.222,-47.2981 146.646,-32.0118 116.008,-21.7357"/>
<polygon fill="midnightblue" stroke="midnightblue" points="116.832,-18.3203 106.238,-18.4586 114.606,-24.957 116.832,-18.3203"/>
</g>
<!-- Node6 -->
<g id="node6" class="node"><title>Node6</title>
<polygon fill="white" stroke="#bfbfbf" points="259,-0.5 259,-19.5 289,-19.5 289,-0.5 259,-0.5"/>
<text text-anchor="middle" x="274" y="-7.5" font-family="Helvetica,sans-Serif" font-size="10.00">set</text>
</g>
<!-- Node5&#45;&gt;Node6 -->
<g id="edge5" class="edge"><title>Node5&#45;&gt;Node6</title>
<path fill="none" stroke="midnightblue" d="M249.789,-56.083C253.758,-48.6913 259.525,-37.9533 264.435,-28.8111"/>
<polygon fill="midnightblue" stroke="midnightblue" points="267.653,-30.217 269.3,-19.7511 261.486,-26.9051 267.653,-30.217"/>
</g>
<!-- Node7 -->
<g id="node7" class="node"><title>Node7</title>
<polygon fill="white" stroke="#bfbfbf" points="307,-0.5 307,-19.5 363,-19.5 363,-0.5 307,-0.5"/>
<text text-anchor="middle" x="335" y="-7.5" font-family="Helvetica,sans-Serif" font-size="10.00">algorithm</text>
</g>
<!-- Node5&#45;&gt;Node7 -->
<g id="edge7" class="edge"><title>Node5&#45;&gt;Node7</title>
<path fill="none" stroke="midnightblue" d="M259.46,-56.324C273.5,-47.9002 295.048,-34.9709 311.543,-25.0741"/>
<polygon fill="midnightblue" stroke="midnightblue" points="313.802,-27.8007 320.576,-19.6545 310.2,-21.7983 313.802,-27.8007"/>
</g>
<!-- Node8 -->
<g id="node8" class="node"><title>Node8</title>
<polygon fill="white" stroke="#bfbfbf" points="381.5,-0.5 381.5,-19.5 416.5,-19.5 416.5,-0.5 381.5,-0.5"/>
<text text-anchor="middle" x="399" y="-7.5" font-family="Helvetica,sans-Serif" font-size="10.00">map</text>
</g>
<!-- Node5&#45;&gt;Node8 -->
<g id="edge8" class="edge"><title>Node5&#45;&gt;Node8</title>
<path fill="none" stroke="midnightblue" d="M269.402,-56.4435C297.321,-46.6537 342.912,-30.6672 371.91,-20.4991"/>
<polygon fill="midnightblue" stroke="midnightblue" points="373.14,-23.7768 381.419,-17.1649 370.824,-17.1711 373.14,-23.7768"/>
</g>
<!-- Node9 -->
<g id="node9" class="node"><title>Node9</title>
<polygon fill="white" stroke="#bfbfbf" points="434.5,-0.5 434.5,-19.5 463.5,-19.5 463.5,-0.5 434.5,-0.5"/>
<text text-anchor="middle" x="449" y="-7.5" font-family="Helvetica,sans-Serif" font-size="10.00">list</text>
</g>
<!-- Node5&#45;&gt;Node9 -->
<g id="edge9" class="edge"><title>Node5&#45;&gt;Node9</title>
<path fill="none" stroke="midnightblue" d="M269.869,-58.3601C272.942,-57.5564 276.041,-56.7538 279,-56 341.126,-40.1716 360.11,-40.2537 424.213,-20.2912"/>
<polygon fill="midnightblue" stroke="midnightblue" points="425.528,-23.5463 434.009,-17.1961 423.419,-16.8716 425.528,-23.5463"/>
</g>
<!-- Node10 -->
<g id="node10" class="node"><title>Node10</title>
<polygon fill="white" stroke="#bfbfbf" points="482,-0.5 482,-19.5 536,-19.5 536,-0.5 482,-0.5"/>
<text text-anchor="middle" x="509" y="-7.5" font-family="Helvetica,sans-Serif" font-size="10.00">iostream</text>
</g>
<!-- Node5&#45;&gt;Node10 -->
<g id="edge10" class="edge"><title>Node5&#45;&gt;Node10</title>
<path fill="none" stroke="midnightblue" d="M269.829,-58.1966C272.909,-57.421 276.021,-56.6696 279,-56 361.467,-37.4612 385.584,-38.5352 471.935,-20.1165"/>
<polygon fill="midnightblue" stroke="midnightblue" points="472.879,-23.4933 481.915,-17.9608 471.402,-16.6511 472.879,-23.4933"/>
</g>
<!-- Node11 -->
<g id="node11" class="node"><title>Node11</title>
<polygon fill="white" stroke="#bfbfbf" points="554,-0.5 554,-19.5 604,-19.5 604,-0.5 554,-0.5"/>
<text text-anchor="middle" x="579" y="-7.5" font-family="Helvetica,sans-Serif" font-size="10.00">iomanip</text>
</g>
<!-- Node5&#45;&gt;Node11 -->
<g id="edge11" class="edge"><title>Node5&#45;&gt;Node11</title>
<path fill="none" stroke="midnightblue" d="M269.799,-58.0546C272.884,-57.3033 276.006,-56.5965 279,-56 392.802,-33.3284 426.186,-42.7537 543.715,-20.0295"/>
<polygon fill="midnightblue" stroke="midnightblue" points="544.696,-23.4035 553.83,-18.0353 543.342,-16.5357 544.696,-23.4035"/>
</g>
<!-- Node12 -->
<g id="node12" class="node"><title>Node12</title>
<polygon fill="white" stroke="#bfbfbf" points="124,-0.5 124,-19.5 174,-19.5 174,-0.5 124,-0.5"/>
<text text-anchor="middle" x="149" y="-7.5" font-family="Helvetica,sans-Serif" font-size="10.00">fstream</text>
</g>
<!-- Node5&#45;&gt;Node12 -->
<g id="edge12" class="edge"><title>Node5&#45;&gt;Node12</title>
<path fill="none" stroke="midnightblue" d="M229.576,-56.324C214.46,-47.8215 191.185,-34.7288 173.529,-24.7975"/>
<polygon fill="midnightblue" stroke="midnightblue" points="174.817,-21.5066 164.386,-19.6545 171.386,-27.6077 174.817,-21.5066"/>
</g>
<!-- Node13 -->
<g id="node13" class="node"><title>Node13</title>
<polygon fill="white" stroke="#bfbfbf" points="192.5,-0.5 192.5,-19.5 241.5,-19.5 241.5,-0.5 192.5,-0.5"/>
<text text-anchor="middle" x="217" y="-7.5" font-family="Helvetica,sans-Serif" font-size="10.00">cassert</text>
</g>
<!-- Node5&#45;&gt;Node13 -->
<g id="edge13" class="edge"><title>Node5&#45;&gt;Node13</title>
<path fill="none" stroke="midnightblue" d="M240.376,-56.083C236.544,-48.6913 230.976,-37.9533 226.235,-28.8111"/>
<polygon fill="midnightblue" stroke="midnightblue" points="229.248,-27.0175 221.538,-19.7511 223.034,-30.2398 229.248,-27.0175"/>
</g>
</g>
</svg>
