<?xml version="1.0" encoding="UTF-8" standalone="no"?>
<!DOCTYPE svg PUBLIC "-//W3C//DTD SVG 1.1//EN"
 "http://www.w3.org/Graphics/SVG/1.1/DTD/svg11.dtd">
<!-- Generated by graphviz version 2.40.1 (20161225.0304)
 -->
<!-- Title: FMMandFSW.h Pages: 1 -->
<svg width="613pt" height="140pt"
 viewBox="0.00 0.00 613.00 140.00" xmlns="http://www.w3.org/2000/svg" xmlns:xlink="http://www.w3.org/1999/xlink">
<g id="graph0" class="graph" transform="scale(1 1) rotate(0) translate(4 136)">
<title>FMMandFSW.h</title>
<polygon fill="#ffffff" stroke="transparent" points="-4,4 -4,-136 609,-136 609,4 -4,4"/>
<!-- Node0 -->
<g id="node1" class="node">
<title>Node0</title>
<polygon fill="#bfbfbf" stroke="#000000" points="140,-112.5 140,-131.5 226,-131.5 226,-112.5 140,-112.5"/>
<text text-anchor="middle" x="183" y="-119.5" font-family="Helvetica,sans-Serif" font-size="10.00" fill="#000000">FMMandFSW.h</text>
</g>
<!-- Node1 -->
<g id="node2" class="node">
<title>Node1</title>
<polygon fill="#ffffff" stroke="#bfbfbf" points="0,-.5 0,-19.5 44,-19.5 44,-.5 0,-.5"/>
<text text-anchor="middle" x="22" y="-7.5" font-family="Helvetica,sans-Serif" font-size="10.00" fill="#000000">vector</text>
</g>
<!-- Node0&#45;&gt;Node1 -->
<g id="edge1" class="edge">
<title>Node0&#45;&gt;Node1</title>
<path fill="none" stroke="#191970" d="M169.2732,-112.4509C141.351,-93.0268 77.7324,-48.7703 43.9786,-25.2895"/>
<polygon fill="#191970" stroke="#191970" points="45.8998,-22.3624 35.692,-19.5249 41.9024,-28.1087 45.8998,-22.3624"/>
</g>
<!-- Node2 -->
<g id="node3" class="node">
<title>Node2</title>
<polygon fill="#ffffff" stroke="#bfbfbf" points="288.5,-56.5 288.5,-75.5 339.5,-75.5 339.5,-56.5 288.5,-56.5"/>
<text text-anchor="middle" x="314" y="-63.5" font-family="Helvetica,sans-Serif" font-size="10.00" fill="#000000">valarray</text>
</g>
<!-- Node0&#45;&gt;Node2 -->
<g id="edge2" class="edge">
<title>Node0&#45;&gt;Node2</title>
<path fill="none" stroke="#191970" d="M205.5197,-112.3733C226.7372,-103.3032 258.7276,-89.6279 282.4769,-79.4755"/>
<polygon fill="#191970" stroke="#191970" points="283.9548,-82.6502 291.7742,-75.5011 281.2033,-76.2136 283.9548,-82.6502"/>
</g>
<!-- Node3 -->
<g id="node4" class="node">
<title>Node3</title>
<polygon fill="#ffffff" stroke="#bfbfbf" points="62,-.5 62,-19.5 106,-19.5 106,-.5 62,-.5"/>
<text text-anchor="middle" x="84" y="-7.5" font-family="Helvetica,sans-Serif" font-size="10.00" fill="#000000">cmath</text>
</g>
<!-- Node0&#45;&gt;Node3 -->
<g id="edge3" class="edge">
<title>Node0&#45;&gt;Node3</title>
<path fill="none" stroke="#191970" d="M174.5593,-112.4509C157.8281,-93.5227 120.2535,-51.014 99.1398,-27.1279"/>
<polygon fill="#191970" stroke="#191970" points="101.6646,-24.6994 92.4193,-19.5249 96.4198,-29.3354 101.6646,-24.6994"/>
</g>
<!-- Node4 -->
<g id="node5" class="node">
<title>Node4</title>
<g id="a_node5"><a xlink:href="mesh_8h.html" target="_top" xlink:title="mesh.h">
<polygon fill="#ffffff" stroke="#000000" points="221.5,-56.5 221.5,-75.5 270.5,-75.5 270.5,-56.5 221.5,-56.5"/>
<text text-anchor="middle" x="246" y="-63.5" font-family="Helvetica,sans-Serif" font-size="10.00" fill="#000000">mesh.h</text>
</a>
</g>
</g>
<!-- Node0&#45;&gt;Node4 -->
<g id="edge4" class="edge">
<title>Node0&#45;&gt;Node4</title>
<path fill="none" stroke="#191970" d="M193.9738,-112.2455C203.1882,-104.0549 216.5532,-92.1749 227.4297,-82.5069"/>
<polygon fill="#191970" stroke="#191970" points="230.0032,-84.9023 235.152,-75.6427 225.3526,-79.6704 230.0032,-84.9023"/>
</g>
<!-- Node4&#45;&gt;Node1 -->
<g id="edge6" class="edge">
<title>Node4&#45;&gt;Node1</title>
<path fill="none" stroke="#191970" d="M221.4694,-60.7973C186.3831,-53.2177 119.6752,-38.296 53.9709,-20.1236"/>
<polygon fill="#191970" stroke="#191970" points="54.8609,-16.7383 44.288,-17.4194 52.9779,-23.4803 54.8609,-16.7383"/>
</g>
<!-- Node4&#45;&gt;Node3 -->
<g id="edge14" class="edge">
<title>Node4&#45;&gt;Node3</title>
<path fill="none" stroke="#191970" d="M221.3957,-57.4948C193.1218,-47.7211 146.6482,-31.6562 115.6892,-20.9543"/>
<polygon fill="#191970" stroke="#191970" points="116.8202,-17.6421 106.2254,-17.6829 114.5332,-24.258 116.8202,-17.6421"/>
</g>
<!-- Node5 -->
<g id="node6" class="node">
<title>Node5</title>
<polygon fill="#ffffff" stroke="#bfbfbf" points="260,-.5 260,-19.5 290,-19.5 290,-.5 260,-.5"/>
<text text-anchor="middle" x="275" y="-7.5" font-family="Helvetica,sans-Serif" font-size="10.00" fill="#000000">set</text>
</g>
<!-- Node4&#45;&gt;Node5 -->
<g id="edge5" class="edge">
<title>Node4&#45;&gt;Node5</title>
<path fill="none" stroke="#191970" d="M251.0514,-56.2455C255.0019,-48.617 260.6097,-37.7881 265.4058,-28.5267"/>
<polygon fill="#191970" stroke="#191970" points="268.5159,-30.1321 270.0065,-19.6427 262.2999,-26.9131 268.5159,-30.1321"/>
</g>
<!-- Node6 -->
<g id="node7" class="node">
<title>Node6</title>
<polygon fill="#ffffff" stroke="#bfbfbf" points="308,-.5 308,-19.5 364,-19.5 364,-.5 308,-.5"/>
<text text-anchor="middle" x="336" y="-7.5" font-family="Helvetica,sans-Serif" font-size="10.00" fill="#000000">algorithm</text>
</g>
<!-- Node4&#45;&gt;Node6 -->
<g id="edge7" class="edge">
<title>Node4&#45;&gt;Node6</title>
<path fill="none" stroke="#191970" d="M261.6768,-56.2455C275.4856,-47.6534 295.8193,-35.0014 311.7292,-25.1018"/>
<polygon fill="#191970" stroke="#191970" points="313.8613,-27.8974 320.5028,-19.6427 310.1632,-21.954 313.8613,-27.8974"/>
</g>
<!-- Node7 -->
<g id="node8" class="node">
<title>Node7</title>
<polygon fill="#ffffff" stroke="#bfbfbf" points="382.5,-.5 382.5,-19.5 417.5,-19.5 417.5,-.5 382.5,-.5"/>
<text text-anchor="middle" x="400" y="-7.5" font-family="Helvetica,sans-Serif" font-size="10.00" fill="#000000">map</text>
</g>
<!-- Node4&#45;&gt;Node7 -->
<g id="edge8" class="edge">
<title>Node4&#45;&gt;Node7</title>
<path fill="none" stroke="#191970" d="M270.8412,-57.0621C294.6056,-48.4987 331.6901,-35.1018 372.6502,-20.1113"/>
<polygon fill="#191970" stroke="#191970" points="374.1021,-23.3069 382.288,-16.5807 371.6942,-16.734 374.1021,-23.3069"/>
</g>
<!-- Node8 -->
<g id="node9" class="node">
<title>Node8</title>
<polygon fill="#ffffff" stroke="#bfbfbf" points="435.5,-.5 435.5,-19.5 464.5,-19.5 464.5,-.5 435.5,-.5"/>
<text text-anchor="middle" x="450" y="-7.5" font-family="Helvetica,sans-Serif" font-size="10.00" fill="#000000">list</text>
</g>
<!-- Node4&#45;&gt;Node8 -->
<g id="edge9" class="edge">
<title>Node4&#45;&gt;Node8</title>
<path fill="none" stroke="#191970" d="M270.8452,-58.5497C273.9223,-57.6692 277.0295,-56.8001 280,-56 341.9046,-39.3256 361.4413,-41.2529 425.2967,-20.2114"/>
<polygon fill="#191970" stroke="#191970" points="426.6848,-23.4374 435.0498,-16.9353 424.4558,-16.8017 426.6848,-23.4374"/>
</g>
<!-- Node9 -->
<g id="node10" class="node">
<title>Node9</title>
<polygon fill="#ffffff" stroke="#bfbfbf" points="483,-.5 483,-19.5 537,-19.5 537,-.5 483,-.5"/>
<text text-anchor="middle" x="510" y="-7.5" font-family="Helvetica,sans-Serif" font-size="10.00" fill="#000000">iostream</text>
</g>
<!-- Node4&#45;&gt;Node9 -->
<g id="edge10" class="edge">
<title>Node4&#45;&gt;Node9</title>
<path fill="none" stroke="#191970" d="M270.8035,-58.3855C273.8877,-57.5332 277.008,-56.7156 280,-56 362.2069,-36.3381 386.7971,-39.4862 472.9799,-20.0714"/>
<polygon fill="#191970" stroke="#191970" points="473.972,-23.4349 482.9381,-17.7905 472.4091,-16.6116 473.972,-23.4349"/>
</g>
<!-- Node10 -->
<g id="node11" class="node">
<title>Node10</title>
<polygon fill="#ffffff" stroke="#bfbfbf" points="555,-.5 555,-19.5 605,-19.5 605,-.5 555,-.5"/>
<text text-anchor="middle" x="580" y="-7.5" font-family="Helvetica,sans-Serif" font-size="10.00" fill="#000000">iomanip</text>
</g>
<!-- Node4&#45;&gt;Node10 -->
<g id="edge11" class="edge">
<title>Node4&#45;&gt;Node10</title>
<path fill="none" stroke="#191970" d="M270.7712,-58.2428C273.861,-57.415 276.9914,-56.6422 280,-56 393.4817,-31.7783 427.4793,-44.1766 544.7652,-19.9849"/>
<polygon fill="#191970" stroke="#191970" points="545.7954,-23.3447 554.8578,-17.8562 544.3508,-16.4953 545.7954,-23.3447"/>
</g>
<!-- Node11 -->
<g id="node12" class="node">
<title>Node11</title>
<polygon fill="#ffffff" stroke="#bfbfbf" points="124,-.5 124,-19.5 174,-19.5 174,-.5 124,-.5"/>
<text text-anchor="middle" x="149" y="-7.5" font-family="Helvetica,sans-Serif" font-size="10.00" fill="#000000">fstream</text>
</g>
<!-- Node4&#45;&gt;Node11 -->
<g id="edge12" class="edge">
<title>Node4&#45;&gt;Node11</title>
<path fill="none" stroke="#191970" d="M229.1039,-56.2455C214.082,-47.5731 191.8957,-34.7645 174.679,-24.825"/>
<polygon fill="#191970" stroke="#191970" points="176.1128,-21.6114 165.7025,-19.6427 172.6129,-27.6737 176.1128,-21.6114"/>
</g>
<!-- Node12 -->
<g id="node13" class="node">
<title>Node12</title>
<polygon fill="#ffffff" stroke="#bfbfbf" points="192.5,-.5 192.5,-19.5 241.5,-19.5 241.5,-.5 192.5,-.5"/>
<text text-anchor="middle" x="217" y="-7.5" font-family="Helvetica,sans-Serif" font-size="10.00" fill="#000000">cassert</text>
</g>
<!-- Node4&#45;&gt;Node12 -->
<g id="edge13" class="edge">
<title>Node4&#45;&gt;Node12</title>
<path fill="none" stroke="#191970" d="M240.9486,-56.2455C236.9981,-48.617 231.3903,-37.7881 226.5942,-28.5267"/>
<polygon fill="#191970" stroke="#191970" points="229.7001,-26.9131 221.9935,-19.6427 223.4841,-30.1321 229.7001,-26.9131"/>
</g>
</g>
</svg>
