<?xml version="1.0" encoding="UTF-8" standalone="no"?>
<!DOCTYPE svg PUBLIC "-//W3C//DTD SVG 1.1//EN"
 "http://www.w3.org/Graphics/SVG/1.1/DTD/svg11.dtd">
<!-- Generated by graphviz version 2.38.0 (20140413.2041)
 -->
<!-- Title: FMMandFSW.h Pages: 1 -->
<svg width="324pt" height="84pt"
 viewBox="0.00 0.00 324.00 84.00" xmlns="http://www.w3.org/2000/svg" xmlns:xlink="http://www.w3.org/1999/xlink">
<g id="graph0" class="graph" transform="scale(1 1) rotate(0) translate(4 80)">
<title>FMMandFSW.h</title>
<polygon fill="white" stroke="none" points="-4,4 -4,-80 320,-80 320,4 -4,4"/>
<!-- Node13 -->
<g id="node1" class="node"><title>Node13</title>
<polygon fill="#bfbfbf" stroke="black" points="105,-56.5 105,-75.5 191,-75.5 191,-56.5 105,-56.5"/>
<text text-anchor="middle" x="148" y="-63.5" font-family="Helvetica,sans-Serif" font-size="10.00">FMMandFSW.h</text>
</g>
<!-- Node14 -->
<g id="node2" class="node"><title>Node14</title>
<g id="a_node2"><a xlink:href="cfmmfsw_8cpp.html" target="_top" xlink:title="cfmmfsw.cpp">
<polygon fill="white" stroke="black" points="0,-0.5 0,-19.5 76,-19.5 76,-0.5 0,-0.5"/>
<text text-anchor="middle" x="38" y="-7.5" font-family="Helvetica,sans-Serif" font-size="10.00">cfmmfsw.cpp</text>
</a>
</g>
</g>
<!-- Node13&#45;&gt;Node14 -->
<g id="edge1" class="edge"><title>Node13&#45;&gt;Node14</title>
<path fill="none" stroke="midnightblue" d="M121.238,-51.8622C100.841,-41.8492 73.3341,-28.3458 55.6295,-19.6545"/>
<polygon fill="midnightblue" stroke="midnightblue" points="119.808,-55.059 130.327,-56.324 122.892,-48.7753 119.808,-55.059"/>
</g>
<!-- Node15 -->
<g id="node3" class="node"><title>Node15</title>
<g id="a_node3"><a xlink:href="cfmmfsw_module_8cpp.html" target="_top" xlink:title="cfmmfswModule.cpp">
<polygon fill="white" stroke="black" points="94.5,-0.5 94.5,-19.5 201.5,-19.5 201.5,-0.5 94.5,-0.5"/>
<text text-anchor="middle" x="148" y="-7.5" font-family="Helvetica,sans-Serif" font-size="10.00">cfmmfswModule.cpp</text>
</a>
</g>
</g>
<!-- Node13&#45;&gt;Node15 -->
<g id="edge2" class="edge"><title>Node13&#45;&gt;Node15</title>
<path fill="none" stroke="midnightblue" d="M148,-45.8045C148,-36.9102 148,-26.7798 148,-19.7511"/>
<polygon fill="midnightblue" stroke="midnightblue" points="144.5,-46.083 148,-56.083 151.5,-46.083 144.5,-46.083"/>
</g>
<!-- Node16 -->
<g id="node4" class="node"><title>Node16</title>
<g id="a_node4"><a xlink:href="_f_m_mand_f_s_w_8cpp.html" target="_top" xlink:title="FMMandFSW.cpp">
<polygon fill="white" stroke="black" points="220,-0.5 220,-19.5 316,-19.5 316,-0.5 220,-0.5"/>
<text text-anchor="middle" x="268" y="-7.5" font-family="Helvetica,sans-Serif" font-size="10.00">FMMandFSW.cpp</text>
</a>
</g>
</g>
<!-- Node13&#45;&gt;Node16 -->
<g id="edge3" class="edge"><title>Node13&#45;&gt;Node16</title>
<path fill="none" stroke="midnightblue" d="M176.373,-52.2321C198.82,-42.1312 229.535,-28.3091 249.075,-19.5164"/>
<polygon fill="midnightblue" stroke="midnightblue" points="174.697,-49.1481 167.014,-56.4435 177.57,-55.5316 174.697,-49.1481"/>
</g>
</g>
</svg>
