<?xml version="1.0" encoding="UTF-8" standalone="no"?>
<!DOCTYPE svg PUBLIC "-//W3C//DTD SVG 1.1//EN"
 "http://www.w3.org/Graphics/SVG/1.1/DTD/svg11.dtd">
<!-- Generated by graphviz version 2.38.0 (20140413.2041)
 -->
<!-- Title: FMMandFSW.cpp Pages: 1 -->
<svg width="614pt" height="196pt"
 viewBox="0.00 0.00 613.50 196.00" xmlns="http://www.w3.org/2000/svg" xmlns:xlink="http://www.w3.org/1999/xlink">
<g id="graph0" class="graph" transform="scale(1 1) rotate(0) translate(4 192)">
<title>FMMandFSW.cpp</title>
<polygon fill="white" stroke="none" points="-4,4 -4,-192 609.5,-192 609.5,4 -4,4"/>
<!-- Node0 -->
<g id="node1" class="node"><title>Node0</title>
<polygon fill="#bfbfbf" stroke="black" points="335,-168.5 335,-187.5 431,-187.5 431,-168.5 335,-168.5"/>
<text text-anchor="middle" x="383" y="-175.5" font-family="Helvetica,sans-Serif" font-size="10.00">FMMandFSW.cpp</text>
</g>
<!-- Node1 -->
<g id="node2" class="node"><title>Node1</title>
<g id="a_node2"><a xlink:href="_f_m_mand_f_s_w_8h.html" target="_top" xlink:title="FMMandFSW.h">
<polygon fill="white" stroke="black" points="225,-112.5 225,-131.5 311,-131.5 311,-112.5 225,-112.5"/>
<text text-anchor="middle" x="268" y="-119.5" font-family="Helvetica,sans-Serif" font-size="10.00">FMMandFSW.h</text>
</a>
</g>
</g>
<!-- Node0&#45;&gt;Node1 -->
<g id="edge1" class="edge"><title>Node0&#45;&gt;Node1</title>
<path fill="none" stroke="midnightblue" d="M364.778,-168.444C346.104,-159.675 316.844,-145.935 295.383,-135.858"/>
<polygon fill="midnightblue" stroke="midnightblue" points="296.676,-132.599 286.137,-131.516 293.701,-138.935 296.676,-132.599"/>
</g>
<!-- Node4 -->
<g id="node5" class="node"><title>Node4</title>
<polygon fill="white" stroke="#bfbfbf" points="0,-0.5 0,-19.5 44,-19.5 44,-0.5 0,-0.5"/>
<text text-anchor="middle" x="22" y="-7.5" font-family="Helvetica,sans-Serif" font-size="10.00">cmath</text>
</g>
<!-- Node0&#45;&gt;Node4 -->
<g id="edge25" class="edge"><title>Node0&#45;&gt;Node4</title>
<path fill="none" stroke="midnightblue" d="M339.445,-168.473C305.147,-161.001 256.528,-148.715 216,-132 169.624,-112.873 160.578,-102.526 118,-76 91.3063,-59.3697 61.4339,-38.825 42.2079,-25.3399"/>
<polygon fill="midnightblue" stroke="midnightblue" points="44.1201,-22.4057 33.9293,-19.5077 40.0886,-28.1283 44.1201,-22.4057"/>
</g>
<!-- Node5 -->
<g id="node6" class="node"><title>Node5</title>
<g id="a_node6"><a xlink:href="mesh_8h.html" target="_top" xlink:title="mesh.h">
<polygon fill="white" stroke="black" points="243.5,-56.5 243.5,-75.5 292.5,-75.5 292.5,-56.5 243.5,-56.5"/>
<text text-anchor="middle" x="268" y="-63.5" font-family="Helvetica,sans-Serif" font-size="10.00">mesh.h</text>
</a>
</g>
</g>
<!-- Node0&#45;&gt;Node5 -->
<g id="edge16" class="edge"><title>Node0&#45;&gt;Node5</title>
<path fill="none" stroke="midnightblue" d="M375.075,-168.353C363.353,-155.672 340.559,-131.43 320,-112 309.154,-101.749 296.502,-90.7802 286.394,-82.2382"/>
<polygon fill="midnightblue" stroke="midnightblue" points="288.509,-79.4441 278.596,-75.7029 284.012,-84.8089 288.509,-79.4441"/>
</g>
<!-- Node7 -->
<g id="node8" class="node"><title>Node7</title>
<polygon fill="white" stroke="#bfbfbf" points="356,-0.5 356,-19.5 412,-19.5 412,-0.5 356,-0.5"/>
<text text-anchor="middle" x="384" y="-7.5" font-family="Helvetica,sans-Serif" font-size="10.00">algorithm</text>
</g>
<!-- Node0&#45;&gt;Node7 -->
<g id="edge24" class="edge"><title>Node0&#45;&gt;Node7</title>
<path fill="none" stroke="midnightblue" d="M383.054,-168.075C383.211,-141.945 383.673,-65.2106 383.888,-29.577"/>
<polygon fill="midnightblue" stroke="midnightblue" points="387.388,-29.589 383.948,-19.5681 380.388,-29.5468 387.388,-29.589"/>
</g>
<!-- Node10 -->
<g id="node11" class="node"><title>Node10</title>
<polygon fill="white" stroke="#bfbfbf" points="484,-0.5 484,-19.5 538,-19.5 538,-0.5 484,-0.5"/>
<text text-anchor="middle" x="511" y="-7.5" font-family="Helvetica,sans-Serif" font-size="10.00">iostream</text>
</g>
<!-- Node0&#45;&gt;Node10 -->
<g id="edge23" class="edge"><title>Node0&#45;&gt;Node10</title>
<path fill="none" stroke="midnightblue" d="M396.22,-168.388C419.163,-152.757 466.351,-117.468 492,-76 500.794,-61.7829 505.68,-43.3068 508.287,-29.6886"/>
<polygon fill="midnightblue" stroke="midnightblue" points="511.778,-30.0325 509.977,-19.592 504.874,-28.8773 511.778,-30.0325"/>
</g>
<!-- Node13 -->
<g id="node14" class="node"><title>Node13</title>
<polygon fill="white" stroke="#bfbfbf" points="556.5,-0.5 556.5,-19.5 605.5,-19.5 605.5,-0.5 556.5,-0.5"/>
<text text-anchor="middle" x="581" y="-7.5" font-family="Helvetica,sans-Serif" font-size="10.00">cassert</text>
</g>
<!-- Node0&#45;&gt;Node13 -->
<g id="edge26" class="edge"><title>Node0&#45;&gt;Node13</title>
<path fill="none" stroke="midnightblue" d="M403.976,-168.459C422.153,-160.509 448.657,-147.563 469,-132 510.307,-100.4 549.395,-52.7066 568.608,-27.6802"/>
<polygon fill="midnightblue" stroke="midnightblue" points="571.512,-29.6436 574.755,-19.5573 565.93,-25.4197 571.512,-29.6436"/>
</g>
<!-- Node14 -->
<g id="node15" class="node"><title>Node14</title>
<g id="a_node15"><a xlink:href="stupidheap_8h.html" target="_top" xlink:title="stupidheap.h">
<polygon fill="white" stroke="black" points="411,-56.5 411,-75.5 483,-75.5 483,-56.5 411,-56.5"/>
<text text-anchor="middle" x="447" y="-63.5" font-family="Helvetica,sans-Serif" font-size="10.00">stupidheap.h</text>
</a>
</g>
</g>
<!-- Node0&#45;&gt;Node14 -->
<g id="edge17" class="edge"><title>Node0&#45;&gt;Node14</title>
<path fill="none" stroke="midnightblue" d="M388.022,-168.368C398.537,-150.296 423.043,-108.176 436.93,-84.3074"/>
<polygon fill="midnightblue" stroke="midnightblue" points="439.998,-85.9951 442.001,-75.5914 433.947,-82.4748 439.998,-85.9951"/>
</g>
<!-- Node2 -->
<g id="node3" class="node"><title>Node2</title>
<polygon fill="white" stroke="#bfbfbf" points="294,-0.5 294,-19.5 338,-19.5 338,-0.5 294,-0.5"/>
<text text-anchor="middle" x="316" y="-7.5" font-family="Helvetica,sans-Serif" font-size="10.00">vector</text>
</g>
<!-- Node1&#45;&gt;Node2 -->
<g id="edge2" class="edge"><title>Node1&#45;&gt;Node2</title>
<path fill="none" stroke="midnightblue" d="M276.001,-112.383C283.547,-103.795 294.622,-89.9151 301,-76 307.786,-61.1949 311.643,-43.0415 313.741,-29.6858"/>
<polygon fill="midnightblue" stroke="midnightblue" points="317.209,-30.1602 315.115,-19.7742 310.275,-29.1986 317.209,-30.1602"/>
</g>
<!-- Node3 -->
<g id="node4" class="node"><title>Node3</title>
<polygon fill="white" stroke="#bfbfbf" points="174.5,-56.5 174.5,-75.5 225.5,-75.5 225.5,-56.5 174.5,-56.5"/>
<text text-anchor="middle" x="200" y="-63.5" font-family="Helvetica,sans-Serif" font-size="10.00">valarray</text>
</g>
<!-- Node1&#45;&gt;Node3 -->
<g id="edge3" class="edge"><title>Node1&#45;&gt;Node3</title>
<path fill="none" stroke="midnightblue" d="M257.075,-112.324C246.825,-104.185 231.279,-91.8395 218.999,-82.0874"/>
<polygon fill="midnightblue" stroke="midnightblue" points="221.132,-79.3119 211.124,-75.8339 216.779,-84.7937 221.132,-79.3119"/>
</g>
<!-- Node1&#45;&gt;Node4 -->
<g id="edge4" class="edge"><title>Node1&#45;&gt;Node4</title>
<path fill="none" stroke="midnightblue" d="M248.216,-112.459C227.451,-103.471 193.875,-88.8692 165,-76 124.893,-58.1247 78.6672,-37.0213 49.886,-23.8221"/>
<polygon fill="midnightblue" stroke="midnightblue" points="51.0203,-20.4917 40.4718,-19.5013 48.1003,-26.8536 51.0203,-20.4917"/>
</g>
<!-- Node1&#45;&gt;Node5 -->
<g id="edge5" class="edge"><title>Node1&#45;&gt;Node5</title>
<path fill="none" stroke="midnightblue" d="M268,-112.083C268,-105.006 268,-94.8611 268,-85.9865"/>
<polygon fill="midnightblue" stroke="midnightblue" points="271.5,-85.751 268,-75.7511 264.5,-85.7511 271.5,-85.751"/>
</g>
<!-- Node5&#45;&gt;Node2 -->
<g id="edge7" class="edge"><title>Node5&#45;&gt;Node2</title>
<path fill="none" stroke="midnightblue" d="M275.926,-56.083C282.846,-48.2982 293.065,-36.8015 301.452,-27.3665"/>
<polygon fill="midnightblue" stroke="midnightblue" points="304.194,-29.5505 308.221,-19.7511 298.962,-24.8999 304.194,-29.5505"/>
</g>
<!-- Node5&#45;&gt;Node4 -->
<g id="edge15" class="edge"><title>Node5&#45;&gt;Node4</title>
<path fill="none" stroke="midnightblue" d="M243.162,-58.2338C240.084,-57.4518 236.974,-56.6887 234,-56 157.215,-38.2196 134.442,-39.3306 54.3485,-20.1611"/>
<polygon fill="midnightblue" stroke="midnightblue" points="54.8326,-16.6771 44.2893,-17.7202 53.1819,-23.4797 54.8326,-16.6771"/>
</g>
<!-- Node6 -->
<g id="node7" class="node"><title>Node6</title>
<polygon fill="white" stroke="#bfbfbf" points="246,-0.5 246,-19.5 276,-19.5 276,-0.5 246,-0.5"/>
<text text-anchor="middle" x="261" y="-7.5" font-family="Helvetica,sans-Serif" font-size="10.00">set</text>
</g>
<!-- Node5&#45;&gt;Node6 -->
<g id="edge6" class="edge"><title>Node5&#45;&gt;Node6</title>
<path fill="none" stroke="midnightblue" d="M266.844,-56.083C265.916,-48.9272 264.582,-38.6353 263.423,-29.6911"/>
<polygon fill="midnightblue" stroke="midnightblue" points="266.891,-29.2181 262.134,-19.7511 259.949,-30.1181 266.891,-29.2181"/>
</g>
<!-- Node5&#45;&gt;Node7 -->
<g id="edge8" class="edge"><title>Node5&#45;&gt;Node7</title>
<path fill="none" stroke="midnightblue" d="M286.381,-56.4435C305.216,-47.6751 334.731,-33.9355 356.379,-23.8579"/>
<polygon fill="midnightblue" stroke="midnightblue" points="358.117,-26.9098 365.705,-19.5164 355.162,-20.5637 358.117,-26.9098"/>
</g>
<!-- Node8 -->
<g id="node9" class="node"><title>Node8</title>
<polygon fill="white" stroke="#bfbfbf" points="430.5,-0.5 430.5,-19.5 465.5,-19.5 465.5,-0.5 430.5,-0.5"/>
<text text-anchor="middle" x="448" y="-7.5" font-family="Helvetica,sans-Serif" font-size="10.00">map</text>
</g>
<!-- Node5&#45;&gt;Node8 -->
<g id="edge9" class="edge"><title>Node5&#45;&gt;Node8</title>
<path fill="none" stroke="midnightblue" d="M292.726,-58.0215C321.209,-49.9192 369.632,-35.9513 420.458,-20.0868"/>
<polygon fill="midnightblue" stroke="midnightblue" points="421.816,-23.3291 430.311,-16.9969 419.721,-16.6498 421.816,-23.3291"/>
</g>
<!-- Node9 -->
<g id="node10" class="node"><title>Node9</title>
<polygon fill="white" stroke="#bfbfbf" points="62.5,-0.5 62.5,-19.5 91.5,-19.5 91.5,-0.5 62.5,-0.5"/>
<text text-anchor="middle" x="77" y="-7.5" font-family="Helvetica,sans-Serif" font-size="10.00">list</text>
</g>
<!-- Node5&#45;&gt;Node9 -->
<g id="edge10" class="edge"><title>Node5&#45;&gt;Node9</title>
<path fill="none" stroke="midnightblue" d="M243.193,-58.3822C204.146,-47.9577 130.436,-28.2434 101.363,-19.725"/>
<polygon fill="midnightblue" stroke="midnightblue" points="102.232,-16.3308 91.6452,-16.7452 100.18,-23.0232 102.232,-16.3308"/>
</g>
<!-- Node5&#45;&gt;Node10 -->
<g id="edge11" class="edge"><title>Node5&#45;&gt;Node10</title>
<path fill="none" stroke="midnightblue" d="M292.776,-59.7847C331.506,-51.5875 408.725,-35.0662 474,-20 474.101,-19.9768 474.201,-19.9535 474.302,-19.9302"/>
<polygon fill="midnightblue" stroke="midnightblue" points="475.008,-23.3597 483.94,-17.6601 473.403,-16.5462 475.008,-23.3597"/>
</g>
<!-- Node11 -->
<g id="node12" class="node"><title>Node11</title>
<polygon fill="white" stroke="#bfbfbf" points="110,-0.5 110,-19.5 160,-19.5 160,-0.5 110,-0.5"/>
<text text-anchor="middle" x="135" y="-7.5" font-family="Helvetica,sans-Serif" font-size="10.00">iomanip</text>
</g>
<!-- Node5&#45;&gt;Node11 -->
<g id="edge12" class="edge"><title>Node5&#45;&gt;Node11</title>
<path fill="none" stroke="midnightblue" d="M246.926,-56.4435C224.94,-47.5171 190.266,-33.4387 165.336,-23.3168"/>
<polygon fill="midnightblue" stroke="midnightblue" points="166.558,-20.0355 155.976,-19.5164 163.924,-26.5213 166.558,-20.0355"/>
</g>
<!-- Node12 -->
<g id="node13" class="node"><title>Node12</title>
<polygon fill="white" stroke="#bfbfbf" points="178,-0.5 178,-19.5 228,-19.5 228,-0.5 178,-0.5"/>
<text text-anchor="middle" x="203" y="-7.5" font-family="Helvetica,sans-Serif" font-size="10.00">fstream</text>
</g>
<!-- Node5&#45;&gt;Node12 -->
<g id="edge13" class="edge"><title>Node5&#45;&gt;Node12</title>
<path fill="none" stroke="midnightblue" d="M257.557,-56.324C247.854,-48.2631 233.185,-36.0765 221.5,-26.3695"/>
<polygon fill="midnightblue" stroke="midnightblue" points="223.562,-23.532 213.633,-19.8339 219.089,-28.9163 223.562,-23.532"/>
</g>
<!-- Node5&#45;&gt;Node13 -->
<g id="edge14" class="edge"><title>Node5&#45;&gt;Node13</title>
<path fill="none" stroke="midnightblue" d="M292.784,-61.8408C340.102,-55.6306 446.728,-40.7793 546.268,-19.9702"/>
<polygon fill="midnightblue" stroke="midnightblue" points="547.127,-23.366 556.186,-17.8716 545.678,-16.5176 547.127,-23.366"/>
</g>
<!-- Node14&#45;&gt;Node2 -->
<g id="edge18" class="edge"><title>Node14&#45;&gt;Node2</title>
<path fill="none" stroke="midnightblue" d="M426.243,-56.4435C404.684,-47.5566 370.737,-33.5632 346.206,-23.4514"/>
<polygon fill="midnightblue" stroke="midnightblue" points="347.239,-20.0917 336.66,-19.5164 344.572,-26.5634 347.239,-20.0917"/>
</g>
<!-- Node14&#45;&gt;Node7 -->
<g id="edge20" class="edge"><title>Node14&#45;&gt;Node7</title>
<path fill="none" stroke="midnightblue" d="M436.878,-56.324C427.474,-48.2631 413.256,-36.0765 401.931,-26.3695"/>
<polygon fill="midnightblue" stroke="midnightblue" points="404.177,-23.6844 394.306,-19.8339 399.621,-28.9993 404.177,-23.6844"/>
</g>
<!-- Node14&#45;&gt;Node8 -->
<g id="edge19" class="edge"><title>Node14&#45;&gt;Node8</title>
<path fill="none" stroke="midnightblue" d="M447.165,-56.083C447.296,-49.0059 447.484,-38.8611 447.648,-29.9865"/>
<polygon fill="midnightblue" stroke="midnightblue" points="451.152,-29.8142 447.838,-19.7511 444.153,-29.6845 451.152,-29.8142"/>
</g>
<!-- Node14&#45;&gt;Node10 -->
<g id="edge22" class="edge"><title>Node14&#45;&gt;Node10</title>
<path fill="none" stroke="midnightblue" d="M457.283,-56.324C466.836,-48.2631 481.28,-36.0765 492.784,-26.3695"/>
<polygon fill="midnightblue" stroke="midnightblue" points="495.144,-28.9577 500.53,-19.8339 490.63,-23.6076 495.144,-28.9577"/>
</g>
<!-- Node14&#45;&gt;Node13 -->
<g id="edge21" class="edge"><title>Node14&#45;&gt;Node13</title>
<path fill="none" stroke="midnightblue" d="M468.233,-56.4435C490.384,-47.5171 525.319,-33.4387 550.436,-23.3168"/>
<polygon fill="midnightblue" stroke="midnightblue" points="551.9,-26.5006 559.867,-19.5164 549.283,-20.0079 551.9,-26.5006"/>
</g>
</g>
</svg>
