<?xml version="1.0" encoding="UTF-8" standalone="no"?>
<!DOCTYPE svg PUBLIC "-//W3C//DTD SVG 1.1//EN"
 "http://www.w3.org/Graphics/SVG/1.1/DTD/svg11.dtd">
<!-- Generated by graphviz version 2.38.0 (20140413.2041)
 -->
<!-- Title: FMMandFSW.h Pages: 1 -->
<svg width="613pt" height="140pt"
 viewBox="0.00 0.00 613.00 140.00" xmlns="http://www.w3.org/2000/svg" xmlns:xlink="http://www.w3.org/1999/xlink">
<g id="graph0" class="graph" transform="scale(1 1) rotate(0) translate(4 136)">
<title>FMMandFSW.h</title>
<polygon fill="white" stroke="none" points="-4,4 -4,-136 609,-136 609,4 -4,4"/>
<!-- Node0 -->
<g id="node1" class="node"><title>Node0</title>
<polygon fill="#bfbfbf" stroke="black" points="156,-112.5 156,-131.5 242,-131.5 242,-112.5 156,-112.5"/>
<text text-anchor="middle" x="199" y="-119.5" font-family="Helvetica,sans-Serif" font-size="10.00">FMMandFSW.h</text>
</g>
<!-- Node1 -->
<g id="node2" class="node"><title>Node1</title>
<polygon fill="white" stroke="#bfbfbf" points="0,-0.5 0,-19.5 44,-19.5 44,-0.5 0,-0.5"/>
<text text-anchor="middle" x="22" y="-7.5" font-family="Helvetica,sans-Serif" font-size="10.00">vector</text>
</g>
<!-- Node0&#45;&gt;Node1 -->
<g id="edge1" class="edge"><title>Node0&#45;&gt;Node1</title>
<path fill="none" stroke="midnightblue" d="M185.111,-112.368C154.609,-93.4121 81.5373,-48.0006 44.4345,-24.9424"/>
<polygon fill="midnightblue" stroke="midnightblue" points="46.1653,-21.8972 35.8244,-19.5914 42.4704,-27.8426 46.1653,-21.8972"/>
</g>
<!-- Node2 -->
<g id="node3" class="node"><title>Node2</title>
<polygon fill="white" stroke="#bfbfbf" points="288.5,-56.5 288.5,-75.5 339.5,-75.5 339.5,-56.5 288.5,-56.5"/>
<text text-anchor="middle" x="314" y="-63.5" font-family="Helvetica,sans-Serif" font-size="10.00">valarray</text>
</g>
<!-- Node0&#45;&gt;Node2 -->
<g id="edge2" class="edge"><title>Node0&#45;&gt;Node2</title>
<path fill="none" stroke="midnightblue" d="M217.222,-112.444C235.896,-103.675 265.156,-89.9355 286.617,-79.8579"/>
<polygon fill="midnightblue" stroke="midnightblue" points="288.299,-82.935 295.863,-75.5164 285.324,-76.5988 288.299,-82.935"/>
</g>
<!-- Node3 -->
<g id="node4" class="node"><title>Node3</title>
<polygon fill="white" stroke="#bfbfbf" points="62,-0.5 62,-19.5 106,-19.5 106,-0.5 62,-0.5"/>
<text text-anchor="middle" x="84" y="-7.5" font-family="Helvetica,sans-Serif" font-size="10.00">cmath</text>
</g>
<!-- Node0&#45;&gt;Node3 -->
<g id="edge3" class="edge"><title>Node0&#45;&gt;Node3</title>
<path fill="none" stroke="midnightblue" d="M189.976,-112.368C170.662,-93.8941 125.079,-50.2926 100.459,-26.7436"/>
<polygon fill="midnightblue" stroke="midnightblue" points="102.628,-23.9744 92.9819,-19.5914 97.7891,-29.0329 102.628,-23.9744"/>
</g>
<!-- Node4 -->
<g id="node5" class="node"><title>Node4</title>
<g id="a_node5"><a xlink:href="mesh_8h.html" target="_top" xlink:title="mesh.h">
<polygon fill="white" stroke="black" points="221.5,-56.5 221.5,-75.5 270.5,-75.5 270.5,-56.5 221.5,-56.5"/>
<text text-anchor="middle" x="246" y="-63.5" font-family="Helvetica,sans-Serif" font-size="10.00">mesh.h</text>
</a>
</g>
</g>
<!-- Node0&#45;&gt;Node4 -->
<g id="edge4" class="edge"><title>Node0&#45;&gt;Node4</title>
<path fill="none" stroke="midnightblue" d="M206.761,-112.083C213.537,-104.298 223.543,-92.8015 231.755,-83.3665"/>
<polygon fill="midnightblue" stroke="midnightblue" points="234.458,-85.592 238.383,-75.7511 229.178,-80.9963 234.458,-85.592"/>
</g>
<!-- Node4&#45;&gt;Node1 -->
<g id="edge6" class="edge"><title>Node4&#45;&gt;Node1</title>
<path fill="none" stroke="midnightblue" d="M221.218,-59.6668C186.112,-52.016 119.69,-37.1895 53.9952,-20.1601"/>
<polygon fill="midnightblue" stroke="midnightblue" points="54.8714,-16.7716 44.3115,-17.6321 53.1032,-23.5446 54.8714,-16.7716"/>
</g>
<!-- Node4&#45;&gt;Node3 -->
<g id="edge14" class="edge"><title>Node4&#45;&gt;Node3</title>
<path fill="none" stroke="midnightblue" d="M221.396,-56.7986C193.244,-47.4147 147.05,-32.0168 116.092,-21.6974"/>
<polygon fill="midnightblue" stroke="midnightblue" points="116.819,-18.2504 106.225,-18.4085 114.605,-24.8912 116.819,-18.2504"/>
</g>
<!-- Node5 -->
<g id="node6" class="node"><title>Node5</title>
<polygon fill="white" stroke="#bfbfbf" points="260,-0.5 260,-19.5 290,-19.5 290,-0.5 260,-0.5"/>
<text text-anchor="middle" x="275" y="-7.5" font-family="Helvetica,sans-Serif" font-size="10.00">set</text>
</g>
<!-- Node4&#45;&gt;Node5 -->
<g id="edge5" class="edge"><title>Node4&#45;&gt;Node5</title>
<path fill="none" stroke="midnightblue" d="M250.789,-56.083C254.758,-48.6913 260.525,-37.9533 265.435,-28.8111"/>
<polygon fill="midnightblue" stroke="midnightblue" points="268.653,-30.217 270.3,-19.7511 262.486,-26.9051 268.653,-30.217"/>
</g>
<!-- Node6 -->
<g id="node7" class="node"><title>Node6</title>
<polygon fill="white" stroke="#bfbfbf" points="308,-0.5 308,-19.5 364,-19.5 364,-0.5 308,-0.5"/>
<text text-anchor="middle" x="336" y="-7.5" font-family="Helvetica,sans-Serif" font-size="10.00">algorithm</text>
</g>
<!-- Node4&#45;&gt;Node6 -->
<g id="edge7" class="edge"><title>Node4&#45;&gt;Node6</title>
<path fill="none" stroke="midnightblue" d="M260.46,-56.324C274.5,-47.9002 296.048,-34.9709 312.543,-25.0741"/>
<polygon fill="midnightblue" stroke="midnightblue" points="314.802,-27.8007 321.576,-19.6545 311.2,-21.7983 314.802,-27.8007"/>
</g>
<!-- Node7 -->
<g id="node8" class="node"><title>Node7</title>
<polygon fill="white" stroke="#bfbfbf" points="382.5,-0.5 382.5,-19.5 417.5,-19.5 417.5,-0.5 382.5,-0.5"/>
<text text-anchor="middle" x="400" y="-7.5" font-family="Helvetica,sans-Serif" font-size="10.00">map</text>
</g>
<!-- Node4&#45;&gt;Node7 -->
<g id="edge8" class="edge"><title>Node4&#45;&gt;Node7</title>
<path fill="none" stroke="midnightblue" d="M270.402,-56.4435C298.321,-46.6537 343.912,-30.6672 372.91,-20.4991"/>
<polygon fill="midnightblue" stroke="midnightblue" points="374.14,-23.7768 382.419,-17.1649 371.824,-17.1711 374.14,-23.7768"/>
</g>
<!-- Node8 -->
<g id="node9" class="node"><title>Node8</title>
<polygon fill="white" stroke="#bfbfbf" points="435.5,-0.5 435.5,-19.5 464.5,-19.5 464.5,-0.5 435.5,-0.5"/>
<text text-anchor="middle" x="450" y="-7.5" font-family="Helvetica,sans-Serif" font-size="10.00">list</text>
</g>
<!-- Node4&#45;&gt;Node8 -->
<g id="edge9" class="edge"><title>Node4&#45;&gt;Node8</title>
<path fill="none" stroke="midnightblue" d="M270.869,-58.3601C273.942,-57.5564 277.041,-56.7538 280,-56 342.126,-40.1716 361.11,-40.2537 425.213,-20.2912"/>
<polygon fill="midnightblue" stroke="midnightblue" points="426.528,-23.5463 435.009,-17.1961 424.419,-16.8716 426.528,-23.5463"/>
</g>
<!-- Node9 -->
<g id="node10" class="node"><title>Node9</title>
<polygon fill="white" stroke="#bfbfbf" points="483,-0.5 483,-19.5 537,-19.5 537,-0.5 483,-0.5"/>
<text text-anchor="middle" x="510" y="-7.5" font-family="Helvetica,sans-Serif" font-size="10.00">iostream</text>
</g>
<!-- Node4&#45;&gt;Node9 -->
<g id="edge10" class="edge"><title>Node4&#45;&gt;Node9</title>
<path fill="none" stroke="midnightblue" d="M270.829,-58.1966C273.909,-57.421 277.021,-56.6696 280,-56 362.467,-37.4612 386.584,-38.5352 472.935,-20.1165"/>
<polygon fill="midnightblue" stroke="midnightblue" points="473.879,-23.4933 482.915,-17.9608 472.402,-16.6511 473.879,-23.4933"/>
</g>
<!-- Node10 -->
<g id="node11" class="node"><title>Node10</title>
<polygon fill="white" stroke="#bfbfbf" points="555,-0.5 555,-19.5 605,-19.5 605,-0.5 555,-0.5"/>
<text text-anchor="middle" x="580" y="-7.5" font-family="Helvetica,sans-Serif" font-size="10.00">iomanip</text>
</g>
<!-- Node4&#45;&gt;Node10 -->
<g id="edge11" class="edge"><title>Node4&#45;&gt;Node10</title>
<path fill="none" stroke="midnightblue" d="M270.799,-58.0546C273.884,-57.3033 277.006,-56.5965 280,-56 393.802,-33.3284 427.186,-42.7537 544.715,-20.0295"/>
<polygon fill="midnightblue" stroke="midnightblue" points="545.696,-23.4035 554.83,-18.0353 544.342,-16.5357 545.696,-23.4035"/>
</g>
<!-- Node11 -->
<g id="node12" class="node"><title>Node11</title>
<polygon fill="white" stroke="#bfbfbf" points="124,-0.5 124,-19.5 174,-19.5 174,-0.5 124,-0.5"/>
<text text-anchor="middle" x="149" y="-7.5" font-family="Helvetica,sans-Serif" font-size="10.00">fstream</text>
</g>
<!-- Node4&#45;&gt;Node11 -->
<g id="edge12" class="edge"><title>Node4&#45;&gt;Node11</title>
<path fill="none" stroke="midnightblue" d="M230.415,-56.324C215.001,-47.7428 191.188,-34.486 173.29,-24.5224"/>
<polygon fill="midnightblue" stroke="midnightblue" points="174.986,-21.4606 164.546,-19.6545 171.581,-27.5767 174.986,-21.4606"/>
</g>
<!-- Node12 -->
<g id="node13" class="node"><title>Node12</title>
<polygon fill="white" stroke="#bfbfbf" points="192.5,-0.5 192.5,-19.5 241.5,-19.5 241.5,-0.5 192.5,-0.5"/>
<text text-anchor="middle" x="217" y="-7.5" font-family="Helvetica,sans-Serif" font-size="10.00">cassert</text>
</g>
<!-- Node4&#45;&gt;Node12 -->
<g id="edge13" class="edge"><title>Node4&#45;&gt;Node12</title>
<path fill="none" stroke="midnightblue" d="M241.211,-56.083C237.242,-48.6913 231.475,-37.9533 226.565,-28.8111"/>
<polygon fill="midnightblue" stroke="midnightblue" points="229.514,-26.9051 221.7,-19.7511 223.347,-30.217 229.514,-26.9051"/>
</g>
</g>
</svg>
