<?xml version="1.0" encoding="UTF-8" standalone="no"?>
<!DOCTYPE svg PUBLIC "-//W3C//DTD SVG 1.1//EN"
 "http://www.w3.org/Graphics/SVG/1.1/DTD/svg11.dtd">
<!-- Generated by graphviz version 2.38.0 (20140413.2041)
 -->
<!-- Title: FMMandFSW.cpp Pages: 1 -->
<svg width="613pt" height="196pt"
 viewBox="0.00 0.00 612.50 196.00" xmlns="http://www.w3.org/2000/svg" xmlns:xlink="http://www.w3.org/1999/xlink">
<g id="graph0" class="graph" transform="scale(1 1) rotate(0) translate(4 192)">
<title>FMMandFSW.cpp</title>
<polygon fill="white" stroke="none" points="-4,4 -4,-192 608.5,-192 608.5,4 -4,4"/>
<!-- Node1 -->
<g id="node1" class="node"><title>Node1</title>
<polygon fill="#bfbfbf" stroke="black" points="334,-168.5 334,-187.5 430,-187.5 430,-168.5 334,-168.5"/>
<text text-anchor="middle" x="382" y="-175.5" font-family="Helvetica,sans-Serif" font-size="10.00">FMMandFSW.cpp</text>
</g>
<!-- Node2 -->
<g id="node2" class="node"><title>Node2</title>
<g id="a_node2"><a xlink:href="_f_m_mand_f_s_w_8h.html" target="_top" xlink:title="FMMandFSW.h">
<polygon fill="white" stroke="black" points="224,-112.5 224,-131.5 310,-131.5 310,-112.5 224,-112.5"/>
<text text-anchor="middle" x="267" y="-119.5" font-family="Helvetica,sans-Serif" font-size="10.00">FMMandFSW.h</text>
</a>
</g>
</g>
<!-- Node1&#45;&gt;Node2 -->
<g id="edge1" class="edge"><title>Node1&#45;&gt;Node2</title>
<path fill="none" stroke="midnightblue" d="M363.778,-168.444C345.104,-159.675 315.844,-145.935 294.383,-135.858"/>
<polygon fill="midnightblue" stroke="midnightblue" points="295.676,-132.599 285.137,-131.516 292.701,-138.935 295.676,-132.599"/>
</g>
<!-- Node5 -->
<g id="node5" class="node"><title>Node5</title>
<polygon fill="white" stroke="#bfbfbf" points="0,-0.5 0,-19.5 44,-19.5 44,-0.5 0,-0.5"/>
<text text-anchor="middle" x="22" y="-7.5" font-family="Helvetica,sans-Serif" font-size="10.00">cmath</text>
</g>
<!-- Node1&#45;&gt;Node5 -->
<g id="edge25" class="edge"><title>Node1&#45;&gt;Node5</title>
<path fill="none" stroke="midnightblue" d="M338.445,-168.473C304.147,-161.001 255.528,-148.715 215,-132 168.624,-112.873 159.513,-102.63 117,-76 90.5369,-59.4238 60.9862,-38.8671 41.9758,-25.3645"/>
<polygon fill="midnightblue" stroke="midnightblue" points="43.964,-22.4835 33.7909,-19.5238 39.8979,-28.1815 43.964,-22.4835"/>
</g>
<!-- Node6 -->
<g id="node6" class="node"><title>Node6</title>
<g id="a_node6"><a xlink:href="mesh_8h.html" target="_top" xlink:title="mesh.h">
<polygon fill="white" stroke="black" points="242.5,-56.5 242.5,-75.5 291.5,-75.5 291.5,-56.5 242.5,-56.5"/>
<text text-anchor="middle" x="267" y="-63.5" font-family="Helvetica,sans-Serif" font-size="10.00">mesh.h</text>
</a>
</g>
</g>
<!-- Node1&#45;&gt;Node6 -->
<g id="edge16" class="edge"><title>Node1&#45;&gt;Node6</title>
<path fill="none" stroke="midnightblue" d="M374.075,-168.353C362.353,-155.672 339.559,-131.43 319,-112 308.154,-101.749 295.502,-90.7802 285.394,-82.2382"/>
<polygon fill="midnightblue" stroke="midnightblue" points="287.509,-79.4441 277.596,-75.7029 283.012,-84.8089 287.509,-79.4441"/>
</g>
<!-- Node8 -->
<g id="node8" class="node"><title>Node8</title>
<polygon fill="white" stroke="#bfbfbf" points="355,-0.5 355,-19.5 411,-19.5 411,-0.5 355,-0.5"/>
<text text-anchor="middle" x="383" y="-7.5" font-family="Helvetica,sans-Serif" font-size="10.00">algorithm</text>
</g>
<!-- Node1&#45;&gt;Node8 -->
<g id="edge24" class="edge"><title>Node1&#45;&gt;Node8</title>
<path fill="none" stroke="midnightblue" d="M382.054,-168.075C382.211,-141.945 382.673,-65.2106 382.888,-29.577"/>
<polygon fill="midnightblue" stroke="midnightblue" points="386.388,-29.589 382.948,-19.5681 379.388,-29.5468 386.388,-29.589"/>
</g>
<!-- Node11 -->
<g id="node11" class="node"><title>Node11</title>
<polygon fill="white" stroke="#bfbfbf" points="483,-0.5 483,-19.5 537,-19.5 537,-0.5 483,-0.5"/>
<text text-anchor="middle" x="510" y="-7.5" font-family="Helvetica,sans-Serif" font-size="10.00">iostream</text>
</g>
<!-- Node1&#45;&gt;Node11 -->
<g id="edge23" class="edge"><title>Node1&#45;&gt;Node11</title>
<path fill="none" stroke="midnightblue" d="M395.22,-168.388C418.163,-152.757 465.351,-117.468 491,-76 499.794,-61.7829 504.68,-43.3068 507.287,-29.6886"/>
<polygon fill="midnightblue" stroke="midnightblue" points="510.778,-30.0325 508.977,-19.592 503.874,-28.8773 510.778,-30.0325"/>
</g>
<!-- Node14 -->
<g id="node14" class="node"><title>Node14</title>
<polygon fill="white" stroke="#bfbfbf" points="555.5,-0.5 555.5,-19.5 604.5,-19.5 604.5,-0.5 555.5,-0.5"/>
<text text-anchor="middle" x="580" y="-7.5" font-family="Helvetica,sans-Serif" font-size="10.00">cassert</text>
</g>
<!-- Node1&#45;&gt;Node14 -->
<g id="edge26" class="edge"><title>Node1&#45;&gt;Node14</title>
<path fill="none" stroke="midnightblue" d="M402.976,-168.459C421.153,-160.509 447.657,-147.563 468,-132 509.307,-100.4 548.395,-52.7066 567.608,-27.6802"/>
<polygon fill="midnightblue" stroke="midnightblue" points="570.512,-29.6436 573.755,-19.5573 564.93,-25.4197 570.512,-29.6436"/>
</g>
<!-- Node15 -->
<g id="node15" class="node"><title>Node15</title>
<g id="a_node15"><a xlink:href="stupidheap_8h.html" target="_top" xlink:title="stupidheap.h">
<polygon fill="white" stroke="black" points="410,-56.5 410,-75.5 482,-75.5 482,-56.5 410,-56.5"/>
<text text-anchor="middle" x="446" y="-63.5" font-family="Helvetica,sans-Serif" font-size="10.00">stupidheap.h</text>
</a>
</g>
</g>
<!-- Node1&#45;&gt;Node15 -->
<g id="edge17" class="edge"><title>Node1&#45;&gt;Node15</title>
<path fill="none" stroke="midnightblue" d="M387.022,-168.368C397.537,-150.296 422.043,-108.176 435.93,-84.3074"/>
<polygon fill="midnightblue" stroke="midnightblue" points="438.998,-85.9951 441.001,-75.5914 432.947,-82.4748 438.998,-85.9951"/>
</g>
<!-- Node3 -->
<g id="node3" class="node"><title>Node3</title>
<polygon fill="white" stroke="#bfbfbf" points="293,-0.5 293,-19.5 337,-19.5 337,-0.5 293,-0.5"/>
<text text-anchor="middle" x="315" y="-7.5" font-family="Helvetica,sans-Serif" font-size="10.00">vector</text>
</g>
<!-- Node2&#45;&gt;Node3 -->
<g id="edge2" class="edge"><title>Node2&#45;&gt;Node3</title>
<path fill="none" stroke="midnightblue" d="M275.001,-112.383C282.547,-103.795 293.622,-89.9151 300,-76 306.786,-61.1949 310.643,-43.0415 312.741,-29.6858"/>
<polygon fill="midnightblue" stroke="midnightblue" points="316.209,-30.1602 314.115,-19.7742 309.275,-29.1986 316.209,-30.1602"/>
</g>
<!-- Node4 -->
<g id="node4" class="node"><title>Node4</title>
<polygon fill="white" stroke="#bfbfbf" points="173.5,-56.5 173.5,-75.5 224.5,-75.5 224.5,-56.5 173.5,-56.5"/>
<text text-anchor="middle" x="199" y="-63.5" font-family="Helvetica,sans-Serif" font-size="10.00">valarray</text>
</g>
<!-- Node2&#45;&gt;Node4 -->
<g id="edge3" class="edge"><title>Node2&#45;&gt;Node4</title>
<path fill="none" stroke="midnightblue" d="M256.075,-112.324C245.825,-104.185 230.279,-91.8395 217.999,-82.0874"/>
<polygon fill="midnightblue" stroke="midnightblue" points="220.132,-79.3119 210.124,-75.8339 215.779,-84.7937 220.132,-79.3119"/>
</g>
<!-- Node2&#45;&gt;Node5 -->
<g id="edge4" class="edge"><title>Node2&#45;&gt;Node5</title>
<path fill="none" stroke="midnightblue" d="M247.209,-112.475C226.439,-103.499 192.858,-88.9075 164,-76 124.149,-58.1754 78.2526,-37.059 49.6808,-23.8431"/>
<polygon fill="midnightblue" stroke="midnightblue" points="50.8805,-20.5416 40.3354,-19.5163 47.9395,-26.8938 50.8805,-20.5416"/>
</g>
<!-- Node2&#45;&gt;Node6 -->
<g id="edge5" class="edge"><title>Node2&#45;&gt;Node6</title>
<path fill="none" stroke="midnightblue" d="M267,-112.083C267,-105.006 267,-94.8611 267,-85.9865"/>
<polygon fill="midnightblue" stroke="midnightblue" points="270.5,-85.751 267,-75.7511 263.5,-85.7511 270.5,-85.751"/>
</g>
<!-- Node6&#45;&gt;Node3 -->
<g id="edge7" class="edge"><title>Node6&#45;&gt;Node3</title>
<path fill="none" stroke="midnightblue" d="M274.926,-56.083C281.846,-48.2982 292.065,-36.8015 300.452,-27.3665"/>
<polygon fill="midnightblue" stroke="midnightblue" points="303.194,-29.5505 307.221,-19.7511 297.962,-24.8999 303.194,-29.5505"/>
</g>
<!-- Node6&#45;&gt;Node5 -->
<g id="edge15" class="edge"><title>Node6&#45;&gt;Node5</title>
<path fill="none" stroke="midnightblue" d="M242.162,-58.2338C239.084,-57.4518 235.974,-56.6887 233,-56 156.215,-38.2196 133.362,-39.6579 54.1607,-20.3778"/>
<polygon fill="midnightblue" stroke="midnightblue" points="54.7628,-16.9214 44.2153,-17.9212 53.0841,-23.7171 54.7628,-16.9214"/>
</g>
<!-- Node7 -->
<g id="node7" class="node"><title>Node7</title>
<polygon fill="white" stroke="#bfbfbf" points="245,-0.5 245,-19.5 275,-19.5 275,-0.5 245,-0.5"/>
<text text-anchor="middle" x="260" y="-7.5" font-family="Helvetica,sans-Serif" font-size="10.00">set</text>
</g>
<!-- Node6&#45;&gt;Node7 -->
<g id="edge6" class="edge"><title>Node6&#45;&gt;Node7</title>
<path fill="none" stroke="midnightblue" d="M265.844,-56.083C264.916,-48.9272 263.582,-38.6353 262.423,-29.6911"/>
<polygon fill="midnightblue" stroke="midnightblue" points="265.891,-29.2181 261.134,-19.7511 258.949,-30.1181 265.891,-29.2181"/>
</g>
<!-- Node6&#45;&gt;Node8 -->
<g id="edge8" class="edge"><title>Node6&#45;&gt;Node8</title>
<path fill="none" stroke="midnightblue" d="M285.381,-56.4435C304.216,-47.6751 333.731,-33.9355 355.379,-23.8579"/>
<polygon fill="midnightblue" stroke="midnightblue" points="357.117,-26.9098 364.705,-19.5164 354.162,-20.5637 357.117,-26.9098"/>
</g>
<!-- Node9 -->
<g id="node9" class="node"><title>Node9</title>
<polygon fill="white" stroke="#bfbfbf" points="429.5,-0.5 429.5,-19.5 464.5,-19.5 464.5,-0.5 429.5,-0.5"/>
<text text-anchor="middle" x="447" y="-7.5" font-family="Helvetica,sans-Serif" font-size="10.00">map</text>
</g>
<!-- Node6&#45;&gt;Node9 -->
<g id="edge9" class="edge"><title>Node6&#45;&gt;Node9</title>
<path fill="none" stroke="midnightblue" d="M291.726,-58.0215C320.209,-49.9192 368.632,-35.9513 419.458,-20.0868"/>
<polygon fill="midnightblue" stroke="midnightblue" points="420.816,-23.3291 429.311,-16.9969 418.721,-16.6498 420.816,-23.3291"/>
</g>
<!-- Node10 -->
<g id="node10" class="node"><title>Node10</title>
<polygon fill="white" stroke="#bfbfbf" points="61.5,-0.5 61.5,-19.5 90.5,-19.5 90.5,-0.5 61.5,-0.5"/>
<text text-anchor="middle" x="76" y="-7.5" font-family="Helvetica,sans-Serif" font-size="10.00">list</text>
</g>
<!-- Node6&#45;&gt;Node10 -->
<g id="edge10" class="edge"><title>Node6&#45;&gt;Node10</title>
<path fill="none" stroke="midnightblue" d="M242.193,-58.3822C203.146,-47.9577 129.436,-28.2434 100.363,-19.725"/>
<polygon fill="midnightblue" stroke="midnightblue" points="101.232,-16.3308 90.6452,-16.7452 99.1797,-23.0232 101.232,-16.3308"/>
</g>
<!-- Node6&#45;&gt;Node11 -->
<g id="edge11" class="edge"><title>Node6&#45;&gt;Node11</title>
<path fill="none" stroke="midnightblue" d="M291.776,-59.7847C330.506,-51.5875 407.725,-35.0662 473,-20 473.101,-19.9768 473.201,-19.9535 473.302,-19.9302"/>
<polygon fill="midnightblue" stroke="midnightblue" points="474.008,-23.3597 482.94,-17.6601 472.403,-16.5462 474.008,-23.3597"/>
</g>
<!-- Node12 -->
<g id="node12" class="node"><title>Node12</title>
<polygon fill="white" stroke="#bfbfbf" points="109,-0.5 109,-19.5 159,-19.5 159,-0.5 109,-0.5"/>
<text text-anchor="middle" x="134" y="-7.5" font-family="Helvetica,sans-Serif" font-size="10.00">iomanip</text>
</g>
<!-- Node6&#45;&gt;Node12 -->
<g id="edge12" class="edge"><title>Node6&#45;&gt;Node12</title>
<path fill="none" stroke="midnightblue" d="M245.926,-56.4435C223.94,-47.5171 189.266,-33.4387 164.336,-23.3168"/>
<polygon fill="midnightblue" stroke="midnightblue" points="165.558,-20.0355 154.976,-19.5164 162.924,-26.5213 165.558,-20.0355"/>
</g>
<!-- Node13 -->
<g id="node13" class="node"><title>Node13</title>
<polygon fill="white" stroke="#bfbfbf" points="177,-0.5 177,-19.5 227,-19.5 227,-0.5 177,-0.5"/>
<text text-anchor="middle" x="202" y="-7.5" font-family="Helvetica,sans-Serif" font-size="10.00">fstream</text>
</g>
<!-- Node6&#45;&gt;Node13 -->
<g id="edge13" class="edge"><title>Node6&#45;&gt;Node13</title>
<path fill="none" stroke="midnightblue" d="M256.557,-56.324C246.854,-48.2631 232.185,-36.0765 220.5,-26.3695"/>
<polygon fill="midnightblue" stroke="midnightblue" points="222.562,-23.532 212.633,-19.8339 218.089,-28.9163 222.562,-23.532"/>
</g>
<!-- Node6&#45;&gt;Node14 -->
<g id="edge14" class="edge"><title>Node6&#45;&gt;Node14</title>
<path fill="none" stroke="midnightblue" d="M291.784,-61.8408C339.102,-55.6306 445.728,-40.7793 545.268,-19.9702"/>
<polygon fill="midnightblue" stroke="midnightblue" points="546.127,-23.366 555.186,-17.8716 544.678,-16.5176 546.127,-23.366"/>
</g>
<!-- Node15&#45;&gt;Node3 -->
<g id="edge18" class="edge"><title>Node15&#45;&gt;Node3</title>
<path fill="none" stroke="midnightblue" d="M425.243,-56.4435C403.684,-47.5566 369.737,-33.5632 345.206,-23.4514"/>
<polygon fill="midnightblue" stroke="midnightblue" points="346.239,-20.0917 335.66,-19.5164 343.572,-26.5634 346.239,-20.0917"/>
</g>
<!-- Node15&#45;&gt;Node8 -->
<g id="edge20" class="edge"><title>Node15&#45;&gt;Node8</title>
<path fill="none" stroke="midnightblue" d="M435.878,-56.324C426.474,-48.2631 412.256,-36.0765 400.931,-26.3695"/>
<polygon fill="midnightblue" stroke="midnightblue" points="403.177,-23.6844 393.306,-19.8339 398.621,-28.9993 403.177,-23.6844"/>
</g>
<!-- Node15&#45;&gt;Node9 -->
<g id="edge19" class="edge"><title>Node15&#45;&gt;Node9</title>
<path fill="none" stroke="midnightblue" d="M446.165,-56.083C446.296,-49.0059 446.484,-38.8611 446.648,-29.9865"/>
<polygon fill="midnightblue" stroke="midnightblue" points="450.152,-29.8142 446.838,-19.7511 443.153,-29.6845 450.152,-29.8142"/>
</g>
<!-- Node15&#45;&gt;Node11 -->
<g id="edge22" class="edge"><title>Node15&#45;&gt;Node11</title>
<path fill="none" stroke="midnightblue" d="M456.283,-56.324C465.836,-48.2631 480.28,-36.0765 491.784,-26.3695"/>
<polygon fill="midnightblue" stroke="midnightblue" points="494.144,-28.9577 499.53,-19.8339 489.63,-23.6076 494.144,-28.9577"/>
</g>
<!-- Node15&#45;&gt;Node14 -->
<g id="edge21" class="edge"><title>Node15&#45;&gt;Node14</title>
<path fill="none" stroke="midnightblue" d="M467.233,-56.4435C489.384,-47.5171 524.319,-33.4387 549.436,-23.3168"/>
<polygon fill="midnightblue" stroke="midnightblue" points="550.9,-26.5006 558.867,-19.5164 548.283,-20.0079 550.9,-26.5006"/>
</g>
</g>
</svg>
