<?xml version="1.0" encoding="UTF-8" standalone="no"?>
<!DOCTYPE svg PUBLIC "-//W3C//DTD SVG 1.1//EN"
 "http://www.w3.org/Graphics/SVG/1.1/DTD/svg11.dtd">
<!-- Generated by graphviz version 2.40.1 (20161225.0304)
 -->
<!-- Title: FMMandFSW.cpp Pages: 1 -->
<svg width="614pt" height="196pt"
 viewBox="0.00 0.00 613.50 196.00" xmlns="http://www.w3.org/2000/svg" xmlns:xlink="http://www.w3.org/1999/xlink">
<g id="graph0" class="graph" transform="scale(1 1) rotate(0) translate(4 192)">
<title>FMMandFSW.cpp</title>
<polygon fill="#ffffff" stroke="transparent" points="-4,4 -4,-192 609.5,-192 609.5,4 -4,4"/>
<!-- Node0 -->
<g id="node1" class="node">
<title>Node0</title>
<polygon fill="#bfbfbf" stroke="#000000" points="335,-168.5 335,-187.5 431,-187.5 431,-168.5 335,-168.5"/>
<text text-anchor="middle" x="383" y="-175.5" font-family="Helvetica,sans-Serif" font-size="10.00" fill="#000000">FMMandFSW.cpp</text>
</g>
<!-- Node1 -->
<g id="node2" class="node">
<title>Node1</title>
<g id="a_node2"><a xlink:href="_f_m_mand_f_s_w_8h.html" target="_top" xlink:title="FMMandFSW.h">
<polygon fill="#ffffff" stroke="#000000" points="223,-112.5 223,-131.5 309,-131.5 309,-112.5 223,-112.5"/>
<text text-anchor="middle" x="266" y="-119.5" font-family="Helvetica,sans-Serif" font-size="10.00" fill="#000000">FMMandFSW.h</text>
</a>
</g>
</g>
<!-- Node0&#45;&gt;Node1 -->
<g id="edge1" class="edge">
<title>Node0&#45;&gt;Node1</title>
<path fill="none" stroke="#191970" d="M362.887,-168.3733C344.1897,-159.4241 316.1256,-145.9917 295.0066,-135.8835"/>
<polygon fill="#191970" stroke="#191970" points="296.3817,-132.6614 285.8506,-131.5011 293.3595,-138.9755 296.3817,-132.6614"/>
</g>
<!-- Node4 -->
<g id="node5" class="node">
<title>Node4</title>
<polygon fill="#ffffff" stroke="#bfbfbf" points="0,-.5 0,-19.5 44,-19.5 44,-.5 0,-.5"/>
<text text-anchor="middle" x="22" y="-7.5" font-family="Helvetica,sans-Serif" font-size="10.00" fill="#000000">cmath</text>
</g>
<!-- Node0&#45;&gt;Node4 -->
<g id="edge25" class="edge">
<title>Node0&#45;&gt;Node4</title>
<path fill="none" stroke="#191970" d="M335.2896,-168.4719C300.827,-160.7656 253.5789,-148.4853 214,-132 168.047,-112.8598 159.0333,-102.6689 117,-76 91.0888,-59.5601 62.2642,-39.2321 43.2353,-25.5143"/>
<polygon fill="#191970" stroke="#191970" points="45.1338,-22.5677 34.982,-19.5359 41.0274,-28.2367 45.1338,-22.5677"/>
</g>
<!-- Node5 -->
<g id="node6" class="node">
<title>Node5</title>
<g id="a_node6"><a xlink:href="mesh_8h.html" target="_top" xlink:title="mesh.h">
<polygon fill="#ffffff" stroke="#000000" points="241.5,-56.5 241.5,-75.5 290.5,-75.5 290.5,-56.5 241.5,-56.5"/>
<text text-anchor="middle" x="266" y="-63.5" font-family="Helvetica,sans-Serif" font-size="10.00" fill="#000000">mesh.h</text>
</a>
</g>
</g>
<!-- Node0&#45;&gt;Node5 -->
<g id="edge16" class="edge">
<title>Node0&#45;&gt;Node5</title>
<path fill="none" stroke="#191970" d="M373.9427,-168.397C361.5619,-155.3652 338.5428,-131.4718 318,-112 307.3386,-101.8944 295.0428,-90.9851 285.0852,-82.3277"/>
<polygon fill="#191970" stroke="#191970" points="287.2133,-79.541 277.3579,-75.6522 282.6372,-84.8381 287.2133,-79.541"/>
</g>
<!-- Node7 -->
<g id="node8" class="node">
<title>Node7</title>
<polygon fill="#ffffff" stroke="#bfbfbf" points="356,-.5 356,-19.5 412,-19.5 412,-.5 356,-.5"/>
<text text-anchor="middle" x="384" y="-7.5" font-family="Helvetica,sans-Serif" font-size="10.00" fill="#000000">algorithm</text>
</g>
<!-- Node0&#45;&gt;Node7 -->
<g id="edge24" class="edge">
<title>Node0&#45;&gt;Node7</title>
<path fill="none" stroke="#191970" d="M383.0566,-168.4862C383.2147,-141.9293 383.6633,-66.5651 383.88,-30.1655"/>
<polygon fill="#191970" stroke="#191970" points="387.3818,-29.8486 383.9415,-19.8279 380.3819,-29.8068 387.3818,-29.8486"/>
</g>
<!-- Node10 -->
<g id="node11" class="node">
<title>Node10</title>
<polygon fill="#ffffff" stroke="#bfbfbf" points="484,-.5 484,-19.5 538,-19.5 538,-.5 484,-.5"/>
<text text-anchor="middle" x="511" y="-7.5" font-family="Helvetica,sans-Serif" font-size="10.00" fill="#000000">iostream</text>
</g>
<!-- Node0&#45;&gt;Node10 -->
<g id="edge23" class="edge">
<title>Node0&#45;&gt;Node10</title>
<path fill="none" stroke="#191970" d="M397.7244,-168.2502C421.1886,-151.9487 466.9623,-116.8897 492,-76 500.6588,-61.859 505.517,-43.6059 508.1486,-29.8809"/>
<polygon fill="#191970" stroke="#191970" points="511.6694,-30.0474 509.87,-19.6065 504.7656,-28.8907 511.6694,-30.0474"/>
</g>
<!-- Node13 -->
<g id="node14" class="node">
<title>Node13</title>
<polygon fill="#ffffff" stroke="#bfbfbf" points="556.5,-.5 556.5,-19.5 605.5,-19.5 605.5,-.5 556.5,-.5"/>
<text text-anchor="middle" x="581" y="-7.5" font-family="Helvetica,sans-Serif" font-size="10.00" fill="#000000">cassert</text>
</g>
<!-- Node0&#45;&gt;Node13 -->
<g id="edge26" class="edge">
<title>Node0&#45;&gt;Node13</title>
<path fill="none" stroke="#191970" d="M405.1441,-168.4749C423.0359,-160.2189 448.3797,-147.223 468,-132 509.0119,-100.1796 548.1565,-52.8756 567.826,-27.5344"/>
<polygon fill="#191970" stroke="#191970" points="570.6407,-29.6156 573.9423,-19.5483 565.0833,-25.3594 570.6407,-29.6156"/>
</g>
<!-- Node14 -->
<g id="node15" class="node">
<title>Node14</title>
<g id="a_node15"><a xlink:href="stupidheap_8h.html" target="_top" xlink:title="stupidheap.h">
<polygon fill="#ffffff" stroke="#000000" points="411,-56.5 411,-75.5 483,-75.5 483,-56.5 411,-56.5"/>
<text text-anchor="middle" x="447" y="-63.5" font-family="Helvetica,sans-Serif" font-size="10.00" fill="#000000">stupidheap.h</text>
</a>
</g>
</g>
<!-- Node0&#45;&gt;Node14 -->
<g id="edge17" class="edge">
<title>Node0&#45;&gt;Node14</title>
<path fill="none" stroke="#191970" d="M388.4566,-168.4509C399.0838,-149.8533 422.7189,-108.4919 436.4878,-84.3964"/>
<polygon fill="#191970" stroke="#191970" points="439.6346,-85.9438 441.5572,-75.5249 433.5569,-82.4708 439.6346,-85.9438"/>
</g>
<!-- Node2 -->
<g id="node3" class="node">
<title>Node2</title>
<polygon fill="#ffffff" stroke="#bfbfbf" points="294,-.5 294,-19.5 338,-19.5 338,-.5 294,-.5"/>
<text text-anchor="middle" x="316" y="-7.5" font-family="Helvetica,sans-Serif" font-size="10.00" fill="#000000">vector</text>
</g>
<!-- Node1&#45;&gt;Node2 -->
<g id="edge2" class="edge">
<title>Node1&#45;&gt;Node2</title>
<path fill="none" stroke="#191970" d="M274.4896,-112.442C281.9511,-103.5734 292.5913,-89.7124 299,-76 305.8886,-61.2608 310.2816,-43.3146 312.8725,-29.8585"/>
<polygon fill="#191970" stroke="#191970" points="316.3599,-30.2348 314.6403,-19.7804 309.4652,-29.0253 316.3599,-30.2348"/>
</g>
<!-- Node3 -->
<g id="node4" class="node">
<title>Node3</title>
<polygon fill="#ffffff" stroke="#bfbfbf" points="172.5,-56.5 172.5,-75.5 223.5,-75.5 223.5,-56.5 172.5,-56.5"/>
<text text-anchor="middle" x="198" y="-63.5" font-family="Helvetica,sans-Serif" font-size="10.00" fill="#000000">valarray</text>
</g>
<!-- Node1&#45;&gt;Node3 -->
<g id="edge3" class="edge">
<title>Node1&#45;&gt;Node3</title>
<path fill="none" stroke="#191970" d="M254.1553,-112.2455C244.112,-103.9746 229.5005,-91.9416 217.6996,-82.2232"/>
<polygon fill="#191970" stroke="#191970" points="219.6533,-79.298 209.709,-75.6427 215.2033,-84.7015 219.6533,-79.298"/>
</g>
<!-- Node1&#45;&gt;Node4 -->
<g id="edge4" class="edge">
<title>Node1&#45;&gt;Node4</title>
<path fill="none" stroke="#191970" d="M244.2478,-112.4196C223.3667,-103.1913 190.9622,-88.7871 163,-76 124.3019,-58.3034 79.8737,-37.4112 51.3994,-23.947"/>
<polygon fill="#191970" stroke="#191970" points="52.5646,-20.6263 42.0286,-19.5118 49.57,-26.9534 52.5646,-20.6263"/>
</g>
<!-- Node1&#45;&gt;Node5 -->
<g id="edge5" class="edge">
<title>Node1&#45;&gt;Node5</title>
<path fill="none" stroke="#191970" d="M266,-112.2455C266,-104.9382 266,-94.6944 266,-85.7046"/>
<polygon fill="#191970" stroke="#191970" points="269.5001,-85.6426 266,-75.6427 262.5001,-85.6427 269.5001,-85.6426"/>
</g>
<!-- Node5&#45;&gt;Node2 -->
<g id="edge7" class="edge">
<title>Node5&#45;&gt;Node2</title>
<path fill="none" stroke="#191970" d="M274.7093,-56.2455C281.8073,-48.2958 292.0084,-36.8706 300.495,-27.3656"/>
<polygon fill="#191970" stroke="#191970" points="303.3411,-29.4331 307.3905,-19.6427 298.1195,-24.771 303.3411,-29.4331"/>
</g>
<!-- Node5&#45;&gt;Node4 -->
<g id="edge15" class="edge">
<title>Node5&#45;&gt;Node4</title>
<path fill="none" stroke="#191970" d="M241.1859,-58.4291C238.1035,-57.5692 234.9866,-56.738 232,-56 156.2984,-37.2931 133.3018,-40.2161 54.1947,-20.0874"/>
<polygon fill="#191970" stroke="#191970" points="54.8201,-16.6339 44.262,-17.5154 53.0653,-23.4104 54.8201,-16.6339"/>
</g>
<!-- Node6 -->
<g id="node7" class="node">
<title>Node6</title>
<polygon fill="#ffffff" stroke="#bfbfbf" points="246,-.5 246,-19.5 276,-19.5 276,-.5 246,-.5"/>
<text text-anchor="middle" x="261" y="-7.5" font-family="Helvetica,sans-Serif" font-size="10.00" fill="#000000">set</text>
</g>
<!-- Node5&#45;&gt;Node6 -->
<g id="edge6" class="edge">
<title>Node5&#45;&gt;Node6</title>
<path fill="none" stroke="#191970" d="M265.1291,-56.2455C264.4766,-48.9382 263.562,-38.6944 262.7593,-29.7046"/>
<polygon fill="#191970" stroke="#191970" points="266.2365,-29.2918 261.861,-19.6427 259.2642,-29.9143 266.2365,-29.2918"/>
</g>
<!-- Node5&#45;&gt;Node7 -->
<g id="edge8" class="edge">
<title>Node5&#45;&gt;Node7</title>
<path fill="none" stroke="#191970" d="M286.2849,-56.3733C305.1421,-47.4241 333.446,-33.9917 354.7455,-23.8835"/>
<polygon fill="#191970" stroke="#191970" points="356.4461,-26.9506 363.9798,-19.5011 353.4449,-20.6266 356.4461,-26.9506"/>
</g>
<!-- Node8 -->
<g id="node9" class="node">
<title>Node8</title>
<polygon fill="#ffffff" stroke="#bfbfbf" points="430.5,-.5 430.5,-19.5 465.5,-19.5 465.5,-.5 430.5,-.5"/>
<text text-anchor="middle" x="448" y="-7.5" font-family="Helvetica,sans-Serif" font-size="10.00" fill="#000000">map</text>
</g>
<!-- Node5&#45;&gt;Node8 -->
<g id="edge9" class="edge">
<title>Node5&#45;&gt;Node8</title>
<path fill="none" stroke="#191970" d="M290.5861,-59.2467C319.4875,-51.1911 369.0755,-37.0058 420.6849,-19.9486"/>
<polygon fill="#191970" stroke="#191970" points="421.9599,-23.213 430.3405,-16.7311 419.7469,-16.5721 421.9599,-23.213"/>
</g>
<!-- Node9 -->
<g id="node10" class="node">
<title>Node9</title>
<polygon fill="#ffffff" stroke="#bfbfbf" points="62.5,-.5 62.5,-19.5 91.5,-19.5 91.5,-.5 62.5,-.5"/>
<text text-anchor="middle" x="77" y="-7.5" font-family="Helvetica,sans-Serif" font-size="10.00" fill="#000000">list</text>
</g>
<!-- Node5&#45;&gt;Node9 -->
<g id="edge10" class="edge">
<title>Node5&#45;&gt;Node9</title>
<path fill="none" stroke="#191970" d="M241.1325,-58.6304C238.0592,-57.736 234.959,-56.8417 232,-56 173.923,-39.4806 158.0935,-39.651 101,-20 100.904,-19.9669 100.8078,-19.9337 100.7114,-19.9003"/>
<polygon fill="#191970" stroke="#191970" points="102.2008,-16.7223 91.6099,-16.4326 99.7085,-23.2637 102.2008,-16.7223"/>
</g>
<!-- Node5&#45;&gt;Node10 -->
<g id="edge11" class="edge">
<title>Node5&#45;&gt;Node10</title>
<path fill="none" stroke="#191970" d="M290.5544,-61.0466C328.0312,-53.3896 401.9487,-37.9076 474.197,-20.1048"/>
<polygon fill="#191970" stroke="#191970" points="475.0522,-23.4989 483.9148,-17.6934 473.3662,-16.7049 475.0522,-23.4989"/>
</g>
<!-- Node11 -->
<g id="node12" class="node">
<title>Node11</title>
<polygon fill="#ffffff" stroke="#bfbfbf" points="110,-.5 110,-19.5 160,-19.5 160,-.5 110,-.5"/>
<text text-anchor="middle" x="135" y="-7.5" font-family="Helvetica,sans-Serif" font-size="10.00" fill="#000000">iomanip</text>
</g>
<!-- Node5&#45;&gt;Node11 -->
<g id="edge12" class="edge">
<title>Node5&#45;&gt;Node11</title>
<path fill="none" stroke="#191970" d="M243.4803,-56.3733C222.2628,-47.3032 190.2724,-33.6279 166.5231,-23.4755"/>
<polygon fill="#191970" stroke="#191970" points="167.7967,-20.2136 157.2258,-19.5011 165.0452,-26.6502 167.7967,-20.2136"/>
</g>
<!-- Node12 -->
<g id="node13" class="node">
<title>Node12</title>
<polygon fill="#ffffff" stroke="#bfbfbf" points="178,-.5 178,-19.5 228,-19.5 228,-.5 178,-.5"/>
<text text-anchor="middle" x="203" y="-7.5" font-family="Helvetica,sans-Serif" font-size="10.00" fill="#000000">fstream</text>
</g>
<!-- Node5&#45;&gt;Node12 -->
<g id="edge13" class="edge">
<title>Node5&#45;&gt;Node12</title>
<path fill="none" stroke="#191970" d="M255.0262,-56.2455C245.8118,-48.0549 232.4468,-36.1749 221.5703,-26.5069"/>
<polygon fill="#191970" stroke="#191970" points="223.6474,-23.6704 213.848,-19.6427 218.9968,-28.9023 223.6474,-23.6704"/>
</g>
<!-- Node5&#45;&gt;Node13 -->
<g id="edge14" class="edge">
<title>Node5&#45;&gt;Node13</title>
<path fill="none" stroke="#191970" d="M290.6292,-63.0116C338.1704,-57.0215 446.0075,-42.3586 546.227,-19.9414"/>
<polygon fill="#191970" stroke="#191970" points="547.2332,-23.3022 556.2109,-17.6762 545.6844,-16.4757 547.2332,-23.3022"/>
</g>
<!-- Node14&#45;&gt;Node2 -->
<g id="edge18" class="edge">
<title>Node14&#45;&gt;Node2</title>
<path fill="none" stroke="#191970" d="M424.4803,-56.3733C403.2628,-47.3032 371.2724,-33.6279 347.5231,-23.4755"/>
<polygon fill="#191970" stroke="#191970" points="348.7967,-20.2136 338.2258,-19.5011 346.0452,-26.6502 348.7967,-20.2136"/>
</g>
<!-- Node14&#45;&gt;Node7 -->
<g id="edge20" class="edge">
<title>Node14&#45;&gt;Node7</title>
<path fill="none" stroke="#191970" d="M436.0262,-56.2455C426.8118,-48.0549 413.4468,-36.1749 402.5703,-26.5069"/>
<polygon fill="#191970" stroke="#191970" points="404.6474,-23.6704 394.848,-19.6427 399.9968,-28.9023 404.6474,-23.6704"/>
</g>
<!-- Node14&#45;&gt;Node8 -->
<g id="edge19" class="edge">
<title>Node14&#45;&gt;Node8</title>
<path fill="none" stroke="#191970" d="M447.1742,-56.2455C447.3047,-48.9382 447.4876,-38.6944 447.6481,-29.7046"/>
<polygon fill="#191970" stroke="#191970" points="451.1486,-29.7036 447.8278,-19.6427 444.1497,-29.5786 451.1486,-29.7036"/>
</g>
<!-- Node14&#45;&gt;Node10 -->
<g id="edge22" class="edge">
<title>Node14&#45;&gt;Node10</title>
<path fill="none" stroke="#191970" d="M458.1479,-56.2455C467.5087,-48.0549 481.0858,-36.1749 492.1349,-26.5069"/>
<polygon fill="#191970" stroke="#191970" points="494.7588,-28.8618 499.9798,-19.6427 490.1492,-23.5937 494.7588,-28.8618"/>
</g>
<!-- Node14&#45;&gt;Node13 -->
<g id="edge21" class="edge">
<title>Node14&#45;&gt;Node13</title>
<path fill="none" stroke="#191970" d="M470.0354,-56.3733C491.7388,-47.3032 524.4618,-33.6279 548.755,-23.4755"/>
<polygon fill="#191970" stroke="#191970" points="550.3881,-26.5865 558.2652,-19.5011 547.6889,-20.1278 550.3881,-26.5865"/>
</g>
</g>
</svg>
