<?xml version="1.0" encoding="UTF-8" standalone="no"?>
<!DOCTYPE svg PUBLIC "-//W3C//DTD SVG 1.1//EN"
 "http://www.w3.org/Graphics/SVG/1.1/DTD/svg11.dtd">
<!-- Generated by graphviz version 2.40.1 (20161225.0304)
 -->
<!-- Title: FMMandFSW.h Pages: 1 -->
<svg width="324pt" height="84pt"
 viewBox="0.00 0.00 324.00 84.00" xmlns="http://www.w3.org/2000/svg" xmlns:xlink="http://www.w3.org/1999/xlink">
<g id="graph0" class="graph" transform="scale(1 1) rotate(0) translate(4 80)">
<title>FMMandFSW.h</title>
<polygon fill="#ffffff" stroke="transparent" points="-4,4 -4,-80 320,-80 320,4 -4,4"/>
<!-- Node13 -->
<g id="node1" class="node">
<title>Node13</title>
<polygon fill="#bfbfbf" stroke="#000000" points="105,-56.5 105,-75.5 191,-75.5 191,-56.5 105,-56.5"/>
<text text-anchor="middle" x="148" y="-63.5" font-family="Helvetica,sans-Serif" font-size="10.00" fill="#000000">FMMandFSW.h</text>
</g>
<!-- Node14 -->
<g id="node2" class="node">
<title>Node14</title>
<g id="a_node2"><a xlink:href="cfmmfsw_8cpp.html" target="_top" xlink:title="cfmmfsw.cpp">
<polygon fill="#ffffff" stroke="#000000" points="0,-.5 0,-19.5 76,-19.5 76,-.5 0,-.5"/>
<text text-anchor="middle" x="38" y="-7.5" font-family="Helvetica,sans-Serif" font-size="10.00" fill="#000000">cfmmfsw.cpp</text>
</a>
</g>
</g>
<!-- Node13&#45;&gt;Node14 -->
<g id="edge1" class="edge">
<title>Node13&#45;&gt;Node14</title>
<path fill="none" stroke="#191970" d="M119.7086,-51.5971C99.9889,-41.558 74.22,-28.4393 56.941,-19.6427"/>
<polygon fill="#191970" stroke="#191970" points="118.3399,-54.8277 128.8395,-56.2455 121.5157,-48.5896 118.3399,-54.8277"/>
</g>
<!-- Node15 -->
<g id="node3" class="node">
<title>Node15</title>
<g id="a_node3"><a xlink:href="cfmmfsw_module_8cpp.html" target="_top" xlink:title="cfmmfswModule.cpp">
<polygon fill="#ffffff" stroke="#000000" points="94.5,-.5 94.5,-19.5 201.5,-19.5 201.5,-.5 94.5,-.5"/>
<text text-anchor="middle" x="148" y="-7.5" font-family="Helvetica,sans-Serif" font-size="10.00" fill="#000000">cfmmfswModule.cpp</text>
</a>
</g>
</g>
<!-- Node13&#45;&gt;Node15 -->
<g id="edge2" class="edge">
<title>Node13&#45;&gt;Node15</title>
<path fill="none" stroke="#191970" d="M148,-46.1575C148,-37.155 148,-26.9199 148,-19.6427"/>
<polygon fill="#191970" stroke="#191970" points="144.5001,-46.2455 148,-56.2455 151.5001,-46.2456 144.5001,-46.2455"/>
</g>
<!-- Node16 -->
<g id="node4" class="node">
<title>Node16</title>
<g id="a_node4"><a xlink:href="_f_m_mand_f_s_w_8cpp.html" target="_top" xlink:title="FMMandFSW.cpp">
<polygon fill="#ffffff" stroke="#000000" points="220,-.5 220,-19.5 316,-19.5 316,-.5 220,-.5"/>
<text text-anchor="middle" x="268" y="-7.5" font-family="Helvetica,sans-Serif" font-size="10.00" fill="#000000">FMMandFSW.cpp</text>
</a>
</g>
</g>
<!-- Node13&#45;&gt;Node16 -->
<g id="edge3" class="edge">
<title>Node13&#45;&gt;Node16</title>
<path fill="none" stroke="#191970" d="M177.7624,-52.1109C199.5232,-41.9559 228.4682,-28.4482 247.6405,-19.5011"/>
<polygon fill="#191970" stroke="#191970" points="176.2105,-48.9727 168.6287,-56.3733 179.1707,-55.316 176.2105,-48.9727"/>
</g>
</g>
</svg>
