<?xml version="1.0" encoding="UTF-8" standalone="no"?>
<!DOCTYPE svg PUBLIC "-//W3C//DTD SVG 1.1//EN"
 "http://www.w3.org/Graphics/SVG/1.1/DTD/svg11.dtd">
<!-- Generated by graphviz version 2.42.3 (0)
 -->
<!-- Title: Fourier.cpp Pages: 1 -->
<svg width="654pt" height="84pt"
 viewBox="0.00 0.00 653.50 84.00" xmlns="http://www.w3.org/2000/svg" xmlns:xlink="http://www.w3.org/1999/xlink">
<g id="graph0" class="graph" transform="scale(1 1) rotate(0) translate(4 80)">
<title>Fourier.cpp</title>
<polygon fill="white" stroke="transparent" points="-4,4 -4,-80 649.5,-80 649.5,4 -4,4"/>
<!-- Node1 -->
<g id="node1" class="node">
<title>Node1</title>
<g id="a_node1"><a xlink:title=" ">
<polygon fill="#bfbfbf" stroke="black" points="266.5,-56.5 266.5,-75.5 336.5,-75.5 336.5,-56.5 266.5,-56.5"/>
<text text-anchor="middle" x="301.5" y="-63.5" font-family="Helvetica,sans-Serif" font-size="10.00">Fourier.cpp</text>
</a>
</g>
</g>
<!-- Node2 -->
<g id="node2" class="node">
<title>Node2</title>
<g id="a_node2"><a xlink:title=" ">
<polygon fill="white" stroke="#bfbfbf" points="0,-0.5 0,-19.5 51,-19.5 51,-0.5 0,-0.5"/>
<text text-anchor="middle" x="25.5" y="-7.5" font-family="Helvetica,sans-Serif" font-size="10.00">math.h</text>
</a>
</g>
</g>
<!-- Node1&#45;&gt;Node2 -->
<g id="edge1" class="edge">
<title>Node1&#45;&gt;Node2</title>
<path fill="none" stroke="midnightblue" d="M266.23,-59.18C221.07,-51.56 140.2,-37.35 61.19,-20.02"/>
<polygon fill="midnightblue" stroke="midnightblue" points="61.59,-16.53 51.07,-17.79 60.07,-23.36 61.59,-16.53"/>
</g>
<!-- Node3 -->
<g id="node3" class="node">
<title>Node3</title>
<g id="a_node3"><a xlink:title=" ">
<polygon fill="white" stroke="#bfbfbf" points="69.5,-0.5 69.5,-19.5 119.5,-19.5 119.5,-0.5 69.5,-0.5"/>
<text text-anchor="middle" x="94.5" y="-7.5" font-family="Helvetica,sans-Serif" font-size="10.00">stdio.h</text>
</a>
</g>
</g>
<!-- Node1&#45;&gt;Node3 -->
<g id="edge2" class="edge">
<title>Node1&#45;&gt;Node3</title>
<path fill="none" stroke="midnightblue" d="M268.65,-56.5C235.81,-47.99 183.62,-34.45 129.51,-20.26"/>
<polygon fill="midnightblue" stroke="midnightblue" points="130.31,-16.85 119.75,-17.7 128.53,-23.62 130.31,-16.85"/>
</g>
<!-- Node4 -->
<g id="node4" class="node">
<title>Node4</title>
<g id="a_node4"><a xlink:title=" ">
<polygon fill="white" stroke="#bfbfbf" points="137.5,-0.5 137.5,-19.5 209.5,-19.5 209.5,-0.5 137.5,-0.5"/>
<text text-anchor="middle" x="173.5" y="-7.5" font-family="Helvetica,sans-Serif" font-size="10.00">sys/types.h</text>
</a>
</g>
</g>
<!-- Node1&#45;&gt;Node4 -->
<g id="edge3" class="edge">
<title>Node1&#45;&gt;Node4</title>
<path fill="none" stroke="midnightblue" d="M281.22,-56.44C260.15,-47.56 226.98,-33.56 203.01,-23.45"/>
<polygon fill="midnightblue" stroke="midnightblue" points="204.26,-20.18 193.69,-19.52 201.54,-26.63 204.26,-20.18"/>
</g>
<!-- Node5 -->
<g id="node5" class="node">
<title>Node5</title>
<g id="a_node5"><a xlink:title=" ">
<polygon fill="white" stroke="#bfbfbf" points="228,-0.5 228,-19.5 281,-19.5 281,-0.5 228,-0.5"/>
<text text-anchor="middle" x="254.5" y="-7.5" font-family="Helvetica,sans-Serif" font-size="10.00">string.h</text>
</a>
</g>
</g>
<!-- Node1&#45;&gt;Node5 -->
<g id="edge4" class="edge">
<title>Node1&#45;&gt;Node5</title>
<path fill="none" stroke="midnightblue" d="M293.74,-56.08C286.96,-48.3 276.96,-36.8 268.74,-27.37"/>
<polygon fill="midnightblue" stroke="midnightblue" points="271.32,-25 262.12,-19.75 266.04,-29.59 271.32,-25"/>
</g>
<!-- Node6 -->
<g id="node6" class="node">
<title>Node6</title>
<g id="a_node6"><a xlink:title=" ">
<polygon fill="white" stroke="#bfbfbf" points="299.5,-0.5 299.5,-19.5 397.5,-19.5 397.5,-0.5 299.5,-0.5"/>
<text text-anchor="middle" x="348.5" y="-7.5" font-family="Helvetica,sans-Serif" font-size="10.00">ncurses/curses.h</text>
</a>
</g>
</g>
<!-- Node1&#45;&gt;Node6 -->
<g id="edge5" class="edge">
<title>Node1&#45;&gt;Node6</title>
<path fill="none" stroke="midnightblue" d="M309.26,-56.08C316.04,-48.3 326.04,-36.8 334.26,-27.37"/>
<polygon fill="midnightblue" stroke="midnightblue" points="336.96,-29.59 340.88,-19.75 331.68,-25 336.96,-29.59"/>
</g>
<!-- Node7 -->
<g id="node7" class="node">
<title>Node7</title>
<g id="a_node7"><a xlink:title=" ">
<polygon fill="white" stroke="#bfbfbf" points="416,-0.5 416,-19.5 469,-19.5 469,-0.5 416,-0.5"/>
<text text-anchor="middle" x="442.5" y="-7.5" font-family="Helvetica,sans-Serif" font-size="10.00">stdlib.h</text>
</a>
</g>
</g>
<!-- Node1&#45;&gt;Node7 -->
<g id="edge6" class="edge">
<title>Node1&#45;&gt;Node7</title>
<path fill="none" stroke="midnightblue" d="M323.84,-56.44C347.25,-47.48 384.24,-33.31 410.69,-23.18"/>
<polygon fill="midnightblue" stroke="midnightblue" points="412.18,-26.36 420.26,-19.52 409.67,-19.82 412.18,-26.36"/>
</g>
<!-- Node8 -->
<g id="node8" class="node">
<title>Node8</title>
<g id="a_node8"><a xlink:href="_allocation_8h.html" target="_top" xlink:title=" ">
<polygon fill="white" stroke="black" points="487.5,-0.5 487.5,-19.5 561.5,-19.5 561.5,-0.5 487.5,-0.5"/>
<text text-anchor="middle" x="524.5" y="-7.5" font-family="Helvetica,sans-Serif" font-size="10.00">Allocation.h</text>
</a>
</g>
</g>
<!-- Node1&#45;&gt;Node8 -->
<g id="edge7" class="edge">
<title>Node1&#45;&gt;Node8</title>
<path fill="none" stroke="midnightblue" d="M336.84,-56.44C375.41,-47.1 437.28,-32.12 479.35,-21.93"/>
<polygon fill="midnightblue" stroke="midnightblue" points="480.43,-25.27 489.33,-19.52 478.79,-18.47 480.43,-25.27"/>
</g>
<!-- Node9 -->
<g id="node9" class="node">
<title>Node9</title>
<g id="a_node9"><a xlink:href="_headers_8h.html" target="_top" xlink:title=" ">
<polygon fill="white" stroke="black" points="579.5,-0.5 579.5,-19.5 645.5,-19.5 645.5,-0.5 579.5,-0.5"/>
<text text-anchor="middle" x="612.5" y="-7.5" font-family="Helvetica,sans-Serif" font-size="10.00">Headers.h</text>
</a>
</g>
</g>
<!-- Node1&#45;&gt;Node9 -->
<g id="edge8" class="edge">
<title>Node1&#45;&gt;Node9</title>
<path fill="none" stroke="midnightblue" d="M336.84,-59.61C386.49,-51.93 479.94,-37.05 569.06,-20.21"/>
<polygon fill="midnightblue" stroke="midnightblue" points="569.89,-23.62 579.06,-18.31 568.58,-16.74 569.89,-23.62"/>
</g>
</g>
</svg>
