<?xml version="1.0" encoding="UTF-8" standalone="no"?>
<!DOCTYPE svg PUBLIC "-//W3C//DTD SVG 1.1//EN"
 "http://www.w3.org/Graphics/SVG/1.1/DTD/svg11.dtd">
<!-- Generated by graphviz version 2.42.3 (0)
 -->
<!-- Title: GN_SW2DCV.h Pages: 1 -->
<svg width="492pt" height="140pt"
 viewBox="0.00 0.00 492.00 140.00" xmlns="http://www.w3.org/2000/svg" xmlns:xlink="http://www.w3.org/1999/xlink">
<g id="graph0" class="graph" transform="scale(1 1) rotate(0) translate(4 136)">
<title>GN_SW2DCV.h</title>
<polygon fill="white" stroke="transparent" points="-4,4 -4,-136 488,-136 488,4 -4,4"/>
<!-- Node1 -->
<g id="node1" class="node">
<title>Node1</title>
<g id="a_node1"><a xlink:title=" ">
<polygon fill="#bfbfbf" stroke="black" points="216,-112.5 216,-131.5 303,-131.5 303,-112.5 216,-112.5"/>
<text text-anchor="middle" x="259.5" y="-119.5" font-family="Helvetica,sans-Serif" font-size="10.00">GN_SW2DCV.h</text>
</a>
</g>
</g>
<!-- Node2 -->
<g id="node2" class="node">
<title>Node2</title>
<g id="a_node2"><a xlink:href="_comp_kernel_8h.html" target="_top" xlink:title=" ">
<polygon fill="white" stroke="black" points="0,-56.5 0,-75.5 85,-75.5 85,-56.5 0,-56.5"/>
<text text-anchor="middle" x="42.5" y="-63.5" font-family="Helvetica,sans-Serif" font-size="10.00">CompKernel.h</text>
</a>
</g>
</g>
<!-- Node1&#45;&gt;Node2 -->
<g id="edge1" class="edge">
<title>Node1&#45;&gt;Node2</title>
<path fill="none" stroke="midnightblue" d="M225.12,-112.44C187.58,-103.1 127.37,-88.12 86.43,-77.93"/>
<polygon fill="midnightblue" stroke="midnightblue" points="87.27,-74.53 76.72,-75.52 85.58,-81.33 87.27,-74.53"/>
</g>
<!-- Node3 -->
<g id="node3" class="node">
<title>Node3</title>
<g id="a_node3"><a xlink:title=" ">
<polygon fill="white" stroke="#bfbfbf" points="55,-0.5 55,-19.5 102,-19.5 102,-0.5 55,-0.5"/>
<text text-anchor="middle" x="78.5" y="-7.5" font-family="Helvetica,sans-Serif" font-size="10.00">cmath</text>
</a>
</g>
</g>
<!-- Node1&#45;&gt;Node3 -->
<g id="edge6" class="edge">
<title>Node1&#45;&gt;Node3</title>
<path fill="none" stroke="midnightblue" d="M218.56,-112.45C192.3,-105.59 158.4,-94.07 132.5,-76 114.34,-63.33 98.82,-43.01 89.14,-28.46"/>
<polygon fill="midnightblue" stroke="midnightblue" points="91.99,-26.41 83.66,-19.87 86.09,-30.18 91.99,-26.41"/>
</g>
<!-- Node4 -->
<g id="node4" class="node">
<title>Node4</title>
<g id="a_node4"><a xlink:href="_model_factory_8h.html" target="_top" xlink:title=" ">
<polygon fill="white" stroke="black" points="142,-56.5 142,-75.5 231,-75.5 231,-56.5 142,-56.5"/>
<text text-anchor="middle" x="186.5" y="-63.5" font-family="Helvetica,sans-Serif" font-size="10.00">ModelFactory.h</text>
</a>
</g>
</g>
<!-- Node1&#45;&gt;Node4 -->
<g id="edge3" class="edge">
<title>Node1&#45;&gt;Node4</title>
<path fill="none" stroke="midnightblue" d="M247.77,-112.32C236.66,-104.11 219.76,-91.6 206.52,-81.81"/>
<polygon fill="midnightblue" stroke="midnightblue" points="208.56,-78.97 198.44,-75.83 204.4,-84.59 208.56,-78.97"/>
</g>
<!-- Node5 -->
<g id="node5" class="node">
<title>Node5</title>
<g id="a_node5"><a xlink:title=" ">
<polygon fill="white" stroke="#bfbfbf" points="192.5,-0.5 192.5,-19.5 252.5,-19.5 252.5,-0.5 192.5,-0.5"/>
<text text-anchor="middle" x="222.5" y="-7.5" font-family="Helvetica,sans-Serif" font-size="10.00">iostream</text>
</a>
</g>
</g>
<!-- Node1&#45;&gt;Node5 -->
<g id="edge7" class="edge">
<title>Node1&#45;&gt;Node5</title>
<path fill="none" stroke="midnightblue" d="M256.96,-112.11C253.32,-99.54 246.31,-75.88 239.5,-56 236.45,-47.1 232.8,-37.32 229.66,-29.16"/>
<polygon fill="midnightblue" stroke="midnightblue" points="232.81,-27.62 225.92,-19.57 226.29,-30.16 232.81,-27.62"/>
</g>
<!-- Node6 -->
<g id="node6" class="node">
<title>Node6</title>
<g id="a_node6"><a xlink:title=" ">
<polygon fill="white" stroke="#bfbfbf" points="287.5,-56.5 287.5,-75.5 343.5,-75.5 343.5,-56.5 287.5,-56.5"/>
<text text-anchor="middle" x="315.5" y="-63.5" font-family="Helvetica,sans-Serif" font-size="10.00">assert.h</text>
</a>
</g>
</g>
<!-- Node1&#45;&gt;Node6 -->
<g id="edge5" class="edge">
<title>Node1&#45;&gt;Node6</title>
<path fill="none" stroke="midnightblue" d="M268.5,-112.32C276.69,-104.42 289.01,-92.55 298.97,-82.94"/>
<polygon fill="midnightblue" stroke="midnightblue" points="301.57,-85.29 306.34,-75.83 296.71,-80.26 301.57,-85.29"/>
</g>
<!-- Node7 -->
<g id="node7" class="node">
<title>Node7</title>
<g id="a_node7"><a xlink:title=" ">
<polygon fill="white" stroke="#bfbfbf" points="362,-56.5 362,-75.5 419,-75.5 419,-56.5 362,-56.5"/>
<text text-anchor="middle" x="390.5" y="-63.5" font-family="Helvetica,sans-Serif" font-size="10.00">valarray</text>
</a>
</g>
</g>
<!-- Node1&#45;&gt;Node7 -->
<g id="edge8" class="edge">
<title>Node1&#45;&gt;Node7</title>
<path fill="none" stroke="midnightblue" d="M280.26,-112.44C301.82,-103.56 335.76,-89.56 360.29,-79.45"/>
<polygon fill="midnightblue" stroke="midnightblue" points="361.93,-82.56 369.84,-75.52 359.26,-76.09 361.93,-82.56"/>
</g>
<!-- Node8 -->
<g id="node8" class="node">
<title>Node8</title>
<g id="a_node8"><a xlink:title=" ">
<polygon fill="white" stroke="#bfbfbf" points="437,-56.5 437,-75.5 484,-75.5 484,-56.5 437,-56.5"/>
<text text-anchor="middle" x="460.5" y="-63.5" font-family="Helvetica,sans-Serif" font-size="10.00">vector</text>
</a>
</g>
</g>
<!-- Node1&#45;&gt;Node8 -->
<g id="edge9" class="edge">
<title>Node1&#45;&gt;Node8</title>
<path fill="none" stroke="midnightblue" d="M292.25,-112.42C324.33,-103.99 374.84,-90.63 426.99,-76.39"/>
<polygon fill="midnightblue" stroke="midnightblue" points="428.02,-79.74 436.74,-73.72 426.18,-72.98 428.02,-79.74"/>
</g>
<!-- Node2&#45;&gt;Node3 -->
<g id="edge2" class="edge">
<title>Node2&#45;&gt;Node3</title>
<path fill="none" stroke="midnightblue" d="M48.44,-56.08C53.48,-48.53 60.84,-37.49 67.01,-28.23"/>
<polygon fill="midnightblue" stroke="midnightblue" points="70.03,-30.01 72.67,-19.75 64.21,-26.13 70.03,-30.01"/>
</g>
<!-- Node4&#45;&gt;Node5 -->
<g id="edge4" class="edge">
<title>Node4&#45;&gt;Node5</title>
<path fill="none" stroke="midnightblue" d="M192.44,-56.08C197.48,-48.53 204.84,-37.49 211.01,-28.23"/>
<polygon fill="midnightblue" stroke="midnightblue" points="214.03,-30.01 216.67,-19.75 208.21,-26.13 214.03,-30.01"/>
</g>
</g>
</svg>
