<?xml version="1.0" encoding="UTF-8" standalone="no"?>
<!DOCTYPE svg PUBLIC "-//W3C//DTD SVG 1.1//EN"
 "http://www.w3.org/Graphics/SVG/1.1/DTD/svg11.dtd">
<!-- Generated by graphviz version 2.42.3 (0)
 -->
<!-- Title: Inout.cpp Pages: 1 -->
<svg width="471pt" height="84pt"
 viewBox="0.00 0.00 470.50 84.00" xmlns="http://www.w3.org/2000/svg" xmlns:xlink="http://www.w3.org/1999/xlink">
<g id="graph0" class="graph" transform="scale(1 1) rotate(0) translate(4 80)">
<title>Inout.cpp</title>
<polygon fill="white" stroke="transparent" points="-4,4 -4,-80 466.5,-80 466.5,4 -4,4"/>
<!-- Node1 -->
<g id="node1" class="node">
<title>Node1</title>
<g id="a_node1"><a xlink:title=" ">
<polygon fill="#bfbfbf" stroke="black" points="214.5,-56.5 214.5,-75.5 276.5,-75.5 276.5,-56.5 214.5,-56.5"/>
<text text-anchor="middle" x="245.5" y="-63.5" font-family="Helvetica,sans-Serif" font-size="10.00">Inout.cpp</text>
</a>
</g>
</g>
<!-- Node2 -->
<g id="node2" class="node">
<title>Node2</title>
<g id="a_node2"><a xlink:title=" ">
<polygon fill="white" stroke="#bfbfbf" points="0,-0.5 0,-19.5 51,-19.5 51,-0.5 0,-0.5"/>
<text text-anchor="middle" x="25.5" y="-7.5" font-family="Helvetica,sans-Serif" font-size="10.00">math.h</text>
</a>
</g>
</g>
<!-- Node1&#45;&gt;Node2 -->
<g id="edge1" class="edge">
<title>Node1&#45;&gt;Node2</title>
<path fill="none" stroke="midnightblue" d="M214.37,-57.56C179.52,-49.2 121.11,-35.11 61.13,-20.13"/>
<polygon fill="midnightblue" stroke="midnightblue" points="61.65,-16.66 51.1,-17.63 59.96,-23.45 61.65,-16.66"/>
</g>
<!-- Node3 -->
<g id="node3" class="node">
<title>Node3</title>
<g id="a_node3"><a xlink:title=" ">
<polygon fill="white" stroke="#bfbfbf" points="69.5,-0.5 69.5,-19.5 167.5,-19.5 167.5,-0.5 69.5,-0.5"/>
<text text-anchor="middle" x="118.5" y="-7.5" font-family="Helvetica,sans-Serif" font-size="10.00">ncurses/curses.h</text>
</a>
</g>
</g>
<!-- Node1&#45;&gt;Node3 -->
<g id="edge2" class="edge">
<title>Node1&#45;&gt;Node3</title>
<path fill="none" stroke="midnightblue" d="M225.38,-56.44C204.48,-47.56 171.57,-33.56 147.78,-23.45"/>
<polygon fill="midnightblue" stroke="midnightblue" points="149.1,-20.21 138.53,-19.52 146.36,-26.65 149.1,-20.21"/>
</g>
<!-- Node4 -->
<g id="node4" class="node">
<title>Node4</title>
<g id="a_node4"><a xlink:title=" ">
<polygon fill="white" stroke="#bfbfbf" points="185.5,-0.5 185.5,-19.5 235.5,-19.5 235.5,-0.5 185.5,-0.5"/>
<text text-anchor="middle" x="210.5" y="-7.5" font-family="Helvetica,sans-Serif" font-size="10.00">stdio.h</text>
</a>
</g>
</g>
<!-- Node1&#45;&gt;Node4 -->
<g id="edge3" class="edge">
<title>Node1&#45;&gt;Node4</title>
<path fill="none" stroke="midnightblue" d="M239.72,-56.08C234.83,-48.53 227.67,-37.49 221.67,-28.23"/>
<polygon fill="midnightblue" stroke="midnightblue" points="224.55,-26.24 216.17,-19.75 218.67,-30.05 224.55,-26.24"/>
</g>
<!-- Node5 -->
<g id="node5" class="node">
<title>Node5</title>
<g id="a_node5"><a xlink:title=" ">
<polygon fill="white" stroke="#bfbfbf" points="254,-0.5 254,-19.5 307,-19.5 307,-0.5 254,-0.5"/>
<text text-anchor="middle" x="280.5" y="-7.5" font-family="Helvetica,sans-Serif" font-size="10.00">stdlib.h</text>
</a>
</g>
</g>
<!-- Node1&#45;&gt;Node5 -->
<g id="edge4" class="edge">
<title>Node1&#45;&gt;Node5</title>
<path fill="none" stroke="midnightblue" d="M251.28,-56.08C256.17,-48.53 263.33,-37.49 269.33,-28.23"/>
<polygon fill="midnightblue" stroke="midnightblue" points="272.33,-30.05 274.83,-19.75 266.45,-26.24 272.33,-30.05"/>
</g>
<!-- Node6 -->
<g id="node6" class="node">
<title>Node6</title>
<g id="a_node6"><a xlink:title=" ">
<polygon fill="white" stroke="#bfbfbf" points="325,-0.5 325,-19.5 378,-19.5 378,-0.5 325,-0.5"/>
<text text-anchor="middle" x="351.5" y="-7.5" font-family="Helvetica,sans-Serif" font-size="10.00">string.h</text>
</a>
</g>
</g>
<!-- Node1&#45;&gt;Node6 -->
<g id="edge5" class="edge">
<title>Node1&#45;&gt;Node6</title>
<path fill="none" stroke="midnightblue" d="M262.53,-56.32C279.53,-47.66 305.88,-34.24 325.49,-24.25"/>
<polygon fill="midnightblue" stroke="midnightblue" points="327.19,-27.31 334.51,-19.65 324.01,-21.08 327.19,-27.31"/>
</g>
<!-- Node7 -->
<g id="node7" class="node">
<title>Node7</title>
<g id="a_node7"><a xlink:href="_headers_8h.html" target="_top" xlink:title=" ">
<polygon fill="white" stroke="black" points="396.5,-0.5 396.5,-19.5 462.5,-19.5 462.5,-0.5 396.5,-0.5"/>
<text text-anchor="middle" x="429.5" y="-7.5" font-family="Helvetica,sans-Serif" font-size="10.00">Headers.h</text>
</a>
</g>
</g>
<!-- Node1&#45;&gt;Node7 -->
<g id="edge6" class="edge">
<title>Node1&#45;&gt;Node7</title>
<path fill="none" stroke="midnightblue" d="M274.66,-56.44C306.01,-47.24 356.03,-32.56 390.7,-22.39"/>
<polygon fill="midnightblue" stroke="midnightblue" points="391.87,-25.69 400.48,-19.52 389.9,-18.97 391.87,-25.69"/>
</g>
</g>
</svg>
