<?xml version="1.0" encoding="UTF-8" standalone="no"?>
<!DOCTYPE svg PUBLIC "-//W3C//DTD SVG 1.1//EN"
 "http://www.w3.org/Graphics/SVG/1.1/DTD/svg11.dtd">
<!-- Generated by graphviz version 2.42.3 (0)
 -->
<!-- Title: MeshConverter.cpp Pages: 1 -->
<svg width="1491pt" height="196pt"
 viewBox="0.00 0.00 1491.00 196.00" xmlns="http://www.w3.org/2000/svg" xmlns:xlink="http://www.w3.org/1999/xlink">
<g id="graph0" class="graph" transform="scale(1 1) rotate(0) translate(4 192)">
<title>MeshConverter.cpp</title>
<polygon fill="white" stroke="transparent" points="-4,4 -4,-192 1487,-192 1487,4 -4,4"/>
<!-- Node1 -->
<g id="node1" class="node">
<title>Node1</title>
<g id="a_node1"><a xlink:title=" ">
<polygon fill="#bfbfbf" stroke="black" points="695,-168.5 695,-187.5 805,-187.5 805,-168.5 695,-168.5"/>
<text text-anchor="middle" x="750" y="-175.5" font-family="Helvetica,sans-Serif" font-size="10.00">MeshConverter.cpp</text>
</a>
</g>
</g>
<!-- Node2 -->
<g id="node2" class="node">
<title>Node2</title>
<g id="a_node2"><a xlink:title=" ">
<polygon fill="white" stroke="#bfbfbf" points="0,-0.5 0,-19.5 64,-19.5 64,-0.5 0,-0.5"/>
<text text-anchor="middle" x="32" y="-7.5" font-family="Helvetica,sans-Serif" font-size="10.00">algorithm</text>
</a>
</g>
</g>
<!-- Node1&#45;&gt;Node2 -->
<g id="edge1" class="edge">
<title>Node1&#45;&gt;Node2</title>
<path fill="none" stroke="midnightblue" d="M694.97,-177.64C607.4,-177.34 431.66,-171.28 289,-132 197.31,-106.75 97.92,-50.88 54.46,-24.85"/>
<polygon fill="midnightblue" stroke="midnightblue" points="56.19,-21.8 45.82,-19.62 52.57,-27.79 56.19,-21.8"/>
</g>
<!-- Node3 -->
<g id="node3" class="node">
<title>Node3</title>
<g id="a_node3"><a xlink:href="_mesh_adapt_p_u_m_i_8h.html" target="_top" xlink:title=" ">
<polygon fill="white" stroke="black" points="361,-112.5 361,-131.5 467,-131.5 467,-112.5 361,-112.5"/>
<text text-anchor="middle" x="414" y="-119.5" font-family="Helvetica,sans-Serif" font-size="10.00">MeshAdaptPUMI.h</text>
</a>
</g>
</g>
<!-- Node1&#45;&gt;Node3 -->
<g id="edge2" class="edge">
<title>Node1&#45;&gt;Node3</title>
<path fill="none" stroke="midnightblue" d="M696.76,-168.44C637.04,-158.85 540.26,-143.29 476.87,-133.1"/>
<polygon fill="midnightblue" stroke="midnightblue" points="477.42,-129.65 466.99,-131.52 476.31,-136.56 477.42,-129.65"/>
</g>
<!-- Node4 -->
<g id="node4" class="node">
<title>Node4</title>
<g id="a_node4"><a xlink:href="mesh_8h.html" target="_top" xlink:title=" ">
<polygon fill="white" stroke="black" points="211.5,-56.5 211.5,-75.5 264.5,-75.5 264.5,-56.5 211.5,-56.5"/>
<text text-anchor="middle" x="238" y="-63.5" font-family="Helvetica,sans-Serif" font-size="10.00">mesh.h</text>
</a>
</g>
</g>
<!-- Node1&#45;&gt;Node4 -->
<g id="edge19" class="edge">
<title>Node1&#45;&gt;Node4</title>
<path fill="none" stroke="midnightblue" d="M694.76,-174.68C595.88,-169.95 392.8,-157.4 327,-132 298.42,-120.97 270.78,-98.31 254.08,-82.89"/>
<polygon fill="midnightblue" stroke="midnightblue" points="256.06,-79.94 246.4,-75.58 251.23,-85.01 256.06,-79.94"/>
</g>
<!-- Node7 -->
<g id="node7" class="node">
<title>Node7</title>
<g id="a_node7"><a xlink:title=" ">
<polygon fill="white" stroke="#bfbfbf" points="549,-0.5 549,-19.5 587,-19.5 587,-0.5 549,-0.5"/>
<text text-anchor="middle" x="568" y="-7.5" font-family="Helvetica,sans-Serif" font-size="10.00">map</text>
</a>
</g>
</g>
<!-- Node1&#45;&gt;Node7 -->
<g id="edge26" class="edge">
<title>Node1&#45;&gt;Node7</title>
<path fill="none" stroke="midnightblue" d="M728.28,-168.45C710.17,-160.67 684.3,-147.96 665,-132 664.36,-131.47 607.59,-60.5 581.2,-27.51"/>
<polygon fill="midnightblue" stroke="midnightblue" points="583.9,-25.28 574.92,-19.66 578.43,-29.65 583.9,-25.28"/>
</g>
<!-- Node12 -->
<g id="node12" class="node">
<title>Node12</title>
<g id="a_node12"><a xlink:title=" ">
<polygon fill="white" stroke="#bfbfbf" points="625,-0.5 625,-19.5 677,-19.5 677,-0.5 625,-0.5"/>
<text text-anchor="middle" x="651" y="-7.5" font-family="Helvetica,sans-Serif" font-size="10.00">cassert</text>
</a>
</g>
</g>
<!-- Node1&#45;&gt;Node12 -->
<g id="edge32" class="edge">
<title>Node1&#45;&gt;Node12</title>
<path fill="none" stroke="midnightblue" d="M728.44,-168.44C712.69,-161.08 692.04,-148.96 680,-132 657.88,-100.84 652.48,-54.96 651.26,-29.59"/>
<polygon fill="midnightblue" stroke="midnightblue" points="654.75,-29.39 650.95,-19.5 647.76,-29.61 654.75,-29.39"/>
</g>
<!-- Node14 -->
<g id="node14" class="node">
<title>Node14</title>
<g id="a_node14"><a xlink:title=" ">
<polygon fill="white" stroke="#bfbfbf" points="282.5,-56.5 282.5,-75.5 323.5,-75.5 323.5,-56.5 282.5,-56.5"/>
<text text-anchor="middle" x="303" y="-63.5" font-family="Helvetica,sans-Serif" font-size="10.00">apf.h</text>
</a>
</g>
</g>
<!-- Node1&#45;&gt;Node14 -->
<g id="edge24" class="edge">
<title>Node1&#45;&gt;Node14</title>
<path fill="none" stroke="midnightblue" d="M694.97,-176.08C599.81,-173.63 409.22,-164.66 352,-132 333.07,-121.2 319.17,-99.82 311.1,-84.53"/>
<polygon fill="midnightblue" stroke="midnightblue" points="314.22,-82.95 306.65,-75.53 307.95,-86.05 314.22,-82.95"/>
</g>
<!-- Node15 -->
<g id="node15" class="node">
<title>Node15</title>
<g id="a_node15"><a xlink:title=" ">
<polygon fill="white" stroke="#bfbfbf" points="407,-56.5 407,-75.5 481,-75.5 481,-56.5 407,-56.5"/>
<text text-anchor="middle" x="444" y="-63.5" font-family="Helvetica,sans-Serif" font-size="10.00">apfMesh2.h</text>
</a>
</g>
</g>
<!-- Node1&#45;&gt;Node15 -->
<g id="edge23" class="edge">
<title>Node1&#45;&gt;Node15</title>
<path fill="none" stroke="midnightblue" d="M709.15,-168.45C674.3,-160.62 623.13,-147.86 580,-132 539.75,-117.2 495.3,-94.71 468.52,-80.45"/>
<polygon fill="midnightblue" stroke="midnightblue" points="469.96,-77.25 459.5,-75.59 466.65,-83.41 469.96,-77.25"/>
</g>
<!-- Node16 -->
<g id="node16" class="node">
<title>Node16</title>
<g id="a_node16"><a xlink:title=" ">
<polygon fill="white" stroke="#bfbfbf" points="499.5,-56.5 499.5,-75.5 594.5,-75.5 594.5,-56.5 499.5,-56.5"/>
<text text-anchor="middle" x="547" y="-63.5" font-family="Helvetica,sans-Serif" font-size="10.00">apfNumbering.h</text>
</a>
</g>
</g>
<!-- Node1&#45;&gt;Node16 -->
<g id="edge25" class="edge">
<title>Node1&#45;&gt;Node16</title>
<path fill="none" stroke="midnightblue" d="M704.02,-168.45C675.18,-161.65 638.08,-150.19 609,-132 588.85,-119.4 570.72,-98.77 559.35,-84.13"/>
<polygon fill="midnightblue" stroke="midnightblue" points="561.99,-81.82 553.18,-75.92 556.39,-86.02 561.99,-81.82"/>
</g>
<!-- Node18 -->
<g id="node18" class="node">
<title>Node18</title>
<g id="a_node18"><a xlink:title=" ">
<polygon fill="white" stroke="#bfbfbf" points="689,-112.5 689,-131.5 735,-131.5 735,-112.5 689,-112.5"/>
<text text-anchor="middle" x="712" y="-119.5" font-family="Helvetica,sans-Serif" font-size="10.00">PCU.h</text>
</a>
</g>
</g>
<!-- Node1&#45;&gt;Node18 -->
<g id="edge18" class="edge">
<title>Node1&#45;&gt;Node18</title>
<path fill="none" stroke="midnightblue" d="M743.73,-168.08C738.36,-160.46 730.48,-149.26 723.92,-139.94"/>
<polygon fill="midnightblue" stroke="midnightblue" points="726.78,-137.91 718.16,-131.75 721.05,-141.94 726.78,-137.91"/>
</g>
<!-- Node19 -->
<g id="node19" class="node">
<title>Node19</title>
<g id="a_node19"><a xlink:title=" ">
<polygon fill="white" stroke="#bfbfbf" points="753.5,-112.5 753.5,-131.5 824.5,-131.5 824.5,-112.5 753.5,-112.5"/>
<text text-anchor="middle" x="789" y="-119.5" font-family="Helvetica,sans-Serif" font-size="10.00">apfShape.h</text>
</a>
</g>
</g>
<!-- Node1&#45;&gt;Node19 -->
<g id="edge20" class="edge">
<title>Node1&#45;&gt;Node19</title>
<path fill="none" stroke="midnightblue" d="M756.44,-168.08C761.95,-160.46 770.03,-149.26 776.76,-139.94"/>
<polygon fill="midnightblue" stroke="midnightblue" points="779.66,-141.91 782.68,-131.75 773.99,-137.81 779.66,-141.91"/>
</g>
<!-- Node20 -->
<g id="node20" class="node">
<title>Node20</title>
<g id="a_node20"><a xlink:title=" ">
<polygon fill="white" stroke="#bfbfbf" points="843,-112.5 843,-131.5 899,-131.5 899,-112.5 843,-112.5"/>
<text text-anchor="middle" x="871" y="-119.5" font-family="Helvetica,sans-Serif" font-size="10.00">sstream</text>
</a>
</g>
</g>
<!-- Node1&#45;&gt;Node20 -->
<g id="edge21" class="edge">
<title>Node1&#45;&gt;Node20</title>
<path fill="none" stroke="midnightblue" d="M769.17,-168.44C788.91,-159.64 819.89,-145.81 842.49,-135.72"/>
<polygon fill="midnightblue" stroke="midnightblue" points="844.21,-138.79 851.92,-131.52 841.36,-132.4 844.21,-138.79"/>
</g>
<!-- Node21 -->
<g id="node21" class="node">
<title>Node21</title>
<g id="a_node21"><a xlink:title=" ">
<polygon fill="white" stroke="#bfbfbf" points="917,-112.5 917,-131.5 997,-131.5 997,-112.5 917,-112.5"/>
<text text-anchor="middle" x="957" y="-119.5" font-family="Helvetica,sans-Serif" font-size="10.00">apfConvert.h</text>
</a>
</g>
</g>
<!-- Node1&#45;&gt;Node21 -->
<g id="edge22" class="edge">
<title>Node1&#45;&gt;Node21</title>
<path fill="none" stroke="midnightblue" d="M782.8,-168.44C818.38,-159.16 875.31,-144.31 914.35,-134.13"/>
<polygon fill="midnightblue" stroke="midnightblue" points="915.56,-137.43 924.35,-131.52 913.79,-130.65 915.56,-137.43"/>
</g>
<!-- Node22 -->
<g id="node22" class="node">
<title>Node22</title>
<g id="a_node22"><a xlink:title=" ">
<polygon fill="white" stroke="#bfbfbf" points="1015,-112.5 1015,-131.5 1083,-131.5 1083,-112.5 1015,-112.5"/>
<text text-anchor="middle" x="1049" y="-119.5" font-family="Helvetica,sans-Serif" font-size="10.00">gmi_null.h</text>
</a>
</g>
</g>
<!-- Node1&#45;&gt;Node22 -->
<g id="edge27" class="edge">
<title>Node1&#45;&gt;Node22</title>
<path fill="none" stroke="midnightblue" d="M801.58,-168.44C851.11,-160.1 928.33,-146.81 1004.5,-132.24"/>
<polygon fill="midnightblue" stroke="midnightblue" points="1005.59,-135.6 1014.75,-130.27 1004.27,-128.72 1005.59,-135.6"/>
</g>
<!-- Node23 -->
<g id="node23" class="node">
<title>Node23</title>
<g id="a_node23"><a xlink:title=" ">
<polygon fill="white" stroke="#bfbfbf" points="1101.5,-112.5 1101.5,-131.5 1178.5,-131.5 1178.5,-112.5 1101.5,-112.5"/>
<text text-anchor="middle" x="1140" y="-119.5" font-family="Helvetica,sans-Serif" font-size="10.00">gmi_mesh.h</text>
</a>
</g>
</g>
<!-- Node1&#45;&gt;Node23 -->
<g id="edge28" class="edge">
<title>Node1&#45;&gt;Node23</title>
<path fill="none" stroke="midnightblue" d="M805.22,-170.67C870.89,-162.94 984.05,-148.95 1091.24,-132.04"/>
<polygon fill="midnightblue" stroke="midnightblue" points="1091.93,-135.48 1101.26,-130.45 1090.83,-128.56 1091.93,-135.48"/>
</g>
<!-- Node24 -->
<g id="node24" class="node">
<title>Node24</title>
<g id="a_node24"><a xlink:title=" ">
<polygon fill="white" stroke="#bfbfbf" points="1197,-112.5 1197,-131.5 1241,-131.5 1241,-112.5 1197,-112.5"/>
<text text-anchor="middle" x="1219" y="-119.5" font-family="Helvetica,sans-Serif" font-size="10.00">gmi.h</text>
</a>
</g>
</g>
<!-- Node1&#45;&gt;Node24 -->
<g id="edge29" class="edge">
<title>Node1&#45;&gt;Node24</title>
<path fill="none" stroke="midnightblue" d="M805.09,-174.53C886.62,-170.17 1044.21,-159.08 1186.55,-131.96"/>
<polygon fill="midnightblue" stroke="midnightblue" points="1187.62,-135.31 1196.77,-129.97 1186.28,-128.44 1187.62,-135.31"/>
</g>
<!-- Node25 -->
<g id="node25" class="node">
<title>Node25</title>
<g id="a_node25"><a xlink:title=" ">
<polygon fill="white" stroke="#bfbfbf" points="1259,-112.5 1259,-131.5 1323,-131.5 1323,-112.5 1259,-112.5"/>
<text text-anchor="middle" x="1291" y="-119.5" font-family="Helvetica,sans-Serif" font-size="10.00">apfMDS.h</text>
</a>
</g>
</g>
<!-- Node1&#45;&gt;Node25 -->
<g id="edge30" class="edge">
<title>Node1&#45;&gt;Node25</title>
<path fill="none" stroke="midnightblue" d="M805.02,-174.33C895.6,-169.42 1081.89,-157.25 1248.89,-131.99"/>
<polygon fill="midnightblue" stroke="midnightblue" points="1249.49,-135.44 1258.84,-130.46 1248.43,-128.52 1249.49,-135.44"/>
</g>
<!-- Node26 -->
<g id="node26" class="node">
<title>Node26</title>
<g id="a_node26"><a xlink:title=" ">
<polygon fill="white" stroke="#bfbfbf" points="1341.5,-112.5 1341.5,-131.5 1382.5,-131.5 1382.5,-112.5 1341.5,-112.5"/>
<text text-anchor="middle" x="1362" y="-119.5" font-family="Helvetica,sans-Serif" font-size="10.00">ma.h</text>
</a>
</g>
</g>
<!-- Node1&#45;&gt;Node26 -->
<g id="edge31" class="edge">
<title>Node1&#45;&gt;Node26</title>
<path fill="none" stroke="midnightblue" d="M805.07,-176.66C907.26,-175.17 1133.06,-167.91 1331.46,-131.65"/>
<polygon fill="midnightblue" stroke="midnightblue" points="1332.29,-135.05 1341.49,-129.79 1331.02,-128.17 1332.29,-135.05"/>
</g>
<!-- Node27 -->
<g id="node27" class="node">
<title>Node27</title>
<g id="a_node27"><a xlink:title=" ">
<polygon fill="white" stroke="#bfbfbf" points="1401,-112.5 1401,-131.5 1483,-131.5 1483,-112.5 1401,-112.5"/>
<text text-anchor="middle" x="1442" y="-119.5" font-family="Helvetica,sans-Serif" font-size="10.00">gmi_lookup.h</text>
</a>
</g>
</g>
<!-- Node1&#45;&gt;Node27 -->
<g id="edge33" class="edge">
<title>Node1&#45;&gt;Node27</title>
<path fill="none" stroke="midnightblue" d="M805.16,-175.14C914.78,-171.02 1167.98,-159.32 1390.61,-132.04"/>
<polygon fill="midnightblue" stroke="midnightblue" points="1391.36,-135.47 1400.85,-130.77 1390.5,-128.53 1391.36,-135.47"/>
</g>
<!-- Node3&#45;&gt;Node4 -->
<g id="edge3" class="edge">
<title>Node3&#45;&gt;Node4</title>
<path fill="none" stroke="midnightblue" d="M386.11,-112.44C355.89,-103.17 307.56,-88.34 274.38,-78.16"/>
<polygon fill="midnightblue" stroke="midnightblue" points="275.19,-74.75 264.61,-75.16 273.14,-81.44 275.19,-74.75"/>
</g>
<!-- Node3&#45;&gt;Node14 -->
<g id="edge14" class="edge">
<title>Node3&#45;&gt;Node14</title>
<path fill="none" stroke="midnightblue" d="M396.17,-112.32C378.28,-103.62 350.52,-90.12 329.95,-80.11"/>
<polygon fill="midnightblue" stroke="midnightblue" points="331.31,-76.88 320.79,-75.65 328.25,-83.18 331.31,-76.88"/>
</g>
<!-- Node3&#45;&gt;Node15 -->
<g id="edge15" class="edge">
<title>Node3&#45;&gt;Node15</title>
<path fill="none" stroke="midnightblue" d="M418.95,-112.08C423.1,-104.61 429.15,-93.72 434.27,-84.52"/>
<polygon fill="midnightblue" stroke="midnightblue" points="437.34,-86.19 439.14,-75.75 431.22,-82.79 437.34,-86.19"/>
</g>
<!-- Node3&#45;&gt;Node16 -->
<g id="edge16" class="edge">
<title>Node3&#45;&gt;Node16</title>
<path fill="none" stroke="midnightblue" d="M435.07,-112.44C457.06,-103.52 491.73,-89.44 516.66,-79.32"/>
<polygon fill="midnightblue" stroke="midnightblue" points="518.08,-82.52 526.02,-75.52 515.44,-76.04 518.08,-82.52"/>
</g>
<!-- Node17 -->
<g id="node17" class="node">
<title>Node17</title>
<g id="a_node17"><a xlink:title=" ">
<polygon fill="white" stroke="#bfbfbf" points="341.5,-56.5 341.5,-75.5 388.5,-75.5 388.5,-56.5 341.5,-56.5"/>
<text text-anchor="middle" x="365" y="-63.5" font-family="Helvetica,sans-Serif" font-size="10.00">queue</text>
</a>
</g>
</g>
<!-- Node3&#45;&gt;Node17 -->
<g id="edge17" class="edge">
<title>Node3&#45;&gt;Node17</title>
<path fill="none" stroke="midnightblue" d="M405.91,-112.08C398.84,-104.3 388.41,-92.8 379.85,-83.37"/>
<polygon fill="midnightblue" stroke="midnightblue" points="382.25,-80.8 372.94,-75.75 377.07,-85.51 382.25,-80.8"/>
</g>
<!-- Node4&#45;&gt;Node2 -->
<g id="edge6" class="edge">
<title>Node4&#45;&gt;Node2</title>
<path fill="none" stroke="midnightblue" d="M211.49,-58.05C176.66,-48.92 115.08,-32.78 73.9,-21.98"/>
<polygon fill="midnightblue" stroke="midnightblue" points="74.72,-18.58 64.16,-19.43 72.95,-25.35 74.72,-18.58"/>
</g>
<!-- Node5 -->
<g id="node5" class="node">
<title>Node5</title>
<g id="a_node5"><a xlink:title=" ">
<polygon fill="white" stroke="#bfbfbf" points="423,-0.5 423,-19.5 455,-19.5 455,-0.5 423,-0.5"/>
<text text-anchor="middle" x="439" y="-7.5" font-family="Helvetica,sans-Serif" font-size="10.00">set</text>
</a>
</g>
</g>
<!-- Node4&#45;&gt;Node5 -->
<g id="edge4" class="edge">
<title>Node4&#45;&gt;Node5</title>
<path fill="none" stroke="midnightblue" d="M264.88,-58.09C313.83,-45.51 412.55,-20.14 413,-20 413.1,-19.97 413.2,-19.94 413.3,-19.91"/>
<polygon fill="midnightblue" stroke="midnightblue" points="414.4,-23.23 422.84,-16.82 412.25,-16.57 414.4,-23.23"/>
</g>
<!-- Node6 -->
<g id="node6" class="node">
<title>Node6</title>
<g id="a_node6"><a xlink:title=" ">
<polygon fill="white" stroke="#bfbfbf" points="473.5,-0.5 473.5,-19.5 520.5,-19.5 520.5,-0.5 473.5,-0.5"/>
<text text-anchor="middle" x="497" y="-7.5" font-family="Helvetica,sans-Serif" font-size="10.00">vector</text>
</a>
</g>
</g>
<!-- Node4&#45;&gt;Node6 -->
<g id="edge5" class="edge">
<title>Node4&#45;&gt;Node6</title>
<path fill="none" stroke="midnightblue" d="M264.71,-57.94C267.5,-57.26 270.31,-56.6 273,-56 354.27,-37.91 378.11,-39.25 463.41,-19.97"/>
<polygon fill="midnightblue" stroke="midnightblue" points="464.3,-23.36 473.26,-17.72 462.74,-16.54 464.3,-23.36"/>
</g>
<!-- Node4&#45;&gt;Node7 -->
<g id="edge7" class="edge">
<title>Node4&#45;&gt;Node7</title>
<path fill="none" stroke="midnightblue" d="M264.68,-57.81C267.48,-57.15 270.29,-56.54 273,-56 386.14,-33.6 416.65,-41.31 530,-20 532.87,-19.46 535.86,-18.85 538.83,-18.2"/>
<polygon fill="midnightblue" stroke="midnightblue" points="539.78,-21.57 548.74,-15.93 538.21,-14.75 539.78,-21.57"/>
</g>
<!-- Node8 -->
<g id="node8" class="node">
<title>Node8</title>
<g id="a_node8"><a xlink:title=" ">
<polygon fill="white" stroke="#bfbfbf" points="82,-0.5 82,-19.5 114,-19.5 114,-0.5 82,-0.5"/>
<text text-anchor="middle" x="98" y="-7.5" font-family="Helvetica,sans-Serif" font-size="10.00">list</text>
</a>
</g>
</g>
<!-- Node4&#45;&gt;Node8 -->
<g id="edge8" class="edge">
<title>Node4&#45;&gt;Node8</title>
<path fill="none" stroke="midnightblue" d="M215.82,-56.44C190.79,-46.79 150.16,-31.12 123.75,-20.93"/>
<polygon fill="midnightblue" stroke="midnightblue" points="124.98,-17.66 114.39,-17.32 122.46,-24.19 124.98,-17.66"/>
</g>
<!-- Node9 -->
<g id="node9" class="node">
<title>Node9</title>
<g id="a_node9"><a xlink:title=" ">
<polygon fill="white" stroke="#bfbfbf" points="132,-0.5 132,-19.5 192,-19.5 192,-0.5 132,-0.5"/>
<text text-anchor="middle" x="162" y="-7.5" font-family="Helvetica,sans-Serif" font-size="10.00">iostream</text>
</a>
</g>
</g>
<!-- Node4&#45;&gt;Node9 -->
<g id="edge9" class="edge">
<title>Node4&#45;&gt;Node9</title>
<path fill="none" stroke="midnightblue" d="M225.79,-56.32C214.22,-48.11 196.62,-35.6 182.84,-25.81"/>
<polygon fill="midnightblue" stroke="midnightblue" points="184.61,-22.77 174.43,-19.83 180.56,-28.48 184.61,-22.77"/>
</g>
<!-- Node10 -->
<g id="node10" class="node">
<title>Node10</title>
<g id="a_node10"><a xlink:title=" ">
<polygon fill="white" stroke="#bfbfbf" points="210,-0.5 210,-19.5 266,-19.5 266,-0.5 210,-0.5"/>
<text text-anchor="middle" x="238" y="-7.5" font-family="Helvetica,sans-Serif" font-size="10.00">iomanip</text>
</a>
</g>
</g>
<!-- Node4&#45;&gt;Node10 -->
<g id="edge10" class="edge">
<title>Node4&#45;&gt;Node10</title>
<path fill="none" stroke="midnightblue" d="M238,-56.08C238,-49.01 238,-38.86 238,-29.99"/>
<polygon fill="midnightblue" stroke="midnightblue" points="241.5,-29.75 238,-19.75 234.5,-29.75 241.5,-29.75"/>
</g>
<!-- Node11 -->
<g id="node11" class="node">
<title>Node11</title>
<g id="a_node11"><a xlink:title=" ">
<polygon fill="white" stroke="#bfbfbf" points="284.5,-0.5 284.5,-19.5 339.5,-19.5 339.5,-0.5 284.5,-0.5"/>
<text text-anchor="middle" x="312" y="-7.5" font-family="Helvetica,sans-Serif" font-size="10.00">fstream</text>
</a>
</g>
</g>
<!-- Node4&#45;&gt;Node11 -->
<g id="edge11" class="edge">
<title>Node4&#45;&gt;Node11</title>
<path fill="none" stroke="midnightblue" d="M249.89,-56.32C261.15,-48.11 278.29,-35.6 291.71,-25.81"/>
<polygon fill="midnightblue" stroke="midnightblue" points="293.88,-28.56 299.89,-19.83 289.75,-22.9 293.88,-28.56"/>
</g>
<!-- Node4&#45;&gt;Node12 -->
<g id="edge12" class="edge">
<title>Node4&#45;&gt;Node12</title>
<path fill="none" stroke="midnightblue" d="M264.67,-57.73C267.47,-57.09 270.28,-56.5 273,-56 415.08,-29.95 452.9,-39.67 596,-20 602.02,-19.17 608.39,-18.21 614.59,-17.23"/>
<polygon fill="midnightblue" stroke="midnightblue" points="615.43,-20.64 624.74,-15.58 614.31,-13.73 615.43,-20.64"/>
</g>
<!-- Node13 -->
<g id="node13" class="node">
<title>Node13</title>
<g id="a_node13"><a xlink:title=" ">
<polygon fill="white" stroke="#bfbfbf" points="357.5,-0.5 357.5,-19.5 404.5,-19.5 404.5,-0.5 357.5,-0.5"/>
<text text-anchor="middle" x="381" y="-7.5" font-family="Helvetica,sans-Serif" font-size="10.00">cmath</text>
</a>
</g>
</g>
<!-- Node4&#45;&gt;Node13 -->
<g id="edge13" class="edge">
<title>Node4&#45;&gt;Node13</title>
<path fill="none" stroke="midnightblue" d="M260.66,-56.44C284.4,-47.48 321.91,-33.31 348.74,-23.18"/>
<polygon fill="midnightblue" stroke="midnightblue" points="350.33,-26.32 358.45,-19.52 347.86,-19.77 350.33,-26.32"/>
</g>
</g>
</svg>
