<?xml version="1.0" encoding="UTF-8" standalone="no"?>
<!DOCTYPE svg PUBLIC "-//W3C//DTD SVG 1.1//EN"
 "http://www.w3.org/Graphics/SVG/1.1/DTD/svg11.dtd">
<!-- Generated by graphviz version 2.40.1 (20161225.0304)
 -->
<!-- Title: MeshConverter.cpp Pages: 1 -->
<svg width="1392pt" height="252pt"
 viewBox="0.00 0.00 1392.00 252.00" xmlns="http://www.w3.org/2000/svg" xmlns:xlink="http://www.w3.org/1999/xlink">
<g id="graph0" class="graph" transform="scale(1 1) rotate(0) translate(4 248)">
<title>MeshConverter.cpp</title>
<polygon fill="#ffffff" stroke="transparent" points="-4,4 -4,-248 1388,-248 1388,4 -4,4"/>
<!-- Node0 -->
<g id="node1" class="node">
<title>Node0</title>
<polygon fill="#bfbfbf" stroke="#000000" points="646,-224.5 646,-243.5 748,-243.5 748,-224.5 646,-224.5"/>
<text text-anchor="middle" x="697" y="-231.5" font-family="Helvetica,sans-Serif" font-size="10.00" fill="#000000">MeshConverter.cpp</text>
</g>
<!-- Node1 -->
<g id="node2" class="node">
<title>Node1</title>
<polygon fill="#ffffff" stroke="#bfbfbf" points="0,-.5 0,-19.5 56,-19.5 56,-.5 0,-.5"/>
<text text-anchor="middle" x="28" y="-7.5" font-family="Helvetica,sans-Serif" font-size="10.00" fill="#000000">algorithm</text>
</g>
<!-- Node0&#45;&gt;Node1 -->
<g id="edge1" class="edge">
<title>Node0&#45;&gt;Node1</title>
<path fill="none" stroke="#191970" d="M645.5604,-231.9195C520.0967,-226.5122 205.5696,-210.83 164,-188 97.3208,-151.3798 53.1374,-66.7977 36.0022,-28.9296"/>
<polygon fill="#191970" stroke="#191970" points="39.1158,-27.3149 31.8903,-19.5662 32.7066,-30.1296 39.1158,-27.3149"/>
</g>
<!-- Node2 -->
<g id="node3" class="node">
<title>Node2</title>
<g id="a_node3"><a xlink:href="_mesh_adapt_p_u_m_i_8h.html" target="_top" xlink:title="MeshAdaptPUMI.h">
<polygon fill="#ffffff" stroke="#000000" points="261,-168.5 261,-187.5 361,-187.5 361,-168.5 261,-168.5"/>
<text text-anchor="middle" x="311" y="-175.5" font-family="Helvetica,sans-Serif" font-size="10.00" fill="#000000">MeshAdaptPUMI.h</text>
</a>
</g>
</g>
<!-- Node0&#45;&gt;Node2 -->
<g id="edge2" class="edge">
<title>Node0&#45;&gt;Node2</title>
<path fill="none" stroke="#191970" d="M645.7422,-226.5636C574.8391,-216.2772 447.0545,-197.7385 371.5402,-186.783"/>
<polygon fill="#191970" stroke="#191970" points="371.642,-183.2612 361.2431,-185.2892 370.637,-190.1887 371.642,-183.2612"/>
</g>
<!-- Node3 -->
<g id="node4" class="node">
<title>Node3</title>
<g id="a_node4"><a xlink:href="mesh_8h.html" target="_top" xlink:title="mesh.h">
<polygon fill="#ffffff" stroke="#000000" points="194.5,-56.5 194.5,-75.5 243.5,-75.5 243.5,-56.5 194.5,-56.5"/>
<text text-anchor="middle" x="219" y="-63.5" font-family="Helvetica,sans-Serif" font-size="10.00" fill="#000000">mesh.h</text>
</a>
</g>
</g>
<!-- Node0&#45;&gt;Node3 -->
<g id="edge22" class="edge">
<title>Node0&#45;&gt;Node3</title>
<path fill="none" stroke="#191970" d="M645.9575,-232.5617C538.5589,-228.9808 292.7353,-217.7122 215,-188 170.3793,-170.945 115.079,-153.3481 139,-112 148.8587,-94.959 167.6857,-83.6788 184.5996,-76.5554"/>
<polygon fill="#191970" stroke="#191970" points="186.1856,-79.695 194.255,-72.8295 183.6655,-73.1644 186.1856,-79.695"/>
</g>
<!-- Node6 -->
<g id="node7" class="node">
<title>Node6</title>
<polygon fill="#ffffff" stroke="#bfbfbf" points="518.5,-.5 518.5,-19.5 553.5,-19.5 553.5,-.5 518.5,-.5"/>
<text text-anchor="middle" x="536" y="-7.5" font-family="Helvetica,sans-Serif" font-size="10.00" fill="#000000">map</text>
</g>
<!-- Node0&#45;&gt;Node6 -->
<g id="edge29" class="edge">
<title>Node0&#45;&gt;Node6</title>
<path fill="none" stroke="#191970" d="M670.1124,-224.4022C652.2336,-216.8607 629.3109,-204.8067 614,-188 570.739,-140.5127 548.6826,-65.2032 540.2189,-29.7226"/>
<polygon fill="#191970" stroke="#191970" points="543.5677,-28.6641 537.9389,-19.6882 536.7416,-30.2151 543.5677,-28.6641"/>
</g>
<!-- Node11 -->
<g id="node12" class="node">
<title>Node11</title>
<polygon fill="#ffffff" stroke="#bfbfbf" points="579.5,-.5 579.5,-19.5 628.5,-19.5 628.5,-.5 579.5,-.5"/>
<text text-anchor="middle" x="604" y="-7.5" font-family="Helvetica,sans-Serif" font-size="10.00" fill="#000000">cassert</text>
</g>
<!-- Node0&#45;&gt;Node11 -->
<g id="edge35" class="edge">
<title>Node0&#45;&gt;Node11</title>
<path fill="none" stroke="#191970" d="M673.2445,-224.4299C657.755,-216.9008 638.5269,-204.8501 628,-188 596.8284,-138.1042 598.5677,-65.0708 601.6386,-30.1064"/>
<polygon fill="#191970" stroke="#191970" points="605.1573,-30.0993 602.6855,-19.7968 598.1931,-29.392 605.1573,-30.0993"/>
</g>
<!-- Node16 -->
<g id="node17" class="node">
<title>Node16</title>
<polygon fill="#ffffff" stroke="#bfbfbf" points="148,-112.5 148,-131.5 186,-131.5 186,-112.5 148,-112.5"/>
<text text-anchor="middle" x="167" y="-119.5" font-family="Helvetica,sans-Serif" font-size="10.00" fill="#000000">apf.h</text>
</g>
<!-- Node0&#45;&gt;Node16 -->
<g id="edge27" class="edge">
<title>Node0&#45;&gt;Node16</title>
<path fill="none" stroke="#191970" d="M645.9919,-232.2444C544.8248,-228.1911 322.4596,-216.2746 252,-188 224.8317,-177.0977 199.0781,-154.8163 183.1853,-139.1695"/>
<polygon fill="#191970" stroke="#191970" points="185.328,-136.3572 175.8179,-131.6873 180.3402,-141.2685 185.328,-136.3572"/>
</g>
<!-- Node17 -->
<g id="node18" class="node">
<title>Node17</title>
<polygon fill="#ffffff" stroke="#bfbfbf" points="370,-112.5 370,-131.5 438,-131.5 438,-112.5 370,-112.5"/>
<text text-anchor="middle" x="404" y="-119.5" font-family="Helvetica,sans-Serif" font-size="10.00" fill="#000000">apfMesh2.h</text>
</g>
<!-- Node0&#45;&gt;Node17 -->
<g id="edge26" class="edge">
<title>Node0&#45;&gt;Node17</title>
<path fill="none" stroke="#191970" d="M652.5621,-224.4957C618.4215,-216.5435 570.4251,-203.9427 530,-188 493.3339,-173.5398 453.4098,-151.4552 428.5431,-136.8744"/>
<polygon fill="#191970" stroke="#191970" points="430.1752,-133.7732 419.7882,-131.6851 426.606,-139.7949 430.1752,-133.7732"/>
</g>
<!-- Node18 -->
<g id="node19" class="node">
<title>Node18</title>
<polygon fill="#ffffff" stroke="#bfbfbf" points="456,-112.5 456,-131.5 542,-131.5 542,-112.5 456,-112.5"/>
<text text-anchor="middle" x="499" y="-119.5" font-family="Helvetica,sans-Serif" font-size="10.00" fill="#000000">apfNumbering.h</text>
</g>
<!-- Node0&#45;&gt;Node18 -->
<g id="edge28" class="edge">
<title>Node0&#45;&gt;Node18</title>
<path fill="none" stroke="#191970" d="M646.0817,-224.4431C617.8683,-217.4814 583.1218,-206.0379 556,-188 536.9996,-175.3634 520.6146,-154.7293 510.3513,-139.8948"/>
<polygon fill="#191970" stroke="#191970" points="513.2384,-137.9156 504.7834,-131.531 507.4115,-141.7947 513.2384,-137.9156"/>
</g>
<!-- Node19 -->
<g id="node20" class="node">
<title>Node19</title>
<polygon fill="#ffffff" stroke="#bfbfbf" points="636.5,-168.5 636.5,-187.5 683.5,-187.5 683.5,-168.5 636.5,-168.5"/>
<text text-anchor="middle" x="660" y="-175.5" font-family="Helvetica,sans-Serif" font-size="10.00" fill="#000000">PCU.h</text>
</g>
<!-- Node0&#45;&gt;Node19 -->
<g id="edge21" class="edge">
<title>Node0&#45;&gt;Node19</title>
<path fill="none" stroke="#191970" d="M690.5551,-224.2455C685.4618,-216.5367 678.2092,-205.5598 672.048,-196.2348"/>
<polygon fill="#191970" stroke="#191970" points="674.8038,-194.0566 666.3711,-187.6427 668.9635,-197.9155 674.8038,-194.0566"/>
</g>
<!-- Node20 -->
<g id="node21" class="node">
<title>Node20</title>
<polygon fill="#ffffff" stroke="#bfbfbf" points="702,-168.5 702,-187.5 768,-187.5 768,-168.5 702,-168.5"/>
<text text-anchor="middle" x="735" y="-175.5" font-family="Helvetica,sans-Serif" font-size="10.00" fill="#000000">apfShape.h</text>
</g>
<!-- Node0&#45;&gt;Node20 -->
<g id="edge23" class="edge">
<title>Node0&#45;&gt;Node20</title>
<path fill="none" stroke="#191970" d="M703.6191,-224.2455C708.9046,-216.4564 716.4541,-205.3308 722.8238,-195.9439"/>
<polygon fill="#191970" stroke="#191970" points="725.7379,-197.8827 728.4568,-187.6427 719.9455,-193.9522 725.7379,-197.8827"/>
</g>
<!-- Node21 -->
<g id="node22" class="node">
<title>Node21</title>
<polygon fill="#ffffff" stroke="#bfbfbf" points="786,-168.5 786,-187.5 838,-187.5 838,-168.5 786,-168.5"/>
<text text-anchor="middle" x="812" y="-175.5" font-family="Helvetica,sans-Serif" font-size="10.00" fill="#000000">sstream</text>
</g>
<!-- Node0&#45;&gt;Node21 -->
<g id="edge24" class="edge">
<title>Node0&#45;&gt;Node21</title>
<path fill="none" stroke="#191970" d="M716.7692,-224.3733C735.1469,-215.4241 762.7312,-201.9917 783.4893,-191.8835"/>
<polygon fill="#191970" stroke="#191970" points="785.0304,-195.026 792.4888,-187.5011 781.9657,-188.7325 785.0304,-195.026"/>
</g>
<!-- Node22 -->
<g id="node23" class="node">
<title>Node22</title>
<polygon fill="#ffffff" stroke="#bfbfbf" points="856.5,-168.5 856.5,-187.5 929.5,-187.5 929.5,-168.5 856.5,-168.5"/>
<text text-anchor="middle" x="893" y="-175.5" font-family="Helvetica,sans-Serif" font-size="10.00" fill="#000000">apfConvert.h</text>
</g>
<!-- Node0&#45;&gt;Node22 -->
<g id="edge25" class="edge">
<title>Node0&#45;&gt;Node22</title>
<path fill="none" stroke="#191970" d="M730.6936,-224.3733C763.7087,-214.9404 814.1573,-200.5265 850.0386,-190.2747"/>
<polygon fill="#191970" stroke="#191970" points="851.0924,-193.6137 859.7461,-187.5011 849.1693,-186.8831 851.0924,-193.6137"/>
</g>
<!-- Node23 -->
<g id="node24" class="node">
<title>Node23</title>
<polygon fill="#ffffff" stroke="#bfbfbf" points="947.5,-168.5 947.5,-187.5 1008.5,-187.5 1008.5,-168.5 947.5,-168.5"/>
<text text-anchor="middle" x="978" y="-175.5" font-family="Helvetica,sans-Serif" font-size="10.00" fill="#000000">gmi_null.h</text>
</g>
<!-- Node0&#45;&gt;Node23 -->
<g id="edge30" class="edge">
<title>Node0&#45;&gt;Node23</title>
<path fill="none" stroke="#191970" d="M748.1808,-225.2396C795.0885,-216.9927 866.678,-203.8608 937.4143,-188.2614"/>
<polygon fill="#191970" stroke="#191970" points="938.3851,-191.6311 947.3871,-186.0441 936.8659,-184.7979 938.3851,-191.6311"/>
</g>
<!-- Node24 -->
<g id="node25" class="node">
<title>Node24</title>
<polygon fill="#ffffff" stroke="#bfbfbf" points="1027,-168.5 1027,-187.5 1097,-187.5 1097,-168.5 1027,-168.5"/>
<text text-anchor="middle" x="1062" y="-175.5" font-family="Helvetica,sans-Serif" font-size="10.00" fill="#000000">gmi_mesh.h</text>
</g>
<!-- Node0&#45;&gt;Node24 -->
<g id="edge31" class="edge">
<title>Node0&#45;&gt;Node24</title>
<path fill="none" stroke="#191970" d="M748.0782,-227.9793C809.5398,-220.446 916.0534,-206.4736 1016.9316,-188.0788"/>
<polygon fill="#191970" stroke="#191970" points="1017.788,-191.48 1026.9886,-186.2265 1016.52,-184.5958 1017.788,-191.48"/>
</g>
<!-- Node25 -->
<g id="node26" class="node">
<title>Node25</title>
<polygon fill="#ffffff" stroke="#bfbfbf" points="1115.5,-168.5 1115.5,-187.5 1156.5,-187.5 1156.5,-168.5 1115.5,-168.5"/>
<text text-anchor="middle" x="1136" y="-175.5" font-family="Helvetica,sans-Serif" font-size="10.00" fill="#000000">gmi.h</text>
</g>
<!-- Node0&#45;&gt;Node25 -->
<g id="edge32" class="edge">
<title>Node0&#45;&gt;Node25</title>
<path fill="none" stroke="#191970" d="M748.2533,-231.6882C824.3716,-227.5011 971.7524,-216.4999 1105.1862,-187.7541"/>
<polygon fill="#191970" stroke="#191970" points="1106.1585,-191.1241 1115.1762,-185.5625 1104.6584,-184.2867 1106.1585,-191.1241"/>
</g>
<!-- Node26 -->
<g id="node27" class="node">
<title>Node26</title>
<polygon fill="#ffffff" stroke="#bfbfbf" points="1174.5,-168.5 1174.5,-187.5 1235.5,-187.5 1235.5,-168.5 1174.5,-168.5"/>
<text text-anchor="middle" x="1205" y="-175.5" font-family="Helvetica,sans-Serif" font-size="10.00" fill="#000000">apfMDS.h</text>
</g>
<!-- Node0&#45;&gt;Node26 -->
<g id="edge33" class="edge">
<title>Node0&#45;&gt;Node26</title>
<path fill="none" stroke="#191970" d="M748.0101,-231.5613C832.6682,-226.9553 1007.6024,-215.0701 1164.1556,-188.1058"/>
<polygon fill="#191970" stroke="#191970" points="1165.192,-191.4778 1174.4398,-186.3078 1163.9864,-184.5824 1165.192,-191.4778"/>
</g>
<!-- Node27 -->
<g id="node28" class="node">
<title>Node27</title>
<polygon fill="#ffffff" stroke="#bfbfbf" points="1254,-168.5 1254,-187.5 1292,-187.5 1292,-168.5 1254,-168.5"/>
<text text-anchor="middle" x="1273" y="-175.5" font-family="Helvetica,sans-Serif" font-size="10.00" fill="#000000">ma.h</text>
</g>
<!-- Node0&#45;&gt;Node27 -->
<g id="edge34" class="edge">
<title>Node0&#45;&gt;Node27</title>
<path fill="none" stroke="#191970" d="M748.1531,-231.4028C861.9132,-225.3607 1133.8584,-209.3776 1244.072,-187.6103"/>
<polygon fill="#191970" stroke="#191970" points="1244.8385,-191.0258 1253.9115,-185.5549 1243.4071,-184.1737 1244.8385,-191.0258"/>
</g>
<!-- Node28 -->
<g id="node29" class="node">
<title>Node28</title>
<polygon fill="#ffffff" stroke="#bfbfbf" points="1310,-168.5 1310,-187.5 1384,-187.5 1384,-168.5 1310,-168.5"/>
<text text-anchor="middle" x="1347" y="-175.5" font-family="Helvetica,sans-Serif" font-size="10.00" fill="#000000">gmi_lookup.h</text>
</g>
<!-- Node0&#45;&gt;Node28 -->
<g id="edge36" class="edge">
<title>Node0&#45;&gt;Node28</title>
<path fill="none" stroke="#191970" d="M748.1707,-232.4857C850.9623,-228.9282 1089.9406,-218.0615 1299.9456,-187.9678"/>
<polygon fill="#191970" stroke="#191970" points="1300.5295,-191.4199 1309.9233,-186.5202 1299.5243,-184.4924 1300.5295,-191.4199"/>
</g>
<!-- Node2&#45;&gt;Node3 -->
<g id="edge3" class="edge">
<title>Node2&#45;&gt;Node3</title>
<path fill="none" stroke="#191970" d="M283.5012,-168.4328C266.4053,-161.0802 245.3918,-149.2303 233,-132 223.3944,-118.6438 220.1147,-100.0764 219.1111,-86.0365"/>
<polygon fill="#191970" stroke="#191970" points="222.6042,-85.7892 218.7167,-75.9334 215.6095,-86.0623 222.6042,-85.7892"/>
</g>
<!-- Node13 -->
<g id="node14" class="node">
<title>Node13</title>
<g id="a_node14"><a xlink:href="cmesh_tools_module_8h.html" target="_top" xlink:title="cmeshToolsModule.h">
<polygon fill="#ffffff" stroke="#000000" points="242,-112.5 242,-131.5 352,-131.5 352,-112.5 242,-112.5"/>
<text text-anchor="middle" x="297" y="-119.5" font-family="Helvetica,sans-Serif" font-size="10.00" fill="#000000">cmeshToolsModule.h</text>
</a>
</g>
</g>
<!-- Node2&#45;&gt;Node13 -->
<g id="edge14" class="edge">
<title>Node2&#45;&gt;Node13</title>
<path fill="none" stroke="#191970" d="M308.5614,-168.2455C306.7145,-160.8579 304.1172,-150.4689 301.8522,-141.4087"/>
<polygon fill="#191970" stroke="#191970" points="305.2316,-140.4952 299.4107,-131.6427 298.4406,-142.193 305.2316,-140.4952"/>
</g>
<!-- Node2&#45;&gt;Node16 -->
<g id="edge18" class="edge">
<title>Node2&#45;&gt;Node16</title>
<path fill="none" stroke="#191970" d="M286.2455,-168.3733C261.1464,-158.6125 222.3333,-143.5185 195.8544,-133.2212"/>
<polygon fill="#191970" stroke="#191970" points="196.953,-129.8931 186.3644,-129.5306 194.4159,-136.4171 196.953,-129.8931"/>
</g>
<!-- Node2&#45;&gt;Node17 -->
<g id="edge19" class="edge">
<title>Node2&#45;&gt;Node17</title>
<path fill="none" stroke="#191970" d="M327.1994,-168.2455C341.6018,-159.5731 362.8732,-146.7645 379.3799,-136.825"/>
<polygon fill="#191970" stroke="#191970" points="381.225,-139.7996 387.9863,-131.6427 377.614,-133.8028 381.225,-139.7996"/>
</g>
<!-- Node2&#45;&gt;Node18 -->
<g id="edge20" class="edge">
<title>Node2&#45;&gt;Node18</title>
<path fill="none" stroke="#191970" d="M343.3184,-168.3733C374.8506,-158.9807 422.9621,-144.6496 457.3501,-134.4064"/>
<polygon fill="#191970" stroke="#191970" points="458.5187,-137.7103 467.1034,-131.5011 456.5203,-131.0016 458.5187,-137.7103"/>
</g>
<!-- Node3&#45;&gt;Node1 -->
<g id="edge6" class="edge">
<title>Node3&#45;&gt;Node1</title>
<path fill="none" stroke="#191970" d="M194.4211,-58.7936C161.865,-49.2484 104.1173,-32.3171 65.9418,-21.1243"/>
<polygon fill="#191970" stroke="#191970" points="66.7892,-17.7255 56.2084,-18.2705 64.8197,-24.4427 66.7892,-17.7255"/>
</g>
<!-- Node4 -->
<g id="node5" class="node">
<title>Node4</title>
<polygon fill="#ffffff" stroke="#bfbfbf" points="392,-.5 392,-19.5 422,-19.5 422,-.5 392,-.5"/>
<text text-anchor="middle" x="407" y="-7.5" font-family="Helvetica,sans-Serif" font-size="10.00" fill="#000000">set</text>
</g>
<!-- Node3&#45;&gt;Node4 -->
<g id="edge4" class="edge">
<title>Node3&#45;&gt;Node4</title>
<path fill="none" stroke="#191970" d="M243.8457,-58.3954C246.5941,-57.5767 249.3544,-56.7642 252,-56 307.0632,-40.0941 324.1833,-39.6539 382.2015,-19.9714"/>
<polygon fill="#191970" stroke="#191970" points="383.5594,-23.2056 391.8762,-16.6419 381.2815,-16.5865 383.5594,-23.2056"/>
</g>
<!-- Node5 -->
<g id="node6" class="node">
<title>Node5</title>
<polygon fill="#ffffff" stroke="#bfbfbf" points="440,-.5 440,-19.5 484,-19.5 484,-.5 440,-.5"/>
<text text-anchor="middle" x="462" y="-7.5" font-family="Helvetica,sans-Serif" font-size="10.00" fill="#000000">vector</text>
</g>
<!-- Node3&#45;&gt;Node5 -->
<g id="edge5" class="edge">
<title>Node3&#45;&gt;Node5</title>
<path fill="none" stroke="#191970" d="M243.7952,-58.2083C246.553,-57.4246 249.3294,-56.6716 252,-56 327.6244,-36.9835 350.6922,-40.1919 429.805,-20.0859"/>
<polygon fill="#191970" stroke="#191970" points="430.9338,-23.4092 439.738,-17.5154 429.18,-16.6324 430.9338,-23.4092"/>
</g>
<!-- Node3&#45;&gt;Node6 -->
<g id="edge7" class="edge">
<title>Node3&#45;&gt;Node6</title>
<path fill="none" stroke="#191970" d="M243.7628,-58.0726C246.5268,-57.3144 249.3134,-56.6043 252,-56 357.6594,-32.2329 386.6166,-40.282 493,-20 498.0067,-19.0455 503.3138,-17.9121 508.4275,-16.7571"/>
<polygon fill="#191970" stroke="#191970" points="509.5517,-20.0889 518.4939,-14.4066 507.96,-13.2722 509.5517,-20.0889"/>
</g>
<!-- Node7 -->
<g id="node8" class="node">
<title>Node7</title>
<polygon fill="#ffffff" stroke="#bfbfbf" points="74.5,-.5 74.5,-19.5 103.5,-19.5 103.5,-.5 74.5,-.5"/>
<text text-anchor="middle" x="89" y="-7.5" font-family="Helvetica,sans-Serif" font-size="10.00" fill="#000000">list</text>
</g>
<!-- Node3&#45;&gt;Node7 -->
<g id="edge8" class="edge">
<title>Node3&#45;&gt;Node7</title>
<path fill="none" stroke="#191970" d="M196.6522,-56.3733C173.4035,-46.3584 137.121,-30.729 113.2054,-20.4269"/>
<polygon fill="#191970" stroke="#191970" points="114.3559,-17.1117 103.7871,-16.3698 111.5865,-23.5406 114.3559,-17.1117"/>
</g>
<!-- Node8 -->
<g id="node9" class="node">
<title>Node8</title>
<polygon fill="#ffffff" stroke="#bfbfbf" points="122,-.5 122,-19.5 176,-19.5 176,-.5 122,-.5"/>
<text text-anchor="middle" x="149" y="-7.5" font-family="Helvetica,sans-Serif" font-size="10.00" fill="#000000">iostream</text>
</g>
<!-- Node3&#45;&gt;Node8 -->
<g id="edge9" class="edge">
<title>Node3&#45;&gt;Node8</title>
<path fill="none" stroke="#191970" d="M206.8069,-56.2455C196.3679,-47.8943 181.1345,-35.7076 168.926,-25.9408"/>
<polygon fill="#191970" stroke="#191970" points="171.0485,-23.1566 161.0533,-19.6427 166.6756,-28.6227 171.0485,-23.1566"/>
</g>
<!-- Node9 -->
<g id="node10" class="node">
<title>Node9</title>
<polygon fill="#ffffff" stroke="#bfbfbf" points="194,-.5 194,-19.5 244,-19.5 244,-.5 194,-.5"/>
<text text-anchor="middle" x="219" y="-7.5" font-family="Helvetica,sans-Serif" font-size="10.00" fill="#000000">iomanip</text>
</g>
<!-- Node3&#45;&gt;Node9 -->
<g id="edge10" class="edge">
<title>Node3&#45;&gt;Node9</title>
<path fill="none" stroke="#191970" d="M219,-56.2455C219,-48.9382 219,-38.6944 219,-29.7046"/>
<polygon fill="#191970" stroke="#191970" points="222.5001,-29.6426 219,-19.6427 215.5001,-29.6427 222.5001,-29.6426"/>
</g>
<!-- Node10 -->
<g id="node11" class="node">
<title>Node10</title>
<polygon fill="#ffffff" stroke="#bfbfbf" points="262,-.5 262,-19.5 312,-19.5 312,-.5 262,-.5"/>
<text text-anchor="middle" x="287" y="-7.5" font-family="Helvetica,sans-Serif" font-size="10.00" fill="#000000">fstream</text>
</g>
<!-- Node3&#45;&gt;Node10 -->
<g id="edge11" class="edge">
<title>Node3&#45;&gt;Node10</title>
<path fill="none" stroke="#191970" d="M230.8447,-56.2455C240.888,-47.9746 255.4995,-35.9416 267.3004,-26.2232"/>
<polygon fill="#191970" stroke="#191970" points="269.7967,-28.7015 275.291,-19.6427 265.3467,-23.298 269.7967,-28.7015"/>
</g>
<!-- Node3&#45;&gt;Node11 -->
<g id="edge12" class="edge">
<title>Node3&#45;&gt;Node11</title>
<path fill="none" stroke="#191970" d="M243.7434,-57.9828C246.511,-57.2414 249.3038,-56.5599 252,-56 388.239,-27.7102 426.0346,-44.5328 563,-20 565.1681,-19.6117 567.3924,-19.1766 569.6298,-18.7112"/>
<polygon fill="#191970" stroke="#191970" points="570.3951,-22.1266 579.3892,-16.5269 568.8661,-15.2956 570.3951,-22.1266"/>
</g>
<!-- Node12 -->
<g id="node13" class="node">
<title>Node12</title>
<polygon fill="#ffffff" stroke="#bfbfbf" points="330,-.5 330,-19.5 374,-19.5 374,-.5 330,-.5"/>
<text text-anchor="middle" x="352" y="-7.5" font-family="Helvetica,sans-Serif" font-size="10.00" fill="#000000">cmath</text>
</g>
<!-- Node3&#45;&gt;Node12 -->
<g id="edge13" class="edge">
<title>Node3&#45;&gt;Node12</title>
<path fill="none" stroke="#191970" d="M241.8635,-56.3733C263.5355,-47.2482 296.2779,-33.462 320.4331,-23.2913"/>
<polygon fill="#191970" stroke="#191970" points="322.0186,-26.4214 329.8768,-19.315 319.3022,-19.9699 322.0186,-26.4214"/>
</g>
<!-- Node13&#45;&gt;Node3 -->
<g id="edge17" class="edge">
<title>Node13&#45;&gt;Node3</title>
<path fill="none" stroke="#191970" d="M283.4134,-112.2455C271.6695,-103.814 254.4801,-91.4729 240.8118,-81.6598"/>
<polygon fill="#191970" stroke="#191970" points="242.5954,-78.6316 232.4309,-75.6427 238.5129,-84.3179 242.5954,-78.6316"/>
</g>
<!-- Node14 -->
<g id="node15" class="node">
<title>Node14</title>
<polygon fill="#ffffff" stroke="#bfbfbf" points="385,-56.5 385,-75.5 441,-75.5 441,-56.5 385,-56.5"/>
<text text-anchor="middle" x="413" y="-63.5" font-family="Helvetica,sans-Serif" font-size="10.00" fill="#000000">Python.h</text>
</g>
<!-- Node13&#45;&gt;Node14 -->
<g id="edge15" class="edge">
<title>Node13&#45;&gt;Node14</title>
<path fill="none" stroke="#191970" d="M316.9411,-112.3733C335.4786,-103.4241 363.3028,-89.9917 384.2413,-79.8835"/>
<polygon fill="#191970" stroke="#191970" points="385.8352,-83.0006 393.3191,-75.5011 382.7919,-76.6967 385.8352,-83.0006"/>
</g>
<!-- Node15 -->
<g id="node16" class="node">
<title>Node15</title>
<polygon fill="#ffffff" stroke="#bfbfbf" points="261.5,-56.5 261.5,-75.5 366.5,-75.5 366.5,-56.5 261.5,-56.5"/>
<text text-anchor="middle" x="314" y="-63.5" font-family="Helvetica,sans-Serif" font-size="10.00" fill="#000000">numpy/arrayobject.h</text>
</g>
<!-- Node13&#45;&gt;Node15 -->
<g id="edge16" class="edge">
<title>Node13&#45;&gt;Node15</title>
<path fill="none" stroke="#191970" d="M299.9612,-112.2455C302.2038,-104.8579 305.3577,-94.4689 308.1081,-85.4087"/>
<polygon fill="#191970" stroke="#191970" points="311.517,-86.2282 311.0728,-75.6427 304.8188,-84.1948 311.517,-86.2282"/>
</g>
</g>
</svg>
