<?xml version="1.0" encoding="UTF-8" standalone="no"?>
<!DOCTYPE svg PUBLIC "-//W3C//DTD SVG 1.1//EN"
 "http://www.w3.org/Graphics/SVG/1.1/DTD/svg11.dtd">
<!-- Generated by graphviz version 2.42.3 (0)
 -->
<!-- Title: MeshAdaptPUMI.h Pages: 1 -->
<svg width="1039pt" height="84pt"
 viewBox="0.00 0.00 1038.50 84.00" xmlns="http://www.w3.org/2000/svg" xmlns:xlink="http://www.w3.org/1999/xlink">
<g id="graph0" class="graph" transform="scale(1 1) rotate(0) translate(4 80)">
<title>MeshAdaptPUMI.h</title>
<polygon fill="white" stroke="transparent" points="-4,4 -4,-80 1034.5,-80 1034.5,4 -4,4"/>
<!-- Node1 -->
<g id="node1" class="node">
<title>Node1</title>
<g id="a_node1"><a xlink:title=" ">
<polygon fill="#bfbfbf" stroke="black" points="532,-56.5 532,-75.5 638,-75.5 638,-56.5 532,-56.5"/>
<text text-anchor="middle" x="585" y="-63.5" font-family="Helvetica,sans-Serif" font-size="10.00">MeshAdaptPUMI.h</text>
</a>
</g>
</g>
<!-- Node2 -->
<g id="node2" class="node">
<title>Node2</title>
<g id="a_node2"><a xlink:href="c_mesh_adapt_p_u_m_i_8cpp.html" target="_top" xlink:title=" ">
<polygon fill="white" stroke="black" points="0,-0.5 0,-19.5 122,-19.5 122,-0.5 0,-0.5"/>
<text text-anchor="middle" x="61" y="-7.5" font-family="Helvetica,sans-Serif" font-size="10.00">cMeshAdaptPUMI.cpp</text>
</a>
</g>
</g>
<!-- Node1&#45;&gt;Node2 -->
<g id="edge1" class="edge">
<title>Node1&#45;&gt;Node2</title>
<path fill="none" stroke="midnightblue" d="M521.76,-59.32C433.99,-51.3 270.29,-35.85 131,-20 128.08,-19.67 125.09,-19.32 122.07,-18.96"/>
<polygon fill="midnightblue" stroke="midnightblue" points="521.55,-62.81 531.83,-60.23 522.19,-55.84 521.55,-62.81"/>
</g>
<!-- Node3 -->
<g id="node3" class="node">
<title>Node3</title>
<g id="a_node3"><a xlink:href="create_analytic_geometry_8cpp.html" target="_top" xlink:title=" ">
<polygon fill="white" stroke="black" points="140.5,-0.5 140.5,-19.5 295.5,-19.5 295.5,-0.5 140.5,-0.5"/>
<text text-anchor="middle" x="218" y="-7.5" font-family="Helvetica,sans-Serif" font-size="10.00">createAnalyticGeometry.cpp</text>
</a>
</g>
</g>
<!-- Node1&#45;&gt;Node3 -->
<g id="edge2" class="edge">
<title>Node1&#45;&gt;Node3</title>
<path fill="none" stroke="midnightblue" d="M521.32,-55.63C452.2,-45.46 342.78,-29.36 275.97,-19.53"/>
<polygon fill="midnightblue" stroke="midnightblue" points="521.23,-59.15 531.64,-57.15 522.25,-52.23 521.23,-59.15"/>
</g>
<!-- Node4 -->
<g id="node4" class="node">
<title>Node4</title>
<g id="a_node4"><a xlink:href="_error_residual_method_8cpp.html" target="_top" xlink:title=" ">
<polygon fill="white" stroke="black" points="313.5,-0.5 313.5,-19.5 452.5,-19.5 452.5,-0.5 313.5,-0.5"/>
<text text-anchor="middle" x="383" y="-7.5" font-family="Helvetica,sans-Serif" font-size="10.00">ErrorResidualMethod.cpp</text>
</a>
</g>
</g>
<!-- Node1&#45;&gt;Node4 -->
<g id="edge3" class="edge">
<title>Node1&#45;&gt;Node4</title>
<path fill="none" stroke="midnightblue" d="M543.21,-53.83C505.07,-43.63 449.52,-28.78 414.86,-19.52"/>
<polygon fill="midnightblue" stroke="midnightblue" points="542.43,-57.24 552.99,-56.44 544.24,-50.48 542.43,-57.24"/>
</g>
<!-- Node5 -->
<g id="node5" class="node">
<title>Node5</title>
<g id="a_node5"><a xlink:href="_mesh_converter_8cpp.html" target="_top" xlink:title=" ">
<polygon fill="white" stroke="black" points="471,-0.5 471,-19.5 581,-19.5 581,-0.5 471,-0.5"/>
<text text-anchor="middle" x="526" y="-7.5" font-family="Helvetica,sans-Serif" font-size="10.00">MeshConverter.cpp</text>
</a>
</g>
</g>
<!-- Node1&#45;&gt;Node5 -->
<g id="edge4" class="edge">
<title>Node1&#45;&gt;Node5</title>
<path fill="none" stroke="midnightblue" d="M568.11,-49.54C557.59,-39.91 544.43,-27.87 535.65,-19.83"/>
<polygon fill="midnightblue" stroke="midnightblue" points="565.78,-52.15 575.52,-56.32 570.51,-46.99 565.78,-52.15"/>
</g>
<!-- Node6 -->
<g id="node6" class="node">
<title>Node6</title>
<g id="a_node6"><a xlink:href="_mesh_fields_8cpp.html" target="_top" xlink:title=" ">
<polygon fill="white" stroke="black" points="599,-0.5 599,-19.5 691,-19.5 691,-0.5 599,-0.5"/>
<text text-anchor="middle" x="645" y="-7.5" font-family="Helvetica,sans-Serif" font-size="10.00">MeshFields.cpp</text>
</a>
</g>
</g>
<!-- Node1&#45;&gt;Node6 -->
<g id="edge5" class="edge">
<title>Node1&#45;&gt;Node6</title>
<path fill="none" stroke="midnightblue" d="M602.18,-49.54C612.88,-39.91 626.26,-27.87 635.18,-19.83"/>
<polygon fill="midnightblue" stroke="midnightblue" points="599.73,-47.03 594.64,-56.32 604.41,-52.24 599.73,-47.03"/>
</g>
<!-- Node7 -->
<g id="node7" class="node">
<title>Node7</title>
<g id="a_node7"><a xlink:href="_parallel_mesh_converter_8cpp.html" target="_top" xlink:title=" ">
<polygon fill="white" stroke="black" points="709,-0.5 709,-19.5 855,-19.5 855,-0.5 709,-0.5"/>
<text text-anchor="middle" x="782" y="-7.5" font-family="Helvetica,sans-Serif" font-size="10.00">ParallelMeshConverter.cpp</text>
</a>
</g>
</g>
<!-- Node1&#45;&gt;Node7 -->
<g id="edge6" class="edge">
<title>Node1&#45;&gt;Node7</title>
<path fill="none" stroke="midnightblue" d="M626.23,-53.7C663.41,-43.51 717.27,-28.74 750.93,-19.52"/>
<polygon fill="midnightblue" stroke="midnightblue" points="624.93,-50.42 616.22,-56.44 626.78,-57.18 624.93,-50.42"/>
</g>
<!-- Node8 -->
<g id="node8" class="node">
<title>Node8</title>
<g id="a_node8"><a xlink:href="_size_field_8cpp.html" target="_top" xlink:title=" ">
<polygon fill="white" stroke="black" points="873,-0.5 873,-19.5 953,-19.5 953,-0.5 873,-0.5"/>
<text text-anchor="middle" x="913" y="-7.5" font-family="Helvetica,sans-Serif" font-size="10.00">SizeField.cpp</text>
</a>
</g>
</g>
<!-- Node1&#45;&gt;Node8 -->
<g id="edge7" class="edge">
<title>Node1&#45;&gt;Node8</title>
<path fill="none" stroke="midnightblue" d="M648.25,-55.2C704.84,-46.34 790.04,-32.76 864,-20 866.9,-19.5 869.89,-18.97 872.9,-18.44"/>
<polygon fill="midnightblue" stroke="midnightblue" points="647.36,-51.8 638.02,-56.8 648.44,-58.71 647.36,-51.8"/>
</g>
<!-- Node9 -->
<g id="node9" class="node">
<title>Node9</title>
<g id="a_node9"><a xlink:href="_v_m_s_8cpp.html" target="_top" xlink:title=" ">
<polygon fill="white" stroke="black" points="971.5,-0.5 971.5,-19.5 1030.5,-19.5 1030.5,-0.5 971.5,-0.5"/>
<text text-anchor="middle" x="1001" y="-7.5" font-family="Helvetica,sans-Serif" font-size="10.00">VMS.cpp</text>
</a>
</g>
</g>
<!-- Node1&#45;&gt;Node9 -->
<g id="edge8" class="edge">
<title>Node1&#45;&gt;Node9</title>
<path fill="none" stroke="midnightblue" d="M648.26,-59.55C723.4,-52.6 852.38,-39.13 962,-20 965.01,-19.47 968.14,-18.86 971.26,-18.21"/>
<polygon fill="midnightblue" stroke="midnightblue" points="647.66,-56.09 638.02,-60.49 648.3,-63.06 647.66,-56.09"/>
</g>
</g>
</svg>
