<?xml version="1.0" encoding="UTF-8" standalone="no"?>
<!DOCTYPE svg PUBLIC "-//W3C//DTD SVG 1.1//EN"
 "http://www.w3.org/Graphics/SVG/1.1/DTD/svg11.dtd">
<!-- Generated by graphviz version 2.40.1 (20161225.0304)
 -->
<!-- Title: MeshAdaptPUMI.h Pages: 1 -->
<svg width="816pt" height="84pt"
 viewBox="0.00 0.00 815.50 84.00" xmlns="http://www.w3.org/2000/svg" xmlns:xlink="http://www.w3.org/1999/xlink">
<g id="graph0" class="graph" transform="scale(1 1) rotate(0) translate(4 80)">
<title>MeshAdaptPUMI.h</title>
<polygon fill="#ffffff" stroke="transparent" points="-4,4 -4,-80 811.5,-80 811.5,4 -4,4"/>
<!-- Node18 -->
<g id="node1" class="node">
<title>Node18</title>
<polygon fill="#bfbfbf" stroke="#000000" points="393,-56.5 393,-75.5 493,-75.5 493,-56.5 393,-56.5"/>
<text text-anchor="middle" x="443" y="-63.5" font-family="Helvetica,sans-Serif" font-size="10.00" fill="#000000">MeshAdaptPUMI.h</text>
</g>
<!-- Node19 -->
<g id="node2" class="node">
<title>Node19</title>
<g id="a_node2"><a xlink:href="c_mesh_adapt_p_u_m_i_8cpp.html" target="_top" xlink:title="cMeshAdaptPUMI.cpp">
<polygon fill="#ffffff" stroke="#000000" points="0,-.5 0,-19.5 116,-19.5 116,-.5 0,-.5"/>
<text text-anchor="middle" x="58" y="-7.5" font-family="Helvetica,sans-Serif" font-size="10.00" fill="#000000">cMeshAdaptPUMI.cpp</text>
</a>
</g>
</g>
<!-- Node18&#45;&gt;Node19 -->
<g id="edge1" class="edge">
<title>Node18&#45;&gt;Node19</title>
<path fill="none" stroke="#191970" d="M382.9604,-57.3972C319.0147,-48.2154 214.8447,-33.203 125,-20 122.091,-19.5725 119.1113,-19.1332 116.1023,-18.6883"/>
<polygon fill="#191970" stroke="#191970" points="382.4737,-60.8631 392.8696,-58.8196 383.4684,-53.9341 382.4737,-60.8631"/>
</g>
<!-- Node20 -->
<g id="node3" class="node">
<title>Node20</title>
<g id="a_node3"><a xlink:href="_error_residual_method_8cpp.html" target="_top" xlink:title="ErrorResidualMethod.cpp">
<polygon fill="#ffffff" stroke="#000000" points="134.5,-.5 134.5,-19.5 261.5,-19.5 261.5,-.5 134.5,-.5"/>
<text text-anchor="middle" x="198" y="-7.5" font-family="Helvetica,sans-Serif" font-size="10.00" fill="#000000">ErrorResidualMethod.cpp</text>
</a>
</g>
</g>
<!-- Node18&#45;&gt;Node20 -->
<g id="edge2" class="edge">
<title>Node18&#45;&gt;Node20</title>
<path fill="none" stroke="#191970" d="M391.2767,-54.1775C346.1555,-43.8641 281.5335,-29.0934 239.6661,-19.5237"/>
<polygon fill="#191970" stroke="#191970" points="390.6329,-57.6206 401.1614,-56.4369 392.1927,-50.7966 390.6329,-57.6206"/>
</g>
<!-- Node21 -->
<g id="node4" class="node">
<title>Node21</title>
<g id="a_node4"><a xlink:href="_mesh_converter_8cpp.html" target="_top" xlink:title="MeshConverter.cpp">
<polygon fill="#ffffff" stroke="#000000" points="280,-.5 280,-19.5 382,-19.5 382,-.5 280,-.5"/>
<text text-anchor="middle" x="331" y="-7.5" font-family="Helvetica,sans-Serif" font-size="10.00" fill="#000000">MeshConverter.cpp</text>
</a>
</g>
</g>
<!-- Node18&#45;&gt;Node21 -->
<g id="edge3" class="edge">
<title>Node18&#45;&gt;Node21</title>
<path fill="none" stroke="#191970" d="M414.6737,-51.8368C394.4279,-41.7139 367.7358,-28.3679 350.0022,-19.5011"/>
<polygon fill="#191970" stroke="#191970" points="413.237,-55.0316 423.7465,-56.3733 416.3675,-48.7706 413.237,-55.0316"/>
</g>
<!-- Node22 -->
<g id="node5" class="node">
<title>Node22</title>
<g id="a_node5"><a xlink:href="_mesh_fields_8cpp.html" target="_top" xlink:title="MeshFields.cpp">
<polygon fill="#ffffff" stroke="#000000" points="400,-.5 400,-19.5 486,-19.5 486,-.5 400,-.5"/>
<text text-anchor="middle" x="443" y="-7.5" font-family="Helvetica,sans-Serif" font-size="10.00" fill="#000000">MeshFields.cpp</text>
</a>
</g>
</g>
<!-- Node18&#45;&gt;Node22 -->
<g id="edge4" class="edge">
<title>Node18&#45;&gt;Node22</title>
<path fill="none" stroke="#191970" d="M443,-46.1575C443,-37.155 443,-26.9199 443,-19.6427"/>
<polygon fill="#191970" stroke="#191970" points="439.5001,-46.2455 443,-56.2455 446.5001,-46.2456 439.5001,-46.2455"/>
</g>
<!-- Node23 -->
<g id="node6" class="node">
<title>Node23</title>
<g id="a_node6"><a xlink:href="_parallel_mesh_converter_8cpp.html" target="_top" xlink:title="ParallelMeshConverter.cpp">
<polygon fill="#ffffff" stroke="#000000" points="504,-.5 504,-19.5 638,-19.5 638,-.5 504,-.5"/>
<text text-anchor="middle" x="571" y="-7.5" font-family="Helvetica,sans-Serif" font-size="10.00" fill="#000000">ParallelMeshConverter.cpp</text>
</a>
</g>
</g>
<!-- Node18&#45;&gt;Node23 -->
<g id="edge5" class="edge">
<title>Node18&#45;&gt;Node23</title>
<path fill="none" stroke="#191970" d="M474.4348,-52.2473C497.6809,-42.0771 528.7411,-28.4883 549.2831,-19.5011"/>
<polygon fill="#191970" stroke="#191970" points="472.7627,-49.1585 465.004,-56.3733 475.5685,-55.5716 472.7627,-49.1585"/>
</g>
<!-- Node24 -->
<g id="node7" class="node">
<title>Node24</title>
<g id="a_node7"><a xlink:href="_size_field_8cpp.html" target="_top" xlink:title="SizeField.cpp">
<polygon fill="#ffffff" stroke="#000000" points="656,-.5 656,-19.5 732,-19.5 732,-.5 656,-.5"/>
<text text-anchor="middle" x="694" y="-7.5" font-family="Helvetica,sans-Serif" font-size="10.00" fill="#000000">SizeField.cpp</text>
</a>
</g>
</g>
<!-- Node18&#45;&gt;Node24 -->
<g id="edge6" class="edge">
<title>Node18&#45;&gt;Node24</title>
<path fill="none" stroke="#191970" d="M495.7377,-54.2338C543.6299,-43.5487 613.1189,-28.0452 655.8353,-18.5148"/>
<polygon fill="#191970" stroke="#191970" points="494.8611,-50.8433 485.8632,-56.4369 496.3854,-57.6753 494.8611,-50.8433"/>
</g>
<!-- Node25 -->
<g id="node8" class="node">
<title>Node25</title>
<g id="a_node8"><a xlink:href="_v_m_s_8cpp.html" target="_top" xlink:title="VMS.cpp">
<polygon fill="#ffffff" stroke="#000000" points="750.5,-.5 750.5,-19.5 807.5,-19.5 807.5,-.5 750.5,-.5"/>
<text text-anchor="middle" x="779" y="-7.5" font-family="Helvetica,sans-Serif" font-size="10.00" fill="#000000">VMS.cpp</text>
</a>
</g>
</g>
<!-- Node18&#45;&gt;Node25 -->
<g id="edge7" class="edge">
<title>Node18&#45;&gt;Node25</title>
<path fill="none" stroke="#191970" d="M503.238,-58.5759C563.6671,-50.6893 659.2449,-37.0189 741,-20 744.0722,-19.3605 747.2672,-18.6279 750.4418,-17.8564"/>
<polygon fill="#191970" stroke="#191970" points="502.5809,-55.1317 493.1128,-59.8861 503.4793,-62.0738 502.5809,-55.1317"/>
</g>
</g>
</svg>
