<?xml version="1.0" encoding="UTF-8" standalone="no"?>
<!DOCTYPE svg PUBLIC "-//W3C//DTD SVG 1.1//EN"
 "http://www.w3.org/Graphics/SVG/1.1/DTD/svg11.dtd">
<!-- Generated by graphviz version 2.40.1 (20161225.0304)
 -->
<!-- Title: MeshAdaptPUMI.h Pages: 1 -->
<svg width="668pt" height="196pt"
 viewBox="0.00 0.00 668.00 196.00" xmlns="http://www.w3.org/2000/svg" xmlns:xlink="http://www.w3.org/1999/xlink">
<g id="graph0" class="graph" transform="scale(1 1) rotate(0) translate(4 192)">
<title>MeshAdaptPUMI.h</title>
<polygon fill="#ffffff" stroke="transparent" points="-4,4 -4,-192 664,-192 664,4 -4,4"/>
<!-- Node0 -->
<g id="node1" class="node">
<title>Node0</title>
<polygon fill="#bfbfbf" stroke="#000000" points="401,-168.5 401,-187.5 501,-187.5 501,-168.5 401,-168.5"/>
<text text-anchor="middle" x="451" y="-175.5" font-family="Helvetica,sans-Serif" font-size="10.00" fill="#000000">MeshAdaptPUMI.h</text>
</g>
<!-- Node1 -->
<g id="node2" class="node">
<title>Node1</title>
<g id="a_node2"><a xlink:href="mesh_8h.html" target="_top" xlink:title="mesh.h">
<polygon fill="#ffffff" stroke="#000000" points="257.5,-56.5 257.5,-75.5 306.5,-75.5 306.5,-56.5 257.5,-56.5"/>
<text text-anchor="middle" x="282" y="-63.5" font-family="Helvetica,sans-Serif" font-size="10.00" fill="#000000">mesh.h</text>
</a>
</g>
</g>
<!-- Node0&#45;&gt;Node1 -->
<g id="edge1" class="edge">
<title>Node0&#45;&gt;Node1</title>
<path fill="none" stroke="#191970" d="M400.6484,-169.0019C360.7152,-160.8396 309.3156,-147.7013 295,-132 283.8245,-119.7427 281.048,-100.7707 280.7907,-86.3076"/>
<polygon fill="#191970" stroke="#191970" points="284.2988,-85.9618 281.0122,-75.8897 277.3004,-85.813 284.2988,-85.9618"/>
</g>
<!-- Node12 -->
<g id="node13" class="node">
<title>Node12</title>
<g id="a_node13"><a xlink:href="cmesh_tools_module_8h.html" target="_top" xlink:title="cmeshToolsModule.h">
<polygon fill="#ffffff" stroke="#000000" points="304,-112.5 304,-131.5 414,-131.5 414,-112.5 304,-112.5"/>
<text text-anchor="middle" x="359" y="-119.5" font-family="Helvetica,sans-Serif" font-size="10.00" fill="#000000">cmeshToolsModule.h</text>
</a>
</g>
</g>
<!-- Node0&#45;&gt;Node12 -->
<g id="edge12" class="edge">
<title>Node0&#45;&gt;Node12</title>
<path fill="none" stroke="#191970" d="M434.9748,-168.2455C420.8592,-159.6534 400.0737,-147.0014 383.8101,-137.1018"/>
<polygon fill="#191970" stroke="#191970" points="385.2034,-133.8525 374.8415,-131.6427 381.5637,-139.8319 385.2034,-133.8525"/>
</g>
<!-- Node15 -->
<g id="node16" class="node">
<title>Node15</title>
<polygon fill="#ffffff" stroke="#bfbfbf" points="432,-112.5 432,-131.5 470,-131.5 470,-112.5 432,-112.5"/>
<text text-anchor="middle" x="451" y="-119.5" font-family="Helvetica,sans-Serif" font-size="10.00" fill="#000000">apf.h</text>
</g>
<!-- Node0&#45;&gt;Node15 -->
<g id="edge16" class="edge">
<title>Node0&#45;&gt;Node15</title>
<path fill="none" stroke="#191970" d="M451,-168.2455C451,-160.9382 451,-150.6944 451,-141.7046"/>
<polygon fill="#191970" stroke="#191970" points="454.5001,-141.6426 451,-131.6427 447.5001,-141.6427 454.5001,-141.6426"/>
</g>
<!-- Node16 -->
<g id="node17" class="node">
<title>Node16</title>
<polygon fill="#ffffff" stroke="#bfbfbf" points="488,-112.5 488,-131.5 556,-131.5 556,-112.5 488,-112.5"/>
<text text-anchor="middle" x="522" y="-119.5" font-family="Helvetica,sans-Serif" font-size="10.00" fill="#000000">apfMesh2.h</text>
</g>
<!-- Node0&#45;&gt;Node16 -->
<g id="edge17" class="edge">
<title>Node0&#45;&gt;Node16</title>
<path fill="none" stroke="#191970" d="M463.3673,-168.2455C473.9554,-159.8943 489.4064,-147.7076 501.7893,-137.9408"/>
<polygon fill="#191970" stroke="#191970" points="504.0903,-140.5837 509.7745,-131.6427 499.7553,-135.0875 504.0903,-140.5837"/>
</g>
<!-- Node17 -->
<g id="node18" class="node">
<title>Node17</title>
<polygon fill="#ffffff" stroke="#bfbfbf" points="574,-112.5 574,-131.5 660,-131.5 660,-112.5 574,-112.5"/>
<text text-anchor="middle" x="617" y="-119.5" font-family="Helvetica,sans-Serif" font-size="10.00" fill="#000000">apfNumbering.h</text>
</g>
<!-- Node0&#45;&gt;Node17 -->
<g id="edge18" class="edge">
<title>Node0&#45;&gt;Node17</title>
<path fill="none" stroke="#191970" d="M479.5364,-168.3733C507.0202,-159.1016 548.7686,-145.0178 579.0452,-134.804"/>
<polygon fill="#191970" stroke="#191970" points="580.4794,-138.0141 588.836,-131.5011 578.2418,-131.3813 580.4794,-138.0141"/>
</g>
<!-- Node2 -->
<g id="node3" class="node">
<title>Node2</title>
<polygon fill="#ffffff" stroke="#bfbfbf" points="0,-.5 0,-19.5 30,-19.5 30,-.5 0,-.5"/>
<text text-anchor="middle" x="15" y="-7.5" font-family="Helvetica,sans-Serif" font-size="10.00" fill="#000000">set</text>
</g>
<!-- Node1&#45;&gt;Node2 -->
<g id="edge2" class="edge">
<title>Node1&#45;&gt;Node2</title>
<path fill="none" stroke="#191970" d="M257.457,-63.0703C214.7956,-57.6153 124.2052,-44.4292 39.7913,-19.7396"/>
<polygon fill="#191970" stroke="#191970" points="40.6455,-16.3421 30.0621,-16.8336 38.6421,-23.0492 40.6455,-16.3421"/>
</g>
<!-- Node3 -->
<g id="node4" class="node">
<title>Node3</title>
<polygon fill="#ffffff" stroke="#bfbfbf" points="48,-.5 48,-19.5 92,-19.5 92,-.5 48,-.5"/>
<text text-anchor="middle" x="70" y="-7.5" font-family="Helvetica,sans-Serif" font-size="10.00" fill="#000000">vector</text>
</g>
<!-- Node1&#45;&gt;Node3 -->
<g id="edge3" class="edge">
<title>Node1&#45;&gt;Node3</title>
<path fill="none" stroke="#191970" d="M257.2753,-60.2401C224.0765,-52.3934 163.0648,-37.5795 102.0822,-20.1913"/>
<polygon fill="#191970" stroke="#191970" points="102.8771,-16.7782 92.2994,-17.3792 100.9432,-23.5057 102.8771,-16.7782"/>
</g>
<!-- Node4 -->
<g id="node5" class="node">
<title>Node4</title>
<polygon fill="#ffffff" stroke="#bfbfbf" points="110,-.5 110,-19.5 166,-19.5 166,-.5 110,-.5"/>
<text text-anchor="middle" x="138" y="-7.5" font-family="Helvetica,sans-Serif" font-size="10.00" fill="#000000">algorithm</text>
</g>
<!-- Node1&#45;&gt;Node4 -->
<g id="edge4" class="edge">
<title>Node1&#45;&gt;Node4</title>
<path fill="none" stroke="#191970" d="M257.2455,-56.3733C233.7151,-47.2226 198.1313,-33.3844 171.9574,-23.2057"/>
<polygon fill="#191970" stroke="#191970" points="173.0201,-19.8636 162.4315,-19.5011 170.4829,-26.3877 173.0201,-19.8636"/>
</g>
<!-- Node5 -->
<g id="node6" class="node">
<title>Node5</title>
<polygon fill="#ffffff" stroke="#bfbfbf" points="184.5,-.5 184.5,-19.5 219.5,-19.5 219.5,-.5 184.5,-.5"/>
<text text-anchor="middle" x="202" y="-7.5" font-family="Helvetica,sans-Serif" font-size="10.00" fill="#000000">map</text>
</g>
<!-- Node1&#45;&gt;Node5 -->
<g id="edge5" class="edge">
<title>Node1&#45;&gt;Node5</title>
<path fill="none" stroke="#191970" d="M268.0651,-56.2455C255.9053,-47.7337 238.0536,-35.2375 223.9715,-25.3801"/>
<polygon fill="#191970" stroke="#191970" points="225.9747,-22.51 215.7752,-19.6427 221.9605,-28.2447 225.9747,-22.51"/>
</g>
<!-- Node6 -->
<g id="node7" class="node">
<title>Node6</title>
<polygon fill="#ffffff" stroke="#bfbfbf" points="237.5,-.5 237.5,-19.5 266.5,-19.5 266.5,-.5 237.5,-.5"/>
<text text-anchor="middle" x="252" y="-7.5" font-family="Helvetica,sans-Serif" font-size="10.00" fill="#000000">list</text>
</g>
<!-- Node1&#45;&gt;Node6 -->
<g id="edge6" class="edge">
<title>Node1&#45;&gt;Node6</title>
<path fill="none" stroke="#191970" d="M276.7744,-56.2455C272.6877,-48.617 266.8865,-37.7881 261.925,-28.5267"/>
<polygon fill="#191970" stroke="#191970" points="264.9732,-26.8047 257.1657,-19.6427 258.8028,-30.1103 264.9732,-26.8047"/>
</g>
<!-- Node7 -->
<g id="node8" class="node">
<title>Node7</title>
<polygon fill="#ffffff" stroke="#bfbfbf" points="285,-.5 285,-19.5 339,-19.5 339,-.5 285,-.5"/>
<text text-anchor="middle" x="312" y="-7.5" font-family="Helvetica,sans-Serif" font-size="10.00" fill="#000000">iostream</text>
</g>
<!-- Node1&#45;&gt;Node7 -->
<g id="edge7" class="edge">
<title>Node1&#45;&gt;Node7</title>
<path fill="none" stroke="#191970" d="M287.2256,-56.2455C291.3123,-48.617 297.1135,-37.7881 302.075,-28.5267"/>
<polygon fill="#191970" stroke="#191970" points="305.1972,-30.1103 306.8343,-19.6427 299.0268,-26.8047 305.1972,-30.1103"/>
</g>
<!-- Node8 -->
<g id="node9" class="node">
<title>Node8</title>
<polygon fill="#ffffff" stroke="#bfbfbf" points="357,-.5 357,-19.5 407,-19.5 407,-.5 357,-.5"/>
<text text-anchor="middle" x="382" y="-7.5" font-family="Helvetica,sans-Serif" font-size="10.00" fill="#000000">iomanip</text>
</g>
<!-- Node1&#45;&gt;Node8 -->
<g id="edge8" class="edge">
<title>Node1&#45;&gt;Node8</title>
<path fill="none" stroke="#191970" d="M299.4187,-56.2455C315.0485,-47.4928 338.2019,-34.527 356.0185,-24.5496"/>
<polygon fill="#191970" stroke="#191970" points="357.766,-27.5825 364.7809,-19.6427 354.3457,-21.475 357.766,-27.5825"/>
</g>
<!-- Node9 -->
<g id="node10" class="node">
<title>Node9</title>
<polygon fill="#ffffff" stroke="#bfbfbf" points="425,-.5 425,-19.5 475,-19.5 475,-.5 425,-.5"/>
<text text-anchor="middle" x="450" y="-7.5" font-family="Helvetica,sans-Serif" font-size="10.00" fill="#000000">fstream</text>
</g>
<!-- Node1&#45;&gt;Node9 -->
<g id="edge9" class="edge">
<title>Node1&#45;&gt;Node9</title>
<path fill="none" stroke="#191970" d="M306.789,-57.737C335.4916,-48.1695 382.9607,-32.3464 415.316,-21.5613"/>
<polygon fill="#191970" stroke="#191970" points="416.4545,-24.8712 424.8345,-18.3885 414.2409,-18.2304 416.4545,-24.8712"/>
</g>
<!-- Node10 -->
<g id="node11" class="node">
<title>Node10</title>
<polygon fill="#ffffff" stroke="#bfbfbf" points="493.5,-.5 493.5,-19.5 542.5,-19.5 542.5,-.5 493.5,-.5"/>
<text text-anchor="middle" x="518" y="-7.5" font-family="Helvetica,sans-Serif" font-size="10.00" fill="#000000">cassert</text>
</g>
<!-- Node1&#45;&gt;Node10 -->
<g id="edge10" class="edge">
<title>Node1&#45;&gt;Node10</title>
<path fill="none" stroke="#191970" d="M306.6356,-59.1608C310.7553,-58.0691 314.9921,-56.9782 319,-56 388.9273,-38.9329 409.6043,-38.5992 483.4051,-20.0115"/>
<polygon fill="#191970" stroke="#191970" points="484.3472,-23.3834 493.174,-17.5236 482.6195,-16.5999 484.3472,-23.3834"/>
</g>
<!-- Node11 -->
<g id="node12" class="node">
<title>Node11</title>
<polygon fill="#ffffff" stroke="#bfbfbf" points="561,-.5 561,-19.5 605,-19.5 605,-.5 561,-.5"/>
<text text-anchor="middle" x="583" y="-7.5" font-family="Helvetica,sans-Serif" font-size="10.00" fill="#000000">cmath</text>
</g>
<!-- Node1&#45;&gt;Node11 -->
<g id="edge11" class="edge">
<title>Node1&#45;&gt;Node11</title>
<path fill="none" stroke="#191970" d="M306.587,-58.9477C310.7126,-57.8816 314.9639,-56.8545 319,-56 418.4088,-34.9542 448.2441,-43.5923 550.9338,-19.9488"/>
<polygon fill="#191970" stroke="#191970" points="551.8342,-23.3326 560.7686,-17.6382 550.2331,-16.5182 551.8342,-23.3326"/>
</g>
<!-- Node12&#45;&gt;Node1 -->
<g id="edge15" class="edge">
<title>Node12&#45;&gt;Node1</title>
<path fill="none" stroke="#191970" d="M345.5876,-112.2455C333.9943,-103.814 317.0252,-91.4729 303.5322,-81.6598"/>
<polygon fill="#191970" stroke="#191970" points="305.4047,-78.6938 295.2587,-75.6427 301.2874,-84.355 305.4047,-78.6938"/>
</g>
<!-- Node13 -->
<g id="node14" class="node">
<title>Node13</title>
<polygon fill="#ffffff" stroke="#bfbfbf" points="328,-56.5 328,-75.5 384,-75.5 384,-56.5 328,-56.5"/>
<text text-anchor="middle" x="356" y="-63.5" font-family="Helvetica,sans-Serif" font-size="10.00" fill="#000000">Python.h</text>
</g>
<!-- Node12&#45;&gt;Node13 -->
<g id="edge13" class="edge">
<title>Node12&#45;&gt;Node13</title>
<path fill="none" stroke="#191970" d="M358.4774,-112.2455C358.086,-104.9382 357.5372,-94.6944 357.0556,-85.7046"/>
<polygon fill="#191970" stroke="#191970" points="360.5466,-85.4411 356.5166,-75.6427 353.5566,-85.8156 360.5466,-85.4411"/>
</g>
<!-- Node14 -->
<g id="node15" class="node">
<title>Node14</title>
<polygon fill="#ffffff" stroke="#bfbfbf" points="402.5,-56.5 402.5,-75.5 507.5,-75.5 507.5,-56.5 402.5,-56.5"/>
<text text-anchor="middle" x="455" y="-63.5" font-family="Helvetica,sans-Serif" font-size="10.00" fill="#000000">numpy/arrayobject.h</text>
</g>
<!-- Node12&#45;&gt;Node14 -->
<g id="edge14" class="edge">
<title>Node12&#45;&gt;Node14</title>
<path fill="none" stroke="#191970" d="M375.7219,-112.2455C390.5889,-103.5731 412.5466,-90.7645 429.5858,-80.825"/>
<polygon fill="#191970" stroke="#191970" points="431.5955,-83.7047 438.4697,-75.6427 428.0683,-77.6582 431.5955,-83.7047"/>
</g>
</g>
</svg>
