<?xml version="1.0" encoding="UTF-8" standalone="no"?>
<!DOCTYPE svg PUBLIC "-//W3C//DTD SVG 1.1//EN"
 "http://www.w3.org/Graphics/SVG/1.1/DTD/svg11.dtd">
<!-- Generated by graphviz version 2.42.3 (0)
 -->
<!-- Title: MixedModelFactory.h Pages: 1 -->
<svg width="168pt" height="84pt"
 viewBox="0.00 0.00 167.50 84.00" xmlns="http://www.w3.org/2000/svg" xmlns:xlink="http://www.w3.org/1999/xlink">
<g id="graph0" class="graph" transform="scale(1 1) rotate(0) translate(4 80)">
<title>MixedModelFactory.h</title>
<polygon fill="white" stroke="transparent" points="-4,4 -4,-80 163.5,-80 163.5,4 -4,4"/>
<!-- Node1 -->
<g id="node1" class="node">
<title>Node1</title>
<g id="a_node1"><a xlink:title=" ">
<polygon fill="#bfbfbf" stroke="black" points="16,-56.5 16,-75.5 135,-75.5 135,-56.5 16,-56.5"/>
<text text-anchor="middle" x="75.5" y="-63.5" font-family="Helvetica,sans-Serif" font-size="10.00">MixedModelFactory.h</text>
</a>
</g>
</g>
<!-- Node2 -->
<g id="node2" class="node">
<title>Node2</title>
<g id="a_node2"><a xlink:href="_r_a_n_s2_p_8h.html" target="_top" xlink:title=" ">
<polygon fill="white" stroke="black" points="0,-0.5 0,-19.5 63,-19.5 63,-0.5 0,-0.5"/>
<text text-anchor="middle" x="31.5" y="-7.5" font-family="Helvetica,sans-Serif" font-size="10.00">RANS2P.h</text>
</a>
</g>
</g>
<!-- Node1&#45;&gt;Node2 -->
<g id="edge1" class="edge">
<title>Node1&#45;&gt;Node2</title>
<path fill="none" stroke="midnightblue" d="M61.77,-48.14C54.1,-38.74 44.87,-27.4 38.63,-19.75"/>
<polygon fill="midnightblue" stroke="midnightblue" points="59.2,-50.54 68.23,-56.08 64.63,-46.12 59.2,-50.54"/>
</g>
<!-- Node3 -->
<g id="node3" class="node">
<title>Node3</title>
<g id="a_node3"><a xlink:href="_r_a_n_s2_p2_d_8h.html" target="_top" xlink:title=" ">
<polygon fill="white" stroke="black" points="81.5,-0.5 81.5,-19.5 159.5,-19.5 159.5,-0.5 81.5,-0.5"/>
<text text-anchor="middle" x="120.5" y="-7.5" font-family="Helvetica,sans-Serif" font-size="10.00">RANS2P2D.h</text>
</a>
</g>
</g>
<!-- Node1&#45;&gt;Node3 -->
<g id="edge2" class="edge">
<title>Node1&#45;&gt;Node3</title>
<path fill="none" stroke="midnightblue" d="M89.55,-48.14C97.39,-38.74 106.83,-27.4 113.21,-19.75"/>
<polygon fill="midnightblue" stroke="midnightblue" points="86.64,-46.16 82.93,-56.08 92.02,-50.64 86.64,-46.16"/>
</g>
</g>
</svg>
