<?xml version="1.0" encoding="UTF-8" standalone="no"?>
<!DOCTYPE svg PUBLIC "-//W3C//DTD SVG 1.1//EN"
 "http://www.w3.org/Graphics/SVG/1.1/DTD/svg11.dtd">
<!-- Generated by graphviz version 2.42.3 (0)
 -->
<!-- Title: ModelFactory.h Pages: 1 -->
<svg width="2586pt" height="84pt"
 viewBox="0.00 0.00 2585.50 84.00" xmlns="http://www.w3.org/2000/svg" xmlns:xlink="http://www.w3.org/1999/xlink">
<g id="graph0" class="graph" transform="scale(1 1) rotate(0) translate(4 80)">
<title>ModelFactory.h</title>
<polygon fill="white" stroke="transparent" points="-4,4 -4,-80 2581.5,-80 2581.5,4 -4,4"/>
<!-- Node1 -->
<g id="node1" class="node">
<title>Node1</title>
<g id="a_node1"><a xlink:title=" ">
<polygon fill="#bfbfbf" stroke="black" points="1285,-56.5 1285,-75.5 1374,-75.5 1374,-56.5 1285,-56.5"/>
<text text-anchor="middle" x="1329.5" y="-63.5" font-family="Helvetica,sans-Serif" font-size="10.00">ModelFactory.h</text>
</a>
</g>
</g>
<!-- Node2 -->
<g id="node2" class="node">
<title>Node2</title>
<g id="a_node2"><a xlink:href="_a_d_r_8h.html" target="_top" xlink:title=" ">
<polygon fill="white" stroke="black" points="0,-0.5 0,-19.5 47,-19.5 47,-0.5 0,-0.5"/>
<text text-anchor="middle" x="23.5" y="-7.5" font-family="Helvetica,sans-Serif" font-size="10.00">ADR.h</text>
</a>
</g>
</g>
<!-- Node1&#45;&gt;Node2 -->
<g id="edge1" class="edge">
<title>Node1&#45;&gt;Node2</title>
<path fill="none" stroke="midnightblue" d="M1274.72,-64.74C1062.82,-63.5 296.77,-56.51 56.5,-20 53.45,-19.54 50.27,-18.89 47.15,-18.15"/>
<polygon fill="midnightblue" stroke="midnightblue" points="1274.95,-68.25 1284.97,-64.8 1274.99,-61.25 1274.95,-68.25"/>
</g>
<!-- Node3 -->
<g id="node3" class="node">
<title>Node3</title>
<g id="a_node3"><a xlink:href="_elasto_plastic_8h.html" target="_top" xlink:title=" ">
<polygon fill="white" stroke="black" points="65.5,-0.5 65.5,-19.5 153.5,-19.5 153.5,-0.5 65.5,-0.5"/>
<text text-anchor="middle" x="109.5" y="-7.5" font-family="Helvetica,sans-Serif" font-size="10.00">ElastoPlastic.h</text>
</a>
</g>
</g>
<!-- Node1&#45;&gt;Node3 -->
<g id="edge2" class="edge">
<title>Node1&#45;&gt;Node3</title>
<path fill="none" stroke="midnightblue" d="M1274.8,-65.4C1107.68,-66.1 589.18,-64.27 162.5,-20 159.62,-19.7 156.66,-19.34 153.69,-18.94"/>
<polygon fill="midnightblue" stroke="midnightblue" points="1274.85,-68.9 1284.84,-65.36 1274.82,-61.9 1274.85,-68.9"/>
</g>
<!-- Node4 -->
<g id="node4" class="node">
<title>Node4</title>
<g id="a_node4"><a xlink:href="_added_mass_8h.html" target="_top" xlink:title=" ">
<polygon fill="white" stroke="black" points="171.5,-0.5 171.5,-19.5 253.5,-19.5 253.5,-0.5 171.5,-0.5"/>
<text text-anchor="middle" x="212.5" y="-7.5" font-family="Helvetica,sans-Serif" font-size="10.00">AddedMass.h</text>
</a>
</g>
</g>
<!-- Node1&#45;&gt;Node4 -->
<g id="edge3" class="edge">
<title>Node1&#45;&gt;Node4</title>
<path fill="none" stroke="midnightblue" d="M1274.47,-65.31C1116.51,-65.64 648.24,-62.65 262.5,-20 259.61,-19.68 256.63,-19.29 253.64,-18.86"/>
<polygon fill="midnightblue" stroke="midnightblue" points="1274.88,-68.81 1284.87,-65.28 1274.86,-61.81 1274.88,-68.81"/>
</g>
<!-- Node5 -->
<g id="node5" class="node">
<title>Node5</title>
<g id="a_node5"><a xlink:href="_c_l_s_v_o_f_8h.html" target="_top" xlink:title=" ">
<polygon fill="white" stroke="black" points="271.5,-0.5 271.5,-19.5 333.5,-19.5 333.5,-0.5 271.5,-0.5"/>
<text text-anchor="middle" x="302.5" y="-7.5" font-family="Helvetica,sans-Serif" font-size="10.00">CLSVOF.h</text>
</a>
</g>
</g>
<!-- Node1&#45;&gt;Node5 -->
<g id="edge4" class="edge">
<title>Node1&#45;&gt;Node5</title>
<path fill="none" stroke="midnightblue" d="M1274.72,-63.77C1095.08,-59.54 524.92,-44.49 342.5,-20 339.68,-19.62 336.76,-19.14 333.85,-18.6"/>
<polygon fill="midnightblue" stroke="midnightblue" points="1274.91,-67.28 1284.99,-64.01 1275.07,-60.28 1274.91,-67.28"/>
</g>
<!-- Node6 -->
<g id="node6" class="node">
<title>Node6</title>
<g id="a_node6"><a xlink:href="_dissipation_8h.html" target="_top" xlink:title=" ">
<polygon fill="white" stroke="black" points="351.5,-0.5 351.5,-19.5 431.5,-19.5 431.5,-0.5 351.5,-0.5"/>
<text text-anchor="middle" x="391.5" y="-7.5" font-family="Helvetica,sans-Serif" font-size="10.00">Dissipation.h</text>
</a>
</g>
</g>
<!-- Node1&#45;&gt;Node6 -->
<g id="edge5" class="edge">
<title>Node1&#45;&gt;Node6</title>
<path fill="none" stroke="midnightblue" d="M1274.92,-64.72C1135.48,-63.47 754.97,-56.68 440.5,-20 437.58,-19.66 434.57,-19.25 431.55,-18.8"/>
<polygon fill="midnightblue" stroke="midnightblue" points="1274.9,-68.22 1284.93,-64.81 1274.96,-61.22 1274.9,-68.22"/>
</g>
<!-- Node7 -->
<g id="node7" class="node">
<title>Node7</title>
<g id="a_node7"><a xlink:href="_dissipation2_d_8h.html" target="_top" xlink:title=" ">
<polygon fill="white" stroke="black" points="449.5,-0.5 449.5,-19.5 543.5,-19.5 543.5,-0.5 449.5,-0.5"/>
<text text-anchor="middle" x="496.5" y="-7.5" font-family="Helvetica,sans-Serif" font-size="10.00">Dissipation2D.h</text>
</a>
</g>
</g>
<!-- Node1&#45;&gt;Node7 -->
<g id="edge6" class="edge">
<title>Node1&#45;&gt;Node7</title>
<path fill="none" stroke="midnightblue" d="M1274.43,-63.73C1147.04,-60.37 822.3,-49.42 552.5,-20 549.56,-19.68 546.55,-19.31 543.51,-18.91"/>
<polygon fill="midnightblue" stroke="midnightblue" points="1274.61,-67.24 1284.7,-64 1274.79,-60.24 1274.61,-67.24"/>
</g>
<!-- Node8 -->
<g id="node8" class="node">
<title>Node8</title>
<g id="a_node8"><a xlink:href="_g_n___s_w2_d_c_v_8h.html" target="_top" xlink:title=" ">
<polygon fill="white" stroke="black" points="562,-0.5 562,-19.5 649,-19.5 649,-0.5 562,-0.5"/>
<text text-anchor="middle" x="605.5" y="-7.5" font-family="Helvetica,sans-Serif" font-size="10.00">GN_SW2DCV.h</text>
</a>
</g>
</g>
<!-- Node1&#45;&gt;Node8 -->
<g id="edge7" class="edge">
<title>Node1&#45;&gt;Node8</title>
<path fill="none" stroke="midnightblue" d="M1274.73,-63.21C1160.06,-59.04 886.47,-46.93 658.5,-20 655.44,-19.64 652.29,-19.22 649.12,-18.77"/>
<polygon fill="midnightblue" stroke="midnightblue" points="1274.88,-66.71 1285,-63.57 1275.13,-59.72 1274.88,-66.71"/>
</g>
<!-- Node9 -->
<g id="node9" class="node">
<title>Node9</title>
<g id="a_node9"><a xlink:href="_kappa_8h.html" target="_top" xlink:title=" ">
<polygon fill="white" stroke="black" points="667.5,-0.5 667.5,-19.5 723.5,-19.5 723.5,-0.5 667.5,-0.5"/>
<text text-anchor="middle" x="695.5" y="-7.5" font-family="Helvetica,sans-Serif" font-size="10.00">Kappa.h</text>
</a>
</g>
</g>
<!-- Node1&#45;&gt;Node9 -->
<g id="edge8" class="edge">
<title>Node1&#45;&gt;Node9</title>
<path fill="none" stroke="midnightblue" d="M1274.55,-63.85C1168.92,-60.99 930.46,-51.32 732.5,-20 729.63,-19.55 726.65,-18.98 723.69,-18.36"/>
<polygon fill="midnightblue" stroke="midnightblue" points="1274.56,-67.36 1284.65,-64.12 1274.75,-60.36 1274.56,-67.36"/>
</g>
<!-- Node10 -->
<g id="node10" class="node">
<title>Node10</title>
<g id="a_node10"><a xlink:href="_kappa2_d_8h.html" target="_top" xlink:title=" ">
<polygon fill="white" stroke="black" points="741.5,-0.5 741.5,-19.5 811.5,-19.5 811.5,-0.5 741.5,-0.5"/>
<text text-anchor="middle" x="776.5" y="-7.5" font-family="Helvetica,sans-Serif" font-size="10.00">Kappa2D.h</text>
</a>
</g>
</g>
<!-- Node1&#45;&gt;Node10 -->
<g id="edge9" class="edge">
<title>Node1&#45;&gt;Node10</title>
<path fill="none" stroke="midnightblue" d="M1274.62,-62.2C1181.07,-56.96 984.86,-44 820.5,-20 817.57,-19.57 814.54,-19.07 811.5,-18.53"/>
<polygon fill="midnightblue" stroke="midnightblue" points="1274.53,-65.7 1284.71,-62.75 1274.91,-58.71 1274.53,-65.7"/>
</g>
<!-- Node11 -->
<g id="node11" class="node">
<title>Node11</title>
<g id="a_node11"><a xlink:href="_m_corr_8h.html" target="_top" xlink:title=" ">
<polygon fill="white" stroke="black" points="829.5,-0.5 829.5,-19.5 883.5,-19.5 883.5,-0.5 829.5,-0.5"/>
<text text-anchor="middle" x="856.5" y="-7.5" font-family="Helvetica,sans-Serif" font-size="10.00">MCorr.h</text>
</a>
</g>
</g>
<!-- Node1&#45;&gt;Node11 -->
<g id="edge10" class="edge">
<title>Node1&#45;&gt;Node11</title>
<path fill="none" stroke="midnightblue" d="M1274.64,-61.87C1191.5,-56.55 1028.83,-43.94 892.5,-20 889.58,-19.49 886.55,-18.87 883.54,-18.2"/>
<polygon fill="midnightblue" stroke="midnightblue" points="1274.66,-65.37 1284.86,-62.51 1275.1,-58.39 1274.66,-65.37"/>
</g>
<!-- Node12 -->
<g id="node12" class="node">
<title>Node12</title>
<g id="a_node12"><a xlink:href="_m_corr3_p_8h.html" target="_top" xlink:title=" ">
<polygon fill="white" stroke="black" points="902,-0.5 902,-19.5 967,-19.5 967,-0.5 902,-0.5"/>
<text text-anchor="middle" x="934.5" y="-7.5" font-family="Helvetica,sans-Serif" font-size="10.00">MCorr3P.h</text>
</a>
</g>
</g>
<!-- Node1&#45;&gt;Node12 -->
<g id="edge11" class="edge">
<title>Node1&#45;&gt;Node12</title>
<path fill="none" stroke="midnightblue" d="M1274.57,-59.56C1204.78,-52.3 1080.74,-38.2 975.5,-20 972.77,-19.53 969.95,-19 967.12,-18.44"/>
<polygon fill="midnightblue" stroke="midnightblue" points="1274.57,-63.08 1284.88,-60.63 1275.29,-56.12 1274.57,-63.08"/>
</g>
<!-- Node13 -->
<g id="node13" class="node">
<title>Node13</title>
<g id="a_node13"><a xlink:href="_move_mesh_8h.html" target="_top" xlink:title=" ">
<polygon fill="white" stroke="black" points="985,-0.5 985,-19.5 1064,-19.5 1064,-0.5 985,-0.5"/>
<text text-anchor="middle" x="1024.5" y="-7.5" font-family="Helvetica,sans-Serif" font-size="10.00">MoveMesh.h</text>
</a>
</g>
</g>
<!-- Node1&#45;&gt;Node13 -->
<g id="edge12" class="edge">
<title>Node1&#45;&gt;Node13</title>
<path fill="none" stroke="midnightblue" d="M1274.64,-55.48C1222.79,-46.46 1142.83,-32.46 1073.5,-20 1070.44,-19.45 1067.26,-18.88 1064.08,-18.3"/>
<polygon fill="midnightblue" stroke="midnightblue" points="1274.17,-58.95 1284.62,-57.22 1275.37,-52.06 1274.17,-58.95"/>
</g>
<!-- Node14 -->
<g id="node14" class="node">
<title>Node14</title>
<g id="a_node14"><a xlink:href="_move_mesh2_d_8h.html" target="_top" xlink:title=" ">
<polygon fill="white" stroke="black" points="1082.5,-0.5 1082.5,-19.5 1174.5,-19.5 1174.5,-0.5 1082.5,-0.5"/>
<text text-anchor="middle" x="1128.5" y="-7.5" font-family="Helvetica,sans-Serif" font-size="10.00">MoveMesh2D.h</text>
</a>
</g>
</g>
<!-- Node1&#45;&gt;Node14 -->
<g id="edge13" class="edge">
<title>Node1&#45;&gt;Node14</title>
<path fill="none" stroke="midnightblue" d="M1287.92,-53.83C1249.97,-43.63 1194.69,-28.78 1160.2,-19.52"/>
<polygon fill="midnightblue" stroke="midnightblue" points="1287.09,-57.23 1297.65,-56.44 1288.9,-50.47 1287.09,-57.23"/>
</g>
<!-- Node15 -->
<g id="node15" class="node">
<title>Node15</title>
<g id="a_node15"><a xlink:href="_n_c_l_s_8h.html" target="_top" xlink:title=" ">
<polygon fill="white" stroke="black" points="1193,-0.5 1193,-19.5 1244,-19.5 1244,-0.5 1193,-0.5"/>
<text text-anchor="middle" x="1218.5" y="-7.5" font-family="Helvetica,sans-Serif" font-size="10.00">NCLS.h</text>
</a>
</g>
</g>
<!-- Node1&#45;&gt;Node15 -->
<g id="edge14" class="edge">
<title>Node1&#45;&gt;Node15</title>
<path fill="none" stroke="midnightblue" d="M1302.49,-51.86C1281.91,-41.85 1254.16,-28.35 1236.29,-19.65"/>
<polygon fill="midnightblue" stroke="midnightblue" points="1301.14,-55.1 1311.67,-56.32 1304.2,-48.8 1301.14,-55.1"/>
</g>
<!-- Node16 -->
<g id="node16" class="node">
<title>Node16</title>
<g id="a_node16"><a xlink:href="_n_c_l_s3_p_8h.html" target="_top" xlink:title=" ">
<polygon fill="white" stroke="black" points="1262.5,-0.5 1262.5,-19.5 1324.5,-19.5 1324.5,-0.5 1262.5,-0.5"/>
<text text-anchor="middle" x="1293.5" y="-7.5" font-family="Helvetica,sans-Serif" font-size="10.00">NCLS3P.h</text>
</a>
</g>
</g>
<!-- Node1&#45;&gt;Node16 -->
<g id="edge15" class="edge">
<title>Node1&#45;&gt;Node16</title>
<path fill="none" stroke="midnightblue" d="M1317.88,-47.57C1311.68,-38.27 1304.33,-27.25 1299.33,-19.75"/>
<polygon fill="midnightblue" stroke="midnightblue" points="1315.1,-49.7 1323.56,-56.08 1320.92,-45.82 1315.1,-49.7"/>
</g>
<!-- Node17 -->
<g id="node17" class="node">
<title>Node17</title>
<g id="a_node17"><a xlink:href="_pres_8h.html" target="_top" xlink:title=" ">
<polygon fill="white" stroke="black" points="1343,-0.5 1343,-19.5 1390,-19.5 1390,-0.5 1343,-0.5"/>
<text text-anchor="middle" x="1366.5" y="-7.5" font-family="Helvetica,sans-Serif" font-size="10.00">Pres.h</text>
</a>
</g>
</g>
<!-- Node1&#45;&gt;Node17 -->
<g id="edge16" class="edge">
<title>Node1&#45;&gt;Node17</title>
<path fill="none" stroke="midnightblue" d="M1341.45,-47.57C1347.81,-38.27 1355.37,-27.25 1360.5,-19.75"/>
<polygon fill="midnightblue" stroke="midnightblue" points="1338.37,-45.86 1335.61,-56.08 1344.15,-49.81 1338.37,-45.86"/>
</g>
<!-- Node18 -->
<g id="node18" class="node">
<title>Node18</title>
<g id="a_node18"><a xlink:href="_pres_inc_8h.html" target="_top" xlink:title=" ">
<polygon fill="white" stroke="black" points="1408,-0.5 1408,-19.5 1469,-19.5 1469,-0.5 1408,-0.5"/>
<text text-anchor="middle" x="1438.5" y="-7.5" font-family="Helvetica,sans-Serif" font-size="10.00">PresInc.h</text>
</a>
</g>
</g>
<!-- Node1&#45;&gt;Node18 -->
<g id="edge17" class="edge">
<title>Node1&#45;&gt;Node18</title>
<path fill="none" stroke="midnightblue" d="M1356.02,-51.86C1376.23,-41.85 1403.49,-28.35 1421.03,-19.65"/>
<polygon fill="midnightblue" stroke="midnightblue" points="1354.42,-48.75 1347.01,-56.32 1357.53,-55.02 1354.42,-48.75"/>
</g>
<!-- Node19 -->
<g id="node19" class="node">
<title>Node19</title>
<g id="a_node19"><a xlink:href="_pres_init_8h.html" target="_top" xlink:title=" ">
<polygon fill="white" stroke="black" points="1487.5,-0.5 1487.5,-19.5 1549.5,-19.5 1549.5,-0.5 1487.5,-0.5"/>
<text text-anchor="middle" x="1518.5" y="-7.5" font-family="Helvetica,sans-Serif" font-size="10.00">PresInit.h</text>
</a>
</g>
</g>
<!-- Node1&#45;&gt;Node19 -->
<g id="edge18" class="edge">
<title>Node1&#45;&gt;Node19</title>
<path fill="none" stroke="midnightblue" d="M1369.51,-53.57C1405.17,-43.38 1456.54,-28.7 1488.69,-19.52"/>
<polygon fill="midnightblue" stroke="midnightblue" points="1368.1,-50.33 1359.45,-56.44 1370.02,-57.06 1368.1,-50.33"/>
</g>
<!-- Node20 -->
<g id="node20" class="node">
<title>Node20</title>
<g id="a_node20"><a xlink:href="_r_a_n_s2_p___i_b_8h.html" target="_top" xlink:title=" ">
<polygon fill="white" stroke="black" points="1567.5,-0.5 1567.5,-19.5 1647.5,-19.5 1647.5,-0.5 1567.5,-0.5"/>
<text text-anchor="middle" x="1607.5" y="-7.5" font-family="Helvetica,sans-Serif" font-size="10.00">RANS2P_IB.h</text>
</a>
</g>
</g>
<!-- Node1&#45;&gt;Node20 -->
<g id="edge19" class="edge">
<title>Node1&#45;&gt;Node20</title>
<path fill="none" stroke="midnightblue" d="M1383.6,-54.49C1437.46,-44.03 1518.88,-28.21 1567.27,-18.82"/>
<polygon fill="midnightblue" stroke="midnightblue" points="1382.7,-51.1 1373.55,-56.44 1384.03,-57.97 1382.7,-51.1"/>
</g>
<!-- Node21 -->
<g id="node21" class="node">
<title>Node21</title>
<g id="a_node21"><a xlink:href="_r_a_n_s3_p_f_8h.html" target="_top" xlink:title=" ">
<polygon fill="white" stroke="black" points="1666,-0.5 1666,-19.5 1735,-19.5 1735,-0.5 1666,-0.5"/>
<text text-anchor="middle" x="1700.5" y="-7.5" font-family="Helvetica,sans-Serif" font-size="10.00">RANS3PF.h</text>
</a>
</g>
</g>
<!-- Node1&#45;&gt;Node21 -->
<g id="edge20" class="edge">
<title>Node1&#45;&gt;Node21</title>
<path fill="none" stroke="midnightblue" d="M1384.1,-58.59C1449.16,-50.69 1561.06,-36.31 1656.5,-20 1659.57,-19.47 1662.76,-18.89 1665.95,-18.29"/>
<polygon fill="midnightblue" stroke="midnightblue" points="1383.58,-55.13 1374.07,-59.8 1384.42,-62.07 1383.58,-55.13"/>
</g>
<!-- Node22 -->
<g id="node22" class="node">
<title>Node22</title>
<g id="a_node22"><a xlink:href="_r_a_n_s3_p_f2_d_8h.html" target="_top" xlink:title=" ">
<polygon fill="white" stroke="black" points="1753.5,-0.5 1753.5,-19.5 1837.5,-19.5 1837.5,-0.5 1753.5,-0.5"/>
<text text-anchor="middle" x="1795.5" y="-7.5" font-family="Helvetica,sans-Serif" font-size="10.00">RANS3PF2D.h</text>
</a>
</g>
</g>
<!-- Node1&#45;&gt;Node22 -->
<g id="edge21" class="edge">
<title>Node1&#45;&gt;Node22</title>
<path fill="none" stroke="midnightblue" d="M1384.42,-60.22C1464,-53.03 1615.92,-38.3 1744.5,-20 1747.35,-19.59 1750.28,-19.15 1753.23,-18.68"/>
<polygon fill="midnightblue" stroke="midnightblue" points="1383.79,-56.76 1374.15,-61.14 1384.42,-63.73 1383.79,-56.76"/>
</g>
<!-- Node23 -->
<g id="node23" class="node">
<title>Node23</title>
<g id="a_node23"><a xlink:href="_r_a_n_s3_p_sed_8h.html" target="_top" xlink:title=" ">
<polygon fill="white" stroke="black" points="1856,-0.5 1856,-19.5 1939,-19.5 1939,-0.5 1856,-0.5"/>
<text text-anchor="middle" x="1897.5" y="-7.5" font-family="Helvetica,sans-Serif" font-size="10.00">RANS3PSed.h</text>
</a>
</g>
</g>
<!-- Node1&#45;&gt;Node23 -->
<g id="edge22" class="edge">
<title>Node1&#45;&gt;Node23</title>
<path fill="none" stroke="midnightblue" d="M1384.44,-61.81C1479.07,-55.96 1678.82,-42.05 1846.5,-20 1849.53,-19.6 1852.66,-19.15 1855.8,-18.67"/>
<polygon fill="midnightblue" stroke="midnightblue" points="1384.02,-58.33 1374.25,-62.43 1384.44,-65.32 1384.02,-58.33"/>
</g>
<!-- Node24 -->
<g id="node24" class="node">
<title>Node24</title>
<g id="a_node24"><a xlink:href="_r_a_n_s3_p_sed2_d_8h.html" target="_top" xlink:title=" ">
<polygon fill="white" stroke="black" points="1957.5,-0.5 1957.5,-19.5 2053.5,-19.5 2053.5,-0.5 1957.5,-0.5"/>
<text text-anchor="middle" x="2005.5" y="-7.5" font-family="Helvetica,sans-Serif" font-size="10.00">RANS3PSed2D.h</text>
</a>
</g>
</g>
<!-- Node1&#45;&gt;Node24 -->
<g id="edge23" class="edge">
<title>Node1&#45;&gt;Node24</title>
<path fill="none" stroke="midnightblue" d="M1384.31,-62.56C1492.45,-57.42 1740.85,-43.9 1948.5,-20 1951.39,-19.67 1954.35,-19.3 1957.34,-18.9"/>
<polygon fill="midnightblue" stroke="midnightblue" points="1384.11,-59.07 1374.29,-63.04 1384.44,-66.06 1384.11,-59.07"/>
</g>
<!-- Node25 -->
<g id="node25" class="node">
<title>Node25</title>
<g id="a_node25"><a xlink:href="_r_d_l_s_8h.html" target="_top" xlink:title=" ">
<polygon fill="white" stroke="black" points="2072,-0.5 2072,-19.5 2123,-19.5 2123,-0.5 2072,-0.5"/>
<text text-anchor="middle" x="2097.5" y="-7.5" font-family="Helvetica,sans-Serif" font-size="10.00">RDLS.h</text>
</a>
</g>
</g>
<!-- Node1&#45;&gt;Node25 -->
<g id="edge24" class="edge">
<title>Node1&#45;&gt;Node25</title>
<path fill="none" stroke="midnightblue" d="M1384.25,-65.18C1506.64,-64.82 1811.33,-59.63 2062.5,-20 2065.47,-19.53 2068.56,-18.92 2071.62,-18.24"/>
<polygon fill="midnightblue" stroke="midnightblue" points="1384.02,-61.69 1374.02,-65.2 1384.03,-68.69 1384.02,-61.69"/>
</g>
<!-- Node26 -->
<g id="node26" class="node">
<title>Node26</title>
<g id="a_node26"><a xlink:href="_s_w2_d_8h.html" target="_top" xlink:title=" ">
<polygon fill="white" stroke="black" points="2141,-0.5 2141,-19.5 2196,-19.5 2196,-0.5 2141,-0.5"/>
<text text-anchor="middle" x="2168.5" y="-7.5" font-family="Helvetica,sans-Serif" font-size="10.00">SW2D.h</text>
</a>
</g>
</g>
<!-- Node1&#45;&gt;Node26 -->
<g id="edge25" class="edge">
<title>Node1&#45;&gt;Node26</title>
<path fill="none" stroke="midnightblue" d="M1384.33,-65.48C1514.79,-65.86 1853.6,-62.29 2132.5,-20 2135.18,-19.59 2137.94,-19.08 2140.7,-18.5"/>
<polygon fill="midnightblue" stroke="midnightblue" points="1384.21,-61.98 1374.2,-65.44 1384.19,-68.98 1384.21,-61.98"/>
</g>
<!-- Node27 -->
<g id="node27" class="node">
<title>Node27</title>
<g id="a_node27"><a xlink:href="_s_w2_d_c_v_8h.html" target="_top" xlink:title=" ">
<polygon fill="white" stroke="black" points="2214,-0.5 2214,-19.5 2281,-19.5 2281,-0.5 2214,-0.5"/>
<text text-anchor="middle" x="2247.5" y="-7.5" font-family="Helvetica,sans-Serif" font-size="10.00">SW2DCV.h</text>
</a>
</g>
</g>
<!-- Node1&#45;&gt;Node27 -->
<g id="edge26" class="edge">
<title>Node1&#45;&gt;Node27</title>
<path fill="none" stroke="midnightblue" d="M1384.76,-65.22C1523.45,-65.1 1897.24,-60.68 2205.5,-20 2208.16,-19.65 2210.91,-19.22 2213.65,-18.74"/>
<polygon fill="midnightblue" stroke="midnightblue" points="1384.4,-61.72 1374.4,-65.22 1384.4,-68.72 1384.4,-61.72"/>
</g>
<!-- Node28 -->
<g id="node28" class="node">
<title>Node28</title>
<g id="a_node28"><a xlink:href="_v_o_f_8h.html" target="_top" xlink:title=" ">
<polygon fill="white" stroke="black" points="2299.5,-0.5 2299.5,-19.5 2343.5,-19.5 2343.5,-0.5 2299.5,-0.5"/>
<text text-anchor="middle" x="2321.5" y="-7.5" font-family="Helvetica,sans-Serif" font-size="10.00">VOF.h</text>
</a>
</g>
</g>
<!-- Node1&#45;&gt;Node28 -->
<g id="edge27" class="edge">
<title>Node1&#45;&gt;Node28</title>
<path fill="none" stroke="midnightblue" d="M1384.1,-64.13C1560.55,-61.07 2114.11,-49.31 2290.5,-20 2293.37,-19.52 2296.36,-18.87 2299.29,-18.13"/>
<polygon fill="midnightblue" stroke="midnightblue" points="1383.95,-60.64 1374.02,-64.31 1384.07,-67.64 1383.95,-60.64"/>
</g>
<!-- Node29 -->
<g id="node29" class="node">
<title>Node29</title>
<g id="a_node29"><a xlink:href="_v_o_f3_p_8h.html" target="_top" xlink:title=" ">
<polygon fill="white" stroke="black" points="2361.5,-0.5 2361.5,-19.5 2417.5,-19.5 2417.5,-0.5 2361.5,-0.5"/>
<text text-anchor="middle" x="2389.5" y="-7.5" font-family="Helvetica,sans-Serif" font-size="10.00">VOF3P.h</text>
</a>
</g>
</g>
<!-- Node1&#45;&gt;Node29 -->
<g id="edge28" class="edge">
<title>Node1&#45;&gt;Node29</title>
<path fill="none" stroke="midnightblue" d="M1384.43,-63.99C1568.57,-60.4 2163.01,-46.95 2352.5,-20 2355.38,-19.59 2358.36,-19.06 2361.33,-18.45"/>
<polygon fill="midnightblue" stroke="midnightblue" points="1384.11,-60.5 1374.18,-64.19 1384.24,-67.5 1384.11,-60.5"/>
</g>
<!-- Node30 -->
<g id="node30" class="node">
<title>Node30</title>
<g id="a_node30"><a xlink:href="_v_o_s3_p_8h.html" target="_top" xlink:title=" ">
<polygon fill="white" stroke="black" points="2435.5,-0.5 2435.5,-19.5 2491.5,-19.5 2491.5,-0.5 2435.5,-0.5"/>
<text text-anchor="middle" x="2463.5" y="-7.5" font-family="Helvetica,sans-Serif" font-size="10.00">VOS3P.h</text>
</a>
</g>
</g>
<!-- Node1&#45;&gt;Node30 -->
<g id="edge29" class="edge">
<title>Node1&#45;&gt;Node30</title>
<path fill="none" stroke="midnightblue" d="M1384.17,-64.19C1576.57,-61.1 2221.81,-48.8 2426.5,-20 2429.38,-19.59 2432.36,-19.06 2435.33,-18.46"/>
<polygon fill="midnightblue" stroke="midnightblue" points="1383.96,-60.69 1374.02,-64.35 1384.07,-67.69 1383.96,-60.69"/>
</g>
<!-- Node31 -->
<g id="node31" class="node">
<title>Node31</title>
<g id="a_node31"><a xlink:href="_richards_8h.html" target="_top" xlink:title=" ">
<polygon fill="white" stroke="black" points="2509.5,-0.5 2509.5,-19.5 2577.5,-19.5 2577.5,-0.5 2509.5,-0.5"/>
<text text-anchor="middle" x="2543.5" y="-7.5" font-family="Helvetica,sans-Serif" font-size="10.00">Richards.h</text>
</a>
</g>
</g>
<!-- Node1&#45;&gt;Node31 -->
<g id="edge30" class="edge">
<title>Node1&#45;&gt;Node31</title>
<path fill="none" stroke="midnightblue" d="M1384.13,-64.12C1584.68,-60.69 2280.19,-47.09 2500.5,-20 2503.38,-19.65 2506.35,-19.2 2509.32,-18.69"/>
<polygon fill="midnightblue" stroke="midnightblue" points="1384.06,-60.62 1374.12,-64.29 1384.18,-67.62 1384.06,-60.62"/>
</g>
</g>
</svg>
