<?xml version="1.0" encoding="UTF-8" standalone="no"?>
<!DOCTYPE svg PUBLIC "-//W3C//DTD SVG 1.1//EN"
 "http://www.w3.org/Graphics/SVG/1.1/DTD/svg11.dtd">
<!-- Generated by graphviz version 2.40.1 (20161225.0304)
 -->
<!-- Title: ParallelMeshConverter.cpp Pages: 1 -->
<svg width="654pt" height="252pt"
 viewBox="0.00 0.00 654.00 252.00" xmlns="http://www.w3.org/2000/svg" xmlns:xlink="http://www.w3.org/1999/xlink">
<g id="graph0" class="graph" transform="scale(1 1) rotate(0) translate(4 248)">
<title>ParallelMeshConverter.cpp</title>
<polygon fill="#ffffff" stroke="transparent" points="-4,4 -4,-248 650,-248 650,4 -4,4"/>
<!-- Node0 -->
<g id="node1" class="node">
<title>Node0</title>
<polygon fill="#bfbfbf" stroke="#000000" points="198,-224.5 198,-243.5 332,-243.5 332,-224.5 198,-224.5"/>
<text text-anchor="middle" x="265" y="-231.5" font-family="Helvetica,sans-Serif" font-size="10.00" fill="#000000">ParallelMeshConverter.cpp</text>
</g>
<!-- Node1 -->
<g id="node2" class="node">
<title>Node1</title>
<polygon fill="#ffffff" stroke="#bfbfbf" points="0,-.5 0,-19.5 56,-19.5 56,-.5 0,-.5"/>
<text text-anchor="middle" x="28" y="-7.5" font-family="Helvetica,sans-Serif" font-size="10.00" fill="#000000">algorithm</text>
</g>
<!-- Node0&#45;&gt;Node1 -->
<g id="edge1" class="edge">
<title>Node0&#45;&gt;Node1</title>
<path fill="none" stroke="#191970" d="M197.8379,-227.0365C145.0349,-220.1594 77.281,-207.7634 58,-188 15.9548,-144.9029 20.1215,-66.2381 24.8183,-29.6656"/>
<polygon fill="#191970" stroke="#191970" points="28.2847,-30.149 26.2424,-19.7529 21.3559,-29.1535 28.2847,-30.149"/>
</g>
<!-- Node2 -->
<g id="node3" class="node">
<title>Node2</title>
<polygon fill="#ffffff" stroke="#bfbfbf" points="67.5,-168.5 67.5,-187.5 108.5,-187.5 108.5,-168.5 67.5,-168.5"/>
<text text-anchor="middle" x="88" y="-175.5" font-family="Helvetica,sans-Serif" font-size="10.00" fill="#000000">mpi.h</text>
</g>
<!-- Node0&#45;&gt;Node2 -->
<g id="edge2" class="edge">
<title>Node0&#45;&gt;Node2</title>
<path fill="none" stroke="#191970" d="M233.4412,-224.4981C205.4102,-215.9907 163.1056,-202.987 118.189,-188.3313"/>
<polygon fill="#191970" stroke="#191970" points="119.1615,-184.967 108.5688,-185.1799 116.9823,-191.6191 119.1615,-184.967"/>
</g>
<!-- Node3 -->
<g id="node4" class="node">
<title>Node3</title>
<polygon fill="#ffffff" stroke="#bfbfbf" points="126.5,-168.5 126.5,-187.5 173.5,-187.5 173.5,-168.5 126.5,-168.5"/>
<text text-anchor="middle" x="150" y="-175.5" font-family="Helvetica,sans-Serif" font-size="10.00" fill="#000000">PCU.h</text>
</g>
<!-- Node0&#45;&gt;Node3 -->
<g id="edge3" class="edge">
<title>Node0&#45;&gt;Node3</title>
<path fill="none" stroke="#191970" d="M245.2308,-224.3733C226.8531,-215.4241 199.2688,-201.9917 178.5107,-191.8835"/>
<polygon fill="#191970" stroke="#191970" points="180.0343,-188.7325 169.5112,-187.5011 176.9696,-195.026 180.0343,-188.7325"/>
</g>
<!-- Node4 -->
<g id="node5" class="node">
<title>Node4</title>
<polygon fill="#ffffff" stroke="#bfbfbf" points="192,-168.5 192,-187.5 244,-187.5 244,-168.5 192,-168.5"/>
<text text-anchor="middle" x="218" y="-175.5" font-family="Helvetica,sans-Serif" font-size="10.00" fill="#000000">sstream</text>
</g>
<!-- Node0&#45;&gt;Node4 -->
<g id="edge4" class="edge">
<title>Node0&#45;&gt;Node4</title>
<path fill="none" stroke="#191970" d="M256.8132,-224.2455C250.1411,-216.2958 240.5521,-204.8706 232.5747,-195.3656"/>
<polygon fill="#191970" stroke="#191970" points="235.2026,-193.0524 226.093,-187.6427 229.8408,-197.5525 235.2026,-193.0524"/>
</g>
<!-- Node5 -->
<g id="node6" class="node">
<title>Node5</title>
<g id="a_node6"><a xlink:href="_mesh_adapt_p_u_m_i_8h.html" target="_top" xlink:title="MeshAdaptPUMI.h">
<polygon fill="#ffffff" stroke="#000000" points="262,-168.5 262,-187.5 362,-187.5 362,-168.5 262,-168.5"/>
<text text-anchor="middle" x="312" y="-175.5" font-family="Helvetica,sans-Serif" font-size="10.00" fill="#000000">MeshAdaptPUMI.h</text>
</a>
</g>
</g>
<!-- Node0&#45;&gt;Node5 -->
<g id="edge5" class="edge">
<title>Node0&#45;&gt;Node5</title>
<path fill="none" stroke="#191970" d="M273.1868,-224.2455C279.8589,-216.2958 289.4479,-204.8706 297.4253,-195.3656"/>
<polygon fill="#191970" stroke="#191970" points="300.1592,-197.5525 303.907,-187.6427 294.7974,-193.0524 300.1592,-197.5525"/>
</g>
<!-- Node6 -->
<g id="node7" class="node">
<title>Node6</title>
<g id="a_node7"><a xlink:href="mesh_8h.html" target="_top" xlink:title="mesh.h">
<polygon fill="#ffffff" stroke="#000000" points="276.5,-56.5 276.5,-75.5 325.5,-75.5 325.5,-56.5 276.5,-56.5"/>
<text text-anchor="middle" x="301" y="-63.5" font-family="Helvetica,sans-Serif" font-size="10.00" fill="#000000">mesh.h</text>
</a>
</g>
</g>
<!-- Node0&#45;&gt;Node6 -->
<g id="edge24" class="edge">
<title>Node0&#45;&gt;Node6</title>
<path fill="none" stroke="#191970" d="M313.1399,-224.4726C360.3883,-212.202 429.5192,-185.7043 459,-132 463.2774,-124.2079 464.3351,-119.1098 459,-112 444.2199,-92.3032 377.6976,-78.2745 335.8219,-71.212"/>
<polygon fill="#191970" stroke="#191970" points="336.1865,-67.7253 325.7531,-69.5673 335.058,-74.6337 336.1865,-67.7253"/>
</g>
<!-- Node22 -->
<g id="node23" class="node">
<title>Node22</title>
<g id="a_node23"><a xlink:href="_dump_mesh_8h.html" target="_top" xlink:title="DumpMesh.h">
<polygon fill="#ffffff" stroke="#000000" points="506.5,-168.5 506.5,-187.5 581.5,-187.5 581.5,-168.5 506.5,-168.5"/>
<text text-anchor="middle" x="544" y="-175.5" font-family="Helvetica,sans-Serif" font-size="10.00" fill="#000000">DumpMesh.h</text>
</a>
</g>
</g>
<!-- Node0&#45;&gt;Node22 -->
<g id="edge25" class="edge">
<title>Node0&#45;&gt;Node22</title>
<path fill="none" stroke="#191970" d="M312.6448,-224.4369C364.0047,-214.1281 445.2682,-197.8171 496.5517,-187.5237"/>
<polygon fill="#191970" stroke="#191970" points="497.2753,-190.9483 506.3909,-185.5488 495.8977,-184.0852 497.2753,-190.9483"/>
</g>
<!-- Node24 -->
<g id="node25" class="node">
<title>Node24</title>
<polygon fill="#ffffff" stroke="#bfbfbf" points="600,-168.5 600,-187.5 646,-187.5 646,-168.5 600,-168.5"/>
<text text-anchor="middle" x="623" y="-175.5" font-family="Helvetica,sans-Serif" font-size="10.00" fill="#000000">cstring</text>
</g>
<!-- Node0&#45;&gt;Node24 -->
<g id="edge28" class="edge">
<title>Node0&#45;&gt;Node24</title>
<path fill="none" stroke="#191970" d="M332.1385,-227.5436C396.0407,-220.7091 494.9674,-208.3397 589.9148,-187.7057"/>
<polygon fill="#191970" stroke="#191970" points="590.6707,-191.1231 599.6815,-185.5504 589.1622,-184.2876 590.6707,-191.1231"/>
</g>
<!-- Node5&#45;&gt;Node6 -->
<g id="edge6" class="edge">
<title>Node5&#45;&gt;Node6</title>
<path fill="none" stroke="#191970" d="M266.4264,-168.49C246.4454,-161.8122 224.876,-150.6135 213,-132 196.5015,-106.1416 235.3464,-86.7503 266.5831,-75.8901"/>
<polygon fill="#191970" stroke="#191970" points="267.9732,-79.1174 276.3778,-72.6665 265.7848,-72.4682 267.9732,-79.1174"/>
</g>
<!-- Node16 -->
<g id="node17" class="node">
<title>Node16</title>
<g id="a_node17"><a xlink:href="cmesh_tools_module_8h.html" target="_top" xlink:title="cmeshToolsModule.h">
<polygon fill="#ffffff" stroke="#000000" points="56,-112.5 56,-131.5 166,-131.5 166,-112.5 56,-112.5"/>
<text text-anchor="middle" x="111" y="-119.5" font-family="Helvetica,sans-Serif" font-size="10.00" fill="#000000">cmeshToolsModule.h</text>
</a>
</g>
</g>
<!-- Node5&#45;&gt;Node16 -->
<g id="edge17" class="edge">
<title>Node5&#45;&gt;Node16</title>
<path fill="none" stroke="#191970" d="M277.4469,-168.3733C243.5896,-158.9404 191.854,-144.5265 155.0574,-134.2747"/>
<polygon fill="#191970" stroke="#191970" points="155.6747,-130.8135 145.1022,-131.5011 153.796,-137.5566 155.6747,-130.8135"/>
</g>
<!-- Node19 -->
<g id="node20" class="node">
<title>Node19</title>
<polygon fill="#ffffff" stroke="#bfbfbf" points="222,-112.5 222,-131.5 260,-131.5 260,-112.5 222,-112.5"/>
<text text-anchor="middle" x="241" y="-119.5" font-family="Helvetica,sans-Serif" font-size="10.00" fill="#000000">apf.h</text>
</g>
<!-- Node5&#45;&gt;Node19 -->
<g id="edge21" class="edge">
<title>Node5&#45;&gt;Node19</title>
<path fill="none" stroke="#191970" d="M299.6327,-168.2455C289.0446,-159.8943 273.5936,-147.7076 261.2107,-137.9408"/>
<polygon fill="#191970" stroke="#191970" points="263.2447,-135.0875 253.2255,-131.6427 258.9097,-140.5837 263.2447,-135.0875"/>
</g>
<!-- Node20 -->
<g id="node21" class="node">
<title>Node20</title>
<polygon fill="#ffffff" stroke="#bfbfbf" points="278,-112.5 278,-131.5 346,-131.5 346,-112.5 278,-112.5"/>
<text text-anchor="middle" x="312" y="-119.5" font-family="Helvetica,sans-Serif" font-size="10.00" fill="#000000">apfMesh2.h</text>
</g>
<!-- Node5&#45;&gt;Node20 -->
<g id="edge22" class="edge">
<title>Node5&#45;&gt;Node20</title>
<path fill="none" stroke="#191970" d="M312,-168.2455C312,-160.9382 312,-150.6944 312,-141.7046"/>
<polygon fill="#191970" stroke="#191970" points="315.5001,-141.6426 312,-131.6427 308.5001,-141.6427 315.5001,-141.6426"/>
</g>
<!-- Node21 -->
<g id="node22" class="node">
<title>Node21</title>
<polygon fill="#ffffff" stroke="#bfbfbf" points="364,-112.5 364,-131.5 450,-131.5 450,-112.5 364,-112.5"/>
<text text-anchor="middle" x="407" y="-119.5" font-family="Helvetica,sans-Serif" font-size="10.00" fill="#000000">apfNumbering.h</text>
</g>
<!-- Node5&#45;&gt;Node21 -->
<g id="edge23" class="edge">
<title>Node5&#45;&gt;Node21</title>
<path fill="none" stroke="#191970" d="M328.5477,-168.2455C343.2599,-159.5731 364.9888,-146.7645 381.8505,-136.825"/>
<polygon fill="#191970" stroke="#191970" points="383.8046,-139.736 390.6419,-131.6427 380.2498,-133.7057 383.8046,-139.736"/>
</g>
<!-- Node6&#45;&gt;Node1 -->
<g id="edge9" class="edge">
<title>Node6&#45;&gt;Node1</title>
<path fill="none" stroke="#191970" d="M276.3685,-60.2279C270.0647,-58.7985 263.2899,-57.3039 257,-56 175.0589,-39.013 151.3355,-39.2956 66.0784,-20.1146"/>
<polygon fill="#191970" stroke="#191970" points="66.7517,-16.6784 56.2245,-17.8734 65.1992,-23.5041 66.7517,-16.6784"/>
</g>
<!-- Node7 -->
<g id="node8" class="node">
<title>Node7</title>
<polygon fill="#ffffff" stroke="#bfbfbf" points="74,-.5 74,-19.5 104,-19.5 104,-.5 74,-.5"/>
<text text-anchor="middle" x="89" y="-7.5" font-family="Helvetica,sans-Serif" font-size="10.00" fill="#000000">set</text>
</g>
<!-- Node6&#45;&gt;Node7 -->
<g id="edge7" class="edge">
<title>Node6&#45;&gt;Node7</title>
<path fill="none" stroke="#191970" d="M276.3508,-60.194C233.7912,-50.1397 148.3806,-29.8234 113.76,-19.7153"/>
<polygon fill="#191970" stroke="#191970" points="114.6898,-16.3392 104.1014,-16.7083 112.609,-23.0228 114.6898,-16.3392"/>
</g>
<!-- Node8 -->
<g id="node9" class="node">
<title>Node8</title>
<polygon fill="#ffffff" stroke="#bfbfbf" points="122,-.5 122,-19.5 166,-19.5 166,-.5 122,-.5"/>
<text text-anchor="middle" x="144" y="-7.5" font-family="Helvetica,sans-Serif" font-size="10.00" fill="#000000">vector</text>
</g>
<!-- Node6&#45;&gt;Node8 -->
<g id="edge8" class="edge">
<title>Node6&#45;&gt;Node8</title>
<path fill="none" stroke="#191970" d="M276.4688,-57.25C249.272,-47.5492 205.3242,-31.8736 175.5773,-21.2632"/>
<polygon fill="#191970" stroke="#191970" points="176.673,-17.9381 166.0783,-17.8751 174.3212,-24.5313 176.673,-17.9381"/>
</g>
<!-- Node9 -->
<g id="node10" class="node">
<title>Node9</title>
<polygon fill="#ffffff" stroke="#bfbfbf" points="184.5,-.5 184.5,-19.5 219.5,-19.5 219.5,-.5 184.5,-.5"/>
<text text-anchor="middle" x="202" y="-7.5" font-family="Helvetica,sans-Serif" font-size="10.00" fill="#000000">map</text>
</g>
<!-- Node6&#45;&gt;Node9 -->
<g id="edge10" class="edge">
<title>Node6&#45;&gt;Node9</title>
<path fill="none" stroke="#191970" d="M283.7555,-56.2455C268.4239,-47.5731 245.7801,-34.7645 228.2084,-24.825"/>
<polygon fill="#191970" stroke="#191970" points="229.4741,-21.5198 219.0469,-19.6427 226.0276,-27.6126 229.4741,-21.5198"/>
</g>
<!-- Node10 -->
<g id="node11" class="node">
<title>Node10</title>
<polygon fill="#ffffff" stroke="#bfbfbf" points="237.5,-.5 237.5,-19.5 266.5,-19.5 266.5,-.5 237.5,-.5"/>
<text text-anchor="middle" x="252" y="-7.5" font-family="Helvetica,sans-Serif" font-size="10.00" fill="#000000">list</text>
</g>
<!-- Node6&#45;&gt;Node10 -->
<g id="edge11" class="edge">
<title>Node6&#45;&gt;Node10</title>
<path fill="none" stroke="#191970" d="M292.4649,-56.2455C285.5088,-48.2958 275.5117,-36.8706 267.1949,-27.3656"/>
<polygon fill="#191970" stroke="#191970" points="269.6564,-24.8637 260.4373,-19.6427 264.3884,-29.4732 269.6564,-24.8637"/>
</g>
<!-- Node11 -->
<g id="node12" class="node">
<title>Node11</title>
<polygon fill="#ffffff" stroke="#bfbfbf" points="285,-.5 285,-19.5 339,-19.5 339,-.5 285,-.5"/>
<text text-anchor="middle" x="312" y="-7.5" font-family="Helvetica,sans-Serif" font-size="10.00" fill="#000000">iostream</text>
</g>
<!-- Node6&#45;&gt;Node11 -->
<g id="edge12" class="edge">
<title>Node6&#45;&gt;Node11</title>
<path fill="none" stroke="#191970" d="M302.9161,-56.2455C304.3514,-48.9382 306.3636,-38.6944 308.1295,-29.7046"/>
<polygon fill="#191970" stroke="#191970" points="311.6127,-30.1298 310.1059,-19.6427 304.744,-28.7805 311.6127,-30.1298"/>
</g>
<!-- Node12 -->
<g id="node13" class="node">
<title>Node12</title>
<polygon fill="#ffffff" stroke="#bfbfbf" points="357,-.5 357,-19.5 407,-19.5 407,-.5 357,-.5"/>
<text text-anchor="middle" x="382" y="-7.5" font-family="Helvetica,sans-Serif" font-size="10.00" fill="#000000">iomanip</text>
</g>
<!-- Node6&#45;&gt;Node12 -->
<g id="edge13" class="edge">
<title>Node6&#45;&gt;Node12</title>
<path fill="none" stroke="#191970" d="M315.1091,-56.2455C327.4209,-47.7337 345.4958,-35.2375 359.7538,-25.3801"/>
<polygon fill="#191970" stroke="#191970" points="361.8174,-28.2085 368.0526,-19.6427 357.8366,-22.4506 361.8174,-28.2085"/>
</g>
<!-- Node13 -->
<g id="node14" class="node">
<title>Node13</title>
<polygon fill="#ffffff" stroke="#bfbfbf" points="425,-.5 425,-19.5 475,-19.5 475,-.5 425,-.5"/>
<text text-anchor="middle" x="450" y="-7.5" font-family="Helvetica,sans-Serif" font-size="10.00" fill="#000000">fstream</text>
</g>
<!-- Node6&#45;&gt;Node13 -->
<g id="edge14" class="edge">
<title>Node6&#45;&gt;Node13</title>
<path fill="none" stroke="#191970" d="M325.6043,-56.7527C350.0448,-47.567 387.7447,-33.398 415.2375,-23.0651"/>
<polygon fill="#191970" stroke="#191970" points="416.7318,-26.2426 424.8611,-19.4482 414.269,-19.6901 416.7318,-26.2426"/>
</g>
<!-- Node14 -->
<g id="node15" class="node">
<title>Node14</title>
<polygon fill="#ffffff" stroke="#bfbfbf" points="493.5,-.5 493.5,-19.5 542.5,-19.5 542.5,-.5 493.5,-.5"/>
<text text-anchor="middle" x="518" y="-7.5" font-family="Helvetica,sans-Serif" font-size="10.00" fill="#000000">cassert</text>
</g>
<!-- Node6&#45;&gt;Node14 -->
<g id="edge15" class="edge">
<title>Node6&#45;&gt;Node14</title>
<path fill="none" stroke="#191970" d="M325.6488,-60.1339C359.0823,-52.1061 420.8895,-37.0154 483.1568,-20.1534"/>
<polygon fill="#191970" stroke="#191970" points="484.4207,-23.4368 493.15,-17.4327 482.5818,-16.6826 484.4207,-23.4368"/>
</g>
<!-- Node15 -->
<g id="node16" class="node">
<title>Node15</title>
<polygon fill="#ffffff" stroke="#bfbfbf" points="561,-.5 561,-19.5 605,-19.5 605,-.5 561,-.5"/>
<text text-anchor="middle" x="583" y="-7.5" font-family="Helvetica,sans-Serif" font-size="10.00" fill="#000000">cmath</text>
</g>
<!-- Node6&#45;&gt;Node15 -->
<g id="edge16" class="edge">
<title>Node6&#45;&gt;Node15</title>
<path fill="none" stroke="#191970" d="M325.6953,-62.4704C370.8013,-55.7996 469.388,-40.1817 551,-20 551.0989,-19.9755 551.1979,-19.951 551.2971,-19.9262"/>
<polygon fill="#191970" stroke="#191970" points="552.0004,-23.3627 560.7176,-17.3411 550.1479,-16.6123 552.0004,-23.3627"/>
</g>
<!-- Node16&#45;&gt;Node6 -->
<g id="edge20" class="edge">
<title>Node16&#45;&gt;Node6</title>
<path fill="none" stroke="#191970" d="M143.6622,-112.3733C177.944,-102.2691 231.6165,-86.4499 266.5535,-76.1526"/>
<polygon fill="#191970" stroke="#191970" points="267.7128,-79.4599 276.3153,-73.2755 265.7338,-72.7455 267.7128,-79.4599"/>
</g>
<!-- Node17 -->
<g id="node18" class="node">
<title>Node17</title>
<polygon fill="#ffffff" stroke="#bfbfbf" points="69,-56.5 69,-75.5 125,-75.5 125,-56.5 69,-56.5"/>
<text text-anchor="middle" x="97" y="-63.5" font-family="Helvetica,sans-Serif" font-size="10.00" fill="#000000">Python.h</text>
</g>
<!-- Node16&#45;&gt;Node17 -->
<g id="edge18" class="edge">
<title>Node16&#45;&gt;Node17</title>
<path fill="none" stroke="#191970" d="M108.5614,-112.2455C106.7145,-104.8579 104.1172,-94.4689 101.8522,-85.4087"/>
<polygon fill="#191970" stroke="#191970" points="105.2316,-84.4952 99.4107,-75.6427 98.4406,-86.193 105.2316,-84.4952"/>
</g>
<!-- Node18 -->
<g id="node19" class="node">
<title>Node18</title>
<polygon fill="#ffffff" stroke="#bfbfbf" points="143.5,-56.5 143.5,-75.5 248.5,-75.5 248.5,-56.5 143.5,-56.5"/>
<text text-anchor="middle" x="196" y="-63.5" font-family="Helvetica,sans-Serif" font-size="10.00" fill="#000000">numpy/arrayobject.h</text>
</g>
<!-- Node16&#45;&gt;Node18 -->
<g id="edge19" class="edge">
<title>Node16&#45;&gt;Node18</title>
<path fill="none" stroke="#191970" d="M125.8059,-112.2455C138.7256,-103.7337 157.6931,-91.2375 172.6552,-81.3801"/>
<polygon fill="#191970" stroke="#191970" points="174.9387,-84.067 181.3638,-75.6427 171.0876,-78.2216 174.9387,-84.067"/>
</g>
<!-- Node22&#45;&gt;Node6 -->
<g id="edge26" class="edge">
<title>Node22&#45;&gt;Node6</title>
<path fill="none" stroke="#191970" d="M539.0803,-168.2347C531.2053,-153.6401 514.353,-126.3249 492,-112 466.3162,-95.5406 383.2737,-79.6243 335.5685,-71.528"/>
<polygon fill="#191970" stroke="#191970" points="336.1148,-68.0708 325.6747,-69.8749 334.9612,-74.9751 336.1148,-68.0708"/>
</g>
<!-- Node23 -->
<g id="node24" class="node">
<title>Node23</title>
<polygon fill="#ffffff" stroke="#bfbfbf" points="544.5,-112.5 544.5,-131.5 587.5,-131.5 587.5,-112.5 544.5,-112.5"/>
<text text-anchor="middle" x="566" y="-119.5" font-family="Helvetica,sans-Serif" font-size="10.00" fill="#000000">cstdio</text>
</g>
<!-- Node22&#45;&gt;Node23 -->
<g id="edge27" class="edge">
<title>Node22&#45;&gt;Node23</title>
<path fill="none" stroke="#191970" d="M547.8321,-168.2455C550.7659,-160.7776 554.9047,-150.2427 558.491,-141.1137"/>
<polygon fill="#191970" stroke="#191970" points="561.8129,-142.23 562.2118,-131.6427 555.2976,-139.6704 561.8129,-142.23"/>
</g>
</g>
</svg>
