<?xml version="1.0" encoding="UTF-8" standalone="no"?>
<!DOCTYPE svg PUBLIC "-//W3C//DTD SVG 1.1//EN"
 "http://www.w3.org/Graphics/SVG/1.1/DTD/svg11.dtd">
<!-- Generated by graphviz version 2.42.3 (0)
 -->
<!-- Title: ParallelMeshConverter.cpp Pages: 1 -->
<svg width="684pt" height="196pt"
 viewBox="0.00 0.00 684.00 196.00" xmlns="http://www.w3.org/2000/svg" xmlns:xlink="http://www.w3.org/1999/xlink">
<g id="graph0" class="graph" transform="scale(1 1) rotate(0) translate(4 192)">
<title>ParallelMeshConverter.cpp</title>
<polygon fill="white" stroke="transparent" points="-4,4 -4,-192 680,-192 680,4 -4,4"/>
<!-- Node1 -->
<g id="node1" class="node">
<title>Node1</title>
<g id="a_node1"><a xlink:title=" ">
<polygon fill="#bfbfbf" stroke="black" points="162,-168.5 162,-187.5 308,-187.5 308,-168.5 162,-168.5"/>
<text text-anchor="middle" x="235" y="-175.5" font-family="Helvetica,sans-Serif" font-size="10.00">ParallelMeshConverter.cpp</text>
</a>
</g>
</g>
<!-- Node2 -->
<g id="node2" class="node">
<title>Node2</title>
<g id="a_node2"><a xlink:title=" ">
<polygon fill="white" stroke="#bfbfbf" points="0,-0.5 0,-19.5 64,-19.5 64,-0.5 0,-0.5"/>
<text text-anchor="middle" x="32" y="-7.5" font-family="Helvetica,sans-Serif" font-size="10.00">algorithm</text>
</a>
</g>
</g>
<!-- Node1&#45;&gt;Node2 -->
<g id="edge1" class="edge">
<title>Node1&#45;&gt;Node2</title>
<path fill="none" stroke="midnightblue" d="M161.9,-171.16C107.73,-165.14 40.41,-153.49 23,-132 -0.77,-102.65 13.17,-55.06 23.66,-29.17"/>
<polygon fill="midnightblue" stroke="midnightblue" points="26.95,-30.38 27.69,-19.82 20.52,-27.62 26.95,-30.38"/>
</g>
<!-- Node3 -->
<g id="node3" class="node">
<title>Node3</title>
<g id="a_node3"><a xlink:title=" ">
<polygon fill="white" stroke="#bfbfbf" points="32,-112.5 32,-131.5 76,-131.5 76,-112.5 32,-112.5"/>
<text text-anchor="middle" x="54" y="-119.5" font-family="Helvetica,sans-Serif" font-size="10.00">mpi.h</text>
</a>
</g>
</g>
<!-- Node1&#45;&gt;Node3 -->
<g id="edge2" class="edge">
<title>Node1&#45;&gt;Node3</title>
<path fill="none" stroke="midnightblue" d="M206.32,-168.44C173.62,-158.69 120.29,-142.78 86.19,-132.6"/>
<polygon fill="midnightblue" stroke="midnightblue" points="86.85,-129.15 76.27,-129.64 84.85,-135.86 86.85,-129.15"/>
</g>
<!-- Node4 -->
<g id="node4" class="node">
<title>Node4</title>
<g id="a_node4"><a xlink:title=" ">
<polygon fill="white" stroke="#bfbfbf" points="94,-112.5 94,-131.5 140,-131.5 140,-112.5 94,-112.5"/>
<text text-anchor="middle" x="117" y="-119.5" font-family="Helvetica,sans-Serif" font-size="10.00">PCU.h</text>
</a>
</g>
</g>
<!-- Node1&#45;&gt;Node4 -->
<g id="edge3" class="edge">
<title>Node1&#45;&gt;Node4</title>
<path fill="none" stroke="midnightblue" d="M216.3,-168.44C197.06,-159.64 166.85,-145.81 144.8,-135.72"/>
<polygon fill="midnightblue" stroke="midnightblue" points="146.16,-132.5 135.61,-131.52 143.25,-138.86 146.16,-132.5"/>
</g>
<!-- Node5 -->
<g id="node5" class="node">
<title>Node5</title>
<g id="a_node5"><a xlink:title=" ">
<polygon fill="white" stroke="#bfbfbf" points="158,-112.5 158,-131.5 214,-131.5 214,-112.5 158,-112.5"/>
<text text-anchor="middle" x="186" y="-119.5" font-family="Helvetica,sans-Serif" font-size="10.00">sstream</text>
</a>
</g>
</g>
<!-- Node1&#45;&gt;Node5 -->
<g id="edge4" class="edge">
<title>Node1&#45;&gt;Node5</title>
<path fill="none" stroke="midnightblue" d="M226.91,-168.08C219.84,-160.3 209.41,-148.8 200.85,-139.37"/>
<polygon fill="midnightblue" stroke="midnightblue" points="203.25,-136.8 193.94,-131.75 198.07,-141.51 203.25,-136.8"/>
</g>
<!-- Node6 -->
<g id="node6" class="node">
<title>Node6</title>
<g id="a_node6"><a xlink:href="_mesh_adapt_p_u_m_i_8h.html" target="_top" xlink:title=" ">
<polygon fill="white" stroke="black" points="232,-112.5 232,-131.5 338,-131.5 338,-112.5 232,-112.5"/>
<text text-anchor="middle" x="285" y="-119.5" font-family="Helvetica,sans-Serif" font-size="10.00">MeshAdaptPUMI.h</text>
</a>
</g>
</g>
<!-- Node1&#45;&gt;Node6 -->
<g id="edge5" class="edge">
<title>Node1&#45;&gt;Node6</title>
<path fill="none" stroke="midnightblue" d="M243.26,-168.08C250.46,-160.3 261.11,-148.8 269.85,-139.37"/>
<polygon fill="midnightblue" stroke="midnightblue" points="272.67,-141.47 276.9,-131.75 267.53,-136.71 272.67,-141.47"/>
</g>
<!-- Node7 -->
<g id="node7" class="node">
<title>Node7</title>
<g id="a_node7"><a xlink:href="mesh_8h.html" target="_top" xlink:title=" ">
<polygon fill="white" stroke="black" points="361.5,-56.5 361.5,-75.5 414.5,-75.5 414.5,-56.5 361.5,-56.5"/>
<text text-anchor="middle" x="388" y="-63.5" font-family="Helvetica,sans-Serif" font-size="10.00">mesh.h</text>
</a>
</g>
</g>
<!-- Node1&#45;&gt;Node7 -->
<g id="edge21" class="edge">
<title>Node1&#45;&gt;Node7</title>
<path fill="none" stroke="midnightblue" d="M271.85,-168.49C295.31,-161.64 325.27,-150.12 347,-132 362.17,-119.35 373.51,-99.59 380.37,-85.17"/>
<polygon fill="midnightblue" stroke="midnightblue" points="383.68,-86.36 384.57,-75.8 377.29,-83.5 383.68,-86.36"/>
</g>
<!-- Node21 -->
<g id="node21" class="node">
<title>Node21</title>
<g id="a_node21"><a xlink:href="_dump_mesh_8h.html" target="_top" xlink:title=" ">
<polygon fill="white" stroke="black" points="394.5,-112.5 394.5,-131.5 475.5,-131.5 475.5,-112.5 394.5,-112.5"/>
<text text-anchor="middle" x="435" y="-119.5" font-family="Helvetica,sans-Serif" font-size="10.00">DumpMesh.h</text>
</a>
</g>
</g>
<!-- Node1&#45;&gt;Node21 -->
<g id="edge22" class="edge">
<title>Node1&#45;&gt;Node21</title>
<path fill="none" stroke="midnightblue" d="M266.69,-168.44C301.07,-159.16 356.08,-144.31 393.79,-134.13"/>
<polygon fill="midnightblue" stroke="midnightblue" points="394.72,-137.5 403.46,-131.52 392.89,-130.74 394.72,-137.5"/>
</g>
<!-- Node23 -->
<g id="node23" class="node">
<title>Node23</title>
<g id="a_node23"><a xlink:title=" ">
<polygon fill="white" stroke="#bfbfbf" points="494,-112.5 494,-131.5 544,-131.5 544,-112.5 494,-112.5"/>
<text text-anchor="middle" x="519" y="-119.5" font-family="Helvetica,sans-Serif" font-size="10.00">cstring</text>
</a>
</g>
</g>
<!-- Node1&#45;&gt;Node23 -->
<g id="edge25" class="edge">
<title>Node1&#45;&gt;Node23</title>
<path fill="none" stroke="midnightblue" d="M289.87,-168.43C338.41,-160.56 411.35,-148 483.62,-132.17"/>
<polygon fill="midnightblue" stroke="midnightblue" points="484.8,-135.49 493.8,-129.91 483.28,-128.66 484.8,-135.49"/>
</g>
<!-- Node6&#45;&gt;Node7 -->
<g id="edge6" class="edge">
<title>Node6&#45;&gt;Node7</title>
<path fill="none" stroke="midnightblue" d="M301.55,-112.32C317.99,-103.7 343.43,-90.36 362.47,-80.39"/>
<polygon fill="midnightblue" stroke="midnightblue" points="364.26,-83.4 371.49,-75.65 361.01,-77.2 364.26,-83.4"/>
</g>
<!-- Node17 -->
<g id="node17" class="node">
<title>Node17</title>
<g id="a_node17"><a xlink:title=" ">
<polygon fill="white" stroke="#bfbfbf" points="302.5,-56.5 302.5,-75.5 343.5,-75.5 343.5,-56.5 302.5,-56.5"/>
<text text-anchor="middle" x="323" y="-63.5" font-family="Helvetica,sans-Serif" font-size="10.00">apf.h</text>
</a>
</g>
</g>
<!-- Node6&#45;&gt;Node17 -->
<g id="edge17" class="edge">
<title>Node6&#45;&gt;Node17</title>
<path fill="none" stroke="midnightblue" d="M291.27,-112.08C296.64,-104.46 304.52,-93.26 311.08,-83.94"/>
<polygon fill="midnightblue" stroke="midnightblue" points="313.95,-85.94 316.84,-75.75 308.22,-81.91 313.95,-85.94"/>
</g>
<!-- Node18 -->
<g id="node18" class="node">
<title>Node18</title>
<g id="a_node18"><a xlink:title=" ">
<polygon fill="white" stroke="#bfbfbf" points="32,-56.5 32,-75.5 106,-75.5 106,-56.5 32,-56.5"/>
<text text-anchor="middle" x="69" y="-63.5" font-family="Helvetica,sans-Serif" font-size="10.00">apfMesh2.h</text>
</a>
</g>
</g>
<!-- Node6&#45;&gt;Node18 -->
<g id="edge18" class="edge">
<title>Node6&#45;&gt;Node18</title>
<path fill="none" stroke="midnightblue" d="M250.77,-112.44C213.49,-103.12 153.73,-88.18 112.99,-78"/>
<polygon fill="midnightblue" stroke="midnightblue" points="113.62,-74.55 103.07,-75.52 111.92,-81.34 113.62,-74.55"/>
</g>
<!-- Node19 -->
<g id="node19" class="node">
<title>Node19</title>
<g id="a_node19"><a xlink:title=" ">
<polygon fill="white" stroke="#bfbfbf" points="124.5,-56.5 124.5,-75.5 219.5,-75.5 219.5,-56.5 124.5,-56.5"/>
<text text-anchor="middle" x="172" y="-63.5" font-family="Helvetica,sans-Serif" font-size="10.00">apfNumbering.h</text>
</a>
</g>
</g>
<!-- Node6&#45;&gt;Node19 -->
<g id="edge19" class="edge">
<title>Node6&#45;&gt;Node19</title>
<path fill="none" stroke="midnightblue" d="M267.09,-112.44C248.75,-103.68 219.99,-89.94 198.91,-79.86"/>
<polygon fill="midnightblue" stroke="midnightblue" points="200.35,-76.67 189.82,-75.52 197.33,-82.99 200.35,-76.67"/>
</g>
<!-- Node20 -->
<g id="node20" class="node">
<title>Node20</title>
<g id="a_node20"><a xlink:title=" ">
<polygon fill="white" stroke="#bfbfbf" points="237.5,-56.5 237.5,-75.5 284.5,-75.5 284.5,-56.5 237.5,-56.5"/>
<text text-anchor="middle" x="261" y="-63.5" font-family="Helvetica,sans-Serif" font-size="10.00">queue</text>
</a>
</g>
</g>
<!-- Node6&#45;&gt;Node20 -->
<g id="edge20" class="edge">
<title>Node6&#45;&gt;Node20</title>
<path fill="none" stroke="midnightblue" d="M281.04,-112.08C277.79,-104.77 273.08,-94.18 269.05,-85.1"/>
<polygon fill="midnightblue" stroke="midnightblue" points="272.15,-83.47 264.89,-75.75 265.75,-86.31 272.15,-83.47"/>
</g>
<!-- Node7&#45;&gt;Node2 -->
<g id="edge9" class="edge">
<title>Node7&#45;&gt;Node2</title>
<path fill="none" stroke="midnightblue" d="M361.33,-58C358.2,-57.28 355.04,-56.59 352,-56 325.29,-50.8 155.23,-27.63 74.47,-16.72"/>
<polygon fill="midnightblue" stroke="midnightblue" points="74.53,-13.19 64.15,-15.33 73.6,-20.13 74.53,-13.19"/>
</g>
<!-- Node8 -->
<g id="node8" class="node">
<title>Node8</title>
<g id="a_node8"><a xlink:title=" ">
<polygon fill="white" stroke="#bfbfbf" points="644,-0.5 644,-19.5 676,-19.5 676,-0.5 644,-0.5"/>
<text text-anchor="middle" x="660" y="-7.5" font-family="Helvetica,sans-Serif" font-size="10.00">set</text>
</a>
</g>
</g>
<!-- Node7&#45;&gt;Node8 -->
<g id="edge7" class="edge">
<title>Node7&#45;&gt;Node8</title>
<path fill="none" stroke="midnightblue" d="M414.68,-58.09C417.82,-57.35 420.97,-56.64 424,-56 514.01,-37.1 541.2,-43.72 634.18,-19.81"/>
<polygon fill="midnightblue" stroke="midnightblue" points="635.21,-23.16 643.99,-17.23 633.43,-16.38 635.21,-23.16"/>
</g>
<!-- Node9 -->
<g id="node9" class="node">
<title>Node9</title>
<g id="a_node9"><a xlink:title=" ">
<polygon fill="white" stroke="#bfbfbf" points="110.5,-0.5 110.5,-19.5 157.5,-19.5 157.5,-0.5 110.5,-0.5"/>
<text text-anchor="middle" x="134" y="-7.5" font-family="Helvetica,sans-Serif" font-size="10.00">vector</text>
</a>
</g>
</g>
<!-- Node7&#45;&gt;Node9 -->
<g id="edge8" class="edge">
<title>Node7&#45;&gt;Node9</title>
<path fill="none" stroke="midnightblue" d="M361.3,-58.16C358.17,-57.41 355.02,-56.67 352,-56 273.26,-38.51 250.26,-38.97 167.57,-19.98"/>
<polygon fill="midnightblue" stroke="midnightblue" points="168.27,-16.55 157.74,-17.7 166.69,-23.37 168.27,-16.55"/>
</g>
<!-- Node10 -->
<g id="node10" class="node">
<title>Node10</title>
<g id="a_node10"><a xlink:title=" ">
<polygon fill="white" stroke="#bfbfbf" points="176,-0.5 176,-19.5 214,-19.5 214,-0.5 176,-0.5"/>
<text text-anchor="middle" x="195" y="-7.5" font-family="Helvetica,sans-Serif" font-size="10.00">map</text>
</a>
</g>
</g>
<!-- Node7&#45;&gt;Node10 -->
<g id="edge10" class="edge">
<title>Node7&#45;&gt;Node10</title>
<path fill="none" stroke="midnightblue" d="M361.32,-58.12C330.46,-50.07 277.92,-36.11 223.97,-20.2"/>
<polygon fill="midnightblue" stroke="midnightblue" points="224.83,-16.8 214.24,-17.31 222.84,-23.51 224.83,-16.8"/>
</g>
<!-- Node11 -->
<g id="node11" class="node">
<title>Node11</title>
<g id="a_node11"><a xlink:title=" ">
<polygon fill="white" stroke="#bfbfbf" points="232,-0.5 232,-19.5 264,-19.5 264,-0.5 232,-0.5"/>
<text text-anchor="middle" x="248" y="-7.5" font-family="Helvetica,sans-Serif" font-size="10.00">list</text>
</a>
</g>
</g>
<!-- Node7&#45;&gt;Node11 -->
<g id="edge11" class="edge">
<title>Node7&#45;&gt;Node11</title>
<path fill="none" stroke="midnightblue" d="M365.82,-56.44C340.79,-46.79 300.16,-31.12 273.75,-20.93"/>
<polygon fill="midnightblue" stroke="midnightblue" points="274.98,-17.66 264.39,-17.32 272.46,-24.19 274.98,-17.66"/>
</g>
<!-- Node12 -->
<g id="node12" class="node">
<title>Node12</title>
<g id="a_node12"><a xlink:title=" ">
<polygon fill="white" stroke="#bfbfbf" points="282,-0.5 282,-19.5 342,-19.5 342,-0.5 282,-0.5"/>
<text text-anchor="middle" x="312" y="-7.5" font-family="Helvetica,sans-Serif" font-size="10.00">iostream</text>
</a>
</g>
</g>
<!-- Node7&#45;&gt;Node12 -->
<g id="edge12" class="edge">
<title>Node7&#45;&gt;Node12</title>
<path fill="none" stroke="midnightblue" d="M375.79,-56.32C364.22,-48.11 346.62,-35.6 332.84,-25.81"/>
<polygon fill="midnightblue" stroke="midnightblue" points="334.61,-22.77 324.43,-19.83 330.56,-28.48 334.61,-22.77"/>
</g>
<!-- Node13 -->
<g id="node13" class="node">
<title>Node13</title>
<g id="a_node13"><a xlink:title=" ">
<polygon fill="white" stroke="#bfbfbf" points="360,-0.5 360,-19.5 416,-19.5 416,-0.5 360,-0.5"/>
<text text-anchor="middle" x="388" y="-7.5" font-family="Helvetica,sans-Serif" font-size="10.00">iomanip</text>
</a>
</g>
</g>
<!-- Node7&#45;&gt;Node13 -->
<g id="edge13" class="edge">
<title>Node7&#45;&gt;Node13</title>
<path fill="none" stroke="midnightblue" d="M388,-56.08C388,-49.01 388,-38.86 388,-29.99"/>
<polygon fill="midnightblue" stroke="midnightblue" points="391.5,-29.75 388,-19.75 384.5,-29.75 391.5,-29.75"/>
</g>
<!-- Node14 -->
<g id="node14" class="node">
<title>Node14</title>
<g id="a_node14"><a xlink:title=" ">
<polygon fill="white" stroke="#bfbfbf" points="434.5,-0.5 434.5,-19.5 489.5,-19.5 489.5,-0.5 434.5,-0.5"/>
<text text-anchor="middle" x="462" y="-7.5" font-family="Helvetica,sans-Serif" font-size="10.00">fstream</text>
</a>
</g>
</g>
<!-- Node7&#45;&gt;Node14 -->
<g id="edge14" class="edge">
<title>Node7&#45;&gt;Node14</title>
<path fill="none" stroke="midnightblue" d="M399.89,-56.32C411.15,-48.11 428.29,-35.6 441.71,-25.81"/>
<polygon fill="midnightblue" stroke="midnightblue" points="443.88,-28.56 449.89,-19.83 439.75,-22.9 443.88,-28.56"/>
</g>
<!-- Node15 -->
<g id="node15" class="node">
<title>Node15</title>
<g id="a_node15"><a xlink:title=" ">
<polygon fill="white" stroke="#bfbfbf" points="508,-0.5 508,-19.5 560,-19.5 560,-0.5 508,-0.5"/>
<text text-anchor="middle" x="534" y="-7.5" font-family="Helvetica,sans-Serif" font-size="10.00">cassert</text>
</a>
</g>
</g>
<!-- Node7&#45;&gt;Node15 -->
<g id="edge15" class="edge">
<title>Node7&#45;&gt;Node15</title>
<path fill="none" stroke="midnightblue" d="M411.13,-56.44C435.48,-47.44 474.01,-33.19 501.42,-23.05"/>
<polygon fill="midnightblue" stroke="midnightblue" points="502.81,-26.27 510.97,-19.52 500.38,-19.7 502.81,-26.27"/>
</g>
<!-- Node16 -->
<g id="node16" class="node">
<title>Node16</title>
<g id="a_node16"><a xlink:title=" ">
<polygon fill="white" stroke="#bfbfbf" points="578.5,-0.5 578.5,-19.5 625.5,-19.5 625.5,-0.5 578.5,-0.5"/>
<text text-anchor="middle" x="602" y="-7.5" font-family="Helvetica,sans-Serif" font-size="10.00">cmath</text>
</a>
</g>
</g>
<!-- Node7&#45;&gt;Node16 -->
<g id="edge16" class="edge">
<title>Node7&#45;&gt;Node16</title>
<path fill="none" stroke="midnightblue" d="M414.74,-58.31C417.86,-57.53 421,-56.75 424,-56 485.41,-40.7 503.11,-37.07 568.26,-20.15"/>
<polygon fill="midnightblue" stroke="midnightblue" points="569.43,-23.46 578.22,-17.55 567.67,-16.69 569.43,-23.46"/>
</g>
<!-- Node21&#45;&gt;Node7 -->
<g id="edge23" class="edge">
<title>Node21&#45;&gt;Node7</title>
<path fill="none" stroke="midnightblue" d="M427.24,-112.08C420.46,-104.3 410.46,-92.8 402.24,-83.37"/>
<polygon fill="midnightblue" stroke="midnightblue" points="404.82,-81 395.62,-75.75 399.54,-85.59 404.82,-81"/>
</g>
<!-- Node22 -->
<g id="node22" class="node">
<title>Node22</title>
<g id="a_node22"><a xlink:title=" ">
<polygon fill="white" stroke="#bfbfbf" points="433,-56.5 433,-75.5 479,-75.5 479,-56.5 433,-56.5"/>
<text text-anchor="middle" x="456" y="-63.5" font-family="Helvetica,sans-Serif" font-size="10.00">cstdio</text>
</a>
</g>
</g>
<!-- Node21&#45;&gt;Node22 -->
<g id="edge24" class="edge">
<title>Node21&#45;&gt;Node22</title>
<path fill="none" stroke="midnightblue" d="M438.47,-112.08C441.31,-104.77 445.43,-94.18 448.96,-85.1"/>
<polygon fill="midnightblue" stroke="midnightblue" points="452.23,-86.34 452.6,-75.75 445.71,-83.8 452.23,-86.34"/>
</g>
</g>
</svg>
