<?xml version="1.0" encoding="UTF-8" standalone="no"?>
<!DOCTYPE svg PUBLIC "-//W3C//DTD SVG 1.1//EN"
 "http://www.w3.org/Graphics/SVG/1.1/DTD/svg11.dtd">
<!-- Generated by graphviz version 2.42.3 (0)
 -->
<!-- Title: ProtChBody.h Pages: 1 -->
<svg width="992pt" height="95pt"
 viewBox="0.00 0.00 992.00 95.00" xmlns="http://www.w3.org/2000/svg" xmlns:xlink="http://www.w3.org/1999/xlink">
<g id="graph0" class="graph" transform="scale(1 1) rotate(0) translate(4 91)">
<title>ProtChBody.h</title>
<polygon fill="white" stroke="transparent" points="-4,4 -4,-91 988,-91 988,4 -4,4"/>
<!-- Node1 -->
<g id="node1" class="node">
<title>Node1</title>
<g id="a_node1"><a xlink:title=" ">
<polygon fill="#bfbfbf" stroke="black" points="538,-67.5 538,-86.5 619,-86.5 619,-67.5 538,-67.5"/>
<text text-anchor="middle" x="578.5" y="-74.5" font-family="Helvetica,sans-Serif" font-size="10.00">ProtChBody.h</text>
</a>
</g>
</g>
<!-- Node2 -->
<g id="node2" class="node">
<title>Node2</title>
<g id="a_node2"><a xlink:title=" ">
<polygon fill="white" stroke="#bfbfbf" points="0,-6 0,-25 173,-25 173,-6 0,-6"/>
<text text-anchor="middle" x="86.5" y="-13" font-family="Helvetica,sans-Serif" font-size="10.00">chrono/physics/ChSystemSMC.h</text>
</a>
</g>
</g>
<!-- Node1&#45;&gt;Node2 -->
<g id="edge1" class="edge">
<title>Node1&#45;&gt;Node2</title>
<path fill="none" stroke="midnightblue" d="M537.86,-71.92C465.91,-64.57 311.46,-48.28 181.5,-31 171.35,-29.65 160.6,-28.11 150.13,-26.56"/>
<polygon fill="midnightblue" stroke="midnightblue" points="150.62,-23.09 140.21,-25.07 149.57,-30.01 150.62,-23.09"/>
</g>
<!-- Node3 -->
<g id="node3" class="node">
<title>Node3</title>
<g id="a_node3"><a xlink:title=" ">
<polygon fill="white" stroke="#bfbfbf" points="191,-6 191,-25 342,-25 342,-6 191,-6"/>
<text text-anchor="middle" x="266.5" y="-13" font-family="Helvetica,sans-Serif" font-size="10.00">chrono/physics/ChSystem.h</text>
</a>
</g>
</g>
<!-- Node1&#45;&gt;Node3 -->
<g id="edge2" class="edge">
<title>Node1&#45;&gt;Node3</title>
<path fill="none" stroke="midnightblue" d="M537.71,-68.22C482.24,-57.64 382.87,-38.69 321.04,-26.9"/>
<polygon fill="midnightblue" stroke="midnightblue" points="321.56,-23.44 311.08,-25 320.25,-30.31 321.56,-23.44"/>
</g>
<!-- Node4 -->
<g id="node4" class="node">
<title>Node4</title>
<g id="a_node4"><a xlink:title=" ">
<polygon fill="white" stroke="#bfbfbf" points="360.5,-0.5 360.5,-30.5 472.5,-30.5 472.5,-0.5 360.5,-0.5"/>
<text text-anchor="start" x="368.5" y="-18.5" font-family="Helvetica,sans-Serif" font-size="10.00">chrono/timestepper</text>
<text text-anchor="middle" x="416.5" y="-7.5" font-family="Helvetica,sans-Serif" font-size="10.00">/ChTimestepper.h</text>
</a>
</g>
</g>
<!-- Node1&#45;&gt;Node4 -->
<g id="edge3" class="edge">
<title>Node1&#45;&gt;Node4</title>
<path fill="none" stroke="midnightblue" d="M555.29,-67.48C531.61,-58.78 494.17,-45.03 464.14,-34"/>
<polygon fill="midnightblue" stroke="midnightblue" points="465.27,-30.69 454.68,-30.52 462.86,-37.26 465.27,-30.69"/>
</g>
<!-- Node5 -->
<g id="node5" class="node">
<title>Node5</title>
<g id="a_node5"><a xlink:title=" ">
<polygon fill="white" stroke="#bfbfbf" points="490.5,-6 490.5,-25 666.5,-25 666.5,-6 490.5,-6"/>
<text text-anchor="middle" x="578.5" y="-13" font-family="Helvetica,sans-Serif" font-size="10.00">chrono/solver/ChSolverMINRES.h</text>
</a>
</g>
</g>
<!-- Node1&#45;&gt;Node5 -->
<g id="edge4" class="edge">
<title>Node1&#45;&gt;Node5</title>
<path fill="none" stroke="midnightblue" d="M578.5,-67.48C578.5,-59.08 578.5,-45.98 578.5,-35.16"/>
<polygon fill="midnightblue" stroke="midnightblue" points="582,-35.01 578.5,-25.01 575,-35.01 582,-35.01"/>
</g>
<!-- Node6 -->
<g id="node6" class="node">
<title>Node6</title>
<g id="a_node6"><a xlink:title=" ">
<polygon fill="white" stroke="#bfbfbf" points="685,-6 685,-25 832,-25 832,-6 685,-6"/>
<text text-anchor="middle" x="758.5" y="-13" font-family="Helvetica,sans-Serif" font-size="10.00">chrono/core/ChTransform.h</text>
</a>
</g>
</g>
<!-- Node1&#45;&gt;Node6 -->
<g id="edge5" class="edge">
<title>Node1&#45;&gt;Node6</title>
<path fill="none" stroke="midnightblue" d="M604.29,-67.48C635.43,-57.18 687.98,-39.81 722.95,-28.25"/>
<polygon fill="midnightblue" stroke="midnightblue" points="724.36,-31.47 732.76,-25.01 722.16,-24.82 724.36,-31.47"/>
</g>
<!-- Node7 -->
<g id="node7" class="node">
<title>Node7</title>
<g id="a_node7"><a xlink:title=" ">
<polygon fill="white" stroke="#bfbfbf" points="850.5,-6 850.5,-25 910.5,-25 910.5,-6 850.5,-6"/>
<text text-anchor="middle" x="880.5" y="-13" font-family="Helvetica,sans-Serif" font-size="10.00">iostream</text>
</a>
</g>
</g>
<!-- Node1&#45;&gt;Node7 -->
<g id="edge6" class="edge">
<title>Node1&#45;&gt;Node7</title>
<path fill="none" stroke="midnightblue" d="M619.11,-71.44C671.21,-65.05 764.11,-51.81 841.5,-31 844.31,-30.24 847.21,-29.37 850.09,-28.42"/>
<polygon fill="midnightblue" stroke="midnightblue" points="851.41,-31.67 859.68,-25.06 849.09,-25.06 851.41,-31.67"/>
</g>
<!-- Node8 -->
<g id="node8" class="node">
<title>Node8</title>
<g id="a_node8"><a xlink:title=" ">
<polygon fill="white" stroke="#bfbfbf" points="929,-6 929,-25 984,-25 984,-6 929,-6"/>
<text text-anchor="middle" x="956.5" y="-13" font-family="Helvetica,sans-Serif" font-size="10.00">fstream</text>
</a>
</g>
</g>
<!-- Node1&#45;&gt;Node8 -->
<g id="edge7" class="edge">
<title>Node1&#45;&gt;Node8</title>
<path fill="none" stroke="midnightblue" d="M619,-73.83C683.49,-69.68 813.11,-58.43 919.5,-31 922.16,-30.31 924.9,-29.49 927.61,-28.59"/>
<polygon fill="midnightblue" stroke="midnightblue" points="929.01,-31.8 937.21,-25.08 926.61,-25.22 929.01,-31.8"/>
</g>
</g>
</svg>
