<?xml version="1.0" encoding="UTF-8" standalone="no"?>
<!DOCTYPE svg PUBLIC "-//W3C//DTD SVG 1.1//EN"
 "http://www.w3.org/Graphics/SVG/1.1/DTD/svg11.dtd">
<!-- Generated by graphviz version 2.42.3 (0)
 -->
<!-- Title: ProtChMoorings.h Pages: 1 -->
<svg width="3324pt" height="95pt"
 viewBox="0.00 0.00 3323.50 95.00" xmlns="http://www.w3.org/2000/svg" xmlns:xlink="http://www.w3.org/1999/xlink">
<g id="graph0" class="graph" transform="scale(1 1) rotate(0) translate(4 91)">
<title>ProtChMoorings.h</title>
<polygon fill="white" stroke="transparent" points="-4,4 -4,-91 3319.5,-91 3319.5,4 -4,4"/>
<!-- Node1 -->
<g id="node1" class="node">
<title>Node1</title>
<g id="a_node1"><a xlink:title=" ">
<polygon fill="#bfbfbf" stroke="black" points="1496.5,-67.5 1496.5,-86.5 1599.5,-86.5 1599.5,-67.5 1496.5,-67.5"/>
<text text-anchor="middle" x="1548" y="-74.5" font-family="Helvetica,sans-Serif" font-size="10.00">ProtChMoorings.h</text>
</a>
</g>
</g>
<!-- Node2 -->
<g id="node2" class="node">
<title>Node2</title>
<g id="a_node2"><a xlink:title=" ">
<polygon fill="white" stroke="#bfbfbf" points="0,-6 0,-25 60,-25 60,-6 0,-6"/>
<text text-anchor="middle" x="30" y="-13" font-family="Helvetica,sans-Serif" font-size="10.00">iostream</text>
</a>
</g>
</g>
<!-- Node1&#45;&gt;Node2 -->
<g id="edge1" class="edge">
<title>Node1&#45;&gt;Node2</title>
<path fill="none" stroke="midnightblue" d="M1496.48,-75.42C1251.59,-72.56 211.21,-58.82 69,-31 65.56,-30.33 62.03,-29.39 58.56,-28.31"/>
<polygon fill="midnightblue" stroke="midnightblue" points="59.68,-24.99 49.08,-25 57.37,-31.6 59.68,-24.99"/>
</g>
<!-- Node3 -->
<g id="node3" class="node">
<title>Node3</title>
<g id="a_node3"><a xlink:title=" ">
<polygon fill="white" stroke="#bfbfbf" points="78.5,-6 78.5,-25 129.5,-25 129.5,-6 78.5,-6"/>
<text text-anchor="middle" x="104" y="-13" font-family="Helvetica,sans-Serif" font-size="10.00">math.h</text>
</a>
</g>
</g>
<!-- Node1&#45;&gt;Node3 -->
<g id="edge2" class="edge">
<title>Node1&#45;&gt;Node3</title>
<path fill="none" stroke="midnightblue" d="M1496.15,-75.45C1257.82,-72.76 273.43,-59.98 139,-31 136.17,-30.39 133.27,-29.56 130.42,-28.6"/>
<polygon fill="midnightblue" stroke="midnightblue" points="131.64,-25.32 121.05,-25.01 129.13,-31.86 131.64,-25.32"/>
</g>
<!-- Node4 -->
<g id="node4" class="node">
<title>Node4</title>
<g id="a_node4"><a xlink:title=" ">
<polygon fill="white" stroke="#bfbfbf" points="148,-6 148,-25 192,-25 192,-6 148,-6"/>
<text text-anchor="middle" x="170" y="-13" font-family="Helvetica,sans-Serif" font-size="10.00">string</text>
</a>
</g>
</g>
<!-- Node1&#45;&gt;Node4 -->
<g id="edge3" class="edge">
<title>Node1&#45;&gt;Node4</title>
<path fill="none" stroke="midnightblue" d="M1496.48,-75.5C1265.2,-73.11 328.49,-61.58 201,-31 198.79,-30.47 196.56,-29.78 194.34,-28.98"/>
<polygon fill="midnightblue" stroke="midnightblue" points="195.58,-25.7 185.01,-25.01 192.84,-32.14 195.58,-25.7"/>
</g>
<!-- Node5 -->
<g id="node5" class="node">
<title>Node5</title>
<g id="a_node5"><a xlink:title=" ">
<polygon fill="white" stroke="#bfbfbf" points="210.5,-6 210.5,-25 361.5,-25 361.5,-6 210.5,-6"/>
<text text-anchor="middle" x="286" y="-13" font-family="Helvetica,sans-Serif" font-size="10.00">chrono/physics/ChSystem.h</text>
</a>
</g>
</g>
<!-- Node1&#45;&gt;Node5 -->
<g id="edge4" class="edge">
<title>Node1&#45;&gt;Node5</title>
<path fill="none" stroke="midnightblue" d="M1496.44,-76.47C1331.77,-77.44 803.81,-76.52 370,-31 359.95,-29.95 349.3,-28.42 339.06,-26.76"/>
<polygon fill="midnightblue" stroke="midnightblue" points="339.46,-23.27 329.01,-25.05 338.29,-30.18 339.46,-23.27"/>
</g>
<!-- Node6 -->
<g id="node6" class="node">
<title>Node6</title>
<g id="a_node6"><a xlink:title=" ">
<polygon fill="white" stroke="#bfbfbf" points="379.5,-6 379.5,-25 552.5,-25 552.5,-6 379.5,-6"/>
<text text-anchor="middle" x="466" y="-13" font-family="Helvetica,sans-Serif" font-size="10.00">chrono/physics/ChSystemSMC.h</text>
</a>
</g>
</g>
<!-- Node1&#45;&gt;Node6 -->
<g id="edge5" class="edge">
<title>Node1&#45;&gt;Node6</title>
<path fill="none" stroke="midnightblue" d="M1496.28,-75.54C1349.55,-73.82 918.22,-65.93 562,-31 550.2,-29.84 537.65,-28.23 525.64,-26.49"/>
<polygon fill="midnightblue" stroke="midnightblue" points="526.11,-23.03 515.7,-25.02 525.08,-29.95 526.11,-23.03"/>
</g>
<!-- Node7 -->
<g id="node7" class="node">
<title>Node7</title>
<g id="a_node7"><a xlink:title=" ">
<polygon fill="white" stroke="#bfbfbf" points="571,-6 571,-25 755,-25 755,-6 571,-6"/>
<text text-anchor="middle" x="663" y="-13" font-family="Helvetica,sans-Serif" font-size="10.00">chrono/physics/ChLoadContainer.h</text>
</a>
</g>
</g>
<!-- Node1&#45;&gt;Node7 -->
<g id="edge6" class="edge">
<title>Node1&#45;&gt;Node7</title>
<path fill="none" stroke="midnightblue" d="M1496.05,-74.55C1370.19,-70.7 1039.04,-58.59 764,-31 751.88,-29.78 738.99,-28.18 726.61,-26.47"/>
<polygon fill="midnightblue" stroke="midnightblue" points="726.75,-22.96 716.36,-25.03 725.77,-29.89 726.75,-22.96"/>
</g>
<!-- Node8 -->
<g id="node8" class="node">
<title>Node8</title>
<g id="a_node8"><a xlink:title=" ">
<polygon fill="white" stroke="#bfbfbf" points="773.5,-6 773.5,-25 932.5,-25 932.5,-6 773.5,-6"/>
<text text-anchor="middle" x="853" y="-13" font-family="Helvetica,sans-Serif" font-size="10.00">chrono/physics/ChLinkMate.h</text>
</a>
</g>
</g>
<!-- Node1&#45;&gt;Node8 -->
<g id="edge7" class="edge">
<title>Node1&#45;&gt;Node8</title>
<path fill="none" stroke="midnightblue" d="M1496.29,-73.73C1391.33,-68.77 1145.87,-55.42 941,-31 930.97,-29.8 920.33,-28.28 910.05,-26.66"/>
<polygon fill="midnightblue" stroke="midnightblue" points="910.36,-23.17 899.93,-25.03 909.24,-30.08 910.36,-23.17"/>
</g>
<!-- Node9 -->
<g id="node9" class="node">
<title>Node9</title>
<g id="a_node9"><a xlink:title=" ">
<polygon fill="white" stroke="#bfbfbf" points="950.5,-6 950.5,-25 1111.5,-25 1111.5,-6 950.5,-6"/>
<text text-anchor="middle" x="1031" y="-13" font-family="Helvetica,sans-Serif" font-size="10.00">chrono/physics/ChBodyEasy.h</text>
</a>
</g>
</g>
<!-- Node1&#45;&gt;Node9 -->
<g id="edge8" class="edge">
<title>Node1&#45;&gt;Node9</title>
<path fill="none" stroke="midnightblue" d="M1496.5,-71.54C1416,-64.35 1255.52,-49.15 1120,-31 1110.44,-29.72 1100.33,-28.22 1090.48,-26.67"/>
<polygon fill="midnightblue" stroke="midnightblue" points="1090.78,-23.17 1080.36,-25.05 1089.68,-30.09 1090.78,-23.17"/>
</g>
<!-- Node10 -->
<g id="node10" class="node">
<title>Node10</title>
<g id="a_node10"><a xlink:title=" ">
<polygon fill="white" stroke="#bfbfbf" points="1129.5,-0.5 1129.5,-30.5 1282.5,-30.5 1282.5,-0.5 1129.5,-0.5"/>
<text text-anchor="start" x="1137.5" y="-18.5" font-family="Helvetica,sans-Serif" font-size="10.00">chrono/fea/ChElementBeam</text>
<text text-anchor="middle" x="1206" y="-7.5" font-family="Helvetica,sans-Serif" font-size="10.00">ANCF.h</text>
</a>
</g>
</g>
<!-- Node1&#45;&gt;Node10 -->
<g id="edge9" class="edge">
<title>Node1&#45;&gt;Node10</title>
<path fill="none" stroke="midnightblue" d="M1499,-67.48C1445.24,-58.12 1357.92,-42.93 1292.56,-31.56"/>
<polygon fill="midnightblue" stroke="midnightblue" points="1293.13,-28.11 1282.68,-29.84 1291.93,-35 1293.13,-28.11"/>
</g>
<!-- Node11 -->
<g id="node11" class="node">
<title>Node11</title>
<g id="a_node11"><a xlink:title=" ">
<polygon fill="white" stroke="#bfbfbf" points="1301,-0.5 1301,-30.5 1453,-30.5 1453,-0.5 1301,-0.5"/>
<text text-anchor="start" x="1309" y="-18.5" font-family="Helvetica,sans-Serif" font-size="10.00">chrono/fea/ChElementCable</text>
<text text-anchor="middle" x="1377" y="-7.5" font-family="Helvetica,sans-Serif" font-size="10.00">ANCF.h</text>
</a>
</g>
</g>
<!-- Node1&#45;&gt;Node11 -->
<g id="edge10" class="edge">
<title>Node1&#45;&gt;Node11</title>
<path fill="none" stroke="midnightblue" d="M1523.5,-67.48C1498.39,-58.74 1458.64,-44.91 1426.88,-33.86"/>
<polygon fill="midnightblue" stroke="midnightblue" points="1427.9,-30.5 1417.3,-30.52 1425.6,-37.11 1427.9,-30.5"/>
</g>
<!-- Node12 -->
<g id="node12" class="node">
<title>Node12</title>
<g id="a_node12"><a xlink:title=" ">
<polygon fill="white" stroke="#bfbfbf" points="1471.5,-0.5 1471.5,-30.5 1624.5,-30.5 1624.5,-0.5 1471.5,-0.5"/>
<text text-anchor="start" x="1479.5" y="-18.5" font-family="Helvetica,sans-Serif" font-size="10.00">chrono/fea/ChElementBeam</text>
<text text-anchor="middle" x="1548" y="-7.5" font-family="Helvetica,sans-Serif" font-size="10.00">Euler.h</text>
</a>
</g>
</g>
<!-- Node1&#45;&gt;Node12 -->
<g id="edge11" class="edge">
<title>Node1&#45;&gt;Node12</title>
<path fill="none" stroke="midnightblue" d="M1548,-67.48C1548,-60.47 1548,-50.19 1548,-40.7"/>
<polygon fill="midnightblue" stroke="midnightblue" points="1551.5,-40.52 1548,-30.52 1544.5,-40.52 1551.5,-40.52"/>
</g>
<!-- Node13 -->
<g id="node13" class="node">
<title>Node13</title>
<g id="a_node13"><a xlink:title=" ">
<polygon fill="white" stroke="#bfbfbf" points="1643,-6 1643,-25 1801,-25 1801,-6 1643,-6"/>
<text text-anchor="middle" x="1722" y="-13" font-family="Helvetica,sans-Serif" font-size="10.00">chrono/fea/ChBeamSection.h</text>
</a>
</g>
</g>
<!-- Node1&#45;&gt;Node13 -->
<g id="edge12" class="edge">
<title>Node1&#45;&gt;Node13</title>
<path fill="none" stroke="midnightblue" d="M1572.93,-67.48C1603.04,-57.18 1653.83,-39.81 1687.64,-28.25"/>
<polygon fill="midnightblue" stroke="midnightblue" points="1688.79,-31.56 1697.12,-25.01 1686.52,-24.93 1688.79,-31.56"/>
</g>
<!-- Node14 -->
<g id="node14" class="node">
<title>Node14</title>
<g id="a_node14"><a xlink:title=" ">
<polygon fill="white" stroke="#bfbfbf" points="1819.5,-6 1819.5,-25 1938.5,-25 1938.5,-6 1819.5,-6"/>
<text text-anchor="middle" x="1879" y="-13" font-family="Helvetica,sans-Serif" font-size="10.00">chrono/fea/ChMesh.h</text>
</a>
</g>
</g>
<!-- Node1&#45;&gt;Node14 -->
<g id="edge13" class="edge">
<title>Node1&#45;&gt;Node14</title>
<path fill="none" stroke="midnightblue" d="M1599.8,-67.68C1652.73,-59.05 1737.24,-44.89 1810,-31 1816.31,-29.8 1822.94,-28.47 1829.48,-27.14"/>
<polygon fill="midnightblue" stroke="midnightblue" points="1830.56,-30.49 1839.64,-25.03 1829.14,-23.63 1830.56,-30.49"/>
</g>
<!-- Node15 -->
<g id="node15" class="node">
<title>Node15</title>
<g id="a_node15"><a xlink:title=" ">
<polygon fill="white" stroke="#bfbfbf" points="1956.5,-6 1956.5,-25 2119.5,-25 2119.5,-6 1956.5,-6"/>
<text text-anchor="middle" x="2038" y="-13" font-family="Helvetica,sans-Serif" font-size="10.00">chrono/fea/ChLinkPointPoint.h</text>
</a>
</g>
</g>
<!-- Node1&#45;&gt;Node15 -->
<g id="edge14" class="edge">
<title>Node1&#45;&gt;Node15</title>
<path fill="none" stroke="midnightblue" d="M1599.56,-70.99C1675.84,-63.41 1823.2,-48.06 1948,-31 1957.54,-29.7 1967.64,-28.19 1977.48,-26.66"/>
<polygon fill="midnightblue" stroke="midnightblue" points="1978.28,-30.07 1987.61,-25.05 1977.18,-23.16 1978.28,-30.07"/>
</g>
<!-- Node16 -->
<g id="node16" class="node">
<title>Node16</title>
<g id="a_node16"><a xlink:title=" ">
<polygon fill="white" stroke="#bfbfbf" points="2137.5,-6 2137.5,-25 2306.5,-25 2306.5,-6 2137.5,-6"/>
<text text-anchor="middle" x="2222" y="-13" font-family="Helvetica,sans-Serif" font-size="10.00">chrono/fea/ChLinkPointFrame.h</text>
</a>
</g>
</g>
<!-- Node1&#45;&gt;Node16 -->
<g id="edge15" class="edge">
<title>Node1&#45;&gt;Node16</title>
<path fill="none" stroke="midnightblue" d="M1599.82,-73.34C1701.51,-67.81 1934.3,-53.68 2129,-31 2139.69,-29.75 2151.03,-28.19 2161.98,-26.55"/>
<polygon fill="midnightblue" stroke="midnightblue" points="2162.54,-30.01 2171.9,-25.04 2161.49,-23.09 2162.54,-30.01"/>
</g>
<!-- Node17 -->
<g id="node17" class="node">
<title>Node17</title>
<g id="a_node17"><a xlink:title=" ">
<polygon fill="white" stroke="#bfbfbf" points="2324,-6 2324,-25 2482,-25 2482,-6 2324,-6"/>
<text text-anchor="middle" x="2403" y="-13" font-family="Helvetica,sans-Serif" font-size="10.00">chrono/fea/ChLinkDirFrame.h</text>
</a>
</g>
</g>
<!-- Node1&#45;&gt;Node17 -->
<g id="edge16" class="edge">
<title>Node1&#45;&gt;Node17</title>
<path fill="none" stroke="midnightblue" d="M1599.85,-74.87C1723.92,-71.75 2047.56,-61.15 2316,-31 2326.26,-29.85 2337.16,-28.3 2347.64,-26.64"/>
<polygon fill="midnightblue" stroke="midnightblue" points="2348.22,-30.09 2357.52,-25.02 2347.09,-23.18 2348.22,-30.09"/>
</g>
<!-- Node18 -->
<g id="node18" class="node">
<title>Node18</title>
<g id="a_node18"><a xlink:title=" ">
<polygon fill="white" stroke="#bfbfbf" points="2500,-6 2500,-25 2650,-25 2650,-6 2500,-6"/>
<text text-anchor="middle" x="2575" y="-13" font-family="Helvetica,sans-Serif" font-size="10.00">chrono/fea/ChLoadsBeam.h</text>
</a>
</g>
</g>
<!-- Node1&#45;&gt;Node18 -->
<g id="edge17" class="edge">
<title>Node1&#45;&gt;Node18</title>
<path fill="none" stroke="midnightblue" d="M1599.54,-75.77C1741.89,-74.65 2152.32,-68.17 2491,-31 2500.93,-29.91 2511.46,-28.39 2521.59,-26.73"/>
<polygon fill="midnightblue" stroke="midnightblue" points="2522.27,-30.17 2531.55,-25.05 2521.1,-23.27 2522.27,-30.17"/>
</g>
<!-- Node19 -->
<g id="node19" class="node">
<title>Node19</title>
<g id="a_node19"><a xlink:title=" ">
<polygon fill="white" stroke="#bfbfbf" points="2668,-0.5 2668,-30.5 2826,-30.5 2826,-0.5 2668,-0.5"/>
<text text-anchor="start" x="2676" y="-18.5" font-family="Helvetica,sans-Serif" font-size="10.00">chrono/fea/ChContactSurface</text>
<text text-anchor="middle" x="2747" y="-7.5" font-family="Helvetica,sans-Serif" font-size="10.00">NodeCloud.h</text>
</a>
</g>
</g>
<!-- Node1&#45;&gt;Node19 -->
<g id="edge18" class="edge">
<title>Node1&#45;&gt;Node19</title>
<path fill="none" stroke="midnightblue" d="M1599.66,-76.16C1757.03,-76.16 2244.42,-72.64 2657.85,-31.02"/>
<polygon fill="midnightblue" stroke="midnightblue" points="2658.31,-34.5 2667.91,-30 2657.6,-27.53 2658.31,-34.5"/>
</g>
<!-- Node20 -->
<g id="node20" class="node">
<title>Node20</title>
<g id="a_node20"><a xlink:title=" ">
<polygon fill="white" stroke="#bfbfbf" points="2844,-0.5 2844,-30.5 2956,-30.5 2956,-0.5 2844,-0.5"/>
<text text-anchor="start" x="2852" y="-18.5" font-family="Helvetica,sans-Serif" font-size="10.00">chrono/timestepper</text>
<text text-anchor="middle" x="2900" y="-7.5" font-family="Helvetica,sans-Serif" font-size="10.00">/ChTimestepper.h</text>
</a>
</g>
</g>
<!-- Node1&#45;&gt;Node20 -->
<g id="edge19" class="edge">
<title>Node1&#45;&gt;Node20</title>
<path fill="none" stroke="midnightblue" d="M1599.85,-75.46C1806.1,-73.14 2569.45,-62.63 2833.43,-31"/>
<polygon fill="midnightblue" stroke="midnightblue" points="2834.25,-34.42 2843.74,-29.72 2833.39,-27.47 2834.25,-34.42"/>
</g>
<!-- Node21 -->
<g id="node21" class="node">
<title>Node21</title>
<g id="a_node21"><a xlink:title=" ">
<polygon fill="white" stroke="#bfbfbf" points="2974,-6 2974,-25 3150,-25 3150,-6 2974,-6"/>
<text text-anchor="middle" x="3062" y="-13" font-family="Helvetica,sans-Serif" font-size="10.00">chrono/solver/ChSolverMINRES.h</text>
</a>
</g>
</g>
<!-- Node1&#45;&gt;Node21 -->
<g id="edge20" class="edge">
<title>Node1&#45;&gt;Node21</title>
<path fill="none" stroke="midnightblue" d="M1599.6,-76.53C1784.78,-77.97 2433.06,-79.04 2965,-31 2977.06,-29.91 2989.9,-28.31 3002.16,-26.56"/>
<polygon fill="midnightblue" stroke="midnightblue" points="3002.91,-29.99 3012.29,-25.07 3001.89,-23.06 3002.91,-29.99"/>
</g>
<!-- Node22 -->
<g id="node22" class="node">
<title>Node22</title>
<g id="a_node22"><a xlink:title=" ">
<polygon fill="white" stroke="#bfbfbf" points="3168.5,-6 3168.5,-25 3315.5,-25 3315.5,-6 3168.5,-6"/>
<text text-anchor="middle" x="3242" y="-13" font-family="Helvetica,sans-Serif" font-size="10.00">chrono/core/ChTransform.h</text>
</a>
</g>
</g>
<!-- Node1&#45;&gt;Node22 -->
<g id="edge21" class="edge">
<title>Node1&#45;&gt;Node22</title>
<path fill="none" stroke="midnightblue" d="M1599.77,-75.57C1839.81,-73.39 2845.99,-62.54 3159,-31 3169.04,-29.99 3179.7,-28.47 3189.91,-26.79"/>
<polygon fill="midnightblue" stroke="midnightblue" points="3190.68,-30.21 3199.94,-25.07 3189.49,-23.31 3190.68,-30.21"/>
</g>
</g>
</svg>
