<?xml version="1.0" encoding="UTF-8" standalone="no"?>
<!DOCTYPE svg PUBLIC "-//W3C//DTD SVG 1.1//EN"
 "http://www.w3.org/Graphics/SVG/1.1/DTD/svg11.dtd">
<!-- Generated by graphviz version 2.42.3 (0)
 -->
<!-- Title: RANS3PSed.h Pages: 1 -->
<svg width="351pt" height="140pt"
 viewBox="0.00 0.00 350.99 140.00" xmlns="http://www.w3.org/2000/svg" xmlns:xlink="http://www.w3.org/1999/xlink">
<g id="graph0" class="graph" transform="scale(1 1) rotate(0) translate(4 136)">
<title>RANS3PSed.h</title>
<polygon fill="white" stroke="transparent" points="-4,4 -4,-136 346.99,-136 346.99,4 -4,4"/>
<!-- Node1 -->
<g id="node1" class="node">
<title>Node1</title>
<g id="a_node1"><a xlink:title=" ">
<polygon fill="#bfbfbf" stroke="black" points="115.99,-112.5 115.99,-131.5 198.99,-131.5 198.99,-112.5 115.99,-112.5"/>
<text text-anchor="middle" x="157.49" y="-119.5" font-family="Helvetica,sans-Serif" font-size="10.00">RANS3PSed.h</text>
</a>
</g>
</g>
<!-- Node2 -->
<g id="node2" class="node">
<title>Node2</title>
<g id="a_node2"><a xlink:title=" ">
<polygon fill="white" stroke="#bfbfbf" points="32.99,-0.5 32.99,-19.5 79.99,-19.5 79.99,-0.5 32.99,-0.5"/>
<text text-anchor="middle" x="56.49" y="-7.5" font-family="Helvetica,sans-Serif" font-size="10.00">cmath</text>
</a>
</g>
</g>
<!-- Node1&#45;&gt;Node2 -->
<g id="edge1" class="edge">
<title>Node1&#45;&gt;Node2</title>
<path fill="none" stroke="midnightblue" d="M115.82,-114.45C75.27,-107.13 17.89,-93.9 4.49,-76 -8.87,-58.14 12.79,-38.19 32.09,-25.16"/>
<polygon fill="midnightblue" stroke="midnightblue" points="34.11,-28.02 40.66,-19.69 30.35,-22.12 34.11,-28.02"/>
</g>
<!-- Node3 -->
<g id="node3" class="node">
<title>Node3</title>
<g id="a_node3"><a xlink:title=" ">
<polygon fill="white" stroke="#bfbfbf" points="195.49,-0.5 195.49,-19.5 255.49,-19.5 255.49,-0.5 195.49,-0.5"/>
<text text-anchor="middle" x="225.49" y="-7.5" font-family="Helvetica,sans-Serif" font-size="10.00">iostream</text>
</a>
</g>
</g>
<!-- Node1&#45;&gt;Node3 -->
<g id="edge2" class="edge">
<title>Node1&#45;&gt;Node3</title>
<path fill="none" stroke="midnightblue" d="M170.16,-112.46C181.28,-104.32 197.1,-91.11 206.49,-76 215.32,-61.8 220.2,-43.32 222.8,-29.7"/>
<polygon fill="midnightblue" stroke="midnightblue" points="226.29,-30.04 224.48,-19.6 219.39,-28.89 226.29,-30.04"/>
</g>
<!-- Node4 -->
<g id="node4" class="node">
<title>Node4</title>
<g id="a_node4"><a xlink:href="_comp_kernel_8h.html" target="_top" xlink:title=" ">
<polygon fill="white" stroke="black" points="13.99,-56.5 13.99,-75.5 98.99,-75.5 98.99,-56.5 13.99,-56.5"/>
<text text-anchor="middle" x="56.49" y="-63.5" font-family="Helvetica,sans-Serif" font-size="10.00">CompKernel.h</text>
</a>
</g>
</g>
<!-- Node1&#45;&gt;Node4 -->
<g id="edge3" class="edge">
<title>Node1&#45;&gt;Node4</title>
<path fill="none" stroke="midnightblue" d="M141.27,-112.32C125.14,-103.7 100.19,-90.36 81.53,-80.39"/>
<polygon fill="midnightblue" stroke="midnightblue" points="83.15,-77.28 72.68,-75.65 79.85,-83.46 83.15,-77.28"/>
</g>
<!-- Node5 -->
<g id="node5" class="node">
<title>Node5</title>
<g id="a_node5"><a xlink:href="_model_factory_8h.html" target="_top" xlink:title=" ">
<polygon fill="white" stroke="black" points="253.99,-56.5 253.99,-75.5 342.99,-75.5 342.99,-56.5 253.99,-56.5"/>
<text text-anchor="middle" x="298.49" y="-63.5" font-family="Helvetica,sans-Serif" font-size="10.00">ModelFactory.h</text>
</a>
</g>
</g>
<!-- Node1&#45;&gt;Node5 -->
<g id="edge5" class="edge">
<title>Node1&#45;&gt;Node5</title>
<path fill="none" stroke="midnightblue" d="M179.84,-112.44C203.25,-103.48 240.23,-89.31 266.68,-79.18"/>
<polygon fill="midnightblue" stroke="midnightblue" points="268.17,-82.36 276.26,-75.52 265.67,-75.82 268.17,-82.36"/>
</g>
<!-- Node6 -->
<g id="node6" class="node">
<title>Node6</title>
<g id="a_node6"><a xlink:href="_sed_closure_8h.html" target="_top" xlink:title=" ">
<polygon fill="white" stroke="black" points="117.49,-56.5 117.49,-75.5 197.49,-75.5 197.49,-56.5 117.49,-56.5"/>
<text text-anchor="middle" x="157.49" y="-63.5" font-family="Helvetica,sans-Serif" font-size="10.00">SedClosure.h</text>
</a>
</g>
</g>
<!-- Node1&#45;&gt;Node6 -->
<g id="edge7" class="edge">
<title>Node1&#45;&gt;Node6</title>
<path fill="none" stroke="midnightblue" d="M157.49,-112.08C157.49,-105.01 157.49,-94.86 157.49,-85.99"/>
<polygon fill="midnightblue" stroke="midnightblue" points="160.99,-85.75 157.49,-75.75 153.99,-85.75 160.99,-85.75"/>
</g>
<!-- Node4&#45;&gt;Node2 -->
<g id="edge4" class="edge">
<title>Node4&#45;&gt;Node2</title>
<path fill="none" stroke="midnightblue" d="M56.49,-56.08C56.49,-49.01 56.49,-38.86 56.49,-29.99"/>
<polygon fill="midnightblue" stroke="midnightblue" points="59.99,-29.75 56.49,-19.75 52.99,-29.75 59.99,-29.75"/>
</g>
<!-- Node5&#45;&gt;Node3 -->
<g id="edge6" class="edge">
<title>Node5&#45;&gt;Node3</title>
<path fill="none" stroke="midnightblue" d="M286.76,-56.32C275.66,-48.11 258.75,-35.6 245.51,-25.81"/>
<polygon fill="midnightblue" stroke="midnightblue" points="247.56,-22.97 237.44,-19.83 243.39,-28.59 247.56,-22.97"/>
</g>
<!-- Node6&#45;&gt;Node2 -->
<g id="edge8" class="edge">
<title>Node6&#45;&gt;Node2</title>
<path fill="none" stroke="midnightblue" d="M141.27,-56.32C125.14,-47.7 100.19,-34.36 81.53,-24.39"/>
<polygon fill="midnightblue" stroke="midnightblue" points="83.15,-21.28 72.68,-19.65 79.85,-27.46 83.15,-21.28"/>
</g>
<!-- Node6&#45;&gt;Node3 -->
<g id="edge9" class="edge">
<title>Node6&#45;&gt;Node3</title>
<path fill="none" stroke="midnightblue" d="M168.42,-56.32C178.67,-48.18 194.21,-35.84 206.49,-26.09"/>
<polygon fill="midnightblue" stroke="midnightblue" points="208.71,-28.79 214.37,-19.83 204.36,-23.31 208.71,-28.79"/>
</g>
</g>
</svg>
