<?xml version="1.0" encoding="UTF-8" standalone="no"?>
<!DOCTYPE svg PUBLIC "-//W3C//DTD SVG 1.1//EN"
 "http://www.w3.org/Graphics/SVG/1.1/DTD/svg11.dtd">
<!-- Generated by graphviz version 2.42.3 (0)
 -->
<!-- Title: RANS3PF.h Pages: 1 -->
<svg width="772pt" height="151pt"
 viewBox="0.00 0.00 772.42 151.00" xmlns="http://www.w3.org/2000/svg" xmlns:xlink="http://www.w3.org/1999/xlink">
<g id="graph0" class="graph" transform="scale(1 1) rotate(0) translate(4 147)">
<title>RANS3PF.h</title>
<polygon fill="white" stroke="transparent" points="-4,4 -4,-147 768.42,-147 768.42,4 -4,4"/>
<!-- Node1 -->
<g id="node1" class="node">
<title>Node1</title>
<g id="a_node1"><a xlink:title=" ">
<polygon fill="#bfbfbf" stroke="black" points="332.92,-123.5 332.92,-142.5 401.92,-142.5 401.92,-123.5 332.92,-123.5"/>
<text text-anchor="middle" x="367.42" y="-130.5" font-family="Helvetica,sans-Serif" font-size="10.00">RANS3PF.h</text>
</a>
</g>
</g>
<!-- Node2 -->
<g id="node2" class="node">
<title>Node2</title>
<g id="a_node2"><a xlink:title=" ">
<polygon fill="white" stroke="#bfbfbf" points="83.92,-6 83.92,-25 130.92,-25 130.92,-6 83.92,-6"/>
<text text-anchor="middle" x="107.42" y="-13" font-family="Helvetica,sans-Serif" font-size="10.00">cmath</text>
</a>
</g>
</g>
<!-- Node1&#45;&gt;Node2 -->
<g id="edge1" class="edge">
<title>Node1&#45;&gt;Node2</title>
<path fill="none" stroke="midnightblue" d="M332.7,-130.24C246.45,-125.52 27.85,-111.26 6.42,-87 -17.94,-59.41 36.11,-37.05 74.15,-25.36"/>
<polygon fill="midnightblue" stroke="midnightblue" points="75.3,-28.67 83.9,-22.49 73.32,-21.96 75.3,-28.67"/>
</g>
<!-- Node3 -->
<g id="node3" class="node">
<title>Node3</title>
<g id="a_node3"><a xlink:title=" ">
<polygon fill="white" stroke="#bfbfbf" points="523.92,-67.5 523.92,-86.5 580.92,-86.5 580.92,-67.5 523.92,-67.5"/>
<text text-anchor="middle" x="552.42" y="-74.5" font-family="Helvetica,sans-Serif" font-size="10.00">valarray</text>
</a>
</g>
</g>
<!-- Node1&#45;&gt;Node3 -->
<g id="edge2" class="edge">
<title>Node1&#45;&gt;Node3</title>
<path fill="none" stroke="midnightblue" d="M396.74,-123.44C428.45,-114.19 479.15,-99.39 514.02,-89.21"/>
<polygon fill="midnightblue" stroke="midnightblue" points="515.24,-92.5 523.86,-86.34 513.28,-85.78 515.24,-92.5"/>
</g>
<!-- Node4 -->
<g id="node4" class="node">
<title>Node4</title>
<g id="a_node4"><a xlink:title=" ">
<polygon fill="white" stroke="#bfbfbf" points="197.42,-6 197.42,-25 257.42,-25 257.42,-6 197.42,-6"/>
<text text-anchor="middle" x="227.42" y="-13" font-family="Helvetica,sans-Serif" font-size="10.00">iostream</text>
</a>
</g>
</g>
<!-- Node1&#45;&gt;Node4 -->
<g id="edge3" class="edge">
<title>Node1&#45;&gt;Node4</title>
<path fill="none" stroke="midnightblue" d="M332.74,-127.56C305.86,-122.33 269.58,-111.06 247.42,-87 234.39,-72.84 229.77,-50.8 228.18,-35.13"/>
<polygon fill="midnightblue" stroke="midnightblue" points="231.67,-34.79 227.48,-25.06 224.68,-35.28 231.67,-34.79"/>
</g>
<!-- Node5 -->
<g id="node5" class="node">
<title>Node5</title>
<g id="a_node5"><a xlink:title=" ">
<polygon fill="white" stroke="#bfbfbf" points="598.92,-67.5 598.92,-86.5 645.92,-86.5 645.92,-67.5 598.92,-67.5"/>
<text text-anchor="middle" x="622.42" y="-74.5" font-family="Helvetica,sans-Serif" font-size="10.00">vector</text>
</a>
</g>
</g>
<!-- Node1&#45;&gt;Node5 -->
<g id="edge4" class="edge">
<title>Node1&#45;&gt;Node5</title>
<path fill="none" stroke="midnightblue" d="M401.98,-125.86C443.99,-118.21 517.23,-104.3 588.65,-87.3"/>
<polygon fill="midnightblue" stroke="midnightblue" points="589.81,-90.62 598.71,-84.88 588.17,-83.82 589.81,-90.62"/>
</g>
<!-- Node6 -->
<g id="node6" class="node">
<title>Node6</title>
<g id="a_node6"><a xlink:title=" ">
<polygon fill="white" stroke="#bfbfbf" points="664.42,-67.5 664.42,-86.5 696.42,-86.5 696.42,-67.5 664.42,-67.5"/>
<text text-anchor="middle" x="680.42" y="-74.5" font-family="Helvetica,sans-Serif" font-size="10.00">set</text>
</a>
</g>
</g>
<!-- Node1&#45;&gt;Node6 -->
<g id="edge5" class="edge">
<title>Node1&#45;&gt;Node6</title>
<path fill="none" stroke="midnightblue" d="M401.99,-128.75C454.68,-123.33 558.28,-110.86 654.29,-86.87"/>
<polygon fill="midnightblue" stroke="midnightblue" points="655.33,-90.22 664.16,-84.36 653.6,-83.44 655.33,-90.22"/>
</g>
<!-- Node7 -->
<g id="node7" class="node">
<title>Node7</title>
<g id="a_node7"><a xlink:title=" ">
<polygon fill="white" stroke="#bfbfbf" points="714.42,-67.5 714.42,-86.5 764.42,-86.5 764.42,-67.5 714.42,-67.5"/>
<text text-anchor="middle" x="739.42" y="-74.5" font-family="Helvetica,sans-Serif" font-size="10.00">cstring</text>
</a>
</g>
</g>
<!-- Node1&#45;&gt;Node7 -->
<g id="edge6" class="edge">
<title>Node1&#45;&gt;Node7</title>
<path fill="none" stroke="midnightblue" d="M402.21,-128.83C462,-123.08 588.26,-109.54 704.15,-87.03"/>
<polygon fill="midnightblue" stroke="midnightblue" points="705.12,-90.41 714.26,-85.04 703.77,-83.54 705.12,-90.41"/>
</g>
<!-- Node8 -->
<g id="node8" class="node">
<title>Node8</title>
<g id="a_node8"><a xlink:href="_comp_kernel_8h.html" target="_top" xlink:title=" ">
<polygon fill="white" stroke="black" points="15.92,-67.5 15.92,-86.5 100.92,-86.5 100.92,-67.5 15.92,-67.5"/>
<text text-anchor="middle" x="58.42" y="-74.5" font-family="Helvetica,sans-Serif" font-size="10.00">CompKernel.h</text>
</a>
</g>
</g>
<!-- Node1&#45;&gt;Node8 -->
<g id="edge7" class="edge">
<title>Node1&#45;&gt;Node8</title>
<path fill="none" stroke="midnightblue" d="M332.88,-125.96C279.02,-116.55 174.68,-98.32 111.31,-87.24"/>
<polygon fill="midnightblue" stroke="midnightblue" points="111.58,-83.74 101.12,-85.46 110.37,-90.63 111.58,-83.74"/>
</g>
<!-- Node9 -->
<g id="node9" class="node">
<title>Node9</title>
<g id="a_node9"><a xlink:href="_model_factory_8h.html" target="_top" xlink:title=" ">
<polygon fill="white" stroke="black" points="255.92,-67.5 255.92,-86.5 344.92,-86.5 344.92,-67.5 255.92,-67.5"/>
<text text-anchor="middle" x="300.42" y="-74.5" font-family="Helvetica,sans-Serif" font-size="10.00">ModelFactory.h</text>
</a>
</g>
</g>
<!-- Node1&#45;&gt;Node9 -->
<g id="edge9" class="edge">
<title>Node1&#45;&gt;Node9</title>
<path fill="none" stroke="midnightblue" d="M356.66,-123.32C346.66,-115.26 331.54,-103.08 319.49,-93.37"/>
<polygon fill="midnightblue" stroke="midnightblue" points="321.37,-90.38 311.38,-86.83 316.97,-95.83 321.37,-90.38"/>
</g>
<!-- Node10 -->
<g id="node10" class="node">
<title>Node10</title>
<g id="a_node10"><a xlink:href="_sed_closure_8h.html" target="_top" xlink:title=" ">
<polygon fill="white" stroke="black" points="119.42,-67.5 119.42,-86.5 199.42,-86.5 199.42,-67.5 119.42,-67.5"/>
<text text-anchor="middle" x="159.42" y="-74.5" font-family="Helvetica,sans-Serif" font-size="10.00">SedClosure.h</text>
</a>
</g>
</g>
<!-- Node1&#45;&gt;Node10 -->
<g id="edge11" class="edge">
<title>Node1&#45;&gt;Node10</title>
<path fill="none" stroke="midnightblue" d="M334.47,-123.44C298.64,-114.14 241.26,-99.25 202.03,-89.06"/>
<polygon fill="midnightblue" stroke="midnightblue" points="202.79,-85.64 192.23,-86.52 201.03,-92.42 202.79,-85.64"/>
</g>
<!-- Node11 -->
<g id="node11" class="node">
<title>Node11</title>
<g id="a_node11"><a xlink:href="equivalent__polynomials_8h.html" target="_top" xlink:title=" ">
<polygon fill="white" stroke="black" points="362.92,-67.5 362.92,-86.5 505.92,-86.5 505.92,-67.5 362.92,-67.5"/>
<text text-anchor="middle" x="434.42" y="-74.5" font-family="Helvetica,sans-Serif" font-size="10.00">equivalent_polynomials.h</text>
</a>
</g>
</g>
<!-- Node1&#45;&gt;Node11 -->
<g id="edge14" class="edge">
<title>Node1&#45;&gt;Node11</title>
<path fill="none" stroke="midnightblue" d="M378.19,-123.32C388.19,-115.26 403.31,-103.08 415.35,-93.37"/>
<polygon fill="midnightblue" stroke="midnightblue" points="417.87,-95.83 423.46,-86.83 413.48,-90.38 417.87,-95.83"/>
</g>
<!-- Node8&#45;&gt;Node2 -->
<g id="edge8" class="edge">
<title>Node8&#45;&gt;Node2</title>
<path fill="none" stroke="midnightblue" d="M65.44,-67.48C72.87,-58.46 84.76,-44.02 93.99,-32.81"/>
<polygon fill="midnightblue" stroke="midnightblue" points="96.76,-34.95 100.42,-25.01 91.36,-30.5 96.76,-34.95"/>
</g>
<!-- Node9&#45;&gt;Node4 -->
<g id="edge10" class="edge">
<title>Node9&#45;&gt;Node4</title>
<path fill="none" stroke="midnightblue" d="M289.96,-67.48C278.47,-58.11 259.79,-42.88 245.84,-31.51"/>
<polygon fill="midnightblue" stroke="midnightblue" points="247.83,-28.61 237.86,-25.01 243.4,-34.04 247.83,-28.61"/>
</g>
<!-- Node10&#45;&gt;Node2 -->
<g id="edge12" class="edge">
<title>Node10&#45;&gt;Node2</title>
<path fill="none" stroke="midnightblue" d="M151.97,-67.48C144.1,-58.46 131.48,-44.02 121.68,-32.81"/>
<polygon fill="midnightblue" stroke="midnightblue" points="124.08,-30.24 114.86,-25.01 118.81,-34.84 124.08,-30.24"/>
</g>
<!-- Node10&#45;&gt;Node4 -->
<g id="edge13" class="edge">
<title>Node10&#45;&gt;Node4</title>
<path fill="none" stroke="midnightblue" d="M169.17,-67.48C179.77,-58.2 196.94,-43.17 209.9,-31.83"/>
<polygon fill="midnightblue" stroke="midnightblue" points="212.48,-34.23 217.7,-25.01 207.87,-28.96 212.48,-34.23"/>
</g>
<!-- Node11&#45;&gt;Node2 -->
<g id="edge15" class="edge">
<title>Node11&#45;&gt;Node2</title>
<path fill="none" stroke="midnightblue" d="M387.57,-67.48C320.77,-55.32 199.75,-33.3 141.1,-22.63"/>
<polygon fill="midnightblue" stroke="midnightblue" points="141.7,-19.18 131.23,-20.83 140.44,-26.07 141.7,-19.18"/>
</g>
<!-- Node12 -->
<g id="node12" class="node">
<title>Node12</title>
<g id="a_node12"><a xlink:title=" ">
<polygon fill="white" stroke="#bfbfbf" points="297.42,-6 297.42,-25 349.42,-25 349.42,-6 297.42,-6"/>
<text text-anchor="middle" x="323.42" y="-13" font-family="Helvetica,sans-Serif" font-size="10.00">cassert</text>
</a>
</g>
</g>
<!-- Node11&#45;&gt;Node12 -->
<g id="edge16" class="edge">
<title>Node11&#45;&gt;Node12</title>
<path fill="none" stroke="midnightblue" d="M418.52,-67.48C400.14,-57.62 369.67,-41.29 348.18,-29.77"/>
<polygon fill="midnightblue" stroke="midnightblue" points="349.77,-26.65 339.3,-25.01 346.46,-32.82 349.77,-26.65"/>
</g>
<!-- Node13 -->
<g id="node13" class="node">
<title>Node13</title>
<g id="a_node13"><a xlink:href="equivalent__polynomials__coefficients_8h.html" target="_top" xlink:title=" ">
<polygon fill="white" stroke="black" points="367.42,-0.5 367.42,-30.5 501.42,-30.5 501.42,-0.5 367.42,-0.5"/>
<text text-anchor="start" x="375.42" y="-18.5" font-family="Helvetica,sans-Serif" font-size="10.00">equivalent_polynomials</text>
<text text-anchor="middle" x="434.42" y="-7.5" font-family="Helvetica,sans-Serif" font-size="10.00">_coefficients.h</text>
</a>
</g>
</g>
<!-- Node11&#45;&gt;Node13 -->
<g id="edge17" class="edge">
<title>Node11&#45;&gt;Node13</title>
<path fill="none" stroke="midnightblue" d="M434.42,-67.48C434.42,-60.47 434.42,-50.19 434.42,-40.7"/>
<polygon fill="midnightblue" stroke="midnightblue" points="437.92,-40.52 434.42,-30.52 430.92,-40.52 437.92,-40.52"/>
</g>
<!-- Node14 -->
<g id="node14" class="node">
<title>Node14</title>
<g id="a_node14"><a xlink:href="equivalent__polynomials__utils_8h.html" target="_top" xlink:title=" ">
<polygon fill="white" stroke="black" points="519.42,-0.5 519.42,-30.5 653.42,-30.5 653.42,-0.5 519.42,-0.5"/>
<text text-anchor="start" x="527.42" y="-18.5" font-family="Helvetica,sans-Serif" font-size="10.00">equivalent_polynomials</text>
<text text-anchor="middle" x="586.42" y="-7.5" font-family="Helvetica,sans-Serif" font-size="10.00">_utils.h</text>
</a>
</g>
</g>
<!-- Node11&#45;&gt;Node14 -->
<g id="edge18" class="edge">
<title>Node11&#45;&gt;Node14</title>
<path fill="none" stroke="midnightblue" d="M456.2,-67.48C478.23,-58.85 512.94,-45.26 540.99,-34.29"/>
<polygon fill="midnightblue" stroke="midnightblue" points="542.56,-37.43 550.6,-30.52 540.01,-30.91 542.56,-37.43"/>
</g>
</g>
</svg>
