<?xml version="1.0" encoding="UTF-8" standalone="no"?>
<!DOCTYPE svg PUBLIC "-//W3C//DTD SVG 1.1//EN"
 "http://www.w3.org/Graphics/SVG/1.1/DTD/svg11.dtd">
<!-- Generated by graphviz version 2.42.3 (0)
 -->
<!-- Title: RANS2P.h Pages: 1 -->
<svg width="700pt" height="151pt"
 viewBox="0.00 0.00 699.50 151.00" xmlns="http://www.w3.org/2000/svg" xmlns:xlink="http://www.w3.org/1999/xlink">
<g id="graph0" class="graph" transform="scale(1 1) rotate(0) translate(4 147)">
<title>RANS2P.h</title>
<polygon fill="white" stroke="transparent" points="-4,4 -4,-147 695.5,-147 695.5,4 -4,4"/>
<!-- Node1 -->
<g id="node1" class="node">
<title>Node1</title>
<g id="a_node1"><a xlink:title=" ">
<polygon fill="#bfbfbf" stroke="black" points="283,-123.5 283,-142.5 346,-142.5 346,-123.5 283,-123.5"/>
<text text-anchor="middle" x="314.5" y="-130.5" font-family="Helvetica,sans-Serif" font-size="10.00">RANS2P.h</text>
</a>
</g>
</g>
<!-- Node2 -->
<g id="node2" class="node">
<title>Node2</title>
<g id="a_node2"><a xlink:title=" ">
<polygon fill="white" stroke="#bfbfbf" points="0,-6 0,-25 47,-25 47,-6 0,-6"/>
<text text-anchor="middle" x="23.5" y="-13" font-family="Helvetica,sans-Serif" font-size="10.00">cmath</text>
</a>
</g>
</g>
<!-- Node1&#45;&gt;Node2 -->
<g id="edge1" class="edge">
<title>Node1&#45;&gt;Node2</title>
<path fill="none" stroke="midnightblue" d="M282.85,-131.66C216.14,-130.23 64.46,-122.99 30.5,-87 17.73,-73.47 17.61,-51.31 19.65,-35.44"/>
<polygon fill="midnightblue" stroke="midnightblue" points="23.16,-35.66 21.36,-25.22 16.25,-34.5 23.16,-35.66"/>
</g>
<!-- Node3 -->
<g id="node3" class="node">
<title>Node3</title>
<g id="a_node3"><a xlink:title=" ">
<polygon fill="white" stroke="#bfbfbf" points="439.5,-6 439.5,-25 499.5,-25 499.5,-6 439.5,-6"/>
<text text-anchor="middle" x="469.5" y="-13" font-family="Helvetica,sans-Serif" font-size="10.00">iostream</text>
</a>
</g>
</g>
<!-- Node1&#45;&gt;Node3 -->
<g id="edge2" class="edge">
<title>Node1&#45;&gt;Node3</title>
<path fill="none" stroke="midnightblue" d="M314.66,-123.22C315.39,-109.48 318.76,-82.83 333.5,-67 364.84,-33.35 387.39,-47.01 430.5,-31 432.59,-30.22 434.74,-29.42 436.92,-28.62"/>
<polygon fill="midnightblue" stroke="midnightblue" points="438.25,-31.85 446.4,-25.09 435.81,-25.29 438.25,-31.85"/>
</g>
<!-- Node4 -->
<g id="node4" class="node">
<title>Node4</title>
<g id="a_node4"><a xlink:title=" ">
<polygon fill="white" stroke="#bfbfbf" points="480,-67.5 480,-86.5 537,-86.5 537,-67.5 480,-67.5"/>
<text text-anchor="middle" x="508.5" y="-74.5" font-family="Helvetica,sans-Serif" font-size="10.00">valarray</text>
</a>
</g>
</g>
<!-- Node1&#45;&gt;Node4 -->
<g id="edge3" class="edge">
<title>Node1&#45;&gt;Node4</title>
<path fill="none" stroke="midnightblue" d="M345.24,-123.44C379.03,-114.04 433.37,-98.91 469.98,-88.72"/>
<polygon fill="midnightblue" stroke="midnightblue" points="471.11,-92.04 479.8,-85.99 469.23,-85.3 471.11,-92.04"/>
</g>
<!-- Node5 -->
<g id="node5" class="node">
<title>Node5</title>
<g id="a_node5"><a xlink:href="_comp_kernel_8h.html" target="_top" xlink:title=" ">
<polygon fill="white" stroke="black" points="40,-67.5 40,-86.5 125,-86.5 125,-67.5 40,-67.5"/>
<text text-anchor="middle" x="82.5" y="-74.5" font-family="Helvetica,sans-Serif" font-size="10.00">CompKernel.h</text>
</a>
</g>
</g>
<!-- Node1&#45;&gt;Node5 -->
<g id="edge4" class="edge">
<title>Node1&#45;&gt;Node5</title>
<path fill="none" stroke="midnightblue" d="M282.73,-124.6C243.04,-115.37 174.81,-99.49 129.18,-88.87"/>
<polygon fill="midnightblue" stroke="midnightblue" points="129.77,-85.41 119.24,-86.55 128.18,-92.23 129.77,-85.41"/>
</g>
<!-- Node6 -->
<g id="node6" class="node">
<title>Node6</title>
<g id="a_node6"><a xlink:href="_mixed_model_factory_8h.html" target="_top" xlink:title=" ">
<polygon fill="white" stroke="black" points="343,-67.5 343,-86.5 462,-86.5 462,-67.5 343,-67.5"/>
<text text-anchor="middle" x="402.5" y="-74.5" font-family="Helvetica,sans-Serif" font-size="10.00">MixedModelFactory.h</text>
</a>
</g>
</g>
<!-- Node1&#45;&gt;Node6 -->
<g id="edge6" class="edge">
<title>Node1&#45;&gt;Node6</title>
<path fill="none" stroke="midnightblue" d="M328.64,-123.32C342.37,-114.9 363.44,-101.97 379.56,-92.07"/>
<polygon fill="midnightblue" stroke="midnightblue" points="381.7,-94.87 388.4,-86.65 378.04,-88.9 381.7,-94.87"/>
</g>
<!-- Node7 -->
<g id="node7" class="node">
<title>Node7</title>
<g id="a_node7"><a xlink:href="_py_embedded_functions_8h.html" target="_top" xlink:title=" ">
<polygon fill="white" stroke="black" points="555.5,-67.5 555.5,-86.5 691.5,-86.5 691.5,-67.5 555.5,-67.5"/>
<text text-anchor="middle" x="623.5" y="-74.5" font-family="Helvetica,sans-Serif" font-size="10.00">PyEmbeddedFunctions.h</text>
</a>
</g>
</g>
<!-- Node1&#45;&gt;Node7 -->
<g id="edge8" class="edge">
<title>Node1&#45;&gt;Node7</title>
<path fill="none" stroke="midnightblue" d="M346.12,-126.47C397.44,-117.51 499.66,-99.64 564.66,-88.28"/>
<polygon fill="midnightblue" stroke="midnightblue" points="565.51,-91.69 574.75,-86.52 564.3,-84.79 565.51,-91.69"/>
</g>
<!-- Node9 -->
<g id="node9" class="node">
<title>Node9</title>
<g id="a_node9"><a xlink:href="equivalent__polynomials_8h.html" target="_top" xlink:title=" ">
<polygon fill="white" stroke="black" points="143,-67.5 143,-86.5 286,-86.5 286,-67.5 143,-67.5"/>
<text text-anchor="middle" x="214.5" y="-74.5" font-family="Helvetica,sans-Serif" font-size="10.00">equivalent_polynomials.h</text>
</a>
</g>
</g>
<!-- Node1&#45;&gt;Node9 -->
<g id="edge10" class="edge">
<title>Node1&#45;&gt;Node9</title>
<path fill="none" stroke="midnightblue" d="M298.43,-123.32C282.54,-114.74 257.99,-101.49 239.54,-91.52"/>
<polygon fill="midnightblue" stroke="midnightblue" points="240.99,-88.33 230.53,-86.65 237.66,-94.49 240.99,-88.33"/>
</g>
<!-- Node5&#45;&gt;Node2 -->
<g id="edge5" class="edge">
<title>Node5&#45;&gt;Node2</title>
<path fill="none" stroke="midnightblue" d="M74.05,-67.48C64.93,-58.28 50.23,-43.46 39.02,-32.16"/>
<polygon fill="midnightblue" stroke="midnightblue" points="41.46,-29.65 31.94,-25.01 36.49,-34.57 41.46,-29.65"/>
</g>
<!-- Node6&#45;&gt;Node3 -->
<g id="edge7" class="edge">
<title>Node6&#45;&gt;Node3</title>
<path fill="none" stroke="midnightblue" d="M412.1,-67.48C422.55,-58.2 439.47,-43.17 452.24,-31.83"/>
<polygon fill="midnightblue" stroke="midnightblue" points="454.77,-34.27 459.92,-25.01 450.12,-29.03 454.77,-34.27"/>
</g>
<!-- Node8 -->
<g id="node8" class="node">
<title>Node8</title>
<g id="a_node8"><a xlink:title=" ">
<polygon fill="white" stroke="#bfbfbf" points="594,-6 594,-25 653,-25 653,-6 594,-6"/>
<text text-anchor="middle" x="623.5" y="-13" font-family="Helvetica,sans-Serif" font-size="10.00">Python.h</text>
</a>
</g>
</g>
<!-- Node7&#45;&gt;Node8 -->
<g id="edge9" class="edge">
<title>Node7&#45;&gt;Node8</title>
<path fill="none" stroke="midnightblue" d="M623.5,-67.48C623.5,-59.08 623.5,-45.98 623.5,-35.16"/>
<polygon fill="midnightblue" stroke="midnightblue" points="627,-35.01 623.5,-25.01 620,-35.01 627,-35.01"/>
</g>
<!-- Node9&#45;&gt;Node2 -->
<g id="edge11" class="edge">
<title>Node9&#45;&gt;Node2</title>
<path fill="none" stroke="midnightblue" d="M179.23,-67.43C146.92,-59.23 97.96,-45.93 56.5,-31 54.84,-30.4 53.15,-29.76 51.45,-29.09"/>
<polygon fill="midnightblue" stroke="midnightblue" points="52.4,-25.7 41.82,-25.08 49.7,-32.16 52.4,-25.7"/>
</g>
<!-- Node10 -->
<g id="node10" class="node">
<title>Node10</title>
<g id="a_node10"><a xlink:title=" ">
<polygon fill="white" stroke="#bfbfbf" points="65.5,-6 65.5,-25 117.5,-25 117.5,-6 65.5,-6"/>
<text text-anchor="middle" x="91.5" y="-13" font-family="Helvetica,sans-Serif" font-size="10.00">cassert</text>
</a>
</g>
</g>
<!-- Node9&#45;&gt;Node10 -->
<g id="edge12" class="edge">
<title>Node9&#45;&gt;Node10</title>
<path fill="none" stroke="midnightblue" d="M196.88,-67.48C176.33,-57.53 142.14,-40.99 118.29,-29.46"/>
<polygon fill="midnightblue" stroke="midnightblue" points="119.62,-26.21 109.09,-25.01 116.57,-32.51 119.62,-26.21"/>
</g>
<!-- Node11 -->
<g id="node11" class="node">
<title>Node11</title>
<g id="a_node11"><a xlink:href="equivalent__polynomials__coefficients_8h.html" target="_top" xlink:title=" ">
<polygon fill="white" stroke="black" points="135.5,-0.5 135.5,-30.5 269.5,-30.5 269.5,-0.5 135.5,-0.5"/>
<text text-anchor="start" x="143.5" y="-18.5" font-family="Helvetica,sans-Serif" font-size="10.00">equivalent_polynomials</text>
<text text-anchor="middle" x="202.5" y="-7.5" font-family="Helvetica,sans-Serif" font-size="10.00">_coefficients.h</text>
</a>
</g>
</g>
<!-- Node9&#45;&gt;Node11 -->
<g id="edge13" class="edge">
<title>Node9&#45;&gt;Node11</title>
<path fill="none" stroke="midnightblue" d="M212.78,-67.48C211.35,-60.4 209.25,-49.97 207.32,-40.39"/>
<polygon fill="midnightblue" stroke="midnightblue" points="210.74,-39.63 205.33,-30.52 203.87,-41.02 210.74,-39.63"/>
</g>
<!-- Node12 -->
<g id="node12" class="node">
<title>Node12</title>
<g id="a_node12"><a xlink:href="equivalent__polynomials__utils_8h.html" target="_top" xlink:title=" ">
<polygon fill="white" stroke="black" points="287.5,-0.5 287.5,-30.5 421.5,-30.5 421.5,-0.5 287.5,-0.5"/>
<text text-anchor="start" x="295.5" y="-18.5" font-family="Helvetica,sans-Serif" font-size="10.00">equivalent_polynomials</text>
<text text-anchor="middle" x="354.5" y="-7.5" font-family="Helvetica,sans-Serif" font-size="10.00">_utils.h</text>
</a>
</g>
</g>
<!-- Node9&#45;&gt;Node12 -->
<g id="edge14" class="edge">
<title>Node9&#45;&gt;Node12</title>
<path fill="none" stroke="midnightblue" d="M234.56,-67.48C254.67,-58.93 286.26,-45.5 311.97,-34.57"/>
<polygon fill="midnightblue" stroke="midnightblue" points="313.67,-37.66 321.5,-30.52 310.93,-31.21 313.67,-37.66"/>
</g>
</g>
</svg>
