<?xml version="1.0" encoding="UTF-8" standalone="no"?>
<!DOCTYPE svg PUBLIC "-//W3C//DTD SVG 1.1//EN"
 "http://www.w3.org/Graphics/SVG/1.1/DTD/svg11.dtd">
<!-- Generated by graphviz version 2.42.3 (0)
 -->
<!-- Title: RANS2P_IB.h Pages: 1 -->
<svg width="252pt" height="140pt"
 viewBox="0.00 0.00 252.02 140.00" xmlns="http://www.w3.org/2000/svg" xmlns:xlink="http://www.w3.org/1999/xlink">
<g id="graph0" class="graph" transform="scale(1 1) rotate(0) translate(4 136)">
<title>RANS2P_IB.h</title>
<polygon fill="white" stroke="transparent" points="-4,4 -4,-136 248.02,-136 248.02,4 -4,4"/>
<!-- Node1 -->
<g id="node1" class="node">
<title>Node1</title>
<g id="a_node1"><a xlink:title=" ">
<polygon fill="#bfbfbf" stroke="black" points="50.52,-112.5 50.52,-131.5 130.52,-131.5 130.52,-112.5 50.52,-112.5"/>
<text text-anchor="middle" x="90.52" y="-119.5" font-family="Helvetica,sans-Serif" font-size="10.00">RANS2P_IB.h</text>
</a>
</g>
</g>
<!-- Node2 -->
<g id="node2" class="node">
<title>Node2</title>
<g id="a_node2"><a xlink:title=" ">
<polygon fill="white" stroke="#bfbfbf" points="14.02,-0.5 14.02,-19.5 61.02,-19.5 61.02,-0.5 14.02,-0.5"/>
<text text-anchor="middle" x="37.52" y="-7.5" font-family="Helvetica,sans-Serif" font-size="10.00">cmath</text>
</a>
</g>
</g>
<!-- Node1&#45;&gt;Node2 -->
<g id="edge1" class="edge">
<title>Node1&#45;&gt;Node2</title>
<path fill="none" stroke="midnightblue" d="M55.5,-112.45C36.58,-105.84 14.83,-94.59 3.52,-76 -6.45,-59.63 7.05,-40.05 19.87,-26.69"/>
<polygon fill="midnightblue" stroke="midnightblue" points="22.42,-29.09 27.15,-19.61 17.54,-24.06 22.42,-29.09"/>
</g>
<!-- Node3 -->
<g id="node3" class="node">
<title>Node3</title>
<g id="a_node3"><a xlink:title=" ">
<polygon fill="white" stroke="#bfbfbf" points="114.52,-0.5 114.52,-19.5 174.52,-19.5 174.52,-0.5 114.52,-0.5"/>
<text text-anchor="middle" x="144.52" y="-7.5" font-family="Helvetica,sans-Serif" font-size="10.00">iostream</text>
</a>
</g>
</g>
<!-- Node1&#45;&gt;Node3 -->
<g id="edge2" class="edge">
<title>Node1&#45;&gt;Node3</title>
<path fill="none" stroke="midnightblue" d="M94.75,-112.37C103.59,-94.38 124.12,-52.55 135.86,-28.63"/>
<polygon fill="midnightblue" stroke="midnightblue" points="139.03,-30.11 140.3,-19.59 132.75,-27.03 139.03,-30.11"/>
</g>
<!-- Node4 -->
<g id="node4" class="node">
<title>Node4</title>
<g id="a_node4"><a xlink:href="_comp_kernel_8h.html" target="_top" xlink:title=" ">
<polygon fill="white" stroke="black" points="13.02,-56.5 13.02,-75.5 98.02,-75.5 98.02,-56.5 13.02,-56.5"/>
<text text-anchor="middle" x="55.52" y="-63.5" font-family="Helvetica,sans-Serif" font-size="10.00">CompKernel.h</text>
</a>
</g>
</g>
<!-- Node1&#45;&gt;Node4 -->
<g id="edge3" class="edge">
<title>Node1&#45;&gt;Node4</title>
<path fill="none" stroke="midnightblue" d="M84.74,-112.08C79.84,-104.53 72.69,-93.49 66.68,-84.23"/>
<polygon fill="midnightblue" stroke="midnightblue" points="69.56,-82.24 61.19,-75.75 63.69,-86.05 69.56,-82.24"/>
</g>
<!-- Node5 -->
<g id="node5" class="node">
<title>Node5</title>
<g id="a_node5"><a xlink:href="_model_factory_8h.html" target="_top" xlink:title=" ">
<polygon fill="white" stroke="black" points="155.02,-56.5 155.02,-75.5 244.02,-75.5 244.02,-56.5 155.02,-56.5"/>
<text text-anchor="middle" x="199.52" y="-63.5" font-family="Helvetica,sans-Serif" font-size="10.00">ModelFactory.h</text>
</a>
</g>
</g>
<!-- Node1&#45;&gt;Node5 -->
<g id="edge5" class="edge">
<title>Node1&#45;&gt;Node5</title>
<path fill="none" stroke="midnightblue" d="M108.03,-112.32C125.59,-103.62 152.85,-90.12 173.05,-80.11"/>
<polygon fill="midnightblue" stroke="midnightblue" points="174.64,-83.23 182.05,-75.65 171.53,-76.96 174.64,-83.23"/>
</g>
<!-- Node4&#45;&gt;Node2 -->
<g id="edge4" class="edge">
<title>Node4&#45;&gt;Node2</title>
<path fill="none" stroke="midnightblue" d="M52.54,-56.08C50.13,-48.85 46.65,-38.41 43.65,-29.4"/>
<polygon fill="midnightblue" stroke="midnightblue" points="46.91,-28.13 40.43,-19.75 40.27,-30.34 46.91,-28.13"/>
</g>
<!-- Node5&#45;&gt;Node3 -->
<g id="edge6" class="edge">
<title>Node5&#45;&gt;Node3</title>
<path fill="none" stroke="midnightblue" d="M190.43,-56.08C182.34,-48.14 170.32,-36.34 160.6,-26.8"/>
<polygon fill="midnightblue" stroke="midnightblue" points="163.02,-24.26 153.43,-19.75 158.11,-29.25 163.02,-24.26"/>
</g>
</g>
</svg>
