<?xml version="1.0" encoding="UTF-8" standalone="no"?>
<!DOCTYPE svg PUBLIC "-//W3C//DTD SVG 1.1//EN"
 "http://www.w3.org/Graphics/SVG/1.1/DTD/svg11.dtd">
<!-- Generated by graphviz version 2.42.3 (0)
 -->
<!-- Title: RDLS.h Pages: 1 -->
<svg width="673pt" height="151pt"
 viewBox="0.00 0.00 672.50 151.00" xmlns="http://www.w3.org/2000/svg" xmlns:xlink="http://www.w3.org/1999/xlink">
<g id="graph0" class="graph" transform="scale(1 1) rotate(0) translate(4 147)">
<title>RDLS.h</title>
<polygon fill="white" stroke="transparent" points="-4,4 -4,-147 668.5,-147 668.5,4 -4,4"/>
<!-- Node1 -->
<g id="node1" class="node">
<title>Node1</title>
<g id="a_node1"><a xlink:title=" ">
<polygon fill="#bfbfbf" stroke="black" points="177,-123.5 177,-142.5 228,-142.5 228,-123.5 177,-123.5"/>
<text text-anchor="middle" x="202.5" y="-130.5" font-family="Helvetica,sans-Serif" font-size="10.00">RDLS.h</text>
</a>
</g>
</g>
<!-- Node2 -->
<g id="node2" class="node">
<title>Node2</title>
<g id="a_node2"><a xlink:title=" ">
<polygon fill="white" stroke="#bfbfbf" points="243,-6 243,-25 290,-25 290,-6 243,-6"/>
<text text-anchor="middle" x="266.5" y="-13" font-family="Helvetica,sans-Serif" font-size="10.00">cmath</text>
</a>
</g>
</g>
<!-- Node1&#45;&gt;Node2 -->
<g id="edge1" class="edge">
<title>Node1&#45;&gt;Node2</title>
<path fill="none" stroke="midnightblue" d="M207.31,-123.32C217.78,-104.42 242.81,-59.25 256.74,-34.12"/>
<polygon fill="midnightblue" stroke="midnightblue" points="259.85,-35.73 261.63,-25.28 253.73,-32.33 259.85,-35.73"/>
</g>
<!-- Node3 -->
<g id="node3" class="node">
<title>Node3</title>
<g id="a_node3"><a xlink:title=" ">
<polygon fill="white" stroke="#bfbfbf" points="51.5,-6 51.5,-25 111.5,-25 111.5,-6 51.5,-6"/>
<text text-anchor="middle" x="81.5" y="-13" font-family="Helvetica,sans-Serif" font-size="10.00">iostream</text>
</a>
</g>
</g>
<!-- Node1&#45;&gt;Node3 -->
<g id="edge2" class="edge">
<title>Node1&#45;&gt;Node3</title>
<path fill="none" stroke="midnightblue" d="M187.11,-123.38C173.07,-115.1 152.18,-101.7 136.5,-87 119.06,-70.64 102.69,-48.45 92.43,-33.36"/>
<polygon fill="midnightblue" stroke="midnightblue" points="95.32,-31.39 86.86,-25 89.49,-35.26 95.32,-31.39"/>
</g>
<!-- Node4 -->
<g id="node4" class="node">
<title>Node4</title>
<g id="a_node4"><a xlink:title=" ">
<polygon fill="white" stroke="#bfbfbf" points="146,-67.5 146,-86.5 203,-86.5 203,-67.5 146,-67.5"/>
<text text-anchor="middle" x="174.5" y="-74.5" font-family="Helvetica,sans-Serif" font-size="10.00">valarray</text>
</a>
</g>
</g>
<!-- Node1&#45;&gt;Node4 -->
<g id="edge3" class="edge">
<title>Node1&#45;&gt;Node4</title>
<path fill="none" stroke="midnightblue" d="M197.88,-123.08C194.04,-115.69 188.48,-104.95 183.74,-95.81"/>
<polygon fill="midnightblue" stroke="midnightblue" points="186.75,-94.02 179.04,-86.75 180.53,-97.24 186.75,-94.02"/>
</g>
<!-- Node5 -->
<g id="node5" class="node">
<title>Node5</title>
<g id="a_node5"><a xlink:href="_comp_kernel_8h.html" target="_top" xlink:title=" ">
<polygon fill="white" stroke="black" points="260,-67.5 260,-86.5 345,-86.5 345,-67.5 260,-67.5"/>
<text text-anchor="middle" x="302.5" y="-74.5" font-family="Helvetica,sans-Serif" font-size="10.00">CompKernel.h</text>
</a>
</g>
</g>
<!-- Node1&#45;&gt;Node5 -->
<g id="edge4" class="edge">
<title>Node1&#45;&gt;Node5</title>
<path fill="none" stroke="midnightblue" d="M218.57,-123.32C234.46,-114.74 259.01,-101.49 277.46,-91.52"/>
<polygon fill="midnightblue" stroke="midnightblue" points="279.34,-94.49 286.47,-86.65 276.01,-88.33 279.34,-94.49"/>
</g>
<!-- Node6 -->
<g id="node6" class="node">
<title>Node6</title>
<g id="a_node6"><a xlink:href="_model_factory_8h.html" target="_top" xlink:title=" ">
<polygon fill="white" stroke="black" points="0,-67.5 0,-86.5 89,-86.5 89,-67.5 0,-67.5"/>
<text text-anchor="middle" x="44.5" y="-74.5" font-family="Helvetica,sans-Serif" font-size="10.00">ModelFactory.h</text>
</a>
</g>
</g>
<!-- Node1&#45;&gt;Node6 -->
<g id="edge6" class="edge">
<title>Node1&#45;&gt;Node6</title>
<path fill="none" stroke="midnightblue" d="M177.46,-123.44C150.88,-114.36 108.69,-99.94 78.98,-89.78"/>
<polygon fill="midnightblue" stroke="midnightblue" points="80.01,-86.44 69.42,-86.52 77.75,-93.06 80.01,-86.44"/>
</g>
<!-- Node7 -->
<g id="node7" class="node">
<title>Node7</title>
<g id="a_node7"><a xlink:href="equivalent__polynomials_8h.html" target="_top" xlink:title=" ">
<polygon fill="white" stroke="black" points="363,-67.5 363,-86.5 506,-86.5 506,-67.5 363,-67.5"/>
<text text-anchor="middle" x="434.5" y="-74.5" font-family="Helvetica,sans-Serif" font-size="10.00">equivalent_polynomials.h</text>
</a>
</g>
</g>
<!-- Node1&#45;&gt;Node7 -->
<g id="edge8" class="edge">
<title>Node1&#45;&gt;Node7</title>
<path fill="none" stroke="midnightblue" d="M228.21,-126.01C266.65,-117.07 339.71,-100.06 387.76,-88.88"/>
<polygon fill="midnightblue" stroke="midnightblue" points="388.66,-92.26 397.61,-86.59 387.08,-85.44 388.66,-92.26"/>
</g>
<!-- Node5&#45;&gt;Node2 -->
<g id="edge5" class="edge">
<title>Node5&#45;&gt;Node2</title>
<path fill="none" stroke="midnightblue" d="M297.34,-67.48C292.05,-58.73 283.66,-44.87 276.97,-33.81"/>
<polygon fill="midnightblue" stroke="midnightblue" points="279.82,-31.75 271.65,-25.01 273.83,-35.38 279.82,-31.75"/>
</g>
<!-- Node6&#45;&gt;Node3 -->
<g id="edge7" class="edge">
<title>Node6&#45;&gt;Node3</title>
<path fill="none" stroke="midnightblue" d="M49.8,-67.48C55.24,-58.73 63.86,-44.87 70.74,-33.81"/>
<polygon fill="midnightblue" stroke="midnightblue" points="73.9,-35.35 76.21,-25.01 67.96,-31.65 73.9,-35.35"/>
</g>
<!-- Node7&#45;&gt;Node2 -->
<g id="edge9" class="edge">
<title>Node7&#45;&gt;Node2</title>
<path fill="none" stroke="midnightblue" d="M406.31,-67.44C378.81,-58.89 335.92,-45.04 299.5,-31 297.89,-30.38 296.25,-29.73 294.6,-29.05"/>
<polygon fill="midnightblue" stroke="midnightblue" points="295.8,-25.76 285.22,-25.08 293.07,-32.21 295.8,-25.76"/>
</g>
<!-- Node8 -->
<g id="node8" class="node">
<title>Node8</title>
<g id="a_node8"><a xlink:title=" ">
<polygon fill="white" stroke="#bfbfbf" points="460.5,-6 460.5,-25 512.5,-25 512.5,-6 460.5,-6"/>
<text text-anchor="middle" x="486.5" y="-13" font-family="Helvetica,sans-Serif" font-size="10.00">cassert</text>
</a>
</g>
</g>
<!-- Node7&#45;&gt;Node8 -->
<g id="edge10" class="edge">
<title>Node7&#45;&gt;Node8</title>
<path fill="none" stroke="midnightblue" d="M441.95,-67.48C449.83,-58.46 462.44,-44.02 472.24,-32.81"/>
<polygon fill="midnightblue" stroke="midnightblue" points="475.12,-34.84 479.06,-25.01 469.85,-30.24 475.12,-34.84"/>
</g>
<!-- Node9 -->
<g id="node9" class="node">
<title>Node9</title>
<g id="a_node9"><a xlink:href="equivalent__polynomials__coefficients_8h.html" target="_top" xlink:title=" ">
<polygon fill="white" stroke="black" points="530.5,-0.5 530.5,-30.5 664.5,-30.5 664.5,-0.5 530.5,-0.5"/>
<text text-anchor="start" x="538.5" y="-18.5" font-family="Helvetica,sans-Serif" font-size="10.00">equivalent_polynomials</text>
<text text-anchor="middle" x="597.5" y="-7.5" font-family="Helvetica,sans-Serif" font-size="10.00">_coefficients.h</text>
</a>
</g>
</g>
<!-- Node7&#45;&gt;Node9 -->
<g id="edge11" class="edge">
<title>Node7&#45;&gt;Node9</title>
<path fill="none" stroke="midnightblue" d="M457.85,-67.48C481.68,-58.78 519.35,-45.03 549.56,-34"/>
<polygon fill="midnightblue" stroke="midnightblue" points="550.89,-37.24 559.08,-30.52 548.49,-30.66 550.89,-37.24"/>
</g>
<!-- Node10 -->
<g id="node10" class="node">
<title>Node10</title>
<g id="a_node10"><a xlink:href="equivalent__polynomials__utils_8h.html" target="_top" xlink:title=" ">
<polygon fill="white" stroke="black" points="308.5,-0.5 308.5,-30.5 442.5,-30.5 442.5,-0.5 308.5,-0.5"/>
<text text-anchor="start" x="316.5" y="-18.5" font-family="Helvetica,sans-Serif" font-size="10.00">equivalent_polynomials</text>
<text text-anchor="middle" x="375.5" y="-7.5" font-family="Helvetica,sans-Serif" font-size="10.00">_utils.h</text>
</a>
</g>
</g>
<!-- Node7&#45;&gt;Node10 -->
<g id="edge12" class="edge">
<title>Node7&#45;&gt;Node10</title>
<path fill="none" stroke="midnightblue" d="M426.05,-67.48C418.35,-59.72 406.68,-47.94 396.49,-37.66"/>
<polygon fill="midnightblue" stroke="midnightblue" points="398.93,-35.16 389.41,-30.52 393.96,-40.09 398.93,-35.16"/>
</g>
</g>
</svg>
