<?xml version="1.0" encoding="UTF-8" standalone="no"?>
<!DOCTYPE svg PUBLIC "-//W3C//DTD SVG 1.1//EN"
 "http://www.w3.org/Graphics/SVG/1.1/DTD/svg11.dtd">
<!-- Generated by graphviz version 2.40.1 (20161225.0304)
 -->
<!-- Title: SizeField.cpp Pages: 1 -->
<svg width="1275pt" height="252pt"
 viewBox="0.00 0.00 1274.50 252.00" xmlns="http://www.w3.org/2000/svg" xmlns:xlink="http://www.w3.org/1999/xlink">
<g id="graph0" class="graph" transform="scale(1 1) rotate(0) translate(4 248)">
<title>SizeField.cpp</title>
<polygon fill="#ffffff" stroke="transparent" points="-4,4 -4,-248 1270.5,-248 1270.5,4 -4,4"/>
<!-- Node0 -->
<g id="node1" class="node">
<title>Node0</title>
<polygon fill="#bfbfbf" stroke="#000000" points="644,-224.5 644,-243.5 720,-243.5 720,-224.5 644,-224.5"/>
<text text-anchor="middle" x="682" y="-231.5" font-family="Helvetica,sans-Serif" font-size="10.00" fill="#000000">SizeField.cpp</text>
</g>
<!-- Node1 -->
<g id="node2" class="node">
<title>Node1</title>
<g id="a_node2"><a xlink:href="_mesh_adapt_p_u_m_i_8h.html" target="_top" xlink:title="MeshAdaptPUMI.h">
<polygon fill="#ffffff" stroke="#000000" points="275,-168.5 275,-187.5 375,-187.5 375,-168.5 275,-168.5"/>
<text text-anchor="middle" x="325" y="-175.5" font-family="Helvetica,sans-Serif" font-size="10.00" fill="#000000">MeshAdaptPUMI.h</text>
</a>
</g>
</g>
<!-- Node0&#45;&gt;Node1 -->
<g id="edge1" class="edge">
<title>Node0&#45;&gt;Node1</title>
<path fill="none" stroke="#191970" d="M643.7947,-228.007C581.8626,-218.2922 459.0608,-199.0291 385.2625,-187.4529"/>
<polygon fill="#191970" stroke="#191970" points="385.6075,-183.9643 375.1859,-185.8723 384.5227,-190.8798 385.6075,-183.9643"/>
</g>
<!-- Node5 -->
<g id="node6" class="node">
<title>Node5</title>
<polygon fill="#ffffff" stroke="#bfbfbf" points="0,-.5 0,-19.5 56,-19.5 56,-.5 0,-.5"/>
<text text-anchor="middle" x="28" y="-7.5" font-family="Helvetica,sans-Serif" font-size="10.00" fill="#000000">algorithm</text>
</g>
<!-- Node0&#45;&gt;Node5 -->
<g id="edge32" class="edge">
<title>Node0&#45;&gt;Node5</title>
<path fill="none" stroke="#191970" d="M643.8124,-232.3177C528.5908,-227.0218 189.5701,-209.7466 145,-188 79.6841,-156.1312 45.7002,-68.2934 33.4348,-29.1989"/>
<polygon fill="#191970" stroke="#191970" points="36.7671,-28.1259 30.5433,-19.5518 30.0618,-30.1357 36.7671,-28.1259"/>
</g>
<!-- Node8 -->
<g id="node9" class="node">
<title>Node8</title>
<polygon fill="#ffffff" stroke="#bfbfbf" points="74,-.5 74,-19.5 128,-19.5 128,-.5 74,-.5"/>
<text text-anchor="middle" x="101" y="-7.5" font-family="Helvetica,sans-Serif" font-size="10.00" fill="#000000">iostream</text>
</g>
<!-- Node0&#45;&gt;Node8 -->
<g id="edge27" class="edge">
<title>Node0&#45;&gt;Node8</title>
<path fill="none" stroke="#191970" d="M643.946,-232.6952C570.1699,-229.5299 402.9,-219.244 266,-188 192.9566,-171.3297 151.7819,-192.0651 107,-132 84.7073,-102.0993 90.2134,-55.7007 95.8439,-29.5854"/>
<polygon fill="#191970" stroke="#191970" points="99.2761,-30.2805 98.1839,-19.7421 92.4659,-28.6615 99.2761,-30.2805"/>
</g>
<!-- Node16 -->
<g id="node17" class="node">
<title>Node16</title>
<polygon fill="#ffffff" stroke="#bfbfbf" points="472,-112.5 472,-131.5 510,-131.5 510,-112.5 472,-112.5"/>
<text text-anchor="middle" x="491" y="-119.5" font-family="Helvetica,sans-Serif" font-size="10.00" fill="#000000">apf.h</text>
</g>
<!-- Node0&#45;&gt;Node16 -->
<g id="edge20" class="edge">
<title>Node0&#45;&gt;Node16</title>
<path fill="none" stroke="#191970" d="M643.7604,-232.9938C578.6802,-230.3867 450.7204,-221.0775 423,-188 405.9653,-167.6732 437.3475,-146.7755 462.9251,-134.086"/>
<polygon fill="#191970" stroke="#191970" points="464.4435,-137.2396 471.9854,-129.7985 461.4492,-130.9123 464.4435,-137.2396"/>
</g>
<!-- Node19 -->
<g id="node20" class="node">
<title>Node19</title>
<polygon fill="#ffffff" stroke="#bfbfbf" points="431.5,-168.5 431.5,-187.5 498.5,-187.5 498.5,-168.5 431.5,-168.5"/>
<text text-anchor="middle" x="465" y="-175.5" font-family="Helvetica,sans-Serif" font-size="10.00" fill="#000000">apfVector.h</text>
</g>
<!-- Node0&#45;&gt;Node19 -->
<g id="edge21" class="edge">
<title>Node0&#45;&gt;Node19</title>
<path fill="none" stroke="#191970" d="M644.6964,-224.3733C606.8261,-214.6003 548.2377,-199.4807 508.3323,-189.1825"/>
<polygon fill="#191970" stroke="#191970" points="509.1707,-185.7843 498.6134,-186.6744 507.4216,-192.5622 509.1707,-185.7843"/>
</g>
<!-- Node20 -->
<g id="node21" class="node">
<title>Node20</title>
<polygon fill="#ffffff" stroke="#bfbfbf" points="517,-168.5 517,-187.5 579,-187.5 579,-168.5 517,-168.5"/>
<text text-anchor="middle" x="548" y="-175.5" font-family="Helvetica,sans-Serif" font-size="10.00" fill="#000000">apfMesh.h</text>
</g>
<!-- Node0&#45;&gt;Node20 -->
<g id="edge22" class="edge">
<title>Node0&#45;&gt;Node20</title>
<path fill="none" stroke="#191970" d="M658.9646,-224.3733C637.2612,-215.3032 604.5382,-201.6279 580.245,-191.4755"/>
<polygon fill="#191970" stroke="#191970" points="581.3111,-188.1278 570.7348,-187.5011 578.6119,-194.5865 581.3111,-188.1278"/>
</g>
<!-- Node21 -->
<g id="node22" class="node">
<title>Node21</title>
<polygon fill="#ffffff" stroke="#bfbfbf" points="597,-168.5 597,-187.5 663,-187.5 663,-168.5 597,-168.5"/>
<text text-anchor="middle" x="630" y="-175.5" font-family="Helvetica,sans-Serif" font-size="10.00" fill="#000000">apfShape.h</text>
</g>
<!-- Node0&#45;&gt;Node21 -->
<g id="edge23" class="edge">
<title>Node0&#45;&gt;Node21</title>
<path fill="none" stroke="#191970" d="M672.9423,-224.2455C665.4858,-216.2155 654.7366,-204.6394 645.8583,-195.0781"/>
<polygon fill="#191970" stroke="#191970" points="648.3232,-192.589 638.9539,-187.6427 643.1937,-197.3522 648.3232,-192.589"/>
</g>
<!-- Node22 -->
<g id="node23" class="node">
<title>Node22</title>
<polygon fill="#ffffff" stroke="#bfbfbf" points="681,-168.5 681,-187.5 787,-187.5 787,-168.5 681,-168.5"/>
<text text-anchor="middle" x="734" y="-175.5" font-family="Helvetica,sans-Serif" font-size="10.00" fill="#000000">apfDynamicVector.h</text>
</g>
<!-- Node0&#45;&gt;Node22 -->
<g id="edge24" class="edge">
<title>Node0&#45;&gt;Node22</title>
<path fill="none" stroke="#191970" d="M691.0577,-224.2455C698.5142,-216.2155 709.2634,-204.6394 718.1417,-195.0781"/>
<polygon fill="#191970" stroke="#191970" points="720.8063,-197.3522 725.0461,-187.6427 715.6768,-192.589 720.8063,-197.3522"/>
</g>
<!-- Node23 -->
<g id="node24" class="node">
<title>Node23</title>
<polygon fill="#ffffff" stroke="#bfbfbf" points="805,-168.5 805,-187.5 885,-187.5 885,-168.5 805,-168.5"/>
<text text-anchor="middle" x="845" y="-175.5" font-family="Helvetica,sans-Serif" font-size="10.00" fill="#000000">apfCavityOp.h</text>
</g>
<!-- Node0&#45;&gt;Node23 -->
<g id="edge25" class="edge">
<title>Node0&#45;&gt;Node23</title>
<path fill="none" stroke="#191970" d="M710.0207,-224.3733C737.0078,-215.1016 778.0017,-201.0178 807.7311,-190.804"/>
<polygon fill="#191970" stroke="#191970" points="809.0248,-194.0605 817.3449,-187.5011 806.7503,-187.4403 809.0248,-194.0605"/>
</g>
<!-- Node24 -->
<g id="node25" class="node">
<title>Node24</title>
<polygon fill="#ffffff" stroke="#bfbfbf" points="903.5,-168.5 903.5,-187.5 944.5,-187.5 944.5,-168.5 903.5,-168.5"/>
<text text-anchor="middle" x="924" y="-175.5" font-family="Helvetica,sans-Serif" font-size="10.00" fill="#000000">string</text>
</g>
<!-- Node0&#45;&gt;Node24 -->
<g id="edge26" class="edge">
<title>Node0&#45;&gt;Node24</title>
<path fill="none" stroke="#191970" d="M720.2141,-226.9999C760.8957,-219.2633 827.2962,-205.8236 893.6469,-187.8636"/>
<polygon fill="#191970" stroke="#191970" points="894.714,-191.2003 903.4329,-185.1811 892.8634,-184.4493 894.714,-191.2003"/>
</g>
<!-- Node25 -->
<g id="node26" class="node">
<title>Node25</title>
<polygon fill="#ffffff" stroke="#bfbfbf" points="963,-168.5 963,-187.5 1015,-187.5 1015,-168.5 963,-168.5"/>
<text text-anchor="middle" x="989" y="-175.5" font-family="Helvetica,sans-Serif" font-size="10.00" fill="#000000">sstream</text>
</g>
<!-- Node0&#45;&gt;Node25 -->
<g id="edge28" class="edge">
<title>Node0&#45;&gt;Node25</title>
<path fill="none" stroke="#191970" d="M720.1022,-228.9159C771.0384,-221.8223 864.2773,-207.8015 952.7769,-188.0907"/>
<polygon fill="#191970" stroke="#191970" points="953.7229,-191.4653 962.7073,-185.85 952.1822,-184.637 953.7229,-191.4653"/>
</g>
<!-- Node26 -->
<g id="node27" class="node">
<title>Node26</title>
<polygon fill="#ffffff" stroke="#bfbfbf" points="1033.5,-168.5 1033.5,-187.5 1080.5,-187.5 1080.5,-168.5 1033.5,-168.5"/>
<text text-anchor="middle" x="1057" y="-175.5" font-family="Helvetica,sans-Serif" font-size="10.00" fill="#000000">PCU.h</text>
</g>
<!-- Node0&#45;&gt;Node26 -->
<g id="edge29" class="edge">
<title>Node0&#45;&gt;Node26</title>
<path fill="none" stroke="#191970" d="M720.0473,-230.893C781.7595,-225.4188 907.5743,-212.4552 1023.2408,-187.8516"/>
<polygon fill="#191970" stroke="#191970" points="1024.2923,-191.2052 1033.3266,-185.6706 1022.8127,-184.3634 1024.2923,-191.2052"/>
</g>
<!-- Node27 -->
<g id="node28" class="node">
<title>Node27</title>
<polygon fill="#ffffff" stroke="#bfbfbf" points="1099,-168.5 1099,-187.5 1205,-187.5 1205,-168.5 1099,-168.5"/>
<text text-anchor="middle" x="1152" y="-175.5" font-family="Helvetica,sans-Serif" font-size="10.00" fill="#000000">samElementCount.h</text>
</g>
<!-- Node0&#45;&gt;Node27 -->
<g id="edge30" class="edge">
<title>Node0&#45;&gt;Node27</title>
<path fill="none" stroke="#191970" d="M720.0434,-230.3219C790.5877,-223.3692 946.6853,-207.3659 1088.7239,-188.1221"/>
<polygon fill="#191970" stroke="#191970" points="1089.4896,-191.5501 1098.925,-186.731 1088.5437,-184.6143 1089.4896,-191.5501"/>
</g>
<!-- Node28 -->
<g id="node29" class="node">
<title>Node28</title>
<polygon fill="#ffffff" stroke="#bfbfbf" points="1223.5,-168.5 1223.5,-187.5 1266.5,-187.5 1266.5,-168.5 1223.5,-168.5"/>
<text text-anchor="middle" x="1245" y="-175.5" font-family="Helvetica,sans-Serif" font-size="10.00" fill="#000000">queue</text>
</g>
<!-- Node0&#45;&gt;Node28 -->
<g id="edge31" class="edge">
<title>Node0&#45;&gt;Node28</title>
<path fill="none" stroke="#191970" d="M720.3652,-231.8114C822.7541,-225.7964 1101.6772,-208.2279 1213.5104,-187.5701"/>
<polygon fill="#191970" stroke="#191970" points="1214.3392,-190.9746 1223.4852,-185.6266 1213.0004,-184.1038 1214.3392,-190.9746"/>
</g>
<!-- Node2 -->
<g id="node3" class="node">
<title>Node2</title>
<g id="a_node3"><a xlink:href="mesh_8h.html" target="_top" xlink:title="mesh.h">
<polygon fill="#ffffff" stroke="#000000" points="319.5,-56.5 319.5,-75.5 368.5,-75.5 368.5,-56.5 319.5,-56.5"/>
<text text-anchor="middle" x="344" y="-63.5" font-family="Helvetica,sans-Serif" font-size="10.00" fill="#000000">mesh.h</text>
</a>
</g>
</g>
<!-- Node1&#45;&gt;Node2 -->
<g id="edge2" class="edge">
<title>Node1&#45;&gt;Node2</title>
<path fill="none" stroke="#191970" d="M371.5409,-168.4351C391.574,-161.7628 413.0925,-150.5844 425,-132 440.3424,-108.0547 406.5142,-88.685 377.9866,-77.2672"/>
<polygon fill="#191970" stroke="#191970" points="379.1852,-73.9786 368.5939,-73.7048 376.7028,-80.5236 379.1852,-73.9786"/>
</g>
<!-- Node13 -->
<g id="node14" class="node">
<title>Node13</title>
<g id="a_node14"><a xlink:href="cmesh_tools_module_8h.html" target="_top" xlink:title="cmeshToolsModule.h">
<polygon fill="#ffffff" stroke="#000000" points="116,-112.5 116,-131.5 226,-131.5 226,-112.5 116,-112.5"/>
<text text-anchor="middle" x="171" y="-119.5" font-family="Helvetica,sans-Serif" font-size="10.00" fill="#000000">cmeshToolsModule.h</text>
</a>
</g>
</g>
<!-- Node1&#45;&gt;Node13 -->
<g id="edge13" class="edge">
<title>Node1&#45;&gt;Node13</title>
<path fill="none" stroke="#191970" d="M298.5265,-168.3733C273.1403,-159.1419 234.6355,-145.1402 206.578,-134.9375"/>
<polygon fill="#191970" stroke="#191970" points="207.7222,-131.6293 197.1281,-131.5011 205.3299,-138.2079 207.7222,-131.6293"/>
</g>
<!-- Node1&#45;&gt;Node16 -->
<g id="edge17" class="edge">
<title>Node1&#45;&gt;Node16</title>
<path fill="none" stroke="#191970" d="M353.5364,-168.3733C383.8519,-158.1464 431.5227,-142.0646 462.01,-131.7798"/>
<polygon fill="#191970" stroke="#191970" points="463.2839,-135.0439 471.6404,-128.5309 461.0463,-128.4111 463.2839,-135.0439"/>
</g>
<!-- Node17 -->
<g id="node18" class="node">
<title>Node17</title>
<polygon fill="#ffffff" stroke="#bfbfbf" points="244,-112.5 244,-131.5 312,-131.5 312,-112.5 244,-112.5"/>
<text text-anchor="middle" x="278" y="-119.5" font-family="Helvetica,sans-Serif" font-size="10.00" fill="#000000">apfMesh2.h</text>
</g>
<!-- Node1&#45;&gt;Node17 -->
<g id="edge18" class="edge">
<title>Node1&#45;&gt;Node17</title>
<path fill="none" stroke="#191970" d="M316.8132,-168.2455C310.1411,-160.2958 300.5521,-148.8706 292.5747,-139.3656"/>
<polygon fill="#191970" stroke="#191970" points="295.2026,-137.0524 286.093,-131.6427 289.8408,-141.5525 295.2026,-137.0524"/>
</g>
<!-- Node18 -->
<g id="node19" class="node">
<title>Node18</title>
<polygon fill="#ffffff" stroke="#bfbfbf" points="330,-112.5 330,-131.5 416,-131.5 416,-112.5 330,-112.5"/>
<text text-anchor="middle" x="373" y="-119.5" font-family="Helvetica,sans-Serif" font-size="10.00" fill="#000000">apfNumbering.h</text>
</g>
<!-- Node1&#45;&gt;Node18 -->
<g id="edge19" class="edge">
<title>Node1&#45;&gt;Node18</title>
<path fill="none" stroke="#191970" d="M333.361,-168.2455C340.175,-160.2958 349.9681,-148.8706 358.1152,-139.3656"/>
<polygon fill="#191970" stroke="#191970" points="360.8843,-141.513 364.7349,-131.6427 355.5695,-136.9575 360.8843,-141.513"/>
</g>
<!-- Node3 -->
<g id="node4" class="node">
<title>Node3</title>
<polygon fill="#ffffff" stroke="#bfbfbf" points="276,-.5 276,-19.5 306,-19.5 306,-.5 276,-.5"/>
<text text-anchor="middle" x="291" y="-7.5" font-family="Helvetica,sans-Serif" font-size="10.00" fill="#000000">set</text>
</g>
<!-- Node2&#45;&gt;Node3 -->
<g id="edge3" class="edge">
<title>Node2&#45;&gt;Node3</title>
<path fill="none" stroke="#191970" d="M334.7681,-56.2455C327.1683,-48.2155 316.2123,-36.6394 307.1632,-27.0781"/>
<polygon fill="#191970" stroke="#191970" points="309.542,-24.4998 300.1261,-19.6427 304.4579,-29.3115 309.542,-24.4998"/>
</g>
<!-- Node4 -->
<g id="node5" class="node">
<title>Node4</title>
<polygon fill="#ffffff" stroke="#bfbfbf" points="324,-.5 324,-19.5 368,-19.5 368,-.5 324,-.5"/>
<text text-anchor="middle" x="346" y="-7.5" font-family="Helvetica,sans-Serif" font-size="10.00" fill="#000000">vector</text>
</g>
<!-- Node2&#45;&gt;Node4 -->
<g id="edge4" class="edge">
<title>Node2&#45;&gt;Node4</title>
<path fill="none" stroke="#191970" d="M344.3484,-56.2455C344.6093,-48.9382 344.9752,-38.6944 345.2963,-29.7046"/>
<polygon fill="#191970" stroke="#191970" points="348.7964,-29.7613 345.6556,-19.6427 341.8008,-29.5113 348.7964,-29.7613"/>
</g>
<!-- Node2&#45;&gt;Node5 -->
<g id="edge5" class="edge">
<title>Node2&#45;&gt;Node5</title>
<path fill="none" stroke="#191970" d="M319.3112,-58.7083C315.541,-57.7209 311.6804,-56.7806 308,-56 204.3264,-34.0097 173.6653,-41.7845 66.1489,-20.0374"/>
<polygon fill="#191970" stroke="#191970" points="66.7007,-16.5776 56.1999,-17.986 65.287,-23.4334 66.7007,-16.5776"/>
</g>
<!-- Node6 -->
<g id="node7" class="node">
<title>Node6</title>
<polygon fill="#ffffff" stroke="#bfbfbf" points="386.5,-.5 386.5,-19.5 421.5,-19.5 421.5,-.5 386.5,-.5"/>
<text text-anchor="middle" x="404" y="-7.5" font-family="Helvetica,sans-Serif" font-size="10.00" fill="#000000">map</text>
</g>
<!-- Node2&#45;&gt;Node6 -->
<g id="edge6" class="edge">
<title>Node2&#45;&gt;Node6</title>
<path fill="none" stroke="#191970" d="M354.4512,-56.2455C363.2269,-48.0549 375.9554,-36.1749 386.314,-26.5069"/>
<polygon fill="#191970" stroke="#191970" points="388.7461,-29.0246 393.6686,-19.6427 383.9699,-23.9072 388.7461,-29.0246"/>
</g>
<!-- Node7 -->
<g id="node8" class="node">
<title>Node7</title>
<polygon fill="#ffffff" stroke="#bfbfbf" points="439.5,-.5 439.5,-19.5 468.5,-19.5 468.5,-.5 439.5,-.5"/>
<text text-anchor="middle" x="454" y="-7.5" font-family="Helvetica,sans-Serif" font-size="10.00" fill="#000000">list</text>
</g>
<!-- Node2&#45;&gt;Node7 -->
<g id="edge7" class="edge">
<title>Node2&#45;&gt;Node7</title>
<path fill="none" stroke="#191970" d="M363.1605,-56.2455C381.7807,-46.7662 410.1077,-32.3452 430.1719,-22.1307"/>
<polygon fill="#191970" stroke="#191970" points="431.9553,-25.1503 439.2791,-17.4943 428.7795,-18.9121 431.9553,-25.1503"/>
</g>
<!-- Node2&#45;&gt;Node8 -->
<g id="edge8" class="edge">
<title>Node2&#45;&gt;Node8</title>
<path fill="none" stroke="#191970" d="M319.2659,-58.9071C315.5019,-57.8923 311.6551,-56.8915 308,-56 235.6406,-38.3521 214.1955,-38.3689 138.1446,-20.1594"/>
<polygon fill="#191970" stroke="#191970" points="138.6216,-16.6738 128.0786,-17.7201 136.973,-23.4769 138.6216,-16.6738"/>
</g>
<!-- Node9 -->
<g id="node10" class="node">
<title>Node9</title>
<polygon fill="#ffffff" stroke="#bfbfbf" points="487,-.5 487,-19.5 537,-19.5 537,-.5 487,-.5"/>
<text text-anchor="middle" x="512" y="-7.5" font-family="Helvetica,sans-Serif" font-size="10.00" fill="#000000">iomanip</text>
</g>
<!-- Node2&#45;&gt;Node9 -->
<g id="edge9" class="edge">
<title>Node2&#45;&gt;Node9</title>
<path fill="none" stroke="#191970" d="M368.789,-57.737C397.4916,-48.1695 444.9607,-32.3464 477.316,-21.5613"/>
<polygon fill="#191970" stroke="#191970" points="478.4545,-24.8712 486.8345,-18.3885 476.2409,-18.2304 478.4545,-24.8712"/>
</g>
<!-- Node10 -->
<g id="node11" class="node">
<title>Node10</title>
<polygon fill="#ffffff" stroke="#bfbfbf" points="555,-.5 555,-19.5 605,-19.5 605,-.5 555,-.5"/>
<text text-anchor="middle" x="580" y="-7.5" font-family="Helvetica,sans-Serif" font-size="10.00" fill="#000000">fstream</text>
</g>
<!-- Node2&#45;&gt;Node10 -->
<g id="edge10" class="edge">
<title>Node2&#45;&gt;Node10</title>
<path fill="none" stroke="#191970" d="M368.6845,-60.896C405.1525,-53.2445 475.764,-38.0063 545.0357,-20.1398"/>
<polygon fill="#191970" stroke="#191970" points="546,-23.5056 554.7976,-17.6019 544.2386,-16.7308 546,-23.5056"/>
</g>
<!-- Node11 -->
<g id="node12" class="node">
<title>Node11</title>
<polygon fill="#ffffff" stroke="#bfbfbf" points="146.5,-.5 146.5,-19.5 195.5,-19.5 195.5,-.5 146.5,-.5"/>
<text text-anchor="middle" x="171" y="-7.5" font-family="Helvetica,sans-Serif" font-size="10.00" fill="#000000">cassert</text>
</g>
<!-- Node2&#45;&gt;Node11 -->
<g id="edge11" class="edge">
<title>Node2&#45;&gt;Node11</title>
<path fill="none" stroke="#191970" d="M319.2133,-57.9766C289.4092,-48.329 239.2093,-32.0793 205.5982,-21.1994"/>
<polygon fill="#191970" stroke="#191970" points="206.3326,-17.7584 195.7407,-18.0086 204.1768,-24.4182 206.3326,-17.7584"/>
</g>
<!-- Node12 -->
<g id="node13" class="node">
<title>Node12</title>
<polygon fill="#ffffff" stroke="#bfbfbf" points="214,-.5 214,-19.5 258,-19.5 258,-.5 214,-.5"/>
<text text-anchor="middle" x="236" y="-7.5" font-family="Helvetica,sans-Serif" font-size="10.00" fill="#000000">cmath</text>
</g>
<!-- Node2&#45;&gt;Node12 -->
<g id="edge12" class="edge">
<title>Node2&#45;&gt;Node12</title>
<path fill="none" stroke="#191970" d="M325.1878,-56.2455C308.1527,-47.4125 282.8425,-34.2887 263.5319,-24.2758"/>
<polygon fill="#191970" stroke="#191970" points="265.0853,-21.1388 254.5966,-19.6427 261.863,-27.353 265.0853,-21.1388"/>
</g>
<!-- Node13&#45;&gt;Node2 -->
<g id="edge16" class="edge">
<title>Node13&#45;&gt;Node2</title>
<path fill="none" stroke="#191970" d="M200.7398,-112.3733C230.989,-102.5816 277.8187,-87.4229 309.6363,-77.1235"/>
<polygon fill="#191970" stroke="#191970" points="310.9631,-80.3729 319.3992,-73.9633 308.8073,-73.7131 310.9631,-80.3729"/>
</g>
<!-- Node14 -->
<g id="node15" class="node">
<title>Node14</title>
<polygon fill="#ffffff" stroke="#bfbfbf" points="120,-56.5 120,-75.5 176,-75.5 176,-56.5 120,-56.5"/>
<text text-anchor="middle" x="148" y="-63.5" font-family="Helvetica,sans-Serif" font-size="10.00" fill="#000000">Python.h</text>
</g>
<!-- Node13&#45;&gt;Node14 -->
<g id="edge14" class="edge">
<title>Node13&#45;&gt;Node14</title>
<path fill="none" stroke="#191970" d="M166.9937,-112.2455C163.9265,-104.7776 159.5997,-94.2427 155.8503,-85.1137"/>
<polygon fill="#191970" stroke="#191970" points="158.9972,-83.5631 151.9604,-75.6427 152.5221,-86.2226 158.9972,-83.5631"/>
</g>
<!-- Node15 -->
<g id="node16" class="node">
<title>Node15</title>
<polygon fill="#ffffff" stroke="#bfbfbf" points="194.5,-56.5 194.5,-75.5 299.5,-75.5 299.5,-56.5 194.5,-56.5"/>
<text text-anchor="middle" x="247" y="-63.5" font-family="Helvetica,sans-Serif" font-size="10.00" fill="#000000">numpy/arrayobject.h</text>
</g>
<!-- Node13&#45;&gt;Node15 -->
<g id="edge15" class="edge">
<title>Node13&#45;&gt;Node15</title>
<path fill="none" stroke="#191970" d="M184.2382,-112.2455C195.681,-103.814 212.4296,-91.4729 225.7475,-81.6598"/>
<polygon fill="#191970" stroke="#191970" points="227.9391,-84.3924 233.9135,-75.6427 223.7867,-78.757 227.9391,-84.3924"/>
</g>
</g>
</svg>
