<?xml version="1.0" encoding="UTF-8" standalone="no"?>
<!DOCTYPE svg PUBLIC "-//W3C//DTD SVG 1.1//EN"
 "http://www.w3.org/Graphics/SVG/1.1/DTD/svg11.dtd">
<!-- Generated by graphviz version 2.42.3 (0)
 -->
<!-- Title: SizeField.cpp Pages: 1 -->
<svg width="1235pt" height="196pt"
 viewBox="0.00 0.00 1235.00 196.00" xmlns="http://www.w3.org/2000/svg" xmlns:xlink="http://www.w3.org/1999/xlink">
<g id="graph0" class="graph" transform="scale(1 1) rotate(0) translate(4 192)">
<title>SizeField.cpp</title>
<polygon fill="white" stroke="transparent" points="-4,4 -4,-192 1231,-192 1231,4 -4,4"/>
<!-- Node1 -->
<g id="node1" class="node">
<title>Node1</title>
<g id="a_node1"><a xlink:title=" ">
<polygon fill="#bfbfbf" stroke="black" points="536,-168.5 536,-187.5 616,-187.5 616,-168.5 536,-168.5"/>
<text text-anchor="middle" x="576" y="-175.5" font-family="Helvetica,sans-Serif" font-size="10.00">SizeField.cpp</text>
</a>
</g>
</g>
<!-- Node2 -->
<g id="node2" class="node">
<title>Node2</title>
<g id="a_node2"><a xlink:href="_mesh_adapt_p_u_m_i_8h.html" target="_top" xlink:title=" ">
<polygon fill="white" stroke="black" points="246,-112.5 246,-131.5 352,-131.5 352,-112.5 246,-112.5"/>
<text text-anchor="middle" x="299" y="-119.5" font-family="Helvetica,sans-Serif" font-size="10.00">MeshAdaptPUMI.h</text>
</a>
</g>
</g>
<!-- Node1&#45;&gt;Node2 -->
<g id="edge1" class="edge">
<title>Node1&#45;&gt;Node2</title>
<path fill="none" stroke="midnightblue" d="M535.72,-169.15C487.51,-159.75 406.59,-143.97 353,-133.53"/>
<polygon fill="midnightblue" stroke="midnightblue" points="353.47,-130.05 342.99,-131.58 352.13,-136.92 353.47,-130.05"/>
</g>
<!-- Node6 -->
<g id="node6" class="node">
<title>Node6</title>
<g id="a_node6"><a xlink:title=" ">
<polygon fill="white" stroke="#bfbfbf" points="0,-0.5 0,-19.5 64,-19.5 64,-0.5 0,-0.5"/>
<text text-anchor="middle" x="32" y="-7.5" font-family="Helvetica,sans-Serif" font-size="10.00">algorithm</text>
</a>
</g>
</g>
<!-- Node1&#45;&gt;Node6 -->
<g id="edge29" class="edge">
<title>Node1&#45;&gt;Node6</title>
<path fill="none" stroke="midnightblue" d="M535.83,-175.08C449.77,-170.52 250.39,-157.47 188,-132 128.47,-107.7 72.42,-54.04 46.71,-27.1"/>
<polygon fill="midnightblue" stroke="midnightblue" points="49.13,-24.56 39.74,-19.65 44.02,-29.34 49.13,-24.56"/>
</g>
<!-- Node9 -->
<g id="node9" class="node">
<title>Node9</title>
<g id="a_node9"><a xlink:title=" ">
<polygon fill="white" stroke="#bfbfbf" points="82,-0.5 82,-19.5 142,-19.5 142,-0.5 82,-0.5"/>
<text text-anchor="middle" x="112" y="-7.5" font-family="Helvetica,sans-Serif" font-size="10.00">iostream</text>
</a>
</g>
</g>
<!-- Node1&#45;&gt;Node9 -->
<g id="edge24" class="edge">
<title>Node1&#45;&gt;Node9</title>
<path fill="none" stroke="midnightblue" d="M535.72,-175.44C454.47,-171.72 274.11,-160.44 220,-132 174.05,-107.85 138.27,-55.73 121.84,-28.45"/>
<polygon fill="midnightblue" stroke="midnightblue" points="124.75,-26.49 116.68,-19.62 118.71,-30.02 124.75,-26.49"/>
</g>
<!-- Node14 -->
<g id="node14" class="node">
<title>Node14</title>
<g id="a_node14"><a xlink:title=" ">
<polygon fill="white" stroke="#bfbfbf" points="197.5,-56.5 197.5,-75.5 238.5,-75.5 238.5,-56.5 197.5,-56.5"/>
<text text-anchor="middle" x="218" y="-63.5" font-family="Helvetica,sans-Serif" font-size="10.00">apf.h</text>
</a>
</g>
</g>
<!-- Node1&#45;&gt;Node14 -->
<g id="edge17" class="edge">
<title>Node1&#45;&gt;Node14</title>
<path fill="none" stroke="midnightblue" d="M535.83,-176.98C455.97,-176.12 281.1,-169.84 237,-132 223.78,-120.65 219.5,-100.66 218.24,-85.83"/>
<polygon fill="midnightblue" stroke="midnightblue" points="221.73,-85.55 217.76,-75.73 214.73,-85.88 221.73,-85.55"/>
</g>
<!-- Node17 -->
<g id="node17" class="node">
<title>Node17</title>
<g id="a_node17"><a xlink:title=" ">
<polygon fill="white" stroke="#bfbfbf" points="533.5,-56.5 533.5,-75.5 580.5,-75.5 580.5,-56.5 533.5,-56.5"/>
<text text-anchor="middle" x="557" y="-63.5" font-family="Helvetica,sans-Serif" font-size="10.00">queue</text>
</a>
</g>
</g>
<!-- Node1&#45;&gt;Node17 -->
<g id="edge28" class="edge">
<title>Node1&#45;&gt;Node17</title>
<path fill="none" stroke="midnightblue" d="M535.74,-172.4C489.08,-166.15 416.49,-153.24 400,-132 394.55,-124.98 394.65,-119.1 400,-112 400.48,-111.37 477.41,-89.51 523.39,-76.5"/>
<polygon fill="midnightblue" stroke="midnightblue" points="524.58,-79.8 533.25,-73.71 522.67,-73.07 524.58,-79.8"/>
</g>
<!-- Node18 -->
<g id="node18" class="node">
<title>Node18</title>
<g id="a_node18"><a xlink:title=" ">
<polygon fill="white" stroke="#bfbfbf" points="408.5,-112.5 408.5,-131.5 479.5,-131.5 479.5,-112.5 408.5,-112.5"/>
<text text-anchor="middle" x="444" y="-119.5" font-family="Helvetica,sans-Serif" font-size="10.00">apfVector.h</text>
</a>
</g>
</g>
<!-- Node1&#45;&gt;Node18 -->
<g id="edge18" class="edge">
<title>Node1&#45;&gt;Node18</title>
<path fill="none" stroke="midnightblue" d="M555.08,-168.44C533.26,-159.52 498.85,-145.44 474.11,-135.32"/>
<polygon fill="midnightblue" stroke="midnightblue" points="475.4,-132.06 464.82,-131.52 472.75,-138.54 475.4,-132.06"/>
</g>
<!-- Node19 -->
<g id="node19" class="node">
<title>Node19</title>
<g id="a_node19"><a xlink:title=" ">
<polygon fill="white" stroke="#bfbfbf" points="498,-112.5 498,-131.5 566,-131.5 566,-112.5 498,-112.5"/>
<text text-anchor="middle" x="532" y="-119.5" font-family="Helvetica,sans-Serif" font-size="10.00">apfMesh.h</text>
</a>
</g>
</g>
<!-- Node1&#45;&gt;Node19 -->
<g id="edge19" class="edge">
<title>Node1&#45;&gt;Node19</title>
<path fill="none" stroke="midnightblue" d="M568.73,-168.08C562.46,-160.38 553.21,-149.03 545.57,-139.65"/>
<polygon fill="midnightblue" stroke="midnightblue" points="548.16,-137.29 539.13,-131.75 542.73,-141.71 548.16,-137.29"/>
</g>
<!-- Node20 -->
<g id="node20" class="node">
<title>Node20</title>
<g id="a_node20"><a xlink:title=" ">
<polygon fill="white" stroke="#bfbfbf" points="584.5,-112.5 584.5,-131.5 655.5,-131.5 655.5,-112.5 584.5,-112.5"/>
<text text-anchor="middle" x="620" y="-119.5" font-family="Helvetica,sans-Serif" font-size="10.00">apfShape.h</text>
</a>
</g>
</g>
<!-- Node1&#45;&gt;Node20 -->
<g id="edge20" class="edge">
<title>Node1&#45;&gt;Node20</title>
<path fill="none" stroke="midnightblue" d="M583.27,-168.08C589.54,-160.38 598.79,-149.03 606.43,-139.65"/>
<polygon fill="midnightblue" stroke="midnightblue" points="609.27,-141.71 612.87,-131.75 603.84,-137.29 609.27,-141.71"/>
</g>
<!-- Node21 -->
<g id="node21" class="node">
<title>Node21</title>
<g id="a_node21"><a xlink:title=" ">
<polygon fill="white" stroke="#bfbfbf" points="673.5,-112.5 673.5,-131.5 788.5,-131.5 788.5,-112.5 673.5,-112.5"/>
<text text-anchor="middle" x="731" y="-119.5" font-family="Helvetica,sans-Serif" font-size="10.00">apfDynamicVector.h</text>
</a>
</g>
</g>
<!-- Node1&#45;&gt;Node21 -->
<g id="edge21" class="edge">
<title>Node1&#45;&gt;Node21</title>
<path fill="none" stroke="midnightblue" d="M600.56,-168.44C626.52,-159.4 667.67,-145.06 696.8,-134.92"/>
<polygon fill="midnightblue" stroke="midnightblue" points="698.26,-138.11 706.55,-131.52 695.96,-131.5 698.26,-138.11"/>
</g>
<!-- Node22 -->
<g id="node22" class="node">
<title>Node22</title>
<g id="a_node22"><a xlink:title=" ">
<polygon fill="white" stroke="#bfbfbf" points="807,-112.5 807,-131.5 893,-131.5 893,-112.5 807,-112.5"/>
<text text-anchor="middle" x="850" y="-119.5" font-family="Helvetica,sans-Serif" font-size="10.00">apfCavityOp.h</text>
</a>
</g>
</g>
<!-- Node1&#45;&gt;Node22 -->
<g id="edge22" class="edge">
<title>Node1&#45;&gt;Node22</title>
<path fill="none" stroke="midnightblue" d="M616.14,-169.09C663.89,-159.68 743.81,-143.93 796.71,-133.5"/>
<polygon fill="midnightblue" stroke="midnightblue" points="797.45,-136.92 806.59,-131.56 796.1,-130.06 797.45,-136.92"/>
</g>
<!-- Node23 -->
<g id="node23" class="node">
<title>Node23</title>
<g id="a_node23"><a xlink:title=" ">
<polygon fill="white" stroke="#bfbfbf" points="911,-112.5 911,-131.5 955,-131.5 955,-112.5 911,-112.5"/>
<text text-anchor="middle" x="933" y="-119.5" font-family="Helvetica,sans-Serif" font-size="10.00">string</text>
</a>
</g>
</g>
<!-- Node1&#45;&gt;Node23 -->
<g id="edge23" class="edge">
<title>Node1&#45;&gt;Node23</title>
<path fill="none" stroke="midnightblue" d="M616.22,-173.35C676.22,-167.49 792.82,-154.51 900.67,-132.01"/>
<polygon fill="midnightblue" stroke="midnightblue" points="901.69,-135.38 910.75,-129.88 900.24,-128.53 901.69,-135.38"/>
</g>
<!-- Node24 -->
<g id="node24" class="node">
<title>Node24</title>
<g id="a_node24"><a xlink:title=" ">
<polygon fill="white" stroke="#bfbfbf" points="973,-112.5 973,-131.5 1029,-131.5 1029,-112.5 973,-112.5"/>
<text text-anchor="middle" x="1001" y="-119.5" font-family="Helvetica,sans-Serif" font-size="10.00">sstream</text>
</a>
</g>
</g>
<!-- Node1&#45;&gt;Node24 -->
<g id="edge25" class="edge">
<title>Node1&#45;&gt;Node24</title>
<path fill="none" stroke="midnightblue" d="M616.17,-173.98C685.15,-168.44 830.67,-155.21 962.89,-132"/>
<polygon fill="midnightblue" stroke="midnightblue" points="963.56,-135.44 972.79,-130.24 962.34,-128.55 963.56,-135.44"/>
</g>
<!-- Node25 -->
<g id="node25" class="node">
<title>Node25</title>
<g id="a_node25"><a xlink:title=" ">
<polygon fill="white" stroke="#bfbfbf" points="1047,-112.5 1047,-131.5 1093,-131.5 1093,-112.5 1047,-112.5"/>
<text text-anchor="middle" x="1070" y="-119.5" font-family="Helvetica,sans-Serif" font-size="10.00">PCU.h</text>
</a>
</g>
</g>
<!-- Node1&#45;&gt;Node25 -->
<g id="edge26" class="edge">
<title>Node1&#45;&gt;Node25</title>
<path fill="none" stroke="midnightblue" d="M616.2,-175.48C695.16,-171.98 876.13,-161.41 1036.64,-131.95"/>
<polygon fill="midnightblue" stroke="midnightblue" points="1037.51,-135.34 1046.69,-130.07 1036.22,-128.46 1037.51,-135.34"/>
</g>
<!-- Node26 -->
<g id="node26" class="node">
<title>Node26</title>
<g id="a_node26"><a xlink:title=" ">
<polygon fill="white" stroke="#bfbfbf" points="1111,-112.5 1111,-131.5 1227,-131.5 1227,-112.5 1111,-112.5"/>
<text text-anchor="middle" x="1169" y="-119.5" font-family="Helvetica,sans-Serif" font-size="10.00">samElementCount.h</text>
</a>
</g>
</g>
<!-- Node1&#45;&gt;Node26 -->
<g id="edge27" class="edge">
<title>Node1&#45;&gt;Node26</title>
<path fill="none" stroke="midnightblue" d="M616.32,-174.22C702.96,-168.09 913.58,-152.43 1100.89,-132.07"/>
<polygon fill="midnightblue" stroke="midnightblue" points="1101.36,-135.54 1110.92,-130.98 1100.59,-128.58 1101.36,-135.54"/>
</g>
<!-- Node3 -->
<g id="node3" class="node">
<title>Node3</title>
<g id="a_node3"><a xlink:href="mesh_8h.html" target="_top" xlink:title=" ">
<polygon fill="white" stroke="black" points="256.5,-56.5 256.5,-75.5 309.5,-75.5 309.5,-56.5 256.5,-56.5"/>
<text text-anchor="middle" x="283" y="-63.5" font-family="Helvetica,sans-Serif" font-size="10.00">mesh.h</text>
</a>
</g>
</g>
<!-- Node2&#45;&gt;Node3 -->
<g id="edge2" class="edge">
<title>Node2&#45;&gt;Node3</title>
<path fill="none" stroke="midnightblue" d="M296.36,-112.08C294.21,-104.85 291.12,-94.41 288.45,-85.4"/>
<polygon fill="midnightblue" stroke="midnightblue" points="291.79,-84.34 285.59,-75.75 285.08,-86.33 291.79,-84.34"/>
</g>
<!-- Node2&#45;&gt;Node14 -->
<g id="edge13" class="edge">
<title>Node2&#45;&gt;Node14</title>
<path fill="none" stroke="midnightblue" d="M285.99,-112.32C273.47,-103.98 254.32,-91.21 239.53,-81.35"/>
<polygon fill="midnightblue" stroke="midnightblue" points="241.24,-78.29 230.98,-75.65 237.36,-84.11 241.24,-78.29"/>
</g>
<!-- Node15 -->
<g id="node15" class="node">
<title>Node15</title>
<g id="a_node15"><a xlink:title=" ">
<polygon fill="white" stroke="#bfbfbf" points="328,-56.5 328,-75.5 402,-75.5 402,-56.5 328,-56.5"/>
<text text-anchor="middle" x="365" y="-63.5" font-family="Helvetica,sans-Serif" font-size="10.00">apfMesh2.h</text>
</a>
</g>
</g>
<!-- Node2&#45;&gt;Node15 -->
<g id="edge14" class="edge">
<title>Node2&#45;&gt;Node15</title>
<path fill="none" stroke="midnightblue" d="M309.6,-112.32C319.46,-104.26 334.35,-92.08 346.22,-82.37"/>
<polygon fill="midnightblue" stroke="midnightblue" points="348.68,-84.88 354.2,-75.83 344.25,-79.46 348.68,-84.88"/>
</g>
<!-- Node16 -->
<g id="node16" class="node">
<title>Node16</title>
<g id="a_node16"><a xlink:title=" ">
<polygon fill="white" stroke="#bfbfbf" points="420.5,-56.5 420.5,-75.5 515.5,-75.5 515.5,-56.5 420.5,-56.5"/>
<text text-anchor="middle" x="468" y="-63.5" font-family="Helvetica,sans-Serif" font-size="10.00">apfNumbering.h</text>
</a>
</g>
</g>
<!-- Node2&#45;&gt;Node16 -->
<g id="edge15" class="edge">
<title>Node2&#45;&gt;Node16</title>
<path fill="none" stroke="midnightblue" d="M325.78,-112.44C354.33,-103.32 399.73,-88.81 431.54,-78.65"/>
<polygon fill="midnightblue" stroke="midnightblue" points="432.89,-81.89 441.35,-75.52 430.76,-75.23 432.89,-81.89"/>
</g>
<!-- Node2&#45;&gt;Node17 -->
<g id="edge16" class="edge">
<title>Node2&#45;&gt;Node17</title>
<path fill="none" stroke="midnightblue" d="M347.73,-112.43C391.42,-104.49 457.47,-91.86 523.18,-76.31"/>
<polygon fill="midnightblue" stroke="midnightblue" points="524.38,-79.62 533.29,-73.89 522.75,-72.81 524.38,-79.62"/>
</g>
<!-- Node4 -->
<g id="node4" class="node">
<title>Node4</title>
<g id="a_node4"><a xlink:title=" ">
<polygon fill="white" stroke="#bfbfbf" points="296,-0.5 296,-19.5 328,-19.5 328,-0.5 296,-0.5"/>
<text text-anchor="middle" x="312" y="-7.5" font-family="Helvetica,sans-Serif" font-size="10.00">set</text>
</a>
</g>
</g>
<!-- Node3&#45;&gt;Node4 -->
<g id="edge3" class="edge">
<title>Node3&#45;&gt;Node4</title>
<path fill="none" stroke="midnightblue" d="M287.79,-56.08C291.76,-48.69 297.53,-37.95 302.43,-28.81"/>
<polygon fill="midnightblue" stroke="midnightblue" points="305.65,-30.22 307.3,-19.75 299.49,-26.91 305.65,-30.22"/>
</g>
<!-- Node5 -->
<g id="node5" class="node">
<title>Node5</title>
<g id="a_node5"><a xlink:title=" ">
<polygon fill="white" stroke="#bfbfbf" points="346.5,-0.5 346.5,-19.5 393.5,-19.5 393.5,-0.5 346.5,-0.5"/>
<text text-anchor="middle" x="370" y="-7.5" font-family="Helvetica,sans-Serif" font-size="10.00">vector</text>
</a>
</g>
</g>
<!-- Node3&#45;&gt;Node5 -->
<g id="edge4" class="edge">
<title>Node3&#45;&gt;Node5</title>
<path fill="none" stroke="midnightblue" d="M296.98,-56.32C310.55,-47.9 331.38,-34.97 347.32,-25.07"/>
<polygon fill="midnightblue" stroke="midnightblue" points="349.41,-27.9 356.06,-19.65 345.71,-21.95 349.41,-27.9"/>
</g>
<!-- Node3&#45;&gt;Node6 -->
<g id="edge5" class="edge">
<title>Node3&#45;&gt;Node6</title>
<path fill="none" stroke="midnightblue" d="M256.28,-57.99C253.49,-57.3 250.69,-56.62 248,-56 173.66,-38.81 152.32,-36.66 74.05,-20.2"/>
<polygon fill="midnightblue" stroke="midnightblue" points="74.73,-16.76 64.22,-18.11 73.28,-23.61 74.73,-16.76"/>
</g>
<!-- Node7 -->
<g id="node7" class="node">
<title>Node7</title>
<g id="a_node7"><a xlink:title=" ">
<polygon fill="white" stroke="#bfbfbf" points="412,-0.5 412,-19.5 450,-19.5 450,-0.5 412,-0.5"/>
<text text-anchor="middle" x="431" y="-7.5" font-family="Helvetica,sans-Serif" font-size="10.00">map</text>
</a>
</g>
</g>
<!-- Node3&#45;&gt;Node7 -->
<g id="edge6" class="edge">
<title>Node3&#45;&gt;Node7</title>
<path fill="none" stroke="midnightblue" d="M306.45,-56.44C332.44,-46.96 374.36,-31.67 402.29,-21.47"/>
<polygon fill="midnightblue" stroke="midnightblue" points="403.7,-24.69 411.89,-17.97 401.3,-18.11 403.7,-24.69"/>
</g>
<!-- Node8 -->
<g id="node8" class="node">
<title>Node8</title>
<g id="a_node8"><a xlink:title=" ">
<polygon fill="white" stroke="#bfbfbf" points="468,-0.5 468,-19.5 500,-19.5 500,-0.5 468,-0.5"/>
<text text-anchor="middle" x="484" y="-7.5" font-family="Helvetica,sans-Serif" font-size="10.00">list</text>
</a>
</g>
</g>
<!-- Node3&#45;&gt;Node8 -->
<g id="edge7" class="edge">
<title>Node3&#45;&gt;Node8</title>
<path fill="none" stroke="midnightblue" d="M309.57,-58.36C350.16,-48.19 425.65,-29.19 458.08,-19.96"/>
<polygon fill="midnightblue" stroke="midnightblue" points="459.35,-23.24 467.94,-17.04 457.36,-16.52 459.35,-23.24"/>
</g>
<!-- Node3&#45;&gt;Node9 -->
<g id="edge8" class="edge">
<title>Node3&#45;&gt;Node9</title>
<path fill="none" stroke="midnightblue" d="M256.28,-56.56C227.34,-47.42 180.98,-32.78 148.64,-22.57"/>
<polygon fill="midnightblue" stroke="midnightblue" points="149.69,-19.23 139.1,-19.56 147.58,-25.91 149.69,-19.23"/>
</g>
<!-- Node10 -->
<g id="node10" class="node">
<title>Node10</title>
<g id="a_node10"><a xlink:title=" ">
<polygon fill="white" stroke="#bfbfbf" points="518,-0.5 518,-19.5 574,-19.5 574,-0.5 518,-0.5"/>
<text text-anchor="middle" x="546" y="-7.5" font-family="Helvetica,sans-Serif" font-size="10.00">iomanip</text>
</a>
</g>
</g>
<!-- Node3&#45;&gt;Node10 -->
<g id="edge9" class="edge">
<title>Node3&#45;&gt;Node10</title>
<path fill="none" stroke="midnightblue" d="M309.7,-58.14C312.83,-57.39 315.98,-56.66 319,-56 399.91,-38.24 423.32,-38.14 507.97,-20.13"/>
<polygon fill="midnightblue" stroke="midnightblue" points="508.71,-23.55 517.75,-18.03 507.24,-16.71 508.71,-23.55"/>
</g>
<!-- Node11 -->
<g id="node11" class="node">
<title>Node11</title>
<g id="a_node11"><a xlink:title=" ">
<polygon fill="white" stroke="#bfbfbf" points="592.5,-0.5 592.5,-19.5 647.5,-19.5 647.5,-0.5 592.5,-0.5"/>
<text text-anchor="middle" x="620" y="-7.5" font-family="Helvetica,sans-Serif" font-size="10.00">fstream</text>
</a>
</g>
</g>
<!-- Node3&#45;&gt;Node11 -->
<g id="edge10" class="edge">
<title>Node3&#45;&gt;Node11</title>
<path fill="none" stroke="midnightblue" d="M309.66,-57.99C312.8,-57.27 315.96,-56.58 319,-56 432.1,-34.22 464.87,-41.59 582.1,-19.98"/>
<polygon fill="midnightblue" stroke="midnightblue" points="583,-23.37 592.19,-18.09 581.71,-16.49 583,-23.37"/>
</g>
<!-- Node12 -->
<g id="node12" class="node">
<title>Node12</title>
<g id="a_node12"><a xlink:title=" ">
<polygon fill="white" stroke="#bfbfbf" points="160,-0.5 160,-19.5 212,-19.5 212,-0.5 160,-0.5"/>
<text text-anchor="middle" x="186" y="-7.5" font-family="Helvetica,sans-Serif" font-size="10.00">cassert</text>
</a>
</g>
</g>
<!-- Node3&#45;&gt;Node12 -->
<g id="edge11" class="edge">
<title>Node3&#45;&gt;Node12</title>
<path fill="none" stroke="midnightblue" d="M267.42,-56.32C252,-47.74 228.19,-34.49 210.29,-24.52"/>
<polygon fill="midnightblue" stroke="midnightblue" points="211.99,-21.46 201.55,-19.65 208.58,-27.58 211.99,-21.46"/>
</g>
<!-- Node13 -->
<g id="node13" class="node">
<title>Node13</title>
<g id="a_node13"><a xlink:title=" ">
<polygon fill="white" stroke="#bfbfbf" points="230.5,-0.5 230.5,-19.5 277.5,-19.5 277.5,-0.5 230.5,-0.5"/>
<text text-anchor="middle" x="254" y="-7.5" font-family="Helvetica,sans-Serif" font-size="10.00">cmath</text>
</a>
</g>
</g>
<!-- Node3&#45;&gt;Node13 -->
<g id="edge12" class="edge">
<title>Node3&#45;&gt;Node13</title>
<path fill="none" stroke="midnightblue" d="M278.21,-56.08C274.24,-48.69 268.47,-37.95 263.57,-28.81"/>
<polygon fill="midnightblue" stroke="midnightblue" points="266.51,-26.91 258.7,-19.75 260.35,-30.22 266.51,-26.91"/>
</g>
</g>
</svg>
