<?xml version="1.0" encoding="UTF-8" standalone="no"?>
<!DOCTYPE svg PUBLIC "-//W3C//DTD SVG 1.1//EN"
 "http://www.w3.org/Graphics/SVG/1.1/DTD/svg11.dtd">
<!-- Generated by graphviz version 2.38.0 (20140413.2041)
 -->
<!-- Title: SubsurfaceTransportCoefficients.cpp Pages: 1 -->
<svg width="493pt" height="140pt"
 viewBox="0.00 0.00 493.00 140.00" xmlns="http://www.w3.org/2000/svg" xmlns:xlink="http://www.w3.org/1999/xlink">
<g id="graph0" class="graph" transform="scale(1 1) rotate(0) translate(4 136)">
<title>SubsurfaceTransportCoefficients.cpp</title>
<polygon fill="white" stroke="none" points="-4,4 -4,-136 489,-136 489,4 -4,4"/>
<!-- Node1 -->
<g id="node1" class="node"><title>Node1</title>
<polygon fill="#bfbfbf" stroke="black" points="185.5,-112.5 185.5,-131.5 364.5,-131.5 364.5,-112.5 185.5,-112.5"/>
<text text-anchor="middle" x="275" y="-119.5" font-family="Helvetica,sans-Serif" font-size="10.00">SubsurfaceTransportCoefficients.cpp</text>
</g>
<!-- Node2 -->
<g id="node2" class="node"><title>Node2</title>
<g id="a_node2"><a xlink:href="_subsurface_transport_coefficients_8h.html" target="_top" xlink:title="SubsurfaceTransportCoefficients.h">
<polygon fill="white" stroke="black" points="0,-0.5 0,-19.5 168,-19.5 168,-0.5 0,-0.5"/>
<text text-anchor="middle" x="84" y="-7.5" font-family="Helvetica,sans-Serif" font-size="10.00">SubsurfaceTransportCoefficients.h</text>
</a>
</g>
</g>
<!-- Node1&#45;&gt;Node2 -->
<g id="edge1" class="edge"><title>Node1&#45;&gt;Node2</title>
<path fill="none" stroke="midnightblue" d="M260.013,-112.368C226.958,-93.3318 147.577,-47.6153 107.702,-24.6505"/>
<polygon fill="midnightblue" stroke="midnightblue" points="109.33,-21.5492 98.9178,-19.5914 105.837,-27.6151 109.33,-21.5492"/>
</g>
<!-- Node3 -->
<g id="node3" class="node"><title>Node3</title>
<g id="a_node3"><a xlink:href="psk_relations_8h.html" target="_top" xlink:title="pskRelations.h">
<polygon fill="white" stroke="black" points="234,-56.5 234,-75.5 316,-75.5 316,-56.5 234,-56.5"/>
<text text-anchor="middle" x="275" y="-63.5" font-family="Helvetica,sans-Serif" font-size="10.00">pskRelations.h</text>
</a>
</g>
</g>
<!-- Node1&#45;&gt;Node3 -->
<g id="edge2" class="edge"><title>Node1&#45;&gt;Node3</title>
<path fill="none" stroke="midnightblue" d="M275,-112.083C275,-105.006 275,-94.8611 275,-85.9865"/>
<polygon fill="midnightblue" stroke="midnightblue" points="278.5,-85.751 275,-75.7511 271.5,-85.7511 278.5,-85.751"/>
</g>
<!-- Node7 -->
<g id="node7" class="node"><title>Node7</title>
<g id="a_node7"><a xlink:href="density_relations_8h.html" target="_top" xlink:title="densityRelations.h">
<polygon fill="white" stroke="black" points="387,-0.5 387,-19.5 485,-19.5 485,-0.5 387,-0.5"/>
<text text-anchor="middle" x="436" y="-7.5" font-family="Helvetica,sans-Serif" font-size="10.00">densityRelations.h</text>
</a>
</g>
</g>
<!-- Node1&#45;&gt;Node7 -->
<g id="edge8" class="edge"><title>Node1&#45;&gt;Node7</title>
<path fill="none" stroke="midnightblue" d="M287.633,-112.368C315.261,-93.4924 381.282,-48.385 415.163,-25.2367"/>
<polygon fill="midnightblue" stroke="midnightblue" points="417.143,-28.1227 423.425,-19.5914 413.194,-22.3429 417.143,-28.1227"/>
</g>
<!-- Node3&#45;&gt;Node2 -->
<g id="edge7" class="edge"><title>Node3&#45;&gt;Node2</title>
<path fill="none" stroke="midnightblue" d="M244.735,-56.4435C212.045,-47.2011 159.818,-32.4356 123.817,-22.2572"/>
<polygon fill="midnightblue" stroke="midnightblue" points="124.698,-18.8691 114.123,-19.5164 122.794,-25.6051 124.698,-18.8691"/>
</g>
<!-- Node4 -->
<g id="node4" class="node"><title>Node4</title>
<polygon fill="white" stroke="#bfbfbf" points="186,-0.5 186,-19.5 230,-19.5 230,-0.5 186,-0.5"/>
<text text-anchor="middle" x="208" y="-7.5" font-family="Helvetica,sans-Serif" font-size="10.00">cmath</text>
</g>
<!-- Node3&#45;&gt;Node4 -->
<g id="edge3" class="edge"><title>Node3&#45;&gt;Node4</title>
<path fill="none" stroke="midnightblue" d="M264.235,-56.324C254.234,-48.2631 239.113,-36.0765 227.07,-26.3695"/>
<polygon fill="midnightblue" stroke="midnightblue" points="228.943,-23.3841 218.961,-19.8339 224.55,-28.8343 228.943,-23.3841"/>
</g>
<!-- Node5 -->
<g id="node5" class="node"><title>Node5</title>
<polygon fill="white" stroke="#bfbfbf" points="248,-0.5 248,-19.5 302,-19.5 302,-0.5 248,-0.5"/>
<text text-anchor="middle" x="275" y="-7.5" font-family="Helvetica,sans-Serif" font-size="10.00">iostream</text>
</g>
<!-- Node3&#45;&gt;Node5 -->
<g id="edge4" class="edge"><title>Node3&#45;&gt;Node5</title>
<path fill="none" stroke="midnightblue" d="M275,-56.083C275,-49.0059 275,-38.8611 275,-29.9865"/>
<polygon fill="midnightblue" stroke="midnightblue" points="278.5,-29.751 275,-19.7511 271.5,-29.7511 278.5,-29.751"/>
</g>
<!-- Node6 -->
<g id="node6" class="node"><title>Node6</title>
<polygon fill="white" stroke="#bfbfbf" points="320.5,-0.5 320.5,-19.5 369.5,-19.5 369.5,-0.5 320.5,-0.5"/>
<text text-anchor="middle" x="345" y="-7.5" font-family="Helvetica,sans-Serif" font-size="10.00">cassert</text>
</g>
<!-- Node3&#45;&gt;Node6 -->
<g id="edge5" class="edge"><title>Node3&#45;&gt;Node6</title>
<path fill="none" stroke="midnightblue" d="M286.247,-56.324C296.797,-48.1849 312.801,-35.8395 325.442,-26.0874"/>
<polygon fill="midnightblue" stroke="midnightblue" points="327.769,-28.7132 333.549,-19.8339 323.493,-23.1707 327.769,-28.7132"/>
</g>
<!-- Node3&#45;&gt;Node7 -->
<g id="edge6" class="edge"><title>Node3&#45;&gt;Node7</title>
<path fill="none" stroke="midnightblue" d="M300.511,-56.4435C327.596,-47.3591 370.59,-32.9388 400.869,-22.7831"/>
<polygon fill="midnightblue" stroke="midnightblue" points="402.24,-26.0148 410.608,-19.5164 400.014,-19.3781 402.24,-26.0148"/>
</g>
</g>
</svg>
