<?xml version="1.0" encoding="UTF-8" standalone="no"?>
<!DOCTYPE svg PUBLIC "-//W3C//DTD SVG 1.1//EN"
 "http://www.w3.org/Graphics/SVG/1.1/DTD/svg11.dtd">
<!-- Generated by graphviz version 2.40.1 (20161225.0304)
 -->
<!-- Title: SubsurfaceTransportCoefficients.cpp Pages: 1 -->
<svg width="494pt" height="140pt"
 viewBox="0.00 0.00 494.00 140.00" xmlns="http://www.w3.org/2000/svg" xmlns:xlink="http://www.w3.org/1999/xlink">
<g id="graph0" class="graph" transform="scale(1 1) rotate(0) translate(4 136)">
<title>SubsurfaceTransportCoefficients.cpp</title>
<polygon fill="#ffffff" stroke="transparent" points="-4,4 -4,-136 490,-136 490,4 -4,4"/>
<!-- Node0 -->
<g id="node1" class="node">
<title>Node0</title>
<polygon fill="#bfbfbf" stroke="#000000" points="185.5,-112.5 185.5,-131.5 364.5,-131.5 364.5,-112.5 185.5,-112.5"/>
<text text-anchor="middle" x="275" y="-119.5" font-family="Helvetica,sans-Serif" font-size="10.00" fill="#000000">SubsurfaceTransportCoefficients.cpp</text>
</g>
<!-- Node1 -->
<g id="node2" class="node">
<title>Node1</title>
<g id="a_node2"><a xlink:href="_subsurface_transport_coefficients_8h.html" target="_top" xlink:title="SubsurfaceTransportCoefficients.h">
<polygon fill="#ffffff" stroke="#000000" points="0,-.5 0,-19.5 168,-19.5 168,-.5 0,-.5"/>
<text text-anchor="middle" x="84" y="-7.5" font-family="Helvetica,sans-Serif" font-size="10.00" fill="#000000">SubsurfaceTransportCoefficients.h</text>
</a>
</g>
</g>
<!-- Node0&#45;&gt;Node1 -->
<g id="edge1" class="edge">
<title>Node0&#45;&gt;Node1</title>
<path fill="none" stroke="#191970" d="M258.7154,-112.4509C225.3084,-92.8615 148.8295,-48.0152 109.0594,-24.6945"/>
<polygon fill="#191970" stroke="#191970" points="110.6401,-21.5641 100.2433,-19.5249 107.0992,-27.6025 110.6401,-21.5641"/>
</g>
<!-- Node2 -->
<g id="node3" class="node">
<title>Node2</title>
<g id="a_node3"><a xlink:href="psk_relations_8h.html" target="_top" xlink:title="pskRelations.h">
<polygon fill="#ffffff" stroke="#000000" points="234,-56.5 234,-75.5 316,-75.5 316,-56.5 234,-56.5"/>
<text text-anchor="middle" x="275" y="-63.5" font-family="Helvetica,sans-Serif" font-size="10.00" fill="#000000">pskRelations.h</text>
</a>
</g>
</g>
<!-- Node0&#45;&gt;Node2 -->
<g id="edge2" class="edge">
<title>Node0&#45;&gt;Node2</title>
<path fill="none" stroke="#191970" d="M275,-112.2455C275,-104.9382 275,-94.6944 275,-85.7046"/>
<polygon fill="#191970" stroke="#191970" points="278.5001,-85.6426 275,-75.6427 271.5001,-85.6427 278.5001,-85.6426"/>
</g>
<!-- Node6 -->
<g id="node7" class="node">
<title>Node6</title>
<g id="a_node7"><a xlink:href="density_relations_8h.html" target="_top" xlink:title="densityRelations.h">
<polygon fill="#ffffff" stroke="#000000" points="388,-.5 388,-19.5 486,-19.5 486,-.5 388,-.5"/>
<text text-anchor="middle" x="437" y="-7.5" font-family="Helvetica,sans-Serif" font-size="10.00" fill="#000000">densityRelations.h</text>
</a>
</g>
</g>
<!-- Node0&#45;&gt;Node6 -->
<g id="edge8" class="edge">
<title>Node0&#45;&gt;Node6</title>
<path fill="none" stroke="#191970" d="M288.812,-112.4509C316.9077,-93.0268 380.9215,-48.7703 414.8848,-25.2895"/>
<polygon fill="#191970" stroke="#191970" points="416.9877,-28.0907 423.2229,-19.5249 413.0069,-22.3328 416.9877,-28.0907"/>
</g>
<!-- Node2&#45;&gt;Node1 -->
<g id="edge7" class="edge">
<title>Node2&#45;&gt;Node1</title>
<path fill="none" stroke="#191970" d="M242.1659,-56.3733C210.1305,-46.9807 161.2513,-32.6496 126.3145,-22.4064"/>
<polygon fill="#191970" stroke="#191970" points="126.9864,-18.9561 116.4056,-19.5011 125.0169,-25.6733 126.9864,-18.9561"/>
</g>
<!-- Node3 -->
<g id="node4" class="node">
<title>Node3</title>
<polygon fill="#ffffff" stroke="#bfbfbf" points="186,-.5 186,-19.5 230,-19.5 230,-.5 186,-.5"/>
<text text-anchor="middle" x="208" y="-7.5" font-family="Helvetica,sans-Serif" font-size="10.00" fill="#000000">cmath</text>
</g>
<!-- Node2&#45;&gt;Node3 -->
<g id="edge3" class="edge">
<title>Node2&#45;&gt;Node3</title>
<path fill="none" stroke="#191970" d="M263.3295,-56.2455C253.4339,-47.9746 239.0373,-35.9416 227.4099,-26.2232"/>
<polygon fill="#191970" stroke="#191970" points="229.4542,-23.3703 219.5368,-19.6427 224.965,-28.7413 229.4542,-23.3703"/>
</g>
<!-- Node4 -->
<g id="node5" class="node">
<title>Node4</title>
<polygon fill="#ffffff" stroke="#bfbfbf" points="248,-.5 248,-19.5 302,-19.5 302,-.5 248,-.5"/>
<text text-anchor="middle" x="275" y="-7.5" font-family="Helvetica,sans-Serif" font-size="10.00" fill="#000000">iostream</text>
</g>
<!-- Node2&#45;&gt;Node4 -->
<g id="edge4" class="edge">
<title>Node2&#45;&gt;Node4</title>
<path fill="none" stroke="#191970" d="M275,-56.2455C275,-48.9382 275,-38.6944 275,-29.7046"/>
<polygon fill="#191970" stroke="#191970" points="278.5001,-29.6426 275,-19.6427 271.5001,-29.6427 278.5001,-29.6426"/>
</g>
<!-- Node5 -->
<g id="node6" class="node">
<title>Node5</title>
<polygon fill="#ffffff" stroke="#bfbfbf" points="320.5,-.5 320.5,-19.5 369.5,-19.5 369.5,-.5 320.5,-.5"/>
<text text-anchor="middle" x="345" y="-7.5" font-family="Helvetica,sans-Serif" font-size="10.00" fill="#000000">cassert</text>
</g>
<!-- Node2&#45;&gt;Node5 -->
<g id="edge5" class="edge">
<title>Node2&#45;&gt;Node5</title>
<path fill="none" stroke="#191970" d="M287.1931,-56.2455C297.6321,-47.8943 312.8655,-35.7076 325.074,-25.9408"/>
<polygon fill="#191970" stroke="#191970" points="327.3244,-28.6227 332.9467,-19.6427 322.9515,-23.1566 327.3244,-28.6227"/>
</g>
<!-- Node2&#45;&gt;Node6 -->
<g id="edge6" class="edge">
<title>Node2&#45;&gt;Node6</title>
<path fill="none" stroke="#191970" d="M302.8488,-56.3733C329.6703,-47.1016 370.4127,-33.0178 399.9598,-22.804"/>
<polygon fill="#191970" stroke="#191970" points="401.2069,-26.0762 409.5146,-19.5011 398.9198,-19.4603 401.2069,-26.0762"/>
</g>
</g>
</svg>
