<?xml version="1.0" encoding="UTF-8" standalone="no"?>
<!DOCTYPE svg PUBLIC "-//W3C//DTD SVG 1.1//EN"
 "http://www.w3.org/Graphics/SVG/1.1/DTD/svg11.dtd">
<!-- Generated by graphviz version 2.38.0 (20140413.2041)
 -->
<!-- Title: SubsurfaceTransportCoefficients.h Pages: 1 -->
<svg width="575pt" height="229pt"
 viewBox="0.00 0.00 575.00 229.00" xmlns="http://www.w3.org/2000/svg" xmlns:xlink="http://www.w3.org/1999/xlink">
<g id="graph0" class="graph" transform="scale(1 1) rotate(0) translate(4 225)">
<title>SubsurfaceTransportCoefficients.h</title>
<polygon fill="white" stroke="none" points="-4,4 -4,-225 571,-225 571,4 -4,4"/>
<!-- Node1 -->
<g id="node1" class="node"><title>Node1</title>
<polygon fill="#bfbfbf" stroke="black" points="289.5,-201.5 289.5,-220.5 457.5,-220.5 457.5,-201.5 289.5,-201.5"/>
<text text-anchor="middle" x="373.5" y="-208.5" font-family="Helvetica,sans-Serif" font-size="10.00">SubsurfaceTransportCoefficients.h</text>
</g>
<!-- Node2 -->
<g id="node2" class="node"><title>Node2</title>
<g id="a_node2"><a xlink:href="psk_relations_8h.html" target="_top" xlink:title="pskRelations.h">
<polygon fill="white" stroke="black" points="207.5,-140 207.5,-159 289.5,-159 289.5,-140 207.5,-140"/>
<text text-anchor="middle" x="248.5" y="-147" font-family="Helvetica,sans-Serif" font-size="10.00">pskRelations.h</text>
</a>
</g>
</g>
<!-- Node1&#45;&gt;Node2 -->
<g id="edge1" class="edge"><title>Node1&#45;&gt;Node2</title>
<path fill="none" stroke="midnightblue" d="M346.555,-197.174C322.3,-185.629 287.339,-168.987 266.376,-159.009"/>
<polygon fill="midnightblue" stroke="midnightblue" points="345.057,-200.337 355.591,-201.475 348.066,-194.017 345.057,-200.337"/>
</g>
<!-- Node6 -->
<g id="node6" class="node"><title>Node6</title>
<g id="a_node6"><a xlink:href="_subsurface_transport_coefficients_8cpp.html" target="_top" xlink:title="SubsurfaceTransportCoefficients.cpp">
<polygon fill="white" stroke="black" points="312,-73 312,-92 491,-92 491,-73 312,-73"/>
<text text-anchor="middle" x="401.5" y="-80" font-family="Helvetica,sans-Serif" font-size="10.00">SubsurfaceTransportCoefficients.cpp</text>
</a>
</g>
</g>
<!-- Node1&#45;&gt;Node6 -->
<g id="edge7" class="edge"><title>Node1&#45;&gt;Node6</title>
<path fill="none" stroke="midnightblue" d="M377.638,-191.306C383.776,-163.576 395.053,-112.628 399.562,-92.2557"/>
<polygon fill="midnightblue" stroke="midnightblue" points="374.168,-190.785 375.425,-201.305 381.003,-192.298 374.168,-190.785"/>
</g>
<!-- Node7 -->
<g id="node7" class="node"><title>Node7</title>
<g id="a_node7"><a xlink:href="c_subsurface_transport_coefficients_module_8cpp.html" target="_top" xlink:title="cSubsurfaceTransportCoefficients\lModule.cpp">
<polygon fill="white" stroke="black" points="402,-134.5 402,-164.5 567,-164.5 567,-134.5 402,-134.5"/>
<text text-anchor="start" x="410" y="-152.5" font-family="Helvetica,sans-Serif" font-size="10.00">cSubsurfaceTransportCoefficients</text>
<text text-anchor="middle" x="484.5" y="-141.5" font-family="Helvetica,sans-Serif" font-size="10.00">Module.cpp</text>
</a>
</g>
</g>
<!-- Node1&#45;&gt;Node7 -->
<g id="edge6" class="edge"><title>Node1&#45;&gt;Node7</title>
<path fill="none" stroke="midnightblue" d="M398.606,-196.542C416.425,-186.991 440.288,-174.199 458.339,-164.523"/>
<polygon fill="midnightblue" stroke="midnightblue" points="396.564,-193.666 389.404,-201.475 399.871,-199.835 396.564,-193.666"/>
</g>
<!-- Node3 -->
<g id="node3" class="node"><title>Node3</title>
<g id="a_node3"><a xlink:href="cpsk_relations_module_8cpp.html" target="_top" xlink:title="cpskRelationsModule.cpp">
<polygon fill="white" stroke="black" points="0,-73 0,-92 129,-92 129,-73 0,-73"/>
<text text-anchor="middle" x="64.5" y="-80" font-family="Helvetica,sans-Serif" font-size="10.00">cpskRelationsModule.cpp</text>
</a>
</g>
</g>
<!-- Node2&#45;&gt;Node3 -->
<g id="edge2" class="edge"><title>Node2&#45;&gt;Node3</title>
<path fill="none" stroke="midnightblue" d="M214.351,-136.436C177.849,-123.542 120.901,-103.424 88.7418,-92.0637"/>
<polygon fill="midnightblue" stroke="midnightblue" points="213.471,-139.838 224.066,-139.869 215.803,-133.237 213.471,-139.838"/>
</g>
<!-- Node4 -->
<g id="node4" class="node"><title>Node4</title>
<g id="a_node4"><a xlink:href="c_twophase_darcy_coefficients_module_8h.html" target="_top" xlink:title="cTwophaseDarcyCoefficients\lModule.h">
<polygon fill="white" stroke="black" points="147.5,-67.5 147.5,-97.5 293.5,-97.5 293.5,-67.5 147.5,-67.5"/>
<text text-anchor="start" x="155.5" y="-85.5" font-family="Helvetica,sans-Serif" font-size="10.00">cTwophaseDarcyCoefficients</text>
<text text-anchor="middle" x="220.5" y="-74.5" font-family="Helvetica,sans-Serif" font-size="10.00">Module.h</text>
</a>
</g>
</g>
<!-- Node2&#45;&gt;Node4 -->
<g id="edge3" class="edge"><title>Node2&#45;&gt;Node4</title>
<path fill="none" stroke="midnightblue" d="M240.699,-130.39C236.232,-120.02 230.71,-107.201 226.569,-97.589"/>
<polygon fill="midnightblue" stroke="midnightblue" points="237.553,-131.934 244.724,-139.734 243.982,-129.165 237.553,-131.934"/>
</g>
<!-- Node2&#45;&gt;Node6 -->
<g id="edge5" class="edge"><title>Node2&#45;&gt;Node6</title>
<path fill="none" stroke="midnightblue" d="M278.044,-135.948C308.338,-123.079 354.651,-103.403 381.099,-92.1672"/>
<polygon fill="midnightblue" stroke="midnightblue" points="276.653,-132.737 268.817,-139.869 279.39,-139.18 276.653,-132.737"/>
</g>
<!-- Node5 -->
<g id="node5" class="node"><title>Node5</title>
<g id="a_node5"><a xlink:href="c_twophase_darcy_coefficients_module_8cpp.html" target="_top" xlink:title="cTwophaseDarcyCoefficients\lModule.cpp">
<polygon fill="white" stroke="black" points="147.5,-0.5 147.5,-30.5 293.5,-30.5 293.5,-0.5 147.5,-0.5"/>
<text text-anchor="start" x="155.5" y="-18.5" font-family="Helvetica,sans-Serif" font-size="10.00">cTwophaseDarcyCoefficients</text>
<text text-anchor="middle" x="220.5" y="-7.5" font-family="Helvetica,sans-Serif" font-size="10.00">Module.cpp</text>
</a>
</g>
</g>
<!-- Node4&#45;&gt;Node5 -->
<g id="edge4" class="edge"><title>Node4&#45;&gt;Node5</title>
<path fill="none" stroke="midnightblue" d="M220.5,-57.1081C220.5,-48.1539 220.5,-38.3227 220.5,-30.5765"/>
<polygon fill="midnightblue" stroke="midnightblue" points="217,-57.3959 220.5,-67.396 224,-57.396 217,-57.3959"/>
</g>
</g>
</svg>
