<?xml version="1.0" encoding="UTF-8" standalone="no"?>
<!DOCTYPE svg PUBLIC "-//W3C//DTD SVG 1.1//EN"
 "http://www.w3.org/Graphics/SVG/1.1/DTD/svg11.dtd">
<!-- Generated by graphviz version 2.40.1 (20161225.0304)
 -->
<!-- Title: SubsurfaceTransportCoefficients.h Pages: 1 -->
<svg width="575pt" height="229pt"
 viewBox="0.00 0.00 575.00 229.00" xmlns="http://www.w3.org/2000/svg" xmlns:xlink="http://www.w3.org/1999/xlink">
<g id="graph0" class="graph" transform="scale(1 1) rotate(0) translate(4 225)">
<title>SubsurfaceTransportCoefficients.h</title>
<polygon fill="#ffffff" stroke="transparent" points="-4,4 -4,-225 571,-225 571,4 -4,4"/>
<!-- Node1 -->
<g id="node1" class="node">
<title>Node1</title>
<polygon fill="#bfbfbf" stroke="#000000" points="289.5,-201.5 289.5,-220.5 457.5,-220.5 457.5,-201.5 289.5,-201.5"/>
<text text-anchor="middle" x="373.5" y="-208.5" font-family="Helvetica,sans-Serif" font-size="10.00" fill="#000000">SubsurfaceTransportCoefficients.h</text>
</g>
<!-- Node2 -->
<g id="node2" class="node">
<title>Node2</title>
<g id="a_node2"><a xlink:href="psk_relations_8h.html" target="_top" xlink:title="pskRelations.h">
<polygon fill="#ffffff" stroke="#000000" points="235.5,-140 235.5,-159 317.5,-159 317.5,-140 235.5,-140"/>
<text text-anchor="middle" x="276.5" y="-147" font-family="Helvetica,sans-Serif" font-size="10.00" fill="#000000">pskRelations.h</text>
</a>
</g>
</g>
<!-- Node1&#45;&gt;Node2 -->
<g id="edge1" class="edge">
<title>Node1&#45;&gt;Node2</title>
<path fill="none" stroke="#191970" d="M349.504,-195.786C331.3663,-184.2864 307.0274,-168.855 291.5498,-159.0419"/>
<polygon fill="#191970" stroke="#191970" points="348.024,-198.9919 358.3438,-201.3906 351.7723,-193.08 348.024,-198.9919"/>
</g>
<!-- Node6 -->
<g id="node6" class="node">
<title>Node6</title>
<g id="a_node6"><a xlink:href="_subsurface_transport_coefficients_8cpp.html" target="_top" xlink:title="SubsurfaceTransportCoefficients.cpp">
<polygon fill="#ffffff" stroke="#000000" points="312,-73 312,-92 491,-92 491,-73 312,-73"/>
<text text-anchor="middle" x="401.5" y="-80" font-family="Helvetica,sans-Serif" font-size="10.00" fill="#000000">SubsurfaceTransportCoefficients.cpp</text>
</a>
</g>
</g>
<!-- Node1&#45;&gt;Node6 -->
<g id="edge7" class="edge">
<title>Node1&#45;&gt;Node6</title>
<path fill="none" stroke="#191970" d="M377.7393,-191.5446C383.8136,-163.6679 394.7675,-113.3972 399.371,-92.2705"/>
<polygon fill="#191970" stroke="#191970" points="374.3139,-190.8257 375.6046,-201.3416 381.1534,-192.3161 374.3139,-190.8257"/>
</g>
<!-- Node7 -->
<g id="node7" class="node">
<title>Node7</title>
<g id="a_node7"><a xlink:href="c_subsurface_transport_coefficients_module_8cpp.html" target="_top" xlink:title="cSubsurfaceTransportCoefficients\lModule.cpp">
<polygon fill="#ffffff" stroke="#000000" points="402,-134.5 402,-164.5 567,-164.5 567,-134.5 402,-134.5"/>
<text text-anchor="start" x="410" y="-152.5" font-family="Helvetica,sans-Serif" font-size="10.00" fill="#000000">cSubsurfaceTransportCoefficients</text>
<text text-anchor="middle" x="484.5" y="-141.5" font-family="Helvetica,sans-Serif" font-size="10.00" fill="#000000">Module.cpp</text>
</a>
</g>
</g>
<!-- Node1&#45;&gt;Node7 -->
<g id="edge6" class="edge">
<title>Node1&#45;&gt;Node7</title>
<path fill="none" stroke="#191970" d="M399.867,-196.3912C417.209,-186.7829 439.8473,-174.24 457.3463,-164.5446"/>
<polygon fill="#191970" stroke="#191970" points="397.8947,-193.4827 390.8438,-201.3906 401.2872,-199.6057 397.8947,-193.4827"/>
</g>
<!-- Node3 -->
<g id="node3" class="node">
<title>Node3</title>
<g id="a_node3"><a xlink:href="cpsk_relations_module_8cpp.html" target="_top" xlink:title="cpskRelationsModule.cpp">
<polygon fill="#ffffff" stroke="#000000" points="0,-73 0,-92 129,-92 129,-73 0,-73"/>
<text text-anchor="middle" x="64.5" y="-80" font-family="Helvetica,sans-Serif" font-size="10.00" fill="#000000">cpskRelationsModule.cpp</text>
</a>
</g>
</g>
<!-- Node2&#45;&gt;Node3 -->
<g id="edge2" class="edge">
<title>Node2&#45;&gt;Node3</title>
<path fill="none" stroke="#191970" d="M236.4133,-136.8311C195.2253,-123.8141 132.0232,-103.8399 94.8181,-92.0817"/>
<polygon fill="#191970" stroke="#191970" points="235.5357,-140.2243 246.1256,-139.9005 237.6452,-133.5497 235.5357,-140.2243"/>
</g>
<!-- Node4 -->
<g id="node4" class="node">
<title>Node4</title>
<g id="a_node4"><a xlink:href="c_twophase_darcy_coefficients_module_8h.html" target="_top" xlink:title="cTwophaseDarcyCoefficients\lModule.h">
<polygon fill="#ffffff" stroke="#000000" points="147.5,-67.5 147.5,-97.5 293.5,-97.5 293.5,-67.5 147.5,-67.5"/>
<text text-anchor="start" x="155.5" y="-85.5" font-family="Helvetica,sans-Serif" font-size="10.00" fill="#000000">cTwophaseDarcyCoefficients</text>
<text text-anchor="middle" x="220.5" y="-74.5" font-family="Helvetica,sans-Serif" font-size="10.00" fill="#000000">Module.h</text>
</a>
</g>
</g>
<!-- Node2&#45;&gt;Node4 -->
<g id="edge3" class="edge">
<title>Node2&#45;&gt;Node4</title>
<path fill="none" stroke="#191970" d="M261.9085,-132.0423C252.9549,-121.33 241.6068,-107.7528 233.0555,-97.5218"/>
<polygon fill="#191970" stroke="#191970" points="259.3779,-134.4723 268.4766,-139.9005 264.7489,-129.9831 259.3779,-134.4723"/>
</g>
<!-- Node2&#45;&gt;Node6 -->
<g id="edge5" class="edge">
<title>Node2&#45;&gt;Node6</title>
<path fill="none" stroke="#191970" d="M303.4449,-135.0575C327.7002,-122.0567 362.6607,-103.3179 383.6238,-92.0817"/>
<polygon fill="#191970" stroke="#191970" points="301.5697,-132.0915 294.4095,-139.9005 304.8767,-138.2611 301.5697,-132.0915"/>
</g>
<!-- Node5 -->
<g id="node5" class="node">
<title>Node5</title>
<g id="a_node5"><a xlink:href="c_twophase_darcy_coefficients_module_8cpp.html" target="_top" xlink:title="cTwophaseDarcyCoefficients\lModule.cpp">
<polygon fill="#ffffff" stroke="#000000" points="147.5,-.5 147.5,-30.5 293.5,-30.5 293.5,-.5 147.5,-.5"/>
<text text-anchor="start" x="155.5" y="-18.5" font-family="Helvetica,sans-Serif" font-size="10.00" fill="#000000">cTwophaseDarcyCoefficients</text>
<text text-anchor="middle" x="220.5" y="-7.5" font-family="Helvetica,sans-Serif" font-size="10.00" fill="#000000">Module.cpp</text>
</a>
</g>
</g>
<!-- Node4&#45;&gt;Node5 -->
<g id="edge4" class="edge">
<title>Node4&#45;&gt;Node5</title>
<path fill="none" stroke="#191970" d="M220.5,-57.0249C220.5,-48.128 220.5,-38.4287 220.5,-30.6432"/>
<polygon fill="#191970" stroke="#191970" points="217.0001,-57.2966 220.5,-67.2967 224.0001,-57.2967 217.0001,-57.2966"/>
</g>
</g>
</svg>
