<?xml version="1.0" encoding="UTF-8" standalone="no"?>
<!DOCTYPE svg PUBLIC "-//W3C//DTD SVG 1.1//EN"
 "http://www.w3.org/Graphics/SVG/1.1/DTD/svg11.dtd">
<!-- Generated by graphviz version 2.42.3 (0)
 -->
<!-- Title: SubsurfaceTransportCoefficients.cpp Pages: 1 -->
<svg width="530pt" height="140pt"
 viewBox="0.00 0.00 529.50 140.00" xmlns="http://www.w3.org/2000/svg" xmlns:xlink="http://www.w3.org/1999/xlink">
<g id="graph0" class="graph" transform="scale(1 1) rotate(0) translate(4 136)">
<title>SubsurfaceTransportCoefficients.cpp</title>
<polygon fill="white" stroke="transparent" points="-4,4 -4,-136 525.5,-136 525.5,4 -4,4"/>
<!-- Node1 -->
<g id="node1" class="node">
<title>Node1</title>
<g id="a_node1"><a xlink:title=" ">
<polygon fill="#bfbfbf" stroke="black" points="199,-112.5 199,-131.5 393,-131.5 393,-112.5 199,-112.5"/>
<text text-anchor="middle" x="296" y="-119.5" font-family="Helvetica,sans-Serif" font-size="10.00">SubsurfaceTransportCoefficients.cpp</text>
</a>
</g>
</g>
<!-- Node2 -->
<g id="node2" class="node">
<title>Node2</title>
<g id="a_node2"><a xlink:href="_subsurface_transport_coefficients_8h.html" target="_top" xlink:title=" ">
<polygon fill="white" stroke="black" points="0,-0.5 0,-19.5 182,-19.5 182,-0.5 0,-0.5"/>
<text text-anchor="middle" x="91" y="-7.5" font-family="Helvetica,sans-Serif" font-size="10.00">SubsurfaceTransportCoefficients.h</text>
</a>
</g>
</g>
<!-- Node1&#45;&gt;Node2 -->
<g id="edge1" class="edge">
<title>Node1&#45;&gt;Node2</title>
<path fill="none" stroke="midnightblue" d="M279.91,-112.37C244.29,-93.25 158.52,-47.23 115.9,-24.36"/>
<polygon fill="midnightblue" stroke="midnightblue" points="117.48,-21.24 107.01,-19.59 114.17,-27.4 117.48,-21.24"/>
</g>
<!-- Node3 -->
<g id="node3" class="node">
<title>Node3</title>
<g id="a_node3"><a xlink:href="psk_relations_8h.html" target="_top" xlink:title=" ">
<polygon fill="white" stroke="black" points="251.5,-56.5 251.5,-75.5 340.5,-75.5 340.5,-56.5 251.5,-56.5"/>
<text text-anchor="middle" x="296" y="-63.5" font-family="Helvetica,sans-Serif" font-size="10.00">pskRelations.h</text>
</a>
</g>
</g>
<!-- Node1&#45;&gt;Node3 -->
<g id="edge2" class="edge">
<title>Node1&#45;&gt;Node3</title>
<path fill="none" stroke="midnightblue" d="M296,-112.08C296,-105.01 296,-94.86 296,-85.99"/>
<polygon fill="midnightblue" stroke="midnightblue" points="299.5,-85.75 296,-75.75 292.5,-85.75 299.5,-85.75"/>
</g>
<!-- Node7 -->
<g id="node7" class="node">
<title>Node7</title>
<g id="a_node7"><a xlink:href="density_relations_8h.html" target="_top" xlink:title=" ">
<polygon fill="white" stroke="black" points="414.5,-0.5 414.5,-19.5 521.5,-19.5 521.5,-0.5 414.5,-0.5"/>
<text text-anchor="middle" x="468" y="-7.5" font-family="Helvetica,sans-Serif" font-size="10.00">densityRelations.h</text>
</a>
</g>
</g>
<!-- Node1&#45;&gt;Node7 -->
<g id="edge8" class="edge">
<title>Node1&#45;&gt;Node7</title>
<path fill="none" stroke="midnightblue" d="M309.5,-112.37C339.01,-93.49 409.54,-48.38 445.74,-25.24"/>
<polygon fill="midnightblue" stroke="midnightblue" points="448.03,-27.93 454.57,-19.59 444.26,-22.03 448.03,-27.93"/>
</g>
<!-- Node3&#45;&gt;Node2 -->
<g id="edge7" class="edge">
<title>Node3&#45;&gt;Node2</title>
<path fill="none" stroke="midnightblue" d="M263.52,-56.44C228.28,-47.16 171.9,-32.31 133.24,-22.13"/>
<polygon fill="midnightblue" stroke="midnightblue" points="133.89,-18.68 123.33,-19.52 132.11,-25.45 133.89,-18.68"/>
</g>
<!-- Node4 -->
<g id="node4" class="node">
<title>Node4</title>
<g id="a_node4"><a xlink:title=" ">
<polygon fill="white" stroke="#bfbfbf" points="200.5,-0.5 200.5,-19.5 247.5,-19.5 247.5,-0.5 200.5,-0.5"/>
<text text-anchor="middle" x="224" y="-7.5" font-family="Helvetica,sans-Serif" font-size="10.00">cmath</text>
</a>
</g>
</g>
<!-- Node3&#45;&gt;Node4 -->
<g id="edge3" class="edge">
<title>Node3&#45;&gt;Node4</title>
<path fill="none" stroke="midnightblue" d="M284.43,-56.32C273.58,-48.18 257.12,-35.84 244.12,-26.09"/>
<polygon fill="midnightblue" stroke="midnightblue" points="245.88,-23.03 235.78,-19.83 241.68,-28.63 245.88,-23.03"/>
</g>
<!-- Node5 -->
<g id="node5" class="node">
<title>Node5</title>
<g id="a_node5"><a xlink:title=" ">
<polygon fill="white" stroke="#bfbfbf" points="266,-0.5 266,-19.5 326,-19.5 326,-0.5 266,-0.5"/>
<text text-anchor="middle" x="296" y="-7.5" font-family="Helvetica,sans-Serif" font-size="10.00">iostream</text>
</a>
</g>
</g>
<!-- Node3&#45;&gt;Node5 -->
<g id="edge4" class="edge">
<title>Node3&#45;&gt;Node5</title>
<path fill="none" stroke="midnightblue" d="M296,-56.08C296,-49.01 296,-38.86 296,-29.99"/>
<polygon fill="midnightblue" stroke="midnightblue" points="299.5,-29.75 296,-19.75 292.5,-29.75 299.5,-29.75"/>
</g>
<!-- Node6 -->
<g id="node6" class="node">
<title>Node6</title>
<g id="a_node6"><a xlink:title=" ">
<polygon fill="white" stroke="#bfbfbf" points="344,-0.5 344,-19.5 396,-19.5 396,-0.5 344,-0.5"/>
<text text-anchor="middle" x="370" y="-7.5" font-family="Helvetica,sans-Serif" font-size="10.00">cassert</text>
</a>
</g>
</g>
<!-- Node3&#45;&gt;Node6 -->
<g id="edge5" class="edge">
<title>Node3&#45;&gt;Node6</title>
<path fill="none" stroke="midnightblue" d="M307.89,-56.32C319.15,-48.11 336.29,-35.6 349.71,-25.81"/>
<polygon fill="midnightblue" stroke="midnightblue" points="351.88,-28.56 357.89,-19.83 347.75,-22.9 351.88,-28.56"/>
</g>
<!-- Node3&#45;&gt;Node7 -->
<g id="edge6" class="edge">
<title>Node3&#45;&gt;Node7</title>
<path fill="none" stroke="midnightblue" d="M323.25,-56.44C352.44,-47.28 398.92,-32.69 431.31,-22.52"/>
<polygon fill="midnightblue" stroke="midnightblue" points="432.38,-25.85 440.87,-19.52 430.28,-19.17 432.38,-25.85"/>
</g>
</g>
</svg>
