<?xml version="1.0" encoding="UTF-8" standalone="no"?>
<!DOCTYPE svg PUBLIC "-//W3C//DTD SVG 1.1//EN"
 "http://www.w3.org/Graphics/SVG/1.1/DTD/svg11.dtd">
<!-- Generated by graphviz version 2.40.1 (20161225.0304)
 -->
<!-- Title: VMS.cpp Pages: 1 -->
<svg width="961pt" height="252pt"
 viewBox="0.00 0.00 961.00 252.00" xmlns="http://www.w3.org/2000/svg" xmlns:xlink="http://www.w3.org/1999/xlink">
<g id="graph0" class="graph" transform="scale(1 1) rotate(0) translate(4 248)">
<title>VMS.cpp</title>
<polygon fill="#ffffff" stroke="transparent" points="-4,4 -4,-248 957,-248 957,4 -4,4"/>
<!-- Node0 -->
<g id="node1" class="node">
<title>Node0</title>
<polygon fill="#bfbfbf" stroke="#000000" points="505.5,-224.5 505.5,-243.5 562.5,-243.5 562.5,-224.5 505.5,-224.5"/>
<text text-anchor="middle" x="534" y="-231.5" font-family="Helvetica,sans-Serif" font-size="10.00" fill="#000000">VMS.cpp</text>
</g>
<!-- Node1 -->
<g id="node2" class="node">
<title>Node1</title>
<g id="a_node2"><a xlink:href="_mesh_adapt_p_u_m_i_8h.html" target="_top" xlink:title="MeshAdaptPUMI.h">
<polygon fill="#ffffff" stroke="#000000" points="342,-168.5 342,-187.5 442,-187.5 442,-168.5 342,-168.5"/>
<text text-anchor="middle" x="392" y="-175.5" font-family="Helvetica,sans-Serif" font-size="10.00" fill="#000000">MeshAdaptPUMI.h</text>
</a>
</g>
</g>
<!-- Node0&#45;&gt;Node1 -->
<g id="edge1" class="edge">
<title>Node0&#45;&gt;Node1</title>
<path fill="none" stroke="#191970" d="M509.5893,-224.3733C486.3858,-215.2226 451.2962,-201.3844 425.4858,-191.2057"/>
<polygon fill="#191970" stroke="#191970" points="426.6789,-187.9139 416.0921,-187.5011 424.1108,-194.4258 426.6789,-187.9139"/>
</g>
<!-- Node8 -->
<g id="node9" class="node">
<title>Node8</title>
<polygon fill="#ffffff" stroke="#bfbfbf" points="0,-.5 0,-19.5 54,-19.5 54,-.5 0,-.5"/>
<text text-anchor="middle" x="27" y="-7.5" font-family="Helvetica,sans-Serif" font-size="10.00" fill="#000000">iostream</text>
</g>
<!-- Node0&#45;&gt;Node8 -->
<g id="edge27" class="edge">
<title>Node0&#45;&gt;Node8</title>
<path fill="none" stroke="#191970" d="M505.3427,-232.3397C457.4124,-228.7928 358.6038,-218.1656 281,-188 181.1963,-149.205 83.1835,-63.2776 44.3994,-26.8491"/>
<polygon fill="#191970" stroke="#191970" points="46.704,-24.2109 37.043,-19.8617 41.8832,-29.2863 46.704,-24.2109"/>
</g>
<!-- Node10 -->
<g id="node11" class="node">
<title>Node10</title>
<polygon fill="#ffffff" stroke="#bfbfbf" points="72,-.5 72,-19.5 122,-19.5 122,-.5 72,-.5"/>
<text text-anchor="middle" x="97" y="-7.5" font-family="Helvetica,sans-Serif" font-size="10.00" fill="#000000">fstream</text>
</g>
<!-- Node0&#45;&gt;Node10 -->
<g id="edge28" class="edge">
<title>Node0&#45;&gt;Node10</title>
<path fill="none" stroke="#191970" d="M505.3998,-230.5851C446.8989,-222.4187 311.3874,-197.3402 220,-132 175.8169,-100.41 132.7627,-52.6798 111.2306,-27.2999"/>
<polygon fill="#191970" stroke="#191970" points="113.8883,-25.0221 104.7829,-19.6052 108.5229,-29.518 113.8883,-25.0221"/>
</g>
<!-- Node16 -->
<g id="node17" class="node">
<title>Node16</title>
<polygon fill="#ffffff" stroke="#bfbfbf" points="451,-112.5 451,-131.5 489,-131.5 489,-112.5 451,-112.5"/>
<text text-anchor="middle" x="470" y="-119.5" font-family="Helvetica,sans-Serif" font-size="10.00" fill="#000000">apf.h</text>
</g>
<!-- Node0&#45;&gt;Node16 -->
<g id="edge22" class="edge">
<title>Node0&#45;&gt;Node16</title>
<path fill="none" stroke="#191970" d="M528.5434,-224.4509C517.9162,-205.8533 494.2811,-164.4919 480.5122,-140.3964"/>
<polygon fill="#191970" stroke="#191970" points="483.4431,-138.4708 475.4428,-131.5249 477.3654,-141.9438 483.4431,-138.4708"/>
</g>
<!-- Node18 -->
<g id="node19" class="node">
<title>Node18</title>
<polygon fill="#ffffff" stroke="#bfbfbf" points="507,-112.5 507,-131.5 593,-131.5 593,-112.5 507,-112.5"/>
<text text-anchor="middle" x="550" y="-119.5" font-family="Helvetica,sans-Serif" font-size="10.00" fill="#000000">apfNumbering.h</text>
</g>
<!-- Node0&#45;&gt;Node18 -->
<g id="edge26" class="edge">
<title>Node0&#45;&gt;Node18</title>
<path fill="none" stroke="#191970" d="M531.2961,-224.478C528.0363,-211.5379 523.5206,-187.7482 528,-168 530.144,-158.548 534.478,-148.7672 538.7367,-140.6675"/>
<polygon fill="#191970" stroke="#191970" points="541.8961,-142.1895 543.7417,-131.7567 535.7929,-138.7615 541.8961,-142.1895"/>
</g>
<!-- Node19 -->
<g id="node20" class="node">
<title>Node19</title>
<polygon fill="#ffffff" stroke="#bfbfbf" points="536.5,-168.5 536.5,-187.5 583.5,-187.5 583.5,-168.5 536.5,-168.5"/>
<text text-anchor="middle" x="560" y="-175.5" font-family="Helvetica,sans-Serif" font-size="10.00" fill="#000000">PCU.h</text>
</g>
<!-- Node0&#45;&gt;Node19 -->
<g id="edge20" class="edge">
<title>Node0&#45;&gt;Node19</title>
<path fill="none" stroke="#191970" d="M538.5289,-224.2455C542.0334,-216.6973 546.9927,-206.0158 551.2623,-196.8197"/>
<polygon fill="#191970" stroke="#191970" points="554.4864,-198.1867 555.523,-187.6427 548.1373,-195.2389 554.4864,-198.1867"/>
</g>
<!-- Node20 -->
<g id="node21" class="node">
<title>Node20</title>
<polygon fill="#ffffff" stroke="#bfbfbf" points="601.5,-168.5 601.5,-187.5 666.5,-187.5 666.5,-168.5 601.5,-168.5"/>
<text text-anchor="middle" x="634" y="-175.5" font-family="Helvetica,sans-Serif" font-size="10.00" fill="#000000">petscksp.h</text>
</g>
<!-- Node0&#45;&gt;Node20 -->
<g id="edge21" class="edge">
<title>Node0&#45;&gt;Node20</title>
<path fill="none" stroke="#191970" d="M551.4187,-224.2455C567.0485,-215.4928 590.2019,-202.527 608.0185,-192.5496"/>
<polygon fill="#191970" stroke="#191970" points="609.766,-195.5825 616.7809,-187.6427 606.3457,-189.475 609.766,-195.5825"/>
</g>
<!-- Node21 -->
<g id="node22" class="node">
<title>Node21</title>
<polygon fill="#ffffff" stroke="#bfbfbf" points="685,-168.5 685,-187.5 747,-187.5 747,-168.5 685,-168.5"/>
<text text-anchor="middle" x="716" y="-175.5" font-family="Helvetica,sans-Serif" font-size="10.00" fill="#000000">apfMesh.h</text>
</g>
<!-- Node0&#45;&gt;Node21 -->
<g id="edge23" class="edge">
<title>Node0&#45;&gt;Node21</title>
<path fill="none" stroke="#191970" d="M562.8384,-225.1266C593.1259,-215.8074 641.0113,-201.0735 675.1732,-190.5621"/>
<polygon fill="#191970" stroke="#191970" points="676.3301,-193.8681 684.8585,-187.582 674.2714,-187.1777 676.3301,-193.8681"/>
</g>
<!-- Node22 -->
<g id="node23" class="node">
<title>Node22</title>
<polygon fill="#ffffff" stroke="#bfbfbf" points="765,-168.5 765,-187.5 831,-187.5 831,-168.5 765,-168.5"/>
<text text-anchor="middle" x="798" y="-175.5" font-family="Helvetica,sans-Serif" font-size="10.00" fill="#000000">apfShape.h</text>
</g>
<!-- Node0&#45;&gt;Node22 -->
<g id="edge24" class="edge">
<title>Node0&#45;&gt;Node22</title>
<path fill="none" stroke="#191970" d="M562.7953,-228.3149C603.3638,-220.2443 679.899,-204.7962 754.5146,-188.2875"/>
<polygon fill="#191970" stroke="#191970" points="755.547,-191.6436 764.5499,-186.058 754.0288,-184.8102 755.547,-191.6436"/>
</g>
<!-- Node23 -->
<g id="node24" class="node">
<title>Node23</title>
<polygon fill="#ffffff" stroke="#bfbfbf" points="849,-168.5 849,-187.5 953,-187.5 953,-168.5 849,-168.5"/>
<text text-anchor="middle" x="901" y="-175.5" font-family="Helvetica,sans-Serif" font-size="10.00" fill="#000000">apfDynamicMatrix.h</text>
</g>
<!-- Node0&#45;&gt;Node23 -->
<g id="edge25" class="edge">
<title>Node0&#45;&gt;Node23</title>
<path fill="none" stroke="#191970" d="M562.707,-229.8144C615.2856,-222.1203 730.8285,-205.0831 838.687,-188.1914"/>
<polygon fill="#191970" stroke="#191970" points="839.4274,-191.6181 848.7639,-186.6101 838.3422,-184.7027 839.4274,-191.6181"/>
</g>
<!-- Node2 -->
<g id="node3" class="node">
<title>Node2</title>
<g id="a_node3"><a xlink:href="mesh_8h.html" target="_top" xlink:title="mesh.h">
<polygon fill="#ffffff" stroke="#000000" points="232.5,-56.5 232.5,-75.5 281.5,-75.5 281.5,-56.5 232.5,-56.5"/>
<text text-anchor="middle" x="257" y="-63.5" font-family="Helvetica,sans-Serif" font-size="10.00" fill="#000000">mesh.h</text>
</a>
</g>
</g>
<!-- Node1&#45;&gt;Node2 -->
<g id="edge2" class="edge">
<title>Node1&#45;&gt;Node2</title>
<path fill="none" stroke="#191970" d="M341.6093,-170.6255C298.6772,-163.1897 241.8004,-150.2038 228,-132 216.7494,-117.1596 228.3747,-97.2735 240.084,-83.2209"/>
<polygon fill="#191970" stroke="#191970" points="242.7522,-85.4879 246.8157,-75.7033 237.5373,-80.8182 242.7522,-85.4879"/>
</g>
<!-- Node13 -->
<g id="node14" class="node">
<title>Node13</title>
<g id="a_node14"><a xlink:href="cmesh_tools_module_8h.html" target="_top" xlink:title="cmeshToolsModule.h">
<polygon fill="#ffffff" stroke="#000000" points="237,-112.5 237,-131.5 347,-131.5 347,-112.5 237,-112.5"/>
<text text-anchor="middle" x="292" y="-119.5" font-family="Helvetica,sans-Serif" font-size="10.00" fill="#000000">cmeshToolsModule.h</text>
</a>
</g>
</g>
<!-- Node1&#45;&gt;Node13 -->
<g id="edge13" class="edge">
<title>Node1&#45;&gt;Node13</title>
<path fill="none" stroke="#191970" d="M374.5813,-168.2455C358.9515,-159.4928 335.7981,-146.527 317.9815,-136.5496"/>
<polygon fill="#191970" stroke="#191970" points="319.6543,-133.475 309.2191,-131.6427 316.234,-139.5825 319.6543,-133.475"/>
</g>
<!-- Node1&#45;&gt;Node16 -->
<g id="edge17" class="edge">
<title>Node1&#45;&gt;Node16</title>
<path fill="none" stroke="#191970" d="M405.5866,-168.2455C417.3305,-159.814 434.5199,-147.4729 448.1882,-137.6598"/>
<polygon fill="#191970" stroke="#191970" points="450.4871,-140.3179 456.5691,-131.6427 446.4046,-134.6316 450.4871,-140.3179"/>
</g>
<!-- Node17 -->
<g id="node18" class="node">
<title>Node17</title>
<polygon fill="#ffffff" stroke="#bfbfbf" points="365,-112.5 365,-131.5 433,-131.5 433,-112.5 365,-112.5"/>
<text text-anchor="middle" x="399" y="-119.5" font-family="Helvetica,sans-Serif" font-size="10.00" fill="#000000">apfMesh2.h</text>
</g>
<!-- Node1&#45;&gt;Node17 -->
<g id="edge18" class="edge">
<title>Node1&#45;&gt;Node17</title>
<path fill="none" stroke="#191970" d="M393.2193,-168.2455C394.1327,-160.9382 395.4132,-150.6944 396.5369,-141.7046"/>
<polygon fill="#191970" stroke="#191970" points="400.0272,-141.9996 397.7947,-131.6427 393.0813,-141.1313 400.0272,-141.9996"/>
</g>
<!-- Node1&#45;&gt;Node18 -->
<g id="edge19" class="edge">
<title>Node1&#45;&gt;Node18</title>
<path fill="none" stroke="#191970" d="M419.1612,-168.3733C445.2067,-159.1419 484.7116,-145.1402 513.4979,-134.9375"/>
<polygon fill="#191970" stroke="#191970" points="514.937,-138.1408 523.1933,-131.5011 512.5985,-131.5429 514.937,-138.1408"/>
</g>
<!-- Node3 -->
<g id="node4" class="node">
<title>Node3</title>
<polygon fill="#ffffff" stroke="#bfbfbf" points="270,-.5 270,-19.5 300,-19.5 300,-.5 270,-.5"/>
<text text-anchor="middle" x="285" y="-7.5" font-family="Helvetica,sans-Serif" font-size="10.00" fill="#000000">set</text>
</g>
<!-- Node2&#45;&gt;Node3 -->
<g id="edge3" class="edge">
<title>Node2&#45;&gt;Node3</title>
<path fill="none" stroke="#191970" d="M261.8772,-56.2455C265.6513,-48.6973 270.9921,-38.0158 275.5901,-28.8197"/>
<polygon fill="#191970" stroke="#191970" points="278.837,-30.1522 280.1787,-19.6427 272.576,-27.0217 278.837,-30.1522"/>
</g>
<!-- Node4 -->
<g id="node5" class="node">
<title>Node4</title>
<polygon fill="#ffffff" stroke="#bfbfbf" points="318,-.5 318,-19.5 362,-19.5 362,-.5 318,-.5"/>
<text text-anchor="middle" x="340" y="-7.5" font-family="Helvetica,sans-Serif" font-size="10.00" fill="#000000">vector</text>
</g>
<!-- Node2&#45;&gt;Node4 -->
<g id="edge4" class="edge">
<title>Node2&#45;&gt;Node4</title>
<path fill="none" stroke="#191970" d="M271.4575,-56.2455C284.0732,-47.7337 302.5944,-35.2375 317.2045,-25.3801"/>
<polygon fill="#191970" stroke="#191970" points="319.3761,-28.1371 325.7082,-19.6427 315.4609,-22.3343 319.3761,-28.1371"/>
</g>
<!-- Node5 -->
<g id="node6" class="node">
<title>Node5</title>
<polygon fill="#ffffff" stroke="#bfbfbf" points="380,-.5 380,-19.5 436,-19.5 436,-.5 380,-.5"/>
<text text-anchor="middle" x="408" y="-7.5" font-family="Helvetica,sans-Serif" font-size="10.00" fill="#000000">algorithm</text>
</g>
<!-- Node2&#45;&gt;Node5 -->
<g id="edge5" class="edge">
<title>Node2&#45;&gt;Node5</title>
<path fill="none" stroke="#191970" d="M281.5968,-56.878C306.3409,-47.7014 344.7392,-33.461 372.724,-23.0825"/>
<polygon fill="#191970" stroke="#191970" points="373.9898,-26.3461 382.1488,-19.5872 371.5558,-19.7829 373.9898,-26.3461"/>
</g>
<!-- Node6 -->
<g id="node7" class="node">
<title>Node6</title>
<polygon fill="#ffffff" stroke="#bfbfbf" points="454.5,-.5 454.5,-19.5 489.5,-19.5 489.5,-.5 454.5,-.5"/>
<text text-anchor="middle" x="472" y="-7.5" font-family="Helvetica,sans-Serif" font-size="10.00" fill="#000000">map</text>
</g>
<!-- Node2&#45;&gt;Node6 -->
<g id="edge6" class="edge">
<title>Node2&#45;&gt;Node6</title>
<path fill="none" stroke="#191970" d="M281.8371,-58.5193C284.9156,-57.644 288.0253,-56.7845 291,-56 355.9128,-38.8813 375.9077,-40.0915 444.3934,-19.8807"/>
<polygon fill="#191970" stroke="#191970" points="445.8158,-23.1081 454.3885,-16.8825 443.8045,-16.4033 445.8158,-23.1081"/>
</g>
<!-- Node7 -->
<g id="node8" class="node">
<title>Node7</title>
<polygon fill="#ffffff" stroke="#bfbfbf" points="507.5,-.5 507.5,-19.5 536.5,-19.5 536.5,-.5 507.5,-.5"/>
<text text-anchor="middle" x="522" y="-7.5" font-family="Helvetica,sans-Serif" font-size="10.00" fill="#000000">list</text>
</g>
<!-- Node2&#45;&gt;Node7 -->
<g id="edge7" class="edge">
<title>Node2&#45;&gt;Node7</title>
<path fill="none" stroke="#191970" d="M281.7952,-58.3503C284.8809,-57.504 288.0037,-56.6975 291,-56 379.2525,-35.4558 407.2152,-46.1028 497.2963,-20.0016"/>
<polygon fill="#191970" stroke="#191970" points="498.5097,-23.2924 507.0989,-17.0894 496.5162,-16.5823 498.5097,-23.2924"/>
</g>
<!-- Node2&#45;&gt;Node8 -->
<g id="edge8" class="edge">
<title>Node2&#45;&gt;Node8</title>
<path fill="none" stroke="#191970" d="M232.4264,-60.4894C197.2606,-52.5354 130.3348,-37.1462 63.8927,-20.1628"/>
<polygon fill="#191970" stroke="#191970" points="64.6535,-16.7447 54.0971,-17.6462 62.9116,-23.5245 64.6535,-16.7447"/>
</g>
<!-- Node9 -->
<g id="node10" class="node">
<title>Node9</title>
<polygon fill="#ffffff" stroke="#bfbfbf" points="555,-.5 555,-19.5 605,-19.5 605,-.5 555,-.5"/>
<text text-anchor="middle" x="580" y="-7.5" font-family="Helvetica,sans-Serif" font-size="10.00" fill="#000000">iomanip</text>
</g>
<!-- Node2&#45;&gt;Node9 -->
<g id="edge9" class="edge">
<title>Node2&#45;&gt;Node9</title>
<path fill="none" stroke="#191970" d="M281.7748,-58.2596C284.864,-57.4288 287.9932,-56.6508 291,-56 399.6988,-32.4734 432.2975,-43.5379 544.8091,-19.9888"/>
<polygon fill="#191970" stroke="#191970" points="545.8078,-23.3545 554.8543,-17.8399 544.3434,-16.5094 545.8078,-23.3545"/>
</g>
<!-- Node2&#45;&gt;Node10 -->
<g id="edge10" class="edge">
<title>Node2&#45;&gt;Node10</title>
<path fill="none" stroke="#191970" d="M232.3506,-57.3727C205.4949,-47.9732 162.3163,-32.8607 131.9648,-22.2377"/>
<polygon fill="#191970" stroke="#191970" points="132.8005,-18.822 122.2056,-18.822 130.488,-25.429 132.8005,-18.822"/>
</g>
<!-- Node11 -->
<g id="node12" class="node">
<title>Node11</title>
<polygon fill="#ffffff" stroke="#bfbfbf" points="140.5,-.5 140.5,-19.5 189.5,-19.5 189.5,-.5 140.5,-.5"/>
<text text-anchor="middle" x="165" y="-7.5" font-family="Helvetica,sans-Serif" font-size="10.00" fill="#000000">cassert</text>
</g>
<!-- Node2&#45;&gt;Node11 -->
<g id="edge11" class="edge">
<title>Node2&#45;&gt;Node11</title>
<path fill="none" stroke="#191970" d="M240.9748,-56.2455C226.8592,-47.6534 206.0737,-35.0014 189.8101,-25.1018"/>
<polygon fill="#191970" stroke="#191970" points="191.2034,-21.8525 180.8415,-19.6427 187.5637,-27.8319 191.2034,-21.8525"/>
</g>
<!-- Node12 -->
<g id="node13" class="node">
<title>Node12</title>
<polygon fill="#ffffff" stroke="#bfbfbf" points="208,-.5 208,-19.5 252,-19.5 252,-.5 208,-.5"/>
<text text-anchor="middle" x="230" y="-7.5" font-family="Helvetica,sans-Serif" font-size="10.00" fill="#000000">cmath</text>
</g>
<!-- Node2&#45;&gt;Node12 -->
<g id="edge12" class="edge">
<title>Node2&#45;&gt;Node12</title>
<path fill="none" stroke="#191970" d="M252.297,-56.2455C248.6576,-48.6973 243.5076,-38.0158 239.0738,-28.8197"/>
<polygon fill="#191970" stroke="#191970" points="242.1449,-27.1303 234.6491,-19.6427 235.8395,-30.1704 242.1449,-27.1303"/>
</g>
<!-- Node13&#45;&gt;Node2 -->
<g id="edge16" class="edge">
<title>Node13&#45;&gt;Node2</title>
<path fill="none" stroke="#191970" d="M285.9035,-112.2455C281.0855,-104.5367 274.2249,-93.5598 268.3968,-84.2348"/>
<polygon fill="#191970" stroke="#191970" points="271.2947,-82.2677 263.0267,-75.6427 265.3587,-85.9777 271.2947,-82.2677"/>
</g>
<!-- Node14 -->
<g id="node15" class="node">
<title>Node14</title>
<polygon fill="#ffffff" stroke="#bfbfbf" points="300,-56.5 300,-75.5 356,-75.5 356,-56.5 300,-56.5"/>
<text text-anchor="middle" x="328" y="-63.5" font-family="Helvetica,sans-Serif" font-size="10.00" fill="#000000">Python.h</text>
</g>
<!-- Node13&#45;&gt;Node14 -->
<g id="edge14" class="edge">
<title>Node13&#45;&gt;Node14</title>
<path fill="none" stroke="#191970" d="M298.2707,-112.2455C303.2264,-104.5367 310.283,-93.5598 316.2776,-84.2348"/>
<polygon fill="#191970" stroke="#191970" points="319.3376,-85.9471 321.8011,-75.6427 313.4494,-82.1618 319.3376,-85.9471"/>
</g>
<!-- Node15 -->
<g id="node16" class="node">
<title>Node15</title>
<polygon fill="#ffffff" stroke="#bfbfbf" points="374.5,-56.5 374.5,-75.5 479.5,-75.5 479.5,-56.5 374.5,-56.5"/>
<text text-anchor="middle" x="427" y="-63.5" font-family="Helvetica,sans-Serif" font-size="10.00" fill="#000000">numpy/arrayobject.h</text>
</g>
<!-- Node13&#45;&gt;Node15 -->
<g id="edge15" class="edge">
<title>Node13&#45;&gt;Node15</title>
<path fill="none" stroke="#191970" d="M315.2073,-112.3733C337.1699,-103.2629 370.3332,-89.5062 394.8401,-79.3404"/>
<polygon fill="#191970" stroke="#191970" points="396.1997,-82.5657 404.0955,-75.5011 393.5176,-76.0999 396.1997,-82.5657"/>
</g>
</g>
</svg>
