<?xml version="1.0" encoding="UTF-8" standalone="no"?>
<!DOCTYPE svg PUBLIC "-//W3C//DTD SVG 1.1//EN"
 "http://www.w3.org/Graphics/SVG/1.1/DTD/svg11.dtd">
<!-- Generated by graphviz version 2.42.3 (0)
 -->
<!-- Title: VMS.cpp Pages: 1 -->
<svg width="852pt" height="196pt"
 viewBox="0.00 0.00 852.00 196.00" xmlns="http://www.w3.org/2000/svg" xmlns:xlink="http://www.w3.org/1999/xlink">
<g id="graph0" class="graph" transform="scale(1 1) rotate(0) translate(4 192)">
<title>VMS.cpp</title>
<polygon fill="white" stroke="transparent" points="-4,4 -4,-192 848,-192 848,4 -4,4"/>
<!-- Node1 -->
<g id="node1" class="node">
<title>Node1</title>
<g id="a_node1"><a xlink:title=" ">
<polygon fill="#bfbfbf" stroke="black" points="367.5,-168.5 367.5,-187.5 426.5,-187.5 426.5,-168.5 367.5,-168.5"/>
<text text-anchor="middle" x="397" y="-175.5" font-family="Helvetica,sans-Serif" font-size="10.00">VMS.cpp</text>
</a>
</g>
</g>
<!-- Node2 -->
<g id="node2" class="node">
<title>Node2</title>
<g id="a_node2"><a xlink:href="_mesh_adapt_p_u_m_i_8h.html" target="_top" xlink:title=" ">
<polygon fill="white" stroke="black" points="238,-112.5 238,-131.5 344,-131.5 344,-112.5 238,-112.5"/>
<text text-anchor="middle" x="291" y="-119.5" font-family="Helvetica,sans-Serif" font-size="10.00">MeshAdaptPUMI.h</text>
</a>
</g>
</g>
<!-- Node1&#45;&gt;Node2 -->
<g id="edge1" class="edge">
<title>Node1&#45;&gt;Node2</title>
<path fill="none" stroke="midnightblue" d="M379.97,-168.32C362.97,-159.66 336.62,-146.24 317.01,-136.25"/>
<polygon fill="midnightblue" stroke="midnightblue" points="318.49,-133.08 307.99,-131.65 315.31,-139.31 318.49,-133.08"/>
</g>
<!-- Node9 -->
<g id="node9" class="node">
<title>Node9</title>
<g id="a_node9"><a xlink:title=" ">
<polygon fill="white" stroke="#bfbfbf" points="0,-0.5 0,-19.5 60,-19.5 60,-0.5 0,-0.5"/>
<text text-anchor="middle" x="30" y="-7.5" font-family="Helvetica,sans-Serif" font-size="10.00">iostream</text>
</a>
</g>
</g>
<!-- Node1&#45;&gt;Node9 -->
<g id="edge24" class="edge">
<title>Node1&#45;&gt;Node9</title>
<path fill="none" stroke="midnightblue" d="M367.27,-175.06C324.64,-171.35 244.54,-160.84 183,-132 125.75,-105.17 70.63,-53.13 44.98,-26.91"/>
<polygon fill="midnightblue" stroke="midnightblue" points="47.46,-24.43 38,-19.66 42.42,-29.29 47.46,-24.43"/>
</g>
<!-- Node11 -->
<g id="node11" class="node">
<title>Node11</title>
<g id="a_node11"><a xlink:title=" ">
<polygon fill="white" stroke="#bfbfbf" points="78.5,-0.5 78.5,-19.5 133.5,-19.5 133.5,-0.5 78.5,-0.5"/>
<text text-anchor="middle" x="106" y="-7.5" font-family="Helvetica,sans-Serif" font-size="10.00">fstream</text>
</a>
</g>
</g>
<!-- Node1&#45;&gt;Node11 -->
<g id="edge25" class="edge">
<title>Node1&#45;&gt;Node11</title>
<path fill="none" stroke="midnightblue" d="M367.36,-175.28C328.97,-171.89 261.18,-161.82 212,-132 168.18,-105.44 132.73,-54.8 116.15,-28.24"/>
<polygon fill="midnightblue" stroke="midnightblue" points="119.11,-26.36 110.92,-19.63 113.13,-29.99 119.11,-26.36"/>
</g>
<!-- Node14 -->
<g id="node14" class="node">
<title>Node14</title>
<g id="a_node14"><a xlink:title=" ">
<polygon fill="white" stroke="#bfbfbf" points="189.5,-56.5 189.5,-75.5 230.5,-75.5 230.5,-56.5 189.5,-56.5"/>
<text text-anchor="middle" x="210" y="-63.5" font-family="Helvetica,sans-Serif" font-size="10.00">apf.h</text>
</a>
</g>
</g>
<!-- Node1&#45;&gt;Node14 -->
<g id="edge19" class="edge">
<title>Node1&#45;&gt;Node14</title>
<path fill="none" stroke="midnightblue" d="M367.25,-177.39C329.94,-176.23 266.35,-168.52 229,-132 216.79,-120.07 212.32,-100.76 210.74,-86.29"/>
<polygon fill="midnightblue" stroke="midnightblue" points="214.2,-85.67 209.99,-75.94 207.22,-86.17 214.2,-85.67"/>
</g>
<!-- Node16 -->
<g id="node16" class="node">
<title>Node16</title>
<g id="a_node16"><a xlink:title=" ">
<polygon fill="white" stroke="#bfbfbf" points="477.5,-56.5 477.5,-75.5 572.5,-75.5 572.5,-56.5 477.5,-56.5"/>
<text text-anchor="middle" x="525" y="-63.5" font-family="Helvetica,sans-Serif" font-size="10.00">apfNumbering.h</text>
</a>
</g>
</g>
<!-- Node1&#45;&gt;Node16 -->
<g id="edge23" class="edge">
<title>Node1&#45;&gt;Node16</title>
<path fill="none" stroke="midnightblue" d="M392.95,-168.48C387.25,-155.1 378.83,-128.93 391,-112 400.97,-98.14 439.67,-86.06 472.93,-77.91"/>
<polygon fill="midnightblue" stroke="midnightblue" points="474.12,-81.23 483.04,-75.51 472.51,-74.41 474.12,-81.23"/>
</g>
<!-- Node18 -->
<g id="node18" class="node">
<title>Node18</title>
<g id="a_node18"><a xlink:title=" ">
<polygon fill="white" stroke="#bfbfbf" points="400,-112.5 400,-131.5 446,-131.5 446,-112.5 400,-112.5"/>
<text text-anchor="middle" x="423" y="-119.5" font-family="Helvetica,sans-Serif" font-size="10.00">PCU.h</text>
</a>
</g>
</g>
<!-- Node1&#45;&gt;Node18 -->
<g id="edge17" class="edge">
<title>Node1&#45;&gt;Node18</title>
<path fill="none" stroke="midnightblue" d="M401.29,-168.08C404.85,-160.69 410.02,-149.95 414.42,-140.81"/>
<polygon fill="midnightblue" stroke="midnightblue" points="417.6,-142.28 418.79,-131.75 411.29,-139.24 417.6,-142.28"/>
</g>
<!-- Node19 -->
<g id="node19" class="node">
<title>Node19</title>
<g id="a_node19"><a xlink:title=" ">
<polygon fill="white" stroke="#bfbfbf" points="464.5,-112.5 464.5,-131.5 533.5,-131.5 533.5,-112.5 464.5,-112.5"/>
<text text-anchor="middle" x="499" y="-119.5" font-family="Helvetica,sans-Serif" font-size="10.00">petscksp.h</text>
</a>
</g>
</g>
<!-- Node1&#45;&gt;Node19 -->
<g id="edge18" class="edge">
<title>Node1&#45;&gt;Node19</title>
<path fill="none" stroke="midnightblue" d="M413.39,-168.32C429.67,-159.7 454.87,-146.36 473.72,-136.39"/>
<polygon fill="midnightblue" stroke="midnightblue" points="475.45,-139.43 482.65,-131.65 472.18,-133.24 475.45,-139.43"/>
</g>
<!-- Node20 -->
<g id="node20" class="node">
<title>Node20</title>
<g id="a_node20"><a xlink:title=" ">
<polygon fill="white" stroke="#bfbfbf" points="552,-112.5 552,-131.5 620,-131.5 620,-112.5 552,-112.5"/>
<text text-anchor="middle" x="586" y="-119.5" font-family="Helvetica,sans-Serif" font-size="10.00">apfMesh.h</text>
</a>
</g>
</g>
<!-- Node1&#45;&gt;Node20 -->
<g id="edge20" class="edge">
<title>Node1&#45;&gt;Node20</title>
<path fill="none" stroke="midnightblue" d="M426.53,-168.56C458.8,-159.34 510.65,-144.53 546.42,-134.31"/>
<polygon fill="midnightblue" stroke="midnightblue" points="547.4,-137.67 556.05,-131.56 545.48,-130.94 547.4,-137.67"/>
</g>
<!-- Node21 -->
<g id="node21" class="node">
<title>Node21</title>
<g id="a_node21"><a xlink:title=" ">
<polygon fill="white" stroke="#bfbfbf" points="638.5,-112.5 638.5,-131.5 709.5,-131.5 709.5,-112.5 638.5,-112.5"/>
<text text-anchor="middle" x="674" y="-119.5" font-family="Helvetica,sans-Serif" font-size="10.00">apfShape.h</text>
</a>
</g>
</g>
<!-- Node1&#45;&gt;Node21 -->
<g id="edge21" class="edge">
<title>Node1&#45;&gt;Node21</title>
<path fill="none" stroke="midnightblue" d="M426.68,-171.3C469,-163.16 549.39,-147.65 628.06,-132.18"/>
<polygon fill="midnightblue" stroke="midnightblue" points="629.01,-135.56 638.14,-130.19 627.65,-128.69 629.01,-135.56"/>
</g>
<!-- Node22 -->
<g id="node22" class="node">
<title>Node22</title>
<g id="a_node22"><a xlink:title=" ">
<polygon fill="white" stroke="#bfbfbf" points="728,-112.5 728,-131.5 844,-131.5 844,-112.5 728,-112.5"/>
<text text-anchor="middle" x="786" y="-119.5" font-family="Helvetica,sans-Serif" font-size="10.00">apfDynamicMatrix.h</text>
</a>
</g>
</g>
<!-- Node1&#45;&gt;Node22 -->
<g id="edge22" class="edge">
<title>Node1&#45;&gt;Node22</title>
<path fill="none" stroke="midnightblue" d="M426.56,-172.9C488.21,-164.34 631.92,-144.39 717.78,-132.47"/>
<polygon fill="midnightblue" stroke="midnightblue" points="718.28,-135.93 727.7,-131.09 717.31,-129 718.28,-135.93"/>
</g>
<!-- Node3 -->
<g id="node3" class="node">
<title>Node3</title>
<g id="a_node3"><a xlink:href="mesh_8h.html" target="_top" xlink:title=" ">
<polygon fill="white" stroke="black" points="248.5,-56.5 248.5,-75.5 301.5,-75.5 301.5,-56.5 248.5,-56.5"/>
<text text-anchor="middle" x="275" y="-63.5" font-family="Helvetica,sans-Serif" font-size="10.00">mesh.h</text>
</a>
</g>
</g>
<!-- Node2&#45;&gt;Node3 -->
<g id="edge2" class="edge">
<title>Node2&#45;&gt;Node3</title>
<path fill="none" stroke="midnightblue" d="M288.36,-112.08C286.21,-104.85 283.12,-94.41 280.45,-85.4"/>
<polygon fill="midnightblue" stroke="midnightblue" points="283.79,-84.34 277.59,-75.75 277.08,-86.33 283.79,-84.34"/>
</g>
<!-- Node2&#45;&gt;Node14 -->
<g id="edge13" class="edge">
<title>Node2&#45;&gt;Node14</title>
<path fill="none" stroke="midnightblue" d="M277.99,-112.32C265.47,-103.98 246.32,-91.21 231.53,-81.35"/>
<polygon fill="midnightblue" stroke="midnightblue" points="233.24,-78.29 222.98,-75.65 229.36,-84.11 233.24,-78.29"/>
</g>
<!-- Node15 -->
<g id="node15" class="node">
<title>Node15</title>
<g id="a_node15"><a xlink:title=" ">
<polygon fill="white" stroke="#bfbfbf" points="320,-56.5 320,-75.5 394,-75.5 394,-56.5 320,-56.5"/>
<text text-anchor="middle" x="357" y="-63.5" font-family="Helvetica,sans-Serif" font-size="10.00">apfMesh2.h</text>
</a>
</g>
</g>
<!-- Node2&#45;&gt;Node15 -->
<g id="edge14" class="edge">
<title>Node2&#45;&gt;Node15</title>
<path fill="none" stroke="midnightblue" d="M301.6,-112.32C311.46,-104.26 326.35,-92.08 338.22,-82.37"/>
<polygon fill="midnightblue" stroke="midnightblue" points="340.68,-84.88 346.2,-75.83 336.25,-79.46 340.68,-84.88"/>
</g>
<!-- Node2&#45;&gt;Node16 -->
<g id="edge15" class="edge">
<title>Node2&#45;&gt;Node16</title>
<path fill="none" stroke="midnightblue" d="M328.08,-112.44C368.73,-103.06 434.03,-87.99 478.18,-77.8"/>
<polygon fill="midnightblue" stroke="midnightblue" points="479.14,-81.18 488.1,-75.52 477.56,-74.35 479.14,-81.18"/>
</g>
<!-- Node17 -->
<g id="node17" class="node">
<title>Node17</title>
<g id="a_node17"><a xlink:title=" ">
<polygon fill="white" stroke="#bfbfbf" points="412.5,-56.5 412.5,-75.5 459.5,-75.5 459.5,-56.5 412.5,-56.5"/>
<text text-anchor="middle" x="436" y="-63.5" font-family="Helvetica,sans-Serif" font-size="10.00">queue</text>
</a>
</g>
</g>
<!-- Node2&#45;&gt;Node17 -->
<g id="edge16" class="edge">
<title>Node2&#45;&gt;Node17</title>
<path fill="none" stroke="midnightblue" d="M313.98,-112.44C338.16,-103.44 376.42,-89.19 403.65,-79.05"/>
<polygon fill="midnightblue" stroke="midnightblue" points="404.98,-82.29 413.13,-75.52 402.54,-75.73 404.98,-82.29"/>
</g>
<!-- Node4 -->
<g id="node4" class="node">
<title>Node4</title>
<g id="a_node4"><a xlink:title=" ">
<polygon fill="white" stroke="#bfbfbf" points="288,-0.5 288,-19.5 320,-19.5 320,-0.5 288,-0.5"/>
<text text-anchor="middle" x="304" y="-7.5" font-family="Helvetica,sans-Serif" font-size="10.00">set</text>
</a>
</g>
</g>
<!-- Node3&#45;&gt;Node4 -->
<g id="edge3" class="edge">
<title>Node3&#45;&gt;Node4</title>
<path fill="none" stroke="midnightblue" d="M279.79,-56.08C283.76,-48.69 289.53,-37.95 294.43,-28.81"/>
<polygon fill="midnightblue" stroke="midnightblue" points="297.65,-30.22 299.3,-19.75 291.49,-26.91 297.65,-30.22"/>
</g>
<!-- Node5 -->
<g id="node5" class="node">
<title>Node5</title>
<g id="a_node5"><a xlink:title=" ">
<polygon fill="white" stroke="#bfbfbf" points="338.5,-0.5 338.5,-19.5 385.5,-19.5 385.5,-0.5 338.5,-0.5"/>
<text text-anchor="middle" x="362" y="-7.5" font-family="Helvetica,sans-Serif" font-size="10.00">vector</text>
</a>
</g>
</g>
<!-- Node3&#45;&gt;Node5 -->
<g id="edge4" class="edge">
<title>Node3&#45;&gt;Node5</title>
<path fill="none" stroke="midnightblue" d="M288.98,-56.32C302.55,-47.9 323.38,-34.97 339.32,-25.07"/>
<polygon fill="midnightblue" stroke="midnightblue" points="341.41,-27.9 348.06,-19.65 337.71,-21.95 341.41,-27.9"/>
</g>
<!-- Node6 -->
<g id="node6" class="node">
<title>Node6</title>
<g id="a_node6"><a xlink:title=" ">
<polygon fill="white" stroke="#bfbfbf" points="404,-0.5 404,-19.5 468,-19.5 468,-0.5 404,-0.5"/>
<text text-anchor="middle" x="436" y="-7.5" font-family="Helvetica,sans-Serif" font-size="10.00">algorithm</text>
</a>
</g>
</g>
<!-- Node3&#45;&gt;Node6 -->
<g id="edge5" class="edge">
<title>Node3&#45;&gt;Node6</title>
<path fill="none" stroke="midnightblue" d="M300.51,-56.44C327.6,-47.36 370.59,-32.94 400.87,-22.78"/>
<polygon fill="midnightblue" stroke="midnightblue" points="402.24,-26.01 410.61,-19.52 400.01,-19.38 402.24,-26.01"/>
</g>
<!-- Node7 -->
<g id="node7" class="node">
<title>Node7</title>
<g id="a_node7"><a xlink:title=" ">
<polygon fill="white" stroke="#bfbfbf" points="486,-0.5 486,-19.5 524,-19.5 524,-0.5 486,-0.5"/>
<text text-anchor="middle" x="505" y="-7.5" font-family="Helvetica,sans-Serif" font-size="10.00">map</text>
</a>
</g>
</g>
<!-- Node3&#45;&gt;Node7 -->
<g id="edge6" class="edge">
<title>Node3&#45;&gt;Node7</title>
<path fill="none" stroke="midnightblue" d="M301.71,-58.22C304.84,-57.46 307.99,-56.7 311,-56 381.5,-39.55 402.39,-39.54 476.05,-20.06"/>
<polygon fill="midnightblue" stroke="midnightblue" points="477.04,-23.41 485.79,-17.45 475.23,-16.65 477.04,-23.41"/>
</g>
<!-- Node8 -->
<g id="node8" class="node">
<title>Node8</title>
<g id="a_node8"><a xlink:title=" ">
<polygon fill="white" stroke="#bfbfbf" points="542,-0.5 542,-19.5 574,-19.5 574,-0.5 542,-0.5"/>
<text text-anchor="middle" x="558" y="-7.5" font-family="Helvetica,sans-Serif" font-size="10.00">list</text>
</a>
</g>
</g>
<!-- Node3&#45;&gt;Node8 -->
<g id="edge7" class="edge">
<title>Node3&#45;&gt;Node8</title>
<path fill="none" stroke="midnightblue" d="M301.68,-58.06C304.81,-57.33 307.97,-56.62 311,-56 405.85,-36.49 434.45,-44.49 532.31,-19.75"/>
<polygon fill="midnightblue" stroke="midnightblue" points="533.19,-23.14 542,-17.25 531.44,-16.36 533.19,-23.14"/>
</g>
<!-- Node3&#45;&gt;Node9 -->
<g id="edge8" class="edge">
<title>Node3&#45;&gt;Node9</title>
<path fill="none" stroke="midnightblue" d="M248.28,-58C245.49,-57.31 242.69,-56.63 240,-56 167.47,-39.05 146.54,-36.89 70.31,-20.25"/>
<polygon fill="midnightblue" stroke="midnightblue" points="70.74,-16.76 60.22,-18.03 69.24,-23.6 70.74,-16.76"/>
</g>
<!-- Node10 -->
<g id="node10" class="node">
<title>Node10</title>
<g id="a_node10"><a xlink:title=" ">
<polygon fill="white" stroke="#bfbfbf" points="592,-0.5 592,-19.5 648,-19.5 648,-0.5 592,-0.5"/>
<text text-anchor="middle" x="620" y="-7.5" font-family="Helvetica,sans-Serif" font-size="10.00">iomanip</text>
</a>
</g>
</g>
<!-- Node3&#45;&gt;Node10 -->
<g id="edge9" class="edge">
<title>Node3&#45;&gt;Node10</title>
<path fill="none" stroke="midnightblue" d="M301.66,-57.98C304.8,-57.26 307.96,-56.58 311,-56 427.63,-33.78 461.37,-41.98 581.81,-20.04"/>
<polygon fill="midnightblue" stroke="midnightblue" points="582.59,-23.46 591.79,-18.19 581.32,-16.57 582.59,-23.46"/>
</g>
<!-- Node3&#45;&gt;Node11 -->
<g id="edge10" class="edge">
<title>Node3&#45;&gt;Node11</title>
<path fill="none" stroke="midnightblue" d="M248.22,-56.44C219.67,-47.32 174.27,-32.81 142.46,-22.65"/>
<polygon fill="midnightblue" stroke="midnightblue" points="143.24,-19.23 132.65,-19.52 141.11,-25.89 143.24,-19.23"/>
</g>
<!-- Node12 -->
<g id="node12" class="node">
<title>Node12</title>
<g id="a_node12"><a xlink:title=" ">
<polygon fill="white" stroke="#bfbfbf" points="152,-0.5 152,-19.5 204,-19.5 204,-0.5 152,-0.5"/>
<text text-anchor="middle" x="178" y="-7.5" font-family="Helvetica,sans-Serif" font-size="10.00">cassert</text>
</a>
</g>
</g>
<!-- Node3&#45;&gt;Node12 -->
<g id="edge11" class="edge">
<title>Node3&#45;&gt;Node12</title>
<path fill="none" stroke="midnightblue" d="M259.42,-56.32C244,-47.74 220.19,-34.49 202.29,-24.52"/>
<polygon fill="midnightblue" stroke="midnightblue" points="203.99,-21.46 193.55,-19.65 200.58,-27.58 203.99,-21.46"/>
</g>
<!-- Node13 -->
<g id="node13" class="node">
<title>Node13</title>
<g id="a_node13"><a xlink:title=" ">
<polygon fill="white" stroke="#bfbfbf" points="222.5,-0.5 222.5,-19.5 269.5,-19.5 269.5,-0.5 222.5,-0.5"/>
<text text-anchor="middle" x="246" y="-7.5" font-family="Helvetica,sans-Serif" font-size="10.00">cmath</text>
</a>
</g>
</g>
<!-- Node3&#45;&gt;Node13 -->
<g id="edge12" class="edge">
<title>Node3&#45;&gt;Node13</title>
<path fill="none" stroke="midnightblue" d="M270.21,-56.08C266.24,-48.69 260.47,-37.95 255.57,-28.81"/>
<polygon fill="midnightblue" stroke="midnightblue" points="258.51,-26.91 250.7,-19.75 252.35,-30.22 258.51,-26.91"/>
</g>
</g>
</svg>
