<?xml version="1.0" encoding="UTF-8" standalone="no"?>
<!DOCTYPE svg PUBLIC "-//W3C//DTD SVG 1.1//EN"
 "http://www.w3.org/Graphics/SVG/1.1/DTD/svg11.dtd">
<!-- Generated by graphviz version 2.40.1 (20161225.0304)
 -->
<!-- Title: analyticalSolutions.h Pages: 1 -->
<svg width="276pt" height="84pt"
 viewBox="0.00 0.00 276.00 84.00" xmlns="http://www.w3.org/2000/svg" xmlns:xlink="http://www.w3.org/1999/xlink">
<g id="graph0" class="graph" transform="scale(1 1) rotate(0) translate(4 80)">
<title>analyticalSolutions.h</title>
<polygon fill="#ffffff" stroke="transparent" points="-4,4 -4,-80 272,-80 272,4 -4,4"/>
<!-- Node4 -->
<g id="node1" class="node">
<title>Node4</title>
<polygon fill="#bfbfbf" stroke="#000000" points="71,-56.5 71,-75.5 178,-75.5 178,-56.5 71,-56.5"/>
<text text-anchor="middle" x="124.5" y="-63.5" font-family="Helvetica,sans-Serif" font-size="10.00" fill="#000000">analyticalSolutions.h</text>
</g>
<!-- Node5 -->
<g id="node2" class="node">
<title>Node5</title>
<g id="a_node2"><a xlink:href="analytical_solutions_8c.html" target="_top" xlink:title="analyticalSolutions.c">
<polygon fill="#ffffff" stroke="#000000" points="0,-.5 0,-19.5 107,-19.5 107,-.5 0,-.5"/>
<text text-anchor="middle" x="53.5" y="-7.5" font-family="Helvetica,sans-Serif" font-size="10.00" fill="#000000">analyticalSolutions.c</text>
</a>
</g>
</g>
<!-- Node4&#45;&gt;Node5 -->
<g id="edge1" class="edge">
<title>Node4&#45;&gt;Node5</title>
<path fill="none" stroke="#191970" d="M104.123,-49.928C91.7129,-40.1397 76.27,-27.9595 65.7255,-19.6427"/>
<polygon fill="#191970" stroke="#191970" points="102.1136,-52.8007 112.1327,-56.2455 106.4486,-47.3046 102.1136,-52.8007"/>
</g>
<!-- Node6 -->
<g id="node3" class="node">
<title>Node6</title>
<g id="a_node3"><a xlink:href="canalytical_solutions_module_8c.html" target="_top" xlink:title="canalyticalSolutionsModule.c">
<polygon fill="#ffffff" stroke="#000000" points="125,-.5 125,-19.5 268,-19.5 268,-.5 125,-.5"/>
<text text-anchor="middle" x="196.5" y="-7.5" font-family="Helvetica,sans-Serif" font-size="10.00" fill="#000000">canalyticalSolutionsModule.c</text>
</a>
</g>
</g>
<!-- Node4&#45;&gt;Node6 -->
<g id="edge2" class="edge">
<title>Node4&#45;&gt;Node6</title>
<path fill="none" stroke="#191970" d="M145.164,-49.928C157.7489,-40.1397 173.4092,-27.9595 184.1023,-19.6427"/>
<polygon fill="#191970" stroke="#191970" points="142.7862,-47.3434 137.0414,-56.2455 147.0838,-52.8688 142.7862,-47.3434"/>
</g>
</g>
</svg>
