<?xml version="1.0" encoding="UTF-8" standalone="no"?>
<!DOCTYPE svg PUBLIC "-//W3C//DTD SVG 1.1//EN"
 "http://www.w3.org/Graphics/SVG/1.1/DTD/svg11.dtd">
<!-- Generated by graphviz version 2.40.1 (20161225.0304)
 -->
<!-- Title: analyticalSolutions.c Pages: 1 -->
<svg width="186pt" height="140pt"
 viewBox="0.00 0.00 185.50 140.00" xmlns="http://www.w3.org/2000/svg" xmlns:xlink="http://www.w3.org/1999/xlink">
<g id="graph0" class="graph" transform="scale(1 1) rotate(0) translate(4 136)">
<title>analyticalSolutions.c</title>
<polygon fill="#ffffff" stroke="transparent" points="-4,4 -4,-136 181.5,-136 181.5,4 -4,4"/>
<!-- Node0 -->
<g id="node1" class="node">
<title>Node0</title>
<polygon fill="#bfbfbf" stroke="#000000" points="35,-112.5 35,-131.5 142,-131.5 142,-112.5 35,-112.5"/>
<text text-anchor="middle" x="88.5" y="-119.5" font-family="Helvetica,sans-Serif" font-size="10.00" fill="#000000">analyticalSolutions.c</text>
</g>
<!-- Node1 -->
<g id="node2" class="node">
<title>Node1</title>
<g id="a_node2"><a xlink:href="analytical_solutions_8h.html" target="_top" xlink:title="analyticalSolutions.h">
<polygon fill="#ffffff" stroke="#000000" points="35,-56.5 35,-75.5 142,-75.5 142,-56.5 35,-56.5"/>
<text text-anchor="middle" x="88.5" y="-63.5" font-family="Helvetica,sans-Serif" font-size="10.00" fill="#000000">analyticalSolutions.h</text>
</a>
</g>
</g>
<!-- Node0&#45;&gt;Node1 -->
<g id="edge1" class="edge">
<title>Node0&#45;&gt;Node1</title>
<path fill="none" stroke="#191970" d="M88.5,-112.2455C88.5,-104.9382 88.5,-94.6944 88.5,-85.7046"/>
<polygon fill="#191970" stroke="#191970" points="92.0001,-85.6426 88.5,-75.6427 85.0001,-85.6427 92.0001,-85.6426"/>
</g>
<!-- Node2 -->
<g id="node3" class="node">
<title>Node2</title>
<polygon fill="#ffffff" stroke="#bfbfbf" points="0,-.5 0,-19.5 47,-19.5 47,-.5 0,-.5"/>
<text text-anchor="middle" x="23.5" y="-7.5" font-family="Helvetica,sans-Serif" font-size="10.00" fill="#000000">math.h</text>
</g>
<!-- Node1&#45;&gt;Node2 -->
<g id="edge2" class="edge">
<title>Node1&#45;&gt;Node2</title>
<path fill="none" stroke="#191970" d="M77.1779,-56.2455C67.5777,-47.9746 53.6108,-35.9416 42.3305,-26.2232"/>
<polygon fill="#191970" stroke="#191970" points="44.553,-23.5182 34.6924,-19.6427 39.984,-28.8214 44.553,-23.5182"/>
</g>
<!-- Node3 -->
<g id="node4" class="node">
<title>Node3</title>
<polygon fill="#ffffff" stroke="#bfbfbf" points="65.5,-.5 65.5,-19.5 111.5,-19.5 111.5,-.5 65.5,-.5"/>
<text text-anchor="middle" x="88.5" y="-7.5" font-family="Helvetica,sans-Serif" font-size="10.00" fill="#000000">stdio.h</text>
</g>
<!-- Node1&#45;&gt;Node3 -->
<g id="edge3" class="edge">
<title>Node1&#45;&gt;Node3</title>
<path fill="none" stroke="#191970" d="M88.5,-56.2455C88.5,-48.9382 88.5,-38.6944 88.5,-29.7046"/>
<polygon fill="#191970" stroke="#191970" points="92.0001,-29.6426 88.5,-19.6427 85.0001,-29.6427 92.0001,-29.6426"/>
</g>
<!-- Node4 -->
<g id="node5" class="node">
<title>Node4</title>
<polygon fill="#ffffff" stroke="#bfbfbf" points="129.5,-.5 129.5,-19.5 177.5,-19.5 177.5,-.5 129.5,-.5"/>
<text text-anchor="middle" x="153.5" y="-7.5" font-family="Helvetica,sans-Serif" font-size="10.00" fill="#000000">stdlib.h</text>
</g>
<!-- Node1&#45;&gt;Node4 -->
<g id="edge4" class="edge">
<title>Node1&#45;&gt;Node4</title>
<path fill="none" stroke="#191970" d="M99.8221,-56.2455C109.4223,-47.9746 123.3892,-35.9416 134.6695,-26.2232"/>
<polygon fill="#191970" stroke="#191970" points="137.016,-28.8214 142.3076,-19.6427 132.447,-23.5182 137.016,-28.8214"/>
</g>
</g>
</svg>
