<?xml version="1.0" encoding="UTF-8" standalone="no"?>
<!DOCTYPE svg PUBLIC "-//W3C//DTD SVG 1.1//EN"
 "http://www.w3.org/Graphics/SVG/1.1/DTD/svg11.dtd">
<!-- Generated by graphviz version 2.42.3 (0)
 -->
<!-- Title: cMeshAdaptPUMI.cpp Pages: 1 -->
<svg width="1229pt" height="196pt"
 viewBox="0.00 0.00 1229.00 196.00" xmlns="http://www.w3.org/2000/svg" xmlns:xlink="http://www.w3.org/1999/xlink">
<g id="graph0" class="graph" transform="scale(1 1) rotate(0) translate(4 192)">
<title>cMeshAdaptPUMI.cpp</title>
<polygon fill="white" stroke="transparent" points="-4,4 -4,-192 1225,-192 1225,4 -4,4"/>
<!-- Node1 -->
<g id="node1" class="node">
<title>Node1</title>
<g id="a_node1"><a xlink:title=" ">
<polygon fill="#bfbfbf" stroke="black" points="488,-168.5 488,-187.5 610,-187.5 610,-168.5 488,-168.5"/>
<text text-anchor="middle" x="549" y="-175.5" font-family="Helvetica,sans-Serif" font-size="10.00">cMeshAdaptPUMI.cpp</text>
</a>
</g>
</g>
<!-- Node2 -->
<g id="node2" class="node">
<title>Node2</title>
<g id="a_node2"><a xlink:title=" ">
<polygon fill="white" stroke="#bfbfbf" points="0,-112.5 0,-131.5 44,-131.5 44,-112.5 0,-112.5"/>
<text text-anchor="middle" x="22" y="-119.5" font-family="Helvetica,sans-Serif" font-size="10.00">gmi.h</text>
</a>
</g>
</g>
<!-- Node1&#45;&gt;Node2 -->
<g id="edge1" class="edge">
<title>Node1&#45;&gt;Node2</title>
<path fill="none" stroke="midnightblue" d="M487.78,-175.22C395.53,-171.72 215.43,-161.65 54.32,-131.9"/>
<polygon fill="midnightblue" stroke="midnightblue" points="54.7,-128.41 44.23,-130.01 53.41,-135.29 54.7,-128.41"/>
</g>
<!-- Node3 -->
<g id="node3" class="node">
<title>Node3</title>
<g id="a_node3"><a xlink:title=" ">
<polygon fill="white" stroke="#bfbfbf" points="62.5,-112.5 62.5,-131.5 139.5,-131.5 139.5,-112.5 62.5,-112.5"/>
<text text-anchor="middle" x="101" y="-119.5" font-family="Helvetica,sans-Serif" font-size="10.00">gmi_mesh.h</text>
</a>
</g>
</g>
<!-- Node1&#45;&gt;Node3 -->
<g id="edge2" class="edge">
<title>Node1&#45;&gt;Node3</title>
<path fill="none" stroke="midnightblue" d="M487.83,-171.52C411.27,-164.36 275.94,-150.66 149.95,-132.04"/>
<polygon fill="midnightblue" stroke="midnightblue" points="150.14,-128.53 139.73,-130.51 149.11,-135.45 150.14,-128.53"/>
</g>
<!-- Node4 -->
<g id="node4" class="node">
<title>Node4</title>
<g id="a_node4"><a xlink:title=" ">
<polygon fill="white" stroke="#bfbfbf" points="158,-112.5 158,-131.5 226,-131.5 226,-112.5 158,-112.5"/>
<text text-anchor="middle" x="192" y="-119.5" font-family="Helvetica,sans-Serif" font-size="10.00">gmi_null.h</text>
</a>
</g>
</g>
<!-- Node1&#45;&gt;Node4 -->
<g id="edge3" class="edge">
<title>Node1&#45;&gt;Node4</title>
<path fill="none" stroke="midnightblue" d="M487.74,-169.4C426.49,-161.53 329.37,-148.34 236.11,-132.11"/>
<polygon fill="midnightblue" stroke="midnightblue" points="236.68,-128.65 226.23,-130.37 235.47,-135.55 236.68,-128.65"/>
</g>
<!-- Node5 -->
<g id="node5" class="node">
<title>Node5</title>
<g id="a_node5"><a xlink:title=" ">
<polygon fill="white" stroke="#bfbfbf" points="244.5,-112.5 244.5,-131.5 285.5,-131.5 285.5,-112.5 244.5,-112.5"/>
<text text-anchor="middle" x="265" y="-119.5" font-family="Helvetica,sans-Serif" font-size="10.00">ma.h</text>
</a>
</g>
</g>
<!-- Node1&#45;&gt;Node5 -->
<g id="edge4" class="edge">
<title>Node1&#45;&gt;Node5</title>
<path fill="none" stroke="midnightblue" d="M488.27,-168.49C438.66,-161.04 366.58,-149.07 295.52,-132.14"/>
<polygon fill="midnightblue" stroke="midnightblue" points="296.05,-128.66 285.51,-129.72 294.4,-135.47 296.05,-128.66"/>
</g>
<!-- Node6 -->
<g id="node6" class="node">
<title>Node6</title>
<g id="a_node6"><a xlink:title=" ">
<polygon fill="white" stroke="#bfbfbf" points="303.5,-112.5 303.5,-131.5 374.5,-131.5 374.5,-112.5 303.5,-112.5"/>
<text text-anchor="middle" x="339" y="-119.5" font-family="Helvetica,sans-Serif" font-size="10.00">maShape.h</text>
</a>
</g>
</g>
<!-- Node1&#45;&gt;Node6 -->
<g id="edge5" class="edge">
<title>Node1&#45;&gt;Node6</title>
<path fill="none" stroke="midnightblue" d="M515.72,-168.44C479.55,-159.14 421.62,-144.25 382.02,-134.06"/>
<polygon fill="midnightblue" stroke="midnightblue" points="382.68,-130.62 372.12,-131.52 380.93,-137.4 382.68,-130.62"/>
</g>
<!-- Node7 -->
<g id="node7" class="node">
<title>Node7</title>
<g id="a_node7"><a xlink:title=" ">
<polygon fill="white" stroke="#bfbfbf" points="393,-112.5 393,-131.5 457,-131.5 457,-112.5 393,-112.5"/>
<text text-anchor="middle" x="425" y="-119.5" font-family="Helvetica,sans-Serif" font-size="10.00">apfMDS.h</text>
</a>
</g>
</g>
<!-- Node1&#45;&gt;Node7 -->
<g id="edge6" class="edge">
<title>Node1&#45;&gt;Node7</title>
<path fill="none" stroke="midnightblue" d="M529.35,-168.44C509.04,-159.6 477.1,-145.69 453.9,-135.59"/>
<polygon fill="midnightblue" stroke="midnightblue" points="455.12,-132.3 444.56,-131.52 452.33,-138.72 455.12,-132.3"/>
</g>
<!-- Node8 -->
<g id="node8" class="node">
<title>Node8</title>
<g id="a_node8"><a xlink:title=" ">
<polygon fill="white" stroke="#bfbfbf" points="475,-112.5 475,-131.5 521,-131.5 521,-112.5 475,-112.5"/>
<text text-anchor="middle" x="498" y="-119.5" font-family="Helvetica,sans-Serif" font-size="10.00">PCU.h</text>
</a>
</g>
</g>
<!-- Node1&#45;&gt;Node8 -->
<g id="edge7" class="edge">
<title>Node1&#45;&gt;Node8</title>
<path fill="none" stroke="midnightblue" d="M540.58,-168.08C533.15,-160.22 522.15,-148.57 513.19,-139.08"/>
<polygon fill="midnightblue" stroke="midnightblue" points="515.68,-136.62 506.26,-131.75 510.59,-141.42 515.68,-136.62"/>
</g>
<!-- Node9 -->
<g id="node9" class="node">
<title>Node9</title>
<g id="a_node9"><a xlink:title=" ">
<polygon fill="white" stroke="#bfbfbf" points="615.5,-56.5 615.5,-75.5 656.5,-75.5 656.5,-56.5 615.5,-56.5"/>
<text text-anchor="middle" x="636" y="-63.5" font-family="Helvetica,sans-Serif" font-size="10.00">apf.h</text>
</a>
</g>
</g>
<!-- Node1&#45;&gt;Node9 -->
<g id="edge8" class="edge">
<title>Node1&#45;&gt;Node9</title>
<path fill="none" stroke="midnightblue" d="M561.27,-168.42C572.59,-160.06 589.35,-146.53 601,-132 612.63,-117.5 622.31,-98.56 628.53,-84.88"/>
<polygon fill="midnightblue" stroke="midnightblue" points="631.79,-86.16 632.57,-75.59 625.37,-83.36 631.79,-86.16"/>
</g>
<!-- Node10 -->
<g id="node10" class="node">
<title>Node10</title>
<g id="a_node10"><a xlink:title=" ">
<polygon fill="white" stroke="#bfbfbf" points="561,-0.5 561,-19.5 621,-19.5 621,-0.5 561,-0.5"/>
<text text-anchor="middle" x="591" y="-7.5" font-family="Helvetica,sans-Serif" font-size="10.00">iostream</text>
</a>
</g>
</g>
<!-- Node1&#45;&gt;Node10 -->
<g id="edge9" class="edge">
<title>Node1&#45;&gt;Node10</title>
<path fill="none" stroke="midnightblue" d="M550.15,-168.36C552.95,-148.33 560.77,-97.27 573,-56 575.69,-46.92 579.49,-37.13 582.91,-29.01"/>
<polygon fill="midnightblue" stroke="midnightblue" points="586.14,-30.36 586.92,-19.79 579.72,-27.57 586.14,-30.36"/>
</g>
<!-- Node11 -->
<g id="node11" class="node">
<title>Node11</title>
<g id="a_node11"><a xlink:title=" ">
<polygon fill="white" stroke="#bfbfbf" points="647.5,-0.5 647.5,-19.5 702.5,-19.5 702.5,-0.5 647.5,-0.5"/>
<text text-anchor="middle" x="675" y="-7.5" font-family="Helvetica,sans-Serif" font-size="10.00">fstream</text>
</a>
</g>
</g>
<!-- Node1&#45;&gt;Node11 -->
<g id="edge10" class="edge">
<title>Node1&#45;&gt;Node11</title>
<path fill="none" stroke="midnightblue" d="M553.51,-168.43C558.23,-159.41 565.79,-144.79 572,-132 588.24,-98.55 582.79,-84.23 607,-56 618.16,-42.99 633.97,-32.22 647.54,-24.48"/>
<polygon fill="midnightblue" stroke="midnightblue" points="649.37,-27.47 656.49,-19.62 646.03,-21.32 649.37,-27.47"/>
</g>
<!-- Node12 -->
<g id="node12" class="node">
<title>Node12</title>
<g id="a_node12"><a xlink:title=" ">
<polygon fill="white" stroke="#bfbfbf" points="777,-112.5 777,-131.5 827,-131.5 827,-112.5 777,-112.5"/>
<text text-anchor="middle" x="802" y="-119.5" font-family="Helvetica,sans-Serif" font-size="10.00">stdio.h</text>
</a>
</g>
</g>
<!-- Node1&#45;&gt;Node12 -->
<g id="edge11" class="edge">
<title>Node1&#45;&gt;Node12</title>
<path fill="none" stroke="midnightblue" d="M594.46,-168.43C636.7,-160.3 701.58,-147.36 766.75,-132.2"/>
<polygon fill="midnightblue" stroke="midnightblue" points="767.85,-135.53 776.79,-129.84 766.25,-128.72 767.85,-135.53"/>
</g>
<!-- Node13 -->
<g id="node13" class="node">
<title>Node13</title>
<g id="a_node13"><a xlink:title=" ">
<polygon fill="white" stroke="#bfbfbf" points="845.5,-112.5 845.5,-131.5 898.5,-131.5 898.5,-112.5 845.5,-112.5"/>
<text text-anchor="middle" x="872" y="-119.5" font-family="Helvetica,sans-Serif" font-size="10.00">string.h</text>
</a>
</g>
</g>
<!-- Node1&#45;&gt;Node13 -->
<g id="edge12" class="edge">
<title>Node1&#45;&gt;Node13</title>
<path fill="none" stroke="midnightblue" d="M610.03,-169.04C666.1,-161.37 751.7,-148.73 835.39,-131.96"/>
<polygon fill="midnightblue" stroke="midnightblue" points="836.22,-135.37 845.32,-129.95 834.83,-128.51 836.22,-135.37"/>
</g>
<!-- Node14 -->
<g id="node14" class="node">
<title>Node14</title>
<g id="a_node14"><a xlink:href="_mesh_adapt_p_u_m_i_8h.html" target="_top" xlink:title=" ">
<polygon fill="white" stroke="black" points="653,-112.5 653,-131.5 759,-131.5 759,-112.5 653,-112.5"/>
<text text-anchor="middle" x="706" y="-119.5" font-family="Helvetica,sans-Serif" font-size="10.00">MeshAdaptPUMI.h</text>
</a>
</g>
</g>
<!-- Node1&#45;&gt;Node14 -->
<g id="edge13" class="edge">
<title>Node1&#45;&gt;Node14</title>
<path fill="none" stroke="midnightblue" d="M573.88,-168.44C600.29,-159.36 642.22,-144.94 671.74,-134.78"/>
<polygon fill="midnightblue" stroke="midnightblue" points="672.92,-138.08 681.24,-131.52 670.64,-131.46 672.92,-138.08"/>
</g>
<!-- Node27 -->
<g id="node27" class="node">
<title>Node27</title>
<g id="a_node27"><a xlink:title=" ">
<polygon fill="white" stroke="#bfbfbf" points="916.5,-112.5 916.5,-131.5 963.5,-131.5 963.5,-112.5 916.5,-112.5"/>
<text text-anchor="middle" x="940" y="-119.5" font-family="Helvetica,sans-Serif" font-size="10.00">sam.h</text>
</a>
</g>
</g>
<!-- Node1&#45;&gt;Node27 -->
<g id="edge29" class="edge">
<title>Node1&#45;&gt;Node27</title>
<path fill="none" stroke="midnightblue" d="M610.11,-172.14C679.81,-165.98 797.28,-153.69 906.47,-132.07"/>
<polygon fill="midnightblue" stroke="midnightblue" points="907.22,-135.49 916.33,-130.08 905.84,-128.62 907.22,-135.49"/>
</g>
<!-- Node28 -->
<g id="node28" class="node">
<title>Node28</title>
<g id="a_node28"><a xlink:title=" ">
<polygon fill="white" stroke="#bfbfbf" points="982,-112.5 982,-131.5 1040,-131.5 1040,-112.5 982,-112.5"/>
<text text-anchor="middle" x="1011" y="-119.5" font-family="Helvetica,sans-Serif" font-size="10.00">samSz.h</text>
</a>
</g>
</g>
<!-- Node1&#45;&gt;Node28 -->
<g id="edge30" class="edge">
<title>Node1&#45;&gt;Node28</title>
<path fill="none" stroke="midnightblue" d="M610.07,-172.96C690.74,-167.09 837.38,-154.53 971.57,-132.05"/>
<polygon fill="midnightblue" stroke="midnightblue" points="972.34,-135.47 981.62,-130.35 971.17,-128.57 972.34,-135.47"/>
</g>
<!-- Node14&#45;&gt;Node9 -->
<g id="edge25" class="edge">
<title>Node14&#45;&gt;Node9</title>
<path fill="none" stroke="midnightblue" d="M694.75,-112.32C684.2,-104.18 668.2,-91.84 655.56,-82.09"/>
<polygon fill="midnightblue" stroke="midnightblue" points="657.51,-79.17 647.45,-75.83 653.23,-84.71 657.51,-79.17"/>
</g>
<!-- Node15 -->
<g id="node15" class="node">
<title>Node15</title>
<g id="a_node15"><a xlink:href="mesh_8h.html" target="_top" xlink:title=" ">
<polygon fill="white" stroke="black" points="945.5,-56.5 945.5,-75.5 998.5,-75.5 998.5,-56.5 945.5,-56.5"/>
<text text-anchor="middle" x="972" y="-63.5" font-family="Helvetica,sans-Serif" font-size="10.00">mesh.h</text>
</a>
</g>
</g>
<!-- Node14&#45;&gt;Node15 -->
<g id="edge14" class="edge">
<title>Node14&#45;&gt;Node15</title>
<path fill="none" stroke="midnightblue" d="M754.4,-112.43C799.06,-104.34 867.44,-91.45 935.28,-76.3"/>
<polygon fill="midnightblue" stroke="midnightblue" points="936.3,-79.65 945.29,-74.04 934.76,-72.83 936.3,-79.65"/>
</g>
<!-- Node24 -->
<g id="node24" class="node">
<title>Node24</title>
<g id="a_node24"><a xlink:title=" ">
<polygon fill="white" stroke="#bfbfbf" points="675,-56.5 675,-75.5 749,-75.5 749,-56.5 675,-56.5"/>
<text text-anchor="middle" x="712" y="-63.5" font-family="Helvetica,sans-Serif" font-size="10.00">apfMesh2.h</text>
</a>
</g>
</g>
<!-- Node14&#45;&gt;Node24 -->
<g id="edge26" class="edge">
<title>Node14&#45;&gt;Node24</title>
<path fill="none" stroke="midnightblue" d="M706.99,-112.08C707.79,-104.93 708.93,-94.64 709.92,-85.69"/>
<polygon fill="midnightblue" stroke="midnightblue" points="713.4,-86.08 711.03,-75.75 706.44,-85.3 713.4,-86.08"/>
</g>
<!-- Node25 -->
<g id="node25" class="node">
<title>Node25</title>
<g id="a_node25"><a xlink:title=" ">
<polygon fill="white" stroke="#bfbfbf" points="767.5,-56.5 767.5,-75.5 862.5,-75.5 862.5,-56.5 767.5,-56.5"/>
<text text-anchor="middle" x="815" y="-63.5" font-family="Helvetica,sans-Serif" font-size="10.00">apfNumbering.h</text>
</a>
</g>
</g>
<!-- Node14&#45;&gt;Node25 -->
<g id="edge27" class="edge">
<title>Node14&#45;&gt;Node25</title>
<path fill="none" stroke="midnightblue" d="M723.51,-112.32C741.07,-103.62 768.33,-90.12 788.53,-80.11"/>
<polygon fill="midnightblue" stroke="midnightblue" points="790.12,-83.23 797.53,-75.65 787.02,-76.96 790.12,-83.23"/>
</g>
<!-- Node26 -->
<g id="node26" class="node">
<title>Node26</title>
<g id="a_node26"><a xlink:title=" ">
<polygon fill="white" stroke="#bfbfbf" points="880.5,-56.5 880.5,-75.5 927.5,-75.5 927.5,-56.5 880.5,-56.5"/>
<text text-anchor="middle" x="904" y="-63.5" font-family="Helvetica,sans-Serif" font-size="10.00">queue</text>
</a>
</g>
</g>
<!-- Node14&#45;&gt;Node26 -->
<g id="edge28" class="edge">
<title>Node14&#45;&gt;Node26</title>
<path fill="none" stroke="midnightblue" d="M737.85,-112.46C769.26,-104.02 818.9,-90.62 870.29,-76.46"/>
<polygon fill="midnightblue" stroke="midnightblue" points="871.53,-79.74 880.24,-73.71 869.67,-73 871.53,-79.74"/>
</g>
<!-- Node15&#45;&gt;Node10 -->
<g id="edge20" class="edge">
<title>Node15&#45;&gt;Node10</title>
<path fill="none" stroke="midnightblue" d="M945.33,-57.76C942.53,-57.11 939.71,-56.51 937,-56 805.89,-31.33 770.85,-40.3 639,-20 636.47,-19.61 633.87,-19.19 631.25,-18.74"/>
<polygon fill="midnightblue" stroke="midnightblue" points="631.62,-15.26 621.16,-16.97 630.4,-22.15 631.62,-15.26"/>
</g>
<!-- Node15&#45;&gt;Node11 -->
<g id="edge22" class="edge">
<title>Node15&#45;&gt;Node11</title>
<path fill="none" stroke="midnightblue" d="M945.31,-57.87C942.51,-57.2 939.7,-56.57 937,-56 839.6,-35.59 813.75,-38.68 716,-20 714.93,-19.79 713.84,-19.58 712.74,-19.37"/>
<polygon fill="midnightblue" stroke="midnightblue" points="713.25,-15.9 702.75,-17.31 711.83,-22.75 713.25,-15.9"/>
</g>
<!-- Node16 -->
<g id="node16" class="node">
<title>Node16</title>
<g id="a_node16"><a xlink:title=" ">
<polygon fill="white" stroke="#bfbfbf" points="861,-0.5 861,-19.5 893,-19.5 893,-0.5 861,-0.5"/>
<text text-anchor="middle" x="877" y="-7.5" font-family="Helvetica,sans-Serif" font-size="10.00">set</text>
</a>
</g>
</g>
<!-- Node15&#45;&gt;Node16 -->
<g id="edge15" class="edge">
<title>Node15&#45;&gt;Node16</title>
<path fill="none" stroke="midnightblue" d="M956.74,-56.32C941.78,-47.82 918.75,-34.73 901.27,-24.8"/>
<polygon fill="midnightblue" stroke="midnightblue" points="902.65,-21.55 892.23,-19.65 899.19,-27.64 902.65,-21.55"/>
</g>
<!-- Node17 -->
<g id="node17" class="node">
<title>Node17</title>
<g id="a_node17"><a xlink:title=" ">
<polygon fill="white" stroke="#bfbfbf" points="911.5,-0.5 911.5,-19.5 958.5,-19.5 958.5,-0.5 911.5,-0.5"/>
<text text-anchor="middle" x="935" y="-7.5" font-family="Helvetica,sans-Serif" font-size="10.00">vector</text>
</a>
</g>
</g>
<!-- Node15&#45;&gt;Node17 -->
<g id="edge16" class="edge">
<title>Node15&#45;&gt;Node17</title>
<path fill="none" stroke="midnightblue" d="M965.89,-56.08C960.72,-48.53 953.15,-37.49 946.81,-28.23"/>
<polygon fill="midnightblue" stroke="midnightblue" points="949.54,-26.02 941,-19.75 943.76,-29.98 949.54,-26.02"/>
</g>
<!-- Node18 -->
<g id="node18" class="node">
<title>Node18</title>
<g id="a_node18"><a xlink:title=" ">
<polygon fill="white" stroke="#bfbfbf" points="977,-0.5 977,-19.5 1041,-19.5 1041,-0.5 977,-0.5"/>
<text text-anchor="middle" x="1009" y="-7.5" font-family="Helvetica,sans-Serif" font-size="10.00">algorithm</text>
</a>
</g>
</g>
<!-- Node15&#45;&gt;Node18 -->
<g id="edge17" class="edge">
<title>Node15&#45;&gt;Node18</title>
<path fill="none" stroke="midnightblue" d="M978.11,-56.08C983.28,-48.53 990.85,-37.49 997.19,-28.23"/>
<polygon fill="midnightblue" stroke="midnightblue" points="1000.24,-29.98 1003,-19.75 994.46,-26.02 1000.24,-29.98"/>
</g>
<!-- Node19 -->
<g id="node19" class="node">
<title>Node19</title>
<g id="a_node19"><a xlink:title=" ">
<polygon fill="white" stroke="#bfbfbf" points="1059,-0.5 1059,-19.5 1097,-19.5 1097,-0.5 1059,-0.5"/>
<text text-anchor="middle" x="1078" y="-7.5" font-family="Helvetica,sans-Serif" font-size="10.00">map</text>
</a>
</g>
</g>
<!-- Node15&#45;&gt;Node19 -->
<g id="edge18" class="edge">
<title>Node15&#45;&gt;Node19</title>
<path fill="none" stroke="midnightblue" d="M989.03,-56.32C1006.03,-47.66 1032.38,-34.24 1051.99,-24.25"/>
<polygon fill="midnightblue" stroke="midnightblue" points="1053.69,-27.31 1061.01,-19.65 1050.51,-21.08 1053.69,-27.31"/>
</g>
<!-- Node20 -->
<g id="node20" class="node">
<title>Node20</title>
<g id="a_node20"><a xlink:title=" ">
<polygon fill="white" stroke="#bfbfbf" points="1115,-0.5 1115,-19.5 1147,-19.5 1147,-0.5 1115,-0.5"/>
<text text-anchor="middle" x="1131" y="-7.5" font-family="Helvetica,sans-Serif" font-size="10.00">list</text>
</a>
</g>
</g>
<!-- Node15&#45;&gt;Node20 -->
<g id="edge19" class="edge">
<title>Node15&#45;&gt;Node20</title>
<path fill="none" stroke="midnightblue" d="M998,-56.45C1023.19,-48.13 1062.69,-34.98 1105.43,-20.15"/>
<polygon fill="midnightblue" stroke="midnightblue" points="1106.59,-23.45 1114.88,-16.86 1104.29,-16.84 1106.59,-23.45"/>
</g>
<!-- Node21 -->
<g id="node21" class="node">
<title>Node21</title>
<g id="a_node21"><a xlink:title=" ">
<polygon fill="white" stroke="#bfbfbf" points="1165,-0.5 1165,-19.5 1221,-19.5 1221,-0.5 1165,-0.5"/>
<text text-anchor="middle" x="1193" y="-7.5" font-family="Helvetica,sans-Serif" font-size="10.00">iomanip</text>
</a>
</g>
</g>
<!-- Node15&#45;&gt;Node21 -->
<g id="edge21" class="edge">
<title>Node15&#45;&gt;Node21</title>
<path fill="none" stroke="midnightblue" d="M998.66,-58.49C1037.64,-48.96 1110.39,-31.18 1154.98,-20.29"/>
<polygon fill="midnightblue" stroke="midnightblue" points="1155.97,-23.65 1164.85,-17.88 1154.31,-16.85 1155.97,-23.65"/>
</g>
<!-- Node22 -->
<g id="node22" class="node">
<title>Node22</title>
<g id="a_node22"><a xlink:title=" ">
<polygon fill="white" stroke="#bfbfbf" points="725,-0.5 725,-19.5 777,-19.5 777,-0.5 725,-0.5"/>
<text text-anchor="middle" x="751" y="-7.5" font-family="Helvetica,sans-Serif" font-size="10.00">cassert</text>
</a>
</g>
</g>
<!-- Node15&#45;&gt;Node22 -->
<g id="edge23" class="edge">
<title>Node15&#45;&gt;Node22</title>
<path fill="none" stroke="midnightblue" d="M945.26,-58.08C942.47,-57.37 939.68,-56.67 937,-56 873.45,-40.21 855.21,-36.62 787.27,-20.04"/>
<polygon fill="midnightblue" stroke="midnightblue" points="787.88,-16.59 777.34,-17.62 786.22,-23.39 787.88,-16.59"/>
</g>
<!-- Node23 -->
<g id="node23" class="node">
<title>Node23</title>
<g id="a_node23"><a xlink:title=" ">
<polygon fill="white" stroke="#bfbfbf" points="795.5,-0.5 795.5,-19.5 842.5,-19.5 842.5,-0.5 795.5,-0.5"/>
<text text-anchor="middle" x="819" y="-7.5" font-family="Helvetica,sans-Serif" font-size="10.00">cmath</text>
</a>
</g>
</g>
<!-- Node15&#45;&gt;Node23 -->
<g id="edge24" class="edge">
<title>Node15&#45;&gt;Node23</title>
<path fill="none" stroke="midnightblue" d="M947.76,-56.44C921.98,-47.35 881.04,-32.9 852.26,-22.74"/>
<polygon fill="midnightblue" stroke="midnightblue" points="853.22,-19.37 842.63,-19.34 850.89,-25.97 853.22,-19.37"/>
</g>
</g>
</svg>
