<?xml version="1.0" encoding="UTF-8" standalone="no"?>
<!DOCTYPE svg PUBLIC "-//W3C//DTD SVG 1.1//EN"
 "http://www.w3.org/Graphics/SVG/1.1/DTD/svg11.dtd">
<!-- Generated by graphviz version 2.40.1 (20161225.0304)
 -->
<!-- Title: cMeshAdaptPUMI.cpp Pages: 1 -->
<svg width="1118pt" height="252pt"
 viewBox="0.00 0.00 1117.50 252.00" xmlns="http://www.w3.org/2000/svg" xmlns:xlink="http://www.w3.org/1999/xlink">
<g id="graph0" class="graph" transform="scale(1 1) rotate(0) translate(4 248)">
<title>cMeshAdaptPUMI.cpp</title>
<polygon fill="#ffffff" stroke="transparent" points="-4,4 -4,-248 1113.5,-248 1113.5,4 -4,4"/>
<!-- Node0 -->
<g id="node1" class="node">
<title>Node0</title>
<polygon fill="#bfbfbf" stroke="#000000" points="412.5,-224.5 412.5,-243.5 528.5,-243.5 528.5,-224.5 412.5,-224.5"/>
<text text-anchor="middle" x="470.5" y="-231.5" font-family="Helvetica,sans-Serif" font-size="10.00" fill="#000000">cMeshAdaptPUMI.cpp</text>
</g>
<!-- Node1 -->
<g id="node2" class="node">
<title>Node1</title>
<polygon fill="#ffffff" stroke="#bfbfbf" points="0,-168.5 0,-187.5 41,-187.5 41,-168.5 0,-168.5"/>
<text text-anchor="middle" x="20.5" y="-175.5" font-family="Helvetica,sans-Serif" font-size="10.00" fill="#000000">gmi.h</text>
</g>
<!-- Node0&#45;&gt;Node1 -->
<g id="edge1" class="edge">
<title>Node0&#45;&gt;Node1</title>
<path fill="none" stroke="#191970" d="M412.4675,-231.5459C332.841,-227.3206 185.2979,-216.4204 51.3513,-187.756"/>
<polygon fill="#191970" stroke="#191970" points="51.838,-184.28 41.3221,-185.5705 50.3475,-191.1195 51.838,-184.28"/>
</g>
<!-- Node2 -->
<g id="node3" class="node">
<title>Node2</title>
<polygon fill="#ffffff" stroke="#bfbfbf" points="59.5,-168.5 59.5,-187.5 129.5,-187.5 129.5,-168.5 59.5,-168.5"/>
<text text-anchor="middle" x="94.5" y="-175.5" font-family="Helvetica,sans-Serif" font-size="10.00" fill="#000000">gmi_mesh.h</text>
</g>
<!-- Node0&#45;&gt;Node2 -->
<g id="edge2" class="edge">
<title>Node0&#45;&gt;Node2</title>
<path fill="none" stroke="#191970" d="M412.3836,-227.4796C348.059,-219.9195 241.1225,-206.3377 139.628,-188.0807"/>
<polygon fill="#191970" stroke="#191970" points="139.9734,-184.5862 129.5087,-186.2413 138.7215,-191.4734 139.9734,-184.5862"/>
</g>
<!-- Node3 -->
<g id="node4" class="node">
<title>Node3</title>
<polygon fill="#ffffff" stroke="#bfbfbf" points="148,-168.5 148,-187.5 209,-187.5 209,-168.5 148,-168.5"/>
<text text-anchor="middle" x="178.5" y="-175.5" font-family="Helvetica,sans-Serif" font-size="10.00" fill="#000000">gmi_null.h</text>
</g>
<!-- Node0&#45;&gt;Node3 -->
<g id="edge3" class="edge">
<title>Node0&#45;&gt;Node3</title>
<path fill="none" stroke="#191970" d="M412.4893,-224.5031C363.5775,-216.2476 291.5135,-203.5064 219.2266,-188.0463"/>
<polygon fill="#191970" stroke="#191970" points="219.5406,-184.5337 209.0275,-185.847 218.065,-191.3764 219.5406,-184.5337"/>
</g>
<!-- Node4 -->
<g id="node5" class="node">
<title>Node4</title>
<polygon fill="#ffffff" stroke="#bfbfbf" points="227.5,-168.5 227.5,-187.5 265.5,-187.5 265.5,-168.5 227.5,-168.5"/>
<text text-anchor="middle" x="246.5" y="-175.5" font-family="Helvetica,sans-Serif" font-size="10.00" fill="#000000">ma.h</text>
</g>
<!-- Node0&#45;&gt;Node4 -->
<g id="edge4" class="edge">
<title>Node0&#45;&gt;Node4</title>
<path fill="none" stroke="#191970" d="M423.3818,-224.4989C385.6201,-216.5346 331.1462,-204.264 275.3753,-188.0301"/>
<polygon fill="#191970" stroke="#191970" points="276.2677,-184.6443 265.6861,-185.1729 274.2878,-191.3585 276.2677,-184.6443"/>
</g>
<!-- Node5 -->
<g id="node6" class="node">
<title>Node5</title>
<polygon fill="#ffffff" stroke="#bfbfbf" points="283.5,-168.5 283.5,-187.5 349.5,-187.5 349.5,-168.5 283.5,-168.5"/>
<text text-anchor="middle" x="316.5" y="-175.5" font-family="Helvetica,sans-Serif" font-size="10.00" fill="#000000">maShape.h</text>
</g>
<!-- Node0&#45;&gt;Node5 -->
<g id="edge5" class="edge">
<title>Node0&#45;&gt;Node5</title>
<path fill="none" stroke="#191970" d="M444.0265,-224.3733C418.6403,-215.1419 380.1355,-201.1402 352.078,-190.9375"/>
<polygon fill="#191970" stroke="#191970" points="353.2222,-187.6293 342.6281,-187.5011 350.8299,-194.2079 353.2222,-187.6293"/>
</g>
<!-- Node6 -->
<g id="node7" class="node">
<title>Node6</title>
<polygon fill="#ffffff" stroke="#bfbfbf" points="368,-168.5 368,-187.5 429,-187.5 429,-168.5 368,-168.5"/>
<text text-anchor="middle" x="398.5" y="-175.5" font-family="Helvetica,sans-Serif" font-size="10.00" fill="#000000">apfMDS.h</text>
</g>
<!-- Node0&#45;&gt;Node6 -->
<g id="edge6" class="edge">
<title>Node0&#45;&gt;Node6</title>
<path fill="none" stroke="#191970" d="M457.9586,-224.2455C447.2213,-215.8943 431.5527,-203.7076 418.9953,-193.9408"/>
<polygon fill="#191970" stroke="#191970" points="420.9401,-191.0194 410.8977,-187.6427 416.6425,-196.5449 420.9401,-191.0194"/>
</g>
<!-- Node7 -->
<g id="node8" class="node">
<title>Node7</title>
<polygon fill="#ffffff" stroke="#bfbfbf" points="447,-168.5 447,-187.5 494,-187.5 494,-168.5 447,-168.5"/>
<text text-anchor="middle" x="470.5" y="-175.5" font-family="Helvetica,sans-Serif" font-size="10.00" fill="#000000">PCU.h</text>
</g>
<!-- Node0&#45;&gt;Node7 -->
<g id="edge7" class="edge">
<title>Node0&#45;&gt;Node7</title>
<path fill="none" stroke="#191970" d="M470.5,-224.2455C470.5,-216.9382 470.5,-206.6944 470.5,-197.7046"/>
<polygon fill="#191970" stroke="#191970" points="474.0001,-197.6426 470.5,-187.6427 467.0001,-197.6427 474.0001,-197.6426"/>
</g>
<!-- Node8 -->
<g id="node9" class="node">
<title>Node8</title>
<polygon fill="#ffffff" stroke="#bfbfbf" points="541.5,-112.5 541.5,-131.5 579.5,-131.5 579.5,-112.5 541.5,-112.5"/>
<text text-anchor="middle" x="560.5" y="-119.5" font-family="Helvetica,sans-Serif" font-size="10.00" fill="#000000">apf.h</text>
</g>
<!-- Node0&#45;&gt;Node8 -->
<g id="edge8" class="edge">
<title>Node0&#45;&gt;Node8</title>
<path fill="none" stroke="#191970" d="M490.3057,-224.4457C504.891,-216.5062 524.2415,-203.9445 536.5,-188 546.9376,-174.424 553.1464,-155.878 556.6248,-141.9021"/>
<polygon fill="#191970" stroke="#191970" points="560.1046,-142.377 558.8576,-131.8558 553.2713,-140.8582 560.1046,-142.377"/>
</g>
<!-- Node9 -->
<g id="node10" class="node">
<title>Node9</title>
<polygon fill="#ffffff" stroke="#bfbfbf" points="410.5,-.5 410.5,-19.5 464.5,-19.5 464.5,-.5 410.5,-.5"/>
<text text-anchor="middle" x="437.5" y="-7.5" font-family="Helvetica,sans-Serif" font-size="10.00" fill="#000000">iostream</text>
</g>
<!-- Node0&#45;&gt;Node9 -->
<g id="edge9" class="edge">
<title>Node0&#45;&gt;Node9</title>
<path fill="none" stroke="#191970" d="M479.8618,-224.3788C487.6234,-215.6808 498.075,-202.1096 502.5,-188 505.16,-179.5184 504.2236,-176.7202 502.5,-168 492.0044,-114.9005 463.4437,-57.2189 447.9057,-28.4689"/>
<polygon fill="#191970" stroke="#191970" points="450.8915,-26.6348 443.0038,-19.5612 444.7587,-30.0097 450.8915,-26.6348"/>
</g>
<!-- Node10 -->
<g id="node11" class="node">
<title>Node10</title>
<polygon fill="#ffffff" stroke="#bfbfbf" points="965.5,-.5 965.5,-19.5 1015.5,-19.5 1015.5,-.5 965.5,-.5"/>
<text text-anchor="middle" x="990.5" y="-7.5" font-family="Helvetica,sans-Serif" font-size="10.00" fill="#000000">fstream</text>
</g>
<!-- Node0&#45;&gt;Node10 -->
<g id="edge10" class="edge">
<title>Node0&#45;&gt;Node10</title>
<path fill="none" stroke="#191970" d="M528.9135,-228.677C641.7201,-217.2662 883.7961,-186.92 944.5,-132 974.3159,-105.025 984.9019,-56.7493 988.5892,-29.7182"/>
<polygon fill="#191970" stroke="#191970" points="992.092,-29.8983 989.783,-19.5582 985.1399,-29.0813 992.092,-29.8983"/>
</g>
<!-- Node11 -->
<g id="node12" class="node">
<title>Node11</title>
<g id="a_node12"><a xlink:href="_mesh_adapt_p_u_m_i_8h.html" target="_top" xlink:title="MeshAdaptPUMI.h">
<polygon fill="#ffffff" stroke="#000000" points="625.5,-168.5 625.5,-187.5 725.5,-187.5 725.5,-168.5 625.5,-168.5"/>
<text text-anchor="middle" x="675.5" y="-175.5" font-family="Helvetica,sans-Serif" font-size="10.00" fill="#000000">MeshAdaptPUMI.h</text>
</a>
</g>
</g>
<!-- Node0&#45;&gt;Node11 -->
<g id="edge11" class="edge">
<title>Node0&#45;&gt;Node11</title>
<path fill="none" stroke="#191970" d="M505.7408,-224.3733C540.4194,-214.9001 593.4883,-200.4032 631.0462,-190.1435"/>
<polygon fill="#191970" stroke="#191970" points="631.9949,-193.5126 640.7191,-187.5011 630.1502,-186.7601 631.9949,-193.5126"/>
</g>
<!-- Node26 -->
<g id="node27" class="node">
<title>Node26</title>
<polygon fill="#ffffff" stroke="#bfbfbf" points="991.5,-168.5 991.5,-187.5 1035.5,-187.5 1035.5,-168.5 991.5,-168.5"/>
<text text-anchor="middle" x="1013.5" y="-175.5" font-family="Helvetica,sans-Serif" font-size="10.00" fill="#000000">sam.h</text>
</g>
<!-- Node0&#45;&gt;Node26 -->
<g id="edge30" class="edge">
<title>Node0&#45;&gt;Node26</title>
<path fill="none" stroke="#191970" d="M528.7465,-232.1292C623.5098,-228.3236 816.6552,-217.3876 977.5,-188 978.7563,-187.7705 980.0322,-187.5171 981.3174,-187.2449"/>
<polygon fill="#191970" stroke="#191970" points="982.2726,-190.6151 991.1768,-184.8734 980.6355,-183.8092 982.2726,-190.6151"/>
</g>
<!-- Node27 -->
<g id="node28" class="node">
<title>Node27</title>
<polygon fill="#ffffff" stroke="#bfbfbf" points="1053.5,-168.5 1053.5,-187.5 1109.5,-187.5 1109.5,-168.5 1053.5,-168.5"/>
<text text-anchor="middle" x="1081.5" y="-175.5" font-family="Helvetica,sans-Serif" font-size="10.00" fill="#000000">samSz.h</text>
</g>
<!-- Node0&#45;&gt;Node27 -->
<g id="edge31" class="edge">
<title>Node0&#45;&gt;Node27</title>
<path fill="none" stroke="#191970" d="M528.7897,-232.8632C631.2253,-230.0959 850.1971,-220.7454 1043.2903,-187.9182"/>
<polygon fill="#191970" stroke="#191970" points="1044.0788,-191.334 1053.3381,-186.1846 1042.8885,-184.4359 1044.0788,-191.334"/>
</g>
<!-- Node11&#45;&gt;Node8 -->
<g id="edge27" class="edge">
<title>Node11&#45;&gt;Node8</title>
<path fill="none" stroke="#191970" d="M655.7308,-168.3733C637.2417,-159.3699 609.4341,-145.8288 588.6341,-135.7001"/>
<polygon fill="#191970" stroke="#191970" points="590.1521,-132.5464 579.6291,-131.315 587.0875,-138.8399 590.1521,-132.5464"/>
</g>
<!-- Node12 -->
<g id="node13" class="node">
<title>Node12</title>
<g id="a_node13"><a xlink:href="mesh_8h.html" target="_top" xlink:title="mesh.h">
<polygon fill="#ffffff" stroke="#000000" points="688,-56.5 688,-75.5 737,-75.5 737,-56.5 688,-56.5"/>
<text text-anchor="middle" x="712.5" y="-63.5" font-family="Helvetica,sans-Serif" font-size="10.00" fill="#000000">mesh.h</text>
</a>
</g>
</g>
<!-- Node11&#45;&gt;Node12 -->
<g id="edge12" class="edge">
<title>Node11&#45;&gt;Node12</title>
<path fill="none" stroke="#191970" d="M679.3191,-168.1899C682.8827,-158.9177 688.2701,-144.5903 692.5,-132 697.6833,-116.5718 703.0012,-98.9187 706.8493,-85.7538"/>
<polygon fill="#191970" stroke="#191970" points="710.2835,-86.4771 709.7007,-75.8983 703.5593,-84.5316 710.2835,-86.4771"/>
</g>
<!-- Node21 -->
<g id="node22" class="node">
<title>Node21</title>
<g id="a_node22"><a xlink:href="cmesh_tools_module_8h.html" target="_top" xlink:title="cmeshToolsModule.h">
<polygon fill="#ffffff" stroke="#000000" points="739.5,-112.5 739.5,-131.5 849.5,-131.5 849.5,-112.5 739.5,-112.5"/>
<text text-anchor="middle" x="794.5" y="-119.5" font-family="Helvetica,sans-Serif" font-size="10.00" fill="#000000">cmeshToolsModule.h</text>
</a>
</g>
</g>
<!-- Node11&#45;&gt;Node21 -->
<g id="edge23" class="edge">
<title>Node11&#45;&gt;Node21</title>
<path fill="none" stroke="#191970" d="M695.9568,-168.3733C714.9738,-159.4241 743.5175,-145.9917 764.9976,-135.8835"/>
<polygon fill="#191970" stroke="#191970" points="766.7522,-138.926 774.3101,-131.5011 763.7716,-132.5923 766.7522,-138.926"/>
</g>
<!-- Node24 -->
<g id="node25" class="node">
<title>Node24</title>
<polygon fill="#ffffff" stroke="#bfbfbf" points="867.5,-112.5 867.5,-131.5 935.5,-131.5 935.5,-112.5 867.5,-112.5"/>
<text text-anchor="middle" x="901.5" y="-119.5" font-family="Helvetica,sans-Serif" font-size="10.00" fill="#000000">apfMesh2.h</text>
</g>
<!-- Node11&#45;&gt;Node24 -->
<g id="edge28" class="edge">
<title>Node11&#45;&gt;Node24</title>
<path fill="none" stroke="#191970" d="M714.094,-168.4369C753.926,-158.567 815.9621,-143.1952 857.6306,-132.8703"/>
<polygon fill="#191970" stroke="#191970" points="858.6337,-136.2277 867.4983,-130.4252 856.95,-129.4331 858.6337,-136.2277"/>
</g>
<!-- Node25 -->
<g id="node26" class="node">
<title>Node25</title>
<polygon fill="#ffffff" stroke="#bfbfbf" points="597.5,-112.5 597.5,-131.5 683.5,-131.5 683.5,-112.5 597.5,-112.5"/>
<text text-anchor="middle" x="640.5" y="-119.5" font-family="Helvetica,sans-Serif" font-size="10.00" fill="#000000">apfNumbering.h</text>
</g>
<!-- Node11&#45;&gt;Node25 -->
<g id="edge29" class="edge">
<title>Node11&#45;&gt;Node25</title>
<path fill="none" stroke="#191970" d="M669.4035,-168.2455C664.5855,-160.5367 657.7249,-149.5598 651.8968,-140.2348"/>
<polygon fill="#191970" stroke="#191970" points="654.7947,-138.2677 646.5267,-131.6427 648.8587,-141.9777 654.7947,-138.2677"/>
</g>
<!-- Node12&#45;&gt;Node9 -->
<g id="edge18" class="edge">
<title>Node12&#45;&gt;Node9</title>
<path fill="none" stroke="#191970" d="M687.9334,-61.9467C646.121,-54.9038 558.2766,-39.4832 474.4958,-20.0926"/>
<polygon fill="#191970" stroke="#191970" points="475.1007,-16.6397 464.5664,-17.771 473.5069,-23.4559 475.1007,-16.6397"/>
</g>
<!-- Node12&#45;&gt;Node10 -->
<g id="edge20" class="edge">
<title>Node12&#45;&gt;Node10</title>
<path fill="none" stroke="#191970" d="M737.2941,-58.3457C740.38,-57.5001 743.5032,-56.6951 746.5,-56 835.6831,-35.3144 862.4865,-40.976 955.5115,-20.0119"/>
<polygon fill="#191970" stroke="#191970" points="956.3727,-23.4053 965.3354,-17.7556 954.8057,-16.5829 956.3727,-23.4053"/>
</g>
<!-- Node13 -->
<g id="node14" class="node">
<title>Node13</title>
<polygon fill="#ffffff" stroke="#bfbfbf" points="917.5,-.5 917.5,-19.5 947.5,-19.5 947.5,-.5 917.5,-.5"/>
<text text-anchor="middle" x="932.5" y="-7.5" font-family="Helvetica,sans-Serif" font-size="10.00" fill="#000000">set</text>
</g>
<!-- Node12&#45;&gt;Node13 -->
<g id="edge13" class="edge">
<title>Node12&#45;&gt;Node13</title>
<path fill="none" stroke="#191970" d="M737.3288,-58.4876C740.4087,-57.6177 743.521,-56.7681 746.5,-56 814.8513,-38.3751 836.3501,-41.9101 907.5196,-19.8842"/>
<polygon fill="#191970" stroke="#191970" points="908.9334,-23.1082 917.4148,-16.7586 906.825,-16.4332 908.9334,-23.1082"/>
</g>
<!-- Node14 -->
<g id="node15" class="node">
<title>Node14</title>
<polygon fill="#ffffff" stroke="#bfbfbf" points="482.5,-.5 482.5,-19.5 526.5,-19.5 526.5,-.5 482.5,-.5"/>
<text text-anchor="middle" x="504.5" y="-7.5" font-family="Helvetica,sans-Serif" font-size="10.00" fill="#000000">vector</text>
</g>
<!-- Node12&#45;&gt;Node14 -->
<g id="edge14" class="edge">
<title>Node12&#45;&gt;Node14</title>
<path fill="none" stroke="#191970" d="M687.7517,-60.0474C655.2274,-52.1214 596.1227,-37.3648 536.7223,-20.2451"/>
<polygon fill="#191970" stroke="#191970" points="537.3829,-16.7924 526.8036,-17.3647 535.4307,-23.5147 537.3829,-16.7924"/>
</g>
<!-- Node15 -->
<g id="node16" class="node">
<title>Node15</title>
<polygon fill="#ffffff" stroke="#bfbfbf" points="544.5,-.5 544.5,-19.5 600.5,-19.5 600.5,-.5 544.5,-.5"/>
<text text-anchor="middle" x="572.5" y="-7.5" font-family="Helvetica,sans-Serif" font-size="10.00" fill="#000000">algorithm</text>
</g>
<!-- Node12&#45;&gt;Node15 -->
<g id="edge15" class="edge">
<title>Node12&#45;&gt;Node15</title>
<path fill="none" stroke="#191970" d="M688.4331,-56.3733C665.6572,-47.2629 631.2656,-33.5062 605.851,-23.3404"/>
<polygon fill="#191970" stroke="#191970" points="606.8375,-19.9654 596.2528,-19.5011 604.2377,-26.4648 606.8375,-19.9654"/>
</g>
<!-- Node16 -->
<g id="node17" class="node">
<title>Node16</title>
<polygon fill="#ffffff" stroke="#bfbfbf" points="619,-.5 619,-19.5 654,-19.5 654,-.5 619,-.5"/>
<text text-anchor="middle" x="636.5" y="-7.5" font-family="Helvetica,sans-Serif" font-size="10.00" fill="#000000">map</text>
</g>
<!-- Node12&#45;&gt;Node16 -->
<g id="edge16" class="edge">
<title>Node12&#45;&gt;Node16</title>
<path fill="none" stroke="#191970" d="M699.2618,-56.2455C687.819,-47.814 671.0704,-35.4729 657.7525,-25.6598"/>
<polygon fill="#191970" stroke="#191970" points="659.7133,-22.757 649.5865,-19.6427 655.5609,-28.3924 659.7133,-22.757"/>
</g>
<!-- Node17 -->
<g id="node18" class="node">
<title>Node17</title>
<polygon fill="#ffffff" stroke="#bfbfbf" points="672,-.5 672,-19.5 701,-19.5 701,-.5 672,-.5"/>
<text text-anchor="middle" x="686.5" y="-7.5" font-family="Helvetica,sans-Serif" font-size="10.00" fill="#000000">list</text>
</g>
<!-- Node12&#45;&gt;Node17 -->
<g id="edge17" class="edge">
<title>Node12&#45;&gt;Node17</title>
<path fill="none" stroke="#191970" d="M707.9711,-56.2455C704.4666,-48.6973 699.5073,-38.0158 695.2377,-28.8197"/>
<polygon fill="#191970" stroke="#191970" points="698.3627,-27.2389 690.977,-19.6427 692.0136,-30.1867 698.3627,-27.2389"/>
</g>
<!-- Node18 -->
<g id="node19" class="node">
<title>Node18</title>
<polygon fill="#ffffff" stroke="#bfbfbf" points="719.5,-.5 719.5,-19.5 769.5,-19.5 769.5,-.5 719.5,-.5"/>
<text text-anchor="middle" x="744.5" y="-7.5" font-family="Helvetica,sans-Serif" font-size="10.00" fill="#000000">iomanip</text>
</g>
<!-- Node12&#45;&gt;Node18 -->
<g id="edge19" class="edge">
<title>Node12&#45;&gt;Node18</title>
<path fill="none" stroke="#191970" d="M718.074,-56.2455C722.4331,-48.617 728.6211,-37.7881 733.9133,-28.5267"/>
<polygon fill="#191970" stroke="#191970" points="737.0673,-30.0616 738.9899,-19.6427 730.9896,-26.5886 737.0673,-30.0616"/>
</g>
<!-- Node19 -->
<g id="node20" class="node">
<title>Node19</title>
<polygon fill="#ffffff" stroke="#bfbfbf" points="788,-.5 788,-19.5 837,-19.5 837,-.5 788,-.5"/>
<text text-anchor="middle" x="812.5" y="-7.5" font-family="Helvetica,sans-Serif" font-size="10.00" fill="#000000">cassert</text>
</g>
<!-- Node12&#45;&gt;Node19 -->
<g id="edge21" class="edge">
<title>Node12&#45;&gt;Node19</title>
<path fill="none" stroke="#191970" d="M729.9187,-56.2455C745.5485,-47.4928 768.7019,-34.527 786.5185,-24.5496"/>
<polygon fill="#191970" stroke="#191970" points="788.266,-27.5825 795.2809,-19.6427 784.8457,-21.475 788.266,-27.5825"/>
</g>
<!-- Node20 -->
<g id="node21" class="node">
<title>Node20</title>
<polygon fill="#ffffff" stroke="#bfbfbf" points="855.5,-.5 855.5,-19.5 899.5,-19.5 899.5,-.5 855.5,-.5"/>
<text text-anchor="middle" x="877.5" y="-7.5" font-family="Helvetica,sans-Serif" font-size="10.00" fill="#000000">cmath</text>
</g>
<!-- Node12&#45;&gt;Node20 -->
<g id="edge22" class="edge">
<title>Node12&#45;&gt;Node20</title>
<path fill="none" stroke="#191970" d="M737.2022,-57.6162C766.0816,-47.8147 813.9499,-31.5685 845.6113,-20.8228"/>
<polygon fill="#191970" stroke="#191970" points="846.9322,-24.0707 855.2768,-17.5424 844.6825,-17.442 846.9322,-24.0707"/>
</g>
<!-- Node21&#45;&gt;Node12 -->
<g id="edge26" class="edge">
<title>Node21&#45;&gt;Node12</title>
<path fill="none" stroke="#191970" d="M780.2167,-112.2455C767.753,-103.7337 749.4549,-91.2375 735.0208,-81.3801"/>
<polygon fill="#191970" stroke="#191970" points="736.8515,-78.392 726.6196,-75.6427 732.9038,-84.1726 736.8515,-78.392"/>
</g>
<!-- Node22 -->
<g id="node23" class="node">
<title>Node22</title>
<polygon fill="#ffffff" stroke="#bfbfbf" points="755.5,-56.5 755.5,-75.5 811.5,-75.5 811.5,-56.5 755.5,-56.5"/>
<text text-anchor="middle" x="783.5" y="-63.5" font-family="Helvetica,sans-Serif" font-size="10.00" fill="#000000">Python.h</text>
</g>
<!-- Node21&#45;&gt;Node22 -->
<g id="edge24" class="edge">
<title>Node21&#45;&gt;Node22</title>
<path fill="none" stroke="#191970" d="M792.5839,-112.2455C791.1486,-104.9382 789.1364,-94.6944 787.3705,-85.7046"/>
<polygon fill="#191970" stroke="#191970" points="790.756,-84.7805 785.3941,-75.6427 783.8873,-86.1298 790.756,-84.7805"/>
</g>
<!-- Node23 -->
<g id="node24" class="node">
<title>Node23</title>
<polygon fill="#ffffff" stroke="#bfbfbf" points="830,-56.5 830,-75.5 935,-75.5 935,-56.5 830,-56.5"/>
<text text-anchor="middle" x="882.5" y="-63.5" font-family="Helvetica,sans-Serif" font-size="10.00" fill="#000000">numpy/arrayobject.h</text>
</g>
<!-- Node21&#45;&gt;Node23 -->
<g id="edge25" class="edge">
<title>Node21&#45;&gt;Node23</title>
<path fill="none" stroke="#191970" d="M809.8284,-112.2455C823.3303,-103.6534 843.2122,-91.0014 858.7686,-81.1018"/>
<polygon fill="#191970" stroke="#191970" points="860.7897,-83.9643 867.3472,-75.6427 857.0315,-78.0587 860.7897,-83.9643"/>
</g>
</g>
</svg>
