<?xml version="1.0" encoding="UTF-8" standalone="no"?>
<!DOCTYPE svg PUBLIC "-//W3C//DTD SVG 1.1//EN"
 "http://www.w3.org/Graphics/SVG/1.1/DTD/svg11.dtd">
<!-- Generated by graphviz version 2.40.1 (20161225.0304)
 -->
<!-- Title: cSubsurfaceTransportCoefficientsModule.cpp Pages: 1 -->
<svg width="446pt" height="95pt"
 viewBox="0.00 0.00 446.00 95.00" xmlns="http://www.w3.org/2000/svg" xmlns:xlink="http://www.w3.org/1999/xlink">
<g id="graph0" class="graph" transform="scale(1 1) rotate(0) translate(4 91)">
<title>cSubsurfaceTransportCoefficientsModule.cpp</title>
<polygon fill="#ffffff" stroke="transparent" points="-4,4 -4,-91 442,-91 442,4 -4,4"/>
<!-- Node0 -->
<g id="node1" class="node">
<title>Node0</title>
<polygon fill="#bfbfbf" stroke="#000000" points="121.5,-56.5 121.5,-86.5 286.5,-86.5 286.5,-56.5 121.5,-56.5"/>
<text text-anchor="start" x="129.5" y="-74.5" font-family="Helvetica,sans-Serif" font-size="10.00" fill="#000000">cSubsurfaceTransportCoefficients</text>
<text text-anchor="middle" x="204" y="-63.5" font-family="Helvetica,sans-Serif" font-size="10.00" fill="#000000">Module.cpp</text>
</g>
<!-- Node1 -->
<g id="node2" class="node">
<title>Node1</title>
<polygon fill="#ffffff" stroke="#bfbfbf" points="0,-.5 0,-19.5 56,-19.5 56,-.5 0,-.5"/>
<text text-anchor="middle" x="28" y="-7.5" font-family="Helvetica,sans-Serif" font-size="10.00" fill="#000000">Python.h</text>
</g>
<!-- Node0&#45;&gt;Node1 -->
<g id="edge1" class="edge">
<title>Node0&#45;&gt;Node1</title>
<path fill="none" stroke="#191970" d="M160.9456,-56.4554C131.5795,-46.194 93.0855,-32.7429 65.0805,-22.9571"/>
<polygon fill="#191970" stroke="#191970" points="65.8686,-19.525 55.2738,-19.5303 63.5594,-26.1332 65.8686,-19.525"/>
</g>
<!-- Node2 -->
<g id="node3" class="node">
<title>Node2</title>
<polygon fill="#ffffff" stroke="#bfbfbf" points="74.5,-.5 74.5,-19.5 179.5,-19.5 179.5,-.5 74.5,-.5"/>
<text text-anchor="middle" x="127" y="-7.5" font-family="Helvetica,sans-Serif" font-size="10.00" fill="#000000">numpy/arrayobject.h</text>
</g>
<!-- Node0&#45;&gt;Node2 -->
<g id="edge2" class="edge">
<title>Node0&#45;&gt;Node2</title>
<path fill="none" stroke="#191970" d="M184.9663,-56.2977C173.4985,-47.1384 158.9038,-35.4816 147.2281,-26.1562"/>
<polygon fill="#191970" stroke="#191970" points="149.3266,-23.3529 139.3287,-19.8469 144.9581,-28.8225 149.3266,-23.3529"/>
</g>
<!-- Node3 -->
<g id="node4" class="node">
<title>Node3</title>
<g id="a_node4"><a xlink:href="_subsurface_transport_coefficients_8h.html" target="_top" xlink:title="SubsurfaceTransportCoefficients.h">
<polygon fill="#ffffff" stroke="#000000" points="198,-.5 198,-19.5 366,-19.5 366,-.5 198,-.5"/>
<text text-anchor="middle" x="282" y="-7.5" font-family="Helvetica,sans-Serif" font-size="10.00" fill="#000000">SubsurfaceTransportCoefficients.h</text>
</a>
</g>
</g>
<!-- Node0&#45;&gt;Node3 -->
<g id="edge3" class="edge">
<title>Node0&#45;&gt;Node3</title>
<path fill="none" stroke="#191970" d="M223.2809,-56.2977C234.8976,-47.1384 249.6818,-35.4816 261.5092,-26.1562"/>
<polygon fill="#191970" stroke="#191970" points="263.8256,-28.787 269.5112,-19.8469 259.4914,-23.2901 263.8256,-28.787"/>
</g>
<!-- Node4 -->
<g id="node5" class="node">
<title>Node4</title>
<polygon fill="#ffffff" stroke="#bfbfbf" points="384,-.5 384,-19.5 438,-19.5 438,-.5 384,-.5"/>
<text text-anchor="middle" x="411" y="-7.5" font-family="Helvetica,sans-Serif" font-size="10.00" fill="#000000">iostream</text>
</g>
<!-- Node0&#45;&gt;Node4 -->
<g id="edge4" class="edge">
<title>Node0&#45;&gt;Node4</title>
<path fill="none" stroke="#191970" d="M254.6379,-56.4554C291.6263,-45.4661 340.9275,-30.8186 374.203,-20.9324"/>
<polygon fill="#191970" stroke="#191970" points="375.3949,-24.2296 383.984,-18.0265 373.4013,-17.5195 375.3949,-24.2296"/>
</g>
</g>
</svg>
