<?xml version="1.0" encoding="UTF-8" standalone="no"?>
<!DOCTYPE svg PUBLIC "-//W3C//DTD SVG 1.1//EN"
 "http://www.w3.org/Graphics/SVG/1.1/DTD/svg11.dtd">
<!-- Generated by graphviz version 2.38.0 (20140413.2041)
 -->
<!-- Title: cSubsurfaceTransportCoefficientsModule.cpp Pages: 1 -->
<svg width="446pt" height="95pt"
 viewBox="0.00 0.00 446.00 95.00" xmlns="http://www.w3.org/2000/svg" xmlns:xlink="http://www.w3.org/1999/xlink">
<g id="graph0" class="graph" transform="scale(1 1) rotate(0) translate(4 91)">
<title>cSubsurfaceTransportCoefficientsModule.cpp</title>
<polygon fill="white" stroke="none" points="-4,4 -4,-91 442,-91 442,4 -4,4"/>
<!-- Node0 -->
<g id="node1" class="node"><title>Node0</title>
<polygon fill="#bfbfbf" stroke="black" points="121.5,-56.5 121.5,-86.5 286.5,-86.5 286.5,-56.5 121.5,-56.5"/>
<text text-anchor="start" x="129.5" y="-74.5" font-family="Helvetica,sans-Serif" font-size="10.00">cSubsurfaceTransportCoefficients</text>
<text text-anchor="middle" x="204" y="-63.5" font-family="Helvetica,sans-Serif" font-size="10.00">Module.cpp</text>
</g>
<!-- Node1 -->
<g id="node2" class="node"><title>Node1</title>
<polygon fill="white" stroke="#bfbfbf" points="0,-0.5 0,-19.5 56,-19.5 56,-0.5 0,-0.5"/>
<text text-anchor="middle" x="28" y="-7.5" font-family="Helvetica,sans-Serif" font-size="10.00">Python.h</text>
</g>
<!-- Node0&#45;&gt;Node1 -->
<g id="edge1" class="edge"><title>Node0&#45;&gt;Node1</title>
<path fill="none" stroke="midnightblue" d="M162.29,-56.3993C132.011,-46.1627 91.5088,-32.4703 62.9284,-22.8082"/>
<polygon fill="midnightblue" stroke="midnightblue" points="63.9469,-19.458 53.3526,-19.5709 61.705,-26.0893 63.9469,-19.458"/>
</g>
<!-- Node2 -->
<g id="node3" class="node"><title>Node2</title>
<polygon fill="white" stroke="#bfbfbf" points="74.5,-0.5 74.5,-19.5 179.5,-19.5 179.5,-0.5 74.5,-0.5"/>
<text text-anchor="middle" x="127" y="-7.5" font-family="Helvetica,sans-Serif" font-size="10.00">numpy/arrayobject.h</text>
</g>
<!-- Node0&#45;&gt;Node2 -->
<g id="edge2" class="edge"><title>Node0&#45;&gt;Node2</title>
<path fill="none" stroke="midnightblue" d="M185.752,-56.3993C173.871,-47.2185 158.393,-35.2579 146.306,-25.9182"/>
<polygon fill="midnightblue" stroke="midnightblue" points="148.257,-23.0028 138.204,-19.6578 143.977,-28.5418 148.257,-23.0028"/>
</g>
<!-- Node3 -->
<g id="node4" class="node"><title>Node3</title>
<g id="a_node4"><a xlink:href="_subsurface_transport_coefficients_8h.html" target="_top" xlink:title="SubsurfaceTransportCoefficients.h">
<polygon fill="white" stroke="black" points="198,-0.5 198,-19.5 366,-19.5 366,-0.5 198,-0.5"/>
<text text-anchor="middle" x="282" y="-7.5" font-family="Helvetica,sans-Serif" font-size="10.00">SubsurfaceTransportCoefficients.h</text>
</a>
</g>
</g>
<!-- Node0&#45;&gt;Node3 -->
<g id="edge3" class="edge"><title>Node0&#45;&gt;Node3</title>
<path fill="none" stroke="midnightblue" d="M222.485,-56.3993C234.52,-47.2185 250.2,-35.2579 262.443,-25.9182"/>
<polygon fill="midnightblue" stroke="midnightblue" points="264.822,-28.5056 270.65,-19.6578 260.577,-22.9401 264.822,-28.5056"/>
</g>
<!-- Node4 -->
<g id="node5" class="node"><title>Node4</title>
<polygon fill="white" stroke="#bfbfbf" points="384,-0.5 384,-19.5 438,-19.5 438,-0.5 384,-0.5"/>
<text text-anchor="middle" x="411" y="-7.5" font-family="Helvetica,sans-Serif" font-size="10.00">iostream</text>
</g>
<!-- Node0&#45;&gt;Node4 -->
<g id="edge4" class="edge"><title>Node0&#45;&gt;Node4</title>
<path fill="none" stroke="midnightblue" d="M252.794,-56.4747C289.84,-45.8261 340.009,-31.4058 373.837,-21.6822"/>
<polygon fill="midnightblue" stroke="midnightblue" points="375.134,-24.9511 383.778,-18.8247 373.2,-18.2235 375.134,-24.9511"/>
</g>
</g>
</svg>
