<?xml version="1.0" encoding="UTF-8" standalone="no"?>
<!DOCTYPE svg PUBLIC "-//W3C//DTD SVG 1.1//EN"
 "http://www.w3.org/Graphics/SVG/1.1/DTD/svg11.dtd">
<!-- Generated by graphviz version 2.38.0 (20140413.2041)
 -->
<!-- Title: cTwophaseDarcyCoefficientsModule.cpp Pages: 1 -->
<svg width="561pt" height="218pt"
 viewBox="0.00 0.00 561.00 218.00" xmlns="http://www.w3.org/2000/svg" xmlns:xlink="http://www.w3.org/1999/xlink">
<g id="graph0" class="graph" transform="scale(1 1) rotate(0) translate(4 214)">
<title>cTwophaseDarcyCoefficientsModule.cpp</title>
<polygon fill="white" stroke="none" points="-4,4 -4,-214 557,-214 557,4 -4,4"/>
<!-- Node0 -->
<g id="node1" class="node"><title>Node0</title>
<polygon fill="#bfbfbf" stroke="black" points="126,-179.5 126,-209.5 272,-209.5 272,-179.5 126,-179.5"/>
<text text-anchor="start" x="134" y="-197.5" font-family="Helvetica,sans-Serif" font-size="10.00">cTwophaseDarcyCoefficients</text>
<text text-anchor="middle" x="199" y="-186.5" font-family="Helvetica,sans-Serif" font-size="10.00">Module.cpp</text>
</g>
<!-- Node1 -->
<g id="node2" class="node"><title>Node1</title>
<polygon fill="white" stroke="#bfbfbf" points="0,-118 0,-137 56,-137 56,-118 0,-118"/>
<text text-anchor="middle" x="28" y="-125" font-family="Helvetica,sans-Serif" font-size="10.00">Python.h</text>
</g>
<!-- Node0&#45;&gt;Node1 -->
<g id="edge1" class="edge"><title>Node0&#45;&gt;Node1</title>
<path fill="none" stroke="midnightblue" d="M161.406,-179.482C134.518,-169.42 97.4884,-155.487 65,-143 63.1646,-142.295 61.2793,-141.566 59.378,-140.83"/>
<polygon fill="midnightblue" stroke="midnightblue" points="60.4826,-137.504 49.8942,-137.135 57.9415,-144.026 60.4826,-137.504"/>
</g>
<!-- Node2 -->
<g id="node3" class="node"><title>Node2</title>
<polygon fill="white" stroke="#bfbfbf" points="74.5,-118 74.5,-137 179.5,-137 179.5,-118 74.5,-118"/>
<text text-anchor="middle" x="127" y="-125" font-family="Helvetica,sans-Serif" font-size="10.00">numpy/arrayobject.h</text>
</g>
<!-- Node0&#45;&gt;Node2 -->
<g id="edge2" class="edge"><title>Node0&#45;&gt;Node2</title>
<path fill="none" stroke="midnightblue" d="M183.377,-179.396C171.817,-168.96 156.078,-154.751 144.167,-143.998"/>
<polygon fill="midnightblue" stroke="midnightblue" points="146.399,-141.298 136.631,-137.195 141.708,-146.494 146.399,-141.298"/>
</g>
<!-- Node3 -->
<g id="node4" class="node"><title>Node3</title>
<g id="a_node4"><a xlink:href="c_twophase_darcy_coefficients_module_8h.html" target="_top" xlink:title="cTwophaseDarcyCoefficients\lModule.h">
<polygon fill="white" stroke="black" points="198,-112.5 198,-142.5 344,-142.5 344,-112.5 198,-112.5"/>
<text text-anchor="start" x="206" y="-130.5" font-family="Helvetica,sans-Serif" font-size="10.00">cTwophaseDarcyCoefficients</text>
<text text-anchor="middle" x="271" y="-119.5" font-family="Helvetica,sans-Serif" font-size="10.00">Module.h</text>
</a>
</g>
</g>
<!-- Node0&#45;&gt;Node3 -->
<g id="edge3" class="edge"><title>Node0&#45;&gt;Node3</title>
<path fill="none" stroke="midnightblue" d="M214.623,-179.396C224.341,-170.623 237.013,-159.183 247.881,-149.371"/>
<polygon fill="midnightblue" stroke="midnightblue" points="250.33,-151.876 255.408,-142.577 245.639,-146.68 250.33,-151.876"/>
</g>
<!-- Node7 -->
<g id="node8" class="node"><title>Node7</title>
<polygon fill="white" stroke="#bfbfbf" points="499,-0.5 499,-19.5 553,-19.5 553,-0.5 499,-0.5"/>
<text text-anchor="middle" x="526" y="-7.5" font-family="Helvetica,sans-Serif" font-size="10.00">iostream</text>
</g>
<!-- Node0&#45;&gt;Node7 -->
<g id="edge11" class="edge"><title>Node0&#45;&gt;Node7</title>
<path fill="none" stroke="midnightblue" d="M257.173,-179.406C286.818,-171.001 322.87,-158.852 353,-143 415.991,-109.86 479.966,-54.0048 509.359,-26.8182"/>
<polygon fill="midnightblue" stroke="midnightblue" points="512.106,-29.0417 517.019,-19.6547 507.324,-23.9292 512.106,-29.0417"/>
</g>
<!-- Node4 -->
<g id="node5" class="node"><title>Node4</title>
<g id="a_node5"><a xlink:href="density_relations_8h.html" target="_top" xlink:title="densityRelations.h">
<polygon fill="white" stroke="black" points="68,-0.5 68,-19.5 166,-19.5 166,-0.5 68,-0.5"/>
<text text-anchor="middle" x="117" y="-7.5" font-family="Helvetica,sans-Serif" font-size="10.00">densityRelations.h</text>
</a>
</g>
</g>
<!-- Node3&#45;&gt;Node4 -->
<g id="edge4" class="edge"><title>Node3&#45;&gt;Node4</title>
<path fill="none" stroke="midnightblue" d="M252.117,-112.337C222.856,-90.392 166.826,-48.3698 136.937,-25.953"/>
<polygon fill="midnightblue" stroke="midnightblue" points="138.659,-22.8695 128.559,-19.6695 134.459,-28.4695 138.659,-22.8695"/>
</g>
<!-- Node5 -->
<g id="node6" class="node"><title>Node5</title>
<g id="a_node6"><a xlink:href="psk_relations_8h.html" target="_top" xlink:title="pskRelations.h">
<polygon fill="white" stroke="black" points="230,-56.5 230,-75.5 312,-75.5 312,-56.5 230,-56.5"/>
<text text-anchor="middle" x="271" y="-63.5" font-family="Helvetica,sans-Serif" font-size="10.00">pskRelations.h</text>
</a>
</g>
</g>
<!-- Node3&#45;&gt;Node5 -->
<g id="edge5" class="edge"><title>Node3&#45;&gt;Node5</title>
<path fill="none" stroke="midnightblue" d="M271,-112.399C271,-104.466 271,-94.458 271,-85.8583"/>
<polygon fill="midnightblue" stroke="midnightblue" points="274.5,-85.6577 271,-75.6578 267.5,-85.6578 274.5,-85.6577"/>
</g>
<!-- Node5&#45;&gt;Node4 -->
<g id="edge9" class="edge"><title>Node5&#45;&gt;Node4</title>
<path fill="none" stroke="midnightblue" d="M246.598,-56.4435C220.803,-47.3986 179.923,-33.064 150.982,-22.9158"/>
<polygon fill="midnightblue" stroke="midnightblue" points="151.882,-19.5226 141.288,-19.5164 149.566,-26.1283 151.882,-19.5226"/>
</g>
<!-- Node6 -->
<g id="node7" class="node"><title>Node6</title>
<polygon fill="white" stroke="#bfbfbf" points="184,-0.5 184,-19.5 228,-19.5 228,-0.5 184,-0.5"/>
<text text-anchor="middle" x="206" y="-7.5" font-family="Helvetica,sans-Serif" font-size="10.00">cmath</text>
</g>
<!-- Node5&#45;&gt;Node6 -->
<g id="edge6" class="edge"><title>Node5&#45;&gt;Node6</title>
<path fill="none" stroke="midnightblue" d="M260.557,-56.324C250.854,-48.2631 236.185,-36.0765 224.5,-26.3695"/>
<polygon fill="midnightblue" stroke="midnightblue" points="226.562,-23.532 216.633,-19.8339 222.089,-28.9163 226.562,-23.532"/>
</g>
<!-- Node5&#45;&gt;Node7 -->
<g id="edge7" class="edge"><title>Node5&#45;&gt;Node7</title>
<path fill="none" stroke="midnightblue" d="M312.283,-57.0583C354.325,-48.8501 421.628,-35.3804 488.97,-20.1624"/>
<polygon fill="midnightblue" stroke="midnightblue" points="489.927,-23.5341 498.903,-17.9048 488.376,-16.7082 489.927,-23.5341"/>
</g>
<!-- Node8 -->
<g id="node9" class="node"><title>Node8</title>
<polygon fill="white" stroke="#bfbfbf" points="246.5,-0.5 246.5,-19.5 295.5,-19.5 295.5,-0.5 246.5,-0.5"/>
<text text-anchor="middle" x="271" y="-7.5" font-family="Helvetica,sans-Serif" font-size="10.00">cassert</text>
</g>
<!-- Node5&#45;&gt;Node8 -->
<g id="edge8" class="edge"><title>Node5&#45;&gt;Node8</title>
<path fill="none" stroke="midnightblue" d="M271,-56.083C271,-49.0059 271,-38.8611 271,-29.9865"/>
<polygon fill="midnightblue" stroke="midnightblue" points="274.5,-29.751 271,-19.7511 267.5,-29.7511 274.5,-29.751"/>
</g>
<!-- Node9 -->
<g id="node10" class="node"><title>Node9</title>
<g id="a_node10"><a xlink:href="_subsurface_transport_coefficients_8h.html" target="_top" xlink:title="SubsurfaceTransportCoefficients.h">
<polygon fill="white" stroke="black" points="313,-0.5 313,-19.5 481,-19.5 481,-0.5 313,-0.5"/>
<text text-anchor="middle" x="397" y="-7.5" font-family="Helvetica,sans-Serif" font-size="10.00">SubsurfaceTransportCoefficients.h</text>
</a>
</g>
</g>
<!-- Node5&#45;&gt;Node9 -->
<g id="edge10" class="edge"><title>Node5&#45;&gt;Node9</title>
<path fill="none" stroke="midnightblue" d="M290.965,-56.4435C311.609,-47.5961 344.063,-33.6875 367.632,-23.5865"/>
<polygon fill="midnightblue" stroke="midnightblue" points="369.316,-26.6727 377.128,-19.5164 366.558,-20.2387 369.316,-26.6727"/>
</g>
</g>
</svg>
