<?xml version="1.0" encoding="UTF-8" standalone="no"?>
<!DOCTYPE svg PUBLIC "-//W3C//DTD SVG 1.1//EN"
 "http://www.w3.org/Graphics/SVG/1.1/DTD/svg11.dtd">
<!-- Generated by graphviz version 2.38.0 (20140413.2041)
 -->
<!-- Title: cTwophaseDarcyCoefficientsModule.h Pages: 1 -->
<svg width="493pt" height="151pt"
 viewBox="0.00 0.00 493.00 151.00" xmlns="http://www.w3.org/2000/svg" xmlns:xlink="http://www.w3.org/1999/xlink">
<g id="graph0" class="graph" transform="scale(1 1) rotate(0) translate(4 147)">
<title>cTwophaseDarcyCoefficientsModule.h</title>
<polygon fill="white" stroke="none" points="-4,4 -4,-147 489,-147 489,4 -4,4"/>
<!-- Node0 -->
<g id="node1" class="node"><title>Node0</title>
<polygon fill="#bfbfbf" stroke="black" points="30,-112.5 30,-142.5 176,-142.5 176,-112.5 30,-112.5"/>
<text text-anchor="start" x="38" y="-130.5" font-family="Helvetica,sans-Serif" font-size="10.00">cTwophaseDarcyCoefficients</text>
<text text-anchor="middle" x="103" y="-119.5" font-family="Helvetica,sans-Serif" font-size="10.00">Module.h</text>
</g>
<!-- Node1 -->
<g id="node2" class="node"><title>Node1</title>
<g id="a_node2"><a xlink:href="density_relations_8h.html" target="_top" xlink:title="densityRelations.h">
<polygon fill="white" stroke="black" points="0,-0.5 0,-19.5 98,-19.5 98,-0.5 0,-0.5"/>
<text text-anchor="middle" x="49" y="-7.5" font-family="Helvetica,sans-Serif" font-size="10.00">densityRelations.h</text>
</a>
</g>
</g>
<!-- Node0&#45;&gt;Node1 -->
<g id="edge1" class="edge"><title>Node0&#45;&gt;Node1</title>
<path fill="none" stroke="midnightblue" d="M96.3785,-112.337C86.5606,-91.3379 68.1479,-51.9551 57.3959,-28.9579"/>
<polygon fill="midnightblue" stroke="midnightblue" points="60.4592,-27.2459 53.0533,-19.6695 54.118,-30.2107 60.4592,-27.2459"/>
</g>
<!-- Node2 -->
<g id="node3" class="node"><title>Node2</title>
<g id="a_node3"><a xlink:href="psk_relations_8h.html" target="_top" xlink:title="pskRelations.h">
<polygon fill="white" stroke="black" points="130,-56.5 130,-75.5 212,-75.5 212,-56.5 130,-56.5"/>
<text text-anchor="middle" x="171" y="-63.5" font-family="Helvetica,sans-Serif" font-size="10.00">pskRelations.h</text>
</a>
</g>
</g>
<!-- Node0&#45;&gt;Node2 -->
<g id="edge2" class="edge"><title>Node0&#45;&gt;Node2</title>
<path fill="none" stroke="midnightblue" d="M119.115,-112.399C129.404,-103.397 142.747,-91.7214 153.326,-82.4652"/>
<polygon fill="midnightblue" stroke="midnightblue" points="155.884,-84.8769 161.105,-75.6578 151.275,-79.6088 155.884,-84.8769"/>
</g>
<!-- Node2&#45;&gt;Node1 -->
<g id="edge6" class="edge"><title>Node2&#45;&gt;Node1</title>
<path fill="none" stroke="midnightblue" d="M151.669,-56.4435C131.68,-47.5961 100.257,-33.6875 77.4361,-23.5865"/>
<polygon fill="midnightblue" stroke="midnightblue" points="78.8018,-20.3635 68.2408,-19.5164 75.9685,-26.7645 78.8018,-20.3635"/>
</g>
<!-- Node3 -->
<g id="node4" class="node"><title>Node3</title>
<polygon fill="white" stroke="#bfbfbf" points="116,-0.5 116,-19.5 160,-19.5 160,-0.5 116,-0.5"/>
<text text-anchor="middle" x="138" y="-7.5" font-family="Helvetica,sans-Serif" font-size="10.00">cmath</text>
</g>
<!-- Node2&#45;&gt;Node3 -->
<g id="edge3" class="edge"><title>Node2&#45;&gt;Node3</title>
<path fill="none" stroke="midnightblue" d="M165.551,-56.083C160.986,-48.6127 154.332,-37.7244 148.707,-28.5199"/>
<polygon fill="midnightblue" stroke="midnightblue" points="151.549,-26.4588 143.348,-19.7511 145.576,-30.109 151.549,-26.4588"/>
</g>
<!-- Node4 -->
<g id="node5" class="node"><title>Node4</title>
<polygon fill="white" stroke="#bfbfbf" points="178,-0.5 178,-19.5 232,-19.5 232,-0.5 178,-0.5"/>
<text text-anchor="middle" x="205" y="-7.5" font-family="Helvetica,sans-Serif" font-size="10.00">iostream</text>
</g>
<!-- Node2&#45;&gt;Node4 -->
<g id="edge4" class="edge"><title>Node2&#45;&gt;Node4</title>
<path fill="none" stroke="midnightblue" d="M176.614,-56.083C181.367,-48.5341 188.318,-37.4948 194.152,-28.2298"/>
<polygon fill="midnightblue" stroke="midnightblue" points="197.124,-30.0783 199.49,-19.7511 191.2,-26.3486 197.124,-30.0783"/>
</g>
<!-- Node5 -->
<g id="node6" class="node"><title>Node5</title>
<polygon fill="white" stroke="#bfbfbf" points="250.5,-0.5 250.5,-19.5 299.5,-19.5 299.5,-0.5 250.5,-0.5"/>
<text text-anchor="middle" x="275" y="-7.5" font-family="Helvetica,sans-Serif" font-size="10.00">cassert</text>
</g>
<!-- Node2&#45;&gt;Node5 -->
<g id="edge5" class="edge"><title>Node2&#45;&gt;Node5</title>
<path fill="none" stroke="midnightblue" d="M187.709,-56.324C204.312,-47.7034 230.002,-34.3643 249.22,-24.3855"/>
<polygon fill="midnightblue" stroke="midnightblue" points="251.07,-27.3689 258.332,-19.6545 247.844,-21.1565 251.07,-27.3689"/>
</g>
<!-- Node6 -->
<g id="node7" class="node"><title>Node6</title>
<g id="a_node7"><a xlink:href="_subsurface_transport_coefficients_8h.html" target="_top" xlink:title="SubsurfaceTransportCoefficients.h">
<polygon fill="white" stroke="black" points="317,-0.5 317,-19.5 485,-19.5 485,-0.5 317,-0.5"/>
<text text-anchor="middle" x="401" y="-7.5" font-family="Helvetica,sans-Serif" font-size="10.00">SubsurfaceTransportCoefficients.h</text>
</a>
</g>
</g>
<!-- Node2&#45;&gt;Node6 -->
<g id="edge7" class="edge"><title>Node2&#45;&gt;Node6</title>
<path fill="none" stroke="midnightblue" d="M207.444,-56.4435C247.399,-47.0629 311.587,-31.9926 354.985,-21.8036"/>
<polygon fill="midnightblue" stroke="midnightblue" points="355.791,-25.2095 364.726,-19.5164 354.191,-18.3948 355.791,-25.2095"/>
</g>
</g>
</svg>
