<?xml version="1.0" encoding="UTF-8" standalone="no"?>
<!DOCTYPE svg PUBLIC "-//W3C//DTD SVG 1.1//EN"
 "http://www.w3.org/Graphics/SVG/1.1/DTD/svg11.dtd">
<!-- Generated by graphviz version 2.40.1 (20161225.0304)
 -->
<!-- Title: cTwophaseDarcyCoefficientsModule.h Pages: 1 -->
<svg width="493pt" height="151pt"
 viewBox="0.00 0.00 493.00 151.00" xmlns="http://www.w3.org/2000/svg" xmlns:xlink="http://www.w3.org/1999/xlink">
<g id="graph0" class="graph" transform="scale(1 1) rotate(0) translate(4 147)">
<title>cTwophaseDarcyCoefficientsModule.h</title>
<polygon fill="#ffffff" stroke="transparent" points="-4,4 -4,-147 489,-147 489,4 -4,4"/>
<!-- Node0 -->
<g id="node1" class="node">
<title>Node0</title>
<polygon fill="#bfbfbf" stroke="#000000" points="53,-112.5 53,-142.5 199,-142.5 199,-112.5 53,-112.5"/>
<text text-anchor="start" x="61" y="-130.5" font-family="Helvetica,sans-Serif" font-size="10.00" fill="#000000">cTwophaseDarcyCoefficients</text>
<text text-anchor="middle" x="126" y="-119.5" font-family="Helvetica,sans-Serif" font-size="10.00" fill="#000000">Module.h</text>
</g>
<!-- Node1 -->
<g id="node2" class="node">
<title>Node1</title>
<g id="a_node2"><a xlink:href="density_relations_8h.html" target="_top" xlink:title="densityRelations.h">
<polygon fill="#ffffff" stroke="#000000" points="0,-.5 0,-19.5 98,-19.5 98,-.5 0,-.5"/>
<text text-anchor="middle" x="49" y="-7.5" font-family="Helvetica,sans-Serif" font-size="10.00" fill="#000000">densityRelations.h</text>
</a>
</g>
</g>
<!-- Node0&#45;&gt;Node1 -->
<g id="edge1" class="edge">
<title>Node0&#45;&gt;Node1</title>
<path fill="none" stroke="#191970" d="M115.9336,-112.1389C101.7454,-90.4881 75.9169,-51.0745 60.8301,-28.0525"/>
<polygon fill="#191970" stroke="#191970" points="63.6731,-26.0051 55.2645,-19.5595 57.8183,-29.842 63.6731,-26.0051"/>
</g>
<!-- Node2 -->
<g id="node3" class="node">
<title>Node2</title>
<g id="a_node3"><a xlink:href="psk_relations_8h.html" target="_top" xlink:title="pskRelations.h">
<polygon fill="#ffffff" stroke="#000000" points="130,-56.5 130,-75.5 212,-75.5 212,-56.5 130,-56.5"/>
<text text-anchor="middle" x="171" y="-63.5" font-family="Helvetica,sans-Serif" font-size="10.00" fill="#000000">pskRelations.h</text>
</a>
</g>
</g>
<!-- Node0&#45;&gt;Node2 -->
<g id="edge2" class="edge">
<title>Node0&#45;&gt;Node2</title>
<path fill="none" stroke="#191970" d="M137.1236,-112.2977C143.3701,-103.7609 151.204,-93.0545 157.7647,-84.0883"/>
<polygon fill="#191970" stroke="#191970" points="160.7144,-85.984 163.7949,-75.8469 155.0652,-81.8505 160.7144,-85.984"/>
</g>
<!-- Node2&#45;&gt;Node1 -->
<g id="edge6" class="edge">
<title>Node2&#45;&gt;Node1</title>
<path fill="none" stroke="#191970" d="M150.0275,-56.3733C130.4433,-47.3838 101.0039,-33.8706 78.949,-23.7471"/>
<polygon fill="#191970" stroke="#191970" points="80.2473,-20.4919 69.6989,-19.5011 77.3271,-26.8538 80.2473,-20.4919"/>
</g>
<!-- Node3 -->
<g id="node4" class="node">
<title>Node3</title>
<polygon fill="#ffffff" stroke="#bfbfbf" points="116,-.5 116,-19.5 160,-19.5 160,-.5 116,-.5"/>
<text text-anchor="middle" x="138" y="-7.5" font-family="Helvetica,sans-Serif" font-size="10.00" fill="#000000">cmath</text>
</g>
<!-- Node2&#45;&gt;Node3 -->
<g id="edge3" class="edge">
<title>Node2&#45;&gt;Node3</title>
<path fill="none" stroke="#191970" d="M165.2518,-56.2455C160.7565,-48.617 154.3752,-37.7881 148.9175,-28.5267"/>
<polygon fill="#191970" stroke="#191970" points="151.7747,-26.4811 143.6823,-19.6427 145.7439,-30.035 151.7747,-26.4811"/>
</g>
<!-- Node4 -->
<g id="node5" class="node">
<title>Node4</title>
<polygon fill="#ffffff" stroke="#bfbfbf" points="178,-.5 178,-19.5 232,-19.5 232,-.5 178,-.5"/>
<text text-anchor="middle" x="205" y="-7.5" font-family="Helvetica,sans-Serif" font-size="10.00" fill="#000000">iostream</text>
</g>
<!-- Node2&#45;&gt;Node4 -->
<g id="edge4" class="edge">
<title>Node2&#45;&gt;Node4</title>
<path fill="none" stroke="#191970" d="M176.9223,-56.2455C181.6027,-48.5367 188.2673,-37.5598 193.9289,-28.2348"/>
<polygon fill="#191970" stroke="#191970" points="196.9475,-30.007 199.1455,-19.6427 190.9639,-26.3741 196.9475,-30.007"/>
</g>
<!-- Node5 -->
<g id="node6" class="node">
<title>Node5</title>
<polygon fill="#ffffff" stroke="#bfbfbf" points="250.5,-.5 250.5,-19.5 299.5,-19.5 299.5,-.5 250.5,-.5"/>
<text text-anchor="middle" x="275" y="-7.5" font-family="Helvetica,sans-Serif" font-size="10.00" fill="#000000">cassert</text>
</g>
<!-- Node2&#45;&gt;Node5 -->
<g id="edge5" class="edge">
<title>Node2&#45;&gt;Node5</title>
<path fill="none" stroke="#191970" d="M189.1154,-56.2455C205.445,-47.4527 229.671,-34.4079 248.2339,-24.4125"/>
<polygon fill="#191970" stroke="#191970" points="249.9468,-27.4654 257.0922,-19.6427 246.6281,-21.3021 249.9468,-27.4654"/>
</g>
<!-- Node6 -->
<g id="node7" class="node">
<title>Node6</title>
<g id="a_node7"><a xlink:href="_subsurface_transport_coefficients_8h.html" target="_top" xlink:title="SubsurfaceTransportCoefficients.h">
<polygon fill="#ffffff" stroke="#000000" points="317,-.5 317,-19.5 485,-19.5 485,-.5 317,-.5"/>
<text text-anchor="middle" x="401" y="-7.5" font-family="Helvetica,sans-Serif" font-size="10.00" fill="#000000">SubsurfaceTransportCoefficients.h</text>
</a>
</g>
</g>
<!-- Node2&#45;&gt;Node6 -->
<g id="edge7" class="edge">
<title>Node2&#45;&gt;Node6</title>
<path fill="none" stroke="#191970" d="M210.2771,-56.4369C249.4744,-46.8932 309.8,-32.2052 352.0835,-21.9101"/>
<polygon fill="#191970" stroke="#191970" points="352.9968,-25.2901 361.8849,-19.5237 351.3408,-18.4888 352.9968,-25.2901"/>
</g>
</g>
</svg>
