<?xml version="1.0" encoding="UTF-8" standalone="no"?>
<!DOCTYPE svg PUBLIC "-//W3C//DTD SVG 1.1//EN"
 "http://www.w3.org/Graphics/SVG/1.1/DTD/svg11.dtd">
<!-- Generated by graphviz version 2.40.1 (20161225.0304)
 -->
<!-- Title: cTwophaseDarcyCoefficientsModule.cpp Pages: 1 -->
<svg width="561pt" height="218pt"
 viewBox="0.00 0.00 561.00 218.00" xmlns="http://www.w3.org/2000/svg" xmlns:xlink="http://www.w3.org/1999/xlink">
<g id="graph0" class="graph" transform="scale(1 1) rotate(0) translate(4 214)">
<title>cTwophaseDarcyCoefficientsModule.cpp</title>
<polygon fill="#ffffff" stroke="transparent" points="-4,4 -4,-214 557,-214 557,4 -4,4"/>
<!-- Node0 -->
<g id="node1" class="node">
<title>Node0</title>
<polygon fill="#bfbfbf" stroke="#000000" points="126,-179.5 126,-209.5 272,-209.5 272,-179.5 126,-179.5"/>
<text text-anchor="start" x="134" y="-197.5" font-family="Helvetica,sans-Serif" font-size="10.00" fill="#000000">cTwophaseDarcyCoefficients</text>
<text text-anchor="middle" x="199" y="-186.5" font-family="Helvetica,sans-Serif" font-size="10.00" fill="#000000">Module.cpp</text>
</g>
<!-- Node1 -->
<g id="node2" class="node">
<title>Node1</title>
<polygon fill="#ffffff" stroke="#bfbfbf" points="0,-118 0,-137 56,-137 56,-118 0,-118"/>
<text text-anchor="middle" x="28" y="-125" font-family="Helvetica,sans-Serif" font-size="10.00" fill="#000000">Python.h</text>
</g>
<!-- Node0&#45;&gt;Node1 -->
<g id="edge1" class="edge">
<title>Node0&#45;&gt;Node1</title>
<path fill="none" stroke="#191970" d="M159.0071,-179.4861C132.3068,-169.3749 96.4543,-155.6295 65,-143 63.4004,-142.3577 61.7643,-141.6948 60.1136,-141.0211"/>
<polygon fill="#191970" stroke="#191970" points="61.2332,-137.6968 50.6543,-137.1158 58.5618,-144.1671 61.2332,-137.6968"/>
</g>
<!-- Node2 -->
<g id="node3" class="node">
<title>Node2</title>
<polygon fill="#ffffff" stroke="#bfbfbf" points="74.5,-118 74.5,-137 179.5,-137 179.5,-118 74.5,-118"/>
<text text-anchor="middle" x="127" y="-125" font-family="Helvetica,sans-Serif" font-size="10.00" fill="#000000">numpy/arrayobject.h</text>
</g>
<!-- Node0&#45;&gt;Node2 -->
<g id="edge2" class="edge">
<title>Node0&#45;&gt;Node2</title>
<path fill="none" stroke="#191970" d="M182.6621,-179.2967C171.3352,-168.7564 156.2624,-154.7303 144.6586,-143.9323"/>
<polygon fill="#191970" stroke="#191970" points="146.9731,-141.3051 137.268,-137.055 142.2044,-146.4296 146.9731,-141.3051"/>
</g>
<!-- Node3 -->
<g id="node4" class="node">
<title>Node3</title>
<g id="a_node4"><a xlink:href="c_twophase_darcy_coefficients_module_8h.html" target="_top" xlink:title="cTwophaseDarcyCoefficients\lModule.h">
<polygon fill="#ffffff" stroke="#000000" points="198,-112.5 198,-142.5 344,-142.5 344,-112.5 198,-112.5"/>
<text text-anchor="start" x="206" y="-130.5" font-family="Helvetica,sans-Serif" font-size="10.00" fill="#000000">cTwophaseDarcyCoefficients</text>
<text text-anchor="middle" x="271" y="-119.5" font-family="Helvetica,sans-Serif" font-size="10.00" fill="#000000">Module.h</text>
</a>
</g>
</g>
<!-- Node0&#45;&gt;Node3 -->
<g id="edge3" class="edge">
<title>Node0&#45;&gt;Node3</title>
<path fill="none" stroke="#191970" d="M215.3379,-179.2967C224.7277,-170.559 236.6918,-159.4257 247.1198,-149.7218"/>
<polygon fill="#191970" stroke="#191970" points="249.7903,-152.0178 254.7267,-142.6432 245.0217,-146.8933 249.7903,-152.0178"/>
</g>
<!-- Node7 -->
<g id="node8" class="node">
<title>Node7</title>
<polygon fill="#ffffff" stroke="#bfbfbf" points="499,-.5 499,-19.5 553,-19.5 553,-.5 499,-.5"/>
<text text-anchor="middle" x="526" y="-7.5" font-family="Helvetica,sans-Serif" font-size="10.00" fill="#000000">iostream</text>
</g>
<!-- Node0&#45;&gt;Node7 -->
<g id="edge11" class="edge">
<title>Node0&#45;&gt;Node7</title>
<path fill="none" stroke="#191970" d="M259.0336,-179.4717C288.3234,-170.8944 323.5094,-158.6948 353,-143 415.3615,-109.8115 478.662,-54.4075 508.4472,-26.7596"/>
<polygon fill="#191970" stroke="#191970" points="511.0323,-29.1335 515.9308,-19.7391 506.243,-24.0284 511.0323,-29.1335"/>
</g>
<!-- Node4 -->
<g id="node5" class="node">
<title>Node4</title>
<g id="a_node5"><a xlink:href="density_relations_8h.html" target="_top" xlink:title="densityRelations.h">
<polygon fill="#ffffff" stroke="#000000" points="68,-.5 68,-19.5 166,-19.5 166,-.5 68,-.5"/>
<text text-anchor="middle" x="117" y="-7.5" font-family="Helvetica,sans-Serif" font-size="10.00" fill="#000000">densityRelations.h</text>
</a>
</g>
</g>
<!-- Node3&#45;&gt;Node4 -->
<g id="edge4" class="edge">
<title>Node3&#45;&gt;Node4</title>
<path fill="none" stroke="#191970" d="M251.1825,-112.3795C221.9032,-90.0397 167.3528,-48.4185 137.6196,-25.7325"/>
<polygon fill="#191970" stroke="#191970" points="139.6614,-22.888 129.5882,-19.6046 135.4153,-28.4531 139.6614,-22.888"/>
</g>
<!-- Node5 -->
<g id="node6" class="node">
<title>Node5</title>
<g id="a_node6"><a xlink:href="psk_relations_8h.html" target="_top" xlink:title="pskRelations.h">
<polygon fill="#ffffff" stroke="#000000" points="230,-56.5 230,-75.5 312,-75.5 312,-56.5 230,-56.5"/>
<text text-anchor="middle" x="271" y="-63.5" font-family="Helvetica,sans-Serif" font-size="10.00" fill="#000000">pskRelations.h</text>
</a>
</g>
</g>
<!-- Node3&#45;&gt;Node5 -->
<g id="edge5" class="edge">
<title>Node3&#45;&gt;Node5</title>
<path fill="none" stroke="#191970" d="M271,-112.2977C271,-104.3834 271,-94.6043 271,-86.0759"/>
<polygon fill="#191970" stroke="#191970" points="274.5001,-85.8469 271,-75.8469 267.5001,-85.847 274.5001,-85.8469"/>
</g>
<!-- Node5&#45;&gt;Node4 -->
<g id="edge9" class="edge">
<title>Node5&#45;&gt;Node4</title>
<path fill="none" stroke="#191970" d="M244.5265,-56.3733C219.1403,-47.1419 180.6355,-33.1402 152.578,-22.9375"/>
<polygon fill="#191970" stroke="#191970" points="153.7222,-19.6293 143.1281,-19.5011 151.3299,-26.2079 153.7222,-19.6293"/>
</g>
<!-- Node6 -->
<g id="node7" class="node">
<title>Node6</title>
<polygon fill="#ffffff" stroke="#bfbfbf" points="184,-.5 184,-19.5 228,-19.5 228,-.5 184,-.5"/>
<text text-anchor="middle" x="206" y="-7.5" font-family="Helvetica,sans-Serif" font-size="10.00" fill="#000000">cmath</text>
</g>
<!-- Node5&#45;&gt;Node6 -->
<g id="edge6" class="edge">
<title>Node5&#45;&gt;Node6</title>
<path fill="none" stroke="#191970" d="M259.6779,-56.2455C250.0777,-47.9746 236.1108,-35.9416 224.8305,-26.2232"/>
<polygon fill="#191970" stroke="#191970" points="227.053,-23.5182 217.1924,-19.6427 222.484,-28.8214 227.053,-23.5182"/>
</g>
<!-- Node5&#45;&gt;Node7 -->
<g id="edge7" class="edge">
<title>Node5&#45;&gt;Node7</title>
<path fill="none" stroke="#191970" d="M312.3477,-58.1336C354.442,-49.9434 421.7883,-36.3417 489.008,-20.1317"/>
<polygon fill="#191970" stroke="#191970" points="490.0317,-23.4849 498.9218,-17.7215 488.3779,-16.683 490.0317,-23.4849"/>
</g>
<!-- Node8 -->
<g id="node9" class="node">
<title>Node8</title>
<polygon fill="#ffffff" stroke="#bfbfbf" points="246.5,-.5 246.5,-19.5 295.5,-19.5 295.5,-.5 246.5,-.5"/>
<text text-anchor="middle" x="271" y="-7.5" font-family="Helvetica,sans-Serif" font-size="10.00" fill="#000000">cassert</text>
</g>
<!-- Node5&#45;&gt;Node8 -->
<g id="edge8" class="edge">
<title>Node5&#45;&gt;Node8</title>
<path fill="none" stroke="#191970" d="M271,-56.2455C271,-48.9382 271,-38.6944 271,-29.7046"/>
<polygon fill="#191970" stroke="#191970" points="274.5001,-29.6426 271,-19.6427 267.5001,-29.6427 274.5001,-29.6426"/>
</g>
<!-- Node9 -->
<g id="node10" class="node">
<title>Node9</title>
<g id="a_node10"><a xlink:href="_subsurface_transport_coefficients_8h.html" target="_top" xlink:title="SubsurfaceTransportCoefficients.h">
<polygon fill="#ffffff" stroke="#000000" points="313,-.5 313,-19.5 481,-19.5 481,-.5 313,-.5"/>
<text text-anchor="middle" x="397" y="-7.5" font-family="Helvetica,sans-Serif" font-size="10.00" fill="#000000">SubsurfaceTransportCoefficients.h</text>
</a>
</g>
</g>
<!-- Node5&#45;&gt;Node9 -->
<g id="edge10" class="edge">
<title>Node5&#45;&gt;Node9</title>
<path fill="none" stroke="#191970" d="M292.6602,-56.3733C312.9772,-47.3435 343.564,-33.7494 366.375,-23.6111"/>
<polygon fill="#191970" stroke="#191970" points="367.9059,-26.7609 375.6225,-19.5011 365.0628,-20.3642 367.9059,-26.7609"/>
</g>
</g>
</svg>
