<?xml version="1.0" encoding="UTF-8" standalone="no"?>
<!DOCTYPE svg PUBLIC "-//W3C//DTD SVG 1.1//EN"
 "http://www.w3.org/Graphics/SVG/1.1/DTD/svg11.dtd">
<!-- Generated by graphviz version 2.38.0 (20140413.2041)
 -->
<!-- Title: canalyticalSolutionsModule.c Pages: 1 -->
<svg width="348pt" height="140pt"
 viewBox="0.00 0.00 348.00 140.00" xmlns="http://www.w3.org/2000/svg" xmlns:xlink="http://www.w3.org/1999/xlink">
<g id="graph0" class="graph" transform="scale(1 1) rotate(0) translate(4 136)">
<title>canalyticalSolutionsModule.c</title>
<polygon fill="white" stroke="none" points="-4,4 -4,-136 344,-136 344,4 -4,4"/>
<!-- Node0 -->
<g id="node1" class="node"><title>Node0</title>
<polygon fill="#bfbfbf" stroke="black" points="55.5,-112.5 55.5,-131.5 198.5,-131.5 198.5,-112.5 55.5,-112.5"/>
<text text-anchor="middle" x="127" y="-119.5" font-family="Helvetica,sans-Serif" font-size="10.00">canalyticalSolutionsModule.c</text>
</g>
<!-- Node1 -->
<g id="node2" class="node"><title>Node1</title>
<polygon fill="white" stroke="#bfbfbf" points="-3.55271e-15,-56.5 -3.55271e-15,-75.5 56,-75.5 56,-56.5 -3.55271e-15,-56.5"/>
<text text-anchor="middle" x="28" y="-63.5" font-family="Helvetica,sans-Serif" font-size="10.00">Python.h</text>
</g>
<!-- Node0&#45;&gt;Node1 -->
<g id="edge1" class="edge"><title>Node0&#45;&gt;Node1</title>
<path fill="none" stroke="midnightblue" d="M111.094,-112.324C95.3618,-103.743 71.0577,-90.486 52.7911,-80.5224"/>
<polygon fill="midnightblue" stroke="midnightblue" points="54.3216,-77.3704 43.8666,-75.6545 50.9696,-83.5157 54.3216,-77.3704"/>
</g>
<!-- Node2 -->
<g id="node3" class="node"><title>Node2</title>
<polygon fill="white" stroke="#bfbfbf" points="74.5,-56.5 74.5,-75.5 179.5,-75.5 179.5,-56.5 74.5,-56.5"/>
<text text-anchor="middle" x="127" y="-63.5" font-family="Helvetica,sans-Serif" font-size="10.00">numpy/arrayobject.h</text>
</g>
<!-- Node0&#45;&gt;Node2 -->
<g id="edge2" class="edge"><title>Node0&#45;&gt;Node2</title>
<path fill="none" stroke="midnightblue" d="M127,-112.083C127,-105.006 127,-94.8611 127,-85.9865"/>
<polygon fill="midnightblue" stroke="midnightblue" points="130.5,-85.751 127,-75.7511 123.5,-85.7511 130.5,-85.751"/>
</g>
<!-- Node3 -->
<g id="node4" class="node"><title>Node3</title>
<g id="a_node4"><a xlink:href="analytical_solutions_8h.html" target="_top" xlink:title="analyticalSolutions.h">
<polygon fill="white" stroke="black" points="197.5,-56.5 197.5,-75.5 304.5,-75.5 304.5,-56.5 197.5,-56.5"/>
<text text-anchor="middle" x="251" y="-63.5" font-family="Helvetica,sans-Serif" font-size="10.00">analyticalSolutions.h</text>
</a>
</g>
</g>
<!-- Node0&#45;&gt;Node3 -->
<g id="edge3" class="edge"><title>Node0&#45;&gt;Node3</title>
<path fill="none" stroke="midnightblue" d="M146.648,-112.444C166.965,-103.596 198.903,-89.6875 222.098,-79.5865"/>
<polygon fill="midnightblue" stroke="midnightblue" points="223.673,-82.7181 231.444,-75.5164 220.878,-76.3002 223.673,-82.7181"/>
</g>
<!-- Node4 -->
<g id="node5" class="node"><title>Node4</title>
<polygon fill="white" stroke="#bfbfbf" points="162.5,-0.5 162.5,-19.5 209.5,-19.5 209.5,-0.5 162.5,-0.5"/>
<text text-anchor="middle" x="186" y="-7.5" font-family="Helvetica,sans-Serif" font-size="10.00">math.h</text>
</g>
<!-- Node3&#45;&gt;Node4 -->
<g id="edge4" class="edge"><title>Node3&#45;&gt;Node4</title>
<path fill="none" stroke="midnightblue" d="M240.557,-56.324C230.854,-48.2631 216.185,-36.0765 204.5,-26.3695"/>
<polygon fill="midnightblue" stroke="midnightblue" points="206.562,-23.532 196.633,-19.8339 202.089,-28.9163 206.562,-23.532"/>
</g>
<!-- Node5 -->
<g id="node6" class="node"><title>Node5</title>
<polygon fill="white" stroke="#bfbfbf" points="228,-0.5 228,-19.5 274,-19.5 274,-0.5 228,-0.5"/>
<text text-anchor="middle" x="251" y="-7.5" font-family="Helvetica,sans-Serif" font-size="10.00">stdio.h</text>
</g>
<!-- Node3&#45;&gt;Node5 -->
<g id="edge5" class="edge"><title>Node3&#45;&gt;Node5</title>
<path fill="none" stroke="midnightblue" d="M251,-56.083C251,-49.0059 251,-38.8611 251,-29.9865"/>
<polygon fill="midnightblue" stroke="midnightblue" points="254.5,-29.751 251,-19.7511 247.5,-29.7511 254.5,-29.751"/>
</g>
<!-- Node6 -->
<g id="node7" class="node"><title>Node6</title>
<polygon fill="white" stroke="#bfbfbf" points="292,-0.5 292,-19.5 340,-19.5 340,-0.5 292,-0.5"/>
<text text-anchor="middle" x="316" y="-7.5" font-family="Helvetica,sans-Serif" font-size="10.00">stdlib.h</text>
</g>
<!-- Node3&#45;&gt;Node6 -->
<g id="edge6" class="edge"><title>Node3&#45;&gt;Node6</title>
<path fill="none" stroke="midnightblue" d="M261.443,-56.324C271.146,-48.2631 285.815,-36.0765 297.5,-26.3695"/>
<polygon fill="midnightblue" stroke="midnightblue" points="299.911,-28.9163 305.367,-19.8339 295.438,-23.532 299.911,-28.9163"/>
</g>
</g>
</svg>
