<?xml version="1.0" encoding="UTF-8" standalone="no"?>
<!DOCTYPE svg PUBLIC "-//W3C//DTD SVG 1.1//EN"
 "http://www.w3.org/Graphics/SVG/1.1/DTD/svg11.dtd">
<!-- Generated by graphviz version 2.40.1 (20161225.0304)
 -->
<!-- Title: canalyticalSolutionsModule.c Pages: 1 -->
<svg width="348pt" height="140pt"
 viewBox="0.00 0.00 348.00 140.00" xmlns="http://www.w3.org/2000/svg" xmlns:xlink="http://www.w3.org/1999/xlink">
<g id="graph0" class="graph" transform="scale(1 1) rotate(0) translate(4 136)">
<title>canalyticalSolutionsModule.c</title>
<polygon fill="#ffffff" stroke="transparent" points="-4,4 -4,-136 344,-136 344,4 -4,4"/>
<!-- Node0 -->
<g id="node1" class="node">
<title>Node0</title>
<polygon fill="#bfbfbf" stroke="#000000" points="55.5,-112.5 55.5,-131.5 198.5,-131.5 198.5,-112.5 55.5,-112.5"/>
<text text-anchor="middle" x="127" y="-119.5" font-family="Helvetica,sans-Serif" font-size="10.00" fill="#000000">canalyticalSolutionsModule.c</text>
</g>
<!-- Node1 -->
<g id="node2" class="node">
<title>Node1</title>
<polygon fill="#ffffff" stroke="#bfbfbf" points="0,-56.5 0,-75.5 56,-75.5 56,-56.5 0,-56.5"/>
<text text-anchor="middle" x="28" y="-63.5" font-family="Helvetica,sans-Serif" font-size="10.00" fill="#000000">Python.h</text>
</g>
<!-- Node0&#45;&gt;Node1 -->
<g id="edge1" class="edge">
<title>Node0&#45;&gt;Node1</title>
<path fill="none" stroke="#191970" d="M109.7555,-112.2455C94.4239,-103.5731 71.7801,-90.7645 54.2084,-80.825"/>
<polygon fill="#191970" stroke="#191970" points="55.4741,-77.5198 45.0469,-75.6427 52.0276,-83.6126 55.4741,-77.5198"/>
</g>
<!-- Node2 -->
<g id="node3" class="node">
<title>Node2</title>
<polygon fill="#ffffff" stroke="#bfbfbf" points="74.5,-56.5 74.5,-75.5 179.5,-75.5 179.5,-56.5 74.5,-56.5"/>
<text text-anchor="middle" x="127" y="-63.5" font-family="Helvetica,sans-Serif" font-size="10.00" fill="#000000">numpy/arrayobject.h</text>
</g>
<!-- Node0&#45;&gt;Node2 -->
<g id="edge2" class="edge">
<title>Node0&#45;&gt;Node2</title>
<path fill="none" stroke="#191970" d="M127,-112.2455C127,-104.9382 127,-94.6944 127,-85.7046"/>
<polygon fill="#191970" stroke="#191970" points="130.5001,-85.6426 127,-75.6427 123.5001,-85.6427 130.5001,-85.6426"/>
</g>
<!-- Node3 -->
<g id="node4" class="node">
<title>Node3</title>
<g id="a_node4"><a xlink:href="analytical_solutions_8h.html" target="_top" xlink:title="analyticalSolutions.h">
<polygon fill="#ffffff" stroke="#000000" points="197.5,-56.5 197.5,-75.5 304.5,-75.5 304.5,-56.5 197.5,-56.5"/>
<text text-anchor="middle" x="251" y="-63.5" font-family="Helvetica,sans-Serif" font-size="10.00" fill="#000000">analyticalSolutions.h</text>
</a>
</g>
</g>
<!-- Node0&#45;&gt;Node3 -->
<g id="edge3" class="edge">
<title>Node0&#45;&gt;Node3</title>
<path fill="none" stroke="#191970" d="M148.3164,-112.3733C168.2216,-103.3838 198.1436,-89.8706 220.56,-79.7471"/>
<polygon fill="#191970" stroke="#191970" points="222.2887,-82.8068 229.9618,-75.5011 219.4075,-76.4272 222.2887,-82.8068"/>
</g>
<!-- Node4 -->
<g id="node5" class="node">
<title>Node4</title>
<polygon fill="#ffffff" stroke="#bfbfbf" points="162.5,-.5 162.5,-19.5 209.5,-19.5 209.5,-.5 162.5,-.5"/>
<text text-anchor="middle" x="186" y="-7.5" font-family="Helvetica,sans-Serif" font-size="10.00" fill="#000000">math.h</text>
</g>
<!-- Node3&#45;&gt;Node4 -->
<g id="edge4" class="edge">
<title>Node3&#45;&gt;Node4</title>
<path fill="none" stroke="#191970" d="M239.6779,-56.2455C230.0777,-47.9746 216.1108,-35.9416 204.8305,-26.2232"/>
<polygon fill="#191970" stroke="#191970" points="207.053,-23.5182 197.1924,-19.6427 202.484,-28.8214 207.053,-23.5182"/>
</g>
<!-- Node5 -->
<g id="node6" class="node">
<title>Node5</title>
<polygon fill="#ffffff" stroke="#bfbfbf" points="228,-.5 228,-19.5 274,-19.5 274,-.5 228,-.5"/>
<text text-anchor="middle" x="251" y="-7.5" font-family="Helvetica,sans-Serif" font-size="10.00" fill="#000000">stdio.h</text>
</g>
<!-- Node3&#45;&gt;Node5 -->
<g id="edge5" class="edge">
<title>Node3&#45;&gt;Node5</title>
<path fill="none" stroke="#191970" d="M251,-56.2455C251,-48.9382 251,-38.6944 251,-29.7046"/>
<polygon fill="#191970" stroke="#191970" points="254.5001,-29.6426 251,-19.6427 247.5001,-29.6427 254.5001,-29.6426"/>
</g>
<!-- Node6 -->
<g id="node7" class="node">
<title>Node6</title>
<polygon fill="#ffffff" stroke="#bfbfbf" points="292,-.5 292,-19.5 340,-19.5 340,-.5 292,-.5"/>
<text text-anchor="middle" x="316" y="-7.5" font-family="Helvetica,sans-Serif" font-size="10.00" fill="#000000">stdlib.h</text>
</g>
<!-- Node3&#45;&gt;Node6 -->
<g id="edge6" class="edge">
<title>Node3&#45;&gt;Node6</title>
<path fill="none" stroke="#191970" d="M262.3221,-56.2455C271.9223,-47.9746 285.8892,-35.9416 297.1695,-26.2232"/>
<polygon fill="#191970" stroke="#191970" points="299.516,-28.8214 304.8076,-19.6427 294.947,-23.5182 299.516,-28.8214"/>
</g>
</g>
</svg>
