<?xml version="1.0" encoding="UTF-8" standalone="no"?>
<!DOCTYPE svg PUBLIC "-//W3C//DTD SVG 1.1//EN"
 "http://www.w3.org/Graphics/SVG/1.1/DTD/svg11.dtd">
<!-- Generated by graphviz version 2.40.1 (20161225.0304)
 -->
<!-- Title: cfemIntegralsModule.c Pages: 1 -->
<svg width="433pt" height="84pt"
 viewBox="0.00 0.00 433.00 84.00" xmlns="http://www.w3.org/2000/svg" xmlns:xlink="http://www.w3.org/1999/xlink">
<g id="graph0" class="graph" transform="scale(1 1) rotate(0) translate(4 80)">
<title>cfemIntegralsModule.c</title>
<polygon fill="#ffffff" stroke="transparent" points="-4,4 -4,-80 429,-80 429,4 -4,4"/>
<!-- Node0 -->
<g id="node1" class="node">
<title>Node0</title>
<polygon fill="#bfbfbf" stroke="#000000" points="124,-56.5 124,-75.5 240,-75.5 240,-56.5 124,-56.5"/>
<text text-anchor="middle" x="182" y="-63.5" font-family="Helvetica,sans-Serif" font-size="10.00" fill="#000000">cfemIntegralsModule.c</text>
</g>
<!-- Node1 -->
<g id="node2" class="node">
<title>Node1</title>
<polygon fill="#ffffff" stroke="#bfbfbf" points="0,-.5 0,-19.5 56,-19.5 56,-.5 0,-.5"/>
<text text-anchor="middle" x="28" y="-7.5" font-family="Helvetica,sans-Serif" font-size="10.00" fill="#000000">Python.h</text>
</g>
<!-- Node0&#45;&gt;Node1 -->
<g id="edge1" class="edge">
<title>Node0&#45;&gt;Node1</title>
<path fill="none" stroke="#191970" d="M155.5265,-56.3733C130.1403,-47.1419 91.6355,-33.1402 63.578,-22.9375"/>
<polygon fill="#191970" stroke="#191970" points="64.7222,-19.6293 54.1281,-19.5011 62.3299,-26.2079 64.7222,-19.6293"/>
</g>
<!-- Node2 -->
<g id="node3" class="node">
<title>Node2</title>
<polygon fill="#ffffff" stroke="#bfbfbf" points="74.5,-.5 74.5,-19.5 179.5,-19.5 179.5,-.5 74.5,-.5"/>
<text text-anchor="middle" x="127" y="-7.5" font-family="Helvetica,sans-Serif" font-size="10.00" fill="#000000">numpy/arrayobject.h</text>
</g>
<!-- Node0&#45;&gt;Node2 -->
<g id="edge2" class="edge">
<title>Node0&#45;&gt;Node2</title>
<path fill="none" stroke="#191970" d="M172.4197,-56.2455C164.4542,-48.1352 152.9359,-36.4075 143.4921,-26.7919"/>
<polygon fill="#191970" stroke="#191970" points="145.9747,-24.3247 136.4705,-19.6427 140.9805,-29.2297 145.9747,-24.3247"/>
</g>
<!-- Node3 -->
<g id="node4" class="node">
<title>Node3</title>
<g id="a_node4"><a xlink:href="fem_integrals_8h.html" target="_top" xlink:title="A library of functions for computing the discrete finite element formulations. ">
<polygon fill="#ffffff" stroke="#000000" points="197.5,-.5 197.5,-19.5 276.5,-19.5 276.5,-.5 197.5,-.5"/>
<text text-anchor="middle" x="237" y="-7.5" font-family="Helvetica,sans-Serif" font-size="10.00" fill="#000000">femIntegrals.h</text>
</a>
</g>
</g>
<!-- Node0&#45;&gt;Node3 -->
<g id="edge3" class="edge">
<title>Node0&#45;&gt;Node3</title>
<path fill="none" stroke="#191970" d="M191.5803,-56.2455C199.5458,-48.1352 211.0641,-36.4075 220.5079,-26.7919"/>
<polygon fill="#191970" stroke="#191970" points="223.0195,-29.2297 227.5295,-19.6427 218.0253,-24.3247 223.0195,-29.2297"/>
</g>
<!-- Node4 -->
<g id="node5" class="node">
<title>Node4</title>
<g id="a_node5"><a xlink:href="superlu_wrappers_module_8h.html" target="_top" xlink:title="Python interface to superlu. ">
<polygon fill="#ffffff" stroke="#000000" points="295,-.5 295,-19.5 425,-19.5 425,-.5 295,-.5"/>
<text text-anchor="middle" x="360" y="-7.5" font-family="Helvetica,sans-Serif" font-size="10.00" fill="#000000">superluWrappersModule.h</text>
</a>
</g>
</g>
<!-- Node0&#45;&gt;Node4 -->
<g id="edge4" class="edge">
<title>Node0&#45;&gt;Node4</title>
<path fill="none" stroke="#191970" d="M212.5993,-56.3733C242.3261,-47.021 287.6159,-32.7725 320.1456,-22.5385"/>
<polygon fill="#191970" stroke="#191970" points="321.3113,-25.8409 329.8,-19.5011 319.2105,-19.1636 321.3113,-25.8409"/>
</g>
</g>
</svg>
