<?xml version="1.0" encoding="UTF-8" standalone="no"?>
<!DOCTYPE svg PUBLIC "-//W3C//DTD SVG 1.1//EN"
 "http://www.w3.org/Graphics/SVG/1.1/DTD/svg11.dtd">
<!-- Generated by graphviz version 2.38.0 (20140413.2041)
 -->
<!-- Title: cfmmfswModule.cpp Pages: 1 -->
<svg width="646pt" height="196pt"
 viewBox="0.00 0.00 646.00 196.00" xmlns="http://www.w3.org/2000/svg" xmlns:xlink="http://www.w3.org/1999/xlink">
<g id="graph0" class="graph" transform="scale(1 1) rotate(0) translate(4 192)">
<title>cfmmfswModule.cpp</title>
<polygon fill="white" stroke="none" points="-4,4 -4,-192 642,-192 642,4 -4,4"/>
<!-- Node0 -->
<g id="node1" class="node"><title>Node0</title>
<polygon fill="#bfbfbf" stroke="black" points="299,-168.5 299,-187.5 406,-187.5 406,-168.5 299,-168.5"/>
<text text-anchor="middle" x="352.5" y="-175.5" font-family="Helvetica,sans-Serif" font-size="10.00">cfmmfswModule.cpp</text>
</g>
<!-- Node1 -->
<g id="node2" class="node"><title>Node1</title>
<polygon fill="white" stroke="#bfbfbf" points="253.5,-56.5 253.5,-75.5 309.5,-75.5 309.5,-56.5 253.5,-56.5"/>
<text text-anchor="middle" x="281.5" y="-63.5" font-family="Helvetica,sans-Serif" font-size="10.00">Python.h</text>
</g>
<!-- Node0&#45;&gt;Node1 -->
<g id="edge1" class="edge"><title>Node0&#45;&gt;Node1</title>
<path fill="none" stroke="midnightblue" d="M342.849,-168.453C333.64,-159.917 319.828,-146.074 310.5,-132 300.804,-117.371 292.941,-98.9664 287.86,-85.4791"/>
<polygon fill="midnightblue" stroke="midnightblue" points="291.085,-84.1033 284.401,-75.8827 284.5,-86.4771 291.085,-84.1033"/>
</g>
<!-- Node2 -->
<g id="node3" class="node"><title>Node2</title>
<polygon fill="white" stroke="#bfbfbf" points="102,-56.5 102,-75.5 207,-75.5 207,-56.5 102,-56.5"/>
<text text-anchor="middle" x="154.5" y="-63.5" font-family="Helvetica,sans-Serif" font-size="10.00">numpy/arrayobject.h</text>
</g>
<!-- Node0&#45;&gt;Node2 -->
<g id="edge2" class="edge"><title>Node0&#45;&gt;Node2</title>
<path fill="none" stroke="midnightblue" d="M298.84,-172.903C243.78,-167.452 163.552,-155.615 144.5,-132 133.885,-118.843 138.894,-99.1621 145.005,-84.9048"/>
<polygon fill="midnightblue" stroke="midnightblue" points="148.273,-86.1829 149.442,-75.6526 141.962,-83.1561 148.273,-86.1829"/>
</g>
<!-- Node3 -->
<g id="node4" class="node"><title>Node3</title>
<g id="a_node4"><a xlink:href="cfmmfsw_8h.html" target="_top" xlink:title="cfmmfsw.h">
<polygon fill="white" stroke="black" points="320,-112.5 320,-131.5 385,-131.5 385,-112.5 320,-112.5"/>
<text text-anchor="middle" x="352.5" y="-119.5" font-family="Helvetica,sans-Serif" font-size="10.00">cfmmfsw.h</text>
</a>
</g>
</g>
<!-- Node0&#45;&gt;Node3 -->
<g id="edge3" class="edge"><title>Node0&#45;&gt;Node3</title>
<path fill="none" stroke="midnightblue" d="M352.5,-168.083C352.5,-161.006 352.5,-150.861 352.5,-141.986"/>
<polygon fill="midnightblue" stroke="midnightblue" points="356,-141.751 352.5,-131.751 349,-141.751 356,-141.751"/>
</g>
<!-- Node4 -->
<g id="node5" class="node"><title>Node4</title>
<g id="a_node5"><a xlink:href="mesh_8h.html" target="_top" xlink:title="mesh.h">
<polygon fill="white" stroke="black" points="328,-56.5 328,-75.5 377,-75.5 377,-56.5 328,-56.5"/>
<text text-anchor="middle" x="352.5" y="-63.5" font-family="Helvetica,sans-Serif" font-size="10.00">mesh.h</text>
</a>
</g>
</g>
<!-- Node0&#45;&gt;Node4 -->
<g id="edge16" class="edge"><title>Node0&#45;&gt;Node4</title>
<path fill="none" stroke="midnightblue" d="M364.494,-168.34C379.421,-156.409 401.98,-133.898 393.5,-112 389.046,-100.498 380.132,-90.1311 371.751,-82.2546"/>
<polygon fill="midnightblue" stroke="midnightblue" points="373.872,-79.4599 364.041,-75.5103 369.263,-84.7286 373.872,-79.4599"/>
</g>
<!-- Node10 -->
<g id="node11" class="node"><title>Node10</title>
<polygon fill="white" stroke="#bfbfbf" points="426.5,-0.5 426.5,-19.5 480.5,-19.5 480.5,-0.5 426.5,-0.5"/>
<text text-anchor="middle" x="453.5" y="-7.5" font-family="Helvetica,sans-Serif" font-size="10.00">iostream</text>
</g>
<!-- Node0&#45;&gt;Node10 -->
<g id="edge26" class="edge"><title>Node0&#45;&gt;Node10</title>
<path fill="none" stroke="midnightblue" d="M367.226,-168.366C379.746,-160.356 397.408,-147.374 408.5,-132 431.584,-100.003 444.199,-54.7946 449.828,-29.6751"/>
<polygon fill="midnightblue" stroke="midnightblue" points="453.3,-30.1735 451.935,-19.6669 446.45,-28.7313 453.3,-30.1735"/>
</g>
<!-- Node15 -->
<g id="node16" class="node"><title>Node15</title>
<g id="a_node16"><a xlink:href="cmesh_tools_module_8h.html" target="_top" xlink:title="cmeshToolsModule.h">
<polygon fill="white" stroke="black" points="153.5,-112.5 153.5,-131.5 263.5,-131.5 263.5,-112.5 153.5,-112.5"/>
<text text-anchor="middle" x="208.5" y="-119.5" font-family="Helvetica,sans-Serif" font-size="10.00">cmeshToolsModule.h</text>
</a>
</g>
</g>
<!-- Node0&#45;&gt;Node15 -->
<g id="edge17" class="edge"><title>Node0&#45;&gt;Node15</title>
<path fill="none" stroke="midnightblue" d="M329.683,-168.444C305.668,-159.438 267.671,-145.189 240.631,-135.049"/>
<polygon fill="midnightblue" stroke="midnightblue" points="241.803,-131.751 231.21,-131.516 239.345,-138.305 241.803,-131.751"/>
</g>
<!-- Node16 -->
<g id="node17" class="node"><title>Node16</title>
<g id="a_node17"><a xlink:href="_f_m_mand_f_s_w_8h.html" target="_top" xlink:title="FMMandFSW.h">
<polygon fill="white" stroke="black" points="479.5,-112.5 479.5,-131.5 565.5,-131.5 565.5,-112.5 479.5,-112.5"/>
<text text-anchor="middle" x="522.5" y="-119.5" font-family="Helvetica,sans-Serif" font-size="10.00">FMMandFSW.h</text>
</a>
</g>
</g>
<!-- Node0&#45;&gt;Node16 -->
<g id="edge21" class="edge"><title>Node0&#45;&gt;Node16</title>
<path fill="none" stroke="midnightblue" d="M379.437,-168.444C408.16,-159.32 453.829,-144.813 485.821,-134.651"/>
<polygon fill="midnightblue" stroke="midnightblue" points="487.218,-137.88 495.689,-131.516 485.099,-131.208 487.218,-137.88"/>
</g>
<!-- Node3&#45;&gt;Node1 -->
<g id="edge4" class="edge"><title>Node3&#45;&gt;Node1</title>
<path fill="none" stroke="midnightblue" d="M341.093,-112.324C330.391,-104.185 314.159,-91.8395 301.337,-82.0874"/>
<polygon fill="midnightblue" stroke="midnightblue" points="303.193,-79.1018 293.115,-75.8339 298.956,-84.6734 303.193,-79.1018"/>
</g>
<!-- Node3&#45;&gt;Node4 -->
<g id="edge5" class="edge"><title>Node3&#45;&gt;Node4</title>
<path fill="none" stroke="midnightblue" d="M352.5,-112.083C352.5,-105.006 352.5,-94.8611 352.5,-85.9865"/>
<polygon fill="midnightblue" stroke="midnightblue" points="356,-85.751 352.5,-75.7511 349,-85.7511 356,-85.751"/>
</g>
<!-- Node5 -->
<g id="node6" class="node"><title>Node5</title>
<polygon fill="white" stroke="#bfbfbf" points="304.5,-0.5 304.5,-19.5 334.5,-19.5 334.5,-0.5 304.5,-0.5"/>
<text text-anchor="middle" x="319.5" y="-7.5" font-family="Helvetica,sans-Serif" font-size="10.00">set</text>
</g>
<!-- Node4&#45;&gt;Node5 -->
<g id="edge6" class="edge"><title>Node4&#45;&gt;Node5</title>
<path fill="none" stroke="midnightblue" d="M347.051,-56.083C342.486,-48.6127 335.832,-37.7244 330.207,-28.5199"/>
<polygon fill="midnightblue" stroke="midnightblue" points="333.049,-26.4588 324.848,-19.7511 327.076,-30.109 333.049,-26.4588"/>
</g>
<!-- Node6 -->
<g id="node7" class="node"><title>Node6</title>
<polygon fill="white" stroke="#bfbfbf" points="498.5,-0.5 498.5,-19.5 542.5,-19.5 542.5,-0.5 498.5,-0.5"/>
<text text-anchor="middle" x="520.5" y="-7.5" font-family="Helvetica,sans-Serif" font-size="10.00">vector</text>
</g>
<!-- Node4&#45;&gt;Node6 -->
<g id="edge7" class="edge"><title>Node4&#45;&gt;Node6</title>
<path fill="none" stroke="midnightblue" d="M377.289,-57.0321C406.774,-47.5548 456.062,-31.7122 488.427,-21.3092"/>
<polygon fill="midnightblue" stroke="midnightblue" points="489.845,-24.53 498.294,-18.1377 487.702,-17.8657 489.845,-24.53"/>
</g>
<!-- Node7 -->
<g id="node8" class="node"><title>Node7</title>
<polygon fill="white" stroke="#bfbfbf" points="352.5,-0.5 352.5,-19.5 408.5,-19.5 408.5,-0.5 352.5,-0.5"/>
<text text-anchor="middle" x="380.5" y="-7.5" font-family="Helvetica,sans-Serif" font-size="10.00">algorithm</text>
</g>
<!-- Node4&#45;&gt;Node7 -->
<g id="edge8" class="edge"><title>Node4&#45;&gt;Node7</title>
<path fill="none" stroke="midnightblue" d="M357.124,-56.083C360.956,-48.6913 366.524,-37.9533 371.265,-28.8111"/>
<polygon fill="midnightblue" stroke="midnightblue" points="374.466,-30.2398 375.962,-19.7511 368.252,-27.0175 374.466,-30.2398"/>
</g>
<!-- Node8 -->
<g id="node9" class="node"><title>Node8</title>
<polygon fill="white" stroke="#bfbfbf" points="0,-0.5 0,-19.5 35,-19.5 35,-0.5 0,-0.5"/>
<text text-anchor="middle" x="17.5" y="-7.5" font-family="Helvetica,sans-Serif" font-size="10.00">map</text>
</g>
<!-- Node4&#45;&gt;Node8 -->
<g id="edge9" class="edge"><title>Node4&#45;&gt;Node8</title>
<path fill="none" stroke="midnightblue" d="M327.703,-58.042C324.618,-57.2928 321.495,-56.59 318.5,-56 200.747,-32.8075 165.329,-47.4838 45.2104,-20.0082"/>
<polygon fill="midnightblue" stroke="midnightblue" points="45.7962,-16.5508 35.2619,-17.6817 44.2021,-23.3669 45.7962,-16.5508"/>
</g>
<!-- Node9 -->
<g id="node10" class="node"><title>Node9</title>
<polygon fill="white" stroke="#bfbfbf" points="53,-0.5 53,-19.5 82,-19.5 82,-0.5 53,-0.5"/>
<text text-anchor="middle" x="67.5" y="-7.5" font-family="Helvetica,sans-Serif" font-size="10.00">list</text>
</g>
<!-- Node4&#45;&gt;Node9 -->
<g id="edge10" class="edge"><title>Node4&#45;&gt;Node9</title>
<path fill="none" stroke="midnightblue" d="M327.687,-58.1207C324.605,-57.3581 321.487,-56.6305 318.5,-56 221.676,-35.5624 192.106,-45.3996 91.9853,-19.6071"/>
<polygon fill="midnightblue" stroke="midnightblue" points="92.6329,-16.1584 82.0714,-16.9976 90.8511,-22.9279 92.6329,-16.1584"/>
</g>
<!-- Node4&#45;&gt;Node10 -->
<g id="edge11" class="edge"><title>Node4&#45;&gt;Node10</title>
<path fill="none" stroke="midnightblue" d="M368.727,-56.324C384.851,-47.7034 409.8,-34.3643 428.464,-24.3855"/>
<polygon fill="midnightblue" stroke="midnightblue" points="430.144,-27.456 437.313,-19.6545 426.844,-21.283 430.144,-27.456"/>
</g>
<!-- Node11 -->
<g id="node12" class="node"><title>Node11</title>
<polygon fill="white" stroke="#bfbfbf" points="100.5,-0.5 100.5,-19.5 150.5,-19.5 150.5,-0.5 100.5,-0.5"/>
<text text-anchor="middle" x="125.5" y="-7.5" font-family="Helvetica,sans-Serif" font-size="10.00">iomanip</text>
</g>
<!-- Node4&#45;&gt;Node11 -->
<g id="edge12" class="edge"><title>Node4&#45;&gt;Node11</title>
<path fill="none" stroke="midnightblue" d="M327.644,-58.3097C324.569,-57.5147 321.465,-56.7278 318.5,-56 251.157,-39.469 231.532,-37.4273 160.599,-20.2005"/>
<polygon fill="midnightblue" stroke="midnightblue" points="161.27,-16.7617 150.725,-17.7856 159.607,-23.5613 161.27,-16.7617"/>
</g>
<!-- Node12 -->
<g id="node13" class="node"><title>Node12</title>
<polygon fill="white" stroke="#bfbfbf" points="168.5,-0.5 168.5,-19.5 218.5,-19.5 218.5,-0.5 168.5,-0.5"/>
<text text-anchor="middle" x="193.5" y="-7.5" font-family="Helvetica,sans-Serif" font-size="10.00">fstream</text>
</g>
<!-- Node4&#45;&gt;Node12 -->
<g id="edge13" class="edge"><title>Node4&#45;&gt;Node12</title>
<path fill="none" stroke="midnightblue" d="M327.656,-56.5625C300.976,-47.5014 258.378,-33.0342 228.353,-22.837"/>
<polygon fill="midnightblue" stroke="midnightblue" points="229.288,-19.4583 218.694,-19.5565 227.037,-26.0864 229.288,-19.4583"/>
</g>
<!-- Node13 -->
<g id="node14" class="node"><title>Node13</title>
<polygon fill="white" stroke="#bfbfbf" points="237,-0.5 237,-19.5 286,-19.5 286,-0.5 237,-0.5"/>
<text text-anchor="middle" x="261.5" y="-7.5" font-family="Helvetica,sans-Serif" font-size="10.00">cassert</text>
</g>
<!-- Node4&#45;&gt;Node13 -->
<g id="edge14" class="edge"><title>Node4&#45;&gt;Node13</title>
<path fill="none" stroke="midnightblue" d="M337.879,-56.324C323.551,-47.8215 301.487,-34.7288 284.751,-24.7975"/>
<polygon fill="midnightblue" stroke="midnightblue" points="286.47,-21.7478 276.084,-19.6545 282.898,-27.7677 286.47,-21.7478"/>
</g>
<!-- Node14 -->
<g id="node15" class="node"><title>Node14</title>
<polygon fill="white" stroke="#bfbfbf" points="560.5,-0.5 560.5,-19.5 604.5,-19.5 604.5,-0.5 560.5,-0.5"/>
<text text-anchor="middle" x="582.5" y="-7.5" font-family="Helvetica,sans-Serif" font-size="10.00">cmath</text>
</g>
<!-- Node4&#45;&gt;Node14 -->
<g id="edge15" class="edge"><title>Node4&#45;&gt;Node14</title>
<path fill="none" stroke="midnightblue" d="M377.123,-59.9303C413.064,-52.4235 482.197,-37.5812 550.176,-20.228"/>
<polygon fill="midnightblue" stroke="midnightblue" points="551.381,-23.532 560.193,-17.6501 549.636,-16.7529 551.381,-23.532"/>
</g>
<!-- Node15&#45;&gt;Node1 -->
<g id="edge18" class="edge"><title>Node15&#45;&gt;Node1</title>
<path fill="none" stroke="midnightblue" d="M220.229,-112.324C231.337,-104.107 248.242,-91.6017 261.483,-81.8069"/>
<polygon fill="midnightblue" stroke="midnightblue" points="263.6,-84.5948 269.558,-75.8339 259.437,-78.9671 263.6,-84.5948"/>
</g>
<!-- Node15&#45;&gt;Node2 -->
<g id="edge19" class="edge"><title>Node15&#45;&gt;Node2</title>
<path fill="none" stroke="midnightblue" d="M199.583,-112.083C191.72,-104.22 180.069,-92.5688 170.581,-83.0813"/>
<polygon fill="midnightblue" stroke="midnightblue" points="172.797,-80.3473 163.251,-75.7511 167.847,-85.2971 172.797,-80.3473"/>
</g>
<!-- Node15&#45;&gt;Node4 -->
<g id="edge20" class="edge"><title>Node15&#45;&gt;Node4</title>
<path fill="none" stroke="midnightblue" d="M231.317,-112.444C255.332,-103.438 293.329,-89.1891 320.369,-79.049"/>
<polygon fill="midnightblue" stroke="midnightblue" points="321.655,-82.3049 329.79,-75.5164 319.197,-75.7506 321.655,-82.3049"/>
</g>
<!-- Node16&#45;&gt;Node4 -->
<g id="edge25" class="edge"><title>Node16&#45;&gt;Node4</title>
<path fill="none" stroke="midnightblue" d="M495.563,-112.444C466.164,-103.105 419.013,-88.1276 386.944,-77.9409"/>
<polygon fill="midnightblue" stroke="midnightblue" points="387.693,-74.5068 377.103,-74.8151 385.574,-81.1783 387.693,-74.5068"/>
</g>
<!-- Node16&#45;&gt;Node6 -->
<g id="edge22" class="edge"><title>Node16&#45;&gt;Node6</title>
<path fill="none" stroke="midnightblue" d="M522.343,-112.368C522.02,-94.617 521.276,-53.6664 520.838,-29.5974"/>
<polygon fill="midnightblue" stroke="midnightblue" points="524.338,-29.5261 520.656,-19.5914 517.339,-29.6534 524.338,-29.5261"/>
</g>
<!-- Node16&#45;&gt;Node14 -->
<g id="edge24" class="edge"><title>Node16&#45;&gt;Node14</title>
<path fill="none" stroke="midnightblue" d="M527.208,-112.368C537.022,-94.376 559.836,-52.5503 572.885,-28.6267"/>
<polygon fill="midnightblue" stroke="midnightblue" points="576.098,-30.0464 577.814,-19.5914 569.953,-26.6944 576.098,-30.0464"/>
</g>
<!-- Node17 -->
<g id="node18" class="node"><title>Node17</title>
<polygon fill="white" stroke="#bfbfbf" points="587,-56.5 587,-75.5 638,-75.5 638,-56.5 587,-56.5"/>
<text text-anchor="middle" x="612.5" y="-63.5" font-family="Helvetica,sans-Serif" font-size="10.00">valarray</text>
</g>
<!-- Node16&#45;&gt;Node17 -->
<g id="edge23" class="edge"><title>Node16&#45;&gt;Node17</title>
<path fill="none" stroke="midnightblue" d="M536.96,-112.324C551,-103.9 572.548,-90.9709 589.043,-81.0741"/>
<polygon fill="midnightblue" stroke="midnightblue" points="591.302,-83.8007 598.076,-75.6545 587.7,-77.7983 591.302,-83.8007"/>
</g>
</g>
</svg>
