<?xml version="1.0" encoding="UTF-8" standalone="no"?>
<!DOCTYPE svg PUBLIC "-//W3C//DTD SVG 1.1//EN"
 "http://www.w3.org/Graphics/SVG/1.1/DTD/svg11.dtd">
<!-- Generated by graphviz version 2.38.0 (20140413.2041)
 -->
<!-- Title: cfmmfsw.h Pages: 1 -->
<svg width="613pt" height="140pt"
 viewBox="0.00 0.00 613.00 140.00" xmlns="http://www.w3.org/2000/svg" xmlns:xlink="http://www.w3.org/1999/xlink">
<g id="graph0" class="graph" transform="scale(1 1) rotate(0) translate(4 136)">
<title>cfmmfsw.h</title>
<polygon fill="white" stroke="none" points="-4,4 -4,-136 609,-136 609,4 -4,4"/>
<!-- Node0 -->
<g id="node1" class="node"><title>Node0</title>
<polygon fill="#bfbfbf" stroke="black" points="213.5,-112.5 213.5,-131.5 278.5,-131.5 278.5,-112.5 213.5,-112.5"/>
<text text-anchor="middle" x="246" y="-119.5" font-family="Helvetica,sans-Serif" font-size="10.00">cfmmfsw.h</text>
</g>
<!-- Node1 -->
<g id="node2" class="node"><title>Node1</title>
<polygon fill="white" stroke="#bfbfbf" points="183,-56.5 183,-75.5 239,-75.5 239,-56.5 183,-56.5"/>
<text text-anchor="middle" x="211" y="-63.5" font-family="Helvetica,sans-Serif" font-size="10.00">Python.h</text>
</g>
<!-- Node0&#45;&gt;Node1 -->
<g id="edge1" class="edge"><title>Node0&#45;&gt;Node1</title>
<path fill="none" stroke="midnightblue" d="M240.22,-112.083C235.328,-104.534 228.173,-93.4948 222.167,-84.2298"/>
<polygon fill="midnightblue" stroke="midnightblue" points="225.048,-82.239 216.672,-75.7511 219.174,-86.0463 225.048,-82.239"/>
</g>
<!-- Node2 -->
<g id="node3" class="node"><title>Node2</title>
<g id="a_node3"><a xlink:href="mesh_8h.html" target="_top" xlink:title="mesh.h">
<polygon fill="white" stroke="black" points="257.5,-56.5 257.5,-75.5 306.5,-75.5 306.5,-56.5 257.5,-56.5"/>
<text text-anchor="middle" x="282" y="-63.5" font-family="Helvetica,sans-Serif" font-size="10.00">mesh.h</text>
</a>
</g>
</g>
<!-- Node0&#45;&gt;Node2 -->
<g id="edge2" class="edge"><title>Node0&#45;&gt;Node2</title>
<path fill="none" stroke="midnightblue" d="M251.945,-112.083C256.977,-104.534 264.337,-93.4948 270.513,-84.2298"/>
<polygon fill="midnightblue" stroke="midnightblue" points="273.531,-86.0131 276.166,-75.7511 267.707,-82.1301 273.531,-86.0131"/>
</g>
<!-- Node3 -->
<g id="node4" class="node"><title>Node3</title>
<polygon fill="white" stroke="#bfbfbf" points="0,-0.5 0,-19.5 30,-19.5 30,-0.5 0,-0.5"/>
<text text-anchor="middle" x="15" y="-7.5" font-family="Helvetica,sans-Serif" font-size="10.00">set</text>
</g>
<!-- Node2&#45;&gt;Node3 -->
<g id="edge3" class="edge"><title>Node2&#45;&gt;Node3</title>
<path fill="none" stroke="midnightblue" d="M257.179,-58.1593C254.098,-57.39 250.983,-56.6504 248,-56 158.965,-36.5874 131.77,-44.1086 39.8038,-19.7739"/>
<polygon fill="midnightblue" stroke="midnightblue" points="40.6609,-16.3801 30.0942,-17.1516 38.8357,-23.1379 40.6609,-16.3801"/>
</g>
<!-- Node4 -->
<g id="node5" class="node"><title>Node4</title>
<polygon fill="white" stroke="#bfbfbf" points="48,-0.5 48,-19.5 92,-19.5 92,-0.5 48,-0.5"/>
<text text-anchor="middle" x="70" y="-7.5" font-family="Helvetica,sans-Serif" font-size="10.00">vector</text>
</g>
<!-- Node2&#45;&gt;Node4 -->
<g id="edge4" class="edge"><title>Node2&#45;&gt;Node4</title>
<path fill="none" stroke="midnightblue" d="M257.131,-58.3601C254.058,-57.5564 250.959,-56.7538 248,-56 185.874,-40.1716 167.664,-37.6016 102.314,-20.2699"/>
<polygon fill="midnightblue" stroke="midnightblue" points="102.884,-16.7995 92.3194,-17.6023 101.079,-23.5627 102.884,-16.7995"/>
</g>
<!-- Node5 -->
<g id="node6" class="node"><title>Node5</title>
<polygon fill="white" stroke="#bfbfbf" points="110,-0.5 110,-19.5 166,-19.5 166,-0.5 110,-0.5"/>
<text text-anchor="middle" x="138" y="-7.5" font-family="Helvetica,sans-Serif" font-size="10.00">algorithm</text>
</g>
<!-- Node2&#45;&gt;Node5 -->
<g id="edge5" class="edge"><title>Node2&#45;&gt;Node5</title>
<path fill="none" stroke="midnightblue" d="M259.183,-56.4435C235.168,-47.4381 197.171,-33.1891 170.131,-23.049"/>
<polygon fill="midnightblue" stroke="midnightblue" points="171.303,-19.7506 160.71,-19.5164 168.845,-26.3049 171.303,-19.7506"/>
</g>
<!-- Node6 -->
<g id="node7" class="node"><title>Node6</title>
<polygon fill="white" stroke="#bfbfbf" points="184.5,-0.5 184.5,-19.5 219.5,-19.5 219.5,-0.5 184.5,-0.5"/>
<text text-anchor="middle" x="202" y="-7.5" font-family="Helvetica,sans-Serif" font-size="10.00">map</text>
</g>
<!-- Node2&#45;&gt;Node6 -->
<g id="edge6" class="edge"><title>Node2&#45;&gt;Node6</title>
<path fill="none" stroke="midnightblue" d="M269.147,-56.324C256.784,-47.979 237.87,-35.2122 223.263,-25.3524"/>
<polygon fill="midnightblue" stroke="midnightblue" points="225.068,-22.3483 214.821,-19.6545 221.152,-28.1503 225.068,-22.3483"/>
</g>
<!-- Node7 -->
<g id="node8" class="node"><title>Node7</title>
<polygon fill="white" stroke="#bfbfbf" points="237.5,-0.5 237.5,-19.5 266.5,-19.5 266.5,-0.5 237.5,-0.5"/>
<text text-anchor="middle" x="252" y="-7.5" font-family="Helvetica,sans-Serif" font-size="10.00">list</text>
</g>
<!-- Node2&#45;&gt;Node7 -->
<g id="edge7" class="edge"><title>Node2&#45;&gt;Node7</title>
<path fill="none" stroke="midnightblue" d="M277.046,-56.083C272.896,-48.6127 266.847,-37.7244 261.733,-28.5199"/>
<polygon fill="midnightblue" stroke="midnightblue" points="264.778,-26.7929 256.862,-19.7511 258.659,-30.1924 264.778,-26.7929"/>
</g>
<!-- Node8 -->
<g id="node9" class="node"><title>Node8</title>
<polygon fill="white" stroke="#bfbfbf" points="285,-0.5 285,-19.5 339,-19.5 339,-0.5 285,-0.5"/>
<text text-anchor="middle" x="312" y="-7.5" font-family="Helvetica,sans-Serif" font-size="10.00">iostream</text>
</g>
<!-- Node2&#45;&gt;Node8 -->
<g id="edge8" class="edge"><title>Node2&#45;&gt;Node8</title>
<path fill="none" stroke="midnightblue" d="M286.954,-56.083C291.104,-48.6127 297.153,-37.7244 302.267,-28.5199"/>
<polygon fill="midnightblue" stroke="midnightblue" points="305.341,-30.1924 307.138,-19.7511 299.222,-26.7929 305.341,-30.1924"/>
</g>
<!-- Node9 -->
<g id="node10" class="node"><title>Node9</title>
<polygon fill="white" stroke="#bfbfbf" points="357,-0.5 357,-19.5 407,-19.5 407,-0.5 357,-0.5"/>
<text text-anchor="middle" x="382" y="-7.5" font-family="Helvetica,sans-Serif" font-size="10.00">iomanip</text>
</g>
<!-- Node2&#45;&gt;Node9 -->
<g id="edge9" class="edge"><title>Node2&#45;&gt;Node9</title>
<path fill="none" stroke="midnightblue" d="M298.067,-56.324C313.958,-47.7428 338.507,-34.486 356.958,-24.5224"/>
<polygon fill="midnightblue" stroke="midnightblue" points="358.837,-27.4857 365.973,-19.6545 355.511,-21.3264 358.837,-27.4857"/>
</g>
<!-- Node10 -->
<g id="node11" class="node"><title>Node10</title>
<polygon fill="white" stroke="#bfbfbf" points="425,-0.5 425,-19.5 475,-19.5 475,-0.5 425,-0.5"/>
<text text-anchor="middle" x="450" y="-7.5" font-family="Helvetica,sans-Serif" font-size="10.00">fstream</text>
</g>
<!-- Node2&#45;&gt;Node10 -->
<g id="edge10" class="edge"><title>Node2&#45;&gt;Node10</title>
<path fill="none" stroke="midnightblue" d="M306.789,-57.0321C335.368,-47.846 382.552,-32.6798 414.897,-22.2832"/>
<polygon fill="midnightblue" stroke="midnightblue" points="416.385,-25.4812 424.835,-19.0889 414.243,-18.817 416.385,-25.4812"/>
</g>
<!-- Node11 -->
<g id="node12" class="node"><title>Node11</title>
<polygon fill="white" stroke="#bfbfbf" points="493.5,-0.5 493.5,-19.5 542.5,-19.5 542.5,-0.5 493.5,-0.5"/>
<text text-anchor="middle" x="518" y="-7.5" font-family="Helvetica,sans-Serif" font-size="10.00">cassert</text>
</g>
<!-- Node2&#45;&gt;Node11 -->
<g id="edge11" class="edge"><title>Node2&#45;&gt;Node11</title>
<path fill="none" stroke="midnightblue" d="M306.638,-59.8401C343.047,-52.1443 413.582,-36.9658 483.316,-20.0919"/>
<polygon fill="midnightblue" stroke="midnightblue" points="484.257,-23.465 493.147,-17.7003 482.603,-16.6634 484.257,-23.465"/>
</g>
<!-- Node12 -->
<g id="node13" class="node"><title>Node12</title>
<polygon fill="white" stroke="#bfbfbf" points="561,-0.5 561,-19.5 605,-19.5 605,-0.5 561,-0.5"/>
<text text-anchor="middle" x="583" y="-7.5" font-family="Helvetica,sans-Serif" font-size="10.00">cmath</text>
</g>
<!-- Node2&#45;&gt;Node12 -->
<g id="edge12" class="edge"><title>Node2&#45;&gt;Node12</title>
<path fill="none" stroke="midnightblue" d="M306.759,-61.8646C352.937,-55.8058 455.463,-41.3619 550.923,-20.0269"/>
<polygon fill="midnightblue" stroke="midnightblue" points="551.751,-23.428 560.731,-17.8045 550.204,-16.6011 551.751,-23.428"/>
</g>
</g>
</svg>
