<?xml version="1.0" encoding="UTF-8" standalone="no"?>
<!DOCTYPE svg PUBLIC "-//W3C//DTD SVG 1.1//EN"
 "http://www.w3.org/Graphics/SVG/1.1/DTD/svg11.dtd">
<!-- Generated by graphviz version 2.38.0 (20140413.2041)
 -->
<!-- Title: cfmmfsw.h Pages: 1 -->
<svg width="210pt" height="84pt"
 viewBox="0.00 0.00 209.50 84.00" xmlns="http://www.w3.org/2000/svg" xmlns:xlink="http://www.w3.org/1999/xlink">
<g id="graph0" class="graph" transform="scale(1 1) rotate(0) translate(4 80)">
<title>cfmmfsw.h</title>
<polygon fill="white" stroke="none" points="-4,4 -4,-80 205.5,-80 205.5,4 -4,4"/>
<!-- Node13 -->
<g id="node1" class="node"><title>Node13</title>
<polygon fill="#bfbfbf" stroke="black" points="60.5,-56.5 60.5,-75.5 125.5,-75.5 125.5,-56.5 60.5,-56.5"/>
<text text-anchor="middle" x="93" y="-63.5" font-family="Helvetica,sans-Serif" font-size="10.00">cfmmfsw.h</text>
</g>
<!-- Node14 -->
<g id="node2" class="node"><title>Node14</title>
<g id="a_node2"><a xlink:href="cfmmfsw_8cpp.html" target="_top" xlink:title="cfmmfsw.cpp">
<polygon fill="white" stroke="black" points="0,-0.5 0,-19.5 76,-19.5 76,-0.5 0,-0.5"/>
<text text-anchor="middle" x="38" y="-7.5" font-family="Helvetica,sans-Serif" font-size="10.00">cfmmfsw.cpp</text>
</a>
</g>
</g>
<!-- Node13&#45;&gt;Node14 -->
<g id="edge1" class="edge"><title>Node13&#45;&gt;Node14</title>
<path fill="none" stroke="midnightblue" d="M76.7062,-49.0024C66.9594,-39.4329 54.947,-27.6389 46.9131,-19.7511"/>
<polygon fill="midnightblue" stroke="midnightblue" points="74.3301,-51.5746 83.9179,-56.083 79.2343,-46.5796 74.3301,-51.5746"/>
</g>
<!-- Node15 -->
<g id="node3" class="node"><title>Node15</title>
<g id="a_node3"><a xlink:href="cfmmfsw_module_8cpp.html" target="_top" xlink:title="cfmmfswModule.cpp">
<polygon fill="white" stroke="black" points="94.5,-0.5 94.5,-19.5 201.5,-19.5 201.5,-0.5 94.5,-0.5"/>
<text text-anchor="middle" x="148" y="-7.5" font-family="Helvetica,sans-Serif" font-size="10.00">cfmmfswModule.cpp</text>
</a>
</g>
</g>
<!-- Node13&#45;&gt;Node15 -->
<g id="edge2" class="edge"><title>Node13&#45;&gt;Node15</title>
<path fill="none" stroke="midnightblue" d="M109.294,-49.0024C119.041,-39.4329 131.053,-27.6389 139.087,-19.7511"/>
<polygon fill="midnightblue" stroke="midnightblue" points="106.766,-46.5796 102.082,-56.083 111.67,-51.5746 106.766,-46.5796"/>
</g>
</g>
</svg>
