<?xml version="1.0" encoding="UTF-8" standalone="no"?>
<!DOCTYPE svg PUBLIC "-//W3C//DTD SVG 1.1//EN"
 "http://www.w3.org/Graphics/SVG/1.1/DTD/svg11.dtd">
<!-- Generated by graphviz version 2.40.1 (20161225.0304)
 -->
<!-- Title: cfmmfsw.h Pages: 1 -->
<svg width="210pt" height="84pt"
 viewBox="0.00 0.00 209.50 84.00" xmlns="http://www.w3.org/2000/svg" xmlns:xlink="http://www.w3.org/1999/xlink">
<g id="graph0" class="graph" transform="scale(1 1) rotate(0) translate(4 80)">
<title>cfmmfsw.h</title>
<polygon fill="#ffffff" stroke="transparent" points="-4,4 -4,-80 205.5,-80 205.5,4 -4,4"/>
<!-- Node13 -->
<g id="node1" class="node">
<title>Node13</title>
<polygon fill="#bfbfbf" stroke="#000000" points="60.5,-56.5 60.5,-75.5 125.5,-75.5 125.5,-56.5 60.5,-56.5"/>
<text text-anchor="middle" x="93" y="-63.5" font-family="Helvetica,sans-Serif" font-size="10.00" fill="#000000">cfmmfsw.h</text>
</g>
<!-- Node14 -->
<g id="node2" class="node">
<title>Node14</title>
<g id="a_node2"><a xlink:href="cfmmfsw_8cpp.html" target="_top" xlink:title="cfmmfsw.cpp">
<polygon fill="#ffffff" stroke="#000000" points="0,-.5 0,-19.5 76,-19.5 76,-.5 0,-.5"/>
<text text-anchor="middle" x="38" y="-7.5" font-family="Helvetica,sans-Serif" font-size="10.00" fill="#000000">cfmmfsw.cpp</text>
</a>
</g>
</g>
<!-- Node13&#45;&gt;Node14 -->
<g id="edge1" class="edge">
<title>Node13&#45;&gt;Node14</title>
<path fill="none" stroke="#191970" d="M76.3774,-49.0751C66.9145,-39.4402 55.4031,-27.7196 47.4705,-19.6427"/>
<polygon fill="#191970" stroke="#191970" points="73.9155,-51.5635 83.4197,-56.2455 78.9097,-46.6585 73.9155,-51.5635"/>
</g>
<!-- Node15 -->
<g id="node3" class="node">
<title>Node15</title>
<g id="a_node3"><a xlink:href="cfmmfsw_module_8cpp.html" target="_top" xlink:title="cfmmfswModule.cpp">
<polygon fill="#ffffff" stroke="#000000" points="94.5,-.5 94.5,-19.5 201.5,-19.5 201.5,-.5 94.5,-.5"/>
<text text-anchor="middle" x="148" y="-7.5" font-family="Helvetica,sans-Serif" font-size="10.00" fill="#000000">cfmmfswModule.cpp</text>
</a>
</g>
</g>
<!-- Node13&#45;&gt;Node15 -->
<g id="edge2" class="edge">
<title>Node13&#45;&gt;Node15</title>
<path fill="none" stroke="#191970" d="M109.6226,-49.0751C119.0855,-39.4402 130.5969,-27.7196 138.5295,-19.6427"/>
<polygon fill="#191970" stroke="#191970" points="107.0903,-46.6585 102.5803,-56.2455 112.0845,-51.5635 107.0903,-46.6585"/>
</g>
</g>
</svg>
