<?xml version="1.0" encoding="UTF-8" standalone="no"?>
<!DOCTYPE svg PUBLIC "-//W3C//DTD SVG 1.1//EN"
 "http://www.w3.org/Graphics/SVG/1.1/DTD/svg11.dtd">
<!-- Generated by graphviz version 2.38.0 (20140413.2041)
 -->
<!-- Title: cfmmfsw.cpp Pages: 1 -->
<svg width="613pt" height="196pt"
 viewBox="0.00 0.00 612.50 196.00" xmlns="http://www.w3.org/2000/svg" xmlns:xlink="http://www.w3.org/1999/xlink">
<g id="graph0" class="graph" transform="scale(1 1) rotate(0) translate(4 192)">
<title>cfmmfsw.cpp</title>
<polygon fill="white" stroke="none" points="-4,4 -4,-192 608.5,-192 608.5,4 -4,4"/>
<!-- Node0 -->
<g id="node1" class="node"><title>Node0</title>
<polygon fill="#bfbfbf" stroke="black" points="286,-168.5 286,-187.5 362,-187.5 362,-168.5 286,-168.5"/>
<text text-anchor="middle" x="324" y="-175.5" font-family="Helvetica,sans-Serif" font-size="10.00">cfmmfsw.cpp</text>
</g>
<!-- Node1 -->
<g id="node2" class="node"><title>Node1</title>
<g id="a_node2"><a xlink:href="cfmmfsw_8h.html" target="_top" xlink:title="cfmmfsw.h">
<polygon fill="white" stroke="black" points="126.5,-112.5 126.5,-131.5 191.5,-131.5 191.5,-112.5 126.5,-112.5"/>
<text text-anchor="middle" x="159" y="-119.5" font-family="Helvetica,sans-Serif" font-size="10.00">cfmmfsw.h</text>
</a>
</g>
</g>
<!-- Node0&#45;&gt;Node1 -->
<g id="edge1" class="edge"><title>Node0&#45;&gt;Node1</title>
<path fill="none" stroke="midnightblue" d="M297.855,-168.444C269.977,-159.32 225.652,-144.813 194.6,-134.651"/>
<polygon fill="midnightblue" stroke="midnightblue" points="195.615,-131.3 185.022,-131.516 193.438,-137.953 195.615,-131.3"/>
</g>
<!-- Node3 -->
<g id="node4" class="node"><title>Node3</title>
<g id="a_node4"><a xlink:href="mesh_8h.html" target="_top" xlink:title="mesh.h">
<polygon fill="white" stroke="black" points="281.5,-56.5 281.5,-75.5 330.5,-75.5 330.5,-56.5 281.5,-56.5"/>
<text text-anchor="middle" x="306" y="-63.5" font-family="Helvetica,sans-Serif" font-size="10.00">mesh.h</text>
</a>
</g>
</g>
<!-- Node0&#45;&gt;Node3 -->
<g id="edge19" class="edge"><title>Node0&#45;&gt;Node3</title>
<path fill="none" stroke="midnightblue" d="M322.588,-168.368C319.683,-150.617 312.982,-109.666 309.043,-85.5974"/>
<polygon fill="midnightblue" stroke="midnightblue" points="312.475,-84.8949 307.406,-75.5914 305.567,-86.0254 312.475,-84.8949"/>
</g>
<!-- Node9 -->
<g id="node10" class="node"><title>Node9</title>
<polygon fill="white" stroke="#bfbfbf" points="483,-0.5 483,-19.5 537,-19.5 537,-0.5 483,-0.5"/>
<text text-anchor="middle" x="510" y="-7.5" font-family="Helvetica,sans-Serif" font-size="10.00">iostream</text>
</g>
<!-- Node0&#45;&gt;Node9 -->
<g id="edge20" class="edge"><title>Node0&#45;&gt;Node9</title>
<path fill="none" stroke="midnightblue" d="M333.738,-168.309C363.62,-141.64 454.294,-60.7157 492.612,-26.5186"/>
<polygon fill="midnightblue" stroke="midnightblue" points="495.228,-28.875 500.358,-19.6051 490.567,-23.6524 495.228,-28.875"/>
</g>
<!-- Node12 -->
<g id="node13" class="node"><title>Node12</title>
<polygon fill="white" stroke="#bfbfbf" points="555.5,-0.5 555.5,-19.5 604.5,-19.5 604.5,-0.5 555.5,-0.5"/>
<text text-anchor="middle" x="580" y="-7.5" font-family="Helvetica,sans-Serif" font-size="10.00">cassert</text>
</g>
<!-- Node0&#45;&gt;Node12 -->
<g id="edge21" class="edge"><title>Node0&#45;&gt;Node12</title>
<path fill="none" stroke="midnightblue" d="M338.351,-168.338C353.133,-159.373 376.798,-144.901 397,-132 455.978,-94.3373 524.558,-48.4112 558.581,-25.4814"/>
<polygon fill="midnightblue" stroke="midnightblue" points="560.892,-28.1444 567.224,-19.6498 556.976,-22.3417 560.892,-28.1444"/>
</g>
<!-- Node14 -->
<g id="node15" class="node"><title>Node14</title>
<g id="a_node15"><a xlink:href="_f_m_mand_f_s_w_8h.html" target="_top" xlink:title="FMMandFSW.h">
<polygon fill="white" stroke="black" points="210,-112.5 210,-131.5 296,-131.5 296,-112.5 210,-112.5"/>
<text text-anchor="middle" x="253" y="-119.5" font-family="Helvetica,sans-Serif" font-size="10.00">FMMandFSW.h</text>
</a>
</g>
</g>
<!-- Node0&#45;&gt;Node14 -->
<g id="edge14" class="edge"><title>Node0&#45;&gt;Node14</title>
<path fill="none" stroke="midnightblue" d="M312.593,-168.324C301.891,-160.185 285.659,-147.839 272.837,-138.087"/>
<polygon fill="midnightblue" stroke="midnightblue" points="274.693,-135.102 264.615,-131.834 270.456,-140.673 274.693,-135.102"/>
</g>
<!-- Node2 -->
<g id="node3" class="node"><title>Node2</title>
<polygon fill="white" stroke="#bfbfbf" points="61,-56.5 61,-75.5 117,-75.5 117,-56.5 61,-56.5"/>
<text text-anchor="middle" x="89" y="-63.5" font-family="Helvetica,sans-Serif" font-size="10.00">Python.h</text>
</g>
<!-- Node1&#45;&gt;Node2 -->
<g id="edge2" class="edge"><title>Node1&#45;&gt;Node2</title>
<path fill="none" stroke="midnightblue" d="M147.753,-112.324C137.203,-104.185 121.199,-91.8395 108.558,-82.0874"/>
<polygon fill="midnightblue" stroke="midnightblue" points="110.507,-79.1707 100.451,-75.8339 106.231,-84.7132 110.507,-79.1707"/>
</g>
<!-- Node1&#45;&gt;Node3 -->
<g id="edge3" class="edge"><title>Node1&#45;&gt;Node3</title>
<path fill="none" stroke="midnightblue" d="M182.293,-112.444C206.807,-103.438 245.596,-89.1891 273.2,-79.049"/>
<polygon fill="midnightblue" stroke="midnightblue" points="274.637,-82.25 282.816,-75.5164 272.223,-75.6793 274.637,-82.25"/>
</g>
<!-- Node4 -->
<g id="node5" class="node"><title>Node4</title>
<polygon fill="white" stroke="#bfbfbf" points="260,-0.5 260,-19.5 290,-19.5 290,-0.5 260,-0.5"/>
<text text-anchor="middle" x="275" y="-7.5" font-family="Helvetica,sans-Serif" font-size="10.00">set</text>
</g>
<!-- Node3&#45;&gt;Node4 -->
<g id="edge4" class="edge"><title>Node3&#45;&gt;Node4</title>
<path fill="none" stroke="midnightblue" d="M300.881,-56.083C296.592,-48.6127 290.342,-37.7244 285.058,-28.5199"/>
<polygon fill="midnightblue" stroke="midnightblue" points="288.038,-26.6811 280.024,-19.7511 281.967,-30.1662 288.038,-26.6811"/>
</g>
<!-- Node5 -->
<g id="node6" class="node"><title>Node5</title>
<polygon fill="white" stroke="#bfbfbf" points="0,-0.5 0,-19.5 44,-19.5 44,-0.5 0,-0.5"/>
<text text-anchor="middle" x="22" y="-7.5" font-family="Helvetica,sans-Serif" font-size="10.00">vector</text>
</g>
<!-- Node3&#45;&gt;Node5 -->
<g id="edge5" class="edge"><title>Node3&#45;&gt;Node5</title>
<path fill="none" stroke="midnightblue" d="M281.4,-61.5157C237.614,-55.124 143.135,-40.477 54.2463,-20.0917"/>
<polygon fill="midnightblue" stroke="midnightblue" points="54.8089,-16.6292 44.2762,-17.775 53.2245,-23.4476 54.8089,-16.6292"/>
</g>
<!-- Node6 -->
<g id="node7" class="node"><title>Node6</title>
<polygon fill="white" stroke="#bfbfbf" points="308,-0.5 308,-19.5 364,-19.5 364,-0.5 308,-0.5"/>
<text text-anchor="middle" x="336" y="-7.5" font-family="Helvetica,sans-Serif" font-size="10.00">algorithm</text>
</g>
<!-- Node3&#45;&gt;Node6 -->
<g id="edge6" class="edge"><title>Node3&#45;&gt;Node6</title>
<path fill="none" stroke="midnightblue" d="M310.954,-56.083C315.104,-48.6127 321.153,-37.7244 326.267,-28.5199"/>
<polygon fill="midnightblue" stroke="midnightblue" points="329.341,-30.1924 331.138,-19.7511 323.222,-26.7929 329.341,-30.1924"/>
</g>
<!-- Node7 -->
<g id="node8" class="node"><title>Node7</title>
<polygon fill="white" stroke="#bfbfbf" points="382.5,-0.5 382.5,-19.5 417.5,-19.5 417.5,-0.5 382.5,-0.5"/>
<text text-anchor="middle" x="400" y="-7.5" font-family="Helvetica,sans-Serif" font-size="10.00">map</text>
</g>
<!-- Node3&#45;&gt;Node7 -->
<g id="edge7" class="edge"><title>Node3&#45;&gt;Node7</title>
<path fill="none" stroke="midnightblue" d="M321.103,-56.324C335.903,-47.8215 358.694,-34.7288 375.982,-24.7975"/>
<polygon fill="midnightblue" stroke="midnightblue" points="378.007,-27.6707 384.935,-19.6545 374.52,-21.6009 378.007,-27.6707"/>
</g>
<!-- Node8 -->
<g id="node9" class="node"><title>Node8</title>
<polygon fill="white" stroke="#bfbfbf" points="435.5,-0.5 435.5,-19.5 464.5,-19.5 464.5,-0.5 435.5,-0.5"/>
<text text-anchor="middle" x="450" y="-7.5" font-family="Helvetica,sans-Serif" font-size="10.00">list</text>
</g>
<!-- Node3&#45;&gt;Node8 -->
<g id="edge8" class="edge"><title>Node3&#45;&gt;Node8</title>
<path fill="none" stroke="midnightblue" d="M329.24,-56.4896C351.823,-48.1913 387.305,-35.0776 426.04,-20.3278"/>
<polygon fill="midnightblue" stroke="midnightblue" points="427.319,-23.5861 435.414,-16.7505 424.823,-17.0461 427.319,-23.5861"/>
</g>
<!-- Node3&#45;&gt;Node9 -->
<g id="edge9" class="edge"><title>Node3&#45;&gt;Node9</title>
<path fill="none" stroke="midnightblue" d="M330.607,-58.4863C366.047,-49.1052 431.726,-31.7196 473.021,-20.7886"/>
<polygon fill="midnightblue" stroke="midnightblue" points="473.936,-24.1669 482.708,-18.2245 472.145,-17.4 473.936,-24.1669"/>
</g>
<!-- Node10 -->
<g id="node11" class="node"><title>Node10</title>
<polygon fill="white" stroke="#bfbfbf" points="124,-0.5 124,-19.5 174,-19.5 174,-0.5 124,-0.5"/>
<text text-anchor="middle" x="149" y="-7.5" font-family="Helvetica,sans-Serif" font-size="10.00">iomanip</text>
</g>
<!-- Node3&#45;&gt;Node10 -->
<g id="edge10" class="edge"><title>Node3&#45;&gt;Node10</title>
<path fill="none" stroke="midnightblue" d="M281.469,-56.5625C255.124,-47.5014 213.062,-33.0342 183.415,-22.837"/>
<polygon fill="midnightblue" stroke="midnightblue" points="184.472,-19.4993 173.877,-19.5565 182.195,-26.1187 184.472,-19.4993"/>
</g>
<!-- Node11 -->
<g id="node12" class="node"><title>Node11</title>
<polygon fill="white" stroke="#bfbfbf" points="192,-0.5 192,-19.5 242,-19.5 242,-0.5 192,-0.5"/>
<text text-anchor="middle" x="217" y="-7.5" font-family="Helvetica,sans-Serif" font-size="10.00">fstream</text>
</g>
<!-- Node3&#45;&gt;Node11 -->
<g id="edge11" class="edge"><title>Node3&#45;&gt;Node11</title>
<path fill="none" stroke="midnightblue" d="M291.701,-56.324C277.817,-47.9002 256.508,-34.9709 240.196,-25.0741"/>
<polygon fill="midnightblue" stroke="midnightblue" points="241.629,-21.8495 231.264,-19.6545 237.998,-27.8341 241.629,-21.8495"/>
</g>
<!-- Node3&#45;&gt;Node12 -->
<g id="edge12" class="edge"><title>Node3&#45;&gt;Node12</title>
<path fill="none" stroke="midnightblue" d="M330.653,-60.9925C372.615,-54.0396 460.79,-38.8609 545.168,-20.0492"/>
<polygon fill="midnightblue" stroke="midnightblue" points="546.182,-23.4086 555.169,-17.798 544.645,-16.5795 546.182,-23.4086"/>
</g>
<!-- Node13 -->
<g id="node14" class="node"><title>Node13</title>
<polygon fill="white" stroke="#bfbfbf" points="62,-0.5 62,-19.5 106,-19.5 106,-0.5 62,-0.5"/>
<text text-anchor="middle" x="84" y="-7.5" font-family="Helvetica,sans-Serif" font-size="10.00">cmath</text>
</g>
<!-- Node3&#45;&gt;Node13 -->
<g id="edge13" class="edge"><title>Node3&#45;&gt;Node13</title>
<path fill="none" stroke="midnightblue" d="M281.37,-59.2716C238.34,-49.2537 151.303,-28.9441 116.119,-20.1393"/>
<polygon fill="midnightblue" stroke="midnightblue" points="116.869,-16.7186 106.313,-17.6259 115.131,-23.4994 116.869,-16.7186"/>
</g>
<!-- Node14&#45;&gt;Node3 -->
<g id="edge18" class="edge"><title>Node14&#45;&gt;Node3</title>
<path fill="none" stroke="midnightblue" d="M261.752,-112.083C269.47,-104.22 280.905,-92.5688 290.217,-83.0813"/>
<polygon fill="midnightblue" stroke="midnightblue" points="292.904,-85.3396 297.411,-75.7511 287.908,-80.4363 292.904,-85.3396"/>
</g>
<!-- Node14&#45;&gt;Node5 -->
<g id="edge15" class="edge"><title>Node14&#45;&gt;Node5</title>
<path fill="none" stroke="midnightblue" d="M247.757,-112.351C238.771,-98.292 219.052,-70.59 195,-56 141.943,-23.8149 118.102,-35.7938 54.0722,-20.1047"/>
<polygon fill="midnightblue" stroke="midnightblue" points="54.8834,-16.6994 44.3253,-17.5806 53.1285,-23.4758 54.8834,-16.6994"/>
</g>
<!-- Node14&#45;&gt;Node13 -->
<g id="edge17" class="edge"><title>Node14&#45;&gt;Node13</title>
<path fill="none" stroke="midnightblue" d="M252.183,-112.082C250.431,-98.1475 245.059,-71.2327 229,-56 226.88,-53.9891 158.088,-33.1616 116.031,-20.5579"/>
<polygon fill="midnightblue" stroke="midnightblue" points="116.81,-17.1375 106.226,-17.6231 114.802,-23.8436 116.81,-17.1375"/>
</g>
<!-- Node15 -->
<g id="node16" class="node"><title>Node15</title>
<polygon fill="white" stroke="#bfbfbf" points="135.5,-56.5 135.5,-75.5 186.5,-75.5 186.5,-56.5 135.5,-56.5"/>
<text text-anchor="middle" x="161" y="-63.5" font-family="Helvetica,sans-Serif" font-size="10.00">valarray</text>
</g>
<!-- Node14&#45;&gt;Node15 -->
<g id="edge16" class="edge"><title>Node14&#45;&gt;Node15</title>
<path fill="none" stroke="midnightblue" d="M238.219,-112.324C223.733,-103.822 201.427,-90.7288 184.507,-80.7975"/>
<polygon fill="midnightblue" stroke="midnightblue" points="186.141,-77.6981 175.745,-75.6545 182.597,-83.735 186.141,-77.6981"/>
</g>
</g>
</svg>
