<?xml version="1.0" encoding="UTF-8" standalone="no"?>
<!DOCTYPE svg PUBLIC "-//W3C//DTD SVG 1.1//EN"
 "http://www.w3.org/Graphics/SVG/1.1/DTD/svg11.dtd">
<!-- Generated by graphviz version 2.40.1 (20161225.0304)
 -->
<!-- Title: cfmmfswModule.cpp Pages: 1 -->
<svg width="646pt" height="196pt"
 viewBox="0.00 0.00 646.00 196.00" xmlns="http://www.w3.org/2000/svg" xmlns:xlink="http://www.w3.org/1999/xlink">
<g id="graph0" class="graph" transform="scale(1 1) rotate(0) translate(4 192)">
<title>cfmmfswModule.cpp</title>
<polygon fill="#ffffff" stroke="transparent" points="-4,4 -4,-192 642,-192 642,4 -4,4"/>
<!-- Node0 -->
<g id="node1" class="node">
<title>Node0</title>
<polygon fill="#bfbfbf" stroke="#000000" points="299,-168.5 299,-187.5 406,-187.5 406,-168.5 299,-168.5"/>
<text text-anchor="middle" x="352.5" y="-175.5" font-family="Helvetica,sans-Serif" font-size="10.00" fill="#000000">cfmmfswModule.cpp</text>
</g>
<!-- Node1 -->
<g id="node2" class="node">
<title>Node1</title>
<polygon fill="#ffffff" stroke="#bfbfbf" points="253.5,-56.5 253.5,-75.5 309.5,-75.5 309.5,-56.5 253.5,-56.5"/>
<text text-anchor="middle" x="281.5" y="-63.5" font-family="Helvetica,sans-Serif" font-size="10.00" fill="#000000">Python.h</text>
</g>
<!-- Node0&#45;&gt;Node1 -->
<g id="edge1" class="edge">
<title>Node0&#45;&gt;Node1</title>
<path fill="none" stroke="#191970" d="M342.4424,-168.486C333.502,-159.647 320.4914,-145.8048 311.5,-132 301.9602,-117.3533 293.9422,-99.1749 288.6022,-85.6068"/>
<polygon fill="#191970" stroke="#191970" points="291.7298,-83.9826 284.916,-75.8695 285.1832,-86.461 291.7298,-83.9826"/>
</g>
<!-- Node2 -->
<g id="node3" class="node">
<title>Node2</title>
<polygon fill="#ffffff" stroke="#bfbfbf" points="102,-56.5 102,-75.5 207,-75.5 207,-56.5 102,-56.5"/>
<text text-anchor="middle" x="154.5" y="-63.5" font-family="Helvetica,sans-Serif" font-size="10.00" fill="#000000">numpy/arrayobject.h</text>
</g>
<!-- Node0&#45;&gt;Node2 -->
<g id="edge2" class="edge">
<title>Node0&#45;&gt;Node2</title>
<path fill="none" stroke="#191970" d="M298.8268,-173.6353C243.7552,-167.9115 163.5172,-155.6824 144.5,-132 133.9898,-118.9115 138.5741,-99.5056 144.5367,-85.1209"/>
<polygon fill="#191970" stroke="#191970" points="147.8769,-86.2391 148.9258,-75.6963 141.5312,-83.2838 147.8769,-86.2391"/>
</g>
<!-- Node3 -->
<g id="node4" class="node">
<title>Node3</title>
<g id="a_node4"><a xlink:href="cfmmfsw_8h.html" target="_top" xlink:title="cfmmfsw.h">
<polygon fill="#ffffff" stroke="#000000" points="320,-112.5 320,-131.5 385,-131.5 385,-112.5 320,-112.5"/>
<text text-anchor="middle" x="352.5" y="-119.5" font-family="Helvetica,sans-Serif" font-size="10.00" fill="#000000">cfmmfsw.h</text>
</a>
</g>
</g>
<!-- Node0&#45;&gt;Node3 -->
<g id="edge3" class="edge">
<title>Node0&#45;&gt;Node3</title>
<path fill="none" stroke="#191970" d="M352.5,-168.2455C352.5,-160.9382 352.5,-150.6944 352.5,-141.7046"/>
<polygon fill="#191970" stroke="#191970" points="356.0001,-141.6426 352.5,-131.6427 349.0001,-141.6427 356.0001,-141.6426"/>
</g>
<!-- Node4 -->
<g id="node5" class="node">
<title>Node4</title>
<g id="a_node5"><a xlink:href="mesh_8h.html" target="_top" xlink:title="mesh.h">
<polygon fill="#ffffff" stroke="#000000" points="328,-56.5 328,-75.5 377,-75.5 377,-56.5 328,-56.5"/>
<text text-anchor="middle" x="352.5" y="-63.5" font-family="Helvetica,sans-Serif" font-size="10.00" fill="#000000">mesh.h</text>
</a>
</g>
</g>
<!-- Node0&#45;&gt;Node4 -->
<g id="edge16" class="edge">
<title>Node0&#45;&gt;Node4</title>
<path fill="none" stroke="#191970" d="M365.8268,-168.3802C381.084,-156.0864 402.9472,-133.7797 394.5,-112 390.1142,-100.692 381.5098,-90.463 373.2251,-82.5381"/>
<polygon fill="#191970" stroke="#191970" points="375.3244,-79.721 365.528,-75.6859 370.6699,-84.9494 375.3244,-79.721"/>
</g>
<!-- Node10 -->
<g id="node11" class="node">
<title>Node10</title>
<polygon fill="#ffffff" stroke="#bfbfbf" points="426.5,-.5 426.5,-19.5 480.5,-19.5 480.5,-.5 426.5,-.5"/>
<text text-anchor="middle" x="453.5" y="-7.5" font-family="Helvetica,sans-Serif" font-size="10.00" fill="#000000">iostream</text>
</g>
<!-- Node0&#45;&gt;Node10 -->
<g id="edge26" class="edge">
<title>Node0&#45;&gt;Node10</title>
<path fill="none" stroke="#191970" d="M368.2282,-168.4488C380.6767,-160.1777 397.7072,-147.1741 408.5,-132 431.2964,-99.9496 443.9062,-55.0197 449.6363,-29.5842"/>
<polygon fill="#191970" stroke="#191970" points="453.0863,-30.1865 451.7389,-19.6777 446.2389,-28.7331 453.0863,-30.1865"/>
</g>
<!-- Node15 -->
<g id="node16" class="node">
<title>Node15</title>
<g id="a_node16"><a xlink:href="cmesh_tools_module_8h.html" target="_top" xlink:title="cmeshToolsModule.h">
<polygon fill="#ffffff" stroke="#000000" points="153.5,-112.5 153.5,-131.5 263.5,-131.5 263.5,-112.5 153.5,-112.5"/>
<text text-anchor="middle" x="208.5" y="-119.5" font-family="Helvetica,sans-Serif" font-size="10.00" fill="#000000">cmeshToolsModule.h</text>
</a>
</g>
</g>
<!-- Node0&#45;&gt;Node15 -->
<g id="edge17" class="edge">
<title>Node0&#45;&gt;Node15</title>
<path fill="none" stroke="#191970" d="M327.7455,-168.3733C304.2151,-159.2226 268.6313,-145.3844 242.4574,-135.2057"/>
<polygon fill="#191970" stroke="#191970" points="243.5201,-131.8636 232.9315,-131.5011 240.9829,-138.3877 243.5201,-131.8636"/>
</g>
<!-- Node16 -->
<g id="node17" class="node">
<title>Node16</title>
<g id="a_node17"><a xlink:href="_f_m_mand_f_s_w_8h.html" target="_top" xlink:title="FMMandFSW.h">
<polygon fill="#ffffff" stroke="#000000" points="479.5,-112.5 479.5,-131.5 565.5,-131.5 565.5,-112.5 479.5,-112.5"/>
<text text-anchor="middle" x="522.5" y="-119.5" font-family="Helvetica,sans-Serif" font-size="10.00" fill="#000000">FMMandFSW.h</text>
</a>
</g>
</g>
<!-- Node0&#45;&gt;Node16 -->
<g id="edge21" class="edge">
<title>Node0&#45;&gt;Node16</title>
<path fill="none" stroke="#191970" d="M381.724,-168.3733C409.9925,-159.0613 452.9965,-144.8953 484.0344,-134.671"/>
<polygon fill="#191970" stroke="#191970" points="485.2544,-137.9542 493.6573,-131.5011 483.0643,-131.3056 485.2544,-137.9542"/>
</g>
<!-- Node3&#45;&gt;Node1 -->
<g id="edge4" class="edge">
<title>Node3&#45;&gt;Node1</title>
<path fill="none" stroke="#191970" d="M340.1327,-112.2455C329.5446,-103.8943 314.0936,-91.7076 301.7107,-81.9408"/>
<polygon fill="#191970" stroke="#191970" points="303.7447,-79.0875 293.7255,-75.6427 299.4097,-84.5837 303.7447,-79.0875"/>
</g>
<!-- Node3&#45;&gt;Node4 -->
<g id="edge5" class="edge">
<title>Node3&#45;&gt;Node4</title>
<path fill="none" stroke="#191970" d="M352.5,-112.2455C352.5,-104.9382 352.5,-94.6944 352.5,-85.7046"/>
<polygon fill="#191970" stroke="#191970" points="356.0001,-85.6426 352.5,-75.6427 349.0001,-85.6427 356.0001,-85.6426"/>
</g>
<!-- Node5 -->
<g id="node6" class="node">
<title>Node5</title>
<polygon fill="#ffffff" stroke="#bfbfbf" points="304.5,-.5 304.5,-19.5 334.5,-19.5 334.5,-.5 304.5,-.5"/>
<text text-anchor="middle" x="319.5" y="-7.5" font-family="Helvetica,sans-Serif" font-size="10.00" fill="#000000">set</text>
</g>
<!-- Node4&#45;&gt;Node5 -->
<g id="edge6" class="edge">
<title>Node4&#45;&gt;Node5</title>
<path fill="none" stroke="#191970" d="M346.7518,-56.2455C342.2565,-48.617 335.8752,-37.7881 330.4175,-28.5267"/>
<polygon fill="#191970" stroke="#191970" points="333.2747,-26.4811 325.1823,-19.6427 327.2439,-30.035 333.2747,-26.4811"/>
</g>
<!-- Node6 -->
<g id="node7" class="node">
<title>Node6</title>
<polygon fill="#ffffff" stroke="#bfbfbf" points="498.5,-.5 498.5,-19.5 542.5,-19.5 542.5,-.5 498.5,-.5"/>
<text text-anchor="middle" x="520.5" y="-7.5" font-family="Helvetica,sans-Serif" font-size="10.00" fill="#000000">vector</text>
</g>
<!-- Node4&#45;&gt;Node6 -->
<g id="edge7" class="edge">
<title>Node4&#45;&gt;Node6</title>
<path fill="none" stroke="#191970" d="M377.289,-57.737C406.7739,-47.9087 456.062,-31.4793 488.427,-20.691"/>
<polygon fill="#191970" stroke="#191970" points="489.9138,-23.8848 498.2938,-17.4021 487.7002,-17.244 489.9138,-23.8848"/>
</g>
<!-- Node7 -->
<g id="node8" class="node">
<title>Node7</title>
<polygon fill="#ffffff" stroke="#bfbfbf" points="352.5,-.5 352.5,-19.5 408.5,-19.5 408.5,-.5 352.5,-.5"/>
<text text-anchor="middle" x="380.5" y="-7.5" font-family="Helvetica,sans-Serif" font-size="10.00" fill="#000000">algorithm</text>
</g>
<!-- Node4&#45;&gt;Node7 -->
<g id="edge8" class="edge">
<title>Node4&#45;&gt;Node7</title>
<path fill="none" stroke="#191970" d="M357.3772,-56.2455C361.1513,-48.6973 366.4921,-38.0158 371.0901,-28.8197"/>
<polygon fill="#191970" stroke="#191970" points="374.337,-30.1522 375.6787,-19.6427 368.076,-27.0217 374.337,-30.1522"/>
</g>
<!-- Node8 -->
<g id="node9" class="node">
<title>Node8</title>
<polygon fill="#ffffff" stroke="#bfbfbf" points="0,-.5 0,-19.5 35,-19.5 35,-.5 0,-.5"/>
<text text-anchor="middle" x="17.5" y="-7.5" font-family="Helvetica,sans-Serif" font-size="10.00" fill="#000000">map</text>
</g>
<!-- Node4&#45;&gt;Node8 -->
<g id="edge9" class="edge">
<title>Node4&#45;&gt;Node8</title>
<path fill="none" stroke="#191970" d="M327.7315,-58.2301C324.6412,-57.4044 321.51,-56.6356 318.5,-56 201.0747,-31.2036 164.8746,-49.3246 45.1369,-19.9468"/>
<polygon fill="#191970" stroke="#191970" points="45.7735,-16.498 35.2219,-17.4537 44.0665,-23.2867 45.7735,-16.498"/>
</g>
<!-- Node9 -->
<g id="node10" class="node">
<title>Node9</title>
<polygon fill="#ffffff" stroke="#bfbfbf" points="53,-.5 53,-19.5 82,-19.5 82,-.5 53,-.5"/>
<text text-anchor="middle" x="67.5" y="-7.5" font-family="Helvetica,sans-Serif" font-size="10.00" fill="#000000">list</text>
</g>
<!-- Node4&#45;&gt;Node9 -->
<g id="edge10" class="edge">
<title>Node4&#45;&gt;Node9</title>
<path fill="none" stroke="#191970" d="M327.7142,-58.3093C324.6269,-57.47 321.5011,-56.6764 318.5,-56 218.8496,-33.5419 189.7827,-47.8403 91.5,-20 91.4023,-19.9723 91.3044,-19.9444 91.2064,-19.9161"/>
<polygon fill="#191970" stroke="#191970" points="92.6212,-16.7033 82.0264,-16.6991 90.3062,-23.3094 92.6212,-16.7033"/>
</g>
<!-- Node4&#45;&gt;Node10 -->
<g id="edge11" class="edge">
<title>Node4&#45;&gt;Node10</title>
<path fill="none" stroke="#191970" d="M370.0929,-56.2455C385.879,-47.4928 409.2639,-34.527 427.2587,-24.5496"/>
<polygon fill="#191970" stroke="#191970" points="429.0603,-27.5528 436.1087,-19.6427 425.6659,-21.4308 429.0603,-27.5528"/>
</g>
<!-- Node11 -->
<g id="node12" class="node">
<title>Node11</title>
<polygon fill="#ffffff" stroke="#bfbfbf" points="100.5,-.5 100.5,-19.5 150.5,-19.5 150.5,-.5 100.5,-.5"/>
<text text-anchor="middle" x="125.5" y="-7.5" font-family="Helvetica,sans-Serif" font-size="10.00" fill="#000000">iomanip</text>
</g>
<!-- Node4&#45;&gt;Node11 -->
<g id="edge12" class="edge">
<title>Node4&#45;&gt;Node11</title>
<path fill="none" stroke="#191970" d="M327.6682,-58.4991C324.5888,-57.6273 321.4774,-56.7741 318.5,-56 251.389,-38.552 231.3305,-38.2261 160.5507,-20.1506"/>
<polygon fill="#191970" stroke="#191970" points="161.2592,-16.7187 150.7015,-17.6054 159.5077,-23.4961 161.2592,-16.7187"/>
</g>
<!-- Node12 -->
<g id="node13" class="node">
<title>Node12</title>
<polygon fill="#ffffff" stroke="#bfbfbf" points="168.5,-.5 168.5,-19.5 218.5,-19.5 218.5,-.5 168.5,-.5"/>
<text text-anchor="middle" x="193.5" y="-7.5" font-family="Helvetica,sans-Serif" font-size="10.00" fill="#000000">fstream</text>
</g>
<!-- Node4&#45;&gt;Node12 -->
<g id="edge13" class="edge">
<title>Node4&#45;&gt;Node12</title>
<path fill="none" stroke="#191970" d="M327.6563,-57.25C300.9762,-47.8533 258.3784,-32.8502 228.3533,-22.2754"/>
<polygon fill="#191970" stroke="#191970" points="229.2888,-18.8942 218.694,-18.8734 226.9634,-25.4967 229.2888,-18.8942"/>
</g>
<!-- Node13 -->
<g id="node14" class="node">
<title>Node13</title>
<polygon fill="#ffffff" stroke="#bfbfbf" points="237,-.5 237,-19.5 286,-19.5 286,-.5 237,-.5"/>
<text text-anchor="middle" x="261.5" y="-7.5" font-family="Helvetica,sans-Serif" font-size="10.00" fill="#000000">cassert</text>
</g>
<!-- Node4&#45;&gt;Node13 -->
<g id="edge14" class="edge">
<title>Node4&#45;&gt;Node13</title>
<path fill="none" stroke="#191970" d="M336.649,-56.2455C322.6868,-47.6534 302.1272,-35.0014 286.0404,-25.1018"/>
<polygon fill="#191970" stroke="#191970" points="287.5203,-21.9029 277.1693,-19.6427 283.8516,-27.8645 287.5203,-21.9029"/>
</g>
<!-- Node14 -->
<g id="node15" class="node">
<title>Node14</title>
<polygon fill="#ffffff" stroke="#bfbfbf" points="560.5,-.5 560.5,-19.5 604.5,-19.5 604.5,-.5 560.5,-.5"/>
<text text-anchor="middle" x="582.5" y="-7.5" font-family="Helvetica,sans-Serif" font-size="10.00" fill="#000000">cmath</text>
</g>
<!-- Node4&#45;&gt;Node14 -->
<g id="edge15" class="edge">
<title>Node4&#45;&gt;Node14</title>
<path fill="none" stroke="#191970" d="M377.1776,-61.0001C413.1857,-53.5536 482.4059,-38.6711 550.2253,-20.1901"/>
<polygon fill="#191970" stroke="#191970" points="551.5057,-23.4678 560.2171,-17.4377 549.6467,-16.7192 551.5057,-23.4678"/>
</g>
<!-- Node15&#45;&gt;Node1 -->
<g id="edge18" class="edge">
<title>Node15&#45;&gt;Node1</title>
<path fill="none" stroke="#191970" d="M221.2156,-112.2455C232.102,-103.8943 247.9883,-91.7076 260.72,-81.9408"/>
<polygon fill="#191970" stroke="#191970" points="263.1261,-84.5063 268.9301,-75.6427 258.8654,-78.9523 263.1261,-84.5063"/>
</g>
<!-- Node15&#45;&gt;Node2 -->
<g id="edge19" class="edge">
<title>Node15&#45;&gt;Node2</title>
<path fill="none" stroke="#191970" d="M199.0939,-112.2455C191.3507,-104.2155 180.188,-92.6394 170.9682,-83.0781"/>
<polygon fill="#191970" stroke="#191970" points="173.2591,-80.4117 163.7983,-75.6427 168.2202,-85.2706 173.2591,-80.4117"/>
</g>
<!-- Node15&#45;&gt;Node4 -->
<g id="edge20" class="edge">
<title>Node15&#45;&gt;Node4</title>
<path fill="none" stroke="#191970" d="M233.2545,-112.3733C256.7849,-103.2226 292.3687,-89.3844 318.5426,-79.2057"/>
<polygon fill="#191970" stroke="#191970" points="320.0171,-82.3877 328.0685,-75.5011 317.4799,-75.8636 320.0171,-82.3877"/>
</g>
<!-- Node16&#45;&gt;Node4 -->
<g id="edge25" class="edge">
<title>Node16&#45;&gt;Node4</title>
<path fill="none" stroke="#191970" d="M493.276,-112.3733C463.7226,-102.638 418.0636,-87.5974 386.8099,-77.3021"/>
<polygon fill="#191970" stroke="#191970" points="387.8004,-73.9434 377.2074,-74.1389 385.6103,-80.592 387.8004,-73.9434"/>
</g>
<!-- Node16&#45;&gt;Node6 -->
<g id="edge22" class="edge">
<title>Node16&#45;&gt;Node6</title>
<path fill="none" stroke="#191970" d="M522.3295,-112.4509C522.0033,-94.184 521.2849,-53.9553 520.8517,-29.6976"/>
<polygon fill="#191970" stroke="#191970" points="524.3482,-29.4608 520.6701,-19.5249 517.3493,-29.5858 524.3482,-29.4608"/>
</g>
<!-- Node16&#45;&gt;Node14 -->
<g id="edge24" class="edge">
<title>Node16&#45;&gt;Node14</title>
<path fill="none" stroke="#191970" d="M527.6156,-112.4509C537.5786,-93.8533 559.7365,-52.4919 572.6448,-28.3964"/>
<polygon fill="#191970" stroke="#191970" points="575.7603,-29.9925 577.3974,-19.5249 569.5899,-26.6869 575.7603,-29.9925"/>
</g>
<!-- Node17 -->
<g id="node18" class="node">
<title>Node17</title>
<polygon fill="#ffffff" stroke="#bfbfbf" points="587,-56.5 587,-75.5 638,-75.5 638,-56.5 587,-56.5"/>
<text text-anchor="middle" x="612.5" y="-63.5" font-family="Helvetica,sans-Serif" font-size="10.00" fill="#000000">valarray</text>
</g>
<!-- Node16&#45;&gt;Node17 -->
<g id="edge23" class="edge">
<title>Node16&#45;&gt;Node17</title>
<path fill="none" stroke="#191970" d="M538.1768,-112.2455C551.9856,-103.6534 572.3193,-91.0014 588.2292,-81.1018"/>
<polygon fill="#191970" stroke="#191970" points="590.3613,-83.8974 597.0028,-75.6427 586.6632,-77.954 590.3613,-83.8974"/>
</g>
</g>
</svg>
