<?xml version="1.0" encoding="UTF-8" standalone="no"?>
<!DOCTYPE svg PUBLIC "-//W3C//DTD SVG 1.1//EN"
 "http://www.w3.org/Graphics/SVG/1.1/DTD/svg11.dtd">
<!-- Generated by graphviz version 2.40.1 (20161225.0304)
 -->
<!-- Title: cfmmfsw.cpp Pages: 1 -->
<svg width="613pt" height="196pt"
 viewBox="0.00 0.00 612.50 196.00" xmlns="http://www.w3.org/2000/svg" xmlns:xlink="http://www.w3.org/1999/xlink">
<g id="graph0" class="graph" transform="scale(1 1) rotate(0) translate(4 192)">
<title>cfmmfsw.cpp</title>
<polygon fill="#ffffff" stroke="transparent" points="-4,4 -4,-192 608.5,-192 608.5,4 -4,4"/>
<!-- Node0 -->
<g id="node1" class="node">
<title>Node0</title>
<polygon fill="#bfbfbf" stroke="#000000" points="285,-168.5 285,-187.5 361,-187.5 361,-168.5 285,-168.5"/>
<text text-anchor="middle" x="323" y="-175.5" font-family="Helvetica,sans-Serif" font-size="10.00" fill="#000000">cfmmfsw.cpp</text>
</g>
<!-- Node1 -->
<g id="node2" class="node">
<title>Node1</title>
<g id="a_node2"><a xlink:href="cfmmfsw_8h.html" target="_top" xlink:title="cfmmfsw.h">
<polygon fill="#ffffff" stroke="#000000" points="125.5,-112.5 125.5,-131.5 190.5,-131.5 190.5,-112.5 125.5,-112.5"/>
<text text-anchor="middle" x="158" y="-119.5" font-family="Helvetica,sans-Serif" font-size="10.00" fill="#000000">cfmmfsw.h</text>
</a>
</g>
</g>
<!-- Node0&#45;&gt;Node1 -->
<g id="edge1" class="edge">
<title>Node0&#45;&gt;Node1</title>
<path fill="none" stroke="#191970" d="M294.6355,-168.3733C267.3173,-159.1016 225.8204,-145.0178 195.7262,-134.804"/>
<polygon fill="#191970" stroke="#191970" points="196.5887,-131.4008 185.9944,-131.5011 194.339,-138.0294 196.5887,-131.4008"/>
</g>
<!-- Node3 -->
<g id="node4" class="node">
<title>Node3</title>
<g id="a_node4"><a xlink:href="mesh_8h.html" target="_top" xlink:title="mesh.h">
<polygon fill="#ffffff" stroke="#000000" points="280.5,-56.5 280.5,-75.5 329.5,-75.5 329.5,-56.5 280.5,-56.5"/>
<text text-anchor="middle" x="305" y="-63.5" font-family="Helvetica,sans-Serif" font-size="10.00" fill="#000000">mesh.h</text>
</a>
</g>
</g>
<!-- Node0&#45;&gt;Node3 -->
<g id="edge19" class="edge">
<title>Node0&#45;&gt;Node3</title>
<path fill="none" stroke="#191970" d="M321.4653,-168.4509C318.5296,-150.184 312.0642,-109.9553 308.1657,-85.6976"/>
<polygon fill="#191970" stroke="#191970" points="311.5733,-84.8428 306.5308,-75.5249 304.662,-85.9536 311.5733,-84.8428"/>
</g>
<!-- Node9 -->
<g id="node10" class="node">
<title>Node9</title>
<polygon fill="#ffffff" stroke="#bfbfbf" points="483,-.5 483,-19.5 537,-19.5 537,-.5 483,-.5"/>
<text text-anchor="middle" x="510" y="-7.5" font-family="Helvetica,sans-Serif" font-size="10.00" fill="#000000">iostream</text>
</g>
<!-- Node0&#45;&gt;Node9 -->
<g id="edge20" class="edge">
<title>Node0&#45;&gt;Node9</title>
<path fill="none" stroke="#191970" d="M333.5897,-168.4862C364.1738,-141.0096 452.9132,-61.2866 491.6032,-26.5276"/>
<polygon fill="#191970" stroke="#191970" points="493.9608,-29.1146 499.0606,-19.8279 489.2827,-23.9074 493.9608,-29.1146"/>
</g>
<!-- Node12 -->
<g id="node13" class="node">
<title>Node12</title>
<polygon fill="#ffffff" stroke="#bfbfbf" points="555.5,-.5 555.5,-19.5 604.5,-19.5 604.5,-.5 555.5,-.5"/>
<text text-anchor="middle" x="580" y="-7.5" font-family="Helvetica,sans-Serif" font-size="10.00" fill="#000000">cassert</text>
</g>
<!-- Node0&#45;&gt;Node12 -->
<g id="edge21" class="edge">
<title>Node0&#45;&gt;Node12</title>
<path fill="none" stroke="#191970" d="M339.4498,-168.3577C354.9399,-159.2041 378.7268,-144.9569 399,-132 457.0372,-94.9077 523.9025,-48.9871 557.8043,-25.472"/>
<polygon fill="#191970" stroke="#191970" points="559.8578,-28.3072 566.0733,-19.727 555.8638,-22.5584 559.8578,-28.3072"/>
</g>
<!-- Node14 -->
<g id="node15" class="node">
<title>Node14</title>
<g id="a_node15"><a xlink:href="_f_m_mand_f_s_w_8h.html" target="_top" xlink:title="FMMandFSW.h">
<polygon fill="#ffffff" stroke="#000000" points="209,-112.5 209,-131.5 295,-131.5 295,-112.5 209,-112.5"/>
<text text-anchor="middle" x="252" y="-119.5" font-family="Helvetica,sans-Serif" font-size="10.00" fill="#000000">FMMandFSW.h</text>
</a>
</g>
</g>
<!-- Node0&#45;&gt;Node14 -->
<g id="edge14" class="edge">
<title>Node0&#45;&gt;Node14</title>
<path fill="none" stroke="#191970" d="M310.6327,-168.2455C300.0446,-159.8943 284.5936,-147.7076 272.2107,-137.9408"/>
<polygon fill="#191970" stroke="#191970" points="274.2447,-135.0875 264.2255,-131.6427 269.9097,-140.5837 274.2447,-135.0875"/>
</g>
<!-- Node2 -->
<g id="node3" class="node">
<title>Node2</title>
<polygon fill="#ffffff" stroke="#bfbfbf" points="60,-56.5 60,-75.5 116,-75.5 116,-56.5 60,-56.5"/>
<text text-anchor="middle" x="88" y="-63.5" font-family="Helvetica,sans-Serif" font-size="10.00" fill="#000000">Python.h</text>
</g>
<!-- Node1&#45;&gt;Node2 -->
<g id="edge2" class="edge">
<title>Node1&#45;&gt;Node2</title>
<path fill="none" stroke="#191970" d="M145.8069,-112.2455C135.3679,-103.8943 120.1345,-91.7076 107.926,-81.9408"/>
<polygon fill="#191970" stroke="#191970" points="110.0485,-79.1566 100.0533,-75.6427 105.6756,-84.6227 110.0485,-79.1566"/>
</g>
<!-- Node1&#45;&gt;Node3 -->
<g id="edge3" class="edge">
<title>Node1&#45;&gt;Node3</title>
<path fill="none" stroke="#191970" d="M183.2702,-112.3733C207.3966,-103.1822 243.9362,-89.2624 270.6877,-79.0713"/>
<polygon fill="#191970" stroke="#191970" points="271.9607,-82.3318 280.0596,-75.5011 269.4687,-75.7904 271.9607,-82.3318"/>
</g>
<!-- Node4 -->
<g id="node5" class="node">
<title>Node4</title>
<polygon fill="#ffffff" stroke="#bfbfbf" points="260,-.5 260,-19.5 290,-19.5 290,-.5 260,-.5"/>
<text text-anchor="middle" x="275" y="-7.5" font-family="Helvetica,sans-Serif" font-size="10.00" fill="#000000">set</text>
</g>
<!-- Node3&#45;&gt;Node4 -->
<g id="edge4" class="edge">
<title>Node3&#45;&gt;Node4</title>
<path fill="none" stroke="#191970" d="M299.7744,-56.2455C295.6877,-48.617 289.8865,-37.7881 284.925,-28.5267"/>
<polygon fill="#191970" stroke="#191970" points="287.9732,-26.8047 280.1657,-19.6427 281.8028,-30.1103 287.9732,-26.8047"/>
</g>
<!-- Node5 -->
<g id="node6" class="node">
<title>Node5</title>
<polygon fill="#ffffff" stroke="#bfbfbf" points="0,-.5 0,-19.5 44,-19.5 44,-.5 0,-.5"/>
<text text-anchor="middle" x="22" y="-7.5" font-family="Helvetica,sans-Serif" font-size="10.00" fill="#000000">vector</text>
</g>
<!-- Node3&#45;&gt;Node5 -->
<g id="edge5" class="edge">
<title>Node3&#45;&gt;Node5</title>
<path fill="none" stroke="#191970" d="M280.4445,-62.6148C236.7488,-56.3577 142.5159,-41.8126 54.1586,-20.0427"/>
<polygon fill="#191970" stroke="#191970" points="54.8,-16.5953 44.2496,-17.564 53.1013,-23.3861 54.8,-16.5953"/>
</g>
<!-- Node6 -->
<g id="node7" class="node">
<title>Node6</title>
<polygon fill="#ffffff" stroke="#bfbfbf" points="308,-.5 308,-19.5 364,-19.5 364,-.5 308,-.5"/>
<text text-anchor="middle" x="336" y="-7.5" font-family="Helvetica,sans-Serif" font-size="10.00" fill="#000000">algorithm</text>
</g>
<!-- Node3&#45;&gt;Node6 -->
<g id="edge6" class="edge">
<title>Node3&#45;&gt;Node6</title>
<path fill="none" stroke="#191970" d="M310.3998,-56.2455C314.6227,-48.617 320.6173,-37.7881 325.7441,-28.5267"/>
<polygon fill="#191970" stroke="#191970" points="328.881,-30.0867 330.6621,-19.6427 322.7568,-26.6965 328.881,-30.0867"/>
</g>
<!-- Node7 -->
<g id="node8" class="node">
<title>Node7</title>
<polygon fill="#ffffff" stroke="#bfbfbf" points="382.5,-.5 382.5,-19.5 417.5,-19.5 417.5,-.5 382.5,-.5"/>
<text text-anchor="middle" x="400" y="-7.5" font-family="Helvetica,sans-Serif" font-size="10.00" fill="#000000">map</text>
</g>
<!-- Node3&#45;&gt;Node7 -->
<g id="edge7" class="edge">
<title>Node3&#45;&gt;Node7</title>
<path fill="none" stroke="#191970" d="M321.5477,-56.2455C336.2599,-47.5731 357.9888,-34.7645 374.8505,-24.825"/>
<polygon fill="#191970" stroke="#191970" points="376.8046,-27.736 383.6419,-19.6427 373.2498,-21.7057 376.8046,-27.736"/>
</g>
<!-- Node8 -->
<g id="node9" class="node">
<title>Node8</title>
<polygon fill="#ffffff" stroke="#bfbfbf" points="435.5,-.5 435.5,-19.5 464.5,-19.5 464.5,-.5 435.5,-.5"/>
<text text-anchor="middle" x="450" y="-7.5" font-family="Helvetica,sans-Serif" font-size="10.00" fill="#000000">list</text>
</g>
<!-- Node3&#45;&gt;Node8 -->
<g id="edge8" class="edge">
<title>Node3&#45;&gt;Node8</title>
<path fill="none" stroke="#191970" d="M329.908,-57.019C352.729,-48.7017 387.6433,-35.7559 425.706,-20.4095"/>
<polygon fill="#191970" stroke="#191970" points="427.4952,-23.4608 435.4454,-16.4575 424.8632,-16.9744 427.4952,-23.4608"/>
</g>
<!-- Node3&#45;&gt;Node9 -->
<g id="edge9" class="edge">
<title>Node3&#45;&gt;Node9</title>
<path fill="none" stroke="#191970" d="M329.6406,-59.3361C360.7571,-50.9116 416.1953,-35.8714 473.008,-20.2636"/>
<polygon fill="#191970" stroke="#191970" points="474.163,-23.576 482.8774,-17.5503 472.3073,-16.8264 474.163,-23.576"/>
</g>
<!-- Node10 -->
<g id="node11" class="node">
<title>Node10</title>
<polygon fill="#ffffff" stroke="#bfbfbf" points="124,-.5 124,-19.5 174,-19.5 174,-.5 124,-.5"/>
<text text-anchor="middle" x="149" y="-7.5" font-family="Helvetica,sans-Serif" font-size="10.00" fill="#000000">iomanip</text>
</g>
<!-- Node3&#45;&gt;Node10 -->
<g id="edge10" class="edge">
<title>Node3&#45;&gt;Node10</title>
<path fill="none" stroke="#191970" d="M280.2813,-57.1266C254.1918,-47.7612 212.8682,-32.927 183.5592,-22.4059"/>
<polygon fill="#191970" stroke="#191970" points="184.7141,-19.1018 174.1196,-19.0173 182.349,-25.6902 184.7141,-19.1018"/>
</g>
<!-- Node11 -->
<g id="node12" class="node">
<title>Node11</title>
<polygon fill="#ffffff" stroke="#bfbfbf" points="192,-.5 192,-19.5 242,-19.5 242,-.5 192,-.5"/>
<text text-anchor="middle" x="217" y="-7.5" font-family="Helvetica,sans-Serif" font-size="10.00" fill="#000000">fstream</text>
</g>
<!-- Node3&#45;&gt;Node11 -->
<g id="edge11" class="edge">
<title>Node3&#45;&gt;Node11</title>
<path fill="none" stroke="#191970" d="M289.6716,-56.2455C276.1697,-47.6534 256.2878,-35.0014 240.7314,-25.1018"/>
<polygon fill="#191970" stroke="#191970" points="242.4685,-22.0587 232.1528,-19.6427 238.7103,-27.9643 242.4685,-22.0587"/>
</g>
<!-- Node3&#45;&gt;Node12 -->
<g id="edge12" class="edge">
<title>Node3&#45;&gt;Node12</title>
<path fill="none" stroke="#191970" d="M329.8029,-62.0861C372.0539,-55.2437 460.8383,-40.1064 545.4337,-19.952"/>
<polygon fill="#191970" stroke="#191970" points="546.2916,-23.3455 555.1929,-17.5996 544.6512,-16.5404 546.2916,-23.3455"/>
</g>
<!-- Node13 -->
<g id="node14" class="node">
<title>Node13</title>
<polygon fill="#ffffff" stroke="#bfbfbf" points="62,-.5 62,-19.5 106,-19.5 106,-.5 62,-.5"/>
<text text-anchor="middle" x="84" y="-7.5" font-family="Helvetica,sans-Serif" font-size="10.00" fill="#000000">cmath</text>
</g>
<!-- Node3&#45;&gt;Node13 -->
<g id="edge13" class="edge">
<title>Node3&#45;&gt;Node13</title>
<path fill="none" stroke="#191970" d="M280.2584,-59.5887C275.5285,-58.3821 270.614,-57.1415 266,-56 202.0355,-40.1757 183.1163,-38.7106 116.0767,-20.1543"/>
<polygon fill="#191970" stroke="#191970" points="116.861,-16.7394 106.288,-17.4192 114.9772,-23.4812 116.861,-16.7394"/>
</g>
<!-- Node14&#45;&gt;Node3 -->
<g id="edge18" class="edge">
<title>Node14&#45;&gt;Node3</title>
<path fill="none" stroke="#191970" d="M261.2319,-112.2455C268.8317,-104.2155 279.7877,-92.6394 288.8368,-83.0781"/>
<polygon fill="#191970" stroke="#191970" points="291.5421,-85.3115 295.8739,-75.6427 286.458,-80.4998 291.5421,-85.3115"/>
</g>
<!-- Node14&#45;&gt;Node5 -->
<g id="edge15" class="edge">
<title>Node14&#45;&gt;Node5</title>
<path fill="none" stroke="#191970" d="M246.1961,-112.2808C236.999,-97.7464 217.6696,-70.5087 194,-56 141.4428,-23.784 117.4327,-36.5701 53.9596,-20.0371"/>
<polygon fill="#191970" stroke="#191970" points="54.8707,-16.6578 44.3002,-17.3763 53.0116,-23.4064 54.8707,-16.6578"/>
</g>
<!-- Node14&#45;&gt;Node13 -->
<g id="edge17" class="edge">
<title>Node14&#45;&gt;Node13</title>
<path fill="none" stroke="#191970" d="M251.155,-112.497C249.3828,-98.2449 244.0042,-71.3711 228,-56 192.1377,-21.5565 168.044,-34.3806 115.7461,-20.0103"/>
<polygon fill="#191970" stroke="#191970" points="116.5953,-16.6113 106.0123,-17.1116 114.5974,-23.3202 116.5953,-16.6113"/>
</g>
<!-- Node15 -->
<g id="node16" class="node">
<title>Node15</title>
<polygon fill="#ffffff" stroke="#bfbfbf" points="134.5,-56.5 134.5,-75.5 185.5,-75.5 185.5,-56.5 134.5,-56.5"/>
<text text-anchor="middle" x="160" y="-63.5" font-family="Helvetica,sans-Serif" font-size="10.00" fill="#000000">valarray</text>
</g>
<!-- Node14&#45;&gt;Node15 -->
<g id="edge16" class="edge">
<title>Node14&#45;&gt;Node15</title>
<path fill="none" stroke="#191970" d="M235.9748,-112.2455C221.8592,-103.6534 201.0737,-91.0014 184.8101,-81.1018"/>
<polygon fill="#191970" stroke="#191970" points="186.2034,-77.8525 175.8415,-75.6427 182.5637,-83.8319 186.2034,-77.8525"/>
</g>
</g>
</svg>
