<?xml version="1.0" encoding="UTF-8" standalone="no"?>
<!DOCTYPE svg PUBLIC "-//W3C//DTD SVG 1.1//EN"
 "http://www.w3.org/Graphics/SVG/1.1/DTD/svg11.dtd">
<!-- Generated by graphviz version 2.40.1 (20161225.0304)
 -->
<!-- Title: cfmmfsw.h Pages: 1 -->
<svg width="613pt" height="140pt"
 viewBox="0.00 0.00 613.00 140.00" xmlns="http://www.w3.org/2000/svg" xmlns:xlink="http://www.w3.org/1999/xlink">
<g id="graph0" class="graph" transform="scale(1 1) rotate(0) translate(4 136)">
<title>cfmmfsw.h</title>
<polygon fill="#ffffff" stroke="transparent" points="-4,4 -4,-136 609,-136 609,4 -4,4"/>
<!-- Node0 -->
<g id="node1" class="node">
<title>Node0</title>
<polygon fill="#bfbfbf" stroke="#000000" points="213.5,-112.5 213.5,-131.5 278.5,-131.5 278.5,-112.5 213.5,-112.5"/>
<text text-anchor="middle" x="246" y="-119.5" font-family="Helvetica,sans-Serif" font-size="10.00" fill="#000000">cfmmfsw.h</text>
</g>
<!-- Node1 -->
<g id="node2" class="node">
<title>Node1</title>
<polygon fill="#ffffff" stroke="#bfbfbf" points="183,-56.5 183,-75.5 239,-75.5 239,-56.5 183,-56.5"/>
<text text-anchor="middle" x="211" y="-63.5" font-family="Helvetica,sans-Serif" font-size="10.00" fill="#000000">Python.h</text>
</g>
<!-- Node0&#45;&gt;Node1 -->
<g id="edge1" class="edge">
<title>Node0&#45;&gt;Node1</title>
<path fill="none" stroke="#191970" d="M239.9035,-112.2455C235.0855,-104.5367 228.2249,-93.5598 222.3968,-84.2348"/>
<polygon fill="#191970" stroke="#191970" points="225.2947,-82.2677 217.0267,-75.6427 219.3587,-85.9777 225.2947,-82.2677"/>
</g>
<!-- Node2 -->
<g id="node3" class="node">
<title>Node2</title>
<g id="a_node3"><a xlink:href="mesh_8h.html" target="_top" xlink:title="mesh.h">
<polygon fill="#ffffff" stroke="#000000" points="257.5,-56.5 257.5,-75.5 306.5,-75.5 306.5,-56.5 257.5,-56.5"/>
<text text-anchor="middle" x="282" y="-63.5" font-family="Helvetica,sans-Serif" font-size="10.00" fill="#000000">mesh.h</text>
</a>
</g>
</g>
<!-- Node0&#45;&gt;Node2 -->
<g id="edge2" class="edge">
<title>Node0&#45;&gt;Node2</title>
<path fill="none" stroke="#191970" d="M252.2707,-112.2455C257.2264,-104.5367 264.283,-93.5598 270.2776,-84.2348"/>
<polygon fill="#191970" stroke="#191970" points="273.3376,-85.9471 275.8011,-75.6427 267.4494,-82.1618 273.3376,-85.9471"/>
</g>
<!-- Node3 -->
<g id="node4" class="node">
<title>Node3</title>
<polygon fill="#ffffff" stroke="#bfbfbf" points="0,-.5 0,-19.5 30,-19.5 30,-.5 0,-.5"/>
<text text-anchor="middle" x="15" y="-7.5" font-family="Helvetica,sans-Serif" font-size="10.00" fill="#000000">set</text>
</g>
<!-- Node2&#45;&gt;Node3 -->
<g id="edge3" class="edge">
<title>Node2&#45;&gt;Node3</title>
<path fill="none" stroke="#191970" d="M257.2054,-58.348C254.1196,-57.5021 250.9966,-56.6963 248,-56 159.2376,-35.3747 131.3589,-45.5557 39.7225,-19.6702"/>
<polygon fill="#191970" stroke="#191970" points="40.6292,-16.2891 30.0505,-16.8729 38.6844,-23.0135 40.6292,-16.2891"/>
</g>
<!-- Node4 -->
<g id="node5" class="node">
<title>Node4</title>
<polygon fill="#ffffff" stroke="#bfbfbf" points="48,-.5 48,-19.5 92,-19.5 92,-.5 48,-.5"/>
<text text-anchor="middle" x="70" y="-7.5" font-family="Helvetica,sans-Serif" font-size="10.00" fill="#000000">vector</text>
</g>
<!-- Node2&#45;&gt;Node4 -->
<g id="edge4" class="edge">
<title>Node2&#45;&gt;Node4</title>
<path fill="none" stroke="#191970" d="M257.1548,-58.5497C254.0777,-57.6692 250.9705,-56.8001 248,-56 186.0954,-39.3256 167.446,-38.3908 102.2588,-20.2136"/>
<polygon fill="#191970" stroke="#191970" points="102.8673,-16.7487 92.2927,-17.4027 100.9671,-23.4859 102.8673,-16.7487"/>
</g>
<!-- Node5 -->
<g id="node6" class="node">
<title>Node5</title>
<polygon fill="#ffffff" stroke="#bfbfbf" points="110,-.5 110,-19.5 166,-19.5 166,-.5 110,-.5"/>
<text text-anchor="middle" x="138" y="-7.5" font-family="Helvetica,sans-Serif" font-size="10.00" fill="#000000">algorithm</text>
</g>
<!-- Node2&#45;&gt;Node5 -->
<g id="edge5" class="edge">
<title>Node2&#45;&gt;Node5</title>
<path fill="none" stroke="#191970" d="M257.2455,-56.3733C233.7151,-47.2226 198.1313,-33.3844 171.9574,-23.2057"/>
<polygon fill="#191970" stroke="#191970" points="173.0201,-19.8636 162.4315,-19.5011 170.4829,-26.3877 173.0201,-19.8636"/>
</g>
<!-- Node6 -->
<g id="node7" class="node">
<title>Node6</title>
<polygon fill="#ffffff" stroke="#bfbfbf" points="184.5,-.5 184.5,-19.5 219.5,-19.5 219.5,-.5 184.5,-.5"/>
<text text-anchor="middle" x="202" y="-7.5" font-family="Helvetica,sans-Serif" font-size="10.00" fill="#000000">map</text>
</g>
<!-- Node2&#45;&gt;Node6 -->
<g id="edge6" class="edge">
<title>Node2&#45;&gt;Node6</title>
<path fill="none" stroke="#191970" d="M268.0651,-56.2455C255.9053,-47.7337 238.0536,-35.2375 223.9715,-25.3801"/>
<polygon fill="#191970" stroke="#191970" points="225.9747,-22.51 215.7752,-19.6427 221.9605,-28.2447 225.9747,-22.51"/>
</g>
<!-- Node7 -->
<g id="node8" class="node">
<title>Node7</title>
<polygon fill="#ffffff" stroke="#bfbfbf" points="237.5,-.5 237.5,-19.5 266.5,-19.5 266.5,-.5 237.5,-.5"/>
<text text-anchor="middle" x="252" y="-7.5" font-family="Helvetica,sans-Serif" font-size="10.00" fill="#000000">list</text>
</g>
<!-- Node2&#45;&gt;Node7 -->
<g id="edge7" class="edge">
<title>Node2&#45;&gt;Node7</title>
<path fill="none" stroke="#191970" d="M276.7744,-56.2455C272.6877,-48.617 266.8865,-37.7881 261.925,-28.5267"/>
<polygon fill="#191970" stroke="#191970" points="264.9732,-26.8047 257.1657,-19.6427 258.8028,-30.1103 264.9732,-26.8047"/>
</g>
<!-- Node8 -->
<g id="node9" class="node">
<title>Node8</title>
<polygon fill="#ffffff" stroke="#bfbfbf" points="285,-.5 285,-19.5 339,-19.5 339,-.5 285,-.5"/>
<text text-anchor="middle" x="312" y="-7.5" font-family="Helvetica,sans-Serif" font-size="10.00" fill="#000000">iostream</text>
</g>
<!-- Node2&#45;&gt;Node8 -->
<g id="edge8" class="edge">
<title>Node2&#45;&gt;Node8</title>
<path fill="none" stroke="#191970" d="M287.2256,-56.2455C291.3123,-48.617 297.1135,-37.7881 302.075,-28.5267"/>
<polygon fill="#191970" stroke="#191970" points="305.1972,-30.1103 306.8343,-19.6427 299.0268,-26.8047 305.1972,-30.1103"/>
</g>
<!-- Node9 -->
<g id="node10" class="node">
<title>Node9</title>
<polygon fill="#ffffff" stroke="#bfbfbf" points="357,-.5 357,-19.5 407,-19.5 407,-.5 357,-.5"/>
<text text-anchor="middle" x="382" y="-7.5" font-family="Helvetica,sans-Serif" font-size="10.00" fill="#000000">iomanip</text>
</g>
<!-- Node2&#45;&gt;Node9 -->
<g id="edge9" class="edge">
<title>Node2&#45;&gt;Node9</title>
<path fill="none" stroke="#191970" d="M299.4187,-56.2455C315.0485,-47.4928 338.2019,-34.527 356.0185,-24.5496"/>
<polygon fill="#191970" stroke="#191970" points="357.766,-27.5825 364.7809,-19.6427 354.3457,-21.475 357.766,-27.5825"/>
</g>
<!-- Node10 -->
<g id="node11" class="node">
<title>Node10</title>
<polygon fill="#ffffff" stroke="#bfbfbf" points="425,-.5 425,-19.5 475,-19.5 475,-.5 425,-.5"/>
<text text-anchor="middle" x="450" y="-7.5" font-family="Helvetica,sans-Serif" font-size="10.00" fill="#000000">fstream</text>
</g>
<!-- Node2&#45;&gt;Node10 -->
<g id="edge10" class="edge">
<title>Node2&#45;&gt;Node10</title>
<path fill="none" stroke="#191970" d="M306.789,-57.737C335.4916,-48.1695 382.9607,-32.3464 415.316,-21.5613"/>
<polygon fill="#191970" stroke="#191970" points="416.4545,-24.8712 424.8345,-18.3885 414.2409,-18.2304 416.4545,-24.8712"/>
</g>
<!-- Node11 -->
<g id="node12" class="node">
<title>Node11</title>
<polygon fill="#ffffff" stroke="#bfbfbf" points="493.5,-.5 493.5,-19.5 542.5,-19.5 542.5,-.5 493.5,-.5"/>
<text text-anchor="middle" x="518" y="-7.5" font-family="Helvetica,sans-Serif" font-size="10.00" fill="#000000">cassert</text>
</g>
<!-- Node2&#45;&gt;Node11 -->
<g id="edge11" class="edge">
<title>Node2&#45;&gt;Node11</title>
<path fill="none" stroke="#191970" d="M306.6845,-60.896C343.1525,-53.2445 413.764,-38.0063 483.3577,-20.0487"/>
<polygon fill="#191970" stroke="#191970" points="484.3703,-23.4019 493.1672,-17.4973 482.6082,-16.6273 484.3703,-23.4019"/>
</g>
<!-- Node12 -->
<g id="node13" class="node">
<title>Node12</title>
<polygon fill="#ffffff" stroke="#bfbfbf" points="561,-.5 561,-19.5 605,-19.5 605,-.5 561,-.5"/>
<text text-anchor="middle" x="583" y="-7.5" font-family="Helvetica,sans-Serif" font-size="10.00" fill="#000000">cmath</text>
</g>
<!-- Node2&#45;&gt;Node12 -->
<g id="edge12" class="edge">
<title>Node2&#45;&gt;Node12</title>
<path fill="none" stroke="#191970" d="M306.8129,-62.9834C353.0796,-57.1015 455.7482,-42.8393 550.976,-19.9815"/>
<polygon fill="#191970" stroke="#191970" points="551.8723,-23.3656 560.7584,-17.5961 550.2139,-16.5649 551.8723,-23.3656"/>
</g>
</g>
</svg>
