<?xml version="1.0" encoding="UTF-8" standalone="no"?>
<!DOCTYPE svg PUBLIC "-//W3C//DTD SVG 1.1//EN"
 "http://www.w3.org/Graphics/SVG/1.1/DTD/svg11.dtd">
<!-- Generated by graphviz version 2.38.0 (20140413.2041)
 -->
<!-- Title: cfmmfswModule.cpp Pages: 1 -->
<svg width="645pt" height="196pt"
 viewBox="0.00 0.00 645.00 196.00" xmlns="http://www.w3.org/2000/svg" xmlns:xlink="http://www.w3.org/1999/xlink">
<g id="graph0" class="graph" transform="scale(1 1) rotate(0) translate(4 192)">
<title>cfmmfswModule.cpp</title>
<polygon fill="white" stroke="none" points="-4,4 -4,-192 641,-192 641,4 -4,4"/>
<!-- Node1 -->
<g id="node1" class="node"><title>Node1</title>
<polygon fill="#bfbfbf" stroke="black" points="298,-168.5 298,-187.5 405,-187.5 405,-168.5 298,-168.5"/>
<text text-anchor="middle" x="351.5" y="-175.5" font-family="Helvetica,sans-Serif" font-size="10.00">cfmmfswModule.cpp</text>
</g>
<!-- Node2 -->
<g id="node2" class="node"><title>Node2</title>
<polygon fill="white" stroke="#bfbfbf" points="252.5,-56.5 252.5,-75.5 308.5,-75.5 308.5,-56.5 252.5,-56.5"/>
<text text-anchor="middle" x="280.5" y="-63.5" font-family="Helvetica,sans-Serif" font-size="10.00">Python.h</text>
</g>
<!-- Node1&#45;&gt;Node2 -->
<g id="edge1" class="edge"><title>Node1&#45;&gt;Node2</title>
<path fill="none" stroke="midnightblue" d="M341.849,-168.453C332.64,-159.917 318.828,-146.074 309.5,-132 299.804,-117.371 291.941,-98.9664 286.86,-85.4791"/>
<polygon fill="midnightblue" stroke="midnightblue" points="290.085,-84.1033 283.401,-75.8827 283.5,-86.4771 290.085,-84.1033"/>
</g>
<!-- Node3 -->
<g id="node3" class="node"><title>Node3</title>
<polygon fill="white" stroke="#bfbfbf" points="101,-56.5 101,-75.5 206,-75.5 206,-56.5 101,-56.5"/>
<text text-anchor="middle" x="153.5" y="-63.5" font-family="Helvetica,sans-Serif" font-size="10.00">numpy/arrayobject.h</text>
</g>
<!-- Node1&#45;&gt;Node3 -->
<g id="edge2" class="edge"><title>Node1&#45;&gt;Node3</title>
<path fill="none" stroke="midnightblue" d="M297.84,-172.903C242.78,-167.452 162.552,-155.615 143.5,-132 132.885,-118.843 137.894,-99.1621 144.005,-84.9048"/>
<polygon fill="midnightblue" stroke="midnightblue" points="147.273,-86.1829 148.442,-75.6526 140.962,-83.1561 147.273,-86.1829"/>
</g>
<!-- Node4 -->
<g id="node4" class="node"><title>Node4</title>
<g id="a_node4"><a xlink:href="cfmmfsw_8h.html" target="_top" xlink:title="cfmmfsw.h">
<polygon fill="white" stroke="black" points="319,-112.5 319,-131.5 384,-131.5 384,-112.5 319,-112.5"/>
<text text-anchor="middle" x="351.5" y="-119.5" font-family="Helvetica,sans-Serif" font-size="10.00">cfmmfsw.h</text>
</a>
</g>
</g>
<!-- Node1&#45;&gt;Node4 -->
<g id="edge3" class="edge"><title>Node1&#45;&gt;Node4</title>
<path fill="none" stroke="midnightblue" d="M351.5,-168.083C351.5,-161.006 351.5,-150.861 351.5,-141.986"/>
<polygon fill="midnightblue" stroke="midnightblue" points="355,-141.751 351.5,-131.751 348,-141.751 355,-141.751"/>
</g>
<!-- Node5 -->
<g id="node5" class="node"><title>Node5</title>
<g id="a_node5"><a xlink:href="mesh_8h.html" target="_top" xlink:title="mesh.h">
<polygon fill="white" stroke="black" points="327,-56.5 327,-75.5 376,-75.5 376,-56.5 327,-56.5"/>
<text text-anchor="middle" x="351.5" y="-63.5" font-family="Helvetica,sans-Serif" font-size="10.00">mesh.h</text>
</a>
</g>
</g>
<!-- Node1&#45;&gt;Node5 -->
<g id="edge16" class="edge"><title>Node1&#45;&gt;Node5</title>
<path fill="none" stroke="midnightblue" d="M363.494,-168.34C378.421,-156.409 400.98,-133.898 392.5,-112 388.046,-100.498 379.132,-90.1311 370.751,-82.2546"/>
<polygon fill="midnightblue" stroke="midnightblue" points="372.872,-79.4599 363.041,-75.5103 368.263,-84.7286 372.872,-79.4599"/>
</g>
<!-- Node11 -->
<g id="node11" class="node"><title>Node11</title>
<polygon fill="white" stroke="#bfbfbf" points="425.5,-0.5 425.5,-19.5 479.5,-19.5 479.5,-0.5 425.5,-0.5"/>
<text text-anchor="middle" x="452.5" y="-7.5" font-family="Helvetica,sans-Serif" font-size="10.00">iostream</text>
</g>
<!-- Node1&#45;&gt;Node11 -->
<g id="edge26" class="edge"><title>Node1&#45;&gt;Node11</title>
<path fill="none" stroke="midnightblue" d="M366.226,-168.366C378.746,-160.356 396.408,-147.374 407.5,-132 430.584,-100.003 443.199,-54.7946 448.828,-29.6751"/>
<polygon fill="midnightblue" stroke="midnightblue" points="452.3,-30.1735 450.935,-19.6669 445.45,-28.7313 452.3,-30.1735"/>
</g>
<!-- Node16 -->
<g id="node16" class="node"><title>Node16</title>
<g id="a_node16"><a xlink:href="cmesh_tools_module_8h.html" target="_top" xlink:title="cmeshToolsModule.h">
<polygon fill="white" stroke="black" points="152.5,-112.5 152.5,-131.5 262.5,-131.5 262.5,-112.5 152.5,-112.5"/>
<text text-anchor="middle" x="207.5" y="-119.5" font-family="Helvetica,sans-Serif" font-size="10.00">cmeshToolsModule.h</text>
</a>
</g>
</g>
<!-- Node1&#45;&gt;Node16 -->
<g id="edge17" class="edge"><title>Node1&#45;&gt;Node16</title>
<path fill="none" stroke="midnightblue" d="M328.683,-168.444C304.668,-159.438 266.671,-145.189 239.631,-135.049"/>
<polygon fill="midnightblue" stroke="midnightblue" points="240.803,-131.751 230.21,-131.516 238.345,-138.305 240.803,-131.751"/>
</g>
<!-- Node17 -->
<g id="node17" class="node"><title>Node17</title>
<g id="a_node17"><a xlink:href="_f_m_mand_f_s_w_8h.html" target="_top" xlink:title="FMMandFSW.h">
<polygon fill="white" stroke="black" points="478.5,-112.5 478.5,-131.5 564.5,-131.5 564.5,-112.5 478.5,-112.5"/>
<text text-anchor="middle" x="521.5" y="-119.5" font-family="Helvetica,sans-Serif" font-size="10.00">FMMandFSW.h</text>
</a>
</g>
</g>
<!-- Node1&#45;&gt;Node17 -->
<g id="edge21" class="edge"><title>Node1&#45;&gt;Node17</title>
<path fill="none" stroke="midnightblue" d="M378.437,-168.444C407.16,-159.32 452.829,-144.813 484.821,-134.651"/>
<polygon fill="midnightblue" stroke="midnightblue" points="486.218,-137.88 494.689,-131.516 484.099,-131.208 486.218,-137.88"/>
</g>
<!-- Node4&#45;&gt;Node2 -->
<g id="edge4" class="edge"><title>Node4&#45;&gt;Node2</title>
<path fill="none" stroke="midnightblue" d="M340.093,-112.324C329.391,-104.185 313.159,-91.8395 300.337,-82.0874"/>
<polygon fill="midnightblue" stroke="midnightblue" points="302.193,-79.1018 292.115,-75.8339 297.956,-84.6734 302.193,-79.1018"/>
</g>
<!-- Node4&#45;&gt;Node5 -->
<g id="edge5" class="edge"><title>Node4&#45;&gt;Node5</title>
<path fill="none" stroke="midnightblue" d="M351.5,-112.083C351.5,-105.006 351.5,-94.8611 351.5,-85.9865"/>
<polygon fill="midnightblue" stroke="midnightblue" points="355,-85.751 351.5,-75.7511 348,-85.7511 355,-85.751"/>
</g>
<!-- Node6 -->
<g id="node6" class="node"><title>Node6</title>
<polygon fill="white" stroke="#bfbfbf" points="303.5,-0.5 303.5,-19.5 333.5,-19.5 333.5,-0.5 303.5,-0.5"/>
<text text-anchor="middle" x="318.5" y="-7.5" font-family="Helvetica,sans-Serif" font-size="10.00">set</text>
</g>
<!-- Node5&#45;&gt;Node6 -->
<g id="edge6" class="edge"><title>Node5&#45;&gt;Node6</title>
<path fill="none" stroke="midnightblue" d="M346.051,-56.083C341.486,-48.6127 334.832,-37.7244 329.207,-28.5199"/>
<polygon fill="midnightblue" stroke="midnightblue" points="332.049,-26.4588 323.848,-19.7511 326.076,-30.109 332.049,-26.4588"/>
</g>
<!-- Node7 -->
<g id="node7" class="node"><title>Node7</title>
<polygon fill="white" stroke="#bfbfbf" points="497.5,-0.5 497.5,-19.5 541.5,-19.5 541.5,-0.5 497.5,-0.5"/>
<text text-anchor="middle" x="519.5" y="-7.5" font-family="Helvetica,sans-Serif" font-size="10.00">vector</text>
</g>
<!-- Node5&#45;&gt;Node7 -->
<g id="edge7" class="edge"><title>Node5&#45;&gt;Node7</title>
<path fill="none" stroke="midnightblue" d="M376.289,-57.0321C405.774,-47.5548 455.062,-31.7122 487.427,-21.3092"/>
<polygon fill="midnightblue" stroke="midnightblue" points="488.845,-24.53 497.294,-18.1377 486.702,-17.8657 488.845,-24.53"/>
</g>
<!-- Node8 -->
<g id="node8" class="node"><title>Node8</title>
<polygon fill="white" stroke="#bfbfbf" points="351.5,-0.5 351.5,-19.5 407.5,-19.5 407.5,-0.5 351.5,-0.5"/>
<text text-anchor="middle" x="379.5" y="-7.5" font-family="Helvetica,sans-Serif" font-size="10.00">algorithm</text>
</g>
<!-- Node5&#45;&gt;Node8 -->
<g id="edge8" class="edge"><title>Node5&#45;&gt;Node8</title>
<path fill="none" stroke="midnightblue" d="M356.124,-56.083C359.956,-48.6913 365.524,-37.9533 370.265,-28.8111"/>
<polygon fill="midnightblue" stroke="midnightblue" points="373.466,-30.2398 374.962,-19.7511 367.252,-27.0175 373.466,-30.2398"/>
</g>
<!-- Node9 -->
<g id="node9" class="node"><title>Node9</title>
<polygon fill="white" stroke="#bfbfbf" points="0,-0.5 0,-19.5 35,-19.5 35,-0.5 0,-0.5"/>
<text text-anchor="middle" x="17.5" y="-7.5" font-family="Helvetica,sans-Serif" font-size="10.00">map</text>
</g>
<!-- Node5&#45;&gt;Node9 -->
<g id="edge9" class="edge"><title>Node5&#45;&gt;Node9</title>
<path fill="none" stroke="midnightblue" d="M326.703,-58.0433C323.618,-57.294 320.495,-56.5907 317.5,-56 200.174,-32.8629 164.886,-47.4174 45.1769,-20.0018"/>
<polygon fill="midnightblue" stroke="midnightblue" points="45.7968,-16.5523 35.2622,-17.6805 44.201,-23.368 45.7968,-16.5523"/>
</g>
<!-- Node10 -->
<g id="node10" class="node"><title>Node10</title>
<polygon fill="white" stroke="#bfbfbf" points="53,-0.5 53,-19.5 82,-19.5 82,-0.5 53,-0.5"/>
<text text-anchor="middle" x="67.5" y="-7.5" font-family="Helvetica,sans-Serif" font-size="10.00">list</text>
</g>
<!-- Node5&#45;&gt;Node10 -->
<g id="edge10" class="edge"><title>Node5&#45;&gt;Node10</title>
<path fill="none" stroke="midnightblue" d="M326.687,-58.1227C323.604,-57.3597 320.487,-56.6316 317.5,-56 221.099,-35.6173 191.664,-45.3295 91.946,-19.5989"/>
<polygon fill="midnightblue" stroke="midnightblue" points="92.6337,-16.1607 82.0718,-16.996 90.8493,-22.9294 92.6337,-16.1607"/>
</g>
<!-- Node5&#45;&gt;Node11 -->
<g id="edge11" class="edge"><title>Node5&#45;&gt;Node11</title>
<path fill="none" stroke="midnightblue" d="M367.727,-56.324C383.851,-47.7034 408.8,-34.3643 427.464,-24.3855"/>
<polygon fill="midnightblue" stroke="midnightblue" points="429.144,-27.456 436.313,-19.6545 425.844,-21.283 429.144,-27.456"/>
</g>
<!-- Node12 -->
<g id="node12" class="node"><title>Node12</title>
<polygon fill="white" stroke="#bfbfbf" points="100.5,-0.5 100.5,-19.5 150.5,-19.5 150.5,-0.5 100.5,-0.5"/>
<text text-anchor="middle" x="125.5" y="-7.5" font-family="Helvetica,sans-Serif" font-size="10.00">iomanip</text>
</g>
<!-- Node5&#45;&gt;Node12 -->
<g id="edge12" class="edge"><title>Node5&#45;&gt;Node12</title>
<path fill="none" stroke="midnightblue" d="M326.643,-58.3137C323.568,-57.5179 320.465,-56.7299 317.5,-56 250.571,-39.5223 231.088,-37.3809 160.545,-20.1909"/>
<polygon fill="midnightblue" stroke="midnightblue" points="161.272,-16.7654 150.726,-17.7818 159.604,-23.5638 161.272,-16.7654"/>
</g>
<!-- Node13 -->
<g id="node13" class="node"><title>Node13</title>
<polygon fill="white" stroke="#bfbfbf" points="168.5,-0.5 168.5,-19.5 218.5,-19.5 218.5,-0.5 168.5,-0.5"/>
<text text-anchor="middle" x="193.5" y="-7.5" font-family="Helvetica,sans-Serif" font-size="10.00">fstream</text>
</g>
<!-- Node5&#45;&gt;Node13 -->
<g id="edge13" class="edge"><title>Node5&#45;&gt;Node13</title>
<path fill="none" stroke="midnightblue" d="M326.812,-56.5625C300.3,-47.5014 257.97,-33.0342 228.134,-22.837"/>
<polygon fill="midnightblue" stroke="midnightblue" points="229.13,-19.4787 218.536,-19.5565 226.866,-26.1025 229.13,-19.4787"/>
</g>
<!-- Node14 -->
<g id="node14" class="node"><title>Node14</title>
<polygon fill="white" stroke="#bfbfbf" points="237,-0.5 237,-19.5 286,-19.5 286,-0.5 237,-0.5"/>
<text text-anchor="middle" x="261.5" y="-7.5" font-family="Helvetica,sans-Serif" font-size="10.00">cassert</text>
</g>
<!-- Node5&#45;&gt;Node14 -->
<g id="edge14" class="edge"><title>Node5&#45;&gt;Node14</title>
<path fill="none" stroke="midnightblue" d="M337.04,-56.324C323,-47.9002 301.452,-34.9709 284.957,-25.0741"/>
<polygon fill="midnightblue" stroke="midnightblue" points="286.3,-21.7983 275.924,-19.6545 282.698,-27.8007 286.3,-21.7983"/>
</g>
<!-- Node15 -->
<g id="node15" class="node"><title>Node15</title>
<polygon fill="white" stroke="#bfbfbf" points="559.5,-0.5 559.5,-19.5 603.5,-19.5 603.5,-0.5 559.5,-0.5"/>
<text text-anchor="middle" x="581.5" y="-7.5" font-family="Helvetica,sans-Serif" font-size="10.00">cmath</text>
</g>
<!-- Node5&#45;&gt;Node15 -->
<g id="edge15" class="edge"><title>Node5&#45;&gt;Node15</title>
<path fill="none" stroke="midnightblue" d="M376.123,-59.9303C412.064,-52.4235 481.197,-37.5812 549.176,-20.228"/>
<polygon fill="midnightblue" stroke="midnightblue" points="550.381,-23.532 559.193,-17.6501 548.636,-16.7529 550.381,-23.532"/>
</g>
<!-- Node16&#45;&gt;Node2 -->
<g id="edge18" class="edge"><title>Node16&#45;&gt;Node2</title>
<path fill="none" stroke="midnightblue" d="M219.229,-112.324C230.337,-104.107 247.242,-91.6017 260.483,-81.8069"/>
<polygon fill="midnightblue" stroke="midnightblue" points="262.6,-84.5948 268.558,-75.8339 258.437,-78.9671 262.6,-84.5948"/>
</g>
<!-- Node16&#45;&gt;Node3 -->
<g id="edge19" class="edge"><title>Node16&#45;&gt;Node3</title>
<path fill="none" stroke="midnightblue" d="M198.583,-112.083C190.72,-104.22 179.069,-92.5688 169.581,-83.0813"/>
<polygon fill="midnightblue" stroke="midnightblue" points="171.797,-80.3473 162.251,-75.7511 166.847,-85.2971 171.797,-80.3473"/>
</g>
<!-- Node16&#45;&gt;Node5 -->
<g id="edge20" class="edge"><title>Node16&#45;&gt;Node5</title>
<path fill="none" stroke="midnightblue" d="M230.317,-112.444C254.332,-103.438 292.329,-89.1891 319.369,-79.049"/>
<polygon fill="midnightblue" stroke="midnightblue" points="320.655,-82.3049 328.79,-75.5164 318.197,-75.7506 320.655,-82.3049"/>
</g>
<!-- Node17&#45;&gt;Node5 -->
<g id="edge25" class="edge"><title>Node17&#45;&gt;Node5</title>
<path fill="none" stroke="midnightblue" d="M494.563,-112.444C465.164,-103.105 418.013,-88.1276 385.944,-77.9409"/>
<polygon fill="midnightblue" stroke="midnightblue" points="386.693,-74.5068 376.103,-74.8151 384.574,-81.1783 386.693,-74.5068"/>
</g>
<!-- Node17&#45;&gt;Node7 -->
<g id="edge22" class="edge"><title>Node17&#45;&gt;Node7</title>
<path fill="none" stroke="midnightblue" d="M521.343,-112.368C521.02,-94.617 520.276,-53.6664 519.838,-29.5974"/>
<polygon fill="midnightblue" stroke="midnightblue" points="523.338,-29.5261 519.656,-19.5914 516.339,-29.6534 523.338,-29.5261"/>
</g>
<!-- Node17&#45;&gt;Node15 -->
<g id="edge24" class="edge"><title>Node17&#45;&gt;Node15</title>
<path fill="none" stroke="midnightblue" d="M526.208,-112.368C536.022,-94.376 558.836,-52.5503 571.885,-28.6267"/>
<polygon fill="midnightblue" stroke="midnightblue" points="575.098,-30.0464 576.814,-19.5914 568.953,-26.6944 575.098,-30.0464"/>
</g>
<!-- Node18 -->
<g id="node18" class="node"><title>Node18</title>
<polygon fill="white" stroke="#bfbfbf" points="586,-56.5 586,-75.5 637,-75.5 637,-56.5 586,-56.5"/>
<text text-anchor="middle" x="611.5" y="-63.5" font-family="Helvetica,sans-Serif" font-size="10.00">valarray</text>
</g>
<!-- Node17&#45;&gt;Node18 -->
<g id="edge23" class="edge"><title>Node17&#45;&gt;Node18</title>
<path fill="none" stroke="midnightblue" d="M535.96,-112.324C550,-103.9 571.548,-90.9709 588.043,-81.0741"/>
<polygon fill="midnightblue" stroke="midnightblue" points="590.302,-83.8007 597.076,-75.6545 586.7,-77.7983 590.302,-83.8007"/>
</g>
</g>
</svg>
