<?xml version="1.0" encoding="UTF-8" standalone="no"?>
<!DOCTYPE svg PUBLIC "-//W3C//DTD SVG 1.1//EN"
 "http://www.w3.org/Graphics/SVG/1.1/DTD/svg11.dtd">
<!-- Generated by graphviz version 2.40.1 (20161225.0304)
 -->
<!-- Title: MeshAdaptPUMIDrvr Pages: 1 -->
<svg width="143pt" height="185pt"
 viewBox="0.00 0.00 143.00 185.00" xmlns="http://www.w3.org/2000/svg" xmlns:xlink="http://www.w3.org/1999/xlink">
<g id="graph0" class="graph" transform="scale(1 1) rotate(0) translate(4 181)">
<title>MeshAdaptPUMIDrvr</title>
<polygon fill="#ffffff" stroke="transparent" points="-4,4 -4,-181 139,-181 139,4 -4,4"/>
<!-- Node1 -->
<g id="node1" class="node">
<title>Node1</title>
<polygon fill="#bfbfbf" stroke="#000000" points="0,-.5 0,-19.5 110,-19.5 110,-.5 0,-.5"/>
<text text-anchor="middle" x="55" y="-7.5" font-family="Helvetica,sans-Serif" font-size="10.00" fill="#000000">MeshAdaptPUMIDrvr</text>
</g>
<!-- Node2 -->
<g id="node2" class="node">
<title>Node2</title>
<g id="a_node2"><a xlink:title="STL class. ">
<polygon fill="#ffffff" stroke="#bfbfbf" points="25,-89.5 25,-108.5 85,-108.5 85,-89.5 25,-89.5"/>
<text text-anchor="middle" x="55" y="-96.5" font-family="Helvetica,sans-Serif" font-size="10.00" fill="#000000">std::string</text>
</a>
</g>
</g>
<!-- Node2&#45;&gt;Node1 -->
<g id="edge1" class="edge">
<title>Node2&#45;&gt;Node1</title>
<path fill="none" stroke="#9a32cd" stroke-dasharray="5,2" d="M55,-79.2379C55,-60.7654 55,-33.957 55,-19.7259"/>
<polygon fill="#9a32cd" stroke="#9a32cd" points="51.5001,-79.4754 55,-89.4754 58.5001,-79.4755 51.5001,-79.4754"/>
<text text-anchor="middle" x="95" y="-63" font-family="Helvetica,sans-Serif" font-size="10.00" fill="#000000"> logging_config</text>
<text text-anchor="middle" x="95" y="-52" font-family="Helvetica,sans-Serif" font-size="10.00" fill="#000000">adapt_type_config</text>
<text text-anchor="middle" x="95" y="-41" font-family="Helvetica,sans-Serif" font-size="10.00" fill="#000000">size_field_config</text>
</g>
<!-- Node3 -->
<g id="node3" class="node">
<title>Node3</title>
<g id="a_node3"><a xlink:title="STL class. ">
<polygon fill="#ffffff" stroke="#bfbfbf" points="7.5,-146.5 7.5,-176.5 102.5,-176.5 102.5,-146.5 7.5,-146.5"/>
<text text-anchor="start" x="15.5" y="-164.5" font-family="Helvetica,sans-Serif" font-size="10.00" fill="#000000">std::basic_string&lt;</text>
<text text-anchor="middle" x="55" y="-153.5" font-family="Helvetica,sans-Serif" font-size="10.00" fill="#000000"> char &gt;</text>
</a>
</g>
</g>
<!-- Node3&#45;&gt;Node2 -->
<g id="edge2" class="edge">
<title>Node3&#45;&gt;Node2</title>
<path fill="none" stroke="#191970" d="M55,-136.3498C55,-126.6481 55,-116.1303 55,-108.7356"/>
<polygon fill="#191970" stroke="#191970" points="51.5001,-136.3705 55,-146.3705 58.5001,-136.3705 51.5001,-136.3705"/>
</g>
</g>
</svg>
