<?xml version="1.0" encoding="UTF-8" standalone="no"?>
<!DOCTYPE svg PUBLIC "-//W3C//DTD SVG 1.1//EN"
 "http://www.w3.org/Graphics/SVG/1.1/DTD/svg11.dtd">
<!-- Generated by graphviz version 2.40.1 (20161225.0304)
 -->
<!-- Title: RectangularDomain Pages: 1 -->
<svg width="214pt" height="231pt"
 viewBox="0.00 0.00 213.50 231.00" xmlns="http://www.w3.org/2000/svg" xmlns:xlink="http://www.w3.org/1999/xlink">
<g id="graph0" class="graph" transform="scale(1 1) rotate(0) translate(4 227)">
<title>RectangularDomain</title>
<polygon fill="#ffffff" stroke="transparent" points="-4,4 -4,-227 209.5,-227 209.5,4 -4,4"/>
<!-- Node2 -->
<g id="node1" class="node">
<title>Node2</title>
<polygon fill="#bfbfbf" stroke="#000000" points="73,-.5 73,-19.5 176,-19.5 176,-.5 73,-.5"/>
<text text-anchor="middle" x="124.5" y="-7.5" font-family="Helvetica,sans-Serif" font-size="10.00" fill="#000000">RectangularDomain</text>
</g>
<!-- Node3 -->
<g id="node2" class="node">
<title>Node3</title>
<g id="a_node2"><a xlink:href="class_d__base.html" target="_top" xlink:title="D_base">
<polygon fill="#ffffff" stroke="#000000" points="99.5,-57.5 99.5,-76.5 149.5,-76.5 149.5,-57.5 99.5,-57.5"/>
<text text-anchor="middle" x="124.5" y="-64.5" font-family="Helvetica,sans-Serif" font-size="10.00" fill="#000000">D_base</text>
</a>
</g>
</g>
<!-- Node3&#45;&gt;Node2 -->
<g id="edge1" class="edge">
<title>Node3&#45;&gt;Node2</title>
<path fill="none" stroke="#191970" d="M124.5,-47.2342C124.5,-37.8491 124.5,-27.0651 124.5,-19.5265"/>
<polygon fill="#191970" stroke="#191970" points="121.0001,-47.3307 124.5,-57.3307 128.0001,-47.3308 121.0001,-47.3307"/>
</g>
<!-- Node4 -->
<g id="node3" class="node">
<title>Node4</title>
<g id="a_node3"><a xlink:title="STL class. ">
<polygon fill="#ffffff" stroke="#bfbfbf" points="17.5,-135.5 17.5,-154.5 77.5,-154.5 77.5,-135.5 17.5,-135.5"/>
<text text-anchor="middle" x="47.5" y="-142.5" font-family="Helvetica,sans-Serif" font-size="10.00" fill="#000000">std::string</text>
</a>
</g>
</g>
<!-- Node4&#45;&gt;Node3 -->
<g id="edge2" class="edge">
<title>Node4&#45;&gt;Node3</title>
<path fill="none" stroke="#9a32cd" stroke-dasharray="5,2" d="M64.3363,-127.9451C79.8619,-112.2178 102.356,-89.4316 114.9811,-76.6426"/>
<polygon fill="#9a32cd" stroke="#9a32cd" points="61.4762,-125.8602 56.9417,-135.4357 66.4578,-130.778 61.4762,-125.8602"/>
<text text-anchor="middle" x="108" y="-109" font-family="Helvetica,sans-Serif" font-size="10.00" fill="#000000"> units</text>
<text text-anchor="middle" x="108" y="-98" font-family="Helvetica,sans-Serif" font-size="10.00" fill="#000000">name</text>
</g>
<!-- Node5 -->
<g id="node4" class="node">
<title>Node5</title>
<g id="a_node4"><a xlink:title="STL class. ">
<polygon fill="#ffffff" stroke="#bfbfbf" points="0,-192.5 0,-222.5 95,-222.5 95,-192.5 0,-192.5"/>
<text text-anchor="start" x="8" y="-210.5" font-family="Helvetica,sans-Serif" font-size="10.00" fill="#000000">std::basic_string&lt;</text>
<text text-anchor="middle" x="47.5" y="-199.5" font-family="Helvetica,sans-Serif" font-size="10.00" fill="#000000"> char &gt;</text>
</a>
</g>
</g>
<!-- Node5&#45;&gt;Node4 -->
<g id="edge3" class="edge">
<title>Node5&#45;&gt;Node4</title>
<path fill="none" stroke="#191970" d="M47.5,-182.3498C47.5,-172.6481 47.5,-162.1303 47.5,-154.7356"/>
<polygon fill="#191970" stroke="#191970" points="44.0001,-182.3705 47.5,-192.3705 51.0001,-182.3705 44.0001,-182.3705"/>
</g>
<!-- Node6 -->
<g id="node5" class="node">
<title>Node6</title>
<polygon fill="#ffffff" stroke="#bfbfbf" points="95.5,-135.5 95.5,-154.5 205.5,-154.5 205.5,-135.5 95.5,-135.5"/>
<text text-anchor="middle" x="150.5" y="-142.5" font-family="Helvetica,sans-Serif" font-size="10.00" fill="#000000">std::vector&lt; double &gt;</text>
</g>
<!-- Node6&#45;&gt;Node3 -->
<g id="edge4" class="edge">
<title>Node6&#45;&gt;Node3</title>
<path fill="none" stroke="#9a32cd" stroke-dasharray="5,2" d="M144.0793,-125.7379C138.8828,-110.1484 131.7817,-88.845 127.7142,-76.6426"/>
<polygon fill="#9a32cd" stroke="#9a32cd" points="140.8292,-127.0557 147.3119,-135.4357 147.4699,-124.842 140.8292,-127.0557"/>
<text text-anchor="middle" x="145" y="-109" font-family="Helvetica,sans-Serif" font-size="10.00" fill="#000000"> x</text>
<text text-anchor="middle" x="145" y="-98" font-family="Helvetica,sans-Serif" font-size="10.00" fill="#000000">L</text>
</g>
</g>
</svg>
