<?xml version="1.0" encoding="UTF-8" standalone="no"?>
<!DOCTYPE svg PUBLIC "-//W3C//DTD SVG 1.1//EN"
 "http://www.w3.org/Graphics/SVG/1.1/DTD/svg11.dtd">
<!-- Generated by graphviz version 2.42.3 (0)
 -->
<!-- Title: RectangularDomain Pages: 1 -->
<svg width="235pt" height="231pt"
 viewBox="0.00 0.00 235.00 231.00" xmlns="http://www.w3.org/2000/svg" xmlns:xlink="http://www.w3.org/1999/xlink">
<g id="graph0" class="graph" transform="scale(1 1) rotate(0) translate(4 227)">
<title>RectangularDomain</title>
<polygon fill="white" stroke="transparent" points="-4,4 -4,-227 231,-227 231,4 -4,4"/>
<!-- Node1 -->
<g id="node1" class="node">
<title>Node1</title>
<g id="a_node1"><a xlink:title=" ">
<polygon fill="#bfbfbf" stroke="black" points="51.5,-0.5 51.5,-19.5 164.5,-19.5 164.5,-0.5 51.5,-0.5"/>
<text text-anchor="middle" x="108" y="-7.5" font-family="Helvetica,sans-Serif" font-size="10.00">RectangularDomain</text>
</a>
</g>
</g>
<!-- Node2 -->
<g id="node2" class="node">
<title>Node2</title>
<g id="a_node2"><a xlink:href="class_d__base.html" target="_top" xlink:title=" ">
<polygon fill="white" stroke="black" points="81.5,-57.5 81.5,-76.5 134.5,-76.5 134.5,-57.5 81.5,-57.5"/>
<text text-anchor="middle" x="108" y="-64.5" font-family="Helvetica,sans-Serif" font-size="10.00">D_base</text>
</a>
</g>
</g>
<!-- Node2&#45;&gt;Node1 -->
<g id="edge1" class="edge">
<title>Node2&#45;&gt;Node1</title>
<path fill="none" stroke="midnightblue" d="M108,-47.12C108,-37.82 108,-27.06 108,-19.71"/>
<polygon fill="midnightblue" stroke="midnightblue" points="104.5,-47.41 108,-57.41 111.5,-47.41 104.5,-47.41"/>
</g>
<!-- Node3 -->
<g id="node3" class="node">
<title>Node3</title>
<g id="a_node3"><a xlink:title="STL class.">
<polygon fill="white" stroke="#bfbfbf" points="19.5,-135.5 19.5,-154.5 84.5,-154.5 84.5,-135.5 19.5,-135.5"/>
<text text-anchor="middle" x="52" y="-142.5" font-family="Helvetica,sans-Serif" font-size="10.00">std::string</text>
</a>
</g>
</g>
<!-- Node3&#45;&gt;Node2 -->
<g id="edge2" class="edge">
<title>Node3&#45;&gt;Node2</title>
<path fill="none" stroke="#9a32cd" stroke-dasharray="5,2" d="M64.52,-127.01C76.04,-111.37 92.66,-88.81 101.65,-76.62"/>
<polygon fill="#9a32cd" stroke="#9a32cd" points="61.54,-125.16 58.42,-135.28 67.17,-129.31 61.54,-125.16"/>
<text text-anchor="middle" x="101" y="-109" font-family="Helvetica,sans-Serif" font-size="10.00"> units</text>
<text text-anchor="middle" x="101" y="-98" font-family="Helvetica,sans-Serif" font-size="10.00">name</text>
</g>
<!-- Node4 -->
<g id="node4" class="node">
<title>Node4</title>
<g id="a_node4"><a xlink:title="STL class.">
<polygon fill="white" stroke="#bfbfbf" points="0,-192.5 0,-222.5 104,-222.5 104,-192.5 0,-192.5"/>
<text text-anchor="start" x="8" y="-210.5" font-family="Helvetica,sans-Serif" font-size="10.00">std::basic_string&lt;</text>
<text text-anchor="middle" x="52" y="-199.5" font-family="Helvetica,sans-Serif" font-size="10.00"> char &gt;</text>
</a>
</g>
</g>
<!-- Node4&#45;&gt;Node3 -->
<g id="edge3" class="edge">
<title>Node4&#45;&gt;Node3</title>
<path fill="none" stroke="midnightblue" d="M52,-182.35C52,-172.51 52,-161.78 52,-154.54"/>
<polygon fill="midnightblue" stroke="midnightblue" points="48.5,-182.47 52,-192.47 55.5,-182.47 48.5,-182.47"/>
</g>
<!-- Node5 -->
<g id="node5" class="node">
<title>Node5</title>
<g id="a_node5"><a xlink:title=" ">
<polygon fill="white" stroke="#bfbfbf" points="103,-135.5 103,-154.5 227,-154.5 227,-135.5 103,-135.5"/>
<text text-anchor="middle" x="165" y="-142.5" font-family="Helvetica,sans-Serif" font-size="10.00">std::vector&lt; double &gt;</text>
</a>
</g>
</g>
<!-- Node5&#45;&gt;Node2 -->
<g id="edge4" class="edge">
<title>Node5&#45;&gt;Node2</title>
<path fill="none" stroke="#9a32cd" stroke-dasharray="5,2" d="M152.25,-127.01C140.53,-111.37 123.61,-88.81 114.46,-76.62"/>
<polygon fill="#9a32cd" stroke="#9a32cd" points="149.66,-129.38 158.46,-135.28 155.26,-125.18 149.66,-129.38"/>
<text text-anchor="middle" x="148" y="-109" font-family="Helvetica,sans-Serif" font-size="10.00"> x</text>
<text text-anchor="middle" x="148" y="-98" font-family="Helvetica,sans-Serif" font-size="10.00">L</text>
</g>
</g>
</svg>
