<?xml version="1.0" encoding="UTF-8" standalone="no"?>
<!DOCTYPE svg PUBLIC "-//W3C//DTD SVG 1.1//EN"
 "http://www.w3.org/Graphics/SVG/1.1/DTD/svg11.dtd">
<!-- Generated by graphviz version 2.40.1 (20161225.0304)
 -->
<!-- Title: FSWEikonalSolverBase Pages: 1 -->
<svg width="567pt" height="184pt"
 viewBox="0.00 0.00 566.50 184.00" xmlns="http://www.w3.org/2000/svg" xmlns:xlink="http://www.w3.org/1999/xlink">
<g id="graph0" class="graph" transform="scale(1 1) rotate(0) translate(4 180)">
<title>FSWEikonalSolverBase</title>
<polygon fill="#ffffff" stroke="transparent" points="-4,4 -4,-180 562.5,-180 562.5,4 -4,4"/>
<!-- Node5 -->
<g id="node1" class="node">
<title>Node5</title>
<polygon fill="#bfbfbf" stroke="#000000" points="137.5,-.5 137.5,-19.5 259.5,-19.5 259.5,-.5 137.5,-.5"/>
<text text-anchor="middle" x="198.5" y="-7.5" font-family="Helvetica,sans-Serif" font-size="10.00" fill="#000000">FSWEikonalSolverBase</text>
</g>
<!-- Node6 -->
<g id="node2" class="node">
<title>Node6</title>
<g id="a_node2"><a xlink:href="class_f_m_m_eikonal_solver_base.html" target="_top" xlink:title="FMMEikonalSolverBase">
<polygon fill="#ffffff" stroke="#000000" points="137.5,-84 137.5,-103 259.5,-103 259.5,-84 137.5,-84"/>
<text text-anchor="middle" x="198.5" y="-91" font-family="Helvetica,sans-Serif" font-size="10.00" fill="#000000">FMMEikonalSolverBase</text>
</a>
</g>
</g>
<!-- Node6&#45;&gt;Node5 -->
<g id="edge1" class="edge">
<title>Node6&#45;&gt;Node5</title>
<path fill="none" stroke="#191970" d="M198.5,-73.9172C198.5,-56.8939 198.5,-32.9456 198.5,-19.724"/>
<polygon fill="#191970" stroke="#191970" points="195.0001,-73.9215 198.5,-83.9215 202.0001,-73.9215 195.0001,-73.9215"/>
</g>
<!-- Node7 -->
<g id="node3" class="node">
<title>Node7</title>
<g id="a_node3"><a xlink:href="class_unstructured_local_upwind_solvers.html" target="_top" xlink:title="UnstructuredLocalUpwindSolvers">
<polygon fill="#ffffff" stroke="#000000" points="396.5,-156.5 396.5,-175.5 558.5,-175.5 558.5,-156.5 396.5,-156.5"/>
<text text-anchor="middle" x="477.5" y="-163.5" font-family="Helvetica,sans-Serif" font-size="10.00" fill="#000000">UnstructuredLocalUpwindSolvers</text>
</a>
</g>
</g>
<!-- Node7&#45;&gt;Node6 -->
<g id="edge2" class="edge">
<title>Node7&#45;&gt;Node6</title>
<path fill="none" stroke="#9a32cd" stroke-dasharray="5,2" d="M430.9026,-153.8914C375.9314,-139.6067 285.673,-116.1525 235.3427,-103.0738"/>
<polygon fill="#9a32cd" stroke="#9a32cd" points="430.1799,-157.3197 440.7387,-156.4473 431.9404,-150.5447 430.1799,-157.3197"/>
<text text-anchor="middle" x="391" y="-130" font-family="Helvetica,sans-Serif" font-size="10.00" fill="#000000"> localSolvers</text>
</g>
<!-- Node8 -->
<g id="node4" class="node">
<title>Node8</title>
<polygon fill="#ffffff" stroke="#bfbfbf" points="13.5,-156.5 13.5,-175.5 105.5,-175.5 105.5,-156.5 13.5,-156.5"/>
<text text-anchor="middle" x="59.5" y="-163.5" font-family="Helvetica,sans-Serif" font-size="10.00" fill="#000000">std::vector&lt; int &gt;</text>
</g>
<!-- Node8&#45;&gt;Node6 -->
<g id="edge3" class="edge">
<title>Node8&#45;&gt;Node6</title>
<path fill="none" stroke="#9a32cd" stroke-dasharray="5,2" d="M87.059,-151.6257C114.5896,-137.2662 156.1459,-115.5912 179.9655,-103.1673"/>
<polygon fill="#9a32cd" stroke="#9a32cd" points="85.2059,-148.6447 77.9581,-156.3726 88.4432,-154.8512 85.2059,-148.6447"/>
<text text-anchor="middle" x="150.5" y="-130" font-family="Helvetica,sans-Serif" font-size="10.00" fill="#000000"> Known</text>
</g>
<!-- Node11 -->
<g id="node7" class="node">
<title>Node11</title>
<polygon fill="#ffffff" stroke="#bfbfbf" points="0,-78.5 0,-108.5 119,-108.5 119,-78.5 0,-78.5"/>
<text text-anchor="start" x="8" y="-96.5" font-family="Helvetica,sans-Serif" font-size="10.00" fill="#000000">std::vector&lt; std::vector</text>
<text text-anchor="middle" x="59.5" y="-85.5" font-family="Helvetica,sans-Serif" font-size="10.00" fill="#000000">&lt; int &gt; &gt;</text>
</g>
<!-- Node8&#45;&gt;Node11 -->
<g id="edge8" class="edge">
<title>Node8&#45;&gt;Node11</title>
<path fill="none" stroke="#9a32cd" stroke-dasharray="5,2" d="M59.5,-146.0177C59.5,-134.2164 59.5,-119.513 59.5,-108.668"/>
<polygon fill="#9a32cd" stroke="#9a32cd" points="56.0001,-146.2223 59.5,-156.2223 63.0001,-146.2224 56.0001,-146.2223"/>
<text text-anchor="middle" x="81" y="-130" font-family="Helvetica,sans-Serif" font-size="10.00" fill="#000000"> elements</text>
</g>
<!-- Node9 -->
<g id="node5" class="node">
<title>Node9</title>
<polygon fill="#ffffff" stroke="#bfbfbf" points="124,-156.5 124,-175.5 245,-175.5 245,-156.5 124,-156.5"/>
<text text-anchor="middle" x="184.5" y="-163.5" font-family="Helvetica,sans-Serif" font-size="10.00" fill="#000000">std::vector&lt; STATUS &gt;</text>
</g>
<!-- Node9&#45;&gt;Node6 -->
<g id="edge4" class="edge">
<title>Node9&#45;&gt;Node6</title>
<path fill="none" stroke="#9a32cd" stroke-dasharray="5,2" d="M188.3417,-146.1054C191.0416,-132.1237 194.5347,-114.0346 196.6418,-103.1228"/>
<polygon fill="#9a32cd" stroke="#9a32cd" points="184.8477,-145.7401 186.3881,-156.2223 191.7207,-147.0673 184.8477,-145.7401"/>
<text text-anchor="middle" x="208.5" y="-130" font-family="Helvetica,sans-Serif" font-size="10.00" fill="#000000"> Status</text>
</g>
<!-- Node10 -->
<g id="node6" class="node">
<title>Node10</title>
<g id="a_node6"><a xlink:href="struct_mesh.html" target="_top" xlink:title="Mesh">
<polygon fill="#ffffff" stroke="#000000" points="263,-156.5 263,-175.5 304,-175.5 304,-156.5 263,-156.5"/>
<text text-anchor="middle" x="283.5" y="-163.5" font-family="Helvetica,sans-Serif" font-size="10.00" fill="#000000">Mesh</text>
</a>
</g>
</g>
<!-- Node10&#45;&gt;Node6 -->
<g id="edge5" class="edge">
<title>Node10&#45;&gt;Node6</title>
<path fill="none" stroke="#9a32cd" stroke-dasharray="5,2" d="M263.9733,-149.3449C247.1953,-135.0343 223.5884,-114.8989 209.7819,-103.1228"/>
<polygon fill="#9a32cd" stroke="#9a32cd" points="262.1568,-152.3958 272.0365,-156.2223 266.6995,-147.0699 262.1568,-152.3958"/>
<text text-anchor="middle" x="263.5" y="-130" font-family="Helvetica,sans-Serif" font-size="10.00" fill="#000000"> mesh</text>
</g>
<!-- Node10&#45;&gt;Node10 -->
<g id="edge6" class="edge">
<title>Node10&#45;&gt;Node10</title>
<path fill="none" stroke="#9a32cd" stroke-dasharray="5,2" d="M314.316,-171.4421C318.9,-170.5943 322,-168.7803 322,-166 322,-161.4375 313.6518,-159.4771 304.0969,-160.1187"/>
<polygon fill="#9a32cd" stroke="#9a32cd" points="313.9374,-167.955 304.0969,-171.8813 314.238,-174.9486 313.9374,-167.955"/>
<text text-anchor="middle" x="350" y="-163.5" font-family="Helvetica,sans-Serif" font-size="10.00" fill="#000000"> subdomainp</text>
</g>
<!-- Node11&#45;&gt;Node5 -->
<g id="edge7" class="edge">
<title>Node11&#45;&gt;Node5</title>
<path fill="none" stroke="#9a32cd" stroke-dasharray="5,2" d="M93.4664,-73.0957C121.8337,-56.055 161.0052,-32.5239 182.6036,-19.5493"/>
<polygon fill="#9a32cd" stroke="#9a32cd" points="91.4417,-70.229 84.6719,-78.3788 95.0464,-76.2295 91.4417,-70.229"/>
<text text-anchor="middle" x="164.5" y="-46.5" font-family="Helvetica,sans-Serif" font-size="10.00" fill="#000000"> Order</text>
</g>
<!-- Node12 -->
<g id="node8" class="node">
<title>Node12</title>
<polygon fill="#ffffff" stroke="#bfbfbf" points="278,-84 278,-103 395,-103 395,-84 278,-84"/>
<text text-anchor="middle" x="336.5" y="-91" font-family="Helvetica,sans-Serif" font-size="10.00" fill="#000000">std::valarray&lt; double &gt;</text>
</g>
<!-- Node12&#45;&gt;Node5 -->
<g id="edge9" class="edge">
<title>Node12&#45;&gt;Node5</title>
<path fill="none" stroke="#9a32cd" stroke-dasharray="5,2" d="M311.8373,-78.5773C283.7011,-61.5528 238.5031,-34.2047 214.5708,-19.724"/>
<polygon fill="#9a32cd" stroke="#9a32cd" points="310.302,-81.7391 320.6696,-83.9215 313.9258,-75.7501 310.302,-81.7391"/>
<text text-anchor="middle" x="299.5" y="-52" font-family="Helvetica,sans-Serif" font-size="10.00" fill="#000000"> T0</text>
<text text-anchor="middle" x="299.5" y="-41" font-family="Helvetica,sans-Serif" font-size="10.00" fill="#000000">refPoints</text>
</g>
</g>
</svg>
