<?xml version="1.0" encoding="UTF-8" standalone="no"?>
<!DOCTYPE svg PUBLIC "-//W3C//DTD SVG 1.1//EN"
 "http://www.w3.org/Graphics/SVG/1.1/DTD/svg11.dtd">
<!-- Generated by graphviz version 2.42.3 (0)
 -->
<!-- Title: proteus::GN_SW2DCV&lt; CompKernelType, nSpace, nQuadraturePoints_element, nDOF_mesh_trial_element, nDOF_trial_element, nDOF_test_element, nQuadraturePoints_elementBoundary &gt; Pages: 1 -->
<svg width="271pt" height="317pt"
 viewBox="0.00 0.00 271.00 317.00" xmlns="http://www.w3.org/2000/svg" xmlns:xlink="http://www.w3.org/1999/xlink">
<g id="graph0" class="graph" transform="scale(1 1) rotate(0) translate(4 313)">
<title>proteus::GN_SW2DCV&lt; CompKernelType, nSpace, nQuadraturePoints_element, nDOF_mesh_trial_element, nDOF_trial_element, nDOF_test_element, nQuadraturePoints_elementBoundary &gt;</title>
<polygon fill="white" stroke="transparent" points="-4,4 -4,-313 267,-313 267,4 -4,4"/>
<!-- Node1 -->
<g id="node1" class="node">
<title>Node1</title>
<g id="a_node1"><a xlink:title=" ">
<polygon fill="#bfbfbf" stroke="black" points="0,-0.5 0,-74.5 263,-74.5 263,-0.5 0,-0.5"/>
<text text-anchor="start" x="8" y="-62.5" font-family="Helvetica,sans-Serif" font-size="10.00">proteus::GN_SW2DCV</text>
<text text-anchor="start" x="8" y="-51.5" font-family="Helvetica,sans-Serif" font-size="10.00">&lt; CompKernelType, nSpace,</text>
<text text-anchor="start" x="8" y="-40.5" font-family="Helvetica,sans-Serif" font-size="10.00"> nQuadraturePoints_element,</text>
<text text-anchor="start" x="8" y="-29.5" font-family="Helvetica,sans-Serif" font-size="10.00"> nDOF_mesh_trial_element,</text>
<text text-anchor="start" x="8" y="-18.5" font-family="Helvetica,sans-Serif" font-size="10.00"> nDOF_trial_element, nDOF_test</text>
<text text-anchor="middle" x="131.5" y="-7.5" font-family="Helvetica,sans-Serif" font-size="10.00">_element, nQuadraturePoints_elementBoundary &gt;</text>
</a>
</g>
</g>
<!-- Node2 -->
<g id="node2" class="node">
<title>Node2</title>
<g id="a_node2"><a xlink:href="classproteus_1_1_g_n___s_w2_d_c_v__base.html" target="_top" xlink:title=" ">
<polygon fill="white" stroke="black" points="56,-112.5 56,-131.5 207,-131.5 207,-112.5 56,-112.5"/>
<text text-anchor="middle" x="131.5" y="-119.5" font-family="Helvetica,sans-Serif" font-size="10.00">proteus::GN_SW2DCV_base</text>
</a>
</g>
</g>
<!-- Node2&#45;&gt;Node1 -->
<g id="edge1" class="edge">
<title>Node2&#45;&gt;Node1</title>
<path fill="none" stroke="midnightblue" d="M131.5,-102.3C131.5,-94.14 131.5,-84.29 131.5,-74.79"/>
<polygon fill="midnightblue" stroke="midnightblue" points="128,-102.48 131.5,-112.48 135,-102.48 128,-102.48"/>
</g>
<!-- Node3 -->
<g id="node3" class="node">
<title>Node3</title>
<g id="a_node3"><a xlink:title=" ">
<polygon fill="white" stroke="#bfbfbf" points="64.5,-289.5 64.5,-308.5 198.5,-308.5 198.5,-289.5 64.5,-289.5"/>
<text text-anchor="middle" x="131.5" y="-296.5" font-family="Helvetica,sans-Serif" font-size="10.00">std::valarray&lt; double &gt;</text>
</a>
</g>
</g>
<!-- Node3&#45;&gt;Node2 -->
<g id="edge2" class="edge">
<title>Node3&#45;&gt;Node2</title>
<path fill="none" stroke="#9a32cd" stroke-dasharray="5,2" d="M131.5,-278.95C131.5,-241.3 131.5,-158.65 131.5,-131.69"/>
<polygon fill="#9a32cd" stroke="#9a32cd" points="128,-279.08 131.5,-289.08 135,-279.08 128,-279.08"/>
<text text-anchor="middle" x="157.5" y="-263" font-family="Helvetica,sans-Serif" font-size="10.00"> Rpos</text>
<text text-anchor="middle" x="157.5" y="-252" font-family="Helvetica,sans-Serif" font-size="10.00">hwLow</text>
<text text-anchor="middle" x="157.5" y="-241" font-family="Helvetica,sans-Serif" font-size="10.00">Rpos_heta</text>
<text text-anchor="middle" x="157.5" y="-230" font-family="Helvetica,sans-Serif" font-size="10.00">Rneg_heta</text>
<text text-anchor="middle" x="157.5" y="-219" font-family="Helvetica,sans-Serif" font-size="10.00">hvLow</text>
<text text-anchor="middle" x="157.5" y="-208" font-family="Helvetica,sans-Serif" font-size="10.00">huLow</text>
<text text-anchor="middle" x="157.5" y="-197" font-family="Helvetica,sans-Serif" font-size="10.00">Kmax</text>
<text text-anchor="middle" x="157.5" y="-186" font-family="Helvetica,sans-Serif" font-size="10.00">Rneg</text>
<text text-anchor="middle" x="157.5" y="-175" font-family="Helvetica,sans-Serif" font-size="10.00">hLow</text>
<text text-anchor="middle" x="157.5" y="-164" font-family="Helvetica,sans-Serif" font-size="10.00">hetaLow</text>
<text text-anchor="middle" x="157.5" y="-153" font-family="Helvetica,sans-Serif" font-size="10.00">...</text>
</g>
</g>
</svg>
