<?xml version="1.0" encoding="UTF-8" standalone="no"?>
<!DOCTYPE svg PUBLIC "-//W3C//DTD SVG 1.1//EN"
 "http://www.w3.org/Graphics/SVG/1.1/DTD/svg11.dtd">
<!-- Generated by graphviz version 2.38.0 (20140413.2041)
 -->
<!-- Title: PlanarStraightLineGraphDomain Pages: 1 -->
<svg width="672pt" height="410pt"
 viewBox="0.00 0.00 672.00 409.50" xmlns="http://www.w3.org/2000/svg" xmlns:xlink="http://www.w3.org/1999/xlink">
<g id="graph0" class="graph" transform="scale(1 1) rotate(0) translate(4 405.5)">
<title>PlanarStraightLineGraphDomain</title>
<polygon fill="white" stroke="none" points="-4,4 -4,-405.5 668,-405.5 668,4 -4,4"/>
<!-- Node2 -->
<g id="node1" class="node"><title>Node2</title>
<polygon fill="#bfbfbf" stroke="black" points="508,-246 508,-265 664,-265 664,-246 508,-246"/>
<text text-anchor="middle" x="586" y="-253" font-family="Helvetica,sans-Serif" font-size="10.00">PlanarStraightLineGraphDomain</text>
</g>
<!-- Node3 -->
<g id="node2" class="node"><title>Node3</title>
<g id="a_node2"><a xlink:href="class_d__base.html" target="_top" xlink:title="D_base">
<polygon fill="white" stroke="black" points="348.5,-337 348.5,-356 398.5,-356 398.5,-337 348.5,-337"/>
<text text-anchor="middle" x="373.5" y="-344" font-family="Helvetica,sans-Serif" font-size="10.00">D_base</text>
</a>
</g>
</g>
<!-- Node3&#45;&gt;Node2 -->
<g id="edge1" class="edge"><title>Node3&#45;&gt;Node2</title>
<path fill="none" stroke="midnightblue" d="M406.064,-332.855C449.159,-314.225 525.331,-281.295 562.851,-265.075"/>
<polygon fill="midnightblue" stroke="midnightblue" points="404.419,-329.753 396.629,-336.933 407.197,-336.178 404.419,-329.753"/>
</g>
<!-- Node4 -->
<g id="node3" class="node"><title>Node4</title>
<g id="a_node3"><a xlink:title="STL class. ">
<polygon fill="white" stroke="#bfbfbf" points="157,-365 157,-384 217,-384 217,-365 157,-365"/>
<text text-anchor="middle" x="187" y="-372" font-family="Helvetica,sans-Serif" font-size="10.00">std::string</text>
</a>
</g>
</g>
<!-- Node4&#45;&gt;Node3 -->
<g id="edge2" class="edge"><title>Node4&#45;&gt;Node3</title>
<path fill="none" stroke="#9a32cd" stroke-dasharray="5,2" d="M226.96,-362.149C237.579,-359.203 249.149,-356.373 260,-354.5 290.1,-349.303 325.291,-347.469 348.191,-346.829"/>
<polygon fill="#9a32cd" stroke="#9a32cd" points="225.765,-358.851 217.124,-364.981 227.702,-365.577 225.765,-358.851"/>
<text text-anchor="middle" x="281.5" y="-368.5" font-family="Helvetica,sans-Serif" font-size="10.00"> units</text>
<text text-anchor="middle" x="281.5" y="-357.5" font-family="Helvetica,sans-Serif" font-size="10.00">name</text>
</g>
<!-- Node10 -->
<g id="node9" class="node"><title>Node10</title>
<polygon fill="white" stroke="#bfbfbf" points="321,-382 321,-401 426,-401 426,-382 321,-382"/>
<text text-anchor="middle" x="373.5" y="-389" font-family="Helvetica,sans-Serif" font-size="10.00">std::vector&lt; string &gt;</text>
</g>
<!-- Node4&#45;&gt;Node10 -->
<g id="edge10" class="edge"><title>Node4&#45;&gt;Node10</title>
<path fill="none" stroke="#9a32cd" stroke-dasharray="5,2" d="M227.549,-378.144C254.767,-380.652 291.194,-384.008 320.722,-386.729"/>
<polygon fill="#9a32cd" stroke="#9a32cd" points="227.514,-374.626 217.235,-377.194 226.871,-381.597 227.514,-374.626"/>
<text text-anchor="middle" x="281.5" y="-387.5" font-family="Helvetica,sans-Serif" font-size="10.00"> elements</text>
</g>
<!-- Node5 -->
<g id="node4" class="node"><title>Node5</title>
<g id="a_node4"><a xlink:title="STL class. ">
<polygon fill="white" stroke="#bfbfbf" points="0,-359.5 0,-389.5 95,-389.5 95,-359.5 0,-359.5"/>
<text text-anchor="start" x="8" y="-377.5" font-family="Helvetica,sans-Serif" font-size="10.00">std::basic_string&lt;</text>
<text text-anchor="middle" x="47.5" y="-366.5" font-family="Helvetica,sans-Serif" font-size="10.00"> char &gt;</text>
</a>
</g>
</g>
<!-- Node5&#45;&gt;Node4 -->
<g id="edge3" class="edge"><title>Node5&#45;&gt;Node4</title>
<path fill="none" stroke="midnightblue" d="M105.297,-374.5C122.975,-374.5 141.741,-374.5 156.724,-374.5"/>
<polygon fill="midnightblue" stroke="midnightblue" points="105.051,-371 95.0512,-374.5 105.051,-378 105.051,-371"/>
</g>
<!-- Node6 -->
<g id="node5" class="node"><title>Node6</title>
<polygon fill="white" stroke="#bfbfbf" points="132,-265 132,-284 242,-284 242,-265 132,-265"/>
<text text-anchor="middle" x="187" y="-272" font-family="Helvetica,sans-Serif" font-size="10.00">std::vector&lt; double &gt;</text>
</g>
<!-- Node6&#45;&gt;Node2 -->
<g id="edge12" class="edge"><title>Node6&#45;&gt;Node2</title>
<path fill="none" stroke="#9a32cd" stroke-dasharray="5,2" d="M252.28,-271.637C313.423,-268.886 407.985,-264.559 490,-260.5 495.773,-260.214 501.744,-259.913 507.75,-259.606"/>
<polygon fill="#9a32cd" stroke="#9a32cd" points="251.846,-268.153 242.013,-272.098 252.16,-275.146 251.846,-268.153"/>
<text text-anchor="middle" x="373.5" y="-304.5" font-family="Helvetica,sans-Serif" font-size="10.00"> regions</text>
<text text-anchor="middle" x="373.5" y="-293.5" font-family="Helvetica,sans-Serif" font-size="10.00">h</text>
<text text-anchor="middle" x="373.5" y="-282.5" font-family="Helvetica,sans-Serif" font-size="10.00">r</text>
<text text-anchor="middle" x="373.5" y="-271.5" font-family="Helvetica,sans-Serif" font-size="10.00">v</text>
</g>
<!-- Node6&#45;&gt;Node3 -->
<g id="edge4" class="edge"><title>Node6&#45;&gt;Node3</title>
<path fill="none" stroke="#9a32cd" stroke-dasharray="5,2" d="M222.271,-287.874C258.984,-302.201 316.3,-324.568 348.485,-337.128"/>
<polygon fill="#9a32cd" stroke="#9a32cd" points="223.088,-284.436 212.5,-284.061 220.544,-290.957 223.088,-284.436"/>
<text text-anchor="middle" x="281.5" y="-332.5" font-family="Helvetica,sans-Serif" font-size="10.00"> x</text>
<text text-anchor="middle" x="281.5" y="-321.5" font-family="Helvetica,sans-Serif" font-size="10.00">L</text>
</g>
<!-- Node9 -->
<g id="node8" class="node"><title>Node9</title>
<polygon fill="white" stroke="#bfbfbf" points="324,-207.5 324,-237.5 423,-237.5 423,-207.5 324,-207.5"/>
<text text-anchor="start" x="332" y="-225.5" font-family="Helvetica,sans-Serif" font-size="10.00">std::vector&lt; vector</text>
<text text-anchor="middle" x="373.5" y="-214.5" font-family="Helvetica,sans-Serif" font-size="10.00">&lt; double &gt; &gt;</text>
</g>
<!-- Node6&#45;&gt;Node9 -->
<g id="edge8" class="edge"><title>Node6&#45;&gt;Node9</title>
<path fill="none" stroke="#9a32cd" stroke-dasharray="5,2" d="M222.898,-261.606C234.611,-257.487 247.797,-253.073 260,-249.5 280.722,-243.432 303.878,-237.699 323.771,-233.09"/>
<polygon fill="#9a32cd" stroke="#9a32cd" points="221.704,-258.316 213.461,-264.972 224.055,-264.909 221.704,-258.316"/>
<text text-anchor="middle" x="281.5" y="-252.5" font-family="Helvetica,sans-Serif" font-size="10.00"> elements</text>
</g>
<!-- Node7 -->
<g id="node6" class="node"><title>Node7</title>
<polygon fill="white" stroke="#bfbfbf" points="324,-0.5 324,-30.5 423,-30.5 423,-0.5 324,-0.5"/>
<text text-anchor="start" x="332" y="-18.5" font-family="Helvetica,sans-Serif" font-size="10.00">std::vector&lt; vector</text>
<text text-anchor="middle" x="373.5" y="-7.5" font-family="Helvetica,sans-Serif" font-size="10.00">&lt; int &gt; &gt;</text>
</g>
<!-- Node7&#45;&gt;Node2 -->
<g id="edge5" class="edge"><title>Node7&#45;&gt;Node2</title>
<path fill="none" stroke="#9a32cd" stroke-dasharray="5,2" d="M433.157,-18.7387C452.989,-22.3834 474.11,-29.373 490,-42.5 557.427,-98.2018 578.703,-211.545 583.705,-245.604"/>
<polygon fill="#9a32cd" stroke="#9a32cd" points="433.673,-15.2767 423.247,-17.1643 432.574,-22.19 433.673,-15.2767"/>
<text text-anchor="middle" x="467" y="-45.5" font-family="Helvetica,sans-Serif" font-size="10.00"> segments</text>
</g>
<!-- Node8 -->
<g id="node7" class="node"><title>Node8</title>
<polygon fill="white" stroke="#bfbfbf" points="141,-39 141,-58 233,-58 233,-39 141,-39"/>
<text text-anchor="middle" x="187" y="-46" font-family="Helvetica,sans-Serif" font-size="10.00">std::vector&lt; int &gt;</text>
</g>
<!-- Node8&#45;&gt;Node2 -->
<g id="edge11" class="edge"><title>Node8&#45;&gt;Node2</title>
<path fill="none" stroke="#9a32cd" stroke-dasharray="5,2" d="M243.293,-50.4819C303.47,-53.4259 395.227,-60.4478 426,-76.5 504.866,-117.639 562.986,-215.083 579.934,-245.949"/>
<polygon fill="#9a32cd" stroke="#9a32cd" points="243.336,-46.9802 233.184,-50.0109 243.01,-53.9726 243.336,-46.9802"/>
<text text-anchor="middle" x="373.5" y="-189.5" font-family="Helvetica,sans-Serif" font-size="10.00"> vertexFlags</text>
<text text-anchor="middle" x="373.5" y="-178.5" font-family="Helvetica,sans-Serif" font-size="10.00">nVertices</text>
<text text-anchor="middle" x="373.5" y="-167.5" font-family="Helvetica,sans-Serif" font-size="10.00">segmentFlags</text>
<text text-anchor="middle" x="373.5" y="-156.5" font-family="Helvetica,sans-Serif" font-size="10.00">sFlags</text>
<text text-anchor="middle" x="373.5" y="-145.5" font-family="Helvetica,sans-Serif" font-size="10.00">hN</text>
<text text-anchor="middle" x="373.5" y="-134.5" font-family="Helvetica,sans-Serif" font-size="10.00">vN</text>
<text text-anchor="middle" x="373.5" y="-123.5" font-family="Helvetica,sans-Serif" font-size="10.00">regionFlags</text>
<text text-anchor="middle" x="373.5" y="-112.5" font-family="Helvetica,sans-Serif" font-size="10.00">vertexAttributes</text>
<text text-anchor="middle" x="373.5" y="-101.5" font-family="Helvetica,sans-Serif" font-size="10.00">s</text>
<text text-anchor="middle" x="373.5" y="-90.5" font-family="Helvetica,sans-Serif" font-size="10.00">sN</text>
<text text-anchor="middle" x="373.5" y="-79.5" font-family="Helvetica,sans-Serif" font-size="10.00">...</text>
</g>
<!-- Node8&#45;&gt;Node7 -->
<g id="edge6" class="edge"><title>Node8&#45;&gt;Node7</title>
<path fill="none" stroke="#9a32cd" stroke-dasharray="5,2" d="M243.102,-38.6444C268.805,-34.0472 299.127,-28.6237 323.955,-24.1828"/>
<polygon fill="#9a32cd" stroke="#9a32cd" points="242.361,-35.2212 233.134,-40.4273 243.594,-42.1119 242.361,-35.2212"/>
<text text-anchor="middle" x="281.5" y="-38.5" font-family="Helvetica,sans-Serif" font-size="10.00"> elements</text>
</g>
<!-- Node9&#45;&gt;Node2 -->
<g id="edge7" class="edge"><title>Node9&#45;&gt;Node2</title>
<path fill="none" stroke="#9a32cd" stroke-dasharray="5,2" d="M433.093,-230.161C451.345,-232.67 471.528,-235.569 490,-238.5 504.231,-240.758 519.622,-243.418 533.787,-245.954"/>
<polygon fill="#9a32cd" stroke="#9a32cd" points="433.555,-226.691 423.174,-228.809 432.61,-233.627 433.555,-226.691"/>
<text text-anchor="middle" x="467" y="-252.5" font-family="Helvetica,sans-Serif" font-size="10.00"> holes</text>
<text text-anchor="middle" x="467" y="-241.5" font-family="Helvetica,sans-Serif" font-size="10.00">vertices</text>
</g>
<!-- Node10&#45;&gt;Node2 -->
<g id="edge9" class="edge"><title>Node10&#45;&gt;Node2</title>
<path fill="none" stroke="#9a32cd" stroke-dasharray="5,2" d="M404.729,-377.112C411.809,-373.504 419.252,-369.511 426,-365.5 482.551,-331.88 545.711,-285.261 572.211,-265.255"/>
<polygon fill="#9a32cd" stroke="#9a32cd" points="402.788,-374.169 395.399,-381.761 405.91,-380.434 402.788,-374.169"/>
<text text-anchor="middle" x="467" y="-354.5" font-family="Helvetica,sans-Serif" font-size="10.00"> line</text>
</g>
</g>
</svg>
