<?xml version="1.0" encoding="UTF-8" standalone="no"?>
<!DOCTYPE svg PUBLIC "-//W3C//DTD SVG 1.1//EN"
 "http://www.w3.org/Graphics/SVG/1.1/DTD/svg11.dtd">
<!-- Generated by graphviz version 2.40.1 (20161225.0304)
 -->
<!-- Title: FMMEikonalSolverBase Pages: 1 -->
<svg width="636pt" height="140pt"
 viewBox="0.00 0.00 636.00 140.00" xmlns="http://www.w3.org/2000/svg" xmlns:xlink="http://www.w3.org/1999/xlink">
<g id="graph0" class="graph" transform="scale(1 1) rotate(0) translate(4 136)">
<title>FMMEikonalSolverBase</title>
<polygon fill="#ffffff" stroke="transparent" points="-4,4 -4,-136 632,-136 632,4 -4,4"/>
<!-- Node0 -->
<g id="node1" class="node">
<title>Node0</title>
<polygon fill="#bfbfbf" stroke="#000000" points="186,-112.5 186,-131.5 308,-131.5 308,-112.5 186,-112.5"/>
<text text-anchor="middle" x="247" y="-119.5" font-family="Helvetica,sans-Serif" font-size="10.00" fill="#000000">FMMEikonalSolverBase</text>
</g>
<!-- Node1 -->
<g id="node2" class="node">
<title>Node1</title>
<g id="a_node2"><a xlink:href="class_f_m_m_eikonal_solver1d.html" target="_top" xlink:title="FMMEikonalSolver1d">
<polygon fill="#ffffff" stroke="#000000" points="0,-56.5 0,-75.5 110,-75.5 110,-56.5 0,-56.5"/>
<text text-anchor="middle" x="55" y="-63.5" font-family="Helvetica,sans-Serif" font-size="10.00" fill="#000000">FMMEikonalSolver1d</text>
</a>
</g>
</g>
<!-- Node0&#45;&gt;Node1 -->
<g id="edge1" class="edge">
<title>Node0&#45;&gt;Node1</title>
<path fill="none" stroke="#191970" d="M203.9923,-109.4561C168.7479,-99.1765 119.6264,-84.8494 87.5753,-75.5011"/>
<polygon fill="#191970" stroke="#191970" points="203.414,-112.9332 213.994,-112.3733 205.374,-106.2132 203.414,-112.9332"/>
</g>
<!-- Node2 -->
<g id="node3" class="node">
<title>Node2</title>
<g id="a_node3"><a xlink:href="class_f_m_m_eikonal_solver2d.html" target="_top" xlink:title="FMMEikonalSolver2d">
<polygon fill="#ffffff" stroke="#000000" points="128,-56.5 128,-75.5 238,-75.5 238,-56.5 128,-56.5"/>
<text text-anchor="middle" x="183" y="-63.5" font-family="Helvetica,sans-Serif" font-size="10.00" fill="#000000">FMMEikonalSolver2d</text>
</a>
</g>
</g>
<!-- Node0&#45;&gt;Node2 -->
<g id="edge2" class="edge">
<title>Node0&#45;&gt;Node2</title>
<path fill="none" stroke="#191970" d="M228.3086,-105.645C217.1781,-95.9058 203.4337,-83.8795 194.0202,-75.6427"/>
<polygon fill="#191970" stroke="#191970" points="226.0215,-108.2945 235.8521,-112.2455 230.631,-103.0264 226.0215,-108.2945"/>
</g>
<!-- Node3 -->
<g id="node4" class="node">
<title>Node3</title>
<g id="a_node4"><a xlink:href="class_f_m_m_eikonal_solver3d.html" target="_top" xlink:title="FMMEikonalSolver3d">
<polygon fill="#ffffff" stroke="#000000" points="256,-56.5 256,-75.5 366,-75.5 366,-56.5 256,-56.5"/>
<text text-anchor="middle" x="311" y="-63.5" font-family="Helvetica,sans-Serif" font-size="10.00" fill="#000000">FMMEikonalSolver3d</text>
</a>
</g>
</g>
<!-- Node0&#45;&gt;Node3 -->
<g id="edge3" class="edge">
<title>Node0&#45;&gt;Node3</title>
<path fill="none" stroke="#191970" d="M265.6914,-105.645C276.8219,-95.9058 290.5663,-83.8795 299.9798,-75.6427"/>
<polygon fill="#191970" stroke="#191970" points="263.369,-103.0264 258.1479,-112.2455 267.9785,-108.2945 263.369,-103.0264"/>
</g>
<!-- Node4 -->
<g id="node5" class="node">
<title>Node4</title>
<g id="a_node5"><a xlink:href="class_f_s_w_eikonal_solver_base.html" target="_top" xlink:title="FSWEikonalSolverBase">
<polygon fill="#ffffff" stroke="#000000" points="384,-56.5 384,-75.5 506,-75.5 506,-56.5 384,-56.5"/>
<text text-anchor="middle" x="445" y="-63.5" font-family="Helvetica,sans-Serif" font-size="10.00" fill="#000000">FSWEikonalSolverBase</text>
</a>
</g>
</g>
<!-- Node0&#45;&gt;Node4 -->
<g id="edge4" class="edge">
<title>Node0&#45;&gt;Node4</title>
<path fill="none" stroke="#191970" d="M290.8845,-109.5882C327.2623,-99.2996 378.2121,-84.8895 411.4067,-75.5011"/>
<polygon fill="#191970" stroke="#191970" points="289.7074,-106.2838 281.0374,-112.3733 291.6125,-113.0195 289.7074,-106.2838"/>
</g>
<!-- Node5 -->
<g id="node6" class="node">
<title>Node5</title>
<g id="a_node6"><a xlink:href="class_f_s_w_eikonal_solver1d.html" target="_top" xlink:title="FSWEikonalSolver1d">
<polygon fill="#ffffff" stroke="#000000" points="262,-.5 262,-19.5 372,-19.5 372,-.5 262,-.5"/>
<text text-anchor="middle" x="317" y="-7.5" font-family="Helvetica,sans-Serif" font-size="10.00" fill="#000000">FSWEikonalSolver1d</text>
</a>
</g>
</g>
<!-- Node4&#45;&gt;Node5 -->
<g id="edge5" class="edge">
<title>Node4&#45;&gt;Node5</title>
<path fill="none" stroke="#191970" d="M413.5652,-52.2473C390.3191,-42.0771 359.2589,-28.4883 338.7169,-19.5011"/>
<polygon fill="#191970" stroke="#191970" points="412.4315,-55.5716 422.996,-56.3733 415.2373,-49.1585 412.4315,-55.5716"/>
</g>
<!-- Node6 -->
<g id="node7" class="node">
<title>Node6</title>
<g id="a_node7"><a xlink:href="class_f_s_w_eikonal_solver2d.html" target="_top" xlink:title="FSWEikonalSolver2d">
<polygon fill="#ffffff" stroke="#000000" points="390,-.5 390,-19.5 500,-19.5 500,-.5 390,-.5"/>
<text text-anchor="middle" x="445" y="-7.5" font-family="Helvetica,sans-Serif" font-size="10.00" fill="#000000">FSWEikonalSolver2d</text>
</a>
</g>
</g>
<!-- Node4&#45;&gt;Node6 -->
<g id="edge6" class="edge">
<title>Node4&#45;&gt;Node6</title>
<path fill="none" stroke="#191970" d="M445,-46.1575C445,-37.155 445,-26.9199 445,-19.6427"/>
<polygon fill="#191970" stroke="#191970" points="441.5001,-46.2455 445,-56.2455 448.5001,-46.2456 441.5001,-46.2455"/>
</g>
<!-- Node7 -->
<g id="node8" class="node">
<title>Node7</title>
<g id="a_node8"><a xlink:href="class_f_s_w_eikonal_solver3d.html" target="_top" xlink:title="FSWEikonalSolver3d">
<polygon fill="#ffffff" stroke="#000000" points="518,-.5 518,-19.5 628,-19.5 628,-.5 518,-.5"/>
<text text-anchor="middle" x="573" y="-7.5" font-family="Helvetica,sans-Serif" font-size="10.00" fill="#000000">FSWEikonalSolver3d</text>
</a>
</g>
</g>
<!-- Node4&#45;&gt;Node7 -->
<g id="edge7" class="edge">
<title>Node4&#45;&gt;Node7</title>
<path fill="none" stroke="#191970" d="M476.4348,-52.2473C499.6809,-42.0771 530.7411,-28.4883 551.2831,-19.5011"/>
<polygon fill="#191970" stroke="#191970" points="474.7627,-49.1585 467.004,-56.3733 477.5685,-55.5716 474.7627,-49.1585"/>
</g>
</g>
</svg>
