<?xml version="1.0" encoding="UTF-8" standalone="no"?>
<!DOCTYPE svg PUBLIC "-//W3C//DTD SVG 1.1//EN"
 "http://www.w3.org/Graphics/SVG/1.1/DTD/svg11.dtd">
<!-- Generated by graphviz version 2.42.3 (0)
 -->
<!-- Title: proteus::MoveMesh&lt; CompKernelType, nSpace, nQuadraturePoints_element, nDOF_mesh_trial_element, nDOF_trial_element, nDOF_test_element, nQuadraturePoints_elementBoundary &gt; Pages: 1 -->
<svg width="281pt" height="150pt"
 viewBox="0.00 0.00 281.00 150.00" xmlns="http://www.w3.org/2000/svg" xmlns:xlink="http://www.w3.org/1999/xlink">
<g id="graph0" class="graph" transform="scale(1 1) rotate(0) translate(4 146)">
<title>proteus::MoveMesh&lt; CompKernelType, nSpace, nQuadraturePoints_element, nDOF_mesh_trial_element, nDOF_trial_element, nDOF_test_element, nQuadraturePoints_elementBoundary &gt;</title>
<polygon fill="white" stroke="transparent" points="-4,4 -4,-146 277,-146 277,4 -4,4"/>
<!-- Node1 -->
<g id="node1" class="node">
<title>Node1</title>
<g id="a_node1"><a xlink:title=" ">
<polygon fill="#bfbfbf" stroke="black" points="10,-0.5 10,-74.5 273,-74.5 273,-0.5 10,-0.5"/>
<text text-anchor="start" x="18" y="-62.5" font-family="Helvetica,sans-Serif" font-size="10.00">proteus::MoveMesh&lt;</text>
<text text-anchor="start" x="18" y="-51.5" font-family="Helvetica,sans-Serif" font-size="10.00"> CompKernelType, nSpace,</text>
<text text-anchor="start" x="18" y="-40.5" font-family="Helvetica,sans-Serif" font-size="10.00"> nQuadraturePoints_element,</text>
<text text-anchor="start" x="18" y="-29.5" font-family="Helvetica,sans-Serif" font-size="10.00"> nDOF_mesh_trial_element,</text>
<text text-anchor="start" x="18" y="-18.5" font-family="Helvetica,sans-Serif" font-size="10.00"> nDOF_trial_element, nDOF_test</text>
<text text-anchor="middle" x="141.5" y="-7.5" font-family="Helvetica,sans-Serif" font-size="10.00">_element, nQuadraturePoints_elementBoundary &gt;</text>
</a>
</g>
</g>
<!-- Node2 -->
<g id="node2" class="node">
<title>Node2</title>
<g id="a_node2"><a xlink:href="classproteus_1_1_move_mesh__base.html" target="_top" xlink:title=" ">
<polygon fill="white" stroke="black" points="0,-122.5 0,-141.5 141,-141.5 141,-122.5 0,-122.5"/>
<text text-anchor="middle" x="70.5" y="-129.5" font-family="Helvetica,sans-Serif" font-size="10.00">proteus::MoveMesh_base</text>
</a>
</g>
</g>
<!-- Node2&#45;&gt;Node1 -->
<g id="edge1" class="edge">
<title>Node2&#45;&gt;Node1</title>
<path fill="none" stroke="midnightblue" d="M83.36,-114.25C91.79,-103.27 103.13,-88.48 113.57,-74.89"/>
<polygon fill="midnightblue" stroke="midnightblue" points="80.36,-112.4 77.05,-122.46 85.92,-116.66 80.36,-112.4"/>
</g>
<!-- Node3 -->
<g id="node3" class="node">
<title>Node3</title>
<g id="a_node3"><a xlink:href="class_e_index.html" target="_top" xlink:title=" ">
<polygon fill="white" stroke="black" points="159,-122.5 159,-141.5 266,-141.5 266,-122.5 159,-122.5"/>
<text text-anchor="middle" x="212.5" y="-129.5" font-family="Helvetica,sans-Serif" font-size="10.00">EIndex&lt; nSpace &gt;</text>
</a>
</g>
</g>
<!-- Node3&#45;&gt;Node1 -->
<g id="edge2" class="edge">
<title>Node3&#45;&gt;Node1</title>
<path fill="none" stroke="#9a32cd" stroke-dasharray="5,2" d="M199.64,-114.25C191.21,-103.27 179.87,-88.48 169.43,-74.89"/>
<polygon fill="#9a32cd" stroke="#9a32cd" points="197.08,-116.66 205.95,-122.46 202.64,-112.4 197.08,-116.66"/>
<text text-anchor="middle" x="198" y="-96" font-family="Helvetica,sans-Serif" font-size="10.00"> ei</text>
</g>
</g>
</svg>
