<?xml version="1.0" encoding="UTF-8" standalone="no"?>
<!DOCTYPE svg PUBLIC "-//W3C//DTD SVG 1.1//EN"
 "http://www.w3.org/Graphics/SVG/1.1/DTD/svg11.dtd">
<!-- Generated by graphviz version 2.42.3 (0)
 -->
<!-- Title: proteus::MCorr&lt; CompKernelType, nSpace, nQuadraturePoints_element, nDOF_mesh_trial_element, nDOF_trial_element, nDOF_test_element, nQuadraturePoints_elementBoundary &gt; Pages: 1 -->
<svg width="784pt" height="194pt"
 viewBox="0.00 0.00 784.00 193.50" xmlns="http://www.w3.org/2000/svg" xmlns:xlink="http://www.w3.org/1999/xlink">
<g id="graph0" class="graph" transform="scale(1 1) rotate(0) translate(4 189.5)">
<title>proteus::MCorr&lt; CompKernelType, nSpace, nQuadraturePoints_element, nDOF_mesh_trial_element, nDOF_trial_element, nDOF_test_element, nQuadraturePoints_elementBoundary &gt;</title>
<polygon fill="white" stroke="transparent" points="-4,4 -4,-189.5 780,-189.5 780,4 -4,4"/>
<!-- Node1 -->
<g id="node1" class="node">
<title>Node1</title>
<g id="a_node1"><a xlink:title=" ">
<polygon fill="#bfbfbf" stroke="black" points="553,-66 553,-129 776,-129 776,-66 553,-66"/>
<text text-anchor="start" x="561" y="-117" font-family="Helvetica,sans-Serif" font-size="10.00">proteus::MCorr&lt; CompKernel</text>
<text text-anchor="start" x="561" y="-106" font-family="Helvetica,sans-Serif" font-size="10.00">Type, nSpace, nQuadraturePoints</text>
<text text-anchor="start" x="561" y="-95" font-family="Helvetica,sans-Serif" font-size="10.00">_element, nDOF_mesh_trial_element,</text>
<text text-anchor="start" x="561" y="-84" font-family="Helvetica,sans-Serif" font-size="10.00"> nDOF_trial_element, nDOF_test_element,</text>
<text text-anchor="middle" x="664.5" y="-73" font-family="Helvetica,sans-Serif" font-size="10.00"> nQuadraturePoints_elementBoundary &gt;</text>
</a>
</g>
</g>
<!-- Node2 -->
<g id="node2" class="node">
<title>Node2</title>
<g id="a_node2"><a xlink:href="classproteus_1_1_m_corr__base.html" target="_top" xlink:title=" ">
<polygon fill="white" stroke="black" points="312.5,-143 312.5,-162 429.5,-162 429.5,-143 312.5,-143"/>
<text text-anchor="middle" x="371" y="-150" font-family="Helvetica,sans-Serif" font-size="10.00">proteus::MCorr_base</text>
</a>
</g>
</g>
<!-- Node2&#45;&gt;Node1 -->
<g id="edge1" class="edge">
<title>Node2&#45;&gt;Node1</title>
<path fill="none" stroke="midnightblue" d="M432.42,-141.1C467.16,-134.55 511.87,-126.11 552.7,-118.41"/>
<polygon fill="midnightblue" stroke="midnightblue" points="431.62,-137.69 422.44,-142.98 432.92,-144.57 431.62,-137.69"/>
</g>
<!-- Node3 -->
<g id="node3" class="node">
<title>Node3</title>
<g id="a_node3"><a xlink:title=" ">
<polygon fill="white" stroke="#bfbfbf" points="0,-143 0,-162 134,-162 134,-143 0,-143"/>
<text text-anchor="middle" x="67" y="-150" font-family="Helvetica,sans-Serif" font-size="10.00">std::valarray&lt; double &gt;</text>
</a>
</g>
</g>
<!-- Node3&#45;&gt;Node2 -->
<g id="edge2" class="edge">
<title>Node3&#45;&gt;Node2</title>
<path fill="none" stroke="#9a32cd" stroke-dasharray="5,2" d="M144.47,-152.5C196.54,-152.5 264.4,-152.5 312.03,-152.5"/>
<polygon fill="#9a32cd" stroke="#9a32cd" points="144.28,-149 134.28,-152.5 144.28,-156 144.28,-149"/>
<text text-anchor="middle" x="203.5" y="-177.5" font-family="Helvetica,sans-Serif" font-size="10.00"> Rpos</text>
<text text-anchor="middle" x="203.5" y="-166.5" font-family="Helvetica,sans-Serif" font-size="10.00">FluxCorrectionMatrix</text>
<text text-anchor="middle" x="203.5" y="-155.5" font-family="Helvetica,sans-Serif" font-size="10.00">Rneg</text>
</g>
<!-- Node4 -->
<g id="node4" class="node">
<title>Node4</title>
<g id="a_node4"><a xlink:href="classequivalent__polynomials_1_1_generalized_functions__mix.html" target="_top" xlink:title=" ">
<polygon fill="white" stroke="black" points="292.5,-71.5 292.5,-123.5 449.5,-123.5 449.5,-71.5 292.5,-71.5"/>
<text text-anchor="start" x="300.5" y="-111.5" font-family="Helvetica,sans-Serif" font-size="10.00">equivalent_polynomials</text>
<text text-anchor="start" x="300.5" y="-100.5" font-family="Helvetica,sans-Serif" font-size="10.00">::GeneralizedFunctions</text>
<text text-anchor="start" x="300.5" y="-89.5" font-family="Helvetica,sans-Serif" font-size="10.00">_mix&lt; nSpace, 1, nDOF_trial</text>
<text text-anchor="middle" x="371" y="-78.5" font-family="Helvetica,sans-Serif" font-size="10.00">_element &gt;</text>
</a>
</g>
</g>
<!-- Node4&#45;&gt;Node1 -->
<g id="edge3" class="edge">
<title>Node4&#45;&gt;Node1</title>
<path fill="none" stroke="#9a32cd" stroke-dasharray="5,2" d="M459.91,-97.5C489.16,-97.5 522.11,-97.5 552.85,-97.5"/>
<polygon fill="#9a32cd" stroke="#9a32cd" points="459.73,-94 449.73,-97.5 459.73,-101 459.73,-94"/>
<text text-anchor="middle" x="511" y="-100.5" font-family="Helvetica,sans-Serif" font-size="10.00"> gf_nodes</text>
</g>
<!-- Node5 -->
<g id="node5" class="node">
<title>Node5</title>
<g id="a_node5"><a xlink:href="classequivalent__polynomials_1_1_generalized_functions__mix.html" target="_top" xlink:title=" ">
<polygon fill="white" stroke="black" points="273,-0.5 273,-52.5 469,-52.5 469,-0.5 273,-0.5"/>
<text text-anchor="start" x="281" y="-40.5" font-family="Helvetica,sans-Serif" font-size="10.00">equivalent_polynomials</text>
<text text-anchor="start" x="281" y="-29.5" font-family="Helvetica,sans-Serif" font-size="10.00">::GeneralizedFunctions</text>
<text text-anchor="start" x="281" y="-18.5" font-family="Helvetica,sans-Serif" font-size="10.00">_mix&lt; nSpace, 1, nQuadraturePoints</text>
<text text-anchor="middle" x="371" y="-7.5" font-family="Helvetica,sans-Serif" font-size="10.00">_element &gt;</text>
</a>
</g>
</g>
<!-- Node5&#45;&gt;Node1 -->
<g id="edge4" class="edge">
<title>Node5&#45;&gt;Node1</title>
<path fill="none" stroke="#9a32cd" stroke-dasharray="5,2" d="M478.91,-52.54C502.97,-58.4 528.55,-64.63 552.76,-70.53"/>
<polygon fill="#9a32cd" stroke="#9a32cd" points="479.61,-49.11 469.07,-50.14 477.95,-55.91 479.61,-49.11"/>
<text text-anchor="middle" x="511" y="-66.5" font-family="Helvetica,sans-Serif" font-size="10.00"> gf</text>
</g>
</g>
</svg>
