<?xml version="1.0" encoding="UTF-8" standalone="no"?>
<!DOCTYPE svg PUBLIC "-//W3C//DTD SVG 1.1//EN"
 "http://www.w3.org/Graphics/SVG/1.1/DTD/svg11.dtd">
<!-- Generated by graphviz version 2.42.3 (0)
 -->
<!-- Title: PiecewiseLinearComplexDomain Pages: 1 -->
<svg width="745pt" height="294pt"
 viewBox="0.00 0.00 745.00 293.50" xmlns="http://www.w3.org/2000/svg" xmlns:xlink="http://www.w3.org/1999/xlink">
<g id="graph0" class="graph" transform="scale(1 1) rotate(0) translate(4 289.5)">
<title>PiecewiseLinearComplexDomain</title>
<polygon fill="white" stroke="transparent" points="-4,4 -4,-289.5 741,-289.5 741,4 -4,4"/>
<!-- Node1 -->
<g id="node1" class="node">
<title>Node1</title>
<g id="a_node1"><a xlink:title=" ">
<polygon fill="#bfbfbf" stroke="black" points="560,-130.5 560,-149.5 737,-149.5 737,-130.5 560,-130.5"/>
<text text-anchor="middle" x="648.5" y="-137.5" font-family="Helvetica,sans-Serif" font-size="10.00">PiecewiseLinearComplexDomain</text>
</a>
</g>
</g>
<!-- Node2 -->
<g id="node2" class="node">
<title>Node2</title>
<g id="a_node2"><a xlink:href="class_d__base.html" target="_top" xlink:title=" ">
<polygon fill="white" stroke="black" points="371,-243.5 371,-262.5 424,-262.5 424,-243.5 371,-243.5"/>
<text text-anchor="middle" x="397.5" y="-250.5" font-family="Helvetica,sans-Serif" font-size="10.00">D_base</text>
</a>
</g>
</g>
<!-- Node2&#45;&gt;Node1 -->
<g id="edge1" class="edge">
<title>Node2&#45;&gt;Node1</title>
<path fill="none" stroke="midnightblue" d="M433.98,-243.97C463.59,-235.83 506.53,-222.6 542,-206 577.22,-189.51 615.07,-163.58 634.44,-149.64"/>
<polygon fill="midnightblue" stroke="midnightblue" points="432.84,-240.66 424.1,-246.64 434.66,-247.41 432.84,-240.66"/>
</g>
<!-- Node3 -->
<g id="node3" class="node">
<title>Node3</title>
<g id="a_node3"><a xlink:title="STL class.">
<polygon fill="white" stroke="#bfbfbf" points="170.5,-260.5 170.5,-279.5 235.5,-279.5 235.5,-260.5 170.5,-260.5"/>
<text text-anchor="middle" x="203" y="-267.5" font-family="Helvetica,sans-Serif" font-size="10.00">std::string</text>
</a>
</g>
</g>
<!-- Node3&#45;&gt;Node2 -->
<g id="edge2" class="edge">
<title>Node3&#45;&gt;Node2</title>
<path fill="none" stroke="#9a32cd" stroke-dasharray="5,2" d="M246.04,-266.29C284.1,-262.93 338.94,-258.08 370.83,-255.27"/>
<polygon fill="#9a32cd" stroke="#9a32cd" points="245.44,-262.83 235.79,-267.19 246.06,-269.8 245.44,-262.83"/>
<text text-anchor="middle" x="297" y="-277" font-family="Helvetica,sans-Serif" font-size="10.00"> units</text>
<text text-anchor="middle" x="297" y="-266" font-family="Helvetica,sans-Serif" font-size="10.00">name</text>
</g>
<!-- Node4 -->
<g id="node4" class="node">
<title>Node4</title>
<g id="a_node4"><a xlink:title="STL class.">
<polygon fill="white" stroke="#bfbfbf" points="0,-255 0,-285 104,-285 104,-255 0,-255"/>
<text text-anchor="start" x="8" y="-273" font-family="Helvetica,sans-Serif" font-size="10.00">std::basic_string&lt;</text>
<text text-anchor="middle" x="52" y="-262" font-family="Helvetica,sans-Serif" font-size="10.00"> char &gt;</text>
</a>
</g>
</g>
<!-- Node4&#45;&gt;Node3 -->
<g id="edge3" class="edge">
<title>Node4&#45;&gt;Node3</title>
<path fill="none" stroke="midnightblue" d="M114.46,-270C133.61,-270 153.94,-270 170.19,-270"/>
<polygon fill="midnightblue" stroke="midnightblue" points="114.28,-266.5 104.28,-270 114.28,-273.5 114.28,-266.5"/>
</g>
<!-- Node5 -->
<g id="node5" class="node">
<title>Node5</title>
<g id="a_node5"><a xlink:title=" ">
<polygon fill="white" stroke="#bfbfbf" points="141,-199.5 141,-218.5 265,-218.5 265,-199.5 141,-199.5"/>
<text text-anchor="middle" x="203" y="-206.5" font-family="Helvetica,sans-Serif" font-size="10.00">std::vector&lt; double &gt;</text>
</a>
</g>
</g>
<!-- Node5&#45;&gt;Node1 -->
<g id="edge8" class="edge">
<title>Node5&#45;&gt;Node1</title>
<path fill="none" stroke="#9a32cd" stroke-dasharray="5,2" d="M275.15,-197.93C361.26,-184.53 504.8,-162.2 586.22,-149.53"/>
<polygon fill="#9a32cd" stroke="#9a32cd" points="274.54,-194.48 265.2,-199.48 275.62,-201.4 274.54,-194.48"/>
<text text-anchor="middle" x="397.5" y="-214" font-family="Helvetica,sans-Serif" font-size="10.00"> regions</text>
<text text-anchor="middle" x="397.5" y="-203" font-family="Helvetica,sans-Serif" font-size="10.00">holes</text>
<text text-anchor="middle" x="397.5" y="-192" font-family="Helvetica,sans-Serif" font-size="10.00">v</text>
</g>
<!-- Node5&#45;&gt;Node2 -->
<g id="edge4" class="edge">
<title>Node5&#45;&gt;Node2</title>
<path fill="none" stroke="#9a32cd" stroke-dasharray="5,2" d="M255.93,-220.87C293.09,-229.36 341.52,-240.43 370.75,-247.11"/>
<polygon fill="#9a32cd" stroke="#9a32cd" points="256.3,-217.36 245.77,-218.55 254.74,-224.19 256.3,-217.36"/>
<text text-anchor="middle" x="297" y="-246" font-family="Helvetica,sans-Serif" font-size="10.00"> x</text>
<text text-anchor="middle" x="297" y="-235" font-family="Helvetica,sans-Serif" font-size="10.00">L</text>
</g>
<!-- Node6 -->
<g id="node6" class="node">
<title>Node6</title>
<g id="a_node6"><a xlink:title=" ">
<polygon fill="white" stroke="#bfbfbf" points="329,-125 329,-155 466,-155 466,-125 329,-125"/>
<text text-anchor="start" x="337" y="-143" font-family="Helvetica,sans-Serif" font-size="10.00">std::vector&lt; vector</text>
<text text-anchor="middle" x="397.5" y="-132" font-family="Helvetica,sans-Serif" font-size="10.00">&lt; vector&lt; double &gt; &gt; &gt;</text>
</a>
</g>
</g>
<!-- Node6&#45;&gt;Node1 -->
<g id="edge5" class="edge">
<title>Node6&#45;&gt;Node1</title>
<path fill="none" stroke="#9a32cd" stroke-dasharray="5,2" d="M476.54,-140C502.93,-140 532.57,-140 559.67,-140"/>
<polygon fill="#9a32cd" stroke="#9a32cd" points="476.21,-136.5 466.21,-140 476.21,-143.5 476.21,-136.5"/>
<text text-anchor="middle" x="513" y="-143" font-family="Helvetica,sans-Serif" font-size="10.00"> vertices</text>
</g>
<!-- Node7 -->
<g id="node7" class="node">
<title>Node7</title>
<g id="a_node7"><a xlink:title=" ">
<polygon fill="white" stroke="#bfbfbf" points="339.5,-76 339.5,-106 455.5,-106 455.5,-76 339.5,-76"/>
<text text-anchor="start" x="347.5" y="-94" font-family="Helvetica,sans-Serif" font-size="10.00">std::vector&lt; vector</text>
<text text-anchor="middle" x="397.5" y="-83" font-family="Helvetica,sans-Serif" font-size="10.00">&lt; vector&lt; int &gt; &gt; &gt;</text>
</a>
</g>
</g>
<!-- Node7&#45;&gt;Node1 -->
<g id="edge6" class="edge">
<title>Node7&#45;&gt;Node1</title>
<path fill="none" stroke="#9a32cd" stroke-dasharray="5,2" d="M465.52,-104.19C507.64,-112.48 561,-122.98 599.03,-130.46"/>
<polygon fill="#9a32cd" stroke="#9a32cd" points="466.11,-100.74 455.63,-102.24 464.76,-107.61 466.11,-100.74"/>
<text text-anchor="middle" x="513" y="-121" font-family="Helvetica,sans-Serif" font-size="10.00"> facets</text>
</g>
<!-- Node8 -->
<g id="node8" class="node">
<title>Node8</title>
<g id="a_node8"><a xlink:title=" ">
<polygon fill="white" stroke="#bfbfbf" points="345.5,-0.5 345.5,-19.5 449.5,-19.5 449.5,-0.5 345.5,-0.5"/>
<text text-anchor="middle" x="397.5" y="-7.5" font-family="Helvetica,sans-Serif" font-size="10.00">std::vector&lt; int &gt;</text>
</a>
</g>
</g>
<!-- Node8&#45;&gt;Node1 -->
<g id="edge7" class="edge">
<title>Node8&#45;&gt;Node1</title>
<path fill="none" stroke="#9a32cd" stroke-dasharray="5,2" d="M459.58,-14.12C486.08,-17.83 516.75,-24.84 542,-38 586.73,-61.32 625.38,-109.58 640.6,-130.26"/>
<polygon fill="#9a32cd" stroke="#9a32cd" points="460.02,-10.65 449.65,-12.85 459.13,-17.59 460.02,-10.65"/>
<text text-anchor="middle" x="513" y="-96" font-family="Helvetica,sans-Serif" font-size="10.00"> f</text>
<text text-anchor="middle" x="513" y="-85" font-family="Helvetica,sans-Serif" font-size="10.00">vertexFlags</text>
<text text-anchor="middle" x="513" y="-74" font-family="Helvetica,sans-Serif" font-size="10.00">facetHoles</text>
<text text-anchor="middle" x="513" y="-63" font-family="Helvetica,sans-Serif" font-size="10.00">fN</text>
<text text-anchor="middle" x="513" y="-52" font-family="Helvetica,sans-Serif" font-size="10.00">vN</text>
<text text-anchor="middle" x="513" y="-41" font-family="Helvetica,sans-Serif" font-size="10.00">facetFlags</text>
</g>
</g>
</svg>
