<?xml version="1.0" encoding="UTF-8" standalone="no"?>
<!DOCTYPE svg PUBLIC "-//W3C//DTD SVG 1.1//EN"
 "http://www.w3.org/Graphics/SVG/1.1/DTD/svg11.dtd">
<!-- Generated by graphviz version 2.42.3 (0)
 -->
<!-- Title: DensityRelation Pages: 1 -->
<svg width="438pt" height="140pt"
 viewBox="0.00 0.00 437.50 140.00" xmlns="http://www.w3.org/2000/svg" xmlns:xlink="http://www.w3.org/1999/xlink">
<g id="graph0" class="graph" transform="scale(1 1) rotate(0) translate(4 136)">
<title>DensityRelation</title>
<polygon fill="white" stroke="transparent" points="-4,4 -4,-136 433.5,-136 433.5,4 -4,4"/>
<!-- Node1 -->
<g id="node1" class="node">
<title>Node1</title>
<g id="a_node1"><a xlink:title=" ">
<polygon fill="#bfbfbf" stroke="black" points="171.5,-112.5 171.5,-131.5 266.5,-131.5 266.5,-112.5 171.5,-112.5"/>
<text text-anchor="middle" x="219" y="-119.5" font-family="Helvetica,sans-Serif" font-size="10.00">DensityRelation</text>
</a>
</g>
</g>
<!-- Node2 -->
<g id="node2" class="node">
<title>Node2</title>
<g id="a_node2"><a xlink:href="class_constant_density.html" target="_top" xlink:title=" ">
<polygon fill="white" stroke="black" points="0,-56.5 0,-75.5 98,-75.5 98,-56.5 0,-56.5"/>
<text text-anchor="middle" x="49" y="-63.5" font-family="Helvetica,sans-Serif" font-size="10.00">ConstantDensity</text>
</a>
</g>
</g>
<!-- Node1&#45;&gt;Node2 -->
<g id="edge1" class="edge">
<title>Node1&#45;&gt;Node2</title>
<path fill="none" stroke="midnightblue" d="M182.18,-109.3C150.15,-99.13 104.48,-84.62 75.81,-75.52"/>
<polygon fill="midnightblue" stroke="midnightblue" points="181.47,-112.75 192.06,-112.44 183.59,-106.08 181.47,-112.75"/>
</g>
<!-- Node3 -->
<g id="node3" class="node">
<title>Node3</title>
<g id="a_node3"><a xlink:href="class_ideal_gas_density.html" target="_top" xlink:title=" ">
<polygon fill="white" stroke="black" points="116.5,-56.5 116.5,-75.5 213.5,-75.5 213.5,-56.5 116.5,-56.5"/>
<text text-anchor="middle" x="165" y="-63.5" font-family="Helvetica,sans-Serif" font-size="10.00">IdealGasDensity</text>
</a>
</g>
</g>
<!-- Node1&#45;&gt;Node3 -->
<g id="edge2" class="edge">
<title>Node1&#45;&gt;Node3</title>
<path fill="none" stroke="midnightblue" d="M203,-105C193.43,-95.43 181.64,-83.64 173.75,-75.75"/>
<polygon fill="midnightblue" stroke="midnightblue" points="200.54,-107.49 210.08,-112.08 205.49,-102.54 200.54,-107.49"/>
</g>
<!-- Node4 -->
<g id="node4" class="node">
<title>Node4</title>
<g id="a_node4"><a xlink:href="class_linear_density.html" target="_top" xlink:title=" ">
<polygon fill="white" stroke="black" points="232,-56.5 232,-75.5 316,-75.5 316,-56.5 232,-56.5"/>
<text text-anchor="middle" x="274" y="-63.5" font-family="Helvetica,sans-Serif" font-size="10.00">LinearDensity</text>
</a>
</g>
</g>
<!-- Node1&#45;&gt;Node4 -->
<g id="edge3" class="edge">
<title>Node1&#45;&gt;Node4</title>
<path fill="none" stroke="midnightblue" d="M235.29,-105C245.04,-95.43 257.05,-83.64 265.09,-75.75"/>
<polygon fill="midnightblue" stroke="midnightblue" points="232.77,-102.58 228.08,-112.08 237.67,-107.57 232.77,-102.58"/>
</g>
<!-- Node6 -->
<g id="node6" class="node">
<title>Node6</title>
<g id="a_node6"><a xlink:href="class_real_gas_density.html" target="_top" xlink:title=" ">
<polygon fill="white" stroke="black" points="334.5,-56.5 334.5,-75.5 429.5,-75.5 429.5,-56.5 334.5,-56.5"/>
<text text-anchor="middle" x="382" y="-63.5" font-family="Helvetica,sans-Serif" font-size="10.00">RealGasDensity</text>
</a>
</g>
</g>
<!-- Node1&#45;&gt;Node6 -->
<g id="edge5" class="edge">
<title>Node1&#45;&gt;Node6</title>
<path fill="none" stroke="midnightblue" d="M254.7,-109.17C285.4,-99 328.92,-84.59 356.29,-75.52"/>
<polygon fill="midnightblue" stroke="midnightblue" points="253.22,-105.98 244.83,-112.44 255.42,-112.62 253.22,-105.98"/>
</g>
<!-- Node5 -->
<g id="node5" class="node">
<title>Node5</title>
<g id="a_node5"><a xlink:href="class_exponential_density.html" target="_top" xlink:title=" ">
<polygon fill="white" stroke="black" points="218,-0.5 218,-19.5 330,-19.5 330,-0.5 218,-0.5"/>
<text text-anchor="middle" x="274" y="-7.5" font-family="Helvetica,sans-Serif" font-size="10.00">ExponentialDensity</text>
</a>
</g>
</g>
<!-- Node4&#45;&gt;Node5 -->
<g id="edge4" class="edge">
<title>Node4&#45;&gt;Node5</title>
<path fill="none" stroke="midnightblue" d="M274,-45.8C274,-36.91 274,-26.78 274,-19.75"/>
<polygon fill="midnightblue" stroke="midnightblue" points="270.5,-46.08 274,-56.08 277.5,-46.08 270.5,-46.08"/>
</g>
</g>
</svg>
