<?xml version="1.0" encoding="UTF-8" standalone="no"?>
<!DOCTYPE svg PUBLIC "-//W3C//DTD SVG 1.1//EN"
 "http://www.w3.org/Graphics/SVG/1.1/DTD/svg11.dtd">
<!-- Generated by graphviz version 2.42.3 (0)
 -->
<!-- Title: proteus::cppRANS3PF2D&lt; CompKernelType, nSpace, nQuadraturePoints_element, nDOF_mesh_trial_element, nDOF_trial_element, nDOF_test_element, nQuadraturePoints_elementBoundary &gt; Pages: 1 -->
<svg width="873pt" height="315pt"
 viewBox="0.00 0.00 873.00 314.50" xmlns="http://www.w3.org/2000/svg" xmlns:xlink="http://www.w3.org/1999/xlink">
<g id="graph0" class="graph" transform="scale(1 1) rotate(0) translate(4 310.5)">
<title>proteus::cppRANS3PF2D&lt; CompKernelType, nSpace, nQuadraturePoints_element, nDOF_mesh_trial_element, nDOF_trial_element, nDOF_test_element, nQuadraturePoints_elementBoundary &gt;</title>
<polygon fill="white" stroke="transparent" points="-4,4 -4,-310.5 869,-310.5 869,4 -4,4"/>
<!-- Node1 -->
<g id="node1" class="node">
<title>Node1</title>
<g id="a_node1"><a xlink:title=" ">
<polygon fill="#bfbfbf" stroke="black" points="602,-122.5 602,-196.5 865,-196.5 865,-122.5 602,-122.5"/>
<text text-anchor="start" x="610" y="-184.5" font-family="Helvetica,sans-Serif" font-size="10.00">proteus::cppRANS3PF2D</text>
<text text-anchor="start" x="610" y="-173.5" font-family="Helvetica,sans-Serif" font-size="10.00">&lt; CompKernelType, nSpace,</text>
<text text-anchor="start" x="610" y="-162.5" font-family="Helvetica,sans-Serif" font-size="10.00"> nQuadraturePoints_element,</text>
<text text-anchor="start" x="610" y="-151.5" font-family="Helvetica,sans-Serif" font-size="10.00"> nDOF_mesh_trial_element,</text>
<text text-anchor="start" x="610" y="-140.5" font-family="Helvetica,sans-Serif" font-size="10.00"> nDOF_trial_element, nDOF_test</text>
<text text-anchor="middle" x="733.5" y="-129.5" font-family="Helvetica,sans-Serif" font-size="10.00">_element, nQuadraturePoints_elementBoundary &gt;</text>
</a>
</g>
</g>
<!-- Node2 -->
<g id="node2" class="node">
<title>Node2</title>
<g id="a_node2"><a xlink:href="classproteus_1_1cpp_r_a_n_s3_p_f2_d__base.html" target="_top" xlink:title=" ">
<polygon fill="white" stroke="black" points="280,-185 280,-204 444,-204 444,-185 280,-185"/>
<text text-anchor="middle" x="362" y="-192" font-family="Helvetica,sans-Serif" font-size="10.00">proteus::cppRANS3PF2D_base</text>
</a>
</g>
</g>
<!-- Node2&#45;&gt;Node1 -->
<g id="edge1" class="edge">
<title>Node2&#45;&gt;Node1</title>
<path fill="none" stroke="midnightblue" d="M454.3,-185.85C498.79,-181.64 553.09,-176.49 601.87,-171.87"/>
<polygon fill="midnightblue" stroke="midnightblue" points="453.71,-182.39 444.09,-186.82 454.37,-189.36 453.71,-182.39"/>
</g>
<!-- Node3 -->
<g id="node3" class="node">
<title>Node3</title>
<g id="a_node3"><a xlink:title=" ">
<polygon fill="white" stroke="#bfbfbf" points="0,-207 0,-226 134,-226 134,-207 0,-207"/>
<text text-anchor="middle" x="67" y="-214" font-family="Helvetica,sans-Serif" font-size="10.00">std::valarray&lt; double &gt;</text>
</a>
</g>
</g>
<!-- Node3&#45;&gt;Node1 -->
<g id="edge4" class="edge">
<title>Node3&#45;&gt;Node1</title>
<path fill="none" stroke="#9a32cd" stroke-dasharray="5,2" d="M84.56,-233.19C100.34,-247.82 125.55,-268.02 152,-276.5 191.78,-289.25 204.51,-281.42 246,-276.5 373.24,-261.41 515.36,-224.87 612.98,-196.61"/>
<polygon fill="#9a32cd" stroke="#9a32cd" points="86.85,-230.54 77.21,-226.15 82.01,-235.59 86.85,-230.54"/>
<text text-anchor="middle" x="362" y="-298.5" font-family="Helvetica,sans-Serif" font-size="10.00"> psi</text>
<text text-anchor="middle" x="362" y="-287.5" font-family="Helvetica,sans-Serif" font-size="10.00">TransposeTransportMatrix</text>
<text text-anchor="middle" x="362" y="-276.5" font-family="Helvetica,sans-Serif" font-size="10.00">TransportMatrix</text>
</g>
<!-- Node3&#45;&gt;Node2 -->
<g id="edge2" class="edge">
<title>Node3&#45;&gt;Node2</title>
<path fill="none" stroke="#9a32cd" stroke-dasharray="5,2" d="M81.74,-199.01C96.8,-181.4 122.74,-155.32 152,-144.5 191.18,-130.01 209.79,-123.66 246,-144.5 259.81,-152.45 251.02,-166.25 264,-175.5 269.31,-179.28 275.18,-182.36 281.33,-184.86"/>
<polygon fill="#9a32cd" stroke="#9a32cd" points="78.91,-196.93 75.25,-206.87 84.32,-201.39 78.91,-196.93"/>
<text text-anchor="middle" x="199" y="-268.5" font-family="Helvetica,sans-Serif" font-size="10.00"> wStar_min_hiHe</text>
<text text-anchor="middle" x="199" y="-257.5" font-family="Helvetica,sans-Serif" font-size="10.00">den_hi</text>
<text text-anchor="middle" x="199" y="-246.5" font-family="Helvetica,sans-Serif" font-size="10.00">vStar_hi</text>
<text text-anchor="start" x="152" y="-235.5" font-family="Helvetica,sans-Serif" font-size="10.00">TransposeTransport</text>
<text text-anchor="middle" x="199" y="-224.5" font-family="Helvetica,sans-Serif" font-size="10.00">Matrix</text>
<text text-anchor="middle" x="199" y="-213.5" font-family="Helvetica,sans-Serif" font-size="10.00">uStar_hi</text>
<text text-anchor="middle" x="199" y="-202.5" font-family="Helvetica,sans-Serif" font-size="10.00">wStar_hi</text>
<text text-anchor="middle" x="199" y="-191.5" font-family="Helvetica,sans-Serif" font-size="10.00">wStar_psi</text>
<text text-anchor="middle" x="199" y="-180.5" font-family="Helvetica,sans-Serif" font-size="10.00">wStar_gamma</text>
<text text-anchor="middle" x="199" y="-169.5" font-family="Helvetica,sans-Serif" font-size="10.00">vStar_psi</text>
<text text-anchor="middle" x="199" y="-158.5" font-family="Helvetica,sans-Serif" font-size="10.00">uStar_psi</text>
<text text-anchor="middle" x="199" y="-147.5" font-family="Helvetica,sans-Serif" font-size="10.00">...</text>
</g>
<!-- Node4 -->
<g id="node4" class="node">
<title>Node4</title>
<g id="a_node4"><a xlink:href="classproteus_1_1cpp_hsu_sed_stress.html" target="_top" xlink:title=" ">
<polygon fill="white" stroke="black" points="276,-147 276,-166 448,-166 448,-147 276,-147"/>
<text text-anchor="middle" x="362" y="-154" font-family="Helvetica,sans-Serif" font-size="10.00">proteus::cppHsuSedStress&lt; 2 &gt;</text>
</a>
</g>
</g>
<!-- Node4&#45;&gt;Node1 -->
<g id="edge3" class="edge">
<title>Node4&#45;&gt;Node1</title>
<path fill="none" stroke="#9a32cd" stroke-dasharray="5,2" d="M458.27,-157.27C501.94,-157.63 554.4,-158.05 601.7,-158.44"/>
<polygon fill="#9a32cd" stroke="#9a32cd" points="458.26,-153.77 448.23,-157.19 458.21,-160.77 458.26,-153.77"/>
<text text-anchor="middle" x="531" y="-160.5" font-family="Helvetica,sans-Serif" font-size="10.00"> closure</text>
</g>
<!-- Node5 -->
<g id="node5" class="node">
<title>Node5</title>
<g id="a_node5"><a xlink:title=" ">
<polygon fill="white" stroke="#bfbfbf" points="310,-72 310,-91 414,-91 414,-72 310,-72"/>
<text text-anchor="middle" x="362" y="-79" font-family="Helvetica,sans-Serif" font-size="10.00">std::vector&lt; int &gt;</text>
</a>
</g>
</g>
<!-- Node5&#45;&gt;Node1 -->
<g id="edge5" class="edge">
<title>Node5&#45;&gt;Node1</title>
<path fill="none" stroke="#9a32cd" stroke-dasharray="5,2" d="M424.32,-80.67C469.13,-81.33 531.06,-84.89 584,-97.5 608.46,-103.33 634.08,-112.72 657.01,-122.45"/>
<polygon fill="#9a32cd" stroke="#9a32cd" points="424.21,-77.17 414.18,-80.56 424.14,-84.17 424.21,-77.17"/>
<text text-anchor="start" x="478" y="-144.5" font-family="Helvetica,sans-Serif" font-size="10.00"> surrogate_boundary</text>
<text text-anchor="middle" x="531" y="-133.5" font-family="Helvetica,sans-Serif" font-size="10.00">_elements</text>
<text text-anchor="middle" x="531" y="-122.5" font-family="Helvetica,sans-Serif" font-size="10.00">surrogate_boundaries</text>
<text text-anchor="start" x="478" y="-111.5" font-family="Helvetica,sans-Serif" font-size="10.00">surrogate_boundary</text>
<text text-anchor="middle" x="531" y="-100.5" font-family="Helvetica,sans-Serif" font-size="10.00">_particle</text>
</g>
<!-- Node6 -->
<g id="node6" class="node">
<title>Node6</title>
<g id="a_node6"><a xlink:href="classequivalent__polynomials_1_1_generalized_functions__mix.html" target="_top" xlink:title=" ">
<polygon fill="white" stroke="black" points="264,-0.5 264,-52.5 460,-52.5 460,-0.5 264,-0.5"/>
<text text-anchor="start" x="272" y="-40.5" font-family="Helvetica,sans-Serif" font-size="10.00">equivalent_polynomials</text>
<text text-anchor="start" x="272" y="-29.5" font-family="Helvetica,sans-Serif" font-size="10.00">::GeneralizedFunctions</text>
<text text-anchor="start" x="272" y="-18.5" font-family="Helvetica,sans-Serif" font-size="10.00">_mix&lt; nSpace, 1, nQuadraturePoints</text>
<text text-anchor="middle" x="362" y="-7.5" font-family="Helvetica,sans-Serif" font-size="10.00">_element &gt;</text>
</a>
</g>
</g>
<!-- Node6&#45;&gt;Node1 -->
<g id="edge6" class="edge">
<title>Node6&#45;&gt;Node1</title>
<path fill="none" stroke="#9a32cd" stroke-dasharray="5,2" d="M470.41,-30.88C507.36,-35.03 548.37,-42.65 584,-56.5 623.33,-71.79 662.33,-99.44 690.48,-122.25"/>
<polygon fill="#9a32cd" stroke="#9a32cd" points="470.42,-27.36 460.11,-29.8 469.69,-34.32 470.42,-27.36"/>
<text text-anchor="middle" x="531" y="-70.5" font-family="Helvetica,sans-Serif" font-size="10.00"> gf_s</text>
<text text-anchor="middle" x="531" y="-59.5" font-family="Helvetica,sans-Serif" font-size="10.00">gf</text>
</g>
</g>
</svg>
