<?xml version="1.0" encoding="UTF-8" standalone="no"?>
<!DOCTYPE svg PUBLIC "-//W3C//DTD SVG 1.1//EN"
 "http://www.w3.org/Graphics/SVG/1.1/DTD/svg11.dtd">
<!-- Generated by graphviz version 2.40.1 (20161225.0304)
 -->
<!-- Title: PskRelation Pages: 1 -->
<svg width="284pt" height="196pt"
 viewBox="0.00 0.00 284.00 196.00" xmlns="http://www.w3.org/2000/svg" xmlns:xlink="http://www.w3.org/1999/xlink">
<g id="graph0" class="graph" transform="scale(1 1) rotate(0) translate(4 192)">
<title>PskRelation</title>
<polygon fill="#ffffff" stroke="transparent" points="-4,4 -4,-192 280,-192 280,4 -4,4"/>
<!-- Node0 -->
<g id="node1" class="node">
<title>Node0</title>
<polygon fill="#bfbfbf" stroke="#000000" points="93.5,-168.5 93.5,-187.5 163.5,-187.5 163.5,-168.5 93.5,-168.5"/>
<text text-anchor="middle" x="128.5" y="-175.5" font-family="Helvetica,sans-Serif" font-size="10.00" fill="#000000">PskRelation</text>
</g>
<!-- Node1 -->
<g id="node2" class="node">
<title>Node1</title>
<g id="a_node2"><a xlink:href="class_b_c_m.html" target="_top" xlink:title="BCM">
<polygon fill="#ffffff" stroke="#000000" points="0,-112.5 0,-131.5 39,-131.5 39,-112.5 0,-112.5"/>
<text text-anchor="middle" x="19.5" y="-119.5" font-family="Helvetica,sans-Serif" font-size="10.00" fill="#000000">BCM</text>
</a>
</g>
</g>
<!-- Node0&#45;&gt;Node1 -->
<g id="edge1" class="edge">
<title>Node0&#45;&gt;Node1</title>
<path fill="none" stroke="#191970" d="M100.4658,-163.5971C80.9254,-153.558 55.3908,-140.4393 38.2688,-131.6427"/>
<polygon fill="#191970" stroke="#191970" points="99.0194,-166.7889 109.5136,-168.2455 102.2183,-160.5625 99.0194,-166.7889"/>
</g>
<!-- Node3 -->
<g id="node4" class="node">
<title>Node3</title>
<g id="a_node4"><a xlink:href="class_psk_spline.html" target="_top" xlink:title="PskSpline">
<polygon fill="#ffffff" stroke="#000000" points="57,-112.5 57,-131.5 118,-131.5 118,-112.5 57,-112.5"/>
<text text-anchor="middle" x="87.5" y="-119.5" font-family="Helvetica,sans-Serif" font-size="10.00" fill="#000000">PskSpline</text>
</a>
</g>
</g>
<!-- Node0&#45;&gt;Node3 -->
<g id="edge3" class="edge">
<title>Node0&#45;&gt;Node3</title>
<path fill="none" stroke="#191970" d="M115.2636,-159.9209C108.3789,-150.5176 100.2391,-139.3997 94.5598,-131.6427"/>
<polygon fill="#191970" stroke="#191970" points="112.6269,-162.2445 121.3583,-168.2455 118.2749,-158.1093 112.6269,-162.2445"/>
</g>
<!-- Node4 -->
<g id="node5" class="node">
<title>Node4</title>
<g id="a_node5"><a xlink:href="class_simple_p_s_k.html" target="_top" xlink:title="SimplePSK">
<polygon fill="#ffffff" stroke="#000000" points="136,-112.5 136,-131.5 203,-131.5 203,-112.5 136,-112.5"/>
<text text-anchor="middle" x="169.5" y="-119.5" font-family="Helvetica,sans-Serif" font-size="10.00" fill="#000000">SimplePSK</text>
</a>
</g>
</g>
<!-- Node0&#45;&gt;Node4 -->
<g id="edge4" class="edge">
<title>Node0&#45;&gt;Node4</title>
<path fill="none" stroke="#191970" d="M141.7364,-159.9209C148.6211,-150.5176 156.7609,-139.3997 162.4402,-131.6427"/>
<polygon fill="#191970" stroke="#191970" points="138.7251,-158.1093 135.6417,-168.2455 144.3731,-162.2445 138.7251,-158.1093"/>
</g>
<!-- Node5 -->
<g id="node6" class="node">
<title>Node5</title>
<g id="a_node6"><a xlink:href="class_v_g_morig.html" target="_top" xlink:title="VGMorig">
<polygon fill="#ffffff" stroke="#000000" points="221,-112.5 221,-131.5 276,-131.5 276,-112.5 221,-112.5"/>
<text text-anchor="middle" x="248.5" y="-119.5" font-family="Helvetica,sans-Serif" font-size="10.00" fill="#000000">VGMorig</text>
</a>
</g>
</g>
<!-- Node0&#45;&gt;Node5 -->
<g id="edge5" class="edge">
<title>Node0&#45;&gt;Node5</title>
<path fill="none" stroke="#191970" d="M158.2624,-164.1109C180.0232,-153.9559 208.9682,-140.4482 228.1405,-131.5011"/>
<polygon fill="#191970" stroke="#191970" points="156.7105,-160.9727 149.1287,-168.3733 159.6707,-167.316 156.7105,-160.9727"/>
</g>
<!-- Node2 -->
<g id="node3" class="node">
<title>Node2</title>
<g id="a_node3"><a xlink:href="class_b_c_b.html" target="_top" xlink:title="BCB">
<polygon fill="#ffffff" stroke="#000000" points=".5,-56.5 .5,-75.5 38.5,-75.5 38.5,-56.5 .5,-56.5"/>
<text text-anchor="middle" x="19.5" y="-63.5" font-family="Helvetica,sans-Serif" font-size="10.00" fill="#000000">BCB</text>
</a>
</g>
</g>
<!-- Node1&#45;&gt;Node2 -->
<g id="edge2" class="edge">
<title>Node1&#45;&gt;Node2</title>
<path fill="none" stroke="#191970" d="M19.5,-102.1575C19.5,-93.155 19.5,-82.9199 19.5,-75.6427"/>
<polygon fill="#191970" stroke="#191970" points="16.0001,-102.2455 19.5,-112.2455 23.0001,-102.2456 16.0001,-102.2455"/>
</g>
<!-- Node6 -->
<g id="node7" class="node">
<title>Node6</title>
<g id="a_node7"><a xlink:href="class_v_g_m.html" target="_top" xlink:title="VGM">
<polygon fill="#ffffff" stroke="#000000" points="229,-56.5 229,-75.5 268,-75.5 268,-56.5 229,-56.5"/>
<text text-anchor="middle" x="248.5" y="-63.5" font-family="Helvetica,sans-Serif" font-size="10.00" fill="#000000">VGM</text>
</a>
</g>
</g>
<!-- Node5&#45;&gt;Node6 -->
<g id="edge6" class="edge">
<title>Node5&#45;&gt;Node6</title>
<path fill="none" stroke="#191970" d="M248.5,-102.1575C248.5,-93.155 248.5,-82.9199 248.5,-75.6427"/>
<polygon fill="#191970" stroke="#191970" points="245.0001,-102.2455 248.5,-112.2455 252.0001,-102.2456 245.0001,-102.2455"/>
</g>
<!-- Node7 -->
<g id="node8" class="node">
<title>Node7</title>
<g id="a_node8"><a xlink:href="class_v_g_b.html" target="_top" xlink:title="VGB">
<polygon fill="#ffffff" stroke="#000000" points="229.5,-.5 229.5,-19.5 267.5,-19.5 267.5,-.5 229.5,-.5"/>
<text text-anchor="middle" x="248.5" y="-7.5" font-family="Helvetica,sans-Serif" font-size="10.00" fill="#000000">VGB</text>
</a>
</g>
</g>
<!-- Node6&#45;&gt;Node7 -->
<g id="edge7" class="edge">
<title>Node6&#45;&gt;Node7</title>
<path fill="none" stroke="#191970" d="M248.5,-46.1575C248.5,-37.155 248.5,-26.9199 248.5,-19.6427"/>
<polygon fill="#191970" stroke="#191970" points="245.0001,-46.2455 248.5,-56.2455 252.0001,-46.2456 245.0001,-46.2455"/>
</g>
</g>
</svg>
