<?xml version="1.0" encoding="UTF-8" standalone="no"?>
<!DOCTYPE svg PUBLIC "-//W3C//DTD SVG 1.1//EN"
 "http://www.w3.org/Graphics/SVG/1.1/DTD/svg11.dtd">
<!-- Generated by graphviz version 2.42.3 (0)
 -->
<!-- Title: proteus::SW2DCV&lt; CompKernelType, nSpace, nQuadraturePoints_element, nDOF_mesh_trial_element, nDOF_trial_element, nDOF_test_element, nQuadraturePoints_elementBoundary &gt; Pages: 1 -->
<svg width="231pt" height="251pt"
 viewBox="0.00 0.00 231.00 251.00" xmlns="http://www.w3.org/2000/svg" xmlns:xlink="http://www.w3.org/1999/xlink">
<g id="graph0" class="graph" transform="scale(1 1) rotate(0) translate(4 247)">
<title>proteus::SW2DCV&lt; CompKernelType, nSpace, nQuadraturePoints_element, nDOF_mesh_trial_element, nDOF_trial_element, nDOF_test_element, nQuadraturePoints_elementBoundary &gt;</title>
<polygon fill="white" stroke="transparent" points="-4,4 -4,-247 227,-247 227,4 -4,4"/>
<!-- Node1 -->
<g id="node1" class="node">
<title>Node1</title>
<g id="a_node1"><a xlink:title=" ">
<polygon fill="#bfbfbf" stroke="black" points="0,-0.5 0,-63.5 223,-63.5 223,-0.5 0,-0.5"/>
<text text-anchor="start" x="8" y="-51.5" font-family="Helvetica,sans-Serif" font-size="10.00">proteus::SW2DCV&lt; CompKernel</text>
<text text-anchor="start" x="8" y="-40.5" font-family="Helvetica,sans-Serif" font-size="10.00">Type, nSpace, nQuadraturePoints</text>
<text text-anchor="start" x="8" y="-29.5" font-family="Helvetica,sans-Serif" font-size="10.00">_element, nDOF_mesh_trial_element,</text>
<text text-anchor="start" x="8" y="-18.5" font-family="Helvetica,sans-Serif" font-size="10.00"> nDOF_trial_element, nDOF_test_element,</text>
<text text-anchor="middle" x="111.5" y="-7.5" font-family="Helvetica,sans-Serif" font-size="10.00"> nQuadraturePoints_elementBoundary &gt;</text>
</a>
</g>
</g>
<!-- Node2 -->
<g id="node2" class="node">
<title>Node2</title>
<g id="a_node2"><a xlink:href="classproteus_1_1_s_w2_d_c_v__base.html" target="_top" xlink:title=" ">
<polygon fill="white" stroke="black" points="46,-101.5 46,-120.5 177,-120.5 177,-101.5 46,-101.5"/>
<text text-anchor="middle" x="111.5" y="-108.5" font-family="Helvetica,sans-Serif" font-size="10.00">proteus::SW2DCV_base</text>
</a>
</g>
</g>
<!-- Node2&#45;&gt;Node1 -->
<g id="edge1" class="edge">
<title>Node2&#45;&gt;Node1</title>
<path fill="none" stroke="midnightblue" d="M111.5,-91.36C111.5,-83.01 111.5,-72.94 111.5,-63.53"/>
<polygon fill="midnightblue" stroke="midnightblue" points="108,-91.47 111.5,-101.47 115,-91.47 108,-91.47"/>
</g>
<!-- Node3 -->
<g id="node3" class="node">
<title>Node3</title>
<g id="a_node3"><a xlink:title=" ">
<polygon fill="white" stroke="#bfbfbf" points="44.5,-223.5 44.5,-242.5 178.5,-242.5 178.5,-223.5 44.5,-223.5"/>
<text text-anchor="middle" x="111.5" y="-230.5" font-family="Helvetica,sans-Serif" font-size="10.00">std::valarray&lt; double &gt;</text>
</a>
</g>
</g>
<!-- Node3&#45;&gt;Node2 -->
<g id="edge2" class="edge">
<title>Node3&#45;&gt;Node2</title>
<path fill="none" stroke="#9a32cd" stroke-dasharray="5,2" d="M111.5,-213.15C111.5,-186.72 111.5,-139.76 111.5,-120.55"/>
<polygon fill="#9a32cd" stroke="#9a32cd" points="108,-213.37 111.5,-223.37 115,-213.37 108,-213.37"/>
<text text-anchor="middle" x="127.5" y="-197" font-family="Helvetica,sans-Serif" font-size="10.00"> Rpos</text>
<text text-anchor="middle" x="127.5" y="-186" font-family="Helvetica,sans-Serif" font-size="10.00">hvLow</text>
<text text-anchor="middle" x="127.5" y="-175" font-family="Helvetica,sans-Serif" font-size="10.00">huLow</text>
<text text-anchor="middle" x="127.5" y="-164" font-family="Helvetica,sans-Serif" font-size="10.00">Kmax</text>
<text text-anchor="middle" x="127.5" y="-153" font-family="Helvetica,sans-Serif" font-size="10.00">Rneg</text>
<text text-anchor="middle" x="127.5" y="-142" font-family="Helvetica,sans-Serif" font-size="10.00">hLow</text>
</g>
</g>
</svg>
