<?xml version="1.0" encoding="UTF-8" standalone="no"?>
<!DOCTYPE svg PUBLIC "-//W3C//DTD SVG 1.1//EN"
 "http://www.w3.org/Graphics/SVG/1.1/DTD/svg11.dtd">
<!-- Generated by graphviz version 2.42.3 (0)
 -->
<!-- Title: D_base Pages: 1 -->
<svg width="507pt" height="84pt"
 viewBox="0.00 0.00 507.00 84.00" xmlns="http://www.w3.org/2000/svg" xmlns:xlink="http://www.w3.org/1999/xlink">
<g id="graph0" class="graph" transform="scale(1 1) rotate(0) translate(4 80)">
<title>D_base</title>
<polygon fill="white" stroke="transparent" points="-4,4 -4,-80 503,-80 503,4 -4,4"/>
<!-- Node1 -->
<g id="node1" class="node">
<title>Node1</title>
<g id="a_node1"><a xlink:title=" ">
<polygon fill="#bfbfbf" stroke="black" points="255,-56.5 255,-75.5 308,-75.5 308,-56.5 255,-56.5"/>
<text text-anchor="middle" x="281.5" y="-63.5" font-family="Helvetica,sans-Serif" font-size="10.00">D_base</text>
</a>
</g>
</g>
<!-- Node2 -->
<g id="node2" class="node">
<title>Node2</title>
<g id="a_node2"><a xlink:href="class_piecewise_linear_complex_domain.html" target="_top" xlink:title=" ">
<polygon fill="white" stroke="black" points="0,-0.5 0,-19.5 177,-19.5 177,-0.5 0,-0.5"/>
<text text-anchor="middle" x="88.5" y="-7.5" font-family="Helvetica,sans-Serif" font-size="10.00">PiecewiseLinearComplexDomain</text>
</a>
</g>
</g>
<!-- Node1&#45;&gt;Node2 -->
<g id="edge1" class="edge">
<title>Node1&#45;&gt;Node2</title>
<path fill="none" stroke="midnightblue" d="M244.91,-54.76C208.43,-44.56 153.06,-29.06 118.92,-19.51"/>
<polygon fill="midnightblue" stroke="midnightblue" points="244.09,-58.17 254.66,-57.49 245.98,-51.43 244.09,-58.17"/>
</g>
<!-- Node3 -->
<g id="node3" class="node">
<title>Node3</title>
<g id="a_node3"><a xlink:href="class_planar_straight_line_graph_domain.html" target="_top" xlink:title=" ">
<polygon fill="white" stroke="black" points="195,-0.5 195,-19.5 368,-19.5 368,-0.5 195,-0.5"/>
<text text-anchor="middle" x="281.5" y="-7.5" font-family="Helvetica,sans-Serif" font-size="10.00">PlanarStraightLineGraphDomain</text>
</a>
</g>
</g>
<!-- Node1&#45;&gt;Node3 -->
<g id="edge2" class="edge">
<title>Node1&#45;&gt;Node3</title>
<path fill="none" stroke="midnightblue" d="M281.5,-45.8C281.5,-36.91 281.5,-26.78 281.5,-19.75"/>
<polygon fill="midnightblue" stroke="midnightblue" points="278,-46.08 281.5,-56.08 285,-46.08 278,-46.08"/>
</g>
<!-- Node4 -->
<g id="node4" class="node">
<title>Node4</title>
<g id="a_node4"><a xlink:href="class_rectangular_domain.html" target="_top" xlink:title=" ">
<polygon fill="white" stroke="black" points="386,-0.5 386,-19.5 499,-19.5 499,-0.5 386,-0.5"/>
<text text-anchor="middle" x="442.5" y="-7.5" font-family="Helvetica,sans-Serif" font-size="10.00">RectangularDomain</text>
</a>
</g>
</g>
<!-- Node1&#45;&gt;Node4 -->
<g id="edge3" class="edge">
<title>Node1&#45;&gt;Node4</title>
<path fill="none" stroke="midnightblue" d="M316.76,-53.17C347.08,-43 390.07,-28.59 417.11,-19.52"/>
<polygon fill="midnightblue" stroke="midnightblue" points="315.38,-49.95 307.01,-56.44 317.6,-56.58 315.38,-49.95"/>
</g>
</g>
</svg>
