<?xml version="1.0" encoding="UTF-8" standalone="no"?>
<!DOCTYPE svg PUBLIC "-//W3C//DTD SVG 1.1//EN"
 "http://www.w3.org/Graphics/SVG/1.1/DTD/svg11.dtd">
<!-- Generated by graphviz version 2.42.3 (0)
 -->
<!-- Title: proteus::Kappa2D&lt; CompKernelType, nSpace, nQuadraturePoints_element, nDOF_mesh_trial_element, nDOF_trial_element, nDOF_test_element, nQuadraturePoints_elementBoundary &gt; Pages: 1 -->
<svg width="330pt" height="139pt"
 viewBox="0.00 0.00 330.00 139.00" xmlns="http://www.w3.org/2000/svg" xmlns:xlink="http://www.w3.org/1999/xlink">
<g id="graph0" class="graph" transform="scale(1 1) rotate(0) translate(4 135)">
<title>proteus::Kappa2D&lt; CompKernelType, nSpace, nQuadraturePoints_element, nDOF_mesh_trial_element, nDOF_trial_element, nDOF_test_element, nQuadraturePoints_elementBoundary &gt;</title>
<polygon fill="white" stroke="transparent" points="-4,4 -4,-135 326,-135 326,4 -4,4"/>
<!-- Node1 -->
<g id="node1" class="node">
<title>Node1</title>
<g id="a_node1"><a xlink:title=" ">
<polygon fill="#bfbfbf" stroke="black" points="39.5,-0.5 39.5,-63.5 262.5,-63.5 262.5,-0.5 39.5,-0.5"/>
<text text-anchor="start" x="47.5" y="-51.5" font-family="Helvetica,sans-Serif" font-size="10.00">proteus::Kappa2D&lt; CompKernel</text>
<text text-anchor="start" x="47.5" y="-40.5" font-family="Helvetica,sans-Serif" font-size="10.00">Type, nSpace, nQuadraturePoints</text>
<text text-anchor="start" x="47.5" y="-29.5" font-family="Helvetica,sans-Serif" font-size="10.00">_element, nDOF_mesh_trial_element,</text>
<text text-anchor="start" x="47.5" y="-18.5" font-family="Helvetica,sans-Serif" font-size="10.00"> nDOF_trial_element, nDOF_test_element,</text>
<text text-anchor="middle" x="151" y="-7.5" font-family="Helvetica,sans-Serif" font-size="10.00"> nQuadraturePoints_elementBoundary &gt;</text>
</a>
</g>
</g>
<!-- Node2 -->
<g id="node2" class="node">
<title>Node2</title>
<g id="a_node2"><a xlink:href="classproteus_1_1_kappa2_d__base.html" target="_top" xlink:title=" ">
<polygon fill="white" stroke="black" points="0,-111.5 0,-130.5 132,-130.5 132,-111.5 0,-111.5"/>
<text text-anchor="middle" x="66" y="-118.5" font-family="Helvetica,sans-Serif" font-size="10.00">proteus::Kappa2D_base</text>
</a>
</g>
</g>
<!-- Node2&#45;&gt;Node1 -->
<g id="edge1" class="edge">
<title>Node2&#45;&gt;Node1</title>
<path fill="none" stroke="midnightblue" d="M81.7,-103.93C92.75,-92.62 107.87,-77.14 121.18,-63.52"/>
<polygon fill="midnightblue" stroke="midnightblue" points="78.95,-101.74 74.46,-111.34 83.95,-106.63 78.95,-101.74"/>
</g>
<!-- Node3 -->
<g id="node3" class="node">
<title>Node3</title>
<g id="a_node3"><a xlink:href="classproteus_1_1cpp_hsu_sed_stress.html" target="_top" xlink:title=" ">
<polygon fill="white" stroke="black" points="150,-111.5 150,-130.5 322,-130.5 322,-111.5 150,-111.5"/>
<text text-anchor="middle" x="236" y="-118.5" font-family="Helvetica,sans-Serif" font-size="10.00">proteus::cppHsuSedStress&lt; 2 &gt;</text>
</a>
</g>
</g>
<!-- Node3&#45;&gt;Node1 -->
<g id="edge2" class="edge">
<title>Node3&#45;&gt;Node1</title>
<path fill="none" stroke="#9a32cd" stroke-dasharray="5,2" d="M220.3,-103.93C209.25,-92.62 194.13,-77.14 180.82,-63.52"/>
<polygon fill="#9a32cd" stroke="#9a32cd" points="218.05,-106.63 227.54,-111.34 223.05,-101.74 218.05,-106.63"/>
<text text-anchor="middle" x="227.5" y="-85" font-family="Helvetica,sans-Serif" font-size="10.00"> closure</text>
</g>
</g>
</svg>
