<?xml version="1.0" encoding="UTF-8" standalone="no"?>
<!DOCTYPE svg PUBLIC "-//W3C//DTD SVG 1.1//EN"
 "http://www.w3.org/Graphics/SVG/1.1/DTD/svg11.dtd">
<!-- Generated by graphviz version 2.42.3 (0)
 -->
<!-- Title: proteus::GN_SW2DCV_base Pages: 1 -->
<svg width="159pt" height="205pt"
 viewBox="0.00 0.00 159.00 205.00" xmlns="http://www.w3.org/2000/svg" xmlns:xlink="http://www.w3.org/1999/xlink">
<g id="graph0" class="graph" transform="scale(1 1) rotate(0) translate(4 201)">
<title>proteus::GN_SW2DCV_base</title>
<polygon fill="white" stroke="transparent" points="-4,4 -4,-201 155,-201 155,4 -4,4"/>
<!-- Node1 -->
<g id="node1" class="node">
<title>Node1</title>
<g id="a_node1"><a xlink:title=" ">
<polygon fill="#bfbfbf" stroke="black" points="0,-0.5 0,-19.5 151,-19.5 151,-0.5 0,-0.5"/>
<text text-anchor="middle" x="75.5" y="-7.5" font-family="Helvetica,sans-Serif" font-size="10.00">proteus::GN_SW2DCV_base</text>
</a>
</g>
</g>
<!-- Node2 -->
<g id="node2" class="node">
<title>Node2</title>
<g id="a_node2"><a xlink:title=" ">
<polygon fill="white" stroke="#bfbfbf" points="8.5,-177.5 8.5,-196.5 142.5,-196.5 142.5,-177.5 8.5,-177.5"/>
<text text-anchor="middle" x="75.5" y="-184.5" font-family="Helvetica,sans-Serif" font-size="10.00">std::valarray&lt; double &gt;</text>
</a>
</g>
</g>
<!-- Node2&#45;&gt;Node1 -->
<g id="edge1" class="edge">
<title>Node2&#45;&gt;Node1</title>
<path fill="none" stroke="#9a32cd" stroke-dasharray="5,2" d="M75.5,-166.95C75.5,-129.3 75.5,-46.65 75.5,-19.69"/>
<polygon fill="#9a32cd" stroke="#9a32cd" points="72,-167.08 75.5,-177.08 79,-167.08 72,-167.08"/>
<text text-anchor="middle" x="101.5" y="-151" font-family="Helvetica,sans-Serif" font-size="10.00"> Rpos</text>
<text text-anchor="middle" x="101.5" y="-140" font-family="Helvetica,sans-Serif" font-size="10.00">hwLow</text>
<text text-anchor="middle" x="101.5" y="-129" font-family="Helvetica,sans-Serif" font-size="10.00">Rpos_heta</text>
<text text-anchor="middle" x="101.5" y="-118" font-family="Helvetica,sans-Serif" font-size="10.00">Rneg_heta</text>
<text text-anchor="middle" x="101.5" y="-107" font-family="Helvetica,sans-Serif" font-size="10.00">hvLow</text>
<text text-anchor="middle" x="101.5" y="-96" font-family="Helvetica,sans-Serif" font-size="10.00">huLow</text>
<text text-anchor="middle" x="101.5" y="-85" font-family="Helvetica,sans-Serif" font-size="10.00">Kmax</text>
<text text-anchor="middle" x="101.5" y="-74" font-family="Helvetica,sans-Serif" font-size="10.00">Rneg</text>
<text text-anchor="middle" x="101.5" y="-63" font-family="Helvetica,sans-Serif" font-size="10.00">hLow</text>
<text text-anchor="middle" x="101.5" y="-52" font-family="Helvetica,sans-Serif" font-size="10.00">hetaLow</text>
<text text-anchor="middle" x="101.5" y="-41" font-family="Helvetica,sans-Serif" font-size="10.00">...</text>
</g>
</g>
</svg>
