<?xml version="1.0" encoding="UTF-8" standalone="no"?>
<!DOCTYPE svg PUBLIC "-//W3C//DTD SVG 1.1//EN"
 "http://www.w3.org/Graphics/SVG/1.1/DTD/svg11.dtd">
<!-- Generated by graphviz version 2.38.0 (20140413.2041)
 -->
<!-- Title: CompKernel&lt; 2, NDOF_MESH_TRIAL_ELEMENT, NDOF_TRIAL_ELEMENT, NDOF_TEST_ELEMENT &gt; Pages: 1 -->
<svg width="203pt" height="139pt"
 viewBox="0.00 0.00 203.00 139.00" xmlns="http://www.w3.org/2000/svg" xmlns:xlink="http://www.w3.org/1999/xlink">
<g id="graph0" class="graph" transform="scale(1 1) rotate(0) translate(4 135)">
<title>CompKernel&lt; 2, NDOF_MESH_TRIAL_ELEMENT, NDOF_TRIAL_ELEMENT, NDOF_TEST_ELEMENT &gt;</title>
<polygon fill="white" stroke="none" points="-4,4 -4,-135 199,-135 199,4 -4,4"/>
<!-- Node1 -->
<g id="node1" class="node"><title>Node1</title>
<polygon fill="#bfbfbf" stroke="black" points="27.5,-0.5 27.5,-52.5 167.5,-52.5 167.5,-0.5 27.5,-0.5"/>
<text text-anchor="start" x="35.5" y="-40.5" font-family="Helvetica,sans-Serif" font-size="10.00">CompKernel&lt; 2, NDOF</text>
<text text-anchor="start" x="35.5" y="-29.5" font-family="Helvetica,sans-Serif" font-size="10.00">_MESH_TRIAL_ELEMENT,</text>
<text text-anchor="start" x="35.5" y="-18.5" font-family="Helvetica,sans-Serif" font-size="10.00"> NDOF_TRIAL_ELEMENT,</text>
<text text-anchor="middle" x="97.5" y="-7.5" font-family="Helvetica,sans-Serif" font-size="10.00"> NDOF_TEST_ELEMENT &gt;</text>
</g>
<!-- Node2 -->
<g id="node2" class="node"><title>Node2</title>
<g id="a_node2"><a xlink:href="class_comp_kernel_space_mapping_3_012_00_01_n_d_o_f___m_e_s_h___t_r_i_a_l___e_l_e_m_e_n_t_01_4.html" target="_top" xlink:title="CompKernelSpaceMapping\l\&lt; 2, NDOF_MESH_TRIAL_ELEMENT \&gt;">
<polygon fill="white" stroke="black" points="-1.42109e-14,-100.5 -1.42109e-14,-130.5 195,-130.5 195,-100.5 -1.42109e-14,-100.5"/>
<text text-anchor="start" x="8" y="-118.5" font-family="Helvetica,sans-Serif" font-size="10.00">CompKernelSpaceMapping</text>
<text text-anchor="middle" x="97.5" y="-107.5" font-family="Helvetica,sans-Serif" font-size="10.00">&lt; 2, NDOF_MESH_TRIAL_ELEMENT &gt;</text>
</a>
</g>
</g>
<!-- Node2&#45;&gt;Node1 -->
<g id="edge1" class="edge"><title>Node2&#45;&gt;Node1</title>
<path fill="none" stroke="#9a32cd" stroke-dasharray="5,2" d="M97.5,-89.8454C97.5,-78.2603 97.5,-64.4645 97.5,-52.7991"/>
<polygon fill="#9a32cd" stroke="#9a32cd" points="94.0001,-90.1337 97.5,-100.134 101,-90.1338 94.0001,-90.1337"/>
<text text-anchor="middle" x="117.5" y="-74" font-family="Helvetica,sans-Serif" font-size="10.00"> mapping</text>
</g>
</g>
</svg>
