<?xml version="1.0" encoding="UTF-8" standalone="no"?>
<!DOCTYPE svg PUBLIC "-//W3C//DTD SVG 1.1//EN"
 "http://www.w3.org/Graphics/SVG/1.1/DTD/svg11.dtd">
<!-- Generated by graphviz version 2.40.1 (20161225.0304)
 -->
<!-- Title: BCB Pages: 1 -->
<svg width="78pt" height="140pt"
 viewBox="0.00 0.00 78.00 140.00" xmlns="http://www.w3.org/2000/svg" xmlns:xlink="http://www.w3.org/1999/xlink">
<g id="graph0" class="graph" transform="scale(1 1) rotate(0) translate(4 136)">
<title>BCB</title>
<polygon fill="#ffffff" stroke="transparent" points="-4,4 -4,-136 74,-136 74,4 -4,4"/>
<!-- Node0 -->
<g id="node1" class="node">
<title>Node0</title>
<polygon fill="#bfbfbf" stroke="#000000" points="16,-.5 16,-19.5 54,-19.5 54,-.5 16,-.5"/>
<text text-anchor="middle" x="35" y="-7.5" font-family="Helvetica,sans-Serif" font-size="10.00" fill="#000000">BCB</text>
</g>
<!-- Node1 -->
<g id="node2" class="node">
<title>Node1</title>
<g id="a_node2"><a xlink:href="class_b_c_m.html" target="_top" xlink:title="BCM">
<polygon fill="#ffffff" stroke="#000000" points="15.5,-56.5 15.5,-75.5 54.5,-75.5 54.5,-56.5 15.5,-56.5"/>
<text text-anchor="middle" x="35" y="-63.5" font-family="Helvetica,sans-Serif" font-size="10.00" fill="#000000">BCM</text>
</a>
</g>
</g>
<!-- Node1&#45;&gt;Node0 -->
<g id="edge1" class="edge">
<title>Node1&#45;&gt;Node0</title>
<path fill="none" stroke="#191970" d="M35,-46.1575C35,-37.155 35,-26.9199 35,-19.6427"/>
<polygon fill="#191970" stroke="#191970" points="31.5001,-46.2455 35,-56.2455 38.5001,-46.2456 31.5001,-46.2455"/>
</g>
<!-- Node2 -->
<g id="node3" class="node">
<title>Node2</title>
<g id="a_node3"><a xlink:href="class_psk_relation.html" target="_top" xlink:title="PskRelation">
<polygon fill="#ffffff" stroke="#000000" points="0,-112.5 0,-131.5 70,-131.5 70,-112.5 0,-112.5"/>
<text text-anchor="middle" x="35" y="-119.5" font-family="Helvetica,sans-Serif" font-size="10.00" fill="#000000">PskRelation</text>
</a>
</g>
</g>
<!-- Node2&#45;&gt;Node1 -->
<g id="edge2" class="edge">
<title>Node2&#45;&gt;Node1</title>
<path fill="none" stroke="#191970" d="M35,-102.1575C35,-93.155 35,-82.9199 35,-75.6427"/>
<polygon fill="#191970" stroke="#191970" points="31.5001,-102.2455 35,-112.2455 38.5001,-102.2456 31.5001,-102.2455"/>
</g>
</g>
</svg>
