<?xml version="1.0" encoding="UTF-8" standalone="no"?>
<!DOCTYPE svg PUBLIC "-//W3C//DTD SVG 1.1//EN"
 "http://www.w3.org/Graphics/SVG/1.1/DTD/svg11.dtd">
<!-- Generated by graphviz version 2.40.1 (20161225.0304)
 -->
<!-- Title: FSWEikonalSolver3d Pages: 1 -->
<svg width="567pt" height="241pt"
 viewBox="0.00 0.00 566.50 241.00" xmlns="http://www.w3.org/2000/svg" xmlns:xlink="http://www.w3.org/1999/xlink">
<g id="graph0" class="graph" transform="scale(1 1) rotate(0) translate(4 237)">
<title>FSWEikonalSolver3d</title>
<polygon fill="#ffffff" stroke="transparent" points="-4,4 -4,-237 562.5,-237 562.5,4 -4,4"/>
<!-- Node3 -->
<g id="node1" class="node">
<title>Node3</title>
<polygon fill="#bfbfbf" stroke="#000000" points="143.5,-.5 143.5,-19.5 253.5,-19.5 253.5,-.5 143.5,-.5"/>
<text text-anchor="middle" x="198.5" y="-7.5" font-family="Helvetica,sans-Serif" font-size="10.00" fill="#000000">FSWEikonalSolver3d</text>
</g>
<!-- Node4 -->
<g id="node2" class="node">
<title>Node4</title>
<g id="a_node2"><a xlink:href="class_f_s_w_eikonal_solver_base.html" target="_top" xlink:title="FSWEikonalSolverBase">
<polygon fill="#ffffff" stroke="#000000" points="137.5,-57.5 137.5,-76.5 259.5,-76.5 259.5,-57.5 137.5,-57.5"/>
<text text-anchor="middle" x="198.5" y="-64.5" font-family="Helvetica,sans-Serif" font-size="10.00" fill="#000000">FSWEikonalSolverBase</text>
</a>
</g>
</g>
<!-- Node4&#45;&gt;Node3 -->
<g id="edge1" class="edge">
<title>Node4&#45;&gt;Node3</title>
<path fill="none" stroke="#191970" d="M198.5,-47.2342C198.5,-37.8491 198.5,-27.0651 198.5,-19.5265"/>
<polygon fill="#191970" stroke="#191970" points="195.0001,-47.3307 198.5,-57.3307 202.0001,-47.3308 195.0001,-47.3307"/>
</g>
<!-- Node5 -->
<g id="node3" class="node">
<title>Node5</title>
<g id="a_node3"><a xlink:href="class_f_m_m_eikonal_solver_base.html" target="_top" xlink:title="FMMEikonalSolverBase">
<polygon fill="#ffffff" stroke="#000000" points="137.5,-141 137.5,-160 259.5,-160 259.5,-141 137.5,-141"/>
<text text-anchor="middle" x="198.5" y="-148" font-family="Helvetica,sans-Serif" font-size="10.00" fill="#000000">FMMEikonalSolverBase</text>
</a>
</g>
</g>
<!-- Node5&#45;&gt;Node4 -->
<g id="edge2" class="edge">
<title>Node5&#45;&gt;Node4</title>
<path fill="none" stroke="#191970" d="M198.5,-130.9172C198.5,-113.8939 198.5,-89.9456 198.5,-76.724"/>
<polygon fill="#191970" stroke="#191970" points="195.0001,-130.9215 198.5,-140.9215 202.0001,-130.9215 195.0001,-130.9215"/>
</g>
<!-- Node6 -->
<g id="node4" class="node">
<title>Node6</title>
<g id="a_node4"><a xlink:href="class_unstructured_local_upwind_solvers.html" target="_top" xlink:title="UnstructuredLocalUpwindSolvers">
<polygon fill="#ffffff" stroke="#000000" points="396.5,-213.5 396.5,-232.5 558.5,-232.5 558.5,-213.5 396.5,-213.5"/>
<text text-anchor="middle" x="477.5" y="-220.5" font-family="Helvetica,sans-Serif" font-size="10.00" fill="#000000">UnstructuredLocalUpwindSolvers</text>
</a>
</g>
</g>
<!-- Node6&#45;&gt;Node5 -->
<g id="edge3" class="edge">
<title>Node6&#45;&gt;Node5</title>
<path fill="none" stroke="#9a32cd" stroke-dasharray="5,2" d="M430.9026,-210.8914C375.9314,-196.6067 285.673,-173.1525 235.3427,-160.0738"/>
<polygon fill="#9a32cd" stroke="#9a32cd" points="430.1799,-214.3197 440.7387,-213.4473 431.9404,-207.5447 430.1799,-214.3197"/>
<text text-anchor="middle" x="391" y="-187" font-family="Helvetica,sans-Serif" font-size="10.00" fill="#000000"> localSolvers</text>
</g>
<!-- Node7 -->
<g id="node5" class="node">
<title>Node7</title>
<polygon fill="#ffffff" stroke="#bfbfbf" points="13.5,-213.5 13.5,-232.5 105.5,-232.5 105.5,-213.5 13.5,-213.5"/>
<text text-anchor="middle" x="59.5" y="-220.5" font-family="Helvetica,sans-Serif" font-size="10.00" fill="#000000">std::vector&lt; int &gt;</text>
</g>
<!-- Node7&#45;&gt;Node5 -->
<g id="edge4" class="edge">
<title>Node7&#45;&gt;Node5</title>
<path fill="none" stroke="#9a32cd" stroke-dasharray="5,2" d="M87.059,-208.6257C114.5896,-194.2662 156.1459,-172.5912 179.9655,-160.1673"/>
<polygon fill="#9a32cd" stroke="#9a32cd" points="85.2059,-205.6447 77.9581,-213.3726 88.4432,-211.8512 85.2059,-205.6447"/>
<text text-anchor="middle" x="150.5" y="-187" font-family="Helvetica,sans-Serif" font-size="10.00" fill="#000000"> Known</text>
</g>
<!-- Node10 -->
<g id="node8" class="node">
<title>Node10</title>
<polygon fill="#ffffff" stroke="#bfbfbf" points="0,-135.5 0,-165.5 119,-165.5 119,-135.5 0,-135.5"/>
<text text-anchor="start" x="8" y="-153.5" font-family="Helvetica,sans-Serif" font-size="10.00" fill="#000000">std::vector&lt; std::vector</text>
<text text-anchor="middle" x="59.5" y="-142.5" font-family="Helvetica,sans-Serif" font-size="10.00" fill="#000000">&lt; int &gt; &gt;</text>
</g>
<!-- Node7&#45;&gt;Node10 -->
<g id="edge9" class="edge">
<title>Node7&#45;&gt;Node10</title>
<path fill="none" stroke="#9a32cd" stroke-dasharray="5,2" d="M59.5,-203.0177C59.5,-191.2164 59.5,-176.513 59.5,-165.668"/>
<polygon fill="#9a32cd" stroke="#9a32cd" points="56.0001,-203.2223 59.5,-213.2223 63.0001,-203.2224 56.0001,-203.2223"/>
<text text-anchor="middle" x="81" y="-187" font-family="Helvetica,sans-Serif" font-size="10.00" fill="#000000"> elements</text>
</g>
<!-- Node8 -->
<g id="node6" class="node">
<title>Node8</title>
<polygon fill="#ffffff" stroke="#bfbfbf" points="124,-213.5 124,-232.5 245,-232.5 245,-213.5 124,-213.5"/>
<text text-anchor="middle" x="184.5" y="-220.5" font-family="Helvetica,sans-Serif" font-size="10.00" fill="#000000">std::vector&lt; STATUS &gt;</text>
</g>
<!-- Node8&#45;&gt;Node5 -->
<g id="edge5" class="edge">
<title>Node8&#45;&gt;Node5</title>
<path fill="none" stroke="#9a32cd" stroke-dasharray="5,2" d="M188.3417,-203.1054C191.0416,-189.1237 194.5347,-171.0346 196.6418,-160.1228"/>
<polygon fill="#9a32cd" stroke="#9a32cd" points="184.8477,-202.7401 186.3881,-213.2223 191.7207,-204.0673 184.8477,-202.7401"/>
<text text-anchor="middle" x="208.5" y="-187" font-family="Helvetica,sans-Serif" font-size="10.00" fill="#000000"> Status</text>
</g>
<!-- Node9 -->
<g id="node7" class="node">
<title>Node9</title>
<g id="a_node7"><a xlink:href="struct_mesh.html" target="_top" xlink:title="Mesh">
<polygon fill="#ffffff" stroke="#000000" points="263,-213.5 263,-232.5 304,-232.5 304,-213.5 263,-213.5"/>
<text text-anchor="middle" x="283.5" y="-220.5" font-family="Helvetica,sans-Serif" font-size="10.00" fill="#000000">Mesh</text>
</a>
</g>
</g>
<!-- Node9&#45;&gt;Node5 -->
<g id="edge6" class="edge">
<title>Node9&#45;&gt;Node5</title>
<path fill="none" stroke="#9a32cd" stroke-dasharray="5,2" d="M263.9733,-206.3449C247.1953,-192.0343 223.5884,-171.8989 209.7819,-160.1228"/>
<polygon fill="#9a32cd" stroke="#9a32cd" points="262.1568,-209.3958 272.0365,-213.2223 266.6995,-204.0699 262.1568,-209.3958"/>
<text text-anchor="middle" x="263.5" y="-187" font-family="Helvetica,sans-Serif" font-size="10.00" fill="#000000"> mesh</text>
</g>
<!-- Node9&#45;&gt;Node9 -->
<g id="edge7" class="edge">
<title>Node9&#45;&gt;Node9</title>
<path fill="none" stroke="#9a32cd" stroke-dasharray="5,2" d="M314.316,-228.4421C318.9,-227.5943 322,-225.7803 322,-223 322,-218.4375 313.6518,-216.4771 304.0969,-217.1187"/>
<polygon fill="#9a32cd" stroke="#9a32cd" points="313.9374,-224.955 304.0969,-228.8813 314.238,-231.9486 313.9374,-224.955"/>
<text text-anchor="middle" x="350" y="-220.5" font-family="Helvetica,sans-Serif" font-size="10.00" fill="#000000"> subdomainp</text>
</g>
<!-- Node10&#45;&gt;Node4 -->
<g id="edge8" class="edge">
<title>Node10&#45;&gt;Node4</title>
<path fill="none" stroke="#9a32cd" stroke-dasharray="5,2" d="M93.4664,-130.0957C121.8337,-113.055 161.0052,-89.5239 182.6036,-76.5493"/>
<polygon fill="#9a32cd" stroke="#9a32cd" points="91.4417,-127.229 84.6719,-135.3788 95.0464,-133.2295 91.4417,-127.229"/>
<text text-anchor="middle" x="164.5" y="-103.5" font-family="Helvetica,sans-Serif" font-size="10.00" fill="#000000"> Order</text>
</g>
<!-- Node11 -->
<g id="node9" class="node">
<title>Node11</title>
<polygon fill="#ffffff" stroke="#bfbfbf" points="278,-141 278,-160 395,-160 395,-141 278,-141"/>
<text text-anchor="middle" x="336.5" y="-148" font-family="Helvetica,sans-Serif" font-size="10.00" fill="#000000">std::valarray&lt; double &gt;</text>
</g>
<!-- Node11&#45;&gt;Node4 -->
<g id="edge10" class="edge">
<title>Node11&#45;&gt;Node4</title>
<path fill="none" stroke="#9a32cd" stroke-dasharray="5,2" d="M311.8373,-135.5773C283.7011,-118.5528 238.5031,-91.2047 214.5708,-76.724"/>
<polygon fill="#9a32cd" stroke="#9a32cd" points="310.302,-138.7391 320.6696,-140.9215 313.9258,-132.7501 310.302,-138.7391"/>
<text text-anchor="middle" x="299.5" y="-109" font-family="Helvetica,sans-Serif" font-size="10.00" fill="#000000"> T0</text>
<text text-anchor="middle" x="299.5" y="-98" font-family="Helvetica,sans-Serif" font-size="10.00" fill="#000000">refPoints</text>
</g>
</g>
</svg>
