<?xml version="1.0" encoding="UTF-8" standalone="no"?>
<!DOCTYPE svg PUBLIC "-//W3C//DTD SVG 1.1//EN"
 "http://www.w3.org/Graphics/SVG/1.1/DTD/svg11.dtd">
<!-- Generated by graphviz version 2.42.3 (0)
 -->
<!-- Title: cppCable Pages: 1 -->
<svg width="739pt" height="720pt"
 viewBox="0.00 0.00 739.00 719.56" xmlns="http://www.w3.org/2000/svg" xmlns:xlink="http://www.w3.org/1999/xlink">
<g id="graph0" class="graph" transform="scale(1 1) rotate(0) translate(4 715.56)">
<title>cppCable</title>
<polygon fill="white" stroke="transparent" points="-4,4 -4,-715.56 735,-715.56 735,4 -4,4"/>
<!-- Node1 -->
<g id="node1" class="node">
<title>Node1</title>
<g id="a_node1"><a xlink:title=" ">
<polygon fill="#bfbfbf" stroke="black" points="669,-361.06 669,-380.06 731,-380.06 731,-361.06 669,-361.06"/>
<text text-anchor="middle" x="700" y="-368.06" font-family="Helvetica,sans-Serif" font-size="10.00">cppCable</text>
</a>
</g>
</g>
<!-- Node2 -->
<g id="node2" class="node">
<title>Node2</title>
<g id="a_node2"><a xlink:title=" ">
<polygon fill="white" stroke="#bfbfbf" points="314,-666.56 314,-696.56 482,-696.56 482,-666.56 314,-666.56"/>
<text text-anchor="start" x="322" y="-684.56" font-family="Helvetica,sans-Serif" font-size="10.00">std::vector&lt; std::shared</text>
<text text-anchor="middle" x="398" y="-673.56" font-family="Helvetica,sans-Serif" font-size="10.00">_ptr&lt; ChVector&lt; double &gt; &gt; &gt;</text>
</a>
</g>
</g>
<!-- Node2&#45;&gt;Node1 -->
<g id="edge1" class="edge">
<title>Node2&#45;&gt;Node1</title>
<path fill="none" stroke="#9a32cd" stroke-dasharray="5,2" d="M492.28,-692.2C545.61,-692.89 609.87,-683.7 651,-643.56 689.66,-605.83 697.43,-424.33 698.75,-380.23"/>
<polygon fill="#9a32cd" stroke="#9a32cd" points="492.2,-688.7 482.11,-691.95 492.02,-695.7 492.2,-688.7"/>
<text text-anchor="middle" x="589.5" y="-703.56" font-family="Helvetica,sans-Serif" font-size="10.00"> forces_drag</text>
<text text-anchor="middle" x="589.5" y="-692.56" font-family="Helvetica,sans-Serif" font-size="10.00">forces_addedmass</text>
</g>
<!-- Node3 -->
<g id="node3" class="node">
<title>Node3</title>
<g id="a_node3"><a xlink:title=" ">
<polygon fill="white" stroke="#bfbfbf" points="28.5,-666.56 28.5,-696.56 172.5,-696.56 172.5,-666.56 28.5,-666.56"/>
<text text-anchor="start" x="36.5" y="-684.56" font-family="Helvetica,sans-Serif" font-size="10.00">std::shared_ptr&lt; ChVector</text>
<text text-anchor="middle" x="100.5" y="-673.56" font-family="Helvetica,sans-Serif" font-size="10.00">&lt; double &gt; &gt;</text>
</a>
</g>
</g>
<!-- Node3&#45;&gt;Node2 -->
<g id="edge2" class="edge">
<title>Node3&#45;&gt;Node2</title>
<path fill="none" stroke="#9a32cd" stroke-dasharray="5,2" d="M182.83,-681.56C223.59,-681.56 272.88,-681.56 313.89,-681.56"/>
<polygon fill="#9a32cd" stroke="#9a32cd" points="182.66,-678.06 172.66,-681.56 182.66,-685.06 182.66,-678.06"/>
<text text-anchor="middle" x="243.5" y="-684.56" font-family="Helvetica,sans-Serif" font-size="10.00"> elements</text>
</g>
<!-- Node4 -->
<g id="node4" class="node">
<title>Node4</title>
<g id="a_node4"><a xlink:title=" ">
<polygon fill="white" stroke="#bfbfbf" points="309,-617.56 309,-647.56 487,-647.56 487,-617.56 309,-617.56"/>
<text text-anchor="start" x="317" y="-635.56" font-family="Helvetica,sans-Serif" font-size="10.00">std::shared_ptr&lt; ChBeamSection</text>
<text text-anchor="middle" x="398" y="-624.56" font-family="Helvetica,sans-Serif" font-size="10.00">Cable &gt;</text>
</a>
</g>
</g>
<!-- Node4&#45;&gt;Node1 -->
<g id="edge3" class="edge">
<title>Node4&#45;&gt;Node1</title>
<path fill="none" stroke="#9a32cd" stroke-dasharray="5,2" d="M497.19,-631.54C558.08,-628.79 628.79,-621.07 651,-600.56 684.19,-569.91 695.88,-420.11 698.43,-380.3"/>
<polygon fill="#9a32cd" stroke="#9a32cd" points="496.97,-628.05 487.12,-631.95 497.26,-635.04 496.97,-628.05"/>
<text text-anchor="middle" x="589.5" y="-631.56" font-family="Helvetica,sans-Serif" font-size="10.00"> msection_cable</text>
</g>
<!-- Node5 -->
<g id="node5" class="node">
<title>Node5</title>
<g id="a_node5"><a xlink:title=" ">
<polygon fill="white" stroke="#bfbfbf" points="317.5,-579.06 317.5,-598.06 478.5,-598.06 478.5,-579.06 317.5,-579.06"/>
<text text-anchor="middle" x="398" y="-586.06" font-family="Helvetica,sans-Serif" font-size="10.00">std::shared_ptr&lt; ChSystem &gt;</text>
</a>
</g>
</g>
<!-- Node5&#45;&gt;Node1 -->
<g id="edge4" class="edge">
<title>Node5&#45;&gt;Node1</title>
<path fill="none" stroke="#9a32cd" stroke-dasharray="5,2" d="M489.07,-587.94C551.43,-585.6 627.32,-578.37 651,-557.56 678.44,-533.44 693.95,-414.8 697.96,-380.1"/>
<polygon fill="#9a32cd" stroke="#9a32cd" points="488.66,-584.45 478.79,-588.28 488.9,-591.44 488.66,-584.45"/>
<text text-anchor="middle" x="589.5" y="-588.56" font-family="Helvetica,sans-Serif" font-size="10.00"> system</text>
</g>
<!-- Node6 -->
<g id="node6" class="node">
<title>Node6</title>
<g id="a_node6"><a xlink:title=" ">
<polygon fill="white" stroke="#bfbfbf" points="319,-529.56 319,-559.56 477,-559.56 477,-529.56 319,-529.56"/>
<text text-anchor="start" x="327" y="-547.56" font-family="Helvetica,sans-Serif" font-size="10.00">std::vector&lt; std::shared</text>
<text text-anchor="middle" x="398" y="-536.56" font-family="Helvetica,sans-Serif" font-size="10.00">_ptr&lt; ChNodeFEAxyzDD &gt; &gt;</text>
</a>
</g>
</g>
<!-- Node6&#45;&gt;Node1 -->
<g id="edge5" class="edge">
<title>Node6&#45;&gt;Node1</title>
<path fill="none" stroke="#9a32cd" stroke-dasharray="5,2" d="M487.38,-545.03C549.74,-543.55 626.39,-537.5 651,-517.56 694.39,-482.41 698.96,-407.34 699.15,-380.42"/>
<polygon fill="#9a32cd" stroke="#9a32cd" points="487.04,-541.54 477.11,-545.24 487.18,-548.54 487.04,-541.54"/>
<text text-anchor="middle" x="589.5" y="-545.56" font-family="Helvetica,sans-Serif" font-size="10.00"> nodesDD</text>
</g>
<!-- Node7 -->
<g id="node7" class="node">
<title>Node7</title>
<g id="a_node7"><a xlink:title=" ">
<polygon fill="white" stroke="#bfbfbf" points="0,-535.06 0,-554.06 201,-554.06 201,-535.06 0,-535.06"/>
<text text-anchor="middle" x="100.5" y="-542.06" font-family="Helvetica,sans-Serif" font-size="10.00">std::shared_ptr&lt; ChNodeFEAxyzDD &gt;</text>
</a>
</g>
</g>
<!-- Node7&#45;&gt;Node6 -->
<g id="edge6" class="edge">
<title>Node7&#45;&gt;Node6</title>
<path fill="none" stroke="#9a32cd" stroke-dasharray="5,2" d="M211.58,-544.56C247.21,-544.56 285.97,-544.56 318.8,-544.56"/>
<polygon fill="#9a32cd" stroke="#9a32cd" points="211.13,-541.06 201.13,-544.56 211.13,-548.06 211.13,-541.06"/>
<text text-anchor="middle" x="243.5" y="-547.56" font-family="Helvetica,sans-Serif" font-size="10.00"> elements</text>
</g>
<!-- Node8 -->
<g id="node8" class="node">
<title>Node8</title>
<g id="a_node8"><a xlink:title=" ">
<polygon fill="white" stroke="#bfbfbf" points="322.5,-491.06 322.5,-510.06 473.5,-510.06 473.5,-491.06 322.5,-491.06"/>
<text text-anchor="middle" x="398" y="-498.06" font-family="Helvetica,sans-Serif" font-size="10.00">std::shared_ptr&lt; ChMesh &gt;</text>
</a>
</g>
</g>
<!-- Node8&#45;&gt;Node1 -->
<g id="edge7" class="edge">
<title>Node8&#45;&gt;Node1</title>
<path fill="none" stroke="#9a32cd" stroke-dasharray="5,2" d="M484,-505.89C536.56,-504.99 602.93,-495.84 651,-461.56 679.36,-441.34 692.36,-399.12 696.95,-380.15"/>
<polygon fill="#9a32cd" stroke="#9a32cd" points="483.65,-502.39 473.68,-505.96 483.7,-509.39 483.65,-502.39"/>
<text text-anchor="middle" x="589.5" y="-505.56" font-family="Helvetica,sans-Serif" font-size="10.00"> mesh</text>
</g>
<!-- Node9 -->
<g id="node9" class="node">
<title>Node9</title>
<g id="a_node9"><a xlink:title=" ">
<polygon fill="white" stroke="#bfbfbf" points="310,-441.56 310,-471.56 486,-471.56 486,-441.56 310,-441.56"/>
<text text-anchor="start" x="318" y="-459.56" font-family="Helvetica,sans-Serif" font-size="10.00">std::vector&lt; std::shared</text>
<text text-anchor="middle" x="398" y="-448.56" font-family="Helvetica,sans-Serif" font-size="10.00">_ptr&lt; ChElementBeamEuler &gt; &gt;</text>
</a>
</g>
</g>
<!-- Node9&#45;&gt;Node1 -->
<g id="edge8" class="edge">
<title>Node9&#45;&gt;Node1</title>
<path fill="none" stroke="#9a32cd" stroke-dasharray="5,2" d="M496.41,-451.92C544.8,-446.6 603.02,-435.49 651,-412.56 667.18,-404.83 682.11,-390.06 690.88,-380.26"/>
<polygon fill="#9a32cd" stroke="#9a32cd" points="495.83,-448.47 486.24,-452.97 496.55,-455.43 495.83,-448.47"/>
<text text-anchor="middle" x="589.5" y="-449.56" font-family="Helvetica,sans-Serif" font-size="10.00"> elemsBeamEuler</text>
</g>
<!-- Node10 -->
<g id="node10" class="node">
<title>Node10</title>
<g id="a_node10"><a xlink:title=" ">
<polygon fill="white" stroke="#bfbfbf" points="23.5,-441.56 23.5,-471.56 177.5,-471.56 177.5,-441.56 23.5,-441.56"/>
<text text-anchor="start" x="31.5" y="-459.56" font-family="Helvetica,sans-Serif" font-size="10.00">std::shared_ptr&lt; ChElement</text>
<text text-anchor="middle" x="100.5" y="-448.56" font-family="Helvetica,sans-Serif" font-size="10.00">BeamEuler &gt;</text>
</a>
</g>
</g>
<!-- Node10&#45;&gt;Node9 -->
<g id="edge9" class="edge">
<title>Node10&#45;&gt;Node9</title>
<path fill="none" stroke="#9a32cd" stroke-dasharray="5,2" d="M187.73,-456.56C226.17,-456.56 271.38,-456.56 309.92,-456.56"/>
<polygon fill="#9a32cd" stroke="#9a32cd" points="187.6,-453.06 177.6,-456.56 187.6,-460.06 187.6,-453.06"/>
<text text-anchor="middle" x="243.5" y="-459.56" font-family="Helvetica,sans-Serif" font-size="10.00"> elements</text>
</g>
<!-- Node11 -->
<g id="node11" class="node">
<title>Node11</title>
<g id="a_node11"><a xlink:title=" ">
<polygon fill="white" stroke="#bfbfbf" points="322.5,-392.56 322.5,-422.56 473.5,-422.56 473.5,-392.56 322.5,-392.56"/>
<text text-anchor="start" x="330.5" y="-410.56" font-family="Helvetica,sans-Serif" font-size="10.00">std::vector&lt; std::shared</text>
<text text-anchor="middle" x="398" y="-399.56" font-family="Helvetica,sans-Serif" font-size="10.00">_ptr&lt; ChNodeFEAxyzD &gt; &gt;</text>
</a>
</g>
</g>
<!-- Node11&#45;&gt;Node1 -->
<g id="edge10" class="edge">
<title>Node11&#45;&gt;Node1</title>
<path fill="none" stroke="#9a32cd" stroke-dasharray="5,2" d="M483.8,-402.25C532.88,-398.41 595.7,-392.16 651,-382.56 656.84,-381.55 663.02,-380.21 668.93,-378.79"/>
<polygon fill="#9a32cd" stroke="#9a32cd" points="483.24,-398.78 473.54,-403.04 483.78,-405.76 483.24,-398.78"/>
<text text-anchor="middle" x="589.5" y="-400.56" font-family="Helvetica,sans-Serif" font-size="10.00"> nodes</text>
</g>
<!-- Node12 -->
<g id="node12" class="node">
<title>Node12</title>
<g id="a_node12"><a xlink:title=" ">
<polygon fill="white" stroke="#bfbfbf" points="3.5,-398.06 3.5,-417.06 197.5,-417.06 197.5,-398.06 3.5,-398.06"/>
<text text-anchor="middle" x="100.5" y="-405.06" font-family="Helvetica,sans-Serif" font-size="10.00">std::shared_ptr&lt; ChNodeFEAxyzD &gt;</text>
</a>
</g>
</g>
<!-- Node12&#45;&gt;Node11 -->
<g id="edge11" class="edge">
<title>Node12&#45;&gt;Node11</title>
<path fill="none" stroke="#9a32cd" stroke-dasharray="5,2" d="M207.91,-407.56C245.81,-407.56 287.65,-407.56 322.33,-407.56"/>
<polygon fill="#9a32cd" stroke="#9a32cd" points="207.85,-404.06 197.85,-407.56 207.85,-411.06 207.85,-404.06"/>
<text text-anchor="middle" x="243.5" y="-410.56" font-family="Helvetica,sans-Serif" font-size="10.00"> elements</text>
</g>
<!-- Node13 -->
<g id="node13" class="node">
<title>Node13</title>
<g id="a_node13"><a xlink:title=" ">
<polygon fill="white" stroke="#bfbfbf" points="286,-343.56 286,-373.56 510,-373.56 510,-343.56 286,-343.56"/>
<text text-anchor="start" x="294" y="-361.56" font-family="Helvetica,sans-Serif" font-size="10.00">std::vector&lt; std::shared</text>
<text text-anchor="middle" x="398" y="-350.56" font-family="Helvetica,sans-Serif" font-size="10.00">_ptr&lt; ChLoad&lt; MyLoaderTriangular &gt; &gt; &gt;</text>
</a>
</g>
</g>
<!-- Node13&#45;&gt;Node1 -->
<g id="edge12" class="edge">
<title>Node13&#45;&gt;Node1</title>
<path fill="none" stroke="#9a32cd" stroke-dasharray="5,2" d="M520.35,-363.42C574.65,-365.59 634.14,-367.97 668.94,-369.36"/>
<polygon fill="#9a32cd" stroke="#9a32cd" points="520.41,-359.91 510.28,-363.01 520.13,-366.91 520.41,-359.91"/>
<text text-anchor="middle" x="589.5" y="-370.56" font-family="Helvetica,sans-Serif" font-size="10.00"> elems_loads_triangular</text>
</g>
<!-- Node14 -->
<g id="node14" class="node">
<title>Node14</title>
<g id="a_node14"><a xlink:title=" ">
<polygon fill="white" stroke="#bfbfbf" points="27.5,-343.56 27.5,-373.56 173.5,-373.56 173.5,-343.56 27.5,-343.56"/>
<text text-anchor="start" x="35.5" y="-361.56" font-family="Helvetica,sans-Serif" font-size="10.00">std::shared_ptr&lt; ChLoad</text>
<text text-anchor="middle" x="100.5" y="-350.56" font-family="Helvetica,sans-Serif" font-size="10.00">&lt; MyLoaderTriangular &gt; &gt;</text>
</a>
</g>
</g>
<!-- Node14&#45;&gt;Node13 -->
<g id="edge13" class="edge">
<title>Node14&#45;&gt;Node13</title>
<path fill="none" stroke="#9a32cd" stroke-dasharray="5,2" d="M183.84,-358.56C215.39,-358.56 251.91,-358.56 285.72,-358.56"/>
<polygon fill="#9a32cd" stroke="#9a32cd" points="183.79,-355.06 173.79,-358.56 183.79,-362.06 183.79,-355.06"/>
<text text-anchor="middle" x="243.5" y="-361.56" font-family="Helvetica,sans-Serif" font-size="10.00"> elements</text>
</g>
<!-- Node15 -->
<g id="node15" class="node">
<title>Node15</title>
<g id="a_node15"><a xlink:title=" ">
<polygon fill="white" stroke="#bfbfbf" points="293.5,-294.56 293.5,-324.56 502.5,-324.56 502.5,-294.56 293.5,-294.56"/>
<text text-anchor="start" x="301.5" y="-312.56" font-family="Helvetica,sans-Serif" font-size="10.00">std::vector&lt; std::shared</text>
<text text-anchor="middle" x="398" y="-301.56" font-family="Helvetica,sans-Serif" font-size="10.00">_ptr&lt; ChLoad&lt; ChLoaderGravity &gt; &gt; &gt;</text>
</a>
</g>
</g>
<!-- Node15&#45;&gt;Node1 -->
<g id="edge14" class="edge">
<title>Node15&#45;&gt;Node1</title>
<path fill="none" stroke="#9a32cd" stroke-dasharray="5,2" d="M512.63,-320.38C556.47,-326.3 606.65,-335.25 651,-348.56 661.36,-351.67 672.37,-356.59 681.22,-360.99"/>
<polygon fill="#9a32cd" stroke="#9a32cd" points="512.87,-316.88 502.5,-319.05 511.96,-323.82 512.87,-316.88"/>
<text text-anchor="middle" x="589.5" y="-351.56" font-family="Helvetica,sans-Serif" font-size="10.00"> elems_loads_volumetric</text>
</g>
<!-- Node16 -->
<g id="node16" class="node">
<title>Node16</title>
<g id="a_node16"><a xlink:title=" ">
<polygon fill="white" stroke="#bfbfbf" points="32,-294.56 32,-324.56 169,-324.56 169,-294.56 32,-294.56"/>
<text text-anchor="start" x="40" y="-312.56" font-family="Helvetica,sans-Serif" font-size="10.00">std::shared_ptr&lt; ChLoad</text>
<text text-anchor="middle" x="100.5" y="-301.56" font-family="Helvetica,sans-Serif" font-size="10.00">&lt; ChLoaderGravity &gt; &gt;</text>
</a>
</g>
</g>
<!-- Node16&#45;&gt;Node15 -->
<g id="edge15" class="edge">
<title>Node16&#45;&gt;Node15</title>
<path fill="none" stroke="#9a32cd" stroke-dasharray="5,2" d="M179.41,-309.56C214.27,-309.56 255.86,-309.56 293.3,-309.56"/>
<polygon fill="#9a32cd" stroke="#9a32cd" points="179.29,-306.06 169.29,-309.56 179.29,-313.06 179.29,-306.06"/>
<text text-anchor="middle" x="243.5" y="-312.56" font-family="Helvetica,sans-Serif" font-size="10.00"> elements</text>
</g>
<!-- Node17 -->
<g id="node17" class="node">
<title>Node17</title>
<g id="a_node17"><a xlink:title=" ">
<polygon fill="white" stroke="#bfbfbf" points="309,-245.56 309,-275.56 487,-275.56 487,-245.56 309,-245.56"/>
<text text-anchor="start" x="317" y="-263.56" font-family="Helvetica,sans-Serif" font-size="10.00">std::shared_ptr&lt; ChBeamSection</text>
<text text-anchor="middle" x="398" y="-252.56" font-family="Helvetica,sans-Serif" font-size="10.00">Advanced &gt;</text>
</a>
</g>
</g>
<!-- Node17&#45;&gt;Node1 -->
<g id="edge16" class="edge">
<title>Node17&#45;&gt;Node1</title>
<path fill="none" stroke="#9a32cd" stroke-dasharray="5,2" d="M497.02,-277.17C564.86,-288.93 644.16,-303.35 651,-307.56 672.07,-320.54 687.24,-346.41 694.39,-360.63"/>
<polygon fill="#9a32cd" stroke="#9a32cd" points="497.55,-273.71 487.1,-275.45 496.36,-280.61 497.55,-273.71"/>
<text text-anchor="middle" x="589.5" y="-310.56" font-family="Helvetica,sans-Serif" font-size="10.00"> msection_advanced</text>
</g>
<!-- Node18 -->
<g id="node18" class="node">
<title>Node18</title>
<g id="a_node18"><a xlink:title="STL class.">
<polygon fill="white" stroke="#bfbfbf" points="365.5,-207.06 365.5,-226.06 430.5,-226.06 430.5,-207.06 365.5,-207.06"/>
<text text-anchor="middle" x="398" y="-214.06" font-family="Helvetica,sans-Serif" font-size="10.00">std::string</text>
</a>
</g>
</g>
<!-- Node18&#45;&gt;Node1 -->
<g id="edge17" class="edge">
<title>Node18&#45;&gt;Node1</title>
<path fill="none" stroke="#9a32cd" stroke-dasharray="5,2" d="M440.79,-220.79C461.96,-223.75 487.81,-228.65 510,-236.56 518.62,-239.64 519.38,-243.49 528,-246.56 580.32,-265.19 606.92,-234.78 651,-268.56 681.76,-292.13 693.65,-340.26 697.46,-360.86"/>
<polygon fill="#9a32cd" stroke="#9a32cd" points="441.18,-217.31 430.81,-219.49 440.28,-224.25 441.18,-217.31"/>
<text text-anchor="middle" x="589.5" y="-271.56" font-family="Helvetica,sans-Serif" font-size="10.00"> beam_type</text>
</g>
<!-- Node19 -->
<g id="node19" class="node">
<title>Node19</title>
<g id="a_node19"><a xlink:title="STL class.">
<polygon fill="white" stroke="#bfbfbf" points="48.5,-201.56 48.5,-231.56 152.5,-231.56 152.5,-201.56 48.5,-201.56"/>
<text text-anchor="start" x="56.5" y="-219.56" font-family="Helvetica,sans-Serif" font-size="10.00">std::basic_string&lt;</text>
<text text-anchor="middle" x="100.5" y="-208.56" font-family="Helvetica,sans-Serif" font-size="10.00"> char &gt;</text>
</a>
</g>
</g>
<!-- Node19&#45;&gt;Node18 -->
<g id="edge18" class="edge">
<title>Node19&#45;&gt;Node18</title>
<path fill="none" stroke="midnightblue" d="M163,-216.56C224.59,-216.56 316.94,-216.56 365.14,-216.56"/>
<polygon fill="midnightblue" stroke="midnightblue" points="162.63,-213.06 152.63,-216.56 162.63,-220.06 162.63,-213.06"/>
</g>
<!-- Node20 -->
<g id="node20" class="node">
<title>Node20</title>
<g id="a_node20"><a xlink:title=" ">
<polygon fill="white" stroke="#bfbfbf" points="322.5,-169.06 322.5,-188.06 473.5,-188.06 473.5,-169.06 322.5,-169.06"/>
<text text-anchor="middle" x="398" y="-176.06" font-family="Helvetica,sans-Serif" font-size="10.00">std::vector&lt; ChVector&lt;&gt; &gt;</text>
</a>
</g>
</g>
<!-- Node20&#45;&gt;Node1 -->
<g id="edge19" class="edge">
<title>Node20&#45;&gt;Node1</title>
<path fill="none" stroke="#9a32cd" stroke-dasharray="5,2" d="M475.38,-167.87C539.45,-160.69 624.59,-155.89 651,-176.56 680.92,-199.98 694.78,-325.3 698.16,-361.04"/>
<polygon fill="#9a32cd" stroke="#9a32cd" points="474.82,-164.41 465.29,-169.04 475.63,-171.37 474.82,-164.41"/>
<text text-anchor="middle" x="589.5" y="-234.56" font-family="Helvetica,sans-Serif" font-size="10.00"> fluid_acceleration</text>
<text text-anchor="middle" x="589.5" y="-223.56" font-family="Helvetica,sans-Serif" font-size="10.00">mvecs_tangents</text>
<text text-anchor="middle" x="589.5" y="-212.56" font-family="Helvetica,sans-Serif" font-size="10.00">fluid_velocity</text>
<text text-anchor="middle" x="589.5" y="-201.56" font-family="Helvetica,sans-Serif" font-size="10.00">mvecs</text>
<text text-anchor="middle" x="589.5" y="-190.56" font-family="Helvetica,sans-Serif" font-size="10.00">mvecs_middle</text>
<text text-anchor="middle" x="589.5" y="-179.56" font-family="Helvetica,sans-Serif" font-size="10.00">mdirs</text>
</g>
<!-- Node21 -->
<g id="node21" class="node">
<title>Node21</title>
<g id="a_node21"><a xlink:title=" ">
<polygon fill="white" stroke="#bfbfbf" points="309.5,-119.56 309.5,-149.56 486.5,-149.56 486.5,-119.56 309.5,-119.56"/>
<text text-anchor="start" x="317.5" y="-137.56" font-family="Helvetica,sans-Serif" font-size="10.00">std::vector&lt; std::shared</text>
<text text-anchor="middle" x="398" y="-126.56" font-family="Helvetica,sans-Serif" font-size="10.00">_ptr&lt; ChElementCableANCF &gt; &gt;</text>
</a>
</g>
</g>
<!-- Node21&#45;&gt;Node1 -->
<g id="edge20" class="edge">
<title>Node21&#45;&gt;Node1</title>
<path fill="none" stroke="#9a32cd" stroke-dasharray="5,2" d="M496.55,-122.71C557.16,-117.61 627.8,-116.55 651,-135.56 686.83,-164.93 696.64,-320.77 698.59,-361.05"/>
<polygon fill="#9a32cd" stroke="#9a32cd" points="496.19,-119.22 486.53,-123.59 496.8,-126.2 496.19,-119.22"/>
<text text-anchor="middle" x="589.5" y="-149.56" font-family="Helvetica,sans-Serif" font-size="10.00"> elems_cable</text>
<text text-anchor="middle" x="589.5" y="-138.56" font-family="Helvetica,sans-Serif" font-size="10.00">elemsCableANCF</text>
</g>
<!-- Node22 -->
<g id="node22" class="node">
<title>Node22</title>
<g id="a_node22"><a xlink:title=" ">
<polygon fill="white" stroke="#bfbfbf" points="23.5,-119.56 23.5,-149.56 177.5,-149.56 177.5,-119.56 23.5,-119.56"/>
<text text-anchor="start" x="31.5" y="-137.56" font-family="Helvetica,sans-Serif" font-size="10.00">std::shared_ptr&lt; ChElement</text>
<text text-anchor="middle" x="100.5" y="-126.56" font-family="Helvetica,sans-Serif" font-size="10.00">CableANCF &gt;</text>
</a>
</g>
</g>
<!-- Node22&#45;&gt;Node21 -->
<g id="edge21" class="edge">
<title>Node22&#45;&gt;Node21</title>
<path fill="none" stroke="#9a32cd" stroke-dasharray="5,2" d="M187.69,-134.56C225.96,-134.56 270.95,-134.56 309.39,-134.56"/>
<polygon fill="#9a32cd" stroke="#9a32cd" points="187.6,-131.06 177.6,-134.56 187.6,-138.06 187.6,-131.06"/>
<text text-anchor="middle" x="243.5" y="-137.56" font-family="Helvetica,sans-Serif" font-size="10.00"> elements</text>
</g>
<!-- Node23 -->
<g id="node23" class="node">
<title>Node23</title>
<g id="a_node23"><a xlink:title=" ">
<polygon fill="white" stroke="#bfbfbf" points="319.5,-70.56 319.5,-100.56 476.5,-100.56 476.5,-70.56 319.5,-70.56"/>
<text text-anchor="start" x="327.5" y="-88.56" font-family="Helvetica,sans-Serif" font-size="10.00">std::vector&lt; std::shared</text>
<text text-anchor="middle" x="398" y="-77.56" font-family="Helvetica,sans-Serif" font-size="10.00">_ptr&lt; ChNodeFEAxyzrot &gt; &gt;</text>
</a>
</g>
</g>
<!-- Node23&#45;&gt;Node1 -->
<g id="edge22" class="edge">
<title>Node23&#45;&gt;Node1</title>
<path fill="none" stroke="#9a32cd" stroke-dasharray="5,2" d="M487.1,-80.78C549.97,-79.37 627.4,-82.35 651,-103.56 690.32,-138.9 697.59,-317.59 698.78,-361.03"/>
<polygon fill="#9a32cd" stroke="#9a32cd" points="486.66,-77.29 476.75,-81.06 486.84,-84.29 486.66,-77.29"/>
<text text-anchor="middle" x="589.5" y="-106.56" font-family="Helvetica,sans-Serif" font-size="10.00"> nodesRot</text>
</g>
<!-- Node24 -->
<g id="node24" class="node">
<title>Node24</title>
<g id="a_node24"><a xlink:title=" ">
<polygon fill="white" stroke="#bfbfbf" points="0.5,-76.06 0.5,-95.06 200.5,-95.06 200.5,-76.06 0.5,-76.06"/>
<text text-anchor="middle" x="100.5" y="-83.06" font-family="Helvetica,sans-Serif" font-size="10.00">std::shared_ptr&lt; ChNodeFEAxyzrot &gt;</text>
</a>
</g>
</g>
<!-- Node24&#45;&gt;Node23 -->
<g id="edge23" class="edge">
<title>Node24&#45;&gt;Node23</title>
<path fill="none" stroke="#9a32cd" stroke-dasharray="5,2" d="M210.76,-85.56C246.71,-85.56 285.92,-85.56 319.06,-85.56"/>
<polygon fill="#9a32cd" stroke="#9a32cd" points="210.72,-82.06 200.72,-85.56 210.72,-89.06 210.72,-82.06"/>
<text text-anchor="middle" x="243.5" y="-88.56" font-family="Helvetica,sans-Serif" font-size="10.00"> elements</text>
</g>
<!-- Node25 -->
<g id="node25" class="node">
<title>Node25</title>
<g id="a_node25"><a xlink:title=" ">
<polygon fill="white" stroke="#bfbfbf" points="336,-24.06 336,-43.06 460,-43.06 460,-24.06 336,-24.06"/>
<text text-anchor="middle" x="398" y="-31.06" font-family="Helvetica,sans-Serif" font-size="10.00">std::vector&lt; double &gt;</text>
</a>
</g>
</g>
<!-- Node25&#45;&gt;Node1 -->
<g id="edge24" class="edge">
<title>Node25&#45;&gt;Node1</title>
<path fill="none" stroke="#9a32cd" stroke-dasharray="5,2" d="M433.46,-20.75C487,-3.31 590.32,20.11 651,-32.56 702.03,-76.85 700.24,-310.36 699.23,-360.9"/>
<polygon fill="#9a32cd" stroke="#9a32cd" points="432.1,-17.51 423.75,-24.03 434.34,-24.14 432.1,-17.51"/>
<text text-anchor="middle" x="589.5" y="-68.56" font-family="Helvetica,sans-Serif" font-size="10.00"> nodes_density</text>
<text text-anchor="middle" x="589.5" y="-57.56" font-family="Helvetica,sans-Serif" font-size="10.00">elems_length</text>
<text text-anchor="middle" x="589.5" y="-46.56" font-family="Helvetica,sans-Serif" font-size="10.00">length_per_elem</text>
<text text-anchor="middle" x="589.5" y="-35.56" font-family="Helvetica,sans-Serif" font-size="10.00">fluid_density</text>
</g>
</g>
</svg>
