<?xml version="1.0" encoding="UTF-8" standalone="no"?>
<!DOCTYPE svg PUBLIC "-//W3C//DTD SVG 1.1//EN"
 "http://www.w3.org/Graphics/SVG/1.1/DTD/svg11.dtd">
<!-- Generated by graphviz version 2.42.3 (0)
 -->
<!-- Title: chrono::ChBodyAddedMass Pages: 1 -->
<svg width="279pt" height="152pt"
 viewBox="0.00 0.00 278.50 152.00" xmlns="http://www.w3.org/2000/svg" xmlns:xlink="http://www.w3.org/1999/xlink">
<g id="graph0" class="graph" transform="scale(1 1) rotate(0) translate(4 148)">
<title>chrono::ChBodyAddedMass</title>
<polygon fill="white" stroke="transparent" points="-4,4 -4,-148 274.5,-148 274.5,4 -4,4"/>
<!-- Node1 -->
<g id="node1" class="node">
<title>Node1</title>
<g id="a_node1"><a xlink:title=" ">
<polygon fill="#bfbfbf" stroke="black" points="0,-0.5 0,-19.5 149,-19.5 149,-0.5 0,-0.5"/>
<text text-anchor="middle" x="74.5" y="-7.5" font-family="Helvetica,sans-Serif" font-size="10.00">chrono::ChBodyAddedMass</text>
</a>
</g>
</g>
<!-- Node2 -->
<g id="node2" class="node">
<title>Node2</title>
<g id="a_node2"><a xlink:title=" ">
<polygon fill="white" stroke="#bfbfbf" points="4.5,-67.5 4.5,-86.5 58.5,-86.5 58.5,-67.5 4.5,-67.5"/>
<text text-anchor="middle" x="31.5" y="-74.5" font-family="Helvetica,sans-Serif" font-size="10.00">ChBody</text>
</a>
</g>
</g>
<!-- Node2&#45;&gt;Node1 -->
<g id="edge1" class="edge">
<title>Node2&#45;&gt;Node1</title>
<path fill="none" stroke="midnightblue" d="M43.05,-58.53C51.38,-45.95 62.26,-29.51 68.79,-19.63"/>
<polygon fill="midnightblue" stroke="midnightblue" points="39.9,-56.96 37.3,-67.23 45.74,-60.82 39.9,-56.96"/>
</g>
<!-- Node3 -->
<g id="node3" class="node">
<title>Node3</title>
<g id="a_node3"><a xlink:href="classchrono_1_1_ch_variables_body_added_mass.html" target="_top" xlink:title=" ">
<polygon fill="white" stroke="black" points="76.5,-67.5 76.5,-86.5 270.5,-86.5 270.5,-67.5 76.5,-67.5"/>
<text text-anchor="middle" x="173.5" y="-74.5" font-family="Helvetica,sans-Serif" font-size="10.00">chrono::ChVariablesBodyAddedMass</text>
</a>
</g>
</g>
<!-- Node3&#45;&gt;Node1 -->
<g id="edge2" class="edge">
<title>Node3&#45;&gt;Node1</title>
<path fill="none" stroke="#9a32cd" stroke-dasharray="5,2" d="M151.56,-61.59C131.97,-48.74 103.94,-30.33 87.64,-19.63"/>
<polygon fill="#9a32cd" stroke="#9a32cd" points="149.87,-64.67 160.15,-67.23 153.71,-58.82 149.87,-64.67"/>
<text text-anchor="middle" x="154" y="-41" font-family="Helvetica,sans-Serif" font-size="10.00"> variables</text>
</g>
<!-- Node4 -->
<g id="node4" class="node">
<title>Node4</title>
<g id="a_node4"><a xlink:title=" ">
<polygon fill="white" stroke="#bfbfbf" points="100.5,-124.5 100.5,-143.5 246.5,-143.5 246.5,-124.5 100.5,-124.5"/>
<text text-anchor="middle" x="173.5" y="-131.5" font-family="Helvetica,sans-Serif" font-size="10.00">ChVariablesBodyOwnMass</text>
</a>
</g>
</g>
<!-- Node4&#45;&gt;Node3 -->
<g id="edge3" class="edge">
<title>Node4&#45;&gt;Node3</title>
<path fill="none" stroke="midnightblue" d="M173.5,-114.12C173.5,-104.82 173.5,-94.06 173.5,-86.71"/>
<polygon fill="midnightblue" stroke="midnightblue" points="170,-114.41 173.5,-124.41 177,-114.41 170,-114.41"/>
</g>
</g>
</svg>
