<?xml version="1.0" encoding="UTF-8" standalone="no"?>
<!DOCTYPE svg PUBLIC "-//W3C//DTD SVG 1.1//EN"
 "http://www.w3.org/Graphics/SVG/1.1/DTD/svg11.dtd">
<!-- Generated by graphviz version 2.40.1 (20161225.0304)
 -->
<!-- Title: FMMEikonalSolver3d Pages: 1 -->
<svg width="553pt" height="152pt"
 viewBox="0.00 0.00 552.50 152.00" xmlns="http://www.w3.org/2000/svg" xmlns:xlink="http://www.w3.org/1999/xlink">
<g id="graph0" class="graph" transform="scale(1 1) rotate(0) translate(4 148)">
<title>FMMEikonalSolver3d</title>
<polygon fill="#ffffff" stroke="transparent" points="-4,4 -4,-148 548.5,-148 548.5,4 -4,4"/>
<!-- Node2 -->
<g id="node1" class="node">
<title>Node2</title>
<polygon fill="#bfbfbf" stroke="#000000" points="233,-.5 233,-19.5 343,-19.5 343,-.5 233,-.5"/>
<text text-anchor="middle" x="288" y="-7.5" font-family="Helvetica,sans-Serif" font-size="10.00" fill="#000000">FMMEikonalSolver3d</text>
</g>
<!-- Node3 -->
<g id="node2" class="node">
<title>Node3</title>
<g id="a_node2"><a xlink:href="class_f_m_m_eikonal_solver_base.html" target="_top" xlink:title="FMMEikonalSolverBase">
<polygon fill="#ffffff" stroke="#000000" points="227,-57.5 227,-76.5 349,-76.5 349,-57.5 227,-57.5"/>
<text text-anchor="middle" x="288" y="-64.5" font-family="Helvetica,sans-Serif" font-size="10.00" fill="#000000">FMMEikonalSolverBase</text>
</a>
</g>
</g>
<!-- Node3&#45;&gt;Node2 -->
<g id="edge1" class="edge">
<title>Node3&#45;&gt;Node2</title>
<path fill="none" stroke="#191970" d="M288,-47.2342C288,-37.8491 288,-27.0651 288,-19.5265"/>
<polygon fill="#191970" stroke="#191970" points="284.5001,-47.3307 288,-57.3307 291.5001,-47.3308 284.5001,-47.3307"/>
</g>
<!-- Node4 -->
<g id="node3" class="node">
<title>Node4</title>
<g id="a_node3"><a xlink:href="class_unstructured_local_upwind_solvers.html" target="_top" xlink:title="UnstructuredLocalUpwindSolvers">
<polygon fill="#ffffff" stroke="#000000" points="0,-124.5 0,-143.5 162,-143.5 162,-124.5 0,-124.5"/>
<text text-anchor="middle" x="81" y="-131.5" font-family="Helvetica,sans-Serif" font-size="10.00" fill="#000000">UnstructuredLocalUpwindSolvers</text>
</a>
</g>
</g>
<!-- Node4&#45;&gt;Node3 -->
<g id="edge2" class="edge">
<title>Node4&#45;&gt;Node3</title>
<path fill="none" stroke="#9a32cd" stroke-dasharray="5,2" d="M116.355,-121.0292C138.0794,-113.1962 166.5352,-103.1805 192,-95 212.3308,-88.4687 235.2866,-81.7498 253.6516,-76.5313"/>
<polygon fill="#9a32cd" stroke="#9a32cd" points="115.0925,-117.7639 106.8821,-124.4602 117.4763,-124.3455 115.0925,-117.7639"/>
<text text-anchor="middle" x="220.5" y="-98" font-family="Helvetica,sans-Serif" font-size="10.00" fill="#000000"> localSolvers</text>
</g>
<!-- Node5 -->
<g id="node4" class="node">
<title>Node5</title>
<polygon fill="#ffffff" stroke="#bfbfbf" points="180,-124.5 180,-143.5 272,-143.5 272,-124.5 180,-124.5"/>
<text text-anchor="middle" x="226" y="-131.5" font-family="Helvetica,sans-Serif" font-size="10.00" fill="#000000">std::vector&lt; int &gt;</text>
</g>
<!-- Node5&#45;&gt;Node3 -->
<g id="edge3" class="edge">
<title>Node5&#45;&gt;Node3</title>
<path fill="none" stroke="#9a32cd" stroke-dasharray="5,2" d="M241.9953,-116.7147C253.8158,-103.941 269.4718,-87.0224 279.1334,-76.5817"/>
<polygon fill="#9a32cd" stroke="#9a32cd" points="239.1061,-114.6837 234.8831,-124.4005 244.2439,-119.4381 239.1061,-114.6837"/>
<text text-anchor="middle" x="277" y="-98" font-family="Helvetica,sans-Serif" font-size="10.00" fill="#000000"> Known</text>
</g>
<!-- Node6 -->
<g id="node5" class="node">
<title>Node6</title>
<polygon fill="#ffffff" stroke="#bfbfbf" points="290.5,-124.5 290.5,-143.5 411.5,-143.5 411.5,-124.5 290.5,-124.5"/>
<text text-anchor="middle" x="351" y="-131.5" font-family="Helvetica,sans-Serif" font-size="10.00" fill="#000000">std::vector&lt; STATUS &gt;</text>
</g>
<!-- Node6&#45;&gt;Node3 -->
<g id="edge4" class="edge">
<title>Node6&#45;&gt;Node3</title>
<path fill="none" stroke="#9a32cd" stroke-dasharray="5,2" d="M335.0888,-117.0785C323.0392,-104.2639 306.9205,-87.1218 297.0096,-76.5817"/>
<polygon fill="#9a32cd" stroke="#9a32cd" points="332.5735,-119.5129 341.9736,-124.4005 337.6732,-114.7177 332.5735,-119.5129"/>
<text text-anchor="middle" x="339" y="-98" font-family="Helvetica,sans-Serif" font-size="10.00" fill="#000000"> Status</text>
</g>
<!-- Node7 -->
<g id="node6" class="node">
<title>Node7</title>
<g id="a_node6"><a xlink:href="struct_mesh.html" target="_top" xlink:title="Mesh">
<polygon fill="#ffffff" stroke="#000000" points="429.5,-124.5 429.5,-143.5 470.5,-143.5 470.5,-124.5 429.5,-124.5"/>
<text text-anchor="middle" x="450" y="-131.5" font-family="Helvetica,sans-Serif" font-size="10.00" fill="#000000">Mesh</text>
</a>
</g>
</g>
<!-- Node7&#45;&gt;Node3 -->
<g id="edge5" class="edge">
<title>Node7&#45;&gt;Node3</title>
<path fill="none" stroke="#9a32cd" stroke-dasharray="5,2" d="M420.2118,-120.9733C402.4858,-113.2867 379.5207,-103.4415 359,-95 343.6825,-88.6989 326.3958,-81.8755 312.7149,-76.5422"/>
<polygon fill="#9a32cd" stroke="#9a32cd" points="418.9055,-124.2218 429.4718,-124.999 421.6963,-117.8022 418.9055,-124.2218"/>
<text text-anchor="middle" x="398" y="-98" font-family="Helvetica,sans-Serif" font-size="10.00" fill="#000000"> mesh</text>
</g>
<!-- Node7&#45;&gt;Node7 -->
<g id="edge6" class="edge">
<title>Node7&#45;&gt;Node7</title>
<path fill="none" stroke="#9a32cd" stroke-dasharray="5,2" d="M480.816,-139.4421C485.4,-138.5943 488.5,-136.7803 488.5,-134 488.5,-129.4375 480.1518,-127.4771 470.5969,-128.1187"/>
<polygon fill="#9a32cd" stroke="#9a32cd" points="480.4374,-135.955 470.5969,-139.8813 480.738,-142.9486 480.4374,-135.955"/>
<text text-anchor="middle" x="516.5" y="-131.5" font-family="Helvetica,sans-Serif" font-size="10.00" fill="#000000"> subdomainp</text>
</g>
</g>
</svg>
