<?xml version="1.0" encoding="UTF-8" standalone="no"?>
<!DOCTYPE svg PUBLIC "-//W3C//DTD SVG 1.1//EN"
 "http://www.w3.org/Graphics/SVG/1.1/DTD/svg11.dtd">
<!-- Generated by graphviz version 2.40.1 (20161225.0304)
 -->
<!-- Title: DensityRelation Pages: 1 -->
<svg width="408pt" height="140pt"
 viewBox="0.00 0.00 407.50 140.00" xmlns="http://www.w3.org/2000/svg" xmlns:xlink="http://www.w3.org/1999/xlink">
<g id="graph0" class="graph" transform="scale(1 1) rotate(0) translate(4 136)">
<title>DensityRelation</title>
<polygon fill="#ffffff" stroke="transparent" points="-4,4 -4,-136 403.5,-136 403.5,4 -4,4"/>
<!-- Node0 -->
<g id="node1" class="node">
<title>Node0</title>
<polygon fill="#bfbfbf" stroke="#000000" points="160,-112.5 160,-131.5 246,-131.5 246,-112.5 160,-112.5"/>
<text text-anchor="middle" x="203" y="-119.5" font-family="Helvetica,sans-Serif" font-size="10.00" fill="#000000">DensityRelation</text>
</g>
<!-- Node1 -->
<g id="node2" class="node">
<title>Node1</title>
<g id="a_node2"><a xlink:href="class_constant_density.html" target="_top" xlink:title="ConstantDensity">
<polygon fill="#ffffff" stroke="#000000" points="0,-56.5 0,-75.5 90,-75.5 90,-56.5 0,-56.5"/>
<text text-anchor="middle" x="45" y="-63.5" font-family="Helvetica,sans-Serif" font-size="10.00" fill="#000000">ConstantDensity</text>
</a>
</g>
</g>
<!-- Node0&#45;&gt;Node1 -->
<g id="edge1" class="edge">
<title>Node0&#45;&gt;Node1</title>
<path fill="none" stroke="#191970" d="M166.1045,-108.9231C137.2213,-98.686 97.7294,-84.6889 71.8067,-75.5011"/>
<polygon fill="#191970" stroke="#191970" points="165.2441,-112.3314 175.8388,-112.3733 167.5826,-105.7336 165.2441,-112.3314"/>
</g>
<!-- Node2 -->
<g id="node3" class="node">
<title>Node2</title>
<g id="a_node3"><a xlink:href="class_ideal_gas_density.html" target="_top" xlink:title="IdealGasDensity">
<polygon fill="#ffffff" stroke="#000000" points="108.5,-56.5 108.5,-75.5 197.5,-75.5 197.5,-56.5 108.5,-56.5"/>
<text text-anchor="middle" x="153" y="-63.5" font-family="Helvetica,sans-Serif" font-size="10.00" fill="#000000">IdealGasDensity</text>
</a>
</g>
</g>
<!-- Node0&#45;&gt;Node2 -->
<g id="edge2" class="edge">
<title>Node0&#45;&gt;Node2</title>
<path fill="none" stroke="#191970" d="M187.3753,-104.5004C178.8727,-94.9775 168.6782,-83.5596 161.6095,-75.6427"/>
<polygon fill="#191970" stroke="#191970" points="185.0197,-107.1172 194.2907,-112.2455 190.2413,-102.4551 185.0197,-107.1172"/>
</g>
<!-- Node3 -->
<g id="node4" class="node">
<title>Node3</title>
<g id="a_node4"><a xlink:href="class_linear_density.html" target="_top" xlink:title="LinearDensity">
<polygon fill="#ffffff" stroke="#000000" points="215.5,-56.5 215.5,-75.5 292.5,-75.5 292.5,-56.5 215.5,-56.5"/>
<text text-anchor="middle" x="254" y="-63.5" font-family="Helvetica,sans-Serif" font-size="10.00" fill="#000000">LinearDensity</text>
</a>
</g>
</g>
<!-- Node0&#45;&gt;Node3 -->
<g id="edge3" class="edge">
<title>Node0&#45;&gt;Node3</title>
<path fill="none" stroke="#191970" d="M218.6749,-104.7884C227.3994,-95.2085 237.9354,-83.6396 245.2183,-75.6427"/>
<polygon fill="#191970" stroke="#191970" points="216.0291,-102.4954 211.8835,-112.2455 221.2046,-107.2088 216.0291,-102.4954"/>
</g>
<!-- Node5 -->
<g id="node6" class="node">
<title>Node5</title>
<g id="a_node6"><a xlink:href="class_real_gas_density.html" target="_top" xlink:title="RealGasDensity">
<polygon fill="#ffffff" stroke="#000000" points="310.5,-56.5 310.5,-75.5 399.5,-75.5 399.5,-56.5 310.5,-56.5"/>
<text text-anchor="middle" x="355" y="-63.5" font-family="Helvetica,sans-Serif" font-size="10.00" fill="#000000">RealGasDensity</text>
</a>
</g>
</g>
<!-- Node0&#45;&gt;Node5 -->
<g id="edge5" class="edge">
<title>Node0&#45;&gt;Node5</title>
<path fill="none" stroke="#191970" d="M238.859,-108.7888C266.6123,-98.5639 304.3819,-84.6488 329.2112,-75.5011"/>
<polygon fill="#191970" stroke="#191970" points="237.3032,-105.6319 229.1297,-112.3733 239.7232,-112.2003 237.3032,-105.6319"/>
</g>
<!-- Node4 -->
<g id="node5" class="node">
<title>Node4</title>
<g id="a_node5"><a xlink:href="class_exponential_density.html" target="_top" xlink:title="ExponentialDensity">
<polygon fill="#ffffff" stroke="#000000" points="203.5,-.5 203.5,-19.5 304.5,-19.5 304.5,-.5 203.5,-.5"/>
<text text-anchor="middle" x="254" y="-7.5" font-family="Helvetica,sans-Serif" font-size="10.00" fill="#000000">ExponentialDensity</text>
</a>
</g>
</g>
<!-- Node3&#45;&gt;Node4 -->
<g id="edge4" class="edge">
<title>Node3&#45;&gt;Node4</title>
<path fill="none" stroke="#191970" d="M254,-46.1575C254,-37.155 254,-26.9199 254,-19.6427"/>
<polygon fill="#191970" stroke="#191970" points="250.5001,-46.2455 254,-56.2455 257.5001,-46.2456 250.5001,-46.2455"/>
</g>
</g>
</svg>
