<?xml version="1.0" encoding="UTF-8" standalone="no"?>
<!DOCTYPE svg PUBLIC "-//W3C//DTD SVG 1.1//EN"
 "http://www.w3.org/Graphics/SVG/1.1/DTD/svg11.dtd">
<!-- Generated by graphviz version 2.42.3 (0)
 -->
<!-- Title: proteus::GN_SW2DCV_base Pages: 1 -->
<svg width="458pt" height="83pt"
 viewBox="0.00 0.00 458.00 83.00" xmlns="http://www.w3.org/2000/svg" xmlns:xlink="http://www.w3.org/1999/xlink">
<g id="graph0" class="graph" transform="scale(1 1) rotate(0) translate(4 79)">
<title>proteus::GN_SW2DCV_base</title>
<polygon fill="white" stroke="transparent" points="-4,4 -4,-79 454,-79 454,4 -4,4"/>
<!-- Node1 -->
<g id="node1" class="node">
<title>Node1</title>
<g id="a_node1"><a xlink:title=" ">
<polygon fill="#bfbfbf" stroke="black" points="0,-28 0,-47 151,-47 151,-28 0,-28"/>
<text text-anchor="middle" x="75.5" y="-35" font-family="Helvetica,sans-Serif" font-size="10.00">proteus::GN_SW2DCV_base</text>
</a>
</g>
</g>
<!-- Node2 -->
<g id="node2" class="node">
<title>Node2</title>
<g id="a_node2"><a xlink:href="classproteus_1_1_g_n___s_w2_d_c_v.html" target="_top" xlink:title=" ">
<polygon fill="white" stroke="black" points="187,-0.5 187,-74.5 450,-74.5 450,-0.5 187,-0.5"/>
<text text-anchor="start" x="195" y="-62.5" font-family="Helvetica,sans-Serif" font-size="10.00">proteus::GN_SW2DCV</text>
<text text-anchor="start" x="195" y="-51.5" font-family="Helvetica,sans-Serif" font-size="10.00">&lt; CompKernelType, nSpace,</text>
<text text-anchor="start" x="195" y="-40.5" font-family="Helvetica,sans-Serif" font-size="10.00"> nQuadraturePoints_element,</text>
<text text-anchor="start" x="195" y="-29.5" font-family="Helvetica,sans-Serif" font-size="10.00"> nDOF_mesh_trial_element,</text>
<text text-anchor="start" x="195" y="-18.5" font-family="Helvetica,sans-Serif" font-size="10.00"> nDOF_trial_element, nDOF_test</text>
<text text-anchor="middle" x="318.5" y="-7.5" font-family="Helvetica,sans-Serif" font-size="10.00">_element, nQuadraturePoints_elementBoundary &gt;</text>
</a>
</g>
</g>
<!-- Node1&#45;&gt;Node2 -->
<g id="edge1" class="edge">
<title>Node1&#45;&gt;Node2</title>
<path fill="none" stroke="midnightblue" d="M161.2,-37.5C169.6,-37.5 178.25,-37.5 186.97,-37.5"/>
<polygon fill="midnightblue" stroke="midnightblue" points="161.1,-34 151.1,-37.5 161.1,-41 161.1,-34"/>
</g>
</g>
</svg>
