<?xml version="1.0" encoding="UTF-8" standalone="no"?>
<!DOCTYPE svg PUBLIC "-//W3C//DTD SVG 1.1//EN"
 "http://www.w3.org/Graphics/SVG/1.1/DTD/svg11.dtd">
<!-- Generated by graphviz version 2.38.0 (20140413.2041)
 -->
<!-- Title: D_base Pages: 1 -->
<svg width="465pt" height="84pt"
 viewBox="0.00 0.00 465.00 84.00" xmlns="http://www.w3.org/2000/svg" xmlns:xlink="http://www.w3.org/1999/xlink">
<g id="graph0" class="graph" transform="scale(1 1) rotate(0) translate(4 80)">
<title>D_base</title>
<polygon fill="white" stroke="none" points="-4,4 -4,-80 461,-80 461,4 -4,4"/>
<!-- Node0 -->
<g id="node1" class="node"><title>Node0</title>
<polygon fill="#bfbfbf" stroke="black" points="232.5,-56.5 232.5,-75.5 282.5,-75.5 282.5,-56.5 232.5,-56.5"/>
<text text-anchor="middle" x="257.5" y="-63.5" font-family="Helvetica,sans-Serif" font-size="10.00">D_base</text>
</g>
<!-- Node1 -->
<g id="node2" class="node"><title>Node1</title>
<g id="a_node2"><a xlink:href="class_piecewise_linear_complex_domain.html" target="_top" xlink:title="PiecewiseLinearComplexDomain">
<polygon fill="white" stroke="black" points="0,-0.5 0,-19.5 161,-19.5 161,-0.5 0,-0.5"/>
<text text-anchor="middle" x="80.5" y="-7.5" font-family="Helvetica,sans-Serif" font-size="10.00">PiecewiseLinearComplexDomain</text>
</a>
</g>
</g>
<!-- Node0&#45;&gt;Node1 -->
<g id="edge1" class="edge"><title>Node0&#45;&gt;Node1</title>
<path fill="none" stroke="midnightblue" d="M222.321,-54.2675C188.883,-44.066 139.253,-28.9245 108.441,-19.5243"/>
<polygon fill="midnightblue" stroke="midnightblue" points="221.554,-57.6927 232.14,-57.2631 223.597,-50.9973 221.554,-57.6927"/>
</g>
<!-- Node2 -->
<g id="node3" class="node"><title>Node2</title>
<g id="a_node3"><a xlink:href="class_planar_straight_line_graph_domain.html" target="_top" xlink:title="PlanarStraightLineGraphDomain">
<polygon fill="white" stroke="black" points="179.5,-0.5 179.5,-19.5 335.5,-19.5 335.5,-0.5 179.5,-0.5"/>
<text text-anchor="middle" x="257.5" y="-7.5" font-family="Helvetica,sans-Serif" font-size="10.00">PlanarStraightLineGraphDomain</text>
</a>
</g>
</g>
<!-- Node0&#45;&gt;Node2 -->
<g id="edge2" class="edge"><title>Node0&#45;&gt;Node2</title>
<path fill="none" stroke="midnightblue" d="M257.5,-45.8045C257.5,-36.9102 257.5,-26.7798 257.5,-19.7511"/>
<polygon fill="midnightblue" stroke="midnightblue" points="254,-46.083 257.5,-56.083 261,-46.083 254,-46.083"/>
</g>
<!-- Node3 -->
<g id="node4" class="node"><title>Node3</title>
<g id="a_node4"><a xlink:href="class_rectangular_domain.html" target="_top" xlink:title="RectangularDomain">
<polygon fill="white" stroke="black" points="354,-0.5 354,-19.5 457,-19.5 457,-0.5 354,-0.5"/>
<text text-anchor="middle" x="405.5" y="-7.5" font-family="Helvetica,sans-Serif" font-size="10.00">RectangularDomain</text>
</a>
</g>
</g>
<!-- Node0&#45;&gt;Node3 -->
<g id="edge3" class="edge"><title>Node0&#45;&gt;Node3</title>
<path fill="none" stroke="midnightblue" d="M290.647,-52.9058C318.472,-42.7536 357.52,-28.5063 382.159,-19.5164"/>
<polygon fill="midnightblue" stroke="midnightblue" points="289.146,-49.7279 280.951,-56.4435 291.545,-56.3038 289.146,-49.7279"/>
</g>
</g>
</svg>
