<?xml version="1.0" encoding="UTF-8" standalone="no"?>
<!DOCTYPE svg PUBLIC "-//W3C//DTD SVG 1.1//EN"
 "http://www.w3.org/Graphics/SVG/1.1/DTD/svg11.dtd">
<!-- Generated by graphviz version 2.42.3 (0)
 -->
<!-- Title: proteus::cppVOS3P_base Pages: 1 -->
<svg width="203pt" height="227pt"
 viewBox="0.00 0.00 202.50 227.00" xmlns="http://www.w3.org/2000/svg" xmlns:xlink="http://www.w3.org/1999/xlink">
<g id="graph0" class="graph" transform="scale(1 1) rotate(0) translate(4 223)">
<title>proteus::cppVOS3P_base</title>
<polygon fill="white" stroke="transparent" points="-4,4 -4,-223 198.5,-223 198.5,4 -4,4"/>
<!-- Node1 -->
<g id="node1" class="node">
<title>Node1</title>
<g id="a_node1"><a xlink:title=" ">
<polygon fill="#bfbfbf" stroke="black" points="0,-0.5 0,-19.5 137,-19.5 137,-0.5 0,-0.5"/>
<text text-anchor="middle" x="68.5" y="-7.5" font-family="Helvetica,sans-Serif" font-size="10.00">proteus::cppVOS3P_base</text>
</a>
</g>
</g>
<!-- Node2 -->
<g id="node2" class="node">
<title>Node2</title>
<g id="a_node2"><a xlink:title=" ">
<polygon fill="white" stroke="#bfbfbf" points="1.5,-199.5 1.5,-218.5 135.5,-218.5 135.5,-199.5 1.5,-199.5"/>
<text text-anchor="middle" x="68.5" y="-206.5" font-family="Helvetica,sans-Serif" font-size="10.00">std::valarray&lt; double &gt;</text>
</a>
</g>
</g>
<!-- Node2&#45;&gt;Node1 -->
<g id="edge1" class="edge">
<title>Node2&#45;&gt;Node1</title>
<path fill="none" stroke="#9a32cd" stroke-dasharray="5,2" d="M68.5,-189.16C68.5,-147.58 68.5,-49.28 68.5,-19.62"/>
<polygon fill="#9a32cd" stroke="#9a32cd" points="65,-189.28 68.5,-199.28 72,-189.28 65,-189.28"/>
<text text-anchor="middle" x="131.5" y="-173" font-family="Helvetica,sans-Serif" font-size="10.00"> boundary_integral</text>
<text text-anchor="middle" x="131.5" y="-162" font-family="Helvetica,sans-Serif" font-size="10.00">psi</text>
<text text-anchor="middle" x="131.5" y="-151" font-family="Helvetica,sans-Serif" font-size="10.00">Rpos</text>
<text text-anchor="start" x="68.5" y="-140" font-family="Helvetica,sans-Serif" font-size="10.00">porosity_free</text>
<text text-anchor="middle" x="131.5" y="-129" font-family="Helvetica,sans-Serif" font-size="10.00">_dof</text>
<text text-anchor="middle" x="131.5" y="-118" font-family="Helvetica,sans-Serif" font-size="10.00">u_free_dof_old</text>
<text text-anchor="start" x="68.5" y="-107" font-family="Helvetica,sans-Serif" font-size="10.00">global_entropy</text>
<text text-anchor="middle" x="131.5" y="-96" font-family="Helvetica,sans-Serif" font-size="10.00">_residual</text>
<text text-anchor="middle" x="131.5" y="-85" font-family="Helvetica,sans-Serif" font-size="10.00">FluxCorrectionMatrix</text>
<text text-anchor="middle" x="131.5" y="-74" font-family="Helvetica,sans-Serif" font-size="10.00">TransposeTransportMatrix</text>
<text text-anchor="middle" x="131.5" y="-63" font-family="Helvetica,sans-Serif" font-size="10.00">TransportMatrix</text>
<text text-anchor="middle" x="131.5" y="-52" font-family="Helvetica,sans-Serif" font-size="10.00">Rneg</text>
<text text-anchor="middle" x="131.5" y="-41" font-family="Helvetica,sans-Serif" font-size="10.00">...</text>
</g>
</g>
</svg>
