<?xml version="1.0" encoding="UTF-8" standalone="no"?>
<!DOCTYPE svg PUBLIC "-//W3C//DTD SVG 1.1//EN"
 "http://www.w3.org/Graphics/SVG/1.1/DTD/svg11.dtd">
<!-- Generated by graphviz version 2.38.0 (20140413.2041)
 -->
<!-- Title: PiecewiseLinearComplexDomain Pages: 1 -->
<svg width="677pt" height="294pt"
 viewBox="0.00 0.00 677.00 293.50" xmlns="http://www.w3.org/2000/svg" xmlns:xlink="http://www.w3.org/1999/xlink">
<g id="graph0" class="graph" transform="scale(1 1) rotate(0) translate(4 289.5)">
<title>PiecewiseLinearComplexDomain</title>
<polygon fill="white" stroke="none" points="-4,4 -4,-289.5 673,-289.5 673,4 -4,4"/>
<!-- Node2 -->
<g id="node1" class="node"><title>Node2</title>
<polygon fill="#bfbfbf" stroke="black" points="508,-130.5 508,-149.5 669,-149.5 669,-130.5 508,-130.5"/>
<text text-anchor="middle" x="588.5" y="-137.5" font-family="Helvetica,sans-Serif" font-size="10.00">PiecewiseLinearComplexDomain</text>
</g>
<!-- Node3 -->
<g id="node2" class="node"><title>Node3</title>
<g id="a_node2"><a xlink:href="class_d__base.html" target="_top" xlink:title="D_base">
<polygon fill="white" stroke="black" points="336.5,-243.5 336.5,-262.5 386.5,-262.5 386.5,-243.5 336.5,-243.5"/>
<text text-anchor="middle" x="361.5" y="-250.5" font-family="Helvetica,sans-Serif" font-size="10.00">D_base</text>
</a>
</g>
</g>
<!-- Node3&#45;&gt;Node2 -->
<g id="edge1" class="edge"><title>Node3&#45;&gt;Node2</title>
<path fill="none" stroke="midnightblue" d="M396.578,-242.925C422.815,-234.583 459.612,-221.594 490,-206 522.735,-189.202 557.639,-163.397 575.478,-149.555"/>
<polygon fill="midnightblue" stroke="midnightblue" points="395.232,-239.678 386.728,-245.997 397.316,-246.361 395.232,-239.678"/>
</g>
<!-- Node4 -->
<g id="node3" class="node"><title>Node4</title>
<g id="a_node3"><a xlink:title="STL class. ">
<polygon fill="white" stroke="#bfbfbf" points="157,-260.5 157,-279.5 217,-279.5 217,-260.5 157,-260.5"/>
<text text-anchor="middle" x="187" y="-267.5" font-family="Helvetica,sans-Serif" font-size="10.00">std::string</text>
</a>
</g>
</g>
<!-- Node4&#45;&gt;Node3 -->
<g id="edge2" class="edge"><title>Node4&#45;&gt;Node3</title>
<path fill="none" stroke="#9a32cd" stroke-dasharray="5,2" d="M227.645,-266.093C261.207,-262.785 308.224,-258.152 336.391,-255.376"/>
<polygon fill="#9a32cd" stroke="#9a32cd" points="226.871,-262.652 217.262,-267.116 227.557,-269.618 226.871,-262.652"/>
<text text-anchor="middle" x="272.5" y="-276" font-family="Helvetica,sans-Serif" font-size="10.00"> units</text>
<text text-anchor="middle" x="272.5" y="-265" font-family="Helvetica,sans-Serif" font-size="10.00">name</text>
</g>
<!-- Node5 -->
<g id="node4" class="node"><title>Node5</title>
<g id="a_node4"><a xlink:title="STL class. ">
<polygon fill="white" stroke="#bfbfbf" points="0,-255 0,-285 95,-285 95,-255 0,-255"/>
<text text-anchor="start" x="8" y="-273" font-family="Helvetica,sans-Serif" font-size="10.00">std::basic_string&lt;</text>
<text text-anchor="middle" x="47.5" y="-262" font-family="Helvetica,sans-Serif" font-size="10.00"> char &gt;</text>
</a>
</g>
</g>
<!-- Node5&#45;&gt;Node4 -->
<g id="edge3" class="edge"><title>Node5&#45;&gt;Node4</title>
<path fill="none" stroke="midnightblue" d="M105.297,-270C122.975,-270 141.741,-270 156.724,-270"/>
<polygon fill="midnightblue" stroke="midnightblue" points="105.051,-266.5 95.0512,-270 105.051,-273.5 105.051,-266.5"/>
</g>
<!-- Node6 -->
<g id="node5" class="node"><title>Node6</title>
<polygon fill="white" stroke="#bfbfbf" points="132,-199.5 132,-218.5 242,-218.5 242,-199.5 132,-199.5"/>
<text text-anchor="middle" x="187" y="-206.5" font-family="Helvetica,sans-Serif" font-size="10.00">std::vector&lt; double &gt;</text>
</g>
<!-- Node6&#45;&gt;Node2 -->
<g id="edge8" class="edge"><title>Node6&#45;&gt;Node2</title>
<path fill="none" stroke="#9a32cd" stroke-dasharray="5,2" d="M252.429,-197.872C330.054,-184.465 459.142,-162.169 532.362,-149.523"/>
<polygon fill="#9a32cd" stroke="#9a32cd" points="251.553,-194.472 242.294,-199.623 252.744,-201.369 251.553,-194.472"/>
<text text-anchor="middle" x="361.5" y="-215" font-family="Helvetica,sans-Serif" font-size="10.00"> regions</text>
<text text-anchor="middle" x="361.5" y="-204" font-family="Helvetica,sans-Serif" font-size="10.00">holes</text>
<text text-anchor="middle" x="361.5" y="-193" font-family="Helvetica,sans-Serif" font-size="10.00">v</text>
</g>
<!-- Node6&#45;&gt;Node3 -->
<g id="edge4" class="edge"><title>Node6&#45;&gt;Node3</title>
<path fill="none" stroke="#9a32cd" stroke-dasharray="5,2" d="M235.268,-221.057C268.042,-229.417 310.328,-240.202 336.418,-246.857"/>
<polygon fill="#9a32cd" stroke="#9a32cd" points="235.985,-217.628 225.43,-218.547 234.255,-224.41 235.985,-217.628"/>
<text text-anchor="middle" x="272.5" y="-247" font-family="Helvetica,sans-Serif" font-size="10.00"> x</text>
<text text-anchor="middle" x="272.5" y="-236" font-family="Helvetica,sans-Serif" font-size="10.00">L</text>
</g>
<!-- Node7 -->
<g id="node6" class="node"><title>Node7</title>
<polygon fill="white" stroke="#bfbfbf" points="303,-125 303,-155 420,-155 420,-125 303,-125"/>
<text text-anchor="start" x="311" y="-143" font-family="Helvetica,sans-Serif" font-size="10.00">std::vector&lt; vector</text>
<text text-anchor="middle" x="361.5" y="-132" font-family="Helvetica,sans-Serif" font-size="10.00">&lt; vector&lt; double &gt; &gt; &gt;</text>
</g>
<!-- Node7&#45;&gt;Node2 -->
<g id="edge5" class="edge"><title>Node7&#45;&gt;Node2</title>
<path fill="none" stroke="#9a32cd" stroke-dasharray="5,2" d="M430.399,-140C454.829,-140 482.608,-140 507.942,-140"/>
<polygon fill="#9a32cd" stroke="#9a32cd" points="430.151,-136.5 420.151,-140 430.151,-143.5 430.151,-136.5"/>
<text text-anchor="middle" x="464" y="-143" font-family="Helvetica,sans-Serif" font-size="10.00"> vertices</text>
</g>
<!-- Node8 -->
<g id="node7" class="node"><title>Node8</title>
<polygon fill="white" stroke="#bfbfbf" points="312,-76 312,-106 411,-106 411,-76 312,-76"/>
<text text-anchor="start" x="320" y="-94" font-family="Helvetica,sans-Serif" font-size="10.00">std::vector&lt; vector</text>
<text text-anchor="middle" x="361.5" y="-83" font-family="Helvetica,sans-Serif" font-size="10.00">&lt; vector&lt; int &gt; &gt; &gt;</text>
</g>
<!-- Node8&#45;&gt;Node2 -->
<g id="edge6" class="edge"><title>Node8&#45;&gt;Node2</title>
<path fill="none" stroke="#9a32cd" stroke-dasharray="5,2" d="M421.04,-103.749C459.368,-112.096 508.647,-122.828 543.615,-130.443"/>
<polygon fill="#9a32cd" stroke="#9a32cd" points="421.56,-100.28 411.045,-101.572 420.071,-107.12 421.56,-100.28"/>
<text text-anchor="middle" x="464" y="-122" font-family="Helvetica,sans-Serif" font-size="10.00"> facets</text>
</g>
<!-- Node9 -->
<g id="node8" class="node"><title>Node9</title>
<polygon fill="white" stroke="#bfbfbf" points="315.5,-0.5 315.5,-19.5 407.5,-19.5 407.5,-0.5 315.5,-0.5"/>
<text text-anchor="middle" x="361.5" y="-7.5" font-family="Helvetica,sans-Serif" font-size="10.00">std::vector&lt; int &gt;</text>
</g>
<!-- Node9&#45;&gt;Node2 -->
<g id="edge7" class="edge"><title>Node9&#45;&gt;Node2</title>
<path fill="none" stroke="#9a32cd" stroke-dasharray="5,2" d="M417.709,-15.4549C441.133,-19.5218 468.037,-26.6185 490,-39 532.037,-62.6981 567.373,-110.157 581.227,-130.445"/>
<polygon fill="#9a32cd" stroke="#9a32cd" points="417.992,-11.956 407.566,-13.8412 416.892,-18.869 417.992,-11.956"/>
<text text-anchor="middle" x="464" y="-97" font-family="Helvetica,sans-Serif" font-size="10.00"> f</text>
<text text-anchor="middle" x="464" y="-86" font-family="Helvetica,sans-Serif" font-size="10.00">vertexFlags</text>
<text text-anchor="middle" x="464" y="-75" font-family="Helvetica,sans-Serif" font-size="10.00">facetHoles</text>
<text text-anchor="middle" x="464" y="-64" font-family="Helvetica,sans-Serif" font-size="10.00">fN</text>
<text text-anchor="middle" x="464" y="-53" font-family="Helvetica,sans-Serif" font-size="10.00">vN</text>
<text text-anchor="middle" x="464" y="-42" font-family="Helvetica,sans-Serif" font-size="10.00">facetFlags</text>
</g>
</g>
</svg>
