<?xml version="1.0" encoding="UTF-8" standalone="no"?>
<!DOCTYPE svg PUBLIC "-//W3C//DTD SVG 1.1//EN"
 "http://www.w3.org/Graphics/SVG/1.1/DTD/svg11.dtd">
<!-- Generated by graphviz version 2.40.1 (20161225.0304)
 -->
<!-- Title: D_base Pages: 1 -->
<svg width="465pt" height="84pt"
 viewBox="0.00 0.00 465.00 84.00" xmlns="http://www.w3.org/2000/svg" xmlns:xlink="http://www.w3.org/1999/xlink">
<g id="graph0" class="graph" transform="scale(1 1) rotate(0) translate(4 80)">
<title>D_base</title>
<polygon fill="#ffffff" stroke="transparent" points="-4,4 -4,-80 461,-80 461,4 -4,4"/>
<!-- Node0 -->
<g id="node1" class="node">
<title>Node0</title>
<polygon fill="#bfbfbf" stroke="#000000" points="232.5,-56.5 232.5,-75.5 282.5,-75.5 282.5,-56.5 232.5,-56.5"/>
<text text-anchor="middle" x="257.5" y="-63.5" font-family="Helvetica,sans-Serif" font-size="10.00" fill="#000000">D_base</text>
</g>
<!-- Node1 -->
<g id="node2" class="node">
<title>Node1</title>
<g id="a_node2"><a xlink:href="class_piecewise_linear_complex_domain.html" target="_top" xlink:title="PiecewiseLinearComplexDomain">
<polygon fill="#ffffff" stroke="#000000" points="0,-.5 0,-19.5 161,-19.5 161,-.5 0,-.5"/>
<text text-anchor="middle" x="80.5" y="-7.5" font-family="Helvetica,sans-Serif" font-size="10.00" fill="#000000">PiecewiseLinearComplexDomain</text>
</a>
</g>
</g>
<!-- Node0&#45;&gt;Node1 -->
<g id="edge1" class="edge">
<title>Node0&#45;&gt;Node1</title>
<path fill="none" stroke="#191970" d="M222.533,-54.937C189.8442,-44.5948 141.5465,-29.3141 110.5507,-19.5076"/>
<polygon fill="#191970" stroke="#191970" points="221.5502,-58.297 232.1402,-57.9766 223.6618,-51.6231 221.5502,-58.297"/>
</g>
<!-- Node2 -->
<g id="node3" class="node">
<title>Node2</title>
<g id="a_node3"><a xlink:href="class_planar_straight_line_graph_domain.html" target="_top" xlink:title="PlanarStraightLineGraphDomain">
<polygon fill="#ffffff" stroke="#000000" points="179.5,-.5 179.5,-19.5 335.5,-19.5 335.5,-.5 179.5,-.5"/>
<text text-anchor="middle" x="257.5" y="-7.5" font-family="Helvetica,sans-Serif" font-size="10.00" fill="#000000">PlanarStraightLineGraphDomain</text>
</a>
</g>
</g>
<!-- Node0&#45;&gt;Node2 -->
<g id="edge2" class="edge">
<title>Node0&#45;&gt;Node2</title>
<path fill="none" stroke="#191970" d="M257.5,-46.1575C257.5,-37.155 257.5,-26.9199 257.5,-19.6427"/>
<polygon fill="#191970" stroke="#191970" points="254.0001,-46.2455 257.5,-56.2455 261.0001,-46.2456 254.0001,-46.2455"/>
</g>
<!-- Node3 -->
<g id="node4" class="node">
<title>Node3</title>
<g id="a_node4"><a xlink:href="class_rectangular_domain.html" target="_top" xlink:title="RectangularDomain">
<polygon fill="#ffffff" stroke="#000000" points="354,-.5 354,-19.5 457,-19.5 457,-.5 354,-.5"/>
<text text-anchor="middle" x="405.5" y="-7.5" font-family="Helvetica,sans-Serif" font-size="10.00" fill="#000000">RectangularDomain</text>
</a>
</g>
</g>
<!-- Node0&#45;&gt;Node3 -->
<g id="edge3" class="edge">
<title>Node0&#45;&gt;Node3</title>
<path fill="none" stroke="#191970" d="M292.0676,-52.9203C319.0779,-42.7002 355.9892,-28.7338 380.2707,-19.5462"/>
<polygon fill="#191970" stroke="#191970" points="290.7204,-49.6879 282.6062,-56.5004 293.1977,-56.2349 290.7204,-49.6879"/>
</g>
</g>
</svg>
