<?xml version="1.0" encoding="UTF-8" standalone="no"?>
<!DOCTYPE svg PUBLIC "-//W3C//DTD SVG 1.1//EN"
 "http://www.w3.org/Graphics/SVG/1.1/DTD/svg11.dtd">
<!-- Generated by graphviz version 2.42.3 (0)
 -->
<!-- Title: PskRelation Pages: 1 -->
<svg width="294pt" height="196pt"
 viewBox="0.00 0.00 294.00 196.00" xmlns="http://www.w3.org/2000/svg" xmlns:xlink="http://www.w3.org/1999/xlink">
<g id="graph0" class="graph" transform="scale(1 1) rotate(0) translate(4 192)">
<title>PskRelation</title>
<polygon fill="white" stroke="transparent" points="-4,4 -4,-192 290,-192 290,4 -4,4"/>
<!-- Node1 -->
<g id="node1" class="node">
<title>Node1</title>
<g id="a_node1"><a xlink:title=" ">
<polygon fill="#bfbfbf" stroke="black" points="94.5,-168.5 94.5,-187.5 168.5,-187.5 168.5,-168.5 94.5,-168.5"/>
<text text-anchor="middle" x="131.5" y="-175.5" font-family="Helvetica,sans-Serif" font-size="10.00">PskRelation</text>
</a>
</g>
</g>
<!-- Node2 -->
<g id="node2" class="node">
<title>Node2</title>
<g id="a_node2"><a xlink:href="class_b_c_m.html" target="_top" xlink:title=" ">
<polygon fill="white" stroke="black" points="0,-112.5 0,-131.5 39,-131.5 39,-112.5 0,-112.5"/>
<text text-anchor="middle" x="19.5" y="-119.5" font-family="Helvetica,sans-Serif" font-size="10.00">BCM</text>
</a>
</g>
</g>
<!-- Node1&#45;&gt;Node2 -->
<g id="edge1" class="edge">
<title>Node1&#45;&gt;Node2</title>
<path fill="none" stroke="midnightblue" d="M104.25,-163.86C83.48,-153.85 55.48,-140.35 37.45,-131.65"/>
<polygon fill="midnightblue" stroke="midnightblue" points="102.98,-167.13 113.51,-168.32 106.02,-160.83 102.98,-167.13"/>
</g>
<!-- Node4 -->
<g id="node4" class="node">
<title>Node4</title>
<g id="a_node4"><a xlink:href="class_psk_spline.html" target="_top" xlink:title=" ">
<polygon fill="white" stroke="black" points="57.5,-112.5 57.5,-131.5 121.5,-131.5 121.5,-112.5 57.5,-112.5"/>
<text text-anchor="middle" x="89.5" y="-119.5" font-family="Helvetica,sans-Serif" font-size="10.00">PskSpline</text>
</a>
</g>
</g>
<!-- Node1&#45;&gt;Node4 -->
<g id="edge3" class="edge">
<title>Node1&#45;&gt;Node4</title>
<path fill="none" stroke="midnightblue" d="M118.39,-160.14C111.07,-150.74 102.26,-139.4 96.31,-131.75"/>
<polygon fill="midnightblue" stroke="midnightblue" points="115.66,-162.34 124.56,-168.08 121.19,-158.04 115.66,-162.34"/>
</g>
<!-- Node5 -->
<g id="node5" class="node">
<title>Node5</title>
<g id="a_node5"><a xlink:href="class_simple_p_s_k.html" target="_top" xlink:title=" ">
<polygon fill="white" stroke="black" points="140,-112.5 140,-131.5 209,-131.5 209,-112.5 140,-112.5"/>
<text text-anchor="middle" x="174.5" y="-119.5" font-family="Helvetica,sans-Serif" font-size="10.00">SimplePSK</text>
</a>
</g>
</g>
<!-- Node1&#45;&gt;Node5 -->
<g id="edge4" class="edge">
<title>Node1&#45;&gt;Node5</title>
<path fill="none" stroke="midnightblue" d="M144.92,-160.14C152.41,-150.74 161.44,-139.4 167.53,-131.75"/>
<polygon fill="midnightblue" stroke="midnightblue" points="142.09,-158.08 138.6,-168.08 147.57,-162.44 142.09,-158.08"/>
</g>
<!-- Node6 -->
<g id="node6" class="node">
<title>Node6</title>
<g id="a_node6"><a xlink:href="class_v_g_morig.html" target="_top" xlink:title=" ">
<polygon fill="white" stroke="black" points="227,-112.5 227,-131.5 286,-131.5 286,-112.5 227,-112.5"/>
<text text-anchor="middle" x="256.5" y="-119.5" font-family="Helvetica,sans-Serif" font-size="10.00">VGMorig</text>
</a>
</g>
</g>
<!-- Node1&#45;&gt;Node6 -->
<g id="edge5" class="edge">
<title>Node1&#45;&gt;Node6</title>
<path fill="none" stroke="midnightblue" d="M160.74,-164.37C184.15,-154.26 216.34,-140.35 236.79,-131.52"/>
<polygon fill="midnightblue" stroke="midnightblue" points="159.1,-161.26 151.31,-168.44 161.87,-167.69 159.1,-161.26"/>
</g>
<!-- Node3 -->
<g id="node3" class="node">
<title>Node3</title>
<g id="a_node3"><a xlink:href="class_b_c_b.html" target="_top" xlink:title=" ">
<polygon fill="white" stroke="black" points="1,-56.5 1,-75.5 38,-75.5 38,-56.5 1,-56.5"/>
<text text-anchor="middle" x="19.5" y="-63.5" font-family="Helvetica,sans-Serif" font-size="10.00">BCB</text>
</a>
</g>
</g>
<!-- Node2&#45;&gt;Node3 -->
<g id="edge2" class="edge">
<title>Node2&#45;&gt;Node3</title>
<path fill="none" stroke="midnightblue" d="M19.5,-101.8C19.5,-92.91 19.5,-82.78 19.5,-75.75"/>
<polygon fill="midnightblue" stroke="midnightblue" points="16,-102.08 19.5,-112.08 23,-102.08 16,-102.08"/>
</g>
<!-- Node7 -->
<g id="node7" class="node">
<title>Node7</title>
<g id="a_node7"><a xlink:href="class_v_g_m.html" target="_top" xlink:title=" ">
<polygon fill="white" stroke="black" points="236.5,-56.5 236.5,-75.5 276.5,-75.5 276.5,-56.5 236.5,-56.5"/>
<text text-anchor="middle" x="256.5" y="-63.5" font-family="Helvetica,sans-Serif" font-size="10.00">VGM</text>
</a>
</g>
</g>
<!-- Node6&#45;&gt;Node7 -->
<g id="edge6" class="edge">
<title>Node6&#45;&gt;Node7</title>
<path fill="none" stroke="midnightblue" d="M256.5,-101.8C256.5,-92.91 256.5,-82.78 256.5,-75.75"/>
<polygon fill="midnightblue" stroke="midnightblue" points="253,-102.08 256.5,-112.08 260,-102.08 253,-102.08"/>
</g>
<!-- Node8 -->
<g id="node8" class="node">
<title>Node8</title>
<g id="a_node8"><a xlink:href="class_v_g_b.html" target="_top" xlink:title=" ">
<polygon fill="white" stroke="black" points="237.5,-0.5 237.5,-19.5 275.5,-19.5 275.5,-0.5 237.5,-0.5"/>
<text text-anchor="middle" x="256.5" y="-7.5" font-family="Helvetica,sans-Serif" font-size="10.00">VGB</text>
</a>
</g>
</g>
<!-- Node7&#45;&gt;Node8 -->
<g id="edge7" class="edge">
<title>Node7&#45;&gt;Node8</title>
<path fill="none" stroke="midnightblue" d="M256.5,-45.8C256.5,-36.91 256.5,-26.78 256.5,-19.75"/>
<polygon fill="midnightblue" stroke="midnightblue" points="253,-46.08 256.5,-56.08 260,-46.08 253,-46.08"/>
</g>
</g>
</svg>
