<?xml version="1.0" encoding="UTF-8" standalone="no"?>
<!DOCTYPE svg PUBLIC "-//W3C//DTD SVG 1.1//EN"
 "http://www.w3.org/Graphics/SVG/1.1/DTD/svg11.dtd">
<!-- Generated by graphviz version 2.42.3 (0)
 -->
<!-- Title: MeshAdaptPUMIDrvr Pages: 1 -->
<svg width="157pt" height="185pt"
 viewBox="0.00 0.00 157.00 185.00" xmlns="http://www.w3.org/2000/svg" xmlns:xlink="http://www.w3.org/1999/xlink">
<g id="graph0" class="graph" transform="scale(1 1) rotate(0) translate(4 181)">
<title>MeshAdaptPUMIDrvr</title>
<polygon fill="white" stroke="transparent" points="-4,4 -4,-181 153,-181 153,4 -4,4"/>
<!-- Node1 -->
<g id="node1" class="node">
<title>Node1</title>
<g id="a_node1"><a xlink:title="Class that handles the interface between SCOREC tools and Proteus.">
<polygon fill="#bfbfbf" stroke="black" points="0,-0.5 0,-19.5 118,-19.5 118,-0.5 0,-0.5"/>
<text text-anchor="middle" x="59" y="-7.5" font-family="Helvetica,sans-Serif" font-size="10.00">MeshAdaptPUMIDrvr</text>
</a>
</g>
</g>
<!-- Node2 -->
<g id="node2" class="node">
<title>Node2</title>
<g id="a_node2"><a xlink:title="STL class.">
<polygon fill="white" stroke="#bfbfbf" points="26.5,-89.5 26.5,-108.5 91.5,-108.5 91.5,-89.5 26.5,-89.5"/>
<text text-anchor="middle" x="59" y="-96.5" font-family="Helvetica,sans-Serif" font-size="10.00">std::string</text>
</a>
</g>
</g>
<!-- Node2&#45;&gt;Node1 -->
<g id="edge1" class="edge">
<title>Node2&#45;&gt;Node1</title>
<path fill="none" stroke="#9a32cd" stroke-dasharray="5,2" d="M59,-79.19C59,-60.74 59,-33.41 59,-19.62"/>
<polygon fill="#9a32cd" stroke="#9a32cd" points="55.5,-79.34 59,-89.34 62.5,-79.34 55.5,-79.34"/>
<text text-anchor="middle" x="104" y="-63" font-family="Helvetica,sans-Serif" font-size="10.00"> logging_config</text>
<text text-anchor="middle" x="104" y="-52" font-family="Helvetica,sans-Serif" font-size="10.00">adapt_type_config</text>
<text text-anchor="middle" x="104" y="-41" font-family="Helvetica,sans-Serif" font-size="10.00">size_field_config</text>
</g>
<!-- Node3 -->
<g id="node3" class="node">
<title>Node3</title>
<g id="a_node3"><a xlink:title="STL class.">
<polygon fill="white" stroke="#bfbfbf" points="7,-146.5 7,-176.5 111,-176.5 111,-146.5 7,-146.5"/>
<text text-anchor="start" x="15" y="-164.5" font-family="Helvetica,sans-Serif" font-size="10.00">std::basic_string&lt;</text>
<text text-anchor="middle" x="59" y="-153.5" font-family="Helvetica,sans-Serif" font-size="10.00"> char &gt;</text>
</a>
</g>
</g>
<!-- Node3&#45;&gt;Node2 -->
<g id="edge2" class="edge">
<title>Node3&#45;&gt;Node2</title>
<path fill="none" stroke="midnightblue" d="M59,-136.35C59,-126.51 59,-115.78 59,-108.54"/>
<polygon fill="midnightblue" stroke="midnightblue" points="55.5,-136.47 59,-146.47 62.5,-136.47 55.5,-136.47"/>
</g>
</g>
</svg>
