<?xml version="1.0" encoding="UTF-8" standalone="no"?>
<!DOCTYPE svg PUBLIC "-//W3C//DTD SVG 1.1//EN"
 "http://www.w3.org/Graphics/SVG/1.1/DTD/svg11.dtd">
<!-- Generated by graphviz version 2.42.3 (0)
 -->
<!-- Title: proteus::RDLS&lt; CompKernelType, nSpace, nQuadraturePoints_element, nDOF_mesh_trial_element, nDOF_trial_element, nDOF_test_element, nQuadraturePoints_elementBoundary &gt; Pages: 1 -->
<svg width="774pt" height="112pt"
 viewBox="0.00 0.00 774.00 111.50" xmlns="http://www.w3.org/2000/svg" xmlns:xlink="http://www.w3.org/1999/xlink">
<g id="graph0" class="graph" transform="scale(1 1) rotate(0) translate(4 107.5)">
<title>proteus::RDLS&lt; CompKernelType, nSpace, nQuadraturePoints_element, nDOF_mesh_trial_element, nDOF_trial_element, nDOF_test_element, nQuadraturePoints_elementBoundary &gt;</title>
<polygon fill="white" stroke="transparent" points="-4,4 -4,-107.5 770,-107.5 770,4 -4,4"/>
<!-- Node1 -->
<g id="node1" class="node">
<title>Node1</title>
<g id="a_node1"><a xlink:title=" ">
<polygon fill="#bfbfbf" stroke="black" points="543,-13 543,-76 766,-76 766,-13 543,-13"/>
<text text-anchor="start" x="551" y="-64" font-family="Helvetica,sans-Serif" font-size="10.00">proteus::RDLS&lt; CompKernel</text>
<text text-anchor="start" x="551" y="-53" font-family="Helvetica,sans-Serif" font-size="10.00">Type, nSpace, nQuadraturePoints</text>
<text text-anchor="start" x="551" y="-42" font-family="Helvetica,sans-Serif" font-size="10.00">_element, nDOF_mesh_trial_element,</text>
<text text-anchor="start" x="551" y="-31" font-family="Helvetica,sans-Serif" font-size="10.00"> nDOF_trial_element, nDOF_test_element,</text>
<text text-anchor="middle" x="654.5" y="-20" font-family="Helvetica,sans-Serif" font-size="10.00"> nQuadraturePoints_elementBoundary &gt;</text>
</a>
</g>
</g>
<!-- Node2 -->
<g id="node2" class="node">
<title>Node2</title>
<g id="a_node2"><a xlink:href="classproteus_1_1_r_d_l_s__base.html" target="_top" xlink:title=" ">
<polygon fill="white" stroke="black" points="333.5,-72 333.5,-91 446.5,-91 446.5,-72 333.5,-72"/>
<text text-anchor="middle" x="390" y="-79" font-family="Helvetica,sans-Serif" font-size="10.00">proteus::RDLS_base</text>
</a>
</g>
</g>
<!-- Node2&#45;&gt;Node1 -->
<g id="edge1" class="edge">
<title>Node2&#45;&gt;Node1</title>
<path fill="none" stroke="midnightblue" d="M456.78,-72.23C482.83,-68.56 513.5,-64.23 542.77,-60.11"/>
<polygon fill="midnightblue" stroke="midnightblue" points="456.08,-68.79 446.67,-73.65 457.06,-75.72 456.08,-68.79"/>
</g>
<!-- Node3 -->
<g id="node3" class="node">
<title>Node3</title>
<g id="a_node3"><a xlink:title=" ">
<polygon fill="white" stroke="#bfbfbf" points="0,-72 0,-91 134,-91 134,-72 0,-72"/>
<text text-anchor="middle" x="67" y="-79" font-family="Helvetica,sans-Serif" font-size="10.00">std::valarray&lt; double &gt;</text>
</a>
</g>
</g>
<!-- Node3&#45;&gt;Node2 -->
<g id="edge2" class="edge">
<title>Node3&#45;&gt;Node2</title>
<path fill="none" stroke="#9a32cd" stroke-dasharray="5,2" d="M144.36,-81.5C202.48,-81.5 281.13,-81.5 333.39,-81.5"/>
<polygon fill="#9a32cd" stroke="#9a32cd" points="144.12,-78 134.12,-81.5 144.12,-85 144.12,-78"/>
<text text-anchor="start" x="152" y="-95.5" font-family="Helvetica,sans-Serif" font-size="10.00"> weighted_lumped_mass</text>
<text text-anchor="middle" x="213" y="-84.5" font-family="Helvetica,sans-Serif" font-size="10.00">_matrix</text>
</g>
<!-- Node4 -->
<g id="node4" class="node">
<title>Node4</title>
<g id="a_node4"><a xlink:href="classequivalent__polynomials_1_1_generalized_functions__mix.html" target="_top" xlink:title=" ">
<polygon fill="white" stroke="black" points="292,-0.5 292,-52.5 488,-52.5 488,-0.5 292,-0.5"/>
<text text-anchor="start" x="300" y="-40.5" font-family="Helvetica,sans-Serif" font-size="10.00">equivalent_polynomials</text>
<text text-anchor="start" x="300" y="-29.5" font-family="Helvetica,sans-Serif" font-size="10.00">::GeneralizedFunctions</text>
<text text-anchor="start" x="300" y="-18.5" font-family="Helvetica,sans-Serif" font-size="10.00">_mix&lt; nSpace, 1, nQuadraturePoints</text>
<text text-anchor="middle" x="390" y="-7.5" font-family="Helvetica,sans-Serif" font-size="10.00">_element &gt;</text>
</a>
</g>
</g>
<!-- Node4&#45;&gt;Node1 -->
<g id="edge3" class="edge">
<title>Node4&#45;&gt;Node1</title>
<path fill="none" stroke="#9a32cd" stroke-dasharray="5,2" d="M498.39,-33.86C512.96,-34.86 527.94,-35.89 542.57,-36.89"/>
<polygon fill="#9a32cd" stroke="#9a32cd" points="498.59,-30.37 488.37,-33.18 498.11,-37.35 498.59,-30.37"/>
<text text-anchor="middle" x="515.5" y="-49.5" font-family="Helvetica,sans-Serif" font-size="10.00"> gfu</text>
<text text-anchor="middle" x="515.5" y="-38.5" font-family="Helvetica,sans-Serif" font-size="10.00">gf</text>
</g>
</g>
</svg>
