<?xml version="1.0" encoding="UTF-8" standalone="no"?>
<!DOCTYPE svg PUBLIC "-//W3C//DTD SVG 1.1//EN"
 "http://www.w3.org/Graphics/SVG/1.1/DTD/svg11.dtd">
<!-- Generated by graphviz version 2.42.3 (0)
 -->
<!-- Title: proteus::cppVOS&lt; CompKernelType, nSpace, nQuadraturePoints_element, nDOF_mesh_trial_element, nDOF_trial_element, nDOF_test_element, nQuadraturePoints_elementBoundary &gt; Pages: 1 -->
<svg width="246pt" height="328pt"
 viewBox="0.00 0.00 245.50 328.00" xmlns="http://www.w3.org/2000/svg" xmlns:xlink="http://www.w3.org/1999/xlink">
<g id="graph0" class="graph" transform="scale(1 1) rotate(0) translate(4 324)">
<title>proteus::cppVOS&lt; CompKernelType, nSpace, nQuadraturePoints_element, nDOF_mesh_trial_element, nDOF_trial_element, nDOF_test_element, nQuadraturePoints_elementBoundary &gt;</title>
<polygon fill="white" stroke="transparent" points="-4,4 -4,-324 241.5,-324 241.5,4 -4,4"/>
<!-- Node1 -->
<g id="node1" class="node">
<title>Node1</title>
<g id="a_node1"><a xlink:title=" ">
<polygon fill="#bfbfbf" stroke="black" points="0,-0.5 0,-63.5 223,-63.5 223,-0.5 0,-0.5"/>
<text text-anchor="start" x="8" y="-51.5" font-family="Helvetica,sans-Serif" font-size="10.00">proteus::cppVOS&lt; CompKernel</text>
<text text-anchor="start" x="8" y="-40.5" font-family="Helvetica,sans-Serif" font-size="10.00">Type, nSpace, nQuadraturePoints</text>
<text text-anchor="start" x="8" y="-29.5" font-family="Helvetica,sans-Serif" font-size="10.00">_element, nDOF_mesh_trial_element,</text>
<text text-anchor="start" x="8" y="-18.5" font-family="Helvetica,sans-Serif" font-size="10.00"> nDOF_trial_element, nDOF_test_element,</text>
<text text-anchor="middle" x="111.5" y="-7.5" font-family="Helvetica,sans-Serif" font-size="10.00"> nQuadraturePoints_elementBoundary &gt;</text>
</a>
</g>
</g>
<!-- Node2 -->
<g id="node2" class="node">
<title>Node2</title>
<g id="a_node2"><a xlink:href="classproteus_1_1cpp_v_o_s3_p__base.html" target="_top" xlink:title=" ">
<polygon fill="white" stroke="black" points="43,-101.5 43,-120.5 180,-120.5 180,-101.5 43,-101.5"/>
<text text-anchor="middle" x="111.5" y="-108.5" font-family="Helvetica,sans-Serif" font-size="10.00">proteus::cppVOS3P_base</text>
</a>
</g>
</g>
<!-- Node2&#45;&gt;Node1 -->
<g id="edge1" class="edge">
<title>Node2&#45;&gt;Node1</title>
<path fill="none" stroke="midnightblue" d="M111.5,-91.36C111.5,-83.01 111.5,-72.94 111.5,-63.53"/>
<polygon fill="midnightblue" stroke="midnightblue" points="108,-91.47 111.5,-101.47 115,-91.47 108,-91.47"/>
</g>
<!-- Node3 -->
<g id="node3" class="node">
<title>Node3</title>
<g id="a_node3"><a xlink:title=" ">
<polygon fill="white" stroke="#bfbfbf" points="44.5,-300.5 44.5,-319.5 178.5,-319.5 178.5,-300.5 44.5,-300.5"/>
<text text-anchor="middle" x="111.5" y="-307.5" font-family="Helvetica,sans-Serif" font-size="10.00">std::valarray&lt; double &gt;</text>
</a>
</g>
</g>
<!-- Node3&#45;&gt;Node2 -->
<g id="edge2" class="edge">
<title>Node3&#45;&gt;Node2</title>
<path fill="none" stroke="#9a32cd" stroke-dasharray="5,2" d="M111.5,-290.16C111.5,-248.58 111.5,-150.28 111.5,-120.62"/>
<polygon fill="#9a32cd" stroke="#9a32cd" points="108,-290.28 111.5,-300.28 115,-290.28 108,-290.28"/>
<text text-anchor="middle" x="174.5" y="-274" font-family="Helvetica,sans-Serif" font-size="10.00"> boundary_integral</text>
<text text-anchor="middle" x="174.5" y="-263" font-family="Helvetica,sans-Serif" font-size="10.00">psi</text>
<text text-anchor="middle" x="174.5" y="-252" font-family="Helvetica,sans-Serif" font-size="10.00">Rpos</text>
<text text-anchor="start" x="111.5" y="-241" font-family="Helvetica,sans-Serif" font-size="10.00">porosity_free</text>
<text text-anchor="middle" x="174.5" y="-230" font-family="Helvetica,sans-Serif" font-size="10.00">_dof</text>
<text text-anchor="middle" x="174.5" y="-219" font-family="Helvetica,sans-Serif" font-size="10.00">u_free_dof_old</text>
<text text-anchor="start" x="111.5" y="-208" font-family="Helvetica,sans-Serif" font-size="10.00">global_entropy</text>
<text text-anchor="middle" x="174.5" y="-197" font-family="Helvetica,sans-Serif" font-size="10.00">_residual</text>
<text text-anchor="middle" x="174.5" y="-186" font-family="Helvetica,sans-Serif" font-size="10.00">FluxCorrectionMatrix</text>
<text text-anchor="middle" x="174.5" y="-175" font-family="Helvetica,sans-Serif" font-size="10.00">TransposeTransportMatrix</text>
<text text-anchor="middle" x="174.5" y="-164" font-family="Helvetica,sans-Serif" font-size="10.00">TransportMatrix</text>
<text text-anchor="middle" x="174.5" y="-153" font-family="Helvetica,sans-Serif" font-size="10.00">Rneg</text>
<text text-anchor="middle" x="174.5" y="-142" font-family="Helvetica,sans-Serif" font-size="10.00">...</text>
</g>
</g>
</svg>
