<?xml version="1.0" encoding="UTF-8" standalone="no"?>
<!DOCTYPE svg PUBLIC "-//W3C//DTD SVG 1.1//EN"
 "http://www.w3.org/Graphics/SVG/1.1/DTD/svg11.dtd">
<!-- Generated by graphviz version 2.42.3 (0)
 -->
<!-- Title: cppRigidBody Pages: 1 -->
<svg width="789pt" height="293pt"
 viewBox="0.00 0.00 789.00 292.50" xmlns="http://www.w3.org/2000/svg" xmlns:xlink="http://www.w3.org/1999/xlink">
<g id="graph0" class="graph" transform="scale(1 1) rotate(0) translate(4 288.5)">
<title>cppRigidBody</title>
<polygon fill="white" stroke="transparent" points="-4,4 -4,-288.5 785,-288.5 785,4 -4,4"/>
<!-- Node1 -->
<g id="node1" class="node">
<title>Node1</title>
<g id="a_node1"><a xlink:title=" ">
<polygon fill="#bfbfbf" stroke="black" points="698,-116 698,-135 781,-135 781,-116 698,-116"/>
<text text-anchor="middle" x="739.5" y="-123" font-family="Helvetica,sans-Serif" font-size="10.00">cppRigidBody</text>
</a>
</g>
</g>
<!-- Node2 -->
<g id="node2" class="node">
<title>Node2</title>
<g id="a_node2"><a xlink:href="classcpp_system.html" target="_top" xlink:title=" ">
<polygon fill="white" stroke="black" points="451.5,-227 451.5,-246 522.5,-246 522.5,-227 451.5,-227"/>
<text text-anchor="middle" x="487" y="-234" font-family="Helvetica,sans-Serif" font-size="10.00">cppSystem</text>
</a>
</g>
</g>
<!-- Node2&#45;&gt;Node1 -->
<g id="edge1" class="edge">
<title>Node2&#45;&gt;Node1</title>
<path fill="none" stroke="#9a32cd" stroke-dasharray="5,2" d="M532.68,-239.95C573.91,-241 635.32,-236.96 680,-209.5 709.07,-191.63 727.44,-153.32 734.81,-135.28"/>
<polygon fill="#9a32cd" stroke="#9a32cd" points="532.78,-236.45 522.66,-239.59 532.53,-243.45 532.78,-236.45"/>
<text text-anchor="middle" x="636.5" y="-239.5" font-family="Helvetica,sans-Serif" font-size="10.00"> system</text>
</g>
<!-- Node3 -->
<g id="node3" class="node">
<title>Node3</title>
<g id="a_node3"><a xlink:title=" ">
<polygon fill="white" stroke="#bfbfbf" points="141,-265 141,-284 302,-284 302,-265 141,-265"/>
<text text-anchor="middle" x="221.5" y="-272" font-family="Helvetica,sans-Serif" font-size="10.00">std::shared_ptr&lt; ChSystem &gt;</text>
</a>
</g>
</g>
<!-- Node3&#45;&gt;Node2 -->
<g id="edge2" class="edge">
<title>Node3&#45;&gt;Node2</title>
<path fill="none" stroke="#9a32cd" stroke-dasharray="5,2" d="M298.86,-263.49C349.21,-256.23 412.75,-247.06 451.33,-241.5"/>
<polygon fill="#9a32cd" stroke="#9a32cd" points="298.05,-260.07 288.65,-264.96 299.05,-267 298.05,-260.07"/>
<text text-anchor="middle" x="350.5" y="-262.5" font-family="Helvetica,sans-Serif" font-size="10.00"> system</text>
</g>
<!-- Node4 -->
<g id="node4" class="node">
<title>Node4</title>
<g id="a_node4"><a xlink:title="STL class.">
<polygon fill="white" stroke="#bfbfbf" points="189,-227 189,-246 254,-246 254,-227 189,-227"/>
<text text-anchor="middle" x="221.5" y="-234" font-family="Helvetica,sans-Serif" font-size="10.00">std::string</text>
</a>
</g>
</g>
<!-- Node4&#45;&gt;Node2 -->
<g id="edge3" class="edge">
<title>Node4&#45;&gt;Node2</title>
<path fill="none" stroke="#9a32cd" stroke-dasharray="5,2" d="M264.16,-236.5C315.79,-236.5 402.82,-236.5 451.09,-236.5"/>
<polygon fill="#9a32cd" stroke="#9a32cd" points="264.02,-233 254.02,-236.5 264.02,-240 264.02,-233"/>
<text text-anchor="middle" x="350.5" y="-239.5" font-family="Helvetica,sans-Serif" font-size="10.00"> directory</text>
</g>
<!-- Node5 -->
<g id="node5" class="node">
<title>Node5</title>
<g id="a_node5"><a xlink:title="STL class.">
<polygon fill="white" stroke="#bfbfbf" points="0,-221.5 0,-251.5 104,-251.5 104,-221.5 0,-221.5"/>
<text text-anchor="start" x="8" y="-239.5" font-family="Helvetica,sans-Serif" font-size="10.00">std::basic_string&lt;</text>
<text text-anchor="middle" x="52" y="-228.5" font-family="Helvetica,sans-Serif" font-size="10.00"> char &gt;</text>
</a>
</g>
</g>
<!-- Node5&#45;&gt;Node4 -->
<g id="edge4" class="edge">
<title>Node5&#45;&gt;Node4</title>
<path fill="none" stroke="midnightblue" d="M114.42,-236.5C139.68,-236.5 167.88,-236.5 188.84,-236.5"/>
<polygon fill="midnightblue" stroke="midnightblue" points="114.17,-233 104.17,-236.5 114.17,-240 114.17,-233"/>
</g>
<!-- Node6 -->
<g id="node6" class="node">
<title>Node6</title>
<g id="a_node6"><a xlink:title=" ">
<polygon fill="white" stroke="#bfbfbf" points="146.5,-177.5 146.5,-207.5 296.5,-207.5 296.5,-177.5 146.5,-177.5"/>
<text text-anchor="start" x="154.5" y="-195.5" font-family="Helvetica,sans-Serif" font-size="10.00">std::shared_ptr&lt; ChSystem</text>
<text text-anchor="middle" x="221.5" y="-184.5" font-family="Helvetica,sans-Serif" font-size="10.00">SMC &gt;</text>
</a>
</g>
</g>
<!-- Node6&#45;&gt;Node2 -->
<g id="edge5" class="edge">
<title>Node6&#45;&gt;Node2</title>
<path fill="none" stroke="#9a32cd" stroke-dasharray="5,2" d="M306.57,-206.54C355.55,-214.72 414.69,-224.59 451.32,-230.71"/>
<polygon fill="#9a32cd" stroke="#9a32cd" points="307.04,-203.07 296.6,-204.87 305.89,-209.97 307.04,-203.07"/>
<text text-anchor="middle" x="350.5" y="-220.5" font-family="Helvetica,sans-Serif" font-size="10.00"> systemSMC</text>
</g>
<!-- Node7 -->
<g id="node7" class="node">
<title>Node7</title>
<g id="a_node7"><a xlink:title=" ">
<polygon fill="white" stroke="#bfbfbf" points="399,-189 399,-208 575,-208 575,-189 399,-189"/>
<text text-anchor="middle" x="487" y="-196" font-family="Helvetica,sans-Serif" font-size="10.00">std::shared_ptr&lt; ChLinkSpring &gt;</text>
</a>
</g>
</g>
<!-- Node7&#45;&gt;Node1 -->
<g id="edge6" class="edge">
<title>Node7&#45;&gt;Node1</title>
<path fill="none" stroke="#9a32cd" stroke-dasharray="5,2" d="M585.33,-196.34C616.55,-192.92 650.63,-186.21 680,-173.5 700.5,-164.63 719.57,-146.38 730.07,-135.11"/>
<polygon fill="#9a32cd" stroke="#9a32cd" points="584.91,-192.86 575.3,-197.34 585.6,-199.83 584.91,-192.86"/>
<text text-anchor="middle" x="636.5" y="-197.5" font-family="Helvetica,sans-Serif" font-size="10.00"> spring</text>
</g>
<!-- Node8 -->
<g id="node8" class="node">
<title>Node8</title>
<g id="a_node8"><a xlink:title=" ">
<polygon fill="white" stroke="#bfbfbf" points="411.5,-137 411.5,-156 562.5,-156 562.5,-137 411.5,-137"/>
<text text-anchor="middle" x="487" y="-144" font-family="Helvetica,sans-Serif" font-size="10.00">std::vector&lt; ChVector&lt;&gt; &gt;</text>
</a>
</g>
</g>
<!-- Node8&#45;&gt;Node1 -->
<g id="edge7" class="edge">
<title>Node8&#45;&gt;Node1</title>
<path fill="none" stroke="#9a32cd" stroke-dasharray="5,2" d="M572.83,-139.39C615.05,-135.85 664.13,-131.73 697.85,-128.91"/>
<polygon fill="#9a32cd" stroke="#9a32cd" points="572.49,-135.9 562.82,-140.23 573.08,-142.88 572.49,-135.9"/>
<text text-anchor="middle" x="636.5" y="-161.5" font-family="Helvetica,sans-Serif" font-size="10.00"> trimesh_pos_last</text>
<text text-anchor="middle" x="636.5" y="-150.5" font-family="Helvetica,sans-Serif" font-size="10.00">trimesh_pos0</text>
<text text-anchor="middle" x="636.5" y="-139.5" font-family="Helvetica,sans-Serif" font-size="10.00">trimesh_pos</text>
</g>
<!-- Node9 -->
<g id="node9" class="node">
<title>Node9</title>
<g id="a_node9"><a xlink:title=" ">
<polygon fill="white" stroke="#bfbfbf" points="412.5,-99 412.5,-118 561.5,-118 561.5,-99 412.5,-99"/>
<text text-anchor="middle" x="487" y="-106" font-family="Helvetica,sans-Serif" font-size="10.00">std::shared_ptr&lt; ChBody &gt;</text>
</a>
</g>
</g>
<!-- Node9&#45;&gt;Node1 -->
<g id="edge8" class="edge">
<title>Node9&#45;&gt;Node1</title>
<path fill="none" stroke="#9a32cd" stroke-dasharray="5,2" d="M571.99,-104.2C605.7,-103.7 644.83,-104.68 680,-109.5 689.7,-110.83 700.07,-113.3 709.35,-115.92"/>
<polygon fill="#9a32cd" stroke="#9a32cd" points="571.64,-100.7 561.71,-104.4 571.78,-107.7 571.64,-100.7"/>
<text text-anchor="middle" x="636.5" y="-112.5" font-family="Helvetica,sans-Serif" font-size="10.00"> body</text>
</g>
<!-- Node10 -->
<g id="node10" class="node">
<title>Node10</title>
<g id="a_node10"><a xlink:title=" ">
<polygon fill="white" stroke="#bfbfbf" points="409,-49.5 409,-79.5 565,-79.5 565,-49.5 409,-49.5"/>
<text text-anchor="start" x="417" y="-67.5" font-family="Helvetica,sans-Serif" font-size="10.00">std::shared_ptr&lt; ChLinkLock</text>
<text text-anchor="middle" x="487" y="-56.5" font-family="Helvetica,sans-Serif" font-size="10.00">Lock &gt;</text>
</a>
</g>
</g>
<!-- Node10&#45;&gt;Node1 -->
<g id="edge9" class="edge">
<title>Node10&#45;&gt;Node1</title>
<path fill="none" stroke="#9a32cd" stroke-dasharray="5,2" d="M575.25,-67.31C608.77,-70.46 646.9,-76.64 680,-88.5 697.65,-94.83 715.51,-107.18 726.77,-115.87"/>
<polygon fill="#9a32cd" stroke="#9a32cd" points="575.28,-63.8 565.01,-66.42 574.67,-70.77 575.28,-63.8"/>
<text text-anchor="middle" x="636.5" y="-91.5" font-family="Helvetica,sans-Serif" font-size="10.00"> lock_motion</text>
</g>
<!-- Node11 -->
<g id="node11" class="node">
<title>Node11</title>
<g id="a_node11"><a xlink:title=" ">
<polygon fill="white" stroke="#bfbfbf" points="411,-0.5 411,-30.5 563,-30.5 563,-0.5 411,-0.5"/>
<text text-anchor="start" x="419" y="-18.5" font-family="Helvetica,sans-Serif" font-size="10.00">std::shared_ptr&lt; ChTriangle</text>
<text text-anchor="middle" x="487" y="-7.5" font-family="Helvetica,sans-Serif" font-size="10.00">MeshConnected &gt;</text>
</a>
</g>
</g>
<!-- Node11&#45;&gt;Node1 -->
<g id="edge10" class="edge">
<title>Node11&#45;&gt;Node1</title>
<path fill="none" stroke="#9a32cd" stroke-dasharray="5,2" d="M573.57,-20.39C608.54,-25.46 648.16,-35.37 680,-54.5 705.46,-69.8 724.81,-100.35 733.48,-115.91"/>
<polygon fill="#9a32cd" stroke="#9a32cd" points="573.74,-16.88 563.36,-19.03 572.81,-23.82 573.74,-16.88"/>
<text text-anchor="middle" x="636.5" y="-57.5" font-family="Helvetica,sans-Serif" font-size="10.00"> trimesh</text>
</g>
</g>
</svg>
