<?xml version="1.0" encoding="UTF-8" standalone="no"?>
<!DOCTYPE svg PUBLIC "-//W3C//DTD SVG 1.1//EN"
 "http://www.w3.org/Graphics/SVG/1.1/DTD/svg11.dtd">
<!-- Generated by graphviz version 2.42.3 (0)
 -->
<!-- Title: cppMultiSegmentedCable Pages: 1 -->
<svg width="1464pt" height="1112pt"
 viewBox="0.00 0.00 1464.00 1111.67" xmlns="http://www.w3.org/2000/svg" xmlns:xlink="http://www.w3.org/1999/xlink">
<g id="graph0" class="graph" transform="scale(1 1) rotate(0) translate(4 1107.67)">
<title>cppMultiSegmentedCable</title>
<polygon fill="white" stroke="transparent" points="-4,4 -4,-1107.67 1460,-1107.67 1460,4 -4,4"/>
<!-- Node1 -->
<g id="node1" class="node">
<title>Node1</title>
<g id="a_node1"><a xlink:title=" ">
<polygon fill="#bfbfbf" stroke="black" points="1314,-456.17 1314,-475.17 1456,-475.17 1456,-456.17 1314,-456.17"/>
<text text-anchor="middle" x="1385" y="-463.17" font-family="Helvetica,sans-Serif" font-size="10.00">cppMultiSegmentedCable</text>
</a>
</g>
</g>
<!-- Node2 -->
<g id="node2" class="node">
<title>Node2</title>
<g id="a_node2"><a xlink:title=" ">
<polygon fill="white" stroke="#bfbfbf" points="314,-985.67 314,-1015.67 482,-1015.67 482,-985.67 314,-985.67"/>
<text text-anchor="start" x="322" y="-1003.67" font-family="Helvetica,sans-Serif" font-size="10.00">std::vector&lt; std::shared</text>
<text text-anchor="middle" x="398" y="-992.67" font-family="Helvetica,sans-Serif" font-size="10.00">_ptr&lt; ChVector&lt; double &gt; &gt; &gt;</text>
</a>
</g>
</g>
<!-- Node2&#45;&gt;Node1 -->
<g id="edge1" class="edge">
<title>Node2&#45;&gt;Node1</title>
<path fill="none" stroke="#9a32cd" stroke-dasharray="5,2" d="M492.2,-1016.24C551.28,-1024.79 629.41,-1033.67 699,-1033.67 699,-1033.67 699,-1033.67 1111.5,-1033.67 1369.62,-1033.67 1383.42,-550.95 1384,-475.53"/>
<polygon fill="#9a32cd" stroke="#9a32cd" points="492.54,-1012.75 482.14,-1014.76 491.53,-1019.68 492.54,-1012.75"/>
<text text-anchor="middle" x="862.5" y="-1047.67" font-family="Helvetica,sans-Serif" font-size="10.00"> forces_drag</text>
<text text-anchor="middle" x="862.5" y="-1036.67" font-family="Helvetica,sans-Serif" font-size="10.00">forces_addedmass</text>
</g>
<!-- Node6 -->
<g id="node6" class="node">
<title>Node6</title>
<g id="a_node6"><a xlink:href="classcpp_cable.html" target="_top" xlink:title=" ">
<polygon fill="white" stroke="black" points="669,-705.17 669,-724.17 731,-724.17 731,-705.17 669,-705.17"/>
<text text-anchor="middle" x="700" y="-712.17" font-family="Helvetica,sans-Serif" font-size="10.00">cppCable</text>
</a>
</g>
</g>
<!-- Node2&#45;&gt;Node6 -->
<g id="edge6" class="edge">
<title>Node2&#45;&gt;Node6</title>
<path fill="none" stroke="#9a32cd" stroke-dasharray="5,2" d="M492.54,-991.3C554.68,-983.14 628.79,-969.04 651,-946.67 683.1,-914.34 695.59,-764.27 698.37,-724.41"/>
<polygon fill="#9a32cd" stroke="#9a32cd" points="491.76,-987.87 482.28,-992.61 492.65,-994.82 491.76,-987.87"/>
<text text-anchor="middle" x="589.5" y="-998.67" font-family="Helvetica,sans-Serif" font-size="10.00"> forces_drag</text>
<text text-anchor="middle" x="589.5" y="-987.67" font-family="Helvetica,sans-Serif" font-size="10.00">forces_addedmass</text>
</g>
<!-- Node3 -->
<g id="node3" class="node">
<title>Node3</title>
<g id="a_node3"><a xlink:title=" ">
<polygon fill="white" stroke="#bfbfbf" points="28.5,-985.67 28.5,-1015.67 172.5,-1015.67 172.5,-985.67 28.5,-985.67"/>
<text text-anchor="start" x="36.5" y="-1003.67" font-family="Helvetica,sans-Serif" font-size="10.00">std::shared_ptr&lt; ChVector</text>
<text text-anchor="middle" x="100.5" y="-992.67" font-family="Helvetica,sans-Serif" font-size="10.00">&lt; double &gt; &gt;</text>
</a>
</g>
</g>
<!-- Node3&#45;&gt;Node2 -->
<g id="edge2" class="edge">
<title>Node3&#45;&gt;Node2</title>
<path fill="none" stroke="#9a32cd" stroke-dasharray="5,2" d="M182.83,-1000.67C223.59,-1000.67 272.88,-1000.67 313.89,-1000.67"/>
<polygon fill="#9a32cd" stroke="#9a32cd" points="182.66,-997.17 172.66,-1000.67 182.66,-1004.17 182.66,-997.17"/>
<text text-anchor="middle" x="243.5" y="-1003.67" font-family="Helvetica,sans-Serif" font-size="10.00"> elements</text>
</g>
<!-- Node4 -->
<g id="node4" class="node">
<title>Node4</title>
<g id="a_node4"><a xlink:title=" ">
<polygon fill="white" stroke="#bfbfbf" points="1043.5,-680.67 1043.5,-710.67 1177.5,-710.67 1177.5,-680.67 1043.5,-680.67"/>
<text text-anchor="start" x="1051.5" y="-698.67" font-family="Helvetica,sans-Serif" font-size="10.00">std::vector&lt; std::shared</text>
<text text-anchor="middle" x="1110.5" y="-687.67" font-family="Helvetica,sans-Serif" font-size="10.00">_ptr&lt; cppCable &gt; &gt;</text>
</a>
</g>
</g>
<!-- Node4&#45;&gt;Node1 -->
<g id="edge3" class="edge">
<title>Node4&#45;&gt;Node1</title>
<path fill="none" stroke="#9a32cd" stroke-dasharray="5,2" d="M1187.81,-698.87C1223.91,-696.66 1265.64,-688.25 1296,-664.67 1360.14,-614.84 1378.61,-508.35 1382.89,-475.51"/>
<polygon fill="#9a32cd" stroke="#9a32cd" points="1187.62,-695.38 1177.8,-699.34 1187.95,-702.37 1187.62,-695.38"/>
<text text-anchor="middle" x="1254.5" y="-697.67" font-family="Helvetica,sans-Serif" font-size="10.00"> cables</text>
</g>
<!-- Node5 -->
<g id="node5" class="node">
<title>Node5</title>
<g id="a_node5"><a xlink:title=" ">
<polygon fill="white" stroke="#bfbfbf" points="784,-698.17 784,-717.17 941,-717.17 941,-698.17 784,-698.17"/>
<text text-anchor="middle" x="862.5" y="-705.17" font-family="Helvetica,sans-Serif" font-size="10.00">std::shared_ptr&lt; cppCable &gt;</text>
</a>
</g>
</g>
<!-- Node5&#45;&gt;Node4 -->
<g id="edge4" class="edge">
<title>Node5&#45;&gt;Node4</title>
<path fill="none" stroke="#9a32cd" stroke-dasharray="5,2" d="M951.47,-703.38C981.74,-701.9 1015.1,-700.27 1043.33,-698.9"/>
<polygon fill="#9a32cd" stroke="#9a32cd" points="951.15,-699.89 941.34,-703.87 951.49,-706.88 951.15,-699.89"/>
<text text-anchor="middle" x="983.5" y="-705.67" font-family="Helvetica,sans-Serif" font-size="10.00"> elements</text>
</g>
<!-- Node6&#45;&gt;Node5 -->
<g id="edge5" class="edge">
<title>Node6&#45;&gt;Node5</title>
<path fill="none" stroke="#9a32cd" stroke-dasharray="5,2" d="M741.54,-712.9C754.41,-712.34 769.12,-711.7 783.71,-711.06"/>
<polygon fill="#9a32cd" stroke="#9a32cd" points="741.03,-709.42 731.19,-713.35 741.33,-716.41 741.03,-709.42"/>
<text text-anchor="middle" x="757.5" y="-714.67" font-family="Helvetica,sans-Serif" font-size="10.00"> ptr</text>
</g>
<!-- Node7 -->
<g id="node7" class="node">
<title>Node7</title>
<g id="a_node7"><a xlink:title=" ">
<polygon fill="white" stroke="#bfbfbf" points="309,-602.67 309,-632.67 487,-632.67 487,-602.67 309,-602.67"/>
<text text-anchor="start" x="317" y="-620.67" font-family="Helvetica,sans-Serif" font-size="10.00">std::shared_ptr&lt; ChBeamSection</text>
<text text-anchor="middle" x="398" y="-609.67" font-family="Helvetica,sans-Serif" font-size="10.00">Cable &gt;</text>
</a>
</g>
</g>
<!-- Node7&#45;&gt;Node6 -->
<g id="edge7" class="edge">
<title>Node7&#45;&gt;Node6</title>
<path fill="none" stroke="#9a32cd" stroke-dasharray="5,2" d="M497.51,-616.14C546.44,-619.32 604.81,-629.3 651,-655.67 671.41,-667.32 686.64,-691.29 694.03,-704.82"/>
<polygon fill="#9a32cd" stroke="#9a32cd" points="497.4,-612.63 487.22,-615.57 497.01,-619.62 497.4,-612.63"/>
<text text-anchor="middle" x="589.5" y="-658.67" font-family="Helvetica,sans-Serif" font-size="10.00"> msection_cable</text>
</g>
<!-- Node8 -->
<g id="node8" class="node">
<title>Node8</title>
<g id="a_node8"><a xlink:title=" ">
<polygon fill="white" stroke="#bfbfbf" points="317.5,-891.17 317.5,-910.17 478.5,-910.17 478.5,-891.17 317.5,-891.17"/>
<text text-anchor="middle" x="398" y="-898.17" font-family="Helvetica,sans-Serif" font-size="10.00">std::shared_ptr&lt; ChSystem &gt;</text>
</a>
</g>
</g>
<!-- Node8&#45;&gt;Node1 -->
<g id="edge29" class="edge">
<title>Node8&#45;&gt;Node1</title>
<path fill="none" stroke="#9a32cd" stroke-dasharray="5,2" d="M488.72,-902.49C548.33,-903.54 628.34,-904.67 699,-904.67 699,-904.67 699,-904.67 1111.5,-904.67 1211.05,-904.67 1241.29,-860.83 1296,-777.67 1364.67,-673.29 1380.42,-515.31 1383.39,-475.19"/>
<polygon fill="#9a32cd" stroke="#9a32cd" points="488.64,-898.99 478.58,-902.31 488.52,-905.99 488.64,-898.99"/>
<text text-anchor="middle" x="862.5" y="-907.67" font-family="Helvetica,sans-Serif" font-size="10.00"> system</text>
</g>
<!-- Node8&#45;&gt;Node6 -->
<g id="edge8" class="edge">
<title>Node8&#45;&gt;Node6</title>
<path fill="none" stroke="#9a32cd" stroke-dasharray="5,2" d="M473.12,-889.43C537.75,-878.26 625.1,-859.38 651,-835.67 684.67,-804.84 695.09,-747.33 697.99,-724.43"/>
<polygon fill="#9a32cd" stroke="#9a32cd" points="472.23,-886.04 462.96,-891.16 473.4,-892.94 472.23,-886.04"/>
<text text-anchor="middle" x="589.5" y="-880.67" font-family="Helvetica,sans-Serif" font-size="10.00"> system</text>
</g>
<!-- Node9 -->
<g id="node9" class="node">
<title>Node9</title>
<g id="a_node9"><a xlink:title=" ">
<polygon fill="white" stroke="#bfbfbf" points="319,-837.67 319,-867.67 477,-867.67 477,-837.67 319,-837.67"/>
<text text-anchor="start" x="327" y="-855.67" font-family="Helvetica,sans-Serif" font-size="10.00">std::vector&lt; std::shared</text>
<text text-anchor="middle" x="398" y="-844.67" font-family="Helvetica,sans-Serif" font-size="10.00">_ptr&lt; ChNodeFEAxyzDD &gt; &gt;</text>
</a>
</g>
</g>
<!-- Node9&#45;&gt;Node1 -->
<g id="edge30" class="edge">
<title>Node9&#45;&gt;Node1</title>
<path fill="none" stroke="#9a32cd" stroke-dasharray="5,2" d="M487.16,-849.53C546.92,-847.67 627.71,-845.67 699,-845.67 699,-845.67 699,-845.67 1111.5,-845.67 1299.44,-845.67 1370.31,-534.92 1382.15,-475.44"/>
<polygon fill="#9a32cd" stroke="#9a32cd" points="486.88,-846.04 477,-849.85 487.11,-853.03 486.88,-846.04"/>
<text text-anchor="middle" x="862.5" y="-848.67" font-family="Helvetica,sans-Serif" font-size="10.00"> nodesDD</text>
</g>
<!-- Node9&#45;&gt;Node6 -->
<g id="edge9" class="edge">
<title>Node9&#45;&gt;Node6</title>
<path fill="none" stroke="#9a32cd" stroke-dasharray="5,2" d="M487.08,-835.37C494.88,-833.31 502.62,-831.08 510,-828.67 518.32,-825.95 519.64,-823.27 528,-820.67 581.1,-804.15 605.6,-829.79 651,-797.67 677.09,-779.21 691.05,-741.75 696.39,-724.18"/>
<polygon fill="#9a32cd" stroke="#9a32cd" points="486,-832.03 477.17,-837.89 487.72,-838.82 486,-832.03"/>
<text text-anchor="middle" x="589.5" y="-823.67" font-family="Helvetica,sans-Serif" font-size="10.00"> nodesDD</text>
</g>
<!-- Node10 -->
<g id="node10" class="node">
<title>Node10</title>
<g id="a_node10"><a xlink:title=" ">
<polygon fill="white" stroke="#bfbfbf" points="0,-843.17 0,-862.17 201,-862.17 201,-843.17 0,-843.17"/>
<text text-anchor="middle" x="100.5" y="-850.17" font-family="Helvetica,sans-Serif" font-size="10.00">std::shared_ptr&lt; ChNodeFEAxyzDD &gt;</text>
</a>
</g>
</g>
<!-- Node10&#45;&gt;Node9 -->
<g id="edge10" class="edge">
<title>Node10&#45;&gt;Node9</title>
<path fill="none" stroke="#9a32cd" stroke-dasharray="5,2" d="M211.58,-852.67C247.21,-852.67 285.97,-852.67 318.8,-852.67"/>
<polygon fill="#9a32cd" stroke="#9a32cd" points="211.13,-849.17 201.13,-852.67 211.13,-856.17 211.13,-849.17"/>
<text text-anchor="middle" x="243.5" y="-855.67" font-family="Helvetica,sans-Serif" font-size="10.00"> elements</text>
</g>
<!-- Node11 -->
<g id="node11" class="node">
<title>Node11</title>
<g id="a_node11"><a xlink:title=" ">
<polygon fill="white" stroke="#bfbfbf" points="322.5,-652.17 322.5,-671.17 473.5,-671.17 473.5,-652.17 322.5,-652.17"/>
<text text-anchor="middle" x="398" y="-659.17" font-family="Helvetica,sans-Serif" font-size="10.00">std::shared_ptr&lt; ChMesh &gt;</text>
</a>
</g>
</g>
<!-- Node11&#45;&gt;Node1 -->
<g id="edge31" class="edge">
<title>Node11&#45;&gt;Node1</title>
<path fill="none" stroke="#9a32cd" stroke-dasharray="5,2" d="M483.75,-656.9C543.82,-653.93 626.33,-650.67 699,-650.67 699,-650.67 699,-650.67 1111.5,-650.67 1237.59,-650.67 1348.63,-513.42 1377.01,-475.35"/>
<polygon fill="#9a32cd" stroke="#9a32cd" points="483.37,-653.42 473.56,-657.42 483.72,-660.41 483.37,-653.42"/>
<text text-anchor="middle" x="862.5" y="-653.67" font-family="Helvetica,sans-Serif" font-size="10.00"> mesh</text>
</g>
<!-- Node11&#45;&gt;Node6 -->
<g id="edge11" class="edge">
<title>Node11&#45;&gt;Node6</title>
<path fill="none" stroke="#9a32cd" stroke-dasharray="5,2" d="M483.72,-666.36C533.19,-670.6 596.41,-678.6 651,-693.67 661,-696.43 671.61,-700.89 680.3,-705"/>
<polygon fill="#9a32cd" stroke="#9a32cd" points="483.95,-662.87 473.7,-665.54 483.38,-669.85 483.95,-662.87"/>
<text text-anchor="middle" x="589.5" y="-696.67" font-family="Helvetica,sans-Serif" font-size="10.00"> mesh</text>
</g>
<!-- Node12 -->
<g id="node12" class="node">
<title>Node12</title>
<g id="a_node12"><a xlink:title=" ">
<polygon fill="white" stroke="#bfbfbf" points="310,-1064.67 310,-1094.67 486,-1094.67 486,-1064.67 310,-1064.67"/>
<text text-anchor="start" x="318" y="-1082.67" font-family="Helvetica,sans-Serif" font-size="10.00">std::vector&lt; std::shared</text>
<text text-anchor="middle" x="398" y="-1071.67" font-family="Helvetica,sans-Serif" font-size="10.00">_ptr&lt; ChElementBeamEuler &gt; &gt;</text>
</a>
</g>
</g>
<!-- Node12&#45;&gt;Node1 -->
<g id="edge32" class="edge">
<title>Node12&#45;&gt;Node1</title>
<path fill="none" stroke="#9a32cd" stroke-dasharray="5,2" d="M496.26,-1086.02C554.95,-1089.32 631.24,-1092.67 699,-1092.67 699,-1092.67 699,-1092.67 1111.5,-1092.67 1392.8,-1092.67 1386.81,-555.28 1384.37,-475.52"/>
<polygon fill="#9a32cd" stroke="#9a32cd" points="496.44,-1082.52 486.25,-1085.45 496.04,-1089.51 496.44,-1082.52"/>
<text text-anchor="middle" x="862.5" y="-1095.67" font-family="Helvetica,sans-Serif" font-size="10.00"> elemsBeamEuler</text>
</g>
<!-- Node12&#45;&gt;Node6 -->
<g id="edge12" class="edge">
<title>Node12&#45;&gt;Node6</title>
<path fill="none" stroke="#9a32cd" stroke-dasharray="5,2" d="M496.21,-1064.18C557.93,-1052.32 630,-1034.04 651,-1010.67 690.24,-967.01 697.59,-770.6 698.79,-724.41"/>
<polygon fill="#9a32cd" stroke="#9a32cd" points="495.19,-1060.81 486.01,-1066.1 496.48,-1067.69 495.19,-1060.81"/>
<text text-anchor="middle" x="589.5" y="-1059.67" font-family="Helvetica,sans-Serif" font-size="10.00"> elemsBeamEuler</text>
</g>
<!-- Node13 -->
<g id="node13" class="node">
<title>Node13</title>
<g id="a_node13"><a xlink:title=" ">
<polygon fill="white" stroke="#bfbfbf" points="23.5,-1064.67 23.5,-1094.67 177.5,-1094.67 177.5,-1064.67 23.5,-1064.67"/>
<text text-anchor="start" x="31.5" y="-1082.67" font-family="Helvetica,sans-Serif" font-size="10.00">std::shared_ptr&lt; ChElement</text>
<text text-anchor="middle" x="100.5" y="-1071.67" font-family="Helvetica,sans-Serif" font-size="10.00">BeamEuler &gt;</text>
</a>
</g>
</g>
<!-- Node13&#45;&gt;Node12 -->
<g id="edge13" class="edge">
<title>Node13&#45;&gt;Node12</title>
<path fill="none" stroke="#9a32cd" stroke-dasharray="5,2" d="M187.73,-1079.67C226.17,-1079.67 271.38,-1079.67 309.92,-1079.67"/>
<polygon fill="#9a32cd" stroke="#9a32cd" points="187.6,-1076.17 177.6,-1079.67 187.6,-1083.17 187.6,-1076.17"/>
<text text-anchor="middle" x="243.5" y="-1082.67" font-family="Helvetica,sans-Serif" font-size="10.00"> elements</text>
</g>
<!-- Node14 -->
<g id="node14" class="node">
<title>Node14</title>
<g id="a_node14"><a xlink:title=" ">
<polygon fill="white" stroke="#bfbfbf" points="322.5,-934.67 322.5,-964.67 473.5,-964.67 473.5,-934.67 322.5,-934.67"/>
<text text-anchor="start" x="330.5" y="-952.67" font-family="Helvetica,sans-Serif" font-size="10.00">std::vector&lt; std::shared</text>
<text text-anchor="middle" x="398" y="-941.67" font-family="Helvetica,sans-Serif" font-size="10.00">_ptr&lt; ChNodeFEAxyzD &gt; &gt;</text>
</a>
</g>
</g>
<!-- Node14&#45;&gt;Node1 -->
<g id="edge34" class="edge">
<title>Node14&#45;&gt;Node1</title>
<path fill="none" stroke="#9a32cd" stroke-dasharray="5,2" d="M483.74,-955.73C543.8,-959.51 626.3,-963.67 699,-963.67 699,-963.67 699,-963.67 1111.5,-963.67 1210.05,-963.67 1242.67,-923.54 1296,-840.67 1377.43,-714.14 1383.7,-520.35 1384.02,-475.27"/>
<polygon fill="#9a32cd" stroke="#9a32cd" points="483.75,-952.23 473.54,-955.08 483.3,-959.21 483.75,-952.23"/>
<text text-anchor="middle" x="862.5" y="-966.67" font-family="Helvetica,sans-Serif" font-size="10.00"> nodes</text>
</g>
<!-- Node14&#45;&gt;Node6 -->
<g id="edge14" class="edge">
<title>Node14&#45;&gt;Node6</title>
<path fill="none" stroke="#9a32cd" stroke-dasharray="5,2" d="M483.74,-939.95C547.26,-930.98 627.16,-915.56 651,-892.67 699.95,-845.68 700.75,-754.45 699.57,-724.47"/>
<polygon fill="#9a32cd" stroke="#9a32cd" points="483.13,-936.5 473.7,-941.34 484.08,-943.44 483.13,-936.5"/>
<text text-anchor="middle" x="589.5" y="-934.67" font-family="Helvetica,sans-Serif" font-size="10.00"> nodes</text>
</g>
<!-- Node15 -->
<g id="node15" class="node">
<title>Node15</title>
<g id="a_node15"><a xlink:title=" ">
<polygon fill="white" stroke="#bfbfbf" points="3.5,-940.17 3.5,-959.17 197.5,-959.17 197.5,-940.17 3.5,-940.17"/>
<text text-anchor="middle" x="100.5" y="-947.17" font-family="Helvetica,sans-Serif" font-size="10.00">std::shared_ptr&lt; ChNodeFEAxyzD &gt;</text>
</a>
</g>
</g>
<!-- Node15&#45;&gt;Node14 -->
<g id="edge15" class="edge">
<title>Node15&#45;&gt;Node14</title>
<path fill="none" stroke="#9a32cd" stroke-dasharray="5,2" d="M207.91,-949.67C245.81,-949.67 287.65,-949.67 322.33,-949.67"/>
<polygon fill="#9a32cd" stroke="#9a32cd" points="207.85,-946.17 197.85,-949.67 207.85,-953.17 207.85,-946.17"/>
<text text-anchor="middle" x="243.5" y="-952.67" font-family="Helvetica,sans-Serif" font-size="10.00"> elements</text>
</g>
<!-- Node16 -->
<g id="node16" class="node">
<title>Node16</title>
<g id="a_node16"><a xlink:title=" ">
<polygon fill="white" stroke="#bfbfbf" points="286,-788.67 286,-818.67 510,-818.67 510,-788.67 286,-788.67"/>
<text text-anchor="start" x="294" y="-806.67" font-family="Helvetica,sans-Serif" font-size="10.00">std::vector&lt; std::shared</text>
<text text-anchor="middle" x="398" y="-795.67" font-family="Helvetica,sans-Serif" font-size="10.00">_ptr&lt; ChLoad&lt; MyLoaderTriangular &gt; &gt; &gt;</text>
</a>
</g>
</g>
<!-- Node16&#45;&gt;Node6 -->
<g id="edge16" class="edge">
<title>Node16&#45;&gt;Node6</title>
<path fill="none" stroke="#9a32cd" stroke-dasharray="5,2" d="M508.65,-786.99C570.4,-777.08 637.77,-765.21 651,-758.67 667.62,-750.45 682.64,-734.7 691.3,-724.45"/>
<polygon fill="#9a32cd" stroke="#9a32cd" points="507.72,-783.59 498.4,-788.63 508.83,-790.51 507.72,-783.59"/>
<text text-anchor="middle" x="589.5" y="-785.67" font-family="Helvetica,sans-Serif" font-size="10.00"> elems_loads_triangular</text>
</g>
<!-- Node17 -->
<g id="node17" class="node">
<title>Node17</title>
<g id="a_node17"><a xlink:title=" ">
<polygon fill="white" stroke="#bfbfbf" points="27.5,-788.67 27.5,-818.67 173.5,-818.67 173.5,-788.67 27.5,-788.67"/>
<text text-anchor="start" x="35.5" y="-806.67" font-family="Helvetica,sans-Serif" font-size="10.00">std::shared_ptr&lt; ChLoad</text>
<text text-anchor="middle" x="100.5" y="-795.67" font-family="Helvetica,sans-Serif" font-size="10.00">&lt; MyLoaderTriangular &gt; &gt;</text>
</a>
</g>
</g>
<!-- Node17&#45;&gt;Node16 -->
<g id="edge17" class="edge">
<title>Node17&#45;&gt;Node16</title>
<path fill="none" stroke="#9a32cd" stroke-dasharray="5,2" d="M183.84,-803.67C215.39,-803.67 251.91,-803.67 285.72,-803.67"/>
<polygon fill="#9a32cd" stroke="#9a32cd" points="183.79,-800.17 173.79,-803.67 183.79,-807.17 183.79,-800.17"/>
<text text-anchor="middle" x="243.5" y="-806.67" font-family="Helvetica,sans-Serif" font-size="10.00"> elements</text>
</g>
<!-- Node18 -->
<g id="node18" class="node">
<title>Node18</title>
<g id="a_node18"><a xlink:title=" ">
<polygon fill="white" stroke="#bfbfbf" points="293.5,-739.67 293.5,-769.67 502.5,-769.67 502.5,-739.67 293.5,-739.67"/>
<text text-anchor="start" x="301.5" y="-757.67" font-family="Helvetica,sans-Serif" font-size="10.00">std::vector&lt; std::shared</text>
<text text-anchor="middle" x="398" y="-746.67" font-family="Helvetica,sans-Serif" font-size="10.00">_ptr&lt; ChLoad&lt; ChLoaderGravity &gt; &gt; &gt;</text>
</a>
</g>
</g>
<!-- Node18&#45;&gt;Node6 -->
<g id="edge18" class="edge">
<title>Node18&#45;&gt;Node6</title>
<path fill="none" stroke="#9a32cd" stroke-dasharray="5,2" d="M512.57,-746.34C556.09,-742.14 606.07,-736.11 651,-727.67 656.85,-726.57 663.04,-725.12 668.95,-723.58"/>
<polygon fill="#9a32cd" stroke="#9a32cd" points="512.15,-742.86 502.53,-747.28 512.81,-749.83 512.15,-742.86"/>
<text text-anchor="middle" x="589.5" y="-746.67" font-family="Helvetica,sans-Serif" font-size="10.00"> elems_loads_volumetric</text>
</g>
<!-- Node19 -->
<g id="node19" class="node">
<title>Node19</title>
<g id="a_node19"><a xlink:title=" ">
<polygon fill="white" stroke="#bfbfbf" points="32,-739.67 32,-769.67 169,-769.67 169,-739.67 32,-739.67"/>
<text text-anchor="start" x="40" y="-757.67" font-family="Helvetica,sans-Serif" font-size="10.00">std::shared_ptr&lt; ChLoad</text>
<text text-anchor="middle" x="100.5" y="-746.67" font-family="Helvetica,sans-Serif" font-size="10.00">&lt; ChLoaderGravity &gt; &gt;</text>
</a>
</g>
</g>
<!-- Node19&#45;&gt;Node18 -->
<g id="edge19" class="edge">
<title>Node19&#45;&gt;Node18</title>
<path fill="none" stroke="#9a32cd" stroke-dasharray="5,2" d="M179.41,-754.67C214.27,-754.67 255.86,-754.67 293.3,-754.67"/>
<polygon fill="#9a32cd" stroke="#9a32cd" points="179.29,-751.17 169.29,-754.67 179.29,-758.17 179.29,-751.17"/>
<text text-anchor="middle" x="243.5" y="-757.67" font-family="Helvetica,sans-Serif" font-size="10.00"> elements</text>
</g>
<!-- Node20 -->
<g id="node20" class="node">
<title>Node20</title>
<g id="a_node20"><a xlink:title=" ">
<polygon fill="white" stroke="#bfbfbf" points="309,-690.67 309,-720.67 487,-720.67 487,-690.67 309,-690.67"/>
<text text-anchor="start" x="317" y="-708.67" font-family="Helvetica,sans-Serif" font-size="10.00">std::shared_ptr&lt; ChBeamSection</text>
<text text-anchor="middle" x="398" y="-697.67" font-family="Helvetica,sans-Serif" font-size="10.00">Advanced &gt;</text>
</a>
</g>
</g>
<!-- Node20&#45;&gt;Node6 -->
<g id="edge20" class="edge">
<title>Node20&#45;&gt;Node6</title>
<path fill="none" stroke="#9a32cd" stroke-dasharray="5,2" d="M497.59,-708.63C557.17,-710.41 629.05,-712.57 668.82,-713.76"/>
<polygon fill="#9a32cd" stroke="#9a32cd" points="497.49,-705.12 487.39,-708.32 497.28,-712.12 497.49,-705.12"/>
<text text-anchor="middle" x="589.5" y="-715.67" font-family="Helvetica,sans-Serif" font-size="10.00"> msection_advanced</text>
</g>
<!-- Node21 -->
<g id="node21" class="node">
<title>Node21</title>
<g id="a_node21"><a xlink:title="STL class.">
<polygon fill="white" stroke="#bfbfbf" points="365.5,-472.17 365.5,-491.17 430.5,-491.17 430.5,-472.17 365.5,-472.17"/>
<text text-anchor="middle" x="398" y="-479.17" font-family="Helvetica,sans-Serif" font-size="10.00">std::string</text>
</a>
</g>
</g>
<!-- Node21&#45;&gt;Node1 -->
<g id="edge36" class="edge">
<title>Node21&#45;&gt;Node1</title>
<path fill="none" stroke="#9a32cd" stroke-dasharray="5,2" d="M440.72,-478.04C498.63,-473.32 606.69,-465.67 699,-465.67 699,-465.67 699,-465.67 1111.5,-465.67 1180.33,-465.67 1258.95,-465.67 1313.99,-465.67"/>
<polygon fill="#9a32cd" stroke="#9a32cd" points="440.18,-474.57 430.5,-478.88 440.76,-481.54 440.18,-474.57"/>
<text text-anchor="middle" x="862.5" y="-468.67" font-family="Helvetica,sans-Serif" font-size="10.00"> beam_type</text>
</g>
<!-- Node21&#45;&gt;Node6 -->
<g id="edge21" class="edge">
<title>Node21&#45;&gt;Node6</title>
<path fill="none" stroke="#9a32cd" stroke-dasharray="5,2" d="M440.98,-476.88C496.47,-473.04 593.86,-475.3 651,-528.67 677.44,-553.37 693.55,-669.84 697.84,-704.75"/>
<polygon fill="#9a32cd" stroke="#9a32cd" points="440.49,-473.41 430.8,-477.69 441.04,-480.39 440.49,-473.41"/>
<text text-anchor="middle" x="589.5" y="-531.67" font-family="Helvetica,sans-Serif" font-size="10.00"> beam_type</text>
</g>
<!-- Node22 -->
<g id="node22" class="node">
<title>Node22</title>
<g id="a_node22"><a xlink:title="STL class.">
<polygon fill="white" stroke="#bfbfbf" points="48.5,-466.67 48.5,-496.67 152.5,-496.67 152.5,-466.67 48.5,-466.67"/>
<text text-anchor="start" x="56.5" y="-484.67" font-family="Helvetica,sans-Serif" font-size="10.00">std::basic_string&lt;</text>
<text text-anchor="middle" x="100.5" y="-473.67" font-family="Helvetica,sans-Serif" font-size="10.00"> char &gt;</text>
</a>
</g>
</g>
<!-- Node22&#45;&gt;Node21 -->
<g id="edge22" class="edge">
<title>Node22&#45;&gt;Node21</title>
<path fill="none" stroke="midnightblue" d="M163,-481.67C224.59,-481.67 316.94,-481.67 365.14,-481.67"/>
<polygon fill="midnightblue" stroke="midnightblue" points="162.63,-478.17 152.63,-481.67 162.63,-485.17 162.63,-478.17"/>
</g>
<!-- Node23 -->
<g id="node23" class="node">
<title>Node23</title>
<g id="a_node23"><a xlink:title=" ">
<polygon fill="white" stroke="#bfbfbf" points="322.5,-346.17 322.5,-365.17 473.5,-365.17 473.5,-346.17 322.5,-346.17"/>
<text text-anchor="middle" x="398" y="-353.17" font-family="Helvetica,sans-Serif" font-size="10.00">std::vector&lt; ChVector&lt;&gt; &gt;</text>
</a>
</g>
</g>
<!-- Node23&#45;&gt;Node1 -->
<g id="edge35" class="edge">
<title>Node23&#45;&gt;Node1</title>
<path fill="none" stroke="#9a32cd" stroke-dasharray="5,2" d="M483.78,-353.94C543.86,-352.85 626.37,-351.67 699,-351.67 699,-351.67 699,-351.67 1111.5,-351.67 1219.45,-351.67 1334.12,-428.75 1371.47,-456.14"/>
<polygon fill="#9a32cd" stroke="#9a32cd" points="483.52,-350.44 473.58,-354.12 483.65,-357.44 483.52,-350.44"/>
<text text-anchor="middle" x="862.5" y="-376.67" font-family="Helvetica,sans-Serif" font-size="10.00"> fluid_acceleration</text>
<text text-anchor="middle" x="862.5" y="-365.67" font-family="Helvetica,sans-Serif" font-size="10.00">fluid_velocity</text>
<text text-anchor="middle" x="862.5" y="-354.67" font-family="Helvetica,sans-Serif" font-size="10.00">mvecs</text>
</g>
<!-- Node23&#45;&gt;Node6 -->
<g id="edge23" class="edge">
<title>Node23&#45;&gt;Node6</title>
<path fill="none" stroke="#9a32cd" stroke-dasharray="5,2" d="M483.75,-363.22C547.73,-370.74 628.24,-384.7 651,-408.67 692.84,-452.73 698.22,-657.48 698.9,-704.86"/>
<polygon fill="#9a32cd" stroke="#9a32cd" points="483.97,-359.72 473.64,-362.07 483.18,-366.68 483.97,-359.72"/>
<text text-anchor="middle" x="589.5" y="-466.67" font-family="Helvetica,sans-Serif" font-size="10.00"> fluid_acceleration</text>
<text text-anchor="middle" x="589.5" y="-455.67" font-family="Helvetica,sans-Serif" font-size="10.00">mvecs_tangents</text>
<text text-anchor="middle" x="589.5" y="-444.67" font-family="Helvetica,sans-Serif" font-size="10.00">fluid_velocity</text>
<text text-anchor="middle" x="589.5" y="-433.67" font-family="Helvetica,sans-Serif" font-size="10.00">mvecs</text>
<text text-anchor="middle" x="589.5" y="-422.67" font-family="Helvetica,sans-Serif" font-size="10.00">mvecs_middle</text>
<text text-anchor="middle" x="589.5" y="-411.67" font-family="Helvetica,sans-Serif" font-size="10.00">mdirs</text>
</g>
<!-- Node24 -->
<g id="node24" class="node">
<title>Node24</title>
<g id="a_node24"><a xlink:title=" ">
<polygon fill="white" stroke="#bfbfbf" points="309.5,-295.67 309.5,-325.67 486.5,-325.67 486.5,-295.67 309.5,-295.67"/>
<text text-anchor="start" x="317.5" y="-313.67" font-family="Helvetica,sans-Serif" font-size="10.00">std::vector&lt; std::shared</text>
<text text-anchor="middle" x="398" y="-302.67" font-family="Helvetica,sans-Serif" font-size="10.00">_ptr&lt; ChElementCableANCF &gt; &gt;</text>
</a>
</g>
</g>
<!-- Node24&#45;&gt;Node1 -->
<g id="edge39" class="edge">
<title>Node24&#45;&gt;Node1</title>
<path fill="none" stroke="#9a32cd" stroke-dasharray="5,2" d="M496.72,-296.42C555.25,-289.09 631.23,-281.67 699,-281.67 699,-281.67 699,-281.67 1111.5,-281.67 1201.78,-281.67 1223.47,-312.9 1296,-366.67 1332.02,-393.37 1364.23,-436.84 1377.53,-456.03"/>
<polygon fill="#9a32cd" stroke="#9a32cd" points="496.21,-292.96 486.74,-297.69 497.1,-299.9 496.21,-292.96"/>
<text text-anchor="middle" x="862.5" y="-284.67" font-family="Helvetica,sans-Serif" font-size="10.00"> elemsCableANCF</text>
</g>
<!-- Node24&#45;&gt;Node6 -->
<g id="edge24" class="edge">
<title>Node24&#45;&gt;Node6</title>
<path fill="none" stroke="#9a32cd" stroke-dasharray="5,2" d="M496.83,-297.14C549.48,-295.64 611.53,-304.14 651,-343.67 703.54,-396.29 700.49,-651.64 699.26,-704.91"/>
<polygon fill="#9a32cd" stroke="#9a32cd" points="496.62,-293.64 486.77,-297.55 496.9,-300.64 496.62,-293.64"/>
<text text-anchor="middle" x="589.5" y="-357.67" font-family="Helvetica,sans-Serif" font-size="10.00"> elems_cable</text>
<text text-anchor="middle" x="589.5" y="-346.67" font-family="Helvetica,sans-Serif" font-size="10.00">elemsCableANCF</text>
</g>
<!-- Node25 -->
<g id="node25" class="node">
<title>Node25</title>
<g id="a_node25"><a xlink:title=" ">
<polygon fill="white" stroke="#bfbfbf" points="23.5,-295.67 23.5,-325.67 177.5,-325.67 177.5,-295.67 23.5,-295.67"/>
<text text-anchor="start" x="31.5" y="-313.67" font-family="Helvetica,sans-Serif" font-size="10.00">std::shared_ptr&lt; ChElement</text>
<text text-anchor="middle" x="100.5" y="-302.67" font-family="Helvetica,sans-Serif" font-size="10.00">CableANCF &gt;</text>
</a>
</g>
</g>
<!-- Node25&#45;&gt;Node24 -->
<g id="edge25" class="edge">
<title>Node25&#45;&gt;Node24</title>
<path fill="none" stroke="#9a32cd" stroke-dasharray="5,2" d="M187.69,-310.67C225.96,-310.67 270.95,-310.67 309.39,-310.67"/>
<polygon fill="#9a32cd" stroke="#9a32cd" points="187.6,-307.17 177.6,-310.67 187.6,-314.17 187.6,-307.17"/>
<text text-anchor="middle" x="243.5" y="-313.67" font-family="Helvetica,sans-Serif" font-size="10.00"> elements</text>
</g>
<!-- Node26 -->
<g id="node26" class="node">
<title>Node26</title>
<g id="a_node26"><a xlink:title=" ">
<polygon fill="white" stroke="#bfbfbf" points="319.5,-224.67 319.5,-254.67 476.5,-254.67 476.5,-224.67 319.5,-224.67"/>
<text text-anchor="start" x="327.5" y="-242.67" font-family="Helvetica,sans-Serif" font-size="10.00">std::vector&lt; std::shared</text>
<text text-anchor="middle" x="398" y="-231.67" font-family="Helvetica,sans-Serif" font-size="10.00">_ptr&lt; ChNodeFEAxyzrot &gt; &gt;</text>
</a>
</g>
</g>
<!-- Node26&#45;&gt;Node1 -->
<g id="edge42" class="edge">
<title>Node26&#45;&gt;Node1</title>
<path fill="none" stroke="#9a32cd" stroke-dasharray="5,2" d="M486.91,-233.45C634.81,-225.04 942.04,-216.47 1195,-267.67 1241.42,-277.06 1259.82,-271.1 1296,-301.67 1347.83,-345.46 1373.84,-427.76 1381.52,-455.93"/>
<polygon fill="#9a32cd" stroke="#9a32cd" points="486.32,-229.98 476.54,-234.05 486.73,-236.96 486.32,-229.98"/>
<text text-anchor="middle" x="862.5" y="-237.67" font-family="Helvetica,sans-Serif" font-size="10.00"> nodesRot</text>
</g>
<!-- Node26&#45;&gt;Node6 -->
<g id="edge26" class="edge">
<title>Node26&#45;&gt;Node6</title>
<path fill="none" stroke="#9a32cd" stroke-dasharray="5,2" d="M486.67,-243.64C550.25,-248.47 628.81,-259.15 651,-282.67 681.03,-314.51 696.05,-643.43 698.61,-704.83"/>
<polygon fill="#9a32cd" stroke="#9a32cd" points="486.83,-240.14 476.6,-242.91 486.33,-247.12 486.83,-240.14"/>
<text text-anchor="middle" x="589.5" y="-285.67" font-family="Helvetica,sans-Serif" font-size="10.00"> nodesRot</text>
</g>
<!-- Node27 -->
<g id="node27" class="node">
<title>Node27</title>
<g id="a_node27"><a xlink:title=" ">
<polygon fill="white" stroke="#bfbfbf" points="0.5,-230.17 0.5,-249.17 200.5,-249.17 200.5,-230.17 0.5,-230.17"/>
<text text-anchor="middle" x="100.5" y="-237.17" font-family="Helvetica,sans-Serif" font-size="10.00">std::shared_ptr&lt; ChNodeFEAxyzrot &gt;</text>
</a>
</g>
</g>
<!-- Node27&#45;&gt;Node26 -->
<g id="edge27" class="edge">
<title>Node27&#45;&gt;Node26</title>
<path fill="none" stroke="#9a32cd" stroke-dasharray="5,2" d="M210.76,-239.67C246.71,-239.67 285.92,-239.67 319.06,-239.67"/>
<polygon fill="#9a32cd" stroke="#9a32cd" points="210.72,-236.17 200.72,-239.67 210.72,-243.17 210.72,-236.17"/>
<text text-anchor="middle" x="243.5" y="-242.67" font-family="Helvetica,sans-Serif" font-size="10.00"> elements</text>
</g>
<!-- Node28 -->
<g id="node28" class="node">
<title>Node28</title>
<g id="a_node28"><a xlink:title=" ">
<polygon fill="white" stroke="#bfbfbf" points="336,-532.17 336,-551.17 460,-551.17 460,-532.17 336,-532.17"/>
<text text-anchor="middle" x="398" y="-539.17" font-family="Helvetica,sans-Serif" font-size="10.00">std::vector&lt; double &gt;</text>
</a>
</g>
</g>
<!-- Node28&#45;&gt;Node1 -->
<g id="edge43" class="edge">
<title>Node28&#45;&gt;Node1</title>
<path fill="none" stroke="#9a32cd" stroke-dasharray="5,2" d="M470.38,-535.34C531.12,-530.51 620.71,-524.67 699,-524.67 699,-524.67 699,-524.67 1111.5,-524.67 1203.71,-524.67 1309.58,-492 1357.72,-475.28"/>
<polygon fill="#9a32cd" stroke="#9a32cd" points="469.82,-531.88 460.13,-536.17 470.38,-538.86 469.82,-531.88"/>
<text text-anchor="middle" x="862.5" y="-571.67" font-family="Helvetica,sans-Serif" font-size="10.00"> E</text>
<text text-anchor="middle" x="862.5" y="-560.67" font-family="Helvetica,sans-Serif" font-size="10.00">rho</text>
<text text-anchor="middle" x="862.5" y="-549.67" font-family="Helvetica,sans-Serif" font-size="10.00">length</text>
<text text-anchor="middle" x="862.5" y="-538.67" font-family="Helvetica,sans-Serif" font-size="10.00">d</text>
<text text-anchor="middle" x="862.5" y="-527.67" font-family="Helvetica,sans-Serif" font-size="10.00">fluid_density</text>
</g>
<!-- Node28&#45;&gt;Node6 -->
<g id="edge28" class="edge">
<title>Node28&#45;&gt;Node6</title>
<path fill="none" stroke="#9a32cd" stroke-dasharray="5,2" d="M470.17,-541.54C534.81,-542.87 624.06,-548.8 651,-570.67 693.56,-605.21 698.65,-678.68 699.06,-705.02"/>
<polygon fill="#9a32cd" stroke="#9a32cd" points="470.08,-538.03 460.02,-541.36 469.95,-545.03 470.08,-538.03"/>
<text text-anchor="middle" x="589.5" y="-606.67" font-family="Helvetica,sans-Serif" font-size="10.00"> nodes_density</text>
<text text-anchor="middle" x="589.5" y="-595.67" font-family="Helvetica,sans-Serif" font-size="10.00">elems_length</text>
<text text-anchor="middle" x="589.5" y="-584.67" font-family="Helvetica,sans-Serif" font-size="10.00">length_per_elem</text>
<text text-anchor="middle" x="589.5" y="-573.67" font-family="Helvetica,sans-Serif" font-size="10.00">fluid_density</text>
</g>
<!-- Node29 -->
<g id="node29" class="node">
<title>Node29</title>
<g id="a_node29"><a xlink:title=" ">
<polygon fill="white" stroke="#bfbfbf" points="1033.5,-184.67 1033.5,-214.67 1187.5,-214.67 1187.5,-184.67 1033.5,-184.67"/>
<text text-anchor="start" x="1041.5" y="-202.67" font-family="Helvetica,sans-Serif" font-size="10.00">std::shared_ptr&lt; ChMaterial</text>
<text text-anchor="middle" x="1110.5" y="-191.67" font-family="Helvetica,sans-Serif" font-size="10.00">SurfaceSMC &gt;</text>
</a>
</g>
</g>
<!-- Node29&#45;&gt;Node1 -->
<g id="edge33" class="edge">
<title>Node29&#45;&gt;Node1</title>
<path fill="none" stroke="#9a32cd" stroke-dasharray="5,2" d="M1197.67,-194.31C1237.93,-193.59 1280.38,-195.98 1296,-207.67 1379.72,-270.36 1384.47,-417.08 1384.21,-456.03"/>
<polygon fill="#9a32cd" stroke="#9a32cd" points="1197.42,-190.81 1187.5,-194.55 1197.59,-197.81 1197.42,-190.81"/>
<text text-anchor="middle" x="1254.5" y="-221.67" font-family="Helvetica,sans-Serif" font-size="10.00"> mysurfmaterial</text>
<text text-anchor="middle" x="1254.5" y="-210.67" font-family="Helvetica,sans-Serif" font-size="10.00">contact_material</text>
</g>
<!-- Node30 -->
<g id="node30" class="node">
<title>Node30</title>
<g id="a_node30"><a xlink:title=" ">
<polygon fill="white" stroke="#bfbfbf" points="1058.5,-146.17 1058.5,-165.17 1162.5,-165.17 1162.5,-146.17 1058.5,-146.17"/>
<text text-anchor="middle" x="1110.5" y="-153.17" font-family="Helvetica,sans-Serif" font-size="10.00">std::vector&lt; int &gt;</text>
</a>
</g>
</g>
<!-- Node30&#45;&gt;Node1 -->
<g id="edge37" class="edge">
<title>Node30&#45;&gt;Node1</title>
<path fill="none" stroke="#9a32cd" stroke-dasharray="5,2" d="M1161.77,-144.54C1202.36,-138.64 1258.67,-137.83 1296,-167.67 1343.62,-205.73 1375.74,-408.84 1382.62,-455.92"/>
<polygon fill="#9a32cd" stroke="#9a32cd" points="1161.13,-141.1 1151.81,-146.14 1162.24,-148.01 1161.13,-141.1"/>
<text text-anchor="middle" x="1254.5" y="-181.67" font-family="Helvetica,sans-Serif" font-size="10.00"> nb_nodes</text>
<text text-anchor="middle" x="1254.5" y="-170.67" font-family="Helvetica,sans-Serif" font-size="10.00">nb_elems</text>
</g>
<!-- Node31 -->
<g id="node31" class="node">
<title>Node31</title>
<g id="a_node31"><a xlink:title=" ">
<polygon fill="white" stroke="#bfbfbf" points="1026,-108.17 1026,-127.17 1195,-127.17 1195,-108.17 1026,-108.17"/>
<text text-anchor="middle" x="1110.5" y="-115.17" font-family="Helvetica,sans-Serif" font-size="10.00">std::shared_ptr&lt; ChLinkBase &gt;</text>
</a>
</g>
</g>
<!-- Node31&#45;&gt;Node1 -->
<g id="edge38" class="edge">
<title>Node31&#45;&gt;Node1</title>
<path fill="none" stroke="#9a32cd" stroke-dasharray="5,2" d="M1187.5,-107.1C1230.65,-102.87 1279.3,-101.64 1296,-114.67 1352.59,-158.82 1378.27,-403.79 1383.13,-455.92"/>
<polygon fill="#9a32cd" stroke="#9a32cd" points="1187.11,-103.62 1177.53,-108.14 1187.84,-110.59 1187.11,-103.62"/>
<text text-anchor="middle" x="1254.5" y="-128.67" font-family="Helvetica,sans-Serif" font-size="10.00"> constraint_front</text>
<text text-anchor="middle" x="1254.5" y="-117.67" font-family="Helvetica,sans-Serif" font-size="10.00">constraint_back</text>
</g>
<!-- Node32 -->
<g id="node32" class="node">
<title>Node32</title>
<g id="a_node32"><a xlink:title=" ">
<polygon fill="white" stroke="#bfbfbf" points="1031.5,-58.67 1031.5,-88.67 1189.5,-88.67 1189.5,-58.67 1031.5,-58.67"/>
<text text-anchor="start" x="1039.5" y="-76.67" font-family="Helvetica,sans-Serif" font-size="10.00">std::shared_ptr&lt; ChLinkPoint</text>
<text text-anchor="middle" x="1110.5" y="-65.67" font-family="Helvetica,sans-Serif" font-size="10.00">Frame &gt;</text>
</a>
</g>
</g>
<!-- Node32&#45;&gt;Node1 -->
<g id="edge40" class="edge">
<title>Node32&#45;&gt;Node1</title>
<path fill="none" stroke="#9a32cd" stroke-dasharray="5,2" d="M1200.26,-60.18C1233.8,-59.98 1270.08,-66.33 1296,-88.67 1354.42,-139.02 1378.82,-402.08 1383.24,-456"/>
<polygon fill="#9a32cd" stroke="#9a32cd" points="1199.87,-56.69 1189.96,-60.44 1200.04,-63.69 1199.87,-56.69"/>
<text text-anchor="middle" x="1254.5" y="-91.67" font-family="Helvetica,sans-Serif" font-size="10.00"> fairlead2</text>
</g>
<!-- Node33 -->
<g id="node33" class="node">
<title>Node33</title>
<g id="a_node33"><a xlink:title=" ">
<polygon fill="white" stroke="#bfbfbf" points="1036,-13.17 1036,-32.17 1185,-32.17 1185,-13.17 1036,-13.17"/>
<text text-anchor="middle" x="1110.5" y="-20.17" font-family="Helvetica,sans-Serif" font-size="10.00">std::shared_ptr&lt; ChBody &gt;</text>
</a>
</g>
</g>
<!-- Node33&#45;&gt;Node1 -->
<g id="edge41" class="edge">
<title>Node33&#45;&gt;Node1</title>
<path fill="none" stroke="#9a32cd" stroke-dasharray="5,2" d="M1149.06,-10.3C1190,0.61 1255.11,10.07 1296,-23.67 1365.86,-81.31 1381.33,-396.15 1383.66,-455.88"/>
<polygon fill="#9a32cd" stroke="#9a32cd" points="1147.87,-7 1139.2,-13.08 1149.77,-13.74 1147.87,-7"/>
<text text-anchor="middle" x="1254.5" y="-48.67" font-family="Helvetica,sans-Serif" font-size="10.00"> body_back</text>
<text text-anchor="middle" x="1254.5" y="-37.67" font-family="Helvetica,sans-Serif" font-size="10.00">body_front</text>
<text text-anchor="middle" x="1254.5" y="-26.67" font-family="Helvetica,sans-Serif" font-size="10.00">fairleadd</text>
</g>
</g>
</svg>
