<?xml version="1.0" encoding="UTF-8" standalone="no"?>
<!DOCTYPE svg PUBLIC "-//W3C//DTD SVG 1.1//EN"
 "http://www.w3.org/Graphics/SVG/1.1/DTD/svg11.dtd">
<!-- Generated by graphviz version 2.40.1 (20161225.0304)
 -->
<!-- Title: FMMEikonalSolverBase Pages: 1 -->
<svg width="553pt" height="95pt"
 viewBox="0.00 0.00 552.50 95.00" xmlns="http://www.w3.org/2000/svg" xmlns:xlink="http://www.w3.org/1999/xlink">
<g id="graph0" class="graph" transform="scale(1 1) rotate(0) translate(4 91)">
<title>FMMEikonalSolverBase</title>
<polygon fill="#ffffff" stroke="transparent" points="-4,4 -4,-91 548.5,-91 548.5,4 -4,4"/>
<!-- Node8 -->
<g id="node1" class="node">
<title>Node8</title>
<polygon fill="#bfbfbf" stroke="#000000" points="227,-.5 227,-19.5 349,-19.5 349,-.5 227,-.5"/>
<text text-anchor="middle" x="288" y="-7.5" font-family="Helvetica,sans-Serif" font-size="10.00" fill="#000000">FMMEikonalSolverBase</text>
</g>
<!-- Node9 -->
<g id="node2" class="node">
<title>Node9</title>
<g id="a_node2"><a xlink:href="class_unstructured_local_upwind_solvers.html" target="_top" xlink:title="UnstructuredLocalUpwindSolvers">
<polygon fill="#ffffff" stroke="#000000" points="0,-67.5 0,-86.5 162,-86.5 162,-67.5 0,-67.5"/>
<text text-anchor="middle" x="81" y="-74.5" font-family="Helvetica,sans-Serif" font-size="10.00" fill="#000000">UnstructuredLocalUpwindSolvers</text>
</a>
</g>
</g>
<!-- Node9&#45;&gt;Node8 -->
<g id="edge1" class="edge">
<title>Node9&#45;&gt;Node8</title>
<path fill="none" stroke="#9a32cd" stroke-dasharray="5,2" d="M116.355,-64.0292C138.0794,-56.1962 166.5352,-46.1805 192,-38 212.3308,-31.4687 235.2866,-24.7498 253.6516,-19.5313"/>
<polygon fill="#9a32cd" stroke="#9a32cd" points="115.0925,-60.7639 106.8821,-67.4602 117.4763,-67.3455 115.0925,-60.7639"/>
<text text-anchor="middle" x="220.5" y="-41" font-family="Helvetica,sans-Serif" font-size="10.00" fill="#000000"> localSolvers</text>
</g>
<!-- Node10 -->
<g id="node3" class="node">
<title>Node10</title>
<polygon fill="#ffffff" stroke="#bfbfbf" points="180,-67.5 180,-86.5 272,-86.5 272,-67.5 180,-67.5"/>
<text text-anchor="middle" x="226" y="-74.5" font-family="Helvetica,sans-Serif" font-size="10.00" fill="#000000">std::vector&lt; int &gt;</text>
</g>
<!-- Node10&#45;&gt;Node8 -->
<g id="edge2" class="edge">
<title>Node10&#45;&gt;Node8</title>
<path fill="none" stroke="#9a32cd" stroke-dasharray="5,2" d="M241.9953,-59.7147C253.8158,-46.941 269.4718,-30.0224 279.1334,-19.5817"/>
<polygon fill="#9a32cd" stroke="#9a32cd" points="239.1061,-57.6837 234.8831,-67.4005 244.2439,-62.4381 239.1061,-57.6837"/>
<text text-anchor="middle" x="277" y="-41" font-family="Helvetica,sans-Serif" font-size="10.00" fill="#000000"> Known</text>
</g>
<!-- Node11 -->
<g id="node4" class="node">
<title>Node11</title>
<polygon fill="#ffffff" stroke="#bfbfbf" points="290.5,-67.5 290.5,-86.5 411.5,-86.5 411.5,-67.5 290.5,-67.5"/>
<text text-anchor="middle" x="351" y="-74.5" font-family="Helvetica,sans-Serif" font-size="10.00" fill="#000000">std::vector&lt; STATUS &gt;</text>
</g>
<!-- Node11&#45;&gt;Node8 -->
<g id="edge3" class="edge">
<title>Node11&#45;&gt;Node8</title>
<path fill="none" stroke="#9a32cd" stroke-dasharray="5,2" d="M335.0888,-60.0785C323.0392,-47.2639 306.9205,-30.1218 297.0096,-19.5817"/>
<polygon fill="#9a32cd" stroke="#9a32cd" points="332.5735,-62.5129 341.9736,-67.4005 337.6732,-57.7177 332.5735,-62.5129"/>
<text text-anchor="middle" x="339" y="-41" font-family="Helvetica,sans-Serif" font-size="10.00" fill="#000000"> Status</text>
</g>
<!-- Node12 -->
<g id="node5" class="node">
<title>Node12</title>
<g id="a_node5"><a xlink:href="struct_mesh.html" target="_top" xlink:title="Mesh">
<polygon fill="#ffffff" stroke="#000000" points="429.5,-67.5 429.5,-86.5 470.5,-86.5 470.5,-67.5 429.5,-67.5"/>
<text text-anchor="middle" x="450" y="-74.5" font-family="Helvetica,sans-Serif" font-size="10.00" fill="#000000">Mesh</text>
</a>
</g>
</g>
<!-- Node12&#45;&gt;Node8 -->
<g id="edge4" class="edge">
<title>Node12&#45;&gt;Node8</title>
<path fill="none" stroke="#9a32cd" stroke-dasharray="5,2" d="M420.2118,-63.9733C402.4858,-56.2867 379.5207,-46.4415 359,-38 343.6825,-31.6989 326.3958,-24.8755 312.7149,-19.5422"/>
<polygon fill="#9a32cd" stroke="#9a32cd" points="418.9055,-67.2218 429.4718,-67.999 421.6963,-60.8022 418.9055,-67.2218"/>
<text text-anchor="middle" x="398" y="-41" font-family="Helvetica,sans-Serif" font-size="10.00" fill="#000000"> mesh</text>
</g>
<!-- Node12&#45;&gt;Node12 -->
<g id="edge5" class="edge">
<title>Node12&#45;&gt;Node12</title>
<path fill="none" stroke="#9a32cd" stroke-dasharray="5,2" d="M480.816,-82.4421C485.4,-81.5943 488.5,-79.7803 488.5,-77 488.5,-72.4375 480.1518,-70.4771 470.5969,-71.1187"/>
<polygon fill="#9a32cd" stroke="#9a32cd" points="480.4374,-78.955 470.5969,-82.8813 480.738,-85.9486 480.4374,-78.955"/>
<text text-anchor="middle" x="516.5" y="-74.5" font-family="Helvetica,sans-Serif" font-size="10.00" fill="#000000"> subdomainp</text>
</g>
</g>
</svg>
