<?xml version="1.0" encoding="UTF-8" standalone="no"?>
<!DOCTYPE svg PUBLIC "-//W3C//DTD SVG 1.1//EN"
 "http://www.w3.org/Graphics/SVG/1.1/DTD/svg11.dtd">
<!-- Generated by graphviz version 2.38.0 (20140413.2041)
 -->
<!-- Title: RectangularDomain Pages: 1 -->
<svg width="214pt" height="231pt"
 viewBox="0.00 0.00 213.50 231.00" xmlns="http://www.w3.org/2000/svg" xmlns:xlink="http://www.w3.org/1999/xlink">
<g id="graph0" class="graph" transform="scale(1 1) rotate(0) translate(4 227)">
<title>RectangularDomain</title>
<polygon fill="white" stroke="none" points="-4,4 -4,-227 209.5,-227 209.5,4 -4,4"/>
<!-- Node2 -->
<g id="node1" class="node"><title>Node2</title>
<polygon fill="#bfbfbf" stroke="black" points="73,-0.5 73,-19.5 176,-19.5 176,-0.5 73,-0.5"/>
<text text-anchor="middle" x="124.5" y="-7.5" font-family="Helvetica,sans-Serif" font-size="10.00">RectangularDomain</text>
</g>
<!-- Node3 -->
<g id="node2" class="node"><title>Node3</title>
<g id="a_node2"><a xlink:href="class_d__base.html" target="_top" xlink:title="D_base">
<polygon fill="white" stroke="black" points="99.5,-57.5 99.5,-76.5 149.5,-76.5 149.5,-57.5 99.5,-57.5"/>
<text text-anchor="middle" x="124.5" y="-64.5" font-family="Helvetica,sans-Serif" font-size="10.00">D_base</text>
</a>
</g>
</g>
<!-- Node3&#45;&gt;Node2 -->
<g id="edge1" class="edge"><title>Node3&#45;&gt;Node2</title>
<path fill="none" stroke="midnightblue" d="M124.5,-47.1166C124.5,-37.8173 124.5,-27.0557 124.5,-19.7149"/>
<polygon fill="midnightblue" stroke="midnightblue" points="121,-47.4062 124.5,-57.4062 128,-47.4063 121,-47.4062"/>
</g>
<!-- Node4 -->
<g id="node3" class="node"><title>Node4</title>
<g id="a_node3"><a xlink:title="STL class. ">
<polygon fill="white" stroke="#bfbfbf" points="17.5,-135.5 17.5,-154.5 77.5,-154.5 77.5,-135.5 17.5,-135.5"/>
<text text-anchor="middle" x="47.5" y="-142.5" font-family="Helvetica,sans-Serif" font-size="10.00">std::string</text>
</a>
</g>
</g>
<!-- Node4&#45;&gt;Node3 -->
<g id="edge2" class="edge"><title>Node4&#45;&gt;Node3</title>
<path fill="none" stroke="#9a32cd" stroke-dasharray="5,2" d="M63.8372,-127.875C79.7021,-112.216 103.181,-89.0422 115.77,-76.6165"/>
<polygon fill="#9a32cd" stroke="#9a32cd" points="60.9914,-125.766 56.3329,-135.282 65.9087,-130.748 60.9914,-125.766"/>
<text text-anchor="middle" x="108" y="-109" font-family="Helvetica,sans-Serif" font-size="10.00"> units</text>
<text text-anchor="middle" x="108" y="-98" font-family="Helvetica,sans-Serif" font-size="10.00">name</text>
</g>
<!-- Node5 -->
<g id="node4" class="node"><title>Node5</title>
<g id="a_node4"><a xlink:title="STL class. ">
<polygon fill="white" stroke="#bfbfbf" points="0,-192.5 0,-222.5 95,-222.5 95,-192.5 0,-192.5"/>
<text text-anchor="start" x="8" y="-210.5" font-family="Helvetica,sans-Serif" font-size="10.00">std::basic_string&lt;</text>
<text text-anchor="middle" x="47.5" y="-199.5" font-family="Helvetica,sans-Serif" font-size="10.00"> char &gt;</text>
</a>
</g>
</g>
<!-- Node5&#45;&gt;Node4 -->
<g id="edge3" class="edge"><title>Node5&#45;&gt;Node4</title>
<path fill="none" stroke="midnightblue" d="M47.5,-182.352C47.5,-172.513 47.5,-161.775 47.5,-154.54"/>
<polygon fill="midnightblue" stroke="midnightblue" points="44.0001,-182.468 47.5,-192.468 51.0001,-182.468 44.0001,-182.468"/>
</g>
<!-- Node6 -->
<g id="node5" class="node"><title>Node6</title>
<polygon fill="white" stroke="#bfbfbf" points="95.5,-135.5 95.5,-154.5 205.5,-154.5 205.5,-135.5 95.5,-135.5"/>
<text text-anchor="middle" x="150.5" y="-142.5" font-family="Helvetica,sans-Serif" font-size="10.00">std::vector&lt; double &gt;</text>
</g>
<!-- Node6&#45;&gt;Node3 -->
<g id="edge4" class="edge"><title>Node6&#45;&gt;Node3</title>
<path fill="none" stroke="#9a32cd" stroke-dasharray="5,2" d="M144.231,-125.674C138.907,-110.113 131.504,-88.4722 127.448,-76.6165"/>
<polygon fill="#9a32cd" stroke="#9a32cd" points="140.969,-126.953 147.517,-135.282 147.592,-124.687 140.969,-126.953"/>
<text text-anchor="middle" x="145" y="-109" font-family="Helvetica,sans-Serif" font-size="10.00"> x</text>
<text text-anchor="middle" x="145" y="-98" font-family="Helvetica,sans-Serif" font-size="10.00">L</text>
</g>
</g>
</svg>
