<?xml version="1.0" encoding="UTF-8" standalone="no"?>
<!DOCTYPE svg PUBLIC "-//W3C//DTD SVG 1.1//EN"
 "http://www.w3.org/Graphics/SVG/1.1/DTD/svg11.dtd">
<!-- Generated by graphviz version 2.42.3 (0)
 -->
<!-- Title: PlanarStraightLineGraphDomain Pages: 1 -->
<svg width="738pt" height="410pt"
 viewBox="0.00 0.00 738.00 409.50" xmlns="http://www.w3.org/2000/svg" xmlns:xlink="http://www.w3.org/1999/xlink">
<g id="graph0" class="graph" transform="scale(1 1) rotate(0) translate(4 405.5)">
<title>PlanarStraightLineGraphDomain</title>
<polygon fill="white" stroke="transparent" points="-4,4 -4,-405.5 734,-405.5 734,4 -4,4"/>
<!-- Node1 -->
<g id="node1" class="node">
<title>Node1</title>
<g id="a_node1"><a xlink:title=" ">
<polygon fill="#bfbfbf" stroke="black" points="557,-246 557,-265 730,-265 730,-246 557,-246"/>
<text text-anchor="middle" x="643.5" y="-253" font-family="Helvetica,sans-Serif" font-size="10.00">PlanarStraightLineGraphDomain</text>
</a>
</g>
</g>
<!-- Node2 -->
<g id="node2" class="node">
<title>Node2</title>
<g id="a_node2"><a xlink:href="class_d__base.html" target="_top" xlink:title=" ">
<polygon fill="white" stroke="black" points="383,-337 383,-356 436,-356 436,-337 383,-337"/>
<text text-anchor="middle" x="409.5" y="-344" font-family="Helvetica,sans-Serif" font-size="10.00">D_base</text>
</a>
</g>
</g>
<!-- Node2&#45;&gt;Node1 -->
<g id="edge1" class="edge">
<title>Node2&#45;&gt;Node1</title>
<path fill="none" stroke="midnightblue" d="M444.39,-333.21C491.72,-314.64 576.48,-281.4 618.09,-265.07"/>
<polygon fill="midnightblue" stroke="midnightblue" points="442.92,-330.02 434.89,-336.93 445.48,-336.54 442.92,-330.02"/>
</g>
<!-- Node3 -->
<g id="node3" class="node">
<title>Node3</title>
<g id="a_node3"><a xlink:title="STL class.">
<polygon fill="white" stroke="#bfbfbf" points="170.5,-365 170.5,-384 235.5,-384 235.5,-365 170.5,-365"/>
<text text-anchor="middle" x="203" y="-372" font-family="Helvetica,sans-Serif" font-size="10.00">std::string</text>
</a>
</g>
</g>
<!-- Node3&#45;&gt;Node2 -->
<g id="edge2" class="edge">
<title>Node3&#45;&gt;Node2</title>
<path fill="none" stroke="#9a32cd" stroke-dasharray="5,2" d="M245.41,-362.49C257.44,-359.42 270.66,-356.44 283,-354.5 317.29,-349.11 357.4,-347.33 382.87,-346.76"/>
<polygon fill="#9a32cd" stroke="#9a32cd" points="244.4,-359.14 235.63,-365.07 246.19,-365.9 244.4,-359.14"/>
<text text-anchor="middle" x="307.5" y="-368.5" font-family="Helvetica,sans-Serif" font-size="10.00"> units</text>
<text text-anchor="middle" x="307.5" y="-357.5" font-family="Helvetica,sans-Serif" font-size="10.00">name</text>
</g>
<!-- Node9 -->
<g id="node9" class="node">
<title>Node9</title>
<g id="a_node9"><a xlink:title=" ">
<polygon fill="white" stroke="#bfbfbf" points="350,-382 350,-401 469,-401 469,-382 350,-382"/>
<text text-anchor="middle" x="409.5" y="-389" font-family="Helvetica,sans-Serif" font-size="10.00">std::vector&lt; string &gt;</text>
</a>
</g>
</g>
<!-- Node3&#45;&gt;Node9 -->
<g id="edge10" class="edge">
<title>Node3&#45;&gt;Node9</title>
<path fill="none" stroke="#9a32cd" stroke-dasharray="5,2" d="M245.63,-377.96C275.61,-380.45 316.48,-383.85 349.78,-386.62"/>
<polygon fill="#9a32cd" stroke="#9a32cd" points="245.76,-374.46 235.5,-377.12 245.18,-381.44 245.76,-374.46"/>
<text text-anchor="middle" x="307.5" y="-387.5" font-family="Helvetica,sans-Serif" font-size="10.00"> elements</text>
</g>
<!-- Node4 -->
<g id="node4" class="node">
<title>Node4</title>
<g id="a_node4"><a xlink:title="STL class.">
<polygon fill="white" stroke="#bfbfbf" points="0,-359.5 0,-389.5 104,-389.5 104,-359.5 0,-359.5"/>
<text text-anchor="start" x="8" y="-377.5" font-family="Helvetica,sans-Serif" font-size="10.00">std::basic_string&lt;</text>
<text text-anchor="middle" x="52" y="-366.5" font-family="Helvetica,sans-Serif" font-size="10.00"> char &gt;</text>
</a>
</g>
</g>
<!-- Node4&#45;&gt;Node3 -->
<g id="edge3" class="edge">
<title>Node4&#45;&gt;Node3</title>
<path fill="none" stroke="midnightblue" d="M114.46,-374.5C133.61,-374.5 153.94,-374.5 170.19,-374.5"/>
<polygon fill="midnightblue" stroke="midnightblue" points="114.28,-371 104.28,-374.5 114.28,-378 114.28,-371"/>
</g>
<!-- Node5 -->
<g id="node5" class="node">
<title>Node5</title>
<g id="a_node5"><a xlink:title=" ">
<polygon fill="white" stroke="#bfbfbf" points="141,-265 141,-284 265,-284 265,-265 141,-265"/>
<text text-anchor="middle" x="203" y="-272" font-family="Helvetica,sans-Serif" font-size="10.00">std::vector&lt; double &gt;</text>
</a>
</g>
</g>
<!-- Node5&#45;&gt;Node1 -->
<g id="edge12" class="edge">
<title>Node5&#45;&gt;Node1</title>
<path fill="none" stroke="#9a32cd" stroke-dasharray="5,2" d="M275.28,-271.66C343.1,-268.92 448.01,-264.6 539,-260.5 544.84,-260.24 550.87,-259.96 556.94,-259.68"/>
<polygon fill="#9a32cd" stroke="#9a32cd" points="274.99,-268.16 265.13,-272.06 275.27,-275.16 274.99,-268.16"/>
<text text-anchor="middle" x="409.5" y="-304.5" font-family="Helvetica,sans-Serif" font-size="10.00"> regions</text>
<text text-anchor="middle" x="409.5" y="-293.5" font-family="Helvetica,sans-Serif" font-size="10.00">h</text>
<text text-anchor="middle" x="409.5" y="-282.5" font-family="Helvetica,sans-Serif" font-size="10.00">r</text>
<text text-anchor="middle" x="409.5" y="-271.5" font-family="Helvetica,sans-Serif" font-size="10.00">v</text>
</g>
<!-- Node5&#45;&gt;Node2 -->
<g id="edge4" class="edge">
<title>Node5&#45;&gt;Node2</title>
<path fill="none" stroke="#9a32cd" stroke-dasharray="5,2" d="M240.77,-287.45C281.77,-301.88 347.01,-324.85 382.84,-337.47"/>
<polygon fill="#9a32cd" stroke="#9a32cd" points="241.75,-284.08 231.16,-284.06 239.43,-290.68 241.75,-284.08"/>
<text text-anchor="middle" x="307.5" y="-332.5" font-family="Helvetica,sans-Serif" font-size="10.00"> x</text>
<text text-anchor="middle" x="307.5" y="-321.5" font-family="Helvetica,sans-Serif" font-size="10.00">L</text>
</g>
<!-- Node8 -->
<g id="node8" class="node">
<title>Node8</title>
<g id="a_node8"><a xlink:title=" ">
<polygon fill="white" stroke="#bfbfbf" points="354.5,-207.5 354.5,-237.5 464.5,-237.5 464.5,-207.5 354.5,-207.5"/>
<text text-anchor="start" x="362.5" y="-225.5" font-family="Helvetica,sans-Serif" font-size="10.00">std::vector&lt; vector</text>
<text text-anchor="middle" x="409.5" y="-214.5" font-family="Helvetica,sans-Serif" font-size="10.00">&lt; double &gt; &gt;</text>
</a>
</g>
</g>
<!-- Node5&#45;&gt;Node8 -->
<g id="edge8" class="edge">
<title>Node5&#45;&gt;Node8</title>
<path fill="none" stroke="#9a32cd" stroke-dasharray="5,2" d="M241.55,-261.82C254.6,-257.63 269.37,-253.11 283,-249.5 306.27,-243.33 332.24,-237.56 354.49,-232.95"/>
<polygon fill="#9a32cd" stroke="#9a32cd" points="240.39,-258.52 231.96,-264.94 242.56,-265.17 240.39,-258.52"/>
<text text-anchor="middle" x="307.5" y="-252.5" font-family="Helvetica,sans-Serif" font-size="10.00"> elements</text>
</g>
<!-- Node6 -->
<g id="node6" class="node">
<title>Node6</title>
<g id="a_node6"><a xlink:title=" ">
<polygon fill="white" stroke="#bfbfbf" points="354.5,-0.5 354.5,-30.5 464.5,-30.5 464.5,-0.5 354.5,-0.5"/>
<text text-anchor="start" x="362.5" y="-18.5" font-family="Helvetica,sans-Serif" font-size="10.00">std::vector&lt; vector</text>
<text text-anchor="middle" x="409.5" y="-7.5" font-family="Helvetica,sans-Serif" font-size="10.00">&lt; int &gt; &gt;</text>
</a>
</g>
</g>
<!-- Node6&#45;&gt;Node1 -->
<g id="edge5" class="edge">
<title>Node6&#45;&gt;Node1</title>
<path fill="none" stroke="#9a32cd" stroke-dasharray="5,2" d="M474.8,-17.62C497.01,-21.14 520.85,-28.33 539,-42.5 609.33,-97.4 634.79,-212.27 640.92,-246"/>
<polygon fill="#9a32cd" stroke="#9a32cd" points="475.12,-14.14 464.74,-16.26 474.17,-21.07 475.12,-14.14"/>
<text text-anchor="middle" x="513" y="-45.5" font-family="Helvetica,sans-Serif" font-size="10.00"> segments</text>
</g>
<!-- Node7 -->
<g id="node7" class="node">
<title>Node7</title>
<g id="a_node7"><a xlink:title=" ">
<polygon fill="white" stroke="#bfbfbf" points="151,-39 151,-58 255,-58 255,-39 151,-39"/>
<text text-anchor="middle" x="203" y="-46" font-family="Helvetica,sans-Serif" font-size="10.00">std::vector&lt; int &gt;</text>
</a>
</g>
</g>
<!-- Node7&#45;&gt;Node1 -->
<g id="edge11" class="edge">
<title>Node7&#45;&gt;Node1</title>
<path fill="none" stroke="#9a32cd" stroke-dasharray="5,2" d="M265.02,-50.43C331.87,-53.37 434.23,-60.55 469,-77.5 552.01,-117.97 617.48,-215.16 636.73,-245.97"/>
<polygon fill="#9a32cd" stroke="#9a32cd" points="265.16,-46.93 255.02,-50.01 264.86,-53.93 265.16,-46.93"/>
<text text-anchor="middle" x="409.5" y="-190.5" font-family="Helvetica,sans-Serif" font-size="10.00"> vertexFlags</text>
<text text-anchor="middle" x="409.5" y="-179.5" font-family="Helvetica,sans-Serif" font-size="10.00">nVertices</text>
<text text-anchor="middle" x="409.5" y="-168.5" font-family="Helvetica,sans-Serif" font-size="10.00">segmentFlags</text>
<text text-anchor="middle" x="409.5" y="-157.5" font-family="Helvetica,sans-Serif" font-size="10.00">sFlags</text>
<text text-anchor="middle" x="409.5" y="-146.5" font-family="Helvetica,sans-Serif" font-size="10.00">hN</text>
<text text-anchor="middle" x="409.5" y="-135.5" font-family="Helvetica,sans-Serif" font-size="10.00">vN</text>
<text text-anchor="middle" x="409.5" y="-124.5" font-family="Helvetica,sans-Serif" font-size="10.00">regionFlags</text>
<text text-anchor="middle" x="409.5" y="-113.5" font-family="Helvetica,sans-Serif" font-size="10.00">vertexAttributes</text>
<text text-anchor="middle" x="409.5" y="-102.5" font-family="Helvetica,sans-Serif" font-size="10.00">s</text>
<text text-anchor="middle" x="409.5" y="-91.5" font-family="Helvetica,sans-Serif" font-size="10.00">sN</text>
<text text-anchor="middle" x="409.5" y="-80.5" font-family="Helvetica,sans-Serif" font-size="10.00">...</text>
</g>
<!-- Node7&#45;&gt;Node6 -->
<g id="edge6" class="edge">
<title>Node7&#45;&gt;Node6</title>
<path fill="none" stroke="#9a32cd" stroke-dasharray="5,2" d="M265.24,-38.62C293.51,-34.06 326.78,-28.69 354.14,-24.27"/>
<polygon fill="#9a32cd" stroke="#9a32cd" points="264.39,-35.21 255.08,-40.26 265.51,-42.12 264.39,-35.21"/>
<text text-anchor="middle" x="307.5" y="-38.5" font-family="Helvetica,sans-Serif" font-size="10.00"> elements</text>
</g>
<!-- Node8&#45;&gt;Node1 -->
<g id="edge7" class="edge">
<title>Node8&#45;&gt;Node1</title>
<path fill="none" stroke="#9a32cd" stroke-dasharray="5,2" d="M474.83,-230.01C495.36,-232.54 518.16,-235.49 539,-238.5 554.59,-240.75 571.46,-243.42 586.97,-245.97"/>
<polygon fill="#9a32cd" stroke="#9a32cd" points="475,-226.51 464.64,-228.77 474.15,-233.45 475,-226.51"/>
<text text-anchor="middle" x="513" y="-252.5" font-family="Helvetica,sans-Serif" font-size="10.00"> holes</text>
<text text-anchor="middle" x="513" y="-241.5" font-family="Helvetica,sans-Serif" font-size="10.00">vertices</text>
</g>
<!-- Node9&#45;&gt;Node1 -->
<g id="edge9" class="edge">
<title>Node9&#45;&gt;Node1</title>
<path fill="none" stroke="#9a32cd" stroke-dasharray="5,2" d="M443.45,-377.87C451.9,-374.1 460.88,-369.85 469,-365.5 530.94,-332.33 600.29,-285.07 628.97,-265.05"/>
<polygon fill="#9a32cd" stroke="#9a32cd" points="441.99,-374.69 434.22,-381.9 444.79,-381.11 441.99,-374.69"/>
<text text-anchor="middle" x="513" y="-357.5" font-family="Helvetica,sans-Serif" font-size="10.00"> line</text>
</g>
</g>
</svg>
