<?xml version="1.0" encoding="UTF-8" standalone="no"?>
<!DOCTYPE svg PUBLIC "-//W3C//DTD SVG 1.1//EN"
 "http://www.w3.org/Graphics/SVG/1.1/DTD/svg11.dtd">
<!-- Generated by graphviz version 2.38.0 (20140413.2041)
 -->
<!-- Title: VGB Pages: 1 -->
<svg width="78pt" height="196pt"
 viewBox="0.00 0.00 78.00 196.00" xmlns="http://www.w3.org/2000/svg" xmlns:xlink="http://www.w3.org/1999/xlink">
<g id="graph0" class="graph" transform="scale(1 1) rotate(0) translate(4 192)">
<title>VGB</title>
<polygon fill="white" stroke="none" points="-4,4 -4,-192 74,-192 74,4 -4,4"/>
<!-- Node4 -->
<g id="node1" class="node"><title>Node4</title>
<polygon fill="#bfbfbf" stroke="black" points="16,-0.5 16,-19.5 54,-19.5 54,-0.5 16,-0.5"/>
<text text-anchor="middle" x="35" y="-7.5" font-family="Helvetica,sans-Serif" font-size="10.00">VGB</text>
</g>
<!-- Node5 -->
<g id="node2" class="node"><title>Node5</title>
<g id="a_node2"><a xlink:href="class_v_g_m.html" target="_top" xlink:title="VGM">
<polygon fill="white" stroke="black" points="15.5,-56.5 15.5,-75.5 54.5,-75.5 54.5,-56.5 15.5,-56.5"/>
<text text-anchor="middle" x="35" y="-63.5" font-family="Helvetica,sans-Serif" font-size="10.00">VGM</text>
</a>
</g>
</g>
<!-- Node5&#45;&gt;Node4 -->
<g id="edge1" class="edge"><title>Node5&#45;&gt;Node4</title>
<path fill="none" stroke="midnightblue" d="M35,-45.8045C35,-36.9102 35,-26.7798 35,-19.7511"/>
<polygon fill="midnightblue" stroke="midnightblue" points="31.5001,-46.083 35,-56.083 38.5001,-46.083 31.5001,-46.083"/>
</g>
<!-- Node6 -->
<g id="node3" class="node"><title>Node6</title>
<g id="a_node3"><a xlink:href="class_v_g_morig.html" target="_top" xlink:title="VGMorig">
<polygon fill="white" stroke="black" points="7.5,-112.5 7.5,-131.5 62.5,-131.5 62.5,-112.5 7.5,-112.5"/>
<text text-anchor="middle" x="35" y="-119.5" font-family="Helvetica,sans-Serif" font-size="10.00">VGMorig</text>
</a>
</g>
</g>
<!-- Node6&#45;&gt;Node5 -->
<g id="edge2" class="edge"><title>Node6&#45;&gt;Node5</title>
<path fill="none" stroke="midnightblue" d="M35,-101.805C35,-92.9102 35,-82.7798 35,-75.7511"/>
<polygon fill="midnightblue" stroke="midnightblue" points="31.5001,-102.083 35,-112.083 38.5001,-102.083 31.5001,-102.083"/>
</g>
<!-- Node7 -->
<g id="node4" class="node"><title>Node7</title>
<g id="a_node4"><a xlink:href="class_psk_relation.html" target="_top" xlink:title="PskRelation">
<polygon fill="white" stroke="black" points="0,-168.5 0,-187.5 70,-187.5 70,-168.5 0,-168.5"/>
<text text-anchor="middle" x="35" y="-175.5" font-family="Helvetica,sans-Serif" font-size="10.00">PskRelation</text>
</a>
</g>
</g>
<!-- Node7&#45;&gt;Node6 -->
<g id="edge3" class="edge"><title>Node7&#45;&gt;Node6</title>
<path fill="none" stroke="midnightblue" d="M35,-157.805C35,-148.91 35,-138.78 35,-131.751"/>
<polygon fill="midnightblue" stroke="midnightblue" points="31.5001,-158.083 35,-168.083 38.5001,-158.083 31.5001,-158.083"/>
</g>
</g>
</svg>
