<?xml version="1.0" encoding="UTF-8" standalone="no"?>
<!DOCTYPE svg PUBLIC "-//W3C//DTD SVG 1.1//EN"
 "http://www.w3.org/Graphics/SVG/1.1/DTD/svg11.dtd">
<!-- Generated by graphviz version 2.40.1 (20161225.0304)
 -->
<!-- Title: PiecewiseLinearComplexDomain Pages: 1 -->
<svg width="677pt" height="294pt"
 viewBox="0.00 0.00 677.00 293.50" xmlns="http://www.w3.org/2000/svg" xmlns:xlink="http://www.w3.org/1999/xlink">
<g id="graph0" class="graph" transform="scale(1 1) rotate(0) translate(4 289.5)">
<title>PiecewiseLinearComplexDomain</title>
<polygon fill="#ffffff" stroke="transparent" points="-4,4 -4,-289.5 673,-289.5 673,4 -4,4"/>
<!-- Node2 -->
<g id="node1" class="node">
<title>Node2</title>
<polygon fill="#bfbfbf" stroke="#000000" points="508,-130.5 508,-149.5 669,-149.5 669,-130.5 508,-130.5"/>
<text text-anchor="middle" x="588.5" y="-137.5" font-family="Helvetica,sans-Serif" font-size="10.00" fill="#000000">PiecewiseLinearComplexDomain</text>
</g>
<!-- Node3 -->
<g id="node2" class="node">
<title>Node3</title>
<g id="a_node2"><a xlink:href="class_d__base.html" target="_top" xlink:title="D_base">
<polygon fill="#ffffff" stroke="#000000" points="336.5,-243.5 336.5,-262.5 386.5,-262.5 386.5,-243.5 336.5,-243.5"/>
<text text-anchor="middle" x="361.5" y="-250.5" font-family="Helvetica,sans-Serif" font-size="10.00" fill="#000000">D_base</text>
</a>
</g>
</g>
<!-- Node3&#45;&gt;Node2 -->
<g id="edge1" class="edge">
<title>Node3&#45;&gt;Node2</title>
<path fill="none" stroke="#191970" d="M396.4517,-242.7263C422.8432,-234.3762 459.5847,-221.4688 490,-206 523.0264,-189.2032 558.3063,-163.3975 576.343,-149.5558"/>
<polygon fill="#191970" stroke="#191970" points="395.3905,-239.3909 386.8784,-245.6992 397.4666,-246.0759 395.3905,-239.3909"/>
</g>
<!-- Node4 -->
<g id="node3" class="node">
<title>Node4</title>
<g id="a_node3"><a xlink:title="STL class. ">
<polygon fill="#ffffff" stroke="#bfbfbf" points="157,-260.5 157,-279.5 217,-279.5 217,-260.5 157,-260.5"/>
<text text-anchor="middle" x="187" y="-267.5" font-family="Helvetica,sans-Serif" font-size="10.00" fill="#000000">std::string</text>
</a>
</g>
</g>
<!-- Node4&#45;&gt;Node3 -->
<g id="edge2" class="edge">
<title>Node4&#45;&gt;Node3</title>
<path fill="none" stroke="#9a32cd" stroke-dasharray="5,2" d="M227.3637,-266.0677C260.9604,-262.7947 307.751,-258.2363 336.2602,-255.4589"/>
<polygon fill="#9a32cd" stroke="#9a32cd" points="227.0091,-262.5856 217.3956,-267.0388 227.6879,-269.5526 227.0091,-262.5856"/>
<text text-anchor="middle" x="272.5" y="-276" font-family="Helvetica,sans-Serif" font-size="10.00" fill="#000000"> units</text>
<text text-anchor="middle" x="272.5" y="-265" font-family="Helvetica,sans-Serif" font-size="10.00" fill="#000000">name</text>
</g>
<!-- Node5 -->
<g id="node4" class="node">
<title>Node5</title>
<g id="a_node4"><a xlink:title="STL class. ">
<polygon fill="#ffffff" stroke="#bfbfbf" points="0,-255 0,-285 95,-285 95,-255 0,-255"/>
<text text-anchor="start" x="8" y="-273" font-family="Helvetica,sans-Serif" font-size="10.00" fill="#000000">std::basic_string&lt;</text>
<text text-anchor="middle" x="47.5" y="-262" font-family="Helvetica,sans-Serif" font-size="10.00" fill="#000000"> char &gt;</text>
</a>
</g>
</g>
<!-- Node5&#45;&gt;Node4 -->
<g id="edge3" class="edge">
<title>Node5&#45;&gt;Node4</title>
<path fill="none" stroke="#191970" d="M105.3321,-270C122.9452,-270 141.6032,-270 156.6325,-270"/>
<polygon fill="#191970" stroke="#191970" points="105.1179,-266.5001 95.1178,-270 105.1178,-273.5001 105.1179,-266.5001"/>
</g>
<!-- Node6 -->
<g id="node5" class="node">
<title>Node6</title>
<polygon fill="#ffffff" stroke="#bfbfbf" points="132,-199.5 132,-218.5 242,-218.5 242,-199.5 132,-199.5"/>
<text text-anchor="middle" x="187" y="-206.5" font-family="Helvetica,sans-Serif" font-size="10.00" fill="#000000">std::vector&lt; double &gt;</text>
</g>
<!-- Node6&#45;&gt;Node2 -->
<g id="edge8" class="edge">
<title>Node6&#45;&gt;Node2</title>
<path fill="none" stroke="#9a32cd" stroke-dasharray="5,2" d="M252.6046,-197.7255C330.6846,-184.307 459.6883,-162.137 533.019,-149.5347"/>
<polygon fill="#9a32cd" stroke="#9a32cd" points="251.668,-194.3351 242.4053,-199.4783 252.8537,-201.2339 251.668,-194.3351"/>
<text text-anchor="middle" x="361.5" y="-214" font-family="Helvetica,sans-Serif" font-size="10.00" fill="#000000"> regions</text>
<text text-anchor="middle" x="361.5" y="-203" font-family="Helvetica,sans-Serif" font-size="10.00" fill="#000000">holes</text>
<text text-anchor="middle" x="361.5" y="-192" font-family="Helvetica,sans-Serif" font-size="10.00" fill="#000000">v</text>
</g>
<!-- Node6&#45;&gt;Node3 -->
<g id="edge4" class="edge">
<title>Node6&#45;&gt;Node3</title>
<path fill="none" stroke="#9a32cd" stroke-dasharray="5,2" d="M234.7248,-221.0338C267.5695,-229.3155 309.8896,-239.9865 336.3634,-246.6618"/>
<polygon fill="#9a32cd" stroke="#9a32cd" points="235.4162,-217.5986 224.8639,-218.5473 233.7046,-224.3862 235.4162,-217.5986"/>
<text text-anchor="middle" x="272.5" y="-247" font-family="Helvetica,sans-Serif" font-size="10.00" fill="#000000"> x</text>
<text text-anchor="middle" x="272.5" y="-236" font-family="Helvetica,sans-Serif" font-size="10.00" fill="#000000">L</text>
</g>
<!-- Node7 -->
<g id="node6" class="node">
<title>Node7</title>
<polygon fill="#ffffff" stroke="#bfbfbf" points="303,-125 303,-155 420,-155 420,-125 303,-125"/>
<text text-anchor="start" x="311" y="-143" font-family="Helvetica,sans-Serif" font-size="10.00" fill="#000000">std::vector&lt; vector</text>
<text text-anchor="middle" x="361.5" y="-132" font-family="Helvetica,sans-Serif" font-size="10.00" fill="#000000">&lt; vector&lt; double &gt; &gt; &gt;</text>
</g>
<!-- Node7&#45;&gt;Node2 -->
<g id="edge5" class="edge">
<title>Node7&#45;&gt;Node2</title>
<path fill="none" stroke="#9a32cd" stroke-dasharray="5,2" d="M430.4857,-140C454.8646,-140 482.4992,-140 507.7648,-140"/>
<polygon fill="#9a32cd" stroke="#9a32cd" points="430.2534,-136.5001 420.2534,-140 430.2533,-143.5001 430.2534,-136.5001"/>
<text text-anchor="middle" x="464" y="-143" font-family="Helvetica,sans-Serif" font-size="10.00" fill="#000000"> vertices</text>
</g>
<!-- Node8 -->
<g id="node7" class="node">
<title>Node8</title>
<polygon fill="#ffffff" stroke="#bfbfbf" points="312,-76 312,-106 411,-106 411,-76 312,-76"/>
<text text-anchor="start" x="320" y="-94" font-family="Helvetica,sans-Serif" font-size="10.00" fill="#000000">std::vector&lt; vector</text>
<text text-anchor="middle" x="361.5" y="-83" font-family="Helvetica,sans-Serif" font-size="10.00" fill="#000000">&lt; vector&lt; int &gt; &gt; &gt;</text>
</g>
<!-- Node8&#45;&gt;Node2 -->
<g id="edge6" class="edge">
<title>Node8&#45;&gt;Node2</title>
<path fill="none" stroke="#9a32cd" stroke-dasharray="5,2" d="M421.1236,-103.8703C459.7914,-112.2171 509.3222,-122.9087 544.4435,-130.49"/>
<polygon fill="#9a32cd" stroke="#9a32cd" points="421.549,-100.3816 411.0356,-101.6927 420.0719,-107.224 421.549,-100.3816"/>
<text text-anchor="middle" x="464" y="-121" font-family="Helvetica,sans-Serif" font-size="10.00" fill="#000000"> facets</text>
</g>
<!-- Node9 -->
<g id="node8" class="node">
<title>Node9</title>
<polygon fill="#ffffff" stroke="#bfbfbf" points="315.5,-.5 315.5,-19.5 407.5,-19.5 407.5,-.5 315.5,-.5"/>
<text text-anchor="middle" x="361.5" y="-7.5" font-family="Helvetica,sans-Serif" font-size="10.00" fill="#000000">std::vector&lt; int &gt;</text>
</g>
<!-- Node9&#45;&gt;Node2 -->
<g id="edge7" class="edge">
<title>Node9&#45;&gt;Node2</title>
<path fill="none" stroke="#9a32cd" stroke-dasharray="5,2" d="M417.6857,-14.9772C441.1603,-18.8535 468.0259,-25.7461 490,-38 532.5707,-61.7396 568.2131,-109.774 582.1784,-130.321"/>
<polygon fill="#9a32cd" stroke="#9a32cd" points="417.9233,-11.4737 407.5139,-13.4469 416.8819,-18.3958 417.9233,-11.4737"/>
<text text-anchor="middle" x="464" y="-96" font-family="Helvetica,sans-Serif" font-size="10.00" fill="#000000"> f</text>
<text text-anchor="middle" x="464" y="-85" font-family="Helvetica,sans-Serif" font-size="10.00" fill="#000000">vertexFlags</text>
<text text-anchor="middle" x="464" y="-74" font-family="Helvetica,sans-Serif" font-size="10.00" fill="#000000">facetHoles</text>
<text text-anchor="middle" x="464" y="-63" font-family="Helvetica,sans-Serif" font-size="10.00" fill="#000000">fN</text>
<text text-anchor="middle" x="464" y="-52" font-family="Helvetica,sans-Serif" font-size="10.00" fill="#000000">vN</text>
<text text-anchor="middle" x="464" y="-41" font-family="Helvetica,sans-Serif" font-size="10.00" fill="#000000">facetFlags</text>
</g>
</g>
</svg>
