<?xml version="1.0" encoding="UTF-8" standalone="no"?>
<!DOCTYPE svg PUBLIC "-//W3C//DTD SVG 1.1//EN"
 "http://www.w3.org/Graphics/SVG/1.1/DTD/svg11.dtd">
<!-- Generated by graphviz version 2.38.0 (20140413.2041)
 -->
<!-- Title: D_base Pages: 1 -->
<svg width="214pt" height="174pt"
 viewBox="0.00 0.00 213.50 174.00" xmlns="http://www.w3.org/2000/svg" xmlns:xlink="http://www.w3.org/1999/xlink">
<g id="graph0" class="graph" transform="scale(1 1) rotate(0) translate(4 170)">
<title>D_base</title>
<polygon fill="white" stroke="none" points="-4,4 -4,-170 209.5,-170 209.5,4 -4,4"/>
<!-- Node4 -->
<g id="node1" class="node"><title>Node4</title>
<polygon fill="#bfbfbf" stroke="black" points="99.5,-0.5 99.5,-19.5 149.5,-19.5 149.5,-0.5 99.5,-0.5"/>
<text text-anchor="middle" x="124.5" y="-7.5" font-family="Helvetica,sans-Serif" font-size="10.00">D_base</text>
</g>
<!-- Node5 -->
<g id="node2" class="node"><title>Node5</title>
<g id="a_node2"><a xlink:title="STL class. ">
<polygon fill="white" stroke="#bfbfbf" points="17.5,-78.5 17.5,-97.5 77.5,-97.5 77.5,-78.5 17.5,-78.5"/>
<text text-anchor="middle" x="47.5" y="-85.5" font-family="Helvetica,sans-Serif" font-size="10.00">std::string</text>
</a>
</g>
</g>
<!-- Node5&#45;&gt;Node4 -->
<g id="edge1" class="edge"><title>Node5&#45;&gt;Node4</title>
<path fill="none" stroke="#9a32cd" stroke-dasharray="5,2" d="M63.8372,-70.875C79.7021,-55.2161 103.181,-32.0422 115.77,-19.6165"/>
<polygon fill="#9a32cd" stroke="#9a32cd" points="60.9914,-68.7661 56.3329,-78.2818 65.9087,-73.7481 60.9914,-68.7661"/>
<text text-anchor="middle" x="108" y="-52" font-family="Helvetica,sans-Serif" font-size="10.00"> units</text>
<text text-anchor="middle" x="108" y="-41" font-family="Helvetica,sans-Serif" font-size="10.00">name</text>
</g>
<!-- Node6 -->
<g id="node3" class="node"><title>Node6</title>
<g id="a_node3"><a xlink:title="STL class. ">
<polygon fill="white" stroke="#bfbfbf" points="0,-135.5 0,-165.5 95,-165.5 95,-135.5 0,-135.5"/>
<text text-anchor="start" x="8" y="-153.5" font-family="Helvetica,sans-Serif" font-size="10.00">std::basic_string&lt;</text>
<text text-anchor="middle" x="47.5" y="-142.5" font-family="Helvetica,sans-Serif" font-size="10.00"> char &gt;</text>
</a>
</g>
</g>
<!-- Node6&#45;&gt;Node5 -->
<g id="edge2" class="edge"><title>Node6&#45;&gt;Node5</title>
<path fill="none" stroke="midnightblue" d="M47.5,-125.352C47.5,-115.513 47.5,-104.775 47.5,-97.5399"/>
<polygon fill="midnightblue" stroke="midnightblue" points="44.0001,-125.468 47.5,-135.468 51.0001,-125.468 44.0001,-125.468"/>
</g>
<!-- Node7 -->
<g id="node4" class="node"><title>Node7</title>
<polygon fill="white" stroke="#bfbfbf" points="95.5,-78.5 95.5,-97.5 205.5,-97.5 205.5,-78.5 95.5,-78.5"/>
<text text-anchor="middle" x="150.5" y="-85.5" font-family="Helvetica,sans-Serif" font-size="10.00">std::vector&lt; double &gt;</text>
</g>
<!-- Node7&#45;&gt;Node4 -->
<g id="edge3" class="edge"><title>Node7&#45;&gt;Node4</title>
<path fill="none" stroke="#9a32cd" stroke-dasharray="5,2" d="M144.231,-68.6744C138.907,-53.1127 131.504,-31.4722 127.448,-19.6165"/>
<polygon fill="#9a32cd" stroke="#9a32cd" points="140.969,-69.9531 147.517,-78.2818 147.592,-67.6873 140.969,-69.9531"/>
<text text-anchor="middle" x="145" y="-52" font-family="Helvetica,sans-Serif" font-size="10.00"> x</text>
<text text-anchor="middle" x="145" y="-41" font-family="Helvetica,sans-Serif" font-size="10.00">L</text>
</g>
</g>
</svg>
