<?xml version="1.0" encoding="UTF-8" standalone="no"?>
<!DOCTYPE svg PUBLIC "-//W3C//DTD SVG 1.1//EN"
 "http://www.w3.org/Graphics/SVG/1.1/DTD/svg11.dtd">
<!-- Generated by graphviz version 2.40.1 (20161225.0304)
 -->
<!-- Title: FSWEikonalSolverBase Pages: 1 -->
<svg width="374pt" height="140pt"
 viewBox="0.00 0.00 374.00 140.00" xmlns="http://www.w3.org/2000/svg" xmlns:xlink="http://www.w3.org/1999/xlink">
<g id="graph0" class="graph" transform="scale(1 1) rotate(0) translate(4 136)">
<title>FSWEikonalSolverBase</title>
<polygon fill="#ffffff" stroke="transparent" points="-4,4 -4,-136 370,-136 370,4 -4,4"/>
<!-- Node0 -->
<g id="node1" class="node">
<title>Node0</title>
<polygon fill="#bfbfbf" stroke="#000000" points="122,-56.5 122,-75.5 244,-75.5 244,-56.5 122,-56.5"/>
<text text-anchor="middle" x="183" y="-63.5" font-family="Helvetica,sans-Serif" font-size="10.00" fill="#000000">FSWEikonalSolverBase</text>
</g>
<!-- Node2 -->
<g id="node3" class="node">
<title>Node2</title>
<g id="a_node3"><a xlink:href="class_f_s_w_eikonal_solver1d.html" target="_top" xlink:title="FSWEikonalSolver1d">
<polygon fill="#ffffff" stroke="#000000" points="0,-.5 0,-19.5 110,-19.5 110,-.5 0,-.5"/>
<text text-anchor="middle" x="55" y="-7.5" font-family="Helvetica,sans-Serif" font-size="10.00" fill="#000000">FSWEikonalSolver1d</text>
</a>
</g>
</g>
<!-- Node0&#45;&gt;Node2 -->
<g id="edge2" class="edge">
<title>Node0&#45;&gt;Node2</title>
<path fill="none" stroke="#191970" d="M151.5652,-52.2473C128.3191,-42.0771 97.2589,-28.4883 76.7169,-19.5011"/>
<polygon fill="#191970" stroke="#191970" points="150.4315,-55.5716 160.996,-56.3733 153.2373,-49.1585 150.4315,-55.5716"/>
</g>
<!-- Node3 -->
<g id="node4" class="node">
<title>Node3</title>
<g id="a_node4"><a xlink:href="class_f_s_w_eikonal_solver2d.html" target="_top" xlink:title="FSWEikonalSolver2d">
<polygon fill="#ffffff" stroke="#000000" points="128,-.5 128,-19.5 238,-19.5 238,-.5 128,-.5"/>
<text text-anchor="middle" x="183" y="-7.5" font-family="Helvetica,sans-Serif" font-size="10.00" fill="#000000">FSWEikonalSolver2d</text>
</a>
</g>
</g>
<!-- Node0&#45;&gt;Node3 -->
<g id="edge3" class="edge">
<title>Node0&#45;&gt;Node3</title>
<path fill="none" stroke="#191970" d="M183,-46.1575C183,-37.155 183,-26.9199 183,-19.6427"/>
<polygon fill="#191970" stroke="#191970" points="179.5001,-46.2455 183,-56.2455 186.5001,-46.2456 179.5001,-46.2455"/>
</g>
<!-- Node4 -->
<g id="node5" class="node">
<title>Node4</title>
<g id="a_node5"><a xlink:href="class_f_s_w_eikonal_solver3d.html" target="_top" xlink:title="FSWEikonalSolver3d">
<polygon fill="#ffffff" stroke="#000000" points="256,-.5 256,-19.5 366,-19.5 366,-.5 256,-.5"/>
<text text-anchor="middle" x="311" y="-7.5" font-family="Helvetica,sans-Serif" font-size="10.00" fill="#000000">FSWEikonalSolver3d</text>
</a>
</g>
</g>
<!-- Node0&#45;&gt;Node4 -->
<g id="edge4" class="edge">
<title>Node0&#45;&gt;Node4</title>
<path fill="none" stroke="#191970" d="M214.4348,-52.2473C237.6809,-42.0771 268.7411,-28.4883 289.2831,-19.5011"/>
<polygon fill="#191970" stroke="#191970" points="212.7627,-49.1585 205.004,-56.3733 215.5685,-55.5716 212.7627,-49.1585"/>
</g>
<!-- Node1 -->
<g id="node2" class="node">
<title>Node1</title>
<g id="a_node2"><a xlink:href="class_f_m_m_eikonal_solver_base.html" target="_top" xlink:title="FMMEikonalSolverBase">
<polygon fill="#ffffff" stroke="#000000" points="122,-112.5 122,-131.5 244,-131.5 244,-112.5 122,-112.5"/>
<text text-anchor="middle" x="183" y="-119.5" font-family="Helvetica,sans-Serif" font-size="10.00" fill="#000000">FMMEikonalSolverBase</text>
</a>
</g>
</g>
<!-- Node1&#45;&gt;Node0 -->
<g id="edge1" class="edge">
<title>Node1&#45;&gt;Node0</title>
<path fill="none" stroke="#191970" d="M183,-102.1575C183,-93.155 183,-82.9199 183,-75.6427"/>
<polygon fill="#191970" stroke="#191970" points="179.5001,-102.2455 183,-112.2455 186.5001,-102.2456 179.5001,-102.2455"/>
</g>
</g>
</svg>
