<?xml version="1.0" encoding="UTF-8" standalone="no"?>
<!DOCTYPE svg PUBLIC "-//W3C//DTD SVG 1.1//EN"
 "http://www.w3.org/Graphics/SVG/1.1/DTD/svg11.dtd">
<!-- Generated by graphviz version 2.42.3 (0)
 -->
<!-- Title: cppSystem Pages: 1 -->
<svg width="420pt" height="174pt"
 viewBox="0.00 0.00 419.50 174.00" xmlns="http://www.w3.org/2000/svg" xmlns:xlink="http://www.w3.org/1999/xlink">
<g id="graph0" class="graph" transform="scale(1 1) rotate(0) translate(4 170)">
<title>cppSystem</title>
<polygon fill="white" stroke="transparent" points="-4,4 -4,-170 415.5,-170 415.5,4 -4,4"/>
<!-- Node1 -->
<g id="node1" class="node">
<title>Node1</title>
<g id="a_node1"><a xlink:title=" ">
<polygon fill="#bfbfbf" stroke="black" points="176,-0.5 176,-19.5 247,-19.5 247,-0.5 176,-0.5"/>
<text text-anchor="middle" x="211.5" y="-7.5" font-family="Helvetica,sans-Serif" font-size="10.00">cppSystem</text>
</a>
</g>
</g>
<!-- Node2 -->
<g id="node2" class="node">
<title>Node2</title>
<g id="a_node2"><a xlink:title=" ">
<polygon fill="white" stroke="#bfbfbf" points="0,-73 0,-92 161,-92 161,-73 0,-73"/>
<text text-anchor="middle" x="80.5" y="-80" font-family="Helvetica,sans-Serif" font-size="10.00">std::shared_ptr&lt; ChSystem &gt;</text>
</a>
</g>
</g>
<!-- Node2&#45;&gt;Node1 -->
<g id="edge1" class="edge">
<title>Node2&#45;&gt;Node1</title>
<path fill="none" stroke="#9a32cd" stroke-dasharray="5,2" d="M105.35,-68.12C131.9,-53.84 173.19,-31.62 195.64,-19.53"/>
<polygon fill="#9a32cd" stroke="#9a32cd" points="103.45,-65.17 96.3,-73 106.77,-71.34 103.45,-65.17"/>
<text text-anchor="middle" x="178.5" y="-41" font-family="Helvetica,sans-Serif" font-size="10.00"> system</text>
</g>
<!-- Node3 -->
<g id="node3" class="node">
<title>Node3</title>
<g id="a_node3"><a xlink:title="STL class.">
<polygon fill="white" stroke="#bfbfbf" points="179,-73 179,-92 244,-92 244,-73 179,-73"/>
<text text-anchor="middle" x="211.5" y="-80" font-family="Helvetica,sans-Serif" font-size="10.00">std::string</text>
</a>
</g>
</g>
<!-- Node3&#45;&gt;Node1 -->
<g id="edge2" class="edge">
<title>Node3&#45;&gt;Node1</title>
<path fill="none" stroke="#9a32cd" stroke-dasharray="5,2" d="M211.5,-62.44C211.5,-48.53 211.5,-30.32 211.5,-19.72"/>
<polygon fill="#9a32cd" stroke="#9a32cd" points="208,-62.86 211.5,-72.86 215,-62.86 208,-62.86"/>
<text text-anchor="middle" x="235" y="-41" font-family="Helvetica,sans-Serif" font-size="10.00"> directory</text>
</g>
<!-- Node4 -->
<g id="node4" class="node">
<title>Node4</title>
<g id="a_node4"><a xlink:title="STL class.">
<polygon fill="white" stroke="#bfbfbf" points="159.5,-135.5 159.5,-165.5 263.5,-165.5 263.5,-135.5 159.5,-135.5"/>
<text text-anchor="start" x="167.5" y="-153.5" font-family="Helvetica,sans-Serif" font-size="10.00">std::basic_string&lt;</text>
<text text-anchor="middle" x="211.5" y="-142.5" font-family="Helvetica,sans-Serif" font-size="10.00"> char &gt;</text>
</a>
</g>
</g>
<!-- Node4&#45;&gt;Node3 -->
<g id="edge3" class="edge">
<title>Node4&#45;&gt;Node3</title>
<path fill="none" stroke="midnightblue" d="M211.5,-124.88C211.5,-113.47 211.5,-100.64 211.5,-92.33"/>
<polygon fill="midnightblue" stroke="midnightblue" points="208,-125.18 211.5,-135.18 215,-125.18 208,-125.18"/>
</g>
<!-- Node5 -->
<g id="node5" class="node">
<title>Node5</title>
<g id="a_node5"><a xlink:title=" ">
<polygon fill="white" stroke="#bfbfbf" points="261.5,-67.5 261.5,-97.5 411.5,-97.5 411.5,-67.5 261.5,-67.5"/>
<text text-anchor="start" x="269.5" y="-85.5" font-family="Helvetica,sans-Serif" font-size="10.00">std::shared_ptr&lt; ChSystem</text>
<text text-anchor="middle" x="336.5" y="-74.5" font-family="Helvetica,sans-Serif" font-size="10.00">SMC &gt;</text>
</a>
</g>
</g>
<!-- Node5&#45;&gt;Node1 -->
<g id="edge4" class="edge">
<title>Node5&#45;&gt;Node1</title>
<path fill="none" stroke="#9a32cd" stroke-dasharray="5,2" d="M304.05,-62C291.18,-54.38 276.22,-45.66 262.5,-38 251.13,-31.65 238.15,-24.79 228.14,-19.57"/>
<polygon fill="#9a32cd" stroke="#9a32cd" points="302.61,-65.22 312.99,-67.32 306.19,-59.2 302.61,-65.22"/>
<text text-anchor="middle" x="312" y="-41" font-family="Helvetica,sans-Serif" font-size="10.00"> systemSMC</text>
</g>
</g>
</svg>
