<?xml version="1.0" encoding="UTF-8" standalone="no"?>
<!DOCTYPE svg PUBLIC "-//W3C//DTD SVG 1.1//EN"
 "http://www.w3.org/Graphics/SVG/1.1/DTD/svg11.dtd">
<!-- Generated by graphviz version 2.40.1 (20161225.0304)
 -->
<!-- Title: PlanarStraightLineGraphDomain Pages: 1 -->
<svg width="672pt" height="410pt"
 viewBox="0.00 0.00 672.00 409.50" xmlns="http://www.w3.org/2000/svg" xmlns:xlink="http://www.w3.org/1999/xlink">
<g id="graph0" class="graph" transform="scale(1 1) rotate(0) translate(4 405.5)">
<title>PlanarStraightLineGraphDomain</title>
<polygon fill="#ffffff" stroke="transparent" points="-4,4 -4,-405.5 668,-405.5 668,4 -4,4"/>
<!-- Node2 -->
<g id="node1" class="node">
<title>Node2</title>
<polygon fill="#bfbfbf" stroke="#000000" points="508,-246 508,-265 664,-265 664,-246 508,-246"/>
<text text-anchor="middle" x="586" y="-253" font-family="Helvetica,sans-Serif" font-size="10.00" fill="#000000">PlanarStraightLineGraphDomain</text>
</g>
<!-- Node3 -->
<g id="node2" class="node">
<title>Node3</title>
<g id="a_node2"><a xlink:href="class_d__base.html" target="_top" xlink:title="D_base">
<polygon fill="#ffffff" stroke="#000000" points="348.5,-337 348.5,-356 398.5,-356 398.5,-337 348.5,-337"/>
<text text-anchor="middle" x="373.5" y="-344" font-family="Helvetica,sans-Serif" font-size="10.00" fill="#000000">D_base</text>
</a>
</g>
</g>
<!-- Node3&#45;&gt;Node2 -->
<g id="edge1" class="edge">
<title>Node3&#45;&gt;Node2</title>
<path fill="none" stroke="#191970" d="M405.0895,-332.9722C448.5444,-314.3634 525.6847,-281.3292 563.6409,-265.075"/>
<polygon fill="#191970" stroke="#191970" points="403.6543,-329.7794 395.8396,-336.9334 406.41,-336.2142 403.6543,-329.7794"/>
</g>
<!-- Node4 -->
<g id="node3" class="node">
<title>Node4</title>
<g id="a_node3"><a xlink:title="STL class. ">
<polygon fill="#ffffff" stroke="#bfbfbf" points="157,-365 157,-384 217,-384 217,-365 157,-365"/>
<text text-anchor="middle" x="187" y="-372" font-family="Helvetica,sans-Serif" font-size="10.00" fill="#000000">std::string</text>
</a>
</g>
</g>
<!-- Node4&#45;&gt;Node3 -->
<g id="edge2" class="edge">
<title>Node4&#45;&gt;Node3</title>
<path fill="none" stroke="#9a32cd" stroke-dasharray="5,2" d="M226.1773,-362.2417C237.0353,-359.2632 248.8922,-356.394 260,-354.5 289.9879,-349.3866 324.9697,-347.5303 348.0852,-346.8627"/>
<polygon fill="#9a32cd" stroke="#9a32cd" points="225.1981,-358.8813 216.5367,-364.983 227.1127,-365.6144 225.1981,-358.8813"/>
<text text-anchor="middle" x="281.5" y="-368.5" font-family="Helvetica,sans-Serif" font-size="10.00" fill="#000000"> units</text>
<text text-anchor="middle" x="281.5" y="-357.5" font-family="Helvetica,sans-Serif" font-size="10.00" fill="#000000">name</text>
</g>
<!-- Node10 -->
<g id="node9" class="node">
<title>Node10</title>
<polygon fill="#ffffff" stroke="#bfbfbf" points="321,-382 321,-401 426,-401 426,-382 321,-382"/>
<text text-anchor="middle" x="373.5" y="-389" font-family="Helvetica,sans-Serif" font-size="10.00" fill="#000000">std::vector&lt; string &gt;</text>
</g>
<!-- Node4&#45;&gt;Node10 -->
<g id="edge10" class="edge">
<title>Node4&#45;&gt;Node10</title>
<path fill="none" stroke="#9a32cd" stroke-dasharray="5,2" d="M227.3963,-378.1822C254.7781,-380.6782 291.2378,-384.0016 320.8851,-386.704"/>
<polygon fill="#9a32cd" stroke="#9a32cd" points="227.656,-374.6915 217.3795,-377.2692 227.0205,-381.6626 227.656,-374.6915"/>
<text text-anchor="middle" x="281.5" y="-387.5" font-family="Helvetica,sans-Serif" font-size="10.00" fill="#000000"> elements</text>
</g>
<!-- Node5 -->
<g id="node4" class="node">
<title>Node5</title>
<g id="a_node4"><a xlink:title="STL class. ">
<polygon fill="#ffffff" stroke="#bfbfbf" points="0,-359.5 0,-389.5 95,-389.5 95,-359.5 0,-359.5"/>
<text text-anchor="start" x="8" y="-377.5" font-family="Helvetica,sans-Serif" font-size="10.00" fill="#000000">std::basic_string&lt;</text>
<text text-anchor="middle" x="47.5" y="-366.5" font-family="Helvetica,sans-Serif" font-size="10.00" fill="#000000"> char &gt;</text>
</a>
</g>
</g>
<!-- Node5&#45;&gt;Node4 -->
<g id="edge3" class="edge">
<title>Node5&#45;&gt;Node4</title>
<path fill="none" stroke="#191970" d="M105.3321,-374.5C122.9452,-374.5 141.6032,-374.5 156.6325,-374.5"/>
<polygon fill="#191970" stroke="#191970" points="105.1179,-371.0001 95.1178,-374.5 105.1178,-378.0001 105.1179,-371.0001"/>
</g>
<!-- Node6 -->
<g id="node5" class="node">
<title>Node6</title>
<polygon fill="#ffffff" stroke="#bfbfbf" points="132,-265 132,-284 242,-284 242,-265 132,-265"/>
<text text-anchor="middle" x="187" y="-272" font-family="Helvetica,sans-Serif" font-size="10.00" fill="#000000">std::vector&lt; double &gt;</text>
</g>
<!-- Node6&#45;&gt;Node2 -->
<g id="edge12" class="edge">
<title>Node6&#45;&gt;Node2</title>
<path fill="none" stroke="#9a32cd" stroke-dasharray="5,2" d="M252.3288,-271.5923C313.6972,-268.8346 408.0856,-264.5256 490,-260.5 495.8342,-260.2133 501.8675,-259.9115 507.9365,-259.6042"/>
<polygon fill="#9a32cd" stroke="#9a32cd" points="251.8514,-268.1101 242.0184,-272.055 252.1653,-275.1031 251.8514,-268.1101"/>
<text text-anchor="middle" x="373.5" y="-303.5" font-family="Helvetica,sans-Serif" font-size="10.00" fill="#000000"> regions</text>
<text text-anchor="middle" x="373.5" y="-292.5" font-family="Helvetica,sans-Serif" font-size="10.00" fill="#000000">h</text>
<text text-anchor="middle" x="373.5" y="-281.5" font-family="Helvetica,sans-Serif" font-size="10.00" fill="#000000">r</text>
<text text-anchor="middle" x="373.5" y="-270.5" font-family="Helvetica,sans-Serif" font-size="10.00" fill="#000000">v</text>
</g>
<!-- Node6&#45;&gt;Node3 -->
<g id="edge4" class="edge">
<title>Node6&#45;&gt;Node3</title>
<path fill="none" stroke="#9a32cd" stroke-dasharray="5,2" d="M221.1128,-287.6695C257.9771,-301.9014 315.835,-324.2379 348.6318,-336.8994"/>
<polygon fill="#9a32cd" stroke="#9a32cd" points="222.3553,-284.3975 211.7658,-284.061 219.8341,-290.9278 222.3553,-284.3975"/>
<text text-anchor="middle" x="281.5" y="-332.5" font-family="Helvetica,sans-Serif" font-size="10.00" fill="#000000"> x</text>
<text text-anchor="middle" x="281.5" y="-321.5" font-family="Helvetica,sans-Serif" font-size="10.00" fill="#000000">L</text>
</g>
<!-- Node9 -->
<g id="node8" class="node">
<title>Node9</title>
<polygon fill="#ffffff" stroke="#bfbfbf" points="324,-207.5 324,-237.5 423,-237.5 423,-207.5 324,-207.5"/>
<text text-anchor="start" x="332" y="-225.5" font-family="Helvetica,sans-Serif" font-size="10.00" fill="#000000">std::vector&lt; vector</text>
<text text-anchor="middle" x="373.5" y="-214.5" font-family="Helvetica,sans-Serif" font-size="10.00" fill="#000000">&lt; double &gt; &gt;</text>
</g>
<!-- Node6&#45;&gt;Node9 -->
<g id="edge8" class="edge">
<title>Node6&#45;&gt;Node9</title>
<path fill="none" stroke="#9a32cd" stroke-dasharray="5,2" d="M222.3911,-261.6124C234.2667,-257.4937 247.6346,-253.0791 260,-249.5 280.7208,-243.5025 303.8445,-237.8222 323.7858,-233.2332"/>
<polygon fill="#9a32cd" stroke="#9a32cd" points="221.094,-258.3583 212.8213,-264.9776 223.4162,-264.9619 221.094,-258.3583"/>
<text text-anchor="middle" x="281.5" y="-252.5" font-family="Helvetica,sans-Serif" font-size="10.00" fill="#000000"> elements</text>
</g>
<!-- Node7 -->
<g id="node6" class="node">
<title>Node7</title>
<polygon fill="#ffffff" stroke="#bfbfbf" points="324,-.5 324,-30.5 423,-30.5 423,-.5 324,-.5"/>
<text text-anchor="start" x="332" y="-18.5" font-family="Helvetica,sans-Serif" font-size="10.00" fill="#000000">std::vector&lt; vector</text>
<text text-anchor="middle" x="373.5" y="-7.5" font-family="Helvetica,sans-Serif" font-size="10.00" fill="#000000">&lt; int &gt; &gt;</text>
</g>
<!-- Node7&#45;&gt;Node2 -->
<g id="edge5" class="edge">
<title>Node7&#45;&gt;Node2</title>
<path fill="none" stroke="#9a32cd" stroke-dasharray="5,2" d="M433.1435,-18.7646C452.9946,-22.429 474.078,-29.4245 490,-42.5 557.7076,-98.103 579.5024,-211.5136 584.6602,-245.597"/>
<polygon fill="#9a32cd" stroke="#9a32cd" points="433.6453,-15.3005 423.2184,-17.1793 432.5412,-22.2129 433.6453,-15.3005"/>
<text text-anchor="middle" x="467" y="-45.5" font-family="Helvetica,sans-Serif" font-size="10.00" fill="#000000"> segments</text>
</g>
<!-- Node8 -->
<g id="node7" class="node">
<title>Node8</title>
<polygon fill="#ffffff" stroke="#bfbfbf" points="141,-39 141,-58 233,-58 233,-39 141,-39"/>
<text text-anchor="middle" x="187" y="-46" font-family="Helvetica,sans-Serif" font-size="10.00" fill="#000000">std::vector&lt; int &gt;</text>
</g>
<!-- Node8&#45;&gt;Node2 -->
<g id="edge11" class="edge">
<title>Node8&#45;&gt;Node2</title>
<path fill="none" stroke="#9a32cd" stroke-dasharray="5,2" d="M243.2855,-50.7882C303.7149,-54.0369 395.1976,-61.4766 426,-77.5 504.5178,-118.3449 563.1412,-214.4464 580.6198,-245.5782"/>
<polygon fill="#9a32cd" stroke="#9a32cd" points="243.2939,-47.2841 233.1273,-50.2656 242.9342,-54.2749 243.2939,-47.2841"/>
<text text-anchor="middle" x="373.5" y="-190.5" font-family="Helvetica,sans-Serif" font-size="10.00" fill="#000000"> vertexFlags</text>
<text text-anchor="middle" x="373.5" y="-179.5" font-family="Helvetica,sans-Serif" font-size="10.00" fill="#000000">nVertices</text>
<text text-anchor="middle" x="373.5" y="-168.5" font-family="Helvetica,sans-Serif" font-size="10.00" fill="#000000">segmentFlags</text>
<text text-anchor="middle" x="373.5" y="-157.5" font-family="Helvetica,sans-Serif" font-size="10.00" fill="#000000">sFlags</text>
<text text-anchor="middle" x="373.5" y="-146.5" font-family="Helvetica,sans-Serif" font-size="10.00" fill="#000000">hN</text>
<text text-anchor="middle" x="373.5" y="-135.5" font-family="Helvetica,sans-Serif" font-size="10.00" fill="#000000">vN</text>
<text text-anchor="middle" x="373.5" y="-124.5" font-family="Helvetica,sans-Serif" font-size="10.00" fill="#000000">regionFlags</text>
<text text-anchor="middle" x="373.5" y="-113.5" font-family="Helvetica,sans-Serif" font-size="10.00" fill="#000000">vertexAttributes</text>
<text text-anchor="middle" x="373.5" y="-102.5" font-family="Helvetica,sans-Serif" font-size="10.00" fill="#000000">s</text>
<text text-anchor="middle" x="373.5" y="-91.5" font-family="Helvetica,sans-Serif" font-size="10.00" fill="#000000">sN</text>
<text text-anchor="middle" x="373.5" y="-80.5" font-family="Helvetica,sans-Serif" font-size="10.00" fill="#000000">...</text>
</g>
<!-- Node8&#45;&gt;Node7 -->
<g id="edge6" class="edge">
<title>Node8&#45;&gt;Node7</title>
<path fill="none" stroke="#9a32cd" stroke-dasharray="5,2" d="M243.0544,-38.5815C268.7015,-34.0434 298.8384,-28.7109 323.6803,-24.3153"/>
<polygon fill="#9a32cd" stroke="#9a32cd" points="242.3383,-35.1538 233.1011,-40.3427 243.558,-42.0467 242.3383,-35.1538"/>
<text text-anchor="middle" x="281.5" y="-38.5" font-family="Helvetica,sans-Serif" font-size="10.00" fill="#000000"> elements</text>
</g>
<!-- Node9&#45;&gt;Node2 -->
<g id="edge7" class="edge">
<title>Node9&#45;&gt;Node2</title>
<path fill="none" stroke="#9a32cd" stroke-dasharray="5,2" d="M433.1031,-230.233C451.3805,-232.7261 471.5368,-235.5985 490,-238.5 504.3799,-240.7598 519.9322,-243.4198 534.2465,-245.9561"/>
<polygon fill="#9a32cd" stroke="#9a32cd" points="433.5438,-226.7608 423.165,-228.8892 432.6058,-233.6977 433.5438,-226.7608"/>
<text text-anchor="middle" x="467" y="-252.5" font-family="Helvetica,sans-Serif" font-size="10.00" fill="#000000"> holes</text>
<text text-anchor="middle" x="467" y="-241.5" font-family="Helvetica,sans-Serif" font-size="10.00" fill="#000000">vertices</text>
</g>
<!-- Node10&#45;&gt;Node2 -->
<g id="edge9" class="edge">
<title>Node10&#45;&gt;Node2</title>
<path fill="none" stroke="#9a32cd" stroke-dasharray="5,2" d="M403.638,-377.4916C411.059,-373.793 418.9084,-369.6652 426,-365.5 482.9703,-332.0391 546.4939,-285.3352 573.1411,-265.2808"/>
<polygon fill="#9a32cd" stroke="#9a32cd" points="402.0124,-374.3903 394.5564,-381.9175 405.0791,-380.6828 402.0124,-374.3903"/>
<text text-anchor="middle" x="467" y="-357.5" font-family="Helvetica,sans-Serif" font-size="10.00" fill="#000000"> line</text>
</g>
</g>
</svg>
