<?xml version="1.0" encoding="UTF-8" standalone="no"?>
<!DOCTYPE svg PUBLIC "-//W3C//DTD SVG 1.1//EN"
 "http://www.w3.org/Graphics/SVG/1.1/DTD/svg11.dtd">
<!-- Generated by graphviz version 2.42.3 (0)
 -->
<!-- Title: proteus::RANS2P2D&lt; CompKernelType, CompKernelType_v, nSpace, nQuadraturePoints_element, nDOF_mesh_trial_element, nDOF_trial_element, nDOF_test_element, nDOF_v_trial_element, nDOF_v_test_element, nQuadraturePoints_elementBoundary &gt; Pages: 1 -->
<svg width="509pt" height="105pt"
 viewBox="0.00 0.00 509.00 104.50" xmlns="http://www.w3.org/2000/svg" xmlns:xlink="http://www.w3.org/1999/xlink">
<g id="graph0" class="graph" transform="scale(1 1) rotate(0) translate(4 100.5)">
<title>proteus::RANS2P2D&lt; CompKernelType, CompKernelType_v, nSpace, nQuadraturePoints_element, nDOF_mesh_trial_element, nDOF_trial_element, nDOF_test_element, nDOF_v_trial_element, nDOF_v_test_element, nQuadraturePoints_elementBoundary &gt;</title>
<polygon fill="white" stroke="transparent" points="-4,4 -4,-100.5 505,-100.5 505,4 -4,4"/>
<!-- Node1 -->
<g id="node1" class="node">
<title>Node1</title>
<g id="a_node1"><a xlink:title=" ">
<polygon fill="#bfbfbf" stroke="black" points="256,-11 256,-96 501,-96 501,-11 256,-11"/>
<text text-anchor="start" x="264" y="-84" font-family="Helvetica,sans-Serif" font-size="10.00">proteus::RANS2P2D&lt;</text>
<text text-anchor="start" x="264" y="-73" font-family="Helvetica,sans-Serif" font-size="10.00"> CompKernelType, CompKernel</text>
<text text-anchor="start" x="264" y="-62" font-family="Helvetica,sans-Serif" font-size="10.00">Type_v, nSpace, nQuadraturePoints</text>
<text text-anchor="start" x="264" y="-51" font-family="Helvetica,sans-Serif" font-size="10.00">_element, nDOF_mesh_trial_element,</text>
<text text-anchor="start" x="264" y="-40" font-family="Helvetica,sans-Serif" font-size="10.00"> nDOF_trial_element, nDOF_test_element,</text>
<text text-anchor="start" x="264" y="-29" font-family="Helvetica,sans-Serif" font-size="10.00"> nDOF_v_trial_element, nDOF_v_test_element,</text>
<text text-anchor="middle" x="378.5" y="-18" font-family="Helvetica,sans-Serif" font-size="10.00"> nQuadraturePoints_elementBoundary &gt;</text>
</a>
</g>
</g>
<!-- Node2 -->
<g id="node2" class="node">
<title>Node2</title>
<g id="a_node2"><a xlink:href="classproteus_1_1_r_a_n_s2_p2_d__base.html" target="_top" xlink:title=" ">
<polygon fill="white" stroke="black" points="28,-72 28,-91 168,-91 168,-72 28,-72"/>
<text text-anchor="middle" x="98" y="-79" font-family="Helvetica,sans-Serif" font-size="10.00">proteus::RANS2P2D_base</text>
</a>
</g>
</g>
<!-- Node2&#45;&gt;Node1 -->
<g id="edge1" class="edge">
<title>Node2&#45;&gt;Node1</title>
<path fill="none" stroke="midnightblue" d="M178.34,-73.52C202.45,-71.1 229.53,-68.38 255.76,-65.74"/>
<polygon fill="midnightblue" stroke="midnightblue" points="177.8,-70.06 168.2,-74.54 178.5,-77.02 177.8,-70.06"/>
</g>
<!-- Node3 -->
<g id="node3" class="node">
<title>Node3</title>
<g id="a_node3"><a xlink:href="classequivalent__polynomials_1_1_generalized_functions__mix.html" target="_top" xlink:title=" ">
<polygon fill="white" stroke="black" points="0,-0.5 0,-52.5 196,-52.5 196,-0.5 0,-0.5"/>
<text text-anchor="start" x="8" y="-40.5" font-family="Helvetica,sans-Serif" font-size="10.00">equivalent_polynomials</text>
<text text-anchor="start" x="8" y="-29.5" font-family="Helvetica,sans-Serif" font-size="10.00">::GeneralizedFunctions</text>
<text text-anchor="start" x="8" y="-18.5" font-family="Helvetica,sans-Serif" font-size="10.00">_mix&lt; nSpace, 1, nQuadraturePoints</text>
<text text-anchor="middle" x="98" y="-7.5" font-family="Helvetica,sans-Serif" font-size="10.00">_element &gt;</text>
</a>
</g>
</g>
<!-- Node3&#45;&gt;Node1 -->
<g id="edge2" class="edge">
<title>Node3&#45;&gt;Node1</title>
<path fill="none" stroke="#9a32cd" stroke-dasharray="5,2" d="M206.07,-36.88C222.36,-38.46 239.27,-40.1 255.84,-41.71"/>
<polygon fill="#9a32cd" stroke="#9a32cd" points="206.31,-33.39 196.01,-35.91 205.63,-40.35 206.31,-33.39"/>
<text text-anchor="middle" x="226" y="-53.5" font-family="Helvetica,sans-Serif" font-size="10.00"> gf_s</text>
<text text-anchor="middle" x="226" y="-42.5" font-family="Helvetica,sans-Serif" font-size="10.00">gf</text>
</g>
</g>
</svg>
