<?xml version="1.0" encoding="UTF-8" standalone="no"?>
<!DOCTYPE svg PUBLIC "-//W3C//DTD SVG 1.1//EN"
 "http://www.w3.org/Graphics/SVG/1.1/DTD/svg11.dtd">
<!-- Generated by graphviz version 2.42.3 (0)
 -->
<!-- Title: proteus::cppRANS3PF&lt; CompKernelType, nSpace, nQuadraturePoints_element, nDOF_mesh_trial_element, nDOF_trial_element, nDOF_test_element, nQuadraturePoints_elementBoundary &gt; Pages: 1 -->
<svg width="873pt" height="338pt"
 viewBox="0.00 0.00 873.00 337.50" xmlns="http://www.w3.org/2000/svg" xmlns:xlink="http://www.w3.org/1999/xlink">
<g id="graph0" class="graph" transform="scale(1 1) rotate(0) translate(4 333.5)">
<title>proteus::cppRANS3PF&lt; CompKernelType, nSpace, nQuadraturePoints_element, nDOF_mesh_trial_element, nDOF_trial_element, nDOF_test_element, nQuadraturePoints_elementBoundary &gt;</title>
<polygon fill="white" stroke="transparent" points="-4,4 -4,-333.5 869,-333.5 869,4 -4,4"/>
<!-- Node1 -->
<g id="node1" class="node">
<title>Node1</title>
<g id="a_node1"><a xlink:title=" ">
<polygon fill="#bfbfbf" stroke="black" points="602,-83.5 602,-157.5 865,-157.5 865,-83.5 602,-83.5"/>
<text text-anchor="start" x="610" y="-145.5" font-family="Helvetica,sans-Serif" font-size="10.00">proteus::cppRANS3PF</text>
<text text-anchor="start" x="610" y="-134.5" font-family="Helvetica,sans-Serif" font-size="10.00">&lt; CompKernelType, nSpace,</text>
<text text-anchor="start" x="610" y="-123.5" font-family="Helvetica,sans-Serif" font-size="10.00"> nQuadraturePoints_element,</text>
<text text-anchor="start" x="610" y="-112.5" font-family="Helvetica,sans-Serif" font-size="10.00"> nDOF_mesh_trial_element,</text>
<text text-anchor="start" x="610" y="-101.5" font-family="Helvetica,sans-Serif" font-size="10.00"> nDOF_trial_element, nDOF_test</text>
<text text-anchor="middle" x="733.5" y="-90.5" font-family="Helvetica,sans-Serif" font-size="10.00">_element, nQuadraturePoints_elementBoundary &gt;</text>
</a>
</g>
</g>
<!-- Node2 -->
<g id="node2" class="node">
<title>Node2</title>
<g id="a_node2"><a xlink:href="classproteus_1_1cpp_r_a_n_s3_p_f__base.html" target="_top" xlink:title=" ">
<polygon fill="white" stroke="black" points="287,-188 287,-207 437,-207 437,-188 287,-188"/>
<text text-anchor="middle" x="362" y="-195" font-family="Helvetica,sans-Serif" font-size="10.00">proteus::cppRANS3PF_base</text>
</a>
</g>
</g>
<!-- Node2&#45;&gt;Node1 -->
<g id="edge1" class="edge">
<title>Node2&#45;&gt;Node1</title>
<path fill="none" stroke="midnightblue" d="M447.13,-186.57C488.56,-180.58 539.14,-172.36 584,-162.5 590.93,-160.98 598.02,-159.32 605.16,-157.57"/>
<polygon fill="midnightblue" stroke="midnightblue" points="446.48,-183.13 437.08,-188.01 447.47,-190.06 446.48,-183.13"/>
</g>
<!-- Node3 -->
<g id="node3" class="node">
<title>Node3</title>
<g id="a_node3"><a xlink:title=" ">
<polygon fill="white" stroke="#bfbfbf" points="0,-188 0,-207 134,-207 134,-188 0,-188"/>
<text text-anchor="middle" x="67" y="-195" font-family="Helvetica,sans-Serif" font-size="10.00">std::valarray&lt; double &gt;</text>
</a>
</g>
</g>
<!-- Node3&#45;&gt;Node2 -->
<g id="edge2" class="edge">
<title>Node3&#45;&gt;Node2</title>
<path fill="none" stroke="#9a32cd" stroke-dasharray="5,2" d="M144.19,-197.5C188.17,-197.5 243.24,-197.5 286.88,-197.5"/>
<polygon fill="#9a32cd" stroke="#9a32cd" points="144.12,-194 134.12,-197.5 144.12,-201 144.12,-194"/>
<text text-anchor="middle" x="199" y="-321.5" font-family="Helvetica,sans-Serif" font-size="10.00"> wStar_min_hiHe</text>
<text text-anchor="middle" x="199" y="-310.5" font-family="Helvetica,sans-Serif" font-size="10.00">den_hi</text>
<text text-anchor="middle" x="199" y="-299.5" font-family="Helvetica,sans-Serif" font-size="10.00">vStar_hi</text>
<text text-anchor="start" x="152" y="-288.5" font-family="Helvetica,sans-Serif" font-size="10.00">TransposeTransport</text>
<text text-anchor="middle" x="199" y="-277.5" font-family="Helvetica,sans-Serif" font-size="10.00">Matrix</text>
<text text-anchor="middle" x="199" y="-266.5" font-family="Helvetica,sans-Serif" font-size="10.00">uStar_hi</text>
<text text-anchor="middle" x="199" y="-255.5" font-family="Helvetica,sans-Serif" font-size="10.00">wStar_hi</text>
<text text-anchor="middle" x="199" y="-244.5" font-family="Helvetica,sans-Serif" font-size="10.00">wStar_psi</text>
<text text-anchor="middle" x="199" y="-233.5" font-family="Helvetica,sans-Serif" font-size="10.00">wStar_gamma</text>
<text text-anchor="middle" x="199" y="-222.5" font-family="Helvetica,sans-Serif" font-size="10.00">vStar_psi</text>
<text text-anchor="middle" x="199" y="-211.5" font-family="Helvetica,sans-Serif" font-size="10.00">uStar_psi</text>
<text text-anchor="middle" x="199" y="-200.5" font-family="Helvetica,sans-Serif" font-size="10.00">...</text>
</g>
<!-- Node4 -->
<g id="node4" class="node">
<title>Node4</title>
<g id="a_node4"><a xlink:href="classproteus_1_1cpp_hsu_sed_stress.html" target="_top" xlink:title=" ">
<polygon fill="white" stroke="black" points="276,-150 276,-169 448,-169 448,-150 276,-150"/>
<text text-anchor="middle" x="362" y="-157" font-family="Helvetica,sans-Serif" font-size="10.00">proteus::cppHsuSedStress&lt; 3 &gt;</text>
</a>
</g>
</g>
<!-- Node4&#45;&gt;Node1 -->
<g id="edge3" class="edge">
<title>Node4&#45;&gt;Node1</title>
<path fill="none" stroke="#9a32cd" stroke-dasharray="5,2" d="M458.32,-150.32C497.3,-146.49 542.82,-141.91 584,-137.5 589.81,-136.88 595.74,-136.24 601.73,-135.58"/>
<polygon fill="#9a32cd" stroke="#9a32cd" points="457.65,-146.87 448.04,-151.33 458.33,-153.84 457.65,-146.87"/>
<text text-anchor="middle" x="531" y="-150.5" font-family="Helvetica,sans-Serif" font-size="10.00"> closure</text>
</g>
<!-- Node5 -->
<g id="node5" class="node">
<title>Node5</title>
<g id="a_node5"><a xlink:title=" ">
<polygon fill="white" stroke="#bfbfbf" points="310,-72 310,-91 414,-91 414,-72 310,-72"/>
<text text-anchor="middle" x="362" y="-79" font-family="Helvetica,sans-Serif" font-size="10.00">std::vector&lt; int &gt;</text>
</a>
</g>
</g>
<!-- Node5&#45;&gt;Node1 -->
<g id="edge4" class="edge">
<title>Node5&#45;&gt;Node1</title>
<path fill="none" stroke="#9a32cd" stroke-dasharray="5,2" d="M424.25,-79.61C441.62,-79.15 460.55,-78.73 478,-78.5 525.11,-77.89 537.34,-72.03 584,-78.5 593.16,-79.77 602.54,-81.46 611.93,-83.43"/>
<polygon fill="#9a32cd" stroke="#9a32cd" points="424.13,-76.11 414.23,-79.88 424.32,-83.11 424.13,-76.11"/>
<text text-anchor="start" x="478" y="-125.5" font-family="Helvetica,sans-Serif" font-size="10.00"> surrogate_boundary</text>
<text text-anchor="middle" x="531" y="-114.5" font-family="Helvetica,sans-Serif" font-size="10.00">_elements</text>
<text text-anchor="middle" x="531" y="-103.5" font-family="Helvetica,sans-Serif" font-size="10.00">surrogate_boundaries</text>
<text text-anchor="start" x="478" y="-92.5" font-family="Helvetica,sans-Serif" font-size="10.00">surrogate_boundary</text>
<text text-anchor="middle" x="531" y="-81.5" font-family="Helvetica,sans-Serif" font-size="10.00">_particle</text>
</g>
<!-- Node6 -->
<g id="node6" class="node">
<title>Node6</title>
<g id="a_node6"><a xlink:href="classequivalent__polynomials_1_1_generalized_functions__mix.html" target="_top" xlink:title=" ">
<polygon fill="white" stroke="black" points="264,-0.5 264,-52.5 460,-52.5 460,-0.5 264,-0.5"/>
<text text-anchor="start" x="272" y="-40.5" font-family="Helvetica,sans-Serif" font-size="10.00">equivalent_polynomials</text>
<text text-anchor="start" x="272" y="-29.5" font-family="Helvetica,sans-Serif" font-size="10.00">::GeneralizedFunctions</text>
<text text-anchor="start" x="272" y="-18.5" font-family="Helvetica,sans-Serif" font-size="10.00">_mix&lt; nSpace, 1, nQuadraturePoints</text>
<text text-anchor="middle" x="362" y="-7.5" font-family="Helvetica,sans-Serif" font-size="10.00">_element &gt;</text>
</a>
</g>
</g>
<!-- Node6&#45;&gt;Node1 -->
<g id="edge5" class="edge">
<title>Node6&#45;&gt;Node1</title>
<path fill="none" stroke="#9a32cd" stroke-dasharray="5,2" d="M470.3,-29.57C506.89,-32.62 547.71,-38.25 584,-48.5 612.95,-56.68 643.14,-70.26 668.67,-83.44"/>
<polygon fill="#9a32cd" stroke="#9a32cd" points="470.34,-26.07 460.1,-28.78 469.8,-33.05 470.34,-26.07"/>
<text text-anchor="middle" x="531" y="-62.5" font-family="Helvetica,sans-Serif" font-size="10.00"> gf_s</text>
<text text-anchor="middle" x="531" y="-51.5" font-family="Helvetica,sans-Serif" font-size="10.00">gf</text>
</g>
</g>
</svg>
