<?xml version="1.0" encoding="UTF-8" standalone="no"?>
<!DOCTYPE svg PUBLIC "-//W3C//DTD SVG 1.1//EN"
 "http://www.w3.org/Graphics/SVG/1.1/DTD/svg11.dtd">
<!-- Generated by graphviz version 2.38.0 (20140413.2041)
 -->
<!-- Title: cmeshToolsModule.h Pages: 1 -->
<svg width="399pt" height="140pt"
 viewBox="0.00 0.00 399.00 140.00" xmlns="http://www.w3.org/2000/svg" xmlns:xlink="http://www.w3.org/1999/xlink">
<g id="graph0" class="graph" transform="scale(1 1) rotate(0) translate(4 136)">
<title>cmeshToolsModule.h</title>
<polygon fill="white" stroke="none" points="-4,4 -4,-136 395,-136 395,4 -4,4"/>
<!-- Node14 -->
<g id="node1" class="node"><title>Node14</title>
<polygon fill="#bfbfbf" stroke="black" points="130.5,-112.5 130.5,-131.5 240.5,-131.5 240.5,-112.5 130.5,-112.5"/>
<text text-anchor="middle" x="185.5" y="-119.5" font-family="Helvetica,sans-Serif" font-size="10.00">cmeshToolsModule.h</text>
</g>
<!-- Node15 -->
<g id="node2" class="node"><title>Node15</title>
<g id="a_node2"><a xlink:href="cfmmfsw_module_8cpp.html" target="_top" xlink:title="cfmmfswModule.cpp">
<polygon fill="white" stroke="black" points="-7.10543e-15,-56.5 -7.10543e-15,-75.5 107,-75.5 107,-56.5 -7.10543e-15,-56.5"/>
<text text-anchor="middle" x="53.5" y="-63.5" font-family="Helvetica,sans-Serif" font-size="10.00">cfmmfswModule.cpp</text>
</a>
</g>
</g>
<!-- Node14&#45;&gt;Node15 -->
<g id="edge1" class="edge"><title>Node14&#45;&gt;Node15</title>
<path fill="none" stroke="midnightblue" d="M155.281,-108.638C130.51,-98.504 96.1004,-84.4274 74.3179,-75.5164"/>
<polygon fill="midnightblue" stroke="midnightblue" points="154.003,-111.897 164.584,-112.444 156.654,-105.418 154.003,-111.897"/>
</g>
<!-- Node16 -->
<g id="node3" class="node"><title>Node16</title>
<g id="a_node3"><a xlink:href="cmesh_tools_module_8cpp.html" target="_top" xlink:title="cmeshToolsModule.cpp">
<polygon fill="white" stroke="black" points="125.5,-56.5 125.5,-75.5 245.5,-75.5 245.5,-56.5 125.5,-56.5"/>
<text text-anchor="middle" x="185.5" y="-63.5" font-family="Helvetica,sans-Serif" font-size="10.00">cmeshToolsModule.cpp</text>
</a>
</g>
</g>
<!-- Node14&#45;&gt;Node16 -->
<g id="edge2" class="edge"><title>Node14&#45;&gt;Node16</title>
<path fill="none" stroke="midnightblue" d="M185.5,-101.805C185.5,-92.9102 185.5,-82.7798 185.5,-75.7511"/>
<polygon fill="midnightblue" stroke="midnightblue" points="182,-102.083 185.5,-112.083 189,-102.083 182,-102.083"/>
</g>
<!-- Node17 -->
<g id="node4" class="node"><title>Node17</title>
<g id="a_node4"><a xlink:href="flcbdf_wrappers_module_8h.html" target="_top" xlink:title="Python interface to adpative BDF code (daetk) ">
<polygon fill="white" stroke="black" points="263.5,-56.5 263.5,-75.5 385.5,-75.5 385.5,-56.5 263.5,-56.5"/>
<text text-anchor="middle" x="324.5" y="-63.5" font-family="Helvetica,sans-Serif" font-size="10.00">flcbdfWrappersModule.h</text>
</a>
</g>
</g>
<!-- Node14&#45;&gt;Node17 -->
<g id="edge3" class="edge"><title>Node14&#45;&gt;Node17</title>
<path fill="none" stroke="midnightblue" d="M216.976,-108.772C243.085,-98.6287 279.539,-84.4669 302.578,-75.5164"/>
<polygon fill="midnightblue" stroke="midnightblue" points="215.579,-105.56 207.525,-112.444 218.114,-112.085 215.579,-105.56"/>
</g>
<!-- Node18 -->
<g id="node5" class="node"><title>Node18</title>
<g id="a_node5"><a xlink:href="flcbdf_wrappers_module_8cpp.html" target="_top" xlink:title="flcbdfWrappersModule.cpp">
<polygon fill="white" stroke="black" points="258,-0.5 258,-19.5 391,-19.5 391,-0.5 258,-0.5"/>
<text text-anchor="middle" x="324.5" y="-7.5" font-family="Helvetica,sans-Serif" font-size="10.00">flcbdfWrappersModule.cpp</text>
</a>
</g>
</g>
<!-- Node17&#45;&gt;Node18 -->
<g id="edge4" class="edge"><title>Node17&#45;&gt;Node18</title>
<path fill="none" stroke="midnightblue" d="M324.5,-45.8045C324.5,-36.9102 324.5,-26.7798 324.5,-19.7511"/>
<polygon fill="midnightblue" stroke="midnightblue" points="321,-46.083 324.5,-56.083 328,-46.083 321,-46.083"/>
</g>
</g>
</svg>
