<?xml version="1.0" encoding="UTF-8" standalone="no"?>
<!DOCTYPE svg PUBLIC "-//W3C//DTD SVG 1.1//EN"
 "http://www.w3.org/Graphics/SVG/1.1/DTD/svg11.dtd">
<!-- Generated by graphviz version 2.38.0 (20140413.2041)
 -->
<!-- Title: cmeshToolsModule.cpp Pages: 1 -->
<svg width="613pt" height="196pt"
 viewBox="0.00 0.00 613.00 196.00" xmlns="http://www.w3.org/2000/svg" xmlns:xlink="http://www.w3.org/1999/xlink">
<g id="graph0" class="graph" transform="scale(1 1) rotate(0) translate(4 192)">
<title>cmeshToolsModule.cpp</title>
<polygon fill="white" stroke="none" points="-4,4 -4,-192 609,-192 609,4 -4,4"/>
<!-- Node1 -->
<g id="node1" class="node"><title>Node1</title>
<polygon fill="#bfbfbf" stroke="black" points="353,-168.5 353,-187.5 473,-187.5 473,-168.5 353,-168.5"/>
<text text-anchor="middle" x="413" y="-175.5" font-family="Helvetica,sans-Serif" font-size="10.00">cmeshToolsModule.cpp</text>
</g>
<!-- Node2 -->
<g id="node2" class="node"><title>Node2</title>
<g id="a_node2"><a xlink:href="cmesh_tools_module_8h.html" target="_top" xlink:title="cmeshToolsModule.h">
<polygon fill="white" stroke="black" points="160,-112.5 160,-131.5 270,-131.5 270,-112.5 160,-112.5"/>
<text text-anchor="middle" x="215" y="-119.5" font-family="Helvetica,sans-Serif" font-size="10.00">cmeshToolsModule.h</text>
</a>
</g>
</g>
<!-- Node1&#45;&gt;Node2 -->
<g id="edge1" class="edge"><title>Node1&#45;&gt;Node2</title>
<path fill="none" stroke="midnightblue" d="M381.626,-168.444C347.737,-159.201 293.597,-144.436 256.276,-134.257"/>
<polygon fill="midnightblue" stroke="midnightblue" points="256.795,-130.771 246.227,-131.516 254.954,-137.524 256.795,-130.771"/>
</g>
<!-- Node5 -->
<g id="node5" class="node"><title>Node5</title>
<g id="a_node5"><a xlink:href="mesh_8h.html" target="_top" xlink:title="mesh.h">
<polygon fill="white" stroke="black" points="326.5,-56.5 326.5,-75.5 375.5,-75.5 375.5,-56.5 326.5,-56.5"/>
<text text-anchor="middle" x="351" y="-63.5" font-family="Helvetica,sans-Serif" font-size="10.00">mesh.h</text>
</a>
</g>
</g>
<!-- Node1&#45;&gt;Node5 -->
<g id="edge15" class="edge"><title>Node1&#45;&gt;Node5</title>
<path fill="none" stroke="midnightblue" d="M408.135,-168.368C397.948,-150.296 374.209,-108.176 360.755,-84.3074"/>
<polygon fill="midnightblue" stroke="midnightblue" points="363.802,-82.5844 355.842,-75.5914 357.704,-86.0215 363.802,-82.5844"/>
</g>
<!-- Node6 -->
<g id="node6" class="node"><title>Node6</title>
<polygon fill="white" stroke="#bfbfbf" points="0,-0.5 0,-19.5 30,-19.5 30,-0.5 0,-0.5"/>
<text text-anchor="middle" x="15" y="-7.5" font-family="Helvetica,sans-Serif" font-size="10.00">set</text>
</g>
<!-- Node1&#45;&gt;Node6 -->
<g id="edge20" class="edge"><title>Node1&#45;&gt;Node6</title>
<path fill="none" stroke="midnightblue" d="M405.763,-168.485C385.997,-145.865 328.393,-84.0864 266,-56 175.764,-15.3797 140.018,-44.1382 39.9723,-19.7166"/>
<polygon fill="midnightblue" stroke="midnightblue" points="40.6416,-16.275 30.0858,-17.183 38.9039,-23.0559 40.6416,-16.275"/>
</g>
<!-- Node8 -->
<g id="node8" class="node"><title>Node8</title>
<polygon fill="white" stroke="#bfbfbf" points="423,-0.5 423,-19.5 479,-19.5 479,-0.5 423,-0.5"/>
<text text-anchor="middle" x="451" y="-7.5" font-family="Helvetica,sans-Serif" font-size="10.00">algorithm</text>
</g>
<!-- Node1&#45;&gt;Node8 -->
<g id="edge16" class="edge"><title>Node1&#45;&gt;Node8</title>
<path fill="none" stroke="midnightblue" d="M414.38,-168.422C417.652,-148.52 426.404,-97.722 437,-56 439.269,-47.0675 442.251,-37.2835 444.88,-29.1268"/>
<polygon fill="midnightblue" stroke="midnightblue" points="448.231,-30.1429 448.043,-19.5497 441.584,-27.9477 448.231,-30.1429"/>
</g>
<!-- Node9 -->
<g id="node9" class="node"><title>Node9</title>
<polygon fill="white" stroke="#bfbfbf" points="497.5,-0.5 497.5,-19.5 532.5,-19.5 532.5,-0.5 497.5,-0.5"/>
<text text-anchor="middle" x="515" y="-7.5" font-family="Helvetica,sans-Serif" font-size="10.00">map</text>
</g>
<!-- Node1&#45;&gt;Node9 -->
<g id="edge19" class="edge"><title>Node1&#45;&gt;Node9</title>
<path fill="none" stroke="midnightblue" d="M417.669,-168.409C422.555,-159.379 430.417,-144.744 437,-132 454.332,-98.4473 453.828,-87.2717 475,-56 481.944,-45.7431 491.03,-35.3398 498.787,-27.1234"/>
<polygon fill="midnightblue" stroke="midnightblue" points="501.518,-29.3351 505.973,-19.7223 496.496,-24.459 501.518,-29.3351"/>
</g>
<!-- Node11 -->
<g id="node11" class="node"><title>Node11</title>
<polygon fill="white" stroke="#bfbfbf" points="551,-0.5 551,-19.5 605,-19.5 605,-0.5 551,-0.5"/>
<text text-anchor="middle" x="578" y="-7.5" font-family="Helvetica,sans-Serif" font-size="10.00">iostream</text>
</g>
<!-- Node1&#45;&gt;Node11 -->
<g id="edge18" class="edge"><title>Node1&#45;&gt;Node11</title>
<path fill="none" stroke="midnightblue" d="M421.871,-168.075C448.518,-141.267 528.112,-61.1902 562.211,-26.8851"/>
<polygon fill="midnightblue" stroke="midnightblue" points="564.916,-29.1279 569.484,-19.5681 559.951,-24.1931 564.916,-29.1279"/>
</g>
<!-- Node16 -->
<g id="node16" class="node"><title>Node16</title>
<polygon fill="white" stroke="#bfbfbf" points="517.5,-112.5 517.5,-131.5 568.5,-131.5 568.5,-112.5 517.5,-112.5"/>
<text text-anchor="middle" x="543" y="-119.5" font-family="Helvetica,sans-Serif" font-size="10.00">valarray</text>
</g>
<!-- Node1&#45;&gt;Node16 -->
<g id="edge17" class="edge"><title>Node1&#45;&gt;Node16</title>
<path fill="none" stroke="midnightblue" d="M433.599,-168.444C454.993,-159.557 488.681,-145.563 513.024,-135.451"/>
<polygon fill="midnightblue" stroke="midnightblue" points="514.605,-138.585 522.497,-131.516 511.92,-132.12 514.605,-138.585"/>
</g>
<!-- Node3 -->
<g id="node3" class="node"><title>Node3</title>
<polygon fill="white" stroke="#bfbfbf" points="201,-56.5 201,-75.5 257,-75.5 257,-56.5 201,-56.5"/>
<text text-anchor="middle" x="229" y="-63.5" font-family="Helvetica,sans-Serif" font-size="10.00">Python.h</text>
</g>
<!-- Node2&#45;&gt;Node3 -->
<g id="edge2" class="edge"><title>Node2&#45;&gt;Node3</title>
<path fill="none" stroke="midnightblue" d="M217.312,-112.083C219.167,-104.927 221.835,-94.6353 224.154,-85.6911"/>
<polygon fill="midnightblue" stroke="midnightblue" points="227.609,-86.3094 226.731,-75.7511 220.834,-84.5527 227.609,-86.3094"/>
</g>
<!-- Node4 -->
<g id="node4" class="node"><title>Node4</title>
<polygon fill="white" stroke="#bfbfbf" points="77.5,-56.5 77.5,-75.5 182.5,-75.5 182.5,-56.5 77.5,-56.5"/>
<text text-anchor="middle" x="130" y="-63.5" font-family="Helvetica,sans-Serif" font-size="10.00">numpy/arrayobject.h</text>
</g>
<!-- Node2&#45;&gt;Node4 -->
<g id="edge3" class="edge"><title>Node2&#45;&gt;Node4</title>
<path fill="none" stroke="midnightblue" d="M201.343,-112.324C188.084,-103.9 167.732,-90.9709 152.154,-81.0741"/>
<polygon fill="midnightblue" stroke="midnightblue" points="153.94,-78.0626 143.623,-75.6545 150.187,-83.9711 153.94,-78.0626"/>
</g>
<!-- Node2&#45;&gt;Node5 -->
<g id="edge4" class="edge"><title>Node2&#45;&gt;Node5</title>
<path fill="none" stroke="midnightblue" d="M236.55,-112.444C259.031,-103.517 294.488,-89.4387 319.98,-79.3168"/>
<polygon fill="midnightblue" stroke="midnightblue" points="321.549,-82.4598 329.551,-75.5164 318.965,-75.9539 321.549,-82.4598"/>
</g>
<!-- Node5&#45;&gt;Node6 -->
<g id="edge5" class="edge"><title>Node5&#45;&gt;Node6</title>
<path fill="none" stroke="midnightblue" d="M326.316,-58.9285C321.581,-57.8704 316.65,-56.8411 312,-56 194.746,-34.7899 159.576,-48.8885 39.9756,-19.7122"/>
<polygon fill="midnightblue" stroke="midnightblue" points="40.6193,-16.2657 30.0698,-17.2451 38.9275,-23.0582 40.6193,-16.2657"/>
</g>
<!-- Node7 -->
<g id="node7" class="node"><title>Node7</title>
<polygon fill="white" stroke="#bfbfbf" points="246,-0.5 246,-19.5 290,-19.5 290,-0.5 246,-0.5"/>
<text text-anchor="middle" x="268" y="-7.5" font-family="Helvetica,sans-Serif" font-size="10.00">vector</text>
</g>
<!-- Node5&#45;&gt;Node7 -->
<g id="edge6" class="edge"><title>Node5&#45;&gt;Node7</title>
<path fill="none" stroke="midnightblue" d="M337.665,-56.324C324.838,-47.979 305.215,-35.2122 290.06,-25.3524"/>
<polygon fill="midnightblue" stroke="midnightblue" points="291.593,-22.1742 281.302,-19.6545 287.776,-28.0417 291.593,-22.1742"/>
</g>
<!-- Node5&#45;&gt;Node8 -->
<g id="edge7" class="edge"><title>Node5&#45;&gt;Node8</title>
<path fill="none" stroke="midnightblue" d="M367.067,-56.324C382.958,-47.7428 407.507,-34.486 425.958,-24.5224"/>
<polygon fill="midnightblue" stroke="midnightblue" points="427.837,-27.4857 434.973,-19.6545 424.511,-21.3264 427.837,-27.4857"/>
</g>
<!-- Node5&#45;&gt;Node9 -->
<g id="edge8" class="edge"><title>Node5&#45;&gt;Node9</title>
<path fill="none" stroke="midnightblue" d="M375.76,-56.9032C401.384,-48.5161 442.81,-34.935 487.666,-20.1005"/>
<polygon fill="midnightblue" stroke="midnightblue" points="488.891,-23.3818 497.285,-16.9174 486.692,-16.7362 488.891,-23.3818"/>
</g>
<!-- Node10 -->
<g id="node10" class="node"><title>Node10</title>
<polygon fill="white" stroke="#bfbfbf" points="307.5,-0.5 307.5,-19.5 336.5,-19.5 336.5,-0.5 307.5,-0.5"/>
<text text-anchor="middle" x="322" y="-7.5" font-family="Helvetica,sans-Serif" font-size="10.00">list</text>
</g>
<!-- Node5&#45;&gt;Node10 -->
<g id="edge9" class="edge"><title>Node5&#45;&gt;Node10</title>
<path fill="none" stroke="midnightblue" d="M346.211,-56.083C342.242,-48.6913 336.475,-37.9533 331.565,-28.8111"/>
<polygon fill="midnightblue" stroke="midnightblue" points="334.514,-26.9051 326.7,-19.7511 328.347,-30.217 334.514,-26.9051"/>
</g>
<!-- Node5&#45;&gt;Node11 -->
<g id="edge10" class="edge"><title>Node5&#45;&gt;Node11</title>
<path fill="none" stroke="midnightblue" d="M375.75,-59.282C410.411,-51.25 475.633,-36.0476 540.844,-20.2568"/>
<polygon fill="midnightblue" stroke="midnightblue" points="541.99,-23.5804 550.883,-17.8212 540.34,-16.7778 541.99,-23.5804"/>
</g>
<!-- Node12 -->
<g id="node12" class="node"><title>Node12</title>
<polygon fill="white" stroke="#bfbfbf" points="355,-0.5 355,-19.5 405,-19.5 405,-0.5 355,-0.5"/>
<text text-anchor="middle" x="380" y="-7.5" font-family="Helvetica,sans-Serif" font-size="10.00">iomanip</text>
</g>
<!-- Node5&#45;&gt;Node12 -->
<g id="edge11" class="edge"><title>Node5&#45;&gt;Node12</title>
<path fill="none" stroke="midnightblue" d="M355.789,-56.083C359.758,-48.6913 365.525,-37.9533 370.435,-28.8111"/>
<polygon fill="midnightblue" stroke="midnightblue" points="373.653,-30.217 375.3,-19.7511 367.486,-26.9051 373.653,-30.217"/>
</g>
<!-- Node13 -->
<g id="node13" class="node"><title>Node13</title>
<polygon fill="white" stroke="#bfbfbf" points="48,-0.5 48,-19.5 98,-19.5 98,-0.5 48,-0.5"/>
<text text-anchor="middle" x="73" y="-7.5" font-family="Helvetica,sans-Serif" font-size="10.00">fstream</text>
</g>
<!-- Node5&#45;&gt;Node13 -->
<g id="edge12" class="edge"><title>Node5&#45;&gt;Node13</title>
<path fill="none" stroke="midnightblue" d="M326.285,-59.0889C321.553,-58.016 316.631,-56.9402 312,-56 224.443,-38.2223 199.068,-39.7232 108.103,-20.0893"/>
<polygon fill="midnightblue" stroke="midnightblue" points="108.71,-16.6395 98.193,-17.9236 107.215,-23.4781 108.71,-16.6395"/>
</g>
<!-- Node14 -->
<g id="node14" class="node"><title>Node14</title>
<polygon fill="white" stroke="#bfbfbf" points="116.5,-0.5 116.5,-19.5 165.5,-19.5 165.5,-0.5 116.5,-0.5"/>
<text text-anchor="middle" x="141" y="-7.5" font-family="Helvetica,sans-Serif" font-size="10.00">cassert</text>
</g>
<!-- Node5&#45;&gt;Node14 -->
<g id="edge13" class="edge"><title>Node5&#45;&gt;Node14</title>
<path fill="none" stroke="midnightblue" d="M326.497,-58.8046C294.273,-50.6419 235.635,-35.737 175.551,-20.1264"/>
<polygon fill="midnightblue" stroke="midnightblue" points="176.067,-16.644 165.508,-17.5137 174.304,-23.4186 176.067,-16.644"/>
</g>
<!-- Node15 -->
<g id="node15" class="node"><title>Node15</title>
<polygon fill="white" stroke="#bfbfbf" points="184,-0.5 184,-19.5 228,-19.5 228,-0.5 184,-0.5"/>
<text text-anchor="middle" x="206" y="-7.5" font-family="Helvetica,sans-Serif" font-size="10.00">cmath</text>
</g>
<!-- Node5&#45;&gt;Node15 -->
<g id="edge14" class="edge"><title>Node5&#45;&gt;Node15</title>
<path fill="none" stroke="midnightblue" d="M328.024,-56.4435C303.701,-47.3851 265.131,-33.0213 237.875,-22.8705"/>
<polygon fill="midnightblue" stroke="midnightblue" points="238.984,-19.5491 228.392,-19.339 236.541,-26.109 238.984,-19.5491"/>
</g>
</g>
</svg>
