<?xml version="1.0" encoding="UTF-8" standalone="no"?>
<!DOCTYPE svg PUBLIC "-//W3C//DTD SVG 1.1//EN"
 "http://www.w3.org/Graphics/SVG/1.1/DTD/svg11.dtd">
<!-- Generated by graphviz version 2.40.1 (20161225.0304)
 -->
<!-- Title: cmeshToolsModule.h Pages: 1 -->
<svg width="1082pt" height="140pt"
 viewBox="0.00 0.00 1082.00 140.00" xmlns="http://www.w3.org/2000/svg" xmlns:xlink="http://www.w3.org/1999/xlink">
<g id="graph0" class="graph" transform="scale(1 1) rotate(0) translate(4 136)">
<title>cmeshToolsModule.h</title>
<polygon fill="#ffffff" stroke="transparent" points="-4,4 -4,-136 1078,-136 1078,4 -4,4"/>
<!-- Node14 -->
<g id="node1" class="node">
<title>Node14</title>
<polygon fill="#bfbfbf" stroke="#000000" points="199.5,-112.5 199.5,-131.5 309.5,-131.5 309.5,-112.5 199.5,-112.5"/>
<text text-anchor="middle" x="254.5" y="-119.5" font-family="Helvetica,sans-Serif" font-size="10.00" fill="#000000">cmeshToolsModule.h</text>
</g>
<!-- Node15 -->
<g id="node2" class="node">
<title>Node15</title>
<g id="a_node2"><a xlink:href="cfmmfsw_module_8cpp.html" target="_top" xlink:title="cfmmfswModule.cpp">
<polygon fill="#ffffff" stroke="#000000" points="0,-56.5 0,-75.5 107,-75.5 107,-56.5 0,-56.5"/>
<text text-anchor="middle" x="53.5" y="-63.5" font-family="Helvetica,sans-Serif" font-size="10.00" fill="#000000">cfmmfswModule.cpp</text>
</a>
</g>
</g>
<!-- Node14&#45;&gt;Node15 -->
<g id="edge1" class="edge">
<title>Node14&#45;&gt;Node15</title>
<path fill="none" stroke="#191970" d="M209.9506,-109.5882C173.0216,-99.2996 121.2998,-84.8895 87.6022,-75.5011"/>
<polygon fill="#191970" stroke="#191970" points="209.3744,-113.0609 219.9469,-112.3733 211.2531,-106.3177 209.3744,-113.0609"/>
</g>
<!-- Node16 -->
<g id="node3" class="node">
<title>Node16</title>
<g id="a_node3"><a xlink:href="cmesh_tools_module_8cpp.html" target="_top" xlink:title="cmeshToolsModule.cpp">
<polygon fill="#ffffff" stroke="#000000" points="125.5,-56.5 125.5,-75.5 245.5,-75.5 245.5,-56.5 125.5,-56.5"/>
<text text-anchor="middle" x="185.5" y="-63.5" font-family="Helvetica,sans-Serif" font-size="10.00" fill="#000000">cmeshToolsModule.cpp</text>
</a>
</g>
</g>
<!-- Node14&#45;&gt;Node16 -->
<g id="edge2" class="edge">
<title>Node14&#45;&gt;Node16</title>
<path fill="none" stroke="#191970" d="M234.697,-105.928C222.6364,-96.1397 207.6286,-83.9595 197.3812,-75.6427"/>
<polygon fill="#191970" stroke="#191970" points="232.5109,-108.6614 242.4811,-112.2455 236.9221,-103.2262 232.5109,-108.6614"/>
</g>
<!-- Node17 -->
<g id="node4" class="node">
<title>Node17</title>
<g id="a_node4"><a xlink:href="flcbdf_wrappers_module_8h.html" target="_top" xlink:title="Python interface to adpative BDF code (daetk) ">
<polygon fill="#ffffff" stroke="#000000" points="263.5,-56.5 263.5,-75.5 385.5,-75.5 385.5,-56.5 263.5,-56.5"/>
<text text-anchor="middle" x="324.5" y="-63.5" font-family="Helvetica,sans-Serif" font-size="10.00" fill="#000000">flcbdfWrappersModule.h</text>
</a>
</g>
</g>
<!-- Node14&#45;&gt;Node17 -->
<g id="edge3" class="edge">
<title>Node14&#45;&gt;Node17</title>
<path fill="none" stroke="#191970" d="M274.59,-105.928C286.8253,-96.1397 302.0507,-83.9595 312.4467,-75.6427"/>
<polygon fill="#191970" stroke="#191970" points="272.3153,-103.2655 266.6931,-112.2455 276.6882,-108.7316 272.3153,-103.2655"/>
</g>
<!-- Node19 -->
<g id="node6" class="node">
<title>Node19</title>
<g id="a_node6"><a xlink:href="_mesh_adapt_p_u_m_i_8h.html" target="_top" xlink:title="MeshAdaptPUMI.h">
<polygon fill="#ffffff" stroke="#000000" points="603.5,-56.5 603.5,-75.5 703.5,-75.5 703.5,-56.5 603.5,-56.5"/>
<text text-anchor="middle" x="653.5" y="-63.5" font-family="Helvetica,sans-Serif" font-size="10.00" fill="#000000">MeshAdaptPUMI.h</text>
</a>
</g>
</g>
<!-- Node14&#45;&gt;Node19 -->
<g id="edge5" class="edge">
<title>Node14&#45;&gt;Node19</title>
<path fill="none" stroke="#191970" d="M319.9311,-112.8167C399.373,-101.667 531.6096,-83.1074 603.405,-73.0309"/>
<polygon fill="#191970" stroke="#191970" points="318.9768,-109.4162 309.5603,-114.2722 319.9498,-116.3483 318.9768,-109.4162"/>
</g>
<!-- Node18 -->
<g id="node5" class="node">
<title>Node18</title>
<g id="a_node5"><a xlink:href="flcbdf_wrappers_module_8cpp.html" target="_top" xlink:title="flcbdfWrappersModule.cpp">
<polygon fill="#ffffff" stroke="#000000" points="115,-.5 115,-19.5 248,-19.5 248,-.5 115,-.5"/>
<text text-anchor="middle" x="181.5" y="-7.5" font-family="Helvetica,sans-Serif" font-size="10.00" fill="#000000">flcbdfWrappersModule.cpp</text>
</a>
</g>
</g>
<!-- Node17&#45;&gt;Node18 -->
<g id="edge4" class="edge">
<title>Node17&#45;&gt;Node18</title>
<path fill="none" stroke="#191970" d="M290.4202,-52.6541C264.3427,-42.4419 229.0185,-28.6086 205.7618,-19.5011"/>
<polygon fill="#191970" stroke="#191970" points="289.3297,-55.9858 299.9174,-56.3733 291.8822,-49.4677 289.3297,-55.9858"/>
</g>
<!-- Node20 -->
<g id="node7" class="node">
<title>Node20</title>
<g id="a_node7"><a xlink:href="c_mesh_adapt_p_u_m_i_8cpp.html" target="_top" xlink:title="cMeshAdaptPUMI.cpp">
<polygon fill="#ffffff" stroke="#000000" points="266.5,-.5 266.5,-19.5 382.5,-19.5 382.5,-.5 266.5,-.5"/>
<text text-anchor="middle" x="324.5" y="-7.5" font-family="Helvetica,sans-Serif" font-size="10.00" fill="#000000">cMeshAdaptPUMI.cpp</text>
</a>
</g>
</g>
<!-- Node19&#45;&gt;Node20 -->
<g id="edge6" class="edge">
<title>Node19&#45;&gt;Node20</title>
<path fill="none" stroke="#191970" d="M592.9626,-55.6958C532.1979,-45.3528 439.3647,-29.5514 380.3264,-19.5024"/>
<polygon fill="#191970" stroke="#191970" points="592.7283,-59.2061 603.1738,-57.4338 593.903,-52.3054 592.7283,-59.2061"/>
</g>
<!-- Node21 -->
<g id="node8" class="node">
<title>Node21</title>
<g id="a_node8"><a xlink:href="_error_residual_method_8cpp.html" target="_top" xlink:title="ErrorResidualMethod.cpp">
<polygon fill="#ffffff" stroke="#000000" points="401,-.5 401,-19.5 528,-19.5 528,-.5 401,-.5"/>
<text text-anchor="middle" x="464.5" y="-7.5" font-family="Helvetica,sans-Serif" font-size="10.00" fill="#000000">ErrorResidualMethod.cpp</text>
</a>
</g>
</g>
<!-- Node19&#45;&gt;Node21 -->
<g id="edge7" class="edge">
<title>Node19&#45;&gt;Node21</title>
<path fill="none" stroke="#191970" d="M611.1643,-53.4561C576.4706,-43.1765 528.1166,-28.8494 496.5663,-19.5011"/>
<polygon fill="#191970" stroke="#191970" points="610.4274,-56.8881 621.0097,-56.3733 612.4161,-50.1765 610.4274,-56.8881"/>
</g>
<!-- Node22 -->
<g id="node9" class="node">
<title>Node22</title>
<g id="a_node9"><a xlink:href="_mesh_converter_8cpp.html" target="_top" xlink:title="MeshConverter.cpp">
<polygon fill="#ffffff" stroke="#000000" points="546.5,-.5 546.5,-19.5 648.5,-19.5 648.5,-.5 546.5,-.5"/>
<text text-anchor="middle" x="597.5" y="-7.5" font-family="Helvetica,sans-Serif" font-size="10.00" fill="#000000">MeshConverter.cpp</text>
</a>
</g>
</g>
<!-- Node19&#45;&gt;Node22 -->
<g id="edge8" class="edge">
<title>Node19&#45;&gt;Node22</title>
<path fill="none" stroke="#191970" d="M636.5751,-49.0751C626.9402,-39.4402 615.2196,-27.7196 607.1427,-19.6427"/>
<polygon fill="#191970" stroke="#191970" points="634.1996,-51.6493 643.7455,-56.2455 639.1493,-46.6996 634.1996,-51.6493"/>
</g>
<!-- Node23 -->
<g id="node10" class="node">
<title>Node23</title>
<g id="a_node10"><a xlink:href="_mesh_fields_8cpp.html" target="_top" xlink:title="MeshFields.cpp">
<polygon fill="#ffffff" stroke="#000000" points="666.5,-.5 666.5,-19.5 752.5,-19.5 752.5,-.5 666.5,-.5"/>
<text text-anchor="middle" x="709.5" y="-7.5" font-family="Helvetica,sans-Serif" font-size="10.00" fill="#000000">MeshFields.cpp</text>
</a>
</g>
</g>
<!-- Node19&#45;&gt;Node23 -->
<g id="edge9" class="edge">
<title>Node19&#45;&gt;Node23</title>
<path fill="none" stroke="#191970" d="M670.4249,-49.0751C680.0598,-39.4402 691.7804,-27.7196 699.8573,-19.6427"/>
<polygon fill="#191970" stroke="#191970" points="667.8507,-46.6996 663.2545,-56.2455 672.8004,-51.6493 667.8507,-46.6996"/>
</g>
<!-- Node24 -->
<g id="node11" class="node">
<title>Node24</title>
<g id="a_node11"><a xlink:href="_parallel_mesh_converter_8cpp.html" target="_top" xlink:title="ParallelMeshConverter.cpp">
<polygon fill="#ffffff" stroke="#000000" points="770.5,-.5 770.5,-19.5 904.5,-19.5 904.5,-.5 770.5,-.5"/>
<text text-anchor="middle" x="837.5" y="-7.5" font-family="Helvetica,sans-Serif" font-size="10.00" fill="#000000">ParallelMeshConverter.cpp</text>
</a>
</g>
</g>
<!-- Node19&#45;&gt;Node24 -->
<g id="edge10" class="edge">
<title>Node19&#45;&gt;Node24</title>
<path fill="none" stroke="#191970" d="M694.7157,-53.4561C728.4916,-43.1765 775.5663,-28.8494 806.282,-19.5011"/>
<polygon fill="#191970" stroke="#191970" points="693.6784,-50.1132 685.1307,-56.3733 695.7166,-56.8099 693.6784,-50.1132"/>
</g>
<!-- Node25 -->
<g id="node12" class="node">
<title>Node25</title>
<g id="a_node12"><a xlink:href="_size_field_8cpp.html" target="_top" xlink:title="SizeField.cpp">
<polygon fill="#ffffff" stroke="#000000" points="922.5,-.5 922.5,-19.5 998.5,-19.5 998.5,-.5 922.5,-.5"/>
<text text-anchor="middle" x="960.5" y="-7.5" font-family="Helvetica,sans-Serif" font-size="10.00" fill="#000000">SizeField.cpp</text>
</a>
</g>
</g>
<!-- Node19&#45;&gt;Node25 -->
<g id="edge11" class="edge">
<title>Node19&#45;&gt;Node25</title>
<path fill="none" stroke="#191970" d="M713.7944,-55.9395C766.5606,-46.9903 845.2339,-33.2972 913.5,-20 916.366,-19.4418 919.3268,-18.8492 922.303,-18.2422"/>
<polygon fill="#191970" stroke="#191970" points="713.2007,-52.4901 703.9247,-57.6093 714.3685,-59.392 713.2007,-52.4901"/>
</g>
<!-- Node26 -->
<g id="node13" class="node">
<title>Node26</title>
<g id="a_node13"><a xlink:href="_v_m_s_8cpp.html" target="_top" xlink:title="VMS.cpp">
<polygon fill="#ffffff" stroke="#000000" points="1017,-.5 1017,-19.5 1074,-19.5 1074,-.5 1017,-.5"/>
<text text-anchor="middle" x="1045.5" y="-7.5" font-family="Helvetica,sans-Serif" font-size="10.00" fill="#000000">VMS.cpp</text>
</a>
</g>
</g>
<!-- Node19&#45;&gt;Node26 -->
<g id="edge12" class="edge">
<title>Node19&#45;&gt;Node26</title>
<path fill="none" stroke="#191970" d="M713.7241,-60.5476C784.4714,-53.5957 905.1827,-40.025 1007.5,-20 1010.5796,-19.3973 1013.7794,-18.6883 1016.9568,-17.9307"/>
<polygon fill="#191970" stroke="#191970" points="713.2715,-57.075 703.6567,-61.5252 713.9482,-64.0422 713.2715,-57.075"/>
</g>
</g>
</svg>
