<?xml version="1.0" encoding="UTF-8" standalone="no"?>
<!DOCTYPE svg PUBLIC "-//W3C//DTD SVG 1.1//EN"
 "http://www.w3.org/Graphics/SVG/1.1/DTD/svg11.dtd">
<!-- Generated by graphviz version 2.40.1 (20161225.0304)
 -->
<!-- Title: cmeshToolsModule.cpp Pages: 1 -->
<svg width="614pt" height="196pt"
 viewBox="0.00 0.00 614.00 196.00" xmlns="http://www.w3.org/2000/svg" xmlns:xlink="http://www.w3.org/1999/xlink">
<g id="graph0" class="graph" transform="scale(1 1) rotate(0) translate(4 192)">
<title>cmeshToolsModule.cpp</title>
<polygon fill="#ffffff" stroke="transparent" points="-4,4 -4,-192 610,-192 610,4 -4,4"/>
<!-- Node0 -->
<g id="node1" class="node">
<title>Node0</title>
<polygon fill="#bfbfbf" stroke="#000000" points="373,-168.5 373,-187.5 493,-187.5 493,-168.5 373,-168.5"/>
<text text-anchor="middle" x="433" y="-175.5" font-family="Helvetica,sans-Serif" font-size="10.00" fill="#000000">cmeshToolsModule.cpp</text>
</g>
<!-- Node1 -->
<g id="node2" class="node">
<title>Node1</title>
<g id="a_node2"><a xlink:href="cmesh_tools_module_8h.html" target="_top" xlink:title="cmeshToolsModule.h">
<polygon fill="#ffffff" stroke="#000000" points="151,-112.5 151,-131.5 261,-131.5 261,-112.5 151,-112.5"/>
<text text-anchor="middle" x="206" y="-119.5" font-family="Helvetica,sans-Serif" font-size="10.00" fill="#000000">cmeshToolsModule.h</text>
</a>
</g>
</g>
<!-- Node0&#45;&gt;Node1 -->
<g id="edge1" class="edge">
<title>Node0&#45;&gt;Node1</title>
<path fill="none" stroke="#191970" d="M394.2352,-168.4369C355.6308,-158.9133 296.2616,-144.2672 254.5428,-133.9753"/>
<polygon fill="#191970" stroke="#191970" points="255.1521,-130.5208 244.6049,-131.5237 253.4755,-137.317 255.1521,-130.5208"/>
</g>
<!-- Node4 -->
<g id="node5" class="node">
<title>Node4</title>
<g id="a_node5"><a xlink:href="mesh_8h.html" target="_top" xlink:title="mesh.h">
<polygon fill="#ffffff" stroke="#000000" points="317.5,-56.5 317.5,-75.5 366.5,-75.5 366.5,-56.5 317.5,-56.5"/>
<text text-anchor="middle" x="342" y="-63.5" font-family="Helvetica,sans-Serif" font-size="10.00" fill="#000000">mesh.h</text>
</a>
</g>
</g>
<!-- Node0&#45;&gt;Node4 -->
<g id="edge15" class="edge">
<title>Node0&#45;&gt;Node4</title>
<path fill="none" stroke="#191970" d="M425.2414,-168.4509C409.9294,-149.6054 375.6252,-107.3849 356.1715,-83.4419"/>
<polygon fill="#191970" stroke="#191970" points="358.7613,-81.079 349.739,-75.5249 353.3285,-85.4931 358.7613,-81.079"/>
</g>
<!-- Node5 -->
<g id="node6" class="node">
<title>Node5</title>
<polygon fill="#ffffff" stroke="#bfbfbf" points="0,-.5 0,-19.5 30,-19.5 30,-.5 0,-.5"/>
<text text-anchor="middle" x="15" y="-7.5" font-family="Helvetica,sans-Serif" font-size="10.00" fill="#000000">set</text>
</g>
<!-- Node0&#45;&gt;Node5 -->
<g id="edge20" class="edge">
<title>Node0&#45;&gt;Node5</title>
<path fill="none" stroke="#191970" d="M420.5375,-168.2724C386.6264,-141.9832 292.837,-70.5177 257,-56 168.9168,-20.3172 135.5586,-45.3321 39.8216,-19.6299"/>
<polygon fill="#191970" stroke="#191970" points="40.6193,-16.2186 30.0457,-16.8894 38.7298,-22.9588 40.6193,-16.2186"/>
</g>
<!-- Node7 -->
<g id="node8" class="node">
<title>Node7</title>
<polygon fill="#ffffff" stroke="#bfbfbf" points="424,-.5 424,-19.5 480,-19.5 480,-.5 424,-.5"/>
<text text-anchor="middle" x="452" y="-7.5" font-family="Helvetica,sans-Serif" font-size="10.00" fill="#000000">algorithm</text>
</g>
<!-- Node0&#45;&gt;Node7 -->
<g id="edge16" class="edge">
<title>Node0&#45;&gt;Node7</title>
<path fill="none" stroke="#191970" d="M434.076,-168.4862C437.0794,-141.9293 445.6028,-66.5651 449.7194,-30.1655"/>
<polygon fill="#191970" stroke="#191970" points="453.2425,-30.1579 450.8885,-19.8279 446.2868,-29.3712 453.2425,-30.1579"/>
</g>
<!-- Node8 -->
<g id="node9" class="node">
<title>Node8</title>
<polygon fill="#ffffff" stroke="#bfbfbf" points="498.5,-.5 498.5,-19.5 533.5,-19.5 533.5,-.5 498.5,-.5"/>
<text text-anchor="middle" x="516" y="-7.5" font-family="Helvetica,sans-Serif" font-size="10.00" fill="#000000">map</text>
</g>
<!-- Node0&#45;&gt;Node8 -->
<g id="edge19" class="edge">
<title>Node0&#45;&gt;Node8</title>
<path fill="none" stroke="#191970" d="M437.7003,-168.4862C450.9342,-141.6994 488.7007,-65.2565 506.5,-29.2289"/>
<polygon fill="#191970" stroke="#191970" points="509.853,-30.3437 511.1446,-19.8279 503.5772,-27.2431 509.853,-30.3437"/>
</g>
<!-- Node10 -->
<g id="node11" class="node">
<title>Node10</title>
<polygon fill="#ffffff" stroke="#bfbfbf" points="552,-.5 552,-19.5 606,-19.5 606,-.5 552,-.5"/>
<text text-anchor="middle" x="579" y="-7.5" font-family="Helvetica,sans-Serif" font-size="10.00" fill="#000000">iostream</text>
</g>
<!-- Node0&#45;&gt;Node10 -->
<g id="edge18" class="edge">
<title>Node0&#45;&gt;Node10</title>
<path fill="none" stroke="#191970" d="M441.8473,-168.1733C450.1847,-158.8895 463.0043,-144.5541 474,-132 506.4687,-94.9296 544.0287,-51.041 564.2592,-27.3176"/>
<polygon fill="#191970" stroke="#191970" points="567.065,-29.4213 570.887,-19.5398 561.7371,-24.8811 567.065,-29.4213"/>
</g>
<!-- Node15 -->
<g id="node16" class="node">
<title>Node15</title>
<polygon fill="#ffffff" stroke="#bfbfbf" points="537.5,-112.5 537.5,-131.5 588.5,-131.5 588.5,-112.5 537.5,-112.5"/>
<text text-anchor="middle" x="563" y="-119.5" font-family="Helvetica,sans-Serif" font-size="10.00" fill="#000000">valarray</text>
</g>
<!-- Node0&#45;&gt;Node15 -->
<g id="edge17" class="edge">
<title>Node0&#45;&gt;Node15</title>
<path fill="none" stroke="#191970" d="M455.3478,-168.3733C476.4033,-159.3032 508.1495,-145.6279 531.7175,-135.4755"/>
<polygon fill="#191970" stroke="#191970" points="533.1444,-138.6719 540.9438,-131.5011 530.375,-132.243 533.1444,-138.6719"/>
</g>
<!-- Node2 -->
<g id="node3" class="node">
<title>Node2</title>
<polygon fill="#ffffff" stroke="#bfbfbf" points="192,-56.5 192,-75.5 248,-75.5 248,-56.5 192,-56.5"/>
<text text-anchor="middle" x="220" y="-63.5" font-family="Helvetica,sans-Serif" font-size="10.00" fill="#000000">Python.h</text>
</g>
<!-- Node1&#45;&gt;Node2 -->
<g id="edge2" class="edge">
<title>Node1&#45;&gt;Node2</title>
<path fill="none" stroke="#191970" d="M208.4386,-112.2455C210.2855,-104.8579 212.8828,-94.4689 215.1478,-85.4087"/>
<polygon fill="#191970" stroke="#191970" points="218.5594,-86.193 217.5893,-75.6427 211.7684,-84.4952 218.5594,-86.193"/>
</g>
<!-- Node3 -->
<g id="node4" class="node">
<title>Node3</title>
<polygon fill="#ffffff" stroke="#bfbfbf" points="68.5,-56.5 68.5,-75.5 173.5,-75.5 173.5,-56.5 68.5,-56.5"/>
<text text-anchor="middle" x="121" y="-63.5" font-family="Helvetica,sans-Serif" font-size="10.00" fill="#000000">numpy/arrayobject.h</text>
</g>
<!-- Node1&#45;&gt;Node3 -->
<g id="edge3" class="edge">
<title>Node1&#45;&gt;Node3</title>
<path fill="none" stroke="#191970" d="M191.1941,-112.2455C178.2744,-103.7337 159.3069,-91.2375 144.3448,-81.3801"/>
<polygon fill="#191970" stroke="#191970" points="145.9124,-78.2216 135.6362,-75.6427 142.0613,-84.067 145.9124,-78.2216"/>
</g>
<!-- Node1&#45;&gt;Node4 -->
<g id="edge4" class="edge">
<title>Node1&#45;&gt;Node4</title>
<path fill="none" stroke="#191970" d="M229.3792,-112.3733C251.5045,-103.2629 284.9134,-89.5062 309.6019,-79.3404"/>
<polygon fill="#191970" stroke="#191970" points="311.0117,-82.5451 318.9258,-75.5011 308.3464,-76.0723 311.0117,-82.5451"/>
</g>
<!-- Node4&#45;&gt;Node5 -->
<g id="edge5" class="edge">
<title>Node4&#45;&gt;Node5</title>
<path fill="none" stroke="#191970" d="M317.3403,-59.2189C312.6029,-58.0464 307.6646,-56.9129 303,-56 189.9632,-33.8778 155.1747,-50.0914 39.9398,-19.6376"/>
<polygon fill="#191970" stroke="#191970" points="40.5939,-16.1888 30.027,-16.9567 38.7664,-22.9461 40.5939,-16.1888"/>
</g>
<!-- Node6 -->
<g id="node7" class="node">
<title>Node6</title>
<polygon fill="#ffffff" stroke="#bfbfbf" points="246,-.5 246,-19.5 290,-19.5 290,-.5 246,-.5"/>
<text text-anchor="middle" x="268" y="-7.5" font-family="Helvetica,sans-Serif" font-size="10.00" fill="#000000">vector</text>
</g>
<!-- Node4&#45;&gt;Node6 -->
<g id="edge6" class="edge">
<title>Node4&#45;&gt;Node6</title>
<path fill="none" stroke="#191970" d="M329.1102,-56.2455C318.0746,-47.8943 301.9708,-35.7076 289.0647,-25.9408"/>
<polygon fill="#191970" stroke="#191970" points="290.8283,-22.8862 280.7421,-19.6427 286.6041,-28.4681 290.8283,-22.8862"/>
</g>
<!-- Node4&#45;&gt;Node7 -->
<g id="edge7" class="edge">
<title>Node4&#45;&gt;Node7</title>
<path fill="none" stroke="#191970" d="M361.1605,-56.2455C378.5111,-47.4125 404.2901,-34.2887 423.9583,-24.2758"/>
<polygon fill="#191970" stroke="#191970" points="425.7353,-27.2986 433.059,-19.6427 422.5595,-21.0605 425.7353,-27.2986"/>
</g>
<!-- Node4&#45;&gt;Node8 -->
<g id="edge8" class="edge">
<title>Node4&#45;&gt;Node8</title>
<path fill="none" stroke="#191970" d="M366.5747,-58.7319C394.0362,-50.5188 440.0179,-36.4966 488.5847,-20.0203"/>
<polygon fill="#191970" stroke="#191970" points="489.9954,-23.2371 498.3278,-16.6933 487.7333,-16.6126 489.9954,-23.2371"/>
</g>
<!-- Node9 -->
<g id="node10" class="node">
<title>Node9</title>
<polygon fill="#ffffff" stroke="#bfbfbf" points="308.5,-.5 308.5,-19.5 337.5,-19.5 337.5,-.5 308.5,-.5"/>
<text text-anchor="middle" x="323" y="-7.5" font-family="Helvetica,sans-Serif" font-size="10.00" fill="#000000">list</text>
</g>
<!-- Node4&#45;&gt;Node9 -->
<g id="edge9" class="edge">
<title>Node4&#45;&gt;Node9</title>
<path fill="none" stroke="#191970" d="M338.6905,-56.2455C336.1567,-48.7776 332.5823,-38.2427 329.485,-29.1137"/>
<polygon fill="#191970" stroke="#191970" points="332.7991,-27.9879 326.2716,-19.6427 326.1702,-30.237 332.7991,-27.9879"/>
</g>
<!-- Node4&#45;&gt;Node10 -->
<g id="edge10" class="edge">
<title>Node4&#45;&gt;Node10</title>
<path fill="none" stroke="#191970" d="M366.5303,-60.767C402.7772,-52.9526 472.9871,-37.5044 542.1588,-20.1325"/>
<polygon fill="#191970" stroke="#191970" points="543.0708,-23.5121 551.9087,-17.669 541.356,-16.7254 543.0708,-23.5121"/>
</g>
<!-- Node11 -->
<g id="node12" class="node">
<title>Node11</title>
<polygon fill="#ffffff" stroke="#bfbfbf" points="356,-.5 356,-19.5 406,-19.5 406,-.5 356,-.5"/>
<text text-anchor="middle" x="381" y="-7.5" font-family="Helvetica,sans-Serif" font-size="10.00" fill="#000000">iomanip</text>
</g>
<!-- Node4&#45;&gt;Node11 -->
<g id="edge11" class="edge">
<title>Node4&#45;&gt;Node11</title>
<path fill="none" stroke="#191970" d="M348.7933,-56.2455C354.2178,-48.4564 361.9661,-37.3308 368.5033,-27.9439"/>
<polygon fill="#191970" stroke="#191970" points="371.4417,-29.849 374.2846,-19.6427 365.6975,-25.8485 371.4417,-29.849"/>
</g>
<!-- Node12 -->
<g id="node13" class="node">
<title>Node12</title>
<polygon fill="#ffffff" stroke="#bfbfbf" points="48,-.5 48,-19.5 98,-19.5 98,-.5 48,-.5"/>
<text text-anchor="middle" x="73" y="-7.5" font-family="Helvetica,sans-Serif" font-size="10.00" fill="#000000">fstream</text>
</g>
<!-- Node4&#45;&gt;Node12 -->
<g id="edge12" class="edge">
<title>Node4&#45;&gt;Node12</title>
<path fill="none" stroke="#191970" d="M317.3042,-59.3925C312.5701,-58.204 307.6423,-57.0202 303,-56 219.5371,-37.6578 194.8767,-40.3028 107.9307,-20.0311"/>
<polygon fill="#191970" stroke="#191970" points="108.7098,-16.6189 98.1725,-17.7218 107.0977,-23.4308 108.7098,-16.6189"/>
</g>
<!-- Node13 -->
<g id="node14" class="node">
<title>Node13</title>
<polygon fill="#ffffff" stroke="#bfbfbf" points="116.5,-.5 116.5,-19.5 165.5,-19.5 165.5,-.5 116.5,-.5"/>
<text text-anchor="middle" x="141" y="-7.5" font-family="Helvetica,sans-Serif" font-size="10.00" fill="#000000">cassert</text>
</g>
<!-- Node4&#45;&gt;Node13 -->
<g id="edge13" class="edge">
<title>Node4&#45;&gt;Node13</title>
<path fill="none" stroke="#191970" d="M317.3454,-59.3518C286.5132,-51.0069 231.8724,-36.1168 175.6392,-20.1489"/>
<polygon fill="#191970" stroke="#191970" points="176.4442,-16.7391 165.868,-17.3679 174.5279,-23.4717 176.4442,-16.7391"/>
</g>
<!-- Node14 -->
<g id="node15" class="node">
<title>Node14</title>
<polygon fill="#ffffff" stroke="#bfbfbf" points="184,-.5 184,-19.5 228,-19.5 228,-.5 184,-.5"/>
<text text-anchor="middle" x="206" y="-7.5" font-family="Helvetica,sans-Serif" font-size="10.00" fill="#000000">cmath</text>
</g>
<!-- Node4&#45;&gt;Node14 -->
<g id="edge14" class="edge">
<title>Node4&#45;&gt;Node14</title>
<path fill="none" stroke="#191970" d="M318.6208,-56.3733C296.2273,-47.1524 262.275,-33.1721 237.5042,-22.9723"/>
<polygon fill="#191970" stroke="#191970" points="238.753,-19.7015 228.1736,-19.1303 236.0877,-26.1742 238.753,-19.7015"/>
</g>
</g>
</svg>
