<?xml version="1.0" encoding="UTF-8" standalone="no"?>
<!DOCTYPE svg PUBLIC "-//W3C//DTD SVG 1.1//EN"
 "http://www.w3.org/Graphics/SVG/1.1/DTD/svg11.dtd">
<!-- Generated by graphviz version 2.38.0 (20140413.2041)
 -->
<!-- Title: cmeshToolsModule.cpp Pages: 1 -->
<svg width="614pt" height="196pt"
 viewBox="0.00 0.00 614.00 196.00" xmlns="http://www.w3.org/2000/svg" xmlns:xlink="http://www.w3.org/1999/xlink">
<g id="graph0" class="graph" transform="scale(1 1) rotate(0) translate(4 192)">
<title>cmeshToolsModule.cpp</title>
<polygon fill="white" stroke="none" points="-4,4 -4,-192 610,-192 610,4 -4,4"/>
<!-- Node0 -->
<g id="node1" class="node"><title>Node0</title>
<polygon fill="#bfbfbf" stroke="black" points="354,-168.5 354,-187.5 474,-187.5 474,-168.5 354,-168.5"/>
<text text-anchor="middle" x="414" y="-175.5" font-family="Helvetica,sans-Serif" font-size="10.00">cmeshToolsModule.cpp</text>
</g>
<!-- Node1 -->
<g id="node2" class="node"><title>Node1</title>
<g id="a_node2"><a xlink:href="cmesh_tools_module_8h.html" target="_top" xlink:title="cmeshToolsModule.h">
<polygon fill="white" stroke="black" points="161,-112.5 161,-131.5 271,-131.5 271,-112.5 161,-112.5"/>
<text text-anchor="middle" x="216" y="-119.5" font-family="Helvetica,sans-Serif" font-size="10.00">cmeshToolsModule.h</text>
</a>
</g>
</g>
<!-- Node0&#45;&gt;Node1 -->
<g id="edge1" class="edge"><title>Node0&#45;&gt;Node1</title>
<path fill="none" stroke="midnightblue" d="M382.626,-168.444C348.737,-159.201 294.597,-144.436 257.276,-134.257"/>
<polygon fill="midnightblue" stroke="midnightblue" points="257.795,-130.771 247.227,-131.516 255.954,-137.524 257.795,-130.771"/>
</g>
<!-- Node4 -->
<g id="node5" class="node"><title>Node4</title>
<g id="a_node5"><a xlink:href="mesh_8h.html" target="_top" xlink:title="mesh.h">
<polygon fill="white" stroke="black" points="327.5,-56.5 327.5,-75.5 376.5,-75.5 376.5,-56.5 327.5,-56.5"/>
<text text-anchor="middle" x="352" y="-63.5" font-family="Helvetica,sans-Serif" font-size="10.00">mesh.h</text>
</a>
</g>
</g>
<!-- Node0&#45;&gt;Node4 -->
<g id="edge15" class="edge"><title>Node0&#45;&gt;Node4</title>
<path fill="none" stroke="midnightblue" d="M409.135,-168.368C398.948,-150.296 375.209,-108.176 361.755,-84.3074"/>
<polygon fill="midnightblue" stroke="midnightblue" points="364.802,-82.5844 356.842,-75.5914 358.704,-86.0215 364.802,-82.5844"/>
</g>
<!-- Node5 -->
<g id="node6" class="node"><title>Node5</title>
<polygon fill="white" stroke="#bfbfbf" points="0,-0.5 0,-19.5 30,-19.5 30,-0.5 0,-0.5"/>
<text text-anchor="middle" x="15" y="-7.5" font-family="Helvetica,sans-Serif" font-size="10.00">set</text>
</g>
<!-- Node0&#45;&gt;Node5 -->
<g id="edge20" class="edge"><title>Node0&#45;&gt;Node5</title>
<path fill="none" stroke="midnightblue" d="M406.764,-168.483C387,-145.856 329.402,-84.0653 267,-56 176.362,-15.2358 140.461,-44.2027 40.0117,-19.7245"/>
<polygon fill="midnightblue" stroke="midnightblue" points="40.6409,-16.2728 30.0853,-17.1846 38.9056,-23.0543 40.6409,-16.2728"/>
</g>
<!-- Node7 -->
<g id="node8" class="node"><title>Node7</title>
<polygon fill="white" stroke="#bfbfbf" points="424,-0.5 424,-19.5 480,-19.5 480,-0.5 424,-0.5"/>
<text text-anchor="middle" x="452" y="-7.5" font-family="Helvetica,sans-Serif" font-size="10.00">algorithm</text>
</g>
<!-- Node0&#45;&gt;Node7 -->
<g id="edge16" class="edge"><title>Node0&#45;&gt;Node7</title>
<path fill="none" stroke="midnightblue" d="M415.38,-168.422C418.652,-148.52 427.404,-97.722 438,-56 440.269,-47.0675 443.251,-37.2835 445.88,-29.1268"/>
<polygon fill="midnightblue" stroke="midnightblue" points="449.231,-30.1429 449.043,-19.5497 442.584,-27.9477 449.231,-30.1429"/>
</g>
<!-- Node8 -->
<g id="node9" class="node"><title>Node8</title>
<polygon fill="white" stroke="#bfbfbf" points="498.5,-0.5 498.5,-19.5 533.5,-19.5 533.5,-0.5 498.5,-0.5"/>
<text text-anchor="middle" x="516" y="-7.5" font-family="Helvetica,sans-Serif" font-size="10.00">map</text>
</g>
<!-- Node0&#45;&gt;Node8 -->
<g id="edge19" class="edge"><title>Node0&#45;&gt;Node8</title>
<path fill="none" stroke="midnightblue" d="M418.669,-168.409C423.555,-159.379 431.417,-144.744 438,-132 455.332,-98.4473 454.828,-87.2717 476,-56 482.944,-45.7431 492.03,-35.3398 499.787,-27.1234"/>
<polygon fill="midnightblue" stroke="midnightblue" points="502.518,-29.3351 506.973,-19.7223 497.496,-24.459 502.518,-29.3351"/>
</g>
<!-- Node10 -->
<g id="node11" class="node"><title>Node10</title>
<polygon fill="white" stroke="#bfbfbf" points="552,-0.5 552,-19.5 606,-19.5 606,-0.5 552,-0.5"/>
<text text-anchor="middle" x="579" y="-7.5" font-family="Helvetica,sans-Serif" font-size="10.00">iostream</text>
</g>
<!-- Node0&#45;&gt;Node10 -->
<g id="edge18" class="edge"><title>Node0&#45;&gt;Node10</title>
<path fill="none" stroke="midnightblue" d="M422.871,-168.075C449.518,-141.267 529.112,-61.1902 563.211,-26.8851"/>
<polygon fill="midnightblue" stroke="midnightblue" points="565.916,-29.1279 570.484,-19.5681 560.951,-24.1931 565.916,-29.1279"/>
</g>
<!-- Node15 -->
<g id="node16" class="node"><title>Node15</title>
<polygon fill="white" stroke="#bfbfbf" points="518.5,-112.5 518.5,-131.5 569.5,-131.5 569.5,-112.5 518.5,-112.5"/>
<text text-anchor="middle" x="544" y="-119.5" font-family="Helvetica,sans-Serif" font-size="10.00">valarray</text>
</g>
<!-- Node0&#45;&gt;Node15 -->
<g id="edge17" class="edge"><title>Node0&#45;&gt;Node15</title>
<path fill="none" stroke="midnightblue" d="M434.599,-168.444C455.993,-159.557 489.681,-145.563 514.024,-135.451"/>
<polygon fill="midnightblue" stroke="midnightblue" points="515.605,-138.585 523.497,-131.516 512.92,-132.12 515.605,-138.585"/>
</g>
<!-- Node2 -->
<g id="node3" class="node"><title>Node2</title>
<polygon fill="white" stroke="#bfbfbf" points="202,-56.5 202,-75.5 258,-75.5 258,-56.5 202,-56.5"/>
<text text-anchor="middle" x="230" y="-63.5" font-family="Helvetica,sans-Serif" font-size="10.00">Python.h</text>
</g>
<!-- Node1&#45;&gt;Node2 -->
<g id="edge2" class="edge"><title>Node1&#45;&gt;Node2</title>
<path fill="none" stroke="midnightblue" d="M218.312,-112.083C220.167,-104.927 222.835,-94.6353 225.154,-85.6911"/>
<polygon fill="midnightblue" stroke="midnightblue" points="228.609,-86.3094 227.731,-75.7511 221.834,-84.5527 228.609,-86.3094"/>
</g>
<!-- Node3 -->
<g id="node4" class="node"><title>Node3</title>
<polygon fill="white" stroke="#bfbfbf" points="78.5,-56.5 78.5,-75.5 183.5,-75.5 183.5,-56.5 78.5,-56.5"/>
<text text-anchor="middle" x="131" y="-63.5" font-family="Helvetica,sans-Serif" font-size="10.00">numpy/arrayobject.h</text>
</g>
<!-- Node1&#45;&gt;Node3 -->
<g id="edge3" class="edge"><title>Node1&#45;&gt;Node3</title>
<path fill="none" stroke="midnightblue" d="M202.343,-112.324C189.084,-103.9 168.732,-90.9709 153.154,-81.0741"/>
<polygon fill="midnightblue" stroke="midnightblue" points="154.94,-78.0626 144.623,-75.6545 151.187,-83.9711 154.94,-78.0626"/>
</g>
<!-- Node1&#45;&gt;Node4 -->
<g id="edge4" class="edge"><title>Node1&#45;&gt;Node4</title>
<path fill="none" stroke="midnightblue" d="M237.55,-112.444C260.031,-103.517 295.488,-89.4387 320.98,-79.3168"/>
<polygon fill="midnightblue" stroke="midnightblue" points="322.549,-82.4598 330.551,-75.5164 319.965,-75.9539 322.549,-82.4598"/>
</g>
<!-- Node4&#45;&gt;Node5 -->
<g id="edge5" class="edge"><title>Node4&#45;&gt;Node5</title>
<path fill="none" stroke="midnightblue" d="M327.316,-58.9267C322.581,-57.8687 317.65,-56.84 313,-56 195.319,-34.7414 160.017,-48.9605 40.0091,-19.7191"/>
<polygon fill="midnightblue" stroke="midnightblue" points="40.6188,-16.2641 30.0695,-17.2462 38.9287,-23.0571 40.6188,-16.2641"/>
</g>
<!-- Node6 -->
<g id="node7" class="node"><title>Node6</title>
<polygon fill="white" stroke="#bfbfbf" points="246,-0.5 246,-19.5 290,-19.5 290,-0.5 246,-0.5"/>
<text text-anchor="middle" x="268" y="-7.5" font-family="Helvetica,sans-Serif" font-size="10.00">vector</text>
</g>
<!-- Node4&#45;&gt;Node6 -->
<g id="edge6" class="edge"><title>Node4&#45;&gt;Node6</title>
<path fill="none" stroke="midnightblue" d="M338.504,-56.324C325.4,-47.9002 305.288,-34.9709 289.893,-25.0741"/>
<polygon fill="midnightblue" stroke="midnightblue" points="291.767,-22.118 281.463,-19.6545 287.982,-28.0063 291.767,-22.118"/>
</g>
<!-- Node4&#45;&gt;Node7 -->
<g id="edge7" class="edge"><title>Node4&#45;&gt;Node7</title>
<path fill="none" stroke="midnightblue" d="M368.067,-56.324C383.958,-47.7428 408.507,-34.486 426.958,-24.5224"/>
<polygon fill="midnightblue" stroke="midnightblue" points="428.837,-27.4857 435.973,-19.6545 425.511,-21.3264 428.837,-27.4857"/>
</g>
<!-- Node4&#45;&gt;Node8 -->
<g id="edge8" class="edge"><title>Node4&#45;&gt;Node8</title>
<path fill="none" stroke="midnightblue" d="M376.76,-56.9032C402.384,-48.5161 443.81,-34.935 488.666,-20.1005"/>
<polygon fill="midnightblue" stroke="midnightblue" points="489.891,-23.3818 498.285,-16.9174 487.692,-16.7362 489.891,-23.3818"/>
</g>
<!-- Node9 -->
<g id="node10" class="node"><title>Node9</title>
<polygon fill="white" stroke="#bfbfbf" points="308.5,-0.5 308.5,-19.5 337.5,-19.5 337.5,-0.5 308.5,-0.5"/>
<text text-anchor="middle" x="323" y="-7.5" font-family="Helvetica,sans-Serif" font-size="10.00">list</text>
</g>
<!-- Node4&#45;&gt;Node9 -->
<g id="edge9" class="edge"><title>Node4&#45;&gt;Node9</title>
<path fill="none" stroke="midnightblue" d="M347.211,-56.083C343.242,-48.6913 337.475,-37.9533 332.565,-28.8111"/>
<polygon fill="midnightblue" stroke="midnightblue" points="335.514,-26.9051 327.7,-19.7511 329.347,-30.217 335.514,-26.9051"/>
</g>
<!-- Node4&#45;&gt;Node10 -->
<g id="edge10" class="edge"><title>Node4&#45;&gt;Node10</title>
<path fill="none" stroke="midnightblue" d="M376.75,-59.282C411.411,-51.25 476.633,-36.0476 541.844,-20.2568"/>
<polygon fill="midnightblue" stroke="midnightblue" points="542.99,-23.5804 551.883,-17.8212 541.34,-16.7778 542.99,-23.5804"/>
</g>
<!-- Node11 -->
<g id="node12" class="node"><title>Node11</title>
<polygon fill="white" stroke="#bfbfbf" points="356,-0.5 356,-19.5 406,-19.5 406,-0.5 356,-0.5"/>
<text text-anchor="middle" x="381" y="-7.5" font-family="Helvetica,sans-Serif" font-size="10.00">iomanip</text>
</g>
<!-- Node4&#45;&gt;Node11 -->
<g id="edge11" class="edge"><title>Node4&#45;&gt;Node11</title>
<path fill="none" stroke="midnightblue" d="M356.789,-56.083C360.758,-48.6913 366.525,-37.9533 371.435,-28.8111"/>
<polygon fill="midnightblue" stroke="midnightblue" points="374.653,-30.217 376.3,-19.7511 368.486,-26.9051 374.653,-30.217"/>
</g>
<!-- Node12 -->
<g id="node13" class="node"><title>Node12</title>
<polygon fill="white" stroke="#bfbfbf" points="48,-0.5 48,-19.5 98,-19.5 98,-0.5 48,-0.5"/>
<text text-anchor="middle" x="73" y="-7.5" font-family="Helvetica,sans-Serif" font-size="10.00">fstream</text>
</g>
<!-- Node4&#45;&gt;Node12 -->
<g id="edge12" class="edge"><title>Node4&#45;&gt;Node12</title>
<path fill="none" stroke="midnightblue" d="M327.286,-59.0858C322.554,-58.0131 317.631,-56.9383 313,-56 225.021,-38.1746 199.513,-39.7726 108.146,-20.0967"/>
<polygon fill="midnightblue" stroke="midnightblue" points="108.709,-16.6372 98.1925,-17.926 107.217,-23.4765 108.709,-16.6372"/>
</g>
<!-- Node13 -->
<g id="node14" class="node"><title>Node13</title>
<polygon fill="white" stroke="#bfbfbf" points="116.5,-0.5 116.5,-19.5 165.5,-19.5 165.5,-0.5 116.5,-0.5"/>
<text text-anchor="middle" x="141" y="-7.5" font-family="Helvetica,sans-Serif" font-size="10.00">cassert</text>
</g>
<!-- Node4&#45;&gt;Node13 -->
<g id="edge13" class="edge"><title>Node4&#45;&gt;Node13</title>
<path fill="none" stroke="midnightblue" d="M327.355,-58.8155C294.878,-50.6479 235.727,-35.7121 175.225,-20.0386"/>
<polygon fill="midnightblue" stroke="midnightblue" points="176.065,-16.6408 165.507,-17.5177 174.307,-23.4166 176.065,-16.6408"/>
</g>
<!-- Node14 -->
<g id="node15" class="node"><title>Node14</title>
<polygon fill="white" stroke="#bfbfbf" points="184,-0.5 184,-19.5 228,-19.5 228,-0.5 184,-0.5"/>
<text text-anchor="middle" x="206" y="-7.5" font-family="Helvetica,sans-Serif" font-size="10.00">cmath</text>
</g>
<!-- Node4&#45;&gt;Node14 -->
<g id="edge14" class="edge"><title>Node4&#45;&gt;Node14</title>
<path fill="none" stroke="midnightblue" d="M328.866,-56.4435C304.231,-47.3322 265.084,-32.8531 237.614,-22.6929"/>
<polygon fill="midnightblue" stroke="midnightblue" points="238.663,-19.3493 228.07,-19.1629 236.235,-25.9146 238.663,-19.3493"/>
</g>
</g>
</svg>
