<?xml version="1.0" encoding="UTF-8" standalone="no"?>
<!DOCTYPE svg PUBLIC "-//W3C//DTD SVG 1.1//EN"
 "http://www.w3.org/Graphics/SVG/1.1/DTD/svg11.dtd">
<!-- Generated by graphviz version 2.38.0 (20140413.2041)
 -->
<!-- Title: cpostprocessingModule.c Pages: 1 -->
<svg width="235pt" height="140pt"
 viewBox="0.00 0.00 234.86 140.00" xmlns="http://www.w3.org/2000/svg" xmlns:xlink="http://www.w3.org/1999/xlink">
<g id="graph0" class="graph" transform="scale(1 1) rotate(0) translate(4 136)">
<title>cpostprocessingModule.c</title>
<polygon fill="white" stroke="none" points="-4,4 -4,-136 230.858,-136 230.858,4 -4,4"/>
<!-- Node0 -->
<g id="node1" class="node"><title>Node0</title>
<polygon fill="#bfbfbf" stroke="black" points="1.35807,-112.5 1.35807,-131.5 129.358,-131.5 129.358,-112.5 1.35807,-112.5"/>
<text text-anchor="middle" x="65.3581" y="-119.5" font-family="Helvetica,sans-Serif" font-size="10.00">cpostprocessingModule.c</text>
</g>
<!-- Node1 -->
<g id="node2" class="node"><title>Node1</title>
<polygon fill="white" stroke="#bfbfbf" points="54.3581,-0.5 54.3581,-19.5 110.358,-19.5 110.358,-0.5 54.3581,-0.5"/>
<text text-anchor="middle" x="82.3581" y="-7.5" font-family="Helvetica,sans-Serif" font-size="10.00">Python.h</text>
</g>
<!-- Node0&#45;&gt;Node1 -->
<g id="edge1" class="edge"><title>Node0&#45;&gt;Node1</title>
<path fill="none" stroke="midnightblue" d="M46.1524,-112.486C23.265,-101.058 -10.2779,-79.4604 3.35807,-56 12.357,-40.5175 28.8957,-29.9197 44.5239,-22.9179"/>
<polygon fill="midnightblue" stroke="midnightblue" points="46.1342,-26.0407 54.0614,-19.0115 43.4809,-19.563 46.1342,-26.0407"/>
</g>
<!-- Node2 -->
<g id="node3" class="node"><title>Node2</title>
<polygon fill="white" stroke="#bfbfbf" points="12.8581,-56.5 12.8581,-75.5 117.858,-75.5 117.858,-56.5 12.8581,-56.5"/>
<text text-anchor="middle" x="65.3581" y="-63.5" font-family="Helvetica,sans-Serif" font-size="10.00">numpy/arrayobject.h</text>
</g>
<!-- Node0&#45;&gt;Node2 -->
<g id="edge2" class="edge"><title>Node0&#45;&gt;Node2</title>
<path fill="none" stroke="midnightblue" d="M65.3581,-112.083C65.3581,-105.006 65.3581,-94.8611 65.3581,-85.9865"/>
<polygon fill="midnightblue" stroke="midnightblue" points="68.8582,-85.751 65.3581,-75.7511 61.8582,-85.7511 68.8582,-85.751"/>
</g>
<!-- Node3 -->
<g id="node4" class="node"><title>Node3</title>
<g id="a_node4"><a xlink:href="postprocessing_8h.html" target="_top" xlink:title="Python interface to velocity postprocessing library. ">
<polygon fill="white" stroke="black" points="135.858,-56.5 135.858,-75.5 226.858,-75.5 226.858,-56.5 135.858,-56.5"/>
<text text-anchor="middle" x="181.358" y="-63.5" font-family="Helvetica,sans-Serif" font-size="10.00">postprocessing.h</text>
</a>
</g>
</g>
<!-- Node0&#45;&gt;Node3 -->
<g id="edge3" class="edge"><title>Node0&#45;&gt;Node3</title>
<path fill="none" stroke="midnightblue" d="M83.7386,-112.444C102.575,-103.675 132.089,-89.9355 153.737,-79.8579"/>
<polygon fill="midnightblue" stroke="midnightblue" points="155.475,-82.9098 163.064,-75.5164 152.521,-76.5637 155.475,-82.9098"/>
</g>
<!-- Node3&#45;&gt;Node1 -->
<g id="edge4" class="edge"><title>Node3&#45;&gt;Node1</title>
<path fill="none" stroke="midnightblue" d="M165.452,-56.324C149.72,-47.7428 125.416,-34.486 107.149,-24.5224"/>
<polygon fill="midnightblue" stroke="midnightblue" points="108.68,-21.3704 98.2247,-19.6545 105.328,-27.5157 108.68,-21.3704"/>
</g>
</g>
</svg>
