<?xml version="1.0" encoding="UTF-8" standalone="no"?>
<!DOCTYPE svg PUBLIC "-//W3C//DTD SVG 1.1//EN"
 "http://www.w3.org/Graphics/SVG/1.1/DTD/svg11.dtd">
<!-- Generated by graphviz version 2.40.1 (20161225.0304)
 -->
<!-- Title: cpostprocessingModule.c Pages: 1 -->
<svg width="235pt" height="140pt"
 viewBox="0.00 0.00 234.85 140.00" xmlns="http://www.w3.org/2000/svg" xmlns:xlink="http://www.w3.org/1999/xlink">
<g id="graph0" class="graph" transform="scale(1 1) rotate(0) translate(4 136)">
<title>cpostprocessingModule.c</title>
<polygon fill="#ffffff" stroke="transparent" points="-4,4 -4,-136 230.8511,-136 230.8511,4 -4,4"/>
<!-- Node0 -->
<g id="node1" class="node">
<title>Node0</title>
<polygon fill="#bfbfbf" stroke="#000000" points="1.3511,-112.5 1.3511,-131.5 129.3511,-131.5 129.3511,-112.5 1.3511,-112.5"/>
<text text-anchor="middle" x="65.3511" y="-119.5" font-family="Helvetica,sans-Serif" font-size="10.00" fill="#000000">cpostprocessingModule.c</text>
</g>
<!-- Node1 -->
<g id="node2" class="node">
<title>Node1</title>
<polygon fill="#ffffff" stroke="#bfbfbf" points="54.3511,-.5 54.3511,-19.5 110.3511,-19.5 110.3511,-.5 54.3511,-.5"/>
<text text-anchor="middle" x="82.3511" y="-7.5" font-family="Helvetica,sans-Serif" font-size="10.00" fill="#000000">Python.h</text>
</g>
<!-- Node0&#45;&gt;Node1 -->
<g id="edge1" class="edge">
<title>Node0&#45;&gt;Node1</title>
<path fill="none" stroke="#191970" d="M44.1482,-112.2939C21.3707,-100.4189 -9.8908,-79.0337 3.3511,-56 12.3254,-40.3897 28.8613,-29.581 44.494,-22.3839"/>
<polygon fill="#191970" stroke="#191970" points="46.1819,-25.4706 54.0351,-18.3588 43.461,-19.021 46.1819,-25.4706"/>
</g>
<!-- Node2 -->
<g id="node3" class="node">
<title>Node2</title>
<polygon fill="#ffffff" stroke="#bfbfbf" points="12.8511,-56.5 12.8511,-75.5 117.8511,-75.5 117.8511,-56.5 12.8511,-56.5"/>
<text text-anchor="middle" x="65.3511" y="-63.5" font-family="Helvetica,sans-Serif" font-size="10.00" fill="#000000">numpy/arrayobject.h</text>
</g>
<!-- Node0&#45;&gt;Node2 -->
<g id="edge2" class="edge">
<title>Node0&#45;&gt;Node2</title>
<path fill="none" stroke="#191970" d="M65.3511,-112.2455C65.3511,-104.9382 65.3511,-94.6944 65.3511,-85.7046"/>
<polygon fill="#191970" stroke="#191970" points="68.8512,-85.6426 65.3511,-75.6427 61.8512,-85.6427 68.8512,-85.6426"/>
</g>
<!-- Node3 -->
<g id="node4" class="node">
<title>Node3</title>
<g id="a_node4"><a xlink:href="postprocessing_8h.html" target="_top" xlink:title="Python interface to velocity postprocessing library. ">
<polygon fill="#ffffff" stroke="#000000" points="135.8511,-56.5 135.8511,-75.5 226.8511,-75.5 226.8511,-56.5 135.8511,-56.5"/>
<text text-anchor="middle" x="181.3511" y="-63.5" font-family="Helvetica,sans-Serif" font-size="10.00" fill="#000000">postprocessing.h</text>
</a>
</g>
</g>
<!-- Node0&#45;&gt;Node3 -->
<g id="edge3" class="edge">
<title>Node0&#45;&gt;Node3</title>
<path fill="none" stroke="#191970" d="M85.2922,-112.3733C103.8297,-103.4241 131.6539,-89.9917 152.5924,-79.8835"/>
<polygon fill="#191970" stroke="#191970" points="154.1863,-83.0006 161.6702,-75.5011 151.143,-76.6967 154.1863,-83.0006"/>
</g>
<!-- Node3&#45;&gt;Node1 -->
<g id="edge4" class="edge">
<title>Node3&#45;&gt;Node1</title>
<path fill="none" stroke="#191970" d="M164.1066,-56.2455C148.775,-47.5731 126.1312,-34.7645 108.5596,-24.825"/>
<polygon fill="#191970" stroke="#191970" points="109.8252,-21.5198 99.398,-19.6427 106.3788,-27.6126 109.8252,-21.5198"/>
</g>
</g>
</svg>
