<?xml version="1.0" encoding="UTF-8" standalone="no"?>
<!DOCTYPE svg PUBLIC "-//W3C//DTD SVG 1.1//EN"
 "http://www.w3.org/Graphics/SVG/1.1/DTD/svg11.dtd">
<!-- Generated by graphviz version 2.40.1 (20161225.0304)
 -->
<!-- Title: cpskRelationsModule.cpp Pages: 1 -->
<svg width="535pt" height="140pt"
 viewBox="0.00 0.00 535.00 140.00" xmlns="http://www.w3.org/2000/svg" xmlns:xlink="http://www.w3.org/1999/xlink">
<g id="graph0" class="graph" transform="scale(1 1) rotate(0) translate(4 136)">
<title>cpskRelationsModule.cpp</title>
<polygon fill="#ffffff" stroke="transparent" points="-4,4 -4,-136 531,-136 531,4 -4,4"/>
<!-- Node0 -->
<g id="node1" class="node">
<title>Node0</title>
<polygon fill="#bfbfbf" stroke="#000000" points="19.5,-112.5 19.5,-131.5 148.5,-131.5 148.5,-112.5 19.5,-112.5"/>
<text text-anchor="middle" x="84" y="-119.5" font-family="Helvetica,sans-Serif" font-size="10.00" fill="#000000">cpskRelationsModule.cpp</text>
</g>
<!-- Node1 -->
<g id="node2" class="node">
<title>Node1</title>
<polygon fill="#ffffff" stroke="#bfbfbf" points="0,-56.5 0,-75.5 56,-75.5 56,-56.5 0,-56.5"/>
<text text-anchor="middle" x="28" y="-63.5" font-family="Helvetica,sans-Serif" font-size="10.00" fill="#000000">Python.h</text>
</g>
<!-- Node0&#45;&gt;Node1 -->
<g id="edge1" class="edge">
<title>Node0&#45;&gt;Node1</title>
<path fill="none" stroke="#191970" d="M74.2455,-112.2455C66.1352,-104.1352 54.4075,-92.4075 44.7919,-82.7919"/>
<polygon fill="#191970" stroke="#191970" points="47.1887,-80.2389 37.6427,-75.6427 42.2389,-85.1887 47.1887,-80.2389"/>
</g>
<!-- Node2 -->
<g id="node3" class="node">
<title>Node2</title>
<g id="a_node3"><a xlink:href="psk_relations_8h.html" target="_top" xlink:title="pskRelations.h">
<polygon fill="#ffffff" stroke="#000000" points="143,-56.5 143,-75.5 225,-75.5 225,-56.5 143,-56.5"/>
<text text-anchor="middle" x="184" y="-63.5" font-family="Helvetica,sans-Serif" font-size="10.00" fill="#000000">pskRelations.h</text>
</a>
</g>
</g>
<!-- Node0&#45;&gt;Node2 -->
<g id="edge2" class="edge">
<title>Node0&#45;&gt;Node2</title>
<path fill="none" stroke="#191970" d="M101.4187,-112.2455C117.0485,-103.4928 140.2019,-90.527 158.0185,-80.5496"/>
<polygon fill="#191970" stroke="#191970" points="159.766,-83.5825 166.7809,-75.6427 156.3457,-77.475 159.766,-83.5825"/>
</g>
<!-- Node4 -->
<g id="node5" class="node">
<title>Node4</title>
<polygon fill="#ffffff" stroke="#bfbfbf" points="41,-.5 41,-19.5 95,-19.5 95,-.5 41,-.5"/>
<text text-anchor="middle" x="68" y="-7.5" font-family="Helvetica,sans-Serif" font-size="10.00" fill="#000000">iostream</text>
</g>
<!-- Node0&#45;&gt;Node4 -->
<g id="edge8" class="edge">
<title>Node0&#45;&gt;Node4</title>
<path fill="none" stroke="#191970" d="M82.6358,-112.4509C80.0263,-94.184 74.2793,-53.9553 70.8139,-29.6976"/>
<polygon fill="#191970" stroke="#191970" points="74.2398,-28.9294 69.3607,-19.5249 67.3102,-29.9194 74.2398,-28.9294"/>
</g>
<!-- Node3 -->
<g id="node4" class="node">
<title>Node3</title>
<polygon fill="#ffffff" stroke="#bfbfbf" points="113,-.5 113,-19.5 157,-19.5 157,-.5 113,-.5"/>
<text text-anchor="middle" x="135" y="-7.5" font-family="Helvetica,sans-Serif" font-size="10.00" fill="#000000">cmath</text>
</g>
<!-- Node2&#45;&gt;Node3 -->
<g id="edge3" class="edge">
<title>Node2&#45;&gt;Node3</title>
<path fill="none" stroke="#191970" d="M175.4649,-56.2455C168.5088,-48.2958 158.5117,-36.8706 150.1949,-27.3656"/>
<polygon fill="#191970" stroke="#191970" points="152.6564,-24.8637 143.4373,-19.6427 147.3884,-29.4732 152.6564,-24.8637"/>
</g>
<!-- Node2&#45;&gt;Node4 -->
<g id="edge4" class="edge">
<title>Node2&#45;&gt;Node4</title>
<path fill="none" stroke="#191970" d="M164.0589,-56.3733C145.5214,-47.4241 117.6972,-33.9917 96.7587,-23.8835"/>
<polygon fill="#191970" stroke="#191970" points="98.2081,-20.6967 87.6809,-19.5011 95.1648,-27.0006 98.2081,-20.6967"/>
</g>
<!-- Node5 -->
<g id="node6" class="node">
<title>Node5</title>
<polygon fill="#ffffff" stroke="#bfbfbf" points="175.5,-.5 175.5,-19.5 224.5,-19.5 224.5,-.5 175.5,-.5"/>
<text text-anchor="middle" x="200" y="-7.5" font-family="Helvetica,sans-Serif" font-size="10.00" fill="#000000">cassert</text>
</g>
<!-- Node2&#45;&gt;Node5 -->
<g id="edge5" class="edge">
<title>Node2&#45;&gt;Node5</title>
<path fill="none" stroke="#191970" d="M186.787,-56.2455C188.8977,-48.8579 191.866,-38.4689 194.4547,-29.4087"/>
<polygon fill="#191970" stroke="#191970" points="197.863,-30.2195 197.245,-19.6427 191.1323,-28.2964 197.863,-30.2195"/>
</g>
<!-- Node6 -->
<g id="node7" class="node">
<title>Node6</title>
<g id="a_node7"><a xlink:href="density_relations_8h.html" target="_top" xlink:title="densityRelations.h">
<polygon fill="#ffffff" stroke="#000000" points="243,-.5 243,-19.5 341,-19.5 341,-.5 243,-.5"/>
<text text-anchor="middle" x="292" y="-7.5" font-family="Helvetica,sans-Serif" font-size="10.00" fill="#000000">densityRelations.h</text>
</a>
</g>
</g>
<!-- Node2&#45;&gt;Node6 -->
<g id="edge6" class="edge">
<title>Node2&#45;&gt;Node6</title>
<path fill="none" stroke="#191970" d="M202.8122,-56.2455C219.8473,-47.4125 245.1575,-34.2887 264.4681,-24.2758"/>
<polygon fill="#191970" stroke="#191970" points="266.137,-27.353 273.4034,-19.6427 262.9147,-21.1388 266.137,-27.353"/>
</g>
<!-- Node7 -->
<g id="node8" class="node">
<title>Node7</title>
<g id="a_node8"><a xlink:href="_subsurface_transport_coefficients_8h.html" target="_top" xlink:title="SubsurfaceTransportCoefficients.h">
<polygon fill="#ffffff" stroke="#000000" points="359,-.5 359,-19.5 527,-19.5 527,-.5 359,-.5"/>
<text text-anchor="middle" x="443" y="-7.5" font-family="Helvetica,sans-Serif" font-size="10.00" fill="#000000">SubsurfaceTransportCoefficients.h</text>
</a>
</g>
</g>
<!-- Node2&#45;&gt;Node7 -->
<g id="edge7" class="edge">
<title>Node2&#45;&gt;Node7</title>
<path fill="none" stroke="#191970" d="M225.0393,-57.1266C269.2506,-47.5674 339.8115,-32.311 388.6164,-21.7586"/>
<polygon fill="#191970" stroke="#191970" points="389.6489,-25.1163 398.6833,-19.582 388.1695,-18.2744 389.6489,-25.1163"/>
</g>
</g>
</svg>
