<?xml version="1.0" encoding="UTF-8" standalone="no"?>
<!DOCTYPE svg PUBLIC "-//W3C//DTD SVG 1.1//EN"
 "http://www.w3.org/Graphics/SVG/1.1/DTD/svg11.dtd">
<!-- Generated by graphviz version 2.38.0 (20140413.2041)
 -->
<!-- Title: cpskRelationsModule.cpp Pages: 1 -->
<svg width="519pt" height="140pt"
 viewBox="0.00 0.00 519.00 140.00" xmlns="http://www.w3.org/2000/svg" xmlns:xlink="http://www.w3.org/1999/xlink">
<g id="graph0" class="graph" transform="scale(1 1) rotate(0) translate(4 136)">
<title>cpskRelationsModule.cpp</title>
<polygon fill="white" stroke="none" points="-4,4 -4,-136 515,-136 515,4 -4,4"/>
<!-- Node1 -->
<g id="node1" class="node"><title>Node1</title>
<polygon fill="#bfbfbf" stroke="black" points="19.5,-112.5 19.5,-131.5 148.5,-131.5 148.5,-112.5 19.5,-112.5"/>
<text text-anchor="middle" x="84" y="-119.5" font-family="Helvetica,sans-Serif" font-size="10.00">cpskRelationsModule.cpp</text>
</g>
<!-- Node2 -->
<g id="node2" class="node"><title>Node2</title>
<polygon fill="white" stroke="#bfbfbf" points="0,-56.5 0,-75.5 56,-75.5 56,-56.5 0,-56.5"/>
<text text-anchor="middle" x="28" y="-63.5" font-family="Helvetica,sans-Serif" font-size="10.00">Python.h</text>
</g>
<!-- Node1&#45;&gt;Node2 -->
<g id="edge1" class="edge"><title>Node1&#45;&gt;Node2</title>
<path fill="none" stroke="midnightblue" d="M75.0026,-112.324C66.8056,-104.42 54.4945,-92.5482 44.528,-82.9377"/>
<polygon fill="midnightblue" stroke="midnightblue" points="46.789,-80.2558 37.1611,-75.8339 41.9301,-85.2947 46.789,-80.2558"/>
</g>
<!-- Node3 -->
<g id="node3" class="node"><title>Node3</title>
<g id="a_node3"><a xlink:href="psk_relations_8h.html" target="_top" xlink:title="pskRelations.h">
<polygon fill="white" stroke="black" points="128,-56.5 128,-75.5 210,-75.5 210,-56.5 128,-56.5"/>
<text text-anchor="middle" x="169" y="-63.5" font-family="Helvetica,sans-Serif" font-size="10.00">pskRelations.h</text>
</a>
</g>
</g>
<!-- Node1&#45;&gt;Node3 -->
<g id="edge2" class="edge"><title>Node1&#45;&gt;Node3</title>
<path fill="none" stroke="midnightblue" d="M97.6567,-112.324C110.916,-103.9 131.268,-90.9709 146.846,-81.0741"/>
<polygon fill="midnightblue" stroke="midnightblue" points="148.813,-83.9711 155.377,-75.6545 145.06,-78.0626 148.813,-83.9711"/>
</g>
<!-- Node5 -->
<g id="node5" class="node"><title>Node5</title>
<polygon fill="white" stroke="#bfbfbf" points="26,-0.5 26,-19.5 80,-19.5 80,-0.5 26,-0.5"/>
<text text-anchor="middle" x="53" y="-7.5" font-family="Helvetica,sans-Serif" font-size="10.00">iostream</text>
</g>
<!-- Node1&#45;&gt;Node5 -->
<g id="edge8" class="edge"><title>Node1&#45;&gt;Node5</title>
<path fill="none" stroke="midnightblue" d="M81.5675,-112.368C76.5421,-94.5366 64.9196,-53.2953 58.1493,-29.2717"/>
<polygon fill="midnightblue" stroke="midnightblue" points="61.5026,-28.2671 55.4212,-19.5914 54.765,-30.1659 61.5026,-28.2671"/>
</g>
<!-- Node4 -->
<g id="node4" class="node"><title>Node4</title>
<polygon fill="white" stroke="#bfbfbf" points="98,-0.5 98,-19.5 142,-19.5 142,-0.5 98,-0.5"/>
<text text-anchor="middle" x="120" y="-7.5" font-family="Helvetica,sans-Serif" font-size="10.00">cmath</text>
</g>
<!-- Node3&#45;&gt;Node4 -->
<g id="edge3" class="edge"><title>Node3&#45;&gt;Node4</title>
<path fill="none" stroke="midnightblue" d="M160.909,-56.083C153.845,-48.2982 143.412,-36.8015 134.851,-27.3665"/>
<polygon fill="midnightblue" stroke="midnightblue" points="137.253,-24.8047 127.941,-19.7511 132.069,-29.5087 137.253,-24.8047"/>
</g>
<!-- Node3&#45;&gt;Node5 -->
<g id="edge4" class="edge"><title>Node3&#45;&gt;Node5</title>
<path fill="none" stroke="midnightblue" d="M150.619,-56.4435C131.784,-47.6751 102.269,-33.9355 80.6207,-23.8579"/>
<polygon fill="midnightblue" stroke="midnightblue" points="81.8375,-20.5637 71.2946,-19.5164 78.8833,-26.9098 81.8375,-20.5637"/>
</g>
<!-- Node6 -->
<g id="node6" class="node"><title>Node6</title>
<polygon fill="white" stroke="#bfbfbf" points="160.5,-0.5 160.5,-19.5 209.5,-19.5 209.5,-0.5 160.5,-0.5"/>
<text text-anchor="middle" x="185" y="-7.5" font-family="Helvetica,sans-Serif" font-size="10.00">cassert</text>
</g>
<!-- Node3&#45;&gt;Node6 -->
<g id="edge5" class="edge"><title>Node3&#45;&gt;Node6</title>
<path fill="none" stroke="midnightblue" d="M171.642,-56.083C173.786,-48.8486 176.879,-38.4087 179.549,-29.3968"/>
<polygon fill="midnightblue" stroke="midnightblue" points="182.922,-30.3334 182.407,-19.7511 176.21,-28.3447 182.922,-30.3334"/>
</g>
<!-- Node7 -->
<g id="node7" class="node"><title>Node7</title>
<g id="a_node7"><a xlink:href="density_relations_8h.html" target="_top" xlink:title="densityRelations.h">
<polygon fill="white" stroke="black" points="227,-0.5 227,-19.5 325,-19.5 325,-0.5 227,-0.5"/>
<text text-anchor="middle" x="276" y="-7.5" font-family="Helvetica,sans-Serif" font-size="10.00">densityRelations.h</text>
</a>
</g>
</g>
<!-- Node3&#45;&gt;Node7 -->
<g id="edge6" class="edge"><title>Node3&#45;&gt;Node7</title>
<path fill="none" stroke="midnightblue" d="M186.191,-56.324C203.351,-47.6641 229.946,-34.2424 249.747,-24.249"/>
<polygon fill="midnightblue" stroke="midnightblue" points="251.501,-27.2847 258.851,-19.6545 248.347,-21.0354 251.501,-27.2847"/>
</g>
<!-- Node8 -->
<g id="node8" class="node"><title>Node8</title>
<g id="a_node8"><a xlink:href="_subsurface_transport_coefficients_8h.html" target="_top" xlink:title="SubsurfaceTransportCoefficients.h">
<polygon fill="white" stroke="black" points="343,-0.5 343,-19.5 511,-19.5 511,-0.5 343,-0.5"/>
<text text-anchor="middle" x="427" y="-7.5" font-family="Helvetica,sans-Serif" font-size="10.00">SubsurfaceTransportCoefficients.h</text>
</a>
</g>
</g>
<!-- Node3&#45;&gt;Node8 -->
<g id="edge7" class="edge"><title>Node3&#45;&gt;Node8</title>
<path fill="none" stroke="midnightblue" d="M209.881,-56.4435C254.983,-47.0036 327.612,-31.802 376.302,-21.6111"/>
<polygon fill="midnightblue" stroke="midnightblue" points="377.24,-24.9909 386.31,-19.5164 375.805,-18.1394 377.24,-24.9909"/>
</g>
</g>
</svg>
