<?xml version="1.0" encoding="UTF-8" standalone="no"?>
<!DOCTYPE svg PUBLIC "-//W3C//DTD SVG 1.1//EN"
 "http://www.w3.org/Graphics/SVG/1.1/DTD/svg11.dtd">
<!-- Generated by graphviz version 2.38.0 (20140413.2041)
 -->
<!-- Title: cpskRelationsModule.cpp Pages: 1 -->
<svg width="520pt" height="140pt"
 viewBox="0.00 0.00 520.00 140.00" xmlns="http://www.w3.org/2000/svg" xmlns:xlink="http://www.w3.org/1999/xlink">
<g id="graph0" class="graph" transform="scale(1 1) rotate(0) translate(4 136)">
<title>cpskRelationsModule.cpp</title>
<polygon fill="white" stroke="none" points="-4,4 -4,-136 516,-136 516,4 -4,4"/>
<!-- Node0 -->
<g id="node1" class="node"><title>Node0</title>
<polygon fill="#bfbfbf" stroke="black" points="19.5,-112.5 19.5,-131.5 148.5,-131.5 148.5,-112.5 19.5,-112.5"/>
<text text-anchor="middle" x="84" y="-119.5" font-family="Helvetica,sans-Serif" font-size="10.00">cpskRelationsModule.cpp</text>
</g>
<!-- Node1 -->
<g id="node2" class="node"><title>Node1</title>
<polygon fill="white" stroke="#bfbfbf" points="0,-56.5 0,-75.5 56,-75.5 56,-56.5 0,-56.5"/>
<text text-anchor="middle" x="28" y="-63.5" font-family="Helvetica,sans-Serif" font-size="10.00">Python.h</text>
</g>
<!-- Node0&#45;&gt;Node1 -->
<g id="edge1" class="edge"><title>Node0&#45;&gt;Node1</title>
<path fill="none" stroke="midnightblue" d="M75.0026,-112.324C66.8056,-104.42 54.4945,-92.5482 44.528,-82.9377"/>
<polygon fill="midnightblue" stroke="midnightblue" points="46.789,-80.2558 37.1611,-75.8339 41.9301,-85.2947 46.789,-80.2558"/>
</g>
<!-- Node2 -->
<g id="node3" class="node"><title>Node2</title>
<g id="a_node3"><a xlink:href="psk_relations_8h.html" target="_top" xlink:title="pskRelations.h">
<polygon fill="white" stroke="black" points="128,-56.5 128,-75.5 210,-75.5 210,-56.5 128,-56.5"/>
<text text-anchor="middle" x="169" y="-63.5" font-family="Helvetica,sans-Serif" font-size="10.00">pskRelations.h</text>
</a>
</g>
</g>
<!-- Node0&#45;&gt;Node2 -->
<g id="edge2" class="edge"><title>Node0&#45;&gt;Node2</title>
<path fill="none" stroke="midnightblue" d="M97.6567,-112.324C110.916,-103.9 131.268,-90.9709 146.846,-81.0741"/>
<polygon fill="midnightblue" stroke="midnightblue" points="148.813,-83.9711 155.377,-75.6545 145.06,-78.0626 148.813,-83.9711"/>
</g>
<!-- Node4 -->
<g id="node5" class="node"><title>Node4</title>
<polygon fill="white" stroke="#bfbfbf" points="26,-0.5 26,-19.5 80,-19.5 80,-0.5 26,-0.5"/>
<text text-anchor="middle" x="53" y="-7.5" font-family="Helvetica,sans-Serif" font-size="10.00">iostream</text>
</g>
<!-- Node0&#45;&gt;Node4 -->
<g id="edge8" class="edge"><title>Node0&#45;&gt;Node4</title>
<path fill="none" stroke="midnightblue" d="M81.5675,-112.368C76.5421,-94.5366 64.9196,-53.2953 58.1493,-29.2717"/>
<polygon fill="midnightblue" stroke="midnightblue" points="61.5026,-28.2671 55.4212,-19.5914 54.765,-30.1659 61.5026,-28.2671"/>
</g>
<!-- Node3 -->
<g id="node4" class="node"><title>Node3</title>
<polygon fill="white" stroke="#bfbfbf" points="98,-0.5 98,-19.5 142,-19.5 142,-0.5 98,-0.5"/>
<text text-anchor="middle" x="120" y="-7.5" font-family="Helvetica,sans-Serif" font-size="10.00">cmath</text>
</g>
<!-- Node2&#45;&gt;Node3 -->
<g id="edge3" class="edge"><title>Node2&#45;&gt;Node3</title>
<path fill="none" stroke="midnightblue" d="M160.909,-56.083C153.845,-48.2982 143.412,-36.8015 134.851,-27.3665"/>
<polygon fill="midnightblue" stroke="midnightblue" points="137.253,-24.8047 127.941,-19.7511 132.069,-29.5087 137.253,-24.8047"/>
</g>
<!-- Node2&#45;&gt;Node4 -->
<g id="edge4" class="edge"><title>Node2&#45;&gt;Node4</title>
<path fill="none" stroke="midnightblue" d="M150.619,-56.4435C131.784,-47.6751 102.269,-33.9355 80.6207,-23.8579"/>
<polygon fill="midnightblue" stroke="midnightblue" points="81.8375,-20.5637 71.2946,-19.5164 78.8833,-26.9098 81.8375,-20.5637"/>
</g>
<!-- Node5 -->
<g id="node6" class="node"><title>Node5</title>
<polygon fill="white" stroke="#bfbfbf" points="160.5,-0.5 160.5,-19.5 209.5,-19.5 209.5,-0.5 160.5,-0.5"/>
<text text-anchor="middle" x="185" y="-7.5" font-family="Helvetica,sans-Serif" font-size="10.00">cassert</text>
</g>
<!-- Node2&#45;&gt;Node5 -->
<g id="edge5" class="edge"><title>Node2&#45;&gt;Node5</title>
<path fill="none" stroke="midnightblue" d="M171.642,-56.083C173.786,-48.8486 176.879,-38.4087 179.549,-29.3968"/>
<polygon fill="midnightblue" stroke="midnightblue" points="182.922,-30.3334 182.407,-19.7511 176.21,-28.3447 182.922,-30.3334"/>
</g>
<!-- Node6 -->
<g id="node7" class="node"><title>Node6</title>
<g id="a_node7"><a xlink:href="density_relations_8h.html" target="_top" xlink:title="densityRelations.h">
<polygon fill="white" stroke="black" points="228,-0.5 228,-19.5 326,-19.5 326,-0.5 228,-0.5"/>
<text text-anchor="middle" x="277" y="-7.5" font-family="Helvetica,sans-Serif" font-size="10.00">densityRelations.h</text>
</a>
</g>
</g>
<!-- Node2&#45;&gt;Node6 -->
<g id="edge6" class="edge"><title>Node2&#45;&gt;Node6</title>
<path fill="none" stroke="midnightblue" d="M186.352,-56.324C203.672,-47.6641 230.515,-34.2424 250.502,-24.249"/>
<polygon fill="midnightblue" stroke="midnightblue" points="252.312,-27.2572 259.691,-19.6545 249.181,-20.9962 252.312,-27.2572"/>
</g>
<!-- Node7 -->
<g id="node8" class="node"><title>Node7</title>
<g id="a_node8"><a xlink:href="_subsurface_transport_coefficients_8h.html" target="_top" xlink:title="SubsurfaceTransportCoefficients.h">
<polygon fill="white" stroke="black" points="344,-0.5 344,-19.5 512,-19.5 512,-0.5 344,-0.5"/>
<text text-anchor="middle" x="428" y="-7.5" font-family="Helvetica,sans-Serif" font-size="10.00">SubsurfaceTransportCoefficients.h</text>
</a>
</g>
</g>
<!-- Node2&#45;&gt;Node7 -->
<g id="edge7" class="edge"><title>Node2&#45;&gt;Node7</title>
<path fill="none" stroke="midnightblue" d="M210.039,-56.4435C255.316,-47.0036 328.227,-31.802 377.106,-21.6111"/>
<polygon fill="midnightblue" stroke="midnightblue" points="378.078,-24.9839 387.153,-19.5164 376.649,-18.1312 378.078,-24.9839"/>
</g>
</g>
</svg>
