<?xml version="1.0" encoding="UTF-8" standalone="no"?>
<!DOCTYPE svg PUBLIC "-//W3C//DTD SVG 1.1//EN"
 "http://www.w3.org/Graphics/SVG/1.1/DTD/svg11.dtd">
<!-- Generated by graphviz version 2.42.3 (0)
 -->
<!-- Title: createAnalyticGeometry.h Pages: 1 -->
<svg width="1083pt" height="84pt"
 viewBox="0.00 0.00 1082.50 84.00" xmlns="http://www.w3.org/2000/svg" xmlns:xlink="http://www.w3.org/1999/xlink">
<g id="graph0" class="graph" transform="scale(1 1) rotate(0) translate(4 80)">
<title>createAnalyticGeometry.h</title>
<polygon fill="white" stroke="transparent" points="-4,4 -4,-80 1078.5,-80 1078.5,4 -4,4"/>
<!-- Node1 -->
<g id="node1" class="node">
<title>Node1</title>
<g id="a_node1"><a xlink:title=" ">
<polygon fill="#bfbfbf" stroke="black" points="503,-56.5 503,-75.5 646,-75.5 646,-56.5 503,-56.5"/>
<text text-anchor="middle" x="574.5" y="-63.5" font-family="Helvetica,sans-Serif" font-size="10.00">createAnalyticGeometry.h</text>
</a>
</g>
</g>
<!-- Node2 -->
<g id="node2" class="node">
<title>Node2</title>
<g id="a_node2"><a xlink:title=" ">
<polygon fill="white" stroke="#bfbfbf" points="0,-0.5 0,-19.5 41,-19.5 41,-0.5 0,-0.5"/>
<text text-anchor="middle" x="20.5" y="-7.5" font-family="Helvetica,sans-Serif" font-size="10.00">apf.h</text>
</a>
</g>
</g>
<!-- Node1&#45;&gt;Node2 -->
<g id="edge1" class="edge">
<title>Node1&#45;&gt;Node2</title>
<path fill="none" stroke="midnightblue" d="M502.67,-63.5C403.1,-60.38 217.57,-50.85 50.95,-19.65"/>
<polygon fill="midnightblue" stroke="midnightblue" points="51.5,-16.19 41.02,-17.76 50.19,-23.07 51.5,-16.19"/>
</g>
<!-- Node3 -->
<g id="node3" class="node">
<title>Node3</title>
<g id="a_node3"><a xlink:title=" ">
<polygon fill="white" stroke="#bfbfbf" points="59.5,-0.5 59.5,-19.5 123.5,-19.5 123.5,-0.5 59.5,-0.5"/>
<text text-anchor="middle" x="91.5" y="-7.5" font-family="Helvetica,sans-Serif" font-size="10.00">apfMDS.h</text>
</a>
</g>
</g>
<!-- Node1&#45;&gt;Node3 -->
<g id="edge2" class="edge">
<title>Node1&#45;&gt;Node3</title>
<path fill="none" stroke="midnightblue" d="M502.98,-60.25C417.44,-54.01 269.79,-41.43 133.85,-20.05"/>
<polygon fill="midnightblue" stroke="midnightblue" points="134.09,-16.54 123.66,-18.43 132.99,-23.45 134.09,-16.54"/>
</g>
<!-- Node4 -->
<g id="node4" class="node">
<title>Node4</title>
<g id="a_node4"><a xlink:title=" ">
<polygon fill="white" stroke="#bfbfbf" points="141.5,-0.5 141.5,-19.5 215.5,-19.5 215.5,-0.5 141.5,-0.5"/>
<text text-anchor="middle" x="178.5" y="-7.5" font-family="Helvetica,sans-Serif" font-size="10.00">apfMesh2.h</text>
</a>
</g>
</g>
<!-- Node1&#45;&gt;Node4 -->
<g id="edge3" class="edge">
<title>Node1&#45;&gt;Node4</title>
<path fill="none" stroke="midnightblue" d="M502.91,-57.18C434.32,-49.38 327.65,-36.42 225.78,-20.12"/>
<polygon fill="midnightblue" stroke="midnightblue" points="226.05,-16.62 215.62,-18.48 224.93,-23.53 226.05,-16.62"/>
</g>
<!-- Node5 -->
<g id="node5" class="node">
<title>Node5</title>
<g id="a_node5"><a xlink:title=" ">
<polygon fill="white" stroke="#bfbfbf" points="234,-0.5 234,-19.5 305,-19.5 305,-0.5 234,-0.5"/>
<text text-anchor="middle" x="269.5" y="-7.5" font-family="Helvetica,sans-Serif" font-size="10.00">apfShape.h</text>
</a>
</g>
</g>
<!-- Node1&#45;&gt;Node5 -->
<g id="edge4" class="edge">
<title>Node1&#45;&gt;Node5</title>
<path fill="none" stroke="midnightblue" d="M522.63,-56.43C472.26,-48.02 393.35,-34.6 315.35,-20.12"/>
<polygon fill="midnightblue" stroke="midnightblue" points="315.82,-16.65 305.35,-18.26 314.54,-23.53 315.82,-16.65"/>
</g>
<!-- Node6 -->
<g id="node6" class="node">
<title>Node6</title>
<g id="a_node6"><a xlink:title=" ">
<polygon fill="white" stroke="#bfbfbf" points="323.5,-0.5 323.5,-19.5 369.5,-19.5 369.5,-0.5 323.5,-0.5"/>
<text text-anchor="middle" x="346.5" y="-7.5" font-family="Helvetica,sans-Serif" font-size="10.00">PCU.h</text>
</a>
</g>
</g>
<!-- Node1&#45;&gt;Node6 -->
<g id="edge5" class="edge">
<title>Node1&#45;&gt;Node6</title>
<path fill="none" stroke="midnightblue" d="M534.57,-56.43C496.96,-48.22 438.82,-35.19 379.46,-20.15"/>
<polygon fill="midnightblue" stroke="midnightblue" points="380.09,-16.7 369.54,-17.62 378.36,-23.49 380.09,-16.7"/>
</g>
<!-- Node7 -->
<g id="node7" class="node">
<title>Node7</title>
<g id="a_node7"><a xlink:title=" ">
<polygon fill="white" stroke="#bfbfbf" points="388,-0.5 388,-19.5 477,-19.5 477,-0.5 388,-0.5"/>
<text text-anchor="middle" x="432.5" y="-7.5" font-family="Helvetica,sans-Serif" font-size="10.00">gmi_analytic.h</text>
</a>
</g>
</g>
<!-- Node1&#45;&gt;Node7 -->
<g id="edge6" class="edge">
<title>Node1&#45;&gt;Node7</title>
<path fill="none" stroke="midnightblue" d="M552,-56.44C528.42,-47.48 491.18,-33.31 464.54,-23.18"/>
<polygon fill="midnightblue" stroke="midnightblue" points="465.49,-19.8 454.9,-19.52 463,-26.34 465.49,-19.8"/>
</g>
<!-- Node8 -->
<g id="node8" class="node">
<title>Node8</title>
<g id="a_node8"><a xlink:title=" ">
<polygon fill="white" stroke="#bfbfbf" points="495,-0.5 495,-19.5 572,-19.5 572,-0.5 495,-0.5"/>
<text text-anchor="middle" x="533.5" y="-7.5" font-family="Helvetica,sans-Serif" font-size="10.00">gmi_mesh.h</text>
</a>
</g>
</g>
<!-- Node1&#45;&gt;Node8 -->
<g id="edge7" class="edge">
<title>Node1&#45;&gt;Node8</title>
<path fill="none" stroke="midnightblue" d="M567.73,-56.08C561.94,-48.46 553.44,-37.26 546.36,-27.94"/>
<polygon fill="midnightblue" stroke="midnightblue" points="548.98,-25.6 540.14,-19.75 543.4,-29.83 548.98,-25.6"/>
</g>
<!-- Node9 -->
<g id="node9" class="node">
<title>Node9</title>
<g id="a_node9"><a xlink:title=" ">
<polygon fill="white" stroke="#bfbfbf" points="590.5,-0.5 590.5,-19.5 642.5,-19.5 642.5,-0.5 590.5,-0.5"/>
<text text-anchor="middle" x="616.5" y="-7.5" font-family="Helvetica,sans-Serif" font-size="10.00">cassert</text>
</a>
</g>
</g>
<!-- Node1&#45;&gt;Node9 -->
<g id="edge8" class="edge">
<title>Node1&#45;&gt;Node9</title>
<path fill="none" stroke="midnightblue" d="M581.44,-56.08C587.43,-48.38 596.25,-37.03 603.55,-27.65"/>
<polygon fill="midnightblue" stroke="midnightblue" points="606.32,-29.79 609.69,-19.75 600.79,-25.5 606.32,-29.79"/>
</g>
<!-- Node10 -->
<g id="node10" class="node">
<title>Node10</title>
<g id="a_node10"><a xlink:title=" ">
<polygon fill="white" stroke="#bfbfbf" points="661,-0.5 661,-19.5 714,-19.5 714,-0.5 661,-0.5"/>
<text text-anchor="middle" x="687.5" y="-7.5" font-family="Helvetica,sans-Serif" font-size="10.00">stdlib.h</text>
</a>
</g>
</g>
<!-- Node1&#45;&gt;Node10 -->
<g id="edge9" class="edge">
<title>Node1&#45;&gt;Node10</title>
<path fill="none" stroke="midnightblue" d="M592.41,-56.44C610.75,-47.68 639.51,-33.94 660.59,-23.86"/>
<polygon fill="midnightblue" stroke="midnightblue" points="662.17,-26.99 669.68,-19.52 659.15,-20.67 662.17,-26.99"/>
</g>
<!-- Node11 -->
<g id="node11" class="node">
<title>Node11</title>
<g id="a_node11"><a xlink:title=" ">
<polygon fill="white" stroke="#bfbfbf" points="732.5,-0.5 732.5,-19.5 792.5,-19.5 792.5,-0.5 732.5,-0.5"/>
<text text-anchor="middle" x="762.5" y="-7.5" font-family="Helvetica,sans-Serif" font-size="10.00">iostream</text>
</a>
</g>
</g>
<!-- Node1&#45;&gt;Node11 -->
<g id="edge10" class="edge">
<title>Node1&#45;&gt;Node11</title>
<path fill="none" stroke="midnightblue" d="M604.29,-56.44C636.33,-47.24 687.43,-32.56 722.85,-22.39"/>
<polygon fill="midnightblue" stroke="midnightblue" points="724.21,-25.64 732.85,-19.52 722.27,-18.91 724.21,-25.64"/>
</g>
<!-- Node12 -->
<g id="node12" class="node">
<title>Node12</title>
<g id="a_node12"><a xlink:title=" ">
<polygon fill="white" stroke="#bfbfbf" points="811,-0.5 811,-19.5 866,-19.5 866,-0.5 811,-0.5"/>
<text text-anchor="middle" x="838.5" y="-7.5" font-family="Helvetica,sans-Serif" font-size="10.00">fstream</text>
</a>
</g>
</g>
<!-- Node1&#45;&gt;Node12 -->
<g id="edge11" class="edge">
<title>Node1&#45;&gt;Node12</title>
<path fill="none" stroke="midnightblue" d="M620.71,-56.44C664.51,-48.19 732.38,-35.07 800.59,-20.13"/>
<polygon fill="midnightblue" stroke="midnightblue" points="801.64,-23.48 810.65,-17.91 800.13,-16.64 801.64,-23.48"/>
</g>
<!-- Node13 -->
<g id="node13" class="node">
<title>Node13</title>
<g id="a_node13"><a xlink:title=" ">
<polygon fill="white" stroke="#bfbfbf" points="884.5,-0.5 884.5,-19.5 922.5,-19.5 922.5,-0.5 884.5,-0.5"/>
<text text-anchor="middle" x="903.5" y="-7.5" font-family="Helvetica,sans-Serif" font-size="10.00">map</text>
</a>
</g>
</g>
<!-- Node1&#45;&gt;Node13 -->
<g id="edge12" class="edge">
<title>Node1&#45;&gt;Node13</title>
<path fill="none" stroke="midnightblue" d="M646.27,-57.6C705.31,-50.75 791.22,-39.04 874.46,-19.92"/>
<polygon fill="midnightblue" stroke="midnightblue" points="875.39,-23.3 884.34,-17.61 873.8,-16.48 875.39,-23.3"/>
</g>
<!-- Node14 -->
<g id="node14" class="node">
<title>Node14</title>
<g id="a_node14"><a xlink:title=" ">
<polygon fill="white" stroke="#bfbfbf" points="941,-0.5 941,-19.5 992,-19.5 992,-0.5 941,-0.5"/>
<text text-anchor="middle" x="966.5" y="-7.5" font-family="Helvetica,sans-Serif" font-size="10.00">math.h</text>
</a>
</g>
</g>
<!-- Node1&#45;&gt;Node14 -->
<g id="edge13" class="edge">
<title>Node1&#45;&gt;Node14</title>
<path fill="none" stroke="midnightblue" d="M646.04,-58.66C716.15,-51.85 826.18,-39.53 930.86,-19.89"/>
<polygon fill="midnightblue" stroke="midnightblue" points="931.8,-23.27 940.97,-17.96 930.49,-16.39 931.8,-23.27"/>
</g>
<!-- Node15 -->
<g id="node15" class="node">
<title>Node15</title>
<g id="a_node15"><a xlink:title=" ">
<polygon fill="white" stroke="#bfbfbf" points="1010.5,-0.5 1010.5,-19.5 1074.5,-19.5 1074.5,-0.5 1010.5,-0.5"/>
<text text-anchor="middle" x="1042.5" y="-7.5" font-family="Helvetica,sans-Serif" font-size="10.00">pcu_util.h</text>
</a>
</g>
</g>
<!-- Node1&#45;&gt;Node15 -->
<g id="edge14" class="edge">
<title>Node1&#45;&gt;Node15</title>
<path fill="none" stroke="midnightblue" d="M646.22,-59.89C729.16,-53.43 869.95,-40.77 1000.18,-20.05"/>
<polygon fill="midnightblue" stroke="midnightblue" points="1001.02,-23.46 1010.34,-18.41 999.91,-16.55 1001.02,-23.46"/>
</g>
</g>
</svg>
