<?xml version="1.0" encoding="UTF-8" standalone="no"?>
<!DOCTYPE svg PUBLIC "-//W3C//DTD SVG 1.1//EN"
 "http://www.w3.org/Graphics/SVG/1.1/DTD/svg11.dtd">
<!-- Generated by graphviz version 2.42.3 (0)
 -->
<!-- Title: createAnalyticGeometry.cpp Pages: 1 -->
<svg width="1468pt" height="196pt"
 viewBox="0.00 0.00 1468.00 196.00" xmlns="http://www.w3.org/2000/svg" xmlns:xlink="http://www.w3.org/1999/xlink">
<g id="graph0" class="graph" transform="scale(1 1) rotate(0) translate(4 192)">
<title>createAnalyticGeometry.cpp</title>
<polygon fill="white" stroke="transparent" points="-4,4 -4,-192 1464,-192 1464,4 -4,4"/>
<!-- Node1 -->
<g id="node1" class="node">
<title>Node1</title>
<g id="a_node1"><a xlink:title=" ">
<polygon fill="#bfbfbf" stroke="black" points="933,-168.5 933,-187.5 1088,-187.5 1088,-168.5 933,-168.5"/>
<text text-anchor="middle" x="1010.5" y="-175.5" font-family="Helvetica,sans-Serif" font-size="10.00">createAnalyticGeometry.cpp</text>
</a>
</g>
</g>
<!-- Node2 -->
<g id="node2" class="node">
<title>Node2</title>
<g id="a_node2"><a xlink:href="create_analytic_geometry_8h.html" target="_top" xlink:title=" ">
<polygon fill="white" stroke="black" points="545,-56.5 545,-75.5 688,-75.5 688,-56.5 545,-56.5"/>
<text text-anchor="middle" x="616.5" y="-63.5" font-family="Helvetica,sans-Serif" font-size="10.00">createAnalyticGeometry.h</text>
</a>
</g>
</g>
<!-- Node1&#45;&gt;Node2 -->
<g id="edge1" class="edge">
<title>Node1&#45;&gt;Node2</title>
<path fill="none" stroke="midnightblue" d="M979.91,-168.46C909.57,-148.82 736.31,-100.45 657.15,-78.35"/>
<polygon fill="midnightblue" stroke="midnightblue" points="657.64,-74.85 647.07,-75.53 655.76,-81.59 657.64,-74.85"/>
</g>
<!-- Node17 -->
<g id="node17" class="node">
<title>Node17</title>
<g id="a_node17"><a xlink:href="_mesh_adapt_p_u_m_i_8h.html" target="_top" xlink:title=" ">
<polygon fill="white" stroke="black" points="911.5,-112.5 911.5,-131.5 1017.5,-131.5 1017.5,-112.5 911.5,-112.5"/>
<text text-anchor="middle" x="964.5" y="-119.5" font-family="Helvetica,sans-Serif" font-size="10.00">MeshAdaptPUMI.h</text>
</a>
</g>
</g>
<!-- Node1&#45;&gt;Node17 -->
<g id="edge16" class="edge">
<title>Node1&#45;&gt;Node17</title>
<path fill="none" stroke="midnightblue" d="M1002.9,-168.08C996.27,-160.3 986.48,-148.8 978.44,-139.37"/>
<polygon fill="midnightblue" stroke="midnightblue" points="981.1,-137.09 971.95,-131.75 975.77,-141.63 981.1,-137.09"/>
</g>
<!-- Node27 -->
<g id="node27" class="node">
<title>Node27</title>
<g id="a_node27"><a xlink:title=" ">
<polygon fill="white" stroke="#bfbfbf" points="1036,-112.5 1036,-131.5 1077,-131.5 1077,-112.5 1036,-112.5"/>
<text text-anchor="middle" x="1056.5" y="-119.5" font-family="Helvetica,sans-Serif" font-size="10.00">ma.h</text>
</a>
</g>
</g>
<!-- Node1&#45;&gt;Node27 -->
<g id="edge32" class="edge">
<title>Node1&#45;&gt;Node27</title>
<path fill="none" stroke="midnightblue" d="M1018.1,-168.08C1024.73,-160.3 1034.52,-148.8 1042.56,-139.37"/>
<polygon fill="midnightblue" stroke="midnightblue" points="1045.23,-141.63 1049.05,-131.75 1039.9,-137.09 1045.23,-141.63"/>
</g>
<!-- Node28 -->
<g id="node28" class="node">
<title>Node28</title>
<g id="a_node28"><a xlink:title=" ">
<polygon fill="white" stroke="#bfbfbf" points="1095.5,-112.5 1095.5,-131.5 1161.5,-131.5 1161.5,-112.5 1095.5,-112.5"/>
<text text-anchor="middle" x="1128.5" y="-119.5" font-family="Helvetica,sans-Serif" font-size="10.00">lionPrint.h</text>
</a>
</g>
</g>
<!-- Node1&#45;&gt;Node28 -->
<g id="edge33" class="edge">
<title>Node1&#45;&gt;Node28</title>
<path fill="none" stroke="midnightblue" d="M1029.2,-168.44C1048.44,-159.64 1078.65,-145.81 1100.7,-135.72"/>
<polygon fill="midnightblue" stroke="midnightblue" points="1102.25,-138.86 1109.89,-131.52 1099.34,-132.5 1102.25,-138.86"/>
</g>
<!-- Node3 -->
<g id="node3" class="node">
<title>Node3</title>
<g id="a_node3"><a xlink:title=" ">
<polygon fill="white" stroke="#bfbfbf" points="0,-0.5 0,-19.5 41,-19.5 41,-0.5 0,-0.5"/>
<text text-anchor="middle" x="20.5" y="-7.5" font-family="Helvetica,sans-Serif" font-size="10.00">apf.h</text>
</a>
</g>
</g>
<!-- Node2&#45;&gt;Node3 -->
<g id="edge2" class="edge">
<title>Node2&#45;&gt;Node3</title>
<path fill="none" stroke="midnightblue" d="M544.83,-64.15C438.72,-61.83 233.68,-53.25 51.07,-19.66"/>
<polygon fill="midnightblue" stroke="midnightblue" points="51.49,-16.18 41.02,-17.78 50.2,-23.06 51.49,-16.18"/>
</g>
<!-- Node4 -->
<g id="node4" class="node">
<title>Node4</title>
<g id="a_node4"><a xlink:title=" ">
<polygon fill="white" stroke="#bfbfbf" points="151.5,-0.5 151.5,-19.5 215.5,-19.5 215.5,-0.5 151.5,-0.5"/>
<text text-anchor="middle" x="183.5" y="-7.5" font-family="Helvetica,sans-Serif" font-size="10.00">apfMDS.h</text>
</a>
</g>
</g>
<!-- Node2&#45;&gt;Node4 -->
<g id="edge3" class="edge">
<title>Node2&#45;&gt;Node4</title>
<path fill="none" stroke="midnightblue" d="M544.66,-58.96C468.05,-52.03 342.98,-39.28 225.89,-20.08"/>
<polygon fill="midnightblue" stroke="midnightblue" points="226.11,-16.57 215.67,-18.39 224.96,-23.48 226.11,-16.57"/>
</g>
<!-- Node5 -->
<g id="node5" class="node">
<title>Node5</title>
<g id="a_node5"><a xlink:title=" ">
<polygon fill="white" stroke="#bfbfbf" points="59.5,-0.5 59.5,-19.5 133.5,-19.5 133.5,-0.5 59.5,-0.5"/>
<text text-anchor="middle" x="96.5" y="-7.5" font-family="Helvetica,sans-Serif" font-size="10.00">apfMesh2.h</text>
</a>
</g>
</g>
<!-- Node2&#45;&gt;Node5 -->
<g id="edge4" class="edge">
<title>Node2&#45;&gt;Node5</title>
<path fill="none" stroke="midnightblue" d="M544.77,-60.4C453.79,-54.07 291.91,-41.17 143.79,-20.05"/>
<polygon fill="midnightblue" stroke="midnightblue" points="144,-16.55 133.6,-18.59 143,-23.48 144,-16.55"/>
</g>
<!-- Node6 -->
<g id="node6" class="node">
<title>Node6</title>
<g id="a_node6"><a xlink:title=" ">
<polygon fill="white" stroke="#bfbfbf" points="234,-0.5 234,-19.5 305,-19.5 305,-0.5 234,-0.5"/>
<text text-anchor="middle" x="269.5" y="-7.5" font-family="Helvetica,sans-Serif" font-size="10.00">apfShape.h</text>
</a>
</g>
</g>
<!-- Node2&#45;&gt;Node6 -->
<g id="edge5" class="edge">
<title>Node2&#45;&gt;Node6</title>
<path fill="none" stroke="midnightblue" d="M553.01,-56.47C494.01,-48.33 403.45,-35.3 315.24,-20.06"/>
<polygon fill="midnightblue" stroke="midnightblue" points="315.78,-16.6 305.33,-18.33 314.58,-23.49 315.78,-16.6"/>
</g>
<!-- Node7 -->
<g id="node7" class="node">
<title>Node7</title>
<g id="a_node7"><a xlink:title=" ">
<polygon fill="white" stroke="#bfbfbf" points="323.5,-0.5 323.5,-19.5 369.5,-19.5 369.5,-0.5 323.5,-0.5"/>
<text text-anchor="middle" x="346.5" y="-7.5" font-family="Helvetica,sans-Serif" font-size="10.00">PCU.h</text>
</a>
</g>
</g>
<!-- Node2&#45;&gt;Node7 -->
<g id="edge6" class="edge">
<title>Node2&#45;&gt;Node7</title>
<path fill="none" stroke="midnightblue" d="M564.23,-56.47C517.99,-48.62 448.54,-36.08 379.28,-20.02"/>
<polygon fill="midnightblue" stroke="midnightblue" points="380.04,-16.6 369.51,-17.73 378.45,-23.42 380.04,-16.6"/>
</g>
<!-- Node8 -->
<g id="node8" class="node">
<title>Node8</title>
<g id="a_node8"><a xlink:title=" ">
<polygon fill="white" stroke="#bfbfbf" points="388,-0.5 388,-19.5 477,-19.5 477,-0.5 388,-0.5"/>
<text text-anchor="middle" x="432.5" y="-7.5" font-family="Helvetica,sans-Serif" font-size="10.00">gmi_analytic.h</text>
</a>
</g>
</g>
<!-- Node2&#45;&gt;Node8 -->
<g id="edge7" class="edge">
<title>Node2&#45;&gt;Node8</title>
<path fill="none" stroke="midnightblue" d="M587.34,-56.44C555.99,-47.24 505.97,-32.56 471.3,-22.39"/>
<polygon fill="midnightblue" stroke="midnightblue" points="472.1,-18.97 461.52,-19.52 470.13,-25.69 472.1,-18.97"/>
</g>
<!-- Node9 -->
<g id="node9" class="node">
<title>Node9</title>
<g id="a_node9"><a xlink:title=" ">
<polygon fill="white" stroke="#bfbfbf" points="495,-0.5 495,-19.5 572,-19.5 572,-0.5 495,-0.5"/>
<text text-anchor="middle" x="533.5" y="-7.5" font-family="Helvetica,sans-Serif" font-size="10.00">gmi_mesh.h</text>
</a>
</g>
</g>
<!-- Node2&#45;&gt;Node9 -->
<g id="edge8" class="edge">
<title>Node2&#45;&gt;Node9</title>
<path fill="none" stroke="midnightblue" d="M603.16,-56.32C590.34,-47.98 570.72,-35.21 555.56,-25.35"/>
<polygon fill="midnightblue" stroke="midnightblue" points="557.09,-22.17 546.8,-19.65 553.28,-28.04 557.09,-22.17"/>
</g>
<!-- Node10 -->
<g id="node10" class="node">
<title>Node10</title>
<g id="a_node10"><a xlink:title=" ">
<polygon fill="white" stroke="#bfbfbf" points="812.5,-0.5 812.5,-19.5 864.5,-19.5 864.5,-0.5 812.5,-0.5"/>
<text text-anchor="middle" x="838.5" y="-7.5" font-family="Helvetica,sans-Serif" font-size="10.00">cassert</text>
</a>
</g>
</g>
<!-- Node2&#45;&gt;Node10 -->
<g id="edge9" class="edge">
<title>Node2&#45;&gt;Node10</title>
<path fill="none" stroke="midnightblue" d="M652.74,-56.46C688.38,-48.01 744.6,-34.59 802.14,-20.31"/>
<polygon fill="midnightblue" stroke="midnightblue" points="803.28,-23.64 812.14,-17.83 801.59,-16.84 803.28,-23.64"/>
</g>
<!-- Node11 -->
<g id="node11" class="node">
<title>Node11</title>
<g id="a_node11"><a xlink:title=" ">
<polygon fill="white" stroke="#bfbfbf" points="590,-0.5 590,-19.5 643,-19.5 643,-0.5 590,-0.5"/>
<text text-anchor="middle" x="616.5" y="-7.5" font-family="Helvetica,sans-Serif" font-size="10.00">stdlib.h</text>
</a>
</g>
</g>
<!-- Node2&#45;&gt;Node11 -->
<g id="edge10" class="edge">
<title>Node2&#45;&gt;Node11</title>
<path fill="none" stroke="midnightblue" d="M616.5,-56.08C616.5,-49.01 616.5,-38.86 616.5,-29.99"/>
<polygon fill="midnightblue" stroke="midnightblue" points="620,-29.75 616.5,-19.75 613,-29.75 620,-29.75"/>
</g>
<!-- Node12 -->
<g id="node12" class="node">
<title>Node12</title>
<g id="a_node12"><a xlink:title=" ">
<polygon fill="white" stroke="#bfbfbf" points="882.5,-0.5 882.5,-19.5 942.5,-19.5 942.5,-0.5 882.5,-0.5"/>
<text text-anchor="middle" x="912.5" y="-7.5" font-family="Helvetica,sans-Serif" font-size="10.00">iostream</text>
</a>
</g>
</g>
<!-- Node2&#45;&gt;Node12 -->
<g id="edge11" class="edge">
<title>Node2&#45;&gt;Node12</title>
<path fill="none" stroke="midnightblue" d="M670.31,-56.44C720.18,-48.31 796.66,-35.35 872.14,-20.19"/>
<polygon fill="midnightblue" stroke="midnightblue" points="873.19,-23.55 882.3,-18.14 871.81,-16.69 873.19,-23.55"/>
</g>
<!-- Node13 -->
<g id="node13" class="node">
<title>Node13</title>
<g id="a_node13"><a xlink:title=" ">
<polygon fill="white" stroke="#bfbfbf" points="961,-0.5 961,-19.5 1016,-19.5 1016,-0.5 961,-0.5"/>
<text text-anchor="middle" x="988.5" y="-7.5" font-family="Helvetica,sans-Serif" font-size="10.00">fstream</text>
</a>
</g>
</g>
<!-- Node2&#45;&gt;Node13 -->
<g id="edge12" class="edge">
<title>Node2&#45;&gt;Node13</title>
<path fill="none" stroke="midnightblue" d="M688.08,-57.59C753.89,-50.28 854.31,-37.85 950.77,-19.96"/>
<polygon fill="midnightblue" stroke="midnightblue" points="951.51,-23.38 960.69,-18.1 950.21,-16.5 951.51,-23.38"/>
</g>
<!-- Node14 -->
<g id="node14" class="node">
<title>Node14</title>
<g id="a_node14"><a xlink:title=" ">
<polygon fill="white" stroke="#bfbfbf" points="1034.5,-0.5 1034.5,-19.5 1072.5,-19.5 1072.5,-0.5 1034.5,-0.5"/>
<text text-anchor="middle" x="1053.5" y="-7.5" font-family="Helvetica,sans-Serif" font-size="10.00">map</text>
</a>
</g>
</g>
<!-- Node2&#45;&gt;Node14 -->
<g id="edge13" class="edge">
<title>Node2&#45;&gt;Node14</title>
<path fill="none" stroke="midnightblue" d="M688.27,-61.24C770.28,-55.99 908.17,-44.23 1024.5,-20 1024.6,-19.98 1024.7,-19.96 1024.8,-19.94"/>
<polygon fill="midnightblue" stroke="midnightblue" points="1025.46,-23.38 1034.29,-17.52 1023.74,-16.6 1025.46,-23.38"/>
</g>
<!-- Node15 -->
<g id="node15" class="node">
<title>Node15</title>
<g id="a_node15"><a xlink:title=" ">
<polygon fill="white" stroke="#bfbfbf" points="661,-0.5 661,-19.5 712,-19.5 712,-0.5 661,-0.5"/>
<text text-anchor="middle" x="686.5" y="-7.5" font-family="Helvetica,sans-Serif" font-size="10.00">math.h</text>
</a>
</g>
</g>
<!-- Node2&#45;&gt;Node15 -->
<g id="edge14" class="edge">
<title>Node2&#45;&gt;Node15</title>
<path fill="none" stroke="midnightblue" d="M627.75,-56.32C638.3,-48.18 654.3,-35.84 666.94,-26.09"/>
<polygon fill="midnightblue" stroke="midnightblue" points="669.27,-28.71 675.05,-19.83 664.99,-23.17 669.27,-28.71"/>
</g>
<!-- Node16 -->
<g id="node16" class="node">
<title>Node16</title>
<g id="a_node16"><a xlink:title=" ">
<polygon fill="white" stroke="#bfbfbf" points="730.5,-0.5 730.5,-19.5 794.5,-19.5 794.5,-0.5 730.5,-0.5"/>
<text text-anchor="middle" x="762.5" y="-7.5" font-family="Helvetica,sans-Serif" font-size="10.00">pcu_util.h</text>
</a>
</g>
</g>
<!-- Node2&#45;&gt;Node16 -->
<g id="edge15" class="edge">
<title>Node2&#45;&gt;Node16</title>
<path fill="none" stroke="midnightblue" d="M639.63,-56.44C663.98,-47.44 702.51,-33.19 729.92,-23.05"/>
<polygon fill="midnightblue" stroke="midnightblue" points="731.31,-26.27 739.47,-19.52 728.88,-19.7 731.31,-26.27"/>
</g>
<!-- Node17&#45;&gt;Node3 -->
<g id="edge28" class="edge">
<title>Node17&#45;&gt;Node3</title>
<path fill="none" stroke="midnightblue" d="M911.44,-118.65C807.9,-113.68 571.76,-100.51 374.5,-76 232.74,-58.38 194.45,-53.71 51.12,-19.9"/>
<polygon fill="midnightblue" stroke="midnightblue" points="51.61,-16.42 41.07,-17.53 49.99,-23.23 51.61,-16.42"/>
</g>
<!-- Node17&#45;&gt;Node5 -->
<g id="edge29" class="edge">
<title>Node17&#45;&gt;Node5</title>
<path fill="none" stroke="midnightblue" d="M911.26,-116.05C830.09,-108.37 670.58,-92.7 535.5,-76 363.65,-54.75 318.14,-49.58 143.66,-20.13"/>
<polygon fill="midnightblue" stroke="midnightblue" points="144.07,-16.65 133.63,-18.43 142.9,-23.55 144.07,-16.65"/>
</g>
<!-- Node18 -->
<g id="node18" class="node">
<title>Node18</title>
<g id="a_node18"><a xlink:href="mesh_8h.html" target="_top" xlink:title=" ">
<polygon fill="white" stroke="black" points="1027,-56.5 1027,-75.5 1080,-75.5 1080,-56.5 1027,-56.5"/>
<text text-anchor="middle" x="1053.5" y="-63.5" font-family="Helvetica,sans-Serif" font-size="10.00">mesh.h</text>
</a>
</g>
</g>
<!-- Node17&#45;&gt;Node18 -->
<g id="edge17" class="edge">
<title>Node17&#45;&gt;Node18</title>
<path fill="none" stroke="midnightblue" d="M978.8,-112.32C992.68,-103.9 1013.99,-90.97 1030.3,-81.07"/>
<polygon fill="midnightblue" stroke="midnightblue" points="1032.5,-83.83 1039.24,-75.65 1028.87,-77.85 1032.5,-83.83"/>
</g>
<!-- Node25 -->
<g id="node25" class="node">
<title>Node25</title>
<g id="a_node25"><a xlink:title=" ">
<polygon fill="white" stroke="#bfbfbf" points="1098,-56.5 1098,-75.5 1193,-75.5 1193,-56.5 1098,-56.5"/>
<text text-anchor="middle" x="1145.5" y="-63.5" font-family="Helvetica,sans-Serif" font-size="10.00">apfNumbering.h</text>
</a>
</g>
</g>
<!-- Node17&#45;&gt;Node25 -->
<g id="edge30" class="edge">
<title>Node17&#45;&gt;Node25</title>
<path fill="none" stroke="midnightblue" d="M993.18,-112.44C1024.03,-103.24 1073.23,-88.56 1107.33,-78.39"/>
<polygon fill="midnightblue" stroke="midnightblue" points="1108.37,-81.73 1116.95,-75.52 1106.37,-75.02 1108.37,-81.73"/>
</g>
<!-- Node26 -->
<g id="node26" class="node">
<title>Node26</title>
<g id="a_node26"><a xlink:title=" ">
<polygon fill="white" stroke="#bfbfbf" points="1211,-56.5 1211,-75.5 1258,-75.5 1258,-56.5 1211,-56.5"/>
<text text-anchor="middle" x="1234.5" y="-63.5" font-family="Helvetica,sans-Serif" font-size="10.00">queue</text>
</a>
</g>
</g>
<!-- Node17&#45;&gt;Node26 -->
<g id="edge31" class="edge">
<title>Node17&#45;&gt;Node26</title>
<path fill="none" stroke="midnightblue" d="M1016.77,-112.47C1062.91,-104.63 1132.18,-92.13 1200.69,-76.28"/>
<polygon fill="midnightblue" stroke="midnightblue" points="1201.85,-79.6 1210.79,-73.92 1200.26,-72.79 1201.85,-79.6"/>
</g>
<!-- Node18&#45;&gt;Node10 -->
<g id="edge26" class="edge">
<title>Node18&#45;&gt;Node10</title>
<path fill="none" stroke="midnightblue" d="M1026.95,-58.42C993.68,-50.16 934.64,-35.47 874.86,-20.33"/>
<polygon fill="midnightblue" stroke="midnightblue" points="875.42,-16.87 864.87,-17.8 873.7,-23.65 875.42,-16.87"/>
</g>
<!-- Node18&#45;&gt;Node12 -->
<g id="edge23" class="edge">
<title>Node18&#45;&gt;Node12</title>
<path fill="none" stroke="midnightblue" d="M1031.16,-56.44C1007.75,-47.48 970.76,-33.31 944.31,-23.18"/>
<polygon fill="midnightblue" stroke="midnightblue" points="945.33,-19.82 934.74,-19.52 942.82,-26.36 945.33,-19.82"/>
</g>
<!-- Node18&#45;&gt;Node13 -->
<g id="edge25" class="edge">
<title>Node18&#45;&gt;Node13</title>
<path fill="none" stroke="midnightblue" d="M1043.06,-56.32C1033.35,-48.26 1018.68,-36.08 1007,-26.37"/>
<polygon fill="midnightblue" stroke="midnightblue" points="1009.06,-23.53 999.13,-19.83 1004.59,-28.92 1009.06,-23.53"/>
</g>
<!-- Node18&#45;&gt;Node14 -->
<g id="edge21" class="edge">
<title>Node18&#45;&gt;Node14</title>
<path fill="none" stroke="midnightblue" d="M1053.5,-56.08C1053.5,-49.01 1053.5,-38.86 1053.5,-29.99"/>
<polygon fill="midnightblue" stroke="midnightblue" points="1057,-29.75 1053.5,-19.75 1050,-29.75 1057,-29.75"/>
</g>
<!-- Node19 -->
<g id="node19" class="node">
<title>Node19</title>
<g id="a_node19"><a xlink:title=" ">
<polygon fill="white" stroke="#bfbfbf" points="1090.5,-0.5 1090.5,-19.5 1122.5,-19.5 1122.5,-0.5 1090.5,-0.5"/>
<text text-anchor="middle" x="1106.5" y="-7.5" font-family="Helvetica,sans-Serif" font-size="10.00">set</text>
</a>
</g>
</g>
<!-- Node18&#45;&gt;Node19 -->
<g id="edge18" class="edge">
<title>Node18&#45;&gt;Node19</title>
<path fill="none" stroke="midnightblue" d="M1062.25,-56.08C1069.97,-48.22 1081.4,-36.57 1090.72,-27.08"/>
<polygon fill="midnightblue" stroke="midnightblue" points="1093.4,-29.34 1097.91,-19.75 1088.41,-24.44 1093.4,-29.34"/>
</g>
<!-- Node20 -->
<g id="node20" class="node">
<title>Node20</title>
<g id="a_node20"><a xlink:title=" ">
<polygon fill="white" stroke="#bfbfbf" points="1141,-0.5 1141,-19.5 1188,-19.5 1188,-0.5 1141,-0.5"/>
<text text-anchor="middle" x="1164.5" y="-7.5" font-family="Helvetica,sans-Serif" font-size="10.00">vector</text>
</a>
</g>
</g>
<!-- Node18&#45;&gt;Node20 -->
<g id="edge19" class="edge">
<title>Node18&#45;&gt;Node20</title>
<path fill="none" stroke="midnightblue" d="M1071.33,-56.32C1089.22,-47.62 1116.98,-34.12 1137.55,-24.11"/>
<polygon fill="midnightblue" stroke="midnightblue" points="1139.25,-27.18 1146.71,-19.65 1136.19,-20.88 1139.25,-27.18"/>
</g>
<!-- Node21 -->
<g id="node21" class="node">
<title>Node21</title>
<g id="a_node21"><a xlink:title=" ">
<polygon fill="white" stroke="#bfbfbf" points="1206.5,-0.5 1206.5,-19.5 1270.5,-19.5 1270.5,-0.5 1206.5,-0.5"/>
<text text-anchor="middle" x="1238.5" y="-7.5" font-family="Helvetica,sans-Serif" font-size="10.00">algorithm</text>
</a>
</g>
</g>
<!-- Node18&#45;&gt;Node21 -->
<g id="edge20" class="edge">
<title>Node18&#45;&gt;Node21</title>
<path fill="none" stroke="midnightblue" d="M1080.01,-57.26C1111.33,-48.12 1163.72,-32.83 1199.64,-22.34"/>
<polygon fill="midnightblue" stroke="midnightblue" points="1200.68,-25.69 1209.3,-19.52 1198.72,-18.97 1200.68,-25.69"/>
</g>
<!-- Node22 -->
<g id="node22" class="node">
<title>Node22</title>
<g id="a_node22"><a xlink:title=" ">
<polygon fill="white" stroke="#bfbfbf" points="1288.5,-0.5 1288.5,-19.5 1320.5,-19.5 1320.5,-0.5 1288.5,-0.5"/>
<text text-anchor="middle" x="1304.5" y="-7.5" font-family="Helvetica,sans-Serif" font-size="10.00">list</text>
</a>
</g>
</g>
<!-- Node18&#45;&gt;Node22 -->
<g id="edge22" class="edge">
<title>Node18&#45;&gt;Node22</title>
<path fill="none" stroke="midnightblue" d="M1080.2,-58.14C1083.33,-57.39 1086.48,-56.66 1089.5,-56 1170.41,-38.24 1194.83,-42.29 1278.78,-19.83"/>
<polygon fill="midnightblue" stroke="midnightblue" points="1279.75,-23.19 1288.48,-17.19 1277.91,-16.44 1279.75,-23.19"/>
</g>
<!-- Node23 -->
<g id="node23" class="node">
<title>Node23</title>
<g id="a_node23"><a xlink:title=" ">
<polygon fill="white" stroke="#bfbfbf" points="1338.5,-0.5 1338.5,-19.5 1394.5,-19.5 1394.5,-0.5 1338.5,-0.5"/>
<text text-anchor="middle" x="1366.5" y="-7.5" font-family="Helvetica,sans-Serif" font-size="10.00">iomanip</text>
</a>
</g>
</g>
<!-- Node18&#45;&gt;Node23 -->
<g id="edge24" class="edge">
<title>Node18&#45;&gt;Node23</title>
<path fill="none" stroke="midnightblue" d="M1080.17,-58.03C1083.31,-57.3 1086.47,-56.61 1089.5,-56 1192.18,-35.51 1221.93,-40.45 1328.42,-20.06"/>
<polygon fill="midnightblue" stroke="midnightblue" points="1329.13,-23.49 1338.28,-18.14 1327.79,-16.61 1329.13,-23.49"/>
</g>
<!-- Node24 -->
<g id="node24" class="node">
<title>Node24</title>
<g id="a_node24"><a xlink:title=" ">
<polygon fill="white" stroke="#bfbfbf" points="1413,-0.5 1413,-19.5 1460,-19.5 1460,-0.5 1413,-0.5"/>
<text text-anchor="middle" x="1436.5" y="-7.5" font-family="Helvetica,sans-Serif" font-size="10.00">cmath</text>
</a>
</g>
</g>
<!-- Node18&#45;&gt;Node24 -->
<g id="edge27" class="edge">
<title>Node18&#45;&gt;Node24</title>
<path fill="none" stroke="midnightblue" d="M1080.15,-57.92C1083.29,-57.21 1086.46,-56.55 1089.5,-56 1224.47,-31.5 1263.73,-45.85 1402.63,-19.87"/>
<polygon fill="midnightblue" stroke="midnightblue" points="1403.64,-23.24 1412.81,-17.92 1402.33,-16.36 1403.64,-23.24"/>
</g>
</g>
</svg>
