<?xml version="1.0" encoding="UTF-8" standalone="no"?>
<!DOCTYPE svg PUBLIC "-//W3C//DTD SVG 1.1//EN"
 "http://www.w3.org/Graphics/SVG/1.1/DTD/svg11.dtd">
<!-- Generated by graphviz version 2.40.1 (20161225.0304)
 -->
<!-- Title: csmoothersModule.c Pages: 1 -->
<svg width="673pt" height="140pt"
 viewBox="0.00 0.00 673.00 140.00" xmlns="http://www.w3.org/2000/svg" xmlns:xlink="http://www.w3.org/1999/xlink">
<g id="graph0" class="graph" transform="scale(1 1) rotate(0) translate(4 136)">
<title>csmoothersModule.c</title>
<polygon fill="#ffffff" stroke="transparent" points="-4,4 -4,-136 669,-136 669,4 -4,4"/>
<!-- Node0 -->
<g id="node1" class="node">
<title>Node0</title>
<polygon fill="#bfbfbf" stroke="#000000" points="236,-112.5 236,-131.5 343,-131.5 343,-112.5 236,-112.5"/>
<text text-anchor="middle" x="289.5" y="-119.5" font-family="Helvetica,sans-Serif" font-size="10.00" fill="#000000">csmoothersModule.c</text>
</g>
<!-- Node1 -->
<g id="node2" class="node">
<title>Node1</title>
<polygon fill="#ffffff" stroke="#bfbfbf" points="335.5,-.5 335.5,-19.5 391.5,-19.5 391.5,-.5 335.5,-.5"/>
<text text-anchor="middle" x="363.5" y="-7.5" font-family="Helvetica,sans-Serif" font-size="10.00" fill="#000000">Python.h</text>
</g>
<!-- Node0&#45;&gt;Node1 -->
<g id="edge1" class="edge">
<title>Node0&#45;&gt;Node1</title>
<path fill="none" stroke="#191970" d="M235.9151,-118.9343C173.9485,-113.3934 84.6425,-98.043 119.5,-56 145.1837,-25.0218 263.1816,-14.762 325.185,-11.4774"/>
<polygon fill="#191970" stroke="#191970" points="325.54,-14.9642 335.355,-10.9747 325.1944,-7.9728 325.54,-14.9642"/>
</g>
<!-- Node2 -->
<g id="node3" class="node">
<title>Node2</title>
<g id="a_node3"><a xlink:href="smoothers_8h.html" target="_top" xlink:title="C implementations of multilevel smoother algorithms. ">
<polygon fill="#ffffff" stroke="#000000" points="0,-56.5 0,-75.5 71,-75.5 71,-56.5 0,-56.5"/>
<text text-anchor="middle" x="35.5" y="-63.5" font-family="Helvetica,sans-Serif" font-size="10.00" fill="#000000">smoothers.h</text>
</a>
</g>
</g>
<!-- Node0&#45;&gt;Node2 -->
<g id="edge2" class="edge">
<title>Node0&#45;&gt;Node2</title>
<path fill="none" stroke="#191970" d="M246.1244,-112.4369C200.1869,-102.3089 127.9721,-86.3876 81.1787,-76.0709"/>
<polygon fill="#191970" stroke="#191970" points="81.8283,-72.6301 71.3092,-73.8949 80.3211,-79.466 81.8283,-72.6301"/>
</g>
<!-- Node4 -->
<g id="node5" class="node">
<title>Node4</title>
<polygon fill="#ffffff" stroke="#bfbfbf" points="128,-56.5 128,-75.5 233,-75.5 233,-56.5 128,-56.5"/>
<text text-anchor="middle" x="180.5" y="-63.5" font-family="Helvetica,sans-Serif" font-size="10.00" fill="#000000">numpy/arrayobject.h</text>
</g>
<!-- Node0&#45;&gt;Node4 -->
<g id="edge4" class="edge">
<title>Node0&#45;&gt;Node4</title>
<path fill="none" stroke="#191970" d="M270.5136,-112.2455C253.3208,-103.4125 227.7762,-90.2887 208.2868,-80.2758"/>
<polygon fill="#191970" stroke="#191970" points="209.763,-77.0993 199.2688,-75.6427 206.5641,-83.3257 209.763,-77.0993"/>
</g>
<!-- Node5 -->
<g id="node6" class="node">
<title>Node5</title>
<polygon fill="#ffffff" stroke="#bfbfbf" points="251.5,-56.5 251.5,-75.5 327.5,-75.5 327.5,-56.5 251.5,-56.5"/>
<text text-anchor="middle" x="289.5" y="-63.5" font-family="Helvetica,sans-Serif" font-size="10.00" fill="#000000">supermatrix.h</text>
</g>
<!-- Node0&#45;&gt;Node5 -->
<g id="edge5" class="edge">
<title>Node0&#45;&gt;Node5</title>
<path fill="none" stroke="#191970" d="M289.5,-112.2455C289.5,-104.9382 289.5,-94.6944 289.5,-85.7046"/>
<polygon fill="#191970" stroke="#191970" points="293.0001,-85.6426 289.5,-75.6427 286.0001,-85.6427 293.0001,-85.6426"/>
</g>
<!-- Node6 -->
<g id="node7" class="node">
<title>Node6</title>
<polygon fill="#ffffff" stroke="#bfbfbf" points="345.5,-56.5 345.5,-75.5 391.5,-75.5 391.5,-56.5 345.5,-56.5"/>
<text text-anchor="middle" x="368.5" y="-63.5" font-family="Helvetica,sans-Serif" font-size="10.00" fill="#000000">stdio.h</text>
</g>
<!-- Node0&#45;&gt;Node6 -->
<g id="edge6" class="edge">
<title>Node0&#45;&gt;Node6</title>
<path fill="none" stroke="#191970" d="M303.2607,-112.2455C315.1552,-103.814 332.565,-91.4729 346.4085,-81.6598"/>
<polygon fill="#191970" stroke="#191970" points="348.7628,-84.2811 354.8969,-75.6427 344.7146,-78.5704 348.7628,-84.2811"/>
</g>
<!-- Node7 -->
<g id="node8" class="node">
<title>Node7</title>
<g id="a_node8"><a xlink:href="superlu_wrappers_module_8h.html" target="_top" xlink:title="Python interface to superlu. ">
<polygon fill="#ffffff" stroke="#000000" points="409.5,-56.5 409.5,-75.5 539.5,-75.5 539.5,-56.5 409.5,-56.5"/>
<text text-anchor="middle" x="474.5" y="-63.5" font-family="Helvetica,sans-Serif" font-size="10.00" fill="#000000">superluWrappersModule.h</text>
</a>
</g>
</g>
<!-- Node0&#45;&gt;Node7 -->
<g id="edge7" class="edge">
<title>Node0&#45;&gt;Node7</title>
<path fill="none" stroke="#191970" d="M321.3026,-112.3733C352.3317,-102.9807 399.6754,-88.6496 433.5147,-78.4064"/>
<polygon fill="#191970" stroke="#191970" points="434.5553,-81.7483 443.1124,-75.5011 432.5272,-75.0485 434.5553,-81.7483"/>
</g>
<!-- Node8 -->
<g id="node9" class="node">
<title>Node8</title>
<g id="a_node9"><a xlink:href="csmoothers_module_8h.html" target="_top" xlink:title="The python interface to smoothers. ">
<polygon fill="#ffffff" stroke="#000000" points="558,-56.5 558,-75.5 665,-75.5 665,-56.5 558,-56.5"/>
<text text-anchor="middle" x="611.5" y="-63.5" font-family="Helvetica,sans-Serif" font-size="10.00" fill="#000000">csmoothersModule.h</text>
</a>
</g>
</g>
<!-- Node0&#45;&gt;Node8 -->
<g id="edge8" class="edge">
<title>Node0&#45;&gt;Node8</title>
<path fill="none" stroke="#191970" d="M343.0332,-112.6899C399.3276,-102.8995 487.8821,-87.4988 547.7486,-77.0872"/>
<polygon fill="#191970" stroke="#191970" points="548.5864,-80.4941 557.8388,-75.3324 547.387,-73.5976 548.5864,-80.4941"/>
</g>
<!-- Node3 -->
<g id="node4" class="node">
<title>Node3</title>
<polygon fill="#ffffff" stroke="#bfbfbf" points="2,-.5 2,-19.5 69,-19.5 69,-.5 2,-.5"/>
<text text-anchor="middle" x="35.5" y="-7.5" font-family="Helvetica,sans-Serif" font-size="10.00" fill="#000000">slu_ddefs.h</text>
</g>
<!-- Node2&#45;&gt;Node3 -->
<g id="edge3" class="edge">
<title>Node2&#45;&gt;Node3</title>
<path fill="none" stroke="#191970" d="M35.5,-56.2455C35.5,-48.9382 35.5,-38.6944 35.5,-29.7046"/>
<polygon fill="#191970" stroke="#191970" points="39.0001,-29.6426 35.5,-19.6427 32.0001,-29.6427 39.0001,-29.6426"/>
</g>
<!-- Node8&#45;&gt;Node1 -->
<g id="edge9" class="edge">
<title>Node8&#45;&gt;Node1</title>
<path fill="none" stroke="#191970" d="M569.1491,-56.4369C522.1745,-45.8297 447.0582,-28.868 401.7866,-18.6454"/>
<polygon fill="#191970" stroke="#191970" points="402.3033,-15.174 391.778,-16.3853 400.7614,-22.0021 402.3033,-15.174"/>
</g>
</g>
</svg>
