<?xml version="1.0" encoding="UTF-8" standalone="no"?>
<!DOCTYPE svg PUBLIC "-//W3C//DTD SVG 1.1//EN"
 "http://www.w3.org/Graphics/SVG/1.1/DTD/svg11.dtd">
<!-- Generated by graphviz version 2.40.1 (20161225.0304)
 -->
<!-- Title: csubgridErrorModule.c Pages: 1 -->
<svg width="283pt" height="84pt"
 viewBox="0.00 0.00 282.50 84.00" xmlns="http://www.w3.org/2000/svg" xmlns:xlink="http://www.w3.org/1999/xlink">
<g id="graph0" class="graph" transform="scale(1 1) rotate(0) translate(4 80)">
<title>csubgridErrorModule.c</title>
<polygon fill="#ffffff" stroke="transparent" points="-4,4 -4,-80 278.5,-80 278.5,4 -4,4"/>
<!-- Node0 -->
<g id="node1" class="node">
<title>Node0</title>
<polygon fill="#bfbfbf" stroke="#000000" points="70,-56.5 70,-75.5 184,-75.5 184,-56.5 70,-56.5"/>
<text text-anchor="middle" x="127" y="-63.5" font-family="Helvetica,sans-Serif" font-size="10.00" fill="#000000">csubgridErrorModule.c</text>
</g>
<!-- Node1 -->
<g id="node2" class="node">
<title>Node1</title>
<polygon fill="#ffffff" stroke="#bfbfbf" points="0,-.5 0,-19.5 56,-19.5 56,-.5 0,-.5"/>
<text text-anchor="middle" x="28" y="-7.5" font-family="Helvetica,sans-Serif" font-size="10.00" fill="#000000">Python.h</text>
</g>
<!-- Node0&#45;&gt;Node1 -->
<g id="edge1" class="edge">
<title>Node0&#45;&gt;Node1</title>
<path fill="none" stroke="#191970" d="M109.7555,-56.2455C94.4239,-47.5731 71.7801,-34.7645 54.2084,-24.825"/>
<polygon fill="#191970" stroke="#191970" points="55.4741,-21.5198 45.0469,-19.6427 52.0276,-27.6126 55.4741,-21.5198"/>
</g>
<!-- Node2 -->
<g id="node3" class="node">
<title>Node2</title>
<polygon fill="#ffffff" stroke="#bfbfbf" points="74.5,-.5 74.5,-19.5 179.5,-19.5 179.5,-.5 74.5,-.5"/>
<text text-anchor="middle" x="127" y="-7.5" font-family="Helvetica,sans-Serif" font-size="10.00" fill="#000000">numpy/arrayobject.h</text>
</g>
<!-- Node0&#45;&gt;Node2 -->
<g id="edge2" class="edge">
<title>Node0&#45;&gt;Node2</title>
<path fill="none" stroke="#191970" d="M127,-56.2455C127,-48.9382 127,-38.6944 127,-29.7046"/>
<polygon fill="#191970" stroke="#191970" points="130.5001,-29.6426 127,-19.6427 123.5001,-29.6427 130.5001,-29.6426"/>
</g>
<!-- Node3 -->
<g id="node4" class="node">
<title>Node3</title>
<g id="a_node4"><a xlink:href="subgrid_error_8h.html" target="_top" xlink:title="C implementations of subgrid error calculations. ">
<polygon fill="#ffffff" stroke="#000000" points="197.5,-.5 197.5,-19.5 274.5,-19.5 274.5,-.5 197.5,-.5"/>
<text text-anchor="middle" x="236" y="-7.5" font-family="Helvetica,sans-Serif" font-size="10.00" fill="#000000">subgridError.h</text>
</a>
</g>
</g>
<!-- Node0&#45;&gt;Node3 -->
<g id="edge3" class="edge">
<title>Node0&#45;&gt;Node3</title>
<path fill="none" stroke="#191970" d="M145.9864,-56.2455C163.1792,-47.4125 188.7238,-34.2887 208.2132,-24.2758"/>
<polygon fill="#191970" stroke="#191970" points="209.9359,-27.3257 217.2312,-19.6427 206.737,-21.0993 209.9359,-27.3257"/>
</g>
</g>
</svg>
