<?xml version="1.0" encoding="UTF-8" standalone="no"?>
<!DOCTYPE svg PUBLIC "-//W3C//DTD SVG 1.1//EN"
 "http://www.w3.org/Graphics/SVG/1.1/DTD/svg11.dtd">
<!-- Generated by graphviz version 2.42.3 (0)
 -->
<!-- Title: densityRelations.h Pages: 1 -->
<svg width="379pt" height="140pt"
 viewBox="0.00 0.00 378.50 140.00" xmlns="http://www.w3.org/2000/svg" xmlns:xlink="http://www.w3.org/1999/xlink">
<g id="graph0" class="graph" transform="scale(1 1) rotate(0) translate(4 136)">
<title>densityRelations.h</title>
<polygon fill="white" stroke="transparent" points="-4,4 -4,-136 374.5,-136 374.5,4 -4,4"/>
<!-- Node1 -->
<g id="node1" class="node">
<title>Node1</title>
<g id="a_node1"><a xlink:title=" ">
<polygon fill="#bfbfbf" stroke="black" points="152.5,-112.5 152.5,-131.5 259.5,-131.5 259.5,-112.5 152.5,-112.5"/>
<text text-anchor="middle" x="206" y="-119.5" font-family="Helvetica,sans-Serif" font-size="10.00">densityRelations.h</text>
</a>
</g>
</g>
<!-- Node2 -->
<g id="node2" class="node">
<title>Node2</title>
<g id="a_node2"><a xlink:href="psk_relations_8h.html" target="_top" xlink:title=" ">
<polygon fill="white" stroke="black" points="161.5,-56.5 161.5,-75.5 250.5,-75.5 250.5,-56.5 161.5,-56.5"/>
<text text-anchor="middle" x="206" y="-63.5" font-family="Helvetica,sans-Serif" font-size="10.00">pskRelations.h</text>
</a>
</g>
</g>
<!-- Node1&#45;&gt;Node2 -->
<g id="edge1" class="edge">
<title>Node1&#45;&gt;Node2</title>
<path fill="none" stroke="midnightblue" d="M206,-101.8C206,-92.91 206,-82.78 206,-75.75"/>
<polygon fill="midnightblue" stroke="midnightblue" points="202.5,-102.08 206,-112.08 209.5,-102.08 202.5,-102.08"/>
</g>
<!-- Node3 -->
<g id="node3" class="node">
<title>Node3</title>
<g id="a_node3"><a xlink:href="_subsurface_transport_coefficients_8cpp.html" target="_top" xlink:title=" ">
<polygon fill="white" stroke="black" points="0,-0.5 0,-19.5 194,-19.5 194,-0.5 0,-0.5"/>
<text text-anchor="middle" x="97" y="-7.5" font-family="Helvetica,sans-Serif" font-size="10.00">SubsurfaceTransportCoefficients.cpp</text>
</a>
</g>
</g>
<!-- Node1&#45;&gt;Node3 -->
<g id="edge4" class="edge">
<title>Node1&#45;&gt;Node3</title>
<path fill="none" stroke="midnightblue" d="M186.59,-105.74C176.27,-97.33 163.57,-86.5 153,-76 133.97,-57.11 114.02,-32.65 103.85,-19.79"/>
<polygon fill="midnightblue" stroke="midnightblue" points="184.61,-108.64 194.6,-112.17 188.99,-103.18 184.61,-108.64"/>
</g>
<!-- Node4 -->
<g id="node4" class="node">
<title>Node4</title>
<g id="a_node4"><a xlink:href="twophase_darcy_coefficients_8h.html" target="_top" xlink:title=" ">
<polygon fill="white" stroke="black" points="211.5,-0.5 211.5,-19.5 370.5,-19.5 370.5,-0.5 211.5,-0.5"/>
<text text-anchor="middle" x="291" y="-7.5" font-family="Helvetica,sans-Serif" font-size="10.00">twophaseDarcyCoefficients.h</text>
</a>
</g>
</g>
<!-- Node1&#45;&gt;Node4 -->
<g id="edge5" class="edge">
<title>Node1&#45;&gt;Node4</title>
<path fill="none" stroke="midnightblue" d="M227.52,-106.49C238.27,-98.44 250.9,-87.71 260,-76 273.96,-58.03 283.74,-32.76 288.23,-19.65"/>
<polygon fill="midnightblue" stroke="midnightblue" points="225.47,-103.65 219.4,-112.33 229.56,-109.33 225.47,-103.65"/>
</g>
<!-- Node2&#45;&gt;Node3 -->
<g id="edge2" class="edge">
<title>Node2&#45;&gt;Node3</title>
<path fill="none" stroke="midnightblue" d="M179.48,-51.86C159.27,-41.85 132.01,-28.35 114.47,-19.65"/>
<polygon fill="midnightblue" stroke="midnightblue" points="177.97,-55.02 188.49,-56.32 181.08,-48.75 177.97,-55.02"/>
</g>
<!-- Node2&#45;&gt;Node4 -->
<g id="edge3" class="edge">
<title>Node2&#45;&gt;Node4</title>
<path fill="none" stroke="midnightblue" d="M228.19,-50.9C243.78,-41 264.13,-28.07 277.38,-19.65"/>
<polygon fill="midnightblue" stroke="midnightblue" points="226.22,-48.01 219.66,-56.32 229.97,-53.92 226.22,-48.01"/>
</g>
</g>
</svg>
