<?xml version="1.0" encoding="UTF-8" standalone="no"?>
<!DOCTYPE svg PUBLIC "-//W3C//DTD SVG 1.1//EN"
 "http://www.w3.org/Graphics/SVG/1.1/DTD/svg11.dtd">
<!-- Generated by graphviz version 2.40.1 (20161225.0304)
 -->
<!-- Title: densityRelations.h Pages: 1 -->
<svg width="499pt" height="218pt"
 viewBox="0.00 0.00 498.50 218.00" xmlns="http://www.w3.org/2000/svg" xmlns:xlink="http://www.w3.org/1999/xlink">
<g id="graph0" class="graph" transform="scale(1 1) rotate(0) translate(4 214)">
<title>densityRelations.h</title>
<polygon fill="#ffffff" stroke="transparent" points="-4,4 -4,-214 494.5,-214 494.5,4 -4,4"/>
<!-- Node1 -->
<g id="node1" class="node">
<title>Node1</title>
<polygon fill="#bfbfbf" stroke="#000000" points="180,-190.5 180,-209.5 278,-209.5 278,-190.5 180,-190.5"/>
<text text-anchor="middle" x="229" y="-197.5" font-family="Helvetica,sans-Serif" font-size="10.00" fill="#000000">densityRelations.h</text>
</g>
<!-- Node2 -->
<g id="node2" class="node">
<title>Node2</title>
<g id="a_node2"><a xlink:href="psk_relations_8h.html" target="_top" xlink:title="pskRelations.h">
<polygon fill="#ffffff" stroke="#000000" points="188,-134.5 188,-153.5 270,-153.5 270,-134.5 188,-134.5"/>
<text text-anchor="middle" x="229" y="-141.5" font-family="Helvetica,sans-Serif" font-size="10.00" fill="#000000">pskRelations.h</text>
</a>
</g>
</g>
<!-- Node1&#45;&gt;Node2 -->
<g id="edge1" class="edge">
<title>Node1&#45;&gt;Node2</title>
<path fill="none" stroke="#191970" d="M229,-180.1575C229,-171.155 229,-160.9199 229,-153.6427"/>
<polygon fill="#191970" stroke="#191970" points="225.5001,-180.2455 229,-190.2455 232.5001,-180.2456 225.5001,-180.2455"/>
</g>
<!-- Node4 -->
<g id="node4" class="node">
<title>Node4</title>
<g id="a_node4"><a xlink:href="c_twophase_darcy_coefficients_module_8h.html" target="_top" xlink:title="cTwophaseDarcyCoefficients\lModule.h">
<polygon fill="#ffffff" stroke="#000000" points="0,-67.5 0,-97.5 146,-97.5 146,-67.5 0,-67.5"/>
<text text-anchor="start" x="8" y="-85.5" font-family="Helvetica,sans-Serif" font-size="10.00" fill="#000000">cTwophaseDarcyCoefficients</text>
<text text-anchor="middle" x="73" y="-74.5" font-family="Helvetica,sans-Serif" font-size="10.00" fill="#000000">Module.h</text>
</a>
</g>
</g>
<!-- Node1&#45;&gt;Node4 -->
<g id="edge6" class="edge">
<title>Node1&#45;&gt;Node4</title>
<path fill="none" stroke="#191970" d="M208.0839,-184.2459C177.9114,-161.5198 122.5536,-119.824 92.937,-97.5167"/>
<polygon fill="#191970" stroke="#191970" points="206.1404,-187.1638 216.2339,-190.3845 210.3519,-181.5724 206.1404,-187.1638"/>
</g>
<!-- Node6 -->
<g id="node6" class="node">
<title>Node6</title>
<g id="a_node6"><a xlink:href="_subsurface_transport_coefficients_8cpp.html" target="_top" xlink:title="SubsurfaceTransportCoefficients.cpp">
<polygon fill="#ffffff" stroke="#000000" points="311.5,-73 311.5,-92 490.5,-92 490.5,-73 311.5,-73"/>
<text text-anchor="middle" x="401" y="-80" font-family="Helvetica,sans-Serif" font-size="10.00" fill="#000000">SubsurfaceTransportCoefficients.cpp</text>
</a>
</g>
</g>
<!-- Node1&#45;&gt;Node6 -->
<g id="edge7" class="edge">
<title>Node1&#45;&gt;Node6</title>
<path fill="none" stroke="#191970" d="M251.4456,-184.6665C287.3824,-160.1167 356.8244,-112.6781 386.73,-92.2484"/>
<polygon fill="#191970" stroke="#191970" points="249.3584,-181.8536 243.0755,-190.3845 253.307,-187.6336 249.3584,-181.8536"/>
</g>
<!-- Node3 -->
<g id="node3" class="node">
<title>Node3</title>
<g id="a_node3"><a xlink:href="cpsk_relations_module_8cpp.html" target="_top" xlink:title="cpskRelationsModule.cpp">
<polygon fill="#ffffff" stroke="#000000" points="164.5,-73 164.5,-92 293.5,-92 293.5,-73 164.5,-73"/>
<text text-anchor="middle" x="229" y="-80" font-family="Helvetica,sans-Serif" font-size="10.00" fill="#000000">cpskRelationsModule.cpp</text>
</a>
</g>
</g>
<!-- Node2&#45;&gt;Node3 -->
<g id="edge2" class="edge">
<title>Node2&#45;&gt;Node3</title>
<path fill="none" stroke="#191970" d="M229,-124.2462C229,-113.5519 229,-100.814 229,-92.2449"/>
<polygon fill="#191970" stroke="#191970" points="225.5001,-124.3906 229,-134.3906 232.5001,-124.3907 225.5001,-124.3906"/>
</g>
<!-- Node2&#45;&gt;Node4 -->
<g id="edge3" class="edge">
<title>Node2&#45;&gt;Node4</title>
<path fill="none" stroke="#191970" d="M195.2794,-130.7063C170.5326,-120.9503 136.8937,-107.6889 111.1619,-97.5446"/>
<polygon fill="#191970" stroke="#191970" points="194.0382,-133.9791 204.625,-134.3906 196.6055,-127.4669 194.0382,-133.9791"/>
</g>
<!-- Node2&#45;&gt;Node6 -->
<g id="edge5" class="edge">
<title>Node2&#45;&gt;Node6</title>
<path fill="none" stroke="#191970" d="M265.4965,-130.9504C298.1032,-119.2916 345.1065,-102.4852 374.3137,-92.0419"/>
<polygon fill="#191970" stroke="#191970" points="264.1128,-127.7281 255.875,-134.3906 266.4696,-134.3194 264.1128,-127.7281"/>
</g>
<!-- Node5 -->
<g id="node5" class="node">
<title>Node5</title>
<g id="a_node5"><a xlink:href="c_twophase_darcy_coefficients_module_8cpp.html" target="_top" xlink:title="cTwophaseDarcyCoefficients\lModule.cpp">
<polygon fill="#ffffff" stroke="#000000" points="0,-.5 0,-30.5 146,-30.5 146,-.5 0,-.5"/>
<text text-anchor="start" x="8" y="-18.5" font-family="Helvetica,sans-Serif" font-size="10.00" fill="#000000">cTwophaseDarcyCoefficients</text>
<text text-anchor="middle" x="73" y="-7.5" font-family="Helvetica,sans-Serif" font-size="10.00" fill="#000000">Module.cpp</text>
</a>
</g>
</g>
<!-- Node4&#45;&gt;Node5 -->
<g id="edge4" class="edge">
<title>Node4&#45;&gt;Node5</title>
<path fill="none" stroke="#191970" d="M73,-57.0249C73,-48.128 73,-38.4287 73,-30.6432"/>
<polygon fill="#191970" stroke="#191970" points="69.5001,-57.2966 73,-67.2967 76.5001,-57.2967 69.5001,-57.2966"/>
</g>
</g>
</svg>
