<?xml version="1.0" encoding="UTF-8" standalone="no"?>
<!DOCTYPE svg PUBLIC "-//W3C//DTD SVG 1.1//EN"
 "http://www.w3.org/Graphics/SVG/1.1/DTD/svg11.dtd">
<!-- Generated by graphviz version 2.42.3 (0)
 -->
<!-- Title: proteus Pages: 1 -->
<svg width="686pt" height="111pt"
 viewBox="0.00 0.00 686.00 111.00" xmlns="http://www.w3.org/2000/svg" xmlns:xlink="http://www.w3.org/1999/xlink">
<g id="graph0" class="graph" transform="scale(1 1) rotate(0) translate(4 107)">
<title>proteus</title>
<polygon fill="white" stroke="transparent" points="-4,4 -4,-107 682,-107 682,4 -4,4"/>
<g id="clust1" class="cluster">
<title>clusterdir_d23a82edd4ac0940d9425868b4e8e61c</title>
<g id="a_clust1"><a xlink:href="dir_d23a82edd4ac0940d9425868b4e8e61c.html" target="_top" xlink:title="proteus2">
<polygon fill="#ddddee" stroke="black" points="8,-8 8,-95 670,-95 670,-8 8,-8"/>
<text text-anchor="middle" x="339" y="-83" font-family="Helvetica,sans-Serif" font-size="10.00">proteus2</text>
</a>
</g>
</g>
<g id="clust2" class="cluster">
<title>clusterdir_fe87453fcfc0d512029001dc42c43d5c</title>
<g id="a_clust2"><a xlink:href="dir_fe87453fcfc0d512029001dc42c43d5c.html" target="_top">
<polygon fill="#eeeeff" stroke="black" points="16,-16 16,-68 662,-68 662,-16 16,-16"/>
</a>
</g>
</g>
<!-- dir_fe87453fcfc0d512029001dc42c43d5c -->
<g id="node1" class="node">
<title>dir_fe87453fcfc0d512029001dc42c43d5c</title>
<text text-anchor="middle" x="627" y="-39.5" font-family="Helvetica,sans-Serif" font-size="10.00">proteus</text>
</g>
<!-- dir_591be1182c36d7c6046c6c2d080171aa -->
<g id="node2" class="node">
<title>dir_591be1182c36d7c6046c6c2d080171aa</title>
<g id="a_node2"><a xlink:href="dir_591be1182c36d7c6046c6c2d080171aa.html" target="_top" xlink:title="elastoplastic">
<polygon fill="white" stroke="black" points="581.5,-60 502.5,-60 502.5,-24 581.5,-24 581.5,-60"/>
<text text-anchor="middle" x="542" y="-39.5" font-family="Helvetica,sans-Serif" font-size="10.00">elastoplastic</text>
</a>
</g>
</g>
<!-- dir_0ae8da52083aa8f213af5135c04f5361 -->
<g id="node3" class="node">
<title>dir_0ae8da52083aa8f213af5135c04f5361</title>
<g id="a_node3"><a xlink:href="dir_0ae8da52083aa8f213af5135c04f5361.html" target="_top" xlink:title="fenton">
<polygon fill="white" stroke="black" points="484,-60 430,-60 430,-24 484,-24 484,-60"/>
<text text-anchor="middle" x="457" y="-39.5" font-family="Helvetica,sans-Serif" font-size="10.00">fenton</text>
</a>
</g>
</g>
<!-- dir_ea3432ea93a6efa34a30a2b3cde6d4da -->
<g id="node4" class="node">
<title>dir_ea3432ea93a6efa34a30a2b3cde6d4da</title>
<g id="a_node4"><a xlink:href="dir_ea3432ea93a6efa34a30a2b3cde6d4da.html" target="_top" xlink:title="mbd">
<polygon fill="white" stroke="black" points="412,-60 358,-60 358,-24 412,-24 412,-60"/>
<text text-anchor="middle" x="385" y="-39.5" font-family="Helvetica,sans-Serif" font-size="10.00">mbd</text>
</a>
</g>
</g>
<!-- dir_70196c58804081ed305e7f84907058fe -->
<g id="node5" class="node">
<title>dir_70196c58804081ed305e7f84907058fe</title>
<g id="a_node5"><a xlink:href="dir_70196c58804081ed305e7f84907058fe.html" target="_top" xlink:title="MeshAdaptPUMI">
<polygon fill="white" stroke="black" points="339.5,-60 242.5,-60 242.5,-24 339.5,-24 339.5,-60"/>
<text text-anchor="middle" x="291" y="-39.5" font-family="Helvetica,sans-Serif" font-size="10.00">MeshAdaptPUMI</text>
</a>
</g>
</g>
<!-- dir_7345f39f9a430cfefb4e585cf0572b86 -->
<g id="node6" class="node">
<title>dir_7345f39f9a430cfefb4e585cf0572b86</title>
<g id="a_node6"><a xlink:href="dir_7345f39f9a430cfefb4e585cf0572b86.html" target="_top" xlink:title="mprans">
<polygon fill="white" stroke="black" points="224,-60 170,-60 170,-24 224,-24 224,-60"/>
<text text-anchor="middle" x="197" y="-39.5" font-family="Helvetica,sans-Serif" font-size="10.00">mprans</text>
</a>
</g>
</g>
<!-- dir_2d358b3fcfe6338dfb6a80f977916040 -->
<g id="node7" class="node">
<title>dir_2d358b3fcfe6338dfb6a80f977916040</title>
<g id="a_node7"><a xlink:href="dir_2d358b3fcfe6338dfb6a80f977916040.html" target="_top" xlink:title="richards">
<polygon fill="white" stroke="black" points="152,-60 96,-60 96,-24 152,-24 152,-60"/>
<text text-anchor="middle" x="124" y="-39.5" font-family="Helvetica,sans-Serif" font-size="10.00">richards</text>
</a>
</g>
</g>
<!-- dir_3eaf0bddf7912aa14d398587e5887f8b -->
<g id="node8" class="node">
<title>dir_3eaf0bddf7912aa14d398587e5887f8b</title>
<g id="a_node8"><a xlink:href="dir_3eaf0bddf7912aa14d398587e5887f8b.html" target="_top" xlink:title="tests">
<polygon fill="white" stroke="red" points="78,-60 24,-60 24,-24 78,-24 78,-60"/>
<text text-anchor="middle" x="51" y="-39.5" font-family="Helvetica,sans-Serif" font-size="10.00">tests</text>
</a>
</g>
</g>
</g>
</svg>
