<?xml version="1.0" encoding="UTF-8" standalone="no"?>
<!DOCTYPE svg PUBLIC "-//W3C//DTD SVG 1.1//EN"
 "http://www.w3.org/Graphics/SVG/1.1/DTD/svg11.dtd">
<!-- Generated by graphviz version 2.38.0 (20140413.2041)
 -->
<!-- Title: femIntegrals.c Pages: 1 -->
<svg width="493pt" height="84pt"
 viewBox="0.00 0.00 492.50 84.00" xmlns="http://www.w3.org/2000/svg" xmlns:xlink="http://www.w3.org/1999/xlink">
<g id="graph0" class="graph" transform="scale(1 1) rotate(0) translate(4 80)">
<title>femIntegrals.c</title>
<polygon fill="white" stroke="none" points="-4,4 -4,-80 488.5,-80 488.5,4 -4,4"/>
<!-- Node0 -->
<g id="node1" class="node"><title>Node0</title>
<polygon fill="#bfbfbf" stroke="black" points="180.5,-56.5 180.5,-75.5 259.5,-75.5 259.5,-56.5 180.5,-56.5"/>
<text text-anchor="middle" x="220" y="-63.5" font-family="Helvetica,sans-Serif" font-size="10.00">femIntegrals.c</text>
</g>
<!-- Node1 -->
<g id="node2" class="node"><title>Node1</title>
<polygon fill="white" stroke="#bfbfbf" points="0,-0.5 0,-19.5 48,-19.5 48,-0.5 0,-0.5"/>
<text text-anchor="middle" x="24" y="-7.5" font-family="Helvetica,sans-Serif" font-size="10.00">stdlib.h</text>
</g>
<!-- Node0&#45;&gt;Node1 -->
<g id="edge1" class="edge"><title>Node0&#45;&gt;Node1</title>
<path fill="none" stroke="midnightblue" d="M188.943,-56.4435C153.226,-46.6031 94.7836,-30.5016 57.9071,-20.3418"/>
<polygon fill="midnightblue" stroke="midnightblue" points="58.6852,-16.9258 48.1148,-17.6439 56.8259,-23.6744 58.6852,-16.9258"/>
</g>
<!-- Node2 -->
<g id="node3" class="node"><title>Node2</title>
<polygon fill="white" stroke="#bfbfbf" points="66,-0.5 66,-19.5 112,-19.5 112,-0.5 66,-0.5"/>
<text text-anchor="middle" x="89" y="-7.5" font-family="Helvetica,sans-Serif" font-size="10.00">stdio.h</text>
</g>
<!-- Node0&#45;&gt;Node2 -->
<g id="edge2" class="edge"><title>Node0&#45;&gt;Node2</title>
<path fill="none" stroke="midnightblue" d="M199.243,-56.4435C177.684,-47.5566 143.737,-33.5632 119.206,-23.4514"/>
<polygon fill="midnightblue" stroke="midnightblue" points="120.239,-20.0917 109.66,-19.5164 117.572,-26.5634 120.239,-20.0917"/>
</g>
<!-- Node3 -->
<g id="node4" class="node"><title>Node3</title>
<polygon fill="white" stroke="#bfbfbf" points="130.5,-0.5 130.5,-19.5 177.5,-19.5 177.5,-0.5 130.5,-0.5"/>
<text text-anchor="middle" x="154" y="-7.5" font-family="Helvetica,sans-Serif" font-size="10.00">math.h</text>
</g>
<!-- Node0&#45;&gt;Node3 -->
<g id="edge3" class="edge"><title>Node0&#45;&gt;Node3</title>
<path fill="none" stroke="midnightblue" d="M209.396,-56.324C199.544,-48.2631 184.649,-36.0765 172.785,-26.3695"/>
<polygon fill="midnightblue" stroke="midnightblue" points="174.753,-23.4575 164.797,-19.8339 170.32,-28.8752 174.753,-23.4575"/>
</g>
<!-- Node4 -->
<g id="node5" class="node"><title>Node4</title>
<polygon fill="white" stroke="#bfbfbf" points="195.5,-0.5 195.5,-19.5 244.5,-19.5 244.5,-0.5 195.5,-0.5"/>
<text text-anchor="middle" x="220" y="-7.5" font-family="Helvetica,sans-Serif" font-size="10.00">string.h</text>
</g>
<!-- Node0&#45;&gt;Node4 -->
<g id="edge4" class="edge"><title>Node0&#45;&gt;Node4</title>
<path fill="none" stroke="midnightblue" d="M220,-56.083C220,-49.0059 220,-38.8611 220,-29.9865"/>
<polygon fill="midnightblue" stroke="midnightblue" points="223.5,-29.751 220,-19.7511 216.5,-29.7511 223.5,-29.751"/>
</g>
<!-- Node5 -->
<g id="node6" class="node"><title>Node5</title>
<polygon fill="white" stroke="#bfbfbf" points="263,-0.5 263,-19.5 317,-19.5 317,-0.5 263,-0.5"/>
<text text-anchor="middle" x="290" y="-7.5" font-family="Helvetica,sans-Serif" font-size="10.00">strings.h</text>
</g>
<!-- Node0&#45;&gt;Node5 -->
<g id="edge5" class="edge"><title>Node0&#45;&gt;Node5</title>
<path fill="none" stroke="midnightblue" d="M231.247,-56.324C241.797,-48.1849 257.801,-35.8395 270.442,-26.0874"/>
<polygon fill="midnightblue" stroke="midnightblue" points="272.769,-28.7132 278.549,-19.8339 268.493,-23.1707 272.769,-28.7132"/>
</g>
<!-- Node6 -->
<g id="node7" class="node"><title>Node6</title>
<polygon fill="white" stroke="#bfbfbf" points="335,-0.5 335,-19.5 387,-19.5 387,-0.5 335,-0.5"/>
<text text-anchor="middle" x="361" y="-7.5" font-family="Helvetica,sans-Serif" font-size="10.00">assert.h</text>
</g>
<!-- Node0&#45;&gt;Node6 -->
<g id="edge6" class="edge"><title>Node0&#45;&gt;Node6</title>
<path fill="none" stroke="midnightblue" d="M242.342,-56.4435C265.753,-47.4776 302.736,-33.314 329.19,-23.1827"/>
<polygon fill="midnightblue" stroke="midnightblue" points="330.676,-26.3615 338.763,-19.5164 328.172,-19.8245 330.676,-26.3615"/>
</g>
<!-- Node7 -->
<g id="node8" class="node"><title>Node7</title>
<g id="a_node8"><a xlink:href="fem_integrals_8h.html" target="_top" xlink:title="A library of functions for computing the discrete finite element formulations. ">
<polygon fill="white" stroke="black" points="405.5,-0.5 405.5,-19.5 484.5,-19.5 484.5,-0.5 405.5,-0.5"/>
<text text-anchor="middle" x="445" y="-7.5" font-family="Helvetica,sans-Serif" font-size="10.00">femIntegrals.h</text>
</a>
</g>
</g>
<!-- Node0&#45;&gt;Node7 -->
<g id="edge7" class="edge"><title>Node0&#45;&gt;Node7</title>
<path fill="none" stroke="midnightblue" d="M255.652,-56.4435C294.656,-47.0826 357.266,-32.0561 399.717,-21.868"/>
<polygon fill="midnightblue" stroke="midnightblue" points="400.608,-25.2536 409.515,-19.5164 398.974,-18.4469 400.608,-25.2536"/>
</g>
</g>
</svg>
