<?xml version="1.0" encoding="UTF-8" standalone="no"?>
<!DOCTYPE svg PUBLIC "-//W3C//DTD SVG 1.1//EN"
 "http://www.w3.org/Graphics/SVG/1.1/DTD/svg11.dtd">
<!-- Generated by graphviz version 2.40.1 (20161225.0304)
 -->
<!-- Title: femIntegrals.h Pages: 1 -->
<svg width="222pt" height="84pt"
 viewBox="0.00 0.00 221.50 84.00" xmlns="http://www.w3.org/2000/svg" xmlns:xlink="http://www.w3.org/1999/xlink">
<g id="graph0" class="graph" transform="scale(1 1) rotate(0) translate(4 80)">
<title>femIntegrals.h</title>
<polygon fill="#ffffff" stroke="transparent" points="-4,4 -4,-80 217.5,-80 217.5,4 -4,4"/>
<!-- Node1 -->
<g id="node1" class="node">
<title>Node1</title>
<polygon fill="#bfbfbf" stroke="#000000" points="76.5,-56.5 76.5,-75.5 155.5,-75.5 155.5,-56.5 76.5,-56.5"/>
<text text-anchor="middle" x="116" y="-63.5" font-family="Helvetica,sans-Serif" font-size="10.00" fill="#000000">femIntegrals.h</text>
</g>
<!-- Node2 -->
<g id="node2" class="node">
<title>Node2</title>
<g id="a_node2"><a xlink:href="cfem_integrals_module_8c.html" target="_top" xlink:title="cfemIntegralsModule.c">
<polygon fill="#ffffff" stroke="#000000" points="0,-.5 0,-19.5 116,-19.5 116,-.5 0,-.5"/>
<text text-anchor="middle" x="58" y="-7.5" font-family="Helvetica,sans-Serif" font-size="10.00" fill="#000000">cfemIntegralsModule.c</text>
</a>
</g>
</g>
<!-- Node1&#45;&gt;Node2 -->
<g id="edge1" class="edge">
<title>Node1&#45;&gt;Node2</title>
<path fill="none" stroke="#191970" d="M98.4707,-49.0751C88.4917,-39.4402 76.3524,-27.7196 67.9871,-19.6427"/>
<polygon fill="#191970" stroke="#191970" points="96.272,-51.8175 105.8972,-56.2455 101.1342,-46.7817 96.272,-51.8175"/>
</g>
<!-- Node3 -->
<g id="node3" class="node">
<title>Node3</title>
<g id="a_node3"><a xlink:href="fem_integrals_8c.html" target="_top" xlink:title="femIntegrals.c">
<polygon fill="#ffffff" stroke="#000000" points="134.5,-.5 134.5,-19.5 213.5,-19.5 213.5,-.5 134.5,-.5"/>
<text text-anchor="middle" x="174" y="-7.5" font-family="Helvetica,sans-Serif" font-size="10.00" fill="#000000">femIntegrals.c</text>
</a>
</g>
</g>
<!-- Node1&#45;&gt;Node3 -->
<g id="edge2" class="edge">
<title>Node1&#45;&gt;Node3</title>
<path fill="none" stroke="#191970" d="M133.5293,-49.0751C143.5083,-39.4402 155.6476,-27.7196 164.0129,-19.6427"/>
<polygon fill="#191970" stroke="#191970" points="130.8658,-46.7817 126.1028,-56.2455 135.728,-51.8175 130.8658,-46.7817"/>
</g>
</g>
</svg>
