<?xml version="1.0" encoding="UTF-8" standalone="no"?>
<!DOCTYPE svg PUBLIC "-//W3C//DTD SVG 1.1//EN"
 "http://www.w3.org/Graphics/SVG/1.1/DTD/svg11.dtd">
<!-- Generated by graphviz version 2.38.0 (20140413.2041)
 -->
<!-- Title: femIntegrals.h Pages: 1 -->
<svg width="222pt" height="84pt"
 viewBox="0.00 0.00 221.50 84.00" xmlns="http://www.w3.org/2000/svg" xmlns:xlink="http://www.w3.org/1999/xlink">
<g id="graph0" class="graph" transform="scale(1 1) rotate(0) translate(4 80)">
<title>femIntegrals.h</title>
<polygon fill="white" stroke="none" points="-4,4 -4,-80 217.5,-80 217.5,4 -4,4"/>
<!-- Node1 -->
<g id="node1" class="node"><title>Node1</title>
<polygon fill="#bfbfbf" stroke="black" points="76.5,-56.5 76.5,-75.5 155.5,-75.5 155.5,-56.5 76.5,-56.5"/>
<text text-anchor="middle" x="116" y="-63.5" font-family="Helvetica,sans-Serif" font-size="10.00">femIntegrals.h</text>
</g>
<!-- Node2 -->
<g id="node2" class="node"><title>Node2</title>
<g id="a_node2"><a xlink:href="cfem_integrals_module_8c.html" target="_top" xlink:title="cfemIntegralsModule.c">
<polygon fill="white" stroke="black" points="0,-0.5 0,-19.5 116,-19.5 116,-0.5 0,-0.5"/>
<text text-anchor="middle" x="58" y="-7.5" font-family="Helvetica,sans-Serif" font-size="10.00">cfemIntegralsModule.c</text>
</a>
</g>
</g>
<!-- Node1&#45;&gt;Node2 -->
<g id="edge1" class="edge"><title>Node1&#45;&gt;Node2</title>
<path fill="none" stroke="midnightblue" d="M99.0869,-49.2533C88.797,-39.6731 76.0343,-27.7906 67.4883,-19.8339"/>
<polygon fill="midnightblue" stroke="midnightblue" points="96.9774,-52.0714 106.681,-56.324 101.747,-46.9481 96.9774,-52.0714"/>
</g>
<!-- Node3 -->
<g id="node3" class="node"><title>Node3</title>
<g id="a_node3"><a xlink:href="fem_integrals_8c.html" target="_top" xlink:title="femIntegrals.c">
<polygon fill="white" stroke="black" points="134.5,-0.5 134.5,-19.5 213.5,-19.5 213.5,-0.5 134.5,-0.5"/>
<text text-anchor="middle" x="174" y="-7.5" font-family="Helvetica,sans-Serif" font-size="10.00">femIntegrals.c</text>
</a>
</g>
</g>
<!-- Node1&#45;&gt;Node3 -->
<g id="edge2" class="edge"><title>Node1&#45;&gt;Node3</title>
<path fill="none" stroke="midnightblue" d="M132.913,-49.2533C143.203,-39.6731 155.966,-27.7906 164.512,-19.8339"/>
<polygon fill="midnightblue" stroke="midnightblue" points="130.253,-46.9481 125.319,-56.324 135.023,-52.0714 130.253,-46.9481"/>
</g>
</g>
</svg>
