<?xml version="1.0" encoding="UTF-8" standalone="no"?>
<!DOCTYPE svg PUBLIC "-//W3C//DTD SVG 1.1//EN"
 "http://www.w3.org/Graphics/SVG/1.1/DTD/svg11.dtd">
<!-- Generated by graphviz version 2.38.0 (20140413.2041)
 -->
<!-- Title: femIntegrals.h Pages: 1 -->
<svg width="221pt" height="84pt"
 viewBox="0.00 0.00 220.50 84.00" xmlns="http://www.w3.org/2000/svg" xmlns:xlink="http://www.w3.org/1999/xlink">
<g id="graph0" class="graph" transform="scale(1 1) rotate(0) translate(4 80)">
<title>femIntegrals.h</title>
<polygon fill="white" stroke="none" points="-4,4 -4,-80 216.5,-80 216.5,4 -4,4"/>
<!-- Node1 -->
<g id="node1" class="node"><title>Node1</title>
<polygon fill="#bfbfbf" stroke="black" points="75.5,-56.5 75.5,-75.5 154.5,-75.5 154.5,-56.5 75.5,-56.5"/>
<text text-anchor="middle" x="115" y="-63.5" font-family="Helvetica,sans-Serif" font-size="10.00">femIntegrals.h</text>
</g>
<!-- Node2 -->
<g id="node2" class="node"><title>Node2</title>
<g id="a_node2"><a xlink:href="cfem_integrals_module_8c.html" target="_top" xlink:title="cfemIntegralsModule.c">
<polygon fill="white" stroke="black" points="0,-0.5 0,-19.5 116,-19.5 116,-0.5 0,-0.5"/>
<text text-anchor="middle" x="58" y="-7.5" font-family="Helvetica,sans-Serif" font-size="10.00">cfemIntegralsModule.c</text>
</a>
</g>
</g>
<!-- Node1&#45;&gt;Node2 -->
<g id="edge1" class="edge"><title>Node1&#45;&gt;Node2</title>
<path fill="none" stroke="midnightblue" d="M98.3785,-49.2533C88.266,-39.6731 75.7234,-27.7906 67.3247,-19.8339"/>
<polygon fill="midnightblue" stroke="midnightblue" points="96.1753,-51.9873 105.842,-56.324 100.99,-46.9056 96.1753,-51.9873"/>
</g>
<!-- Node3 -->
<g id="node3" class="node"><title>Node3</title>
<g id="a_node3"><a xlink:href="fem_integrals_8c.html" target="_top" xlink:title="femIntegrals.c">
<polygon fill="white" stroke="black" points="133.5,-0.5 133.5,-19.5 212.5,-19.5 212.5,-0.5 133.5,-0.5"/>
<text text-anchor="middle" x="173" y="-7.5" font-family="Helvetica,sans-Serif" font-size="10.00">femIntegrals.c</text>
</a>
</g>
</g>
<!-- Node1&#45;&gt;Node3 -->
<g id="edge2" class="edge"><title>Node1&#45;&gt;Node3</title>
<path fill="none" stroke="midnightblue" d="M131.913,-49.2533C142.203,-39.6731 154.966,-27.7906 163.512,-19.8339"/>
<polygon fill="midnightblue" stroke="midnightblue" points="129.253,-46.9481 124.319,-56.324 134.023,-52.0714 129.253,-46.9481"/>
</g>
</g>
</svg>
