<?xml version="1.0" encoding="UTF-8" standalone="no"?>
<!DOCTYPE svg PUBLIC "-//W3C//DTD SVG 1.1//EN"
 "http://www.w3.org/Graphics/SVG/1.1/DTD/svg11.dtd">
<!-- Generated by graphviz version 2.40.1 (20161225.0304)
 -->
<!-- Title: femIntegrals.c Pages: 1 -->
<svg width="493pt" height="84pt"
 viewBox="0.00 0.00 492.50 84.00" xmlns="http://www.w3.org/2000/svg" xmlns:xlink="http://www.w3.org/1999/xlink">
<g id="graph0" class="graph" transform="scale(1 1) rotate(0) translate(4 80)">
<title>femIntegrals.c</title>
<polygon fill="#ffffff" stroke="transparent" points="-4,4 -4,-80 488.5,-80 488.5,4 -4,4"/>
<!-- Node0 -->
<g id="node1" class="node">
<title>Node0</title>
<polygon fill="#bfbfbf" stroke="#000000" points="180.5,-56.5 180.5,-75.5 259.5,-75.5 259.5,-56.5 180.5,-56.5"/>
<text text-anchor="middle" x="220" y="-63.5" font-family="Helvetica,sans-Serif" font-size="10.00" fill="#000000">femIntegrals.c</text>
</g>
<!-- Node1 -->
<g id="node2" class="node">
<title>Node1</title>
<polygon fill="#ffffff" stroke="#bfbfbf" points="0,-.5 0,-19.5 48,-19.5 48,-.5 0,-.5"/>
<text text-anchor="middle" x="24" y="-7.5" font-family="Helvetica,sans-Serif" font-size="10.00" fill="#000000">stdlib.h</text>
</g>
<!-- Node0&#45;&gt;Node1 -->
<g id="edge1" class="edge">
<title>Node0&#45;&gt;Node1</title>
<path fill="none" stroke="#191970" d="M185.6017,-56.4989C154.5746,-47.8831 107.4479,-34.684 57.7682,-20.1895"/>
<polygon fill="#191970" stroke="#191970" points="58.7151,-16.8199 48.1346,-17.3718 56.7499,-23.5384 58.7151,-16.8199"/>
</g>
<!-- Node2 -->
<g id="node3" class="node">
<title>Node2</title>
<polygon fill="#ffffff" stroke="#bfbfbf" points="66,-.5 66,-19.5 112,-19.5 112,-.5 66,-.5"/>
<text text-anchor="middle" x="89" y="-7.5" font-family="Helvetica,sans-Serif" font-size="10.00" fill="#000000">stdio.h</text>
</g>
<!-- Node0&#45;&gt;Node2 -->
<g id="edge2" class="edge">
<title>Node0&#45;&gt;Node2</title>
<path fill="none" stroke="#191970" d="M197.4803,-56.3733C176.2628,-47.3032 144.2724,-33.6279 120.5231,-23.4755"/>
<polygon fill="#191970" stroke="#191970" points="121.7967,-20.2136 111.2258,-19.5011 119.0452,-26.6502 121.7967,-20.2136"/>
</g>
<!-- Node3 -->
<g id="node4" class="node">
<title>Node3</title>
<polygon fill="#ffffff" stroke="#bfbfbf" points="130.5,-.5 130.5,-19.5 177.5,-19.5 177.5,-.5 130.5,-.5"/>
<text text-anchor="middle" x="154" y="-7.5" font-family="Helvetica,sans-Serif" font-size="10.00" fill="#000000">math.h</text>
</g>
<!-- Node0&#45;&gt;Node3 -->
<g id="edge3" class="edge">
<title>Node0&#45;&gt;Node3</title>
<path fill="none" stroke="#191970" d="M208.5037,-56.2455C198.7558,-47.9746 184.5741,-35.9416 173.1202,-26.2232"/>
<polygon fill="#191970" stroke="#191970" points="175.2541,-23.4437 165.3646,-19.6427 170.7253,-28.7813 175.2541,-23.4437"/>
</g>
<!-- Node4 -->
<g id="node5" class="node">
<title>Node4</title>
<polygon fill="#ffffff" stroke="#bfbfbf" points="195.5,-.5 195.5,-19.5 244.5,-19.5 244.5,-.5 195.5,-.5"/>
<text text-anchor="middle" x="220" y="-7.5" font-family="Helvetica,sans-Serif" font-size="10.00" fill="#000000">string.h</text>
</g>
<!-- Node0&#45;&gt;Node4 -->
<g id="edge4" class="edge">
<title>Node0&#45;&gt;Node4</title>
<path fill="none" stroke="#191970" d="M220,-56.2455C220,-48.9382 220,-38.6944 220,-29.7046"/>
<polygon fill="#191970" stroke="#191970" points="223.5001,-29.6426 220,-19.6427 216.5001,-29.6427 223.5001,-29.6426"/>
</g>
<!-- Node5 -->
<g id="node6" class="node">
<title>Node5</title>
<polygon fill="#ffffff" stroke="#bfbfbf" points="263,-.5 263,-19.5 317,-19.5 317,-.5 263,-.5"/>
<text text-anchor="middle" x="290" y="-7.5" font-family="Helvetica,sans-Serif" font-size="10.00" fill="#000000">strings.h</text>
</g>
<!-- Node0&#45;&gt;Node5 -->
<g id="edge5" class="edge">
<title>Node0&#45;&gt;Node5</title>
<path fill="none" stroke="#191970" d="M232.1931,-56.2455C242.6321,-47.8943 257.8655,-35.7076 270.074,-25.9408"/>
<polygon fill="#191970" stroke="#191970" points="272.3244,-28.6227 277.9467,-19.6427 267.9515,-23.1566 272.3244,-28.6227"/>
</g>
<!-- Node6 -->
<g id="node7" class="node">
<title>Node6</title>
<polygon fill="#ffffff" stroke="#bfbfbf" points="335,-.5 335,-19.5 387,-19.5 387,-.5 335,-.5"/>
<text text-anchor="middle" x="361" y="-7.5" font-family="Helvetica,sans-Serif" font-size="10.00" fill="#000000">assert.h</text>
</g>
<!-- Node0&#45;&gt;Node6 -->
<g id="edge6" class="edge">
<title>Node0&#45;&gt;Node6</title>
<path fill="none" stroke="#191970" d="M244.2388,-56.3733C267.2789,-47.2226 302.1214,-33.3844 327.7501,-23.2057"/>
<polygon fill="#191970" stroke="#191970" points="329.0756,-26.4452 337.0775,-19.5011 326.4918,-19.9395 329.0756,-26.4452"/>
</g>
<!-- Node7 -->
<g id="node8" class="node">
<title>Node7</title>
<g id="a_node8"><a xlink:href="fem_integrals_8h.html" target="_top" xlink:title="A library of functions for computing the discrete finite element formulations. ">
<polygon fill="#ffffff" stroke="#000000" points="405.5,-.5 405.5,-19.5 484.5,-19.5 484.5,-.5 405.5,-.5"/>
<text text-anchor="middle" x="445" y="-7.5" font-family="Helvetica,sans-Serif" font-size="10.00" fill="#000000">femIntegrals.h</text>
</a>
</g>
</g>
<!-- Node0&#45;&gt;Node7 -->
<g id="edge7" class="edge">
<title>Node0&#45;&gt;Node7</title>
<path fill="none" stroke="#191970" d="M258.4232,-56.4369C296.6875,-46.9133 355.5337,-32.2672 396.8849,-21.9753"/>
<polygon fill="#191970" stroke="#191970" points="397.8766,-25.3353 406.7353,-19.5237 396.1859,-18.5426 397.8766,-25.3353"/>
</g>
</g>
</svg>
