<?xml version="1.0" encoding="UTF-8" standalone="no"?>
<!DOCTYPE svg PUBLIC "-//W3C//DTD SVG 1.1//EN"
 "http://www.w3.org/Graphics/SVG/1.1/DTD/svg11.dtd">
<!-- Generated by graphviz version 2.38.0 (20140413.2041)
 -->
<!-- Title: flcbdfWrappersModule.h Pages: 1 -->
<svg width="1594pt" height="196pt"
 viewBox="0.00 0.00 1593.50 196.00" xmlns="http://www.w3.org/2000/svg" xmlns:xlink="http://www.w3.org/1999/xlink">
<g id="graph0" class="graph" transform="scale(1 1) rotate(0) translate(4 192)">
<title>flcbdfWrappersModule.h</title>
<polygon fill="white" stroke="none" points="-4,4 -4,-192 1589.5,-192 1589.5,4 -4,4"/>
<!-- Node1 -->
<g id="node1" class="node"><title>Node1</title>
<polygon fill="#bfbfbf" stroke="black" points="661,-168.5 661,-187.5 783,-187.5 783,-168.5 661,-168.5"/>
<text text-anchor="middle" x="722" y="-175.5" font-family="Helvetica,sans-Serif" font-size="10.00">flcbdfWrappersModule.h</text>
</g>
<!-- Node2 -->
<g id="node2" class="node"><title>Node2</title>
<polygon fill="white" stroke="#bfbfbf" points="2.5,-112.5 2.5,-131.5 51.5,-131.5 51.5,-112.5 2.5,-112.5"/>
<text text-anchor="middle" x="27" y="-119.5" font-family="Helvetica,sans-Serif" font-size="10.00">cstddef</text>
</g>
<!-- Node1&#45;&gt;Node2 -->
<g id="edge1" class="edge"><title>Node1&#45;&gt;Node2</title>
<path fill="none" stroke="midnightblue" d="M660.605,-176.024C544.077,-173.458 283.078,-164.285 66,-132 64.5394,-131.783 63.0527,-131.54 61.554,-131.276"/>
<polygon fill="midnightblue" stroke="midnightblue" points="62.1353,-127.823 51.6449,-129.308 60.7712,-134.689 62.1353,-127.823"/>
</g>
<!-- Node3 -->
<g id="node3" class="node"><title>Node3</title>
<polygon fill="white" stroke="#bfbfbf" points="53,-56.5 53,-75.5 109,-75.5 109,-56.5 53,-56.5"/>
<text text-anchor="middle" x="81" y="-63.5" font-family="Helvetica,sans-Serif" font-size="10.00">Python.h</text>
</g>
<!-- Node1&#45;&gt;Node3 -->
<g id="edge2" class="edge"><title>Node1&#45;&gt;Node3</title>
<path fill="none" stroke="midnightblue" d="M660.896,-176.526C512.445,-174.824 141.807,-167.07 99,-132 85.5746,-121.001 81.6614,-100.949 80.746,-86.0146"/>
<polygon fill="midnightblue" stroke="midnightblue" points="84.2411,-85.7468 80.5225,-75.826 77.2428,-85.9004 84.2411,-85.7468"/>
</g>
<!-- Node4 -->
<g id="node4" class="node"><title>Node4</title>
<polygon fill="white" stroke="#bfbfbf" points="129.5,-56.5 129.5,-75.5 234.5,-75.5 234.5,-56.5 129.5,-56.5"/>
<text text-anchor="middle" x="182" y="-63.5" font-family="Helvetica,sans-Serif" font-size="10.00">numpy/arrayobject.h</text>
</g>
<!-- Node1&#45;&gt;Node4 -->
<g id="edge3" class="edge"><title>Node1&#45;&gt;Node4</title>
<path fill="none" stroke="midnightblue" d="M660.636,-174.14C557.217,-168.746 352.85,-155.451 285,-132 252.418,-120.739 219.562,-97.4588 199.995,-82.0355"/>
<polygon fill="midnightblue" stroke="midnightblue" points="201.968,-79.1305 191.988,-75.5734 197.572,-84.5776 201.968,-79.1305"/>
</g>
<!-- Node5 -->
<g id="node5" class="node"><title>Node5</title>
<g id="a_node5"><a xlink:href="superlu_wrappers_module_8h.html" target="_top" xlink:title="Python interface to superlu. ">
<polygon fill="white" stroke="black" points="312,-112.5 312,-131.5 442,-131.5 442,-112.5 312,-112.5"/>
<text text-anchor="middle" x="377" y="-119.5" font-family="Helvetica,sans-Serif" font-size="10.00">superluWrappersModule.h</text>
</a>
</g>
</g>
<!-- Node1&#45;&gt;Node5 -->
<g id="edge4" class="edge"><title>Node1&#45;&gt;Node5</title>
<path fill="none" stroke="midnightblue" d="M667.334,-168.444C606.014,-158.846 506.641,-143.292 441.551,-133.104"/>
<polygon fill="midnightblue" stroke="midnightblue" points="441.831,-129.605 431.411,-131.516 440.749,-136.521 441.831,-129.605"/>
</g>
<!-- Node6 -->
<g id="node6" class="node"><title>Node6</title>
<g id="a_node6"><a xlink:href="cmesh_tools_module_8h.html" target="_top" xlink:title="cmeshToolsModule.h">
<polygon fill="white" stroke="black" points="108,-112.5 108,-131.5 218,-131.5 218,-112.5 108,-112.5"/>
<text text-anchor="middle" x="163" y="-119.5" font-family="Helvetica,sans-Serif" font-size="10.00">cmeshToolsModule.h</text>
</a>
</g>
</g>
<!-- Node1&#45;&gt;Node6 -->
<g id="edge5" class="edge"><title>Node1&#45;&gt;Node6</title>
<path fill="none" stroke="midnightblue" d="M660.812,-172.135C567.995,-164.584 386.103,-149.12 232,-132 230.889,-131.877 229.769,-131.75 228.641,-131.622"/>
<polygon fill="midnightblue" stroke="midnightblue" points="228.68,-128.102 218.339,-130.407 227.86,-135.054 228.68,-128.102"/>
</g>
<!-- Node7 -->
<g id="node7" class="node"><title>Node7</title>
<g id="a_node7"><a xlink:href="mesh_8h.html" target="_top" xlink:title="mesh.h">
<polygon fill="white" stroke="black" points="257.5,-56.5 257.5,-75.5 306.5,-75.5 306.5,-56.5 257.5,-56.5"/>
<text text-anchor="middle" x="282" y="-63.5" font-family="Helvetica,sans-Serif" font-size="10.00">mesh.h</text>
</a>
</g>
</g>
<!-- Node1&#45;&gt;Node7 -->
<g id="edge19" class="edge"><title>Node1&#45;&gt;Node7</title>
<path fill="none" stroke="midnightblue" d="M660.784,-174.078C551.156,-168.315 330.177,-154.096 303,-132 289.362,-120.911 284.476,-100.874 282.78,-85.9669"/>
<polygon fill="midnightblue" stroke="midnightblue" points="286.256,-85.5089 282.013,-75.8008 279.276,-86.0359 286.256,-85.5089"/>
</g>
<!-- Node18 -->
<g id="node18" class="node"><title>Node18</title>
<polygon fill="white" stroke="#bfbfbf" points="460.5,-112.5 460.5,-131.5 501.5,-131.5 501.5,-112.5 460.5,-112.5"/>
<text text-anchor="middle" x="481" y="-119.5" font-family="Helvetica,sans-Serif" font-size="10.00">mpi.h</text>
</g>
<!-- Node1&#45;&gt;Node18 -->
<g id="edge20" class="edge"><title>Node1&#45;&gt;Node18</title>
<path fill="none" stroke="midnightblue" d="M676.888,-168.483C636.091,-160.534 574.195,-147.861 511.288,-131.902"/>
<polygon fill="midnightblue" stroke="midnightblue" points="512.151,-128.51 501.595,-129.419 510.414,-135.291 512.151,-128.51"/>
</g>
<!-- Node19 -->
<g id="node19" class="node"><title>Node19</title>
<polygon fill="white" stroke="#bfbfbf" points="520,-112.5 520,-131.5 564,-131.5 564,-112.5 520,-112.5"/>
<text text-anchor="middle" x="542" y="-119.5" font-family="Helvetica,sans-Serif" font-size="10.00">hdf5.h</text>
</g>
<!-- Node1&#45;&gt;Node19 -->
<g id="edge21" class="edge"><title>Node1&#45;&gt;Node19</title>
<path fill="none" stroke="midnightblue" d="M693.478,-168.444C660.957,-158.687 607.921,-142.776 574.012,-132.604"/>
<polygon fill="midnightblue" stroke="midnightblue" points="574.73,-129.165 564.146,-129.644 572.719,-135.87 574.73,-129.165"/>
</g>
<!-- Node20 -->
<g id="node20" class="node"><title>Node20</title>
<polygon fill="white" stroke="#bfbfbf" points="582.5,-112.5 582.5,-131.5 631.5,-131.5 631.5,-112.5 582.5,-112.5"/>
<text text-anchor="middle" x="607" y="-119.5" font-family="Helvetica,sans-Serif" font-size="10.00">petsc.h</text>
</g>
<!-- Node1&#45;&gt;Node20 -->
<g id="edge22" class="edge"><title>Node1&#45;&gt;Node20</title>
<path fill="none" stroke="midnightblue" d="M703.778,-168.444C685.104,-159.675 655.844,-145.935 634.383,-135.858"/>
<polygon fill="midnightblue" stroke="midnightblue" points="635.676,-132.599 625.137,-131.516 632.701,-138.935 635.676,-132.599"/>
</g>
<!-- Node21 -->
<g id="node21" class="node"><title>Node21</title>
<polygon fill="white" stroke="#bfbfbf" points="649.5,-112.5 649.5,-131.5 714.5,-131.5 714.5,-112.5 649.5,-112.5"/>
<text text-anchor="middle" x="682" y="-119.5" font-family="Helvetica,sans-Serif" font-size="10.00">petscmat.h</text>
</g>
<!-- Node1&#45;&gt;Node21 -->
<g id="edge23" class="edge"><title>Node1&#45;&gt;Node21</title>
<path fill="none" stroke="midnightblue" d="M715.395,-168.083C709.745,-160.455 701.455,-149.264 694.549,-139.941"/>
<polygon fill="midnightblue" stroke="midnightblue" points="697.247,-137.703 688.482,-131.751 691.622,-141.87 697.247,-137.703"/>
</g>
<!-- Node22 -->
<g id="node22" class="node"><title>Node22</title>
<polygon fill="white" stroke="#bfbfbf" points="732.5,-112.5 732.5,-131.5 791.5,-131.5 791.5,-112.5 732.5,-112.5"/>
<text text-anchor="middle" x="762" y="-119.5" font-family="Helvetica,sans-Serif" font-size="10.00">petscao.h</text>
</g>
<!-- Node1&#45;&gt;Node22 -->
<g id="edge24" class="edge"><title>Node1&#45;&gt;Node22</title>
<path fill="none" stroke="midnightblue" d="M728.605,-168.083C734.255,-160.455 742.545,-149.264 749.451,-139.941"/>
<polygon fill="midnightblue" stroke="midnightblue" points="752.378,-141.87 755.518,-131.751 746.753,-137.703 752.378,-141.87"/>
</g>
<!-- Node23 -->
<g id="node23" class="node"><title>Node23</title>
<polygon fill="white" stroke="#bfbfbf" points="809.5,-112.5 809.5,-131.5 866.5,-131.5 866.5,-112.5 809.5,-112.5"/>
<text text-anchor="middle" x="838" y="-119.5" font-family="Helvetica,sans-Serif" font-size="10.00">petscbt.h</text>
</g>
<!-- Node1&#45;&gt;Node23 -->
<g id="edge25" class="edge"><title>Node1&#45;&gt;Node23</title>
<path fill="none" stroke="midnightblue" d="M740.381,-168.444C759.216,-159.675 788.731,-145.935 810.379,-135.858"/>
<polygon fill="midnightblue" stroke="midnightblue" points="812.117,-138.91 819.705,-131.516 809.162,-132.564 812.117,-138.91"/>
</g>
<!-- Node24 -->
<g id="node24" class="node"><title>Node24</title>
<polygon fill="white" stroke="#bfbfbf" points="884.5,-112.5 884.5,-131.5 949.5,-131.5 949.5,-112.5 884.5,-112.5"/>
<text text-anchor="middle" x="917" y="-119.5" font-family="Helvetica,sans-Serif" font-size="10.00">petscksp.h</text>
</g>
<!-- Node1&#45;&gt;Node24 -->
<g id="edge26" class="edge"><title>Node1&#45;&gt;Node24</title>
<path fill="none" stroke="midnightblue" d="M752.898,-168.444C786.274,-159.201 839.594,-144.436 876.349,-134.257"/>
<polygon fill="midnightblue" stroke="midnightblue" points="877.543,-137.558 886.246,-131.516 875.675,-130.812 877.543,-137.558"/>
</g>
<!-- Node25 -->
<g id="node25" class="node"><title>Node25</title>
<polygon fill="white" stroke="#bfbfbf" points="968,-112.5 968,-131.5 1036,-131.5 1036,-112.5 968,-112.5"/>
<text text-anchor="middle" x="1002" y="-119.5" font-family="Helvetica,sans-Serif" font-size="10.00">petscconf.h</text>
</g>
<!-- Node1&#45;&gt;Node25 -->
<g id="edge27" class="edge"><title>Node1&#45;&gt;Node25</title>
<path fill="none" stroke="midnightblue" d="M768.371,-168.46C814.036,-159.991 886.044,-146.479 957.646,-132.243"/>
<polygon fill="midnightblue" stroke="midnightblue" points="958.622,-135.618 967.744,-130.23 957.253,-128.753 958.622,-135.618"/>
</g>
<!-- Node26 -->
<g id="node26" class="node"><title>Node26</title>
<polygon fill="white" stroke="#bfbfbf" points="1054.5,-112.5 1054.5,-131.5 1125.5,-131.5 1125.5,-112.5 1054.5,-112.5"/>
<text text-anchor="middle" x="1090" y="-119.5" font-family="Helvetica,sans-Serif" font-size="10.00">Definitions.h</text>
</g>
<!-- Node1&#45;&gt;Node26 -->
<g id="edge28" class="edge"><title>Node1&#45;&gt;Node26</title>
<path fill="none" stroke="midnightblue" d="M783.186,-169.567C846.107,-161.677 947.164,-148.323 1044.19,-132.05"/>
<polygon fill="midnightblue" stroke="midnightblue" points="1044.9,-135.481 1054.17,-130.363 1043.73,-128.579 1044.9,-135.481"/>
</g>
<!-- Node27 -->
<g id="node27" class="node"><title>Node27</title>
<polygon fill="white" stroke="#bfbfbf" points="1143.5,-112.5 1143.5,-131.5 1220.5,-131.5 1220.5,-112.5 1143.5,-112.5"/>
<text text-anchor="middle" x="1182" y="-119.5" font-family="Helvetica,sans-Serif" font-size="10.00">FullDataFile.h</text>
</g>
<!-- Node1&#45;&gt;Node27 -->
<g id="edge29" class="edge"><title>Node1&#45;&gt;Node27</title>
<path fill="none" stroke="midnightblue" d="M783.078,-171.897C861.804,-164.974 1003.13,-151.38 1133.17,-132.177"/>
<polygon fill="midnightblue" stroke="midnightblue" points="1133.94,-135.601 1143.31,-130.664 1132.91,-128.678 1133.94,-135.601"/>
</g>
<!-- Node28 -->
<g id="node28" class="node"><title>Node28</title>
<polygon fill="white" stroke="#bfbfbf" points="1238.5,-112.5 1238.5,-131.5 1351.5,-131.5 1351.5,-112.5 1238.5,-112.5"/>
<text text-anchor="middle" x="1295" y="-119.5" font-family="Helvetica,sans-Serif" font-size="10.00">WeightedRMSNorm.h</text>
</g>
<!-- Node1&#45;&gt;Node28 -->
<g id="edge30" class="edge"><title>Node1&#45;&gt;Node28</title>
<path fill="none" stroke="midnightblue" d="M783.091,-172.565C876.728,-165.552 1061.6,-150.854 1228.36,-132.141"/>
<polygon fill="midnightblue" stroke="midnightblue" points="1228.76,-135.618 1238.3,-131.018 1227.97,-128.663 1228.76,-135.618"/>
</g>
<!-- Node29 -->
<g id="node29" class="node"><title>Node29</title>
<polygon fill="white" stroke="#bfbfbf" points="1370,-112.5 1370,-131.5 1452,-131.5 1452,-112.5 1370,-112.5"/>
<text text-anchor="middle" x="1411" y="-119.5" font-family="Helvetica,sans-Serif" font-size="10.00">FLCBDF_lite.h</text>
</g>
<!-- Node1&#45;&gt;Node29 -->
<g id="edge31" class="edge"><title>Node1&#45;&gt;Node29</title>
<path fill="none" stroke="midnightblue" d="M783.005,-174.894C895.217,-170.542 1142.05,-158.747 1359.83,-132.012"/>
<polygon fill="midnightblue" stroke="midnightblue" points="1360.36,-135.474 1369.85,-130.769 1359.5,-128.527 1360.36,-135.474"/>
</g>
<!-- Node30 -->
<g id="node30" class="node"><title>Node30</title>
<polygon fill="white" stroke="#bfbfbf" points="1470,-112.5 1470,-131.5 1516,-131.5 1516,-112.5 1470,-112.5"/>
<text text-anchor="middle" x="1493" y="-119.5" font-family="Helvetica,sans-Serif" font-size="10.00">stdio.h</text>
</g>
<!-- Node1&#45;&gt;Node30 -->
<g id="edge32" class="edge"><title>Node1&#45;&gt;Node30</title>
<path fill="none" stroke="midnightblue" d="M783.332,-177.663C908.925,-178.07 1204.35,-174.158 1459.51,-131.885"/>
<polygon fill="midnightblue" stroke="midnightblue" points="1460.43,-135.279 1469.71,-130.17 1459.27,-128.375 1460.43,-135.279"/>
</g>
<!-- Node31 -->
<g id="node31" class="node"><title>Node31</title>
<polygon fill="white" stroke="#bfbfbf" points="1534.5,-112.5 1534.5,-131.5 1585.5,-131.5 1585.5,-112.5 1534.5,-112.5"/>
<text text-anchor="middle" x="1560" y="-119.5" font-family="Helvetica,sans-Serif" font-size="10.00">valarray</text>
</g>
<!-- Node1&#45;&gt;Node31 -->
<g id="edge33" class="edge"><title>Node1&#45;&gt;Node31</title>
<path fill="none" stroke="midnightblue" d="M783.117,-177.634C916.341,-178.141 1242.82,-174.633 1524.14,-131.796"/>
<polygon fill="midnightblue" stroke="midnightblue" points="1524.77,-135.239 1534.12,-130.256 1523.71,-128.321 1524.77,-135.239"/>
</g>
<!-- Node6&#45;&gt;Node3 -->
<g id="edge6" class="edge"><title>Node6&#45;&gt;Node3</title>
<path fill="none" stroke="midnightblue" d="M149.825,-112.324C137.153,-103.979 117.767,-91.2122 102.794,-81.3524"/>
<polygon fill="midnightblue" stroke="midnightblue" points="104.419,-78.2313 94.142,-75.6545 100.569,-84.0776 104.419,-78.2313"/>
</g>
<!-- Node6&#45;&gt;Node4 -->
<g id="edge7" class="edge"><title>Node6&#45;&gt;Node4</title>
<path fill="none" stroke="midnightblue" d="M166.137,-112.083C168.683,-104.849 172.356,-94.4087 175.527,-85.3968"/>
<polygon fill="midnightblue" stroke="midnightblue" points="178.903,-86.3459 178.921,-75.7511 172.3,-84.0225 178.903,-86.3459"/>
</g>
<!-- Node6&#45;&gt;Node7 -->
<g id="edge8" class="edge"><title>Node6&#45;&gt;Node7</title>
<path fill="none" stroke="midnightblue" d="M181.856,-112.444C201.266,-103.636 231.73,-89.8116 253.965,-79.722"/>
<polygon fill="midnightblue" stroke="midnightblue" points="255.572,-82.836 263.232,-75.5164 252.68,-76.4615 255.572,-82.836"/>
</g>
<!-- Node8 -->
<g id="node8" class="node"><title>Node8</title>
<polygon fill="white" stroke="#bfbfbf" points="0,-0.5 0,-19.5 30,-19.5 30,-0.5 0,-0.5"/>
<text text-anchor="middle" x="15" y="-7.5" font-family="Helvetica,sans-Serif" font-size="10.00">set</text>
</g>
<!-- Node7&#45;&gt;Node8 -->
<g id="edge9" class="edge"><title>Node7&#45;&gt;Node8</title>
<path fill="none" stroke="midnightblue" d="M257.285,-59.092C252.552,-58.0188 247.63,-56.9422 243,-56 155.865,-38.2701 129.595,-43.8427 39.867,-19.8073"/>
<polygon fill="midnightblue" stroke="midnightblue" points="40.6654,-16.3973 30.0968,-17.1419 38.8231,-23.1505 40.6654,-16.3973"/>
</g>
<!-- Node9 -->
<g id="node9" class="node"><title>Node9</title>
<polygon fill="white" stroke="#bfbfbf" points="48,-0.5 48,-19.5 92,-19.5 92,-0.5 48,-0.5"/>
<text text-anchor="middle" x="70" y="-7.5" font-family="Helvetica,sans-Serif" font-size="10.00">vector</text>
</g>
<!-- Node7&#45;&gt;Node9 -->
<g id="edge10" class="edge"><title>Node7&#45;&gt;Node9</title>
<path fill="none" stroke="midnightblue" d="M257.33,-59.188C224.193,-51.3121 163.253,-36.586 102.129,-20.231"/>
<polygon fill="midnightblue" stroke="midnightblue" points="102.888,-16.8107 92.3219,-17.5929 101.07,-23.5704 102.888,-16.8107"/>
</g>
<!-- Node10 -->
<g id="node10" class="node"><title>Node10</title>
<polygon fill="white" stroke="#bfbfbf" points="110,-0.5 110,-19.5 166,-19.5 166,-0.5 110,-0.5"/>
<text text-anchor="middle" x="138" y="-7.5" font-family="Helvetica,sans-Serif" font-size="10.00">algorithm</text>
</g>
<!-- Node7&#45;&gt;Node10 -->
<g id="edge11" class="edge"><title>Node7&#45;&gt;Node10</title>
<path fill="none" stroke="midnightblue" d="M259.183,-56.4435C235.168,-47.4381 197.171,-33.1891 170.131,-23.049"/>
<polygon fill="midnightblue" stroke="midnightblue" points="171.303,-19.7506 160.71,-19.5164 168.845,-26.3049 171.303,-19.7506"/>
</g>
<!-- Node11 -->
<g id="node11" class="node"><title>Node11</title>
<polygon fill="white" stroke="#bfbfbf" points="184.5,-0.5 184.5,-19.5 219.5,-19.5 219.5,-0.5 184.5,-0.5"/>
<text text-anchor="middle" x="202" y="-7.5" font-family="Helvetica,sans-Serif" font-size="10.00">map</text>
</g>
<!-- Node7&#45;&gt;Node11 -->
<g id="edge12" class="edge"><title>Node7&#45;&gt;Node11</title>
<path fill="none" stroke="midnightblue" d="M269.147,-56.324C256.784,-47.979 237.87,-35.2122 223.263,-25.3524"/>
<polygon fill="midnightblue" stroke="midnightblue" points="225.068,-22.3483 214.821,-19.6545 221.152,-28.1503 225.068,-22.3483"/>
</g>
<!-- Node12 -->
<g id="node12" class="node"><title>Node12</title>
<polygon fill="white" stroke="#bfbfbf" points="237.5,-0.5 237.5,-19.5 266.5,-19.5 266.5,-0.5 237.5,-0.5"/>
<text text-anchor="middle" x="252" y="-7.5" font-family="Helvetica,sans-Serif" font-size="10.00">list</text>
</g>
<!-- Node7&#45;&gt;Node12 -->
<g id="edge13" class="edge"><title>Node7&#45;&gt;Node12</title>
<path fill="none" stroke="midnightblue" d="M277.046,-56.083C272.896,-48.6127 266.847,-37.7244 261.733,-28.5199"/>
<polygon fill="midnightblue" stroke="midnightblue" points="264.778,-26.7929 256.862,-19.7511 258.659,-30.1924 264.778,-26.7929"/>
</g>
<!-- Node13 -->
<g id="node13" class="node"><title>Node13</title>
<polygon fill="white" stroke="#bfbfbf" points="285,-0.5 285,-19.5 339,-19.5 339,-0.5 285,-0.5"/>
<text text-anchor="middle" x="312" y="-7.5" font-family="Helvetica,sans-Serif" font-size="10.00">iostream</text>
</g>
<!-- Node7&#45;&gt;Node13 -->
<g id="edge14" class="edge"><title>Node7&#45;&gt;Node13</title>
<path fill="none" stroke="midnightblue" d="M286.954,-56.083C291.104,-48.6127 297.153,-37.7244 302.267,-28.5199"/>
<polygon fill="midnightblue" stroke="midnightblue" points="305.341,-30.1924 307.138,-19.7511 299.222,-26.7929 305.341,-30.1924"/>
</g>
<!-- Node14 -->
<g id="node14" class="node"><title>Node14</title>
<polygon fill="white" stroke="#bfbfbf" points="357,-0.5 357,-19.5 407,-19.5 407,-0.5 357,-0.5"/>
<text text-anchor="middle" x="382" y="-7.5" font-family="Helvetica,sans-Serif" font-size="10.00">iomanip</text>
</g>
<!-- Node7&#45;&gt;Node14 -->
<g id="edge15" class="edge"><title>Node7&#45;&gt;Node14</title>
<path fill="none" stroke="midnightblue" d="M298.067,-56.324C313.958,-47.7428 338.507,-34.486 356.958,-24.5224"/>
<polygon fill="midnightblue" stroke="midnightblue" points="358.837,-27.4857 365.973,-19.6545 355.511,-21.3264 358.837,-27.4857"/>
</g>
<!-- Node15 -->
<g id="node15" class="node"><title>Node15</title>
<polygon fill="white" stroke="#bfbfbf" points="425,-0.5 425,-19.5 475,-19.5 475,-0.5 425,-0.5"/>
<text text-anchor="middle" x="450" y="-7.5" font-family="Helvetica,sans-Serif" font-size="10.00">fstream</text>
</g>
<!-- Node7&#45;&gt;Node15 -->
<g id="edge16" class="edge"><title>Node7&#45;&gt;Node15</title>
<path fill="none" stroke="midnightblue" d="M306.789,-57.0321C335.368,-47.846 382.552,-32.6798 414.897,-22.2832"/>
<polygon fill="midnightblue" stroke="midnightblue" points="416.385,-25.4812 424.835,-19.0889 414.243,-18.817 416.385,-25.4812"/>
</g>
<!-- Node16 -->
<g id="node16" class="node"><title>Node16</title>
<polygon fill="white" stroke="#bfbfbf" points="493.5,-0.5 493.5,-19.5 542.5,-19.5 542.5,-0.5 493.5,-0.5"/>
<text text-anchor="middle" x="518" y="-7.5" font-family="Helvetica,sans-Serif" font-size="10.00">cassert</text>
</g>
<!-- Node7&#45;&gt;Node16 -->
<g id="edge17" class="edge"><title>Node7&#45;&gt;Node16</title>
<path fill="none" stroke="midnightblue" d="M306.638,-59.8401C343.047,-52.1443 413.582,-36.9658 483.316,-20.0919"/>
<polygon fill="midnightblue" stroke="midnightblue" points="484.257,-23.465 493.147,-17.7003 482.603,-16.6634 484.257,-23.465"/>
</g>
<!-- Node17 -->
<g id="node17" class="node"><title>Node17</title>
<polygon fill="white" stroke="#bfbfbf" points="561,-0.5 561,-19.5 605,-19.5 605,-0.5 561,-0.5"/>
<text text-anchor="middle" x="583" y="-7.5" font-family="Helvetica,sans-Serif" font-size="10.00">cmath</text>
</g>
<!-- Node7&#45;&gt;Node17 -->
<g id="edge18" class="edge"><title>Node7&#45;&gt;Node17</title>
<path fill="none" stroke="midnightblue" d="M306.759,-61.8646C352.937,-55.8058 455.463,-41.3619 550.923,-20.0269"/>
<polygon fill="midnightblue" stroke="midnightblue" points="551.751,-23.428 560.731,-17.8045 550.204,-16.6011 551.751,-23.428"/>
</g>
</g>
</svg>
