<?xml version="1.0" encoding="UTF-8" standalone="no"?>
<!DOCTYPE svg PUBLIC "-//W3C//DTD SVG 1.1//EN"
 "http://www.w3.org/Graphics/SVG/1.1/DTD/svg11.dtd">
<!-- Generated by graphviz version 2.38.0 (20140413.2041)
 -->
<!-- Title: flcbdfWrappersModule.cpp Pages: 1 -->
<svg width="1635pt" height="252pt"
 viewBox="0.00 0.00 1635.00 252.00" xmlns="http://www.w3.org/2000/svg" xmlns:xlink="http://www.w3.org/1999/xlink">
<g id="graph0" class="graph" transform="scale(1 1) rotate(0) translate(4 248)">
<title>flcbdfWrappersModule.cpp</title>
<polygon fill="white" stroke="none" points="-4,4 -4,-248 1631,-248 1631,4 -4,4"/>
<!-- Node1 -->
<g id="node1" class="node"><title>Node1</title>
<polygon fill="#bfbfbf" stroke="black" points="12.5,-224.5 12.5,-243.5 145.5,-243.5 145.5,-224.5 12.5,-224.5"/>
<text text-anchor="middle" x="79" y="-231.5" font-family="Helvetica,sans-Serif" font-size="10.00">flcbdfWrappersModule.cpp</text>
</g>
<!-- Node2 -->
<g id="node2" class="node"><title>Node2</title>
<g id="a_node2"><a xlink:href="flcbdf_wrappers_module_8h.html" target="_top" xlink:title="Python interface to adpative BDF code (daetk) ">
<polygon fill="white" stroke="black" points="761,-168.5 761,-187.5 883,-187.5 883,-168.5 761,-168.5"/>
<text text-anchor="middle" x="822" y="-175.5" font-family="Helvetica,sans-Serif" font-size="10.00">flcbdfWrappersModule.h</text>
</a>
</g>
</g>
<!-- Node1&#45;&gt;Node2 -->
<g id="edge1" class="edge"><title>Node1&#45;&gt;Node2</title>
<path fill="none" stroke="midnightblue" d="M145.59,-228.16C285.162,-218.016 607.286,-194.605 750.789,-184.176"/>
<polygon fill="midnightblue" stroke="midnightblue" points="751.087,-187.663 760.807,-183.447 750.58,-180.682 751.087,-187.663"/>
</g>
<!-- Node11 -->
<g id="node11" class="node"><title>Node11</title>
<polygon fill="white" stroke="#bfbfbf" points="913,-0.5 913,-19.5 969,-19.5 969,-0.5 913,-0.5"/>
<text text-anchor="middle" x="941" y="-7.5" font-family="Helvetica,sans-Serif" font-size="10.00">algorithm</text>
</g>
<!-- Node1&#45;&gt;Node11 -->
<g id="edge34" class="edge"><title>Node1&#45;&gt;Node11</title>
<path fill="none" stroke="midnightblue" d="M77.2824,-224.435C73.3788,-202.227 66.4652,-142.404 98,-112 156.802,-55.3067 745.767,-21.07 902.731,-12.9045"/>
<polygon fill="midnightblue" stroke="midnightblue" points="903.048,-16.3929 912.855,-12.3829 902.688,-9.40212 903.048,-16.3929"/>
</g>
<!-- Node32 -->
<g id="node32" class="node"><title>Node32</title>
<g id="a_node32"><a xlink:href="meshio_8h.html" target="_top" xlink:title="meshio.h">
<polygon fill="white" stroke="black" points="0,-56.5 0,-75.5 56,-75.5 56,-56.5 0,-56.5"/>
<text text-anchor="middle" x="28" y="-63.5" font-family="Helvetica,sans-Serif" font-size="10.00">meshio.h</text>
</a>
</g>
</g>
<!-- Node1&#45;&gt;Node32 -->
<g id="edge35" class="edge"><title>Node1&#45;&gt;Node32</title>
<path fill="none" stroke="midnightblue" d="M76.3037,-224.377C73.4753,-215.322 68.9067,-200.666 65,-188 53.7652,-151.576 40.7617,-108.938 33.5488,-85.2448"/>
<polygon fill="midnightblue" stroke="midnightblue" points="36.8471,-84.0609 30.5876,-75.5129 30.1503,-86.0987 36.8471,-84.0609"/>
</g>
<!-- Node3 -->
<g id="node3" class="node"><title>Node3</title>
<polygon fill="white" stroke="#bfbfbf" points="1187.5,-112.5 1187.5,-131.5 1236.5,-131.5 1236.5,-112.5 1187.5,-112.5"/>
<text text-anchor="middle" x="1212" y="-119.5" font-family="Helvetica,sans-Serif" font-size="10.00">cstddef</text>
</g>
<!-- Node2&#45;&gt;Node3 -->
<g id="edge2" class="edge"><title>Node2&#45;&gt;Node3</title>
<path fill="none" stroke="midnightblue" d="M883.179,-171.763C952.329,-165.285 1068.37,-152.731 1177.36,-131.881"/>
<polygon fill="midnightblue" stroke="midnightblue" points="1178.06,-135.312 1187.21,-129.971 1176.72,-128.44 1178.06,-135.312"/>
</g>
<!-- Node4 -->
<g id="node4" class="node"><title>Node4</title>
<polygon fill="white" stroke="#bfbfbf" points="1399,-56.5 1399,-75.5 1455,-75.5 1455,-56.5 1399,-56.5"/>
<text text-anchor="middle" x="1427" y="-63.5" font-family="Helvetica,sans-Serif" font-size="10.00">Python.h</text>
</g>
<!-- Node2&#45;&gt;Node4 -->
<g id="edge3" class="edge"><title>Node2&#45;&gt;Node4</title>
<path fill="none" stroke="midnightblue" d="M883.121,-177.235C1033.47,-177.178 1411.9,-172.928 1450,-132 1462.43,-118.65 1451.91,-98.1636 1441.36,-83.7663"/>
<polygon fill="midnightblue" stroke="midnightblue" points="1443.94,-81.3835 1435,-75.707 1438.45,-85.7232 1443.94,-81.3835"/>
</g>
<!-- Node5 -->
<g id="node5" class="node"><title>Node5</title>
<polygon fill="white" stroke="#bfbfbf" points="1155.5,-56.5 1155.5,-75.5 1260.5,-75.5 1260.5,-56.5 1155.5,-56.5"/>
<text text-anchor="middle" x="1208" y="-63.5" font-family="Helvetica,sans-Serif" font-size="10.00">numpy/arrayobject.h</text>
</g>
<!-- Node2&#45;&gt;Node5 -->
<g id="edge4" class="edge"><title>Node2&#45;&gt;Node5</title>
<path fill="none" stroke="midnightblue" d="M883.214,-174.928C994.622,-170.523 1221.27,-158.393 1245,-132 1258.53,-116.954 1241.88,-96.1396 1226.77,-82.1553"/>
<polygon fill="midnightblue" stroke="midnightblue" points="1229.02,-79.4708 1219.19,-75.5317 1224.42,-84.7444 1229.02,-79.4708"/>
</g>
<!-- Node6 -->
<g id="node6" class="node"><title>Node6</title>
<g id="a_node6"><a xlink:href="superlu_wrappers_module_8h.html" target="_top" xlink:title="Python interface to superlu. ">
<polygon fill="white" stroke="black" points="1497,-112.5 1497,-131.5 1627,-131.5 1627,-112.5 1497,-112.5"/>
<text text-anchor="middle" x="1562" y="-119.5" font-family="Helvetica,sans-Serif" font-size="10.00">superluWrappersModule.h</text>
</a>
</g>
</g>
<!-- Node2&#45;&gt;Node6 -->
<g id="edge5" class="edge"><title>Node2&#45;&gt;Node6</title>
<path fill="none" stroke="midnightblue" d="M883.131,-173.769C999.856,-167.394 1262.49,-152.056 1483,-132 1484.28,-131.884 1485.56,-131.764 1486.86,-131.642"/>
<polygon fill="midnightblue" stroke="midnightblue" points="1487.32,-135.114 1496.93,-130.651 1486.63,-128.148 1487.32,-135.114"/>
</g>
<!-- Node7 -->
<g id="node7" class="node"><title>Node7</title>
<g id="a_node7"><a xlink:href="cmesh_tools_module_8h.html" target="_top" xlink:title="cmeshToolsModule.h">
<polygon fill="white" stroke="black" points="1331,-112.5 1331,-131.5 1441,-131.5 1441,-112.5 1331,-112.5"/>
<text text-anchor="middle" x="1386" y="-119.5" font-family="Helvetica,sans-Serif" font-size="10.00">cmeshToolsModule.h</text>
</a>
</g>
</g>
<!-- Node2&#45;&gt;Node7 -->
<g id="edge6" class="edge"><title>Node2&#45;&gt;Node7</title>
<path fill="none" stroke="midnightblue" d="M883.041,-172.222C976.566,-164.728 1160.9,-149.269 1317,-132 1318.11,-131.877 1319.23,-131.751 1320.36,-131.623"/>
<polygon fill="midnightblue" stroke="midnightblue" points="1321.14,-135.056 1330.66,-130.411 1320.32,-128.104 1321.14,-135.056"/>
</g>
<!-- Node8 -->
<g id="node8" class="node"><title>Node8</title>
<g id="a_node8"><a xlink:href="mesh_8h.html" target="_top" xlink:title="mesh.h">
<polygon fill="white" stroke="black" points="1278.5,-56.5 1278.5,-75.5 1327.5,-75.5 1327.5,-56.5 1278.5,-56.5"/>
<text text-anchor="middle" x="1303" y="-63.5" font-family="Helvetica,sans-Serif" font-size="10.00">mesh.h</text>
</a>
</g>
</g>
<!-- Node2&#45;&gt;Node8 -->
<g id="edge20" class="edge"><title>Node2&#45;&gt;Node8</title>
<path fill="none" stroke="midnightblue" d="M883.128,-177.229C988.778,-176.575 1200.16,-170.338 1262,-132 1279.32,-121.261 1290.57,-100.196 1296.82,-84.9506"/>
<polygon fill="midnightblue" stroke="midnightblue" points="1300.13,-86.1165 1300.37,-75.5245 1293.57,-83.6515 1300.13,-86.1165"/>
</g>
<!-- Node19 -->
<g id="node19" class="node"><title>Node19</title>
<polygon fill="white" stroke="#bfbfbf" points="107.5,-112.5 107.5,-131.5 148.5,-131.5 148.5,-112.5 107.5,-112.5"/>
<text text-anchor="middle" x="128" y="-119.5" font-family="Helvetica,sans-Serif" font-size="10.00">mpi.h</text>
</g>
<!-- Node2&#45;&gt;Node19 -->
<g id="edge21" class="edge"><title>Node2&#45;&gt;Node19</title>
<path fill="none" stroke="midnightblue" d="M760.89,-177.599C644.756,-177.713 384.326,-173.054 158.797,-131.938"/>
<polygon fill="midnightblue" stroke="midnightblue" points="159.233,-128.459 148.763,-130.08 157.958,-135.342 159.233,-128.459"/>
</g>
<!-- Node20 -->
<g id="node20" class="node"><title>Node20</title>
<polygon fill="white" stroke="#bfbfbf" points="166.5,-112.5 166.5,-131.5 215.5,-131.5 215.5,-112.5 166.5,-112.5"/>
<text text-anchor="middle" x="191" y="-119.5" font-family="Helvetica,sans-Serif" font-size="10.00">petsc.h</text>
</g>
<!-- Node2&#45;&gt;Node20 -->
<g id="edge22" class="edge"><title>Node2&#45;&gt;Node20</title>
<path fill="none" stroke="midnightblue" d="M760.837,-176.243C653.871,-174.082 425.902,-165.75 225.859,-132.026"/>
<polygon fill="midnightblue" stroke="midnightblue" points="226.199,-128.533 215.752,-130.296 225.018,-135.433 226.199,-128.533"/>
</g>
<!-- Node21 -->
<g id="node21" class="node"><title>Node21</title>
<polygon fill="white" stroke="#bfbfbf" points="233.5,-112.5 233.5,-131.5 298.5,-131.5 298.5,-112.5 233.5,-112.5"/>
<text text-anchor="middle" x="266" y="-119.5" font-family="Helvetica,sans-Serif" font-size="10.00">petscmat.h</text>
</g>
<!-- Node2&#45;&gt;Node21 -->
<g id="edge23" class="edge"><title>Node2&#45;&gt;Node21</title>
<path fill="none" stroke="midnightblue" d="M760.653,-174.202C665.71,-169.308 477.344,-157.354 308.659,-132.08"/>
<polygon fill="midnightblue" stroke="midnightblue" points="309.015,-128.594 298.603,-130.554 307.964,-135.515 309.015,-128.594"/>
</g>
<!-- Node22 -->
<g id="node22" class="node"><title>Node22</title>
<polygon fill="white" stroke="#bfbfbf" points="316.5,-112.5 316.5,-131.5 375.5,-131.5 375.5,-112.5 316.5,-112.5"/>
<text text-anchor="middle" x="346" y="-119.5" font-family="Helvetica,sans-Serif" font-size="10.00">petscao.h</text>
</g>
<!-- Node2&#45;&gt;Node22 -->
<g id="edge24" class="edge"><title>Node2&#45;&gt;Node22</title>
<path fill="none" stroke="midnightblue" d="M760.725,-173.232C677.714,-167.567 524.79,-155.153 385.779,-132.121"/>
<polygon fill="midnightblue" stroke="midnightblue" points="386.237,-128.649 375.796,-130.444 385.078,-135.552 386.237,-128.649"/>
</g>
<!-- Node23 -->
<g id="node23" class="node"><title>Node23</title>
<polygon fill="white" stroke="#bfbfbf" points="393.5,-112.5 393.5,-131.5 450.5,-131.5 450.5,-112.5 393.5,-112.5"/>
<text text-anchor="middle" x="422" y="-119.5" font-family="Helvetica,sans-Serif" font-size="10.00">petscbt.h</text>
</g>
<!-- Node2&#45;&gt;Node23 -->
<g id="edge25" class="edge"><title>Node2&#45;&gt;Node23</title>
<path fill="none" stroke="midnightblue" d="M760.979,-171.603C690.704,-164.903 571.643,-152.068 460.64,-132.13"/>
<polygon fill="midnightblue" stroke="midnightblue" points="461.078,-128.652 450.613,-130.305 459.825,-135.539 461.078,-128.652"/>
</g>
<!-- Node24 -->
<g id="node24" class="node"><title>Node24</title>
<polygon fill="white" stroke="#bfbfbf" points="468.5,-112.5 468.5,-131.5 533.5,-131.5 533.5,-112.5 468.5,-112.5"/>
<text text-anchor="middle" x="501" y="-119.5" font-family="Helvetica,sans-Serif" font-size="10.00">petscksp.h</text>
</g>
<!-- Node2&#45;&gt;Node24 -->
<g id="edge26" class="edge"><title>Node2&#45;&gt;Node24</title>
<path fill="none" stroke="midnightblue" d="M763.603,-168.471C709.26,-160.332 625.784,-147.319 543.547,-132.019"/>
<polygon fill="midnightblue" stroke="midnightblue" points="544,-128.543 533.526,-130.142 542.711,-135.423 544,-128.543"/>
</g>
<!-- Node25 -->
<g id="node25" class="node"><title>Node25</title>
<polygon fill="white" stroke="#bfbfbf" points="552,-112.5 552,-131.5 620,-131.5 620,-112.5 552,-112.5"/>
<text text-anchor="middle" x="586" y="-119.5" font-family="Helvetica,sans-Serif" font-size="10.00">petscconf.h</text>
</g>
<!-- Node2&#45;&gt;Node25 -->
<g id="edge27" class="edge"><title>Node2&#45;&gt;Node25</title>
<path fill="none" stroke="midnightblue" d="M784.605,-168.444C742.643,-158.842 674.632,-143.28 630.108,-133.093"/>
<polygon fill="midnightblue" stroke="midnightblue" points="630.684,-129.634 620.155,-130.815 629.122,-136.457 630.684,-129.634"/>
</g>
<!-- Node26 -->
<g id="node26" class="node"><title>Node26</title>
<polygon fill="white" stroke="#bfbfbf" points="638.5,-112.5 638.5,-131.5 709.5,-131.5 709.5,-112.5 638.5,-112.5"/>
<text text-anchor="middle" x="674" y="-119.5" font-family="Helvetica,sans-Serif" font-size="10.00">Definitions.h</text>
</g>
<!-- Node2&#45;&gt;Node26 -->
<g id="edge28" class="edge"><title>Node2&#45;&gt;Node26</title>
<path fill="none" stroke="midnightblue" d="M798.549,-168.444C773.867,-159.438 734.815,-145.189 707.023,-135.049"/>
<polygon fill="midnightblue" stroke="midnightblue" points="707.935,-131.656 697.341,-131.516 705.536,-138.232 707.935,-131.656"/>
</g>
<!-- Node27 -->
<g id="node27" class="node"><title>Node27</title>
<polygon fill="white" stroke="#bfbfbf" points="727.5,-112.5 727.5,-131.5 804.5,-131.5 804.5,-112.5 727.5,-112.5"/>
<text text-anchor="middle" x="766" y="-119.5" font-family="Helvetica,sans-Serif" font-size="10.00">FullDataFile.h</text>
</g>
<!-- Node2&#45;&gt;Node27 -->
<g id="edge29" class="edge"><title>Node2&#45;&gt;Node27</title>
<path fill="none" stroke="midnightblue" d="M813.003,-168.324C804.806,-160.42 792.494,-148.548 782.528,-138.938"/>
<polygon fill="midnightblue" stroke="midnightblue" points="784.789,-136.256 775.161,-131.834 779.93,-141.295 784.789,-136.256"/>
</g>
<!-- Node28 -->
<g id="node28" class="node"><title>Node28</title>
<polygon fill="white" stroke="#bfbfbf" points="822.5,-112.5 822.5,-131.5 935.5,-131.5 935.5,-112.5 822.5,-112.5"/>
<text text-anchor="middle" x="879" y="-119.5" font-family="Helvetica,sans-Serif" font-size="10.00">WeightedRMSNorm.h</text>
</g>
<!-- Node2&#45;&gt;Node28 -->
<g id="edge30" class="edge"><title>Node2&#45;&gt;Node28</title>
<path fill="none" stroke="midnightblue" d="M831.158,-168.324C839.501,-160.42 852.032,-148.548 862.177,-138.938"/>
<polygon fill="midnightblue" stroke="midnightblue" points="864.823,-141.252 869.675,-131.834 860.009,-136.171 864.823,-141.252"/>
</g>
<!-- Node29 -->
<g id="node29" class="node"><title>Node29</title>
<polygon fill="white" stroke="#bfbfbf" points="954,-112.5 954,-131.5 1036,-131.5 1036,-112.5 954,-112.5"/>
<text text-anchor="middle" x="995" y="-119.5" font-family="Helvetica,sans-Serif" font-size="10.00">FLCBDF_lite.h</text>
</g>
<!-- Node2&#45;&gt;Node29 -->
<g id="edge31" class="edge"><title>Node2&#45;&gt;Node29</title>
<path fill="none" stroke="midnightblue" d="M849.412,-168.444C878.769,-159.28 925.519,-144.688 958.096,-134.519"/>
<polygon fill="midnightblue" stroke="midnightblue" points="959.213,-137.837 967.716,-131.516 957.127,-131.155 959.213,-137.837"/>
</g>
<!-- Node30 -->
<g id="node30" class="node"><title>Node30</title>
<polygon fill="white" stroke="#bfbfbf" points="1054,-112.5 1054,-131.5 1100,-131.5 1100,-112.5 1054,-112.5"/>
<text text-anchor="middle" x="1077" y="-119.5" font-family="Helvetica,sans-Serif" font-size="10.00">stdio.h</text>
</g>
<!-- Node2&#45;&gt;Node30 -->
<g id="edge32" class="edge"><title>Node2&#45;&gt;Node30</title>
<path fill="none" stroke="midnightblue" d="M869.644,-168.458C912.739,-160.491 978.139,-147.806 1043.86,-132.134"/>
<polygon fill="midnightblue" stroke="midnightblue" points="1045.08,-135.44 1053.98,-129.697 1043.44,-128.635 1045.08,-135.44"/>
</g>
<!-- Node31 -->
<g id="node31" class="node"><title>Node31</title>
<polygon fill="white" stroke="#bfbfbf" points="1118.5,-112.5 1118.5,-131.5 1169.5,-131.5 1169.5,-112.5 1118.5,-112.5"/>
<text text-anchor="middle" x="1144" y="-119.5" font-family="Helvetica,sans-Serif" font-size="10.00">valarray</text>
</g>
<!-- Node2&#45;&gt;Node31 -->
<g id="edge33" class="edge"><title>Node2&#45;&gt;Node31</title>
<path fill="none" stroke="midnightblue" d="M883.054,-169.161C939.144,-161.567 1024.75,-148.99 1108.51,-131.921"/>
<polygon fill="midnightblue" stroke="midnightblue" points="1109.36,-135.319 1118.45,-129.872 1107.95,-128.463 1109.36,-135.319"/>
</g>
<!-- Node7&#45;&gt;Node4 -->
<g id="edge7" class="edge"><title>Node7&#45;&gt;Node4</title>
<path fill="none" stroke="midnightblue" d="M1392.77,-112.083C1398.56,-104.455 1407.06,-93.2645 1414.14,-83.9408"/>
<polygon fill="midnightblue" stroke="midnightblue" points="1417.1,-85.8321 1420.36,-75.7511 1411.52,-81.5991 1417.1,-85.8321"/>
</g>
<!-- Node7&#45;&gt;Node5 -->
<g id="edge8" class="edge"><title>Node7&#45;&gt;Node5</title>
<path fill="none" stroke="midnightblue" d="M1357.8,-112.444C1327.59,-103.28 1279.49,-88.6876 1245.97,-78.5192"/>
<polygon fill="midnightblue" stroke="midnightblue" points="1246.66,-75.0703 1236.07,-75.5164 1244.63,-81.7688 1246.66,-75.0703"/>
</g>
<!-- Node7&#45;&gt;Node8 -->
<g id="edge9" class="edge"><title>Node7&#45;&gt;Node8</title>
<path fill="none" stroke="midnightblue" d="M1372.66,-112.324C1359.84,-103.979 1340.22,-91.2122 1325.06,-81.3524"/>
<polygon fill="midnightblue" stroke="midnightblue" points="1326.59,-78.1742 1316.3,-75.6545 1322.78,-84.0417 1326.59,-78.1742"/>
</g>
<!-- Node9 -->
<g id="node9" class="node"><title>Node9</title>
<polygon fill="white" stroke="#bfbfbf" points="1408,-0.5 1408,-19.5 1438,-19.5 1438,-0.5 1408,-0.5"/>
<text text-anchor="middle" x="1423" y="-7.5" font-family="Helvetica,sans-Serif" font-size="10.00">set</text>
</g>
<!-- Node8&#45;&gt;Node9 -->
<g id="edge10" class="edge"><title>Node8&#45;&gt;Node9</title>
<path fill="none" stroke="midnightblue" d="M1322.01,-56.4435C1342.74,-47.1175 1375.96,-32.1679 1398.6,-21.982"/>
<polygon fill="midnightblue" stroke="midnightblue" points="1400.19,-25.1021 1407.87,-17.8067 1397.32,-18.7186 1400.19,-25.1021"/>
</g>
<!-- Node10 -->
<g id="node10" class="node"><title>Node10</title>
<polygon fill="white" stroke="#bfbfbf" points="128,-0.5 128,-19.5 172,-19.5 172,-0.5 128,-0.5"/>
<text text-anchor="middle" x="150" y="-7.5" font-family="Helvetica,sans-Serif" font-size="10.00">vector</text>
</g>
<!-- Node8&#45;&gt;Node10 -->
<g id="edge11" class="edge"><title>Node8&#45;&gt;Node10</title>
<path fill="none" stroke="midnightblue" d="M1278.25,-57.7791C1275.16,-57.0751 1272.02,-56.4547 1269,-56 1159.24,-39.4699 354.94,-16.6245 182.495,-11.8828"/>
<polygon fill="midnightblue" stroke="midnightblue" points="182.377,-8.37836 172.285,-11.603 182.185,-15.3757 182.377,-8.37836"/>
</g>
<!-- Node8&#45;&gt;Node11 -->
<g id="edge12" class="edge"><title>Node8&#45;&gt;Node11</title>
<path fill="none" stroke="midnightblue" d="M1278.2,-58.0599C1275.11,-57.3077 1271.99,-56.5992 1269,-56 1165.11,-35.2042 1040.77,-21.0249 979.296,-14.7159"/>
<polygon fill="midnightblue" stroke="midnightblue" points="979.576,-11.2265 969.274,-13.7003 978.871,-18.1908 979.576,-11.2265"/>
</g>
<!-- Node12 -->
<g id="node12" class="node"><title>Node12</title>
<polygon fill="white" stroke="#bfbfbf" points="1456.5,-0.5 1456.5,-19.5 1491.5,-19.5 1491.5,-0.5 1456.5,-0.5"/>
<text text-anchor="middle" x="1474" y="-7.5" font-family="Helvetica,sans-Serif" font-size="10.00">map</text>
</g>
<!-- Node8&#45;&gt;Node12 -->
<g id="edge13" class="edge"><title>Node8&#45;&gt;Node12</title>
<path fill="none" stroke="midnightblue" d="M1327.5,-57.4965C1354.4,-49.2266 1399.09,-35.3902 1446.73,-20.0426"/>
<polygon fill="midnightblue" stroke="midnightblue" points="1447.86,-23.3578 1456.3,-16.9541 1445.71,-16.6965 1447.86,-23.3578"/>
</g>
<!-- Node13 -->
<g id="node13" class="node"><title>Node13</title>
<polygon fill="white" stroke="#bfbfbf" points="1094.5,-0.5 1094.5,-19.5 1123.5,-19.5 1123.5,-0.5 1094.5,-0.5"/>
<text text-anchor="middle" x="1109" y="-7.5" font-family="Helvetica,sans-Serif" font-size="10.00">list</text>
</g>
<!-- Node8&#45;&gt;Node13 -->
<g id="edge14" class="edge"><title>Node8&#45;&gt;Node13</title>
<path fill="none" stroke="midnightblue" d="M1278.36,-58.481C1238.32,-47.8899 1161.39,-27.5342 1133.37,-19.634"/>
<polygon fill="midnightblue" stroke="midnightblue" points="1134.22,-16.2352 1123.64,-16.7557 1132.24,-22.9479 1134.22,-16.2352"/>
</g>
<!-- Node14 -->
<g id="node14" class="node"><title>Node14</title>
<polygon fill="white" stroke="#bfbfbf" points="624,-0.5 624,-19.5 678,-19.5 678,-0.5 624,-0.5"/>
<text text-anchor="middle" x="651" y="-7.5" font-family="Helvetica,sans-Serif" font-size="10.00">iostream</text>
</g>
<!-- Node8&#45;&gt;Node14 -->
<g id="edge15" class="edge"><title>Node8&#45;&gt;Node14</title>
<path fill="none" stroke="midnightblue" d="M1278.23,-57.8743C1275.14,-57.1539 1272.01,-56.5037 1269,-56 1156.08,-37.1124 803.693,-18.5235 688.122,-12.7943"/>
<polygon fill="midnightblue" stroke="midnightblue" points="688.165,-9.29223 678.005,-12.2957 687.821,-16.2837 688.165,-9.29223"/>
</g>
<!-- Node15 -->
<g id="node15" class="node"><title>Node15</title>
<polygon fill="white" stroke="#bfbfbf" points="1142,-0.5 1142,-19.5 1192,-19.5 1192,-0.5 1142,-0.5"/>
<text text-anchor="middle" x="1167" y="-7.5" font-family="Helvetica,sans-Serif" font-size="10.00">iomanip</text>
</g>
<!-- Node8&#45;&gt;Node15 -->
<g id="edge16" class="edge"><title>Node8&#45;&gt;Node15</title>
<path fill="none" stroke="midnightblue" d="M1281.45,-56.4435C1258.97,-47.5171 1223.51,-33.4387 1198.02,-23.3168"/>
<polygon fill="midnightblue" stroke="midnightblue" points="1199.03,-19.9539 1188.45,-19.5164 1196.45,-26.4598 1199.03,-19.9539"/>
</g>
<!-- Node16 -->
<g id="node16" class="node"><title>Node16</title>
<polygon fill="white" stroke="#bfbfbf" points="1210,-0.5 1210,-19.5 1260,-19.5 1260,-0.5 1210,-0.5"/>
<text text-anchor="middle" x="1235" y="-7.5" font-family="Helvetica,sans-Serif" font-size="10.00">fstream</text>
</g>
<!-- Node8&#45;&gt;Node16 -->
<g id="edge17" class="edge"><title>Node8&#45;&gt;Node16</title>
<path fill="none" stroke="midnightblue" d="M1292.07,-56.324C1281.83,-48.1849 1266.28,-35.8395 1254,-26.0874"/>
<polygon fill="midnightblue" stroke="midnightblue" points="1256.13,-23.3119 1246.12,-19.8339 1251.78,-28.7937 1256.13,-23.3119"/>
</g>
<!-- Node17 -->
<g id="node17" class="node"><title>Node17</title>
<polygon fill="white" stroke="#bfbfbf" points="1278.5,-0.5 1278.5,-19.5 1327.5,-19.5 1327.5,-0.5 1278.5,-0.5"/>
<text text-anchor="middle" x="1303" y="-7.5" font-family="Helvetica,sans-Serif" font-size="10.00">cassert</text>
</g>
<!-- Node8&#45;&gt;Node17 -->
<g id="edge18" class="edge"><title>Node8&#45;&gt;Node17</title>
<path fill="none" stroke="midnightblue" d="M1303,-56.083C1303,-49.0059 1303,-38.8611 1303,-29.9865"/>
<polygon fill="midnightblue" stroke="midnightblue" points="1306.5,-29.751 1303,-19.7511 1299.5,-29.7511 1306.5,-29.751"/>
</g>
<!-- Node18 -->
<g id="node18" class="node"><title>Node18</title>
<polygon fill="white" stroke="#bfbfbf" points="1346,-0.5 1346,-19.5 1390,-19.5 1390,-0.5 1346,-0.5"/>
<text text-anchor="middle" x="1368" y="-7.5" font-family="Helvetica,sans-Serif" font-size="10.00">cmath</text>
</g>
<!-- Node8&#45;&gt;Node18 -->
<g id="edge19" class="edge"><title>Node8&#45;&gt;Node18</title>
<path fill="none" stroke="midnightblue" d="M1313.44,-56.324C1323.15,-48.2631 1337.82,-36.0765 1349.5,-26.3695"/>
<polygon fill="midnightblue" stroke="midnightblue" points="1351.91,-28.9163 1357.37,-19.8339 1347.44,-23.532 1351.91,-28.9163"/>
</g>
<!-- Node32&#45;&gt;Node10 -->
<g id="edge37" class="edge"><title>Node32&#45;&gt;Node10</title>
<path fill="none" stroke="midnightblue" d="M47.3313,-56.4435C67.3199,-47.5961 98.7431,-33.6875 121.564,-23.5865"/>
<polygon fill="midnightblue" stroke="midnightblue" points="123.032,-26.7645 130.759,-19.5164 120.198,-20.3635 123.032,-26.7645"/>
</g>
<!-- Node32&#45;&gt;Node14 -->
<g id="edge36" class="edge"><title>Node32&#45;&gt;Node14</title>
<path fill="none" stroke="midnightblue" d="M56.3734,-58.3821C60.9127,-57.4789 65.5721,-56.6429 70,-56 273.93,-26.3886 521.151,-15.4102 613.676,-12.1599"/>
<polygon fill="midnightblue" stroke="midnightblue" points="614.052,-15.6491 623.927,-11.8094 613.813,-8.65323 614.052,-15.6491"/>
</g>
</g>
</svg>
