<?xml version="1.0" encoding="UTF-8" standalone="no"?>
<!DOCTYPE svg PUBLIC "-//W3C//DTD SVG 1.1//EN"
 "http://www.w3.org/Graphics/SVG/1.1/DTD/svg11.dtd">
<!-- Generated by graphviz version 2.40.1 (20161225.0304)
 -->
<!-- Title: flcbdfWrappersModule.h Pages: 1 -->
<svg width="1662pt" height="196pt"
 viewBox="0.00 0.00 1662.00 196.00" xmlns="http://www.w3.org/2000/svg" xmlns:xlink="http://www.w3.org/1999/xlink">
<g id="graph0" class="graph" transform="scale(1 1) rotate(0) translate(4 192)">
<title>flcbdfWrappersModule.h</title>
<polygon fill="#ffffff" stroke="transparent" points="-4,4 -4,-192 1658,-192 1658,4 -4,4"/>
<!-- Node0 -->
<g id="node1" class="node">
<title>Node0</title>
<polygon fill="#bfbfbf" stroke="#000000" points="689.5,-168.5 689.5,-187.5 811.5,-187.5 811.5,-168.5 689.5,-168.5"/>
<text text-anchor="middle" x="750.5" y="-175.5" font-family="Helvetica,sans-Serif" font-size="10.00" fill="#000000">flcbdfWrappersModule.h</text>
</g>
<!-- Node1 -->
<g id="node2" class="node">
<title>Node1</title>
<polygon fill="#ffffff" stroke="#bfbfbf" points="0,-112.5 0,-131.5 49,-131.5 49,-112.5 0,-112.5"/>
<text text-anchor="middle" x="24.5" y="-119.5" font-family="Helvetica,sans-Serif" font-size="10.00" fill="#000000">cstddef</text>
</g>
<!-- Node0&#45;&gt;Node1 -->
<g id="edge1" class="edge">
<title>Node0&#45;&gt;Node1</title>
<path fill="none" stroke="#191970" d="M689.4407,-175.7334C547.2662,-170.1746 196.4003,-154.7648 59.4758,-131.949"/>
<polygon fill="#191970" stroke="#191970" points="59.6715,-128.43 49.2174,-130.1507 58.4629,-135.3249 59.6715,-128.43"/>
</g>
<!-- Node2 -->
<g id="node3" class="node">
<title>Node2</title>
<polygon fill="#ffffff" stroke="#bfbfbf" points="67,-112.5 67,-131.5 120,-131.5 120,-112.5 67,-112.5"/>
<text text-anchor="middle" x="93.5" y="-119.5" font-family="Helvetica,sans-Serif" font-size="10.00" fill="#000000">complex</text>
</g>
<!-- Node0&#45;&gt;Node2 -->
<g id="edge2" class="edge">
<title>Node0&#45;&gt;Node2</title>
<path fill="none" stroke="#191970" d="M689.35,-176.764C578.2289,-173.7801 336.0226,-163.8777 134.5,-132 133.0527,-131.7711 131.5812,-131.5168 130.0983,-131.2427"/>
<polygon fill="#191970" stroke="#191970" points="130.7812,-127.8099 120.2781,-129.2012 129.3563,-134.6634 130.7812,-127.8099"/>
</g>
<!-- Node3 -->
<g id="node4" class="node">
<title>Node3</title>
<polygon fill="#ffffff" stroke="#bfbfbf" points="125.5,-56.5 125.5,-75.5 181.5,-75.5 181.5,-56.5 125.5,-56.5"/>
<text text-anchor="middle" x="153.5" y="-63.5" font-family="Helvetica,sans-Serif" font-size="10.00" fill="#000000">Python.h</text>
</g>
<!-- Node0&#45;&gt;Node3 -->
<g id="edge3" class="edge">
<title>Node0&#45;&gt;Node3</title>
<path fill="none" stroke="#191970" d="M689.2788,-175.9379C553.9448,-170.9492 238.0142,-156.7777 196.5,-132 178.9441,-121.5218 167.2283,-100.7733 160.5188,-85.3234"/>
<polygon fill="#191970" stroke="#191970" points="163.6214,-83.6549 156.6633,-75.6651 157.1202,-86.2501 163.6214,-83.6549"/>
</g>
<!-- Node4 -->
<g id="node5" class="node">
<title>Node4</title>
<polygon fill="#ffffff" stroke="#bfbfbf" points="202,-56.5 202,-75.5 307,-75.5 307,-56.5 202,-56.5"/>
<text text-anchor="middle" x="254.5" y="-63.5" font-family="Helvetica,sans-Serif" font-size="10.00" fill="#000000">numpy/arrayobject.h</text>
</g>
<!-- Node0&#45;&gt;Node4 -->
<g id="edge4" class="edge">
<title>Node0&#45;&gt;Node4</title>
<path fill="none" stroke="#191970" d="M689.3018,-177.3924C553.7725,-175.4108 237.709,-167.0421 205.5,-132 190.6766,-115.8727 211.244,-95.3579 230.092,-81.5146"/>
<polygon fill="#191970" stroke="#191970" points="232.29,-84.2492 238.4976,-75.6634 228.2907,-78.5041 232.29,-84.2492"/>
</g>
<!-- Node5 -->
<g id="node6" class="node">
<title>Node5</title>
<g id="a_node6"><a xlink:href="superlu_wrappers_module_8h.html" target="_top" xlink:title="Python interface to superlu. ">
<polygon fill="#ffffff" stroke="#000000" points="380.5,-112.5 380.5,-131.5 510.5,-131.5 510.5,-112.5 380.5,-112.5"/>
<text text-anchor="middle" x="445.5" y="-119.5" font-family="Helvetica,sans-Serif" font-size="10.00" fill="#000000">superluWrappersModule.h</text>
</a>
</g>
</g>
<!-- Node0&#45;&gt;Node5 -->
<g id="edge5" class="edge">
<title>Node0&#45;&gt;Node5</title>
<path fill="none" stroke="#191970" d="M698.4152,-168.4369C645.5588,-158.7321 563.7309,-143.708 507.5491,-133.3926"/>
<polygon fill="#191970" stroke="#191970" points="507.8377,-129.8872 497.37,-131.5237 506.5735,-136.7721 507.8377,-129.8872"/>
</g>
<!-- Node6 -->
<g id="node7" class="node">
<title>Node6</title>
<g id="a_node7"><a xlink:href="cmesh_tools_module_8h.html" target="_top" xlink:title="cmeshToolsModule.h">
<polygon fill="#ffffff" stroke="#000000" points="214.5,-112.5 214.5,-131.5 324.5,-131.5 324.5,-112.5 214.5,-112.5"/>
<text text-anchor="middle" x="269.5" y="-119.5" font-family="Helvetica,sans-Serif" font-size="10.00" fill="#000000">cmeshToolsModule.h</text>
</a>
</g>
</g>
<!-- Node0&#45;&gt;Node6 -->
<g id="edge6" class="edge">
<title>Node0&#45;&gt;Node6</title>
<path fill="none" stroke="#191970" d="M689.3464,-171.804C608.8272,-163.5013 462.8927,-147.9539 338.5,-132 337.3894,-131.8576 336.2691,-131.7124 335.141,-131.5648"/>
<polygon fill="#191970" stroke="#191970" points="335.2164,-128.0436 324.8398,-130.1829 334.2856,-134.9815 335.2164,-128.0436"/>
</g>
<!-- Node7 -->
<g id="node8" class="node">
<title>Node7</title>
<g id="a_node8"><a xlink:href="mesh_8h.html" target="_top" xlink:title="mesh.h">
<polygon fill="#ffffff" stroke="#000000" points="326,-56.5 326,-75.5 375,-75.5 375,-56.5 326,-56.5"/>
<text text-anchor="middle" x="350.5" y="-63.5" font-family="Helvetica,sans-Serif" font-size="10.00" fill="#000000">mesh.h</text>
</a>
</g>
</g>
<!-- Node0&#45;&gt;Node7 -->
<g id="edge20" class="edge">
<title>Node0&#45;&gt;Node7</title>
<path fill="none" stroke="#191970" d="M689.1583,-174.1664C588.1291,-167.3238 395.4592,-151.8455 371.5,-132 358.0698,-120.8757 353.1167,-101.1729 351.3462,-86.1819"/>
<polygon fill="#191970" stroke="#191970" points="354.8069,-85.5477 350.5249,-75.8567 347.8289,-86.1028 354.8069,-85.5477"/>
</g>
<!-- Node18 -->
<g id="node19" class="node">
<title>Node18</title>
<polygon fill="#ffffff" stroke="#bfbfbf" points="529,-112.5 529,-131.5 570,-131.5 570,-112.5 529,-112.5"/>
<text text-anchor="middle" x="549.5" y="-119.5" font-family="Helvetica,sans-Serif" font-size="10.00" fill="#000000">mpi.h</text>
</g>
<!-- Node0&#45;&gt;Node18 -->
<g id="edge21" class="edge">
<title>Node0&#45;&gt;Node18</title>
<path fill="none" stroke="#191970" d="M712.6224,-168.4945C679.888,-160.1274 631.1168,-147.2994 579.7284,-131.9426"/>
<polygon fill="#191970" stroke="#191970" points="580.6903,-128.5771 570.1059,-129.0462 578.6727,-135.28 580.6903,-128.5771"/>
</g>
<!-- Node19 -->
<g id="node20" class="node">
<title>Node19</title>
<polygon fill="#ffffff" stroke="#bfbfbf" points="588.5,-112.5 588.5,-131.5 632.5,-131.5 632.5,-112.5 588.5,-112.5"/>
<text text-anchor="middle" x="610.5" y="-119.5" font-family="Helvetica,sans-Serif" font-size="10.00" fill="#000000">hdf5.h</text>
</g>
<!-- Node0&#45;&gt;Node19 -->
<g id="edge22" class="edge">
<title>Node0&#45;&gt;Node19</title>
<path fill="none" stroke="#191970" d="M726.4331,-168.3733C703.2431,-159.0972 668.0112,-145.0045 642.4737,-134.7895"/>
<polygon fill="#191970" stroke="#191970" points="643.452,-131.4112 632.8673,-130.9469 640.8522,-137.9106 643.452,-131.4112"/>
</g>
<!-- Node20 -->
<g id="node21" class="node">
<title>Node20</title>
<polygon fill="#ffffff" stroke="#bfbfbf" points="651,-112.5 651,-131.5 700,-131.5 700,-112.5 651,-112.5"/>
<text text-anchor="middle" x="675.5" y="-119.5" font-family="Helvetica,sans-Serif" font-size="10.00" fill="#000000">petsc.h</text>
</g>
<!-- Node0&#45;&gt;Node20 -->
<g id="edge23" class="edge">
<title>Node0&#45;&gt;Node20</title>
<path fill="none" stroke="#191970" d="M737.436,-168.2455C726.1438,-159.814 709.6155,-147.4729 696.4729,-137.6598"/>
<polygon fill="#191970" stroke="#191970" points="698.5211,-134.8211 688.4143,-131.6427 694.3331,-140.4301 698.5211,-134.8211"/>
</g>
<!-- Node21 -->
<g id="node22" class="node">
<title>Node21</title>
<polygon fill="#ffffff" stroke="#bfbfbf" points="718,-112.5 718,-131.5 783,-131.5 783,-112.5 718,-112.5"/>
<text text-anchor="middle" x="750.5" y="-119.5" font-family="Helvetica,sans-Serif" font-size="10.00" fill="#000000">petscmat.h</text>
</g>
<!-- Node0&#45;&gt;Node21 -->
<g id="edge24" class="edge">
<title>Node0&#45;&gt;Node21</title>
<path fill="none" stroke="#191970" d="M750.5,-168.2455C750.5,-160.9382 750.5,-150.6944 750.5,-141.7046"/>
<polygon fill="#191970" stroke="#191970" points="754.0001,-141.6426 750.5,-131.6427 747.0001,-141.6427 754.0001,-141.6426"/>
</g>
<!-- Node22 -->
<g id="node23" class="node">
<title>Node22</title>
<polygon fill="#ffffff" stroke="#bfbfbf" points="801,-112.5 801,-131.5 860,-131.5 860,-112.5 801,-112.5"/>
<text text-anchor="middle" x="830.5" y="-119.5" font-family="Helvetica,sans-Serif" font-size="10.00" fill="#000000">petscao.h</text>
</g>
<!-- Node0&#45;&gt;Node22 -->
<g id="edge25" class="edge">
<title>Node0&#45;&gt;Node22</title>
<path fill="none" stroke="#191970" d="M764.4349,-168.2455C776.5947,-159.7337 794.4464,-147.2375 808.5285,-137.3801"/>
<polygon fill="#191970" stroke="#191970" points="810.5395,-140.2447 816.7248,-131.6427 806.5253,-134.51 810.5395,-140.2447"/>
</g>
<!-- Node23 -->
<g id="node24" class="node">
<title>Node23</title>
<polygon fill="#ffffff" stroke="#bfbfbf" points="878,-112.5 878,-131.5 935,-131.5 935,-112.5 878,-112.5"/>
<text text-anchor="middle" x="906.5" y="-119.5" font-family="Helvetica,sans-Serif" font-size="10.00" fill="#000000">petscbt.h</text>
</g>
<!-- Node0&#45;&gt;Node23 -->
<g id="edge26" class="edge">
<title>Node0&#45;&gt;Node23</title>
<path fill="none" stroke="#191970" d="M777.3174,-168.3733C803.0332,-159.1419 842.038,-145.1402 870.4599,-134.9375"/>
<polygon fill="#191970" stroke="#191970" points="871.8032,-138.174 880.0326,-131.5011 869.4381,-131.5857 871.8032,-138.174"/>
</g>
<!-- Node24 -->
<g id="node25" class="node">
<title>Node24</title>
<polygon fill="#ffffff" stroke="#bfbfbf" points="953,-112.5 953,-131.5 1018,-131.5 1018,-112.5 953,-112.5"/>
<text text-anchor="middle" x="985.5" y="-119.5" font-family="Helvetica,sans-Serif" font-size="10.00" fill="#000000">petscksp.h</text>
</g>
<!-- Node0&#45;&gt;Node24 -->
<g id="edge27" class="edge">
<title>Node0&#45;&gt;Node24</title>
<path fill="none" stroke="#191970" d="M791.0187,-168.4723C828.1314,-159.7277 884.864,-146.3157 942.7724,-132.4063"/>
<polygon fill="#191970" stroke="#191970" points="943.9261,-135.7287 952.8309,-129.9881 942.2898,-128.9227 943.9261,-135.7287"/>
</g>
<!-- Node25 -->
<g id="node26" class="node">
<title>Node25</title>
<polygon fill="#ffffff" stroke="#bfbfbf" points="1036.5,-112.5 1036.5,-131.5 1104.5,-131.5 1104.5,-112.5 1036.5,-112.5"/>
<text text-anchor="middle" x="1070.5" y="-119.5" font-family="Helvetica,sans-Serif" font-size="10.00" fill="#000000">petscconf.h</text>
</g>
<!-- Node0&#45;&gt;Node25 -->
<g id="edge28" class="edge">
<title>Node0&#45;&gt;Node25</title>
<path fill="none" stroke="#191970" d="M811.768,-168.9763C865.7259,-160.7679 946.6604,-147.8229 1026.0936,-132.1879"/>
<polygon fill="#191970" stroke="#191970" points="1027.1479,-135.547 1036.2752,-130.1672 1025.7851,-128.6809 1027.1479,-135.547"/>
</g>
<!-- Node26 -->
<g id="node27" class="node">
<title>Node26</title>
<polygon fill="#ffffff" stroke="#bfbfbf" points="1123,-112.5 1123,-131.5 1194,-131.5 1194,-112.5 1123,-112.5"/>
<text text-anchor="middle" x="1158.5" y="-119.5" font-family="Helvetica,sans-Serif" font-size="10.00" fill="#000000">Definitions.h</text>
</g>
<!-- Node0&#45;&gt;Node26 -->
<g id="edge29" class="edge">
<title>Node0&#45;&gt;Node26</title>
<path fill="none" stroke="#191970" d="M811.7742,-171.9858C882.0294,-164.698 1000.8313,-151.1797 1112.5991,-132.0199"/>
<polygon fill="#191970" stroke="#191970" points="1113.4427,-135.426 1122.6982,-130.2697 1112.2473,-128.5288 1113.4427,-135.426"/>
</g>
<!-- Node27 -->
<g id="node28" class="node">
<title>Node27</title>
<polygon fill="#ffffff" stroke="#bfbfbf" points="1212,-112.5 1212,-131.5 1289,-131.5 1289,-112.5 1212,-112.5"/>
<text text-anchor="middle" x="1250.5" y="-119.5" font-family="Helvetica,sans-Serif" font-size="10.00" fill="#000000">FullDataFile.h</text>
</g>
<!-- Node0&#45;&gt;Node27 -->
<g id="edge30" class="edge">
<title>Node0&#45;&gt;Node27</title>
<path fill="none" stroke="#191970" d="M811.5844,-173.9105C896.8958,-167.731 1056.7125,-154.456 1201.8527,-132.1277"/>
<polygon fill="#191970" stroke="#191970" points="1202.4903,-135.5707 1211.833,-130.5743 1201.4137,-128.654 1202.4903,-135.5707"/>
</g>
<!-- Node28 -->
<g id="node29" class="node">
<title>Node28</title>
<polygon fill="#ffffff" stroke="#bfbfbf" points="1307,-112.5 1307,-131.5 1420,-131.5 1420,-112.5 1307,-112.5"/>
<text text-anchor="middle" x="1363.5" y="-119.5" font-family="Helvetica,sans-Serif" font-size="10.00" fill="#000000">WeightedRMSNorm.h</text>
</g>
<!-- Node0&#45;&gt;Node28 -->
<g id="edge31" class="edge">
<title>Node0&#45;&gt;Node28</title>
<path fill="none" stroke="#191970" d="M811.8666,-174.2336C911.5073,-167.8134 1114.8767,-153.444 1296.7926,-132.1396"/>
<polygon fill="#191970" stroke="#191970" points="1297.2906,-135.6052 1306.8111,-130.9567 1296.4697,-128.6535 1297.2906,-135.6052"/>
</g>
<!-- Node29 -->
<g id="node30" class="node">
<title>Node29</title>
<polygon fill="#ffffff" stroke="#bfbfbf" points="1438.5,-112.5 1438.5,-131.5 1520.5,-131.5 1520.5,-112.5 1438.5,-112.5"/>
<text text-anchor="middle" x="1479.5" y="-119.5" font-family="Helvetica,sans-Serif" font-size="10.00" fill="#000000">FLCBDF_lite.h</text>
</g>
<!-- Node0&#45;&gt;Node29 -->
<g id="edge32" class="edge">
<title>Node0&#45;&gt;Node29</title>
<path fill="none" stroke="#191970" d="M811.6304,-176.5151C929.2281,-173.0805 1195.2087,-162.5136 1428.345,-131.9932"/>
<polygon fill="#191970" stroke="#191970" points="1428.9162,-135.4482 1438.3701,-130.6656 1427.9972,-128.5088 1428.9162,-135.4482"/>
</g>
<!-- Node30 -->
<g id="node31" class="node">
<title>Node30</title>
<polygon fill="#ffffff" stroke="#bfbfbf" points="1538.5,-112.5 1538.5,-131.5 1584.5,-131.5 1584.5,-112.5 1538.5,-112.5"/>
<text text-anchor="middle" x="1561.5" y="-119.5" font-family="Helvetica,sans-Serif" font-size="10.00" fill="#000000">stdio.h</text>
</g>
<!-- Node0&#45;&gt;Node30 -->
<g id="edge33" class="edge">
<title>Node0&#45;&gt;Node30</title>
<path fill="none" stroke="#191970" d="M811.7545,-176.3119C966.8753,-171.7351 1373.2606,-157.7868 1527.9857,-131.7978"/>
<polygon fill="#191970" stroke="#191970" points="1529.0067,-135.1718 1538.2463,-129.9873 1527.7903,-128.2783 1529.0067,-135.1718"/>
</g>
<!-- Node31 -->
<g id="node32" class="node">
<title>Node31</title>
<polygon fill="#ffffff" stroke="#bfbfbf" points="1603,-112.5 1603,-131.5 1654,-131.5 1654,-112.5 1603,-112.5"/>
<text text-anchor="middle" x="1628.5" y="-119.5" font-family="Helvetica,sans-Serif" font-size="10.00" fill="#000000">valarray</text>
</g>
<!-- Node0&#45;&gt;Node31 -->
<g id="edge34" class="edge">
<title>Node0&#45;&gt;Node31</title>
<path fill="none" stroke="#191970" d="M811.5346,-176.4426C975.5945,-171.9794 1424.4424,-157.875 1592.6989,-131.7013"/>
<polygon fill="#191970" stroke="#191970" points="1593.3461,-135.1421 1602.6545,-130.0821 1592.2223,-128.2329 1593.3461,-135.1421"/>
</g>
<!-- Node6&#45;&gt;Node3 -->
<g id="edge7" class="edge">
<title>Node6&#45;&gt;Node3</title>
<path fill="none" stroke="#191970" d="M249.5589,-112.3733C231.0214,-103.4241 203.1972,-89.9917 182.2587,-79.8835"/>
<polygon fill="#191970" stroke="#191970" points="183.7081,-76.6967 173.1809,-75.5011 180.6648,-83.0006 183.7081,-76.6967"/>
</g>
<!-- Node6&#45;&gt;Node4 -->
<g id="edge8" class="edge">
<title>Node6&#45;&gt;Node4</title>
<path fill="none" stroke="#191970" d="M266.8872,-112.2455C264.9084,-104.8579 262.1256,-94.4689 259.6988,-85.4087"/>
<polygon fill="#191970" stroke="#191970" points="263.0511,-84.3966 257.0829,-75.6427 256.2895,-86.2078 263.0511,-84.3966"/>
</g>
<!-- Node6&#45;&gt;Node7 -->
<g id="edge9" class="edge">
<title>Node6&#45;&gt;Node7</title>
<path fill="none" stroke="#191970" d="M283.6091,-112.2455C295.9209,-103.7337 313.9958,-91.2375 328.2538,-81.3801"/>
<polygon fill="#191970" stroke="#191970" points="330.3174,-84.2085 336.5526,-75.6427 326.3366,-78.4506 330.3174,-84.2085"/>
</g>
<!-- Node8 -->
<g id="node9" class="node">
<title>Node8</title>
<polygon fill="#ffffff" stroke="#bfbfbf" points="68.5,-.5 68.5,-19.5 98.5,-19.5 98.5,-.5 68.5,-.5"/>
<text text-anchor="middle" x="83.5" y="-7.5" font-family="Helvetica,sans-Serif" font-size="10.00" fill="#000000">set</text>
</g>
<!-- Node7&#45;&gt;Node8 -->
<g id="edge10" class="edge">
<title>Node7&#45;&gt;Node8</title>
<path fill="none" stroke="#191970" d="M325.7287,-58.5682C322.3072,-57.6456 318.8267,-56.7608 315.5,-56 227.0793,-35.7776 199.4133,-45.5021 108.1807,-19.6618"/>
<polygon fill="#191970" stroke="#191970" points="109.1301,-16.293 98.5511,-16.871 107.1815,-23.0164 109.1301,-16.293"/>
</g>
<!-- Node9 -->
<g id="node10" class="node">
<title>Node9</title>
<polygon fill="#ffffff" stroke="#bfbfbf" points="116.5,-.5 116.5,-19.5 160.5,-19.5 160.5,-.5 116.5,-.5"/>
<text text-anchor="middle" x="138.5" y="-7.5" font-family="Helvetica,sans-Serif" font-size="10.00" fill="#000000">vector</text>
</g>
<!-- Node7&#45;&gt;Node9 -->
<g id="edge11" class="edge">
<title>Node7&#45;&gt;Node9</title>
<path fill="none" stroke="#191970" d="M325.6748,-58.786C322.2617,-57.8296 318.7978,-56.8774 315.5,-56 253.9418,-39.6225 235.4966,-38.358 170.7009,-20.2033"/>
<polygon fill="#191970" stroke="#191970" points="171.3692,-16.755 160.7939,-17.3984 169.4622,-23.4903 171.3692,-16.755"/>
</g>
<!-- Node10 -->
<g id="node11" class="node">
<title>Node10</title>
<polygon fill="#ffffff" stroke="#bfbfbf" points="178.5,-.5 178.5,-19.5 234.5,-19.5 234.5,-.5 178.5,-.5"/>
<text text-anchor="middle" x="206.5" y="-7.5" font-family="Helvetica,sans-Serif" font-size="10.00" fill="#000000">algorithm</text>
</g>
<!-- Node7&#45;&gt;Node10 -->
<g id="edge12" class="edge">
<title>Node7&#45;&gt;Node10</title>
<path fill="none" stroke="#191970" d="M325.7455,-56.3733C302.2151,-47.2226 266.6313,-33.3844 240.4574,-23.2057"/>
<polygon fill="#191970" stroke="#191970" points="241.5201,-19.8636 230.9315,-19.5011 238.9829,-26.3877 241.5201,-19.8636"/>
</g>
<!-- Node11 -->
<g id="node12" class="node">
<title>Node11</title>
<polygon fill="#ffffff" stroke="#bfbfbf" points="253,-.5 253,-19.5 288,-19.5 288,-.5 253,-.5"/>
<text text-anchor="middle" x="270.5" y="-7.5" font-family="Helvetica,sans-Serif" font-size="10.00" fill="#000000">map</text>
</g>
<!-- Node7&#45;&gt;Node11 -->
<g id="edge13" class="edge">
<title>Node7&#45;&gt;Node11</title>
<path fill="none" stroke="#191970" d="M336.5651,-56.2455C324.4053,-47.7337 306.5536,-35.2375 292.4715,-25.3801"/>
<polygon fill="#191970" stroke="#191970" points="294.4747,-22.51 284.2752,-19.6427 290.4605,-28.2447 294.4747,-22.51"/>
</g>
<!-- Node12 -->
<g id="node13" class="node">
<title>Node12</title>
<polygon fill="#ffffff" stroke="#bfbfbf" points="306,-.5 306,-19.5 335,-19.5 335,-.5 306,-.5"/>
<text text-anchor="middle" x="320.5" y="-7.5" font-family="Helvetica,sans-Serif" font-size="10.00" fill="#000000">list</text>
</g>
<!-- Node7&#45;&gt;Node12 -->
<g id="edge14" class="edge">
<title>Node7&#45;&gt;Node12</title>
<path fill="none" stroke="#191970" d="M345.2744,-56.2455C341.1877,-48.617 335.3865,-37.7881 330.425,-28.5267"/>
<polygon fill="#191970" stroke="#191970" points="333.4732,-26.8047 325.6657,-19.6427 327.3028,-30.1103 333.4732,-26.8047"/>
</g>
<!-- Node13 -->
<g id="node14" class="node">
<title>Node13</title>
<polygon fill="#ffffff" stroke="#bfbfbf" points="353.5,-.5 353.5,-19.5 407.5,-19.5 407.5,-.5 353.5,-.5"/>
<text text-anchor="middle" x="380.5" y="-7.5" font-family="Helvetica,sans-Serif" font-size="10.00" fill="#000000">iostream</text>
</g>
<!-- Node7&#45;&gt;Node13 -->
<g id="edge15" class="edge">
<title>Node7&#45;&gt;Node13</title>
<path fill="none" stroke="#191970" d="M355.7256,-56.2455C359.8123,-48.617 365.6135,-37.7881 370.575,-28.5267"/>
<polygon fill="#191970" stroke="#191970" points="373.6972,-30.1103 375.3343,-19.6427 367.5268,-26.8047 373.6972,-30.1103"/>
</g>
<!-- Node14 -->
<g id="node15" class="node">
<title>Node14</title>
<polygon fill="#ffffff" stroke="#bfbfbf" points="425.5,-.5 425.5,-19.5 475.5,-19.5 475.5,-.5 425.5,-.5"/>
<text text-anchor="middle" x="450.5" y="-7.5" font-family="Helvetica,sans-Serif" font-size="10.00" fill="#000000">iomanip</text>
</g>
<!-- Node7&#45;&gt;Node14 -->
<g id="edge16" class="edge">
<title>Node7&#45;&gt;Node14</title>
<path fill="none" stroke="#191970" d="M367.9187,-56.2455C383.5485,-47.4928 406.7019,-34.527 424.5185,-24.5496"/>
<polygon fill="#191970" stroke="#191970" points="426.266,-27.5825 433.2809,-19.6427 422.8457,-21.475 426.266,-27.5825"/>
</g>
<!-- Node15 -->
<g id="node16" class="node">
<title>Node15</title>
<polygon fill="#ffffff" stroke="#bfbfbf" points="493.5,-.5 493.5,-19.5 543.5,-19.5 543.5,-.5 493.5,-.5"/>
<text text-anchor="middle" x="518.5" y="-7.5" font-family="Helvetica,sans-Serif" font-size="10.00" fill="#000000">fstream</text>
</g>
<!-- Node7&#45;&gt;Node15 -->
<g id="edge17" class="edge">
<title>Node7&#45;&gt;Node15</title>
<path fill="none" stroke="#191970" d="M375.289,-57.737C403.9916,-48.1695 451.4607,-32.3464 483.816,-21.5613"/>
<polygon fill="#191970" stroke="#191970" points="484.9545,-24.8712 493.3345,-18.3885 482.7409,-18.2304 484.9545,-24.8712"/>
</g>
<!-- Node16 -->
<g id="node17" class="node">
<title>Node16</title>
<polygon fill="#ffffff" stroke="#bfbfbf" points="562,-.5 562,-19.5 611,-19.5 611,-.5 562,-.5"/>
<text text-anchor="middle" x="586.5" y="-7.5" font-family="Helvetica,sans-Serif" font-size="10.00" fill="#000000">cassert</text>
</g>
<!-- Node7&#45;&gt;Node16 -->
<g id="edge18" class="edge">
<title>Node7&#45;&gt;Node16</title>
<path fill="none" stroke="#191970" d="M375.1845,-60.896C411.6525,-53.2445 482.264,-38.0063 551.8577,-20.0487"/>
<polygon fill="#191970" stroke="#191970" points="552.8703,-23.4019 561.6672,-17.4973 551.1082,-16.6273 552.8703,-23.4019"/>
</g>
<!-- Node17 -->
<g id="node18" class="node">
<title>Node17</title>
<polygon fill="#ffffff" stroke="#bfbfbf" points="629.5,-.5 629.5,-19.5 673.5,-19.5 673.5,-.5 629.5,-.5"/>
<text text-anchor="middle" x="651.5" y="-7.5" font-family="Helvetica,sans-Serif" font-size="10.00" fill="#000000">cmath</text>
</g>
<!-- Node7&#45;&gt;Node17 -->
<g id="edge19" class="edge">
<title>Node7&#45;&gt;Node17</title>
<path fill="none" stroke="#191970" d="M375.3129,-62.9834C421.5796,-57.1015 524.2482,-42.8393 619.476,-19.9815"/>
<polygon fill="#191970" stroke="#191970" points="620.3723,-23.3656 629.2584,-17.5961 618.7139,-16.5649 620.3723,-23.3656"/>
</g>
</g>
</svg>
