<?xml version="1.0" encoding="UTF-8" standalone="no"?>
<!DOCTYPE svg PUBLIC "-//W3C//DTD SVG 1.1//EN"
 "http://www.w3.org/Graphics/SVG/1.1/DTD/svg11.dtd">
<!-- Generated by graphviz version 2.38.0 (20140413.2041)
 -->
<!-- Title: flcbdfWrappersModule.h Pages: 1 -->
<svg width="1531pt" height="196pt"
 viewBox="0.00 0.00 1530.50 196.00" xmlns="http://www.w3.org/2000/svg" xmlns:xlink="http://www.w3.org/1999/xlink">
<g id="graph0" class="graph" transform="scale(1 1) rotate(0) translate(4 192)">
<title>flcbdfWrappersModule.h</title>
<polygon fill="white" stroke="none" points="-4,4 -4,-192 1526.5,-192 1526.5,4 -4,4"/>
<!-- Node1 -->
<g id="node1" class="node"><title>Node1</title>
<polygon fill="#bfbfbf" stroke="black" points="638,-168.5 638,-187.5 760,-187.5 760,-168.5 638,-168.5"/>
<text text-anchor="middle" x="699" y="-175.5" font-family="Helvetica,sans-Serif" font-size="10.00">flcbdfWrappersModule.h</text>
</g>
<!-- Node2 -->
<g id="node2" class="node"><title>Node2</title>
<polygon fill="white" stroke="#bfbfbf" points="2.5,-112.5 2.5,-131.5 51.5,-131.5 51.5,-112.5 2.5,-112.5"/>
<text text-anchor="middle" x="27" y="-119.5" font-family="Helvetica,sans-Serif" font-size="10.00">cstddef</text>
</g>
<!-- Node1&#45;&gt;Node2 -->
<g id="edge1" class="edge"><title>Node1&#45;&gt;Node2</title>
<path fill="none" stroke="midnightblue" d="M637.991,-175.818C524.695,-172.926 274.375,-163.255 66,-132 64.5397,-131.781 63.0531,-131.536 61.5547,-131.272"/>
<polygon fill="midnightblue" stroke="midnightblue" points="62.1374,-127.819 51.6463,-129.298 60.77,-134.684 62.1374,-127.819"/>
</g>
<!-- Node3 -->
<g id="node3" class="node"><title>Node3</title>
<polygon fill="white" stroke="#bfbfbf" points="53,-56.5 53,-75.5 109,-75.5 109,-56.5 53,-56.5"/>
<text text-anchor="middle" x="81" y="-63.5" font-family="Helvetica,sans-Serif" font-size="10.00">Python.h</text>
</g>
<!-- Node1&#45;&gt;Node3 -->
<g id="edge2" class="edge"><title>Node1&#45;&gt;Node3</title>
<path fill="none" stroke="midnightblue" d="M637.806,-175.067C499.539,-170.289 171.622,-156.498 128,-132 109.453,-121.584 96.306,-100.456 88.7181,-85.1083"/>
<polygon fill="midnightblue" stroke="midnightblue" points="91.7093,-83.2352 84.355,-75.6086 85.3482,-86.1568 91.7093,-83.2352"/>
</g>
<!-- Node4 -->
<g id="node4" class="node"><title>Node4</title>
<polygon fill="white" stroke="#bfbfbf" points="129.5,-56.5 129.5,-75.5 234.5,-75.5 234.5,-56.5 129.5,-56.5"/>
<text text-anchor="middle" x="182" y="-63.5" font-family="Helvetica,sans-Serif" font-size="10.00">numpy/arrayobject.h</text>
</g>
<!-- Node1&#45;&gt;Node4 -->
<g id="edge3" class="edge"><title>Node1&#45;&gt;Node4</title>
<path fill="none" stroke="midnightblue" d="M637.979,-176.676C499.423,-175.306 170.446,-168.231 137,-132 122.439,-116.226 142.468,-95.4641 160.255,-81.6968"/>
<polygon fill="midnightblue" stroke="midnightblue" points="162.646,-84.2845 168.646,-75.5527 158.51,-78.6368 162.646,-84.2845"/>
</g>
<!-- Node5 -->
<g id="node5" class="node"><title>Node5</title>
<g id="a_node5"><a xlink:href="superlu_wrappers_module_8h.html" target="_top" xlink:title="Python interface to superlu. ">
<polygon fill="white" stroke="black" points="312,-112.5 312,-131.5 442,-131.5 442,-112.5 312,-112.5"/>
<text text-anchor="middle" x="377" y="-119.5" font-family="Helvetica,sans-Serif" font-size="10.00">superluWrappersModule.h</text>
</a>
</g>
</g>
<!-- Node1&#45;&gt;Node5 -->
<g id="edge4" class="edge"><title>Node1&#45;&gt;Node5</title>
<path fill="none" stroke="midnightblue" d="M647.978,-168.444C590.982,-158.885 498.761,-143.419 438,-133.23"/>
<polygon fill="midnightblue" stroke="midnightblue" points="438.224,-129.719 427.783,-131.516 437.067,-136.622 438.224,-129.719"/>
</g>
<!-- Node6 -->
<g id="node6" class="node"><title>Node6</title>
<g id="a_node6"><a xlink:href="cmesh_tools_module_8h.html" target="_top" xlink:title="cmeshToolsModule.h">
<polygon fill="white" stroke="black" points="146,-112.5 146,-131.5 256,-131.5 256,-112.5 146,-112.5"/>
<text text-anchor="middle" x="201" y="-119.5" font-family="Helvetica,sans-Serif" font-size="10.00">cmeshToolsModule.h</text>
</a>
</g>
</g>
<!-- Node1&#45;&gt;Node6 -->
<g id="edge5" class="edge"><title>Node1&#45;&gt;Node6</title>
<path fill="none" stroke="midnightblue" d="M637.85,-171.075C554.582,-162.894 400.9,-147.4 270,-132 268.89,-131.869 267.771,-131.737 266.643,-131.602"/>
<polygon fill="midnightblue" stroke="midnightblue" points="266.697,-128.082 256.346,-130.344 265.848,-135.031 266.697,-128.082"/>
</g>
<!-- Node7 -->
<g id="node7" class="node"><title>Node7</title>
<g id="a_node7"><a xlink:href="mesh_8h.html" target="_top" xlink:title="mesh.h">
<polygon fill="white" stroke="black" points="257.5,-56.5 257.5,-75.5 306.5,-75.5 306.5,-56.5 257.5,-56.5"/>
<text text-anchor="middle" x="282" y="-63.5" font-family="Helvetica,sans-Serif" font-size="10.00">mesh.h</text>
</a>
</g>
</g>
<!-- Node1&#45;&gt;Node7 -->
<g id="edge19" class="edge"><title>Node1&#45;&gt;Node7</title>
<path fill="none" stroke="midnightblue" d="M637.934,-177.886C539.783,-178.053 352.87,-172.803 303,-132 289.396,-120.869 284.505,-100.838 282.799,-85.9446"/>
<polygon fill="midnightblue" stroke="midnightblue" points="286.274,-85.4932 282.022,-75.789 279.295,-86.0266 286.274,-85.4932"/>
</g>
<!-- Node18 -->
<g id="node18" class="node"><title>Node18</title>
<polygon fill="white" stroke="#bfbfbf" points="460.5,-112.5 460.5,-131.5 501.5,-131.5 501.5,-112.5 460.5,-112.5"/>
<text text-anchor="middle" x="481" y="-119.5" font-family="Helvetica,sans-Serif" font-size="10.00">mpi.h</text>
</g>
<!-- Node1&#45;&gt;Node18 -->
<g id="edge20" class="edge"><title>Node1&#45;&gt;Node18</title>
<path fill="none" stroke="midnightblue" d="M660.673,-168.494C624.652,-160.351 569.026,-147.398 511.595,-132.04"/>
<polygon fill="midnightblue" stroke="midnightblue" points="512.179,-128.573 501.613,-129.351 510.358,-135.332 512.179,-128.573"/>
</g>
<!-- Node19 -->
<g id="node19" class="node"><title>Node19</title>
<polygon fill="white" stroke="#bfbfbf" points="519.5,-112.5 519.5,-131.5 568.5,-131.5 568.5,-112.5 519.5,-112.5"/>
<text text-anchor="middle" x="544" y="-119.5" font-family="Helvetica,sans-Serif" font-size="10.00">petsc.h</text>
</g>
<!-- Node1&#45;&gt;Node19 -->
<g id="edge21" class="edge"><title>Node1&#45;&gt;Node19</title>
<path fill="none" stroke="midnightblue" d="M674.44,-168.444C648.477,-159.399 607.332,-145.064 578.203,-134.916"/>
<polygon fill="midnightblue" stroke="midnightblue" points="579.04,-131.501 568.445,-131.516 576.737,-138.112 579.04,-131.501"/>
</g>
<!-- Node20 -->
<g id="node20" class="node"><title>Node20</title>
<polygon fill="white" stroke="#bfbfbf" points="586.5,-112.5 586.5,-131.5 651.5,-131.5 651.5,-112.5 586.5,-112.5"/>
<text text-anchor="middle" x="619" y="-119.5" font-family="Helvetica,sans-Serif" font-size="10.00">petscmat.h</text>
</g>
<!-- Node1&#45;&gt;Node20 -->
<g id="edge22" class="edge"><title>Node1&#45;&gt;Node20</title>
<path fill="none" stroke="midnightblue" d="M686.147,-168.324C673.784,-159.979 654.87,-147.212 640.263,-137.352"/>
<polygon fill="midnightblue" stroke="midnightblue" points="642.068,-134.348 631.821,-131.655 638.152,-140.15 642.068,-134.348"/>
</g>
<!-- Node21 -->
<g id="node21" class="node"><title>Node21</title>
<polygon fill="white" stroke="#bfbfbf" points="669.5,-112.5 669.5,-131.5 728.5,-131.5 728.5,-112.5 669.5,-112.5"/>
<text text-anchor="middle" x="699" y="-119.5" font-family="Helvetica,sans-Serif" font-size="10.00">petscao.h</text>
</g>
<!-- Node1&#45;&gt;Node21 -->
<g id="edge23" class="edge"><title>Node1&#45;&gt;Node21</title>
<path fill="none" stroke="midnightblue" d="M699,-168.083C699,-161.006 699,-150.861 699,-141.986"/>
<polygon fill="midnightblue" stroke="midnightblue" points="702.5,-141.751 699,-131.751 695.5,-141.751 702.5,-141.751"/>
</g>
<!-- Node22 -->
<g id="node22" class="node"><title>Node22</title>
<polygon fill="white" stroke="#bfbfbf" points="746.5,-112.5 746.5,-131.5 803.5,-131.5 803.5,-112.5 746.5,-112.5"/>
<text text-anchor="middle" x="775" y="-119.5" font-family="Helvetica,sans-Serif" font-size="10.00">petscbt.h</text>
</g>
<!-- Node1&#45;&gt;Node22 -->
<g id="edge24" class="edge"><title>Node1&#45;&gt;Node22</title>
<path fill="none" stroke="midnightblue" d="M711.211,-168.324C722.776,-160.107 740.375,-147.602 754.161,-137.807"/>
<polygon fill="midnightblue" stroke="midnightblue" points="756.443,-140.479 762.567,-131.834 752.388,-134.773 756.443,-140.479"/>
</g>
<!-- Node23 -->
<g id="node23" class="node"><title>Node23</title>
<polygon fill="white" stroke="#bfbfbf" points="821.5,-112.5 821.5,-131.5 886.5,-131.5 886.5,-112.5 821.5,-112.5"/>
<text text-anchor="middle" x="854" y="-119.5" font-family="Helvetica,sans-Serif" font-size="10.00">petscksp.h</text>
</g>
<!-- Node1&#45;&gt;Node23 -->
<g id="edge25" class="edge"><title>Node1&#45;&gt;Node23</title>
<path fill="none" stroke="midnightblue" d="M723.56,-168.444C749.523,-159.399 790.668,-145.064 819.797,-134.916"/>
<polygon fill="midnightblue" stroke="midnightblue" points="821.263,-138.112 829.555,-131.516 818.96,-131.501 821.263,-138.112"/>
</g>
<!-- Node24 -->
<g id="node24" class="node"><title>Node24</title>
<polygon fill="white" stroke="#bfbfbf" points="905,-112.5 905,-131.5 973,-131.5 973,-112.5 905,-112.5"/>
<text text-anchor="middle" x="939" y="-119.5" font-family="Helvetica,sans-Serif" font-size="10.00">petscconf.h</text>
</g>
<!-- Node1&#45;&gt;Node24 -->
<g id="edge26" class="edge"><title>Node1&#45;&gt;Node24</title>
<path fill="none" stroke="midnightblue" d="M737.029,-168.444C779.914,-158.794 849.556,-143.125 894.819,-132.941"/>
<polygon fill="midnightblue" stroke="midnightblue" points="895.661,-136.339 904.649,-130.729 894.124,-129.51 895.661,-136.339"/>
</g>
<!-- Node25 -->
<g id="node25" class="node"><title>Node25</title>
<polygon fill="white" stroke="#bfbfbf" points="991.5,-112.5 991.5,-131.5 1062.5,-131.5 1062.5,-112.5 991.5,-112.5"/>
<text text-anchor="middle" x="1027" y="-119.5" font-family="Helvetica,sans-Serif" font-size="10.00">Definitions.h</text>
</g>
<!-- Node1&#45;&gt;Node25 -->
<g id="edge27" class="edge"><title>Node1&#45;&gt;Node25</title>
<path fill="none" stroke="midnightblue" d="M756.837,-168.491C811.932,-160.229 897.445,-147.003 981.222,-132.081"/>
<polygon fill="midnightblue" stroke="midnightblue" points="981.937,-135.509 991.163,-130.301 980.703,-128.618 981.937,-135.509"/>
</g>
<!-- Node26 -->
<g id="node26" class="node"><title>Node26</title>
<polygon fill="white" stroke="#bfbfbf" points="1080.5,-112.5 1080.5,-131.5 1157.5,-131.5 1157.5,-112.5 1080.5,-112.5"/>
<text text-anchor="middle" x="1119" y="-119.5" font-family="Helvetica,sans-Serif" font-size="10.00">FullDataFile.h</text>
</g>
<!-- Node1&#45;&gt;Node26 -->
<g id="edge28" class="edge"><title>Node1&#45;&gt;Node26</title>
<path fill="none" stroke="midnightblue" d="M760.235,-170.925C832.184,-163.493 955.375,-149.853 1070.28,-132.184"/>
<polygon fill="midnightblue" stroke="midnightblue" points="1070.96,-135.62 1080.31,-130.629 1069.89,-128.703 1070.96,-135.62"/>
</g>
<!-- Node27 -->
<g id="node27" class="node"><title>Node27</title>
<polygon fill="white" stroke="#bfbfbf" points="1175.5,-112.5 1175.5,-131.5 1288.5,-131.5 1288.5,-112.5 1175.5,-112.5"/>
<text text-anchor="middle" x="1232" y="-119.5" font-family="Helvetica,sans-Serif" font-size="10.00">WeightedRMSNorm.h</text>
</g>
<!-- Node1&#45;&gt;Node27 -->
<g id="edge29" class="edge"><title>Node1&#45;&gt;Node27</title>
<path fill="none" stroke="midnightblue" d="M760.04,-171.949C847.542,-164.527 1013.93,-149.74 1165.35,-132.155"/>
<polygon fill="midnightblue" stroke="midnightblue" points="1165.77,-135.63 1175.3,-130.993 1164.96,-128.677 1165.77,-135.63"/>
</g>
<!-- Node28 -->
<g id="node28" class="node"><title>Node28</title>
<polygon fill="white" stroke="#bfbfbf" points="1307,-112.5 1307,-131.5 1389,-131.5 1389,-112.5 1307,-112.5"/>
<text text-anchor="middle" x="1348" y="-119.5" font-family="Helvetica,sans-Serif" font-size="10.00">FLCBDF_lite.h</text>
</g>
<!-- Node1&#45;&gt;Node28 -->
<g id="edge30" class="edge"><title>Node1&#45;&gt;Node28</title>
<path fill="none" stroke="midnightblue" d="M760.003,-174.497C866.745,-169.663 1094.49,-157.326 1296.64,-132.045"/>
<polygon fill="midnightblue" stroke="midnightblue" points="1297.37,-135.48 1306.85,-130.754 1296.49,-128.536 1297.37,-135.48"/>
</g>
<!-- Node29 -->
<g id="node29" class="node"><title>Node29</title>
<polygon fill="white" stroke="#bfbfbf" points="1407,-112.5 1407,-131.5 1453,-131.5 1453,-112.5 1407,-112.5"/>
<text text-anchor="middle" x="1430" y="-119.5" font-family="Helvetica,sans-Serif" font-size="10.00">stdio.h</text>
</g>
<!-- Node1&#45;&gt;Node29 -->
<g id="edge31" class="edge"><title>Node1&#45;&gt;Node29</title>
<path fill="none" stroke="midnightblue" d="M760.275,-177.354C880.817,-177.119 1157.17,-171.979 1396.77,-131.849"/>
<polygon fill="midnightblue" stroke="midnightblue" points="1397.44,-135.286 1406.71,-130.16 1396.27,-128.384 1397.44,-135.286"/>
</g>
<!-- Node30 -->
<g id="node30" class="node"><title>Node30</title>
<polygon fill="white" stroke="#bfbfbf" points="1471.5,-112.5 1471.5,-131.5 1522.5,-131.5 1522.5,-112.5 1471.5,-112.5"/>
<text text-anchor="middle" x="1497" y="-119.5" font-family="Helvetica,sans-Serif" font-size="10.00">valarray</text>
</g>
<!-- Node1&#45;&gt;Node30 -->
<g id="edge32" class="edge"><title>Node1&#45;&gt;Node30</title>
<path fill="none" stroke="midnightblue" d="M760.252,-177.374C888.679,-177.299 1195.49,-172.607 1460.9,-131.838"/>
<polygon fill="midnightblue" stroke="midnightblue" points="1461.78,-135.244 1471.12,-130.247 1460.7,-128.327 1461.78,-135.244"/>
</g>
<!-- Node6&#45;&gt;Node3 -->
<g id="edge6" class="edge"><title>Node6&#45;&gt;Node3</title>
<path fill="none" stroke="midnightblue" d="M181.986,-112.444C162.412,-103.636 131.692,-89.8116 109.271,-79.722"/>
<polygon fill="midnightblue" stroke="midnightblue" points="110.481,-76.4284 99.9254,-75.5164 107.608,-82.8119 110.481,-76.4284"/>
</g>
<!-- Node6&#45;&gt;Node4 -->
<g id="edge7" class="edge"><title>Node6&#45;&gt;Node4</title>
<path fill="none" stroke="midnightblue" d="M197.863,-112.083C195.317,-104.849 191.644,-94.4087 188.473,-85.3968"/>
<polygon fill="midnightblue" stroke="midnightblue" points="191.7,-84.0225 185.079,-75.7511 185.097,-86.3459 191.7,-84.0225"/>
</g>
<!-- Node6&#45;&gt;Node7 -->
<g id="edge8" class="edge"><title>Node6&#45;&gt;Node7</title>
<path fill="none" stroke="midnightblue" d="M214.014,-112.324C226.532,-103.979 245.682,-91.2122 260.471,-81.3524"/>
<polygon fill="midnightblue" stroke="midnightblue" points="262.639,-84.1137 269.018,-75.6545 258.756,-78.2894 262.639,-84.1137"/>
</g>
<!-- Node8 -->
<g id="node8" class="node"><title>Node8</title>
<polygon fill="white" stroke="#bfbfbf" points="0,-0.5 0,-19.5 30,-19.5 30,-0.5 0,-0.5"/>
<text text-anchor="middle" x="15" y="-7.5" font-family="Helvetica,sans-Serif" font-size="10.00">set</text>
</g>
<!-- Node7&#45;&gt;Node8 -->
<g id="edge9" class="edge"><title>Node7&#45;&gt;Node8</title>
<path fill="none" stroke="midnightblue" d="M257.285,-59.092C252.552,-58.0188 247.63,-56.9422 243,-56 155.865,-38.2701 129.595,-43.8427 39.867,-19.8073"/>
<polygon fill="midnightblue" stroke="midnightblue" points="40.6654,-16.3973 30.0968,-17.1419 38.8231,-23.1505 40.6654,-16.3973"/>
</g>
<!-- Node9 -->
<g id="node9" class="node"><title>Node9</title>
<polygon fill="white" stroke="#bfbfbf" points="48,-0.5 48,-19.5 92,-19.5 92,-0.5 48,-0.5"/>
<text text-anchor="middle" x="70" y="-7.5" font-family="Helvetica,sans-Serif" font-size="10.00">vector</text>
</g>
<!-- Node7&#45;&gt;Node9 -->
<g id="edge10" class="edge"><title>Node7&#45;&gt;Node9</title>
<path fill="none" stroke="midnightblue" d="M257.33,-59.188C224.193,-51.3121 163.253,-36.586 102.129,-20.231"/>
<polygon fill="midnightblue" stroke="midnightblue" points="102.888,-16.8107 92.3219,-17.5929 101.07,-23.5704 102.888,-16.8107"/>
</g>
<!-- Node10 -->
<g id="node10" class="node"><title>Node10</title>
<polygon fill="white" stroke="#bfbfbf" points="110,-0.5 110,-19.5 166,-19.5 166,-0.5 110,-0.5"/>
<text text-anchor="middle" x="138" y="-7.5" font-family="Helvetica,sans-Serif" font-size="10.00">algorithm</text>
</g>
<!-- Node7&#45;&gt;Node10 -->
<g id="edge11" class="edge"><title>Node7&#45;&gt;Node10</title>
<path fill="none" stroke="midnightblue" d="M259.183,-56.4435C235.168,-47.4381 197.171,-33.1891 170.131,-23.049"/>
<polygon fill="midnightblue" stroke="midnightblue" points="171.303,-19.7506 160.71,-19.5164 168.845,-26.3049 171.303,-19.7506"/>
</g>
<!-- Node11 -->
<g id="node11" class="node"><title>Node11</title>
<polygon fill="white" stroke="#bfbfbf" points="184.5,-0.5 184.5,-19.5 219.5,-19.5 219.5,-0.5 184.5,-0.5"/>
<text text-anchor="middle" x="202" y="-7.5" font-family="Helvetica,sans-Serif" font-size="10.00">map</text>
</g>
<!-- Node7&#45;&gt;Node11 -->
<g id="edge12" class="edge"><title>Node7&#45;&gt;Node11</title>
<path fill="none" stroke="midnightblue" d="M269.147,-56.324C256.784,-47.979 237.87,-35.2122 223.263,-25.3524"/>
<polygon fill="midnightblue" stroke="midnightblue" points="225.068,-22.3483 214.821,-19.6545 221.152,-28.1503 225.068,-22.3483"/>
</g>
<!-- Node12 -->
<g id="node12" class="node"><title>Node12</title>
<polygon fill="white" stroke="#bfbfbf" points="237.5,-0.5 237.5,-19.5 266.5,-19.5 266.5,-0.5 237.5,-0.5"/>
<text text-anchor="middle" x="252" y="-7.5" font-family="Helvetica,sans-Serif" font-size="10.00">list</text>
</g>
<!-- Node7&#45;&gt;Node12 -->
<g id="edge13" class="edge"><title>Node7&#45;&gt;Node12</title>
<path fill="none" stroke="midnightblue" d="M277.046,-56.083C272.896,-48.6127 266.847,-37.7244 261.733,-28.5199"/>
<polygon fill="midnightblue" stroke="midnightblue" points="264.778,-26.7929 256.862,-19.7511 258.659,-30.1924 264.778,-26.7929"/>
</g>
<!-- Node13 -->
<g id="node13" class="node"><title>Node13</title>
<polygon fill="white" stroke="#bfbfbf" points="285,-0.5 285,-19.5 339,-19.5 339,-0.5 285,-0.5"/>
<text text-anchor="middle" x="312" y="-7.5" font-family="Helvetica,sans-Serif" font-size="10.00">iostream</text>
</g>
<!-- Node7&#45;&gt;Node13 -->
<g id="edge14" class="edge"><title>Node7&#45;&gt;Node13</title>
<path fill="none" stroke="midnightblue" d="M286.954,-56.083C291.104,-48.6127 297.153,-37.7244 302.267,-28.5199"/>
<polygon fill="midnightblue" stroke="midnightblue" points="305.341,-30.1924 307.138,-19.7511 299.222,-26.7929 305.341,-30.1924"/>
</g>
<!-- Node14 -->
<g id="node14" class="node"><title>Node14</title>
<polygon fill="white" stroke="#bfbfbf" points="357,-0.5 357,-19.5 407,-19.5 407,-0.5 357,-0.5"/>
<text text-anchor="middle" x="382" y="-7.5" font-family="Helvetica,sans-Serif" font-size="10.00">iomanip</text>
</g>
<!-- Node7&#45;&gt;Node14 -->
<g id="edge15" class="edge"><title>Node7&#45;&gt;Node14</title>
<path fill="none" stroke="midnightblue" d="M298.067,-56.324C313.958,-47.7428 338.507,-34.486 356.958,-24.5224"/>
<polygon fill="midnightblue" stroke="midnightblue" points="358.837,-27.4857 365.973,-19.6545 355.511,-21.3264 358.837,-27.4857"/>
</g>
<!-- Node15 -->
<g id="node15" class="node"><title>Node15</title>
<polygon fill="white" stroke="#bfbfbf" points="425,-0.5 425,-19.5 475,-19.5 475,-0.5 425,-0.5"/>
<text text-anchor="middle" x="450" y="-7.5" font-family="Helvetica,sans-Serif" font-size="10.00">fstream</text>
</g>
<!-- Node7&#45;&gt;Node15 -->
<g id="edge16" class="edge"><title>Node7&#45;&gt;Node15</title>
<path fill="none" stroke="midnightblue" d="M306.789,-57.0321C335.368,-47.846 382.552,-32.6798 414.897,-22.2832"/>
<polygon fill="midnightblue" stroke="midnightblue" points="416.385,-25.4812 424.835,-19.0889 414.243,-18.817 416.385,-25.4812"/>
</g>
<!-- Node16 -->
<g id="node16" class="node"><title>Node16</title>
<polygon fill="white" stroke="#bfbfbf" points="493.5,-0.5 493.5,-19.5 542.5,-19.5 542.5,-0.5 493.5,-0.5"/>
<text text-anchor="middle" x="518" y="-7.5" font-family="Helvetica,sans-Serif" font-size="10.00">cassert</text>
</g>
<!-- Node7&#45;&gt;Node16 -->
<g id="edge17" class="edge"><title>Node7&#45;&gt;Node16</title>
<path fill="none" stroke="midnightblue" d="M306.638,-59.8401C343.047,-52.1443 413.582,-36.9658 483.316,-20.0919"/>
<polygon fill="midnightblue" stroke="midnightblue" points="484.257,-23.465 493.147,-17.7003 482.603,-16.6634 484.257,-23.465"/>
</g>
<!-- Node17 -->
<g id="node17" class="node"><title>Node17</title>
<polygon fill="white" stroke="#bfbfbf" points="561,-0.5 561,-19.5 605,-19.5 605,-0.5 561,-0.5"/>
<text text-anchor="middle" x="583" y="-7.5" font-family="Helvetica,sans-Serif" font-size="10.00">cmath</text>
</g>
<!-- Node7&#45;&gt;Node17 -->
<g id="edge18" class="edge"><title>Node7&#45;&gt;Node17</title>
<path fill="none" stroke="midnightblue" d="M306.759,-61.8646C352.937,-55.8058 455.463,-41.3619 550.923,-20.0269"/>
<polygon fill="midnightblue" stroke="midnightblue" points="551.751,-23.428 560.731,-17.8045 550.204,-16.6011 551.751,-23.428"/>
</g>
</g>
</svg>
