<?xml version="1.0" encoding="UTF-8" standalone="no"?>
<!DOCTYPE svg PUBLIC "-//W3C//DTD SVG 1.1//EN"
 "http://www.w3.org/Graphics/SVG/1.1/DTD/svg11.dtd">
<!-- Generated by graphviz version 2.38.0 (20140413.2041)
 -->
<!-- Title: flcbdfWrappersModule.cpp Pages: 1 -->
<svg width="1703pt" height="252pt"
 viewBox="0.00 0.00 1702.50 252.00" xmlns="http://www.w3.org/2000/svg" xmlns:xlink="http://www.w3.org/1999/xlink">
<g id="graph0" class="graph" transform="scale(1 1) rotate(0) translate(4 248)">
<title>flcbdfWrappersModule.cpp</title>
<polygon fill="white" stroke="none" points="-4,4 -4,-248 1698.5,-248 1698.5,4 -4,4"/>
<!-- Node1 -->
<g id="node1" class="node"><title>Node1</title>
<polygon fill="#bfbfbf" stroke="black" points="12.5,-224.5 12.5,-243.5 145.5,-243.5 145.5,-224.5 12.5,-224.5"/>
<text text-anchor="middle" x="79" y="-231.5" font-family="Helvetica,sans-Serif" font-size="10.00">flcbdfWrappersModule.cpp</text>
</g>
<!-- Node2 -->
<g id="node2" class="node"><title>Node2</title>
<g id="a_node2"><a xlink:href="flcbdf_wrappers_module_8h.html" target="_top" xlink:title="Python interface to adpative BDF code (daetk) ">
<polygon fill="white" stroke="black" points="768,-168.5 768,-187.5 890,-187.5 890,-168.5 768,-168.5"/>
<text text-anchor="middle" x="829" y="-175.5" font-family="Helvetica,sans-Serif" font-size="10.00">flcbdfWrappersModule.h</text>
</a>
</g>
</g>
<!-- Node1&#45;&gt;Node2 -->
<g id="edge1" class="edge"><title>Node1&#45;&gt;Node2</title>
<path fill="none" stroke="midnightblue" d="M145.557,-228.208C286.298,-218.075 613.016,-194.551 757.77,-184.129"/>
<polygon fill="midnightblue" stroke="midnightblue" points="758.15,-187.61 767.873,-183.401 757.647,-180.628 758.15,-187.61"/>
</g>
<!-- Node11 -->
<g id="node11" class="node"><title>Node11</title>
<polygon fill="white" stroke="#bfbfbf" points="1090,-0.5 1090,-19.5 1146,-19.5 1146,-0.5 1090,-0.5"/>
<text text-anchor="middle" x="1118" y="-7.5" font-family="Helvetica,sans-Serif" font-size="10.00">algorithm</text>
</g>
<!-- Node1&#45;&gt;Node11 -->
<g id="edge35" class="edge"><title>Node1&#45;&gt;Node11</title>
<path fill="none" stroke="midnightblue" d="M77.2468,-224.398C73.2575,-202.1 66.1546,-142.078 98,-112 170.738,-43.2976 902.934,-17.3558 1079.73,-12.0675"/>
<polygon fill="midnightblue" stroke="midnightblue" points="1079.97,-15.5621 1089.86,-11.7691 1079.76,-8.56518 1079.97,-15.5621"/>
</g>
<!-- Node33 -->
<g id="node33" class="node"><title>Node33</title>
<g id="a_node33"><a xlink:href="meshio_8h.html" target="_top" xlink:title="meshio.h">
<polygon fill="white" stroke="black" points="0,-56.5 0,-75.5 56,-75.5 56,-56.5 0,-56.5"/>
<text text-anchor="middle" x="28" y="-63.5" font-family="Helvetica,sans-Serif" font-size="10.00">meshio.h</text>
</a>
</g>
</g>
<!-- Node1&#45;&gt;Node33 -->
<g id="edge36" class="edge"><title>Node1&#45;&gt;Node33</title>
<path fill="none" stroke="midnightblue" d="M76.3037,-224.377C73.4753,-215.322 68.9067,-200.666 65,-188 53.7652,-151.576 40.7617,-108.938 33.5488,-85.2448"/>
<polygon fill="midnightblue" stroke="midnightblue" points="36.8471,-84.0609 30.5876,-75.5129 30.1503,-86.0987 36.8471,-84.0609"/>
</g>
<!-- Node3 -->
<g id="node3" class="node"><title>Node3</title>
<polygon fill="white" stroke="#bfbfbf" points="1250.5,-112.5 1250.5,-131.5 1299.5,-131.5 1299.5,-112.5 1250.5,-112.5"/>
<text text-anchor="middle" x="1275" y="-119.5" font-family="Helvetica,sans-Serif" font-size="10.00">cstddef</text>
</g>
<!-- Node2&#45;&gt;Node3 -->
<g id="edge2" class="edge"><title>Node2&#45;&gt;Node3</title>
<path fill="none" stroke="midnightblue" d="M890.15,-173.198C968.92,-167.663 1110.15,-155.58 1240.08,-131.895"/>
<polygon fill="midnightblue" stroke="midnightblue" points="1241.02,-135.282 1250.22,-130.02 1239.75,-128.399 1241.02,-135.282"/>
</g>
<!-- Node4 -->
<g id="node4" class="node"><title>Node4</title>
<polygon fill="white" stroke="#bfbfbf" points="1284,-56.5 1284,-75.5 1340,-75.5 1340,-56.5 1284,-56.5"/>
<text text-anchor="middle" x="1312" y="-63.5" font-family="Helvetica,sans-Serif" font-size="10.00">Python.h</text>
</g>
<!-- Node2&#45;&gt;Node4 -->
<g id="edge3" class="edge"><title>Node2&#45;&gt;Node4</title>
<path fill="none" stroke="midnightblue" d="M890.441,-175.601C1013.2,-172.188 1279.49,-161.44 1308,-132 1319.66,-119.961 1319.16,-100.074 1316.67,-85.4616"/>
<polygon fill="midnightblue" stroke="midnightblue" points="1320.06,-84.5813 1314.55,-75.5333 1313.21,-86.0439 1320.06,-84.5813"/>
</g>
<!-- Node5 -->
<g id="node5" class="node"><title>Node5</title>
<polygon fill="white" stroke="#bfbfbf" points="1358.5,-56.5 1358.5,-75.5 1463.5,-75.5 1463.5,-56.5 1358.5,-56.5"/>
<text text-anchor="middle" x="1411" y="-63.5" font-family="Helvetica,sans-Serif" font-size="10.00">numpy/arrayobject.h</text>
</g>
<!-- Node2&#45;&gt;Node5 -->
<g id="edge4" class="edge"><title>Node2&#45;&gt;Node5</title>
<path fill="none" stroke="midnightblue" d="M890.178,-177.369C1043.66,-177.657 1435.63,-174.211 1475,-132 1492.05,-113.721 1463.75,-93.2735 1439.53,-80.2796"/>
<polygon fill="midnightblue" stroke="midnightblue" points="1441.06,-77.1259 1430.56,-75.6846 1437.87,-83.3569 1441.06,-77.1259"/>
</g>
<!-- Node6 -->
<g id="node6" class="node"><title>Node6</title>
<g id="a_node6"><a xlink:href="superlu_wrappers_module_8h.html" target="_top" xlink:title="Python interface to superlu. ">
<polygon fill="white" stroke="black" points="1560,-112.5 1560,-131.5 1690,-131.5 1690,-112.5 1560,-112.5"/>
<text text-anchor="middle" x="1625" y="-119.5" font-family="Helvetica,sans-Serif" font-size="10.00">superluWrappersModule.h</text>
</a>
</g>
</g>
<!-- Node2&#45;&gt;Node6 -->
<g id="edge5" class="edge"><title>Node2&#45;&gt;Node6</title>
<path fill="none" stroke="midnightblue" d="M890.462,-174.196C1014.53,-168.303 1303.73,-153.389 1546,-132 1547.28,-131.887 1548.56,-131.771 1549.86,-131.651"/>
<polygon fill="midnightblue" stroke="midnightblue" points="1550.31,-135.124 1559.93,-130.678 1549.64,-128.157 1550.31,-135.124"/>
</g>
<!-- Node7 -->
<g id="node7" class="node"><title>Node7</title>
<g id="a_node7"><a xlink:href="cmesh_tools_module_8h.html" target="_top" xlink:title="cmeshToolsModule.h">
<polygon fill="white" stroke="black" points="1356,-112.5 1356,-131.5 1466,-131.5 1466,-112.5 1356,-112.5"/>
<text text-anchor="middle" x="1411" y="-119.5" font-family="Helvetica,sans-Serif" font-size="10.00">cmeshToolsModule.h</text>
</a>
</g>
</g>
<!-- Node2&#45;&gt;Node7 -->
<g id="edge6" class="edge"><title>Node2&#45;&gt;Node7</title>
<path fill="none" stroke="midnightblue" d="M890.281,-172.465C986.572,-165.15 1179.13,-149.757 1342,-132 1343.11,-131.879 1344.23,-131.755 1345.36,-131.628"/>
<polygon fill="midnightblue" stroke="midnightblue" points="1346.14,-135.061 1355.66,-130.427 1345.32,-128.108 1346.14,-135.061"/>
</g>
<!-- Node8 -->
<g id="node8" class="node"><title>Node8</title>
<g id="a_node8"><a xlink:href="mesh_8h.html" target="_top" xlink:title="mesh.h">
<polygon fill="white" stroke="black" points="1481.5,-56.5 1481.5,-75.5 1530.5,-75.5 1530.5,-56.5 1481.5,-56.5"/>
<text text-anchor="middle" x="1506" y="-63.5" font-family="Helvetica,sans-Serif" font-size="10.00">mesh.h</text>
</a>
</g>
</g>
<!-- Node2&#45;&gt;Node8 -->
<g id="edge20" class="edge"><title>Node2&#45;&gt;Node8</title>
<path fill="none" stroke="midnightblue" d="M890.136,-176.968C1045.63,-176.317 1447.09,-170.85 1492,-132 1504.94,-120.806 1507.59,-100.785 1507.53,-85.9107"/>
<polygon fill="midnightblue" stroke="midnightblue" points="1511.02,-85.6055 1507.07,-75.771 1504.02,-85.9168 1511.02,-85.6055"/>
</g>
<!-- Node19 -->
<g id="node19" class="node"><title>Node19</title>
<polygon fill="white" stroke="#bfbfbf" points="107.5,-112.5 107.5,-131.5 148.5,-131.5 148.5,-112.5 107.5,-112.5"/>
<text text-anchor="middle" x="128" y="-119.5" font-family="Helvetica,sans-Serif" font-size="10.00">mpi.h</text>
</g>
<!-- Node2&#45;&gt;Node19 -->
<g id="edge21" class="edge"><title>Node2&#45;&gt;Node19</title>
<path fill="none" stroke="midnightblue" d="M767.836,-177.464C650.887,-177.361 387.608,-172.363 158.365,-131.594"/>
<polygon fill="midnightblue" stroke="midnightblue" points="158.971,-128.146 148.509,-129.815 157.728,-135.035 158.971,-128.146"/>
</g>
<!-- Node20 -->
<g id="node20" class="node"><title>Node20</title>
<polygon fill="white" stroke="#bfbfbf" points="167,-112.5 167,-131.5 211,-131.5 211,-112.5 167,-112.5"/>
<text text-anchor="middle" x="189" y="-119.5" font-family="Helvetica,sans-Serif" font-size="10.00">hdf5.h</text>
</g>
<!-- Node2&#45;&gt;Node20 -->
<g id="edge22" class="edge"><title>Node2&#45;&gt;Node20</title>
<path fill="none" stroke="midnightblue" d="M767.966,-176.687C659.46,-175.218 425.928,-167.937 221.251,-131.849"/>
<polygon fill="midnightblue" stroke="midnightblue" points="221.679,-128.37 211.219,-130.053 220.445,-135.261 221.679,-128.37"/>
</g>
<!-- Node21 -->
<g id="node21" class="node"><title>Node21</title>
<polygon fill="white" stroke="#bfbfbf" points="229.5,-112.5 229.5,-131.5 278.5,-131.5 278.5,-112.5 229.5,-112.5"/>
<text text-anchor="middle" x="254" y="-119.5" font-family="Helvetica,sans-Serif" font-size="10.00">petsc.h</text>
</g>
<!-- Node2&#45;&gt;Node21 -->
<g id="edge23" class="edge"><title>Node2&#45;&gt;Node21</title>
<path fill="none" stroke="midnightblue" d="M767.977,-175.575C669.015,-172.466 467.383,-162.824 288.856,-132.044"/>
<polygon fill="midnightblue" stroke="midnightblue" points="289.21,-128.552 278.756,-130.275 288.002,-135.447 289.21,-128.552"/>
</g>
<!-- Node22 -->
<g id="node22" class="node"><title>Node22</title>
<polygon fill="white" stroke="#bfbfbf" points="296.5,-112.5 296.5,-131.5 361.5,-131.5 361.5,-112.5 296.5,-112.5"/>
<text text-anchor="middle" x="329" y="-119.5" font-family="Helvetica,sans-Serif" font-size="10.00">petscmat.h</text>
</g>
<!-- Node2&#45;&gt;Node22 -->
<g id="edge24" class="edge"><title>Node2&#45;&gt;Node22</title>
<path fill="none" stroke="midnightblue" d="M767.825,-173.314C681.55,-167.605 519.071,-154.98 371.738,-132.115"/>
<polygon fill="midnightblue" stroke="midnightblue" points="372.03,-128.618 361.608,-130.523 370.943,-135.533 372.03,-128.618"/>
</g>
<!-- Node23 -->
<g id="node23" class="node"><title>Node23</title>
<polygon fill="white" stroke="#bfbfbf" points="379.5,-112.5 379.5,-131.5 438.5,-131.5 438.5,-112.5 379.5,-112.5"/>
<text text-anchor="middle" x="409" y="-119.5" font-family="Helvetica,sans-Serif" font-size="10.00">petscao.h</text>
</g>
<!-- Node2&#45;&gt;Node23 -->
<g id="edge25" class="edge"><title>Node2&#45;&gt;Node23</title>
<path fill="none" stroke="midnightblue" d="M767.816,-171.983C694.184,-165.457 566.661,-152.599 448.725,-132.145"/>
<polygon fill="midnightblue" stroke="midnightblue" points="449.258,-128.685 438.803,-130.402 448.047,-135.579 449.258,-128.685"/>
</g>
<!-- Node24 -->
<g id="node24" class="node"><title>Node24</title>
<polygon fill="white" stroke="#bfbfbf" points="456.5,-112.5 456.5,-131.5 513.5,-131.5 513.5,-112.5 456.5,-112.5"/>
<text text-anchor="middle" x="485" y="-119.5" font-family="Helvetica,sans-Serif" font-size="10.00">petscbt.h</text>
</g>
<!-- Node2&#45;&gt;Node24 -->
<g id="edge26" class="edge"><title>Node2&#45;&gt;Node24</title>
<path fill="none" stroke="midnightblue" d="M767.847,-169.739C707.869,-162.234 613.648,-149.42 523.465,-132.147"/>
<polygon fill="midnightblue" stroke="midnightblue" points="524.108,-128.707 513.625,-130.242 522.777,-135.579 524.108,-128.707"/>
</g>
<!-- Node25 -->
<g id="node25" class="node"><title>Node25</title>
<polygon fill="white" stroke="#bfbfbf" points="531.5,-112.5 531.5,-131.5 596.5,-131.5 596.5,-112.5 531.5,-112.5"/>
<text text-anchor="middle" x="564" y="-119.5" font-family="Helvetica,sans-Serif" font-size="10.00">petscksp.h</text>
</g>
<!-- Node2&#45;&gt;Node25 -->
<g id="edge27" class="edge"><title>Node2&#45;&gt;Node25</title>
<path fill="none" stroke="midnightblue" d="M785.802,-168.442C742.962,-159.92 675.176,-146.339 606.662,-132.118"/>
<polygon fill="midnightblue" stroke="midnightblue" points="607.054,-128.625 596.551,-130.015 605.629,-135.478 607.054,-128.625"/>
</g>
<!-- Node26 -->
<g id="node26" class="node"><title>Node26</title>
<polygon fill="white" stroke="#bfbfbf" points="615,-112.5 615,-131.5 683,-131.5 683,-112.5 615,-112.5"/>
<text text-anchor="middle" x="649" y="-119.5" font-family="Helvetica,sans-Serif" font-size="10.00">petscconf.h</text>
</g>
<!-- Node2&#45;&gt;Node26 -->
<g id="edge28" class="edge"><title>Node2&#45;&gt;Node26</title>
<path fill="none" stroke="midnightblue" d="M800.478,-168.444C769.934,-159.28 721.292,-144.688 687.397,-134.519"/>
<polygon fill="midnightblue" stroke="midnightblue" points="687.972,-131.038 677.388,-131.516 685.961,-137.742 687.972,-131.038"/>
</g>
<!-- Node27 -->
<g id="node27" class="node"><title>Node27</title>
<polygon fill="white" stroke="#bfbfbf" points="701.5,-112.5 701.5,-131.5 772.5,-131.5 772.5,-112.5 701.5,-112.5"/>
<text text-anchor="middle" x="737" y="-119.5" font-family="Helvetica,sans-Serif" font-size="10.00">Definitions.h</text>
</g>
<!-- Node2&#45;&gt;Node27 -->
<g id="edge29" class="edge"><title>Node2&#45;&gt;Node27</title>
<path fill="none" stroke="midnightblue" d="M814.219,-168.324C799.733,-159.822 777.427,-146.729 760.507,-136.797"/>
<polygon fill="midnightblue" stroke="midnightblue" points="762.141,-133.698 751.745,-131.655 758.597,-139.735 762.141,-133.698"/>
</g>
<!-- Node28 -->
<g id="node28" class="node"><title>Node28</title>
<polygon fill="white" stroke="#bfbfbf" points="790.5,-112.5 790.5,-131.5 867.5,-131.5 867.5,-112.5 790.5,-112.5"/>
<text text-anchor="middle" x="829" y="-119.5" font-family="Helvetica,sans-Serif" font-size="10.00">FullDataFile.h</text>
</g>
<!-- Node2&#45;&gt;Node28 -->
<g id="edge30" class="edge"><title>Node2&#45;&gt;Node28</title>
<path fill="none" stroke="midnightblue" d="M829,-168.083C829,-161.006 829,-150.861 829,-141.986"/>
<polygon fill="midnightblue" stroke="midnightblue" points="832.5,-141.751 829,-131.751 825.5,-141.751 832.5,-141.751"/>
</g>
<!-- Node29 -->
<g id="node29" class="node"><title>Node29</title>
<polygon fill="white" stroke="#bfbfbf" points="885.5,-112.5 885.5,-131.5 998.5,-131.5 998.5,-112.5 885.5,-112.5"/>
<text text-anchor="middle" x="942" y="-119.5" font-family="Helvetica,sans-Serif" font-size="10.00">WeightedRMSNorm.h</text>
</g>
<!-- Node2&#45;&gt;Node29 -->
<g id="edge31" class="edge"><title>Node2&#45;&gt;Node29</title>
<path fill="none" stroke="midnightblue" d="M846.905,-168.444C865.254,-159.675 894.005,-145.935 915.094,-135.858"/>
<polygon fill="midnightblue" stroke="midnightblue" points="916.665,-138.986 924.179,-131.516 913.647,-132.67 916.665,-138.986"/>
</g>
<!-- Node30 -->
<g id="node30" class="node"><title>Node30</title>
<polygon fill="white" stroke="#bfbfbf" points="1017,-112.5 1017,-131.5 1099,-131.5 1099,-112.5 1017,-112.5"/>
<text text-anchor="middle" x="1058" y="-119.5" font-family="Helvetica,sans-Serif" font-size="10.00">FLCBDF_lite.h</text>
</g>
<!-- Node2&#45;&gt;Node30 -->
<g id="edge32" class="edge"><title>Node2&#45;&gt;Node30</title>
<path fill="none" stroke="midnightblue" d="M865.286,-168.444C904.983,-159.083 968.707,-144.056 1011.91,-133.868"/>
<polygon fill="midnightblue" stroke="midnightblue" points="1012.95,-137.218 1021.88,-131.516 1011.35,-130.405 1012.95,-137.218"/>
</g>
<!-- Node31 -->
<g id="node31" class="node"><title>Node31</title>
<polygon fill="white" stroke="#bfbfbf" points="1117,-112.5 1117,-131.5 1163,-131.5 1163,-112.5 1117,-112.5"/>
<text text-anchor="middle" x="1140" y="-119.5" font-family="Helvetica,sans-Serif" font-size="10.00">stdio.h</text>
</g>
<!-- Node2&#45;&gt;Node31 -->
<g id="edge33" class="edge"><title>Node2&#45;&gt;Node31</title>
<path fill="none" stroke="midnightblue" d="M890.063,-169.198C944.513,-161.778 1026.55,-149.465 1106.42,-132.147"/>
<polygon fill="midnightblue" stroke="midnightblue" points="1107.64,-135.462 1116.66,-129.897 1106.14,-128.625 1107.64,-135.462"/>
</g>
<!-- Node32 -->
<g id="node32" class="node"><title>Node32</title>
<polygon fill="white" stroke="#bfbfbf" points="1181.5,-112.5 1181.5,-131.5 1232.5,-131.5 1232.5,-112.5 1181.5,-112.5"/>
<text text-anchor="middle" x="1207" y="-119.5" font-family="Helvetica,sans-Serif" font-size="10.00">valarray</text>
</g>
<!-- Node2&#45;&gt;Node32 -->
<g id="edge34" class="edge"><title>Node2&#45;&gt;Node32</title>
<path fill="none" stroke="midnightblue" d="M890.078,-171.246C956.802,-164.453 1066.96,-151.759 1171.38,-131.892"/>
<polygon fill="midnightblue" stroke="midnightblue" points="1172.31,-135.277 1181.47,-129.947 1170.99,-128.404 1172.31,-135.277"/>
</g>
<!-- Node7&#45;&gt;Node4 -->
<g id="edge7" class="edge"><title>Node7&#45;&gt;Node4</title>
<path fill="none" stroke="midnightblue" d="M1395.09,-112.324C1379.36,-103.743 1355.06,-90.486 1336.79,-80.5224"/>
<polygon fill="midnightblue" stroke="midnightblue" points="1338.32,-77.3704 1327.87,-75.6545 1334.97,-83.5157 1338.32,-77.3704"/>
</g>
<!-- Node7&#45;&gt;Node5 -->
<g id="edge8" class="edge"><title>Node7&#45;&gt;Node5</title>
<path fill="none" stroke="midnightblue" d="M1411,-112.083C1411,-105.006 1411,-94.8611 1411,-85.9865"/>
<polygon fill="midnightblue" stroke="midnightblue" points="1414.5,-85.751 1411,-75.7511 1407.5,-85.7511 1414.5,-85.751"/>
</g>
<!-- Node7&#45;&gt;Node8 -->
<g id="edge9" class="edge"><title>Node7&#45;&gt;Node8</title>
<path fill="none" stroke="midnightblue" d="M1426.26,-112.324C1441.22,-103.822 1464.25,-90.7288 1481.73,-80.7975"/>
<polygon fill="midnightblue" stroke="midnightblue" points="1483.81,-83.639 1490.77,-75.6545 1480.35,-77.5534 1483.81,-83.639"/>
</g>
<!-- Node9 -->
<g id="node9" class="node"><title>Node9</title>
<polygon fill="white" stroke="#bfbfbf" points="1611,-0.5 1611,-19.5 1641,-19.5 1641,-0.5 1611,-0.5"/>
<text text-anchor="middle" x="1626" y="-7.5" font-family="Helvetica,sans-Serif" font-size="10.00">set</text>
</g>
<!-- Node8&#45;&gt;Node9 -->
<g id="edge10" class="edge"><title>Node8&#45;&gt;Node9</title>
<path fill="none" stroke="midnightblue" d="M1525.01,-56.4435C1545.74,-47.1175 1578.96,-32.1679 1601.6,-21.982"/>
<polygon fill="midnightblue" stroke="midnightblue" points="1603.19,-25.1021 1610.87,-17.8067 1600.32,-18.7186 1603.19,-25.1021"/>
</g>
<!-- Node10 -->
<g id="node10" class="node"><title>Node10</title>
<polygon fill="white" stroke="#bfbfbf" points="153,-0.5 153,-19.5 197,-19.5 197,-0.5 153,-0.5"/>
<text text-anchor="middle" x="175" y="-7.5" font-family="Helvetica,sans-Serif" font-size="10.00">vector</text>
</g>
<!-- Node8&#45;&gt;Node10 -->
<g id="edge11" class="edge"><title>Node8&#45;&gt;Node10</title>
<path fill="none" stroke="midnightblue" d="M1481.25,-57.7629C1478.16,-57.0617 1475.02,-56.4464 1472,-56 1343.55,-37.0161 394.725,-15.7322 207.159,-11.6842"/>
<polygon fill="midnightblue" stroke="midnightblue" points="207.181,-8.18395 197.108,-11.4681 207.03,-15.1823 207.181,-8.18395"/>
</g>
<!-- Node8&#45;&gt;Node11 -->
<g id="edge12" class="edge"><title>Node8&#45;&gt;Node11</title>
<path fill="none" stroke="midnightblue" d="M1481.21,-58.0311C1478.12,-57.2838 1475,-56.5844 1472,-56 1358.24,-33.8139 1221.69,-20.0219 1156.42,-14.2041"/>
<polygon fill="midnightblue" stroke="midnightblue" points="1156.46,-10.6947 1146.19,-13.3065 1155.85,-17.6679 1156.46,-10.6947"/>
</g>
<!-- Node12 -->
<g id="node12" class="node"><title>Node12</title>
<polygon fill="white" stroke="#bfbfbf" points="1659.5,-0.5 1659.5,-19.5 1694.5,-19.5 1694.5,-0.5 1659.5,-0.5"/>
<text text-anchor="middle" x="1677" y="-7.5" font-family="Helvetica,sans-Serif" font-size="10.00">map</text>
</g>
<!-- Node8&#45;&gt;Node12 -->
<g id="edge13" class="edge"><title>Node8&#45;&gt;Node12</title>
<path fill="none" stroke="midnightblue" d="M1530.5,-57.4965C1557.4,-49.2266 1602.09,-35.3902 1649.73,-20.0426"/>
<polygon fill="midnightblue" stroke="midnightblue" points="1650.86,-23.3578 1659.3,-16.9541 1648.71,-16.6965 1650.86,-23.3578"/>
</g>
<!-- Node13 -->
<g id="node13" class="node"><title>Node13</title>
<polygon fill="white" stroke="#bfbfbf" points="1297.5,-0.5 1297.5,-19.5 1326.5,-19.5 1326.5,-0.5 1297.5,-0.5"/>
<text text-anchor="middle" x="1312" y="-7.5" font-family="Helvetica,sans-Serif" font-size="10.00">list</text>
</g>
<!-- Node8&#45;&gt;Node13 -->
<g id="edge14" class="edge"><title>Node8&#45;&gt;Node13</title>
<path fill="none" stroke="midnightblue" d="M1481.36,-58.481C1441.32,-47.8899 1364.39,-27.5342 1336.37,-19.634"/>
<polygon fill="midnightblue" stroke="midnightblue" points="1337.22,-16.2352 1326.64,-16.7557 1335.24,-22.9479 1337.22,-16.2352"/>
</g>
<!-- Node14 -->
<g id="node14" class="node"><title>Node14</title>
<polygon fill="white" stroke="#bfbfbf" points="750,-0.5 750,-19.5 804,-19.5 804,-0.5 750,-0.5"/>
<text text-anchor="middle" x="777" y="-7.5" font-family="Helvetica,sans-Serif" font-size="10.00">iostream</text>
</g>
<!-- Node8&#45;&gt;Node14 -->
<g id="edge15" class="edge"><title>Node8&#45;&gt;Node14</title>
<path fill="none" stroke="midnightblue" d="M1481.24,-57.8508C1478.15,-57.1344 1475.01,-56.4916 1472,-56 1343.58,-35.0496 939.848,-17.5192 814.501,-12.4666"/>
<polygon fill="midnightblue" stroke="midnightblue" points="814.396,-8.95966 804.264,-12.0568 814.116,-15.9541 814.396,-8.95966"/>
</g>
<!-- Node15 -->
<g id="node15" class="node"><title>Node15</title>
<polygon fill="white" stroke="#bfbfbf" points="1345,-0.5 1345,-19.5 1395,-19.5 1395,-0.5 1345,-0.5"/>
<text text-anchor="middle" x="1370" y="-7.5" font-family="Helvetica,sans-Serif" font-size="10.00">iomanip</text>
</g>
<!-- Node8&#45;&gt;Node15 -->
<g id="edge16" class="edge"><title>Node8&#45;&gt;Node15</title>
<path fill="none" stroke="midnightblue" d="M1484.45,-56.4435C1461.97,-47.5171 1426.51,-33.4387 1401.02,-23.3168"/>
<polygon fill="midnightblue" stroke="midnightblue" points="1402.03,-19.9539 1391.45,-19.5164 1399.45,-26.4598 1402.03,-19.9539"/>
</g>
<!-- Node16 -->
<g id="node16" class="node"><title>Node16</title>
<polygon fill="white" stroke="#bfbfbf" points="1413,-0.5 1413,-19.5 1463,-19.5 1463,-0.5 1413,-0.5"/>
<text text-anchor="middle" x="1438" y="-7.5" font-family="Helvetica,sans-Serif" font-size="10.00">fstream</text>
</g>
<!-- Node8&#45;&gt;Node16 -->
<g id="edge17" class="edge"><title>Node8&#45;&gt;Node16</title>
<path fill="none" stroke="midnightblue" d="M1495.07,-56.324C1484.83,-48.1849 1469.28,-35.8395 1457,-26.0874"/>
<polygon fill="midnightblue" stroke="midnightblue" points="1459.13,-23.3119 1449.12,-19.8339 1454.78,-28.7937 1459.13,-23.3119"/>
</g>
<!-- Node17 -->
<g id="node17" class="node"><title>Node17</title>
<polygon fill="white" stroke="#bfbfbf" points="1481.5,-0.5 1481.5,-19.5 1530.5,-19.5 1530.5,-0.5 1481.5,-0.5"/>
<text text-anchor="middle" x="1506" y="-7.5" font-family="Helvetica,sans-Serif" font-size="10.00">cassert</text>
</g>
<!-- Node8&#45;&gt;Node17 -->
<g id="edge18" class="edge"><title>Node8&#45;&gt;Node17</title>
<path fill="none" stroke="midnightblue" d="M1506,-56.083C1506,-49.0059 1506,-38.8611 1506,-29.9865"/>
<polygon fill="midnightblue" stroke="midnightblue" points="1509.5,-29.751 1506,-19.7511 1502.5,-29.7511 1509.5,-29.751"/>
</g>
<!-- Node18 -->
<g id="node18" class="node"><title>Node18</title>
<polygon fill="white" stroke="#bfbfbf" points="1549,-0.5 1549,-19.5 1593,-19.5 1593,-0.5 1549,-0.5"/>
<text text-anchor="middle" x="1571" y="-7.5" font-family="Helvetica,sans-Serif" font-size="10.00">cmath</text>
</g>
<!-- Node8&#45;&gt;Node18 -->
<g id="edge19" class="edge"><title>Node8&#45;&gt;Node18</title>
<path fill="none" stroke="midnightblue" d="M1516.44,-56.324C1526.15,-48.2631 1540.82,-36.0765 1552.5,-26.3695"/>
<polygon fill="midnightblue" stroke="midnightblue" points="1554.91,-28.9163 1560.37,-19.8339 1550.44,-23.532 1554.91,-28.9163"/>
</g>
<!-- Node33&#45;&gt;Node10 -->
<g id="edge38" class="edge"><title>Node33&#45;&gt;Node10</title>
<path fill="none" stroke="midnightblue" d="M51.2926,-56.4435C76.0958,-47.3322 115.511,-32.8531 143.169,-22.6929"/>
<polygon fill="midnightblue" stroke="midnightblue" points="144.599,-25.8965 152.779,-19.1629 142.185,-19.3258 144.599,-25.8965"/>
</g>
<!-- Node33&#45;&gt;Node14 -->
<g id="edge37" class="edge"><title>Node33&#45;&gt;Node14</title>
<path fill="none" stroke="midnightblue" d="M56.3659,-58.3286C60.9061,-57.4323 65.5678,-56.6125 70,-56 324.423,-20.8392 634.217,-13.0981 739.747,-11.4392"/>
<polygon fill="midnightblue" stroke="midnightblue" points="739.939,-14.9368 749.886,-11.2889 739.835,-7.93755 739.939,-14.9368"/>
</g>
</g>
</svg>
