<?xml version="1.0" encoding="UTF-8" standalone="no"?>
<!DOCTYPE svg PUBLIC "-//W3C//DTD SVG 1.1//EN"
 "http://www.w3.org/Graphics/SVG/1.1/DTD/svg11.dtd">
<!-- Generated by graphviz version 2.40.1 (20161225.0304)
 -->
<!-- Title: flcbdfWrappersModule.cpp Pages: 1 -->
<svg width="1782pt" height="252pt"
 viewBox="0.00 0.00 1781.50 252.00" xmlns="http://www.w3.org/2000/svg" xmlns:xlink="http://www.w3.org/1999/xlink">
<g id="graph0" class="graph" transform="scale(1 1) rotate(0) translate(4 248)">
<title>flcbdfWrappersModule.cpp</title>
<polygon fill="#ffffff" stroke="transparent" points="-4,4 -4,-248 1777.5,-248 1777.5,4 -4,4"/>
<!-- Node0 -->
<g id="node1" class="node">
<title>Node0</title>
<polygon fill="#bfbfbf" stroke="#000000" points="12.5,-224.5 12.5,-243.5 145.5,-243.5 145.5,-224.5 12.5,-224.5"/>
<text text-anchor="middle" x="79" y="-231.5" font-family="Helvetica,sans-Serif" font-size="10.00" fill="#000000">flcbdfWrappersModule.cpp</text>
</g>
<!-- Node1 -->
<g id="node2" class="node">
<title>Node1</title>
<g id="a_node2"><a xlink:href="flcbdf_wrappers_module_8h.html" target="_top" xlink:title="Python interface to adpative BDF code (daetk) ">
<polygon fill="#ffffff" stroke="#000000" points="870,-168.5 870,-187.5 992,-187.5 992,-168.5 870,-168.5"/>
<text text-anchor="middle" x="931" y="-175.5" font-family="Helvetica,sans-Serif" font-size="10.00" fill="#000000">flcbdfWrappersModule.h</text>
</a>
</g>
</g>
<!-- Node0&#45;&gt;Node1 -->
<g id="edge1" class="edge">
<title>Node0&#45;&gt;Node1</title>
<path fill="none" stroke="#191970" d="M145.5001,-229.6291C302.9078,-219.2831 697.2396,-193.3645 859.5186,-182.6983"/>
<polygon fill="#191970" stroke="#191970" points="860.1182,-186.1665 869.8671,-182.0181 859.659,-179.1816 860.1182,-186.1665"/>
</g>
<!-- Node11 -->
<g id="node12" class="node">
<title>Node11</title>
<polygon fill="#ffffff" stroke="#bfbfbf" points="1157,-.5 1157,-19.5 1213,-19.5 1213,-.5 1157,-.5"/>
<text text-anchor="middle" x="1185" y="-7.5" font-family="Helvetica,sans-Serif" font-size="10.00" fill="#000000">algorithm</text>
</g>
<!-- Node0&#45;&gt;Node11 -->
<g id="edge36" class="edge">
<title>Node0&#45;&gt;Node11</title>
<path fill="none" stroke="#191970" d="M77.0307,-224.3119C72.9301,-201.0601 66.3073,-141.818 98,-112 175.9545,-38.6565 962.5753,-15.3318 1146.6252,-10.858"/>
<polygon fill="#191970" stroke="#191970" points="1146.9829,-14.3506 1156.8965,-10.6129 1146.8158,-7.3526 1146.9829,-14.3506"/>
</g>
<!-- Node33 -->
<g id="node34" class="node">
<title>Node33</title>
<g id="a_node34"><a xlink:href="meshio_8h.html" target="_top" xlink:title="meshio.h">
<polygon fill="#ffffff" stroke="#000000" points="0,-56.5 0,-75.5 56,-75.5 56,-56.5 0,-56.5"/>
<text text-anchor="middle" x="28" y="-63.5" font-family="Helvetica,sans-Serif" font-size="10.00" fill="#000000">meshio.h</text>
</a>
</g>
</g>
<!-- Node0&#45;&gt;Node33 -->
<g id="edge37" class="edge">
<title>Node0&#45;&gt;Node33</title>
<path fill="none" stroke="#191970" d="M76.1015,-224.4861C73.2684,-215.1845 68.8341,-200.6199 65,-188 54.0085,-151.8214 41.2098,-109.5989 33.9107,-85.5104"/>
<polygon fill="#191970" stroke="#191970" points="37.2196,-84.361 30.9703,-75.8056 30.5204,-86.3908 37.2196,-84.361"/>
</g>
<!-- Node2 -->
<g id="node3" class="node">
<title>Node2</title>
<polygon fill="#ffffff" stroke="#bfbfbf" points="1398.5,-112.5 1398.5,-131.5 1447.5,-131.5 1447.5,-112.5 1398.5,-112.5"/>
<text text-anchor="middle" x="1423" y="-119.5" font-family="Helvetica,sans-Serif" font-size="10.00" fill="#000000">cstddef</text>
</g>
<!-- Node1&#45;&gt;Node2 -->
<g id="edge2" class="edge">
<title>Node1&#45;&gt;Node2</title>
<path fill="none" stroke="#191970" d="M992.2768,-175.4682C1078.6441,-171.1014 1241.1061,-159.9629 1388.1398,-131.8246"/>
<polygon fill="#191970" stroke="#191970" points="1389.1018,-135.2031 1398.2494,-129.8579 1387.7651,-128.3319 1389.1018,-135.2031"/>
</g>
<!-- Node3 -->
<g id="node4" class="node">
<title>Node3</title>
<polygon fill="#ffffff" stroke="#bfbfbf" points="1465.5,-112.5 1465.5,-131.5 1518.5,-131.5 1518.5,-112.5 1465.5,-112.5"/>
<text text-anchor="middle" x="1492" y="-119.5" font-family="Helvetica,sans-Serif" font-size="10.00" fill="#000000">complex</text>
</g>
<!-- Node1&#45;&gt;Node3 -->
<g id="edge3" class="edge">
<title>Node1&#45;&gt;Node3</title>
<path fill="none" stroke="#191970" d="M992.2546,-176.433C1089.0104,-173.1277 1283.1165,-163.1295 1455.366,-132.0118"/>
<polygon fill="#191970" stroke="#191970" points="1456.1679,-135.4232 1465.3718,-130.1756 1454.9043,-128.5381 1456.1679,-135.4232"/>
</g>
<!-- Node4 -->
<g id="node5" class="node">
<title>Node4</title>
<polygon fill="#ffffff" stroke="#bfbfbf" points="1681,-56.5 1681,-75.5 1737,-75.5 1737,-56.5 1681,-56.5"/>
<text text-anchor="middle" x="1709" y="-63.5" font-family="Helvetica,sans-Serif" font-size="10.00" fill="#000000">Python.h</text>
</g>
<!-- Node1&#45;&gt;Node4 -->
<g id="edge4" class="edge">
<title>Node1&#45;&gt;Node4</title>
<path fill="none" stroke="#191970" d="M992.2539,-176.7548C1175.2258,-172.7393 1706.6882,-158.8071 1732,-132 1744.4177,-118.8487 1734.5764,-98.6358 1724.1876,-84.0438"/>
<polygon fill="#191970" stroke="#191970" points="1726.7147,-81.5887 1717.8424,-75.7979 1721.1671,-85.8577 1726.7147,-81.5887"/>
</g>
<!-- Node5 -->
<g id="node6" class="node">
<title>Node5</title>
<polygon fill="#ffffff" stroke="#bfbfbf" points="1437.5,-56.5 1437.5,-75.5 1542.5,-75.5 1542.5,-56.5 1437.5,-56.5"/>
<text text-anchor="middle" x="1490" y="-63.5" font-family="Helvetica,sans-Serif" font-size="10.00" fill="#000000">numpy/arrayobject.h</text>
</g>
<!-- Node1&#45;&gt;Node5 -->
<g id="edge5" class="edge">
<title>Node1&#45;&gt;Node5</title>
<path fill="none" stroke="#191970" d="M992.1137,-175.5082C1140.6793,-169.1556 1509.9683,-151.4745 1528,-132 1541.6927,-117.2117 1525.607,-96.6348 1510.3502,-82.4057"/>
<polygon fill="#191970" stroke="#191970" points="1512.4329,-79.5767 1502.6095,-75.6077 1507.8138,-84.8363 1512.4329,-79.5767"/>
</g>
<!-- Node6 -->
<g id="node7" class="node">
<title>Node6</title>
<g id="a_node7"><a xlink:href="superlu_wrappers_module_8h.html" target="_top" xlink:title="Python interface to superlu. ">
<polygon fill="#ffffff" stroke="#000000" points="107,-112.5 107,-131.5 237,-131.5 237,-112.5 107,-112.5"/>
<text text-anchor="middle" x="172" y="-119.5" font-family="Helvetica,sans-Serif" font-size="10.00" fill="#000000">superluWrappersModule.h</text>
</a>
</g>
</g>
<!-- Node1&#45;&gt;Node6 -->
<g id="edge6" class="edge">
<title>Node1&#45;&gt;Node6</title>
<path fill="none" stroke="#191970" d="M869.9452,-175.2806C751.806,-169.7177 483.5024,-155.6195 247.4911,-132.0922"/>
<polygon fill="#191970" stroke="#191970" points="247.6416,-128.5898 237.3418,-131.0726 246.9418,-135.5547 247.6416,-128.5898"/>
</g>
<!-- Node7 -->
<g id="node8" class="node">
<title>Node7</title>
<g id="a_node8"><a xlink:href="cmesh_tools_module_8h.html" target="_top" xlink:title="cmeshToolsModule.h">
<polygon fill="#ffffff" stroke="#000000" points="1613,-112.5 1613,-131.5 1723,-131.5 1723,-112.5 1613,-112.5"/>
<text text-anchor="middle" x="1668" y="-119.5" font-family="Helvetica,sans-Serif" font-size="10.00" fill="#000000">cmeshToolsModule.h</text>
</a>
</g>
</g>
<!-- Node1&#45;&gt;Node7 -->
<g id="edge7" class="edge">
<title>Node1&#45;&gt;Node7</title>
<path fill="none" stroke="#191970" d="M992.3803,-175.3188C1110.2141,-169.8293 1376.1998,-155.7822 1599,-132 1600.1133,-131.8812 1601.2363,-131.7579 1602.3667,-131.6306"/>
<polygon fill="#191970" stroke="#191970" points="1603.1739,-135.0588 1612.6846,-130.3901 1602.3383,-128.1089 1603.1739,-135.0588"/>
</g>
<!-- Node8 -->
<g id="node9" class="node">
<title>Node8</title>
<g id="a_node9"><a xlink:href="mesh_8h.html" target="_top" xlink:title="mesh.h">
<polygon fill="#ffffff" stroke="#000000" points="1560.5,-56.5 1560.5,-75.5 1609.5,-75.5 1609.5,-56.5 1560.5,-56.5"/>
<text text-anchor="middle" x="1585" y="-63.5" font-family="Helvetica,sans-Serif" font-size="10.00" fill="#000000">mesh.h</text>
</a>
</g>
</g>
<!-- Node1&#45;&gt;Node8 -->
<g id="edge21" class="edge">
<title>Node1&#45;&gt;Node8</title>
<path fill="none" stroke="#191970" d="M992.179,-176.5333C1138.0426,-172.5954 1497.5967,-160.1263 1544,-132 1561.2458,-121.5469 1572.3316,-100.7942 1578.5706,-85.3364"/>
<polygon fill="#191970" stroke="#191970" points="1581.9581,-86.2659 1582.1317,-75.6724 1575.3899,-83.8454 1581.9581,-86.2659"/>
</g>
<!-- Node19 -->
<g id="node20" class="node">
<title>Node19</title>
<polygon fill="#ffffff" stroke="#bfbfbf" points="255.5,-112.5 255.5,-131.5 296.5,-131.5 296.5,-112.5 255.5,-112.5"/>
<text text-anchor="middle" x="276" y="-119.5" font-family="Helvetica,sans-Serif" font-size="10.00" fill="#000000">mpi.h</text>
</g>
<!-- Node1&#45;&gt;Node19 -->
<g id="edge22" class="edge">
<title>Node1&#45;&gt;Node19</title>
<path fill="none" stroke="#191970" d="M869.9315,-175.4371C738.2474,-169.6053 430.2086,-154.2448 306.7666,-131.596"/>
<polygon fill="#191970" stroke="#191970" points="307.2842,-128.1313 296.8015,-129.6686 305.9549,-135.0039 307.2842,-128.1313"/>
</g>
<!-- Node20 -->
<g id="node21" class="node">
<title>Node20</title>
<polygon fill="#ffffff" stroke="#bfbfbf" points="315,-112.5 315,-131.5 359,-131.5 359,-112.5 315,-112.5"/>
<text text-anchor="middle" x="337" y="-119.5" font-family="Helvetica,sans-Serif" font-size="10.00" fill="#000000">hdf5.h</text>
</g>
<!-- Node1&#45;&gt;Node20 -->
<g id="edge23" class="edge">
<title>Node1&#45;&gt;Node20</title>
<path fill="none" stroke="#191970" d="M869.6898,-174.7796C748.1409,-168.1105 479.528,-151.8848 369.0626,-131.7332"/>
<polygon fill="#191970" stroke="#191970" points="369.6696,-128.2858 359.1886,-129.8346 368.3478,-135.1599 369.6696,-128.2858"/>
</g>
<!-- Node21 -->
<g id="node22" class="node">
<title>Node21</title>
<polygon fill="#ffffff" stroke="#bfbfbf" points="377.5,-112.5 377.5,-131.5 426.5,-131.5 426.5,-112.5 377.5,-112.5"/>
<text text-anchor="middle" x="402" y="-119.5" font-family="Helvetica,sans-Serif" font-size="10.00" fill="#000000">petsc.h</text>
</g>
<!-- Node1&#45;&gt;Node21 -->
<g id="edge24" class="edge">
<title>Node1&#45;&gt;Node21</title>
<path fill="none" stroke="#191970" d="M869.7344,-176.287C777.4348,-172.8357 597.2572,-162.7123 436.7836,-132.0334"/>
<polygon fill="#191970" stroke="#191970" points="437.2151,-128.5518 426.7309,-130.0792 435.8793,-135.4232 437.2151,-128.5518"/>
</g>
<!-- Node22 -->
<g id="node23" class="node">
<title>Node22</title>
<polygon fill="#ffffff" stroke="#bfbfbf" points="444.5,-112.5 444.5,-131.5 509.5,-131.5 509.5,-112.5 444.5,-112.5"/>
<text text-anchor="middle" x="477" y="-119.5" font-family="Helvetica,sans-Serif" font-size="10.00" fill="#000000">petscmat.h</text>
</g>
<!-- Node1&#45;&gt;Node22 -->
<g id="edge25" class="edge">
<title>Node1&#45;&gt;Node22</title>
<path fill="none" stroke="#191970" d="M869.7697,-173.6494C790.8818,-167.4958 649.3833,-154.6048 519.7037,-132.1258"/>
<polygon fill="#191970" stroke="#191970" points="520.0486,-128.6329 509.5938,-130.3494 518.8371,-135.5273 520.0486,-128.6329"/>
</g>
<!-- Node23 -->
<g id="node24" class="node">
<title>Node23</title>
<polygon fill="#ffffff" stroke="#bfbfbf" points="527.5,-112.5 527.5,-131.5 586.5,-131.5 586.5,-112.5 527.5,-112.5"/>
<text text-anchor="middle" x="557" y="-119.5" font-family="Helvetica,sans-Serif" font-size="10.00" fill="#000000">petscao.h</text>
</g>
<!-- Node1&#45;&gt;Node23 -->
<g id="edge26" class="edge">
<title>Node1&#45;&gt;Node23</title>
<path fill="none" stroke="#191970" d="M869.931,-171.8917C804.4946,-164.8414 697.4499,-151.8565 596.8208,-132.1917"/>
<polygon fill="#191970" stroke="#191970" points="597.2807,-128.7149 586.7912,-130.205 595.9205,-135.5814 597.2807,-128.7149"/>
</g>
<!-- Node24 -->
<g id="node25" class="node">
<title>Node24</title>
<polygon fill="#ffffff" stroke="#bfbfbf" points="604.5,-112.5 604.5,-131.5 661.5,-131.5 661.5,-112.5 604.5,-112.5"/>
<text text-anchor="middle" x="633" y="-119.5" font-family="Helvetica,sans-Serif" font-size="10.00" fill="#000000">petscbt.h</text>
</g>
<!-- Node1&#45;&gt;Node24 -->
<g id="edge27" class="edge">
<title>Node1&#45;&gt;Node24</title>
<path fill="none" stroke="#191970" d="M869.7833,-168.7988C818.976,-160.8006 744.6479,-148.2677 671.4682,-132.1933"/>
<polygon fill="#191970" stroke="#191970" points="672.1414,-128.7576 661.6205,-130.0068 670.6241,-135.5912 672.1414,-128.7576"/>
</g>
<!-- Node25 -->
<g id="node26" class="node">
<title>Node25</title>
<polygon fill="#ffffff" stroke="#bfbfbf" points="679.5,-112.5 679.5,-131.5 744.5,-131.5 744.5,-112.5 679.5,-112.5"/>
<text text-anchor="middle" x="712" y="-119.5" font-family="Helvetica,sans-Serif" font-size="10.00" fill="#000000">petscksp.h</text>
</g>
<!-- Node1&#45;&gt;Node25 -->
<g id="edge28" class="edge">
<title>Node1&#45;&gt;Node25</title>
<path fill="none" stroke="#191970" d="M893.3526,-168.3733C854.6823,-158.485 794.6066,-143.1232 754.314,-132.82"/>
<polygon fill="#191970" stroke="#191970" points="755.0768,-129.4025 744.5214,-130.316 753.3426,-136.1843 755.0768,-129.4025"/>
</g>
<!-- Node26 -->
<g id="node27" class="node">
<title>Node26</title>
<polygon fill="#ffffff" stroke="#bfbfbf" points="763,-112.5 763,-131.5 831,-131.5 831,-112.5 763,-112.5"/>
<text text-anchor="middle" x="797" y="-119.5" font-family="Helvetica,sans-Serif" font-size="10.00" fill="#000000">petscconf.h</text>
</g>
<!-- Node1&#45;&gt;Node26 -->
<g id="edge29" class="edge">
<title>Node1&#45;&gt;Node26</title>
<path fill="none" stroke="#191970" d="M907.9646,-168.3733C886.2612,-159.3032 853.5382,-145.6279 829.245,-135.4755"/>
<polygon fill="#191970" stroke="#191970" points="830.3111,-132.1278 819.7348,-131.5011 827.6119,-138.5865 830.3111,-132.1278"/>
</g>
<!-- Node27 -->
<g id="node28" class="node">
<title>Node27</title>
<polygon fill="#ffffff" stroke="#bfbfbf" points="849.5,-112.5 849.5,-131.5 920.5,-131.5 920.5,-112.5 849.5,-112.5"/>
<text text-anchor="middle" x="885" y="-119.5" font-family="Helvetica,sans-Serif" font-size="10.00" fill="#000000">Definitions.h</text>
</g>
<!-- Node1&#45;&gt;Node27 -->
<g id="edge30" class="edge">
<title>Node1&#45;&gt;Node27</title>
<path fill="none" stroke="#191970" d="M922.9874,-168.2455C916.5232,-160.3761 907.2615,-149.101 899.5017,-139.6542"/>
<polygon fill="#191970" stroke="#191970" points="901.9727,-137.1484 892.9208,-131.6427 896.5636,-141.5916 901.9727,-137.1484"/>
</g>
<!-- Node28 -->
<g id="node29" class="node">
<title>Node28</title>
<polygon fill="#ffffff" stroke="#bfbfbf" points="938.5,-112.5 938.5,-131.5 1015.5,-131.5 1015.5,-112.5 938.5,-112.5"/>
<text text-anchor="middle" x="977" y="-119.5" font-family="Helvetica,sans-Serif" font-size="10.00" fill="#000000">FullDataFile.h</text>
</g>
<!-- Node1&#45;&gt;Node28 -->
<g id="edge31" class="edge">
<title>Node1&#45;&gt;Node28</title>
<path fill="none" stroke="#191970" d="M939.0126,-168.2455C945.4768,-160.3761 954.7385,-149.101 962.4983,-139.6542"/>
<polygon fill="#191970" stroke="#191970" points="965.4364,-141.5916 969.0792,-131.6427 960.0273,-137.1484 965.4364,-141.5916"/>
</g>
<!-- Node29 -->
<g id="node30" class="node">
<title>Node29</title>
<polygon fill="#ffffff" stroke="#bfbfbf" points="1033.5,-112.5 1033.5,-131.5 1146.5,-131.5 1146.5,-112.5 1033.5,-112.5"/>
<text text-anchor="middle" x="1090" y="-119.5" font-family="Helvetica,sans-Serif" font-size="10.00" fill="#000000">WeightedRMSNorm.h</text>
</g>
<!-- Node1&#45;&gt;Node29 -->
<g id="edge32" class="edge">
<title>Node1&#45;&gt;Node29</title>
<path fill="none" stroke="#191970" d="M958.3331,-168.3733C984.5434,-159.1419 1024.2984,-145.1402 1053.2668,-134.9375"/>
<polygon fill="#191970" stroke="#191970" points="1054.7542,-138.1244 1063.0236,-131.5011 1052.4288,-131.5219 1054.7542,-138.1244"/>
</g>
<!-- Node30 -->
<g id="node31" class="node">
<title>Node30</title>
<polygon fill="#ffffff" stroke="#bfbfbf" points="1165,-112.5 1165,-131.5 1247,-131.5 1247,-112.5 1165,-112.5"/>
<text text-anchor="middle" x="1206" y="-119.5" font-family="Helvetica,sans-Serif" font-size="10.00" fill="#000000">FLCBDF_lite.h</text>
</g>
<!-- Node1&#45;&gt;Node30 -->
<g id="edge33" class="edge">
<title>Node1&#45;&gt;Node30</title>
<path fill="none" stroke="#191970" d="M977.9617,-168.4369C1027.0447,-158.4418 1103.8357,-142.8044 1154.5365,-132.4798"/>
<polygon fill="#191970" stroke="#191970" points="1155.5258,-135.8503 1164.6263,-130.4252 1154.129,-128.9911 1155.5258,-135.8503"/>
</g>
<!-- Node31 -->
<g id="node32" class="node">
<title>Node31</title>
<polygon fill="#ffffff" stroke="#bfbfbf" points="1265,-112.5 1265,-131.5 1311,-131.5 1311,-112.5 1265,-112.5"/>
<text text-anchor="middle" x="1288" y="-119.5" font-family="Helvetica,sans-Serif" font-size="10.00" fill="#000000">stdio.h</text>
</g>
<!-- Node1&#45;&gt;Node31 -->
<g id="edge34" class="edge">
<title>Node1&#45;&gt;Node31</title>
<path fill="none" stroke="#191970" d="M992.0312,-172.349C1055.5671,-165.7968 1158.0257,-153.3532 1254.7561,-131.9936"/>
<polygon fill="#191970" stroke="#191970" points="1255.7097,-135.3667 1264.7002,-129.7612 1254.1764,-128.5367 1255.7097,-135.3667"/>
</g>
<!-- Node32 -->
<g id="node33" class="node">
<title>Node32</title>
<polygon fill="#ffffff" stroke="#bfbfbf" points="1329.5,-112.5 1329.5,-131.5 1380.5,-131.5 1380.5,-112.5 1329.5,-112.5"/>
<text text-anchor="middle" x="1355" y="-119.5" font-family="Helvetica,sans-Serif" font-size="10.00" fill="#000000">valarray</text>
</g>
<!-- Node1&#45;&gt;Node32 -->
<g id="edge35" class="edge">
<title>Node1&#45;&gt;Node32</title>
<path fill="none" stroke="#191970" d="M992.1185,-173.8242C1067.1072,-168.022 1198.1762,-155.6823 1319.3025,-131.8565"/>
<polygon fill="#191970" stroke="#191970" points="1319.9994,-135.2865 1329.1201,-129.8954 1318.6282,-128.4221 1319.9994,-135.2865"/>
</g>
<!-- Node7&#45;&gt;Node4 -->
<g id="edge8" class="edge">
<title>Node7&#45;&gt;Node4</title>
<path fill="none" stroke="#191970" d="M1675.1417,-112.2455C1680.8444,-104.4564 1688.99,-93.3308 1695.8625,-83.9439"/>
<polygon fill="#191970" stroke="#191970" points="1698.8568,-85.7789 1701.9402,-75.6427 1693.2087,-81.6437 1698.8568,-85.7789"/>
</g>
<!-- Node7&#45;&gt;Node5 -->
<g id="edge9" class="edge">
<title>Node7&#45;&gt;Node5</title>
<path fill="none" stroke="#191970" d="M1637.4007,-112.3733C1607.6739,-103.021 1562.3841,-88.7725 1529.8544,-78.5385"/>
<polygon fill="#191970" stroke="#191970" points="1530.7895,-75.1636 1520.2,-75.5011 1528.6887,-81.8409 1530.7895,-75.1636"/>
</g>
<!-- Node7&#45;&gt;Node8 -->
<g id="edge10" class="edge">
<title>Node7&#45;&gt;Node8</title>
<path fill="none" stroke="#191970" d="M1653.5425,-112.2455C1640.9268,-103.7337 1622.4056,-91.2375 1607.7955,-81.3801"/>
<polygon fill="#191970" stroke="#191970" points="1609.5391,-78.3343 1599.2918,-75.6427 1605.6239,-84.1371 1609.5391,-78.3343"/>
</g>
<!-- Node9 -->
<g id="node10" class="node">
<title>Node9</title>
<polygon fill="#ffffff" stroke="#bfbfbf" points="1690,-.5 1690,-19.5 1720,-19.5 1720,-.5 1690,-.5"/>
<text text-anchor="middle" x="1705" y="-7.5" font-family="Helvetica,sans-Serif" font-size="10.00" fill="#000000">set</text>
</g>
<!-- Node8&#45;&gt;Node9 -->
<g id="edge11" class="edge">
<title>Node8&#45;&gt;Node9</title>
<path fill="none" stroke="#191970" d="M1605.6287,-56.3733C1626.4326,-46.6648 1658.5428,-31.68 1680.5992,-21.387"/>
<polygon fill="#191970" stroke="#191970" points="1682.3673,-24.4244 1689.949,-17.0238 1679.407,-18.0811 1682.3673,-24.4244"/>
</g>
<!-- Node10 -->
<g id="node11" class="node">
<title>Node10</title>
<polygon fill="#ffffff" stroke="#bfbfbf" points="155,-.5 155,-19.5 199,-19.5 199,-.5 155,-.5"/>
<text text-anchor="middle" x="177" y="-7.5" font-family="Helvetica,sans-Serif" font-size="10.00" fill="#000000">vector</text>
</g>
<!-- Node8&#45;&gt;Node10 -->
<g id="edge12" class="edge">
<title>Node8&#45;&gt;Node10</title>
<path fill="none" stroke="#191970" d="M1560.2982,-57.7593C1557.5229,-57.0598 1554.7169,-56.4492 1552,-56 1415.7629,-33.4773 403.648,-14.1091 209.2433,-10.5751"/>
<polygon fill="#191970" stroke="#191970" points="209.1673,-7.0732 199.1056,-10.3917 209.0406,-14.0721 209.1673,-7.0732"/>
</g>
<!-- Node8&#45;&gt;Node11 -->
<g id="edge13" class="edge">
<title>Node8&#45;&gt;Node11</title>
<path fill="none" stroke="#191970" d="M1560.2512,-58.0085C1557.4846,-57.2623 1554.6936,-56.5726 1552,-56 1433.6529,-30.8417 1290.7057,-17.7981 1223.4812,-12.6648"/>
<polygon fill="#191970" stroke="#191970" points="1223.5907,-9.1633 1213.3577,-11.9082 1223.069,-16.1438 1223.5907,-9.1633"/>
</g>
<!-- Node12 -->
<g id="node13" class="node">
<title>Node12</title>
<polygon fill="#ffffff" stroke="#bfbfbf" points="1738.5,-.5 1738.5,-19.5 1773.5,-19.5 1773.5,-.5 1738.5,-.5"/>
<text text-anchor="middle" x="1756" y="-7.5" font-family="Helvetica,sans-Serif" font-size="10.00" fill="#000000">map</text>
</g>
<!-- Node8&#45;&gt;Node12 -->
<g id="edge14" class="edge">
<title>Node8&#45;&gt;Node12</title>
<path fill="none" stroke="#191970" d="M1609.572,-58.5239C1636.5295,-50.2412 1681.2715,-36.2585 1728.787,-19.9664"/>
<polygon fill="#191970" stroke="#191970" points="1730.0099,-23.247 1738.3226,-16.6782 1727.7279,-16.6294 1730.0099,-23.247"/>
</g>
<!-- Node13 -->
<g id="node14" class="node">
<title>Node13</title>
<polygon fill="#ffffff" stroke="#bfbfbf" points="1376.5,-.5 1376.5,-19.5 1405.5,-19.5 1405.5,-.5 1376.5,-.5"/>
<text text-anchor="middle" x="1391" y="-7.5" font-family="Helvetica,sans-Serif" font-size="10.00" fill="#000000">list</text>
</g>
<!-- Node8&#45;&gt;Node13 -->
<g id="edge15" class="edge">
<title>Node8&#45;&gt;Node13</title>
<path fill="none" stroke="#191970" d="M1560.1629,-58.3654C1557.4129,-57.5523 1554.6498,-56.7494 1552,-56 1491.4198,-38.8682 1474.6426,-40.1548 1415,-20 1414.9038,-19.9675 1414.8074,-19.9348 1414.7109,-19.9019"/>
<polygon fill="#191970" stroke="#191970" points="1416.1924,-16.7202 1405.6008,-16.4594 1413.718,-23.2683 1416.1924,-16.7202"/>
</g>
<!-- Node14 -->
<g id="node15" class="node">
<title>Node14</title>
<polygon fill="#ffffff" stroke="#bfbfbf" points="796,-.5 796,-19.5 850,-19.5 850,-.5 796,-.5"/>
<text text-anchor="middle" x="823" y="-7.5" font-family="Helvetica,sans-Serif" font-size="10.00" fill="#000000">iostream</text>
</g>
<!-- Node8&#45;&gt;Node14 -->
<g id="edge16" class="edge">
<title>Node8&#45;&gt;Node14</title>
<path fill="none" stroke="#191970" d="M1560.2842,-57.8403C1557.5115,-57.1256 1554.7099,-56.4893 1552,-56 1416.9602,-31.6186 989.2526,-15.5857 860.2127,-11.2105"/>
<polygon fill="#191970" stroke="#191970" points="860.1629,-7.707 850.051,-10.8692 859.9279,-14.703 860.1629,-7.707"/>
</g>
<!-- Node15 -->
<g id="node16" class="node">
<title>Node15</title>
<polygon fill="#ffffff" stroke="#bfbfbf" points="1424,-.5 1424,-19.5 1474,-19.5 1474,-.5 1424,-.5"/>
<text text-anchor="middle" x="1449" y="-7.5" font-family="Helvetica,sans-Serif" font-size="10.00" fill="#000000">iomanip</text>
</g>
<!-- Node8&#45;&gt;Node15 -->
<g id="edge17" class="edge">
<title>Node8&#45;&gt;Node15</title>
<path fill="none" stroke="#191970" d="M1561.6208,-56.3733C1539.4955,-47.2629 1506.0866,-33.5062 1481.3981,-23.3404"/>
<polygon fill="#191970" stroke="#191970" points="1482.6536,-20.0723 1472.0742,-19.5011 1479.9883,-26.5451 1482.6536,-20.0723"/>
</g>
<!-- Node16 -->
<g id="node17" class="node">
<title>Node16</title>
<polygon fill="#ffffff" stroke="#bfbfbf" points="1492,-.5 1492,-19.5 1542,-19.5 1542,-.5 1492,-.5"/>
<text text-anchor="middle" x="1517" y="-7.5" font-family="Helvetica,sans-Serif" font-size="10.00" fill="#000000">fstream</text>
</g>
<!-- Node8&#45;&gt;Node16 -->
<g id="edge18" class="edge">
<title>Node8&#45;&gt;Node16</title>
<path fill="none" stroke="#191970" d="M1573.1553,-56.2455C1563.112,-47.9746 1548.5005,-35.9416 1536.6996,-26.2232"/>
<polygon fill="#191970" stroke="#191970" points="1538.6533,-23.298 1528.709,-19.6427 1534.2033,-28.7015 1538.6533,-23.298"/>
</g>
<!-- Node17 -->
<g id="node18" class="node">
<title>Node17</title>
<polygon fill="#ffffff" stroke="#bfbfbf" points="1560.5,-.5 1560.5,-19.5 1609.5,-19.5 1609.5,-.5 1560.5,-.5"/>
<text text-anchor="middle" x="1585" y="-7.5" font-family="Helvetica,sans-Serif" font-size="10.00" fill="#000000">cassert</text>
</g>
<!-- Node8&#45;&gt;Node17 -->
<g id="edge19" class="edge">
<title>Node8&#45;&gt;Node17</title>
<path fill="none" stroke="#191970" d="M1585,-56.2455C1585,-48.9382 1585,-38.6944 1585,-29.7046"/>
<polygon fill="#191970" stroke="#191970" points="1588.5001,-29.6426 1585,-19.6427 1581.5001,-29.6427 1588.5001,-29.6426"/>
</g>
<!-- Node18 -->
<g id="node19" class="node">
<title>Node18</title>
<polygon fill="#ffffff" stroke="#bfbfbf" points="1628,-.5 1628,-19.5 1672,-19.5 1672,-.5 1628,-.5"/>
<text text-anchor="middle" x="1650" y="-7.5" font-family="Helvetica,sans-Serif" font-size="10.00" fill="#000000">cmath</text>
</g>
<!-- Node8&#45;&gt;Node18 -->
<g id="edge20" class="edge">
<title>Node8&#45;&gt;Node18</title>
<path fill="none" stroke="#191970" d="M1596.3221,-56.2455C1605.9223,-47.9746 1619.8892,-35.9416 1631.1695,-26.2232"/>
<polygon fill="#191970" stroke="#191970" points="1633.516,-28.8214 1638.8076,-19.6427 1628.947,-23.5182 1633.516,-28.8214"/>
</g>
<!-- Node33&#45;&gt;Node10 -->
<g id="edge39" class="edge">
<title>Node33&#45;&gt;Node10</title>
<path fill="none" stroke="#191970" d="M53.614,-56.3733C78.9579,-46.848 117.8156,-32.2438 145.1385,-21.9748"/>
<polygon fill="#191970" stroke="#191970" points="146.5072,-25.1995 154.6365,-18.4051 144.0445,-18.647 146.5072,-25.1995"/>
</g>
<!-- Node33&#45;&gt;Node14 -->
<g id="edge38" class="edge">
<title>Node33&#45;&gt;Node14</title>
<path fill="none" stroke="#191970" d="M56.3371,-58.5518C60.881,-57.5606 65.5515,-56.6604 70,-56 210.5018,-35.1419 653.4759,-16.6066 785.5053,-11.4316"/>
<polygon fill="#191970" stroke="#191970" points="786.0333,-14.9137 795.8895,-11.027 785.7608,-7.9191 786.0333,-14.9137"/>
</g>
</g>
</svg>
