<?xml version="1.0" encoding="UTF-8" standalone="no"?>
<!DOCTYPE svg PUBLIC "-//W3C//DTD SVG 1.1//EN"
 "http://www.w3.org/Graphics/SVG/1.1/DTD/svg11.dtd">
<!-- Generated by graphviz version 2.38.0 (20140413.2041)
 -->
<!-- Title: flcbdfWrappersModule.h Pages: 1 -->
<svg width="1662pt" height="196pt"
 viewBox="0.00 0.00 1662.00 196.00" xmlns="http://www.w3.org/2000/svg" xmlns:xlink="http://www.w3.org/1999/xlink">
<g id="graph0" class="graph" transform="scale(1 1) rotate(0) translate(4 192)">
<title>flcbdfWrappersModule.h</title>
<polygon fill="white" stroke="none" points="-4,4 -4,-192 1658,-192 1658,4 -4,4"/>
<!-- Node0 -->
<g id="node1" class="node"><title>Node0</title>
<polygon fill="#bfbfbf" stroke="black" points="689.5,-168.5 689.5,-187.5 811.5,-187.5 811.5,-168.5 689.5,-168.5"/>
<text text-anchor="middle" x="750.5" y="-175.5" font-family="Helvetica,sans-Serif" font-size="10.00">flcbdfWrappersModule.h</text>
</g>
<!-- Node1 -->
<g id="node2" class="node"><title>Node1</title>
<polygon fill="white" stroke="#bfbfbf" points="0,-112.5 0,-131.5 49,-131.5 49,-112.5 0,-112.5"/>
<text text-anchor="middle" x="24.5" y="-119.5" font-family="Helvetica,sans-Serif" font-size="10.00">cstddef</text>
</g>
<!-- Node0&#45;&gt;Node1 -->
<g id="edge1" class="edge"><title>Node0&#45;&gt;Node1</title>
<path fill="none" stroke="midnightblue" d="M689.31,-177.145C569.659,-176.537 296.38,-170.761 59.4344,-132.014"/>
<polygon fill="midnightblue" stroke="midnightblue" points="59.6853,-128.508 49.2473,-130.324 58.5396,-135.414 59.6853,-128.508"/>
</g>
<!-- Node2 -->
<g id="node3" class="node"><title>Node2</title>
<polygon fill="white" stroke="#bfbfbf" points="67,-112.5 67,-131.5 120,-131.5 120,-112.5 67,-112.5"/>
<text text-anchor="middle" x="93.5" y="-119.5" font-family="Helvetica,sans-Serif" font-size="10.00">complex</text>
</g>
<!-- Node0&#45;&gt;Node2 -->
<g id="edge2" class="edge"><title>Node0&#45;&gt;Node2</title>
<path fill="none" stroke="midnightblue" d="M689.42,-175.433C578.411,-171.943 336.378,-161.377 134.5,-132 133.202,-131.811 131.884,-131.604 130.555,-131.383"/>
<polygon fill="midnightblue" stroke="midnightblue" points="130.779,-127.864 120.305,-129.46 129.489,-134.744 130.779,-127.864"/>
</g>
<!-- Node3 -->
<g id="node4" class="node"><title>Node3</title>
<polygon fill="white" stroke="#bfbfbf" points="121.5,-56.5 121.5,-75.5 177.5,-75.5 177.5,-56.5 121.5,-56.5"/>
<text text-anchor="middle" x="149.5" y="-63.5" font-family="Helvetica,sans-Serif" font-size="10.00">Python.h</text>
</g>
<!-- Node0&#45;&gt;Node3 -->
<g id="edge3" class="edge"><title>Node0&#45;&gt;Node3</title>
<path fill="none" stroke="midnightblue" d="M689.365,-174.909C554.208,-169.877 238.619,-155.72 196.5,-132 177.966,-121.562 164.816,-100.438 157.224,-85.0974"/>
<polygon fill="midnightblue" stroke="midnightblue" points="160.216,-83.2261 152.858,-75.6028 153.856,-86.1506 160.216,-83.2261"/>
</g>
<!-- Node4 -->
<g id="node5" class="node"><title>Node4</title>
<polygon fill="white" stroke="#bfbfbf" points="198,-56.5 198,-75.5 303,-75.5 303,-56.5 198,-56.5"/>
<text text-anchor="middle" x="250.5" y="-63.5" font-family="Helvetica,sans-Serif" font-size="10.00">numpy/arrayobject.h</text>
</g>
<!-- Node0&#45;&gt;Node4 -->
<g id="edge4" class="edge"><title>Node0&#45;&gt;Node4</title>
<path fill="none" stroke="midnightblue" d="M689.306,-176.508C553.784,-174.782 237.736,-167.007 205.5,-132 190.958,-116.208 210.983,-95.45 228.764,-81.6886"/>
<polygon fill="midnightblue" stroke="midnightblue" points="231.151,-84.279 237.152,-75.5474 227.016,-78.631 231.151,-84.279"/>
</g>
<!-- Node5 -->
<g id="node6" class="node"><title>Node5</title>
<g id="a_node6"><a xlink:href="superlu_wrappers_module_8h.html" target="_top" xlink:title="Python interface to superlu. ">
<polygon fill="white" stroke="black" points="380.5,-112.5 380.5,-131.5 510.5,-131.5 510.5,-112.5 380.5,-112.5"/>
<text text-anchor="middle" x="445.5" y="-119.5" font-family="Helvetica,sans-Serif" font-size="10.00">superluWrappersModule.h</text>
</a>
</g>
</g>
<!-- Node0&#45;&gt;Node5 -->
<g id="edge5" class="edge"><title>Node0&#45;&gt;Node5</title>
<path fill="none" stroke="midnightblue" d="M702.172,-168.444C648.296,-158.905 561.193,-143.483 503.636,-133.293"/>
<polygon fill="midnightblue" stroke="midnightblue" points="504.059,-129.813 493.602,-131.516 502.839,-136.706 504.059,-129.813"/>
</g>
<!-- Node6 -->
<g id="node7" class="node"><title>Node6</title>
<g id="a_node7"><a xlink:href="cmesh_tools_module_8h.html" target="_top" xlink:title="cmeshToolsModule.h">
<polygon fill="white" stroke="black" points="214.5,-112.5 214.5,-131.5 324.5,-131.5 324.5,-112.5 214.5,-112.5"/>
<text text-anchor="middle" x="269.5" y="-119.5" font-family="Helvetica,sans-Serif" font-size="10.00">cmeshToolsModule.h</text>
</a>
</g>
</g>
<!-- Node0&#45;&gt;Node6 -->
<g id="edge6" class="edge"><title>Node0&#45;&gt;Node6</title>
<path fill="none" stroke="midnightblue" d="M689.376,-170.727C608.888,-162.375 462.988,-146.916 338.5,-132 337.39,-131.867 336.271,-131.732 335.144,-131.595"/>
<polygon fill="midnightblue" stroke="midnightblue" points="335.203,-128.076 324.849,-130.323 334.344,-135.023 335.203,-128.076"/>
</g>
<!-- Node7 -->
<g id="node8" class="node"><title>Node7</title>
<g id="a_node8"><a xlink:href="mesh_8h.html" target="_top" xlink:title="mesh.h">
<polygon fill="white" stroke="black" points="326,-56.5 326,-75.5 375,-75.5 375,-56.5 326,-56.5"/>
<text text-anchor="middle" x="350.5" y="-63.5" font-family="Helvetica,sans-Serif" font-size="10.00">mesh.h</text>
</a>
</g>
</g>
<!-- Node0&#45;&gt;Node7 -->
<g id="edge20" class="edge"><title>Node0&#45;&gt;Node7</title>
<path fill="none" stroke="midnightblue" d="M689.369,-177.516C594.729,-177.061 418.711,-170.826 371.5,-132 357.924,-120.835 353.029,-100.81 351.313,-85.9264"/>
<polygon fill="midnightblue" stroke="midnightblue" points="354.789,-85.4804 350.53,-75.7793 347.81,-86.019 354.789,-85.4804"/>
</g>
<!-- Node18 -->
<g id="node19" class="node"><title>Node18</title>
<polygon fill="white" stroke="#bfbfbf" points="529,-112.5 529,-131.5 570,-131.5 570,-112.5 529,-112.5"/>
<text text-anchor="middle" x="549.5" y="-119.5" font-family="Helvetica,sans-Serif" font-size="10.00">mpi.h</text>
</g>
<!-- Node0&#45;&gt;Node18 -->
<g id="edge21" class="edge"><title>Node0&#45;&gt;Node18</title>
<path fill="none" stroke="midnightblue" d="M716.664,-168.459C684.058,-160.148 633.111,-146.953 579.762,-132.001"/>
<polygon fill="midnightblue" stroke="midnightblue" points="580.704,-128.63 570.13,-129.29 578.807,-135.369 580.704,-128.63"/>
</g>
<!-- Node19 -->
<g id="node20" class="node"><title>Node19</title>
<polygon fill="white" stroke="#bfbfbf" points="588.5,-112.5 588.5,-131.5 632.5,-131.5 632.5,-112.5 588.5,-112.5"/>
<text text-anchor="middle" x="610.5" y="-119.5" font-family="Helvetica,sans-Serif" font-size="10.00">hdf5.h</text>
</g>
<!-- Node0&#45;&gt;Node19 -->
<g id="edge22" class="edge"><title>Node0&#45;&gt;Node19</title>
<path fill="none" stroke="midnightblue" d="M728.317,-168.444C705.072,-159.478 668.351,-145.314 642.085,-135.183"/>
<polygon fill="midnightblue" stroke="midnightblue" points="643.169,-131.85 632.58,-131.516 640.65,-138.381 643.169,-131.85"/>
</g>
<!-- Node20 -->
<g id="node21" class="node"><title>Node20</title>
<polygon fill="white" stroke="#bfbfbf" points="651,-112.5 651,-131.5 700,-131.5 700,-112.5 651,-112.5"/>
<text text-anchor="middle" x="675.5" y="-119.5" font-family="Helvetica,sans-Serif" font-size="10.00">petsc.h</text>
</g>
<!-- Node0&#45;&gt;Node20 -->
<g id="edge23" class="edge"><title>Node0&#45;&gt;Node20</title>
<path fill="none" stroke="midnightblue" d="M738.45,-168.324C727.037,-160.107 709.669,-147.602 696.065,-137.807"/>
<polygon fill="midnightblue" stroke="midnightblue" points="697.93,-134.837 687.769,-131.834 693.84,-140.517 697.93,-134.837"/>
</g>
<!-- Node21 -->
<g id="node22" class="node"><title>Node21</title>
<polygon fill="white" stroke="#bfbfbf" points="718,-112.5 718,-131.5 783,-131.5 783,-112.5 718,-112.5"/>
<text text-anchor="middle" x="750.5" y="-119.5" font-family="Helvetica,sans-Serif" font-size="10.00">petscmat.h</text>
</g>
<!-- Node0&#45;&gt;Node21 -->
<g id="edge24" class="edge"><title>Node0&#45;&gt;Node21</title>
<path fill="none" stroke="midnightblue" d="M750.5,-168.083C750.5,-161.006 750.5,-150.861 750.5,-141.986"/>
<polygon fill="midnightblue" stroke="midnightblue" points="754,-141.751 750.5,-131.751 747,-141.751 754,-141.751"/>
</g>
<!-- Node22 -->
<g id="node23" class="node"><title>Node22</title>
<polygon fill="white" stroke="#bfbfbf" points="801,-112.5 801,-131.5 860,-131.5 860,-112.5 801,-112.5"/>
<text text-anchor="middle" x="830.5" y="-119.5" font-family="Helvetica,sans-Serif" font-size="10.00">petscao.h</text>
</g>
<!-- Node0&#45;&gt;Node22 -->
<g id="edge25" class="edge"><title>Node0&#45;&gt;Node22</title>
<path fill="none" stroke="midnightblue" d="M763.353,-168.324C775.716,-159.979 794.63,-147.212 809.237,-137.352"/>
<polygon fill="midnightblue" stroke="midnightblue" points="811.348,-140.15 817.679,-131.655 807.432,-134.348 811.348,-140.15"/>
</g>
<!-- Node23 -->
<g id="node24" class="node"><title>Node23</title>
<polygon fill="white" stroke="#bfbfbf" points="878,-112.5 878,-131.5 935,-131.5 935,-112.5 878,-112.5"/>
<text text-anchor="middle" x="906.5" y="-119.5" font-family="Helvetica,sans-Serif" font-size="10.00">petscbt.h</text>
</g>
<!-- Node0&#45;&gt;Node23 -->
<g id="edge26" class="edge"><title>Node0&#45;&gt;Node23</title>
<path fill="none" stroke="midnightblue" d="M775.219,-168.444C801.348,-159.399 842.759,-145.064 872.076,-134.916"/>
<polygon fill="midnightblue" stroke="midnightblue" points="873.592,-138.095 881.897,-131.516 871.302,-131.48 873.592,-138.095"/>
</g>
<!-- Node24 -->
<g id="node25" class="node"><title>Node24</title>
<polygon fill="white" stroke="#bfbfbf" points="953,-112.5 953,-131.5 1018,-131.5 1018,-112.5 953,-112.5"/>
<text text-anchor="middle" x="985.5" y="-119.5" font-family="Helvetica,sans-Serif" font-size="10.00">petscksp.h</text>
</g>
<!-- Node0&#45;&gt;Node24 -->
<g id="edge27" class="edge"><title>Node0&#45;&gt;Node24</title>
<path fill="none" stroke="midnightblue" d="M787.736,-168.444C830.001,-158.732 898.803,-142.922 943.098,-132.743"/>
<polygon fill="midnightblue" stroke="midnightblue" points="944.016,-136.124 952.979,-130.473 942.449,-129.301 944.016,-136.124"/>
</g>
<!-- Node25 -->
<g id="node26" class="node"><title>Node25</title>
<polygon fill="white" stroke="#bfbfbf" points="1036.5,-112.5 1036.5,-131.5 1104.5,-131.5 1104.5,-112.5 1036.5,-112.5"/>
<text text-anchor="middle" x="1070.5" y="-119.5" font-family="Helvetica,sans-Serif" font-size="10.00">petscconf.h</text>
</g>
<!-- Node0&#45;&gt;Node25 -->
<g id="edge28" class="edge"><title>Node0&#45;&gt;Node25</title>
<path fill="none" stroke="midnightblue" d="M807.661,-168.487C861.57,-160.284 944.875,-147.158 1026.34,-132.151"/>
<polygon fill="midnightblue" stroke="midnightblue" points="1027.07,-135.576 1036.26,-130.312 1025.79,-128.693 1027.07,-135.576"/>
</g>
<!-- Node26 -->
<g id="node27" class="node"><title>Node26</title>
<polygon fill="white" stroke="#bfbfbf" points="1123,-112.5 1123,-131.5 1194,-131.5 1194,-112.5 1123,-112.5"/>
<text text-anchor="middle" x="1158.5" y="-119.5" font-family="Helvetica,sans-Serif" font-size="10.00">Definitions.h</text>
</g>
<!-- Node0&#45;&gt;Node26 -->
<g id="edge29" class="edge"><title>Node0&#45;&gt;Node26</title>
<path fill="none" stroke="midnightblue" d="M811.712,-170.811C881.91,-163.399 1000.66,-149.906 1112.57,-132.042"/>
<polygon fill="midnightblue" stroke="midnightblue" points="1113.37,-135.459 1122.68,-130.412 1112.25,-128.548 1113.37,-135.459"/>
</g>
<!-- Node27 -->
<g id="node28" class="node"><title>Node27</title>
<polygon fill="white" stroke="#bfbfbf" points="1212,-112.5 1212,-131.5 1289,-131.5 1289,-112.5 1212,-112.5"/>
<text text-anchor="middle" x="1250.5" y="-119.5" font-family="Helvetica,sans-Serif" font-size="10.00">FullDataFile.h</text>
</g>
<!-- Node0&#45;&gt;Node27 -->
<g id="edge30" class="edge"><title>Node0&#45;&gt;Node27</title>
<path fill="none" stroke="midnightblue" d="M811.527,-172.695C896.772,-166.292 1056.51,-152.879 1201.83,-132.135"/>
<polygon fill="midnightblue" stroke="midnightblue" points="1202.42,-135.586 1211.82,-130.694 1201.42,-128.657 1202.42,-135.586"/>
</g>
<!-- Node28 -->
<g id="node29" class="node"><title>Node28</title>
<polygon fill="white" stroke="#bfbfbf" points="1307,-112.5 1307,-131.5 1420,-131.5 1420,-112.5 1307,-112.5"/>
<text text-anchor="middle" x="1363.5" y="-119.5" font-family="Helvetica,sans-Serif" font-size="10.00">WeightedRMSNorm.h</text>
</g>
<!-- Node0&#45;&gt;Node28 -->
<g id="edge31" class="edge"><title>Node0&#45;&gt;Node28</title>
<path fill="none" stroke="midnightblue" d="M811.834,-173.082C911.429,-166.473 1114.74,-151.96 1296.78,-132.139"/>
<polygon fill="midnightblue" stroke="midnightblue" points="1297.24,-135.609 1306.8,-131.04 1296.48,-128.651 1297.24,-135.609"/>
</g>
<!-- Node29 -->
<g id="node30" class="node"><title>Node29</title>
<polygon fill="white" stroke="#bfbfbf" points="1438.5,-112.5 1438.5,-131.5 1520.5,-131.5 1520.5,-112.5 1438.5,-112.5"/>
<text text-anchor="middle" x="1479.5" y="-119.5" font-family="Helvetica,sans-Serif" font-size="10.00">FLCBDF_lite.h</text>
</g>
<!-- Node0&#45;&gt;Node29 -->
<g id="edge32" class="edge"><title>Node0&#45;&gt;Node29</title>
<path fill="none" stroke="midnightblue" d="M811.58,-175.243C929.093,-171.364 1194.93,-160.174 1428.32,-132.007"/>
<polygon fill="midnightblue" stroke="midnightblue" points="1428.85,-135.468 1438.35,-130.783 1428,-128.519 1428.85,-135.468"/>
</g>
<!-- Node30 -->
<g id="node31" class="node"><title>Node30</title>
<polygon fill="white" stroke="#bfbfbf" points="1538.5,-112.5 1538.5,-131.5 1584.5,-131.5 1584.5,-112.5 1538.5,-112.5"/>
<text text-anchor="middle" x="1561.5" y="-119.5" font-family="Helvetica,sans-Serif" font-size="10.00">stdio.h</text>
</g>
<!-- Node0&#45;&gt;Node30 -->
<g id="edge33" class="edge"><title>Node0&#45;&gt;Node30</title>
<path fill="none" stroke="midnightblue" d="M811.715,-175.176C966.741,-170.29 1372.92,-155.749 1527.93,-131.841"/>
<polygon fill="midnightblue" stroke="midnightblue" points="1528.9,-135.23 1538.21,-130.178 1527.78,-128.32 1528.9,-135.23"/>
</g>
<!-- Node31 -->
<g id="node32" class="node"><title>Node31</title>
<polygon fill="white" stroke="#bfbfbf" points="1603,-112.5 1603,-131.5 1654,-131.5 1654,-112.5 1603,-112.5"/>
<text text-anchor="middle" x="1628.5" y="-119.5" font-family="Helvetica,sans-Serif" font-size="10.00">valarray</text>
</g>
<!-- Node0&#45;&gt;Node31 -->
<g id="edge34" class="edge"><title>Node0&#45;&gt;Node31</title>
<path fill="none" stroke="midnightblue" d="M811.501,-175.316C975.474,-170.543 1424.12,-155.804 1592.65,-131.749"/>
<polygon fill="midnightblue" stroke="midnightblue" points="1593.25,-135.199 1602.63,-130.263 1592.22,-128.275 1593.25,-135.199"/>
</g>
<!-- Node6&#45;&gt;Node3 -->
<g id="edge7" class="edge"><title>Node6&#45;&gt;Node3</title>
<path fill="none" stroke="midnightblue" d="M250.486,-112.444C230.912,-103.636 200.192,-89.8116 177.771,-79.722"/>
<polygon fill="midnightblue" stroke="midnightblue" points="178.981,-76.4284 168.425,-75.5164 176.108,-82.8119 178.981,-76.4284"/>
</g>
<!-- Node6&#45;&gt;Node4 -->
<g id="edge8" class="edge"><title>Node6&#45;&gt;Node4</title>
<path fill="none" stroke="midnightblue" d="M266.363,-112.083C263.817,-104.849 260.144,-94.4087 256.973,-85.3968"/>
<polygon fill="midnightblue" stroke="midnightblue" points="260.2,-84.0225 253.579,-75.7511 253.597,-86.3459 260.2,-84.0225"/>
</g>
<!-- Node6&#45;&gt;Node7 -->
<g id="edge9" class="edge"><title>Node6&#45;&gt;Node7</title>
<path fill="none" stroke="midnightblue" d="M282.514,-112.324C295.032,-103.979 314.182,-91.2122 328.971,-81.3524"/>
<polygon fill="midnightblue" stroke="midnightblue" points="331.139,-84.1137 337.518,-75.6545 327.256,-78.2894 331.139,-84.1137"/>
</g>
<!-- Node8 -->
<g id="node9" class="node"><title>Node8</title>
<polygon fill="white" stroke="#bfbfbf" points="68.5,-0.5 68.5,-19.5 98.5,-19.5 98.5,-0.5 68.5,-0.5"/>
<text text-anchor="middle" x="83.5" y="-7.5" font-family="Helvetica,sans-Serif" font-size="10.00">set</text>
</g>
<!-- Node7&#45;&gt;Node8 -->
<g id="edge10" class="edge"><title>Node7&#45;&gt;Node8</title>
<path fill="none" stroke="midnightblue" d="M325.609,-58.8839C321.25,-57.8759 316.75,-56.8756 312.5,-56 224.995,-37.9703 198.54,-43.895 108.41,-19.8155"/>
<polygon fill="midnightblue" stroke="midnightblue" points="109.165,-16.3936 98.5963,-17.1439 107.326,-23.1478 109.165,-16.3936"/>
</g>
<!-- Node9 -->
<g id="node10" class="node"><title>Node9</title>
<polygon fill="white" stroke="#bfbfbf" points="116.5,-0.5 116.5,-19.5 160.5,-19.5 160.5,-0.5 116.5,-0.5"/>
<text text-anchor="middle" x="138.5" y="-7.5" font-family="Helvetica,sans-Serif" font-size="10.00">vector</text>
</g>
<!-- Node7&#45;&gt;Node9 -->
<g id="edge11" class="edge"><title>Node7&#45;&gt;Node9</title>
<path fill="none" stroke="midnightblue" d="M325.83,-59.188C292.693,-51.3121 231.753,-36.586 170.629,-20.231"/>
<polygon fill="midnightblue" stroke="midnightblue" points="171.388,-16.8107 160.822,-17.5929 169.57,-23.5704 171.388,-16.8107"/>
</g>
<!-- Node10 -->
<g id="node11" class="node"><title>Node10</title>
<polygon fill="white" stroke="#bfbfbf" points="178.5,-0.5 178.5,-19.5 234.5,-19.5 234.5,-0.5 178.5,-0.5"/>
<text text-anchor="middle" x="206.5" y="-7.5" font-family="Helvetica,sans-Serif" font-size="10.00">algorithm</text>
</g>
<!-- Node7&#45;&gt;Node10 -->
<g id="edge12" class="edge"><title>Node7&#45;&gt;Node10</title>
<path fill="none" stroke="midnightblue" d="M327.683,-56.4435C303.668,-47.4381 265.671,-33.1891 238.631,-23.049"/>
<polygon fill="midnightblue" stroke="midnightblue" points="239.803,-19.7506 229.21,-19.5164 237.345,-26.3049 239.803,-19.7506"/>
</g>
<!-- Node11 -->
<g id="node12" class="node"><title>Node11</title>
<polygon fill="white" stroke="#bfbfbf" points="253,-0.5 253,-19.5 288,-19.5 288,-0.5 253,-0.5"/>
<text text-anchor="middle" x="270.5" y="-7.5" font-family="Helvetica,sans-Serif" font-size="10.00">map</text>
</g>
<!-- Node7&#45;&gt;Node11 -->
<g id="edge13" class="edge"><title>Node7&#45;&gt;Node11</title>
<path fill="none" stroke="midnightblue" d="M337.647,-56.324C325.284,-47.979 306.37,-35.2122 291.763,-25.3524"/>
<polygon fill="midnightblue" stroke="midnightblue" points="293.568,-22.3483 283.321,-19.6545 289.652,-28.1503 293.568,-22.3483"/>
</g>
<!-- Node12 -->
<g id="node13" class="node"><title>Node12</title>
<polygon fill="white" stroke="#bfbfbf" points="306,-0.5 306,-19.5 335,-19.5 335,-0.5 306,-0.5"/>
<text text-anchor="middle" x="320.5" y="-7.5" font-family="Helvetica,sans-Serif" font-size="10.00">list</text>
</g>
<!-- Node7&#45;&gt;Node12 -->
<g id="edge14" class="edge"><title>Node7&#45;&gt;Node12</title>
<path fill="none" stroke="midnightblue" d="M345.546,-56.083C341.396,-48.6127 335.347,-37.7244 330.233,-28.5199"/>
<polygon fill="midnightblue" stroke="midnightblue" points="333.278,-26.7929 325.362,-19.7511 327.159,-30.1924 333.278,-26.7929"/>
</g>
<!-- Node13 -->
<g id="node14" class="node"><title>Node13</title>
<polygon fill="white" stroke="#bfbfbf" points="353.5,-0.5 353.5,-19.5 407.5,-19.5 407.5,-0.5 353.5,-0.5"/>
<text text-anchor="middle" x="380.5" y="-7.5" font-family="Helvetica,sans-Serif" font-size="10.00">iostream</text>
</g>
<!-- Node7&#45;&gt;Node13 -->
<g id="edge15" class="edge"><title>Node7&#45;&gt;Node13</title>
<path fill="none" stroke="midnightblue" d="M355.454,-56.083C359.604,-48.6127 365.653,-37.7244 370.767,-28.5199"/>
<polygon fill="midnightblue" stroke="midnightblue" points="373.841,-30.1924 375.638,-19.7511 367.722,-26.7929 373.841,-30.1924"/>
</g>
<!-- Node14 -->
<g id="node15" class="node"><title>Node14</title>
<polygon fill="white" stroke="#bfbfbf" points="425.5,-0.5 425.5,-19.5 475.5,-19.5 475.5,-0.5 425.5,-0.5"/>
<text text-anchor="middle" x="450.5" y="-7.5" font-family="Helvetica,sans-Serif" font-size="10.00">iomanip</text>
</g>
<!-- Node7&#45;&gt;Node14 -->
<g id="edge16" class="edge"><title>Node7&#45;&gt;Node14</title>
<path fill="none" stroke="midnightblue" d="M366.567,-56.324C382.458,-47.7428 407.007,-34.486 425.458,-24.5224"/>
<polygon fill="midnightblue" stroke="midnightblue" points="427.337,-27.4857 434.473,-19.6545 424.011,-21.3264 427.337,-27.4857"/>
</g>
<!-- Node15 -->
<g id="node16" class="node"><title>Node15</title>
<polygon fill="white" stroke="#bfbfbf" points="493.5,-0.5 493.5,-19.5 543.5,-19.5 543.5,-0.5 493.5,-0.5"/>
<text text-anchor="middle" x="518.5" y="-7.5" font-family="Helvetica,sans-Serif" font-size="10.00">fstream</text>
</g>
<!-- Node7&#45;&gt;Node15 -->
<g id="edge17" class="edge"><title>Node7&#45;&gt;Node15</title>
<path fill="none" stroke="midnightblue" d="M375.289,-57.0321C403.868,-47.846 451.052,-32.6798 483.397,-22.2832"/>
<polygon fill="midnightblue" stroke="midnightblue" points="484.885,-25.4812 493.335,-19.0889 482.743,-18.817 484.885,-25.4812"/>
</g>
<!-- Node16 -->
<g id="node17" class="node"><title>Node16</title>
<polygon fill="white" stroke="#bfbfbf" points="562,-0.5 562,-19.5 611,-19.5 611,-0.5 562,-0.5"/>
<text text-anchor="middle" x="586.5" y="-7.5" font-family="Helvetica,sans-Serif" font-size="10.00">cassert</text>
</g>
<!-- Node7&#45;&gt;Node16 -->
<g id="edge18" class="edge"><title>Node7&#45;&gt;Node16</title>
<path fill="none" stroke="midnightblue" d="M375.138,-59.8401C411.547,-52.1443 482.082,-36.9658 551.816,-20.0919"/>
<polygon fill="midnightblue" stroke="midnightblue" points="552.757,-23.465 561.647,-17.7003 551.103,-16.6634 552.757,-23.465"/>
</g>
<!-- Node17 -->
<g id="node18" class="node"><title>Node17</title>
<polygon fill="white" stroke="#bfbfbf" points="629.5,-0.5 629.5,-19.5 673.5,-19.5 673.5,-0.5 629.5,-0.5"/>
<text text-anchor="middle" x="651.5" y="-7.5" font-family="Helvetica,sans-Serif" font-size="10.00">cmath</text>
</g>
<!-- Node7&#45;&gt;Node17 -->
<g id="edge19" class="edge"><title>Node7&#45;&gt;Node17</title>
<path fill="none" stroke="midnightblue" d="M375.259,-61.8646C421.437,-55.8058 523.963,-41.3619 619.423,-20.0269"/>
<polygon fill="midnightblue" stroke="midnightblue" points="620.251,-23.428 629.231,-17.8045 618.704,-16.6011 620.251,-23.428"/>
</g>
</g>
</svg>
