<?xml version="1.0" encoding="UTF-8" standalone="no"?>
<!DOCTYPE svg PUBLIC "-//W3C//DTD SVG 1.1//EN"
 "http://www.w3.org/Graphics/SVG/1.1/DTD/svg11.dtd">
<!-- Generated by graphviz version 2.38.0 (20140413.2041)
 -->
<!-- Title: flcbdfWrappersModule.cpp Pages: 1 -->
<svg width="1782pt" height="252pt"
 viewBox="0.00 0.00 1781.50 252.00" xmlns="http://www.w3.org/2000/svg" xmlns:xlink="http://www.w3.org/1999/xlink">
<g id="graph0" class="graph" transform="scale(1 1) rotate(0) translate(4 248)">
<title>flcbdfWrappersModule.cpp</title>
<polygon fill="white" stroke="none" points="-4,4 -4,-248 1777.5,-248 1777.5,4 -4,4"/>
<!-- Node0 -->
<g id="node1" class="node"><title>Node0</title>
<polygon fill="#bfbfbf" stroke="black" points="12.5,-224.5 12.5,-243.5 145.5,-243.5 145.5,-224.5 12.5,-224.5"/>
<text text-anchor="middle" x="79" y="-231.5" font-family="Helvetica,sans-Serif" font-size="10.00">flcbdfWrappersModule.cpp</text>
</g>
<!-- Node1 -->
<g id="node2" class="node"><title>Node1</title>
<g id="a_node2"><a xlink:href="flcbdf_wrappers_module_8h.html" target="_top" xlink:title="Python interface to adpative BDF code (daetk) ">
<polygon fill="white" stroke="black" points="870,-168.5 870,-187.5 992,-187.5 992,-168.5 870,-168.5"/>
<text text-anchor="middle" x="931" y="-175.5" font-family="Helvetica,sans-Serif" font-size="10.00">flcbdfWrappersModule.h</text>
</a>
</g>
</g>
<!-- Node0&#45;&gt;Node1 -->
<g id="edge1" class="edge"><title>Node0&#45;&gt;Node1</title>
<path fill="none" stroke="midnightblue" d="M145.5,-228.785C302.908,-218.809 697.24,-193.816 859.519,-183.531"/>
<polygon fill="midnightblue" stroke="midnightblue" points="860.109,-187 869.867,-182.875 859.666,-180.014 860.109,-187"/>
</g>
<!-- Node11 -->
<g id="node12" class="node"><title>Node11</title>
<polygon fill="white" stroke="#bfbfbf" points="1158,-0.5 1158,-19.5 1214,-19.5 1214,-0.5 1158,-0.5"/>
<text text-anchor="middle" x="1186" y="-7.5" font-family="Helvetica,sans-Serif" font-size="10.00">algorithm</text>
</g>
<!-- Node0&#45;&gt;Node11 -->
<g id="edge36" class="edge"><title>Node0&#45;&gt;Node11</title>
<path fill="none" stroke="midnightblue" d="M77.2363,-224.387C73.2215,-202.061 66.0625,-141.981 98,-112 176.141,-38.6473 964.173,-16.0943 1147.87,-11.8145"/>
<polygon fill="midnightblue" stroke="midnightblue" points="1147.96,-15.3135 1157.87,-11.5856 1147.8,-8.31531 1147.96,-15.3135"/>
</g>
<!-- Node33 -->
<g id="node34" class="node"><title>Node33</title>
<g id="a_node34"><a xlink:href="meshio_8h.html" target="_top" xlink:title="meshio.h">
<polygon fill="white" stroke="black" points="0,-56.5 0,-75.5 56,-75.5 56,-56.5 0,-56.5"/>
<text text-anchor="middle" x="28" y="-63.5" font-family="Helvetica,sans-Serif" font-size="10.00">meshio.h</text>
</a>
</g>
</g>
<!-- Node0&#45;&gt;Node33 -->
<g id="edge37" class="edge"><title>Node0&#45;&gt;Node33</title>
<path fill="none" stroke="midnightblue" d="M76.3037,-224.377C73.4753,-215.322 68.9067,-200.666 65,-188 53.7652,-151.576 40.7617,-108.938 33.5488,-85.2448"/>
<polygon fill="midnightblue" stroke="midnightblue" points="36.8471,-84.0609 30.5876,-75.5129 30.1503,-86.0987 36.8471,-84.0609"/>
</g>
<!-- Node2 -->
<g id="node3" class="node"><title>Node2</title>
<polygon fill="white" stroke="#bfbfbf" points="1398.5,-112.5 1398.5,-131.5 1447.5,-131.5 1447.5,-112.5 1398.5,-112.5"/>
<text text-anchor="middle" x="1423" y="-119.5" font-family="Helvetica,sans-Serif" font-size="10.00">cstddef</text>
</g>
<!-- Node1&#45;&gt;Node2 -->
<g id="edge2" class="edge"><title>Node1&#45;&gt;Node2</title>
<path fill="none" stroke="midnightblue" d="M992.179,-174.122C1078.43,-169.373 1240.75,-157.903 1388.09,-131.87"/>
<polygon fill="midnightblue" stroke="midnightblue" points="1389,-135.263 1398.22,-130.052 1387.76,-128.373 1389,-135.263"/>
</g>
<!-- Node3 -->
<g id="node4" class="node"><title>Node3</title>
<polygon fill="white" stroke="#bfbfbf" points="1465.5,-112.5 1465.5,-131.5 1518.5,-131.5 1518.5,-112.5 1465.5,-112.5"/>
<text text-anchor="middle" x="1492" y="-119.5" font-family="Helvetica,sans-Serif" font-size="10.00">complex</text>
</g>
<!-- Node1&#45;&gt;Node3 -->
<g id="edge3" class="edge"><title>Node1&#45;&gt;Node3</title>
<path fill="none" stroke="midnightblue" d="M992.024,-174.927C1088.44,-170.959 1281.97,-160.184 1455.29,-131.833"/>
<polygon fill="midnightblue" stroke="midnightblue" points="1456.07,-135.252 1465.36,-130.162 1454.93,-128.346 1456.07,-135.252"/>
</g>
<!-- Node4 -->
<g id="node5" class="node"><title>Node4</title>
<polygon fill="white" stroke="#bfbfbf" points="1681,-56.5 1681,-75.5 1737,-75.5 1737,-56.5 1681,-56.5"/>
<text text-anchor="middle" x="1709" y="-63.5" font-family="Helvetica,sans-Serif" font-size="10.00">Python.h</text>
</g>
<!-- Node1&#45;&gt;Node4 -->
<g id="edge4" class="edge"><title>Node1&#45;&gt;Node4</title>
<path fill="none" stroke="midnightblue" d="M992.253,-175.833C1175.22,-172.049 1706.67,-158.789 1732,-132 1744.53,-118.746 1734,-98.2415 1723.41,-83.8136"/>
<polygon fill="midnightblue" stroke="midnightblue" points="1725.97,-81.4073 1717.03,-75.7345 1720.48,-85.7493 1725.97,-81.4073"/>
</g>
<!-- Node5 -->
<g id="node6" class="node"><title>Node5</title>
<polygon fill="white" stroke="#bfbfbf" points="1437.5,-56.5 1437.5,-75.5 1542.5,-75.5 1542.5,-56.5 1437.5,-56.5"/>
<text text-anchor="middle" x="1490" y="-63.5" font-family="Helvetica,sans-Serif" font-size="10.00">numpy/arrayobject.h</text>
</g>
<!-- Node1&#45;&gt;Node5 -->
<g id="edge5" class="edge"><title>Node1&#45;&gt;Node5</title>
<path fill="none" stroke="midnightblue" d="M992.188,-176.979C1136.97,-176.291 1491.17,-170.638 1527,-132 1540.76,-117.163 1524.06,-96.3031 1508.88,-82.2513"/>
<polygon fill="midnightblue" stroke="midnightblue" points="1511.09,-79.5318 1501.25,-75.5916 1506.48,-84.8049 1511.09,-79.5318"/>
</g>
<!-- Node6 -->
<g id="node7" class="node"><title>Node6</title>
<g id="a_node7"><a xlink:href="superlu_wrappers_module_8h.html" target="_top" xlink:title="Python interface to superlu. ">
<polygon fill="white" stroke="black" points="107,-112.5 107,-131.5 237,-131.5 237,-112.5 107,-112.5"/>
<text text-anchor="middle" x="172" y="-119.5" font-family="Helvetica,sans-Serif" font-size="10.00">superluWrappersModule.h</text>
</a>
</g>
</g>
<!-- Node1&#45;&gt;Node6 -->
<g id="edge6" class="edge"><title>Node1&#45;&gt;Node6</title>
<path fill="none" stroke="midnightblue" d="M869.971,-174.128C751.875,-168.323 483.643,-153.931 247.504,-132.093"/>
<polygon fill="midnightblue" stroke="midnightblue" points="247.63,-128.589 237.349,-131.147 246.981,-135.559 247.63,-128.589"/>
</g>
<!-- Node7 -->
<g id="node8" class="node"><title>Node7</title>
<g id="a_node8"><a xlink:href="cmesh_tools_module_8h.html" target="_top" xlink:title="cmeshToolsModule.h">
<polygon fill="white" stroke="black" points="1613,-112.5 1613,-131.5 1723,-131.5 1723,-112.5 1613,-112.5"/>
<text text-anchor="middle" x="1668" y="-119.5" font-family="Helvetica,sans-Serif" font-size="10.00">cmeshToolsModule.h</text>
</a>
</g>
</g>
<!-- Node1&#45;&gt;Node7 -->
<g id="edge7" class="edge"><title>Node1&#45;&gt;Node7</title>
<path fill="none" stroke="midnightblue" d="M992.351,-174.151C1110.14,-168.396 1376.04,-154.029 1599,-132 1600.11,-131.89 1601.23,-131.776 1602.36,-131.659"/>
<polygon fill="midnightblue" stroke="midnightblue" points="1603.12,-135.098 1612.67,-130.525 1602.35,-128.14 1603.12,-135.098"/>
</g>
<!-- Node8 -->
<g id="node9" class="node"><title>Node8</title>
<g id="a_node9"><a xlink:href="mesh_8h.html" target="_top" xlink:title="mesh.h">
<polygon fill="white" stroke="black" points="1560.5,-56.5 1560.5,-75.5 1609.5,-75.5 1609.5,-56.5 1560.5,-56.5"/>
<text text-anchor="middle" x="1585" y="-63.5" font-family="Helvetica,sans-Serif" font-size="10.00">mesh.h</text>
</a>
</g>
</g>
<!-- Node1&#45;&gt;Node8 -->
<g id="edge21" class="edge"><title>Node1&#45;&gt;Node8</title>
<path fill="none" stroke="midnightblue" d="M992.165,-175.617C1138,-171.882 1497.48,-159.926 1544,-132 1561.47,-121.51 1572.69,-100.397 1578.9,-85.0722"/>
<polygon fill="midnightblue" stroke="midnightblue" points="1582.22,-86.1825 1582.41,-75.5894 1575.66,-83.7515 1582.22,-86.1825"/>
</g>
<!-- Node19 -->
<g id="node20" class="node"><title>Node19</title>
<polygon fill="white" stroke="#bfbfbf" points="255.5,-112.5 255.5,-131.5 296.5,-131.5 296.5,-112.5 255.5,-112.5"/>
<text text-anchor="middle" x="276" y="-119.5" font-family="Helvetica,sans-Serif" font-size="10.00">mpi.h</text>
</g>
<!-- Node1&#45;&gt;Node19 -->
<g id="edge22" class="edge"><title>Node1&#45;&gt;Node19</title>
<path fill="none" stroke="midnightblue" d="M869.666,-177.027C758.802,-176.11 517.782,-169.696 306.547,-131.637"/>
<polygon fill="midnightblue" stroke="midnightblue" points="306.978,-128.158 296.511,-129.801 305.718,-135.044 306.978,-128.158"/>
</g>
<!-- Node20 -->
<g id="node21" class="node"><title>Node20</title>
<polygon fill="white" stroke="#bfbfbf" points="315,-112.5 315,-131.5 359,-131.5 359,-112.5 315,-112.5"/>
<text text-anchor="middle" x="337" y="-119.5" font-family="Helvetica,sans-Serif" font-size="10.00">hdf5.h</text>
</g>
<!-- Node1&#45;&gt;Node20 -->
<g id="edge23" class="edge"><title>Node1&#45;&gt;Node20</title>
<path fill="none" stroke="midnightblue" d="M869.655,-176.155C767.463,-173.861 555.965,-165.343 369.221,-131.858"/>
<polygon fill="midnightblue" stroke="midnightblue" points="369.687,-128.385 359.222,-130.037 368.433,-135.272 369.687,-128.385"/>
</g>
<!-- Node21 -->
<g id="node22" class="node"><title>Node21</title>
<polygon fill="white" stroke="#bfbfbf" points="377.5,-112.5 377.5,-131.5 426.5,-131.5 426.5,-112.5 377.5,-112.5"/>
<text text-anchor="middle" x="402" y="-119.5" font-family="Helvetica,sans-Serif" font-size="10.00">petsc.h</text>
</g>
<!-- Node1&#45;&gt;Node21 -->
<g id="edge24" class="edge"><title>Node1&#45;&gt;Node21</title>
<path fill="none" stroke="midnightblue" d="M869.836,-174.909C777.667,-170.998 597.658,-160.405 436.835,-132.058"/>
<polygon fill="midnightblue" stroke="midnightblue" points="437.22,-128.572 426.759,-130.254 435.986,-135.462 437.22,-128.572"/>
</g>
<!-- Node22 -->
<g id="node23" class="node"><title>Node22</title>
<polygon fill="white" stroke="#bfbfbf" points="444.5,-112.5 444.5,-131.5 509.5,-131.5 509.5,-112.5 444.5,-112.5"/>
<text text-anchor="middle" x="477" y="-119.5" font-family="Helvetica,sans-Serif" font-size="10.00">petscmat.h</text>
</g>
<!-- Node1&#45;&gt;Node22 -->
<g id="edge25" class="edge"><title>Node1&#45;&gt;Node22</title>
<path fill="none" stroke="midnightblue" d="M869.842,-172.405C791.031,-166.025 649.616,-153.02 519.739,-132.139"/>
<polygon fill="midnightblue" stroke="midnightblue" points="520.045,-128.642 509.613,-130.49 518.921,-135.552 520.045,-128.642"/>
</g>
<!-- Node23 -->
<g id="node24" class="node"><title>Node23</title>
<polygon fill="white" stroke="#bfbfbf" points="527.5,-112.5 527.5,-131.5 586.5,-131.5 586.5,-112.5 527.5,-112.5"/>
<text text-anchor="middle" x="557" y="-119.5" font-family="Helvetica,sans-Serif" font-size="10.00">petscao.h</text>
</g>
<!-- Node1&#45;&gt;Node23 -->
<g id="edge26" class="edge"><title>Node1&#45;&gt;Node23</title>
<path fill="none" stroke="midnightblue" d="M869.706,-170.644C804.308,-163.446 697.505,-150.499 596.845,-132.202"/>
<polygon fill="midnightblue" stroke="midnightblue" points="597.28,-128.723 586.811,-130.356 596.013,-135.608 597.28,-128.723"/>
</g>
<!-- Node24 -->
<g id="node25" class="node"><title>Node24</title>
<polygon fill="white" stroke="#bfbfbf" points="604.5,-112.5 604.5,-131.5 661.5,-131.5 661.5,-112.5 604.5,-112.5"/>
<text text-anchor="middle" x="633" y="-119.5" font-family="Helvetica,sans-Serif" font-size="10.00">petscbt.h</text>
</g>
<!-- Node1&#45;&gt;Node24 -->
<g id="edge27" class="edge"><title>Node1&#45;&gt;Node24</title>
<path fill="none" stroke="midnightblue" d="M875.042,-168.479C824.327,-160.502 747.314,-147.756 671.8,-132.272"/>
<polygon fill="midnightblue" stroke="midnightblue" points="672.142,-128.768 661.64,-130.17 670.723,-135.623 672.142,-128.768"/>
</g>
<!-- Node25 -->
<g id="node26" class="node"><title>Node25</title>
<polygon fill="white" stroke="#bfbfbf" points="679.5,-112.5 679.5,-131.5 744.5,-131.5 744.5,-112.5 679.5,-112.5"/>
<text text-anchor="middle" x="712" y="-119.5" font-family="Helvetica,sans-Serif" font-size="10.00">petscksp.h</text>
</g>
<!-- Node1&#45;&gt;Node25 -->
<g id="edge28" class="edge"><title>Node1&#45;&gt;Node25</title>
<path fill="none" stroke="midnightblue" d="M896.299,-168.444C857.858,-158.965 795.859,-143.678 754.528,-133.486"/>
<polygon fill="midnightblue" stroke="midnightblue" points="755.298,-130.071 744.75,-131.075 753.622,-136.868 755.298,-130.071"/>
</g>
<!-- Node26 -->
<g id="node27" class="node"><title>Node26</title>
<polygon fill="white" stroke="#bfbfbf" points="763,-112.5 763,-131.5 831,-131.5 831,-112.5 763,-112.5"/>
<text text-anchor="middle" x="797" y="-119.5" font-family="Helvetica,sans-Serif" font-size="10.00">petscconf.h</text>
</g>
<!-- Node1&#45;&gt;Node26 -->
<g id="edge29" class="edge"><title>Node1&#45;&gt;Node26</title>
<path fill="none" stroke="midnightblue" d="M909.767,-168.444C887.616,-159.517 852.681,-145.439 827.564,-135.317"/>
<polygon fill="midnightblue" stroke="midnightblue" points="828.717,-132.008 818.133,-131.516 826.1,-138.501 828.717,-132.008"/>
</g>
<!-- Node27 -->
<g id="node28" class="node"><title>Node27</title>
<polygon fill="white" stroke="#bfbfbf" points="849.5,-112.5 849.5,-131.5 920.5,-131.5 920.5,-112.5 849.5,-112.5"/>
<text text-anchor="middle" x="885" y="-119.5" font-family="Helvetica,sans-Serif" font-size="10.00">Definitions.h</text>
</g>
<!-- Node1&#45;&gt;Node27 -->
<g id="edge30" class="edge"><title>Node1&#45;&gt;Node27</title>
<path fill="none" stroke="midnightblue" d="M923.404,-168.083C916.773,-160.298 906.979,-148.801 898.942,-139.367"/>
<polygon fill="midnightblue" stroke="midnightblue" points="901.604,-137.094 892.455,-131.751 896.275,-141.633 901.604,-137.094"/>
</g>
<!-- Node28 -->
<g id="node29" class="node"><title>Node28</title>
<polygon fill="white" stroke="#bfbfbf" points="938.5,-112.5 938.5,-131.5 1015.5,-131.5 1015.5,-112.5 938.5,-112.5"/>
<text text-anchor="middle" x="977" y="-119.5" font-family="Helvetica,sans-Serif" font-size="10.00">FullDataFile.h</text>
</g>
<!-- Node1&#45;&gt;Node28 -->
<g id="edge31" class="edge"><title>Node1&#45;&gt;Node28</title>
<path fill="none" stroke="midnightblue" d="M938.596,-168.083C945.227,-160.298 955.021,-148.801 963.058,-139.367"/>
<polygon fill="midnightblue" stroke="midnightblue" points="965.725,-141.633 969.545,-131.751 960.396,-137.094 965.725,-141.633"/>
</g>
<!-- Node29 -->
<g id="node30" class="node"><title>Node29</title>
<polygon fill="white" stroke="#bfbfbf" points="1033.5,-112.5 1033.5,-131.5 1146.5,-131.5 1146.5,-112.5 1033.5,-112.5"/>
<text text-anchor="middle" x="1090" y="-119.5" font-family="Helvetica,sans-Serif" font-size="10.00">WeightedRMSNorm.h</text>
</g>
<!-- Node1&#45;&gt;Node29 -->
<g id="edge32" class="edge"><title>Node1&#45;&gt;Node29</title>
<path fill="none" stroke="midnightblue" d="M956.194,-168.444C982.943,-159.359 1025.4,-144.939 1055.31,-134.783"/>
<polygon fill="midnightblue" stroke="midnightblue" points="1056.58,-138.046 1064.92,-131.516 1054.33,-131.418 1056.58,-138.046"/>
</g>
<!-- Node30 -->
<g id="node31" class="node"><title>Node30</title>
<polygon fill="white" stroke="#bfbfbf" points="1165,-112.5 1165,-131.5 1247,-131.5 1247,-112.5 1165,-112.5"/>
<text text-anchor="middle" x="1206" y="-119.5" font-family="Helvetica,sans-Serif" font-size="10.00">FLCBDF_lite.h</text>
</g>
<!-- Node1&#45;&gt;Node30 -->
<g id="edge33" class="edge"><title>Node1&#45;&gt;Node30</title>
<path fill="none" stroke="midnightblue" d="M974.575,-168.444C1023.56,-158.825 1103.01,-143.224 1154.88,-133.037"/>
<polygon fill="midnightblue" stroke="midnightblue" points="1155.74,-136.437 1164.88,-131.075 1154.39,-129.568 1155.74,-136.437"/>
</g>
<!-- Node31 -->
<g id="node32" class="node"><title>Node31</title>
<polygon fill="white" stroke="#bfbfbf" points="1265,-112.5 1265,-131.5 1311,-131.5 1311,-112.5 1265,-112.5"/>
<text text-anchor="middle" x="1288" y="-119.5" font-family="Helvetica,sans-Serif" font-size="10.00">stdio.h</text>
</g>
<!-- Node1&#45;&gt;Node31 -->
<g id="edge34" class="edge"><title>Node1&#45;&gt;Node31</title>
<path fill="none" stroke="midnightblue" d="M992.225,-171.045C1055.7,-164.306 1157.91,-151.87 1254.72,-132.029"/>
<polygon fill="midnightblue" stroke="midnightblue" points="1255.59,-135.422 1264.67,-129.958 1254.17,-128.568 1255.59,-135.422"/>
</g>
<!-- Node32 -->
<g id="node33" class="node"><title>Node32</title>
<polygon fill="white" stroke="#bfbfbf" points="1329.5,-112.5 1329.5,-131.5 1380.5,-131.5 1380.5,-112.5 1329.5,-112.5"/>
<text text-anchor="middle" x="1355" y="-119.5" font-family="Helvetica,sans-Serif" font-size="10.00">valarray</text>
</g>
<!-- Node1&#45;&gt;Node32 -->
<g id="edge35" class="edge"><title>Node1&#45;&gt;Node32</title>
<path fill="none" stroke="midnightblue" d="M992.025,-172.534C1066.92,-166.475 1197.89,-154.009 1319.61,-131.817"/>
<polygon fill="midnightblue" stroke="midnightblue" points="1320.28,-135.253 1329.48,-129.993 1319.01,-128.369 1320.28,-135.253"/>
</g>
<!-- Node7&#45;&gt;Node4 -->
<g id="edge8" class="edge"><title>Node7&#45;&gt;Node4</title>
<path fill="none" stroke="midnightblue" d="M1674.77,-112.083C1680.56,-104.455 1689.06,-93.2645 1696.14,-83.9408"/>
<polygon fill="midnightblue" stroke="midnightblue" points="1699.1,-85.8321 1702.36,-75.7511 1693.52,-81.5991 1699.1,-85.8321"/>
</g>
<!-- Node7&#45;&gt;Node5 -->
<g id="edge9" class="edge"><title>Node7&#45;&gt;Node5</title>
<path fill="none" stroke="midnightblue" d="M1639.8,-112.444C1609.59,-103.28 1561.49,-88.6876 1527.97,-78.5192"/>
<polygon fill="midnightblue" stroke="midnightblue" points="1528.66,-75.0703 1518.07,-75.5164 1526.63,-81.7688 1528.66,-75.0703"/>
</g>
<!-- Node7&#45;&gt;Node8 -->
<g id="edge10" class="edge"><title>Node7&#45;&gt;Node8</title>
<path fill="none" stroke="midnightblue" d="M1654.66,-112.324C1641.84,-103.979 1622.22,-91.2122 1607.06,-81.3524"/>
<polygon fill="midnightblue" stroke="midnightblue" points="1608.59,-78.1742 1598.3,-75.6545 1604.78,-84.0417 1608.59,-78.1742"/>
</g>
<!-- Node9 -->
<g id="node10" class="node"><title>Node9</title>
<polygon fill="white" stroke="#bfbfbf" points="1690,-0.5 1690,-19.5 1720,-19.5 1720,-0.5 1690,-0.5"/>
<text text-anchor="middle" x="1705" y="-7.5" font-family="Helvetica,sans-Serif" font-size="10.00">set</text>
</g>
<!-- Node8&#45;&gt;Node9 -->
<g id="edge11" class="edge"><title>Node8&#45;&gt;Node9</title>
<path fill="none" stroke="midnightblue" d="M1604.01,-56.4435C1624.74,-47.1175 1657.96,-32.1679 1680.6,-21.982"/>
<polygon fill="midnightblue" stroke="midnightblue" points="1682.19,-25.1021 1689.87,-17.8067 1679.32,-18.7186 1682.19,-25.1021"/>
</g>
<!-- Node10 -->
<g id="node11" class="node"><title>Node10</title>
<polygon fill="white" stroke="#bfbfbf" points="163,-0.5 163,-19.5 207,-19.5 207,-0.5 163,-0.5"/>
<text text-anchor="middle" x="185" y="-7.5" font-family="Helvetica,sans-Serif" font-size="10.00">vector</text>
</g>
<!-- Node8&#45;&gt;Node10 -->
<g id="edge12" class="edge"><title>Node8&#45;&gt;Node10</title>
<path fill="none" stroke="midnightblue" d="M1560.25,-57.7578C1557.16,-57.0574 1554.02,-56.4437 1551,-56 1415.35,-36.0736 411.158,-15.447 217.33,-11.6274"/>
<polygon fill="midnightblue" stroke="midnightblue" points="217.283,-8.1259 207.217,-11.4289 217.146,-15.1246 217.283,-8.1259"/>
</g>
<!-- Node8&#45;&gt;Node11 -->
<g id="edge13" class="edge"><title>Node8&#45;&gt;Node11</title>
<path fill="none" stroke="midnightblue" d="M1560.21,-58.0201C1557.12,-57.2748 1554,-56.5788 1551,-56 1432.88,-33.1949 1290.91,-19.5823 1224.18,-13.9845"/>
<polygon fill="midnightblue" stroke="midnightblue" points="1224.39,-10.4897 1214.14,-13.1547 1223.81,-17.4659 1224.39,-10.4897"/>
</g>
<!-- Node12 -->
<g id="node13" class="node"><title>Node12</title>
<polygon fill="white" stroke="#bfbfbf" points="1738.5,-0.5 1738.5,-19.5 1773.5,-19.5 1773.5,-0.5 1738.5,-0.5"/>
<text text-anchor="middle" x="1756" y="-7.5" font-family="Helvetica,sans-Serif" font-size="10.00">map</text>
</g>
<!-- Node8&#45;&gt;Node12 -->
<g id="edge14" class="edge"><title>Node8&#45;&gt;Node12</title>
<path fill="none" stroke="midnightblue" d="M1609.5,-57.4965C1636.4,-49.2266 1681.09,-35.3902 1728.73,-20.0426"/>
<polygon fill="midnightblue" stroke="midnightblue" points="1729.86,-23.3578 1738.3,-16.9541 1727.71,-16.6965 1729.86,-23.3578"/>
</g>
<!-- Node13 -->
<g id="node14" class="node"><title>Node13</title>
<polygon fill="white" stroke="#bfbfbf" points="1376.5,-0.5 1376.5,-19.5 1405.5,-19.5 1405.5,-0.5 1376.5,-0.5"/>
<text text-anchor="middle" x="1391" y="-7.5" font-family="Helvetica,sans-Serif" font-size="10.00">list</text>
</g>
<!-- Node8&#45;&gt;Node13 -->
<g id="edge15" class="edge"><title>Node8&#45;&gt;Node13</title>
<path fill="none" stroke="midnightblue" d="M1560.36,-58.481C1520.32,-47.8899 1443.39,-27.5342 1415.37,-19.634"/>
<polygon fill="midnightblue" stroke="midnightblue" points="1416.22,-16.2352 1405.64,-16.7557 1414.24,-22.9479 1416.22,-16.2352"/>
</g>
<!-- Node14 -->
<g id="node15" class="node"><title>Node14</title>
<polygon fill="white" stroke="#bfbfbf" points="799,-0.5 799,-19.5 853,-19.5 853,-0.5 799,-0.5"/>
<text text-anchor="middle" x="826" y="-7.5" font-family="Helvetica,sans-Serif" font-size="10.00">iostream</text>
</g>
<!-- Node8&#45;&gt;Node14 -->
<g id="edge16" class="edge"><title>Node8&#45;&gt;Node14</title>
<path fill="none" stroke="midnightblue" d="M1560.24,-57.843C1557.15,-57.128 1554.01,-56.4876 1551,-56 1416.44,-34.2325 992.168,-17.1396 863.412,-12.348"/>
<polygon fill="midnightblue" stroke="midnightblue" points="863.39,-8.8449 853.267,-11.9733 863.131,-15.8401 863.39,-8.8449"/>
</g>
<!-- Node15 -->
<g id="node16" class="node"><title>Node15</title>
<polygon fill="white" stroke="#bfbfbf" points="1424,-0.5 1424,-19.5 1474,-19.5 1474,-0.5 1424,-0.5"/>
<text text-anchor="middle" x="1449" y="-7.5" font-family="Helvetica,sans-Serif" font-size="10.00">iomanip</text>
</g>
<!-- Node8&#45;&gt;Node15 -->
<g id="edge17" class="edge"><title>Node8&#45;&gt;Node15</title>
<path fill="none" stroke="midnightblue" d="M1563.45,-56.4435C1540.97,-47.5171 1505.51,-33.4387 1480.02,-23.3168"/>
<polygon fill="midnightblue" stroke="midnightblue" points="1481.03,-19.9539 1470.45,-19.5164 1478.45,-26.4598 1481.03,-19.9539"/>
</g>
<!-- Node16 -->
<g id="node17" class="node"><title>Node16</title>
<polygon fill="white" stroke="#bfbfbf" points="1492,-0.5 1492,-19.5 1542,-19.5 1542,-0.5 1492,-0.5"/>
<text text-anchor="middle" x="1517" y="-7.5" font-family="Helvetica,sans-Serif" font-size="10.00">fstream</text>
</g>
<!-- Node8&#45;&gt;Node16 -->
<g id="edge18" class="edge"><title>Node8&#45;&gt;Node16</title>
<path fill="none" stroke="midnightblue" d="M1574.07,-56.324C1563.83,-48.1849 1548.28,-35.8395 1536,-26.0874"/>
<polygon fill="midnightblue" stroke="midnightblue" points="1538.13,-23.3119 1528.12,-19.8339 1533.78,-28.7937 1538.13,-23.3119"/>
</g>
<!-- Node17 -->
<g id="node18" class="node"><title>Node17</title>
<polygon fill="white" stroke="#bfbfbf" points="1560.5,-0.5 1560.5,-19.5 1609.5,-19.5 1609.5,-0.5 1560.5,-0.5"/>
<text text-anchor="middle" x="1585" y="-7.5" font-family="Helvetica,sans-Serif" font-size="10.00">cassert</text>
</g>
<!-- Node8&#45;&gt;Node17 -->
<g id="edge19" class="edge"><title>Node8&#45;&gt;Node17</title>
<path fill="none" stroke="midnightblue" d="M1585,-56.083C1585,-49.0059 1585,-38.8611 1585,-29.9865"/>
<polygon fill="midnightblue" stroke="midnightblue" points="1588.5,-29.751 1585,-19.7511 1581.5,-29.7511 1588.5,-29.751"/>
</g>
<!-- Node18 -->
<g id="node19" class="node"><title>Node18</title>
<polygon fill="white" stroke="#bfbfbf" points="1628,-0.5 1628,-19.5 1672,-19.5 1672,-0.5 1628,-0.5"/>
<text text-anchor="middle" x="1650" y="-7.5" font-family="Helvetica,sans-Serif" font-size="10.00">cmath</text>
</g>
<!-- Node8&#45;&gt;Node18 -->
<g id="edge20" class="edge"><title>Node8&#45;&gt;Node18</title>
<path fill="none" stroke="midnightblue" d="M1595.44,-56.324C1605.15,-48.2631 1619.82,-36.0765 1631.5,-26.3695"/>
<polygon fill="midnightblue" stroke="midnightblue" points="1633.91,-28.9163 1639.37,-19.8339 1629.44,-23.532 1633.91,-28.9163"/>
</g>
<!-- Node33&#45;&gt;Node10 -->
<g id="edge39" class="edge"><title>Node33&#45;&gt;Node10</title>
<path fill="none" stroke="midnightblue" d="M52.8771,-56.4435C80.0661,-47.0919 123.695,-32.0859 153.314,-21.8984"/>
<polygon fill="midnightblue" stroke="midnightblue" points="154.46,-25.2056 162.778,-18.6433 152.183,-18.5862 154.46,-25.2056"/>
</g>
<!-- Node33&#45;&gt;Node14 -->
<g id="edge38" class="edge"><title>Node33&#45;&gt;Node14</title>
<path fill="none" stroke="midnightblue" d="M56.3637,-58.3125C60.9042,-57.4184 65.5666,-56.6034 70,-56 343.915,-18.7189 677.834,-12.3217 788.438,-11.2259"/>
<polygon fill="midnightblue" stroke="midnightblue" points="788.766,-14.7232 798.734,-11.1331 788.703,-7.72346 788.766,-14.7232"/>
</g>
</g>
</svg>
