<?xml version="1.0" encoding="UTF-8" standalone="no"?>
<!DOCTYPE svg PUBLIC "-//W3C//DTD SVG 1.1//EN"
 "http://www.w3.org/Graphics/SVG/1.1/DTD/svg11.dtd">
<!-- Generated by graphviz version 2.40.1 (20161225.0304)
 -->
<!-- Title: Graphical Class Hierarchy Pages: 1 -->
<svg width="330pt" height="142pt"
 viewBox="0.00 0.00 330.00 142.00" xmlns="http://www.w3.org/2000/svg" xmlns:xlink="http://www.w3.org/1999/xlink">
<g id="graph0" class="graph" transform="scale(1 1) rotate(0) translate(4 138)">
<title>Graphical Class Hierarchy</title>
<polygon fill="#ffffff" stroke="transparent" points="-4,4 -4,-138 326,-138 326,4 -4,4"/>
<!-- Node0 -->
<g id="node1" class="node">
<title>Node0</title>
<g id="a_node1"><a xlink:href="class_psk_relation.html" target="_top" xlink:title="PskRelation">
<polygon fill="#ffffff" stroke="#000000" points="0,-57.5 0,-76.5 70,-76.5 70,-57.5 0,-57.5"/>
<text text-anchor="middle" x="35" y="-64.5" font-family="Helvetica,sans-Serif" font-size="10.00" fill="#000000">PskRelation</text>
</a>
</g>
</g>
<!-- Node1 -->
<g id="node2" class="node">
<title>Node1</title>
<g id="a_node2"><a xlink:href="class_b_c_m.html" target="_top" xlink:title="BCM">
<polygon fill="#ffffff" stroke="#000000" points="120,-114.5 120,-133.5 159,-133.5 159,-114.5 120,-114.5"/>
<text text-anchor="middle" x="139.5" y="-121.5" font-family="Helvetica,sans-Serif" font-size="10.00" fill="#000000">BCM</text>
</a>
</g>
</g>
<!-- Node0&#45;&gt;Node1 -->
<g id="edge1" class="edge">
<title>Node0&#45;&gt;Node1</title>
<path fill="none" stroke="#191970" d="M61.7556,-81.5939C80.7067,-91.9309 105.585,-105.5009 122.0348,-114.4735"/>
<polygon fill="#191970" stroke="#191970" points="63.182,-78.3852 52.727,-76.6693 59.83,-84.5305 63.182,-78.3852"/>
</g>
<!-- Node3 -->
<g id="node4" class="node">
<title>Node3</title>
<g id="a_node4"><a xlink:href="class_psk_spline.html" target="_top" xlink:title="PskSpline">
<polygon fill="#ffffff" stroke="#000000" points="109,-76.5 109,-95.5 170,-95.5 170,-76.5 109,-76.5"/>
<text text-anchor="middle" x="139.5" y="-83.5" font-family="Helvetica,sans-Serif" font-size="10.00" fill="#000000">PskSpline</text>
</a>
</g>
</g>
<!-- Node0&#45;&gt;Node3 -->
<g id="edge3" class="edge">
<title>Node0&#45;&gt;Node3</title>
<path fill="none" stroke="#191970" d="M80.0492,-75.1908C89.782,-76.9604 99.8546,-78.7917 108.8812,-80.433"/>
<polygon fill="#191970" stroke="#191970" points="80.5525,-71.725 70.0877,-73.3796 79.3003,-78.6121 80.5525,-71.725"/>
</g>
<!-- Node4 -->
<g id="node5" class="node">
<title>Node4</title>
<g id="a_node5"><a xlink:href="class_simple_p_s_k.html" target="_top" xlink:title="SimplePSK">
<polygon fill="#ffffff" stroke="#000000" points="106,-38.5 106,-57.5 173,-57.5 173,-38.5 106,-38.5"/>
<text text-anchor="middle" x="139.5" y="-45.5" font-family="Helvetica,sans-Serif" font-size="10.00" fill="#000000">SimplePSK</text>
</a>
</g>
</g>
<!-- Node0&#45;&gt;Node4 -->
<g id="edge4" class="edge">
<title>Node0&#45;&gt;Node4</title>
<path fill="none" stroke="#191970" d="M80.0318,-58.8124C88.6566,-57.2443 97.5489,-55.6275 105.7443,-54.1374"/>
<polygon fill="#191970" stroke="#191970" points="79.3003,-55.3879 70.0877,-60.6204 80.5525,-62.275 79.3003,-55.3879"/>
</g>
<!-- Node5 -->
<g id="node6" class="node">
<title>Node5</title>
<g id="a_node6"><a xlink:href="class_v_g_morig.html" target="_top" xlink:title="VGMorig">
<polygon fill="#ffffff" stroke="#000000" points="112,-.5 112,-19.5 167,-19.5 167,-.5 112,-.5"/>
<text text-anchor="middle" x="139.5" y="-7.5" font-family="Helvetica,sans-Serif" font-size="10.00" fill="#000000">VGMorig</text>
</a>
</g>
</g>
<!-- Node0&#45;&gt;Node5 -->
<g id="edge5" class="edge">
<title>Node0&#45;&gt;Node5</title>
<path fill="none" stroke="#191970" d="M61.7556,-52.4061C80.7067,-42.0691 105.585,-28.4991 122.0348,-19.5265"/>
<polygon fill="#191970" stroke="#191970" points="59.83,-49.4695 52.727,-57.3307 63.182,-55.6148 59.83,-49.4695"/>
</g>
<!-- Node2 -->
<g id="node3" class="node">
<title>Node2</title>
<g id="a_node3"><a xlink:href="class_b_c_b.html" target="_top" xlink:title="BCB">
<polygon fill="#ffffff" stroke="#000000" points="209.5,-114.5 209.5,-133.5 247.5,-133.5 247.5,-114.5 209.5,-114.5"/>
<text text-anchor="middle" x="228.5" y="-121.5" font-family="Helvetica,sans-Serif" font-size="10.00" fill="#000000">BCB</text>
</a>
</g>
</g>
<!-- Node1&#45;&gt;Node2 -->
<g id="edge2" class="edge">
<title>Node1&#45;&gt;Node2</title>
<path fill="none" stroke="#191970" d="M169.3404,-124C182.5699,-124 197.7455,-124 209.4141,-124"/>
<polygon fill="#191970" stroke="#191970" points="169.252,-120.5001 159.252,-124 169.2519,-127.5001 169.252,-120.5001"/>
</g>
<!-- Node6 -->
<g id="node7" class="node">
<title>Node6</title>
<g id="a_node7"><a xlink:href="class_v_g_m.html" target="_top" xlink:title="VGM">
<polygon fill="#ffffff" stroke="#000000" points="209,-.5 209,-19.5 248,-19.5 248,-.5 209,-.5"/>
<text text-anchor="middle" x="228.5" y="-7.5" font-family="Helvetica,sans-Serif" font-size="10.00" fill="#000000">VGM</text>
</a>
</g>
</g>
<!-- Node5&#45;&gt;Node6 -->
<g id="edge6" class="edge">
<title>Node5&#45;&gt;Node6</title>
<path fill="none" stroke="#191970" d="M177.2984,-10C188.123,-10 199.489,-10 208.7549,-10"/>
<polygon fill="#191970" stroke="#191970" points="177.1723,-6.5001 167.1723,-10 177.1723,-13.5001 177.1723,-6.5001"/>
</g>
<!-- Node7 -->
<g id="node8" class="node">
<title>Node7</title>
<g id="a_node8"><a xlink:href="class_v_g_b.html" target="_top" xlink:title="VGB">
<polygon fill="#ffffff" stroke="#000000" points="284,-.5 284,-19.5 322,-19.5 322,-.5 284,-.5"/>
<text text-anchor="middle" x="303" y="-7.5" font-family="Helvetica,sans-Serif" font-size="10.00" fill="#000000">VGB</text>
</a>
</g>
</g>
<!-- Node6&#45;&gt;Node7 -->
<g id="edge7" class="edge">
<title>Node6&#45;&gt;Node7</title>
<path fill="none" stroke="#191970" d="M258.1886,-10C266.8185,-10 276.0137,-10 283.8144,-10"/>
<polygon fill="#191970" stroke="#191970" points="258.074,-6.5001 248.074,-10 258.074,-13.5001 258.074,-6.5001"/>
</g>
</g>
</svg>
