<?xml version="1.0" encoding="UTF-8" standalone="no"?>
<!DOCTYPE svg PUBLIC "-//W3C//DTD SVG 1.1//EN"
 "http://www.w3.org/Graphics/SVG/1.1/DTD/svg11.dtd">
<!-- Generated by graphviz version 2.38.0 (20140413.2041)
 -->
<!-- Title: Graphical Class Hierarchy Pages: 1 -->
<svg width="357pt" height="142pt"
 viewBox="0.00 0.00 357.00 142.00" xmlns="http://www.w3.org/2000/svg" xmlns:xlink="http://www.w3.org/1999/xlink">
<g id="graph0" class="graph" transform="scale(1 1) rotate(0) translate(4 138)">
<title>Graphical Class Hierarchy</title>
<polygon fill="white" stroke="none" points="-4,4 -4,-138 353,-138 353,4 -4,4"/>
<!-- Node0 -->
<g id="node1" class="node"><title>Node0</title>
<g id="a_node1"><a xlink:href="class_density_relation.html" target="_top" xlink:title="DensityRelation">
<polygon fill="white" stroke="black" points="0,-57.5 0,-76.5 86,-76.5 86,-57.5 0,-57.5"/>
<text text-anchor="middle" x="43" y="-64.5" font-family="Helvetica,sans-Serif" font-size="10.00">DensityRelation</text>
</a>
</g>
</g>
<!-- Node1 -->
<g id="node2" class="node"><title>Node1</title>
<g id="a_node2"><a xlink:href="class_constant_density.html" target="_top" xlink:title="ConstantDensity">
<polygon fill="white" stroke="black" points="122,-114.5 122,-133.5 212,-133.5 212,-114.5 122,-114.5"/>
<text text-anchor="middle" x="167" y="-121.5" font-family="Helvetica,sans-Serif" font-size="10.00">ConstantDensity</text>
</a>
</g>
</g>
<!-- Node0&#45;&gt;Node1 -->
<g id="edge1" class="edge"><title>Node0&#45;&gt;Node1</title>
<path fill="none" stroke="midnightblue" d="M72.2293,-81.1382C86.982,-88.4288 105.381,-97.3683 122,-105 128.805,-108.125 136.264,-111.401 143.075,-114.336"/>
<polygon fill="midnightblue" stroke="midnightblue" points="73.63,-77.9261 63.1165,-76.6157 70.5181,-84.1964 73.63,-77.9261"/>
</g>
<!-- Node2 -->
<g id="node3" class="node"><title>Node2</title>
<g id="a_node3"><a xlink:href="class_ideal_gas_density.html" target="_top" xlink:title="IdealGasDensity">
<polygon fill="white" stroke="black" points="122.5,-76.5 122.5,-95.5 211.5,-95.5 211.5,-76.5 122.5,-76.5"/>
<text text-anchor="middle" x="167" y="-83.5" font-family="Helvetica,sans-Serif" font-size="10.00">IdealGasDensity</text>
</a>
</g>
</g>
<!-- Node0&#45;&gt;Node2 -->
<g id="edge2" class="edge"><title>Node0&#45;&gt;Node2</title>
<path fill="none" stroke="midnightblue" d="M96.2756,-75.1413C104.879,-76.4811 113.718,-77.8577 122.09,-79.1615"/>
<polygon fill="midnightblue" stroke="midnightblue" points="96.7468,-71.6726 86.3273,-73.592 95.6696,-78.5892 96.7468,-71.6726"/>
</g>
<!-- Node3 -->
<g id="node4" class="node"><title>Node3</title>
<g id="a_node4"><a xlink:href="class_linear_density.html" target="_top" xlink:title="LinearDensity">
<polygon fill="white" stroke="black" points="128.5,-38.5 128.5,-57.5 205.5,-57.5 205.5,-38.5 128.5,-38.5"/>
<text text-anchor="middle" x="167" y="-45.5" font-family="Helvetica,sans-Serif" font-size="10.00">LinearDensity</text>
</a>
</g>
</g>
<!-- Node0&#45;&gt;Node3 -->
<g id="edge3" class="edge"><title>Node0&#45;&gt;Node3</title>
<path fill="none" stroke="midnightblue" d="M96.4259,-58.8353C107.119,-57.1699 118.172,-55.4487 128.233,-53.8818"/>
<polygon fill="midnightblue" stroke="midnightblue" points="95.6696,-55.4108 86.3273,-60.408 96.7468,-62.3274 95.6696,-55.4108"/>
</g>
<!-- Node5 -->
<g id="node6" class="node"><title>Node5</title>
<g id="a_node6"><a xlink:href="class_real_gas_density.html" target="_top" xlink:title="RealGasDensity">
<polygon fill="white" stroke="black" points="122.5,-0.5 122.5,-19.5 211.5,-19.5 211.5,-0.5 122.5,-0.5"/>
<text text-anchor="middle" x="167" y="-7.5" font-family="Helvetica,sans-Serif" font-size="10.00">RealGasDensity</text>
</a>
</g>
</g>
<!-- Node0&#45;&gt;Node5 -->
<g id="edge5" class="edge"><title>Node0&#45;&gt;Node5</title>
<path fill="none" stroke="midnightblue" d="M72.2293,-52.8618C86.982,-45.5712 105.381,-36.6317 122,-29 128.805,-25.8749 136.264,-22.5988 143.075,-19.6642"/>
<polygon fill="midnightblue" stroke="midnightblue" points="70.5181,-49.8036 63.1165,-57.3843 73.63,-56.0739 70.5181,-49.8036"/>
</g>
<!-- Node4 -->
<g id="node5" class="node"><title>Node4</title>
<g id="a_node5"><a xlink:href="class_exponential_density.html" target="_top" xlink:title="ExponentialDensity">
<polygon fill="white" stroke="black" points="248,-38.5 248,-57.5 349,-57.5 349,-38.5 248,-38.5"/>
<text text-anchor="middle" x="298.5" y="-45.5" font-family="Helvetica,sans-Serif" font-size="10.00">ExponentialDensity</text>
</a>
</g>
</g>
<!-- Node3&#45;&gt;Node4 -->
<g id="edge4" class="edge"><title>Node3&#45;&gt;Node4</title>
<path fill="none" stroke="midnightblue" d="M215.954,-48C226.353,-48 237.373,-48 247.837,-48"/>
<polygon fill="midnightblue" stroke="midnightblue" points="215.805,-44.5001 205.805,-48 215.805,-51.5001 215.805,-44.5001"/>
</g>
</g>
</svg>
