<?xml version="1.0" encoding="UTF-8" standalone="no"?>
<!DOCTYPE svg PUBLIC "-//W3C//DTD SVG 1.1//EN"
 "http://www.w3.org/Graphics/SVG/1.1/DTD/svg11.dtd">
<!-- Generated by graphviz version 2.42.3 (0)
 -->
<!-- Title: Graphical Class Hierarchy Pages: 1 -->
<svg width="395pt" height="105pt"
 viewBox="0.00 0.00 395.00 105.00" xmlns="http://www.w3.org/2000/svg" xmlns:xlink="http://www.w3.org/1999/xlink">
<g id="graph0" class="graph" transform="scale(1 1) rotate(0) translate(4 101)">
<title>Graphical Class Hierarchy</title>
<polygon fill="white" stroke="transparent" points="-4,4 -4,-101 391,-101 391,4 -4,4"/>
<!-- Node0 -->
<g id="node1" class="node">
<title>Node0</title>
<g id="a_node1"><a xlink:href="classproteus_1_1_r_a_n_s2_p__base.html" target="_top" xlink:title=" ">
<polygon fill="white" stroke="black" points="0,-39 0,-58 127,-58 127,-39 0,-39"/>
<text text-anchor="middle" x="63.5" y="-46" font-family="Helvetica,sans-Serif" font-size="10.00">proteus::RANS2P_base</text>
</a>
</g>
</g>
<!-- Node1 -->
<g id="node2" class="node">
<title>Node1</title>
<g id="a_node2"><a xlink:href="classproteus_1_1_r_a_n_s2_p.html" target="_top" xlink:title=" ">
<polygon fill="white" stroke="black" points="163,-0.5 163,-96.5 387,-96.5 387,-0.5 163,-0.5"/>
<text text-anchor="start" x="171" y="-84.5" font-family="Helvetica,sans-Serif" font-size="10.00">proteus::RANS2P&lt; CompKernel</text>
<text text-anchor="start" x="171" y="-73.5" font-family="Helvetica,sans-Serif" font-size="10.00">Type, CompKernelType_v,</text>
<text text-anchor="start" x="171" y="-62.5" font-family="Helvetica,sans-Serif" font-size="10.00"> nSpace, nQuadraturePoints</text>
<text text-anchor="start" x="171" y="-51.5" font-family="Helvetica,sans-Serif" font-size="10.00">_element, nDOF_mesh_trial_element,</text>
<text text-anchor="start" x="171" y="-40.5" font-family="Helvetica,sans-Serif" font-size="10.00"> nDOF_trial_element, nDOF_test</text>
<text text-anchor="start" x="171" y="-29.5" font-family="Helvetica,sans-Serif" font-size="10.00">_element, nDOF_v_trial_element,</text>
<text text-anchor="start" x="171" y="-18.5" font-family="Helvetica,sans-Serif" font-size="10.00"> nDOF_v_test_element, nQuadraturePoints</text>
<text text-anchor="middle" x="275" y="-7.5" font-family="Helvetica,sans-Serif" font-size="10.00">_elementBoundary &gt;</text>
</a>
</g>
</g>
<!-- Node0&#45;&gt;Node1 -->
<g id="edge1" class="edge">
<title>Node0&#45;&gt;Node1</title>
<path fill="none" stroke="midnightblue" d="M137.08,-48.5C145.43,-48.5 154.07,-48.5 162.77,-48.5"/>
<polygon fill="midnightblue" stroke="midnightblue" points="137.07,-45 127.07,-48.5 137.07,-52 137.07,-45"/>
</g>
</g>
</svg>
