<?xml version="1.0" encoding="UTF-8" standalone="no"?>
<!DOCTYPE svg PUBLIC "-//W3C//DTD SVG 1.1//EN"
 "http://www.w3.org/Graphics/SVG/1.1/DTD/svg11.dtd">
<!-- Generated by graphviz version 2.42.3 (0)
 -->
<!-- Title: Graphical Class Hierarchy Pages: 1 -->
<svg width="337pt" height="142pt"
 viewBox="0.00 0.00 337.00 142.00" xmlns="http://www.w3.org/2000/svg" xmlns:xlink="http://www.w3.org/1999/xlink">
<g id="graph0" class="graph" transform="scale(1 1) rotate(0) translate(4 138)">
<title>Graphical Class Hierarchy</title>
<polygon fill="white" stroke="transparent" points="-4,4 -4,-138 333,-138 333,4 -4,4"/>
<!-- Node0 -->
<g id="node1" class="node">
<title>Node0</title>
<g id="a_node1"><a xlink:href="class_psk_relation.html" target="_top" xlink:title=" ">
<polygon fill="white" stroke="black" points="0,-57.5 0,-76.5 74,-76.5 74,-57.5 0,-57.5"/>
<text text-anchor="middle" x="37" y="-64.5" font-family="Helvetica,sans-Serif" font-size="10.00">PskRelation</text>
</a>
</g>
</g>
<!-- Node1 -->
<g id="node2" class="node">
<title>Node1</title>
<g id="a_node2"><a xlink:href="class_b_c_m.html" target="_top" xlink:title=" ">
<polygon fill="white" stroke="black" points="125,-114.5 125,-133.5 164,-133.5 164,-114.5 125,-114.5"/>
<text text-anchor="middle" x="144.5" y="-121.5" font-family="Helvetica,sans-Serif" font-size="10.00">BCM</text>
</a>
</g>
</g>
<!-- Node0&#45;&gt;Node1 -->
<g id="edge1" class="edge">
<title>Node0&#45;&gt;Node1</title>
<path fill="none" stroke="midnightblue" d="M64.75,-81.45C83.91,-91.81 109.18,-105.46 125.87,-114.47"/>
<polygon fill="midnightblue" stroke="midnightblue" points="66.36,-78.34 55.9,-76.67 63.03,-84.5 66.36,-78.34"/>
</g>
<!-- Node3 -->
<g id="node4" class="node">
<title>Node3</title>
<g id="a_node4"><a xlink:href="class_psk_spline.html" target="_top" xlink:title=" ">
<polygon fill="white" stroke="black" points="112.5,-76.5 112.5,-95.5 176.5,-95.5 176.5,-76.5 112.5,-76.5"/>
<text text-anchor="middle" x="144.5" y="-83.5" font-family="Helvetica,sans-Serif" font-size="10.00">PskSpline</text>
</a>
</g>
</g>
<!-- Node0&#45;&gt;Node3 -->
<g id="edge3" class="edge">
<title>Node0&#45;&gt;Node3</title>
<path fill="none" stroke="midnightblue" d="M84.14,-75.31C93.63,-77.02 103.41,-78.78 112.23,-80.37"/>
<polygon fill="midnightblue" stroke="midnightblue" points="84.47,-71.81 74.01,-73.49 83.23,-78.7 84.47,-71.81"/>
</g>
<!-- Node4 -->
<g id="node5" class="node">
<title>Node4</title>
<g id="a_node5"><a xlink:href="class_simple_p_s_k.html" target="_top" xlink:title=" ">
<polygon fill="white" stroke="black" points="110,-38.5 110,-57.5 179,-57.5 179,-38.5 110,-38.5"/>
<text text-anchor="middle" x="144.5" y="-45.5" font-family="Helvetica,sans-Serif" font-size="10.00">SimplePSK</text>
</a>
</g>
</g>
<!-- Node0&#45;&gt;Node4 -->
<g id="edge4" class="edge">
<title>Node0&#45;&gt;Node4</title>
<path fill="none" stroke="midnightblue" d="M84.01,-58.71C92.67,-57.15 101.58,-55.55 109.78,-54.07"/>
<polygon fill="midnightblue" stroke="midnightblue" points="83.23,-55.3 74.01,-60.51 84.47,-62.19 83.23,-55.3"/>
</g>
<!-- Node5 -->
<g id="node6" class="node">
<title>Node5</title>
<g id="a_node6"><a xlink:href="class_v_g_morig.html" target="_top" xlink:title=" ">
<polygon fill="white" stroke="black" points="115,-0.5 115,-19.5 174,-19.5 174,-0.5 115,-0.5"/>
<text text-anchor="middle" x="144.5" y="-7.5" font-family="Helvetica,sans-Serif" font-size="10.00">VGMorig</text>
</a>
</g>
</g>
<!-- Node0&#45;&gt;Node5 -->
<g id="edge5" class="edge">
<title>Node0&#45;&gt;Node5</title>
<path fill="none" stroke="midnightblue" d="M64.75,-52.55C83.91,-42.19 109.18,-28.54 125.87,-19.53"/>
<polygon fill="midnightblue" stroke="midnightblue" points="63.03,-49.5 55.9,-57.33 66.36,-55.66 63.03,-49.5"/>
</g>
<!-- Node2 -->
<g id="node3" class="node">
<title>Node2</title>
<g id="a_node3"><a xlink:href="class_b_c_b.html" target="_top" xlink:title=" ">
<polygon fill="white" stroke="black" points="216.5,-114.5 216.5,-133.5 253.5,-133.5 253.5,-114.5 216.5,-114.5"/>
<text text-anchor="middle" x="235" y="-121.5" font-family="Helvetica,sans-Serif" font-size="10.00">BCB</text>
</a>
</g>
</g>
<!-- Node1&#45;&gt;Node2 -->
<g id="edge2" class="edge">
<title>Node1&#45;&gt;Node2</title>
<path fill="none" stroke="midnightblue" d="M174.34,-124C188.23,-124 204.45,-124 216.46,-124"/>
<polygon fill="midnightblue" stroke="midnightblue" points="174.27,-120.5 164.27,-124 174.27,-127.5 174.27,-120.5"/>
</g>
<!-- Node6 -->
<g id="node7" class="node">
<title>Node6</title>
<g id="a_node7"><a xlink:href="class_v_g_m.html" target="_top" xlink:title=" ">
<polygon fill="white" stroke="black" points="215,-0.5 215,-19.5 255,-19.5 255,-0.5 215,-0.5"/>
<text text-anchor="middle" x="235" y="-7.5" font-family="Helvetica,sans-Serif" font-size="10.00">VGM</text>
</a>
</g>
</g>
<!-- Node5&#45;&gt;Node6 -->
<g id="edge6" class="edge">
<title>Node5&#45;&gt;Node6</title>
<path fill="none" stroke="midnightblue" d="M184.68,-10C195.1,-10 205.9,-10 214.73,-10"/>
<polygon fill="midnightblue" stroke="midnightblue" points="184.48,-6.5 174.48,-10 184.48,-13.5 184.48,-6.5"/>
</g>
<!-- Node7 -->
<g id="node8" class="node">
<title>Node7</title>
<g id="a_node8"><a xlink:href="class_v_g_b.html" target="_top" xlink:title=" ">
<polygon fill="white" stroke="black" points="291,-0.5 291,-19.5 329,-19.5 329,-0.5 291,-0.5"/>
<text text-anchor="middle" x="310" y="-7.5" font-family="Helvetica,sans-Serif" font-size="10.00">VGB</text>
</a>
</g>
</g>
<!-- Node6&#45;&gt;Node7 -->
<g id="edge7" class="edge">
<title>Node6&#45;&gt;Node7</title>
<path fill="none" stroke="midnightblue" d="M265.25,-10C273.85,-10 283,-10 290.7,-10"/>
<polygon fill="midnightblue" stroke="midnightblue" points="265.18,-6.5 255.18,-10 265.18,-13.5 265.18,-6.5"/>
</g>
</g>
</svg>
