<?xml version="1.0" encoding="UTF-8" standalone="no"?>
<!DOCTYPE svg PUBLIC "-//W3C//DTD SVG 1.1//EN"
 "http://www.w3.org/Graphics/SVG/1.1/DTD/svg11.dtd">
<!-- Generated by graphviz version 2.40.1 (20161225.0304)
 -->
<!-- Title: Graphical Class Hierarchy Pages: 1 -->
<svg width="357pt" height="142pt"
 viewBox="0.00 0.00 357.00 142.00" xmlns="http://www.w3.org/2000/svg" xmlns:xlink="http://www.w3.org/1999/xlink">
<g id="graph0" class="graph" transform="scale(1 1) rotate(0) translate(4 138)">
<title>Graphical Class Hierarchy</title>
<polygon fill="#ffffff" stroke="transparent" points="-4,4 -4,-138 353,-138 353,4 -4,4"/>
<!-- Node0 -->
<g id="node1" class="node">
<title>Node0</title>
<g id="a_node1"><a xlink:href="class_density_relation.html" target="_top" xlink:title="DensityRelation">
<polygon fill="#ffffff" stroke="#000000" points="0,-57.5 0,-76.5 86,-76.5 86,-57.5 0,-57.5"/>
<text text-anchor="middle" x="43" y="-64.5" font-family="Helvetica,sans-Serif" font-size="10.00" fill="#000000">DensityRelation</text>
</a>
</g>
</g>
<!-- Node1 -->
<g id="node2" class="node">
<title>Node1</title>
<g id="a_node2"><a xlink:href="class_constant_density.html" target="_top" xlink:title="ConstantDensity">
<polygon fill="#ffffff" stroke="#000000" points="122,-114.5 122,-133.5 212,-133.5 212,-114.5 122,-114.5"/>
<text text-anchor="middle" x="167" y="-121.5" font-family="Helvetica,sans-Serif" font-size="10.00" fill="#000000">ConstantDensity</text>
</a>
</g>
</g>
<!-- Node0&#45;&gt;Node1 -->
<g id="edge1" class="edge">
<title>Node0&#45;&gt;Node1</title>
<path fill="none" stroke="#191970" d="M71.5833,-81.164C86.523,-88.4614 105.1582,-97.3994 122,-105 128.9567,-108.1395 136.5838,-111.4199 143.5501,-114.354"/>
<polygon fill="#191970" stroke="#191970" points="72.8746,-77.899 62.3553,-76.636 69.791,-84.1833 72.8746,-77.899"/>
</g>
<!-- Node2 -->
<g id="node3" class="node">
<title>Node2</title>
<g id="a_node3"><a xlink:href="class_ideal_gas_density.html" target="_top" xlink:title="IdealGasDensity">
<polygon fill="#ffffff" stroke="#000000" points="122.5,-76.5 122.5,-95.5 211.5,-95.5 211.5,-76.5 122.5,-76.5"/>
<text text-anchor="middle" x="167" y="-83.5" font-family="Helvetica,sans-Serif" font-size="10.00" fill="#000000">IdealGasDensity</text>
</a>
</g>
</g>
<!-- Node0&#45;&gt;Node2 -->
<g id="edge2" class="edge">
<title>Node0&#45;&gt;Node2</title>
<path fill="none" stroke="#191970" d="M96.1326,-75.1413C104.8765,-76.4811 113.8607,-77.8577 122.37,-79.1615"/>
<polygon fill="#191970" stroke="#191970" points="96.436,-71.647 86.0212,-73.592 95.3757,-78.5662 96.436,-71.647"/>
</g>
<!-- Node3 -->
<g id="node4" class="node">
<title>Node3</title>
<g id="a_node4"><a xlink:href="class_linear_density.html" target="_top" xlink:title="LinearDensity">
<polygon fill="#ffffff" stroke="#000000" points="128.5,-38.5 128.5,-57.5 205.5,-57.5 205.5,-38.5 128.5,-38.5"/>
<text text-anchor="middle" x="167" y="-45.5" font-family="Helvetica,sans-Serif" font-size="10.00" fill="#000000">LinearDensity</text>
</a>
</g>
</g>
<!-- Node0&#45;&gt;Node3 -->
<g id="edge3" class="edge">
<title>Node0&#45;&gt;Node3</title>
<path fill="none" stroke="#191970" d="M96.1801,-58.8514C106.9368,-57.2032 118.0551,-55.4996 128.2041,-53.9445"/>
<polygon fill="#191970" stroke="#191970" points="95.3757,-55.4338 86.0212,-60.408 96.436,-62.353 95.3757,-55.4338"/>
</g>
<!-- Node5 -->
<g id="node6" class="node">
<title>Node5</title>
<g id="a_node6"><a xlink:href="class_real_gas_density.html" target="_top" xlink:title="RealGasDensity">
<polygon fill="#ffffff" stroke="#000000" points="122.5,-.5 122.5,-19.5 211.5,-19.5 211.5,-.5 122.5,-.5"/>
<text text-anchor="middle" x="167" y="-7.5" font-family="Helvetica,sans-Serif" font-size="10.00" fill="#000000">RealGasDensity</text>
</a>
</g>
</g>
<!-- Node0&#45;&gt;Node5 -->
<g id="edge5" class="edge">
<title>Node0&#45;&gt;Node5</title>
<path fill="none" stroke="#191970" d="M71.5833,-52.836C86.523,-45.5386 105.1582,-36.6006 122,-29 128.9567,-25.8605 136.5838,-22.5801 143.5501,-19.646"/>
<polygon fill="#191970" stroke="#191970" points="69.791,-49.8167 62.3553,-57.364 72.8746,-56.101 69.791,-49.8167"/>
</g>
<!-- Node4 -->
<g id="node5" class="node">
<title>Node4</title>
<g id="a_node5"><a xlink:href="class_exponential_density.html" target="_top" xlink:title="ExponentialDensity">
<polygon fill="#ffffff" stroke="#000000" points="248,-38.5 248,-57.5 349,-57.5 349,-38.5 248,-38.5"/>
<text text-anchor="middle" x="298.5" y="-45.5" font-family="Helvetica,sans-Serif" font-size="10.00" fill="#000000">ExponentialDensity</text>
</a>
</g>
</g>
<!-- Node3&#45;&gt;Node4 -->
<g id="edge4" class="edge">
<title>Node3&#45;&gt;Node4</title>
<path fill="none" stroke="#191970" d="M215.9161,-48C226.333,-48 237.3543,-48 247.835,-48"/>
<polygon fill="#191970" stroke="#191970" points="215.7431,-44.5001 205.7431,-48 215.7431,-51.5001 215.7431,-44.5001"/>
</g>
</g>
</svg>
