<?xml version="1.0" encoding="UTF-8" standalone="no"?>
<!DOCTYPE svg PUBLIC "-//W3C//DTD SVG 1.1//EN"
 "http://www.w3.org/Graphics/SVG/1.1/DTD/svg11.dtd">
<!-- Generated by graphviz version 2.40.1 (20161225.0304)
 -->
<!-- Title: Graphical Class Hierarchy Pages: 1 -->
<svg width="434pt" height="180pt"
 viewBox="0.00 0.00 434.00 180.00" xmlns="http://www.w3.org/2000/svg" xmlns:xlink="http://www.w3.org/1999/xlink">
<g id="graph0" class="graph" transform="scale(1 1) rotate(0) translate(4 176)">
<title>Graphical Class Hierarchy</title>
<polygon fill="#ffffff" stroke="transparent" points="-4,4 -4,-176 430,-176 430,4 -4,4"/>
<!-- Node0 -->
<g id="node1" class="node">
<title>Node0</title>
<g id="a_node1"><a xlink:href="class_f_m_m_eikonal_solver_base.html" target="_top" xlink:title="FMMEikonalSolverBase">
<polygon fill="#ffffff" stroke="#000000" points="0,-95.5 0,-114.5 122,-114.5 122,-95.5 0,-95.5"/>
<text text-anchor="middle" x="61" y="-102.5" font-family="Helvetica,sans-Serif" font-size="10.00" fill="#000000">FMMEikonalSolverBase</text>
</a>
</g>
</g>
<!-- Node1 -->
<g id="node2" class="node">
<title>Node1</title>
<g id="a_node2"><a xlink:href="class_f_m_m_eikonal_solver1d.html" target="_top" xlink:title="FMMEikonalSolver1d">
<polygon fill="#ffffff" stroke="#000000" points="164,-152.5 164,-171.5 274,-171.5 274,-152.5 164,-152.5"/>
<text text-anchor="middle" x="219" y="-159.5" font-family="Helvetica,sans-Serif" font-size="10.00" fill="#000000">FMMEikonalSolver1d</text>
</a>
</g>
</g>
<!-- Node0&#45;&gt;Node1 -->
<g id="edge1" class="edge">
<title>Node0&#45;&gt;Node1</title>
<path fill="none" stroke="#191970" d="M93.2346,-118.2952C112.0073,-125.87 136.202,-135.3465 158,-143 167.3145,-146.2704 177.5253,-149.5633 186.8833,-152.4678"/>
<polygon fill="#191970" stroke="#191970" points="94.5354,-115.0459 83.9532,-114.5271 91.9022,-121.5318 94.5354,-115.0459"/>
</g>
<!-- Node2 -->
<g id="node3" class="node">
<title>Node2</title>
<g id="a_node3"><a xlink:href="class_f_m_m_eikonal_solver2d.html" target="_top" xlink:title="FMMEikonalSolver2d">
<polygon fill="#ffffff" stroke="#000000" points="164,-114.5 164,-133.5 274,-133.5 274,-114.5 164,-114.5"/>
<text text-anchor="middle" x="219" y="-121.5" font-family="Helvetica,sans-Serif" font-size="10.00" fill="#000000">FMMEikonalSolver2d</text>
</a>
</g>
</g>
<!-- Node0&#45;&gt;Node2 -->
<g id="edge2" class="edge">
<title>Node0&#45;&gt;Node2</title>
<path fill="none" stroke="#191970" d="M132.1644,-113.5577C142.7622,-114.8322 153.5501,-116.1294 163.7549,-117.3566"/>
<polygon fill="#191970" stroke="#191970" points="132.4333,-110.0649 122.0869,-112.3459 131.5975,-117.0149 132.4333,-110.0649"/>
</g>
<!-- Node3 -->
<g id="node4" class="node">
<title>Node3</title>
<g id="a_node4"><a xlink:href="class_f_m_m_eikonal_solver3d.html" target="_top" xlink:title="FMMEikonalSolver3d">
<polygon fill="#ffffff" stroke="#000000" points="164,-76.5 164,-95.5 274,-95.5 274,-76.5 164,-76.5"/>
<text text-anchor="middle" x="219" y="-83.5" font-family="Helvetica,sans-Serif" font-size="10.00" fill="#000000">FMMEikonalSolver3d</text>
</a>
</g>
</g>
<!-- Node0&#45;&gt;Node3 -->
<g id="edge3" class="edge">
<title>Node0&#45;&gt;Node3</title>
<path fill="none" stroke="#191970" d="M132.1644,-96.4423C142.7622,-95.1678 153.5501,-93.8706 163.7549,-92.6434"/>
<polygon fill="#191970" stroke="#191970" points="131.5975,-92.9851 122.0869,-97.6541 132.4333,-99.9351 131.5975,-92.9851"/>
</g>
<!-- Node4 -->
<g id="node5" class="node">
<title>Node4</title>
<g id="a_node5"><a xlink:href="class_f_s_w_eikonal_solver_base.html" target="_top" xlink:title="FSWEikonalSolverBase">
<polygon fill="#ffffff" stroke="#000000" points="158,-38.5 158,-57.5 280,-57.5 280,-38.5 158,-38.5"/>
<text text-anchor="middle" x="219" y="-45.5" font-family="Helvetica,sans-Serif" font-size="10.00" fill="#000000">FSWEikonalSolverBase</text>
</a>
</g>
</g>
<!-- Node0&#45;&gt;Node4 -->
<g id="edge4" class="edge">
<title>Node0&#45;&gt;Node4</title>
<path fill="none" stroke="#191970" d="M93.2346,-91.7048C112.0073,-84.13 136.202,-74.6535 158,-67 167.3145,-63.7296 177.5253,-60.4367 186.8833,-57.5322"/>
<polygon fill="#191970" stroke="#191970" points="91.9022,-88.4682 83.9532,-95.4729 94.5354,-94.9541 91.9022,-88.4682"/>
</g>
<!-- Node5 -->
<g id="node6" class="node">
<title>Node5</title>
<g id="a_node6"><a xlink:href="class_f_s_w_eikonal_solver1d.html" target="_top" xlink:title="FSWEikonalSolver1d">
<polygon fill="#ffffff" stroke="#000000" points="316,-76.5 316,-95.5 426,-95.5 426,-76.5 316,-76.5"/>
<text text-anchor="middle" x="371" y="-83.5" font-family="Helvetica,sans-Serif" font-size="10.00" fill="#000000">FSWEikonalSolver1d</text>
</a>
</g>
</g>
<!-- Node4&#45;&gt;Node5 -->
<g id="edge5" class="edge">
<title>Node4&#45;&gt;Node5</title>
<path fill="none" stroke="#191970" d="M267.16,-60.04C288.3951,-65.3488 312.995,-71.4988 332.9198,-76.4799"/>
<polygon fill="#191970" stroke="#191970" points="267.9063,-56.6189 257.356,-57.589 266.2085,-63.4099 267.9063,-56.6189"/>
</g>
<!-- Node6 -->
<g id="node7" class="node">
<title>Node6</title>
<g id="a_node7"><a xlink:href="class_f_s_w_eikonal_solver2d.html" target="_top" xlink:title="FSWEikonalSolver2d">
<polygon fill="#ffffff" stroke="#000000" points="316,-38.5 316,-57.5 426,-57.5 426,-38.5 316,-38.5"/>
<text text-anchor="middle" x="371" y="-45.5" font-family="Helvetica,sans-Serif" font-size="10.00" fill="#000000">FSWEikonalSolver2d</text>
</a>
</g>
</g>
<!-- Node4&#45;&gt;Node6 -->
<g id="edge6" class="edge">
<title>Node4&#45;&gt;Node6</title>
<path fill="none" stroke="#191970" d="M290.6243,-48C299.0703,-48 307.5886,-48 315.7601,-48"/>
<polygon fill="#191970" stroke="#191970" points="290.3861,-44.5001 280.3861,-48 290.386,-51.5001 290.3861,-44.5001"/>
</g>
<!-- Node7 -->
<g id="node8" class="node">
<title>Node7</title>
<g id="a_node8"><a xlink:href="class_f_s_w_eikonal_solver3d.html" target="_top" xlink:title="FSWEikonalSolver3d">
<polygon fill="#ffffff" stroke="#000000" points="316,-.5 316,-19.5 426,-19.5 426,-.5 316,-.5"/>
<text text-anchor="middle" x="371" y="-7.5" font-family="Helvetica,sans-Serif" font-size="10.00" fill="#000000">FSWEikonalSolver3d</text>
</a>
</g>
</g>
<!-- Node4&#45;&gt;Node7 -->
<g id="edge7" class="edge">
<title>Node4&#45;&gt;Node7</title>
<path fill="none" stroke="#191970" d="M267.16,-35.96C288.3951,-30.6512 312.995,-24.5012 332.9198,-19.5201"/>
<polygon fill="#191970" stroke="#191970" points="266.2085,-32.5901 257.356,-38.411 267.9063,-39.3811 266.2085,-32.5901"/>
</g>
</g>
</svg>
