<?xml version="1.0" encoding="UTF-8" standalone="no"?>
<!DOCTYPE svg PUBLIC "-//W3C//DTD SVG 1.1//EN"
 "http://www.w3.org/Graphics/SVG/1.1/DTD/svg11.dtd">
<!-- Generated by graphviz version 2.40.1 (20161225.0304)
 -->
<!-- Title: Graphical Class Hierarchy Pages: 1 -->
<svg width="255pt" height="104pt"
 viewBox="0.00 0.00 255.00 104.00" xmlns="http://www.w3.org/2000/svg" xmlns:xlink="http://www.w3.org/1999/xlink">
<g id="graph0" class="graph" transform="scale(1 1) rotate(0) translate(4 100)">
<title>Graphical Class Hierarchy</title>
<polygon fill="#ffffff" stroke="transparent" points="-4,4 -4,-100 251,-100 251,4 -4,4"/>
<!-- Node0 -->
<g id="node1" class="node">
<title>Node0</title>
<g id="a_node1"><a xlink:href="class_d__base.html" target="_top" xlink:title="D_base">
<polygon fill="#ffffff" stroke="#000000" points="0,-38.5 0,-57.5 50,-57.5 50,-38.5 0,-38.5"/>
<text text-anchor="middle" x="25" y="-45.5" font-family="Helvetica,sans-Serif" font-size="10.00" fill="#000000">D_base</text>
</a>
</g>
</g>
<!-- Node1 -->
<g id="node2" class="node">
<title>Node1</title>
<g id="a_node2"><a xlink:href="class_piecewise_linear_complex_domain.html" target="_top" xlink:title="PiecewiseLinearComplexDomain">
<polygon fill="#ffffff" stroke="#000000" points="86,-76.5 86,-95.5 247,-95.5 247,-76.5 86,-76.5"/>
<text text-anchor="middle" x="166.5" y="-83.5" font-family="Helvetica,sans-Serif" font-size="10.00" fill="#000000">PiecewiseLinearComplexDomain</text>
</a>
</g>
</g>
<!-- Node0&#45;&gt;Node1 -->
<g id="edge1" class="edge">
<title>Node0&#45;&gt;Node1</title>
<path fill="none" stroke="#191970" d="M59.7851,-59.2968C68.3237,-61.9419 77.4638,-64.6663 86,-67 98.1892,-70.3324 111.5106,-73.6189 123.7454,-76.4973"/>
<polygon fill="#191970" stroke="#191970" points="60.6994,-55.9155 50.11,-56.2565 58.6008,-62.5935 60.6994,-55.9155"/>
</g>
<!-- Node2 -->
<g id="node3" class="node">
<title>Node2</title>
<g id="a_node3"><a xlink:href="class_planar_straight_line_graph_domain.html" target="_top" xlink:title="PlanarStraightLineGraphDomain">
<polygon fill="#ffffff" stroke="#000000" points="88.5,-38.5 88.5,-57.5 244.5,-57.5 244.5,-38.5 88.5,-38.5"/>
<text text-anchor="middle" x="166.5" y="-45.5" font-family="Helvetica,sans-Serif" font-size="10.00" fill="#000000">PlanarStraightLineGraphDomain</text>
</a>
</g>
</g>
<!-- Node0&#45;&gt;Node2 -->
<g id="edge2" class="edge">
<title>Node0&#45;&gt;Node2</title>
<path fill="none" stroke="#191970" d="M60.3151,-48C68.9562,-48 78.5479,-48 88.331,-48"/>
<polygon fill="#191970" stroke="#191970" points="60.2974,-44.5001 50.2974,-48 60.2973,-51.5001 60.2974,-44.5001"/>
</g>
<!-- Node3 -->
<g id="node4" class="node">
<title>Node3</title>
<g id="a_node4"><a xlink:href="class_rectangular_domain.html" target="_top" xlink:title="RectangularDomain">
<polygon fill="#ffffff" stroke="#000000" points="115,-.5 115,-19.5 218,-19.5 218,-.5 115,-.5"/>
<text text-anchor="middle" x="166.5" y="-7.5" font-family="Helvetica,sans-Serif" font-size="10.00" fill="#000000">RectangularDomain</text>
</a>
</g>
</g>
<!-- Node0&#45;&gt;Node3 -->
<g id="edge3" class="edge">
<title>Node0&#45;&gt;Node3</title>
<path fill="none" stroke="#191970" d="M59.7851,-36.7032C68.3237,-34.0581 77.4638,-31.3337 86,-29 98.1892,-25.6676 111.5106,-22.3811 123.7454,-19.5027"/>
<polygon fill="#191970" stroke="#191970" points="58.6008,-33.4065 50.11,-39.7435 60.6994,-40.0845 58.6008,-33.4065"/>
</g>
</g>
</svg>
