<?xml version="1.0" encoding="UTF-8" standalone="no"?>
<!DOCTYPE svg PUBLIC "-//W3C//DTD SVG 1.1//EN"
 "http://www.w3.org/Graphics/SVG/1.1/DTD/svg11.dtd">
<!-- Generated by graphviz version 2.38.0 (20140413.2041)
 -->
<!-- Title: Graphical Class Hierarchy Pages: 1 -->
<svg width="330pt" height="142pt"
 viewBox="0.00 0.00 330.00 142.00" xmlns="http://www.w3.org/2000/svg" xmlns:xlink="http://www.w3.org/1999/xlink">
<g id="graph0" class="graph" transform="scale(1 1) rotate(0) translate(4 138)">
<title>Graphical Class Hierarchy</title>
<polygon fill="white" stroke="none" points="-4,4 -4,-138 326,-138 326,4 -4,4"/>
<!-- Node0 -->
<g id="node1" class="node"><title>Node0</title>
<g id="a_node1"><a xlink:href="class_psk_relation.html" target="_top" xlink:title="PskRelation">
<polygon fill="white" stroke="black" points="0,-57.5 0,-76.5 70,-76.5 70,-57.5 0,-57.5"/>
<text text-anchor="middle" x="35" y="-64.5" font-family="Helvetica,sans-Serif" font-size="10.00">PskRelation</text>
</a>
</g>
</g>
<!-- Node1 -->
<g id="node2" class="node"><title>Node1</title>
<g id="a_node2"><a xlink:href="class_b_c_m.html" target="_top" xlink:title="BCM">
<polygon fill="white" stroke="black" points="120,-114.5 120,-133.5 159,-133.5 159,-114.5 120,-114.5"/>
<text text-anchor="middle" x="139.5" y="-121.5" font-family="Helvetica,sans-Serif" font-size="10.00">BCM</text>
</a>
</g>
</g>
<!-- Node0&#45;&gt;Node1 -->
<g id="edge1" class="edge"><title>Node0&#45;&gt;Node1</title>
<path fill="none" stroke="midnightblue" d="M62.2435,-81.5939C80.8319,-91.9309 105.234,-105.501 121.369,-114.474"/>
<polygon fill="midnightblue" stroke="midnightblue" points="63.8283,-78.4705 53.3877,-76.6693 60.4263,-84.5882 63.8283,-78.4705"/>
</g>
<!-- Node3 -->
<g id="node4" class="node"><title>Node3</title>
<g id="a_node4"><a xlink:href="class_psk_spline.html" target="_top" xlink:title="PskSpline">
<polygon fill="white" stroke="black" points="109,-76.5 109,-95.5 170,-95.5 170,-76.5 109,-76.5"/>
<text text-anchor="middle" x="139.5" y="-83.5" font-family="Helvetica,sans-Serif" font-size="10.00">PskSpline</text>
</a>
</g>
</g>
<!-- Node0&#45;&gt;Node3 -->
<g id="edge3" class="edge"><title>Node0&#45;&gt;Node3</title>
<path fill="none" stroke="midnightblue" d="M80.1094,-75.1764C89.8652,-76.9848 99.9732,-78.8584 108.982,-80.5283"/>
<polygon fill="midnightblue" stroke="midnightblue" points="80.6015,-71.708 70.131,-73.3267 79.3256,-78.5908 80.6015,-71.708"/>
</g>
<!-- Node4 -->
<g id="node5" class="node"><title>Node4</title>
<g id="a_node5"><a xlink:href="class_simple_p_s_k.html" target="_top" xlink:title="SimplePSK">
<polygon fill="white" stroke="black" points="106,-38.5 106,-57.5 173,-57.5 173,-38.5 106,-38.5"/>
<text text-anchor="middle" x="139.5" y="-45.5" font-family="Helvetica,sans-Serif" font-size="10.00">SimplePSK</text>
</a>
</g>
</g>
<!-- Node0&#45;&gt;Node4 -->
<g id="edge4" class="edge"><title>Node0&#45;&gt;Node4</title>
<path fill="none" stroke="midnightblue" d="M80.1094,-58.8236C88.7698,-57.2183 97.7078,-55.5615 105.908,-54.0415"/>
<polygon fill="midnightblue" stroke="midnightblue" points="79.3256,-55.4092 70.131,-60.6733 80.6015,-62.292 79.3256,-55.4092"/>
</g>
<!-- Node5 -->
<g id="node6" class="node"><title>Node5</title>
<g id="a_node6"><a xlink:href="class_v_g_morig.html" target="_top" xlink:title="VGMorig">
<polygon fill="white" stroke="black" points="112,-0.5 112,-19.5 167,-19.5 167,-0.5 112,-0.5"/>
<text text-anchor="middle" x="139.5" y="-7.5" font-family="Helvetica,sans-Serif" font-size="10.00">VGMorig</text>
</a>
</g>
</g>
<!-- Node0&#45;&gt;Node5 -->
<g id="edge5" class="edge"><title>Node0&#45;&gt;Node5</title>
<path fill="none" stroke="midnightblue" d="M62.2435,-52.4061C80.8319,-42.0691 105.234,-28.4991 121.369,-19.5265"/>
<polygon fill="midnightblue" stroke="midnightblue" points="60.4263,-49.4118 53.3877,-57.3307 63.8283,-55.5295 60.4263,-49.4118"/>
</g>
<!-- Node2 -->
<g id="node3" class="node"><title>Node2</title>
<g id="a_node3"><a xlink:href="class_b_c_b.html" target="_top" xlink:title="BCB">
<polygon fill="white" stroke="black" points="209.5,-114.5 209.5,-133.5 247.5,-133.5 247.5,-114.5 209.5,-114.5"/>
<text text-anchor="middle" x="228.5" y="-121.5" font-family="Helvetica,sans-Serif" font-size="10.00">BCB</text>
</a>
</g>
</g>
<!-- Node1&#45;&gt;Node2 -->
<g id="edge2" class="edge"><title>Node1&#45;&gt;Node2</title>
<path fill="none" stroke="midnightblue" d="M169.387,-124C182.541,-124 197.713,-124 209.255,-124"/>
<polygon fill="midnightblue" stroke="midnightblue" points="169.378,-120.5 159.378,-124 169.378,-127.5 169.378,-120.5"/>
</g>
<!-- Node6 -->
<g id="node7" class="node"><title>Node6</title>
<g id="a_node7"><a xlink:href="class_v_g_m.html" target="_top" xlink:title="VGM">
<polygon fill="white" stroke="black" points="209,-0.5 209,-19.5 248,-19.5 248,-0.5 209,-0.5"/>
<text text-anchor="middle" x="228.5" y="-7.5" font-family="Helvetica,sans-Serif" font-size="10.00">VGM</text>
</a>
</g>
</g>
<!-- Node5&#45;&gt;Node6 -->
<g id="edge6" class="edge"><title>Node5&#45;&gt;Node6</title>
<path fill="none" stroke="midnightblue" d="M177.239,-10C188.121,-10 199.582,-10 208.806,-10"/>
<polygon fill="midnightblue" stroke="midnightblue" points="177.076,-6.5001 167.076,-10 177.076,-13.5001 177.076,-6.5001"/>
</g>
<!-- Node7 -->
<g id="node8" class="node"><title>Node7</title>
<g id="a_node8"><a xlink:href="class_v_g_b.html" target="_top" xlink:title="VGB">
<polygon fill="white" stroke="black" points="284,-0.5 284,-19.5 322,-19.5 322,-0.5 284,-0.5"/>
<text text-anchor="middle" x="303" y="-7.5" font-family="Helvetica,sans-Serif" font-size="10.00">VGB</text>
</a>
</g>
</g>
<!-- Node6&#45;&gt;Node7 -->
<g id="edge7" class="edge"><title>Node6&#45;&gt;Node7</title>
<path fill="none" stroke="midnightblue" d="M258.196,-10C266.767,-10 275.927,-10 283.644,-10"/>
<polygon fill="midnightblue" stroke="midnightblue" points="258.171,-6.5001 248.171,-10 258.171,-13.5001 258.171,-6.5001"/>
</g>
</g>
</svg>
