<?xml version="1.0" encoding="UTF-8" standalone="no"?>
<!DOCTYPE svg PUBLIC "-//W3C//DTD SVG 1.1//EN"
 "http://www.w3.org/Graphics/SVG/1.1/DTD/svg11.dtd">
<!-- Generated by graphviz version 2.42.3 (0)
 -->
<!-- Title: Graphical Class Hierarchy Pages: 1 -->
<svg width="393pt" height="72pt"
 viewBox="0.00 0.00 393.00 72.00" xmlns="http://www.w3.org/2000/svg" xmlns:xlink="http://www.w3.org/1999/xlink">
<g id="graph0" class="graph" transform="scale(1 1) rotate(0) translate(4 68)">
<title>Graphical Class Hierarchy</title>
<polygon fill="white" stroke="transparent" points="-4,4 -4,-68 389,-68 389,4 -4,4"/>
<!-- Node0 -->
<g id="node1" class="node">
<title>Node0</title>
<g id="a_node1"><a xlink:href="classproteus_1_1cpp_a_d_r__base.html" target="_top" xlink:title=" ">
<polygon fill="white" stroke="black" points="0,-22.5 0,-41.5 126,-41.5 126,-22.5 0,-22.5"/>
<text text-anchor="middle" x="63" y="-29.5" font-family="Helvetica,sans-Serif" font-size="10.00">proteus::cppADR_base</text>
</a>
</g>
</g>
<!-- Node1 -->
<g id="node2" class="node">
<title>Node1</title>
<g id="a_node2"><a xlink:href="classproteus_1_1cpp_a_d_r.html" target="_top" xlink:title=" ">
<polygon fill="white" stroke="black" points="162,-0.5 162,-63.5 385,-63.5 385,-0.5 162,-0.5"/>
<text text-anchor="start" x="170" y="-51.5" font-family="Helvetica,sans-Serif" font-size="10.00">proteus::cppADR&lt; CompKernel</text>
<text text-anchor="start" x="170" y="-40.5" font-family="Helvetica,sans-Serif" font-size="10.00">Type, nSpace, nQuadraturePoints</text>
<text text-anchor="start" x="170" y="-29.5" font-family="Helvetica,sans-Serif" font-size="10.00">_element, nDOF_mesh_trial_element,</text>
<text text-anchor="start" x="170" y="-18.5" font-family="Helvetica,sans-Serif" font-size="10.00"> nDOF_trial_element, nDOF_test_element,</text>
<text text-anchor="middle" x="273.5" y="-7.5" font-family="Helvetica,sans-Serif" font-size="10.00"> nQuadraturePoints_elementBoundary &gt;</text>
</a>
</g>
</g>
<!-- Node0&#45;&gt;Node1 -->
<g id="edge1" class="edge">
<title>Node0&#45;&gt;Node1</title>
<path fill="none" stroke="midnightblue" d="M136.51,-32C144.73,-32 153.24,-32 161.81,-32"/>
<polygon fill="midnightblue" stroke="midnightblue" points="136.27,-28.5 126.27,-32 136.27,-35.5 136.27,-28.5"/>
</g>
</g>
</svg>
