<?xml version="1.0" encoding="UTF-8" standalone="no"?>
<!DOCTYPE svg PUBLIC "-//W3C//DTD SVG 1.1//EN"
 "http://www.w3.org/Graphics/SVG/1.1/DTD/svg11.dtd">
<!-- Generated by graphviz version 2.42.3 (0)
 -->
<!-- Title: Graphical Class Hierarchy Pages: 1 -->
<svg width="274pt" height="104pt"
 viewBox="0.00 0.00 274.00 104.00" xmlns="http://www.w3.org/2000/svg" xmlns:xlink="http://www.w3.org/1999/xlink">
<g id="graph0" class="graph" transform="scale(1 1) rotate(0) translate(4 100)">
<title>Graphical Class Hierarchy</title>
<polygon fill="white" stroke="transparent" points="-4,4 -4,-100 270,-100 270,4 -4,4"/>
<!-- Node0 -->
<g id="node1" class="node">
<title>Node0</title>
<g id="a_node1"><a xlink:href="class_d__base.html" target="_top" xlink:title=" ">
<polygon fill="white" stroke="black" points="0,-38.5 0,-57.5 53,-57.5 53,-38.5 0,-38.5"/>
<text text-anchor="middle" x="26.5" y="-45.5" font-family="Helvetica,sans-Serif" font-size="10.00">D_base</text>
</a>
</g>
</g>
<!-- Node1 -->
<g id="node2" class="node">
<title>Node1</title>
<g id="a_node2"><a xlink:href="class_piecewise_linear_complex_domain.html" target="_top" xlink:title=" ">
<polygon fill="white" stroke="black" points="89,-76.5 89,-95.5 266,-95.5 266,-76.5 89,-76.5"/>
<text text-anchor="middle" x="177.5" y="-83.5" font-family="Helvetica,sans-Serif" font-size="10.00">PiecewiseLinearComplexDomain</text>
</a>
</g>
</g>
<!-- Node0&#45;&gt;Node1 -->
<g id="edge1" class="edge">
<title>Node0&#45;&gt;Node1</title>
<path fill="none" stroke="midnightblue" d="M62.78,-59.47C71.32,-62.09 80.45,-64.76 89,-67 101.93,-70.39 116.05,-73.65 129.1,-76.48"/>
<polygon fill="midnightblue" stroke="midnightblue" points="63.68,-56.08 53.09,-56.44 61.6,-62.76 63.68,-56.08"/>
</g>
<!-- Node2 -->
<g id="node3" class="node">
<title>Node2</title>
<g id="a_node3"><a xlink:href="class_planar_straight_line_graph_domain.html" target="_top" xlink:title=" ">
<polygon fill="white" stroke="black" points="91,-38.5 91,-57.5 264,-57.5 264,-38.5 91,-38.5"/>
<text text-anchor="middle" x="177.5" y="-45.5" font-family="Helvetica,sans-Serif" font-size="10.00">PlanarStraightLineGraphDomain</text>
</a>
</g>
</g>
<!-- Node0&#45;&gt;Node2 -->
<g id="edge2" class="edge">
<title>Node0&#45;&gt;Node2</title>
<path fill="none" stroke="midnightblue" d="M63.26,-48C71.71,-48 81.07,-48 90.68,-48"/>
<polygon fill="midnightblue" stroke="midnightblue" points="63.11,-44.5 53.11,-48 63.11,-51.5 63.11,-44.5"/>
</g>
<!-- Node3 -->
<g id="node4" class="node">
<title>Node3</title>
<g id="a_node4"><a xlink:href="class_rectangular_domain.html" target="_top" xlink:title=" ">
<polygon fill="white" stroke="black" points="121,-0.5 121,-19.5 234,-19.5 234,-0.5 121,-0.5"/>
<text text-anchor="middle" x="177.5" y="-7.5" font-family="Helvetica,sans-Serif" font-size="10.00">RectangularDomain</text>
</a>
</g>
</g>
<!-- Node0&#45;&gt;Node3 -->
<g id="edge3" class="edge">
<title>Node0&#45;&gt;Node3</title>
<path fill="none" stroke="midnightblue" d="M62.78,-36.53C71.32,-33.91 80.45,-31.24 89,-29 101.93,-25.61 116.05,-22.35 129.1,-19.52"/>
<polygon fill="midnightblue" stroke="midnightblue" points="61.6,-33.24 53.09,-39.56 63.68,-39.92 61.6,-33.24"/>
</g>
</g>
</svg>
