<?xml version="1.0" encoding="UTF-8" standalone="no"?>
<!DOCTYPE svg PUBLIC "-//W3C//DTD SVG 1.1//EN"
 "http://www.w3.org/Graphics/SVG/1.1/DTD/svg11.dtd">
<!-- Generated by graphviz version 2.42.3 (0)
 -->
<!-- Title: Graphical Class Hierarchy Pages: 1 -->
<svg width="384pt" height="72pt"
 viewBox="0.00 0.00 384.00 72.00" xmlns="http://www.w3.org/2000/svg" xmlns:xlink="http://www.w3.org/1999/xlink">
<g id="graph0" class="graph" transform="scale(1 1) rotate(0) translate(4 68)">
<title>Graphical Class Hierarchy</title>
<polygon fill="white" stroke="transparent" points="-4,4 -4,-68 380,-68 380,4 -4,4"/>
<!-- Node0 -->
<g id="node1" class="node">
<title>Node0</title>
<g id="a_node1"><a xlink:href="classproteus_1_1_s_w2_d__base.html" target="_top" xlink:title=" ">
<polygon fill="white" stroke="black" points="0,-22.5 0,-41.5 117,-41.5 117,-22.5 0,-22.5"/>
<text text-anchor="middle" x="58.5" y="-29.5" font-family="Helvetica,sans-Serif" font-size="10.00">proteus::SW2D_base</text>
</a>
</g>
</g>
<!-- Node1 -->
<g id="node2" class="node">
<title>Node1</title>
<g id="a_node2"><a xlink:href="classproteus_1_1_s_w2_d.html" target="_top" xlink:title=" ">
<polygon fill="white" stroke="black" points="153,-0.5 153,-63.5 376,-63.5 376,-0.5 153,-0.5"/>
<text text-anchor="start" x="161" y="-51.5" font-family="Helvetica,sans-Serif" font-size="10.00">proteus::SW2D&lt; CompKernel</text>
<text text-anchor="start" x="161" y="-40.5" font-family="Helvetica,sans-Serif" font-size="10.00">Type, nSpace, nQuadraturePoints</text>
<text text-anchor="start" x="161" y="-29.5" font-family="Helvetica,sans-Serif" font-size="10.00">_element, nDOF_mesh_trial_element,</text>
<text text-anchor="start" x="161" y="-18.5" font-family="Helvetica,sans-Serif" font-size="10.00"> nDOF_trial_element, nDOF_test_element,</text>
<text text-anchor="middle" x="264.5" y="-7.5" font-family="Helvetica,sans-Serif" font-size="10.00"> nQuadraturePoints_elementBoundary &gt;</text>
</a>
</g>
</g>
<!-- Node0&#45;&gt;Node1 -->
<g id="edge1" class="edge">
<title>Node0&#45;&gt;Node1</title>
<path fill="none" stroke="midnightblue" d="M127.32,-32C135.52,-32 144.05,-32 152.66,-32"/>
<polygon fill="midnightblue" stroke="midnightblue" points="127.14,-28.5 117.14,-32 127.14,-35.5 127.14,-28.5"/>
</g>
</g>
</svg>
