<?xml version="1.0" encoding="UTF-8" standalone="no"?>
<!DOCTYPE svg PUBLIC "-//W3C//DTD SVG 1.1//EN"
 "http://www.w3.org/Graphics/SVG/1.1/DTD/svg11.dtd">
<!-- Generated by graphviz version 2.42.3 (0)
 -->
<!-- Title: Graphical Class Hierarchy Pages: 1 -->
<svg width="429pt" height="94pt"
 viewBox="0.00 0.00 429.00 94.00" xmlns="http://www.w3.org/2000/svg" xmlns:xlink="http://www.w3.org/1999/xlink">
<g id="graph0" class="graph" transform="scale(1 1) rotate(0) translate(4 90)">
<title>Graphical Class Hierarchy</title>
<polygon fill="white" stroke="transparent" points="-4,4 -4,-90 425,-90 425,4 -4,4"/>
<!-- Node0 -->
<g id="node1" class="node">
<title>Node0</title>
<g id="a_node1"><a xlink:href="classproteus_1_1_r_a_n_s2_p2_d__base.html" target="_top" xlink:title=" ">
<polygon fill="white" stroke="black" points="0,-33.5 0,-52.5 140,-52.5 140,-33.5 0,-33.5"/>
<text text-anchor="middle" x="70" y="-40.5" font-family="Helvetica,sans-Serif" font-size="10.00">proteus::RANS2P2D_base</text>
</a>
</g>
</g>
<!-- Node1 -->
<g id="node2" class="node">
<title>Node1</title>
<g id="a_node2"><a xlink:href="classproteus_1_1_r_a_n_s2_p2_d.html" target="_top" xlink:title=" ">
<polygon fill="white" stroke="black" points="176,-0.5 176,-85.5 421,-85.5 421,-0.5 176,-0.5"/>
<text text-anchor="start" x="184" y="-73.5" font-family="Helvetica,sans-Serif" font-size="10.00">proteus::RANS2P2D&lt;</text>
<text text-anchor="start" x="184" y="-62.5" font-family="Helvetica,sans-Serif" font-size="10.00"> CompKernelType, CompKernel</text>
<text text-anchor="start" x="184" y="-51.5" font-family="Helvetica,sans-Serif" font-size="10.00">Type_v, nSpace, nQuadraturePoints</text>
<text text-anchor="start" x="184" y="-40.5" font-family="Helvetica,sans-Serif" font-size="10.00">_element, nDOF_mesh_trial_element,</text>
<text text-anchor="start" x="184" y="-29.5" font-family="Helvetica,sans-Serif" font-size="10.00"> nDOF_trial_element, nDOF_test_element,</text>
<text text-anchor="start" x="184" y="-18.5" font-family="Helvetica,sans-Serif" font-size="10.00"> nDOF_v_trial_element, nDOF_v_test_element,</text>
<text text-anchor="middle" x="298.5" y="-7.5" font-family="Helvetica,sans-Serif" font-size="10.00"> nQuadraturePoints_elementBoundary &gt;</text>
</a>
</g>
</g>
<!-- Node0&#45;&gt;Node1 -->
<g id="edge1" class="edge">
<title>Node0&#45;&gt;Node1</title>
<path fill="none" stroke="midnightblue" d="M150.44,-43C158.65,-43 167.13,-43 175.67,-43"/>
<polygon fill="midnightblue" stroke="midnightblue" points="150.19,-39.5 140.19,-43 150.19,-46.5 150.19,-39.5"/>
</g>
</g>
</svg>
