<?xml version="1.0" encoding="UTF-8" standalone="no"?>
<!DOCTYPE svg PUBLIC "-//W3C//DTD SVG 1.1//EN"
 "http://www.w3.org/Graphics/SVG/1.1/DTD/svg11.dtd">
<!-- Generated by graphviz version 2.40.1 (20161225.0304)
 -->
<!-- Title: lapackWrappersModule.c Pages: 1 -->
<svg width="286pt" height="84pt"
 viewBox="0.00 0.00 286.00 84.00" xmlns="http://www.w3.org/2000/svg" xmlns:xlink="http://www.w3.org/1999/xlink">
<g id="graph0" class="graph" transform="scale(1 1) rotate(0) translate(4 80)">
<title>lapackWrappersModule.c</title>
<polygon fill="#ffffff" stroke="transparent" points="-4,4 -4,-80 282,-80 282,4 -4,4"/>
<!-- Node0 -->
<g id="node1" class="node">
<title>Node0</title>
<polygon fill="#bfbfbf" stroke="#000000" points="63.5,-56.5 63.5,-75.5 190.5,-75.5 190.5,-56.5 63.5,-56.5"/>
<text text-anchor="middle" x="127" y="-63.5" font-family="Helvetica,sans-Serif" font-size="10.00" fill="#000000">lapackWrappersModule.c</text>
</g>
<!-- Node1 -->
<g id="node2" class="node">
<title>Node1</title>
<polygon fill="#ffffff" stroke="#bfbfbf" points="0,-.5 0,-19.5 56,-19.5 56,-.5 0,-.5"/>
<text text-anchor="middle" x="28" y="-7.5" font-family="Helvetica,sans-Serif" font-size="10.00" fill="#000000">Python.h</text>
</g>
<!-- Node0&#45;&gt;Node1 -->
<g id="edge1" class="edge">
<title>Node0&#45;&gt;Node1</title>
<path fill="none" stroke="#191970" d="M109.7555,-56.2455C94.4239,-47.5731 71.7801,-34.7645 54.2084,-24.825"/>
<polygon fill="#191970" stroke="#191970" points="55.4741,-21.5198 45.0469,-19.6427 52.0276,-27.6126 55.4741,-21.5198"/>
</g>
<!-- Node2 -->
<g id="node3" class="node">
<title>Node2</title>
<polygon fill="#ffffff" stroke="#bfbfbf" points="74.5,-.5 74.5,-19.5 179.5,-19.5 179.5,-.5 74.5,-.5"/>
<text text-anchor="middle" x="127" y="-7.5" font-family="Helvetica,sans-Serif" font-size="10.00" fill="#000000">numpy/arrayobject.h</text>
</g>
<!-- Node0&#45;&gt;Node2 -->
<g id="edge2" class="edge">
<title>Node0&#45;&gt;Node2</title>
<path fill="none" stroke="#191970" d="M127,-56.2455C127,-48.9382 127,-38.6944 127,-29.7046"/>
<polygon fill="#191970" stroke="#191970" points="130.5001,-29.6426 127,-19.6427 123.5001,-29.6427 130.5001,-29.6426"/>
</g>
<!-- Node3 -->
<g id="node4" class="node">
<title>Node3</title>
<g id="a_node4"><a xlink:href="proteus__blas_8h.html" target="_top" xlink:title="proteus_blas.h">
<polygon fill="#ffffff" stroke="#000000" points="198,-.5 198,-19.5 278,-19.5 278,-.5 198,-.5"/>
<text text-anchor="middle" x="238" y="-7.5" font-family="Helvetica,sans-Serif" font-size="10.00" fill="#000000">proteus_blas.h</text>
</a>
</g>
</g>
<!-- Node0&#45;&gt;Node3 -->
<g id="edge3" class="edge">
<title>Node0&#45;&gt;Node3</title>
<path fill="none" stroke="#191970" d="M146.0816,-56.3733C163.7402,-47.4644 190.2053,-34.1127 210.2098,-24.0203"/>
<polygon fill="#191970" stroke="#191970" points="211.8158,-27.1303 219.1674,-19.5011 208.6628,-20.8806 211.8158,-27.1303"/>
</g>
</g>
</svg>
