<?xml version="1.0" encoding="UTF-8" standalone="no"?>
<!DOCTYPE svg PUBLIC "-//W3C//DTD SVG 1.1//EN"
 "http://www.w3.org/Graphics/SVG/1.1/DTD/svg11.dtd">
<!-- Generated by graphviz version 2.38.0 (20140413.2041)
 -->
<!-- Title: lapackWrappersModule.c Pages: 1 -->
<svg width="286pt" height="84pt"
 viewBox="0.00 0.00 286.00 84.00" xmlns="http://www.w3.org/2000/svg" xmlns:xlink="http://www.w3.org/1999/xlink">
<g id="graph0" class="graph" transform="scale(1 1) rotate(0) translate(4 80)">
<title>lapackWrappersModule.c</title>
<polygon fill="white" stroke="none" points="-4,4 -4,-80 282,-80 282,4 -4,4"/>
<!-- Node0 -->
<g id="node1" class="node"><title>Node0</title>
<polygon fill="#bfbfbf" stroke="black" points="63.5,-56.5 63.5,-75.5 190.5,-75.5 190.5,-56.5 63.5,-56.5"/>
<text text-anchor="middle" x="127" y="-63.5" font-family="Helvetica,sans-Serif" font-size="10.00">lapackWrappersModule.c</text>
</g>
<!-- Node1 -->
<g id="node2" class="node"><title>Node1</title>
<polygon fill="white" stroke="#bfbfbf" points="0,-0.5 0,-19.5 56,-19.5 56,-0.5 0,-0.5"/>
<text text-anchor="middle" x="28" y="-7.5" font-family="Helvetica,sans-Serif" font-size="10.00">Python.h</text>
</g>
<!-- Node0&#45;&gt;Node1 -->
<g id="edge1" class="edge"><title>Node0&#45;&gt;Node1</title>
<path fill="none" stroke="midnightblue" d="M111.094,-56.324C95.3618,-47.7428 71.0577,-34.486 52.7911,-24.5224"/>
<polygon fill="midnightblue" stroke="midnightblue" points="54.3216,-21.3704 43.8666,-19.6545 50.9696,-27.5157 54.3216,-21.3704"/>
</g>
<!-- Node2 -->
<g id="node3" class="node"><title>Node2</title>
<polygon fill="white" stroke="#bfbfbf" points="74.5,-0.5 74.5,-19.5 179.5,-19.5 179.5,-0.5 74.5,-0.5"/>
<text text-anchor="middle" x="127" y="-7.5" font-family="Helvetica,sans-Serif" font-size="10.00">numpy/arrayobject.h</text>
</g>
<!-- Node0&#45;&gt;Node2 -->
<g id="edge2" class="edge"><title>Node0&#45;&gt;Node2</title>
<path fill="none" stroke="midnightblue" d="M127,-56.083C127,-49.0059 127,-38.8611 127,-29.9865"/>
<polygon fill="midnightblue" stroke="midnightblue" points="130.5,-29.751 127,-19.7511 123.5,-29.7511 130.5,-29.751"/>
</g>
<!-- Node3 -->
<g id="node4" class="node"><title>Node3</title>
<g id="a_node4"><a xlink:href="proteus__blas_8h.html" target="_top" xlink:title="proteus_blas.h">
<polygon fill="white" stroke="black" points="198,-0.5 198,-19.5 278,-19.5 278,-0.5 198,-0.5"/>
<text text-anchor="middle" x="238" y="-7.5" font-family="Helvetica,sans-Serif" font-size="10.00">proteus_blas.h</text>
</a>
</g>
</g>
<!-- Node0&#45;&gt;Node3 -->
<g id="edge3" class="edge"><title>Node0&#45;&gt;Node3</title>
<path fill="none" stroke="midnightblue" d="M144.834,-56.324C162.716,-47.6247 190.475,-34.1202 211.046,-24.113"/>
<polygon fill="midnightblue" stroke="midnightblue" points="212.749,-27.1765 220.21,-19.6545 209.687,-20.8819 212.749,-27.1765"/>
</g>
</g>
</svg>
