<?xml version="1.0" encoding="UTF-8" standalone="no"?>
<!DOCTYPE svg PUBLIC "-//W3C//DTD SVG 1.1//EN"
 "http://www.w3.org/Graphics/SVG/1.1/DTD/svg11.dtd">
<!-- Generated by graphviz version 2.38.0 (20140413.2041)
 -->
<!-- Title: meshio.h Pages: 1 -->
<svg width="124pt" height="84pt"
 viewBox="0.00 0.00 124.00 84.00" xmlns="http://www.w3.org/2000/svg" xmlns:xlink="http://www.w3.org/1999/xlink">
<g id="graph0" class="graph" transform="scale(1 1) rotate(0) translate(4 80)">
<title>meshio.h</title>
<polygon fill="white" stroke="none" points="-4,4 -4,-80 120,-80 120,4 -4,4"/>
<!-- Node0 -->
<g id="node1" class="node"><title>Node0</title>
<polygon fill="#bfbfbf" stroke="black" points="32,-56.5 32,-75.5 88,-75.5 88,-56.5 32,-56.5"/>
<text text-anchor="middle" x="60" y="-63.5" font-family="Helvetica,sans-Serif" font-size="10.00">meshio.h</text>
</g>
<!-- Node1 -->
<g id="node2" class="node"><title>Node1</title>
<polygon fill="white" stroke="#bfbfbf" points="0,-0.5 0,-19.5 54,-19.5 54,-0.5 0,-0.5"/>
<text text-anchor="middle" x="27" y="-7.5" font-family="Helvetica,sans-Serif" font-size="10.00">iostream</text>
</g>
<!-- Node0&#45;&gt;Node1 -->
<g id="edge1" class="edge"><title>Node0&#45;&gt;Node1</title>
<path fill="none" stroke="midnightblue" d="M54.5507,-56.083C49.9855,-48.6127 43.3316,-37.7244 37.7066,-28.5199"/>
<polygon fill="midnightblue" stroke="midnightblue" points="40.5489,-26.4588 32.3479,-19.7511 34.5759,-30.109 40.5489,-26.4588"/>
</g>
<!-- Node2 -->
<g id="node3" class="node"><title>Node2</title>
<polygon fill="white" stroke="#bfbfbf" points="72,-0.5 72,-19.5 116,-19.5 116,-0.5 72,-0.5"/>
<text text-anchor="middle" x="94" y="-7.5" font-family="Helvetica,sans-Serif" font-size="10.00">vector</text>
</g>
<!-- Node0&#45;&gt;Node2 -->
<g id="edge2" class="edge"><title>Node0&#45;&gt;Node2</title>
<path fill="none" stroke="midnightblue" d="M65.6144,-56.083C70.3674,-48.5341 77.3181,-37.4948 83.1516,-28.2298"/>
<polygon fill="midnightblue" stroke="midnightblue" points="86.1237,-30.0783 88.4901,-19.7511 80.2001,-26.3486 86.1237,-30.0783"/>
</g>
</g>
</svg>
