<?xml version="1.0" encoding="UTF-8" standalone="no"?>
<!DOCTYPE svg PUBLIC "-//W3C//DTD SVG 1.1//EN"
 "http://www.w3.org/Graphics/SVG/1.1/DTD/svg11.dtd">
<!-- Generated by graphviz version 2.42.3 (0)
 -->
<!-- Title: mesh.cpp Pages: 1 -->
<svg width="655pt" height="140pt"
 viewBox="0.00 0.00 654.50 140.00" xmlns="http://www.w3.org/2000/svg" xmlns:xlink="http://www.w3.org/1999/xlink">
<g id="graph0" class="graph" transform="scale(1 1) rotate(0) translate(4 136)">
<title>mesh.cpp</title>
<polygon fill="white" stroke="transparent" points="-4,4 -4,-136 650.5,-136 650.5,4 -4,4"/>
<!-- Node1 -->
<g id="node1" class="node">
<title>Node1</title>
<g id="a_node1"><a xlink:title=" ">
<polygon fill="#bfbfbf" stroke="black" points="284,-112.5 284,-131.5 348,-131.5 348,-112.5 284,-112.5"/>
<text text-anchor="middle" x="316" y="-119.5" font-family="Helvetica,sans-Serif" font-size="10.00">mesh.cpp</text>
</a>
</g>
</g>
<!-- Node2 -->
<g id="node2" class="node">
<title>Node2</title>
<g id="a_node2"><a xlink:href="mesh_8h.html" target="_top" xlink:title=" ">
<polygon fill="white" stroke="black" points="234.5,-56.5 234.5,-75.5 287.5,-75.5 287.5,-56.5 234.5,-56.5"/>
<text text-anchor="middle" x="261" y="-63.5" font-family="Helvetica,sans-Serif" font-size="10.00">mesh.h</text>
</a>
</g>
</g>
<!-- Node1&#45;&gt;Node2 -->
<g id="edge1" class="edge">
<title>Node1&#45;&gt;Node2</title>
<path fill="none" stroke="midnightblue" d="M306.92,-112.08C298.83,-104.14 286.8,-92.34 277.09,-82.8"/>
<polygon fill="midnightblue" stroke="midnightblue" points="279.5,-80.26 269.91,-75.75 274.6,-85.25 279.5,-80.26"/>
</g>
<!-- Node3 -->
<g id="node3" class="node">
<title>Node3</title>
<g id="a_node3"><a xlink:title=" ">
<polygon fill="white" stroke="#bfbfbf" points="0,-0.5 0,-19.5 32,-19.5 32,-0.5 0,-0.5"/>
<text text-anchor="middle" x="16" y="-7.5" font-family="Helvetica,sans-Serif" font-size="10.00">set</text>
</a>
</g>
</g>
<!-- Node1&#45;&gt;Node3 -->
<g id="edge15" class="edge">
<title>Node1&#45;&gt;Node3</title>
<path fill="none" stroke="midnightblue" d="M283.97,-119.62C238.98,-116.58 155.49,-106.89 92,-76 67.5,-64.08 44.48,-42.34 30.33,-27.31"/>
<polygon fill="midnightblue" stroke="midnightblue" points="32.75,-24.78 23.43,-19.75 27.58,-29.5 32.75,-24.78"/>
</g>
<!-- Node8 -->
<g id="node8" class="node">
<title>Node8</title>
<g id="a_node8"><a xlink:title=" ">
<polygon fill="white" stroke="#bfbfbf" points="50,-0.5 50,-19.5 110,-19.5 110,-0.5 50,-0.5"/>
<text text-anchor="middle" x="80" y="-7.5" font-family="Helvetica,sans-Serif" font-size="10.00">iostream</text>
</a>
</g>
</g>
<!-- Node1&#45;&gt;Node8 -->
<g id="edge19" class="edge">
<title>Node1&#45;&gt;Node8</title>
<path fill="none" stroke="midnightblue" d="M283.72,-117.31C233.18,-110.99 138.4,-96.71 112,-76 97.33,-64.49 88.92,-44.52 84.44,-29.74"/>
<polygon fill="midnightblue" stroke="midnightblue" points="87.71,-28.43 81.74,-19.68 80.95,-30.25 87.71,-28.43"/>
</g>
<!-- Node10 -->
<g id="node10" class="node">
<title>Node10</title>
<g id="a_node10"><a xlink:title=" ">
<polygon fill="white" stroke="#bfbfbf" points="591.5,-0.5 591.5,-19.5 646.5,-19.5 646.5,-0.5 591.5,-0.5"/>
<text text-anchor="middle" x="619" y="-7.5" font-family="Helvetica,sans-Serif" font-size="10.00">fstream</text>
</a>
</g>
</g>
<!-- Node1&#45;&gt;Node10 -->
<g id="edge20" class="edge">
<title>Node1&#45;&gt;Node10</title>
<path fill="none" stroke="midnightblue" d="M315.93,-112.28C316.32,-98.13 319.32,-70.29 336,-56 375.98,-21.74 513.58,-29.76 580.97,-19.99"/>
<polygon fill="midnightblue" stroke="midnightblue" points="581.88,-23.38 591.15,-18.25 580.71,-16.48 581.88,-23.38"/>
</g>
<!-- Node13 -->
<g id="node13" class="node">
<title>Node13</title>
<g id="a_node13"><a xlink:href="meshio_8h.html" target="_top" xlink:title=" ">
<polygon fill="white" stroke="black" points="121,-56.5 121,-75.5 183,-75.5 183,-56.5 121,-56.5"/>
<text text-anchor="middle" x="152" y="-63.5" font-family="Helvetica,sans-Serif" font-size="10.00">meshio.h</text>
</a>
</g>
</g>
<!-- Node1&#45;&gt;Node13 -->
<g id="edge12" class="edge">
<title>Node1&#45;&gt;Node13</title>
<path fill="none" stroke="midnightblue" d="M290.01,-112.44C262.3,-103.32 218.25,-88.81 187.38,-78.65"/>
<polygon fill="midnightblue" stroke="midnightblue" points="188.46,-75.32 177.86,-75.52 186.27,-81.97 188.46,-75.32"/>
</g>
<!-- Node14 -->
<g id="node14" class="node">
<title>Node14</title>
<g id="a_node14"><a xlink:title=" ">
<polygon fill="white" stroke="#bfbfbf" points="344.5,-56.5 344.5,-75.5 401.5,-75.5 401.5,-56.5 344.5,-56.5"/>
<text text-anchor="middle" x="373" y="-63.5" font-family="Helvetica,sans-Serif" font-size="10.00">valarray</text>
</a>
</g>
</g>
<!-- Node1&#45;&gt;Node14 -->
<g id="edge16" class="edge">
<title>Node1&#45;&gt;Node14</title>
<path fill="none" stroke="midnightblue" d="M325.16,-112.32C333.5,-104.42 346.03,-92.55 356.18,-82.94"/>
<polygon fill="midnightblue" stroke="midnightblue" points="358.82,-85.25 363.68,-75.83 354.01,-80.17 358.82,-85.25"/>
</g>
<!-- Node15 -->
<g id="node15" class="node">
<title>Node15</title>
<g id="a_node15"><a xlink:title=" ">
<polygon fill="white" stroke="#bfbfbf" points="420,-56.5 420,-75.5 464,-75.5 464,-56.5 420,-56.5"/>
<text text-anchor="middle" x="442" y="-63.5" font-family="Helvetica,sans-Serif" font-size="10.00">string</text>
</a>
</g>
</g>
<!-- Node1&#45;&gt;Node15 -->
<g id="edge17" class="edge">
<title>Node1&#45;&gt;Node15</title>
<path fill="none" stroke="midnightblue" d="M335.97,-112.44C356.61,-103.6 389.06,-89.69 412.63,-79.59"/>
<polygon fill="midnightblue" stroke="midnightblue" points="414.32,-82.67 422.13,-75.52 411.56,-76.24 414.32,-82.67"/>
</g>
<!-- Node16 -->
<g id="node16" class="node">
<title>Node16</title>
<g id="a_node16"><a xlink:title=" ">
<polygon fill="white" stroke="#bfbfbf" points="482,-56.5 482,-75.5 538,-75.5 538,-56.5 482,-56.5"/>
<text text-anchor="middle" x="510" y="-63.5" font-family="Helvetica,sans-Serif" font-size="10.00">sstream</text>
</a>
</g>
</g>
<!-- Node1&#45;&gt;Node16 -->
<g id="edge18" class="edge">
<title>Node1&#45;&gt;Node16</title>
<path fill="none" stroke="midnightblue" d="M346.74,-112.44C380.73,-102.98 435.5,-87.74 472.11,-77.55"/>
<polygon fill="midnightblue" stroke="midnightblue" points="473.23,-80.87 481.92,-74.82 471.35,-74.12 473.23,-80.87"/>
</g>
<!-- Node17 -->
<g id="node17" class="node">
<title>Node17</title>
<g id="a_node17"><a xlink:title=" ">
<polygon fill="white" stroke="#bfbfbf" points="556,-56.5 556,-75.5 606,-75.5 606,-56.5 556,-56.5"/>
<text text-anchor="middle" x="581" y="-63.5" font-family="Helvetica,sans-Serif" font-size="10.00">cstring</text>
</a>
</g>
</g>
<!-- Node1&#45;&gt;Node17 -->
<g id="edge21" class="edge">
<title>Node1&#45;&gt;Node17</title>
<path fill="none" stroke="midnightblue" d="M348.28,-115.41C391.23,-107.82 469.73,-93.42 546.02,-76.11"/>
<polygon fill="midnightblue" stroke="midnightblue" points="546.83,-79.51 555.8,-73.87 545.27,-72.69 546.83,-79.51"/>
</g>
<!-- Node2&#45;&gt;Node3 -->
<g id="edge2" class="edge">
<title>Node2&#45;&gt;Node3</title>
<path fill="none" stroke="midnightblue" d="M234.29,-60.81C194.39,-54.28 116.74,-40.53 42.06,-19.97"/>
<polygon fill="midnightblue" stroke="midnightblue" points="42.6,-16.48 32.03,-17.15 40.71,-23.22 42.6,-16.48"/>
</g>
<!-- Node4 -->
<g id="node4" class="node">
<title>Node4</title>
<g id="a_node4"><a xlink:title=" ">
<polygon fill="white" stroke="#bfbfbf" points="128.5,-0.5 128.5,-19.5 175.5,-19.5 175.5,-0.5 128.5,-0.5"/>
<text text-anchor="middle" x="152" y="-7.5" font-family="Helvetica,sans-Serif" font-size="10.00">vector</text>
</a>
</g>
</g>
<!-- Node2&#45;&gt;Node4 -->
<g id="edge3" class="edge">
<title>Node2&#45;&gt;Node4</title>
<path fill="none" stroke="midnightblue" d="M243.49,-56.32C225.93,-47.62 198.67,-34.12 178.47,-24.11"/>
<polygon fill="midnightblue" stroke="midnightblue" points="179.98,-20.96 169.47,-19.65 176.88,-27.23 179.98,-20.96"/>
</g>
<!-- Node5 -->
<g id="node5" class="node">
<title>Node5</title>
<g id="a_node5"><a xlink:title=" ">
<polygon fill="white" stroke="#bfbfbf" points="194,-0.5 194,-19.5 258,-19.5 258,-0.5 194,-0.5"/>
<text text-anchor="middle" x="226" y="-7.5" font-family="Helvetica,sans-Serif" font-size="10.00">algorithm</text>
</a>
</g>
</g>
<!-- Node2&#45;&gt;Node5 -->
<g id="edge4" class="edge">
<title>Node2&#45;&gt;Node5</title>
<path fill="none" stroke="midnightblue" d="M255.22,-56.08C250.33,-48.53 243.17,-37.49 237.17,-28.23"/>
<polygon fill="midnightblue" stroke="midnightblue" points="240.05,-26.24 231.67,-19.75 234.17,-30.05 240.05,-26.24"/>
</g>
<!-- Node6 -->
<g id="node6" class="node">
<title>Node6</title>
<g id="a_node6"><a xlink:title=" ">
<polygon fill="white" stroke="#bfbfbf" points="276,-0.5 276,-19.5 314,-19.5 314,-0.5 276,-0.5"/>
<text text-anchor="middle" x="295" y="-7.5" font-family="Helvetica,sans-Serif" font-size="10.00">map</text>
</a>
</g>
</g>
<!-- Node2&#45;&gt;Node6 -->
<g id="edge5" class="edge">
<title>Node2&#45;&gt;Node6</title>
<path fill="none" stroke="midnightblue" d="M266.61,-56.08C271.37,-48.53 278.32,-37.49 284.15,-28.23"/>
<polygon fill="midnightblue" stroke="midnightblue" points="287.12,-30.08 289.49,-19.75 281.2,-26.35 287.12,-30.08"/>
</g>
<!-- Node7 -->
<g id="node7" class="node">
<title>Node7</title>
<g id="a_node7"><a xlink:title=" ">
<polygon fill="white" stroke="#bfbfbf" points="332,-0.5 332,-19.5 364,-19.5 364,-0.5 332,-0.5"/>
<text text-anchor="middle" x="348" y="-7.5" font-family="Helvetica,sans-Serif" font-size="10.00">list</text>
</a>
</g>
</g>
<!-- Node2&#45;&gt;Node7 -->
<g id="edge6" class="edge">
<title>Node2&#45;&gt;Node7</title>
<path fill="none" stroke="midnightblue" d="M274.98,-56.32C288.55,-47.9 309.38,-34.97 325.32,-25.07"/>
<polygon fill="midnightblue" stroke="midnightblue" points="327.41,-27.9 334.06,-19.65 323.71,-21.95 327.41,-27.9"/>
</g>
<!-- Node2&#45;&gt;Node8 -->
<g id="edge7" class="edge">
<title>Node2&#45;&gt;Node8</title>
<path fill="none" stroke="midnightblue" d="M234.29,-57.03C203.68,-47.9 153.26,-32.86 118.44,-22.47"/>
<polygon fill="midnightblue" stroke="midnightblue" points="119.19,-19.04 108.61,-19.54 117.19,-25.75 119.19,-19.04"/>
</g>
<!-- Node9 -->
<g id="node9" class="node">
<title>Node9</title>
<g id="a_node9"><a xlink:title=" ">
<polygon fill="white" stroke="#bfbfbf" points="382,-0.5 382,-19.5 438,-19.5 438,-0.5 382,-0.5"/>
<text text-anchor="middle" x="410" y="-7.5" font-family="Helvetica,sans-Serif" font-size="10.00">iomanip</text>
</a>
</g>
</g>
<!-- Node2&#45;&gt;Node9 -->
<g id="edge8" class="edge">
<title>Node2&#45;&gt;Node9</title>
<path fill="none" stroke="midnightblue" d="M284.61,-56.44C309.46,-47.44 348.77,-33.19 376.75,-23.05"/>
<polygon fill="midnightblue" stroke="midnightblue" points="378.29,-26.21 386.5,-19.52 375.91,-19.63 378.29,-26.21"/>
</g>
<!-- Node2&#45;&gt;Node10 -->
<g id="edge9" class="edge">
<title>Node2&#45;&gt;Node10</title>
<path fill="none" stroke="midnightblue" d="M287.84,-58.75C292.54,-57.76 297.4,-56.8 302,-56 422.91,-35.03 457.52,-42.88 581.3,-20.14"/>
<polygon fill="midnightblue" stroke="midnightblue" points="581.98,-23.58 591.16,-18.3 580.69,-16.7 581.98,-23.58"/>
</g>
<!-- Node11 -->
<g id="node11" class="node">
<title>Node11</title>
<g id="a_node11"><a xlink:title=" ">
<polygon fill="white" stroke="#bfbfbf" points="456,-0.5 456,-19.5 508,-19.5 508,-0.5 456,-0.5"/>
<text text-anchor="middle" x="482" y="-7.5" font-family="Helvetica,sans-Serif" font-size="10.00">cassert</text>
</a>
</g>
</g>
<!-- Node2&#45;&gt;Node11 -->
<g id="edge10" class="edge">
<title>Node2&#45;&gt;Node11</title>
<path fill="none" stroke="midnightblue" d="M287.52,-58.71C321.79,-50.55 383.58,-35.76 445.67,-20.31"/>
<polygon fill="midnightblue" stroke="midnightblue" points="446.78,-23.64 455.64,-17.82 445.09,-16.85 446.78,-23.64"/>
</g>
<!-- Node12 -->
<g id="node12" class="node">
<title>Node12</title>
<g id="a_node12"><a xlink:title=" ">
<polygon fill="white" stroke="#bfbfbf" points="526.5,-0.5 526.5,-19.5 573.5,-19.5 573.5,-0.5 526.5,-0.5"/>
<text text-anchor="middle" x="550" y="-7.5" font-family="Helvetica,sans-Serif" font-size="10.00">cmath</text>
</a>
</g>
</g>
<!-- Node2&#45;&gt;Node12 -->
<g id="edge11" class="edge">
<title>Node2&#45;&gt;Node12</title>
<path fill="none" stroke="midnightblue" d="M287.87,-58.9C292.57,-57.89 297.42,-56.89 302,-56 394.06,-38.2 420.67,-40.59 516.47,-19.92"/>
<polygon fill="midnightblue" stroke="midnightblue" points="517.26,-23.33 526.28,-17.78 515.76,-16.49 517.26,-23.33"/>
</g>
<!-- Node13&#45;&gt;Node4 -->
<g id="edge14" class="edge">
<title>Node13&#45;&gt;Node4</title>
<path fill="none" stroke="midnightblue" d="M152,-56.08C152,-49.01 152,-38.86 152,-29.99"/>
<polygon fill="midnightblue" stroke="midnightblue" points="155.5,-29.75 152,-19.75 148.5,-29.75 155.5,-29.75"/>
</g>
<!-- Node13&#45;&gt;Node8 -->
<g id="edge13" class="edge">
<title>Node13&#45;&gt;Node8</title>
<path fill="none" stroke="midnightblue" d="M140.43,-56.32C129.58,-48.18 113.12,-35.84 100.12,-26.09"/>
<polygon fill="midnightblue" stroke="midnightblue" points="101.88,-23.03 91.78,-19.83 97.68,-28.63 101.88,-23.03"/>
</g>
</g>
</svg>
