<?xml version="1.0" encoding="UTF-8" standalone="no"?>
<!DOCTYPE svg PUBLIC "-//W3C//DTD SVG 1.1//EN"
 "http://www.w3.org/Graphics/SVG/1.1/DTD/svg11.dtd">
<!-- Generated by graphviz version 2.40.1 (20161225.0304)
 -->
<!-- Title: mesh.h Pages: 1 -->
<svg width="980pt" height="196pt"
 viewBox="0.00 0.00 980.00 196.00" xmlns="http://www.w3.org/2000/svg" xmlns:xlink="http://www.w3.org/1999/xlink">
<g id="graph0" class="graph" transform="scale(1 1) rotate(0) translate(4 192)">
<title>mesh.h</title>
<polygon fill="#ffffff" stroke="transparent" points="-4,4 -4,-192 976,-192 976,4 -4,4"/>
<!-- Node11 -->
<g id="node1" class="node">
<title>Node11</title>
<polygon fill="#bfbfbf" stroke="#000000" points="447.5,-168.5 447.5,-187.5 496.5,-187.5 496.5,-168.5 447.5,-168.5"/>
<text text-anchor="middle" x="472" y="-175.5" font-family="Helvetica,sans-Serif" font-size="10.00" fill="#000000">mesh.h</text>
</g>
<!-- Node12 -->
<g id="node2" class="node">
<title>Node12</title>
<g id="a_node2"><a xlink:href="cfmmfsw_8h.html" target="_top" xlink:title="cfmmfsw.h">
<polygon fill="#ffffff" stroke="#000000" points="103.5,-112.5 103.5,-131.5 168.5,-131.5 168.5,-112.5 103.5,-112.5"/>
<text text-anchor="middle" x="136" y="-119.5" font-family="Helvetica,sans-Serif" font-size="10.00" fill="#000000">cfmmfsw.h</text>
</a>
</g>
</g>
<!-- Node11&#45;&gt;Node12 -->
<g id="edge1" class="edge">
<title>Node11&#45;&gt;Node12</title>
<path fill="none" stroke="#191970" d="M437.0339,-173.0316C382.5887,-165.1609 274.3148,-148.9698 183,-132 178.3249,-131.1312 173.4016,-130.1535 168.5724,-129.1585"/>
<polygon fill="#191970" stroke="#191970" points="436.7876,-176.5321 447.1843,-174.4926 437.7849,-169.6035 436.7876,-176.5321"/>
</g>
<!-- Node13 -->
<g id="node3" class="node">
<title>Node13</title>
<g id="a_node3"><a xlink:href="cfmmfsw_8cpp.html" target="_top" xlink:title="cfmmfsw.cpp">
<polygon fill="#ffffff" stroke="#000000" points="0,-56.5 0,-75.5 76,-75.5 76,-56.5 0,-56.5"/>
<text text-anchor="middle" x="38" y="-63.5" font-family="Helvetica,sans-Serif" font-size="10.00" fill="#000000">cfmmfsw.cpp</text>
</a>
</g>
</g>
<!-- Node11&#45;&gt;Node13 -->
<g id="edge8" class="edge">
<title>Node11&#45;&gt;Node13</title>
<path fill="none" stroke="#191970" d="M437.2383,-176.9772C355.384,-174.0633 152.963,-163.7644 94,-132 69.6576,-118.8863 51.3777,-90.5279 43.0208,-75.6135"/>
<polygon fill="#191970" stroke="#191970" points="437.1716,-180.4769 447.2848,-177.319 437.4097,-173.4809 437.1716,-180.4769"/>
</g>
<!-- Node14 -->
<g id="node4" class="node">
<title>Node14</title>
<g id="a_node4"><a xlink:href="cfmmfsw_module_8cpp.html" target="_top" xlink:title="cfmmfswModule.cpp">
<polygon fill="#ffffff" stroke="#000000" points="94.5,-56.5 94.5,-75.5 201.5,-75.5 201.5,-56.5 94.5,-56.5"/>
<text text-anchor="middle" x="148" y="-63.5" font-family="Helvetica,sans-Serif" font-size="10.00" fill="#000000">cfmmfswModule.cpp</text>
</a>
</g>
</g>
<!-- Node11&#45;&gt;Node14 -->
<g id="edge9" class="edge">
<title>Node11&#45;&gt;Node14</title>
<path fill="none" stroke="#191970" d="M436.9681,-174.2677C376.1992,-167.3736 254.089,-151.5463 216,-132 189.3605,-118.3293 166.2297,-90.7381 155.0831,-75.9292"/>
<polygon fill="#191970" stroke="#191970" points="436.8926,-177.7809 447.2191,-175.4117 437.6691,-170.8241 436.8926,-177.7809"/>
</g>
<!-- Node15 -->
<g id="node5" class="node">
<title>Node15</title>
<g id="a_node5"><a xlink:href="_f_m_mand_f_s_w_8h.html" target="_top" xlink:title="FMMandFSW.h">
<polygon fill="#ffffff" stroke="#000000" points="225,-112.5 225,-131.5 311,-131.5 311,-112.5 225,-112.5"/>
<text text-anchor="middle" x="268" y="-119.5" font-family="Helvetica,sans-Serif" font-size="10.00" fill="#000000">FMMandFSW.h</text>
</a>
</g>
</g>
<!-- Node11&#45;&gt;Node15 -->
<g id="edge4" class="edge">
<title>Node11&#45;&gt;Node15</title>
<path fill="none" stroke="#191970" d="M437.4476,-168.515C399.9906,-158.2327 340.5407,-141.9131 302.9348,-131.5899"/>
<polygon fill="#191970" stroke="#191970" points="436.823,-171.973 447.3928,-171.2451 438.6761,-165.2227 436.823,-171.973"/>
</g>
<!-- Node16 -->
<g id="node6" class="node">
<title>Node16</title>
<g id="a_node6"><a xlink:href="_f_m_mand_f_s_w_8cpp.html" target="_top" xlink:title="FMMandFSW.cpp">
<polygon fill="#ffffff" stroke="#000000" points="220,-56.5 220,-75.5 316,-75.5 316,-56.5 220,-56.5"/>
<text text-anchor="middle" x="268" y="-63.5" font-family="Helvetica,sans-Serif" font-size="10.00" fill="#000000">FMMandFSW.cpp</text>
</a>
</g>
</g>
<!-- Node11&#45;&gt;Node16 -->
<g id="edge25" class="edge">
<title>Node11&#45;&gt;Node16</title>
<path fill="none" stroke="#191970" d="M445.7185,-163.5709C403.3634,-140.3171 321.1423,-95.1761 285.3489,-75.5249"/>
<polygon fill="#191970" stroke="#191970" points="444.1569,-166.7063 454.6071,-168.4509 447.5257,-160.5703 444.1569,-166.7063"/>
</g>
<!-- Node17 -->
<g id="node7" class="node">
<title>Node17</title>
<g id="a_node7"><a xlink:href="cmesh_tools_module_8h.html" target="_top" xlink:title="cmeshToolsModule.h">
<polygon fill="#ffffff" stroke="#000000" points="417,-112.5 417,-131.5 527,-131.5 527,-112.5 417,-112.5"/>
<text text-anchor="middle" x="472" y="-119.5" font-family="Helvetica,sans-Serif" font-size="10.00" fill="#000000">cmeshToolsModule.h</text>
</a>
</g>
</g>
<!-- Node11&#45;&gt;Node17 -->
<g id="edge10" class="edge">
<title>Node11&#45;&gt;Node17</title>
<path fill="none" stroke="#191970" d="M472,-158.1575C472,-149.155 472,-138.9199 472,-131.6427"/>
<polygon fill="#191970" stroke="#191970" points="468.5001,-158.2455 472,-168.2455 475.5001,-158.2456 468.5001,-158.2455"/>
</g>
<!-- Node18 -->
<g id="node8" class="node">
<title>Node18</title>
<g id="a_node8"><a xlink:href="cmesh_tools_module_8cpp.html" target="_top" xlink:title="cmeshToolsModule.cpp">
<polygon fill="#ffffff" stroke="#000000" points="334,-56.5 334,-75.5 454,-75.5 454,-56.5 334,-56.5"/>
<text text-anchor="middle" x="394" y="-63.5" font-family="Helvetica,sans-Serif" font-size="10.00" fill="#000000">cmeshToolsModule.cpp</text>
</a>
</g>
</g>
<!-- Node11&#45;&gt;Node18 -->
<g id="edge23" class="edge">
<title>Node11&#45;&gt;Node18</title>
<path fill="none" stroke="#191970" d="M442.7286,-163.3524C430.2141,-155.6623 416.5465,-145.0929 408,-132 396.6034,-114.5408 394.2868,-89.4525 393.9331,-75.7851"/>
<polygon fill="#191970" stroke="#191970" points="441.1362,-166.4744 451.5475,-168.438 444.6332,-160.4104 441.1362,-166.4744"/>
</g>
<!-- Node19 -->
<g id="node9" class="node">
<title>Node19</title>
<g id="a_node9"><a xlink:href="flcbdf_wrappers_module_8h.html" target="_top" xlink:title="Python interface to adpative BDF code (daetk) ">
<polygon fill="#ffffff" stroke="#000000" points="472,-56.5 472,-75.5 594,-75.5 594,-56.5 472,-56.5"/>
<text text-anchor="middle" x="533" y="-63.5" font-family="Helvetica,sans-Serif" font-size="10.00" fill="#000000">flcbdfWrappersModule.h</text>
</a>
</g>
</g>
<!-- Node11&#45;&gt;Node19 -->
<g id="edge24" class="edge">
<title>Node11&#45;&gt;Node19</title>
<path fill="none" stroke="#191970" d="M503.6519,-163.4623C516.1064,-155.9674 529.067,-145.5211 536,-132 545.3156,-113.8322 540.2263,-89.0207 536.2602,-75.5877"/>
<polygon fill="#191970" stroke="#191970" points="501.8072,-160.4832 494.766,-168.3999 505.2072,-166.6021 501.8072,-160.4832"/>
</g>
<!-- Node21 -->
<g id="node11" class="node">
<title>Node21</title>
<g id="a_node11"><a xlink:href="_mesh_adapt_p_u_m_i_8h.html" target="_top" xlink:title="MeshAdaptPUMI.h">
<polygon fill="#ffffff" stroke="#000000" points="612,-56.5 612,-75.5 712,-75.5 712,-56.5 612,-56.5"/>
<text text-anchor="middle" x="662" y="-63.5" font-family="Helvetica,sans-Serif" font-size="10.00" fill="#000000">MeshAdaptPUMI.h</text>
</a>
</g>
</g>
<!-- Node11&#45;&gt;Node21 -->
<g id="edge27" class="edge">
<title>Node11&#45;&gt;Node21</title>
<path fill="none" stroke="#191970" d="M497.9177,-163.5246C513.8674,-154.5562 534.6925,-142.7383 553,-132 586.5844,-112.3011 625.5098,-88.4929 646.5584,-75.5365"/>
<polygon fill="#191970" stroke="#191970" points="496.1546,-160.5005 489.146,-168.446 499.5798,-166.6052 496.1546,-160.5005"/>
</g>
<!-- Node24 -->
<g id="node14" class="node">
<title>Node24</title>
<g id="a_node14"><a xlink:href="_mesh_converter_8cpp.html" target="_top" xlink:title="MeshConverter.cpp">
<polygon fill="#ffffff" stroke="#000000" points="718,-.5 718,-19.5 820,-19.5 820,-.5 718,-.5"/>
<text text-anchor="middle" x="769" y="-7.5" font-family="Helvetica,sans-Serif" font-size="10.00" fill="#000000">MeshConverter.cpp</text>
</a>
</g>
</g>
<!-- Node11&#45;&gt;Node24 -->
<g id="edge31" class="edge">
<title>Node11&#45;&gt;Node24</title>
<path fill="none" stroke="#191970" d="M506.4413,-170.3131C557.5212,-157.5853 654.4722,-128.2099 721,-76 741.0623,-60.2554 756.6425,-34.0222 764.125,-19.834"/>
<polygon fill="#191970" stroke="#191970" points="505.4557,-166.9505 496.5622,-172.7086 507.1054,-173.7534 505.4557,-166.9505"/>
</g>
<!-- Node26 -->
<g id="node16" class="node">
<title>Node26</title>
<g id="a_node16"><a xlink:href="_parallel_mesh_converter_8cpp.html" target="_top" xlink:title="ParallelMeshConverter.cpp">
<polygon fill="#ffffff" stroke="#000000" points="838,-.5 838,-19.5 972,-19.5 972,-.5 838,-.5"/>
<text text-anchor="middle" x="905" y="-7.5" font-family="Helvetica,sans-Serif" font-size="10.00" fill="#000000">ParallelMeshConverter.cpp</text>
</a>
</g>
</g>
<!-- Node11&#45;&gt;Node26 -->
<g id="edge32" class="edge">
<title>Node11&#45;&gt;Node26</title>
<path fill="none" stroke="#191970" d="M506.5816,-171.7786C544.4391,-164.4343 606.5991,-150.7985 658,-132 748.7341,-98.8165 850.0655,-42.0411 888.7775,-19.5655"/>
<polygon fill="#191970" stroke="#191970" points="505.7469,-168.3745 496.5774,-173.6823 507.0555,-175.2512 505.7469,-168.3745"/>
</g>
<!-- Node29 -->
<g id="node19" class="node">
<title>Node29</title>
<g id="a_node19"><a xlink:href="mesh_8cpp.html" target="_top" xlink:title="mesh.cpp">
<polygon fill="#ffffff" stroke="#000000" points="899.5,-112.5 899.5,-131.5 958.5,-131.5 958.5,-112.5 899.5,-112.5"/>
<text text-anchor="middle" x="929" y="-119.5" font-family="Helvetica,sans-Serif" font-size="10.00" fill="#000000">mesh.cpp</text>
</a>
</g>
</g>
<!-- Node11&#45;&gt;Node29 -->
<g id="edge26" class="edge">
<title>Node11&#45;&gt;Node29</title>
<path fill="none" stroke="#191970" d="M507.0841,-175.909C579.3845,-171.214 750.0129,-158.1415 891,-132 893.683,-131.5025 896.4553,-130.9164 899.2235,-130.2814"/>
<polygon fill="#191970" stroke="#191970" points="506.5019,-172.4388 496.7442,-176.5664 506.9462,-179.4247 506.5019,-172.4388"/>
</g>
<!-- Node30 -->
<g id="node20" class="node">
<title>Node30</title>
<g id="a_node20"><a xlink:href="_dump_mesh_8h.html" target="_top" xlink:title="DumpMesh.h">
<polygon fill="#ffffff" stroke="#000000" points="806.5,-112.5 806.5,-131.5 881.5,-131.5 881.5,-112.5 806.5,-112.5"/>
<text text-anchor="middle" x="844" y="-119.5" font-family="Helvetica,sans-Serif" font-size="10.00" fill="#000000">DumpMesh.h</text>
</a>
</g>
</g>
<!-- Node11&#45;&gt;Node30 -->
<g id="edge28" class="edge">
<title>Node11&#45;&gt;Node30</title>
<path fill="none" stroke="#191970" d="M506.7746,-173.5484C565.6282,-165.8919 688.565,-149.3701 792,-132 796.6238,-131.2235 801.4691,-130.3595 806.2641,-129.4737"/>
<polygon fill="#191970" stroke="#191970" points="506.0176,-170.1171 496.5503,-174.873 506.9171,-177.0591 506.0176,-170.1171"/>
</g>
<!-- Node12&#45;&gt;Node13 -->
<g id="edge2" class="edge">
<title>Node12&#45;&gt;Node13</title>
<path fill="none" stroke="#191970" d="M109.8314,-107.0465C92.3942,-97.0824 69.9889,-84.2794 54.8747,-75.6427"/>
<polygon fill="#191970" stroke="#191970" points="108.5108,-110.323 118.9297,-112.2455 111.9838,-104.2453 108.5108,-110.323"/>
</g>
<!-- Node12&#45;&gt;Node14 -->
<g id="edge3" class="edge">
<title>Node12&#45;&gt;Node14</title>
<path fill="none" stroke="#191970" d="M140.1885,-102.4538C142.1328,-93.3803 144.3572,-82.9998 145.9337,-75.6427"/>
<polygon fill="#191970" stroke="#191970" points="136.7633,-101.7341 138.0902,-112.2455 143.6079,-103.2009 136.7633,-101.7341"/>
</g>
<!-- Node15&#45;&gt;Node13 -->
<g id="edge5" class="edge">
<title>Node15&#45;&gt;Node13</title>
<path fill="none" stroke="#191970" d="M218.8468,-110.0323C176.2394,-99.6583 115.4446,-84.8561 76.3491,-75.3372"/>
<polygon fill="#191970" stroke="#191970" points="218.1788,-113.4718 228.7229,-112.4369 219.8348,-106.6705 218.1788,-113.4718"/>
</g>
<!-- Node15&#45;&gt;Node14 -->
<g id="edge6" class="edge">
<title>Node15&#45;&gt;Node14</title>
<path fill="none" stroke="#191970" d="M238.2376,-108.1109C216.4768,-97.9559 187.5318,-84.4482 168.3595,-75.5011"/>
<polygon fill="#191970" stroke="#191970" points="236.8293,-111.316 247.3713,-112.3733 239.7895,-104.9727 236.8293,-111.316"/>
</g>
<!-- Node15&#45;&gt;Node16 -->
<g id="edge7" class="edge">
<title>Node15&#45;&gt;Node16</title>
<path fill="none" stroke="#191970" d="M268,-102.1575C268,-93.155 268,-82.9199 268,-75.6427"/>
<polygon fill="#191970" stroke="#191970" points="264.5001,-102.2455 268,-112.2455 271.5001,-102.2456 264.5001,-102.2455"/>
</g>
<!-- Node17&#45;&gt;Node14 -->
<g id="edge11" class="edge">
<title>Node17&#45;&gt;Node14</title>
<path fill="none" stroke="#191970" d="M406.5064,-110.6801C346.2533,-100.266 257.9721,-85.0075 201.7537,-75.2908"/>
<polygon fill="#191970" stroke="#191970" points="406.2205,-114.1825 416.6706,-112.4369 407.4128,-107.2848 406.2205,-114.1825"/>
</g>
<!-- Node17&#45;&gt;Node18 -->
<g id="edge12" class="edge">
<title>Node17&#45;&gt;Node18</title>
<path fill="none" stroke="#191970" d="M450.0064,-106.2097C436.3071,-96.3743 419.1264,-84.0394 407.4309,-75.6427"/>
<polygon fill="#191970" stroke="#191970" points="448.2489,-109.2566 458.4134,-112.2455 452.3314,-103.5703 448.2489,-109.2566"/>
</g>
<!-- Node17&#45;&gt;Node19 -->
<g id="edge13" class="edge">
<title>Node17&#45;&gt;Node19</title>
<path fill="none" stroke="#191970" d="M490.1249,-105.3607C500.678,-95.6727 513.6112,-83.7995 522.4964,-75.6427"/>
<polygon fill="#191970" stroke="#191970" points="487.625,-102.9045 482.6254,-112.2455 492.3589,-108.0611 487.625,-102.9045"/>
</g>
<!-- Node17&#45;&gt;Node21 -->
<g id="edge15" class="edge">
<title>Node17&#45;&gt;Node21</title>
<path fill="none" stroke="#191970" d="M514.5597,-109.4561C549.4369,-99.1765 598.0468,-84.8494 629.764,-75.5011"/>
<polygon fill="#191970" stroke="#191970" points="513.2647,-106.1888 504.6622,-112.3733 515.2437,-112.9033 513.2647,-106.1888"/>
</g>
<!-- Node20 -->
<g id="node10" class="node">
<title>Node20</title>
<g id="a_node10"><a xlink:href="flcbdf_wrappers_module_8cpp.html" target="_top" xlink:title="flcbdfWrappersModule.cpp">
<polygon fill="#ffffff" stroke="#000000" points="13.5,-.5 13.5,-19.5 146.5,-19.5 146.5,-.5 13.5,-.5"/>
<text text-anchor="middle" x="80" y="-7.5" font-family="Helvetica,sans-Serif" font-size="10.00" fill="#000000">flcbdfWrappersModule.cpp</text>
</a>
</g>
</g>
<!-- Node19&#45;&gt;Node20 -->
<g id="edge14" class="edge">
<title>Node19&#45;&gt;Node20</title>
<path fill="none" stroke="#191970" d="M461.8717,-55.8799C324.6499,-38.1907 288.5496,-36.707 155,-20 152.2628,-19.6576 149.4699,-19.304 146.649,-18.9435"/>
<polygon fill="#191970" stroke="#191970" points="461.5625,-59.369 471.9292,-57.1819 462.4613,-52.4269 461.5625,-59.369"/>
</g>
<!-- Node22 -->
<g id="node12" class="node">
<title>Node22</title>
<g id="a_node12"><a xlink:href="c_mesh_adapt_p_u_m_i_8cpp.html" target="_top" xlink:title="cMeshAdaptPUMI.cpp">
<polygon fill="#ffffff" stroke="#000000" points="240,-.5 240,-19.5 356,-19.5 356,-.5 240,-.5"/>
<text text-anchor="middle" x="298" y="-7.5" font-family="Helvetica,sans-Serif" font-size="10.00" fill="#000000">cMeshAdaptPUMI.cpp</text>
</a>
</g>
</g>
<!-- Node21&#45;&gt;Node22 -->
<g id="edge16" class="edge">
<title>Node21&#45;&gt;Node22</title>
<path fill="none" stroke="#191970" d="M601.6649,-55.8277C556.3636,-48.7589 430.9953,-29.9329 356.0513,-18.6969"/>
<polygon fill="#191970" stroke="#191970" points="601.3748,-59.3252 611.7982,-57.4273 602.4663,-52.4108 601.3748,-59.3252"/>
</g>
<!-- Node23 -->
<g id="node13" class="node">
<title>Node23</title>
<g id="a_node13"><a xlink:href="_error_residual_method_8cpp.html" target="_top" xlink:title="ErrorResidualMethod.cpp">
<polygon fill="#ffffff" stroke="#000000" points="374.5,-.5 374.5,-19.5 501.5,-19.5 501.5,-.5 374.5,-.5"/>
<text text-anchor="middle" x="438" y="-7.5" font-family="Helvetica,sans-Serif" font-size="10.00" fill="#000000">ErrorResidualMethod.cpp</text>
</a>
</g>
</g>
<!-- Node21&#45;&gt;Node23 -->
<g id="edge17" class="edge">
<title>Node21&#45;&gt;Node23</title>
<path fill="none" stroke="#191970" d="M613.928,-53.982C572.7125,-43.6781 514.1322,-29.0331 476.0947,-19.5237"/>
<polygon fill="#191970" stroke="#191970" points="613.1972,-57.407 623.7475,-56.4369 614.895,-50.616 613.1972,-57.407"/>
</g>
<!-- Node21&#45;&gt;Node24 -->
<g id="edge18" class="edge">
<title>Node21&#45;&gt;Node24</title>
<path fill="none" stroke="#191970" d="M689.5199,-51.5971C708.7017,-41.558 733.7678,-28.4393 750.5756,-19.6427"/>
<polygon fill="#191970" stroke="#191970" points="687.875,-48.5075 680.638,-56.2455 691.1209,-54.7095 687.875,-48.5075"/>
</g>
<!-- Node25 -->
<g id="node15" class="node">
<title>Node25</title>
<g id="a_node15"><a xlink:href="_mesh_fields_8cpp.html" target="_top" xlink:title="MeshFields.cpp">
<polygon fill="#ffffff" stroke="#000000" points="520,-.5 520,-19.5 606,-19.5 606,-.5 520,-.5"/>
<text text-anchor="middle" x="563" y="-7.5" font-family="Helvetica,sans-Serif" font-size="10.00" fill="#000000">MeshFields.cpp</text>
</a>
</g>
</g>
<!-- Node21&#45;&gt;Node25 -->
<g id="edge19" class="edge">
<title>Node21&#45;&gt;Node25</title>
<path fill="none" stroke="#191970" d="M635.5643,-51.0465C617.9492,-41.0824 595.3153,-28.2794 580.0469,-19.6427"/>
<polygon fill="#191970" stroke="#191970" points="634.3283,-54.3684 644.7555,-56.2455 637.7747,-48.2756 634.3283,-54.3684"/>
</g>
<!-- Node21&#45;&gt;Node26 -->
<g id="edge20" class="edge">
<title>Node21&#45;&gt;Node26</title>
<path fill="none" stroke="#191970" d="M713.3011,-54.1775C758.054,-43.8641 822.1484,-29.0934 863.6741,-19.5237"/>
<polygon fill="#191970" stroke="#191970" points="712.4557,-50.7805 703.4971,-56.4369 714.0277,-57.6017 712.4557,-50.7805"/>
</g>
<!-- Node27 -->
<g id="node17" class="node">
<title>Node27</title>
<g id="a_node17"><a xlink:href="_size_field_8cpp.html" target="_top" xlink:title="SizeField.cpp">
<polygon fill="#ffffff" stroke="#000000" points="624,-.5 624,-19.5 700,-19.5 700,-.5 624,-.5"/>
<text text-anchor="middle" x="662" y="-7.5" font-family="Helvetica,sans-Serif" font-size="10.00" fill="#000000">SizeField.cpp</text>
</a>
</g>
</g>
<!-- Node21&#45;&gt;Node27 -->
<g id="edge21" class="edge">
<title>Node21&#45;&gt;Node27</title>
<path fill="none" stroke="#191970" d="M662,-46.1575C662,-37.155 662,-26.9199 662,-19.6427"/>
<polygon fill="#191970" stroke="#191970" points="658.5001,-46.2455 662,-56.2455 665.5001,-46.2456 658.5001,-46.2455"/>
</g>
<!-- Node28 -->
<g id="node18" class="node">
<title>Node28</title>
<g id="a_node18"><a xlink:href="_v_m_s_8cpp.html" target="_top" xlink:title="VMS.cpp">
<polygon fill="#ffffff" stroke="#000000" points="164.5,-.5 164.5,-19.5 221.5,-19.5 221.5,-.5 164.5,-.5"/>
<text text-anchor="middle" x="193" y="-7.5" font-family="Helvetica,sans-Serif" font-size="10.00" fill="#000000">VMS.cpp</text>
</a>
</g>
</g>
<!-- Node21&#45;&gt;Node28 -->
<g id="edge22" class="edge">
<title>Node21&#45;&gt;Node28</title>
<path fill="none" stroke="#191970" d="M601.8065,-55.9325C436.5856,-34.6811 391.3199,-48.66 231,-20 227.9109,-19.4478 224.7051,-18.7711 221.5241,-18.0326"/>
<polygon fill="#191970" stroke="#191970" points="601.455,-59.4163 611.8249,-57.2451 602.3644,-52.4756 601.455,-59.4163"/>
</g>
<!-- Node30&#45;&gt;Node26 -->
<g id="edge30" class="edge">
<title>Node30&#45;&gt;Node26</title>
<path fill="none" stroke="#191970" d="M847.2983,-101.8641C850.1073,-88.2858 854.9943,-70.3076 863,-56 871.0264,-41.6553 884.3281,-28.1282 893.811,-19.5048"/>
<polygon fill="#191970" stroke="#191970" points="843.79,-101.5867 845.4046,-112.0577 850.6722,-102.8652 843.79,-101.5867"/>
</g>
<!-- Node31 -->
<g id="node21" class="node">
<title>Node31</title>
<g id="a_node21"><a xlink:href="_dump_mesh_8cpp.html" target="_top" xlink:title="DumpMesh.cpp">
<polygon fill="#ffffff" stroke="#000000" points="872,-56.5 872,-75.5 958,-75.5 958,-56.5 872,-56.5"/>
<text text-anchor="middle" x="915" y="-63.5" font-family="Helvetica,sans-Serif" font-size="10.00" fill="#000000">DumpMesh.cpp</text>
</a>
</g>
</g>
<!-- Node30&#45;&gt;Node31 -->
<g id="edge29" class="edge">
<title>Node30&#45;&gt;Node31</title>
<path fill="none" stroke="#191970" d="M864.377,-105.928C876.7871,-96.1397 892.23,-83.9595 902.7745,-75.6427"/>
<polygon fill="#191970" stroke="#191970" points="862.0514,-103.3046 856.3673,-112.2455 866.3864,-108.8007 862.0514,-103.3046"/>
</g>
</g>
</svg>
