<?xml version="1.0" encoding="UTF-8" standalone="no"?>
<!DOCTYPE svg PUBLIC "-//W3C//DTD SVG 1.1//EN"
 "http://www.w3.org/Graphics/SVG/1.1/DTD/svg11.dtd">
<!-- Generated by graphviz version 2.38.0 (20140413.2041)
 -->
<!-- Title: meshio.h Pages: 1 -->
<svg width="303pt" height="84pt"
 viewBox="0.00 0.00 303.00 84.00" xmlns="http://www.w3.org/2000/svg" xmlns:xlink="http://www.w3.org/1999/xlink">
<g id="graph0" class="graph" transform="scale(1 1) rotate(0) translate(4 80)">
<title>meshio.h</title>
<polygon fill="white" stroke="none" points="-4,4 -4,-80 299,-80 299,4 -4,4"/>
<!-- Node3 -->
<g id="node1" class="node"><title>Node3</title>
<polygon fill="#bfbfbf" stroke="black" points="152.5,-56.5 152.5,-75.5 208.5,-75.5 208.5,-56.5 152.5,-56.5"/>
<text text-anchor="middle" x="180.5" y="-63.5" font-family="Helvetica,sans-Serif" font-size="10.00">meshio.h</text>
</g>
<!-- Node4 -->
<g id="node2" class="node"><title>Node4</title>
<g id="a_node2"><a xlink:href="flcbdf_wrappers_module_8cpp.html" target="_top" xlink:title="flcbdfWrappersModule.cpp">
<polygon fill="white" stroke="black" points="0,-0.5 0,-19.5 133,-19.5 133,-0.5 0,-0.5"/>
<text text-anchor="middle" x="66.5" y="-7.5" font-family="Helvetica,sans-Serif" font-size="10.00">flcbdfWrappersModule.cpp</text>
</a>
</g>
</g>
<!-- Node3&#45;&gt;Node4 -->
<g id="edge1" class="edge"><title>Node3&#45;&gt;Node4</title>
<path fill="none" stroke="midnightblue" d="M153.258,-52.096C131.96,-42.0073 102.958,-28.2697 84.4791,-19.5164"/>
<polygon fill="midnightblue" stroke="midnightblue" points="151.901,-55.3257 162.436,-56.4435 154.897,-48.9995 151.901,-55.3257"/>
</g>
<!-- Node5 -->
<g id="node3" class="node"><title>Node5</title>
<g id="a_node3"><a xlink:href="mesh_8cpp.html" target="_top" xlink:title="mesh.cpp">
<polygon fill="white" stroke="black" points="151,-0.5 151,-19.5 210,-19.5 210,-0.5 151,-0.5"/>
<text text-anchor="middle" x="180.5" y="-7.5" font-family="Helvetica,sans-Serif" font-size="10.00">mesh.cpp</text>
</a>
</g>
</g>
<!-- Node3&#45;&gt;Node5 -->
<g id="edge2" class="edge"><title>Node3&#45;&gt;Node5</title>
<path fill="none" stroke="midnightblue" d="M180.5,-45.8045C180.5,-36.9102 180.5,-26.7798 180.5,-19.7511"/>
<polygon fill="midnightblue" stroke="midnightblue" points="177,-46.083 180.5,-56.083 184,-46.083 177,-46.083"/>
</g>
<!-- Node6 -->
<g id="node4" class="node"><title>Node6</title>
<g id="a_node4"><a xlink:href="meshio_8cpp.html" target="_top" xlink:title="meshio.cpp">
<polygon fill="white" stroke="black" points="228,-0.5 228,-19.5 295,-19.5 295,-0.5 228,-0.5"/>
<text text-anchor="middle" x="261.5" y="-7.5" font-family="Helvetica,sans-Serif" font-size="10.00">meshio.cpp</text>
</a>
</g>
</g>
<!-- Node3&#45;&gt;Node6 -->
<g id="edge3" class="edge"><title>Node3&#45;&gt;Node6</title>
<path fill="none" stroke="midnightblue" d="M202.067,-50.6221C216.864,-40.7574 236.012,-27.9919 248.518,-19.6545"/>
<polygon fill="midnightblue" stroke="midnightblue" points="199.893,-47.8647 193.514,-56.324 203.776,-53.6891 199.893,-47.8647"/>
</g>
</g>
</svg>
