<?xml version="1.0" encoding="UTF-8" standalone="no"?>
<!DOCTYPE svg PUBLIC "-//W3C//DTD SVG 1.1//EN"
 "http://www.w3.org/Graphics/SVG/1.1/DTD/svg11.dtd">
<!-- Generated by graphviz version 2.38.0 (20140413.2041)
 -->
<!-- Title: mesh.h Pages: 1 -->
<svg width="608pt" height="196pt"
 viewBox="0.00 0.00 607.50 196.00" xmlns="http://www.w3.org/2000/svg" xmlns:xlink="http://www.w3.org/1999/xlink">
<g id="graph0" class="graph" transform="scale(1 1) rotate(0) translate(4 192)">
<title>mesh.h</title>
<polygon fill="white" stroke="none" points="-4,4 -4,-192 603.5,-192 603.5,4 -4,4"/>
<!-- Node11 -->
<g id="node1" class="node"><title>Node11</title>
<polygon fill="#bfbfbf" stroke="black" points="265.5,-168.5 265.5,-187.5 314.5,-187.5 314.5,-168.5 265.5,-168.5"/>
<text text-anchor="middle" x="290" y="-175.5" font-family="Helvetica,sans-Serif" font-size="10.00">mesh.h</text>
</g>
<!-- Node12 -->
<g id="node2" class="node"><title>Node12</title>
<g id="a_node2"><a xlink:href="cfmmfsw_8h.html" target="_top" xlink:title="cfmmfsw.h">
<polygon fill="white" stroke="black" points="54.5,-112.5 54.5,-131.5 119.5,-131.5 119.5,-112.5 54.5,-112.5"/>
<text text-anchor="middle" x="87" y="-119.5" font-family="Helvetica,sans-Serif" font-size="10.00">cfmmfsw.h</text>
</a>
</g>
</g>
<!-- Node11&#45;&gt;Node12 -->
<g id="edge1" class="edge"><title>Node11&#45;&gt;Node12</title>
<path fill="none" stroke="midnightblue" d="M254.966,-167.681C216.763,-157.518 156.14,-141.392 119.124,-131.545"/>
<polygon fill="midnightblue" stroke="midnightblue" points="254.545,-171.19 265.108,-170.379 256.344,-164.425 254.545,-171.19"/>
</g>
<!-- Node13 -->
<g id="node3" class="node"><title>Node13</title>
<g id="a_node3"><a xlink:href="cfmmfsw_8cpp.html" target="_top" xlink:title="cfmmfsw.cpp">
<polygon fill="white" stroke="black" points="0,-56.5 0,-75.5 76,-75.5 76,-56.5 0,-56.5"/>
<text text-anchor="middle" x="38" y="-63.5" font-family="Helvetica,sans-Serif" font-size="10.00">cfmmfsw.cpp</text>
</a>
</g>
</g>
<!-- Node11&#45;&gt;Node13 -->
<g id="edge8" class="edge"><title>Node11&#45;&gt;Node13</title>
<path fill="none" stroke="midnightblue" d="M255.2,-175.578C194.48,-172.323 72.9634,-162.124 45,-132 30.792,-116.694 33.3918,-89.8113 35.978,-75.9005"/>
<polygon fill="midnightblue" stroke="midnightblue" points="255.283,-179.086 265.446,-176.092 255.634,-172.095 255.283,-179.086"/>
</g>
<!-- Node14 -->
<g id="node4" class="node"><title>Node14</title>
<g id="a_node4"><a xlink:href="cfmmfsw_module_8cpp.html" target="_top" xlink:title="cfmmfswModule.cpp">
<polygon fill="white" stroke="black" points="94.5,-56.5 94.5,-75.5 201.5,-75.5 201.5,-56.5 94.5,-56.5"/>
<text text-anchor="middle" x="148" y="-63.5" font-family="Helvetica,sans-Serif" font-size="10.00">cfmmfswModule.cpp</text>
</a>
</g>
</g>
<!-- Node11&#45;&gt;Node14 -->
<g id="edge9" class="edge"><title>Node11&#45;&gt;Node14</title>
<path fill="none" stroke="midnightblue" d="M255.367,-172.904C227.778,-167.853 190.075,-156.66 167,-132 152.219,-116.204 148.87,-89.5359 148.156,-75.7843"/>
<polygon fill="midnightblue" stroke="midnightblue" points="254.959,-176.384 265.394,-174.555 256.096,-169.477 254.959,-176.384"/>
</g>
<!-- Node15 -->
<g id="node5" class="node"><title>Node15</title>
<g id="a_node5"><a xlink:href="_f_m_mand_f_s_w_8h.html" target="_top" xlink:title="FMMandFSW.h">
<polygon fill="white" stroke="black" points="176,-112.5 176,-131.5 262,-131.5 262,-112.5 176,-112.5"/>
<text text-anchor="middle" x="219" y="-119.5" font-family="Helvetica,sans-Serif" font-size="10.00">FMMandFSW.h</text>
</a>
</g>
</g>
<!-- Node11&#45;&gt;Node15 -->
<g id="edge4" class="edge"><title>Node11&#45;&gt;Node15</title>
<path fill="none" stroke="midnightblue" d="M270.41,-162.101C257.632,-152.382 241.387,-140.027 230.615,-131.834"/>
<polygon fill="midnightblue" stroke="midnightblue" points="268.514,-165.056 278.593,-168.324 272.752,-159.484 268.514,-165.056"/>
</g>
<!-- Node16 -->
<g id="node6" class="node"><title>Node16</title>
<g id="a_node6"><a xlink:href="_f_m_mand_f_s_w_8cpp.html" target="_top" xlink:title="FMMandFSW.cpp">
<polygon fill="white" stroke="black" points="220,-56.5 220,-75.5 316,-75.5 316,-56.5 220,-56.5"/>
<text text-anchor="middle" x="268" y="-63.5" font-family="Helvetica,sans-Serif" font-size="10.00">FMMandFSW.cpp</text>
</a>
</g>
</g>
<!-- Node11&#45;&gt;Node16 -->
<g id="edge17" class="edge"><title>Node11&#45;&gt;Node16</title>
<path fill="none" stroke="midnightblue" d="M286.27,-158.348C281.451,-134.254 273.262,-93.3079 269.718,-75.5914"/>
<polygon fill="midnightblue" stroke="midnightblue" points="282.88,-159.249 288.274,-168.368 289.744,-157.876 282.88,-159.249"/>
</g>
<!-- Node17 -->
<g id="node7" class="node"><title>Node17</title>
<g id="a_node7"><a xlink:href="cmesh_tools_module_8h.html" target="_top" xlink:title="cmeshToolsModule.h">
<polygon fill="white" stroke="black" points="356,-112.5 356,-131.5 466,-131.5 466,-112.5 356,-112.5"/>
<text text-anchor="middle" x="411" y="-119.5" font-family="Helvetica,sans-Serif" font-size="10.00">cmeshToolsModule.h</text>
</a>
</g>
</g>
<!-- Node11&#45;&gt;Node17 -->
<g id="edge10" class="edge"><title>Node11&#45;&gt;Node17</title>
<path fill="none" stroke="midnightblue" d="M318.306,-164.368C340.965,-154.255 372.126,-140.349 391.917,-131.516"/>
<polygon fill="midnightblue" stroke="midnightblue" points="316.878,-161.172 309.173,-168.444 319.731,-167.564 316.878,-161.172"/>
</g>
<!-- Node18 -->
<g id="node8" class="node"><title>Node18</title>
<g id="a_node8"><a xlink:href="cmesh_tools_module_8cpp.html" target="_top" xlink:title="cmeshToolsModule.cpp">
<polygon fill="white" stroke="black" points="334,-56.5 334,-75.5 454,-75.5 454,-56.5 334,-56.5"/>
<text text-anchor="middle" x="394" y="-63.5" font-family="Helvetica,sans-Serif" font-size="10.00">cmeshToolsModule.cpp</text>
</a>
</g>
</g>
<!-- Node11&#45;&gt;Node18 -->
<g id="edge15" class="edge"><title>Node11&#45;&gt;Node18</title>
<path fill="none" stroke="midnightblue" d="M303.752,-160.53C315.066,-147.175 331.676,-128.01 347,-112 359.498,-98.9427 374.733,-84.6289 384.402,-75.7297"/>
<polygon fill="midnightblue" stroke="midnightblue" points="300.911,-158.471 297.149,-168.375 306.266,-162.979 300.911,-158.471"/>
</g>
<!-- Node19 -->
<g id="node9" class="node"><title>Node19</title>
<g id="a_node9"><a xlink:href="flcbdf_wrappers_module_8h.html" target="_top" xlink:title="Python interface to adpative BDF code (daetk) ">
<polygon fill="white" stroke="black" points="472,-56.5 472,-75.5 594,-75.5 594,-56.5 472,-56.5"/>
<text text-anchor="middle" x="533" y="-63.5" font-family="Helvetica,sans-Serif" font-size="10.00">flcbdfWrappersModule.h</text>
</a>
</g>
</g>
<!-- Node11&#45;&gt;Node19 -->
<g id="edge16" class="edge"><title>Node11&#45;&gt;Node19</title>
<path fill="none" stroke="midnightblue" d="M324.819,-174.718C363.854,-170.817 427.847,-160.292 475,-132 499.122,-117.527 518.809,-89.7718 527.773,-75.6756"/>
<polygon fill="midnightblue" stroke="midnightblue" points="324.15,-171.265 314.506,-175.652 324.781,-178.236 324.15,-171.265"/>
</g>
<!-- Node21 -->
<g id="node11" class="node"><title>Node21</title>
<g id="a_node11"><a xlink:href="mesh_8cpp.html" target="_top" xlink:title="mesh.cpp">
<polygon fill="white" stroke="black" points="522.5,-112.5 522.5,-131.5 581.5,-131.5 581.5,-112.5 522.5,-112.5"/>
<text text-anchor="middle" x="552" y="-119.5" font-family="Helvetica,sans-Serif" font-size="10.00">mesh.cpp</text>
</a>
</g>
</g>
<!-- Node11&#45;&gt;Node21 -->
<g id="edge18" class="edge"><title>Node11&#45;&gt;Node21</title>
<path fill="none" stroke="midnightblue" d="M324.712,-169.846C376.657,-159.139 473.71,-139.136 522.459,-129.089"/>
<polygon fill="midnightblue" stroke="midnightblue" points="323.736,-166.473 314.648,-171.92 325.149,-173.329 323.736,-166.473"/>
</g>
<!-- Node12&#45;&gt;Node13 -->
<g id="edge2" class="edge"><title>Node12&#45;&gt;Node13</title>
<path fill="none" stroke="midnightblue" d="M71.9655,-104.431C63.3778,-94.9673 52.9565,-83.4827 45.9408,-75.7511"/>
<polygon fill="midnightblue" stroke="midnightblue" points="69.5967,-107.029 78.9086,-112.083 74.7807,-102.325 69.5967,-107.029"/>
</g>
<!-- Node12&#45;&gt;Node14 -->
<g id="edge3" class="edge"><title>Node12&#45;&gt;Node14</title>
<path fill="none" stroke="midnightblue" d="M104.467,-105.537C115.344,-95.9087 128.944,-83.8694 138.021,-75.8339"/>
<polygon fill="midnightblue" stroke="midnightblue" points="101.968,-103.075 96.8007,-112.324 106.608,-108.316 101.968,-103.075"/>
</g>
<!-- Node15&#45;&gt;Node13 -->
<g id="edge5" class="edge"><title>Node15&#45;&gt;Node13</title>
<path fill="none" stroke="midnightblue" d="M180.681,-109.568C146.536,-99.381 97.3393,-84.7034 66.5458,-75.5164"/>
<polygon fill="midnightblue" stroke="midnightblue" points="179.737,-112.938 190.32,-112.444 181.738,-106.231 179.737,-112.938"/>
</g>
<!-- Node15&#45;&gt;Node14 -->
<g id="edge6" class="edge"><title>Node15&#45;&gt;Node14</title>
<path fill="none" stroke="midnightblue" d="M199.41,-106.101C186.632,-96.3824 170.387,-84.0269 159.615,-75.8339"/>
<polygon fill="midnightblue" stroke="midnightblue" points="197.514,-109.056 207.593,-112.324 201.752,-103.484 197.514,-109.056"/>
</g>
<!-- Node15&#45;&gt;Node16 -->
<g id="edge7" class="edge"><title>Node15&#45;&gt;Node16</title>
<path fill="none" stroke="midnightblue" d="M234.034,-104.431C242.622,-94.9673 253.043,-83.4827 260.059,-75.7511"/>
<polygon fill="midnightblue" stroke="midnightblue" points="231.219,-102.325 227.091,-112.083 236.403,-107.029 231.219,-102.325"/>
</g>
<!-- Node17&#45;&gt;Node14 -->
<g id="edge11" class="edge"><title>Node17&#45;&gt;Node14</title>
<path fill="none" stroke="midnightblue" d="M359.421,-110.41C309.717,-100.204 235.471,-84.9597 189.478,-75.5164"/>
<polygon fill="midnightblue" stroke="midnightblue" points="358.827,-113.861 369.327,-112.444 360.235,-107.004 358.827,-113.861"/>
</g>
<!-- Node17&#45;&gt;Node18 -->
<g id="edge12" class="edge"><title>Node17&#45;&gt;Node18</title>
<path fill="none" stroke="midnightblue" d="M405.143,-102.396C402.299,-93.362 399.017,-82.936 396.755,-75.7511"/>
<polygon fill="midnightblue" stroke="midnightblue" points="401.851,-103.596 408.193,-112.083 408.528,-101.493 401.851,-103.596"/>
</g>
<!-- Node17&#45;&gt;Node19 -->
<g id="edge13" class="edge"><title>Node17&#45;&gt;Node19</title>
<path fill="none" stroke="midnightblue" d="M439.539,-108.368C462.386,-98.2553 493.805,-84.3486 513.759,-75.5164"/>
<polygon fill="midnightblue" stroke="midnightblue" points="438.059,-105.196 430.331,-112.444 440.892,-111.597 438.059,-105.196"/>
</g>
<!-- Node20 -->
<g id="node10" class="node"><title>Node20</title>
<g id="a_node10"><a xlink:href="flcbdf_wrappers_module_8cpp.html" target="_top" xlink:title="flcbdfWrappersModule.cpp">
<polygon fill="white" stroke="black" points="466.5,-0.5 466.5,-19.5 599.5,-19.5 599.5,-0.5 466.5,-0.5"/>
<text text-anchor="middle" x="533" y="-7.5" font-family="Helvetica,sans-Serif" font-size="10.00">flcbdfWrappersModule.cpp</text>
</a>
</g>
</g>
<!-- Node19&#45;&gt;Node20 -->
<g id="edge14" class="edge"><title>Node19&#45;&gt;Node20</title>
<path fill="none" stroke="midnightblue" d="M533,-45.8045C533,-36.9102 533,-26.7798 533,-19.7511"/>
<polygon fill="midnightblue" stroke="midnightblue" points="529.5,-46.083 533,-56.083 536.5,-46.083 529.5,-46.083"/>
</g>
</g>
</svg>
