<?xml version="1.0" encoding="UTF-8" standalone="no"?>
<!DOCTYPE svg PUBLIC "-//W3C//DTD SVG 1.1//EN"
 "http://www.w3.org/Graphics/SVG/1.1/DTD/svg11.dtd">
<!-- Generated by graphviz version 2.40.1 (20161225.0304)
 -->
<!-- Title: mesh.cpp Pages: 1 -->
<svg width="613pt" height="140pt"
 viewBox="0.00 0.00 613.00 140.00" xmlns="http://www.w3.org/2000/svg" xmlns:xlink="http://www.w3.org/1999/xlink">
<g id="graph0" class="graph" transform="scale(1 1) rotate(0) translate(4 136)">
<title>mesh.cpp</title>
<polygon fill="#ffffff" stroke="transparent" points="-4,4 -4,-136 609,-136 609,4 -4,4"/>
<!-- Node0 -->
<g id="node1" class="node">
<title>Node0</title>
<polygon fill="#bfbfbf" stroke="#000000" points="266.5,-112.5 266.5,-131.5 325.5,-131.5 325.5,-112.5 266.5,-112.5"/>
<text text-anchor="middle" x="296" y="-119.5" font-family="Helvetica,sans-Serif" font-size="10.00" fill="#000000">mesh.cpp</text>
</g>
<!-- Node1 -->
<g id="node2" class="node">
<title>Node1</title>
<g id="a_node2"><a xlink:href="mesh_8h.html" target="_top" xlink:title="mesh.h">
<polygon fill="#ffffff" stroke="#000000" points="218.5,-56.5 218.5,-75.5 267.5,-75.5 267.5,-56.5 218.5,-56.5"/>
<text text-anchor="middle" x="243" y="-63.5" font-family="Helvetica,sans-Serif" font-size="10.00" fill="#000000">mesh.h</text>
</a>
</g>
</g>
<!-- Node0&#45;&gt;Node1 -->
<g id="edge1" class="edge">
<title>Node0&#45;&gt;Node1</title>
<path fill="none" stroke="#191970" d="M286.7681,-112.2455C279.1683,-104.2155 268.2123,-92.6394 259.1632,-83.0781"/>
<polygon fill="#191970" stroke="#191970" points="261.542,-80.4998 252.1261,-75.6427 256.4579,-85.3115 261.542,-80.4998"/>
</g>
<!-- Node2 -->
<g id="node3" class="node">
<title>Node2</title>
<polygon fill="#ffffff" stroke="#bfbfbf" points="0,-.5 0,-19.5 30,-19.5 30,-.5 0,-.5"/>
<text text-anchor="middle" x="15" y="-7.5" font-family="Helvetica,sans-Serif" font-size="10.00" fill="#000000">set</text>
</g>
<!-- Node0&#45;&gt;Node2 -->
<g id="edge15" class="edge">
<title>Node0&#45;&gt;Node2</title>
<path fill="none" stroke="#191970" d="M266.4971,-120.4284C224.2755,-117.1294 145.1876,-106.9854 86,-76 63.1039,-64.0136 42.1289,-42.659 29.0088,-27.4882"/>
<polygon fill="#191970" stroke="#191970" points="31.6697,-25.2142 22.5657,-19.795 26.3031,-29.7088 31.6697,-25.2142"/>
</g>
<!-- Node7 -->
<g id="node8" class="node">
<title>Node7</title>
<polygon fill="#ffffff" stroke="#bfbfbf" points="48,-.5 48,-19.5 102,-19.5 102,-.5 48,-.5"/>
<text text-anchor="middle" x="75" y="-7.5" font-family="Helvetica,sans-Serif" font-size="10.00" fill="#000000">iostream</text>
</g>
<!-- Node0&#45;&gt;Node7 -->
<g id="edge19" class="edge">
<title>Node0&#45;&gt;Node7</title>
<path fill="none" stroke="#191970" d="M266.4539,-118.0932C219.2036,-111.3285 129.459,-96.1973 105,-76 90.7863,-64.2629 83.0171,-44.3546 78.9706,-29.4656"/>
<polygon fill="#191970" stroke="#191970" points="82.3662,-28.6159 76.6432,-19.6998 75.5569,-30.2388 82.3662,-28.6159"/>
</g>
<!-- Node9 -->
<g id="node10" class="node">
<title>Node9</title>
<polygon fill="#ffffff" stroke="#bfbfbf" points="555,-.5 555,-19.5 605,-19.5 605,-.5 555,-.5"/>
<text text-anchor="middle" x="580" y="-7.5" font-family="Helvetica,sans-Serif" font-size="10.00" fill="#000000">fstream</text>
</g>
<!-- Node0&#45;&gt;Node9 -->
<g id="edge20" class="edge">
<title>Node0&#45;&gt;Node9</title>
<path fill="none" stroke="#191970" d="M295.926,-112.2288C296.3864,-97.6265 299.5591,-70.3013 316,-56 391.7019,9.8501 441.9305,-39.4551 545.0319,-19.841"/>
<polygon fill="#191970" stroke="#191970" points="545.7688,-23.2628 554.8449,-17.797 544.3412,-16.4099 545.7688,-23.2628"/>
</g>
<!-- Node12 -->
<g id="node13" class="node">
<title>Node12</title>
<g id="a_node13"><a xlink:href="meshio_8h.html" target="_top" xlink:title="meshio.h">
<polygon fill="#ffffff" stroke="#000000" points="114,-56.5 114,-75.5 170,-75.5 170,-56.5 114,-56.5"/>
<text text-anchor="middle" x="142" y="-63.5" font-family="Helvetica,sans-Serif" font-size="10.00" fill="#000000">meshio.h</text>
</a>
</g>
</g>
<!-- Node0&#45;&gt;Node12 -->
<g id="edge12" class="edge">
<title>Node0&#45;&gt;Node12</title>
<path fill="none" stroke="#191970" d="M269.5265,-112.3733C244.1403,-103.1419 205.6355,-89.1402 177.578,-78.9375"/>
<polygon fill="#191970" stroke="#191970" points="178.7222,-75.6293 168.1281,-75.5011 176.3299,-82.2079 178.7222,-75.6293"/>
</g>
<!-- Node13 -->
<g id="node14" class="node">
<title>Node13</title>
<polygon fill="#ffffff" stroke="#bfbfbf" points="324.5,-56.5 324.5,-75.5 375.5,-75.5 375.5,-56.5 324.5,-56.5"/>
<text text-anchor="middle" x="350" y="-63.5" font-family="Helvetica,sans-Serif" font-size="10.00" fill="#000000">valarray</text>
</g>
<!-- Node0&#45;&gt;Node13 -->
<g id="edge16" class="edge">
<title>Node0&#45;&gt;Node13</title>
<path fill="none" stroke="#191970" d="M305.4061,-112.2455C313.1493,-104.2155 324.312,-92.6394 333.5318,-83.0781"/>
<polygon fill="#191970" stroke="#191970" points="336.2798,-85.2706 340.7017,-75.6427 331.2409,-80.4117 336.2798,-85.2706"/>
</g>
<!-- Node14 -->
<g id="node15" class="node">
<title>Node14</title>
<polygon fill="#ffffff" stroke="#bfbfbf" points="393.5,-56.5 393.5,-75.5 434.5,-75.5 434.5,-56.5 393.5,-56.5"/>
<text text-anchor="middle" x="414" y="-63.5" font-family="Helvetica,sans-Serif" font-size="10.00" fill="#000000">string</text>
</g>
<!-- Node0&#45;&gt;Node14 -->
<g id="edge17" class="edge">
<title>Node0&#45;&gt;Node14</title>
<path fill="none" stroke="#191970" d="M316.2849,-112.3733C335.1421,-103.4241 363.446,-89.9917 384.7455,-79.8835"/>
<polygon fill="#191970" stroke="#191970" points="386.4461,-82.9506 393.9798,-75.5011 383.4449,-76.6266 386.4461,-82.9506"/>
</g>
<!-- Node15 -->
<g id="node16" class="node">
<title>Node15</title>
<polygon fill="#ffffff" stroke="#bfbfbf" points="453,-56.5 453,-75.5 505,-75.5 505,-56.5 453,-56.5"/>
<text text-anchor="middle" x="479" y="-63.5" font-family="Helvetica,sans-Serif" font-size="10.00" fill="#000000">sstream</text>
</g>
<!-- Node0&#45;&gt;Node15 -->
<g id="edge18" class="edge">
<title>Node0&#45;&gt;Node15</title>
<path fill="none" stroke="#191970" d="M325.8094,-112.878C357.8882,-103.0615 408.9026,-87.4506 443.1484,-76.971"/>
<polygon fill="#191970" stroke="#191970" points="444.2272,-80.3011 452.7654,-74.0281 442.1789,-73.6075 444.2272,-80.3011"/>
</g>
<!-- Node16 -->
<g id="node17" class="node">
<title>Node16</title>
<polygon fill="#ffffff" stroke="#bfbfbf" points="523,-56.5 523,-75.5 569,-75.5 569,-56.5 523,-56.5"/>
<text text-anchor="middle" x="546" y="-63.5" font-family="Helvetica,sans-Serif" font-size="10.00" fill="#000000">cstring</text>
</g>
<!-- Node0&#45;&gt;Node16 -->
<g id="edge21" class="edge">
<title>Node0&#45;&gt;Node16</title>
<path fill="none" stroke="#191970" d="M325.828,-116.6358C366.1981,-109.1746 440.6299,-94.7087 512.9326,-76.1066"/>
<polygon fill="#191970" stroke="#191970" points="513.8591,-79.4821 522.6552,-73.5763 512.096,-72.7078 513.8591,-79.4821"/>
</g>
<!-- Node1&#45;&gt;Node2 -->
<g id="edge2" class="edge">
<title>Node1&#45;&gt;Node2</title>
<path fill="none" stroke="#191970" d="M218.4566,-61.8854C181.5083,-55.3899 109.3466,-41.5343 39.8693,-19.8614"/>
<polygon fill="#191970" stroke="#191970" points="40.678,-16.4459 30.0875,-16.7513 38.5569,-23.1168 40.678,-16.4459"/>
</g>
<!-- Node3 -->
<g id="node4" class="node">
<title>Node3</title>
<polygon fill="#ffffff" stroke="#bfbfbf" points="120,-.5 120,-19.5 164,-19.5 164,-.5 120,-.5"/>
<text text-anchor="middle" x="142" y="-7.5" font-family="Helvetica,sans-Serif" font-size="10.00" fill="#000000">vector</text>
</g>
<!-- Node1&#45;&gt;Node3 -->
<g id="edge3" class="edge">
<title>Node1&#45;&gt;Node3</title>
<path fill="none" stroke="#191970" d="M225.4071,-56.2455C209.621,-47.4928 186.2361,-34.527 168.2413,-24.5496"/>
<polygon fill="#191970" stroke="#191970" points="169.8341,-21.4308 159.3913,-19.6427 166.4397,-27.5528 169.8341,-21.4308"/>
</g>
<!-- Node4 -->
<g id="node5" class="node">
<title>Node4</title>
<polygon fill="#ffffff" stroke="#bfbfbf" points="182,-.5 182,-19.5 238,-19.5 238,-.5 182,-.5"/>
<text text-anchor="middle" x="210" y="-7.5" font-family="Helvetica,sans-Serif" font-size="10.00" fill="#000000">algorithm</text>
</g>
<!-- Node1&#45;&gt;Node4 -->
<g id="edge4" class="edge">
<title>Node1&#45;&gt;Node4</title>
<path fill="none" stroke="#191970" d="M237.2518,-56.2455C232.7565,-48.617 226.3752,-37.7881 220.9175,-28.5267"/>
<polygon fill="#191970" stroke="#191970" points="223.7747,-26.4811 215.6823,-19.6427 217.7439,-30.035 223.7747,-26.4811"/>
</g>
<!-- Node5 -->
<g id="node6" class="node">
<title>Node5</title>
<polygon fill="#ffffff" stroke="#bfbfbf" points="256.5,-.5 256.5,-19.5 291.5,-19.5 291.5,-.5 256.5,-.5"/>
<text text-anchor="middle" x="274" y="-7.5" font-family="Helvetica,sans-Serif" font-size="10.00" fill="#000000">map</text>
</g>
<!-- Node1&#45;&gt;Node5 -->
<g id="edge5" class="edge">
<title>Node1&#45;&gt;Node5</title>
<path fill="none" stroke="#191970" d="M248.3998,-56.2455C252.6227,-48.617 258.6173,-37.7881 263.7441,-28.5267"/>
<polygon fill="#191970" stroke="#191970" points="266.881,-30.0867 268.6621,-19.6427 260.7568,-26.6965 266.881,-30.0867"/>
</g>
<!-- Node6 -->
<g id="node7" class="node">
<title>Node6</title>
<polygon fill="#ffffff" stroke="#bfbfbf" points="309.5,-.5 309.5,-19.5 338.5,-19.5 338.5,-.5 309.5,-.5"/>
<text text-anchor="middle" x="324" y="-7.5" font-family="Helvetica,sans-Serif" font-size="10.00" fill="#000000">list</text>
</g>
<!-- Node1&#45;&gt;Node6 -->
<g id="edge6" class="edge">
<title>Node1&#45;&gt;Node6</title>
<path fill="none" stroke="#191970" d="M257.1091,-56.2455C269.4209,-47.7337 287.4958,-35.2375 301.7538,-25.3801"/>
<polygon fill="#191970" stroke="#191970" points="303.8174,-28.2085 310.0526,-19.6427 299.8366,-22.4506 303.8174,-28.2085"/>
</g>
<!-- Node1&#45;&gt;Node7 -->
<g id="edge7" class="edge">
<title>Node1&#45;&gt;Node7</title>
<path fill="none" stroke="#191970" d="M218.211,-57.737C190.0874,-48.3625 143.9468,-32.9823 111.6603,-22.2201"/>
<polygon fill="#191970" stroke="#191970" points="112.7141,-18.8821 102.1204,-19.0401 110.5004,-25.5229 112.7141,-18.8821"/>
</g>
<!-- Node8 -->
<g id="node9" class="node">
<title>Node8</title>
<polygon fill="#ffffff" stroke="#bfbfbf" points="357,-.5 357,-19.5 407,-19.5 407,-.5 357,-.5"/>
<text text-anchor="middle" x="382" y="-7.5" font-family="Helvetica,sans-Serif" font-size="10.00" fill="#000000">iomanip</text>
</g>
<!-- Node1&#45;&gt;Node8 -->
<g id="edge8" class="edge">
<title>Node1&#45;&gt;Node8</title>
<path fill="none" stroke="#191970" d="M266.895,-56.3733C289.5082,-47.2629 323.6542,-33.5062 348.8873,-23.3404"/>
<polygon fill="#191970" stroke="#191970" points="350.4493,-26.4845 358.4169,-19.5011 347.8334,-19.9917 350.4493,-26.4845"/>
</g>
<!-- Node1&#45;&gt;Node9 -->
<g id="edge9" class="edge">
<title>Node1&#45;&gt;Node9</title>
<path fill="none" stroke="#191970" d="M267.6597,-59.2189C272.3971,-58.0464 277.3354,-56.9129 282,-56 395.0368,-33.8778 428.3896,-44.1727 544.8358,-19.9772"/>
<polygon fill="#191970" stroke="#191970" points="545.8002,-23.3506 554.8572,-17.8534 544.3488,-16.5027 545.8002,-23.3506"/>
</g>
<!-- Node10 -->
<g id="node11" class="node">
<title>Node10</title>
<polygon fill="#ffffff" stroke="#bfbfbf" points="425.5,-.5 425.5,-19.5 474.5,-19.5 474.5,-.5 425.5,-.5"/>
<text text-anchor="middle" x="450" y="-7.5" font-family="Helvetica,sans-Serif" font-size="10.00" fill="#000000">cassert</text>
</g>
<!-- Node1&#45;&gt;Node10 -->
<g id="edge10" class="edge">
<title>Node1&#45;&gt;Node10</title>
<path fill="none" stroke="#191970" d="M267.6931,-59.6512C299.5373,-51.4168 356.8654,-36.435 415.3628,-20.1283"/>
<polygon fill="#191970" stroke="#191970" points="416.4518,-23.4581 425.1392,-17.3935 414.566,-16.7169 416.4518,-23.4581"/>
</g>
<!-- Node11 -->
<g id="node12" class="node">
<title>Node11</title>
<polygon fill="#ffffff" stroke="#bfbfbf" points="493,-.5 493,-19.5 537,-19.5 537,-.5 493,-.5"/>
<text text-anchor="middle" x="515" y="-7.5" font-family="Helvetica,sans-Serif" font-size="10.00" fill="#000000">cmath</text>
</g>
<!-- Node1&#45;&gt;Node11 -->
<g id="edge11" class="edge">
<title>Node1&#45;&gt;Node11</title>
<path fill="none" stroke="#191970" d="M267.6915,-59.3727C272.4259,-58.186 277.355,-57.008 282,-56 368.0723,-37.3225 393.7701,-41.7095 483.0322,-19.9824"/>
<polygon fill="#191970" stroke="#191970" points="483.8877,-23.3763 492.7533,-17.5754 482.2052,-16.5815 483.8877,-23.3763"/>
</g>
<!-- Node12&#45;&gt;Node3 -->
<g id="edge14" class="edge">
<title>Node12&#45;&gt;Node3</title>
<path fill="none" stroke="#191970" d="M142,-56.2455C142,-48.9382 142,-38.6944 142,-29.7046"/>
<polygon fill="#191970" stroke="#191970" points="145.5001,-29.6426 142,-19.6427 138.5001,-29.6427 145.5001,-29.6426"/>
</g>
<!-- Node12&#45;&gt;Node7 -->
<g id="edge13" class="edge">
<title>Node12&#45;&gt;Node7</title>
<path fill="none" stroke="#191970" d="M130.3295,-56.2455C120.4339,-47.9746 106.0373,-35.9416 94.4099,-26.2232"/>
<polygon fill="#191970" stroke="#191970" points="96.4542,-23.3703 86.5368,-19.6427 91.965,-28.7413 96.4542,-23.3703"/>
</g>
</g>
</svg>
