<?xml version="1.0" encoding="UTF-8" standalone="no"?>
<!DOCTYPE svg PUBLIC "-//W3C//DTD SVG 1.1//EN"
 "http://www.w3.org/Graphics/SVG/1.1/DTD/svg11.dtd">
<!-- Generated by graphviz version 2.38.0 (20140413.2041)
 -->
<!-- Title: meshio.cpp Pages: 1 -->
<svg width="445pt" height="140pt"
 viewBox="0.00 0.00 445.00 140.00" xmlns="http://www.w3.org/2000/svg" xmlns:xlink="http://www.w3.org/1999/xlink">
<g id="graph0" class="graph" transform="scale(1 1) rotate(0) translate(4 136)">
<title>meshio.cpp</title>
<polygon fill="white" stroke="none" points="-4,4 -4,-136 441,-136 441,4 -4,4"/>
<!-- Node0 -->
<g id="node1" class="node"><title>Node0</title>
<polygon fill="#bfbfbf" stroke="black" points="180.5,-112.5 180.5,-131.5 247.5,-131.5 247.5,-112.5 180.5,-112.5"/>
<text text-anchor="middle" x="214" y="-119.5" font-family="Helvetica,sans-Serif" font-size="10.00">meshio.cpp</text>
</g>
<!-- Node1 -->
<g id="node2" class="node"><title>Node1</title>
<g id="a_node2"><a xlink:href="meshio_8h.html" target="_top" xlink:title="meshio.h">
<polygon fill="white" stroke="black" points="55,-56.5 55,-75.5 111,-75.5 111,-56.5 55,-56.5"/>
<text text-anchor="middle" x="83" y="-63.5" font-family="Helvetica,sans-Serif" font-size="10.00">meshio.h</text>
</a>
</g>
</g>
<!-- Node0&#45;&gt;Node1 -->
<g id="edge1" class="edge"><title>Node0&#45;&gt;Node1</title>
<path fill="none" stroke="midnightblue" d="M193.243,-112.444C171.684,-103.557 137.737,-89.5632 113.206,-79.4514"/>
<polygon fill="midnightblue" stroke="midnightblue" points="114.239,-76.0917 103.66,-75.5164 111.572,-82.5634 114.239,-76.0917"/>
</g>
<!-- Node2 -->
<g id="node3" class="node"><title>Node2</title>
<polygon fill="white" stroke="#bfbfbf" points="0,-0.5 0,-19.5 54,-19.5 54,-0.5 0,-0.5"/>
<text text-anchor="middle" x="27" y="-7.5" font-family="Helvetica,sans-Serif" font-size="10.00">iostream</text>
</g>
<!-- Node0&#45;&gt;Node2 -->
<g id="edge9" class="edge"><title>Node0&#45;&gt;Node2</title>
<path fill="none" stroke="midnightblue" d="M180.277,-121.246C142.564,-119.659 82.058,-111.25 46,-76 33.7939,-64.0676 29.3216,-44.7628 27.7369,-30.286"/>
<polygon fill="midnightblue" stroke="midnightblue" points="31.2015,-29.6669 26.9925,-19.9441 24.2196,-30.1696 31.2015,-29.6669"/>
</g>
<!-- Node4 -->
<g id="node5" class="node"><title>Node4</title>
<polygon fill="white" stroke="#bfbfbf" points="129.5,-56.5 129.5,-75.5 170.5,-75.5 170.5,-56.5 129.5,-56.5"/>
<text text-anchor="middle" x="150" y="-63.5" font-family="Helvetica,sans-Serif" font-size="10.00">string</text>
</g>
<!-- Node0&#45;&gt;Node4 -->
<g id="edge4" class="edge"><title>Node0&#45;&gt;Node4</title>
<path fill="none" stroke="midnightblue" d="M203.717,-112.324C194.164,-104.263 179.72,-92.0765 168.216,-82.3695"/>
<polygon fill="midnightblue" stroke="midnightblue" points="170.37,-79.6076 160.47,-75.8339 165.856,-84.9577 170.37,-79.6076"/>
</g>
<!-- Node5 -->
<g id="node6" class="node"><title>Node5</title>
<polygon fill="white" stroke="#bfbfbf" points="189,-56.5 189,-75.5 239,-75.5 239,-56.5 189,-56.5"/>
<text text-anchor="middle" x="214" y="-63.5" font-family="Helvetica,sans-Serif" font-size="10.00">fstream</text>
</g>
<!-- Node0&#45;&gt;Node5 -->
<g id="edge5" class="edge"><title>Node0&#45;&gt;Node5</title>
<path fill="none" stroke="midnightblue" d="M214,-112.083C214,-105.006 214,-94.8611 214,-85.9865"/>
<polygon fill="midnightblue" stroke="midnightblue" points="217.5,-85.751 214,-75.7511 210.5,-85.7511 217.5,-85.751"/>
</g>
<!-- Node6 -->
<g id="node7" class="node"><title>Node6</title>
<polygon fill="white" stroke="#bfbfbf" points="257.5,-56.5 257.5,-75.5 306.5,-75.5 306.5,-56.5 257.5,-56.5"/>
<text text-anchor="middle" x="282" y="-63.5" font-family="Helvetica,sans-Serif" font-size="10.00">cassert</text>
</g>
<!-- Node0&#45;&gt;Node6 -->
<g id="edge6" class="edge"><title>Node0&#45;&gt;Node6</title>
<path fill="none" stroke="midnightblue" d="M224.925,-112.324C235.175,-104.185 250.721,-91.8395 263.001,-82.0874"/>
<polygon fill="midnightblue" stroke="midnightblue" points="265.221,-84.7937 270.876,-75.8339 260.868,-79.3119 265.221,-84.7937"/>
</g>
<!-- Node7 -->
<g id="node8" class="node"><title>Node7</title>
<polygon fill="white" stroke="#bfbfbf" points="325,-56.5 325,-75.5 369,-75.5 369,-56.5 325,-56.5"/>
<text text-anchor="middle" x="347" y="-63.5" font-family="Helvetica,sans-Serif" font-size="10.00">cmath</text>
</g>
<!-- Node0&#45;&gt;Node7 -->
<g id="edge7" class="edge"><title>Node0&#45;&gt;Node7</title>
<path fill="none" stroke="midnightblue" d="M235.074,-112.444C257.06,-103.517 291.734,-89.4387 316.664,-79.3168"/>
<polygon fill="midnightblue" stroke="midnightblue" points="318.076,-82.5213 326.024,-75.5164 315.442,-76.0355 318.076,-82.5213"/>
</g>
<!-- Node8 -->
<g id="node9" class="node"><title>Node8</title>
<polygon fill="white" stroke="#bfbfbf" points="387,-56.5 387,-75.5 437,-75.5 437,-56.5 387,-56.5"/>
<text text-anchor="middle" x="412" y="-63.5" font-family="Helvetica,sans-Serif" font-size="10.00">iomanip</text>
</g>
<!-- Node0&#45;&gt;Node8 -->
<g id="edge8" class="edge"><title>Node0&#45;&gt;Node8</title>
<path fill="none" stroke="midnightblue" d="M245.374,-112.444C281.156,-102.685 339.517,-86.768 376.816,-76.5956"/>
<polygon fill="midnightblue" stroke="midnightblue" points="378.015,-79.8965 386.742,-73.8886 376.173,-73.1432 378.015,-79.8965"/>
</g>
<!-- Node1&#45;&gt;Node2 -->
<g id="edge2" class="edge"><title>Node1&#45;&gt;Node2</title>
<path fill="none" stroke="midnightblue" d="M74.0026,-56.324C65.8056,-48.4196 53.4945,-36.5482 43.528,-26.9377"/>
<polygon fill="midnightblue" stroke="midnightblue" points="45.789,-24.2558 36.1611,-19.8339 40.9301,-29.2947 45.789,-24.2558"/>
</g>
<!-- Node3 -->
<g id="node4" class="node"><title>Node3</title>
<polygon fill="white" stroke="#bfbfbf" points="72,-0.5 72,-19.5 116,-19.5 116,-0.5 72,-0.5"/>
<text text-anchor="middle" x="94" y="-7.5" font-family="Helvetica,sans-Serif" font-size="10.00">vector</text>
</g>
<!-- Node1&#45;&gt;Node3 -->
<g id="edge3" class="edge"><title>Node1&#45;&gt;Node3</title>
<path fill="none" stroke="midnightblue" d="M84.8164,-56.083C86.2741,-48.9272 88.3706,-38.6353 90.1925,-29.6911"/>
<polygon fill="midnightblue" stroke="midnightblue" points="93.6508,-30.2485 92.2174,-19.7511 86.7917,-28.8512 93.6508,-30.2485"/>
</g>
</g>
</svg>
