<?xml version="1.0" encoding="UTF-8" standalone="no"?>
<!DOCTYPE svg PUBLIC "-//W3C//DTD SVG 1.1//EN"
 "http://www.w3.org/Graphics/SVG/1.1/DTD/svg11.dtd">
<!-- Generated by graphviz version 2.42.3 (0)
 -->
<!-- Title: mesh.h Pages: 1 -->
<svg width="1261pt" height="140pt"
 viewBox="0.00 0.00 1260.50 140.00" xmlns="http://www.w3.org/2000/svg" xmlns:xlink="http://www.w3.org/1999/xlink">
<g id="graph0" class="graph" transform="scale(1 1) rotate(0) translate(4 136)">
<title>mesh.h</title>
<polygon fill="white" stroke="transparent" points="-4,4 -4,-136 1256.5,-136 1256.5,4 -4,4"/>
<!-- Node1 -->
<g id="node1" class="node">
<title>Node1</title>
<g id="a_node1"><a xlink:title=" ">
<polygon fill="#bfbfbf" stroke="black" points="862.5,-112.5 862.5,-131.5 915.5,-131.5 915.5,-112.5 862.5,-112.5"/>
<text text-anchor="middle" x="889" y="-119.5" font-family="Helvetica,sans-Serif" font-size="10.00">mesh.h</text>
</a>
</g>
</g>
<!-- Node2 -->
<g id="node2" class="node">
<title>Node2</title>
<g id="a_node2"><a xlink:href="mesh_8cpp.html" target="_top" xlink:title=" ">
<polygon fill="white" stroke="black" points="524,-56.5 524,-75.5 588,-75.5 588,-56.5 524,-56.5"/>
<text text-anchor="middle" x="556" y="-63.5" font-family="Helvetica,sans-Serif" font-size="10.00">mesh.cpp</text>
</a>
</g>
</g>
<!-- Node1&#45;&gt;Node2 -->
<g id="edge1" class="edge">
<title>Node1&#45;&gt;Node2</title>
<path fill="none" stroke="midnightblue" d="M852.2,-115.68C797.52,-107.68 691.64,-91.79 602,-76 597.51,-75.21 592.79,-74.33 588.14,-73.45"/>
<polygon fill="midnightblue" stroke="midnightblue" points="852.03,-119.2 862.43,-117.18 853.04,-112.27 852.03,-119.2"/>
</g>
<!-- Node3 -->
<g id="node3" class="node">
<title>Node3</title>
<g id="a_node3"><a xlink:href="_mesh_adapt_p_u_m_i_8h.html" target="_top" xlink:title=" ">
<polygon fill="white" stroke="black" points="644,-56.5 644,-75.5 750,-75.5 750,-56.5 644,-56.5"/>
<text text-anchor="middle" x="697" y="-63.5" font-family="Helvetica,sans-Serif" font-size="10.00">MeshAdaptPUMI.h</text>
</a>
</g>
</g>
<!-- Node1&#45;&gt;Node3 -->
<g id="edge2" class="edge">
<title>Node1&#45;&gt;Node3</title>
<path fill="none" stroke="midnightblue" d="M852.6,-110.76C816.31,-100.56 761.23,-85.06 727.26,-75.51"/>
<polygon fill="midnightblue" stroke="midnightblue" points="851.73,-114.15 862.3,-113.49 853.62,-107.41 851.73,-114.15"/>
</g>
<!-- Node7 -->
<g id="node7" class="node">
<title>Node7</title>
<g id="a_node7"><a xlink:href="_mesh_converter_8cpp.html" target="_top" xlink:title=" ">
<polygon fill="white" stroke="black" points="0,-0.5 0,-19.5 110,-19.5 110,-0.5 0,-0.5"/>
<text text-anchor="middle" x="55" y="-7.5" font-family="Helvetica,sans-Serif" font-size="10.00">MeshConverter.cpp</text>
</a>
</g>
</g>
<!-- Node1&#45;&gt;Node7 -->
<g id="edge14" class="edge">
<title>Node1&#45;&gt;Node7</title>
<path fill="none" stroke="midnightblue" d="M852.32,-118.08C802.13,-113.29 709.76,-101.6 635,-76 616.94,-69.82 615.34,-61.27 597,-56 392.24,2.84 330.82,-42.85 119,-20 116.1,-19.69 113.13,-19.35 110.13,-18.98"/>
<polygon fill="midnightblue" stroke="midnightblue" points="852.09,-121.57 862.37,-119 852.73,-114.6 852.09,-121.57"/>
</g>
<!-- Node9 -->
<g id="node9" class="node">
<title>Node9</title>
<g id="a_node9"><a xlink:href="_parallel_mesh_converter_8cpp.html" target="_top" xlink:title=" ">
<polygon fill="white" stroke="black" points="885,-0.5 885,-19.5 1031,-19.5 1031,-0.5 885,-0.5"/>
<text text-anchor="middle" x="958" y="-7.5" font-family="Helvetica,sans-Serif" font-size="10.00">ParallelMeshConverter.cpp</text>
</a>
</g>
</g>
<!-- Node1&#45;&gt;Node9 -->
<g id="edge15" class="edge">
<title>Node1&#45;&gt;Node9</title>
<path fill="none" stroke="midnightblue" d="M891.65,-102.27C894.23,-88.64 899.1,-70.15 908,-56 917.45,-40.97 933.3,-27.92 944.63,-19.81"/>
<polygon fill="midnightblue" stroke="midnightblue" points="888.16,-101.95 889.99,-112.39 895.07,-103.09 888.16,-101.95"/>
</g>
<!-- Node12 -->
<g id="node12" class="node">
<title>Node12</title>
<g id="a_node12"><a xlink:href="_dump_mesh_8h.html" target="_top" xlink:title=" ">
<polygon fill="white" stroke="black" points="917.5,-56.5 917.5,-75.5 998.5,-75.5 998.5,-56.5 917.5,-56.5"/>
<text text-anchor="middle" x="958" y="-63.5" font-family="Helvetica,sans-Serif" font-size="10.00">DumpMesh.h</text>
</a>
</g>
</g>
<!-- Node1&#45;&gt;Node12 -->
<g id="edge11" class="edge">
<title>Node1&#45;&gt;Node12</title>
<path fill="none" stroke="midnightblue" d="M908.04,-106.1C920.46,-96.38 936.24,-84.03 946.71,-75.83"/>
<polygon fill="midnightblue" stroke="midnightblue" points="905.8,-103.4 900.09,-112.32 910.12,-108.92 905.8,-103.4"/>
</g>
<!-- Node14 -->
<g id="node14" class="node">
<title>Node14</title>
<g id="a_node14"><a xlink:href="partitioning_8h.html" target="_top" xlink:title=" ">
<polygon fill="white" stroke="black" points="1017,-56.5 1017,-75.5 1099,-75.5 1099,-56.5 1017,-56.5"/>
<text text-anchor="middle" x="1058" y="-63.5" font-family="Helvetica,sans-Serif" font-size="10.00">partitioning.h</text>
</a>
</g>
</g>
<!-- Node1&#45;&gt;Node14 -->
<g id="edge16" class="edge">
<title>Node1&#45;&gt;Node14</title>
<path fill="none" stroke="midnightblue" d="M925.6,-109.3C957.45,-99.13 1002.84,-84.62 1031.35,-75.52"/>
<polygon fill="midnightblue" stroke="midnightblue" points="924.24,-106.07 915.78,-112.44 926.37,-112.73 924.24,-106.07"/>
</g>
<!-- Node16 -->
<g id="node16" class="node">
<title>Node16</title>
<g id="a_node16"><a xlink:href="test_mesh_8cpp.html" target="_top" xlink:title=" ">
<polygon fill="white" stroke="black" points="1117,-56.5 1117,-75.5 1199,-75.5 1199,-56.5 1117,-56.5"/>
<text text-anchor="middle" x="1158" y="-63.5" font-family="Helvetica,sans-Serif" font-size="10.00">testMesh.cpp</text>
</a>
</g>
</g>
<!-- Node1&#45;&gt;Node16 -->
<g id="edge18" class="edge">
<title>Node1&#45;&gt;Node16</title>
<path fill="none" stroke="midnightblue" d="M925.82,-113.61C975.81,-103.57 1064.86,-85.7 1116.95,-75.24"/>
<polygon fill="midnightblue" stroke="midnightblue" points="924.89,-110.23 915.78,-115.62 926.27,-117.09 924.89,-110.23"/>
</g>
<!-- Node4 -->
<g id="node4" class="node">
<title>Node4</title>
<g id="a_node4"><a xlink:href="c_mesh_adapt_p_u_m_i_8cpp.html" target="_top" xlink:title=" ">
<polygon fill="white" stroke="black" points="128,-0.5 128,-19.5 250,-19.5 250,-0.5 128,-0.5"/>
<text text-anchor="middle" x="189" y="-7.5" font-family="Helvetica,sans-Serif" font-size="10.00">cMeshAdaptPUMI.cpp</text>
</a>
</g>
</g>
<!-- Node3&#45;&gt;Node4 -->
<g id="edge3" class="edge">
<title>Node3&#45;&gt;Node4</title>
<path fill="none" stroke="midnightblue" d="M633.87,-56.45C632.57,-56.3 631.28,-56.15 630,-56 465.43,-36.97 423.62,-38.57 259,-20 256.08,-19.67 253.09,-19.32 250.07,-18.97"/>
<polygon fill="midnightblue" stroke="midnightblue" points="633.64,-59.95 643.99,-57.7 634.49,-53 633.64,-59.95"/>
</g>
<!-- Node5 -->
<g id="node5" class="node">
<title>Node5</title>
<g id="a_node5"><a xlink:href="create_analytic_geometry_8cpp.html" target="_top" xlink:title=" ">
<polygon fill="white" stroke="black" points="268.5,-0.5 268.5,-19.5 423.5,-19.5 423.5,-0.5 268.5,-0.5"/>
<text text-anchor="middle" x="346" y="-7.5" font-family="Helvetica,sans-Serif" font-size="10.00">createAnalyticGeometry.cpp</text>
</a>
</g>
</g>
<!-- Node3&#45;&gt;Node5 -->
<g id="edge4" class="edge">
<title>Node3&#45;&gt;Node5</title>
<path fill="none" stroke="midnightblue" d="M633.79,-55.27C567.51,-45.08 464.39,-29.21 401.26,-19.5"/>
<polygon fill="midnightblue" stroke="midnightblue" points="633.27,-58.74 643.69,-56.8 634.34,-51.82 633.27,-58.74"/>
</g>
<!-- Node6 -->
<g id="node6" class="node">
<title>Node6</title>
<g id="a_node6"><a xlink:href="_error_residual_method_8cpp.html" target="_top" xlink:title=" ">
<polygon fill="white" stroke="black" points="441.5,-0.5 441.5,-19.5 580.5,-19.5 580.5,-0.5 441.5,-0.5"/>
<text text-anchor="middle" x="511" y="-7.5" font-family="Helvetica,sans-Serif" font-size="10.00">ErrorResidualMethod.cpp</text>
</a>
</g>
</g>
<!-- Node3&#45;&gt;Node6 -->
<g id="edge5" class="edge">
<title>Node3&#45;&gt;Node6</title>
<path fill="none" stroke="midnightblue" d="M657.62,-53.57C622.53,-43.38 571.98,-28.7 540.33,-19.52"/>
<polygon fill="midnightblue" stroke="midnightblue" points="656.95,-57.02 667.53,-56.44 658.9,-50.29 656.95,-57.02"/>
</g>
<!-- Node3&#45;&gt;Node7 -->
<g id="edge6" class="edge">
<title>Node3&#45;&gt;Node7</title>
<path fill="none" stroke="midnightblue" d="M633.36,-56.35C632.23,-56.23 631.11,-56.11 630,-56 403.51,-32.83 345.42,-43.87 119,-20 116.1,-19.69 113.13,-19.36 110.13,-19"/>
<polygon fill="midnightblue" stroke="midnightblue" points="633.31,-59.87 643.64,-57.52 634.1,-52.91 633.31,-59.87"/>
</g>
<!-- Node8 -->
<g id="node8" class="node">
<title>Node8</title>
<g id="a_node8"><a xlink:href="_mesh_fields_8cpp.html" target="_top" xlink:title=" ">
<polygon fill="white" stroke="black" points="599,-0.5 599,-19.5 691,-19.5 691,-0.5 599,-0.5"/>
<text text-anchor="middle" x="645" y="-7.5" font-family="Helvetica,sans-Serif" font-size="10.00">MeshFields.cpp</text>
</a>
</g>
</g>
<!-- Node3&#45;&gt;Node8 -->
<g id="edge7" class="edge">
<title>Node3&#45;&gt;Node8</title>
<path fill="none" stroke="midnightblue" d="M681.32,-48.72C672.16,-39.2 660.95,-27.56 653.43,-19.75"/>
<polygon fill="midnightblue" stroke="midnightblue" points="678.96,-51.31 688.41,-56.08 684,-46.45 678.96,-51.31"/>
</g>
<!-- Node3&#45;&gt;Node9 -->
<g id="edge8" class="edge">
<title>Node3&#45;&gt;Node9</title>
<path fill="none" stroke="midnightblue" d="M748.19,-54.41C797.51,-44.2 871.19,-28.96 916.84,-19.52"/>
<polygon fill="midnightblue" stroke="midnightblue" points="747.44,-50.99 738.36,-56.44 748.86,-57.84 747.44,-50.99"/>
</g>
<!-- Node10 -->
<g id="node10" class="node">
<title>Node10</title>
<g id="a_node10"><a xlink:href="_size_field_8cpp.html" target="_top" xlink:title=" ">
<polygon fill="white" stroke="black" points="709,-0.5 709,-19.5 789,-19.5 789,-0.5 709,-0.5"/>
<text text-anchor="middle" x="749" y="-7.5" font-family="Helvetica,sans-Serif" font-size="10.00">SizeField.cpp</text>
</a>
</g>
</g>
<!-- Node3&#45;&gt;Node10 -->
<g id="edge9" class="edge">
<title>Node3&#45;&gt;Node10</title>
<path fill="none" stroke="midnightblue" d="M712.68,-48.72C721.84,-39.2 733.05,-27.56 740.57,-19.75"/>
<polygon fill="midnightblue" stroke="midnightblue" points="710,-46.45 705.59,-56.08 715.04,-51.31 710,-46.45"/>
</g>
<!-- Node11 -->
<g id="node11" class="node">
<title>Node11</title>
<g id="a_node11"><a xlink:href="_v_m_s_8cpp.html" target="_top" xlink:title=" ">
<polygon fill="white" stroke="black" points="807.5,-0.5 807.5,-19.5 866.5,-19.5 866.5,-0.5 807.5,-0.5"/>
<text text-anchor="middle" x="837" y="-7.5" font-family="Helvetica,sans-Serif" font-size="10.00">VMS.cpp</text>
</a>
</g>
</g>
<!-- Node3&#45;&gt;Node11 -->
<g id="edge10" class="edge">
<title>Node3&#45;&gt;Node11</title>
<path fill="none" stroke="midnightblue" d="M728.7,-52.77C755,-42.63 791.72,-28.47 814.92,-19.52"/>
<polygon fill="midnightblue" stroke="midnightblue" points="727.25,-49.58 719.18,-56.44 729.77,-56.11 727.25,-49.58"/>
</g>
<!-- Node12&#45;&gt;Node9 -->
<g id="edge13" class="edge">
<title>Node12&#45;&gt;Node9</title>
<path fill="none" stroke="midnightblue" d="M958,-45.8C958,-36.91 958,-26.78 958,-19.75"/>
<polygon fill="midnightblue" stroke="midnightblue" points="954.5,-46.08 958,-56.08 961.5,-46.08 954.5,-46.08"/>
</g>
<!-- Node13 -->
<g id="node13" class="node">
<title>Node13</title>
<g id="a_node13"><a xlink:href="_dump_mesh_8cpp.html" target="_top" xlink:title=" ">
<polygon fill="white" stroke="black" points="1049,-0.5 1049,-19.5 1141,-19.5 1141,-0.5 1049,-0.5"/>
<text text-anchor="middle" x="1095" y="-7.5" font-family="Helvetica,sans-Serif" font-size="10.00">DumpMesh.cpp</text>
</a>
</g>
</g>
<!-- Node12&#45;&gt;Node13 -->
<g id="edge12" class="edge">
<title>Node12&#45;&gt;Node13</title>
<path fill="none" stroke="midnightblue" d="M989.02,-52.77C1014.76,-42.63 1050.69,-28.47 1073.39,-19.52"/>
<polygon fill="midnightblue" stroke="midnightblue" points="987.73,-49.52 979.71,-56.44 990.29,-56.03 987.73,-49.52"/>
</g>
<!-- Node15 -->
<g id="node15" class="node">
<title>Node15</title>
<g id="a_node15"><a xlink:href="partitioning_8cpp.html" target="_top" xlink:title=" ">
<polygon fill="white" stroke="black" points="1159.5,-0.5 1159.5,-19.5 1252.5,-19.5 1252.5,-0.5 1159.5,-0.5"/>
<text text-anchor="middle" x="1206" y="-7.5" font-family="Helvetica,sans-Serif" font-size="10.00">partitioning.cpp</text>
</a>
</g>
</g>
<!-- Node14&#45;&gt;Node15 -->
<g id="edge17" class="edge">
<title>Node14&#45;&gt;Node15</title>
<path fill="none" stroke="midnightblue" d="M1091.15,-52.91C1118.97,-42.75 1158.02,-28.51 1182.66,-19.52"/>
<polygon fill="midnightblue" stroke="midnightblue" points="1089.65,-49.73 1081.45,-56.44 1092.04,-56.3 1089.65,-49.73"/>
</g>
</g>
</svg>
