<?xml version="1.0" encoding="UTF-8" standalone="no"?>
<!DOCTYPE svg PUBLIC "-//W3C//DTD SVG 1.1//EN"
 "http://www.w3.org/Graphics/SVG/1.1/DTD/svg11.dtd">
<!-- Generated by graphviz version 2.40.1 (20161225.0304)
 -->
<!-- Title: meshio.h Pages: 1 -->
<svg width="303pt" height="84pt"
 viewBox="0.00 0.00 303.00 84.00" xmlns="http://www.w3.org/2000/svg" xmlns:xlink="http://www.w3.org/1999/xlink">
<g id="graph0" class="graph" transform="scale(1 1) rotate(0) translate(4 80)">
<title>meshio.h</title>
<polygon fill="#ffffff" stroke="transparent" points="-4,4 -4,-80 299,-80 299,4 -4,4"/>
<!-- Node3 -->
<g id="node1" class="node">
<title>Node3</title>
<polygon fill="#bfbfbf" stroke="#000000" points="152.5,-56.5 152.5,-75.5 208.5,-75.5 208.5,-56.5 152.5,-56.5"/>
<text text-anchor="middle" x="180.5" y="-63.5" font-family="Helvetica,sans-Serif" font-size="10.00" fill="#000000">meshio.h</text>
</g>
<!-- Node4 -->
<g id="node2" class="node">
<title>Node4</title>
<g id="a_node2"><a xlink:href="flcbdf_wrappers_module_8cpp.html" target="_top" xlink:title="flcbdfWrappersModule.cpp">
<polygon fill="#ffffff" stroke="#000000" points="0,-.5 0,-19.5 133,-19.5 133,-.5 0,-.5"/>
<text text-anchor="middle" x="66.5" y="-7.5" font-family="Helvetica,sans-Serif" font-size="10.00" fill="#000000">flcbdfWrappersModule.cpp</text>
</a>
</g>
</g>
<!-- Node3&#45;&gt;Node4 -->
<g id="edge1" class="edge">
<title>Node3&#45;&gt;Node4</title>
<path fill="none" stroke="#191970" d="M151.6679,-51.8368C131.0605,-41.7139 103.8918,-28.3679 85.8416,-19.5011"/>
<polygon fill="#191970" stroke="#191970" points="150.384,-55.1056 160.9027,-56.3733 153.4703,-48.8227 150.384,-55.1056"/>
</g>
<!-- Node5 -->
<g id="node3" class="node">
<title>Node5</title>
<g id="a_node3"><a xlink:href="mesh_8cpp.html" target="_top" xlink:title="mesh.cpp">
<polygon fill="#ffffff" stroke="#000000" points="151,-.5 151,-19.5 210,-19.5 210,-.5 151,-.5"/>
<text text-anchor="middle" x="180.5" y="-7.5" font-family="Helvetica,sans-Serif" font-size="10.00" fill="#000000">mesh.cpp</text>
</a>
</g>
</g>
<!-- Node3&#45;&gt;Node5 -->
<g id="edge2" class="edge">
<title>Node3&#45;&gt;Node5</title>
<path fill="none" stroke="#191970" d="M180.5,-46.1575C180.5,-37.155 180.5,-26.9199 180.5,-19.6427"/>
<polygon fill="#191970" stroke="#191970" points="177.0001,-46.2455 180.5,-56.2455 184.0001,-46.2456 177.0001,-46.2455"/>
</g>
<!-- Node6 -->
<g id="node4" class="node">
<title>Node6</title>
<g id="a_node4"><a xlink:href="meshio_8cpp.html" target="_top" xlink:title="meshio.cpp">
<polygon fill="#ffffff" stroke="#000000" points="228,-.5 228,-19.5 295,-19.5 295,-.5 228,-.5"/>
<text text-anchor="middle" x="261.5" y="-7.5" font-family="Helvetica,sans-Serif" font-size="10.00" fill="#000000">meshio.cpp</text>
</a>
</g>
</g>
<!-- Node3&#45;&gt;Node6 -->
<g id="edge3" class="edge">
<title>Node3&#45;&gt;Node6</title>
<path fill="none" stroke="#191970" d="M202.934,-50.49C217.2254,-40.6096 235.2916,-28.1194 247.5526,-19.6427"/>
<polygon fill="#191970" stroke="#191970" points="200.8443,-47.6797 194.6091,-56.2455 204.8251,-53.4376 200.8443,-47.6797"/>
</g>
</g>
</svg>
