<?xml version="1.0" encoding="UTF-8" standalone="no"?>
<!DOCTYPE svg PUBLIC "-//W3C//DTD SVG 1.1//EN"
 "http://www.w3.org/Graphics/SVG/1.1/DTD/svg11.dtd">
<!-- Generated by graphviz version 2.40.1 (20161225.0304)
 -->
<!-- Title: meshio.cpp Pages: 1 -->
<svg width="445pt" height="140pt"
 viewBox="0.00 0.00 445.00 140.00" xmlns="http://www.w3.org/2000/svg" xmlns:xlink="http://www.w3.org/1999/xlink">
<g id="graph0" class="graph" transform="scale(1 1) rotate(0) translate(4 136)">
<title>meshio.cpp</title>
<polygon fill="#ffffff" stroke="transparent" points="-4,4 -4,-136 441,-136 441,4 -4,4"/>
<!-- Node0 -->
<g id="node1" class="node">
<title>Node0</title>
<polygon fill="#bfbfbf" stroke="#000000" points="180.5,-112.5 180.5,-131.5 247.5,-131.5 247.5,-112.5 180.5,-112.5"/>
<text text-anchor="middle" x="214" y="-119.5" font-family="Helvetica,sans-Serif" font-size="10.00" fill="#000000">meshio.cpp</text>
</g>
<!-- Node1 -->
<g id="node2" class="node">
<title>Node1</title>
<g id="a_node2"><a xlink:href="meshio_8h.html" target="_top" xlink:title="meshio.h">
<polygon fill="#ffffff" stroke="#000000" points="55,-56.5 55,-75.5 111,-75.5 111,-56.5 55,-56.5"/>
<text text-anchor="middle" x="83" y="-63.5" font-family="Helvetica,sans-Serif" font-size="10.00" fill="#000000">meshio.h</text>
</a>
</g>
</g>
<!-- Node0&#45;&gt;Node1 -->
<g id="edge1" class="edge">
<title>Node0&#45;&gt;Node1</title>
<path fill="none" stroke="#191970" d="M191.4803,-112.3733C170.2628,-103.3032 138.2724,-89.6279 114.5231,-79.4755"/>
<polygon fill="#191970" stroke="#191970" points="115.7967,-76.2136 105.2258,-75.5011 113.0452,-82.6502 115.7967,-76.2136"/>
</g>
<!-- Node2 -->
<g id="node3" class="node">
<title>Node2</title>
<polygon fill="#ffffff" stroke="#bfbfbf" points="0,-.5 0,-19.5 54,-19.5 54,-.5 0,-.5"/>
<text text-anchor="middle" x="27" y="-7.5" font-family="Helvetica,sans-Serif" font-size="10.00" fill="#000000">iostream</text>
</g>
<!-- Node0&#45;&gt;Node2 -->
<g id="edge9" class="edge">
<title>Node0&#45;&gt;Node2</title>
<path fill="none" stroke="#191970" d="M180.2137,-116.7447C136.833,-109.3422 64.8856,-94.6409 46,-76 33.6925,-63.8519 29.2319,-44.2853 27.6775,-29.6048"/>
<polygon fill="#191970" stroke="#191970" points="31.1624,-29.2662 26.9734,-19.5347 24.1795,-29.7545 31.1624,-29.2662"/>
</g>
<!-- Node4 -->
<g id="node5" class="node">
<title>Node4</title>
<polygon fill="#ffffff" stroke="#bfbfbf" points="129.5,-56.5 129.5,-75.5 170.5,-75.5 170.5,-56.5 129.5,-56.5"/>
<text text-anchor="middle" x="150" y="-63.5" font-family="Helvetica,sans-Serif" font-size="10.00" fill="#000000">string</text>
</g>
<!-- Node0&#45;&gt;Node4 -->
<g id="edge4" class="edge">
<title>Node0&#45;&gt;Node4</title>
<path fill="none" stroke="#191970" d="M202.8521,-112.2455C193.4913,-104.0549 179.9142,-92.1749 168.8651,-82.5069"/>
<polygon fill="#191970" stroke="#191970" points="170.8508,-79.5937 161.0202,-75.6427 166.2412,-84.8618 170.8508,-79.5937"/>
</g>
<!-- Node5 -->
<g id="node6" class="node">
<title>Node5</title>
<polygon fill="#ffffff" stroke="#bfbfbf" points="189,-56.5 189,-75.5 239,-75.5 239,-56.5 189,-56.5"/>
<text text-anchor="middle" x="214" y="-63.5" font-family="Helvetica,sans-Serif" font-size="10.00" fill="#000000">fstream</text>
</g>
<!-- Node0&#45;&gt;Node5 -->
<g id="edge5" class="edge">
<title>Node0&#45;&gt;Node5</title>
<path fill="none" stroke="#191970" d="M214,-112.2455C214,-104.9382 214,-94.6944 214,-85.7046"/>
<polygon fill="#191970" stroke="#191970" points="217.5001,-85.6426 214,-75.6427 210.5001,-85.6427 217.5001,-85.6426"/>
</g>
<!-- Node6 -->
<g id="node7" class="node">
<title>Node6</title>
<polygon fill="#ffffff" stroke="#bfbfbf" points="257.5,-56.5 257.5,-75.5 306.5,-75.5 306.5,-56.5 257.5,-56.5"/>
<text text-anchor="middle" x="282" y="-63.5" font-family="Helvetica,sans-Serif" font-size="10.00" fill="#000000">cassert</text>
</g>
<!-- Node0&#45;&gt;Node6 -->
<g id="edge6" class="edge">
<title>Node0&#45;&gt;Node6</title>
<path fill="none" stroke="#191970" d="M225.8447,-112.2455C235.888,-103.9746 250.4995,-91.9416 262.3004,-82.2232"/>
<polygon fill="#191970" stroke="#191970" points="264.7967,-84.7015 270.291,-75.6427 260.3467,-79.298 264.7967,-84.7015"/>
</g>
<!-- Node7 -->
<g id="node8" class="node">
<title>Node7</title>
<polygon fill="#ffffff" stroke="#bfbfbf" points="325,-56.5 325,-75.5 369,-75.5 369,-56.5 325,-56.5"/>
<text text-anchor="middle" x="347" y="-63.5" font-family="Helvetica,sans-Serif" font-size="10.00" fill="#000000">cmath</text>
</g>
<!-- Node0&#45;&gt;Node7 -->
<g id="edge7" class="edge">
<title>Node0&#45;&gt;Node7</title>
<path fill="none" stroke="#191970" d="M236.8635,-112.3733C258.5355,-103.2482 291.2779,-89.462 315.4331,-79.2913"/>
<polygon fill="#191970" stroke="#191970" points="317.0186,-82.4214 324.8768,-75.315 314.3022,-75.9699 317.0186,-82.4214"/>
</g>
<!-- Node8 -->
<g id="node9" class="node">
<title>Node8</title>
<polygon fill="#ffffff" stroke="#bfbfbf" points="387,-56.5 387,-75.5 437,-75.5 437,-56.5 387,-56.5"/>
<text text-anchor="middle" x="412" y="-63.5" font-family="Helvetica,sans-Serif" font-size="10.00" fill="#000000">iomanip</text>
</g>
<!-- Node0&#45;&gt;Node8 -->
<g id="edge8" class="edge">
<title>Node0&#45;&gt;Node8</title>
<path fill="none" stroke="#191970" d="M247.643,-112.6969C278.8105,-104.0488 326.7086,-90.6841 377.008,-76.2627"/>
<polygon fill="#191970" stroke="#191970" points="378.114,-79.5866 386.7593,-73.4621 376.1817,-72.8585 378.114,-79.5866"/>
</g>
<!-- Node1&#45;&gt;Node2 -->
<g id="edge2" class="edge">
<title>Node1&#45;&gt;Node2</title>
<path fill="none" stroke="#191970" d="M73.2455,-56.2455C65.1352,-48.1352 53.4075,-36.4075 43.7919,-26.7919"/>
<polygon fill="#191970" stroke="#191970" points="46.1887,-24.2389 36.6427,-19.6427 41.2389,-29.1887 46.1887,-24.2389"/>
</g>
<!-- Node3 -->
<g id="node4" class="node">
<title>Node3</title>
<polygon fill="#ffffff" stroke="#bfbfbf" points="72,-.5 72,-19.5 116,-19.5 116,-.5 72,-.5"/>
<text text-anchor="middle" x="94" y="-7.5" font-family="Helvetica,sans-Serif" font-size="10.00" fill="#000000">vector</text>
</g>
<!-- Node1&#45;&gt;Node3 -->
<g id="edge3" class="edge">
<title>Node1&#45;&gt;Node3</title>
<path fill="none" stroke="#191970" d="M84.9161,-56.2455C86.3514,-48.9382 88.3636,-38.6944 90.1295,-29.7046"/>
<polygon fill="#191970" stroke="#191970" points="93.6127,-30.1298 92.1059,-19.6427 86.744,-28.7805 93.6127,-30.1298"/>
</g>
</g>
</svg>
