<?xml version="1.0" encoding="UTF-8" standalone="no"?>
<!DOCTYPE svg PUBLIC "-//W3C//DTD SVG 1.1//EN"
 "http://www.w3.org/Graphics/SVG/1.1/DTD/svg11.dtd">
<!-- Generated by graphviz version 2.38.0 (20140413.2041)
 -->
<!-- Title: mesh.cpp Pages: 1 -->
<svg width="613pt" height="140pt"
 viewBox="0.00 0.00 613.00 140.00" xmlns="http://www.w3.org/2000/svg" xmlns:xlink="http://www.w3.org/1999/xlink">
<g id="graph0" class="graph" transform="scale(1 1) rotate(0) translate(4 136)">
<title>mesh.cpp</title>
<polygon fill="white" stroke="none" points="-4,4 -4,-136 609,-136 609,4 -4,4"/>
<!-- Node0 -->
<g id="node1" class="node"><title>Node0</title>
<polygon fill="#bfbfbf" stroke="black" points="266.5,-112.5 266.5,-131.5 325.5,-131.5 325.5,-112.5 266.5,-112.5"/>
<text text-anchor="middle" x="296" y="-119.5" font-family="Helvetica,sans-Serif" font-size="10.00">mesh.cpp</text>
</g>
<!-- Node1 -->
<g id="node2" class="node"><title>Node1</title>
<g id="a_node2"><a xlink:href="mesh_8h.html" target="_top" xlink:title="mesh.h">
<polygon fill="white" stroke="black" points="218.5,-56.5 218.5,-75.5 267.5,-75.5 267.5,-56.5 218.5,-56.5"/>
<text text-anchor="middle" x="243" y="-63.5" font-family="Helvetica,sans-Serif" font-size="10.00">mesh.h</text>
</a>
</g>
</g>
<!-- Node0&#45;&gt;Node1 -->
<g id="edge1" class="edge"><title>Node0&#45;&gt;Node1</title>
<path fill="none" stroke="midnightblue" d="M287.248,-112.083C279.53,-104.22 268.095,-92.5688 258.783,-83.0813"/>
<polygon fill="midnightblue" stroke="midnightblue" points="261.092,-80.4363 251.589,-75.7511 256.096,-85.3396 261.092,-80.4363"/>
</g>
<!-- Node2 -->
<g id="node3" class="node"><title>Node2</title>
<polygon fill="white" stroke="#bfbfbf" points="0,-0.5 0,-19.5 30,-19.5 30,-0.5 0,-0.5"/>
<text text-anchor="middle" x="15" y="-7.5" font-family="Helvetica,sans-Serif" font-size="10.00">set</text>
</g>
<!-- Node0&#45;&gt;Node2 -->
<g id="edge15" class="edge"><title>Node0&#45;&gt;Node2</title>
<path fill="none" stroke="midnightblue" d="M266.178,-119.513C223.912,-116.351 145.151,-106.509 86,-76 62.9067,-64.0886 41.6743,-42.6686 28.5612,-27.6842"/>
<polygon fill="midnightblue" stroke="midnightblue" points="30.9578,-25.0981 21.8259,-19.7259 25.6145,-29.6202 30.9578,-25.0981"/>
</g>
<!-- Node7 -->
<g id="node8" class="node"><title>Node7</title>
<polygon fill="white" stroke="#bfbfbf" points="48,-0.5 48,-19.5 102,-19.5 102,-0.5 48,-0.5"/>
<text text-anchor="middle" x="75" y="-7.5" font-family="Helvetica,sans-Serif" font-size="10.00">iostream</text>
</g>
<!-- Node0&#45;&gt;Node7 -->
<g id="edge19" class="edge"><title>Node0&#45;&gt;Node7</title>
<path fill="none" stroke="midnightblue" d="M266.347,-121.692C225.545,-121.093 151.834,-114.252 105,-76 90.7326,-64.3468 82.9298,-44.3984 78.8884,-29.6667"/>
<polygon fill="midnightblue" stroke="midnightblue" points="82.2203,-28.5511 76.4865,-19.6419 75.413,-30.1822 82.2203,-28.5511"/>
</g>
<!-- Node9 -->
<g id="node10" class="node"><title>Node9</title>
<polygon fill="white" stroke="#bfbfbf" points="555,-0.5 555,-19.5 605,-19.5 605,-0.5 555,-0.5"/>
<text text-anchor="middle" x="580" y="-7.5" font-family="Helvetica,sans-Serif" font-size="10.00">fstream</text>
</g>
<!-- Node0&#45;&gt;Node9 -->
<g id="edge20" class="edge"><title>Node0&#45;&gt;Node9</title>
<path fill="none" stroke="midnightblue" d="M295.945,-112.303C296.364,-98.1758 299.4,-70.3776 316,-56 391.842,9.68856 441.657,-38.168 544.983,-19.8873"/>
<polygon fill="midnightblue" stroke="midnightblue" points="545.669,-23.3194 554.818,-17.9764 544.334,-16.4478 545.669,-23.3194"/>
</g>
<!-- Node12 -->
<g id="node13" class="node"><title>Node12</title>
<g id="a_node13"><a xlink:href="meshio_8h.html" target="_top" xlink:title="meshio.h">
<polygon fill="white" stroke="black" points="114,-56.5 114,-75.5 170,-75.5 170,-56.5 114,-56.5"/>
<text text-anchor="middle" x="142" y="-63.5" font-family="Helvetica,sans-Serif" font-size="10.00">meshio.h</text>
</a>
</g>
</g>
<!-- Node0&#45;&gt;Node12 -->
<g id="edge12" class="edge"><title>Node0&#45;&gt;Node12</title>
<path fill="none" stroke="midnightblue" d="M271.598,-112.444C245.803,-103.399 204.923,-89.064 175.982,-78.9158"/>
<polygon fill="midnightblue" stroke="midnightblue" points="176.882,-75.5226 166.288,-75.5164 174.566,-82.1283 176.882,-75.5226"/>
</g>
<!-- Node13 -->
<g id="node14" class="node"><title>Node13</title>
<polygon fill="white" stroke="#bfbfbf" points="324.5,-56.5 324.5,-75.5 375.5,-75.5 375.5,-56.5 324.5,-56.5"/>
<text text-anchor="middle" x="350" y="-63.5" font-family="Helvetica,sans-Serif" font-size="10.00">valarray</text>
</g>
<!-- Node0&#45;&gt;Node13 -->
<g id="edge16" class="edge"><title>Node0&#45;&gt;Node13</title>
<path fill="none" stroke="midnightblue" d="M304.917,-112.083C312.78,-104.22 324.431,-92.5688 333.919,-83.0813"/>
<polygon fill="midnightblue" stroke="midnightblue" points="336.653,-85.2971 341.249,-75.7511 331.703,-80.3473 336.653,-85.2971"/>
</g>
<!-- Node14 -->
<g id="node15" class="node"><title>Node14</title>
<polygon fill="white" stroke="#bfbfbf" points="393.5,-56.5 393.5,-75.5 434.5,-75.5 434.5,-56.5 393.5,-56.5"/>
<text text-anchor="middle" x="414" y="-63.5" font-family="Helvetica,sans-Serif" font-size="10.00">string</text>
</g>
<!-- Node0&#45;&gt;Node14 -->
<g id="edge17" class="edge"><title>Node0&#45;&gt;Node14</title>
<path fill="none" stroke="midnightblue" d="M314.697,-112.444C333.944,-103.636 364.152,-89.8116 386.2,-79.722"/>
<polygon fill="midnightblue" stroke="midnightblue" points="387.753,-82.8603 395.39,-75.5164 384.84,-76.4951 387.753,-82.8603"/>
</g>
<!-- Node15 -->
<g id="node16" class="node"><title>Node15</title>
<polygon fill="white" stroke="#bfbfbf" points="453,-56.5 453,-75.5 505,-75.5 505,-56.5 453,-56.5"/>
<text text-anchor="middle" x="479" y="-63.5" font-family="Helvetica,sans-Serif" font-size="10.00">sstream</text>
</g>
<!-- Node0&#45;&gt;Node15 -->
<g id="edge18" class="edge"><title>Node0&#45;&gt;Node15</title>
<path fill="none" stroke="midnightblue" d="M324.997,-112.444C357.01,-102.997 408.576,-87.7807 443.113,-77.5897"/>
<polygon fill="midnightblue" stroke="midnightblue" points="444.207,-80.9162 452.807,-74.729 442.225,-74.2024 444.207,-80.9162"/>
</g>
<!-- Node16 -->
<g id="node17" class="node"><title>Node16</title>
<polygon fill="white" stroke="#bfbfbf" points="523,-56.5 523,-75.5 569,-75.5 569,-56.5 523,-56.5"/>
<text text-anchor="middle" x="546" y="-63.5" font-family="Helvetica,sans-Serif" font-size="10.00">cstring</text>
</g>
<!-- Node0&#45;&gt;Node16 -->
<g id="edge21" class="edge"><title>Node0&#45;&gt;Node16</title>
<path fill="none" stroke="midnightblue" d="M325.767,-115.546C366.069,-108.012 440.42,-93.5847 513.19,-76.0627"/>
<polygon fill="midnightblue" stroke="midnightblue" points="514.088,-79.4464 522.979,-73.6842 512.436,-72.6443 514.088,-79.4464"/>
</g>
<!-- Node1&#45;&gt;Node2 -->
<g id="edge2" class="edge"><title>Node1&#45;&gt;Node2</title>
<path fill="none" stroke="midnightblue" d="M218.22,-60.7072C181.276,-54.057 109.47,-40.1702 39.9202,-19.9388"/>
<polygon fill="midnightblue" stroke="midnightblue" points="40.7073,-16.5218 30.1252,-17.042 38.7221,-23.2344 40.7073,-16.5218"/>
</g>
<!-- Node3 -->
<g id="node4" class="node"><title>Node3</title>
<polygon fill="white" stroke="#bfbfbf" points="120,-0.5 120,-19.5 164,-19.5 164,-0.5 120,-0.5"/>
<text text-anchor="middle" x="142" y="-7.5" font-family="Helvetica,sans-Serif" font-size="10.00">vector</text>
</g>
<!-- Node1&#45;&gt;Node3 -->
<g id="edge3" class="edge"><title>Node1&#45;&gt;Node3</title>
<path fill="none" stroke="midnightblue" d="M226.773,-56.324C210.649,-47.7034 185.7,-34.3643 167.036,-24.3855"/>
<polygon fill="midnightblue" stroke="midnightblue" points="168.656,-21.283 158.187,-19.6545 165.356,-27.456 168.656,-21.283"/>
</g>
<!-- Node4 -->
<g id="node5" class="node"><title>Node4</title>
<polygon fill="white" stroke="#bfbfbf" points="182,-0.5 182,-19.5 238,-19.5 238,-0.5 182,-0.5"/>
<text text-anchor="middle" x="210" y="-7.5" font-family="Helvetica,sans-Serif" font-size="10.00">algorithm</text>
</g>
<!-- Node1&#45;&gt;Node4 -->
<g id="edge4" class="edge"><title>Node1&#45;&gt;Node4</title>
<path fill="none" stroke="midnightblue" d="M237.551,-56.083C232.986,-48.6127 226.332,-37.7244 220.707,-28.5199"/>
<polygon fill="midnightblue" stroke="midnightblue" points="223.549,-26.4588 215.348,-19.7511 217.576,-30.109 223.549,-26.4588"/>
</g>
<!-- Node5 -->
<g id="node6" class="node"><title>Node5</title>
<polygon fill="white" stroke="#bfbfbf" points="256.5,-0.5 256.5,-19.5 291.5,-19.5 291.5,-0.5 256.5,-0.5"/>
<text text-anchor="middle" x="274" y="-7.5" font-family="Helvetica,sans-Serif" font-size="10.00">map</text>
</g>
<!-- Node1&#45;&gt;Node5 -->
<g id="edge5" class="edge"><title>Node1&#45;&gt;Node5</title>
<path fill="none" stroke="midnightblue" d="M248.119,-56.083C252.408,-48.6127 258.658,-37.7244 263.942,-28.5199"/>
<polygon fill="midnightblue" stroke="midnightblue" points="267.033,-30.1662 268.976,-19.7511 260.962,-26.6811 267.033,-30.1662"/>
</g>
<!-- Node6 -->
<g id="node7" class="node"><title>Node6</title>
<polygon fill="white" stroke="#bfbfbf" points="309.5,-0.5 309.5,-19.5 338.5,-19.5 338.5,-0.5 309.5,-0.5"/>
<text text-anchor="middle" x="324" y="-7.5" font-family="Helvetica,sans-Serif" font-size="10.00">list</text>
</g>
<!-- Node1&#45;&gt;Node6 -->
<g id="edge6" class="edge"><title>Node1&#45;&gt;Node6</title>
<path fill="none" stroke="midnightblue" d="M256.014,-56.324C268.532,-47.979 287.682,-35.2122 302.471,-25.3524"/>
<polygon fill="midnightblue" stroke="midnightblue" points="304.639,-28.1137 311.018,-19.6545 300.756,-22.2894 304.639,-28.1137"/>
</g>
<!-- Node1&#45;&gt;Node7 -->
<g id="edge7" class="edge"><title>Node1&#45;&gt;Node7</title>
<path fill="none" stroke="midnightblue" d="M218.211,-57.0321C189.922,-47.9392 143.403,-32.9868 111.092,-22.601"/>
<polygon fill="midnightblue" stroke="midnightblue" points="112.148,-19.264 101.556,-19.536 110.006,-25.9282 112.148,-19.264"/>
</g>
<!-- Node8 -->
<g id="node9" class="node"><title>Node8</title>
<polygon fill="white" stroke="#bfbfbf" points="357,-0.5 357,-19.5 407,-19.5 407,-0.5 357,-0.5"/>
<text text-anchor="middle" x="382" y="-7.5" font-family="Helvetica,sans-Serif" font-size="10.00">iomanip</text>
</g>
<!-- Node1&#45;&gt;Node8 -->
<g id="edge8" class="edge"><title>Node1&#45;&gt;Node8</title>
<path fill="none" stroke="midnightblue" d="M265.025,-56.4435C288.104,-47.4776 324.562,-33.314 350.641,-23.1827"/>
<polygon fill="midnightblue" stroke="midnightblue" points="352.024,-26.4002 360.078,-19.5164 349.489,-19.8753 352.024,-26.4002"/>
</g>
<!-- Node1&#45;&gt;Node9 -->
<g id="edge9" class="edge"><title>Node1&#45;&gt;Node9</title>
<path fill="none" stroke="midnightblue" d="M267.687,-58.9451C272.422,-57.8854 277.352,-56.8514 282,-56 395.296,-35.2474 428.094,-42.7511 544.786,-20.0223"/>
<polygon fill="midnightblue" stroke="midnightblue" points="545.701,-23.4092 554.83,-18.0325 544.34,-16.5426 545.701,-23.4092"/>
</g>
<!-- Node10 -->
<g id="node11" class="node"><title>Node10</title>
<polygon fill="white" stroke="#bfbfbf" points="425.5,-0.5 425.5,-19.5 474.5,-19.5 474.5,-0.5 425.5,-0.5"/>
<text text-anchor="middle" x="450" y="-7.5" font-family="Helvetica,sans-Serif" font-size="10.00">cassert</text>
</g>
<!-- Node1&#45;&gt;Node10 -->
<g id="edge10" class="edge"><title>Node1&#45;&gt;Node10</title>
<path fill="none" stroke="midnightblue" d="M267.647,-58.6246C299.441,-50.3925 356.713,-35.5379 415.637,-20.0866"/>
<polygon fill="midnightblue" stroke="midnightblue" points="416.705,-23.425 425.489,-17.5016 414.928,-16.6541 416.705,-23.425"/>
</g>
<!-- Node11 -->
<g id="node12" class="node"><title>Node11</title>
<polygon fill="white" stroke="#bfbfbf" points="493,-0.5 493,-19.5 537,-19.5 537,-0.5 493,-0.5"/>
<text text-anchor="middle" x="515" y="-7.5" font-family="Helvetica,sans-Serif" font-size="10.00">cmath</text>
</g>
<!-- Node1&#45;&gt;Node11 -->
<g id="edge11" class="edge"><title>Node1&#45;&gt;Node11</title>
<path fill="none" stroke="midnightblue" d="M267.717,-59.0984C272.449,-58.0246 277.371,-56.9461 282,-56 368.292,-38.3655 393.491,-40.5616 482.976,-20.0401"/>
<polygon fill="midnightblue" stroke="midnightblue" points="483.776,-23.4476 492.724,-17.7741 482.191,-16.6294 483.776,-23.4476"/>
</g>
<!-- Node12&#45;&gt;Node3 -->
<g id="edge14" class="edge"><title>Node12&#45;&gt;Node3</title>
<path fill="none" stroke="midnightblue" d="M142,-56.083C142,-49.0059 142,-38.8611 142,-29.9865"/>
<polygon fill="midnightblue" stroke="midnightblue" points="145.5,-29.751 142,-19.7511 138.5,-29.7511 145.5,-29.751"/>
</g>
<!-- Node12&#45;&gt;Node7 -->
<g id="edge13" class="edge"><title>Node12&#45;&gt;Node7</title>
<path fill="none" stroke="midnightblue" d="M131.235,-56.324C121.234,-48.2631 106.113,-36.0765 94.0695,-26.3695"/>
<polygon fill="midnightblue" stroke="midnightblue" points="95.9429,-23.3841 85.9606,-19.8339 91.5502,-28.8343 95.9429,-23.3841"/>
</g>
</g>
</svg>
