<?xml version="1.0" encoding="UTF-8" standalone="no"?>
<!DOCTYPE svg PUBLIC "-//W3C//DTD SVG 1.1//EN"
 "http://www.w3.org/Graphics/SVG/1.1/DTD/svg11.dtd">
<!-- Generated by graphviz version 2.40.1 (20161225.0304)
 -->
<!-- Title: numericalFlux.c Pages: 1 -->
<svg width="396pt" height="84pt"
 viewBox="0.00 0.00 396.00 84.00" xmlns="http://www.w3.org/2000/svg" xmlns:xlink="http://www.w3.org/1999/xlink">
<g id="graph0" class="graph" transform="scale(1 1) rotate(0) translate(4 80)">
<title>numericalFlux.c</title>
<polygon fill="#ffffff" stroke="transparent" points="-4,4 -4,-80 392,-80 392,4 -4,4"/>
<!-- Node0 -->
<g id="node1" class="node">
<title>Node0</title>
<polygon fill="#bfbfbf" stroke="#000000" points="145,-56.5 145,-75.5 231,-75.5 231,-56.5 145,-56.5"/>
<text text-anchor="middle" x="188" y="-63.5" font-family="Helvetica,sans-Serif" font-size="10.00" fill="#000000">numericalFlux.c</text>
</g>
<!-- Node1 -->
<g id="node2" class="node">
<title>Node1</title>
<polygon fill="#ffffff" stroke="#bfbfbf" points="0,-.5 0,-19.5 48,-19.5 48,-.5 0,-.5"/>
<text text-anchor="middle" x="24" y="-7.5" font-family="Helvetica,sans-Serif" font-size="10.00" fill="#000000">stdlib.h</text>
</g>
<!-- Node0&#45;&gt;Node1 -->
<g id="edge1" class="edge">
<title>Node0&#45;&gt;Node1</title>
<path fill="none" stroke="#191970" d="M159.8074,-56.3733C131.5028,-46.7083 87.8844,-31.8142 57.7537,-21.5256"/>
<polygon fill="#191970" stroke="#191970" points="58.6887,-18.1465 48.0941,-18.2273 56.4266,-24.771 58.6887,-18.1465"/>
</g>
<!-- Node2 -->
<g id="node3" class="node">
<title>Node2</title>
<polygon fill="#ffffff" stroke="#bfbfbf" points="66,-.5 66,-19.5 112,-19.5 112,-.5 66,-.5"/>
<text text-anchor="middle" x="89" y="-7.5" font-family="Helvetica,sans-Serif" font-size="10.00" fill="#000000">stdio.h</text>
</g>
<!-- Node0&#45;&gt;Node2 -->
<g id="edge2" class="edge">
<title>Node0&#45;&gt;Node2</title>
<path fill="none" stroke="#191970" d="M170.7555,-56.2455C155.4239,-47.5731 132.7801,-34.7645 115.2084,-24.825"/>
<polygon fill="#191970" stroke="#191970" points="116.4741,-21.5198 106.0469,-19.6427 113.0276,-27.6126 116.4741,-21.5198"/>
</g>
<!-- Node3 -->
<g id="node4" class="node">
<title>Node3</title>
<polygon fill="#ffffff" stroke="#bfbfbf" points="130.5,-.5 130.5,-19.5 177.5,-19.5 177.5,-.5 130.5,-.5"/>
<text text-anchor="middle" x="154" y="-7.5" font-family="Helvetica,sans-Serif" font-size="10.00" fill="#000000">math.h</text>
</g>
<!-- Node0&#45;&gt;Node3 -->
<g id="edge3" class="edge">
<title>Node0&#45;&gt;Node3</title>
<path fill="none" stroke="#191970" d="M182.0777,-56.2455C177.3973,-48.5367 170.7327,-37.5598 165.0711,-28.2348"/>
<polygon fill="#191970" stroke="#191970" points="168.0361,-26.3741 159.8545,-19.6427 162.0525,-30.007 168.0361,-26.3741"/>
</g>
<!-- Node4 -->
<g id="node5" class="node">
<title>Node4</title>
<polygon fill="#ffffff" stroke="#bfbfbf" points="196,-.5 196,-19.5 250,-19.5 250,-.5 196,-.5"/>
<text text-anchor="middle" x="223" y="-7.5" font-family="Helvetica,sans-Serif" font-size="10.00" fill="#000000">strings.h</text>
</g>
<!-- Node0&#45;&gt;Node4 -->
<g id="edge4" class="edge">
<title>Node0&#45;&gt;Node4</title>
<path fill="none" stroke="#191970" d="M194.0965,-56.2455C198.9145,-48.5367 205.7751,-37.5598 211.6032,-28.2348"/>
<polygon fill="#191970" stroke="#191970" points="214.6413,-29.9777 216.9733,-19.6427 208.7053,-26.2677 214.6413,-29.9777"/>
</g>
<!-- Node5 -->
<g id="node6" class="node">
<title>Node5</title>
<polygon fill="#ffffff" stroke="#bfbfbf" points="268.5,-.5 268.5,-19.5 317.5,-19.5 317.5,-.5 268.5,-.5"/>
<text text-anchor="middle" x="293" y="-7.5" font-family="Helvetica,sans-Serif" font-size="10.00" fill="#000000">string.h</text>
</g>
<!-- Node0&#45;&gt;Node5 -->
<g id="edge5" class="edge">
<title>Node0&#45;&gt;Node5</title>
<path fill="none" stroke="#191970" d="M206.2896,-56.2455C222.7762,-47.4527 247.2352,-34.4079 265.9765,-24.4125"/>
<polygon fill="#191970" stroke="#191970" points="267.7435,-27.4368 274.92,-19.6427 264.4494,-21.2604 267.7435,-27.4368"/>
</g>
<!-- Node6 -->
<g id="node7" class="node">
<title>Node6</title>
<polygon fill="#ffffff" stroke="#bfbfbf" points="336,-.5 336,-19.5 388,-19.5 388,-.5 336,-.5"/>
<text text-anchor="middle" x="362" y="-7.5" font-family="Helvetica,sans-Serif" font-size="10.00" fill="#000000">assert.h</text>
</g>
<!-- Node0&#45;&gt;Node6 -->
<g id="edge6" class="edge">
<title>Node0&#45;&gt;Node6</title>
<path fill="none" stroke="#191970" d="M217.9117,-56.3733C247.8974,-46.7227 294.0822,-31.8586 326.045,-21.5717"/>
<polygon fill="#191970" stroke="#191970" points="327.4374,-24.8005 335.8843,-18.4051 325.2928,-18.1371 327.4374,-24.8005"/>
</g>
</g>
</svg>
