<?xml version="1.0" encoding="UTF-8" standalone="no"?>
<!DOCTYPE svg PUBLIC "-//W3C//DTD SVG 1.1//EN"
 "http://www.w3.org/Graphics/SVG/1.1/DTD/svg11.dtd">
<!-- Generated by graphviz version 2.42.3 (0)
 -->
<!-- Title: partitioning.h Pages: 1 -->
<svg width="661pt" height="140pt"
 viewBox="0.00 0.00 661.00 140.00" xmlns="http://www.w3.org/2000/svg" xmlns:xlink="http://www.w3.org/1999/xlink">
<g id="graph0" class="graph" transform="scale(1 1) rotate(0) translate(4 136)">
<title>partitioning.h</title>
<polygon fill="white" stroke="transparent" points="-4,4 -4,-136 657,-136 657,4 -4,4"/>
<!-- Node1 -->
<g id="node1" class="node">
<title>Node1</title>
<g id="a_node1"><a xlink:title=" ">
<polygon fill="#bfbfbf" stroke="black" points="333,-112.5 333,-131.5 415,-131.5 415,-112.5 333,-112.5"/>
<text text-anchor="middle" x="374" y="-119.5" font-family="Helvetica,sans-Serif" font-size="10.00">partitioning.h</text>
</a>
</g>
</g>
<!-- Node2 -->
<g id="node2" class="node">
<title>Node2</title>
<g id="a_node2"><a xlink:title=" ">
<polygon fill="white" stroke="#bfbfbf" points="0,-0.5 0,-19.5 60,-19.5 60,-0.5 0,-0.5"/>
<text text-anchor="middle" x="30" y="-7.5" font-family="Helvetica,sans-Serif" font-size="10.00">iostream</text>
</a>
</g>
</g>
<!-- Node1&#45;&gt;Node2 -->
<g id="edge1" class="edge">
<title>Node1&#45;&gt;Node2</title>
<path fill="none" stroke="midnightblue" d="M332.93,-119.75C258.35,-116.73 104.45,-106.84 62,-76 46.77,-64.93 38.41,-44.59 34.09,-29.6"/>
<polygon fill="midnightblue" stroke="midnightblue" points="37.47,-28.67 31.62,-19.84 30.68,-30.39 37.47,-28.67"/>
</g>
<!-- Node3 -->
<g id="node3" class="node">
<title>Node3</title>
<g id="a_node3"><a xlink:title=" ">
<polygon fill="white" stroke="#bfbfbf" points="311.5,-56.5 311.5,-75.5 368.5,-75.5 368.5,-56.5 311.5,-56.5"/>
<text text-anchor="middle" x="340" y="-63.5" font-family="Helvetica,sans-Serif" font-size="10.00">valarray</text>
</a>
</g>
</g>
<!-- Node1&#45;&gt;Node3 -->
<g id="edge2" class="edge">
<title>Node1&#45;&gt;Node3</title>
<path fill="none" stroke="midnightblue" d="M368.39,-112.08C363.63,-104.53 356.68,-93.49 350.85,-84.23"/>
<polygon fill="midnightblue" stroke="midnightblue" points="353.8,-82.35 345.51,-75.75 347.88,-86.08 353.8,-82.35"/>
</g>
<!-- Node4 -->
<g id="node4" class="node">
<title>Node4</title>
<g id="a_node4"><a xlink:title=" ">
<polygon fill="white" stroke="#bfbfbf" points="387,-56.5 387,-75.5 431,-75.5 431,-56.5 387,-56.5"/>
<text text-anchor="middle" x="409" y="-63.5" font-family="Helvetica,sans-Serif" font-size="10.00">mpi.h</text>
</a>
</g>
</g>
<!-- Node1&#45;&gt;Node4 -->
<g id="edge3" class="edge">
<title>Node1&#45;&gt;Node4</title>
<path fill="none" stroke="midnightblue" d="M379.78,-112.08C384.67,-104.53 391.83,-93.49 397.83,-84.23"/>
<polygon fill="midnightblue" stroke="midnightblue" points="400.83,-86.05 403.33,-75.75 394.95,-82.24 400.83,-86.05"/>
</g>
<!-- Node5 -->
<g id="node5" class="node">
<title>Node5</title>
<g id="a_node5"><a xlink:title=" ">
<polygon fill="white" stroke="#bfbfbf" points="449.5,-56.5 449.5,-75.5 496.5,-75.5 496.5,-56.5 449.5,-56.5"/>
<text text-anchor="middle" x="473" y="-63.5" font-family="Helvetica,sans-Serif" font-size="10.00">hdf5.h</text>
</a>
</g>
</g>
<!-- Node1&#45;&gt;Node5 -->
<g id="edge4" class="edge">
<title>Node1&#45;&gt;Node5</title>
<path fill="none" stroke="midnightblue" d="M389.91,-112.32C405.64,-103.74 429.94,-90.49 448.21,-80.52"/>
<polygon fill="midnightblue" stroke="midnightblue" points="450.03,-83.52 457.13,-75.65 446.68,-77.37 450.03,-83.52"/>
</g>
<!-- Node6 -->
<g id="node6" class="node">
<title>Node6</title>
<g id="a_node6"><a xlink:title=" ">
<polygon fill="white" stroke="#bfbfbf" points="515,-56.5 515,-75.5 567,-75.5 567,-56.5 515,-56.5"/>
<text text-anchor="middle" x="541" y="-63.5" font-family="Helvetica,sans-Serif" font-size="10.00">petsc.h</text>
</a>
</g>
</g>
<!-- Node1&#45;&gt;Node6 -->
<g id="edge5" class="edge">
<title>Node1&#45;&gt;Node6</title>
<path fill="none" stroke="midnightblue" d="M400.46,-112.44C428.76,-103.29 473.8,-88.73 505.25,-78.56"/>
<polygon fill="midnightblue" stroke="midnightblue" points="506.5,-81.83 514.94,-75.43 504.35,-75.17 506.5,-81.83"/>
</g>
<!-- Node7 -->
<g id="node7" class="node">
<title>Node7</title>
<g id="a_node7"><a xlink:title=" ">
<polygon fill="white" stroke="#bfbfbf" points="585,-56.5 585,-75.5 653,-75.5 653,-56.5 585,-56.5"/>
<text text-anchor="middle" x="619" y="-63.5" font-family="Helvetica,sans-Serif" font-size="10.00">petscsys.h</text>
</a>
</g>
</g>
<!-- Node1&#45;&gt;Node7 -->
<g id="edge6" class="edge">
<title>Node1&#45;&gt;Node7</title>
<path fill="none" stroke="midnightblue" d="M412.82,-112.44C456.85,-102.74 528.51,-86.95 574.69,-76.77"/>
<polygon fill="midnightblue" stroke="midnightblue" points="575.7,-80.13 584.71,-74.56 574.19,-73.29 575.7,-80.13"/>
</g>
<!-- Node8 -->
<g id="node8" class="node">
<title>Node8</title>
<g id="a_node8"><a xlink:href="mesh_8h.html" target="_top" xlink:title=" ">
<polygon fill="white" stroke="black" points="240.5,-56.5 240.5,-75.5 293.5,-75.5 293.5,-56.5 240.5,-56.5"/>
<text text-anchor="middle" x="267" y="-63.5" font-family="Helvetica,sans-Serif" font-size="10.00">mesh.h</text>
</a>
</g>
</g>
<!-- Node1&#45;&gt;Node8 -->
<g id="edge7" class="edge">
<title>Node1&#45;&gt;Node8</title>
<path fill="none" stroke="midnightblue" d="M356.81,-112.32C339.65,-103.66 313.05,-90.24 293.25,-80.25"/>
<polygon fill="midnightblue" stroke="midnightblue" points="294.65,-77.04 284.15,-75.65 291.5,-83.28 294.65,-77.04"/>
</g>
<!-- Node18 -->
<g id="node18" class="node">
<title>Node18</title>
<g id="a_node18"><a xlink:href="meshio_8h.html" target="_top" xlink:title=" ">
<polygon fill="white" stroke="black" points="71,-56.5 71,-75.5 133,-75.5 133,-56.5 71,-56.5"/>
<text text-anchor="middle" x="102" y="-63.5" font-family="Helvetica,sans-Serif" font-size="10.00">meshio.h</text>
</a>
</g>
</g>
<!-- Node1&#45;&gt;Node18 -->
<g id="edge18" class="edge">
<title>Node1&#45;&gt;Node18</title>
<path fill="none" stroke="midnightblue" d="M332.98,-112.86C281.75,-102.69 194.6,-85.38 143.25,-75.19"/>
<polygon fill="midnightblue" stroke="midnightblue" points="143.66,-71.7 133.17,-73.19 142.3,-78.57 143.66,-71.7"/>
</g>
<!-- Node8&#45;&gt;Node2 -->
<g id="edge13" class="edge">
<title>Node8&#45;&gt;Node2</title>
<path fill="none" stroke="midnightblue" d="M240.27,-58.91C198.8,-49.46 118.67,-31.2 70.19,-20.16"/>
<polygon fill="midnightblue" stroke="midnightblue" points="70.88,-16.72 60.35,-17.92 69.32,-23.55 70.88,-16.72"/>
</g>
<!-- Node9 -->
<g id="node9" class="node">
<title>Node9</title>
<g id="a_node9"><a xlink:title=" ">
<polygon fill="white" stroke="#bfbfbf" points="280,-0.5 280,-19.5 312,-19.5 312,-0.5 280,-0.5"/>
<text text-anchor="middle" x="296" y="-7.5" font-family="Helvetica,sans-Serif" font-size="10.00">set</text>
</a>
</g>
</g>
<!-- Node8&#45;&gt;Node9 -->
<g id="edge8" class="edge">
<title>Node8&#45;&gt;Node9</title>
<path fill="none" stroke="midnightblue" d="M271.79,-56.08C275.76,-48.69 281.53,-37.95 286.43,-28.81"/>
<polygon fill="midnightblue" stroke="midnightblue" points="289.65,-30.22 291.3,-19.75 283.49,-26.91 289.65,-30.22"/>
</g>
<!-- Node10 -->
<g id="node10" class="node">
<title>Node10</title>
<g id="a_node10"><a xlink:title=" ">
<polygon fill="white" stroke="#bfbfbf" points="78.5,-0.5 78.5,-19.5 125.5,-19.5 125.5,-0.5 78.5,-0.5"/>
<text text-anchor="middle" x="102" y="-7.5" font-family="Helvetica,sans-Serif" font-size="10.00">vector</text>
</a>
</g>
</g>
<!-- Node8&#45;&gt;Node10 -->
<g id="edge9" class="edge">
<title>Node8&#45;&gt;Node10</title>
<path fill="none" stroke="midnightblue" d="M240.86,-56.44C212.24,-47.08 166.29,-32.04 135.16,-21.85"/>
<polygon fill="midnightblue" stroke="midnightblue" points="136.21,-18.51 125.62,-18.73 134.03,-25.17 136.21,-18.51"/>
</g>
<!-- Node11 -->
<g id="node11" class="node">
<title>Node11</title>
<g id="a_node11"><a xlink:title=" ">
<polygon fill="white" stroke="#bfbfbf" points="330,-0.5 330,-19.5 394,-19.5 394,-0.5 330,-0.5"/>
<text text-anchor="middle" x="362" y="-7.5" font-family="Helvetica,sans-Serif" font-size="10.00">algorithm</text>
</a>
</g>
</g>
<!-- Node8&#45;&gt;Node11 -->
<g id="edge10" class="edge">
<title>Node8&#45;&gt;Node11</title>
<path fill="none" stroke="midnightblue" d="M282.26,-56.32C297.22,-47.82 320.25,-34.73 337.73,-24.8"/>
<polygon fill="midnightblue" stroke="midnightblue" points="339.81,-27.64 346.77,-19.65 336.35,-21.55 339.81,-27.64"/>
</g>
<!-- Node12 -->
<g id="node12" class="node">
<title>Node12</title>
<g id="a_node12"><a xlink:title=" ">
<polygon fill="white" stroke="#bfbfbf" points="412,-0.5 412,-19.5 450,-19.5 450,-0.5 412,-0.5"/>
<text text-anchor="middle" x="431" y="-7.5" font-family="Helvetica,sans-Serif" font-size="10.00">map</text>
</a>
</g>
</g>
<!-- Node8&#45;&gt;Node12 -->
<g id="edge11" class="edge">
<title>Node8&#45;&gt;Node12</title>
<path fill="none" stroke="midnightblue" d="M292.99,-56.44C322.69,-46.66 371.16,-30.7 402.05,-20.53"/>
<polygon fill="midnightblue" stroke="midnightblue" points="403.39,-23.77 411.8,-17.32 401.2,-17.13 403.39,-23.77"/>
</g>
<!-- Node13 -->
<g id="node13" class="node">
<title>Node13</title>
<g id="a_node13"><a xlink:title=" ">
<polygon fill="white" stroke="#bfbfbf" points="468,-0.5 468,-19.5 500,-19.5 500,-0.5 468,-0.5"/>
<text text-anchor="middle" x="484" y="-7.5" font-family="Helvetica,sans-Serif" font-size="10.00">list</text>
</a>
</g>
</g>
<!-- Node8&#45;&gt;Node13 -->
<g id="edge12" class="edge">
<title>Node8&#45;&gt;Node13</title>
<path fill="none" stroke="midnightblue" d="M293.72,-58.26C296.85,-57.49 299.99,-56.72 303,-56 369.21,-40.08 389.05,-40.06 458.32,-19.93"/>
<polygon fill="midnightblue" stroke="midnightblue" points="459.35,-23.27 467.95,-17.09 457.37,-16.56 459.35,-23.27"/>
</g>
<!-- Node14 -->
<g id="node14" class="node">
<title>Node14</title>
<g id="a_node14"><a xlink:title=" ">
<polygon fill="white" stroke="#bfbfbf" points="518,-0.5 518,-19.5 574,-19.5 574,-0.5 518,-0.5"/>
<text text-anchor="middle" x="546" y="-7.5" font-family="Helvetica,sans-Serif" font-size="10.00">iomanip</text>
</a>
</g>
</g>
<!-- Node8&#45;&gt;Node14 -->
<g id="edge14" class="edge">
<title>Node8&#45;&gt;Node14</title>
<path fill="none" stroke="midnightblue" d="M293.69,-58.1C296.82,-57.36 299.97,-56.64 303,-56 390.81,-37.38 416.29,-38.86 507.79,-20.14"/>
<polygon fill="midnightblue" stroke="midnightblue" points="508.68,-23.53 517.76,-18.07 507.26,-16.67 508.68,-23.53"/>
</g>
<!-- Node15 -->
<g id="node15" class="node">
<title>Node15</title>
<g id="a_node15"><a xlink:title=" ">
<polygon fill="white" stroke="#bfbfbf" points="592.5,-0.5 592.5,-19.5 647.5,-19.5 647.5,-0.5 592.5,-0.5"/>
<text text-anchor="middle" x="620" y="-7.5" font-family="Helvetica,sans-Serif" font-size="10.00">fstream</text>
</a>
</g>
</g>
<!-- Node8&#45;&gt;Node15 -->
<g id="edge15" class="edge">
<title>Node8&#45;&gt;Node15</title>
<path fill="none" stroke="midnightblue" d="M293.66,-57.97C296.8,-57.25 299.96,-56.57 303,-56 423.16,-33.34 457.88,-42.37 582.28,-19.93"/>
<polygon fill="midnightblue" stroke="midnightblue" points="582.99,-23.36 592.19,-18.11 581.72,-16.48 582.99,-23.36"/>
</g>
<!-- Node16 -->
<g id="node16" class="node">
<title>Node16</title>
<g id="a_node16"><a xlink:title=" ">
<polygon fill="white" stroke="#bfbfbf" points="144,-0.5 144,-19.5 196,-19.5 196,-0.5 144,-0.5"/>
<text text-anchor="middle" x="170" y="-7.5" font-family="Helvetica,sans-Serif" font-size="10.00">cassert</text>
</a>
</g>
</g>
<!-- Node8&#45;&gt;Node16 -->
<g id="edge16" class="edge">
<title>Node8&#45;&gt;Node16</title>
<path fill="none" stroke="midnightblue" d="M251.42,-56.32C236,-47.74 212.19,-34.49 194.29,-24.52"/>
<polygon fill="midnightblue" stroke="midnightblue" points="195.99,-21.46 185.55,-19.65 192.58,-27.58 195.99,-21.46"/>
</g>
<!-- Node17 -->
<g id="node17" class="node">
<title>Node17</title>
<g id="a_node17"><a xlink:title=" ">
<polygon fill="white" stroke="#bfbfbf" points="214.5,-0.5 214.5,-19.5 261.5,-19.5 261.5,-0.5 214.5,-0.5"/>
<text text-anchor="middle" x="238" y="-7.5" font-family="Helvetica,sans-Serif" font-size="10.00">cmath</text>
</a>
</g>
</g>
<!-- Node8&#45;&gt;Node17 -->
<g id="edge17" class="edge">
<title>Node8&#45;&gt;Node17</title>
<path fill="none" stroke="midnightblue" d="M262.21,-56.08C258.24,-48.69 252.47,-37.95 247.57,-28.81"/>
<polygon fill="midnightblue" stroke="midnightblue" points="250.51,-26.91 242.7,-19.75 244.35,-30.22 250.51,-26.91"/>
</g>
<!-- Node18&#45;&gt;Node2 -->
<g id="edge19" class="edge">
<title>Node18&#45;&gt;Node2</title>
<path fill="none" stroke="midnightblue" d="M90.43,-56.32C79.58,-48.18 63.12,-35.84 50.12,-26.09"/>
<polygon fill="midnightblue" stroke="midnightblue" points="51.88,-23.03 41.78,-19.83 47.68,-28.63 51.88,-23.03"/>
</g>
<!-- Node18&#45;&gt;Node10 -->
<g id="edge20" class="edge">
<title>Node18&#45;&gt;Node10</title>
<path fill="none" stroke="midnightblue" d="M102,-56.08C102,-49.01 102,-38.86 102,-29.99"/>
<polygon fill="midnightblue" stroke="midnightblue" points="105.5,-29.75 102,-19.75 98.5,-29.75 105.5,-29.75"/>
</g>
</g>
</svg>
