<?xml version="1.0" encoding="UTF-8" standalone="no"?>
<!DOCTYPE svg PUBLIC "-//W3C//DTD SVG 1.1//EN"
 "http://www.w3.org/Graphics/SVG/1.1/DTD/svg11.dtd">
<!-- Generated by graphviz version 2.38.0 (20140413.2041)
 -->
<!-- Title: postprocessing.c Pages: 1 -->
<svg width="438pt" height="140pt"
 viewBox="0.00 0.00 437.50 140.00" xmlns="http://www.w3.org/2000/svg" xmlns:xlink="http://www.w3.org/1999/xlink">
<g id="graph0" class="graph" transform="scale(1 1) rotate(0) translate(4 136)">
<title>postprocessing.c</title>
<polygon fill="white" stroke="none" points="-4,4 -4,-136 433.5,-136 433.5,4 -4,4"/>
<!-- Node0 -->
<g id="node1" class="node"><title>Node0</title>
<polygon fill="#bfbfbf" stroke="black" points="142.5,-112.5 142.5,-131.5 233.5,-131.5 233.5,-112.5 142.5,-112.5"/>
<text text-anchor="middle" x="188" y="-119.5" font-family="Helvetica,sans-Serif" font-size="10.00">postprocessing.c</text>
</g>
<!-- Node1 -->
<g id="node2" class="node"><title>Node1</title>
<polygon fill="white" stroke="#bfbfbf" points="0,-56.5 0,-75.5 48,-75.5 48,-56.5 0,-56.5"/>
<text text-anchor="middle" x="24" y="-63.5" font-family="Helvetica,sans-Serif" font-size="10.00">stdlib.h</text>
</g>
<!-- Node0&#45;&gt;Node1 -->
<g id="edge1" class="edge"><title>Node0&#45;&gt;Node1</title>
<path fill="none" stroke="midnightblue" d="M162.014,-112.444C133.815,-103.159 88.6877,-88.2996 57.7628,-78.117"/>
<polygon fill="midnightblue" stroke="midnightblue" points="58.8538,-74.7915 48.2608,-74.9883 56.6645,-81.4403 58.8538,-74.7915"/>
</g>
<!-- Node2 -->
<g id="node3" class="node"><title>Node2</title>
<polygon fill="white" stroke="#bfbfbf" points="66,-56.5 66,-75.5 112,-75.5 112,-56.5 66,-56.5"/>
<text text-anchor="middle" x="89" y="-63.5" font-family="Helvetica,sans-Serif" font-size="10.00">stdio.h</text>
</g>
<!-- Node0&#45;&gt;Node2 -->
<g id="edge2" class="edge"><title>Node0&#45;&gt;Node2</title>
<path fill="none" stroke="midnightblue" d="M172.094,-112.324C156.362,-103.743 132.058,-90.486 113.791,-80.5224"/>
<polygon fill="midnightblue" stroke="midnightblue" points="115.322,-77.3704 104.867,-75.6545 111.97,-83.5157 115.322,-77.3704"/>
</g>
<!-- Node3 -->
<g id="node4" class="node"><title>Node3</title>
<polygon fill="white" stroke="#bfbfbf" points="130.5,-56.5 130.5,-75.5 177.5,-75.5 177.5,-56.5 130.5,-56.5"/>
<text text-anchor="middle" x="154" y="-63.5" font-family="Helvetica,sans-Serif" font-size="10.00">math.h</text>
</g>
<!-- Node0&#45;&gt;Node3 -->
<g id="edge3" class="edge"><title>Node0&#45;&gt;Node3</title>
<path fill="none" stroke="midnightblue" d="M182.386,-112.083C177.633,-104.534 170.682,-93.4948 164.848,-84.2298"/>
<polygon fill="midnightblue" stroke="midnightblue" points="167.8,-82.3486 159.51,-75.7511 161.876,-86.0783 167.8,-82.3486"/>
</g>
<!-- Node4 -->
<g id="node5" class="node"><title>Node4</title>
<polygon fill="white" stroke="#bfbfbf" points="196,-56.5 196,-75.5 250,-75.5 250,-56.5 196,-56.5"/>
<text text-anchor="middle" x="223" y="-63.5" font-family="Helvetica,sans-Serif" font-size="10.00">strings.h</text>
</g>
<!-- Node0&#45;&gt;Node4 -->
<g id="edge4" class="edge"><title>Node0&#45;&gt;Node4</title>
<path fill="none" stroke="midnightblue" d="M193.78,-112.083C198.672,-104.534 205.827,-93.4948 211.833,-84.2298"/>
<polygon fill="midnightblue" stroke="midnightblue" points="214.826,-86.0463 217.328,-75.7511 208.952,-82.239 214.826,-86.0463"/>
</g>
<!-- Node5 -->
<g id="node6" class="node"><title>Node5</title>
<polygon fill="white" stroke="#bfbfbf" points="268,-56.5 268,-75.5 320,-75.5 320,-56.5 268,-56.5"/>
<text text-anchor="middle" x="294" y="-63.5" font-family="Helvetica,sans-Serif" font-size="10.00">assert.h</text>
</g>
<!-- Node0&#45;&gt;Node5 -->
<g id="edge5" class="edge"><title>Node0&#45;&gt;Node5</title>
<path fill="none" stroke="midnightblue" d="M205.031,-112.324C222.03,-103.664 248.376,-90.2424 267.993,-80.249"/>
<polygon fill="midnightblue" stroke="midnightblue" points="269.69,-83.3125 277.012,-75.6545 266.512,-77.0752 269.69,-83.3125"/>
</g>
<!-- Node6 -->
<g id="node7" class="node"><title>Node6</title>
<g id="a_node7"><a xlink:href="postprocessing_8h.html" target="_top" xlink:title="Python interface to velocity postprocessing library. ">
<polygon fill="white" stroke="black" points="338.5,-56.5 338.5,-75.5 429.5,-75.5 429.5,-56.5 338.5,-56.5"/>
<text text-anchor="middle" x="384" y="-63.5" font-family="Helvetica,sans-Serif" font-size="10.00">postprocessing.h</text>
</a>
</g>
</g>
<!-- Node0&#45;&gt;Node6 -->
<g id="edge6" class="edge"><title>Node0&#45;&gt;Node6</title>
<path fill="none" stroke="midnightblue" d="M219.057,-112.444C252.603,-103.201 306.197,-88.4356 343.141,-78.2572"/>
<polygon fill="midnightblue" stroke="midnightblue" points="344.377,-81.5469 353.089,-75.5164 342.518,-74.7984 344.377,-81.5469"/>
</g>
<!-- Node7 -->
<g id="node8" class="node"><title>Node7</title>
<polygon fill="white" stroke="#bfbfbf" points="356,-0.5 356,-19.5 412,-19.5 412,-0.5 356,-0.5"/>
<text text-anchor="middle" x="384" y="-7.5" font-family="Helvetica,sans-Serif" font-size="10.00">Python.h</text>
</g>
<!-- Node6&#45;&gt;Node7 -->
<g id="edge7" class="edge"><title>Node6&#45;&gt;Node7</title>
<path fill="none" stroke="midnightblue" d="M384,-56.083C384,-49.0059 384,-38.8611 384,-29.9865"/>
<polygon fill="midnightblue" stroke="midnightblue" points="387.5,-29.751 384,-19.7511 380.5,-29.7511 387.5,-29.751"/>
</g>
</g>
</svg>
