<?xml version="1.0" encoding="UTF-8" standalone="no"?>
<!DOCTYPE svg PUBLIC "-//W3C//DTD SVG 1.1//EN"
 "http://www.w3.org/Graphics/SVG/1.1/DTD/svg11.dtd">
<!-- Generated by graphviz version 2.40.1 (20161225.0304)
 -->
<!-- Title: postprocessing.h Pages: 1 -->
<svg width="246pt" height="84pt"
 viewBox="0.00 0.00 245.50 84.00" xmlns="http://www.w3.org/2000/svg" xmlns:xlink="http://www.w3.org/1999/xlink">
<g id="graph0" class="graph" transform="scale(1 1) rotate(0) translate(4 80)">
<title>postprocessing.h</title>
<polygon fill="#ffffff" stroke="transparent" points="-4,4 -4,-80 241.5,-80 241.5,4 -4,4"/>
<!-- Node2 -->
<g id="node1" class="node">
<title>Node2</title>
<polygon fill="#bfbfbf" stroke="#000000" points="82.5,-56.5 82.5,-75.5 173.5,-75.5 173.5,-56.5 82.5,-56.5"/>
<text text-anchor="middle" x="128" y="-63.5" font-family="Helvetica,sans-Serif" font-size="10.00" fill="#000000">postprocessing.h</text>
</g>
<!-- Node3 -->
<g id="node2" class="node">
<title>Node3</title>
<g id="a_node2"><a xlink:href="cpostprocessing_module_8c.html" target="_top" xlink:title="cpostprocessingModule.c">
<polygon fill="#ffffff" stroke="#000000" points="0,-.5 0,-19.5 128,-19.5 128,-.5 0,-.5"/>
<text text-anchor="middle" x="64" y="-7.5" font-family="Helvetica,sans-Serif" font-size="10.00" fill="#000000">cpostprocessingModule.c</text>
</a>
</g>
</g>
<!-- Node2&#45;&gt;Node3 -->
<g id="edge1" class="edge">
<title>Node2&#45;&gt;Node3</title>
<path fill="none" stroke="#191970" d="M109.3086,-49.645C98.1781,-39.9058 84.4337,-27.8795 75.0202,-19.6427"/>
<polygon fill="#191970" stroke="#191970" points="107.0215,-52.2945 116.8521,-56.2455 111.631,-47.0264 107.0215,-52.2945"/>
</g>
<!-- Node4 -->
<g id="node3" class="node">
<title>Node4</title>
<g id="a_node3"><a xlink:href="postprocessing_8c.html" target="_top" xlink:title="postprocessing.c">
<polygon fill="#ffffff" stroke="#000000" points="146.5,-.5 146.5,-19.5 237.5,-19.5 237.5,-.5 146.5,-.5"/>
<text text-anchor="middle" x="192" y="-7.5" font-family="Helvetica,sans-Serif" font-size="10.00" fill="#000000">postprocessing.c</text>
</a>
</g>
</g>
<!-- Node2&#45;&gt;Node4 -->
<g id="edge2" class="edge">
<title>Node2&#45;&gt;Node4</title>
<path fill="none" stroke="#191970" d="M146.6914,-49.645C157.8219,-39.9058 171.5663,-27.8795 180.9798,-19.6427"/>
<polygon fill="#191970" stroke="#191970" points="144.369,-47.0264 139.1479,-56.2455 148.9785,-52.2945 144.369,-47.0264"/>
</g>
</g>
</svg>
