<?xml version="1.0" encoding="UTF-8" standalone="no"?>
<!DOCTYPE svg PUBLIC "-//W3C//DTD SVG 1.1//EN"
 "http://www.w3.org/Graphics/SVG/1.1/DTD/svg11.dtd">
<!-- Generated by graphviz version 2.38.0 (20140413.2041)
 -->
<!-- Title: postprocessing.h Pages: 1 -->
<svg width="246pt" height="84pt"
 viewBox="0.00 0.00 245.50 84.00" xmlns="http://www.w3.org/2000/svg" xmlns:xlink="http://www.w3.org/1999/xlink">
<g id="graph0" class="graph" transform="scale(1 1) rotate(0) translate(4 80)">
<title>postprocessing.h</title>
<polygon fill="white" stroke="none" points="-4,4 -4,-80 241.5,-80 241.5,4 -4,4"/>
<!-- Node2 -->
<g id="node1" class="node"><title>Node2</title>
<polygon fill="#bfbfbf" stroke="black" points="82.5,-56.5 82.5,-75.5 173.5,-75.5 173.5,-56.5 82.5,-56.5"/>
<text text-anchor="middle" x="128" y="-63.5" font-family="Helvetica,sans-Serif" font-size="10.00">postprocessing.h</text>
</g>
<!-- Node3 -->
<g id="node2" class="node"><title>Node3</title>
<g id="a_node2"><a xlink:href="cpostprocessing_module_8c.html" target="_top" xlink:title="cpostprocessingModule.c">
<polygon fill="white" stroke="black" points="0,-0.5 0,-19.5 128,-19.5 128,-0.5 0,-0.5"/>
<text text-anchor="middle" x="64" y="-7.5" font-family="Helvetica,sans-Serif" font-size="10.00">cpostprocessingModule.c</text>
</a>
</g>
</g>
<!-- Node2&#45;&gt;Node3 -->
<g id="edge1" class="edge"><title>Node2&#45;&gt;Node3</title>
<path fill="none" stroke="midnightblue" d="M110.009,-49.8197C98.5424,-40.1452 84.0867,-27.9481 74.4698,-19.8339"/>
<polygon fill="midnightblue" stroke="midnightblue" points="107.817,-52.5502 117.717,-56.324 112.331,-47.2002 107.817,-52.5502"/>
</g>
<!-- Node4 -->
<g id="node3" class="node"><title>Node4</title>
<g id="a_node3"><a xlink:href="postprocessing_8c.html" target="_top" xlink:title="postprocessing.c">
<polygon fill="white" stroke="black" points="146.5,-0.5 146.5,-19.5 237.5,-19.5 237.5,-0.5 146.5,-0.5"/>
<text text-anchor="middle" x="192" y="-7.5" font-family="Helvetica,sans-Serif" font-size="10.00">postprocessing.c</text>
</a>
</g>
</g>
<!-- Node2&#45;&gt;Node4 -->
<g id="edge2" class="edge"><title>Node2&#45;&gt;Node4</title>
<path fill="none" stroke="midnightblue" d="M145.991,-49.8197C157.458,-40.1452 171.913,-27.9481 181.53,-19.8339"/>
<polygon fill="midnightblue" stroke="midnightblue" points="143.669,-47.2002 138.283,-56.324 148.183,-52.5502 143.669,-47.2002"/>
</g>
</g>
</svg>
