<?xml version="1.0" encoding="UTF-8" standalone="no"?>
<!DOCTYPE svg PUBLIC "-//W3C//DTD SVG 1.1//EN"
 "http://www.w3.org/Graphics/SVG/1.1/DTD/svg11.dtd">
<!-- Generated by graphviz version 2.38.0 (20140413.2041)
 -->
<!-- Title: pskRelations.h Pages: 1 -->
<svg width="493pt" height="84pt"
 viewBox="0.00 0.00 493.00 84.00" xmlns="http://www.w3.org/2000/svg" xmlns:xlink="http://www.w3.org/1999/xlink">
<g id="graph0" class="graph" transform="scale(1 1) rotate(0) translate(4 80)">
<title>pskRelations.h</title>
<polygon fill="white" stroke="none" points="-4,4 -4,-80 489,-80 489,4 -4,4"/>
<!-- Node1 -->
<g id="node1" class="node"><title>Node1</title>
<polygon fill="#bfbfbf" stroke="black" points="118,-56.5 118,-75.5 200,-75.5 200,-56.5 118,-56.5"/>
<text text-anchor="middle" x="159" y="-63.5" font-family="Helvetica,sans-Serif" font-size="10.00">pskRelations.h</text>
</g>
<!-- Node2 -->
<g id="node2" class="node"><title>Node2</title>
<polygon fill="white" stroke="#bfbfbf" points="0,-0.5 0,-19.5 44,-19.5 44,-0.5 0,-0.5"/>
<text text-anchor="middle" x="22" y="-7.5" font-family="Helvetica,sans-Serif" font-size="10.00">cmath</text>
</g>
<!-- Node1&#45;&gt;Node2 -->
<g id="edge1" class="edge"><title>Node1&#45;&gt;Node2</title>
<path fill="none" stroke="midnightblue" d="M137.292,-56.4435C114.645,-47.5171 78.9279,-33.4387 53.2482,-23.3168"/>
<polygon fill="midnightblue" stroke="midnightblue" points="54.1934,-19.9273 43.6065,-19.5164 51.6264,-26.4397 54.1934,-19.9273"/>
</g>
<!-- Node3 -->
<g id="node3" class="node"><title>Node3</title>
<polygon fill="white" stroke="#bfbfbf" points="62,-0.5 62,-19.5 116,-19.5 116,-0.5 62,-0.5"/>
<text text-anchor="middle" x="89" y="-7.5" font-family="Helvetica,sans-Serif" font-size="10.00">iostream</text>
</g>
<!-- Node1&#45;&gt;Node3 -->
<g id="edge2" class="edge"><title>Node1&#45;&gt;Node3</title>
<path fill="none" stroke="midnightblue" d="M147.753,-56.324C137.203,-48.1849 121.199,-35.8395 108.558,-26.0874"/>
<polygon fill="midnightblue" stroke="midnightblue" points="110.507,-23.1707 100.451,-19.8339 106.231,-28.7132 110.507,-23.1707"/>
</g>
<!-- Node4 -->
<g id="node4" class="node"><title>Node4</title>
<polygon fill="white" stroke="#bfbfbf" points="134.5,-0.5 134.5,-19.5 183.5,-19.5 183.5,-0.5 134.5,-0.5"/>
<text text-anchor="middle" x="159" y="-7.5" font-family="Helvetica,sans-Serif" font-size="10.00">cassert</text>
</g>
<!-- Node1&#45;&gt;Node4 -->
<g id="edge3" class="edge"><title>Node1&#45;&gt;Node4</title>
<path fill="none" stroke="midnightblue" d="M159,-56.083C159,-49.0059 159,-38.8611 159,-29.9865"/>
<polygon fill="midnightblue" stroke="midnightblue" points="162.5,-29.751 159,-19.7511 155.5,-29.7511 162.5,-29.751"/>
</g>
<!-- Node5 -->
<g id="node5" class="node"><title>Node5</title>
<g id="a_node5"><a xlink:href="density_relations_8h.html" target="_top" xlink:title="densityRelations.h">
<polygon fill="white" stroke="black" points="201,-0.5 201,-19.5 299,-19.5 299,-0.5 201,-0.5"/>
<text text-anchor="middle" x="250" y="-7.5" font-family="Helvetica,sans-Serif" font-size="10.00">densityRelations.h</text>
</a>
</g>
</g>
<!-- Node1&#45;&gt;Node5 -->
<g id="edge4" class="edge"><title>Node1&#45;&gt;Node5</title>
<path fill="none" stroke="midnightblue" d="M173.621,-56.324C187.949,-47.8215 210.013,-34.7288 226.749,-24.7975"/>
<polygon fill="midnightblue" stroke="midnightblue" points="228.602,-27.7677 235.416,-19.6545 225.03,-21.7478 228.602,-27.7677"/>
</g>
<!-- Node6 -->
<g id="node6" class="node"><title>Node6</title>
<g id="a_node6"><a xlink:href="_subsurface_transport_coefficients_8h.html" target="_top" xlink:title="SubsurfaceTransportCoefficients.h">
<polygon fill="white" stroke="black" points="317,-0.5 317,-19.5 485,-19.5 485,-0.5 317,-0.5"/>
<text text-anchor="middle" x="401" y="-7.5" font-family="Helvetica,sans-Serif" font-size="10.00">SubsurfaceTransportCoefficients.h</text>
</a>
</g>
</g>
<!-- Node1&#45;&gt;Node6 -->
<g id="edge5" class="edge"><title>Node1&#45;&gt;Node6</title>
<path fill="none" stroke="midnightblue" d="M197.346,-56.4435C239.473,-47.0431 307.206,-31.9291 352.872,-21.7393"/>
<polygon fill="midnightblue" stroke="midnightblue" points="353.836,-25.1103 362.834,-19.5164 352.312,-18.2784 353.836,-25.1103"/>
</g>
</g>
</svg>
