<?xml version="1.0" encoding="UTF-8" standalone="no"?>
<!DOCTYPE svg PUBLIC "-//W3C//DTD SVG 1.1//EN"
 "http://www.w3.org/Graphics/SVG/1.1/DTD/svg11.dtd">
<!-- Generated by graphviz version 2.40.1 (20161225.0304)
 -->
<!-- Title: pskRelations.h Pages: 1 -->
<svg width="494pt" height="84pt"
 viewBox="0.00 0.00 494.00 84.00" xmlns="http://www.w3.org/2000/svg" xmlns:xlink="http://www.w3.org/1999/xlink">
<g id="graph0" class="graph" transform="scale(1 1) rotate(0) translate(4 80)">
<title>pskRelations.h</title>
<polygon fill="#ffffff" stroke="transparent" points="-4,4 -4,-80 490,-80 490,4 -4,4"/>
<!-- Node0 -->
<g id="node1" class="node">
<title>Node0</title>
<polygon fill="#bfbfbf" stroke="#000000" points="118,-56.5 118,-75.5 200,-75.5 200,-56.5 118,-56.5"/>
<text text-anchor="middle" x="159" y="-63.5" font-family="Helvetica,sans-Serif" font-size="10.00" fill="#000000">pskRelations.h</text>
</g>
<!-- Node1 -->
<g id="node2" class="node">
<title>Node1</title>
<polygon fill="#ffffff" stroke="#bfbfbf" points="0,-.5 0,-19.5 44,-19.5 44,-.5 0,-.5"/>
<text text-anchor="middle" x="22" y="-7.5" font-family="Helvetica,sans-Serif" font-size="10.00" fill="#000000">cmath</text>
</g>
<!-- Node0&#45;&gt;Node1 -->
<g id="edge1" class="edge">
<title>Node0&#45;&gt;Node1</title>
<path fill="none" stroke="#191970" d="M135.4489,-56.3733C112.8908,-47.1524 78.6888,-33.1721 53.7358,-22.9723"/>
<polygon fill="#191970" stroke="#191970" points="54.9175,-19.6743 44.3366,-19.1303 52.2689,-26.1539 54.9175,-19.6743"/>
</g>
<!-- Node2 -->
<g id="node3" class="node">
<title>Node2</title>
<polygon fill="#ffffff" stroke="#bfbfbf" points="62,-.5 62,-19.5 116,-19.5 116,-.5 62,-.5"/>
<text text-anchor="middle" x="89" y="-7.5" font-family="Helvetica,sans-Serif" font-size="10.00" fill="#000000">iostream</text>
</g>
<!-- Node0&#45;&gt;Node2 -->
<g id="edge2" class="edge">
<title>Node0&#45;&gt;Node2</title>
<path fill="none" stroke="#191970" d="M146.8069,-56.2455C136.3679,-47.8943 121.1345,-35.7076 108.926,-25.9408"/>
<polygon fill="#191970" stroke="#191970" points="111.0485,-23.1566 101.0533,-19.6427 106.6756,-28.6227 111.0485,-23.1566"/>
</g>
<!-- Node3 -->
<g id="node4" class="node">
<title>Node3</title>
<polygon fill="#ffffff" stroke="#bfbfbf" points="134.5,-.5 134.5,-19.5 183.5,-19.5 183.5,-.5 134.5,-.5"/>
<text text-anchor="middle" x="159" y="-7.5" font-family="Helvetica,sans-Serif" font-size="10.00" fill="#000000">cassert</text>
</g>
<!-- Node0&#45;&gt;Node3 -->
<g id="edge3" class="edge">
<title>Node0&#45;&gt;Node3</title>
<path fill="none" stroke="#191970" d="M159,-56.2455C159,-48.9382 159,-38.6944 159,-29.7046"/>
<polygon fill="#191970" stroke="#191970" points="162.5001,-29.6426 159,-19.6427 155.5001,-29.6427 162.5001,-29.6426"/>
</g>
<!-- Node4 -->
<g id="node5" class="node">
<title>Node4</title>
<g id="a_node5"><a xlink:href="density_relations_8h.html" target="_top" xlink:title="densityRelations.h">
<polygon fill="#ffffff" stroke="#000000" points="202,-.5 202,-19.5 300,-19.5 300,-.5 202,-.5"/>
<text text-anchor="middle" x="251" y="-7.5" font-family="Helvetica,sans-Serif" font-size="10.00" fill="#000000">densityRelations.h</text>
</a>
</g>
</g>
<!-- Node0&#45;&gt;Node4 -->
<g id="edge4" class="edge">
<title>Node0&#45;&gt;Node4</title>
<path fill="none" stroke="#191970" d="M175.0252,-56.2455C189.1408,-47.6534 209.9263,-35.0014 226.1899,-25.1018"/>
<polygon fill="#191970" stroke="#191970" points="228.4363,-27.8319 235.1585,-19.6427 224.7966,-21.8525 228.4363,-27.8319"/>
</g>
<!-- Node5 -->
<g id="node6" class="node">
<title>Node5</title>
<g id="a_node6"><a xlink:href="_subsurface_transport_coefficients_8h.html" target="_top" xlink:title="SubsurfaceTransportCoefficients.h">
<polygon fill="#ffffff" stroke="#000000" points="318,-.5 318,-19.5 486,-19.5 486,-.5 318,-.5"/>
<text text-anchor="middle" x="402" y="-7.5" font-family="Helvetica,sans-Serif" font-size="10.00" fill="#000000">SubsurfaceTransportCoefficients.h</text>
</a>
</g>
</g>
<!-- Node0&#45;&gt;Node5 -->
<g id="edge5" class="edge">
<title>Node0&#45;&gt;Node5</title>
<path fill="none" stroke="#191970" d="M200.2216,-56.5004C241.7644,-46.9267 305.971,-32.1301 350.7643,-21.8074"/>
<polygon fill="#191970" stroke="#191970" points="351.6176,-25.2026 360.5761,-19.5462 350.0455,-18.3814 351.6176,-25.2026"/>
</g>
</g>
</svg>
