<?xml version="1.0" encoding="UTF-8" standalone="no"?>
<!DOCTYPE svg PUBLIC "-//W3C//DTD SVG 1.1//EN"
 "http://www.w3.org/Graphics/SVG/1.1/DTD/svg11.dtd">
<!-- Generated by graphviz version 2.38.0 (20140413.2041)
 -->
<!-- Title: pskRelations.h Pages: 1 -->
<svg width="499pt" height="162pt"
 viewBox="0.00 0.00 499.00 162.00" xmlns="http://www.w3.org/2000/svg" xmlns:xlink="http://www.w3.org/1999/xlink">
<g id="graph0" class="graph" transform="scale(1 1) rotate(0) translate(4 158)">
<title>pskRelations.h</title>
<polygon fill="white" stroke="none" points="-4,4 -4,-158 495,-158 495,4 -4,4"/>
<!-- Node6 -->
<g id="node1" class="node"><title>Node6</title>
<polygon fill="#bfbfbf" stroke="black" points="179.5,-134.5 179.5,-153.5 261.5,-153.5 261.5,-134.5 179.5,-134.5"/>
<text text-anchor="middle" x="220.5" y="-141.5" font-family="Helvetica,sans-Serif" font-size="10.00">pskRelations.h</text>
</g>
<!-- Node7 -->
<g id="node2" class="node"><title>Node7</title>
<g id="a_node2"><a xlink:href="cpsk_relations_module_8cpp.html" target="_top" xlink:title="cpskRelationsModule.cpp">
<polygon fill="white" stroke="black" points="0,-73 0,-92 129,-92 129,-73 0,-73"/>
<text text-anchor="middle" x="64.5" y="-80" font-family="Helvetica,sans-Serif" font-size="10.00">cpskRelationsModule.cpp</text>
</a>
</g>
</g>
<!-- Node6&#45;&gt;Node7 -->
<g id="edge1" class="edge"><title>Node6&#45;&gt;Node7</title>
<path fill="none" stroke="midnightblue" d="M188.467,-130.782C158.152,-119.22 113.434,-102.164 86.8095,-92.0091"/>
<polygon fill="midnightblue" stroke="midnightblue" points="187.558,-134.182 198.149,-134.475 190.053,-127.641 187.558,-134.182"/>
</g>
<!-- Node8 -->
<g id="node3" class="node"><title>Node8</title>
<g id="a_node3"><a xlink:href="c_twophase_darcy_coefficients_module_8h.html" target="_top" xlink:title="cTwophaseDarcyCoefficients\lModule.h">
<polygon fill="white" stroke="black" points="147.5,-67.5 147.5,-97.5 293.5,-97.5 293.5,-67.5 147.5,-67.5"/>
<text text-anchor="start" x="155.5" y="-85.5" font-family="Helvetica,sans-Serif" font-size="10.00">cTwophaseDarcyCoefficients</text>
<text text-anchor="middle" x="220.5" y="-74.5" font-family="Helvetica,sans-Serif" font-size="10.00">Module.h</text>
</a>
</g>
</g>
<!-- Node6&#45;&gt;Node8 -->
<g id="edge2" class="edge"><title>Node6&#45;&gt;Node8</title>
<path fill="none" stroke="midnightblue" d="M220.5,-124.235C220.5,-115.586 220.5,-105.497 220.5,-97.523"/>
<polygon fill="midnightblue" stroke="midnightblue" points="217,-124.475 220.5,-134.475 224,-124.475 217,-124.475"/>
</g>
<!-- Node10 -->
<g id="node5" class="node"><title>Node10</title>
<g id="a_node5"><a xlink:href="_subsurface_transport_coefficients_8cpp.html" target="_top" xlink:title="SubsurfaceTransportCoefficients.cpp">
<polygon fill="white" stroke="black" points="312,-73 312,-92 491,-92 491,-73 312,-73"/>
<text text-anchor="middle" x="401.5" y="-80" font-family="Helvetica,sans-Serif" font-size="10.00">SubsurfaceTransportCoefficients.cpp</text>
</a>
</g>
</g>
<!-- Node6&#45;&gt;Node10 -->
<g id="edge4" class="edge"><title>Node6&#45;&gt;Node10</title>
<path fill="none" stroke="midnightblue" d="M256.298,-131.232C291.482,-119.666 344.321,-102.297 375.615,-92.0091"/>
<polygon fill="midnightblue" stroke="midnightblue" points="254.84,-128.027 246.433,-134.475 257.026,-134.677 254.84,-128.027"/>
</g>
<!-- Node9 -->
<g id="node4" class="node"><title>Node9</title>
<g id="a_node4"><a xlink:href="c_twophase_darcy_coefficients_module_8cpp.html" target="_top" xlink:title="cTwophaseDarcyCoefficients\lModule.cpp">
<polygon fill="white" stroke="black" points="147.5,-0.5 147.5,-30.5 293.5,-30.5 293.5,-0.5 147.5,-0.5"/>
<text text-anchor="start" x="155.5" y="-18.5" font-family="Helvetica,sans-Serif" font-size="10.00">cTwophaseDarcyCoefficients</text>
<text text-anchor="middle" x="220.5" y="-7.5" font-family="Helvetica,sans-Serif" font-size="10.00">Module.cpp</text>
</a>
</g>
</g>
<!-- Node8&#45;&gt;Node9 -->
<g id="edge3" class="edge"><title>Node8&#45;&gt;Node9</title>
<path fill="none" stroke="midnightblue" d="M220.5,-57.1081C220.5,-48.1539 220.5,-38.3227 220.5,-30.5765"/>
<polygon fill="midnightblue" stroke="midnightblue" points="217,-57.3959 220.5,-67.396 224,-57.396 217,-57.3959"/>
</g>
</g>
</svg>
