<?xml version="1.0" encoding="UTF-8" standalone="no"?>
<!DOCTYPE svg PUBLIC "-//W3C//DTD SVG 1.1//EN"
 "http://www.w3.org/Graphics/SVG/1.1/DTD/svg11.dtd">
<!-- Generated by graphviz version 2.40.1 (20161225.0304)
 -->
<!-- Title: pskRelations.h Pages: 1 -->
<svg width="499pt" height="162pt"
 viewBox="0.00 0.00 499.00 162.00" xmlns="http://www.w3.org/2000/svg" xmlns:xlink="http://www.w3.org/1999/xlink">
<g id="graph0" class="graph" transform="scale(1 1) rotate(0) translate(4 158)">
<title>pskRelations.h</title>
<polygon fill="#ffffff" stroke="transparent" points="-4,4 -4,-158 495,-158 495,4 -4,4"/>
<!-- Node6 -->
<g id="node1" class="node">
<title>Node6</title>
<polygon fill="#bfbfbf" stroke="#000000" points="179.5,-134.5 179.5,-153.5 261.5,-153.5 261.5,-134.5 179.5,-134.5"/>
<text text-anchor="middle" x="220.5" y="-141.5" font-family="Helvetica,sans-Serif" font-size="10.00" fill="#000000">pskRelations.h</text>
</g>
<!-- Node7 -->
<g id="node2" class="node">
<title>Node7</title>
<g id="a_node2"><a xlink:href="cpsk_relations_module_8cpp.html" target="_top" xlink:title="cpskRelationsModule.cpp">
<polygon fill="#ffffff" stroke="#000000" points="0,-73 0,-92 129,-92 129,-73 0,-73"/>
<text text-anchor="middle" x="64.5" y="-80" font-family="Helvetica,sans-Serif" font-size="10.00" fill="#000000">cpskRelationsModule.cpp</text>
</a>
</g>
</g>
<!-- Node6&#45;&gt;Node7 -->
<g id="edge1" class="edge">
<title>Node6&#45;&gt;Node7</title>
<path fill="none" stroke="#191970" d="M186.6308,-130.6477C157.0912,-119.0023 114.9658,-102.3952 88.7038,-92.0419"/>
<polygon fill="#191970" stroke="#191970" points="185.5382,-133.9791 196.125,-134.3906 188.1055,-127.4669 185.5382,-133.9791"/>
</g>
<!-- Node8 -->
<g id="node3" class="node">
<title>Node8</title>
<g id="a_node3"><a xlink:href="c_twophase_darcy_coefficients_module_8h.html" target="_top" xlink:title="cTwophaseDarcyCoefficients\lModule.h">
<polygon fill="#ffffff" stroke="#000000" points="147.5,-67.5 147.5,-97.5 293.5,-97.5 293.5,-67.5 147.5,-67.5"/>
<text text-anchor="start" x="155.5" y="-85.5" font-family="Helvetica,sans-Serif" font-size="10.00" fill="#000000">cTwophaseDarcyCoefficients</text>
<text text-anchor="middle" x="220.5" y="-74.5" font-family="Helvetica,sans-Serif" font-size="10.00" fill="#000000">Module.h</text>
</a>
</g>
</g>
<!-- Node6&#45;&gt;Node8 -->
<g id="edge2" class="edge">
<title>Node6&#45;&gt;Node8</title>
<path fill="none" stroke="#191970" d="M220.5,-124.3693C220.5,-115.681 220.5,-105.6241 220.5,-97.5446"/>
<polygon fill="#191970" stroke="#191970" points="217.0001,-124.3906 220.5,-134.3906 224.0001,-124.3907 217.0001,-124.3906"/>
</g>
<!-- Node10 -->
<g id="node5" class="node">
<title>Node10</title>
<g id="a_node5"><a xlink:href="_subsurface_transport_coefficients_8cpp.html" target="_top" xlink:title="SubsurfaceTransportCoefficients.cpp">
<polygon fill="#ffffff" stroke="#000000" points="312,-73 312,-92 491,-92 491,-73 312,-73"/>
<text text-anchor="middle" x="401.5" y="-80" font-family="Helvetica,sans-Serif" font-size="10.00" fill="#000000">SubsurfaceTransportCoefficients.cpp</text>
</a>
</g>
</g>
<!-- Node6&#45;&gt;Node10 -->
<g id="edge4" class="edge">
<title>Node6&#45;&gt;Node10</title>
<path fill="none" stroke="#191970" d="M258.4633,-131.1009C292.7924,-119.4366 342.5493,-102.5302 373.4173,-92.0419"/>
<polygon fill="#191970" stroke="#191970" points="257.1236,-127.8595 248.7813,-134.3906 259.3756,-134.4873 257.1236,-127.8595"/>
</g>
<!-- Node9 -->
<g id="node4" class="node">
<title>Node9</title>
<g id="a_node4"><a xlink:href="c_twophase_darcy_coefficients_module_8cpp.html" target="_top" xlink:title="cTwophaseDarcyCoefficients\lModule.cpp">
<polygon fill="#ffffff" stroke="#000000" points="147.5,-.5 147.5,-30.5 293.5,-30.5 293.5,-.5 147.5,-.5"/>
<text text-anchor="start" x="155.5" y="-18.5" font-family="Helvetica,sans-Serif" font-size="10.00" fill="#000000">cTwophaseDarcyCoefficients</text>
<text text-anchor="middle" x="220.5" y="-7.5" font-family="Helvetica,sans-Serif" font-size="10.00" fill="#000000">Module.cpp</text>
</a>
</g>
</g>
<!-- Node8&#45;&gt;Node9 -->
<g id="edge3" class="edge">
<title>Node8&#45;&gt;Node9</title>
<path fill="none" stroke="#191970" d="M220.5,-57.0249C220.5,-48.128 220.5,-38.4287 220.5,-30.6432"/>
<polygon fill="#191970" stroke="#191970" points="217.0001,-57.2966 220.5,-67.2967 224.0001,-57.2967 217.0001,-57.2966"/>
</g>
</g>
</svg>
