<?xml version="1.0" encoding="UTF-8" standalone="no"?>
<!DOCTYPE svg PUBLIC "-//W3C//DTD SVG 1.1//EN"
 "http://www.w3.org/Graphics/SVG/1.1/DTD/svg11.dtd">
<!-- Generated by graphviz version 2.40.1 (20161225.0304)
 -->
<!-- Title: shockCapturing.c Pages: 1 -->
<svg width="166pt" height="84pt"
 viewBox="0.00 0.00 166.00 84.00" xmlns="http://www.w3.org/2000/svg" xmlns:xlink="http://www.w3.org/1999/xlink">
<g id="graph0" class="graph" transform="scale(1 1) rotate(0) translate(4 80)">
<title>shockCapturing.c</title>
<polygon fill="#ffffff" stroke="transparent" points="-4,4 -4,-80 162,-80 162,4 -4,4"/>
<!-- Node0 -->
<g id="node1" class="node">
<title>Node0</title>
<polygon fill="#bfbfbf" stroke="#000000" points="21,-56.5 21,-75.5 114,-75.5 114,-56.5 21,-56.5"/>
<text text-anchor="middle" x="67.5" y="-63.5" font-family="Helvetica,sans-Serif" font-size="10.00" fill="#000000">shockCapturing.c</text>
</g>
<!-- Node1 -->
<g id="node2" class="node">
<title>Node1</title>
<polygon fill="#ffffff" stroke="#bfbfbf" points="0,-.5 0,-19.5 47,-19.5 47,-.5 0,-.5"/>
<text text-anchor="middle" x="23.5" y="-7.5" font-family="Helvetica,sans-Serif" font-size="10.00" fill="#000000">math.h</text>
</g>
<!-- Node0&#45;&gt;Node1 -->
<g id="edge1" class="edge">
<title>Node0&#45;&gt;Node1</title>
<path fill="none" stroke="#191970" d="M59.8358,-56.2455C53.6527,-48.3761 44.7937,-37.101 37.3711,-27.6542"/>
<polygon fill="#191970" stroke="#191970" points="40.0068,-25.3435 31.0764,-19.6427 34.5025,-29.6683 40.0068,-25.3435"/>
</g>
<!-- Node2 -->
<g id="node3" class="node">
<title>Node2</title>
<g id="a_node3"><a xlink:href="shock_capturing_8h.html" target="_top" xlink:title="C implementations of shock capturing diffusion calculations. ">
<polygon fill="#ffffff" stroke="#000000" points="65,-.5 65,-19.5 158,-19.5 158,-.5 65,-.5"/>
<text text-anchor="middle" x="111.5" y="-7.5" font-family="Helvetica,sans-Serif" font-size="10.00" fill="#000000">shockCapturing.h</text>
</a>
</g>
</g>
<!-- Node0&#45;&gt;Node2 -->
<g id="edge2" class="edge">
<title>Node0&#45;&gt;Node2</title>
<path fill="none" stroke="#191970" d="M75.1642,-56.2455C81.3473,-48.3761 90.2063,-37.101 97.6289,-27.6542"/>
<polygon fill="#191970" stroke="#191970" points="100.4975,-29.6683 103.9236,-19.6427 94.9932,-25.3435 100.4975,-29.6683"/>
</g>
</g>
</svg>
