<?xml version="1.0" encoding="UTF-8" standalone="no"?>
<!DOCTYPE svg PUBLIC "-//W3C//DTD SVG 1.1//EN"
 "http://www.w3.org/Graphics/SVG/1.1/DTD/svg11.dtd">
<!-- Generated by graphviz version 2.38.0 (20140413.2041)
 -->
<!-- Title: shockCapturing.h Pages: 1 -->
<svg width="250pt" height="84pt"
 viewBox="0.00 0.00 249.50 84.00" xmlns="http://www.w3.org/2000/svg" xmlns:xlink="http://www.w3.org/1999/xlink">
<g id="graph0" class="graph" transform="scale(1 1) rotate(0) translate(4 80)">
<title>shockCapturing.h</title>
<polygon fill="white" stroke="none" points="-4,4 -4,-80 245.5,-80 245.5,4 -4,4"/>
<!-- Node1 -->
<g id="node1" class="node"><title>Node1</title>
<polygon fill="#bfbfbf" stroke="black" points="83.5,-56.5 83.5,-75.5 176.5,-75.5 176.5,-56.5 83.5,-56.5"/>
<text text-anchor="middle" x="130" y="-63.5" font-family="Helvetica,sans-Serif" font-size="10.00">shockCapturing.h</text>
</g>
<!-- Node2 -->
<g id="node2" class="node"><title>Node2</title>
<g id="a_node2"><a xlink:href="cshock_capturing_module_8c.html" target="_top" xlink:title="cshockCapturingModule.c">
<polygon fill="white" stroke="black" points="0,-0.5 0,-19.5 130,-19.5 130,-0.5 0,-0.5"/>
<text text-anchor="middle" x="65" y="-7.5" font-family="Helvetica,sans-Serif" font-size="10.00">cshockCapturingModule.c</text>
</a>
</g>
</g>
<!-- Node1&#45;&gt;Node2 -->
<g id="edge1" class="edge"><title>Node1&#45;&gt;Node2</title>
<path fill="none" stroke="midnightblue" d="M111.727,-49.8197C100.082,-40.1452 85.4005,-27.9481 75.6334,-19.8339"/>
<polygon fill="midnightblue" stroke="midnightblue" points="109.628,-52.6259 119.557,-56.324 114.101,-47.2416 109.628,-52.6259"/>
</g>
<!-- Node3 -->
<g id="node3" class="node"><title>Node3</title>
<g id="a_node3"><a xlink:href="shock_capturing_8c.html" target="_top" xlink:title="shockCapturing.c">
<polygon fill="white" stroke="black" points="148.5,-0.5 148.5,-19.5 241.5,-19.5 241.5,-0.5 148.5,-0.5"/>
<text text-anchor="middle" x="195" y="-7.5" font-family="Helvetica,sans-Serif" font-size="10.00">shockCapturing.c</text>
</a>
</g>
</g>
<!-- Node1&#45;&gt;Node3 -->
<g id="edge2" class="edge"><title>Node1&#45;&gt;Node3</title>
<path fill="none" stroke="midnightblue" d="M148.273,-49.8197C159.918,-40.1452 174.599,-27.9481 184.367,-19.8339"/>
<polygon fill="midnightblue" stroke="midnightblue" points="145.899,-47.2416 140.443,-56.324 150.372,-52.6259 145.899,-47.2416"/>
</g>
</g>
</svg>
