<?xml version="1.0" encoding="UTF-8" standalone="no"?>
<!DOCTYPE svg PUBLIC "-//W3C//DTD SVG 1.1//EN"
 "http://www.w3.org/Graphics/SVG/1.1/DTD/svg11.dtd">
<!-- Generated by graphviz version 2.40.1 (20161225.0304)
 -->
<!-- Title: shockCapturing.h Pages: 1 -->
<svg width="250pt" height="84pt"
 viewBox="0.00 0.00 249.50 84.00" xmlns="http://www.w3.org/2000/svg" xmlns:xlink="http://www.w3.org/1999/xlink">
<g id="graph0" class="graph" transform="scale(1 1) rotate(0) translate(4 80)">
<title>shockCapturing.h</title>
<polygon fill="#ffffff" stroke="transparent" points="-4,4 -4,-80 245.5,-80 245.5,4 -4,4"/>
<!-- Node1 -->
<g id="node1" class="node">
<title>Node1</title>
<polygon fill="#bfbfbf" stroke="#000000" points="83.5,-56.5 83.5,-75.5 176.5,-75.5 176.5,-56.5 83.5,-56.5"/>
<text text-anchor="middle" x="130" y="-63.5" font-family="Helvetica,sans-Serif" font-size="10.00" fill="#000000">shockCapturing.h</text>
</g>
<!-- Node2 -->
<g id="node2" class="node">
<title>Node2</title>
<g id="a_node2"><a xlink:href="cshock_capturing_module_8c.html" target="_top" xlink:title="cshockCapturingModule.c">
<polygon fill="#ffffff" stroke="#000000" points="0,-.5 0,-19.5 130,-19.5 130,-.5 0,-.5"/>
<text text-anchor="middle" x="65" y="-7.5" font-family="Helvetica,sans-Serif" font-size="10.00" fill="#000000">cshockCapturingModule.c</text>
</a>
</g>
</g>
<!-- Node1&#45;&gt;Node2 -->
<g id="edge1" class="edge">
<title>Node1&#45;&gt;Node2</title>
<path fill="none" stroke="#191970" d="M111.0165,-49.645C99.7121,-39.9058 85.753,-27.8795 76.1924,-19.6427"/>
<polygon fill="#191970" stroke="#191970" points="108.8173,-52.3701 118.6779,-56.2455 113.3862,-47.0668 108.8173,-52.3701"/>
</g>
<!-- Node3 -->
<g id="node3" class="node">
<title>Node3</title>
<g id="a_node3"><a xlink:href="shock_capturing_8c.html" target="_top" xlink:title="shockCapturing.c">
<polygon fill="#ffffff" stroke="#000000" points="148.5,-.5 148.5,-19.5 241.5,-19.5 241.5,-.5 148.5,-.5"/>
<text text-anchor="middle" x="195" y="-7.5" font-family="Helvetica,sans-Serif" font-size="10.00" fill="#000000">shockCapturing.c</text>
</a>
</g>
</g>
<!-- Node1&#45;&gt;Node3 -->
<g id="edge2" class="edge">
<title>Node1&#45;&gt;Node3</title>
<path fill="none" stroke="#191970" d="M148.9835,-49.645C160.2879,-39.9058 174.247,-27.8795 183.8076,-19.6427"/>
<polygon fill="#191970" stroke="#191970" points="146.6138,-47.0668 141.3221,-56.2455 151.1827,-52.3701 146.6138,-47.0668"/>
</g>
</g>
</svg>
