<?xml version="1.0" encoding="UTF-8" standalone="no"?>
<!DOCTYPE svg PUBLIC "-//W3C//DTD SVG 1.1//EN"
 "http://www.w3.org/Graphics/SVG/1.1/DTD/svg11.dtd">
<!-- Generated by graphviz version 2.40.1 (20161225.0304)
 -->
<!-- Title: smoothers.h Pages: 1 -->
<svg width="204pt" height="84pt"
 viewBox="0.00 0.00 204.00 84.00" xmlns="http://www.w3.org/2000/svg" xmlns:xlink="http://www.w3.org/1999/xlink">
<g id="graph0" class="graph" transform="scale(1 1) rotate(0) translate(4 80)">
<title>smoothers.h</title>
<polygon fill="#ffffff" stroke="transparent" points="-4,4 -4,-80 200,-80 200,4 -4,4"/>
<!-- Node2 -->
<g id="node1" class="node">
<title>Node2</title>
<polygon fill="#bfbfbf" stroke="#000000" points="71,-56.5 71,-75.5 142,-75.5 142,-56.5 71,-56.5"/>
<text text-anchor="middle" x="106.5" y="-63.5" font-family="Helvetica,sans-Serif" font-size="10.00" fill="#000000">smoothers.h</text>
</g>
<!-- Node3 -->
<g id="node2" class="node">
<title>Node3</title>
<g id="a_node2"><a xlink:href="csmoothers_module_8c.html" target="_top" xlink:title="csmoothersModule.c">
<polygon fill="#ffffff" stroke="#000000" points="0,-.5 0,-19.5 107,-19.5 107,-.5 0,-.5"/>
<text text-anchor="middle" x="53.5" y="-7.5" font-family="Helvetica,sans-Serif" font-size="10.00" fill="#000000">csmoothersModule.c</text>
</a>
</g>
</g>
<!-- Node2&#45;&gt;Node3 -->
<g id="edge1" class="edge">
<title>Node2&#45;&gt;Node3</title>
<path fill="none" stroke="#191970" d="M90.2104,-48.7884C81.1438,-39.2085 70.1946,-27.6396 62.6261,-19.6427"/>
<polygon fill="#191970" stroke="#191970" points="87.8522,-51.3884 97.2681,-56.2455 92.9363,-46.5767 87.8522,-51.3884"/>
</g>
<!-- Node4 -->
<g id="node3" class="node">
<title>Node4</title>
<g id="a_node3"><a xlink:href="smoothers_8c.html" target="_top" xlink:title="smoothers.c">
<polygon fill="#ffffff" stroke="#000000" points="125,-.5 125,-19.5 196,-19.5 196,-.5 125,-.5"/>
<text text-anchor="middle" x="160.5" y="-7.5" font-family="Helvetica,sans-Serif" font-size="10.00" fill="#000000">smoothers.c</text>
</a>
</g>
</g>
<!-- Node2&#45;&gt;Node4 -->
<g id="edge2" class="edge">
<title>Node2&#45;&gt;Node4</title>
<path fill="none" stroke="#191970" d="M123.0969,-48.7884C132.3347,-39.2085 143.4904,-27.6396 151.2017,-19.6427"/>
<polygon fill="#191970" stroke="#191970" points="120.328,-46.6176 115.9061,-56.2455 125.3669,-51.4766 120.328,-46.6176"/>
</g>
</g>
</svg>
