<?xml version="1.0" encoding="UTF-8" standalone="no"?>
<!DOCTYPE svg PUBLIC "-//W3C//DTD SVG 1.1//EN"
 "http://www.w3.org/Graphics/SVG/1.1/DTD/svg11.dtd">
<!-- Generated by graphviz version 2.40.1 (20161225.0304)
 -->
<!-- Title: smoothers.c Pages: 1 -->
<svg width="276pt" height="140pt"
 viewBox="0.00 0.00 276.00 140.00" xmlns="http://www.w3.org/2000/svg" xmlns:xlink="http://www.w3.org/1999/xlink">
<g id="graph0" class="graph" transform="scale(1 1) rotate(0) translate(4 136)">
<title>smoothers.c</title>
<polygon fill="#ffffff" stroke="transparent" points="-4,4 -4,-136 272,-136 272,4 -4,4"/>
<!-- Node0 -->
<g id="node1" class="node">
<title>Node0</title>
<polygon fill="#bfbfbf" stroke="#000000" points="86,-112.5 86,-131.5 157,-131.5 157,-112.5 86,-112.5"/>
<text text-anchor="middle" x="121.5" y="-119.5" font-family="Helvetica,sans-Serif" font-size="10.00" fill="#000000">smoothers.c</text>
</g>
<!-- Node1 -->
<g id="node2" class="node">
<title>Node1</title>
<polygon fill="#ffffff" stroke="#bfbfbf" points="0,-56.5 0,-75.5 47,-75.5 47,-56.5 0,-56.5"/>
<text text-anchor="middle" x="23.5" y="-63.5" font-family="Helvetica,sans-Serif" font-size="10.00" fill="#000000">math.h</text>
</g>
<!-- Node0&#45;&gt;Node1 -->
<g id="edge1" class="edge">
<title>Node0&#45;&gt;Node1</title>
<path fill="none" stroke="#191970" d="M104.4297,-112.2455C89.253,-103.5731 66.8379,-90.7645 49.4437,-80.825"/>
<polygon fill="#191970" stroke="#191970" points="50.7936,-77.5653 40.3747,-75.6427 47.3206,-83.643 50.7936,-77.5653"/>
</g>
<!-- Node2 -->
<g id="node3" class="node">
<title>Node2</title>
<polygon fill="#ffffff" stroke="#bfbfbf" points="65.5,-56.5 65.5,-75.5 111.5,-75.5 111.5,-56.5 65.5,-56.5"/>
<text text-anchor="middle" x="88.5" y="-63.5" font-family="Helvetica,sans-Serif" font-size="10.00" fill="#000000">stdio.h</text>
</g>
<!-- Node0&#45;&gt;Node2 -->
<g id="edge2" class="edge">
<title>Node0&#45;&gt;Node2</title>
<path fill="none" stroke="#191970" d="M115.7518,-112.2455C111.2565,-104.617 104.8752,-93.7881 99.4175,-84.5267"/>
<polygon fill="#191970" stroke="#191970" points="102.2747,-82.4811 94.1823,-75.6427 96.2439,-86.035 102.2747,-82.4811"/>
</g>
<!-- Node3 -->
<g id="node4" class="node">
<title>Node3</title>
<polygon fill="#ffffff" stroke="#bfbfbf" points="130,-56.5 130,-75.5 179,-75.5 179,-56.5 130,-56.5"/>
<text text-anchor="middle" x="154.5" y="-63.5" font-family="Helvetica,sans-Serif" font-size="10.00" fill="#000000">string.h</text>
</g>
<!-- Node0&#45;&gt;Node3 -->
<g id="edge3" class="edge">
<title>Node0&#45;&gt;Node3</title>
<path fill="none" stroke="#191970" d="M127.2482,-112.2455C131.7435,-104.617 138.1248,-93.7881 143.5825,-84.5267"/>
<polygon fill="#191970" stroke="#191970" points="146.7561,-86.035 148.8177,-75.6427 140.7253,-82.4811 146.7561,-86.035"/>
</g>
<!-- Node4 -->
<g id="node5" class="node">
<title>Node4</title>
<g id="a_node5"><a xlink:href="smoothers_8h.html" target="_top" xlink:title="C implementations of multilevel smoother algorithms. ">
<polygon fill="#ffffff" stroke="#000000" points="197,-56.5 197,-75.5 268,-75.5 268,-56.5 197,-56.5"/>
<text text-anchor="middle" x="232.5" y="-63.5" font-family="Helvetica,sans-Serif" font-size="10.00" fill="#000000">smoothers.h</text>
</a>
</g>
</g>
<!-- Node0&#45;&gt;Node4 -->
<g id="edge4" class="edge">
<title>Node0&#45;&gt;Node4</title>
<path fill="none" stroke="#191970" d="M140.5816,-112.3733C158.2402,-103.4644 184.7053,-90.1127 204.7098,-80.0203"/>
<polygon fill="#191970" stroke="#191970" points="206.3158,-83.1303 213.6674,-75.5011 203.1628,-76.8806 206.3158,-83.1303"/>
</g>
<!-- Node5 -->
<g id="node6" class="node">
<title>Node5</title>
<polygon fill="#ffffff" stroke="#bfbfbf" points="199,-.5 199,-19.5 266,-19.5 266,-.5 199,-.5"/>
<text text-anchor="middle" x="232.5" y="-7.5" font-family="Helvetica,sans-Serif" font-size="10.00" fill="#000000">slu_ddefs.h</text>
</g>
<!-- Node4&#45;&gt;Node5 -->
<g id="edge5" class="edge">
<title>Node4&#45;&gt;Node5</title>
<path fill="none" stroke="#191970" d="M232.5,-56.2455C232.5,-48.9382 232.5,-38.6944 232.5,-29.7046"/>
<polygon fill="#191970" stroke="#191970" points="236.0001,-29.6426 232.5,-19.6427 229.0001,-29.6427 236.0001,-29.6426"/>
</g>
</g>
</svg>
