<?xml version="1.0" encoding="UTF-8" standalone="no"?>
<!DOCTYPE svg PUBLIC "-//W3C//DTD SVG 1.1//EN"
 "http://www.w3.org/Graphics/SVG/1.1/DTD/svg11.dtd">
<!-- Generated by graphviz version 2.42.3 (0)
 -->
<!-- Title: smoothers.c Pages: 1 -->
<svg width="294pt" height="140pt"
 viewBox="0.00 0.00 294.00 140.00" xmlns="http://www.w3.org/2000/svg" xmlns:xlink="http://www.w3.org/1999/xlink">
<g id="graph0" class="graph" transform="scale(1 1) rotate(0) translate(4 136)">
<title>smoothers.c</title>
<polygon fill="white" stroke="transparent" points="-4,4 -4,-136 290,-136 290,4 -4,4"/>
<!-- Node1 -->
<g id="node1" class="node">
<title>Node1</title>
<g id="a_node1"><a xlink:title=" ">
<polygon fill="#bfbfbf" stroke="black" points="91,-112.5 91,-131.5 168,-131.5 168,-112.5 91,-112.5"/>
<text text-anchor="middle" x="129.5" y="-119.5" font-family="Helvetica,sans-Serif" font-size="10.00">smoothers.c</text>
</a>
</g>
</g>
<!-- Node2 -->
<g id="node2" class="node">
<title>Node2</title>
<g id="a_node2"><a xlink:title=" ">
<polygon fill="white" stroke="#bfbfbf" points="0,-56.5 0,-75.5 51,-75.5 51,-56.5 0,-56.5"/>
<text text-anchor="middle" x="25.5" y="-63.5" font-family="Helvetica,sans-Serif" font-size="10.00">math.h</text>
</a>
</g>
</g>
<!-- Node1&#45;&gt;Node2 -->
<g id="edge1" class="edge">
<title>Node1&#45;&gt;Node2</title>
<path fill="none" stroke="midnightblue" d="M112.79,-112.32C96.19,-103.7 70.5,-90.36 51.28,-80.39"/>
<polygon fill="midnightblue" stroke="midnightblue" points="52.66,-77.16 42.17,-75.65 49.43,-83.37 52.66,-77.16"/>
</g>
<!-- Node3 -->
<g id="node3" class="node">
<title>Node3</title>
<g id="a_node3"><a xlink:title=" ">
<polygon fill="white" stroke="#bfbfbf" points="69.5,-56.5 69.5,-75.5 119.5,-75.5 119.5,-56.5 69.5,-56.5"/>
<text text-anchor="middle" x="94.5" y="-63.5" font-family="Helvetica,sans-Serif" font-size="10.00">stdio.h</text>
</a>
</g>
</g>
<!-- Node1&#45;&gt;Node3 -->
<g id="edge2" class="edge">
<title>Node1&#45;&gt;Node3</title>
<path fill="none" stroke="midnightblue" d="M123.72,-112.08C118.83,-104.53 111.67,-93.49 105.67,-84.23"/>
<polygon fill="midnightblue" stroke="midnightblue" points="108.55,-82.24 100.17,-75.75 102.67,-86.05 108.55,-82.24"/>
</g>
<!-- Node4 -->
<g id="node4" class="node">
<title>Node4</title>
<g id="a_node4"><a xlink:title=" ">
<polygon fill="white" stroke="#bfbfbf" points="138,-56.5 138,-75.5 191,-75.5 191,-56.5 138,-56.5"/>
<text text-anchor="middle" x="164.5" y="-63.5" font-family="Helvetica,sans-Serif" font-size="10.00">string.h</text>
</a>
</g>
</g>
<!-- Node1&#45;&gt;Node4 -->
<g id="edge3" class="edge">
<title>Node1&#45;&gt;Node4</title>
<path fill="none" stroke="midnightblue" d="M135.28,-112.08C140.17,-104.53 147.33,-93.49 153.33,-84.23"/>
<polygon fill="midnightblue" stroke="midnightblue" points="156.33,-86.05 158.83,-75.75 150.45,-82.24 156.33,-86.05"/>
</g>
<!-- Node5 -->
<g id="node5" class="node">
<title>Node5</title>
<g id="a_node5"><a xlink:href="smoothers_8h.html" target="_top" xlink:title="C implementations of multilevel smoother algorithms.">
<polygon fill="white" stroke="black" points="209,-56.5 209,-75.5 286,-75.5 286,-56.5 209,-56.5"/>
<text text-anchor="middle" x="247.5" y="-63.5" font-family="Helvetica,sans-Serif" font-size="10.00">smoothers.h</text>
</a>
</g>
</g>
<!-- Node1&#45;&gt;Node5 -->
<g id="edge4" class="edge">
<title>Node1&#45;&gt;Node5</title>
<path fill="none" stroke="midnightblue" d="M148.2,-112.44C167.44,-103.64 197.65,-89.81 219.7,-79.72"/>
<polygon fill="midnightblue" stroke="midnightblue" points="221.25,-82.86 228.89,-75.52 218.34,-76.5 221.25,-82.86"/>
</g>
<!-- Node6 -->
<g id="node6" class="node">
<title>Node6</title>
<g id="a_node6"><a xlink:title=" ">
<polygon fill="white" stroke="#bfbfbf" points="211.5,-0.5 211.5,-19.5 283.5,-19.5 283.5,-0.5 211.5,-0.5"/>
<text text-anchor="middle" x="247.5" y="-7.5" font-family="Helvetica,sans-Serif" font-size="10.00">slu_ddefs.h</text>
</a>
</g>
</g>
<!-- Node5&#45;&gt;Node6 -->
<g id="edge5" class="edge">
<title>Node5&#45;&gt;Node6</title>
<path fill="none" stroke="midnightblue" d="M247.5,-56.08C247.5,-49.01 247.5,-38.86 247.5,-29.99"/>
<polygon fill="midnightblue" stroke="midnightblue" points="251,-29.75 247.5,-19.75 244,-29.75 251,-29.75"/>
</g>
</g>
</svg>
