<?xml version="1.0" encoding="UTF-8" standalone="no"?>
<!DOCTYPE svg PUBLIC "-//W3C//DTD SVG 1.1//EN"
 "http://www.w3.org/Graphics/SVG/1.1/DTD/svg11.dtd">
<!-- Generated by graphviz version 2.42.3 (0)
 -->
<!-- Title: MultilevelMesh Pages: 1 -->
<svg width="158pt" height="95pt"
 viewBox="0.00 0.00 157.50 95.00" xmlns="http://www.w3.org/2000/svg" xmlns:xlink="http://www.w3.org/1999/xlink">
<g id="graph0" class="graph" transform="scale(1 1) rotate(0) translate(4 91)">
<title>MultilevelMesh</title>
<polygon fill="white" stroke="transparent" points="-4,4 -4,-91 153.5,-91 153.5,4 -4,4"/>
<!-- Node1 -->
<g id="node1" class="node">
<title>Node1</title>
<g id="a_node1"><a xlink:title=" ">
<polygon fill="#bfbfbf" stroke="black" points="0,-0.5 0,-19.5 92,-19.5 92,-0.5 0,-0.5"/>
<text text-anchor="middle" x="46" y="-7.5" font-family="Helvetica,sans-Serif" font-size="10.00">MultilevelMesh</text>
</a>
</g>
</g>
<!-- Node2 -->
<g id="node2" class="node">
<title>Node2</title>
<g id="a_node2"><a xlink:href="struct_mesh.html" target="_top" xlink:title=" ">
<polygon fill="white" stroke="black" points="24.5,-67.5 24.5,-86.5 67.5,-86.5 67.5,-67.5 24.5,-67.5"/>
<text text-anchor="middle" x="46" y="-74.5" font-family="Helvetica,sans-Serif" font-size="10.00">Mesh</text>
</a>
</g>
</g>
<!-- Node2&#45;&gt;Node1 -->
<g id="edge1" class="edge">
<title>Node2&#45;&gt;Node1</title>
<path fill="none" stroke="#9a32cd" stroke-dasharray="5,2" d="M46,-57.04C46,-44.67 46,-29.12 46,-19.63"/>
<polygon fill="#9a32cd" stroke="#9a32cd" points="42.5,-57.23 46,-67.23 49.5,-57.23 42.5,-57.23"/>
<text text-anchor="middle" x="74.5" y="-41" font-family="Helvetica,sans-Serif" font-size="10.00"> meshArray</text>
</g>
<!-- Node2&#45;&gt;Node2 -->
<g id="edge2" class="edge">
<title>Node2&#45;&gt;Node2</title>
<path fill="none" stroke="#9a32cd" stroke-dasharray="5,2" d="M77.81,-82.41C82.41,-81.54 85.5,-79.74 85.5,-77 85.5,-72.5 77.17,-70.53 67.53,-71.09"/>
<polygon fill="#9a32cd" stroke="#9a32cd" points="77.35,-78.92 67.53,-82.91 77.69,-85.92 77.35,-78.92"/>
<text text-anchor="middle" x="117.5" y="-74.5" font-family="Helvetica,sans-Serif" font-size="10.00"> subdomainp</text>
</g>
</g>
</svg>
