<?xml version="1.0" encoding="UTF-8" standalone="no"?>
<!DOCTYPE svg PUBLIC "-//W3C//DTD SVG 1.1//EN"
 "http://www.w3.org/Graphics/SVG/1.1/DTD/svg11.dtd">
<!-- Generated by graphviz version 2.38.0 (20140413.2041)
 -->
<!-- Title: FMMEikonalSolver_wrapper Pages: 1 -->
<svg width="553pt" height="162pt"
 viewBox="0.00 0.00 552.50 162.00" xmlns="http://www.w3.org/2000/svg" xmlns:xlink="http://www.w3.org/1999/xlink">
<g id="graph0" class="graph" transform="scale(1 1) rotate(0) translate(4 158)">
<title>FMMEikonalSolver_wrapper</title>
<polygon fill="white" stroke="none" points="-4,4 -4,-158 548.5,-158 548.5,4 -4,4"/>
<!-- Node1 -->
<g id="node1" class="node"><title>Node1</title>
<polygon fill="#bfbfbf" stroke="black" points="218.5,-0.5 218.5,-19.5 357.5,-19.5 357.5,-0.5 218.5,-0.5"/>
<text text-anchor="middle" x="288" y="-7.5" font-family="Helvetica,sans-Serif" font-size="10.00">FMMEikonalSolver_wrapper</text>
</g>
<!-- Node2 -->
<g id="node2" class="node"><title>Node2</title>
<g id="a_node2"><a xlink:href="class_f_m_m_eikonal_solver_base.html" target="_top" xlink:title="FMMEikonalSolverBase">
<polygon fill="white" stroke="black" points="227,-67.5 227,-86.5 349,-86.5 349,-67.5 227,-67.5"/>
<text text-anchor="middle" x="288" y="-74.5" font-family="Helvetica,sans-Serif" font-size="10.00">FMMEikonalSolverBase</text>
</a>
</g>
</g>
<!-- Node2&#45;&gt;Node1 -->
<g id="edge1" class="edge"><title>Node2&#45;&gt;Node1</title>
<path fill="none" stroke="#9a32cd" stroke-dasharray="5,2" d="M288,-57.037C288,-44.6703 288,-29.1198 288,-19.6273"/>
<polygon fill="#9a32cd" stroke="#9a32cd" points="284.5,-57.2338 288,-67.2338 291.5,-57.2338 284.5,-57.2338"/>
<text text-anchor="middle" x="317" y="-41" font-family="Helvetica,sans-Serif" font-size="10.00"> pFMMsolver</text>
</g>
<!-- Node3 -->
<g id="node3" class="node"><title>Node3</title>
<g id="a_node3"><a xlink:href="class_unstructured_local_upwind_solvers.html" target="_top" xlink:title="UnstructuredLocalUpwindSolvers">
<polygon fill="white" stroke="black" points="0,-134.5 0,-153.5 162,-153.5 162,-134.5 0,-134.5"/>
<text text-anchor="middle" x="81" y="-141.5" font-family="Helvetica,sans-Serif" font-size="10.00">UnstructuredLocalUpwindSolvers</text>
</a>
</g>
</g>
<!-- Node3&#45;&gt;Node2 -->
<g id="edge2" class="edge"><title>Node3&#45;&gt;Node2</title>
<path fill="none" stroke="#9a32cd" stroke-dasharray="5,2" d="M114.535,-131.131C136.712,-123.404 166.48,-113.262 193,-105 213.954,-98.4722 237.704,-91.7222 256.215,-86.6041"/>
<polygon fill="#9a32cd" stroke="#9a32cd" points="113.201,-127.89 104.919,-134.496 115.514,-134.497 113.201,-127.89"/>
<text text-anchor="middle" x="221.5" y="-108" font-family="Helvetica,sans-Serif" font-size="10.00"> localSolvers</text>
</g>
<!-- Node4 -->
<g id="node4" class="node"><title>Node4</title>
<polygon fill="white" stroke="#bfbfbf" points="180,-134.5 180,-153.5 272,-153.5 272,-134.5 180,-134.5"/>
<text text-anchor="middle" x="226" y="-141.5" font-family="Helvetica,sans-Serif" font-size="10.00">std::vector&lt; int &gt;</text>
</g>
<!-- Node4&#45;&gt;Node2 -->
<g id="edge3" class="edge"><title>Node4&#45;&gt;Node2</title>
<path fill="none" stroke="#9a32cd" stroke-dasharray="5,2" d="M241.265,-126.997C253.423,-114.25 269.977,-96.8947 279.771,-86.6273"/>
<polygon fill="#9a32cd" stroke="#9a32cd" points="238.731,-124.582 234.362,-134.234 243.796,-129.413 238.731,-124.582"/>
<text text-anchor="middle" x="278" y="-108" font-family="Helvetica,sans-Serif" font-size="10.00"> Known</text>
</g>
<!-- Node5 -->
<g id="node5" class="node"><title>Node5</title>
<polygon fill="white" stroke="#bfbfbf" points="290.5,-134.5 290.5,-153.5 411.5,-153.5 411.5,-134.5 290.5,-134.5"/>
<text text-anchor="middle" x="351" y="-141.5" font-family="Helvetica,sans-Serif" font-size="10.00">std::vector&lt; STATUS &gt;</text>
</g>
<!-- Node5&#45;&gt;Node2 -->
<g id="edge4" class="edge"><title>Node5&#45;&gt;Node2</title>
<path fill="none" stroke="#9a32cd" stroke-dasharray="5,2" d="M335.489,-126.997C323.134,-114.25 306.313,-96.8947 296.362,-86.6273"/>
<polygon fill="#9a32cd" stroke="#9a32cd" points="333.031,-129.489 342.504,-134.234 338.057,-124.617 333.031,-129.489"/>
<text text-anchor="middle" x="340" y="-108" font-family="Helvetica,sans-Serif" font-size="10.00"> Status</text>
</g>
<!-- Node6 -->
<g id="node6" class="node"><title>Node6</title>
<g id="a_node6"><a xlink:href="struct_mesh.html" target="_top" xlink:title="Mesh">
<polygon fill="white" stroke="black" points="429.5,-134.5 429.5,-153.5 470.5,-153.5 470.5,-134.5 429.5,-134.5"/>
<text text-anchor="middle" x="450" y="-141.5" font-family="Helvetica,sans-Serif" font-size="10.00">Mesh</text>
</a>
</g>
</g>
<!-- Node6&#45;&gt;Node2 -->
<g id="edge5" class="edge"><title>Node6&#45;&gt;Node2</title>
<path fill="none" stroke="#9a32cd" stroke-dasharray="5,2" d="M420.766,-130.301C403.22,-122.769 380.415,-113.134 360,-105 343.878,-98.5765 325.563,-91.7143 311.439,-86.5154"/>
<polygon fill="#9a32cd" stroke="#9a32cd" points="419.863,-133.723 430.431,-134.466 422.633,-127.294 419.863,-133.723"/>
<text text-anchor="middle" x="399" y="-108" font-family="Helvetica,sans-Serif" font-size="10.00"> mesh</text>
</g>
<!-- Node6&#45;&gt;Node6 -->
<g id="edge6" class="edge"><title>Node6&#45;&gt;Node6</title>
<path fill="none" stroke="#9a32cd" stroke-dasharray="5,2" d="M480.816,-149.442C485.4,-148.594 488.5,-146.78 488.5,-144 488.5,-139.438 480.152,-137.477 470.597,-138.119"/>
<polygon fill="#9a32cd" stroke="#9a32cd" points="480.437,-145.955 470.597,-149.881 480.738,-152.949 480.437,-145.955"/>
<text text-anchor="middle" x="516.5" y="-141.5" font-family="Helvetica,sans-Serif" font-size="10.00"> subdomainp</text>
</g>
</g>
</svg>
