<?xml version="1.0" encoding="UTF-8" standalone="no"?>
<!DOCTYPE svg PUBLIC "-//W3C//DTD SVG 1.1//EN"
 "http://www.w3.org/Graphics/SVG/1.1/DTD/svg11.dtd">
<!-- Generated by graphviz version 2.40.1 (20161225.0304)
 -->
<!-- Title: CMultilevelMesh Pages: 1 -->
<svg width="147pt" height="162pt"
 viewBox="0.00 0.00 147.00 162.00" xmlns="http://www.w3.org/2000/svg" xmlns:xlink="http://www.w3.org/1999/xlink">
<g id="graph0" class="graph" transform="scale(1 1) rotate(0) translate(4 158)">
<title>CMultilevelMesh</title>
<polygon fill="#ffffff" stroke="transparent" points="-4,4 -4,-158 143,-158 143,4 -4,4"/>
<!-- Node1 -->
<g id="node1" class="node">
<title>Node1</title>
<polygon fill="#bfbfbf" stroke="#000000" points="0,-.5 0,-19.5 89,-19.5 89,-.5 0,-.5"/>
<text text-anchor="middle" x="44.5" y="-7.5" font-family="Helvetica,sans-Serif" font-size="10.00" fill="#000000">CMultilevelMesh</text>
</g>
<!-- Node2 -->
<g id="node2" class="node">
<title>Node2</title>
<g id="a_node2"><a xlink:href="struct_multilevel_mesh.html" target="_top" xlink:title="MultilevelMesh">
<polygon fill="#ffffff" stroke="#000000" points="3.5,-67.5 3.5,-86.5 85.5,-86.5 85.5,-67.5 3.5,-67.5"/>
<text text-anchor="middle" x="44.5" y="-74.5" font-family="Helvetica,sans-Serif" font-size="10.00" fill="#000000">MultilevelMesh</text>
</a>
</g>
</g>
<!-- Node2&#45;&gt;Node1 -->
<g id="edge1" class="edge">
<title>Node2&#45;&gt;Node1</title>
<path fill="none" stroke="#9a32cd" stroke-dasharray="5,2" d="M44.5,-57.1079C44.5,-44.714 44.5,-29.3263 44.5,-19.5817"/>
<polygon fill="#9a32cd" stroke="#9a32cd" points="41.0001,-57.4005 44.5,-67.4005 48.0001,-57.4006 41.0001,-57.4005"/>
<text text-anchor="middle" x="79" y="-41" font-family="Helvetica,sans-Serif" font-size="10.00" fill="#000000"> multilevelMesh</text>
</g>
<!-- Node3 -->
<g id="node3" class="node">
<title>Node3</title>
<g id="a_node3"><a xlink:href="struct_mesh.html" target="_top" xlink:title="Mesh">
<polygon fill="#ffffff" stroke="#000000" points="24,-134.5 24,-153.5 65,-153.5 65,-134.5 24,-134.5"/>
<text text-anchor="middle" x="44.5" y="-141.5" font-family="Helvetica,sans-Serif" font-size="10.00" fill="#000000">Mesh</text>
</a>
</g>
</g>
<!-- Node3&#45;&gt;Node2 -->
<g id="edge2" class="edge">
<title>Node3&#45;&gt;Node2</title>
<path fill="none" stroke="#9a32cd" stroke-dasharray="5,2" d="M44.5,-124.1079C44.5,-111.714 44.5,-96.3263 44.5,-86.5817"/>
<polygon fill="#9a32cd" stroke="#9a32cd" points="41.0001,-124.4005 44.5,-134.4005 48.0001,-124.4006 41.0001,-124.4005"/>
<text text-anchor="middle" x="70" y="-108" font-family="Helvetica,sans-Serif" font-size="10.00" fill="#000000"> meshArray</text>
</g>
<!-- Node3&#45;&gt;Node3 -->
<g id="edge3" class="edge">
<title>Node3&#45;&gt;Node3</title>
<path fill="none" stroke="#9a32cd" stroke-dasharray="5,2" d="M75.316,-149.4421C79.9,-148.5943 83,-146.7803 83,-144 83,-139.4375 74.6518,-137.4771 65.0969,-138.1187"/>
<polygon fill="#9a32cd" stroke="#9a32cd" points="74.9374,-145.955 65.0969,-149.8813 75.238,-152.9486 74.9374,-145.955"/>
<text text-anchor="middle" x="111" y="-141.5" font-family="Helvetica,sans-Serif" font-size="10.00" fill="#000000"> subdomainp</text>
</g>
</g>
</svg>
