<?xml version="1.0" encoding="UTF-8" standalone="no"?>
<!DOCTYPE svg PUBLIC "-//W3C//DTD SVG 1.1//EN"
 "http://www.w3.org/Graphics/SVG/1.1/DTD/svg11.dtd">
<!-- Generated by graphviz version 2.40.1 (20161225.0304)
 -->
<!-- Title: CMesh Pages: 1 -->
<svg width="127pt" height="95pt"
 viewBox="0.00 0.00 126.50 95.00" xmlns="http://www.w3.org/2000/svg" xmlns:xlink="http://www.w3.org/1999/xlink">
<g id="graph0" class="graph" transform="scale(1 1) rotate(0) translate(4 91)">
<title>CMesh</title>
<polygon fill="#ffffff" stroke="transparent" points="-4,4 -4,-91 122.5,-91 122.5,4 -4,4"/>
<!-- Node1 -->
<g id="node1" class="node">
<title>Node1</title>
<polygon fill="#bfbfbf" stroke="#000000" points="0,-.5 0,-19.5 48,-19.5 48,-.5 0,-.5"/>
<text text-anchor="middle" x="24" y="-7.5" font-family="Helvetica,sans-Serif" font-size="10.00" fill="#000000">CMesh</text>
</g>
<!-- Node2 -->
<g id="node2" class="node">
<title>Node2</title>
<g id="a_node2"><a xlink:href="struct_mesh.html" target="_top" xlink:title="Mesh">
<polygon fill="#ffffff" stroke="#000000" points="3.5,-67.5 3.5,-86.5 44.5,-86.5 44.5,-67.5 3.5,-67.5"/>
<text text-anchor="middle" x="24" y="-74.5" font-family="Helvetica,sans-Serif" font-size="10.00" fill="#000000">Mesh</text>
</a>
</g>
</g>
<!-- Node2&#45;&gt;Node1 -->
<g id="edge1" class="edge">
<title>Node2&#45;&gt;Node1</title>
<path fill="none" stroke="#9a32cd" stroke-dasharray="5,2" d="M24,-57.1079C24,-44.714 24,-29.3263 24,-19.5817"/>
<polygon fill="#9a32cd" stroke="#9a32cd" points="20.5001,-57.4005 24,-67.4005 27.5001,-57.4006 20.5001,-57.4005"/>
<text text-anchor="middle" x="38" y="-41" font-family="Helvetica,sans-Serif" font-size="10.00" fill="#000000"> mesh</text>
</g>
<!-- Node2&#45;&gt;Node2 -->
<g id="edge2" class="edge">
<title>Node2&#45;&gt;Node2</title>
<path fill="none" stroke="#9a32cd" stroke-dasharray="5,2" d="M54.816,-82.4421C59.4,-81.5943 62.5,-79.7803 62.5,-77 62.5,-72.4375 54.1518,-70.4771 44.5969,-71.1187"/>
<polygon fill="#9a32cd" stroke="#9a32cd" points="54.4374,-78.955 44.5969,-82.8813 54.738,-85.9486 54.4374,-78.955"/>
<text text-anchor="middle" x="90.5" y="-74.5" font-family="Helvetica,sans-Serif" font-size="10.00" fill="#000000"> subdomainp</text>
</g>
</g>
</svg>
