<?xml version="1.0" encoding="UTF-8" standalone="no"?>
<!DOCTYPE svg PUBLIC "-//W3C//DTD SVG 1.1//EN"
 "http://www.w3.org/Graphics/SVG/1.1/DTD/svg11.dtd">
<!-- Generated by graphviz version 2.38.0 (20140413.2041)
 -->
<!-- Title: SparsityInfo Pages: 1 -->
<svg width="240pt" height="173pt"
 viewBox="0.00 0.00 240.00 173.00" xmlns="http://www.w3.org/2000/svg" xmlns:xlink="http://www.w3.org/1999/xlink">
<g id="graph0" class="graph" transform="scale(1 1) rotate(0) translate(4 169)">
<title>SparsityInfo</title>
<polygon fill="white" stroke="none" points="-4,4 -4,-169 236,-169 236,4 -4,4"/>
<!-- Node1 -->
<g id="node1" class="node"><title>Node1</title>
<polygon fill="#bfbfbf" stroke="black" points="69.5,-0.5 69.5,-19.5 138.5,-19.5 138.5,-0.5 69.5,-0.5"/>
<text text-anchor="middle" x="104" y="-7.5" font-family="Helvetica,sans-Serif" font-size="10.00">SparsityInfo</text>
</g>
<!-- Node2 -->
<g id="node2" class="node"><title>Node2</title>
<polygon fill="white" stroke="#bfbfbf" points="0,-67.5 0,-97.5 94,-97.5 94,-67.5 0,-67.5"/>
<text text-anchor="start" x="8" y="-85.5" font-family="Helvetica,sans-Serif" font-size="10.00">std::map&lt; int, std</text>
<text text-anchor="middle" x="47" y="-74.5" font-family="Helvetica,sans-Serif" font-size="10.00">::set&lt; int &gt; &gt;</text>
</g>
<!-- Node2&#45;&gt;Node1 -->
<g id="edge1" class="edge"><title>Node2&#45;&gt;Node1</title>
<path fill="none" stroke="#9a32cd" stroke-dasharray="5,2" d="M41.6667,-57.4111C41.4,-50.6932 42.3757,-43.685 46,-38 51.4335,-29.4773 60.3329,-23.602 69.5475,-19.5689"/>
<polygon fill="#9a32cd" stroke="#9a32cd" points="38.2125,-57.9984 42.9063,-67.4968 45.1602,-57.1445 38.2125,-57.9984"/>
<text text-anchor="middle" x="90" y="-41" font-family="Helvetica,sans-Serif" font-size="10.00"> columnIndecesMap</text>
</g>
<!-- Node3 -->
<g id="node3" class="node"><title>Node3</title>
<polygon fill="white" stroke="#bfbfbf" points="8,-145.5 8,-164.5 86,-164.5 86,-145.5 8,-145.5"/>
<text text-anchor="middle" x="47" y="-152.5" font-family="Helvetica,sans-Serif" font-size="10.00">std::set&lt; int &gt;</text>
</g>
<!-- Node3&#45;&gt;Node2 -->
<g id="edge2" class="edge"><title>Node3&#45;&gt;Node2</title>
<path fill="none" stroke="#9a32cd" stroke-dasharray="5,2" d="M47,-135.236C47,-123.408 47,-108.383 47,-97.5762"/>
<polygon fill="#9a32cd" stroke="#9a32cd" points="43.5001,-135.355 47,-145.355 50.5001,-135.355 43.5001,-135.355"/>
<text text-anchor="middle" x="68.5" y="-119" font-family="Helvetica,sans-Serif" font-size="10.00"> elements</text>
</g>
<!-- Node4 -->
<g id="node4" class="node"><title>Node4</title>
<polygon fill="white" stroke="#bfbfbf" points="112.5,-67.5 112.5,-97.5 207.5,-97.5 207.5,-67.5 112.5,-67.5"/>
<text text-anchor="start" x="120.5" y="-85.5" font-family="Helvetica,sans-Serif" font-size="10.00">std::map&lt; int, std</text>
<text text-anchor="middle" x="160" y="-74.5" font-family="Helvetica,sans-Serif" font-size="10.00">::map&lt; int, int &gt; &gt;</text>
</g>
<!-- Node4&#45;&gt;Node1 -->
<g id="edge3" class="edge"><title>Node4&#45;&gt;Node1</title>
<path fill="none" stroke="#9a32cd" stroke-dasharray="5,2" d="M150.32,-57.8029C146.963,-51.0376 142.814,-43.9056 138,-38 132.19,-30.8724 124.195,-24.4063 117.418,-19.5899"/>
<polygon fill="#9a32cd" stroke="#9a32cd" points="147.308,-59.6331 154.655,-67.267 153.672,-56.7178 147.308,-59.6331"/>
<text text-anchor="middle" x="189" y="-41" font-family="Helvetica,sans-Serif" font-size="10.00"> columnOffsetsMap</text>
</g>
</g>
</svg>
