<?xml version="1.0" encoding="UTF-8" standalone="no"?>
<!DOCTYPE svg PUBLIC "-//W3C//DTD SVG 1.1//EN"
 "http://www.w3.org/Graphics/SVG/1.1/DTD/svg11.dtd">
<!-- Generated by graphviz version 2.38.0 (20140413.2041)
 -->
<!-- Title: CMultilevelMesh Pages: 1 -->
<svg width="147pt" height="162pt"
 viewBox="0.00 0.00 147.00 162.00" xmlns="http://www.w3.org/2000/svg" xmlns:xlink="http://www.w3.org/1999/xlink">
<g id="graph0" class="graph" transform="scale(1 1) rotate(0) translate(4 158)">
<title>CMultilevelMesh</title>
<polygon fill="white" stroke="none" points="-4,4 -4,-158 143,-158 143,4 -4,4"/>
<!-- Node1 -->
<g id="node1" class="node"><title>Node1</title>
<polygon fill="#bfbfbf" stroke="black" points="-7.10543e-15,-0.5 -7.10543e-15,-19.5 89,-19.5 89,-0.5 -7.10543e-15,-0.5"/>
<text text-anchor="middle" x="44.5" y="-7.5" font-family="Helvetica,sans-Serif" font-size="10.00">CMultilevelMesh</text>
</g>
<!-- Node2 -->
<g id="node2" class="node"><title>Node2</title>
<g id="a_node2"><a xlink:href="struct_multilevel_mesh.html" target="_top" xlink:title="MultilevelMesh">
<polygon fill="white" stroke="black" points="3.5,-67.5 3.5,-86.5 85.5,-86.5 85.5,-67.5 3.5,-67.5"/>
<text text-anchor="middle" x="44.5" y="-74.5" font-family="Helvetica,sans-Serif" font-size="10.00">MultilevelMesh</text>
</a>
</g>
</g>
<!-- Node2&#45;&gt;Node1 -->
<g id="edge1" class="edge"><title>Node2&#45;&gt;Node1</title>
<path fill="none" stroke="#9a32cd" stroke-dasharray="5,2" d="M44.5,-57.037C44.5,-44.6703 44.5,-29.1198 44.5,-19.6273"/>
<polygon fill="#9a32cd" stroke="#9a32cd" points="41.0001,-57.2338 44.5,-67.2338 48.0001,-57.2338 41.0001,-57.2338"/>
<text text-anchor="middle" x="79" y="-41" font-family="Helvetica,sans-Serif" font-size="10.00"> multilevelMesh</text>
</g>
<!-- Node3 -->
<g id="node3" class="node"><title>Node3</title>
<g id="a_node3"><a xlink:href="struct_mesh.html" target="_top" xlink:title="Mesh">
<polygon fill="white" stroke="black" points="24,-134.5 24,-153.5 65,-153.5 65,-134.5 24,-134.5"/>
<text text-anchor="middle" x="44.5" y="-141.5" font-family="Helvetica,sans-Serif" font-size="10.00">Mesh</text>
</a>
</g>
</g>
<!-- Node3&#45;&gt;Node2 -->
<g id="edge2" class="edge"><title>Node3&#45;&gt;Node2</title>
<path fill="none" stroke="#9a32cd" stroke-dasharray="5,2" d="M44.5,-124.037C44.5,-111.67 44.5,-96.1198 44.5,-86.6273"/>
<polygon fill="#9a32cd" stroke="#9a32cd" points="41.0001,-124.234 44.5,-134.234 48.0001,-124.234 41.0001,-124.234"/>
<text text-anchor="middle" x="70" y="-108" font-family="Helvetica,sans-Serif" font-size="10.00"> meshArray</text>
</g>
<!-- Node3&#45;&gt;Node3 -->
<g id="edge3" class="edge"><title>Node3&#45;&gt;Node3</title>
<path fill="none" stroke="#9a32cd" stroke-dasharray="5,2" d="M75.316,-149.442C79.9,-148.594 83,-146.78 83,-144 83,-139.438 74.6518,-137.477 65.0969,-138.119"/>
<polygon fill="#9a32cd" stroke="#9a32cd" points="74.9374,-145.955 65.0969,-149.881 75.238,-152.949 74.9374,-145.955"/>
<text text-anchor="middle" x="111" y="-141.5" font-family="Helvetica,sans-Serif" font-size="10.00"> subdomainp</text>
</g>
</g>
</svg>
