<?xml version="1.0" encoding="UTF-8" standalone="no"?>
<!DOCTYPE svg PUBLIC "-//W3C//DTD SVG 1.1//EN"
 "http://www.w3.org/Graphics/SVG/1.1/DTD/svg11.dtd">
<!-- Generated by graphviz version 2.38.0 (20140413.2041)
 -->
<!-- Title: FSWEikonalSolver_wrapper Pages: 1 -->
<svg width="567pt" height="251pt"
 viewBox="0.00 0.00 566.50 251.00" xmlns="http://www.w3.org/2000/svg" xmlns:xlink="http://www.w3.org/1999/xlink">
<g id="graph0" class="graph" transform="scale(1 1) rotate(0) translate(4 247)">
<title>FSWEikonalSolver_wrapper</title>
<polygon fill="white" stroke="none" points="-4,4 -4,-247 562.5,-247 562.5,4 -4,4"/>
<!-- Node1 -->
<g id="node1" class="node"><title>Node1</title>
<polygon fill="#bfbfbf" stroke="black" points="129,-0.5 129,-19.5 268,-19.5 268,-0.5 129,-0.5"/>
<text text-anchor="middle" x="198.5" y="-7.5" font-family="Helvetica,sans-Serif" font-size="10.00">FSWEikonalSolver_wrapper</text>
</g>
<!-- Node2 -->
<g id="node2" class="node"><title>Node2</title>
<g id="a_node2"><a xlink:href="class_f_s_w_eikonal_solver_base.html" target="_top" xlink:title="FSWEikonalSolverBase">
<polygon fill="white" stroke="black" points="137.5,-67.5 137.5,-86.5 259.5,-86.5 259.5,-67.5 137.5,-67.5"/>
<text text-anchor="middle" x="198.5" y="-74.5" font-family="Helvetica,sans-Serif" font-size="10.00">FSWEikonalSolverBase</text>
</a>
</g>
</g>
<!-- Node2&#45;&gt;Node1 -->
<g id="edge1" class="edge"><title>Node2&#45;&gt;Node1</title>
<path fill="none" stroke="#9a32cd" stroke-dasharray="5,2" d="M198.5,-57.037C198.5,-44.6703 198.5,-29.1198 198.5,-19.6273"/>
<polygon fill="#9a32cd" stroke="#9a32cd" points="195,-57.2338 198.5,-67.2338 202,-57.2338 195,-57.2338"/>
<text text-anchor="middle" x="227.5" y="-41" font-family="Helvetica,sans-Serif" font-size="10.00"> pFSWsolver</text>
</g>
<!-- Node3 -->
<g id="node3" class="node"><title>Node3</title>
<g id="a_node3"><a xlink:href="class_f_m_m_eikonal_solver_base.html" target="_top" xlink:title="FMMEikonalSolverBase">
<polygon fill="white" stroke="black" points="137.5,-151 137.5,-170 259.5,-170 259.5,-151 137.5,-151"/>
<text text-anchor="middle" x="198.5" y="-158" font-family="Helvetica,sans-Serif" font-size="10.00">FMMEikonalSolverBase</text>
</a>
</g>
</g>
<!-- Node3&#45;&gt;Node2 -->
<g id="edge2" class="edge"><title>Node3&#45;&gt;Node2</title>
<path fill="none" stroke="midnightblue" d="M198.5,-140.376C198.5,-123.398 198.5,-99.3673 198.5,-86.6592"/>
<polygon fill="midnightblue" stroke="midnightblue" points="195,-140.778 198.5,-150.778 202,-140.778 195,-140.778"/>
</g>
<!-- Node4 -->
<g id="node4" class="node"><title>Node4</title>
<g id="a_node4"><a xlink:href="class_unstructured_local_upwind_solvers.html" target="_top" xlink:title="UnstructuredLocalUpwindSolvers">
<polygon fill="white" stroke="black" points="396.5,-223.5 396.5,-242.5 558.5,-242.5 558.5,-223.5 396.5,-223.5"/>
<text text-anchor="middle" x="477.5" y="-230.5" font-family="Helvetica,sans-Serif" font-size="10.00">UnstructuredLocalUpwindSolvers</text>
</a>
</g>
</g>
<!-- Node4&#45;&gt;Node3 -->
<g id="edge3" class="edge"><title>Node4&#45;&gt;Node3</title>
<path fill="none" stroke="#9a32cd" stroke-dasharray="5,2" d="M433.919,-220.988C378.178,-206.903 282.827,-182.808 232.273,-170.034"/>
<polygon fill="#9a32cd" stroke="#9a32cd" points="433.293,-224.439 443.846,-223.496 435.008,-217.653 433.293,-224.439"/>
<text text-anchor="middle" x="392" y="-197" font-family="Helvetica,sans-Serif" font-size="10.00"> localSolvers</text>
</g>
<!-- Node5 -->
<g id="node5" class="node"><title>Node5</title>
<polygon fill="white" stroke="#bfbfbf" points="13.5,-223.5 13.5,-242.5 105.5,-242.5 105.5,-223.5 13.5,-223.5"/>
<text text-anchor="middle" x="59.5" y="-230.5" font-family="Helvetica,sans-Serif" font-size="10.00">std::vector&lt; int &gt;</text>
</g>
<!-- Node5&#45;&gt;Node3 -->
<g id="edge4" class="edge"><title>Node5&#45;&gt;Node3</title>
<path fill="none" stroke="#9a32cd" stroke-dasharray="5,2" d="M85.5024,-218.812C113.658,-204.531 157.742,-182.172 181.674,-170.034"/>
<polygon fill="#9a32cd" stroke="#9a32cd" points="83.6019,-215.851 76.2666,-223.496 86.7683,-222.094 83.6019,-215.851"/>
<text text-anchor="middle" x="150.5" y="-197" font-family="Helvetica,sans-Serif" font-size="10.00"> Known</text>
</g>
<!-- Node8 -->
<g id="node8" class="node"><title>Node8</title>
<polygon fill="white" stroke="#bfbfbf" points="0,-145.5 0,-175.5 119,-175.5 119,-145.5 0,-145.5"/>
<text text-anchor="start" x="8" y="-163.5" font-family="Helvetica,sans-Serif" font-size="10.00">std::vector&lt; std::vector</text>
<text text-anchor="middle" x="59.5" y="-152.5" font-family="Helvetica,sans-Serif" font-size="10.00">&lt; int &gt; &gt;</text>
</g>
<!-- Node5&#45;&gt;Node8 -->
<g id="edge9" class="edge"><title>Node5&#45;&gt;Node8</title>
<path fill="none" stroke="#9a32cd" stroke-dasharray="5,2" d="M59.5,-213.236C59.5,-201.408 59.5,-186.383 59.5,-175.576"/>
<polygon fill="#9a32cd" stroke="#9a32cd" points="56.0001,-213.355 59.5,-223.355 63.0001,-213.355 56.0001,-213.355"/>
<text text-anchor="middle" x="81" y="-197" font-family="Helvetica,sans-Serif" font-size="10.00"> elements</text>
</g>
<!-- Node6 -->
<g id="node6" class="node"><title>Node6</title>
<polygon fill="white" stroke="#bfbfbf" points="124,-223.5 124,-242.5 245,-242.5 245,-223.5 124,-223.5"/>
<text text-anchor="middle" x="184.5" y="-230.5" font-family="Helvetica,sans-Serif" font-size="10.00">std::vector&lt; STATUS &gt;</text>
</g>
<!-- Node6&#45;&gt;Node3 -->
<g id="edge5" class="edge"><title>Node6&#45;&gt;Node3</title>
<path fill="none" stroke="#9a32cd" stroke-dasharray="5,2" d="M188.202,-213.358C190.975,-199.395 194.642,-180.926 196.769,-170.215"/>
<polygon fill="#9a32cd" stroke="#9a32cd" points="184.732,-212.865 186.217,-223.355 191.598,-214.229 184.732,-212.865"/>
<text text-anchor="middle" x="208.5" y="-197" font-family="Helvetica,sans-Serif" font-size="10.00"> Status</text>
</g>
<!-- Node7 -->
<g id="node7" class="node"><title>Node7</title>
<g id="a_node7"><a xlink:href="struct_mesh.html" target="_top" xlink:title="Mesh">
<polygon fill="white" stroke="black" points="263,-223.5 263,-242.5 304,-242.5 304,-223.5 263,-223.5"/>
<text text-anchor="middle" x="283.5" y="-230.5" font-family="Helvetica,sans-Serif" font-size="10.00">Mesh</text>
</a>
</g>
</g>
<!-- Node7&#45;&gt;Node3 -->
<g id="edge6" class="edge"><title>Node7&#45;&gt;Node3</title>
<path fill="none" stroke="#9a32cd" stroke-dasharray="5,2" d="M264.915,-216.585C247.776,-202.37 222.945,-181.775 209.008,-170.215"/>
<polygon fill="#9a32cd" stroke="#9a32cd" points="263.146,-219.665 273.077,-223.355 267.615,-214.277 263.146,-219.665"/>
<text text-anchor="middle" x="263.5" y="-197" font-family="Helvetica,sans-Serif" font-size="10.00"> mesh</text>
</g>
<!-- Node7&#45;&gt;Node7 -->
<g id="edge7" class="edge"><title>Node7&#45;&gt;Node7</title>
<path fill="none" stroke="#9a32cd" stroke-dasharray="5,2" d="M314.316,-238.442C318.9,-237.594 322,-235.78 322,-233 322,-228.438 313.652,-226.477 304.097,-227.119"/>
<polygon fill="#9a32cd" stroke="#9a32cd" points="313.937,-234.955 304.097,-238.881 314.238,-241.949 313.937,-234.955"/>
<text text-anchor="middle" x="350" y="-230.5" font-family="Helvetica,sans-Serif" font-size="10.00"> subdomainp</text>
</g>
<!-- Node8&#45;&gt;Node2 -->
<g id="edge8" class="edge"><title>Node8&#45;&gt;Node2</title>
<path fill="none" stroke="#9a32cd" stroke-dasharray="5,2" d="M92.3528,-140.237C121.356,-123.232 162.285,-99.2341 183.865,-86.5811"/>
<polygon fill="#9a32cd" stroke="#9a32cd" points="90.2512,-137.412 83.395,-145.49 93.7918,-143.451 90.2512,-137.412"/>
<text text-anchor="middle" x="164.5" y="-113.5" font-family="Helvetica,sans-Serif" font-size="10.00"> Order</text>
</g>
<!-- Node9 -->
<g id="node9" class="node"><title>Node9</title>
<polygon fill="white" stroke="#bfbfbf" points="278,-151 278,-170 395,-170 395,-151 278,-151"/>
<text text-anchor="middle" x="336.5" y="-158" font-family="Helvetica,sans-Serif" font-size="10.00">std::valarray&lt; double &gt;</text>
</g>
<!-- Node9&#45;&gt;Node2 -->
<g id="edge10" class="edge"><title>Node9&#45;&gt;Node2</title>
<path fill="none" stroke="#9a32cd" stroke-dasharray="5,2" d="M313.093,-145.676C284.538,-128.812 237.124,-100.811 213.229,-86.6984"/>
<polygon fill="#9a32cd" stroke="#9a32cd" points="311.602,-148.861 321.992,-150.932 315.162,-142.833 311.602,-148.861"/>
<text text-anchor="middle" x="300.5" y="-119" font-family="Helvetica,sans-Serif" font-size="10.00"> T0</text>
<text text-anchor="middle" x="300.5" y="-108" font-family="Helvetica,sans-Serif" font-size="10.00">refPoints</text>
</g>
</g>
</svg>
