<?xml version="1.0" encoding="UTF-8" standalone="no"?>
<!DOCTYPE svg PUBLIC "-//W3C//DTD SVG 1.1//EN"
 "http://www.w3.org/Graphics/SVG/1.1/DTD/svg11.dtd">
<!-- Generated by graphviz version 2.40.1 (20161225.0304)
 -->
<!-- Title: FMMEikonalSolver_wrapper Pages: 1 -->
<svg width="553pt" height="162pt"
 viewBox="0.00 0.00 552.50 162.00" xmlns="http://www.w3.org/2000/svg" xmlns:xlink="http://www.w3.org/1999/xlink">
<g id="graph0" class="graph" transform="scale(1 1) rotate(0) translate(4 158)">
<title>FMMEikonalSolver_wrapper</title>
<polygon fill="#ffffff" stroke="transparent" points="-4,4 -4,-158 548.5,-158 548.5,4 -4,4"/>
<!-- Node1 -->
<g id="node1" class="node">
<title>Node1</title>
<polygon fill="#bfbfbf" stroke="#000000" points="218.5,-.5 218.5,-19.5 357.5,-19.5 357.5,-.5 218.5,-.5"/>
<text text-anchor="middle" x="288" y="-7.5" font-family="Helvetica,sans-Serif" font-size="10.00" fill="#000000">FMMEikonalSolver_wrapper</text>
</g>
<!-- Node2 -->
<g id="node2" class="node">
<title>Node2</title>
<g id="a_node2"><a xlink:href="class_f_m_m_eikonal_solver_base.html" target="_top" xlink:title="FMMEikonalSolverBase">
<polygon fill="#ffffff" stroke="#000000" points="227,-67.5 227,-86.5 349,-86.5 349,-67.5 227,-67.5"/>
<text text-anchor="middle" x="288" y="-74.5" font-family="Helvetica,sans-Serif" font-size="10.00" fill="#000000">FMMEikonalSolverBase</text>
</a>
</g>
</g>
<!-- Node2&#45;&gt;Node1 -->
<g id="edge1" class="edge">
<title>Node2&#45;&gt;Node1</title>
<path fill="none" stroke="#9a32cd" stroke-dasharray="5,2" d="M288,-57.1079C288,-44.714 288,-29.3263 288,-19.5817"/>
<polygon fill="#9a32cd" stroke="#9a32cd" points="284.5001,-57.4005 288,-67.4005 291.5001,-57.4006 284.5001,-57.4005"/>
<text text-anchor="middle" x="317" y="-41" font-family="Helvetica,sans-Serif" font-size="10.00" fill="#000000"> pFMMsolver</text>
</g>
<!-- Node3 -->
<g id="node3" class="node">
<title>Node3</title>
<g id="a_node3"><a xlink:href="class_unstructured_local_upwind_solvers.html" target="_top" xlink:title="UnstructuredLocalUpwindSolvers">
<polygon fill="#ffffff" stroke="#000000" points="0,-134.5 0,-153.5 162,-153.5 162,-134.5 0,-134.5"/>
<text text-anchor="middle" x="81" y="-141.5" font-family="Helvetica,sans-Serif" font-size="10.00" fill="#000000">UnstructuredLocalUpwindSolvers</text>
</a>
</g>
</g>
<!-- Node3&#45;&gt;Node2 -->
<g id="edge2" class="edge">
<title>Node3&#45;&gt;Node2</title>
<path fill="none" stroke="#9a32cd" stroke-dasharray="5,2" d="M116.355,-131.0292C138.0794,-123.1962 166.5352,-113.1805 192,-105 212.3308,-98.4687 235.2866,-91.7498 253.6516,-86.5313"/>
<polygon fill="#9a32cd" stroke="#9a32cd" points="115.0925,-127.7639 106.8821,-134.4602 117.4763,-134.3455 115.0925,-127.7639"/>
<text text-anchor="middle" x="220.5" y="-108" font-family="Helvetica,sans-Serif" font-size="10.00" fill="#000000"> localSolvers</text>
</g>
<!-- Node4 -->
<g id="node4" class="node">
<title>Node4</title>
<polygon fill="#ffffff" stroke="#bfbfbf" points="180,-134.5 180,-153.5 272,-153.5 272,-134.5 180,-134.5"/>
<text text-anchor="middle" x="226" y="-141.5" font-family="Helvetica,sans-Serif" font-size="10.00" fill="#000000">std::vector&lt; int &gt;</text>
</g>
<!-- Node4&#45;&gt;Node2 -->
<g id="edge3" class="edge">
<title>Node4&#45;&gt;Node2</title>
<path fill="none" stroke="#9a32cd" stroke-dasharray="5,2" d="M241.9953,-126.7147C253.8158,-113.941 269.4718,-97.0224 279.1334,-86.5817"/>
<polygon fill="#9a32cd" stroke="#9a32cd" points="239.1061,-124.6837 234.8831,-134.4005 244.2439,-129.4381 239.1061,-124.6837"/>
<text text-anchor="middle" x="277" y="-108" font-family="Helvetica,sans-Serif" font-size="10.00" fill="#000000"> Known</text>
</g>
<!-- Node5 -->
<g id="node5" class="node">
<title>Node5</title>
<polygon fill="#ffffff" stroke="#bfbfbf" points="290.5,-134.5 290.5,-153.5 411.5,-153.5 411.5,-134.5 290.5,-134.5"/>
<text text-anchor="middle" x="351" y="-141.5" font-family="Helvetica,sans-Serif" font-size="10.00" fill="#000000">std::vector&lt; STATUS &gt;</text>
</g>
<!-- Node5&#45;&gt;Node2 -->
<g id="edge4" class="edge">
<title>Node5&#45;&gt;Node2</title>
<path fill="none" stroke="#9a32cd" stroke-dasharray="5,2" d="M335.0888,-127.0785C323.0392,-114.2639 306.9205,-97.1218 297.0096,-86.5817"/>
<polygon fill="#9a32cd" stroke="#9a32cd" points="332.5735,-129.5129 341.9736,-134.4005 337.6732,-124.7177 332.5735,-129.5129"/>
<text text-anchor="middle" x="339" y="-108" font-family="Helvetica,sans-Serif" font-size="10.00" fill="#000000"> Status</text>
</g>
<!-- Node6 -->
<g id="node6" class="node">
<title>Node6</title>
<g id="a_node6"><a xlink:href="struct_mesh.html" target="_top" xlink:title="Mesh">
<polygon fill="#ffffff" stroke="#000000" points="429.5,-134.5 429.5,-153.5 470.5,-153.5 470.5,-134.5 429.5,-134.5"/>
<text text-anchor="middle" x="450" y="-141.5" font-family="Helvetica,sans-Serif" font-size="10.00" fill="#000000">Mesh</text>
</a>
</g>
</g>
<!-- Node6&#45;&gt;Node2 -->
<g id="edge5" class="edge">
<title>Node6&#45;&gt;Node2</title>
<path fill="none" stroke="#9a32cd" stroke-dasharray="5,2" d="M420.2118,-130.9733C402.4858,-123.2867 379.5207,-113.4415 359,-105 343.6825,-98.6989 326.3958,-91.8755 312.7149,-86.5422"/>
<polygon fill="#9a32cd" stroke="#9a32cd" points="418.9055,-134.2218 429.4718,-134.999 421.6963,-127.8022 418.9055,-134.2218"/>
<text text-anchor="middle" x="398" y="-108" font-family="Helvetica,sans-Serif" font-size="10.00" fill="#000000"> mesh</text>
</g>
<!-- Node6&#45;&gt;Node6 -->
<g id="edge6" class="edge">
<title>Node6&#45;&gt;Node6</title>
<path fill="none" stroke="#9a32cd" stroke-dasharray="5,2" d="M480.816,-149.4421C485.4,-148.5943 488.5,-146.7803 488.5,-144 488.5,-139.4375 480.1518,-137.4771 470.5969,-138.1187"/>
<polygon fill="#9a32cd" stroke="#9a32cd" points="480.4374,-145.955 470.5969,-149.8813 480.738,-152.9486 480.4374,-145.955"/>
<text text-anchor="middle" x="516.5" y="-141.5" font-family="Helvetica,sans-Serif" font-size="10.00" fill="#000000"> subdomainp</text>
</g>
</g>
</svg>
