<?xml version="1.0" encoding="UTF-8" standalone="no"?>
<!DOCTYPE svg PUBLIC "-//W3C//DTD SVG 1.1//EN"
 "http://www.w3.org/Graphics/SVG/1.1/DTD/svg11.dtd">
<!-- Generated by graphviz version 2.40.1 (20161225.0304)
 -->
<!-- Title: MultilevelMesh Pages: 1 -->
<svg width="144pt" height="95pt"
 viewBox="0.00 0.00 143.50 95.00" xmlns="http://www.w3.org/2000/svg" xmlns:xlink="http://www.w3.org/1999/xlink">
<g id="graph0" class="graph" transform="scale(1 1) rotate(0) translate(4 91)">
<title>MultilevelMesh</title>
<polygon fill="#ffffff" stroke="transparent" points="-4,4 -4,-91 139.5,-91 139.5,4 -4,4"/>
<!-- Node1 -->
<g id="node1" class="node">
<title>Node1</title>
<polygon fill="#bfbfbf" stroke="#000000" points="0,-.5 0,-19.5 82,-19.5 82,-.5 0,-.5"/>
<text text-anchor="middle" x="41" y="-7.5" font-family="Helvetica,sans-Serif" font-size="10.00" fill="#000000">MultilevelMesh</text>
</g>
<!-- Node2 -->
<g id="node2" class="node">
<title>Node2</title>
<g id="a_node2"><a xlink:href="struct_mesh.html" target="_top" xlink:title="Mesh">
<polygon fill="#ffffff" stroke="#000000" points="20.5,-67.5 20.5,-86.5 61.5,-86.5 61.5,-67.5 20.5,-67.5"/>
<text text-anchor="middle" x="41" y="-74.5" font-family="Helvetica,sans-Serif" font-size="10.00" fill="#000000">Mesh</text>
</a>
</g>
</g>
<!-- Node2&#45;&gt;Node1 -->
<g id="edge1" class="edge">
<title>Node2&#45;&gt;Node1</title>
<path fill="none" stroke="#9a32cd" stroke-dasharray="5,2" d="M41,-57.1079C41,-44.714 41,-29.3263 41,-19.5817"/>
<polygon fill="#9a32cd" stroke="#9a32cd" points="37.5001,-57.4005 41,-67.4005 44.5001,-57.4006 37.5001,-57.4005"/>
<text text-anchor="middle" x="66.5" y="-41" font-family="Helvetica,sans-Serif" font-size="10.00" fill="#000000"> meshArray</text>
</g>
<!-- Node2&#45;&gt;Node2 -->
<g id="edge2" class="edge">
<title>Node2&#45;&gt;Node2</title>
<path fill="none" stroke="#9a32cd" stroke-dasharray="5,2" d="M71.816,-82.4421C76.4,-81.5943 79.5,-79.7803 79.5,-77 79.5,-72.4375 71.1518,-70.4771 61.5969,-71.1187"/>
<polygon fill="#9a32cd" stroke="#9a32cd" points="71.4374,-78.955 61.5969,-82.8813 71.738,-85.9486 71.4374,-78.955"/>
<text text-anchor="middle" x="107.5" y="-74.5" font-family="Helvetica,sans-Serif" font-size="10.00" fill="#000000"> subdomainp</text>
</g>
</g>
</svg>
