<?xml version="1.0" encoding="UTF-8" standalone="no"?>
<!DOCTYPE svg PUBLIC "-//W3C//DTD SVG 1.1//EN"
 "http://www.w3.org/Graphics/SVG/1.1/DTD/svg11.dtd">
<!-- Generated by graphviz version 2.40.1 (20161225.0304)
 -->
<!-- Title: SparsityInfo Pages: 1 -->
<svg width="238pt" height="173pt"
 viewBox="0.00 0.00 238.00 173.00" xmlns="http://www.w3.org/2000/svg" xmlns:xlink="http://www.w3.org/1999/xlink">
<g id="graph0" class="graph" transform="scale(1 1) rotate(0) translate(4 169)">
<title>SparsityInfo</title>
<polygon fill="#ffffff" stroke="transparent" points="-4,4 -4,-169 234,-169 234,4 -4,4"/>
<!-- Node1 -->
<g id="node1" class="node">
<title>Node1</title>
<polygon fill="#bfbfbf" stroke="#000000" points="68.5,-.5 68.5,-19.5 137.5,-19.5 137.5,-.5 68.5,-.5"/>
<text text-anchor="middle" x="103" y="-7.5" font-family="Helvetica,sans-Serif" font-size="10.00" fill="#000000">SparsityInfo</text>
</g>
<!-- Node2 -->
<g id="node2" class="node">
<title>Node2</title>
<polygon fill="#ffffff" stroke="#bfbfbf" points="0,-67.5 0,-97.5 94,-97.5 94,-67.5 0,-67.5"/>
<text text-anchor="start" x="8" y="-85.5" font-family="Helvetica,sans-Serif" font-size="10.00" fill="#000000">std::map&lt; int, std</text>
<text text-anchor="middle" x="47" y="-74.5" font-family="Helvetica,sans-Serif" font-size="10.00" fill="#000000">::set&lt; int &gt; &gt;</text>
</g>
<!-- Node2&#45;&gt;Node1 -->
<g id="edge1" class="edge">
<title>Node2&#45;&gt;Node1</title>
<path fill="none" stroke="#9a32cd" stroke-dasharray="5,2" d="M44.4039,-57.2246C44.8218,-50.5387 46.3463,-43.6252 50,-38 55.3284,-29.7964 63.8896,-23.8422 72.591,-19.5915"/>
<polygon fill="#9a32cd" stroke="#9a32cd" points="40.9051,-57.3636 44.511,-67.3259 47.9047,-57.2893 40.9051,-57.3636"/>
<text text-anchor="middle" x="94" y="-41" font-family="Helvetica,sans-Serif" font-size="10.00" fill="#000000"> columnIndecesMap</text>
</g>
<!-- Node3 -->
<g id="node3" class="node">
<title>Node3</title>
<polygon fill="#ffffff" stroke="#bfbfbf" points="8,-145.5 8,-164.5 86,-164.5 86,-145.5 8,-145.5"/>
<text text-anchor="middle" x="47" y="-152.5" font-family="Helvetica,sans-Serif" font-size="10.00" fill="#000000">std::set&lt; int &gt;</text>
</g>
<!-- Node3&#45;&gt;Node2 -->
<g id="edge2" class="edge">
<title>Node3&#45;&gt;Node2</title>
<path fill="none" stroke="#9a32cd" stroke-dasharray="5,2" d="M47,-135.0177C47,-123.2164 47,-108.513 47,-97.668"/>
<polygon fill="#9a32cd" stroke="#9a32cd" points="43.5001,-135.2223 47,-145.2223 50.5001,-135.2224 43.5001,-135.2223"/>
<text text-anchor="middle" x="68.5" y="-119" font-family="Helvetica,sans-Serif" font-size="10.00" fill="#000000"> elements</text>
</g>
<!-- Node4 -->
<g id="node4" class="node">
<title>Node4</title>
<polygon fill="#ffffff" stroke="#bfbfbf" points="112.5,-67.5 112.5,-97.5 207.5,-97.5 207.5,-67.5 112.5,-67.5"/>
<text text-anchor="start" x="120.5" y="-85.5" font-family="Helvetica,sans-Serif" font-size="10.00" fill="#000000">std::map&lt; int, std</text>
<text text-anchor="middle" x="160" y="-74.5" font-family="Helvetica,sans-Serif" font-size="10.00" fill="#000000">::map&lt; int, int &gt; &gt;</text>
</g>
<!-- Node4&#45;&gt;Node1 -->
<g id="edge3" class="edge">
<title>Node4&#45;&gt;Node1</title>
<path fill="none" stroke="#9a32cd" stroke-dasharray="5,2" d="M150.0803,-57.6419C146.7791,-50.9074 142.7192,-43.8645 138,-38 132.341,-30.9675 124.6242,-24.5592 117.8764,-19.6533"/>
<polygon fill="#9a32cd" stroke="#9a32cd" points="147.054,-59.4443 154.3624,-67.1149 153.4326,-56.561 147.054,-59.4443"/>
<text text-anchor="middle" x="187" y="-41" font-family="Helvetica,sans-Serif" font-size="10.00" fill="#000000"> columnOffsetsMap</text>
</g>
</g>
</svg>
