<?xml version="1.0" encoding="UTF-8" standalone="no"?>
<!DOCTYPE svg PUBLIC "-//W3C//DTD SVG 1.1//EN"
 "http://www.w3.org/Graphics/SVG/1.1/DTD/svg11.dtd">
<!-- Generated by graphviz version 2.40.1 (20161225.0304)
 -->
<!-- Title: FSWEikonalSolver_wrapper Pages: 1 -->
<svg width="567pt" height="251pt"
 viewBox="0.00 0.00 566.50 251.00" xmlns="http://www.w3.org/2000/svg" xmlns:xlink="http://www.w3.org/1999/xlink">
<g id="graph0" class="graph" transform="scale(1 1) rotate(0) translate(4 247)">
<title>FSWEikonalSolver_wrapper</title>
<polygon fill="#ffffff" stroke="transparent" points="-4,4 -4,-247 562.5,-247 562.5,4 -4,4"/>
<!-- Node1 -->
<g id="node1" class="node">
<title>Node1</title>
<polygon fill="#bfbfbf" stroke="#000000" points="129,-.5 129,-19.5 268,-19.5 268,-.5 129,-.5"/>
<text text-anchor="middle" x="198.5" y="-7.5" font-family="Helvetica,sans-Serif" font-size="10.00" fill="#000000">FSWEikonalSolver_wrapper</text>
</g>
<!-- Node2 -->
<g id="node2" class="node">
<title>Node2</title>
<g id="a_node2"><a xlink:href="class_f_s_w_eikonal_solver_base.html" target="_top" xlink:title="FSWEikonalSolverBase">
<polygon fill="#ffffff" stroke="#000000" points="137.5,-67.5 137.5,-86.5 259.5,-86.5 259.5,-67.5 137.5,-67.5"/>
<text text-anchor="middle" x="198.5" y="-74.5" font-family="Helvetica,sans-Serif" font-size="10.00" fill="#000000">FSWEikonalSolverBase</text>
</a>
</g>
</g>
<!-- Node2&#45;&gt;Node1 -->
<g id="edge1" class="edge">
<title>Node2&#45;&gt;Node1</title>
<path fill="none" stroke="#9a32cd" stroke-dasharray="5,2" d="M198.5,-57.1079C198.5,-44.714 198.5,-29.3263 198.5,-19.5817"/>
<polygon fill="#9a32cd" stroke="#9a32cd" points="195.0001,-57.4005 198.5,-67.4005 202.0001,-57.4006 195.0001,-57.4005"/>
<text text-anchor="middle" x="227.5" y="-41" font-family="Helvetica,sans-Serif" font-size="10.00" fill="#000000"> pFSWsolver</text>
</g>
<!-- Node3 -->
<g id="node3" class="node">
<title>Node3</title>
<g id="a_node3"><a xlink:href="class_f_m_m_eikonal_solver_base.html" target="_top" xlink:title="FMMEikonalSolverBase">
<polygon fill="#ffffff" stroke="#000000" points="137.5,-151 137.5,-170 259.5,-170 259.5,-151 137.5,-151"/>
<text text-anchor="middle" x="198.5" y="-158" font-family="Helvetica,sans-Serif" font-size="10.00" fill="#000000">FMMEikonalSolverBase</text>
</a>
</g>
</g>
<!-- Node3&#45;&gt;Node2 -->
<g id="edge2" class="edge">
<title>Node3&#45;&gt;Node2</title>
<path fill="none" stroke="#191970" d="M198.5,-140.9172C198.5,-123.8939 198.5,-99.9456 198.5,-86.724"/>
<polygon fill="#191970" stroke="#191970" points="195.0001,-140.9215 198.5,-150.9215 202.0001,-140.9215 195.0001,-140.9215"/>
</g>
<!-- Node4 -->
<g id="node4" class="node">
<title>Node4</title>
<g id="a_node4"><a xlink:href="class_unstructured_local_upwind_solvers.html" target="_top" xlink:title="UnstructuredLocalUpwindSolvers">
<polygon fill="#ffffff" stroke="#000000" points="396.5,-223.5 396.5,-242.5 558.5,-242.5 558.5,-223.5 396.5,-223.5"/>
<text text-anchor="middle" x="477.5" y="-230.5" font-family="Helvetica,sans-Serif" font-size="10.00" fill="#000000">UnstructuredLocalUpwindSolvers</text>
</a>
</g>
</g>
<!-- Node4&#45;&gt;Node3 -->
<g id="edge3" class="edge">
<title>Node4&#45;&gt;Node3</title>
<path fill="none" stroke="#9a32cd" stroke-dasharray="5,2" d="M430.9026,-220.8914C375.9314,-206.6067 285.673,-183.1525 235.3427,-170.0738"/>
<polygon fill="#9a32cd" stroke="#9a32cd" points="430.1799,-224.3197 440.7387,-223.4473 431.9404,-217.5447 430.1799,-224.3197"/>
<text text-anchor="middle" x="391" y="-197" font-family="Helvetica,sans-Serif" font-size="10.00" fill="#000000"> localSolvers</text>
</g>
<!-- Node5 -->
<g id="node5" class="node">
<title>Node5</title>
<polygon fill="#ffffff" stroke="#bfbfbf" points="13.5,-223.5 13.5,-242.5 105.5,-242.5 105.5,-223.5 13.5,-223.5"/>
<text text-anchor="middle" x="59.5" y="-230.5" font-family="Helvetica,sans-Serif" font-size="10.00" fill="#000000">std::vector&lt; int &gt;</text>
</g>
<!-- Node5&#45;&gt;Node3 -->
<g id="edge4" class="edge">
<title>Node5&#45;&gt;Node3</title>
<path fill="none" stroke="#9a32cd" stroke-dasharray="5,2" d="M87.059,-218.6257C114.5896,-204.2662 156.1459,-182.5912 179.9655,-170.1673"/>
<polygon fill="#9a32cd" stroke="#9a32cd" points="85.2059,-215.6447 77.9581,-223.3726 88.4432,-221.8512 85.2059,-215.6447"/>
<text text-anchor="middle" x="150.5" y="-197" font-family="Helvetica,sans-Serif" font-size="10.00" fill="#000000"> Known</text>
</g>
<!-- Node8 -->
<g id="node8" class="node">
<title>Node8</title>
<polygon fill="#ffffff" stroke="#bfbfbf" points="0,-145.5 0,-175.5 119,-175.5 119,-145.5 0,-145.5"/>
<text text-anchor="start" x="8" y="-163.5" font-family="Helvetica,sans-Serif" font-size="10.00" fill="#000000">std::vector&lt; std::vector</text>
<text text-anchor="middle" x="59.5" y="-152.5" font-family="Helvetica,sans-Serif" font-size="10.00" fill="#000000">&lt; int &gt; &gt;</text>
</g>
<!-- Node5&#45;&gt;Node8 -->
<g id="edge9" class="edge">
<title>Node5&#45;&gt;Node8</title>
<path fill="none" stroke="#9a32cd" stroke-dasharray="5,2" d="M59.5,-213.0177C59.5,-201.2164 59.5,-186.513 59.5,-175.668"/>
<polygon fill="#9a32cd" stroke="#9a32cd" points="56.0001,-213.2223 59.5,-223.2223 63.0001,-213.2224 56.0001,-213.2223"/>
<text text-anchor="middle" x="81" y="-197" font-family="Helvetica,sans-Serif" font-size="10.00" fill="#000000"> elements</text>
</g>
<!-- Node6 -->
<g id="node6" class="node">
<title>Node6</title>
<polygon fill="#ffffff" stroke="#bfbfbf" points="124,-223.5 124,-242.5 245,-242.5 245,-223.5 124,-223.5"/>
<text text-anchor="middle" x="184.5" y="-230.5" font-family="Helvetica,sans-Serif" font-size="10.00" fill="#000000">std::vector&lt; STATUS &gt;</text>
</g>
<!-- Node6&#45;&gt;Node3 -->
<g id="edge5" class="edge">
<title>Node6&#45;&gt;Node3</title>
<path fill="none" stroke="#9a32cd" stroke-dasharray="5,2" d="M188.3417,-213.1054C191.0416,-199.1237 194.5347,-181.0346 196.6418,-170.1228"/>
<polygon fill="#9a32cd" stroke="#9a32cd" points="184.8477,-212.7401 186.3881,-223.2223 191.7207,-214.0673 184.8477,-212.7401"/>
<text text-anchor="middle" x="208.5" y="-197" font-family="Helvetica,sans-Serif" font-size="10.00" fill="#000000"> Status</text>
</g>
<!-- Node7 -->
<g id="node7" class="node">
<title>Node7</title>
<g id="a_node7"><a xlink:href="struct_mesh.html" target="_top" xlink:title="Mesh">
<polygon fill="#ffffff" stroke="#000000" points="263,-223.5 263,-242.5 304,-242.5 304,-223.5 263,-223.5"/>
<text text-anchor="middle" x="283.5" y="-230.5" font-family="Helvetica,sans-Serif" font-size="10.00" fill="#000000">Mesh</text>
</a>
</g>
</g>
<!-- Node7&#45;&gt;Node3 -->
<g id="edge6" class="edge">
<title>Node7&#45;&gt;Node3</title>
<path fill="none" stroke="#9a32cd" stroke-dasharray="5,2" d="M263.9733,-216.3449C247.1953,-202.0343 223.5884,-181.8989 209.7819,-170.1228"/>
<polygon fill="#9a32cd" stroke="#9a32cd" points="262.1568,-219.3958 272.0365,-223.2223 266.6995,-214.0699 262.1568,-219.3958"/>
<text text-anchor="middle" x="263.5" y="-197" font-family="Helvetica,sans-Serif" font-size="10.00" fill="#000000"> mesh</text>
</g>
<!-- Node7&#45;&gt;Node7 -->
<g id="edge7" class="edge">
<title>Node7&#45;&gt;Node7</title>
<path fill="none" stroke="#9a32cd" stroke-dasharray="5,2" d="M314.316,-238.4421C318.9,-237.5943 322,-235.7803 322,-233 322,-228.4375 313.6518,-226.4771 304.0969,-227.1187"/>
<polygon fill="#9a32cd" stroke="#9a32cd" points="313.9374,-234.955 304.0969,-238.8813 314.238,-241.9486 313.9374,-234.955"/>
<text text-anchor="middle" x="350" y="-230.5" font-family="Helvetica,sans-Serif" font-size="10.00" fill="#000000"> subdomainp</text>
</g>
<!-- Node8&#45;&gt;Node2 -->
<g id="edge8" class="edge">
<title>Node8&#45;&gt;Node2</title>
<path fill="none" stroke="#9a32cd" stroke-dasharray="5,2" d="M93.4664,-140.0957C121.8337,-123.055 161.0052,-99.5239 182.6036,-86.5493"/>
<polygon fill="#9a32cd" stroke="#9a32cd" points="91.4417,-137.229 84.6719,-145.3788 95.0464,-143.2295 91.4417,-137.229"/>
<text text-anchor="middle" x="164.5" y="-113.5" font-family="Helvetica,sans-Serif" font-size="10.00" fill="#000000"> Order</text>
</g>
<!-- Node9 -->
<g id="node9" class="node">
<title>Node9</title>
<polygon fill="#ffffff" stroke="#bfbfbf" points="278,-151 278,-170 395,-170 395,-151 278,-151"/>
<text text-anchor="middle" x="336.5" y="-158" font-family="Helvetica,sans-Serif" font-size="10.00" fill="#000000">std::valarray&lt; double &gt;</text>
</g>
<!-- Node9&#45;&gt;Node2 -->
<g id="edge10" class="edge">
<title>Node9&#45;&gt;Node2</title>
<path fill="none" stroke="#9a32cd" stroke-dasharray="5,2" d="M311.8373,-145.5773C283.7011,-128.5528 238.5031,-101.2047 214.5708,-86.724"/>
<polygon fill="#9a32cd" stroke="#9a32cd" points="310.302,-148.7391 320.6696,-150.9215 313.9258,-142.7501 310.302,-148.7391"/>
<text text-anchor="middle" x="299.5" y="-119" font-family="Helvetica,sans-Serif" font-size="10.00" fill="#000000"> T0</text>
<text text-anchor="middle" x="299.5" y="-108" font-family="Helvetica,sans-Serif" font-size="10.00" fill="#000000">refPoints</text>
</g>
</g>
</svg>
