<?xml version="1.0" encoding="UTF-8" standalone="no"?>
<!DOCTYPE svg PUBLIC "-//W3C//DTD SVG 1.1//EN"
 "http://www.w3.org/Graphics/SVG/1.1/DTD/svg11.dtd">
<!-- Generated by graphviz version 2.40.1 (20161225.0304)
 -->
<!-- Title: stupidheap.h Pages: 1 -->
<svg width="320pt" height="84pt"
 viewBox="0.00 0.00 320.00 84.00" xmlns="http://www.w3.org/2000/svg" xmlns:xlink="http://www.w3.org/1999/xlink">
<g id="graph0" class="graph" transform="scale(1 1) rotate(0) translate(4 80)">
<title>stupidheap.h</title>
<polygon fill="#ffffff" stroke="transparent" points="-4,4 -4,-80 316,-80 316,4 -4,4"/>
<!-- Node0 -->
<g id="node1" class="node">
<title>Node0</title>
<polygon fill="#bfbfbf" stroke="#000000" points="108,-56.5 108,-75.5 180,-75.5 180,-56.5 108,-56.5"/>
<text text-anchor="middle" x="144" y="-63.5" font-family="Helvetica,sans-Serif" font-size="10.00" fill="#000000">stupidheap.h</text>
</g>
<!-- Node1 -->
<g id="node2" class="node">
<title>Node1</title>
<polygon fill="#ffffff" stroke="#bfbfbf" points="0,-.5 0,-19.5 44,-19.5 44,-.5 0,-.5"/>
<text text-anchor="middle" x="22" y="-7.5" font-family="Helvetica,sans-Serif" font-size="10.00" fill="#000000">vector</text>
</g>
<!-- Node0&#45;&gt;Node1 -->
<g id="edge1" class="edge">
<title>Node0&#45;&gt;Node1</title>
<path fill="none" stroke="#191970" d="M123.0275,-56.3733C103.4433,-47.3838 74.0039,-33.8706 51.949,-23.7471"/>
<polygon fill="#191970" stroke="#191970" points="53.2473,-20.4919 42.6989,-19.5011 50.3271,-26.8538 53.2473,-20.4919"/>
</g>
<!-- Node2 -->
<g id="node3" class="node">
<title>Node2</title>
<polygon fill="#ffffff" stroke="#bfbfbf" points="62.5,-.5 62.5,-19.5 97.5,-19.5 97.5,-.5 62.5,-.5"/>
<text text-anchor="middle" x="80" y="-7.5" font-family="Helvetica,sans-Serif" font-size="10.00" fill="#000000">map</text>
</g>
<!-- Node0&#45;&gt;Node2 -->
<g id="edge2" class="edge">
<title>Node0&#45;&gt;Node2</title>
<path fill="none" stroke="#191970" d="M132.8521,-56.2455C123.4913,-48.0549 109.9142,-36.1749 98.8651,-26.5069"/>
<polygon fill="#191970" stroke="#191970" points="100.8508,-23.5937 91.0202,-19.6427 96.2412,-28.8618 100.8508,-23.5937"/>
</g>
<!-- Node3 -->
<g id="node4" class="node">
<title>Node3</title>
<polygon fill="#ffffff" stroke="#bfbfbf" points="116,-.5 116,-19.5 172,-19.5 172,-.5 116,-.5"/>
<text text-anchor="middle" x="144" y="-7.5" font-family="Helvetica,sans-Serif" font-size="10.00" fill="#000000">algorithm</text>
</g>
<!-- Node0&#45;&gt;Node3 -->
<g id="edge3" class="edge">
<title>Node0&#45;&gt;Node3</title>
<path fill="none" stroke="#191970" d="M144,-56.2455C144,-48.9382 144,-38.6944 144,-29.7046"/>
<polygon fill="#191970" stroke="#191970" points="147.5001,-29.6426 144,-19.6427 140.5001,-29.6427 147.5001,-29.6426"/>
</g>
<!-- Node4 -->
<g id="node5" class="node">
<title>Node4</title>
<polygon fill="#ffffff" stroke="#bfbfbf" points="190.5,-.5 190.5,-19.5 239.5,-19.5 239.5,-.5 190.5,-.5"/>
<text text-anchor="middle" x="215" y="-7.5" font-family="Helvetica,sans-Serif" font-size="10.00" fill="#000000">cassert</text>
</g>
<!-- Node0&#45;&gt;Node4 -->
<g id="edge4" class="edge">
<title>Node0&#45;&gt;Node4</title>
<path fill="none" stroke="#191970" d="M156.3673,-56.2455C166.9554,-47.8943 182.4064,-35.7076 194.7893,-25.9408"/>
<polygon fill="#191970" stroke="#191970" points="197.0903,-28.5837 202.7745,-19.6427 192.7553,-23.0875 197.0903,-28.5837"/>
</g>
<!-- Node5 -->
<g id="node6" class="node">
<title>Node5</title>
<polygon fill="#ffffff" stroke="#bfbfbf" points="258,-.5 258,-19.5 312,-19.5 312,-.5 258,-.5"/>
<text text-anchor="middle" x="285" y="-7.5" font-family="Helvetica,sans-Serif" font-size="10.00" fill="#000000">iostream</text>
</g>
<!-- Node0&#45;&gt;Node5 -->
<g id="edge5" class="edge">
<title>Node0&#45;&gt;Node5</title>
<path fill="none" stroke="#191970" d="M168.2388,-56.3733C191.2789,-47.2226 226.1214,-33.3844 251.7501,-23.2057"/>
<polygon fill="#191970" stroke="#191970" points="253.0756,-26.4452 261.0775,-19.5011 250.4918,-19.9395 253.0756,-26.4452"/>
</g>
</g>
</svg>
