<?xml version="1.0" encoding="UTF-8" standalone="no"?>
<!DOCTYPE svg PUBLIC "-//W3C//DTD SVG 1.1//EN"
 "http://www.w3.org/Graphics/SVG/1.1/DTD/svg11.dtd">
<!-- Generated by graphviz version 2.38.0 (20140413.2041)
 -->
<!-- Title: stupidheap.cpp Pages: 1 -->
<svg width="320pt" height="140pt"
 viewBox="0.00 0.00 320.00 140.00" xmlns="http://www.w3.org/2000/svg" xmlns:xlink="http://www.w3.org/1999/xlink">
<g id="graph0" class="graph" transform="scale(1 1) rotate(0) translate(4 136)">
<title>stupidheap.cpp</title>
<polygon fill="white" stroke="none" points="-4,4 -4,-136 316,-136 316,4 -4,4"/>
<!-- Node0 -->
<g id="node1" class="node"><title>Node0</title>
<polygon fill="#bfbfbf" stroke="black" points="173.5,-112.5 173.5,-131.5 256.5,-131.5 256.5,-112.5 173.5,-112.5"/>
<text text-anchor="middle" x="215" y="-119.5" font-family="Helvetica,sans-Serif" font-size="10.00">stupidheap.cpp</text>
</g>
<!-- Node1 -->
<g id="node2" class="node"><title>Node1</title>
<g id="a_node2"><a xlink:href="stupidheap_8h.html" target="_top" xlink:title="stupidheap.h">
<polygon fill="white" stroke="black" points="111,-56.5 111,-75.5 183,-75.5 183,-56.5 111,-56.5"/>
<text text-anchor="middle" x="147" y="-63.5" font-family="Helvetica,sans-Serif" font-size="10.00">stupidheap.h</text>
</a>
</g>
</g>
<!-- Node0&#45;&gt;Node1 -->
<g id="edge1" class="edge"><title>Node0&#45;&gt;Node1</title>
<path fill="none" stroke="midnightblue" d="M204.075,-112.324C193.825,-104.185 178.279,-91.8395 165.999,-82.0874"/>
<polygon fill="midnightblue" stroke="midnightblue" points="168.132,-79.3119 158.124,-75.8339 163.779,-84.7937 168.132,-79.3119"/>
</g>
<!-- Node5 -->
<g id="node6" class="node"><title>Node5</title>
<polygon fill="white" stroke="#bfbfbf" points="190.5,-0.5 190.5,-19.5 239.5,-19.5 239.5,-0.5 190.5,-0.5"/>
<text text-anchor="middle" x="215" y="-7.5" font-family="Helvetica,sans-Serif" font-size="10.00">cassert</text>
</g>
<!-- Node0&#45;&gt;Node5 -->
<g id="edge7" class="edge"><title>Node0&#45;&gt;Node5</title>
<path fill="none" stroke="midnightblue" d="M215,-112.368C215,-94.617 215,-53.6664 215,-29.5974"/>
<polygon fill="midnightblue" stroke="midnightblue" points="218.5,-29.5914 215,-19.5914 211.5,-29.5915 218.5,-29.5914"/>
</g>
<!-- Node6 -->
<g id="node7" class="node"><title>Node6</title>
<polygon fill="white" stroke="#bfbfbf" points="258,-0.5 258,-19.5 312,-19.5 312,-0.5 258,-0.5"/>
<text text-anchor="middle" x="285" y="-7.5" font-family="Helvetica,sans-Serif" font-size="10.00">iostream</text>
</g>
<!-- Node0&#45;&gt;Node6 -->
<g id="edge8" class="edge"><title>Node0&#45;&gt;Node6</title>
<path fill="none" stroke="midnightblue" d="M220.493,-112.368C231.994,-94.2957 258.797,-52.1764 273.986,-28.3074"/>
<polygon fill="midnightblue" stroke="midnightblue" points="277.117,-29.9071 279.533,-19.5914 271.211,-26.149 277.117,-29.9071"/>
</g>
<!-- Node2 -->
<g id="node3" class="node"><title>Node2</title>
<polygon fill="white" stroke="#bfbfbf" points="0,-0.5 0,-19.5 44,-19.5 44,-0.5 0,-0.5"/>
<text text-anchor="middle" x="22" y="-7.5" font-family="Helvetica,sans-Serif" font-size="10.00">vector</text>
</g>
<!-- Node1&#45;&gt;Node2 -->
<g id="edge2" class="edge"><title>Node1&#45;&gt;Node2</title>
<path fill="none" stroke="midnightblue" d="M127.193,-56.4435C106.713,-47.5961 74.5173,-33.6875 51.1353,-23.5865"/>
<polygon fill="midnightblue" stroke="midnightblue" points="52.282,-20.2692 41.714,-19.5164 49.5059,-26.6953 52.282,-20.2692"/>
</g>
<!-- Node3 -->
<g id="node4" class="node"><title>Node3</title>
<polygon fill="white" stroke="#bfbfbf" points="62.5,-0.5 62.5,-19.5 97.5,-19.5 97.5,-0.5 62.5,-0.5"/>
<text text-anchor="middle" x="80" y="-7.5" font-family="Helvetica,sans-Serif" font-size="10.00">map</text>
</g>
<!-- Node1&#45;&gt;Node3 -->
<g id="edge3" class="edge"><title>Node1&#45;&gt;Node3</title>
<path fill="none" stroke="midnightblue" d="M136.235,-56.324C126.234,-48.2631 111.113,-36.0765 99.0695,-26.3695"/>
<polygon fill="midnightblue" stroke="midnightblue" points="100.943,-23.3841 90.9606,-19.8339 96.5502,-28.8343 100.943,-23.3841"/>
</g>
<!-- Node4 -->
<g id="node5" class="node"><title>Node4</title>
<polygon fill="white" stroke="#bfbfbf" points="116,-0.5 116,-19.5 172,-19.5 172,-0.5 116,-0.5"/>
<text text-anchor="middle" x="144" y="-7.5" font-family="Helvetica,sans-Serif" font-size="10.00">algorithm</text>
</g>
<!-- Node1&#45;&gt;Node4 -->
<g id="edge4" class="edge"><title>Node1&#45;&gt;Node4</title>
<path fill="none" stroke="midnightblue" d="M146.505,-56.083C146.111,-49.0059 145.548,-38.8611 145.055,-29.9865"/>
<polygon fill="midnightblue" stroke="midnightblue" points="148.536,-29.5415 144.486,-19.7511 141.546,-29.9299 148.536,-29.5415"/>
</g>
<!-- Node1&#45;&gt;Node5 -->
<g id="edge5" class="edge"><title>Node1&#45;&gt;Node5</title>
<path fill="none" stroke="midnightblue" d="M157.925,-56.324C168.175,-48.1849 183.721,-35.8395 196.001,-26.0874"/>
<polygon fill="midnightblue" stroke="midnightblue" points="198.221,-28.7937 203.876,-19.8339 193.868,-23.3119 198.221,-28.7937"/>
</g>
<!-- Node1&#45;&gt;Node6 -->
<g id="edge6" class="edge"><title>Node1&#45;&gt;Node6</title>
<path fill="none" stroke="midnightblue" d="M168.867,-56.4435C191.779,-47.4776 227.975,-33.314 253.866,-23.1827"/>
<polygon fill="midnightblue" stroke="midnightblue" points="255.199,-26.4198 263.236,-19.5164 252.648,-19.9011 255.199,-26.4198"/>
</g>
</g>
</svg>
