<?xml version="1.0" encoding="UTF-8" standalone="no"?>
<!DOCTYPE svg PUBLIC "-//W3C//DTD SVG 1.1//EN"
 "http://www.w3.org/Graphics/SVG/1.1/DTD/svg11.dtd">
<!-- Generated by graphviz version 2.40.1 (20161225.0304)
 -->
<!-- Title: stupidheap.h Pages: 1 -->
<svg width="206pt" height="84pt"
 viewBox="0.00 0.00 205.50 84.00" xmlns="http://www.w3.org/2000/svg" xmlns:xlink="http://www.w3.org/1999/xlink">
<g id="graph0" class="graph" transform="scale(1 1) rotate(0) translate(4 80)">
<title>stupidheap.h</title>
<polygon fill="#ffffff" stroke="transparent" points="-4,4 -4,-80 201.5,-80 201.5,4 -4,4"/>
<!-- Node6 -->
<g id="node1" class="node">
<title>Node6</title>
<polygon fill="#bfbfbf" stroke="#000000" points="66,-56.5 66,-75.5 138,-75.5 138,-56.5 66,-56.5"/>
<text text-anchor="middle" x="102" y="-63.5" font-family="Helvetica,sans-Serif" font-size="10.00" fill="#000000">stupidheap.h</text>
</g>
<!-- Node7 -->
<g id="node2" class="node">
<title>Node7</title>
<g id="a_node2"><a xlink:href="_f_m_mand_f_s_w_8cpp.html" target="_top" xlink:title="FMMandFSW.cpp">
<polygon fill="#ffffff" stroke="#000000" points="0,-.5 0,-19.5 96,-19.5 96,-.5 0,-.5"/>
<text text-anchor="middle" x="48" y="-7.5" font-family="Helvetica,sans-Serif" font-size="10.00" fill="#000000">FMMandFSW.cpp</text>
</a>
</g>
</g>
<!-- Node6&#45;&gt;Node7 -->
<g id="edge1" class="edge">
<title>Node6&#45;&gt;Node7</title>
<path fill="none" stroke="#191970" d="M85.4031,-48.7884C76.1653,-39.2085 65.0096,-27.6396 57.2983,-19.6427"/>
<polygon fill="#191970" stroke="#191970" points="83.1331,-51.4766 92.5939,-56.2455 88.172,-46.6176 83.1331,-51.4766"/>
</g>
<!-- Node8 -->
<g id="node3" class="node">
<title>Node8</title>
<g id="a_node3"><a xlink:href="stupidheap_8cpp.html" target="_top" xlink:title="stupidheap.cpp">
<polygon fill="#ffffff" stroke="#000000" points="114.5,-.5 114.5,-19.5 197.5,-19.5 197.5,-.5 114.5,-.5"/>
<text text-anchor="middle" x="156" y="-7.5" font-family="Helvetica,sans-Serif" font-size="10.00" fill="#000000">stupidheap.cpp</text>
</a>
</g>
</g>
<!-- Node6&#45;&gt;Node8 -->
<g id="edge2" class="edge">
<title>Node6&#45;&gt;Node8</title>
<path fill="none" stroke="#191970" d="M118.5969,-48.7884C127.8347,-39.2085 138.9904,-27.6396 146.7017,-19.6427"/>
<polygon fill="#191970" stroke="#191970" points="115.828,-46.6176 111.4061,-56.2455 120.8669,-51.4766 115.828,-46.6176"/>
</g>
</g>
</svg>
