<?xml version="1.0" encoding="UTF-8" standalone="no"?>
<!DOCTYPE svg PUBLIC "-//W3C//DTD SVG 1.1//EN"
 "http://www.w3.org/Graphics/SVG/1.1/DTD/svg11.dtd">
<!-- Generated by graphviz version 2.40.1 (20161225.0304)
 -->
<!-- Title: stupidheap.cpp Pages: 1 -->
<svg width="320pt" height="140pt"
 viewBox="0.00 0.00 320.00 140.00" xmlns="http://www.w3.org/2000/svg" xmlns:xlink="http://www.w3.org/1999/xlink">
<g id="graph0" class="graph" transform="scale(1 1) rotate(0) translate(4 136)">
<title>stupidheap.cpp</title>
<polygon fill="#ffffff" stroke="transparent" points="-4,4 -4,-136 316,-136 316,4 -4,4"/>
<!-- Node0 -->
<g id="node1" class="node">
<title>Node0</title>
<polygon fill="#bfbfbf" stroke="#000000" points="173.5,-112.5 173.5,-131.5 256.5,-131.5 256.5,-112.5 173.5,-112.5"/>
<text text-anchor="middle" x="215" y="-119.5" font-family="Helvetica,sans-Serif" font-size="10.00" fill="#000000">stupidheap.cpp</text>
</g>
<!-- Node1 -->
<g id="node2" class="node">
<title>Node1</title>
<g id="a_node2"><a xlink:href="stupidheap_8h.html" target="_top" xlink:title="stupidheap.h">
<polygon fill="#ffffff" stroke="#000000" points="112,-56.5 112,-75.5 184,-75.5 184,-56.5 112,-56.5"/>
<text text-anchor="middle" x="148" y="-63.5" font-family="Helvetica,sans-Serif" font-size="10.00" fill="#000000">stupidheap.h</text>
</a>
</g>
</g>
<!-- Node0&#45;&gt;Node1 -->
<g id="edge1" class="edge">
<title>Node0&#45;&gt;Node1</title>
<path fill="none" stroke="#191970" d="M203.3295,-112.2455C193.4339,-103.9746 179.0373,-91.9416 167.4099,-82.2232"/>
<polygon fill="#191970" stroke="#191970" points="169.4542,-79.3703 159.5368,-75.6427 164.965,-84.7413 169.4542,-79.3703"/>
</g>
<!-- Node5 -->
<g id="node6" class="node">
<title>Node5</title>
<polygon fill="#ffffff" stroke="#bfbfbf" points="190.5,-.5 190.5,-19.5 239.5,-19.5 239.5,-.5 190.5,-.5"/>
<text text-anchor="middle" x="215" y="-7.5" font-family="Helvetica,sans-Serif" font-size="10.00" fill="#000000">cassert</text>
</g>
<!-- Node0&#45;&gt;Node5 -->
<g id="edge7" class="edge">
<title>Node0&#45;&gt;Node5</title>
<path fill="none" stroke="#191970" d="M215,-112.4509C215,-94.184 215,-53.9553 215,-29.6976"/>
<polygon fill="#191970" stroke="#191970" points="218.5001,-29.5249 215,-19.5249 211.5001,-29.5249 218.5001,-29.5249"/>
</g>
<!-- Node6 -->
<g id="node7" class="node">
<title>Node6</title>
<polygon fill="#ffffff" stroke="#bfbfbf" points="258,-.5 258,-19.5 312,-19.5 312,-.5 258,-.5"/>
<text text-anchor="middle" x="285" y="-7.5" font-family="Helvetica,sans-Serif" font-size="10.00" fill="#000000">iostream</text>
</g>
<!-- Node0&#45;&gt;Node6 -->
<g id="edge8" class="edge">
<title>Node0&#45;&gt;Node6</title>
<path fill="none" stroke="#191970" d="M220.9682,-112.4509C232.6433,-93.7707 258.6726,-52.1238 273.7024,-28.0761"/>
<polygon fill="#191970" stroke="#191970" points="276.7149,-29.8599 279.0469,-19.5249 270.7789,-26.1499 276.7149,-29.8599"/>
</g>
<!-- Node2 -->
<g id="node3" class="node">
<title>Node2</title>
<polygon fill="#ffffff" stroke="#bfbfbf" points="0,-.5 0,-19.5 44,-19.5 44,-.5 0,-.5"/>
<text text-anchor="middle" x="22" y="-7.5" font-family="Helvetica,sans-Serif" font-size="10.00" fill="#000000">vector</text>
</g>
<!-- Node1&#45;&gt;Node2 -->
<g id="edge2" class="edge">
<title>Node1&#45;&gt;Node2</title>
<path fill="none" stroke="#191970" d="M126.3398,-56.3733C106.0228,-47.3435 75.436,-33.7494 52.625,-23.6111"/>
<polygon fill="#191970" stroke="#191970" points="53.9372,-20.3642 43.3775,-19.5011 51.0941,-26.7609 53.9372,-20.3642"/>
</g>
<!-- Node3 -->
<g id="node4" class="node">
<title>Node3</title>
<polygon fill="#ffffff" stroke="#bfbfbf" points="62.5,-.5 62.5,-19.5 97.5,-19.5 97.5,-.5 62.5,-.5"/>
<text text-anchor="middle" x="80" y="-7.5" font-family="Helvetica,sans-Serif" font-size="10.00" fill="#000000">map</text>
</g>
<!-- Node1&#45;&gt;Node3 -->
<g id="edge3" class="edge">
<title>Node1&#45;&gt;Node3</title>
<path fill="none" stroke="#191970" d="M136.1553,-56.2455C126.112,-47.9746 111.5005,-35.9416 99.6996,-26.2232"/>
<polygon fill="#191970" stroke="#191970" points="101.6533,-23.298 91.709,-19.6427 97.2033,-28.7015 101.6533,-23.298"/>
</g>
<!-- Node4 -->
<g id="node5" class="node">
<title>Node4</title>
<polygon fill="#ffffff" stroke="#bfbfbf" points="116,-.5 116,-19.5 172,-19.5 172,-.5 116,-.5"/>
<text text-anchor="middle" x="144" y="-7.5" font-family="Helvetica,sans-Serif" font-size="10.00" fill="#000000">algorithm</text>
</g>
<!-- Node1&#45;&gt;Node4 -->
<g id="edge4" class="edge">
<title>Node1&#45;&gt;Node4</title>
<path fill="none" stroke="#191970" d="M147.3033,-56.2455C146.7813,-48.9382 146.0496,-38.6944 145.4075,-29.7046"/>
<polygon fill="#191970" stroke="#191970" points="148.8924,-29.3679 144.6888,-19.6427 141.9102,-29.8667 148.8924,-29.3679"/>
</g>
<!-- Node1&#45;&gt;Node5 -->
<g id="edge5" class="edge">
<title>Node1&#45;&gt;Node5</title>
<path fill="none" stroke="#191970" d="M159.6705,-56.2455C169.5661,-47.9746 183.9627,-35.9416 195.5901,-26.2232"/>
<polygon fill="#191970" stroke="#191970" points="198.035,-28.7413 203.4632,-19.6427 193.5458,-23.3703 198.035,-28.7413"/>
</g>
<!-- Node1&#45;&gt;Node6 -->
<g id="edge6" class="edge">
<title>Node1&#45;&gt;Node6</title>
<path fill="none" stroke="#191970" d="M171.5511,-56.3733C193.8391,-47.2629 227.4937,-33.5062 252.3637,-23.3404"/>
<polygon fill="#191970" stroke="#191970" points="253.8239,-26.5247 261.7562,-19.5011 251.1753,-20.0451 253.8239,-26.5247"/>
</g>
</g>
</svg>
