<?xml version="1.0" encoding="UTF-8" standalone="no"?>
<!DOCTYPE svg PUBLIC "-//W3C//DTD SVG 1.1//EN"
 "http://www.w3.org/Graphics/SVG/1.1/DTD/svg11.dtd">
<!-- Generated by graphviz version 2.40.1 (20161225.0304)
 -->
<!-- Title: subgridError.h Pages: 1 -->
<svg width="218pt" height="84pt"
 viewBox="0.00 0.00 217.50 84.00" xmlns="http://www.w3.org/2000/svg" xmlns:xlink="http://www.w3.org/1999/xlink">
<g id="graph0" class="graph" transform="scale(1 1) rotate(0) translate(4 80)">
<title>subgridError.h</title>
<polygon fill="#ffffff" stroke="transparent" points="-4,4 -4,-80 213.5,-80 213.5,4 -4,4"/>
<!-- Node1 -->
<g id="node1" class="node">
<title>Node1</title>
<polygon fill="#bfbfbf" stroke="#000000" points="75.5,-56.5 75.5,-75.5 152.5,-75.5 152.5,-56.5 75.5,-56.5"/>
<text text-anchor="middle" x="114" y="-63.5" font-family="Helvetica,sans-Serif" font-size="10.00" fill="#000000">subgridError.h</text>
</g>
<!-- Node2 -->
<g id="node2" class="node">
<title>Node2</title>
<g id="a_node2"><a xlink:href="csubgrid_error_module_8c.html" target="_top" xlink:title="csubgridErrorModule.c">
<polygon fill="#ffffff" stroke="#000000" points="0,-.5 0,-19.5 114,-19.5 114,-.5 0,-.5"/>
<text text-anchor="middle" x="57" y="-7.5" font-family="Helvetica,sans-Serif" font-size="10.00" fill="#000000">csubgridErrorModule.c</text>
</a>
</g>
</g>
<!-- Node1&#45;&gt;Node2 -->
<g id="edge1" class="edge">
<title>Node1&#45;&gt;Node2</title>
<path fill="none" stroke="#191970" d="M96.7729,-49.0751C86.9659,-39.4402 75.036,-27.7196 66.8149,-19.6427"/>
<polygon fill="#191970" stroke="#191970" points="94.4851,-51.734 104.0714,-56.2455 99.3909,-46.7406 94.4851,-51.734"/>
</g>
<!-- Node3 -->
<g id="node3" class="node">
<title>Node3</title>
<g id="a_node3"><a xlink:href="subgrid_error_8c.html" target="_top" xlink:title="subgridError.c">
<polygon fill="#ffffff" stroke="#000000" points="132.5,-.5 132.5,-19.5 209.5,-19.5 209.5,-.5 132.5,-.5"/>
<text text-anchor="middle" x="171" y="-7.5" font-family="Helvetica,sans-Serif" font-size="10.00" fill="#000000">subgridError.c</text>
</a>
</g>
</g>
<!-- Node1&#45;&gt;Node3 -->
<g id="edge2" class="edge">
<title>Node1&#45;&gt;Node3</title>
<path fill="none" stroke="#191970" d="M131.2271,-49.0751C141.0341,-39.4402 152.964,-27.7196 161.1851,-19.6427"/>
<polygon fill="#191970" stroke="#191970" points="128.6091,-46.7406 123.9286,-56.2455 133.5149,-51.734 128.6091,-46.7406"/>
</g>
</g>
</svg>
