<?xml version="1.0" encoding="UTF-8" standalone="no"?>
<!DOCTYPE svg PUBLIC "-//W3C//DTD SVG 1.1//EN"
 "http://www.w3.org/Graphics/SVG/1.1/DTD/svg11.dtd">
<!-- Generated by graphviz version 2.38.0 (20140413.2041)
 -->
<!-- Title: subgridError.h Pages: 1 -->
<svg width="218pt" height="84pt"
 viewBox="0.00 0.00 217.50 84.00" xmlns="http://www.w3.org/2000/svg" xmlns:xlink="http://www.w3.org/1999/xlink">
<g id="graph0" class="graph" transform="scale(1 1) rotate(0) translate(4 80)">
<title>subgridError.h</title>
<polygon fill="white" stroke="none" points="-4,4 -4,-80 213.5,-80 213.5,4 -4,4"/>
<!-- Node1 -->
<g id="node1" class="node"><title>Node1</title>
<polygon fill="#bfbfbf" stroke="black" points="75.5,-56.5 75.5,-75.5 152.5,-75.5 152.5,-56.5 75.5,-56.5"/>
<text text-anchor="middle" x="114" y="-63.5" font-family="Helvetica,sans-Serif" font-size="10.00">subgridError.h</text>
</g>
<!-- Node2 -->
<g id="node2" class="node"><title>Node2</title>
<g id="a_node2"><a xlink:href="csubgrid_error_module_8c.html" target="_top" xlink:title="csubgridErrorModule.c">
<polygon fill="white" stroke="black" points="0,-0.5 0,-19.5 114,-19.5 114,-0.5 0,-0.5"/>
<text text-anchor="middle" x="57" y="-7.5" font-family="Helvetica,sans-Serif" font-size="10.00">csubgridErrorModule.c</text>
</a>
</g>
</g>
<!-- Node1&#45;&gt;Node2 -->
<g id="edge1" class="edge"><title>Node1&#45;&gt;Node2</title>
<path fill="none" stroke="midnightblue" d="M97.3785,-49.2533C87.266,-39.6731 74.7234,-27.7906 66.3247,-19.8339"/>
<polygon fill="midnightblue" stroke="midnightblue" points="95.1753,-51.9873 104.842,-56.324 99.9895,-46.9056 95.1753,-51.9873"/>
</g>
<!-- Node3 -->
<g id="node3" class="node"><title>Node3</title>
<g id="a_node3"><a xlink:href="subgrid_error_8c.html" target="_top" xlink:title="subgridError.c">
<polygon fill="white" stroke="black" points="132.5,-0.5 132.5,-19.5 209.5,-19.5 209.5,-0.5 132.5,-0.5"/>
<text text-anchor="middle" x="171" y="-7.5" font-family="Helvetica,sans-Serif" font-size="10.00">subgridError.c</text>
</a>
</g>
</g>
<!-- Node1&#45;&gt;Node3 -->
<g id="edge2" class="edge"><title>Node1&#45;&gt;Node3</title>
<path fill="none" stroke="midnightblue" d="M130.621,-49.2533C140.734,-39.6731 153.277,-27.7906 161.675,-19.8339"/>
<polygon fill="midnightblue" stroke="midnightblue" points="128.01,-46.9056 123.158,-56.324 132.825,-51.9873 128.01,-46.9056"/>
</g>
</g>
</svg>
