<?xml version="1.0" encoding="UTF-8" standalone="no"?>
<!DOCTYPE svg PUBLIC "-//W3C//DTD SVG 1.1//EN"
 "http://www.w3.org/Graphics/SVG/1.1/DTD/svg11.dtd">
<!-- Generated by graphviz version 2.40.1 (20161225.0304)
 -->
<!-- Title: subgridError.c Pages: 1 -->
<svg width="286pt" height="84pt"
 viewBox="0.00 0.00 285.50 84.00" xmlns="http://www.w3.org/2000/svg" xmlns:xlink="http://www.w3.org/1999/xlink">
<g id="graph0" class="graph" transform="scale(1 1) rotate(0) translate(4 80)">
<title>subgridError.c</title>
<polygon fill="#ffffff" stroke="transparent" points="-4,4 -4,-80 281.5,-80 281.5,4 -4,4"/>
<!-- Node0 -->
<g id="node1" class="node">
<title>Node0</title>
<polygon fill="#bfbfbf" stroke="#000000" points="90,-56.5 90,-75.5 167,-75.5 167,-56.5 90,-56.5"/>
<text text-anchor="middle" x="128.5" y="-63.5" font-family="Helvetica,sans-Serif" font-size="10.00" fill="#000000">subgridError.c</text>
</g>
<!-- Node1 -->
<g id="node2" class="node">
<title>Node1</title>
<polygon fill="#ffffff" stroke="#bfbfbf" points="0,-.5 0,-19.5 47,-19.5 47,-.5 0,-.5"/>
<text text-anchor="middle" x="23.5" y="-7.5" font-family="Helvetica,sans-Serif" font-size="10.00" fill="#000000">math.h</text>
</g>
<!-- Node0&#45;&gt;Node1 -->
<g id="edge1" class="edge">
<title>Node0&#45;&gt;Node1</title>
<path fill="none" stroke="#191970" d="M110.2104,-56.2455C93.7238,-47.4527 69.2648,-34.4079 50.5235,-24.4125"/>
<polygon fill="#191970" stroke="#191970" points="52.0506,-21.2604 41.58,-19.6427 48.7565,-27.4368 52.0506,-21.2604"/>
</g>
<!-- Node2 -->
<g id="node3" class="node">
<title>Node2</title>
<polygon fill="#ffffff" stroke="#bfbfbf" points="65.5,-.5 65.5,-19.5 111.5,-19.5 111.5,-.5 65.5,-.5"/>
<text text-anchor="middle" x="88.5" y="-7.5" font-family="Helvetica,sans-Serif" font-size="10.00" fill="#000000">stdio.h</text>
</g>
<!-- Node0&#45;&gt;Node2 -->
<g id="edge2" class="edge">
<title>Node0&#45;&gt;Node2</title>
<path fill="none" stroke="#191970" d="M121.5325,-56.2455C115.9689,-48.4564 108.022,-37.3308 101.3171,-27.9439"/>
<polygon fill="#191970" stroke="#191970" points="104.0481,-25.7457 95.3876,-19.6427 98.352,-29.8144 104.0481,-25.7457"/>
</g>
<!-- Node3 -->
<g id="node4" class="node">
<title>Node3</title>
<g id="a_node4"><a xlink:href="subgrid_error_8h.html" target="_top" xlink:title="C implementations of subgrid error calculations. ">
<polygon fill="#ffffff" stroke="#000000" points="130,-.5 130,-19.5 207,-19.5 207,-.5 130,-.5"/>
<text text-anchor="middle" x="168.5" y="-7.5" font-family="Helvetica,sans-Serif" font-size="10.00" fill="#000000">subgridError.h</text>
</a>
</g>
</g>
<!-- Node0&#45;&gt;Node3 -->
<g id="edge3" class="edge">
<title>Node0&#45;&gt;Node3</title>
<path fill="none" stroke="#191970" d="M135.4675,-56.2455C141.0311,-48.4564 148.978,-37.3308 155.6829,-27.9439"/>
<polygon fill="#191970" stroke="#191970" points="158.648,-29.8144 161.6124,-19.6427 152.9519,-25.7457 158.648,-29.8144"/>
</g>
<!-- Node4 -->
<g id="node5" class="node">
<title>Node4</title>
<polygon fill="#ffffff" stroke="#bfbfbf" points="225.5,-.5 225.5,-19.5 277.5,-19.5 277.5,-.5 225.5,-.5"/>
<text text-anchor="middle" x="251.5" y="-7.5" font-family="Helvetica,sans-Serif" font-size="10.00" fill="#000000">assert.h</text>
</g>
<!-- Node0&#45;&gt;Node4 -->
<g id="edge4" class="edge">
<title>Node0&#45;&gt;Node4</title>
<path fill="none" stroke="#191970" d="M149.6445,-56.3733C169.3892,-47.3838 199.0698,-33.8706 221.3055,-23.7471"/>
<polygon fill="#191970" stroke="#191970" points="222.9806,-26.8302 230.6315,-19.5011 220.08,-20.4594 222.9806,-26.8302"/>
</g>
</g>
</svg>
