<?xml version="1.0" encoding="UTF-8" standalone="no"?>
<!DOCTYPE svg PUBLIC "-//W3C//DTD SVG 1.1//EN"
 "http://www.w3.org/Graphics/SVG/1.1/DTD/svg11.dtd">
<!-- Generated by graphviz version 2.40.1 (20161225.0304)
 -->
<!-- Title: superluWrappersModule.c Pages: 1 -->
<svg width="400pt" height="84pt"
 viewBox="0.00 0.00 400.00 84.00" xmlns="http://www.w3.org/2000/svg" xmlns:xlink="http://www.w3.org/1999/xlink">
<g id="graph0" class="graph" transform="scale(1 1) rotate(0) translate(4 80)">
<title>superluWrappersModule.c</title>
<polygon fill="#ffffff" stroke="transparent" points="-4,4 -4,-80 396,-80 396,4 -4,4"/>
<!-- Node0 -->
<g id="node1" class="node">
<title>Node0</title>
<polygon fill="#bfbfbf" stroke="#000000" points="79,-56.5 79,-75.5 209,-75.5 209,-56.5 79,-56.5"/>
<text text-anchor="middle" x="144" y="-63.5" font-family="Helvetica,sans-Serif" font-size="10.00" fill="#000000">superluWrappersModule.c</text>
</g>
<!-- Node1 -->
<g id="node2" class="node">
<title>Node1</title>
<polygon fill="#ffffff" stroke="#bfbfbf" points="0,-.5 0,-19.5 56,-19.5 56,-.5 0,-.5"/>
<text text-anchor="middle" x="28" y="-7.5" font-family="Helvetica,sans-Serif" font-size="10.00" fill="#000000">Python.h</text>
</g>
<!-- Node0&#45;&gt;Node1 -->
<g id="edge1" class="edge">
<title>Node0&#45;&gt;Node1</title>
<path fill="none" stroke="#191970" d="M124.0589,-56.3733C105.5214,-47.4241 77.6972,-33.9917 56.7587,-23.8835"/>
<polygon fill="#191970" stroke="#191970" points="58.2081,-20.6967 47.6809,-19.5011 55.1648,-27.0006 58.2081,-20.6967"/>
</g>
<!-- Node2 -->
<g id="node3" class="node">
<title>Node2</title>
<polygon fill="#ffffff" stroke="#bfbfbf" points="74,-.5 74,-19.5 120,-19.5 120,-.5 74,-.5"/>
<text text-anchor="middle" x="97" y="-7.5" font-family="Helvetica,sans-Serif" font-size="10.00" fill="#000000">stdio.h</text>
</g>
<!-- Node0&#45;&gt;Node2 -->
<g id="edge2" class="edge">
<title>Node0&#45;&gt;Node2</title>
<path fill="none" stroke="#191970" d="M135.8132,-56.2455C129.1411,-48.2958 119.5521,-36.8706 111.5747,-27.3656"/>
<polygon fill="#191970" stroke="#191970" points="114.2026,-25.0524 105.093,-19.6427 108.8408,-29.5525 114.2026,-25.0524"/>
</g>
<!-- Node3 -->
<g id="node4" class="node">
<title>Node3</title>
<polygon fill="#ffffff" stroke="#bfbfbf" points="138.5,-.5 138.5,-19.5 243.5,-19.5 243.5,-.5 138.5,-.5"/>
<text text-anchor="middle" x="191" y="-7.5" font-family="Helvetica,sans-Serif" font-size="10.00" fill="#000000">numpy/arrayobject.h</text>
</g>
<!-- Node0&#45;&gt;Node3 -->
<g id="edge3" class="edge">
<title>Node0&#45;&gt;Node3</title>
<path fill="none" stroke="#191970" d="M152.1868,-56.2455C158.8589,-48.2958 168.4479,-36.8706 176.4253,-27.3656"/>
<polygon fill="#191970" stroke="#191970" points="179.1592,-29.5525 182.907,-19.6427 173.7974,-25.0524 179.1592,-29.5525"/>
</g>
<!-- Node4 -->
<g id="node5" class="node">
<title>Node4</title>
<g id="a_node5"><a xlink:href="superlu_wrappers_module_8h.html" target="_top" xlink:title="Python interface to superlu. ">
<polygon fill="#ffffff" stroke="#000000" points="262,-.5 262,-19.5 392,-19.5 392,-.5 262,-.5"/>
<text text-anchor="middle" x="327" y="-7.5" font-family="Helvetica,sans-Serif" font-size="10.00" fill="#000000">superluWrappersModule.h</text>
</a>
</g>
</g>
<!-- Node0&#45;&gt;Node4 -->
<g id="edge4" class="edge">
<title>Node0&#45;&gt;Node4</title>
<path fill="none" stroke="#191970" d="M175.4588,-56.3733C206.0207,-47.021 252.5826,-32.7725 286.0261,-22.5385"/>
<polygon fill="#191970" stroke="#191970" points="287.4136,-25.7742 295.9517,-19.5011 285.3652,-19.0806 287.4136,-25.7742"/>
</g>
</g>
</svg>
