<?xml version="1.0" encoding="UTF-8" standalone="no"?>
<!DOCTYPE svg PUBLIC "-//W3C//DTD SVG 1.1//EN"
 "http://www.w3.org/Graphics/SVG/1.1/DTD/svg11.dtd">
<!-- Generated by graphviz version 2.40.1 (20161225.0304)
 -->
<!-- Title: superluWrappersModule.h Pages: 1 -->
<svg width="538pt" height="140pt"
 viewBox="0.00 0.00 538.00 140.00" xmlns="http://www.w3.org/2000/svg" xmlns:xlink="http://www.w3.org/1999/xlink">
<g id="graph0" class="graph" transform="scale(1 1) rotate(0) translate(4 136)">
<title>superluWrappersModule.h</title>
<polygon fill="#ffffff" stroke="transparent" points="-4,4 -4,-136 534,-136 534,4 -4,4"/>
<!-- Node1 -->
<g id="node1" class="node">
<title>Node1</title>
<polygon fill="#bfbfbf" stroke="#000000" points="189,-112.5 189,-131.5 319,-131.5 319,-112.5 189,-112.5"/>
<text text-anchor="middle" x="254" y="-119.5" font-family="Helvetica,sans-Serif" font-size="10.00" fill="#000000">superluWrappersModule.h</text>
</g>
<!-- Node2 -->
<g id="node2" class="node">
<title>Node2</title>
<g id="a_node2"><a xlink:href="cfem_integrals_module_8c.html" target="_top" xlink:title="cfemIntegralsModule.c">
<polygon fill="#ffffff" stroke="#000000" points="0,-56.5 0,-75.5 116,-75.5 116,-56.5 0,-56.5"/>
<text text-anchor="middle" x="58" y="-63.5" font-family="Helvetica,sans-Serif" font-size="10.00" fill="#000000">cfemIntegralsModule.c</text>
</a>
</g>
</g>
<!-- Node1&#45;&gt;Node2 -->
<g id="edge1" class="edge">
<title>Node1&#45;&gt;Node2</title>
<path fill="none" stroke="#191970" d="M210.5587,-109.5882C174.5484,-99.2996 124.1132,-84.8895 91.2539,-75.5011"/>
<polygon fill="#191970" stroke="#191970" points="209.7296,-112.9913 220.3064,-112.3733 211.6527,-106.2606 209.7296,-112.9913"/>
</g>
<!-- Node3 -->
<g id="node3" class="node">
<title>Node3</title>
<g id="a_node3"><a xlink:href="csmoothers_module_8c.html" target="_top" xlink:title="csmoothersModule.c">
<polygon fill="#ffffff" stroke="#000000" points="134.5,-56.5 134.5,-75.5 241.5,-75.5 241.5,-56.5 134.5,-56.5"/>
<text text-anchor="middle" x="188" y="-63.5" font-family="Helvetica,sans-Serif" font-size="10.00" fill="#000000">csmoothersModule.c</text>
</a>
</g>
</g>
<!-- Node1&#45;&gt;Node3 -->
<g id="edge2" class="edge">
<title>Node1&#45;&gt;Node3</title>
<path fill="none" stroke="#191970" d="M234.7245,-105.645C223.2462,-95.9058 209.0723,-83.8795 199.3646,-75.6427"/>
<polygon fill="#191970" stroke="#191970" points="232.6141,-108.4445 242.5037,-112.2455 237.143,-103.1069 232.6141,-108.4445"/>
</g>
<!-- Node4 -->
<g id="node4" class="node">
<title>Node4</title>
<g id="a_node4"><a xlink:href="flcbdf_wrappers_module_8h.html" target="_top" xlink:title="Python interface to adpative BDF code (daetk) ">
<polygon fill="#ffffff" stroke="#000000" points="260,-56.5 260,-75.5 382,-75.5 382,-56.5 260,-56.5"/>
<text text-anchor="middle" x="321" y="-63.5" font-family="Helvetica,sans-Serif" font-size="10.00" fill="#000000">flcbdfWrappersModule.h</text>
</a>
</g>
</g>
<!-- Node1&#45;&gt;Node4 -->
<g id="edge3" class="edge">
<title>Node1&#45;&gt;Node4</title>
<path fill="none" stroke="#191970" d="M273.5676,-105.645C285.2198,-95.9058 299.6084,-83.8795 309.4632,-75.6427"/>
<polygon fill="#191970" stroke="#191970" points="271.0988,-103.1469 265.6705,-112.2455 275.5879,-108.5179 271.0988,-103.1469"/>
</g>
<!-- Node6 -->
<g id="node6" class="node">
<title>Node6</title>
<g id="a_node6"><a xlink:href="superlu_wrappers_module_8c.html" target="_top" xlink:title="superluWrappersModule.c">
<polygon fill="#ffffff" stroke="#000000" points="400,-56.5 400,-75.5 530,-75.5 530,-56.5 400,-56.5"/>
<text text-anchor="middle" x="465" y="-63.5" font-family="Helvetica,sans-Serif" font-size="10.00" fill="#000000">superluWrappersModule.c</text>
</a>
</g>
</g>
<!-- Node1&#45;&gt;Node6 -->
<g id="edge5" class="edge">
<title>Node1&#45;&gt;Node6</title>
<path fill="none" stroke="#191970" d="M300.2697,-109.7199C339.0676,-99.4228 393.6759,-84.9296 429.2011,-75.5011"/>
<polygon fill="#191970" stroke="#191970" points="299.0397,-106.4251 290.2722,-112.3733 300.8354,-113.1909 299.0397,-106.4251"/>
</g>
<!-- Node5 -->
<g id="node5" class="node">
<title>Node5</title>
<g id="a_node5"><a xlink:href="flcbdf_wrappers_module_8cpp.html" target="_top" xlink:title="flcbdfWrappersModule.cpp">
<polygon fill="#ffffff" stroke="#000000" points="254.5,-.5 254.5,-19.5 387.5,-19.5 387.5,-.5 254.5,-.5"/>
<text text-anchor="middle" x="321" y="-7.5" font-family="Helvetica,sans-Serif" font-size="10.00" fill="#000000">flcbdfWrappersModule.cpp</text>
</a>
</g>
</g>
<!-- Node4&#45;&gt;Node5 -->
<g id="edge4" class="edge">
<title>Node4&#45;&gt;Node5</title>
<path fill="none" stroke="#191970" d="M321,-46.1575C321,-37.155 321,-26.9199 321,-19.6427"/>
<polygon fill="#191970" stroke="#191970" points="317.5001,-46.2455 321,-56.2455 324.5001,-46.2456 317.5001,-46.2455"/>
</g>
</g>
</svg>
