<?xml version="1.0" encoding="UTF-8" standalone="no"?>
<!DOCTYPE svg PUBLIC "-//W3C//DTD SVG 1.1//EN"
 "http://www.w3.org/Graphics/SVG/1.1/DTD/svg11.dtd">
<!-- Generated by graphviz version 2.38.0 (20140413.2041)
 -->
<!-- Title: superluWrappersModule.h Pages: 1 -->
<svg width="538pt" height="140pt"
 viewBox="0.00 0.00 538.00 140.00" xmlns="http://www.w3.org/2000/svg" xmlns:xlink="http://www.w3.org/1999/xlink">
<g id="graph0" class="graph" transform="scale(1 1) rotate(0) translate(4 136)">
<title>superluWrappersModule.h</title>
<polygon fill="white" stroke="none" points="-4,4 -4,-136 534,-136 534,4 -4,4"/>
<!-- Node1 -->
<g id="node1" class="node"><title>Node1</title>
<polygon fill="#bfbfbf" stroke="black" points="189,-112.5 189,-131.5 319,-131.5 319,-112.5 189,-112.5"/>
<text text-anchor="middle" x="254" y="-119.5" font-family="Helvetica,sans-Serif" font-size="10.00">superluWrappersModule.h</text>
</g>
<!-- Node2 -->
<g id="node2" class="node"><title>Node2</title>
<g id="a_node2"><a xlink:href="cfem_integrals_module_8c.html" target="_top" xlink:title="cfemIntegralsModule.c">
<polygon fill="white" stroke="black" points="-7.10543e-15,-56.5 -7.10543e-15,-75.5 116,-75.5 116,-56.5 -7.10543e-15,-56.5"/>
<text text-anchor="middle" x="58" y="-63.5" font-family="Helvetica,sans-Serif" font-size="10.00">cfemIntegralsModule.c</text>
</a>
</g>
</g>
<!-- Node1&#45;&gt;Node2 -->
<g id="edge1" class="edge"><title>Node1&#45;&gt;Node2</title>
<path fill="none" stroke="midnightblue" d="M212.98,-109.699C175.989,-99.507 122.4,-84.7429 88.9115,-75.5164"/>
<polygon fill="midnightblue" stroke="midnightblue" points="212.373,-113.162 222.943,-112.444 214.232,-106.413 212.373,-113.162"/>
</g>
<!-- Node3 -->
<g id="node3" class="node"><title>Node3</title>
<g id="a_node3"><a xlink:href="csmoothers_module_8c.html" target="_top" xlink:title="csmoothersModule.c">
<polygon fill="white" stroke="black" points="134.5,-56.5 134.5,-75.5 241.5,-75.5 241.5,-56.5 134.5,-56.5"/>
<text text-anchor="middle" x="188" y="-63.5" font-family="Helvetica,sans-Serif" font-size="10.00">csmoothersModule.c</text>
</a>
</g>
</g>
<!-- Node1&#45;&gt;Node3 -->
<g id="edge2" class="edge"><title>Node1&#45;&gt;Node3</title>
<path fill="none" stroke="midnightblue" d="M235.446,-105.82C223.622,-96.1452 208.714,-83.9481 198.797,-75.8339"/>
<polygon fill="midnightblue" stroke="midnightblue" points="233.44,-108.7 243.396,-112.324 237.873,-103.283 233.44,-108.7"/>
</g>
<!-- Node4 -->
<g id="node4" class="node"><title>Node4</title>
<g id="a_node4"><a xlink:href="flcbdf_wrappers_module_8h.html" target="_top" xlink:title="Python interface to adpative BDF code (daetk) ">
<polygon fill="white" stroke="black" points="260,-56.5 260,-75.5 382,-75.5 382,-56.5 260,-56.5"/>
<text text-anchor="middle" x="321" y="-63.5" font-family="Helvetica,sans-Serif" font-size="10.00">flcbdfWrappersModule.h</text>
</a>
</g>
</g>
<!-- Node1&#45;&gt;Node4 -->
<g id="edge3" class="edge"><title>Node1&#45;&gt;Node4</title>
<path fill="none" stroke="midnightblue" d="M272.835,-105.82C284.838,-96.1452 299.972,-83.9481 310.039,-75.8339"/>
<polygon fill="midnightblue" stroke="midnightblue" points="270.354,-103.324 264.765,-112.324 274.747,-108.774 270.354,-103.324"/>
</g>
<!-- Node6 -->
<g id="node6" class="node"><title>Node6</title>
<g id="a_node6"><a xlink:href="superlu_wrappers_module_8c.html" target="_top" xlink:title="superluWrappersModule.c">
<polygon fill="white" stroke="black" points="400,-56.5 400,-75.5 530,-75.5 530,-56.5 400,-56.5"/>
<text text-anchor="middle" x="465" y="-63.5" font-family="Helvetica,sans-Serif" font-size="10.00">superluWrappersModule.c</text>
</a>
</g>
</g>
<!-- Node1&#45;&gt;Node6 -->
<g id="edge5" class="edge"><title>Node1&#45;&gt;Node6</title>
<path fill="none" stroke="midnightblue" d="M297.142,-109.959C336.994,-99.7598 395.363,-84.8217 431.723,-75.5164"/>
<polygon fill="midnightblue" stroke="midnightblue" points="296.254,-106.573 287.434,-112.444 297.989,-113.355 296.254,-106.573"/>
</g>
<!-- Node5 -->
<g id="node5" class="node"><title>Node5</title>
<g id="a_node5"><a xlink:href="flcbdf_wrappers_module_8cpp.html" target="_top" xlink:title="flcbdfWrappersModule.cpp">
<polygon fill="white" stroke="black" points="254.5,-0.5 254.5,-19.5 387.5,-19.5 387.5,-0.5 254.5,-0.5"/>
<text text-anchor="middle" x="321" y="-7.5" font-family="Helvetica,sans-Serif" font-size="10.00">flcbdfWrappersModule.cpp</text>
</a>
</g>
</g>
<!-- Node4&#45;&gt;Node5 -->
<g id="edge4" class="edge"><title>Node4&#45;&gt;Node5</title>
<path fill="none" stroke="midnightblue" d="M321,-45.8045C321,-36.9102 321,-26.7798 321,-19.7511"/>
<polygon fill="midnightblue" stroke="midnightblue" points="317.5,-46.083 321,-56.083 324.5,-46.083 317.5,-46.083"/>
</g>
</g>
</svg>
