<?xml version="1.0" encoding="UTF-8" standalone="no"?>
<!DOCTYPE svg PUBLIC "-//W3C//DTD SVG 1.1//EN"
 "http://www.w3.org/Graphics/SVG/1.1/DTD/svg11.dtd">
<!-- Generated by graphviz version 2.40.1 (20161225.0304)
 -->
<!-- Title: timeIntegration.h Pages: 1 -->
<svg width="242pt" height="84pt"
 viewBox="0.00 0.00 241.50 84.00" xmlns="http://www.w3.org/2000/svg" xmlns:xlink="http://www.w3.org/1999/xlink">
<g id="graph0" class="graph" transform="scale(1 1) rotate(0) translate(4 80)">
<title>timeIntegration.h</title>
<polygon fill="#ffffff" stroke="transparent" points="-4,4 -4,-80 237.5,-80 237.5,4 -4,4"/>
<!-- Node1 -->
<g id="node1" class="node">
<title>Node1</title>
<polygon fill="#bfbfbf" stroke="#000000" points="81.5,-56.5 81.5,-75.5 170.5,-75.5 170.5,-56.5 81.5,-56.5"/>
<text text-anchor="middle" x="126" y="-63.5" font-family="Helvetica,sans-Serif" font-size="10.00" fill="#000000">timeIntegration.h</text>
</g>
<!-- Node2 -->
<g id="node2" class="node">
<title>Node2</title>
<g id="a_node2"><a xlink:href="ctime_integration_module_8c.html" target="_top" xlink:title="ctimeIntegrationModule.c">
<polygon fill="#ffffff" stroke="#000000" points="0,-.5 0,-19.5 126,-19.5 126,-.5 0,-.5"/>
<text text-anchor="middle" x="63" y="-7.5" font-family="Helvetica,sans-Serif" font-size="10.00" fill="#000000">ctimeIntegrationModule.c</text>
</a>
</g>
</g>
<!-- Node1&#45;&gt;Node2 -->
<g id="edge1" class="edge">
<title>Node1&#45;&gt;Node2</title>
<path fill="none" stroke="#191970" d="M107.2808,-49.3607C96.3818,-39.6727 83.0245,-27.7995 73.848,-19.6427"/>
<polygon fill="#191970" stroke="#191970" points="105.2268,-52.2178 115.0262,-56.2455 109.8774,-46.9859 105.2268,-52.2178"/>
</g>
<!-- Node3 -->
<g id="node3" class="node">
<title>Node3</title>
<g id="a_node3"><a xlink:href="time_integration_8c.html" target="_top" xlink:title="timeIntegration.c">
<polygon fill="#ffffff" stroke="#000000" points="144.5,-.5 144.5,-19.5 233.5,-19.5 233.5,-.5 144.5,-.5"/>
<text text-anchor="middle" x="189" y="-7.5" font-family="Helvetica,sans-Serif" font-size="10.00" fill="#000000">timeIntegration.c</text>
</a>
</g>
</g>
<!-- Node1&#45;&gt;Node3 -->
<g id="edge2" class="edge">
<title>Node1&#45;&gt;Node3</title>
<path fill="none" stroke="#191970" d="M144.7192,-49.3607C155.6182,-39.6727 168.9755,-27.7995 178.152,-19.6427"/>
<polygon fill="#191970" stroke="#191970" points="142.1226,-46.9859 136.9738,-56.2455 146.7732,-52.2178 142.1226,-46.9859"/>
</g>
</g>
</svg>
