<?xml version="1.0" encoding="UTF-8" standalone="no"?>
<!DOCTYPE svg PUBLIC "-//W3C//DTD SVG 1.1//EN"
 "http://www.w3.org/Graphics/SVG/1.1/DTD/svg11.dtd">
<!-- Generated by graphviz version 2.38.0 (20140413.2041)
 -->
<!-- Title: timeIntegration.c Pages: 1 -->
<svg width="436pt" height="84pt"
 viewBox="0.00 0.00 435.50 84.00" xmlns="http://www.w3.org/2000/svg" xmlns:xlink="http://www.w3.org/1999/xlink">
<g id="graph0" class="graph" transform="scale(1 1) rotate(0) translate(4 80)">
<title>timeIntegration.c</title>
<polygon fill="white" stroke="none" points="-4,4 -4,-80 431.5,-80 431.5,4 -4,4"/>
<!-- Node0 -->
<g id="node1" class="node"><title>Node0</title>
<polygon fill="#bfbfbf" stroke="black" points="143.5,-56.5 143.5,-75.5 232.5,-75.5 232.5,-56.5 143.5,-56.5"/>
<text text-anchor="middle" x="188" y="-63.5" font-family="Helvetica,sans-Serif" font-size="10.00">timeIntegration.c</text>
</g>
<!-- Node1 -->
<g id="node2" class="node"><title>Node1</title>
<polygon fill="white" stroke="#bfbfbf" points="0,-0.5 0,-19.5 48,-19.5 48,-0.5 0,-0.5"/>
<text text-anchor="middle" x="24" y="-7.5" font-family="Helvetica,sans-Serif" font-size="10.00">stdlib.h</text>
</g>
<!-- Node0&#45;&gt;Node1 -->
<g id="edge1" class="edge"><title>Node0&#45;&gt;Node1</title>
<path fill="none" stroke="midnightblue" d="M162.014,-56.4435C133.815,-47.1586 88.6877,-32.2996 57.7628,-22.117"/>
<polygon fill="midnightblue" stroke="midnightblue" points="58.8538,-18.7915 48.2608,-18.9883 56.6645,-25.4403 58.8538,-18.7915"/>
</g>
<!-- Node2 -->
<g id="node3" class="node"><title>Node2</title>
<polygon fill="white" stroke="#bfbfbf" points="66,-0.5 66,-19.5 112,-19.5 112,-0.5 66,-0.5"/>
<text text-anchor="middle" x="89" y="-7.5" font-family="Helvetica,sans-Serif" font-size="10.00">stdio.h</text>
</g>
<!-- Node0&#45;&gt;Node2 -->
<g id="edge2" class="edge"><title>Node0&#45;&gt;Node2</title>
<path fill="none" stroke="midnightblue" d="M172.094,-56.324C156.362,-47.7428 132.058,-34.486 113.791,-24.5224"/>
<polygon fill="midnightblue" stroke="midnightblue" points="115.322,-21.3704 104.867,-19.6545 111.97,-27.5157 115.322,-21.3704"/>
</g>
<!-- Node3 -->
<g id="node4" class="node"><title>Node3</title>
<polygon fill="white" stroke="#bfbfbf" points="130.5,-0.5 130.5,-19.5 177.5,-19.5 177.5,-0.5 130.5,-0.5"/>
<text text-anchor="middle" x="154" y="-7.5" font-family="Helvetica,sans-Serif" font-size="10.00">math.h</text>
</g>
<!-- Node0&#45;&gt;Node3 -->
<g id="edge3" class="edge"><title>Node0&#45;&gt;Node3</title>
<path fill="none" stroke="midnightblue" d="M182.386,-56.083C177.633,-48.5341 170.682,-37.4948 164.848,-28.2298"/>
<polygon fill="midnightblue" stroke="midnightblue" points="167.8,-26.3486 159.51,-19.7511 161.876,-30.0783 167.8,-26.3486"/>
</g>
<!-- Node4 -->
<g id="node5" class="node"><title>Node4</title>
<polygon fill="white" stroke="#bfbfbf" points="196,-0.5 196,-19.5 250,-19.5 250,-0.5 196,-0.5"/>
<text text-anchor="middle" x="223" y="-7.5" font-family="Helvetica,sans-Serif" font-size="10.00">strings.h</text>
</g>
<!-- Node0&#45;&gt;Node4 -->
<g id="edge4" class="edge"><title>Node0&#45;&gt;Node4</title>
<path fill="none" stroke="midnightblue" d="M193.78,-56.083C198.672,-48.5341 205.827,-37.4948 211.833,-28.2298"/>
<polygon fill="midnightblue" stroke="midnightblue" points="214.826,-30.0463 217.328,-19.7511 208.952,-26.239 214.826,-30.0463"/>
</g>
<!-- Node5 -->
<g id="node6" class="node"><title>Node5</title>
<polygon fill="white" stroke="#bfbfbf" points="268,-0.5 268,-19.5 320,-19.5 320,-0.5 268,-0.5"/>
<text text-anchor="middle" x="294" y="-7.5" font-family="Helvetica,sans-Serif" font-size="10.00">assert.h</text>
</g>
<!-- Node0&#45;&gt;Node5 -->
<g id="edge5" class="edge"><title>Node0&#45;&gt;Node5</title>
<path fill="none" stroke="midnightblue" d="M205.031,-56.324C222.03,-47.6641 248.376,-34.2424 267.993,-24.249"/>
<polygon fill="midnightblue" stroke="midnightblue" points="269.69,-27.3125 277.012,-19.6545 266.512,-21.0752 269.69,-27.3125"/>
</g>
<!-- Node6 -->
<g id="node7" class="node"><title>Node6</title>
<g id="a_node7"><a xlink:href="time_integration_8h.html" target="_top" xlink:title="c interface for implementation of time discretization algorithms ">
<polygon fill="white" stroke="black" points="338.5,-0.5 338.5,-19.5 427.5,-19.5 427.5,-0.5 338.5,-0.5"/>
<text text-anchor="middle" x="383" y="-7.5" font-family="Helvetica,sans-Serif" font-size="10.00">timeIntegration.h</text>
</a>
</g>
</g>
<!-- Node0&#45;&gt;Node6 -->
<g id="edge6" class="edge"><title>Node0&#45;&gt;Node6</title>
<path fill="none" stroke="midnightblue" d="M218.898,-56.4435C252.274,-47.2011 305.594,-32.4356 342.349,-22.2572"/>
<polygon fill="midnightblue" stroke="midnightblue" points="343.543,-25.5583 352.246,-19.5164 341.675,-18.8122 343.543,-25.5583"/>
</g>
</g>
</svg>
