<?xml version="1.0" encoding="UTF-8" standalone="no"?>
<!DOCTYPE svg PUBLIC "-//W3C//DTD SVG 1.1//EN"
 "http://www.w3.org/Graphics/SVG/1.1/DTD/svg11.dtd">
<!-- Generated by graphviz version 2.38.0 (20140413.2041)
 -->
<!-- Title: timeIntegration.h Pages: 1 -->
<svg width="242pt" height="84pt"
 viewBox="0.00 0.00 241.50 84.00" xmlns="http://www.w3.org/2000/svg" xmlns:xlink="http://www.w3.org/1999/xlink">
<g id="graph0" class="graph" transform="scale(1 1) rotate(0) translate(4 80)">
<title>timeIntegration.h</title>
<polygon fill="white" stroke="none" points="-4,4 -4,-80 237.5,-80 237.5,4 -4,4"/>
<!-- Node1 -->
<g id="node1" class="node"><title>Node1</title>
<polygon fill="#bfbfbf" stroke="black" points="81.5,-56.5 81.5,-75.5 170.5,-75.5 170.5,-56.5 81.5,-56.5"/>
<text text-anchor="middle" x="126" y="-63.5" font-family="Helvetica,sans-Serif" font-size="10.00">timeIntegration.h</text>
</g>
<!-- Node2 -->
<g id="node2" class="node"><title>Node2</title>
<g id="a_node2"><a xlink:href="ctime_integration_module_8c.html" target="_top" xlink:title="ctimeIntegrationModule.c">
<polygon fill="white" stroke="black" points="0,-0.5 0,-19.5 126,-19.5 126,-0.5 0,-0.5"/>
<text text-anchor="middle" x="63" y="-7.5" font-family="Helvetica,sans-Serif" font-size="10.00">ctimeIntegrationModule.c</text>
</a>
</g>
</g>
<!-- Node1&#45;&gt;Node2 -->
<g id="edge1" class="edge"><title>Node1&#45;&gt;Node2</title>
<path fill="none" stroke="midnightblue" d="M107.96,-49.5372C96.7269,-39.9087 82.6809,-27.8694 73.3062,-19.8339"/>
<polygon fill="midnightblue" stroke="midnightblue" points="106.008,-52.4734 115.878,-56.324 110.563,-47.1586 106.008,-52.4734"/>
</g>
<!-- Node3 -->
<g id="node3" class="node"><title>Node3</title>
<g id="a_node3"><a xlink:href="time_integration_8c.html" target="_top" xlink:title="timeIntegration.c">
<polygon fill="white" stroke="black" points="144.5,-0.5 144.5,-19.5 233.5,-19.5 233.5,-0.5 144.5,-0.5"/>
<text text-anchor="middle" x="189" y="-7.5" font-family="Helvetica,sans-Serif" font-size="10.00">timeIntegration.c</text>
</a>
</g>
</g>
<!-- Node1&#45;&gt;Node3 -->
<g id="edge2" class="edge"><title>Node1&#45;&gt;Node3</title>
<path fill="none" stroke="midnightblue" d="M144.04,-49.5372C155.273,-39.9087 169.319,-27.8694 178.694,-19.8339"/>
<polygon fill="midnightblue" stroke="midnightblue" points="141.437,-47.1586 136.122,-56.324 145.992,-52.4734 141.437,-47.1586"/>
</g>
</g>
</svg>
