<?xml version="1.0" encoding="UTF-8" standalone="no"?>
<!DOCTYPE svg PUBLIC "-//W3C//DTD SVG 1.1//EN"
 "http://www.w3.org/Graphics/SVG/1.1/DTD/svg11.dtd">
<!-- Generated by graphviz version 2.38.0 (20140413.2041)
 -->
<!-- Title: transportCoefficients.c Pages: 1 -->
<svg width="468pt" height="84pt"
 viewBox="0.00 0.00 467.50 84.00" xmlns="http://www.w3.org/2000/svg" xmlns:xlink="http://www.w3.org/1999/xlink">
<g id="graph0" class="graph" transform="scale(1 1) rotate(0) translate(4 80)">
<title>transportCoefficients.c</title>
<polygon fill="white" stroke="none" points="-4,4 -4,-80 463.5,-80 463.5,4 -4,4"/>
<!-- Node0 -->
<g id="node1" class="node"><title>Node0</title>
<polygon fill="#bfbfbf" stroke="black" points="135.5,-56.5 135.5,-75.5 251.5,-75.5 251.5,-56.5 135.5,-56.5"/>
<text text-anchor="middle" x="193.5" y="-63.5" font-family="Helvetica,sans-Serif" font-size="10.00">transportCoefficients.c</text>
</g>
<!-- Node1 -->
<g id="node2" class="node"><title>Node1</title>
<polygon fill="white" stroke="#bfbfbf" points="0,-0.5 0,-19.5 47,-19.5 47,-0.5 0,-0.5"/>
<text text-anchor="middle" x="23.5" y="-7.5" font-family="Helvetica,sans-Serif" font-size="10.00">math.h</text>
</g>
<!-- Node0&#45;&gt;Node1 -->
<g id="edge1" class="edge"><title>Node0&#45;&gt;Node1</title>
<path fill="none" stroke="midnightblue" d="M166.563,-56.4435C136.826,-46.9976 88.9266,-31.7826 56.8438,-21.5916"/>
<polygon fill="midnightblue" stroke="midnightblue" points="57.6165,-18.1647 47.0262,-18.473 55.4973,-24.8362 57.6165,-18.1647"/>
</g>
<!-- Node2 -->
<g id="node3" class="node"><title>Node2</title>
<polygon fill="white" stroke="#bfbfbf" points="65.5,-0.5 65.5,-19.5 117.5,-19.5 117.5,-0.5 65.5,-0.5"/>
<text text-anchor="middle" x="91.5" y="-7.5" font-family="Helvetica,sans-Serif" font-size="10.00">assert.h</text>
</g>
<!-- Node0&#45;&gt;Node2 -->
<g id="edge2" class="edge"><title>Node0&#45;&gt;Node2</title>
<path fill="none" stroke="midnightblue" d="M177.112,-56.324C160.829,-47.7034 135.633,-34.3643 116.784,-24.3855"/>
<polygon fill="midnightblue" stroke="midnightblue" points="118.323,-21.2402 107.847,-19.6545 115.048,-27.4267 118.323,-21.2402"/>
</g>
<!-- Node3 -->
<g id="node4" class="node"><title>Node3</title>
<polygon fill="white" stroke="#bfbfbf" points="135.5,-0.5 135.5,-19.5 181.5,-19.5 181.5,-0.5 135.5,-0.5"/>
<text text-anchor="middle" x="158.5" y="-7.5" font-family="Helvetica,sans-Serif" font-size="10.00">stdio.h</text>
</g>
<!-- Node0&#45;&gt;Node3 -->
<g id="edge3" class="edge"><title>Node0&#45;&gt;Node3</title>
<path fill="none" stroke="midnightblue" d="M187.72,-56.083C182.828,-48.5341 175.673,-37.4948 169.667,-28.2298"/>
<polygon fill="midnightblue" stroke="midnightblue" points="172.548,-26.239 164.172,-19.7511 166.674,-30.0463 172.548,-26.239"/>
</g>
<!-- Node4 -->
<g id="node5" class="node"><title>Node4</title>
<polygon fill="white" stroke="#bfbfbf" points="199.5,-0.5 199.5,-19.5 259.5,-19.5 259.5,-0.5 199.5,-0.5"/>
<text text-anchor="middle" x="229.5" y="-7.5" font-family="Helvetica,sans-Serif" font-size="10.00">memory.h</text>
</g>
<!-- Node0&#45;&gt;Node4 -->
<g id="edge4" class="edge"><title>Node0&#45;&gt;Node4</title>
<path fill="none" stroke="midnightblue" d="M199.445,-56.083C204.477,-48.5341 211.837,-37.4948 218.013,-28.2298"/>
<polygon fill="midnightblue" stroke="midnightblue" points="221.031,-30.0131 223.666,-19.7511 215.207,-26.1301 221.031,-30.0131"/>
</g>
<!-- Node5 -->
<g id="node6" class="node"><title>Node5</title>
<polygon fill="white" stroke="#bfbfbf" points="277.5,-0.5 277.5,-19.5 325.5,-19.5 325.5,-0.5 277.5,-0.5"/>
<text text-anchor="middle" x="301.5" y="-7.5" font-family="Helvetica,sans-Serif" font-size="10.00">stdlib.h</text>
</g>
<!-- Node0&#45;&gt;Node5 -->
<g id="edge5" class="edge"><title>Node0&#45;&gt;Node5</title>
<path fill="none" stroke="midnightblue" d="M210.852,-56.324C228.172,-47.6641 255.015,-34.2424 275.002,-24.249"/>
<polygon fill="midnightblue" stroke="midnightblue" points="276.812,-27.2572 284.191,-19.6545 273.681,-20.9962 276.812,-27.2572"/>
</g>
<!-- Node6 -->
<g id="node7" class="node"><title>Node6</title>
<g id="a_node7"><a xlink:href="transport_coefficients_8h.html" target="_top" xlink:title="transportCoefficients.h">
<polygon fill="white" stroke="black" points="343.5,-0.5 343.5,-19.5 459.5,-19.5 459.5,-0.5 343.5,-0.5"/>
<text text-anchor="middle" x="401.5" y="-7.5" font-family="Helvetica,sans-Serif" font-size="10.00">transportCoefficients.h</text>
</a>
</g>
</g>
<!-- Node0&#45;&gt;Node6 -->
<g id="edge6" class="edge"><title>Node0&#45;&gt;Node6</title>
<path fill="none" stroke="midnightblue" d="M226.458,-56.4435C262.287,-47.1419 319.663,-32.246 358.891,-22.062"/>
<polygon fill="midnightblue" stroke="midnightblue" points="359.896,-25.4171 368.696,-19.5164 358.137,-18.6417 359.896,-25.4171"/>
</g>
</g>
</svg>
