<?xml version="1.0" encoding="UTF-8" standalone="no"?>
<!DOCTYPE svg PUBLIC "-//W3C//DTD SVG 1.1//EN"
 "http://www.w3.org/Graphics/SVG/1.1/DTD/svg11.dtd">
<!-- Generated by graphviz version 2.40.1 (20161225.0304)
 -->
<!-- Title: transportCoefficients.h Pages: 1 -->
<svg width="294pt" height="84pt"
 viewBox="0.00 0.00 294.00 84.00" xmlns="http://www.w3.org/2000/svg" xmlns:xlink="http://www.w3.org/1999/xlink">
<g id="graph0" class="graph" transform="scale(1 1) rotate(0) translate(4 80)">
<title>transportCoefficients.h</title>
<polygon fill="#ffffff" stroke="transparent" points="-4,4 -4,-80 290,-80 290,4 -4,4"/>
<!-- Node1 -->
<g id="node1" class="node">
<title>Node1</title>
<polygon fill="#bfbfbf" stroke="#000000" points="94,-56.5 94,-75.5 210,-75.5 210,-56.5 94,-56.5"/>
<text text-anchor="middle" x="152" y="-63.5" font-family="Helvetica,sans-Serif" font-size="10.00" fill="#000000">transportCoefficients.h</text>
</g>
<!-- Node2 -->
<g id="node2" class="node">
<title>Node2</title>
<g id="a_node2"><a xlink:href="ctransport_coefficients_module_8c.html" target="_top" xlink:title="ctransportCoefficientsModule.c">
<polygon fill="#ffffff" stroke="#000000" points="0,-.5 0,-19.5 152,-19.5 152,-.5 0,-.5"/>
<text text-anchor="middle" x="76" y="-7.5" font-family="Helvetica,sans-Serif" font-size="10.00" fill="#000000">ctransportCoefficientsModule.c</text>
</a>
</g>
</g>
<!-- Node1&#45;&gt;Node2 -->
<g id="edge1" class="edge">
<title>Node1&#45;&gt;Node2</title>
<path fill="none" stroke="#191970" d="M130.5703,-50.2097C117.2223,-40.3743 100.4821,-28.0394 89.0865,-19.6427"/>
<polygon fill="#191970" stroke="#191970" points="128.635,-53.1312 138.7618,-56.2455 132.7874,-47.4958 128.635,-53.1312"/>
</g>
<!-- Node3 -->
<g id="node3" class="node">
<title>Node3</title>
<g id="a_node3"><a xlink:href="transport_coefficients_8c.html" target="_top" xlink:title="transportCoefficients.c">
<polygon fill="#ffffff" stroke="#000000" points="170,-.5 170,-19.5 286,-19.5 286,-.5 170,-.5"/>
<text text-anchor="middle" x="228" y="-7.5" font-family="Helvetica,sans-Serif" font-size="10.00" fill="#000000">transportCoefficients.c</text>
</a>
</g>
</g>
<!-- Node1&#45;&gt;Node3 -->
<g id="edge2" class="edge">
<title>Node1&#45;&gt;Node3</title>
<path fill="none" stroke="#191970" d="M173.4297,-50.2097C186.7777,-40.3743 203.5179,-28.0394 214.9135,-19.6427"/>
<polygon fill="#191970" stroke="#191970" points="171.2126,-47.4958 165.2382,-56.2455 175.365,-53.1312 171.2126,-47.4958"/>
</g>
</g>
</svg>
