<?xml version="1.0" encoding="UTF-8" standalone="no"?>
<!DOCTYPE svg PUBLIC "-//W3C//DTD SVG 1.1//EN"
 "http://www.w3.org/Graphics/SVG/1.1/DTD/svg11.dtd">
<!-- Generated by graphviz version 2.40.1 (20161225.0304)
 -->
<!-- Title: transportCoefficients.c Pages: 1 -->
<svg width="468pt" height="84pt"
 viewBox="0.00 0.00 467.50 84.00" xmlns="http://www.w3.org/2000/svg" xmlns:xlink="http://www.w3.org/1999/xlink">
<g id="graph0" class="graph" transform="scale(1 1) rotate(0) translate(4 80)">
<title>transportCoefficients.c</title>
<polygon fill="#ffffff" stroke="transparent" points="-4,4 -4,-80 463.5,-80 463.5,4 -4,4"/>
<!-- Node0 -->
<g id="node1" class="node">
<title>Node0</title>
<polygon fill="#bfbfbf" stroke="#000000" points="135.5,-56.5 135.5,-75.5 251.5,-75.5 251.5,-56.5 135.5,-56.5"/>
<text text-anchor="middle" x="193.5" y="-63.5" font-family="Helvetica,sans-Serif" font-size="10.00" fill="#000000">transportCoefficients.c</text>
</g>
<!-- Node1 -->
<g id="node2" class="node">
<title>Node1</title>
<polygon fill="#ffffff" stroke="#bfbfbf" points="0,-.5 0,-19.5 47,-19.5 47,-.5 0,-.5"/>
<text text-anchor="middle" x="23.5" y="-7.5" font-family="Helvetica,sans-Serif" font-size="10.00" fill="#000000">math.h</text>
</g>
<!-- Node0&#45;&gt;Node1 -->
<g id="edge1" class="edge">
<title>Node0&#45;&gt;Node1</title>
<path fill="none" stroke="#191970" d="M164.276,-56.3733C134.38,-46.5252 88.0026,-31.2479 56.7286,-20.9459"/>
<polygon fill="#191970" stroke="#191970" points="57.7385,-17.5936 47.1455,-17.7891 55.5483,-24.2422 57.7385,-17.5936"/>
</g>
<!-- Node2 -->
<g id="node3" class="node">
<title>Node2</title>
<polygon fill="#ffffff" stroke="#bfbfbf" points="65.5,-.5 65.5,-19.5 117.5,-19.5 117.5,-.5 65.5,-.5"/>
<text text-anchor="middle" x="91.5" y="-7.5" font-family="Helvetica,sans-Serif" font-size="10.00" fill="#000000">assert.h</text>
</g>
<!-- Node0&#45;&gt;Node2 -->
<g id="edge2" class="edge">
<title>Node0&#45;&gt;Node2</title>
<path fill="none" stroke="#191970" d="M175.733,-56.2455C159.7905,-47.4928 136.1741,-34.527 118.0011,-24.5496"/>
<polygon fill="#191970" stroke="#191970" points="119.5137,-21.3873 109.0634,-19.6427 116.1448,-27.5233 119.5137,-21.3873"/>
</g>
<!-- Node3 -->
<g id="node4" class="node">
<title>Node3</title>
<polygon fill="#ffffff" stroke="#bfbfbf" points="135.5,-.5 135.5,-19.5 181.5,-19.5 181.5,-.5 135.5,-.5"/>
<text text-anchor="middle" x="158.5" y="-7.5" font-family="Helvetica,sans-Serif" font-size="10.00" fill="#000000">stdio.h</text>
</g>
<!-- Node0&#45;&gt;Node3 -->
<g id="edge3" class="edge">
<title>Node0&#45;&gt;Node3</title>
<path fill="none" stroke="#191970" d="M187.4035,-56.2455C182.5855,-48.5367 175.7249,-37.5598 169.8968,-28.2348"/>
<polygon fill="#191970" stroke="#191970" points="172.7947,-26.2677 164.5267,-19.6427 166.8587,-29.9777 172.7947,-26.2677"/>
</g>
<!-- Node4 -->
<g id="node5" class="node">
<title>Node4</title>
<polygon fill="#ffffff" stroke="#bfbfbf" points="199.5,-.5 199.5,-19.5 259.5,-19.5 259.5,-.5 199.5,-.5"/>
<text text-anchor="middle" x="229.5" y="-7.5" font-family="Helvetica,sans-Serif" font-size="10.00" fill="#000000">memory.h</text>
</g>
<!-- Node0&#45;&gt;Node4 -->
<g id="edge4" class="edge">
<title>Node0&#45;&gt;Node4</title>
<path fill="none" stroke="#191970" d="M199.7707,-56.2455C204.7264,-48.5367 211.783,-37.5598 217.7776,-28.2348"/>
<polygon fill="#191970" stroke="#191970" points="220.8376,-29.9471 223.3011,-19.6427 214.9494,-26.1618 220.8376,-29.9471"/>
</g>
<!-- Node5 -->
<g id="node6" class="node">
<title>Node5</title>
<polygon fill="#ffffff" stroke="#bfbfbf" points="277.5,-.5 277.5,-19.5 325.5,-19.5 325.5,-.5 277.5,-.5"/>
<text text-anchor="middle" x="301.5" y="-7.5" font-family="Helvetica,sans-Serif" font-size="10.00" fill="#000000">stdlib.h</text>
</g>
<!-- Node0&#45;&gt;Node5 -->
<g id="edge5" class="edge">
<title>Node0&#45;&gt;Node5</title>
<path fill="none" stroke="#191970" d="M212.3122,-56.2455C229.3473,-47.4125 254.6575,-34.2887 273.9681,-24.2758"/>
<polygon fill="#191970" stroke="#191970" points="275.637,-27.353 282.9034,-19.6427 272.4147,-21.1388 275.637,-27.353"/>
</g>
<!-- Node6 -->
<g id="node7" class="node">
<title>Node6</title>
<g id="a_node7"><a xlink:href="transport_coefficients_8h.html" target="_top" xlink:title="transportCoefficients.h">
<polygon fill="#ffffff" stroke="#000000" points="343.5,-.5 343.5,-19.5 459.5,-19.5 459.5,-.5 343.5,-.5"/>
<text text-anchor="middle" x="401.5" y="-7.5" font-family="Helvetica,sans-Serif" font-size="10.00" fill="#000000">transportCoefficients.h</text>
</a>
</g>
</g>
<!-- Node0&#45;&gt;Node6 -->
<g id="edge6" class="edge">
<title>Node0&#45;&gt;Node6</title>
<path fill="none" stroke="#191970" d="M229.2565,-56.3733C264.4426,-46.9001 318.2881,-32.4032 356.3956,-22.1435"/>
<polygon fill="#191970" stroke="#191970" points="357.4639,-25.4806 366.2101,-19.5011 355.644,-18.7213 357.4639,-25.4806"/>
</g>
</g>
</svg>
