<?xml version="1.0" encoding="UTF-8" standalone="no"?>
<!DOCTYPE svg PUBLIC "-//W3C//DTD SVG 1.1//EN"
 "http://www.w3.org/Graphics/SVG/1.1/DTD/svg11.dtd">
<!-- Generated by graphviz version 2.42.3 (0)
 -->
<!-- Title: transportCoefficients.h Pages: 1 -->
<svg width="356pt" height="84pt"
 viewBox="0.00 0.00 356.00 84.00" xmlns="http://www.w3.org/2000/svg" xmlns:xlink="http://www.w3.org/1999/xlink">
<g id="graph0" class="graph" transform="scale(1 1) rotate(0) translate(4 80)">
<title>transportCoefficients.h</title>
<polygon fill="white" stroke="transparent" points="-4,4 -4,-80 352,-80 352,4 -4,4"/>
<!-- Node1 -->
<g id="node1" class="node">
<title>Node1</title>
<g id="a_node1"><a xlink:title=" ">
<polygon fill="#bfbfbf" stroke="black" points="104.5,-56.5 104.5,-75.5 232.5,-75.5 232.5,-56.5 104.5,-56.5"/>
<text text-anchor="middle" x="168.5" y="-63.5" font-family="Helvetica,sans-Serif" font-size="10.00">transportCoefficients.h</text>
</a>
</g>
</g>
<!-- Node2 -->
<g id="node2" class="node">
<title>Node2</title>
<g id="a_node2"><a xlink:title=" ">
<polygon fill="white" stroke="#bfbfbf" points="0,-0.5 0,-19.5 51,-19.5 51,-0.5 0,-0.5"/>
<text text-anchor="middle" x="25.5" y="-7.5" font-family="Helvetica,sans-Serif" font-size="10.00">math.h</text>
</a>
</g>
</g>
<!-- Node1&#45;&gt;Node2 -->
<g id="edge1" class="edge">
<title>Node1&#45;&gt;Node2</title>
<path fill="none" stroke="midnightblue" d="M145.84,-56.44C122.1,-47.48 84.59,-33.31 57.76,-23.18"/>
<polygon fill="midnightblue" stroke="midnightblue" points="58.64,-19.77 48.05,-19.52 56.17,-26.32 58.64,-19.77"/>
</g>
<!-- Node3 -->
<g id="node3" class="node">
<title>Node3</title>
<g id="a_node3"><a xlink:title=" ">
<polygon fill="white" stroke="#bfbfbf" points="69.5,-0.5 69.5,-19.5 125.5,-19.5 125.5,-0.5 69.5,-0.5"/>
<text text-anchor="middle" x="97.5" y="-7.5" font-family="Helvetica,sans-Serif" font-size="10.00">assert.h</text>
</a>
</g>
</g>
<!-- Node1&#45;&gt;Node3 -->
<g id="edge2" class="edge">
<title>Node1&#45;&gt;Node3</title>
<path fill="none" stroke="midnightblue" d="M157.09,-56.32C146.39,-48.18 130.16,-35.84 117.34,-26.09"/>
<polygon fill="midnightblue" stroke="midnightblue" points="119.19,-23.1 109.11,-19.83 114.96,-28.67 119.19,-23.1"/>
</g>
<!-- Node4 -->
<g id="node4" class="node">
<title>Node4</title>
<g id="a_node4"><a xlink:title=" ">
<polygon fill="white" stroke="#bfbfbf" points="143.5,-0.5 143.5,-19.5 193.5,-19.5 193.5,-0.5 143.5,-0.5"/>
<text text-anchor="middle" x="168.5" y="-7.5" font-family="Helvetica,sans-Serif" font-size="10.00">stdio.h</text>
</a>
</g>
</g>
<!-- Node1&#45;&gt;Node4 -->
<g id="edge3" class="edge">
<title>Node1&#45;&gt;Node4</title>
<path fill="none" stroke="midnightblue" d="M168.5,-56.08C168.5,-49.01 168.5,-38.86 168.5,-29.99"/>
<polygon fill="midnightblue" stroke="midnightblue" points="172,-29.75 168.5,-19.75 165,-29.75 172,-29.75"/>
</g>
<!-- Node5 -->
<g id="node5" class="node">
<title>Node5</title>
<g id="a_node5"><a xlink:title=" ">
<polygon fill="white" stroke="#bfbfbf" points="212,-0.5 212,-19.5 277,-19.5 277,-0.5 212,-0.5"/>
<text text-anchor="middle" x="244.5" y="-7.5" font-family="Helvetica,sans-Serif" font-size="10.00">memory.h</text>
</a>
</g>
</g>
<!-- Node1&#45;&gt;Node5 -->
<g id="edge4" class="edge">
<title>Node1&#45;&gt;Node5</title>
<path fill="none" stroke="midnightblue" d="M180.71,-56.32C192.28,-48.11 209.88,-35.6 223.66,-25.81"/>
<polygon fill="midnightblue" stroke="midnightblue" points="225.94,-28.48 232.07,-19.83 221.89,-22.77 225.94,-28.48"/>
</g>
<!-- Node6 -->
<g id="node6" class="node">
<title>Node6</title>
<g id="a_node6"><a xlink:title=" ">
<polygon fill="white" stroke="#bfbfbf" points="295,-0.5 295,-19.5 348,-19.5 348,-0.5 295,-0.5"/>
<text text-anchor="middle" x="321.5" y="-7.5" font-family="Helvetica,sans-Serif" font-size="10.00">stdlib.h</text>
</a>
</g>
</g>
<!-- Node1&#45;&gt;Node6 -->
<g id="edge5" class="edge">
<title>Node1&#45;&gt;Node6</title>
<path fill="none" stroke="midnightblue" d="M192.74,-56.44C218.37,-47.4 258.99,-33.06 287.74,-22.92"/>
<polygon fill="midnightblue" stroke="midnightblue" points="289.11,-26.15 297.37,-19.52 286.78,-19.54 289.11,-26.15"/>
</g>
</g>
</svg>
