<?xml version="1.0" encoding="UTF-8" standalone="no"?>
<!DOCTYPE svg PUBLIC "-//W3C//DTD SVG 1.1//EN"
 "http://www.w3.org/Graphics/SVG/1.1/DTD/svg11.dtd">
<!-- Generated by graphviz version 2.38.0 (20140413.2041)
 -->
<!-- Title: transportCoefficients.h Pages: 1 -->
<svg width="294pt" height="84pt"
 viewBox="0.00 0.00 294.00 84.00" xmlns="http://www.w3.org/2000/svg" xmlns:xlink="http://www.w3.org/1999/xlink">
<g id="graph0" class="graph" transform="scale(1 1) rotate(0) translate(4 80)">
<title>transportCoefficients.h</title>
<polygon fill="white" stroke="none" points="-4,4 -4,-80 290,-80 290,4 -4,4"/>
<!-- Node1 -->
<g id="node1" class="node"><title>Node1</title>
<polygon fill="#bfbfbf" stroke="black" points="94,-56.5 94,-75.5 210,-75.5 210,-56.5 94,-56.5"/>
<text text-anchor="middle" x="152" y="-63.5" font-family="Helvetica,sans-Serif" font-size="10.00">transportCoefficients.h</text>
</g>
<!-- Node2 -->
<g id="node2" class="node"><title>Node2</title>
<g id="a_node2"><a xlink:href="ctransport_coefficients_module_8c.html" target="_top" xlink:title="ctransportCoefficientsModule.c">
<polygon fill="white" stroke="black" points="0,-0.5 0,-19.5 152,-19.5 152,-0.5 0,-0.5"/>
<text text-anchor="middle" x="76" y="-7.5" font-family="Helvetica,sans-Serif" font-size="10.00">ctransportCoefficientsModule.c</text>
</a>
</g>
</g>
<!-- Node1&#45;&gt;Node2 -->
<g id="edge1" class="edge"><title>Node1&#45;&gt;Node2</title>
<path fill="none" stroke="midnightblue" d="M131.424,-50.3804C117.688,-40.6204 100.075,-28.1057 88.4329,-19.8339"/>
<polygon fill="midnightblue" stroke="midnightblue" points="129.61,-53.385 139.789,-56.324 133.665,-47.6787 129.61,-53.385"/>
</g>
<!-- Node3 -->
<g id="node3" class="node"><title>Node3</title>
<g id="a_node3"><a xlink:href="transport_coefficients_8c.html" target="_top" xlink:title="transportCoefficients.c">
<polygon fill="white" stroke="black" points="170,-0.5 170,-19.5 286,-19.5 286,-0.5 170,-0.5"/>
<text text-anchor="middle" x="228" y="-7.5" font-family="Helvetica,sans-Serif" font-size="10.00">transportCoefficients.c</text>
</a>
</g>
</g>
<!-- Node1&#45;&gt;Node3 -->
<g id="edge2" class="edge"><title>Node1&#45;&gt;Node3</title>
<path fill="none" stroke="midnightblue" d="M172.576,-50.3804C186.312,-40.6204 203.925,-28.1057 215.567,-19.8339"/>
<polygon fill="midnightblue" stroke="midnightblue" points="170.335,-47.6787 164.211,-56.324 174.39,-53.385 170.335,-47.6787"/>
</g>
</g>
</svg>
