<?xml version="1.0" encoding="UTF-8" standalone="no"?>
<!DOCTYPE svg PUBLIC "-//W3C//DTD SVG 1.1//EN"
 "http://www.w3.org/Graphics/SVG/1.1/DTD/svg11.dtd">
<!-- Generated by graphviz version 2.42.3 (0)
 -->
<!-- Title: twophaseDarcyCoefficients.h Pages: 1 -->
<svg width="529pt" height="140pt"
 viewBox="0.00 0.00 528.50 140.00" xmlns="http://www.w3.org/2000/svg" xmlns:xlink="http://www.w3.org/1999/xlink">
<g id="graph0" class="graph" transform="scale(1 1) rotate(0) translate(4 136)">
<title>twophaseDarcyCoefficients.h</title>
<polygon fill="white" stroke="transparent" points="-4,4 -4,-136 524.5,-136 524.5,4 -4,4"/>
<!-- Node1 -->
<g id="node1" class="node">
<title>Node1</title>
<g id="a_node1"><a xlink:title=" ">
<polygon fill="#bfbfbf" stroke="black" points="57,-112.5 57,-131.5 216,-131.5 216,-112.5 57,-112.5"/>
<text text-anchor="middle" x="136.5" y="-119.5" font-family="Helvetica,sans-Serif" font-size="10.00">twophaseDarcyCoefficients.h</text>
</a>
</g>
</g>
<!-- Node2 -->
<g id="node2" class="node">
<title>Node2</title>
<g id="a_node2"><a xlink:href="density_relations_8h.html" target="_top" xlink:title=" ">
<polygon fill="white" stroke="black" points="0,-0.5 0,-19.5 107,-19.5 107,-0.5 0,-0.5"/>
<text text-anchor="middle" x="53.5" y="-7.5" font-family="Helvetica,sans-Serif" font-size="10.00">densityRelations.h</text>
</a>
</g>
</g>
<!-- Node1&#45;&gt;Node2 -->
<g id="edge1" class="edge">
<title>Node1&#45;&gt;Node2</title>
<path fill="none" stroke="midnightblue" d="M129.99,-112.37C116.23,-94.14 84,-51.43 66.08,-27.68"/>
<polygon fill="midnightblue" stroke="midnightblue" points="68.8,-25.47 59.98,-19.59 63.21,-29.68 68.8,-25.47"/>
</g>
<!-- Node3 -->
<g id="node3" class="node">
<title>Node3</title>
<g id="a_node3"><a xlink:href="psk_relations_8h.html" target="_top" xlink:title=" ">
<polygon fill="white" stroke="black" points="140,-56.5 140,-75.5 229,-75.5 229,-56.5 140,-56.5"/>
<text text-anchor="middle" x="184.5" y="-63.5" font-family="Helvetica,sans-Serif" font-size="10.00">pskRelations.h</text>
</a>
</g>
</g>
<!-- Node1&#45;&gt;Node3 -->
<g id="edge2" class="edge">
<title>Node1&#45;&gt;Node3</title>
<path fill="none" stroke="midnightblue" d="M144.43,-112.08C151.35,-104.3 161.57,-92.8 169.95,-83.37"/>
<polygon fill="midnightblue" stroke="midnightblue" points="172.69,-85.55 176.72,-75.75 167.46,-80.9 172.69,-85.55"/>
</g>
<!-- Node3&#45;&gt;Node2 -->
<g id="edge6" class="edge">
<title>Node3&#45;&gt;Node2</title>
<path fill="none" stroke="midnightblue" d="M163.74,-56.44C142.18,-47.56 108.24,-33.56 83.71,-23.45"/>
<polygon fill="midnightblue" stroke="midnightblue" points="84.74,-20.09 74.16,-19.52 82.07,-26.56 84.74,-20.09"/>
</g>
<!-- Node4 -->
<g id="node4" class="node">
<title>Node4</title>
<g id="a_node4"><a xlink:title=" ">
<polygon fill="white" stroke="#bfbfbf" points="125,-0.5 125,-19.5 172,-19.5 172,-0.5 125,-0.5"/>
<text text-anchor="middle" x="148.5" y="-7.5" font-family="Helvetica,sans-Serif" font-size="10.00">cmath</text>
</a>
</g>
</g>
<!-- Node3&#45;&gt;Node4 -->
<g id="edge3" class="edge">
<title>Node3&#45;&gt;Node4</title>
<path fill="none" stroke="midnightblue" d="M178.56,-56.08C173.52,-48.53 166.16,-37.49 159.99,-28.23"/>
<polygon fill="midnightblue" stroke="midnightblue" points="162.79,-26.13 154.33,-19.75 156.97,-30.01 162.79,-26.13"/>
</g>
<!-- Node5 -->
<g id="node5" class="node">
<title>Node5</title>
<g id="a_node5"><a xlink:title=" ">
<polygon fill="white" stroke="#bfbfbf" points="190.5,-0.5 190.5,-19.5 250.5,-19.5 250.5,-0.5 190.5,-0.5"/>
<text text-anchor="middle" x="220.5" y="-7.5" font-family="Helvetica,sans-Serif" font-size="10.00">iostream</text>
</a>
</g>
</g>
<!-- Node3&#45;&gt;Node5 -->
<g id="edge4" class="edge">
<title>Node3&#45;&gt;Node5</title>
<path fill="none" stroke="midnightblue" d="M190.44,-56.08C195.48,-48.53 202.84,-37.49 209.01,-28.23"/>
<polygon fill="midnightblue" stroke="midnightblue" points="212.03,-30.01 214.67,-19.75 206.21,-26.13 212.03,-30.01"/>
</g>
<!-- Node6 -->
<g id="node6" class="node">
<title>Node6</title>
<g id="a_node6"><a xlink:title=" ">
<polygon fill="white" stroke="#bfbfbf" points="268.5,-0.5 268.5,-19.5 320.5,-19.5 320.5,-0.5 268.5,-0.5"/>
<text text-anchor="middle" x="294.5" y="-7.5" font-family="Helvetica,sans-Serif" font-size="10.00">cassert</text>
</a>
</g>
</g>
<!-- Node3&#45;&gt;Node6 -->
<g id="edge5" class="edge">
<title>Node3&#45;&gt;Node6</title>
<path fill="none" stroke="midnightblue" d="M202.17,-56.32C219.89,-47.62 247.4,-34.12 267.79,-24.11"/>
<polygon fill="midnightblue" stroke="midnightblue" points="269.44,-27.2 276.87,-19.65 266.35,-20.92 269.44,-27.2"/>
</g>
<!-- Node7 -->
<g id="node7" class="node">
<title>Node7</title>
<g id="a_node7"><a xlink:href="_subsurface_transport_coefficients_8h.html" target="_top" xlink:title=" ">
<polygon fill="white" stroke="black" points="338.5,-0.5 338.5,-19.5 520.5,-19.5 520.5,-0.5 338.5,-0.5"/>
<text text-anchor="middle" x="429.5" y="-7.5" font-family="Helvetica,sans-Serif" font-size="10.00">SubsurfaceTransportCoefficients.h</text>
</a>
</g>
</g>
<!-- Node3&#45;&gt;Node7 -->
<g id="edge7" class="edge">
<title>Node3&#45;&gt;Node7</title>
<path fill="none" stroke="midnightblue" d="M223.32,-56.44C266.06,-47.02 334.83,-31.87 381.07,-21.68"/>
<polygon fill="midnightblue" stroke="midnightblue" points="381.85,-25.09 390.86,-19.52 380.34,-18.25 381.85,-25.09"/>
</g>
</g>
</svg>
