<?xml version="1.0" encoding="UTF-8" standalone="no"?>
<!DOCTYPE svg PUBLIC "-//W3C//DTD SVG 1.1//EN"
 "http://www.w3.org/Graphics/SVG/1.1/DTD/svg11.dtd">
<!-- Generated by graphviz version 2.42.3 (0)
 -->
<!-- Title: NumericalSolutionHasA Pages: 1 -->
<svg width="1267pt" height="118pt"
 viewBox="0.00 0.00 1266.50 118.00" xmlns="http://www.w3.org/2000/svg" xmlns:xlink="http://www.w3.org/1999/xlink">
<g id="graph0" class="graph" transform="scale(1 1) rotate(0) translate(4 114)">
<title>NumericalSolutionHasA</title>
<polygon fill="white" stroke="transparent" points="-4,4 -4,-114 1262.5,-114 1262.5,4 -4,4"/>
<!-- NS -->
<g id="node1" class="node">
<title>NS</title>
<g id="a_node1"><a xlink:href="\ref NumericalSolution" xlink:title="NumericalSolution">
<polygon fill="gray" stroke="black" points="593.5,-73.5 593.5,-109.5 719.5,-109.5 719.5,-73.5 593.5,-73.5"/>
<text text-anchor="middle" x="656.5" y="-88.4" font-family="Helvetica,sans-Serif" font-size="12.00">NumericalSolution</text>
</a>
</g>
</g>
<!-- mList -->
<g id="node2" class="node">
<title>mList</title>
<g id="a_node2"><a xlink:href="\ref proteus::Transport::MultilevelTransport" xlink:title="MultilevelTranportModel [n]">
<polygon fill="none" stroke="black" points="0,-0.5 0,-36.5 179,-36.5 179,-0.5 0,-0.5"/>
<text text-anchor="middle" x="89.5" y="-15.4" font-family="Helvetica,sans-Serif" font-size="12.00">MultilevelTranportModel [n]</text>
</a>
</g>
</g>
<!-- NS&#45;&gt;mList -->
<g id="edge5" class="edge">
<title>NS&#45;&gt;mList</title>
<path fill="none" stroke="purple" stroke-dasharray="5,2" d="M593.13,-84.5C504.95,-75.87 340.03,-58.73 188.97,-37.02"/>
<polygon fill="purple" stroke="purple" points="189.44,-33.55 179.04,-35.58 188.43,-40.48 189.44,-33.55"/>
</g>
<!-- nsList -->
<g id="node3" class="node">
<title>nsList</title>
<g id="a_node3"><a xlink:href="\ref proteus::NonLinearSolver" xlink:title="NonLinearSolver [n] ">
<polygon fill="none" stroke="black" points="197.5,-0.5 197.5,-36.5 333.5,-36.5 333.5,-0.5 197.5,-0.5"/>
<text text-anchor="middle" x="265.5" y="-15.4" font-family="Helvetica,sans-Serif" font-size="12.00">NonLinearSolver [n]</text>
</a>
</g>
</g>
<!-- NS&#45;&gt;nsList -->
<g id="edge6" class="edge">
<title>NS&#45;&gt;nsList</title>
<path fill="none" stroke="purple" stroke-dasharray="5,2" d="M593.46,-80.8C532.16,-71.13 436.19,-55.37 343.96,-37.24"/>
<polygon fill="purple" stroke="purple" points="344.38,-33.76 333.89,-35.25 343.02,-40.62 344.38,-33.76"/>
</g>
<!-- lsList -->
<g id="node4" class="node">
<title>lsList</title>
<g id="a_node4"><a xlink:href="\ref proteus::LinearSolver" xlink:title="LinearSolver [n] ">
<polygon fill="none" stroke="black" points="351.5,-0.5 351.5,-36.5 463.5,-36.5 463.5,-0.5 351.5,-0.5"/>
<text text-anchor="middle" x="407.5" y="-15.4" font-family="Helvetica,sans-Serif" font-size="12.00">LinearSolver [n]</text>
</a>
</g>
</g>
<!-- NS&#45;&gt;lsList -->
<g id="edge7" class="edge">
<title>NS&#45;&gt;lsList</title>
<path fill="none" stroke="purple" stroke-dasharray="5,2" d="M596.86,-73.49C559.75,-62.91 511.96,-49.29 473.69,-38.37"/>
<polygon fill="purple" stroke="purple" points="474.24,-34.89 463.67,-35.52 472.32,-41.62 474.24,-34.89"/>
</g>
<!-- pList -->
<g id="node5" class="node">
<title>pList</title>
<g id="a_node5"><a xlink:href="\ref proteus::default_p" xlink:title="Problem Specification [n]">
<polygon fill="none" stroke="black" points="481.5,-0.5 481.5,-36.5 647.5,-36.5 647.5,-0.5 481.5,-0.5"/>
<text text-anchor="middle" x="564.5" y="-15.4" font-family="Helvetica,sans-Serif" font-size="12.00">Problem Specification [n]</text>
</a>
</g>
</g>
<!-- NS&#45;&gt;pList -->
<g id="edge1" class="edge">
<title>NS&#45;&gt;pList</title>
<path fill="none" stroke="purple" stroke-dasharray="5,2" d="M634.23,-73.31C622.36,-64.16 607.6,-52.76 594.71,-42.82"/>
<polygon fill="purple" stroke="purple" points="596.62,-39.87 586.57,-36.53 592.34,-45.41 596.62,-39.87"/>
</g>
<!-- nList -->
<g id="node6" class="node">
<title>nList</title>
<g id="a_node6"><a xlink:href="\ref proteus::default_n" xlink:title="Numerics Specifiation [n]">
<polygon fill="none" stroke="black" points="666,-0.5 666,-36.5 833,-36.5 833,-0.5 666,-0.5"/>
<text text-anchor="middle" x="749.5" y="-15.4" font-family="Helvetica,sans-Serif" font-size="12.00">Numerics Specifiation [n]</text>
</a>
</g>
</g>
<!-- NS&#45;&gt;nList -->
<g id="edge2" class="edge">
<title>NS&#45;&gt;nList</title>
<path fill="none" stroke="purple" stroke-dasharray="5,2" d="M679.01,-73.31C691.01,-64.16 705.93,-52.76 718.96,-42.82"/>
<polygon fill="purple" stroke="purple" points="721.37,-45.38 727.19,-36.53 717.12,-39.82 721.37,-45.38"/>
</g>
<!-- sList -->
<g id="node7" class="node">
<title>sList</title>
<g id="a_node7"><a xlink:href="\ref proteus::SimTools" xlink:title="Output Specification [n]">
<polygon fill="none" stroke="black" points="850.5,-0.5 850.5,-36.5 1008.5,-36.5 1008.5,-0.5 850.5,-0.5"/>
<text text-anchor="middle" x="929.5" y="-15.4" font-family="Helvetica,sans-Serif" font-size="12.00">Output Specification [n]</text>
</a>
</g>
</g>
<!-- NS&#45;&gt;sList -->
<g id="edge4" class="edge">
<title>NS&#45;&gt;sList</title>
<path fill="none" stroke="purple" stroke-dasharray="5,2" d="M719.82,-74.03C759.77,-63.64 811.61,-50.16 853.74,-39.2"/>
<polygon fill="purple" stroke="purple" points="854.88,-42.52 863.68,-36.62 853.12,-35.75 854.88,-42.52"/>
</g>
<!-- so -->
<g id="node8" class="node">
<title>so</title>
<g id="a_node8"><a xlink:href="\ref proteus::SO_base" xlink:title="Coupling Specification ">
<polygon fill="none" stroke="black" points="1026,-0.5 1026,-36.5 1175,-36.5 1175,-0.5 1026,-0.5"/>
<text text-anchor="middle" x="1100.5" y="-15.4" font-family="Helvetica,sans-Serif" font-size="12.00">Coupling Specification</text>
</a>
</g>
</g>
<!-- NS&#45;&gt;so -->
<g id="edge3" class="edge">
<title>NS&#45;&gt;so</title>
<path fill="none" stroke="purple" stroke-dasharray="5,2" d="M719.62,-82.33C789.71,-72.99 906.42,-56.64 1015.99,-37.22"/>
<polygon fill="purple" stroke="purple" points="1016.66,-40.66 1025.89,-35.46 1015.43,-33.77 1016.66,-40.66"/>
</g>
<!-- ar -->
<g id="node9" class="node">
<title>ar</title>
<g id="a_node9"><a xlink:href="\ref proteus::AR_base" xlink:title="Archiver">
<polygon fill="none" stroke="black" points="1192.5,-0.5 1192.5,-36.5 1258.5,-36.5 1258.5,-0.5 1192.5,-0.5"/>
<text text-anchor="middle" x="1225.5" y="-15.4" font-family="Helvetica,sans-Serif" font-size="12.00">Archiver</text>
</a>
</g>
</g>
<!-- NS&#45;&gt;ar -->
<g id="edge8" class="edge">
<title>NS&#45;&gt;ar</title>
<path fill="none" stroke="purple" stroke-dasharray="5,2" d="M719.75,-90.22C818.03,-88.44 1012.95,-79.59 1182.39,-37.18"/>
<polygon fill="purple" stroke="purple" points="1183.4,-40.54 1192.23,-34.67 1181.67,-33.75 1183.4,-40.54"/>
</g>
</g>
</svg>
