<?xml version="1.0" encoding="UTF-8" standalone="no"?>
<!DOCTYPE svg PUBLIC "-//W3C//DTD SVG 1.1//EN"
 "http://www.w3.org/Graphics/SVG/1.1/DTD/svg11.dtd">
<!-- Generated by graphviz version 2.38.0 (20140413.2041)
 -->
<!-- Title: NumericalSolutionHasA Pages: 1 -->
<svg width="1156pt" height="118pt"
 viewBox="0.00 0.00 1156.00 118.00" xmlns="http://www.w3.org/2000/svg" xmlns:xlink="http://www.w3.org/1999/xlink">
<g id="graph0" class="graph" transform="scale(1 1) rotate(0) translate(4 114)">
<title>NumericalSolutionHasA</title>
<polygon fill="white" stroke="none" points="-4,4 -4,-114 1152,-114 1152,4 -4,4"/>
<!-- NS -->
<g id="node1" class="node"><title>NS</title>
<g id="a_node1"><a xlink:href="\ref NumericalSolution" xlink:title="NumericalSolution">
<polygon fill="gray" stroke="black" points="538.5,-73.5 538.5,-109.5 654.5,-109.5 654.5,-73.5 538.5,-73.5"/>
<text text-anchor="middle" x="596.5" y="-88.4" font-family="Helvetica,sans-Serif" font-size="12.00">NumericalSolution</text>
</a>
</g>
</g>
<!-- mList -->
<g id="node2" class="node"><title>mList</title>
<g id="a_node2"><a xlink:href="\ref proteus::Transport::MultilevelTransport" xlink:title="MultilevelTranportModel [n]">
<polygon fill="none" stroke="black" points="0,-0.5 0,-36.5 161,-36.5 161,-0.5 0,-0.5"/>
<text text-anchor="middle" x="80.5" y="-15.4" font-family="Helvetica,sans-Serif" font-size="12.00">MultilevelTranportModel [n]</text>
</a>
</g>
</g>
<!-- NS&#45;&gt;mList -->
<g id="edge5" class="edge"><title>NS&#45;&gt;mList</title>
<path fill="none" stroke="purple" stroke-dasharray="5,2" d="M538.303,-84.5053C457.959,-75.9421 308.333,-58.9632 171.696,-37.3026"/>
<polygon fill="purple" stroke="purple" points="171.891,-33.7894 161.464,-35.6677 170.786,-40.7017 171.891,-33.7894"/>
</g>
<!-- nsList -->
<g id="node3" class="node"><title>nsList</title>
<g id="a_node3"><a xlink:href="\ref proteus::NonLinearSolver" xlink:title="NonLinearSolver [n] ">
<polygon fill="none" stroke="black" points="179,-0.5 179,-36.5 302,-36.5 302,-0.5 179,-0.5"/>
<text text-anchor="middle" x="240.5" y="-15.4" font-family="Helvetica,sans-Serif" font-size="12.00">NonLinearSolver [n]</text>
</a>
</g>
</g>
<!-- NS&#45;&gt;nsList -->
<g id="edge6" class="edge"><title>NS&#45;&gt;nsList</title>
<path fill="none" stroke="purple" stroke-dasharray="5,2" d="M538.231,-80.6566C482.498,-71.0029 395.877,-55.3784 312.211,-37.3176"/>
<polygon fill="purple" stroke="purple" points="312.804,-33.8649 302.289,-35.1611 311.318,-40.7052 312.804,-33.8649"/>
</g>
<!-- lsList -->
<g id="node4" class="node"><title>lsList</title>
<g id="a_node4"><a xlink:href="\ref proteus::LinearSolver" xlink:title="LinearSolver [n] ">
<polygon fill="none" stroke="black" points="320,-0.5 320,-36.5 421,-36.5 421,-0.5 320,-0.5"/>
<text text-anchor="middle" x="370.5" y="-15.4" font-family="Helvetica,sans-Serif" font-size="12.00">LinearSolver [n]</text>
</a>
</g>
</g>
<!-- NS&#45;&gt;lsList -->
<g id="edge7" class="edge"><title>NS&#45;&gt;lsList</title>
<path fill="none" stroke="purple" stroke-dasharray="5,2" d="M542.367,-73.4937C508.707,-62.9189 465.377,-49.3066 430.646,-38.3955"/>
<polygon fill="purple" stroke="purple" points="431.683,-35.0526 421.093,-35.3944 429.585,-41.7308 431.683,-35.0526"/>
</g>
<!-- pList -->
<g id="node5" class="node"><title>pList</title>
<g id="a_node5"><a xlink:href="\ref proteus::default_p" xlink:title="Problem Specification [n]">
<polygon fill="none" stroke="black" points="439,-0.5 439,-36.5 588,-36.5 588,-0.5 439,-0.5"/>
<text text-anchor="middle" x="513.5" y="-15.4" font-family="Helvetica,sans-Serif" font-size="12.00">Problem Specification [n]</text>
</a>
</g>
</g>
<!-- NS&#45;&gt;pList -->
<g id="edge1" class="edge"><title>NS&#45;&gt;pList</title>
<path fill="none" stroke="purple" stroke-dasharray="5,2" d="M576.408,-73.3129C565.805,-64.243 552.635,-52.9769 541.089,-43.1004"/>
<polygon fill="purple" stroke="purple" points="543.281,-40.3696 533.407,-36.5288 538.731,-45.6889 543.281,-40.3696"/>
</g>
<!-- nList -->
<g id="node6" class="node"><title>nList</title>
<g id="a_node6"><a xlink:href="\ref proteus::default_n" xlink:title="Numerics Specifiation [n]">
<polygon fill="none" stroke="black" points="606,-0.5 606,-36.5 755,-36.5 755,-0.5 606,-0.5"/>
<text text-anchor="middle" x="680.5" y="-15.4" font-family="Helvetica,sans-Serif" font-size="12.00">Numerics Specifiation [n]</text>
</a>
</g>
</g>
<!-- NS&#45;&gt;nList -->
<g id="edge2" class="edge"><title>NS&#45;&gt;nList</title>
<path fill="none" stroke="purple" stroke-dasharray="5,2" d="M616.834,-73.3129C627.565,-64.243 640.894,-52.9769 652.578,-43.1004"/>
<polygon fill="purple" stroke="purple" points="654.975,-45.6573 660.353,-36.5288 650.456,-40.3112 654.975,-45.6573"/>
</g>
<!-- sList -->
<g id="node7" class="node"><title>sList</title>
<g id="a_node7"><a xlink:href="\ref proteus::SimTools" xlink:title="Output Specification [n]">
<polygon fill="none" stroke="black" points="773.5,-0.5 773.5,-36.5 913.5,-36.5 913.5,-0.5 773.5,-0.5"/>
<text text-anchor="middle" x="843.5" y="-15.4" font-family="Helvetica,sans-Serif" font-size="12.00">Output Specification [n]</text>
</a>
</g>
</g>
<!-- NS&#45;&gt;sList -->
<g id="edge4" class="edge"><title>NS&#45;&gt;sList</title>
<path fill="none" stroke="purple" stroke-dasharray="5,2" d="M654.723,-73.7639C690.465,-63.4897 736.445,-50.2729 774.077,-39.4556"/>
<polygon fill="purple" stroke="purple" points="775.308,-42.7434 783.952,-36.6169 773.375,-36.0158 775.308,-42.7434"/>
</g>
<!-- so -->
<g id="node8" class="node"><title>so</title>
<g id="a_node8"><a xlink:href="\ref proteus::SO_base" xlink:title="Coupling Specification ">
<polygon fill="none" stroke="black" points="932,-0.5 932,-36.5 1069,-36.5 1069,-0.5 932,-0.5"/>
<text text-anchor="middle" x="1000.5" y="-15.4" font-family="Helvetica,sans-Serif" font-size="12.00">Coupling Specification</text>
</a>
</g>
</g>
<!-- NS&#45;&gt;so -->
<g id="edge3" class="edge"><title>NS&#45;&gt;so</title>
<path fill="none" stroke="purple" stroke-dasharray="5,2" d="M654.686,-81.9933C717.932,-72.5128 822.188,-56.2045 921.717,-37.0947"/>
<polygon fill="purple" stroke="purple" points="922.488,-40.5105 931.642,-35.1765 921.16,-33.6377 922.488,-40.5105"/>
</g>
<!-- ar -->
<g id="node9" class="node"><title>ar</title>
<g id="a_node9"><a xlink:href="\ref proteus::AR_base" xlink:title="Archiver">
<polygon fill="none" stroke="black" points="1087,-0.5 1087,-36.5 1148,-36.5 1148,-0.5 1087,-0.5"/>
<text text-anchor="middle" x="1117.5" y="-15.4" font-family="Helvetica,sans-Serif" font-size="12.00">Archiver</text>
</a>
</g>
</g>
<!-- NS&#45;&gt;ar -->
<g id="edge8" class="edge"><title>NS&#45;&gt;ar</title>
<path fill="none" stroke="purple" stroke-dasharray="5,2" d="M654.714,-89.8356C744.542,-87.5535 921.975,-78.0394 1077.03,-36.9656"/>
<polygon fill="purple" stroke="purple" points="1078,-40.3299 1086.74,-34.344 1076.18,-33.5719 1078,-40.3299"/>
</g>
</g>
</svg>
