<?xml version="1.0" encoding="UTF-8" standalone="no"?>
<!DOCTYPE svg PUBLIC "-//W3C//DTD SVG 1.1//EN"
 "http://www.w3.org/Graphics/SVG/1.1/DTD/svg11.dtd">
<!-- Generated by graphviz version 2.40.1 (20161225.0304)
 -->
<!-- Title: NumericalSolutionHasA Pages: 1 -->
<svg width="1156pt" height="118pt"
 viewBox="0.00 0.00 1156.00 118.00" xmlns="http://www.w3.org/2000/svg" xmlns:xlink="http://www.w3.org/1999/xlink">
<g id="graph0" class="graph" transform="scale(1 1) rotate(0) translate(4 114)">
<title>NumericalSolutionHasA</title>
<polygon fill="#ffffff" stroke="transparent" points="-4,4 -4,-114 1152,-114 1152,4 -4,4"/>
<!-- NS -->
<g id="node1" class="node">
<title>NS</title>
<g id="a_node1"><a xlink:href="\ref NumericalSolution" xlink:title="NumericalSolution">
<polygon fill="#c0c0c0" stroke="#000000" points="538.5,-73.5 538.5,-109.5 654.5,-109.5 654.5,-73.5 538.5,-73.5"/>
<text text-anchor="middle" x="596.5" y="-88.4" font-family="Helvetica,sans-Serif" font-size="12.00" fill="#000000">NumericalSolution</text>
</a>
</g>
</g>
<!-- mList -->
<g id="node2" class="node">
<title>mList</title>
<g id="a_node2"><a xlink:href="\ref proteus::Transport::MultilevelTransport" xlink:title="MultilevelTranportModel [n]">
<polygon fill="none" stroke="#000000" points="0,-.5 0,-36.5 161,-36.5 161,-.5 0,-.5"/>
<text text-anchor="middle" x="80.5" y="-15.4" font-family="Helvetica,sans-Serif" font-size="12.00" fill="#000000">MultilevelTranportModel [n]</text>
</a>
</g>
</g>
<!-- NS&#45;&gt;mList -->
<g id="edge5" class="edge">
<title>NS&#45;&gt;mList</title>
<path fill="none" stroke="#a020f0" stroke-dasharray="5,2" d="M538.2739,-85.5245C457.8973,-76.9535 308.232,-59.8361 171.6815,-37.3086"/>
<polygon fill="#a020f0" stroke="#a020f0" points="171.8948,-33.7961 161.4559,-35.6073 170.7458,-40.7012 171.8948,-33.7961"/>
</g>
<!-- nsList -->
<g id="node3" class="node">
<title>nsList</title>
<g id="a_node3"><a xlink:href="\ref proteus::NonLinearSolver" xlink:title="NonLinearSolver [n] ">
<polygon fill="none" stroke="#000000" points="179,-.5 179,-36.5 302,-36.5 302,-.5 179,-.5"/>
<text text-anchor="middle" x="240.5" y="-15.4" font-family="Helvetica,sans-Serif" font-size="12.00" fill="#000000">NonLinearSolver [n]</text>
</a>
</g>
</g>
<!-- NS&#45;&gt;nsList -->
<g id="edge6" class="edge">
<title>NS&#45;&gt;nsList</title>
<path fill="none" stroke="#a020f0" stroke-dasharray="5,2" d="M538.4625,-81.6704C482.7129,-71.9507 395.9175,-56.0939 312.2054,-37.3217"/>
<polygon fill="#a020f0" stroke="#a020f0" points="312.8041,-33.8688 302.2785,-35.0783 311.2611,-40.6966 312.8041,-33.8688"/>
</g>
<!-- lsList -->
<g id="node4" class="node">
<title>lsList</title>
<g id="a_node4"><a xlink:href="\ref proteus::LinearSolver" xlink:title="LinearSolver [n] ">
<polygon fill="none" stroke="#000000" points="320,-.5 320,-36.5 421,-36.5 421,-.5 320,-.5"/>
<text text-anchor="middle" x="370.5" y="-15.4" font-family="Helvetica,sans-Serif" font-size="12.00" fill="#000000">LinearSolver [n]</text>
</a>
</g>
</g>
<!-- NS&#45;&gt;lsList -->
<g id="edge7" class="edge">
<title>NS&#45;&gt;lsList</title>
<path fill="none" stroke="#a020f0" stroke-dasharray="5,2" d="M540.6348,-73.4551C507.3234,-62.6952 465.0226,-49.0316 430.934,-38.0207"/>
<polygon fill="#a020f0" stroke="#a020f0" points="431.6874,-34.5861 421.0957,-34.8429 429.5358,-41.2472 431.6874,-34.5861"/>
</g>
<!-- pList -->
<g id="node5" class="node">
<title>pList</title>
<g id="a_node5"><a xlink:href="\ref proteus::default_p" xlink:title="Problem Specification [n]">
<polygon fill="none" stroke="#000000" points="439,-.5 439,-36.5 588,-36.5 588,-.5 439,-.5"/>
<text text-anchor="middle" x="513.5" y="-15.4" font-family="Helvetica,sans-Serif" font-size="12.00" fill="#000000">Problem Specification [n]</text>
</a>
</g>
</g>
<!-- NS&#45;&gt;pList -->
<g id="edge1" class="edge">
<title>NS&#45;&gt;pList</title>
<path fill="none" stroke="#a020f0" stroke-dasharray="5,2" d="M575.9831,-73.4551C565.608,-64.3299 552.8584,-53.1165 541.5877,-43.2036"/>
<polygon fill="#a020f0" stroke="#a020f0" points="543.8889,-40.5665 534.0685,-36.5904 539.2659,-45.8228 543.8889,-40.5665"/>
</g>
<!-- nList -->
<g id="node6" class="node">
<title>nList</title>
<g id="a_node6"><a xlink:href="\ref proteus::default_n" xlink:title="Numerics Specifiation [n]">
<polygon fill="none" stroke="#000000" points="606,-.5 606,-36.5 755,-36.5 755,-.5 606,-.5"/>
<text text-anchor="middle" x="680.5" y="-15.4" font-family="Helvetica,sans-Serif" font-size="12.00" fill="#000000">Numerics Specifiation [n]</text>
</a>
</g>
</g>
<!-- NS&#45;&gt;nList -->
<g id="edge2" class="edge">
<title>NS&#45;&gt;nList</title>
<path fill="none" stroke="#a020f0" stroke-dasharray="5,2" d="M617.2641,-73.4551C627.7642,-64.3299 640.6674,-53.1165 652.0739,-43.2036"/>
<polygon fill="#a020f0" stroke="#a020f0" points="654.4315,-45.7918 659.6837,-36.5904 649.8398,-40.5082 654.4315,-45.7918"/>
</g>
<!-- sList -->
<g id="node7" class="node">
<title>sList</title>
<g id="a_node7"><a xlink:href="\ref proteus::SimTools" xlink:title="Output Specification [n]">
<polygon fill="none" stroke="#000000" points="773.5,-.5 773.5,-36.5 913.5,-36.5 913.5,-.5 773.5,-.5"/>
<text text-anchor="middle" x="843.5" y="-15.4" font-family="Helvetica,sans-Serif" font-size="12.00" fill="#000000">Output Specification [n]</text>
</a>
</g>
</g>
<!-- NS&#45;&gt;sList -->
<g id="edge4" class="edge">
<title>NS&#45;&gt;sList</title>
<path fill="none" stroke="#a020f0" stroke-dasharray="5,2" d="M654.7228,-74.2925C689.9417,-63.8836 735.0996,-50.5374 772.4175,-39.5082"/>
<polygon fill="#a020f0" stroke="#a020f0" points="773.6234,-42.8015 782.2213,-36.6107 771.6394,-36.0886 773.6234,-42.8015"/>
</g>
<!-- so -->
<g id="node8" class="node">
<title>so</title>
<g id="a_node8"><a xlink:href="\ref proteus::SO_base" xlink:title="Coupling Specification ">
<polygon fill="none" stroke="#000000" points="932,-.5 932,-36.5 1069,-36.5 1069,-.5 932,-.5"/>
<text text-anchor="middle" x="1000.5" y="-15.4" font-family="Helvetica,sans-Serif" font-size="12.00" fill="#000000">Coupling Specification</text>
</a>
</g>
</g>
<!-- NS&#45;&gt;so -->
<g id="edge3" class="edge">
<title>NS&#45;&gt;so</title>
<path fill="none" stroke="#a020f0" stroke-dasharray="5,2" d="M654.7214,-82.9751C717.9976,-73.4387 822.2796,-56.9339 921.7342,-37.088"/>
<polygon fill="#a020f0" stroke="#a020f0" points="922.5377,-40.4966 931.6518,-35.0945 921.1582,-33.6339 922.5377,-40.4966"/>
</g>
<!-- ar -->
<g id="node9" class="node">
<title>ar</title>
<g id="a_node9"><a xlink:href="\ref proteus::AR_base" xlink:title="Archiver">
<polygon fill="none" stroke="#000000" points="1087,-.5 1087,-36.5 1148,-36.5 1148,-.5 1087,-.5"/>
<text text-anchor="middle" x="1117.5" y="-15.4" font-family="Helvetica,sans-Serif" font-size="12.00" fill="#000000">Archiver</text>
</a>
</g>
</g>
<!-- NS&#45;&gt;ar -->
<g id="edge8" class="edge">
<title>NS&#45;&gt;ar</title>
<path fill="none" stroke="#a020f0" stroke-dasharray="5,2" d="M654.6495,-87.3357C760.9886,-79.3373 983.7572,-60.7124 1077.104,-36.8307"/>
<polygon fill="#a020f0" stroke="#a020f0" points="1078.0493,-40.2008 1086.7805,-34.1994 1076.2125,-33.4461 1078.0493,-40.2008"/>
</g>
</g>
</svg>
