<?xml version="1.0" encoding="UTF-8" standalone="no"?>
<!DOCTYPE svg PUBLIC "-//W3C//DTD SVG 1.1//EN"
 "http://www.w3.org/Graphics/SVG/1.1/DTD/svg11.dtd">
<!-- Generated by graphviz version 2.40.1 (20161225.0304)
 -->
<!-- Title: inheritanceb3a20b897e Pages: 1 -->
<svg width="576pt" height="304pt"
 viewBox="0.00 0.00 576.00 304.49" xmlns="http://www.w3.org/2000/svg" xmlns:xlink="http://www.w3.org/1999/xlink">
<g id="graph0" class="graph" transform="scale(.8458 .8458) rotate(0) translate(4 356)">
<title>inheritanceb3a20b897e</title>
<polygon fill="#ffffff" stroke="transparent" points="-4,4 -4,-356 677,-356 677,4 -4,4"/>
<!-- AggregateVelocityPostProcessor -->
<g id="node1" class="node">
<title>AggregateVelocityPostProcessor</title>
<g id="a_node1"><a xlink:href="../api/proteus.PostProcessingTools.html#proteus.PostProcessingTools.AggregateVelocityPostProcessor" xlink:title="collect different velocity postprocessing algorithms for a (possibly) multicomponent system" target="_top">
<polygon fill="none" stroke="#000000" stroke-width=".5" points="187.5,-148 13.5,-148 13.5,-129 187.5,-129 187.5,-148"/>
<text text-anchor="middle" x="100.5" y="-136" font-family="Vera Sans, DejaVu Sans, Liberation Sans, Arial, Helvetica, sans" font-size="10.00" fill="#000000">AggregateVelocityPostProcessor</text>
</a>
</g>
</g>
<!-- VPP_DG_BDM -->
<g id="node2" class="node">
<title>VPP_DG_BDM</title>
<g id="a_node2"><a xlink:href="../api/proteus.PostProcessingTools.html#proteus.PostProcessingTools.VPP_DG_BDM" xlink:title="Project DG solution onto BDM1 local representation which is" target="_top">
<polygon fill="none" stroke="#000000" stroke-width=".5" points="509.5,-352 426.5,-352 426.5,-333 509.5,-333 509.5,-352"/>
<text text-anchor="middle" x="468" y="-340" font-family="Vera Sans, DejaVu Sans, Liberation Sans, Arial, Helvetica, sans" font-size="10.00" fill="#000000">VPP_DG_BDM</text>
</a>
</g>
</g>
<!-- VPP_DG_RT0 -->
<g id="node3" class="node">
<title>VPP_DG_RT0</title>
<g id="a_node3"><a xlink:href="../api/proteus.PostProcessingTools.html#proteus.PostProcessingTools.VPP_DG_RT0" xlink:title="Post process DG solution velocity by projecting boundary fluxes" target="_top">
<polygon fill="none" stroke="#000000" stroke-width=".5" points="346.5,-352 267.5,-352 267.5,-333 346.5,-333 346.5,-352"/>
<text text-anchor="middle" x="307" y="-340" font-family="Vera Sans, DejaVu Sans, Liberation Sans, Arial, Helvetica, sans" font-size="10.00" fill="#000000">VPP_DG_RT0</text>
</a>
</g>
</g>
<!-- VPP_DG_RT0&#45;&gt;VPP_DG_BDM -->
<g id="edge1" class="edge">
<title>VPP_DG_RT0&#45;&gt;VPP_DG_BDM</title>
<path fill="none" stroke="#000000" stroke-width=".5" d="M346.7978,-342.5C369.3063,-342.5 397.5761,-342.5 421.1505,-342.5"/>
<polygon fill="#000000" stroke="#000000" stroke-width=".5" points="421.4143,-344.2501 426.4142,-342.5 421.4142,-340.7501 421.4143,-344.2501"/>
</g>
<!-- VelocityPostProcessingAlgorithmBase -->
<g id="node4" class="node">
<title>VelocityPostProcessingAlgorithmBase</title>
<g id="a_node4"><a xlink:href="../api/proteus.PostProcessingTools.html#proteus.PostProcessingTools.VelocityPostProcessingAlgorithmBase" xlink:title="Base class for velocity post processing algorithms" target="_top">
<polygon fill="none" stroke="#000000" stroke-width=".5" points="201,-185 0,-185 0,-166 201,-166 201,-185"/>
<text text-anchor="middle" x="100.5" y="-173" font-family="Vera Sans, DejaVu Sans, Liberation Sans, Arial, Helvetica, sans" font-size="10.00" fill="#000000">VelocityPostProcessingAlgorithmBase</text>
</a>
</g>
</g>
<!-- VelocityPostProcessingAlgorithmBase&#45;&gt;VPP_DG_RT0 -->
<g id="edge2" class="edge">
<title>VelocityPostProcessingAlgorithmBase&#45;&gt;VPP_DG_RT0</title>
<path fill="none" stroke="#000000" stroke-width=".5" d="M187.5477,-185.0947C192.4052,-187.6701 196.9489,-190.7731 201,-194.5 245.1211,-235.0906 194.2178,-282.5005 237,-324.5 243.939,-331.312 253.0911,-335.6493 262.4807,-338.3859"/>
<polygon fill="#000000" stroke="#000000" stroke-width=".5" points="262.1217,-340.1009 267.4021,-339.6757 263.0091,-336.7152 262.1217,-340.1009"/>
</g>
<!-- VPP_LOW_K_IB_PWL_RT0 -->
<g id="node5" class="node">
<title>VPP_LOW_K_IB_PWL_RT0</title>
<g id="a_node5"><a xlink:href="../api/proteus.PostProcessingTools.html#proteus.PostProcessingTools.VPP_LOW_K_IB_PWL_RT0" xlink:title="Local Larson&#45;Niklasson method with RT_0 representation for element" target="_top">
<polygon fill="none" stroke="#000000" stroke-width=".5" points="377,-315 237,-315 237,-296 377,-296 377,-315"/>
<text text-anchor="middle" x="307" y="-303" font-family="Vera Sans, DejaVu Sans, Liberation Sans, Arial, Helvetica, sans" font-size="10.00" fill="#000000">VPP_LOW_K_IB_PWL_RT0</text>
</a>
</g>
</g>
<!-- VelocityPostProcessingAlgorithmBase&#45;&gt;VPP_LOW_K_IB_PWL_RT0 -->
<g id="edge3" class="edge">
<title>VelocityPostProcessingAlgorithmBase&#45;&gt;VPP_LOW_K_IB_PWL_RT0</title>
<path fill="none" stroke="#000000" stroke-width=".5" d="M186.168,-185.1006C191.4835,-187.6533 196.4962,-190.7513 201,-194.5 235.0657,-222.8545 203.8713,-258.0562 237,-287.5 239.5236,-289.7429 242.2899,-291.7131 245.2202,-293.4433"/>
<polygon fill="#000000" stroke="#000000" stroke-width=".5" points="244.7136,-295.1567 249.9484,-295.9692 246.3628,-292.0696 244.7136,-295.1567"/>
</g>
<!-- VPP_P1nc_RT0 -->
<g id="node6" class="node">
<title>VPP_P1nc_RT0</title>
<g id="a_node6"><a xlink:href="../api/proteus.PostProcessingTools.html#proteus.PostProcessingTools.VPP_P1nc_RT0" xlink:title="P1&#45;nonconforming velocity postprocessing" target="_top">
<polygon fill="none" stroke="#000000" stroke-width=".5" points="350.5,-278 263.5,-278 263.5,-259 350.5,-259 350.5,-278"/>
<text text-anchor="middle" x="307" y="-266" font-family="Vera Sans, DejaVu Sans, Liberation Sans, Arial, Helvetica, sans" font-size="10.00" fill="#000000">VPP_P1nc_RT0</text>
</a>
</g>
</g>
<!-- VelocityPostProcessingAlgorithmBase&#45;&gt;VPP_P1nc_RT0 -->
<g id="edge4" class="edge">
<title>VelocityPostProcessingAlgorithmBase&#45;&gt;VPP_P1nc_RT0</title>
<path fill="none" stroke="#000000" stroke-width=".5" d="M182.589,-185.0647C189.0947,-187.5768 195.3313,-190.6786 201,-194.5 225.5339,-211.0391 213.0151,-233.1743 237,-250.5 243.2811,-255.0372 250.6049,-258.4329 258.1028,-260.9737"/>
<polygon fill="#000000" stroke="#000000" stroke-width=".5" points="258.0165,-262.78 263.3109,-262.5997 259.0596,-259.439 258.0165,-262.78"/>
</g>
<!-- VPP_POINT_EVAL -->
<g id="node7" class="node">
<title>VPP_POINT_EVAL</title>
<g id="a_node7"><a xlink:href="../api/proteus.PostProcessingTools.html#proteus.PostProcessingTools.VPP_POINT_EVAL" xlink:title="Velocity calculation from just directly evaluating flux formula at intergration points using" target="_top">
<polygon fill="none" stroke="#000000" stroke-width=".5" points="357,-241 257,-241 257,-222 357,-222 357,-241"/>
<text text-anchor="middle" x="307" y="-229" font-family="Vera Sans, DejaVu Sans, Liberation Sans, Arial, Helvetica, sans" font-size="10.00" fill="#000000">VPP_POINT_EVAL</text>
</a>
</g>
</g>
<!-- VelocityPostProcessingAlgorithmBase&#45;&gt;VPP_POINT_EVAL -->
<g id="edge5" class="edge">
<title>VelocityPostProcessingAlgorithmBase&#45;&gt;VPP_POINT_EVAL</title>
<path fill="none" stroke="#000000" stroke-width=".5" d="M166.3897,-185.0302C178.0802,-187.545 190.0205,-190.6626 201,-194.5 218.0786,-200.4691 220.1239,-206.9804 237,-213.5 243.7524,-216.1086 251.0161,-218.4555 258.2178,-220.5263"/>
<polygon fill="#000000" stroke="#000000" stroke-width=".5" points="257.9001,-222.2545 263.1866,-221.9156 258.8426,-218.8838 257.9001,-222.2545"/>
</g>
<!-- VPP_POINT_EVAL_GWVD -->
<g id="node8" class="node">
<title>VPP_POINT_EVAL_GWVD</title>
<g id="a_node8"><a xlink:href="../api/proteus.PostProcessingTools.html#proteus.PostProcessingTools.VPP_POINT_EVAL_GWVD" xlink:title="Velocity calculation for evaluating coarse grid velocity solution" target="_top">
<polygon fill="none" stroke="#000000" stroke-width=".5" points="375.5,-204 238.5,-204 238.5,-185 375.5,-185 375.5,-204"/>
<text text-anchor="middle" x="307" y="-192" font-family="Vera Sans, DejaVu Sans, Liberation Sans, Arial, Helvetica, sans" font-size="10.00" fill="#000000">VPP_POINT_EVAL_GWVD</text>
</a>
</g>
</g>
<!-- VelocityPostProcessingAlgorithmBase&#45;&gt;VPP_POINT_EVAL_GWVD -->
<g id="edge6" class="edge">
<title>VelocityPostProcessingAlgorithmBase&#45;&gt;VPP_POINT_EVAL_GWVD</title>
<path fill="none" stroke="#000000" stroke-width=".5" d="M201.0279,-184.7495C211.8699,-185.7471 222.752,-186.7484 233.1955,-187.7093"/>
<polygon fill="#000000" stroke="#000000" stroke-width=".5" points="233.1457,-189.462 238.285,-188.1776 233.4664,-185.9767 233.1457,-189.462"/>
</g>
<!-- VPP_PWC_RT0 -->
<g id="node9" class="node">
<title>VPP_PWC_RT0</title>
<g id="a_node9"><a xlink:href="../api/proteus.PostProcessingTools.html#proteus.PostProcessingTools.VPP_PWC_RT0" xlink:title="Global piecewise constant Larson&#45;Niklasson method with :math:`RT_0`" target="_top">
<polygon fill="none" stroke="#000000" stroke-width=".5" points="350,-167 264,-167 264,-148 350,-148 350,-167"/>
<text text-anchor="middle" x="307" y="-155" font-family="Vera Sans, DejaVu Sans, Liberation Sans, Arial, Helvetica, sans" font-size="10.00" fill="#000000">VPP_PWC_RT0</text>
</a>
</g>
</g>
<!-- VelocityPostProcessingAlgorithmBase&#45;&gt;VPP_PWC_RT0 -->
<g id="edge7" class="edge">
<title>VelocityPostProcessingAlgorithmBase&#45;&gt;VPP_PWC_RT0</title>
<path fill="none" stroke="#000000" stroke-width=".5" d="M201.0279,-166.7373C221.1061,-164.9871 241.3217,-163.225 258.6347,-161.7159"/>
<polygon fill="#000000" stroke="#000000" stroke-width=".5" points="259.0821,-163.4336 263.9112,-161.2559 258.7781,-159.9468 259.0821,-163.4336"/>
</g>
<!-- VPP_PWL_RT0 -->
<g id="node11" class="node">
<title>VPP_PWL_RT0</title>
<g id="a_node11"><a xlink:href="../api/proteus.PostProcessingTools.html#proteus.PostProcessingTools.VPP_PWL_RT0" xlink:title="Local Larson&#45;Niklasson method with RT_0 representation for element" target="_top">
<polygon fill="none" stroke="#000000" stroke-width=".5" points="349.5,-130 264.5,-130 264.5,-111 349.5,-111 349.5,-130"/>
<text text-anchor="middle" x="307" y="-118" font-family="Vera Sans, DejaVu Sans, Liberation Sans, Arial, Helvetica, sans" font-size="10.00" fill="#000000">VPP_PWL_RT0</text>
</a>
</g>
</g>
<!-- VelocityPostProcessingAlgorithmBase&#45;&gt;VPP_PWL_RT0 -->
<g id="edge11" class="edge">
<title>VelocityPostProcessingAlgorithmBase&#45;&gt;VPP_PWL_RT0</title>
<path fill="none" stroke="#000000" stroke-width=".5" d="M169.0065,-165.9506C179.8415,-163.6644 190.8219,-160.8778 201,-157.5 217.978,-151.8655 220.2857,-145.8744 237,-139.5 244.7949,-136.5272 253.2434,-133.8207 261.4851,-131.4416"/>
<polygon fill="#000000" stroke="#000000" stroke-width=".5" points="262.2455,-133.0454 266.5823,-130.0031 261.2949,-129.6769 262.2455,-133.0454"/>
</g>
<!-- VPP_PWL_RT1 -->
<g id="node15" class="node">
<title>VPP_PWL_RT1</title>
<g id="a_node15"><a xlink:href="../api/proteus.PostProcessingTools.html#proteus.PostProcessingTools.VPP_PWL_RT1" xlink:title="Base class for higher order RT elements." target="_top">
<polygon fill="none" stroke="#000000" stroke-width=".5" points="349.5,-93 264.5,-93 264.5,-74 349.5,-74 349.5,-93"/>
<text text-anchor="middle" x="307" y="-81" font-family="Vera Sans, DejaVu Sans, Liberation Sans, Arial, Helvetica, sans" font-size="10.00" fill="#000000">VPP_PWL_RT1</text>
</a>
</g>
</g>
<!-- VelocityPostProcessingAlgorithmBase&#45;&gt;VPP_PWL_RT1 -->
<g id="edge13" class="edge">
<title>VelocityPostProcessingAlgorithmBase&#45;&gt;VPP_PWL_RT1</title>
<path fill="none" stroke="#000000" stroke-width=".5" d="M184.5599,-165.9679C190.3476,-163.6637 195.899,-160.8729 201,-157.5 225.3695,-141.3861 213.3613,-119.668 237,-102.5 243.6658,-97.6589 251.4961,-94.0513 259.4606,-91.3628"/>
<polygon fill="#000000" stroke="#000000" stroke-width=".5" points="260.1806,-92.9711 264.4277,-89.8049 259.1331,-89.6315 260.1806,-92.9711"/>
</g>
<!-- VPP_SUN_GS_RT0 -->
<g id="node16" class="node">
<title>VPP_SUN_GS_RT0</title>
<g id="a_node16"><a xlink:href="../api/proteus.PostProcessingTools.html#proteus.PostProcessingTools.VPP_SUN_GS_RT0" xlink:title="Local Sun&#45;Wheeler &quot;Gauss&#45;Seidel&quot; method with :math:`RT_0` representation" target="_top">
<polygon fill="none" stroke="#000000" stroke-width=".5" points="359,-56 255,-56 255,-37 359,-37 359,-56"/>
<text text-anchor="middle" x="307" y="-44" font-family="Vera Sans, DejaVu Sans, Liberation Sans, Arial, Helvetica, sans" font-size="10.00" fill="#000000">VPP_SUN_GS_RT0</text>
</a>
</g>
</g>
<!-- VelocityPostProcessingAlgorithmBase&#45;&gt;VPP_SUN_GS_RT0 -->
<g id="edge14" class="edge">
<title>VelocityPostProcessingAlgorithmBase&#45;&gt;VPP_SUN_GS_RT0</title>
<path fill="none" stroke="#000000" stroke-width=".5" d="M188.0525,-165.8356C192.6651,-163.5163 197.0274,-160.7622 201,-157.5 234.9331,-129.6352 204.3228,-94.8274 237,-65.5 240.8658,-62.0305 245.3032,-59.1858 250.0277,-56.8546"/>
<polygon fill="#000000" stroke="#000000" stroke-width=".5" points="250.9958,-58.3381 254.8374,-54.6905 249.5596,-55.1463 250.9958,-58.3381"/>
</g>
<!-- VPP_SUN_RT0 -->
<g id="node17" class="node">
<title>VPP_SUN_RT0</title>
<g id="a_node17"><a xlink:href="../api/proteus.PostProcessingTools.html#proteus.PostProcessingTools.VPP_SUN_RT0" xlink:title="Global piecewise constant Sun&#45;Wheeler method with :math:`RT_0`" target="_top">
<polygon fill="none" stroke="#000000" stroke-width=".5" points="349.5,-19 264.5,-19 264.5,0 349.5,0 349.5,-19"/>
<text text-anchor="middle" x="307" y="-7" font-family="Vera Sans, DejaVu Sans, Liberation Sans, Arial, Helvetica, sans" font-size="10.00" fill="#000000">VPP_SUN_RT0</text>
</a>
</g>
</g>
<!-- VelocityPostProcessingAlgorithmBase&#45;&gt;VPP_SUN_RT0 -->
<g id="edge15" class="edge">
<title>VelocityPostProcessingAlgorithmBase&#45;&gt;VPP_SUN_RT0</title>
<path fill="none" stroke="#000000" stroke-width=".5" d="M189.3896,-165.7962C193.553,-163.4669 197.4623,-160.7233 201,-157.5 245.3159,-117.1221 194.2178,-69.4995 237,-27.5 243.1548,-21.4578 251.0507,-17.3627 259.3092,-14.6045"/>
<polygon fill="#000000" stroke="#000000" stroke-width=".5" points="260.1978,-16.1652 264.4857,-13.0545 259.1938,-12.8123 260.1978,-16.1652"/>
</g>
<!-- VPP_PWL_BDM -->
<g id="node10" class="node">
<title>VPP_PWL_BDM</title>
<g id="a_node10"><a xlink:href="../api/proteus.PostProcessingTools.html#proteus.PostProcessingTools.VPP_PWL_BDM" xlink:title="Local Larson&#45;Niklasson method with BDM1 representation for element" target="_top">
<polygon fill="none" stroke="#000000" stroke-width=".5" points="512.5,-167 423.5,-167 423.5,-148 512.5,-148 512.5,-167"/>
<text text-anchor="middle" x="468" y="-155" font-family="Vera Sans, DejaVu Sans, Liberation Sans, Arial, Helvetica, sans" font-size="10.00" fill="#000000">VPP_PWL_BDM</text>
</a>
</g>
</g>
<!-- VPP_PWL_RT0&#45;&gt;VPP_PWL_BDM -->
<g id="edge8" class="edge">
<title>VPP_PWL_RT0&#45;&gt;VPP_PWL_BDM</title>
<path fill="none" stroke="#000000" stroke-width=".5" d="M348.4615,-130.0284C370.7226,-135.1443 398.2391,-141.468 421.2581,-146.7581"/>
<polygon fill="#000000" stroke="#000000" stroke-width=".5" points="421.1345,-148.5252 426.3995,-147.9396 421.9185,-145.1141 421.1345,-148.5252"/>
</g>
<!-- VPP_PWL_BDM2 -->
<g id="node12" class="node">
<title>VPP_PWL_BDM2</title>
<g id="a_node12"><a xlink:href="../api/proteus.PostProcessingTools.html#proteus.PostProcessingTools.VPP_PWL_BDM2" xlink:title="This class is intended to implement BDM2 elements in proteus" target="_top">
<polygon fill="none" stroke="#000000" stroke-width=".5" points="515.5,-130 420.5,-130 420.5,-111 515.5,-111 515.5,-130"/>
<text text-anchor="middle" x="468" y="-118" font-family="Vera Sans, DejaVu Sans, Liberation Sans, Arial, Helvetica, sans" font-size="10.00" fill="#000000">VPP_PWL_BDM2</text>
</a>
</g>
</g>
<!-- VPP_PWL_RT0&#45;&gt;VPP_PWL_BDM2 -->
<g id="edge9" class="edge">
<title>VPP_PWL_RT0&#45;&gt;VPP_PWL_BDM2</title>
<path fill="none" stroke="#000000" stroke-width=".5" d="M349.7224,-120.5C369.8173,-120.5 393.9739,-120.5 415.2031,-120.5"/>
<polygon fill="#000000" stroke="#000000" stroke-width=".5" points="415.2488,-122.2501 420.2488,-120.5 415.2487,-118.7501 415.2488,-122.2501"/>
</g>
<!-- VPP_PWL_RT0_OPT -->
<g id="node14" class="node">
<title>VPP_PWL_RT0_OPT</title>
<g id="a_node14"><a xlink:href="../api/proteus.PostProcessingTools.html#proteus.PostProcessingTools.VPP_PWL_RT0_OPT" xlink:title="Version of local Larson&#45;Niklasson scheme to use with optimized" target="_top">
<polygon fill="none" stroke="#000000" stroke-width=".5" points="523,-93 413,-93 413,-74 523,-74 523,-93"/>
<text text-anchor="middle" x="468" y="-81" font-family="Vera Sans, DejaVu Sans, Liberation Sans, Arial, Helvetica, sans" font-size="10.00" fill="#000000">VPP_PWL_RT0_OPT</text>
</a>
</g>
</g>
<!-- VPP_PWL_RT0&#45;&gt;VPP_PWL_RT0_OPT -->
<g id="edge12" class="edge">
<title>VPP_PWL_RT0&#45;&gt;VPP_PWL_RT0_OPT</title>
<path fill="none" stroke="#000000" stroke-width=".5" d="M348.4615,-110.9716C370.7226,-105.8557 398.2391,-99.532 421.2581,-94.2419"/>
<polygon fill="#000000" stroke="#000000" stroke-width=".5" points="421.9185,-95.8859 426.3995,-93.0604 421.1345,-92.4748 421.9185,-95.8859"/>
</g>
<!-- VPP_PWL_BDM_OPT -->
<g id="node13" class="node">
<title>VPP_PWL_BDM_OPT</title>
<g id="a_node13"><a xlink:href="../api/proteus.PostProcessingTools.html#proteus.PostProcessingTools.VPP_PWL_BDM_OPT" xlink:title="Local Larson&#45;Niklasson method with BDM1 representation for element" target="_top">
<polygon fill="none" stroke="#000000" stroke-width=".5" points="673,-93 559,-93 559,-74 673,-74 673,-93"/>
<text text-anchor="middle" x="616" y="-81" font-family="Vera Sans, DejaVu Sans, Liberation Sans, Arial, Helvetica, sans" font-size="10.00" fill="#000000">VPP_PWL_BDM_OPT</text>
</a>
</g>
</g>
<!-- VPP_PWL_RT0_OPT&#45;&gt;VPP_PWL_BDM_OPT -->
<g id="edge10" class="edge">
<title>VPP_PWL_RT0_OPT&#45;&gt;VPP_PWL_BDM_OPT</title>
<path fill="none" stroke="#000000" stroke-width=".5" d="M523.1097,-83.5C533.0476,-83.5 543.4727,-83.5 553.6004,-83.5"/>
<polygon fill="#000000" stroke="#000000" stroke-width=".5" points="553.8654,-85.2501 558.8654,-83.5 553.8653,-81.7501 553.8654,-85.2501"/>
</g>
<!-- VelocityPostProcessor_Original -->
<g id="node18" class="node">
<title>VelocityPostProcessor_Original</title>
<g id="a_node18"><a xlink:href="../api/proteus.PostProcessingTools.html#proteus.PostProcessingTools.VelocityPostProcessor_Original" xlink:title="accumulate basic functionality for post&#45;processing velocity vields" target="_top">
<polygon fill="none" stroke="#000000" stroke-width=".5" points="184,-222 17,-222 17,-203 184,-203 184,-222"/>
<text text-anchor="middle" x="100.5" y="-210" font-family="Vera Sans, DejaVu Sans, Liberation Sans, Arial, Helvetica, sans" font-size="10.00" fill="#000000">VelocityPostProcessor_Original</text>
</a>
</g>
</g>
</g>
</svg>
