<?xml version="1.0" encoding="UTF-8" standalone="no"?>
<!DOCTYPE svg PUBLIC "-//W3C//DTD SVG 1.1//EN"
 "http://www.w3.org/Graphics/SVG/1.1/DTD/svg11.dtd">
<!-- Generated by graphviz version 2.38.0 (20140413.2041)
 -->
<!-- Title: inheritance0624bf74da Pages: 1 -->
<svg width="414pt" height="304pt"
 viewBox="0.00 0.00 414.00 304.00" xmlns="http://www.w3.org/2000/svg" xmlns:xlink="http://www.w3.org/1999/xlink">
<g id="graph0" class="graph" transform="scale(1 1) rotate(0) translate(4 300)">
<title>inheritance0624bf74da</title>
<polygon fill="white" stroke="none" points="-4,4 -4,-300 410,-300 410,4 -4,4"/>
<!-- EikonalSolver -->
<g id="node1" class="node"><title>EikonalSolver</title>
<g id="a_node1"><a xlink:href="#proteus.NonlinearSolvers.EikonalSolver" xlink:title="Simple wrapper for special purpose Eikonal equation solvers on a single level.">
<polygon fill="none" stroke="black" stroke-width="0.5" points="108.5,-55 28.5,-55 28.5,-36 108.5,-36 108.5,-55"/>
<text text-anchor="middle" x="68.5" y="-43" font-family="Vera Sans, DejaVu Sans, Liberation Sans, Arial, Helvetica, sans" font-size="10.00">EikonalSolver</text>
</a>
</g>
</g>
<!-- FAS -->
<g id="node2" class="node"><title>FAS</title>
<g id="a_node2"><a xlink:href="#proteus.NonlinearSolvers.FAS" xlink:title="A generic nonlinear multigrid W cycle using the Full Approximation Scheme (FAS).">
<polygon fill="none" stroke="black" stroke-width="0.5" points="95.5,-92 41.5,-92 41.5,-73 95.5,-73 95.5,-92"/>
<text text-anchor="middle" x="68.5" y="-80" font-family="Vera Sans, DejaVu Sans, Liberation Sans, Arial, Helvetica, sans" font-size="10.00">FAS</text>
</a>
</g>
</g>
<!-- FasTwoLevel -->
<g id="node3" class="node"><title>FasTwoLevel</title>
<g id="a_node3"><a xlink:href="#proteus.NonlinearSolvers.FasTwoLevel" xlink:title="A generic nonlinear two&#45;level solver based on the full approximation scheme. (FAS).">
<polygon fill="none" stroke="black" stroke-width="0.5" points="254.5,-222 180.5,-222 180.5,-203 254.5,-203 254.5,-222"/>
<text text-anchor="middle" x="217.5" y="-210" font-family="Vera Sans, DejaVu Sans, Liberation Sans, Arial, Helvetica, sans" font-size="10.00">FasTwoLevel</text>
</a>
</g>
</g>
<!-- NonlinearSolver -->
<g id="node4" class="node"><title>NonlinearSolver</title>
<g id="a_node4"><a xlink:href="#proteus.NonlinearSolvers.NonlinearSolver" xlink:title="The base class for nonlinear solvers.">
<polygon fill="none" stroke="black" stroke-width="0.5" points="114.5,-129 22.5,-129 22.5,-110 114.5,-110 114.5,-129"/>
<text text-anchor="middle" x="68.5" y="-117" font-family="Vera Sans, DejaVu Sans, Liberation Sans, Arial, Helvetica, sans" font-size="10.00">NonlinearSolver</text>
</a>
</g>
</g>
<!-- NonlinearSolver&#45;&gt;FasTwoLevel -->
<g id="edge1" class="edge"><title>NonlinearSolver&#45;&gt;FasTwoLevel</title>
<path fill="none" stroke="black" stroke-width="0.5" d="M80.9982,-129.233C99.484,-144.549 137.36,-174.578 173,-194.5 176.982,-196.726 181.295,-198.836 185.606,-200.777"/>
<polygon fill="black" stroke="black" stroke-width="0.5" points="184.984,-202.415 190.267,-202.812 186.385,-199.207 184.984,-202.415"/>
</g>
<!-- NLGaussSeidel -->
<g id="node7" class="node"><title>NLGaussSeidel</title>
<g id="a_node7"><a xlink:href="#proteus.NonlinearSolvers.NLGaussSeidel" xlink:title="Nonlinear Gauss&#45;Seidel.">
<polygon fill="none" stroke="black" stroke-width="0.5" points="262,-185 173,-185 173,-166 262,-166 262,-185"/>
<text text-anchor="middle" x="217.5" y="-173" font-family="Vera Sans, DejaVu Sans, Liberation Sans, Arial, Helvetica, sans" font-size="10.00">NLGaussSeidel</text>
</a>
</g>
</g>
<!-- NonlinearSolver&#45;&gt;NLGaussSeidel -->
<g id="edge2" class="edge"><title>NonlinearSolver&#45;&gt;NLGaussSeidel</title>
<path fill="none" stroke="black" stroke-width="0.5" d="M94.7702,-129.127C120.272,-138.842 159.643,-153.84 186.664,-164.134"/>
<polygon fill="black" stroke="black" stroke-width="0.5" points="186.264,-165.854 191.56,-165.999 187.51,-162.583 186.264,-165.854"/>
</g>
<!-- NLJacobi -->
<g id="node8" class="node"><title>NLJacobi</title>
<g id="a_node8"><a xlink:href="#proteus.NonlinearSolvers.NLJacobi" xlink:title="Nonlinear Jacobi iteration.">
<polygon fill="none" stroke="black" stroke-width="0.5" points="246,-148 189,-148 189,-129 246,-129 246,-148"/>
<text text-anchor="middle" x="217.5" y="-136" font-family="Vera Sans, DejaVu Sans, Liberation Sans, Arial, Helvetica, sans" font-size="10.00">NLJacobi</text>
</a>
</g>
</g>
<!-- NonlinearSolver&#45;&gt;NLJacobi -->
<g id="edge3" class="edge"><title>NonlinearSolver&#45;&gt;NLJacobi</title>
<path fill="none" stroke="black" stroke-width="0.5" d="M114.804,-125.356C137.046,-128.23 163.348,-131.63 183.631,-134.252"/>
<polygon fill="black" stroke="black" stroke-width="0.5" points="183.469,-135.995 188.652,-134.901 183.918,-132.524 183.469,-135.995"/>
</g>
<!-- NLStarILU -->
<g id="node10" class="node"><title>NLStarILU</title>
<g id="a_node10"><a xlink:href="#proteus.NonlinearSolvers.NLStarILU" xlink:title="Nonlinear alternating Schwarz on node stars.">
<polygon fill="none" stroke="black" stroke-width="0.5" points="249.5,-111 185.5,-111 185.5,-92 249.5,-92 249.5,-111"/>
<text text-anchor="middle" x="217.5" y="-99" font-family="Vera Sans, DejaVu Sans, Liberation Sans, Arial, Helvetica, sans" font-size="10.00">NLStarILU</text>
</a>
</g>
</g>
<!-- NonlinearSolver&#45;&gt;NLStarILU -->
<g id="edge5" class="edge"><title>NonlinearSolver&#45;&gt;NLStarILU</title>
<path fill="none" stroke="black" stroke-width="0.5" d="M114.804,-113.953C135.713,-111.392 160.21,-108.393 179.921,-105.979"/>
<polygon fill="black" stroke="black" stroke-width="0.5" points="180.334,-107.692 185.085,-105.347 179.909,-104.218 180.334,-107.692"/>
</g>
<!-- Newton -->
<g id="node11" class="node"><title>Newton</title>
<g id="a_node11"><a xlink:href="#proteus.NonlinearSolvers.Newton" xlink:title="A simple iterative solver that is Newton&#39;s method">
<polygon fill="none" stroke="black" stroke-width="0.5" points="244.5,-74 190.5,-74 190.5,-55 244.5,-55 244.5,-74"/>
<text text-anchor="middle" x="217.5" y="-62" font-family="Vera Sans, DejaVu Sans, Liberation Sans, Arial, Helvetica, sans" font-size="10.00">Newton</text>
</a>
</g>
</g>
<!-- NonlinearSolver&#45;&gt;Newton -->
<g id="edge6" class="edge"><title>NonlinearSolver&#45;&gt;Newton</title>
<path fill="none" stroke="black" stroke-width="0.5" d="M108.11,-109.989C117.668,-107.265 127.803,-104.057 137,-100.5 153.684,-94.0477 156.725,-89.9246 173,-82.5 177.685,-80.3629 182.698,-78.1875 187.595,-76.1222"/>
<polygon fill="black" stroke="black" stroke-width="0.5" points="188.497,-77.6417 192.436,-74.099 187.148,-74.4123 188.497,-77.6417"/>
</g>
<!-- NewtonNS -->
<g id="node12" class="node"><title>NewtonNS</title>
<g id="a_node12"><a xlink:href="#proteus.NonlinearSolvers.NewtonNS" xlink:title="A simple iterative solver that is Newton&#39;s method">
<polygon fill="none" stroke="black" stroke-width="0.5" points="251,-37 184,-37 184,-18 251,-18 251,-37"/>
<text text-anchor="middle" x="217.5" y="-25" font-family="Vera Sans, DejaVu Sans, Liberation Sans, Arial, Helvetica, sans" font-size="10.00">NewtonNS</text>
</a>
</g>
</g>
<!-- NonlinearSolver&#45;&gt;NewtonNS -->
<g id="edge7" class="edge"><title>NonlinearSolver&#45;&gt;NewtonNS</title>
<path fill="none" stroke="black" stroke-width="0.5" d="M114.794,-111.611C122.665,-108.924 130.423,-105.324 137,-100.5 160.558,-83.2218 150.501,-64.1368 173,-45.5 175.769,-43.206 178.872,-41.1688 182.111,-39.3679"/>
<polygon fill="black" stroke="black" stroke-width="0.5" points="182.952,-40.9032 186.595,-37.0567 181.348,-37.7922 182.952,-40.9032"/>
</g>
<!-- MultilevelEikonalSolver -->
<g id="node5" class="node"><title>MultilevelEikonalSolver</title>
<g id="a_node5"><a xlink:href="#proteus.NonlinearSolvers.MultilevelEikonalSolver" xlink:title="Attempt a wrapper for multilevel Eikonal equation solves with restricted interface">
<polygon fill="none" stroke="black" stroke-width="0.5" points="131,-203 6,-203 6,-184 131,-184 131,-203"/>
<text text-anchor="middle" x="68.5" y="-191" font-family="Vera Sans, DejaVu Sans, Liberation Sans, Arial, Helvetica, sans" font-size="10.00">MultilevelEikonalSolver</text>
</a>
</g>
</g>
<!-- MultilevelNonlinearSolver -->
<g id="node6" class="node"><title>MultilevelNonlinearSolver</title>
<g id="a_node6"><a xlink:href="#proteus.NonlinearSolvers.MultilevelNonlinearSolver" xlink:title="A generic multilevel solver.">
<polygon fill="none" stroke="black" stroke-width="0.5" points="137,-259 0,-259 0,-240 137,-240 137,-259"/>
<text text-anchor="middle" x="68.5" y="-247" font-family="Vera Sans, DejaVu Sans, Liberation Sans, Arial, Helvetica, sans" font-size="10.00">MultilevelNonlinearSolver</text>
</a>
</g>
</g>
<!-- NLNI -->
<g id="node9" class="node"><title>NLNI</title>
<g id="a_node9"><a xlink:href="#proteus.NonlinearSolvers.NLNI" xlink:title="Nonlinear nested iteration.">
<polygon fill="none" stroke="black" stroke-width="0.5" points="244.5,-259 190.5,-259 190.5,-240 244.5,-240 244.5,-259"/>
<text text-anchor="middle" x="217.5" y="-247" font-family="Vera Sans, DejaVu Sans, Liberation Sans, Arial, Helvetica, sans" font-size="10.00">NLNI</text>
</a>
</g>
</g>
<!-- MultilevelNonlinearSolver&#45;&gt;NLNI -->
<g id="edge4" class="edge"><title>MultilevelNonlinearSolver&#45;&gt;NLNI</title>
<path fill="none" stroke="black" stroke-width="0.5" d="M137.406,-249.5C154.156,-249.5 171.296,-249.5 185.318,-249.5"/>
<polygon fill="black" stroke="black" stroke-width="0.5" points="185.337,-251.25 190.337,-249.5 185.337,-247.75 185.337,-251.25"/>
</g>
<!-- POD_DEIM_Newton -->
<g id="node14" class="node"><title>POD_DEIM_Newton</title>
<g id="a_node14"><a xlink:href="#proteus.NonlinearSolvers.POD_DEIM_Newton" xlink:title="Newton&#39;s method on the reduced order system based on POD">
<polygon fill="none" stroke="black" stroke-width="0.5" points="406,-130 298,-130 298,-111 406,-111 406,-130"/>
<text text-anchor="middle" x="352" y="-118" font-family="Vera Sans, DejaVu Sans, Liberation Sans, Arial, Helvetica, sans" font-size="10.00">POD_DEIM_Newton</text>
</a>
</g>
</g>
<!-- Newton&#45;&gt;POD_DEIM_Newton -->
<g id="edge8" class="edge"><title>Newton&#45;&gt;POD_DEIM_Newton</title>
<path fill="none" stroke="black" stroke-width="0.5" d="M243.105,-74.1049C249.332,-76.6928 255.964,-79.5866 262,-82.5 278.483,-90.4567 281.267,-95.0826 298,-102.5 303.414,-104.9 309.253,-107.177 315.009,-109.254"/>
<polygon fill="black" stroke="black" stroke-width="0.5" points="314.515,-110.936 319.813,-110.95 315.68,-107.635 314.515,-110.936"/>
</g>
<!-- POD_Newton -->
<g id="node15" class="node"><title>POD_Newton</title>
<g id="a_node15"><a xlink:href="#proteus.NonlinearSolvers.POD_Newton" xlink:title="Newton&#39;s method on the reduced order system based on POD">
<polygon fill="none" stroke="black" stroke-width="0.5" points="391.5,-93 312.5,-93 312.5,-74 391.5,-74 391.5,-93"/>
<text text-anchor="middle" x="352" y="-81" font-family="Vera Sans, DejaVu Sans, Liberation Sans, Arial, Helvetica, sans" font-size="10.00">POD_Newton</text>
</a>
</g>
</g>
<!-- Newton&#45;&gt;POD_Newton -->
<g id="edge9" class="edge"><title>Newton&#45;&gt;POD_Newton</title>
<path fill="none" stroke="black" stroke-width="0.5" d="M244.678,-68.2538C262.477,-70.8061 286.457,-74.2447 307.138,-77.2104"/>
<polygon fill="black" stroke="black" stroke-width="0.5" points="307.122,-78.9758 312.319,-77.9533 307.618,-75.5113 307.122,-78.9758"/>
</g>
<!-- PicardNewton -->
<g id="node16" class="node"><title>PicardNewton</title>
<g id="a_node16"><a xlink:href="#proteus.NonlinearSolvers.PicardNewton" xlink:title="PicardNewton">
<polygon fill="none" stroke="black" stroke-width="0.5" points="393,-56 311,-56 311,-37 393,-37 393,-56"/>
<text text-anchor="middle" x="352" y="-44" font-family="Vera Sans, DejaVu Sans, Liberation Sans, Arial, Helvetica, sans" font-size="10.00">PicardNewton</text>
</a>
</g>
</g>
<!-- Newton&#45;&gt;PicardNewton -->
<g id="edge10" class="edge"><title>Newton&#45;&gt;PicardNewton</title>
<path fill="none" stroke="black" stroke-width="0.5" d="M244.678,-60.9438C262.059,-58.5825 285.336,-55.4204 305.679,-52.6569"/>
<polygon fill="black" stroke="black" stroke-width="0.5" points="306.063,-54.3708 310.782,-51.9636 305.592,-50.9027 306.063,-54.3708"/>
</g>
<!-- SSPRKNewton -->
<g id="node17" class="node"><title>SSPRKNewton</title>
<g id="a_node17"><a xlink:href="#proteus.NonlinearSolvers.SSPRKNewton" xlink:title="Version of Newton for SSPRK so doesn&#39;t refactor unnecessarily">
<polygon fill="none" stroke="black" stroke-width="0.5" points="394,-19 310,-19 310,-0 394,-0 394,-19"/>
<text text-anchor="middle" x="352" y="-7" font-family="Vera Sans, DejaVu Sans, Liberation Sans, Arial, Helvetica, sans" font-size="10.00">SSPRKNewton</text>
</a>
</g>
</g>
<!-- Newton&#45;&gt;SSPRKNewton -->
<g id="edge11" class="edge"><title>Newton&#45;&gt;SSPRKNewton</title>
<path fill="none" stroke="black" stroke-width="0.5" d="M241.177,-54.8596C247.912,-51.9256 255.282,-48.6439 262,-45.5 278.202,-37.9174 281.493,-34.3923 298,-27.5 303.605,-25.1599 309.632,-22.8896 315.541,-20.7944"/>
<polygon fill="black" stroke="black" stroke-width="0.5" points="316.319,-22.3763 320.465,-19.078 315.167,-19.0713 316.319,-22.3763"/>
</g>
<!-- NonlinearEquation -->
<g id="node13" class="node"><title>NonlinearEquation</title>
<g id="a_node13"><a xlink:href="#proteus.NonlinearSolvers.NonlinearEquation" xlink:title="The base class for nonlinear equations.">
<polygon fill="none" stroke="black" stroke-width="0.5" points="120.5,-296 16.5,-296 16.5,-277 120.5,-277 120.5,-296"/>
<text text-anchor="middle" x="68.5" y="-284" font-family="Vera Sans, DejaVu Sans, Liberation Sans, Arial, Helvetica, sans" font-size="10.00">NonlinearEquation</text>
</a>
</g>
</g>
</g>
</svg>
