<?xml version="1.0" encoding="UTF-8" standalone="no"?>
<!DOCTYPE svg PUBLIC "-//W3C//DTD SVG 1.1//EN"
 "http://www.w3.org/Graphics/SVG/1.1/DTD/svg11.dtd">
<!-- Generated by graphviz version 2.38.0 (20140413.2041)
 -->
<!-- Title: inheritance3ba27a0141 Pages: 1 -->
<svg width="576pt" height="391pt"
 viewBox="0.00 0.00 576.00 391.21" xmlns="http://www.w3.org/2000/svg" xmlns:xlink="http://www.w3.org/1999/xlink">
<g id="graph0" class="graph" transform="scale(0.901408 0.901408) rotate(0) translate(4 430)">
<title>inheritance3ba27a0141</title>
<polygon fill="white" stroke="none" points="-4,4 -4,-430 635,-430 635,4 -4,4"/>
<!-- AS_base -->
<g id="node1" class="node"><title>AS_base</title>
<g id="a_node1"><a xlink:href="../api/proteus.AnalyticalSolutions.html#proteus.AnalyticalSolutions.AS_base" xlink:title="The base class for general analytical solutions, u(x,y,z,t)" target="_top">
<polygon fill="none" stroke="black" stroke-width="0.5" points="59,-222 0,-222 0,-203 59,-203 59,-222"/>
<text text-anchor="middle" x="29.5" y="-210" font-family="Vera Sans, DejaVu Sans, Liberation Sans, Arial, Helvetica, sans" font-size="10.00">AS_base</text>
</a>
</g>
</g>
<!-- Buckley_Leverett_RiemannSoln -->
<g id="node2" class="node"><title>Buckley_Leverett_RiemannSoln</title>
<g id="a_node2"><a xlink:href="../api/proteus.AnalyticalSolutions.html#proteus.AnalyticalSolutions.Buckley_Leverett_RiemannSoln" xlink:title="Buckley_Leverett_RiemannSoln" target="_top">
<polygon fill="none" stroke="black" stroke-width="0.5" points="262,-333 95,-333 95,-314 262,-314 262,-333"/>
<text text-anchor="middle" x="178.5" y="-321" font-family="Vera Sans, DejaVu Sans, Liberation Sans, Arial, Helvetica, sans" font-size="10.00">Buckley_Leverett_RiemannSoln</text>
</a>
</g>
</g>
<!-- AS_base&#45;&gt;Buckley_Leverett_RiemannSoln -->
<g id="edge1" class="edge"><title>AS_base&#45;&gt;Buckley_Leverett_RiemannSoln</title>
<path fill="none" stroke="black" stroke-width="0.5" d="M34.3168,-222.196C42.3995,-241.387 63.1539,-284.195 95,-305.5 98.7582,-308.014 102.808,-310.184 107.026,-312.056"/>
<polygon fill="black" stroke="black" stroke-width="0.5" points="106.372,-313.679 111.661,-313.972 107.709,-310.444 106.372,-313.679"/>
</g>
<!-- DAE_base -->
<g id="node3" class="node"><title>DAE_base</title>
<g id="a_node3"><a xlink:href="../api/proteus.AnalyticalSolutions.html#proteus.AnalyticalSolutions.DAE_base" xlink:title="The base class for differential&#45;algebraic equation solutions" target="_top">
<polygon fill="none" stroke="black" stroke-width="0.5" points="211,-296 146,-296 146,-277 211,-277 211,-296"/>
<text text-anchor="middle" x="178.5" y="-284" font-family="Vera Sans, DejaVu Sans, Liberation Sans, Arial, Helvetica, sans" font-size="10.00">DAE_base</text>
</a>
</g>
</g>
<!-- AS_base&#45;&gt;DAE_base -->
<g id="edge2" class="edge"><title>AS_base&#45;&gt;DAE_base</title>
<path fill="none" stroke="black" stroke-width="0.5" d="M38.6248,-222.06C49.9325,-234.718 71.6701,-256.799 95,-268.5 109.005,-275.524 125.695,-279.821 140.388,-282.443"/>
<polygon fill="black" stroke="black" stroke-width="0.5" points="140.481,-284.233 145.702,-283.335 141.061,-280.781 140.481,-284.233"/>
</g>
<!-- LinearAD_DiracIC -->
<g id="node5" class="node"><title>LinearAD_DiracIC</title>
<g id="a_node5"><a xlink:href="../api/proteus.AnalyticalSolutions.html#proteus.AnalyticalSolutions.LinearAD_DiracIC" xlink:title="The exact solution of" target="_top">
<polygon fill="none" stroke="black" stroke-width="0.5" points="228,-259 129,-259 129,-240 228,-240 228,-259"/>
<text text-anchor="middle" x="178.5" y="-247" font-family="Vera Sans, DejaVu Sans, Liberation Sans, Arial, Helvetica, sans" font-size="10.00">LinearAD_DiracIC</text>
</a>
</g>
</g>
<!-- AS_base&#45;&gt;LinearAD_DiracIC -->
<g id="edge5" class="edge"><title>AS_base&#45;&gt;LinearAD_DiracIC</title>
<path fill="none" stroke="black" stroke-width="0.5" d="M59.2751,-221.456C70.3885,-224.788 83.2388,-228.489 95,-231.5 105.008,-234.062 115.757,-236.578 126.082,-238.878"/>
<polygon fill="black" stroke="black" stroke-width="0.5" points="125.851,-240.619 131.111,-239.99 126.606,-237.202 125.851,-240.619"/>
</g>
<!-- SteadyState -->
<g id="node7" class="node"><title>SteadyState</title>
<g id="a_node7"><a xlink:href="../api/proteus.AnalyticalSolutions.html#proteus.AnalyticalSolutions.SteadyState" xlink:title="Based class for steady&#45;state solutions u(x)" target="_top">
<polygon fill="none" stroke="black" stroke-width="0.5" points="217,-222 140,-222 140,-203 217,-203 217,-222"/>
<text text-anchor="middle" x="178.5" y="-210" font-family="Vera Sans, DejaVu Sans, Liberation Sans, Arial, Helvetica, sans" font-size="10.00">SteadyState</text>
</a>
</g>
</g>
<!-- AS_base&#45;&gt;SteadyState -->
<g id="edge22" class="edge"><title>AS_base&#45;&gt;SteadyState</title>
<path fill="none" stroke="black" stroke-width="0.5" d="M59.192,-212.5C80.7216,-212.5 110.546,-212.5 134.862,-212.5"/>
<polygon fill="black" stroke="black" stroke-width="0.5" points="134.963,-214.25 139.963,-212.5 134.963,-210.75 134.963,-214.25"/>
</g>
<!-- VortexDecay_p -->
<g id="node24" class="node"><title>VortexDecay_p</title>
<g id="a_node24"><a xlink:href="../api/proteus.AnalyticalSolutions.html#proteus.AnalyticalSolutions.VortexDecay_p" xlink:title="The exact solution for the u component of &#160;velocity in the vortex &#160;decay problem" target="_top">
<polygon fill="none" stroke="black" stroke-width="0.5" points="223,-185 134,-185 134,-166 223,-166 223,-185"/>
<text text-anchor="middle" x="178.5" y="-173" font-family="Vera Sans, DejaVu Sans, Liberation Sans, Arial, Helvetica, sans" font-size="10.00">VortexDecay_p</text>
</a>
</g>
</g>
<!-- AS_base&#45;&gt;VortexDecay_p -->
<g id="edge23" class="edge"><title>AS_base&#45;&gt;VortexDecay_p</title>
<path fill="none" stroke="black" stroke-width="0.5" d="M59.0015,-204.243C70.1938,-201.08 83.1702,-197.511 95,-194.5 105.993,-191.702 117.856,-188.864 129.066,-186.264"/>
<polygon fill="black" stroke="black" stroke-width="0.5" points="129.686,-187.917 134.165,-185.088 128.899,-184.507 129.686,-187.917"/>
</g>
<!-- VortexDecay_u -->
<g id="node25" class="node"><title>VortexDecay_u</title>
<g id="a_node25"><a xlink:href="../api/proteus.AnalyticalSolutions.html#proteus.AnalyticalSolutions.VortexDecay_u" xlink:title="The exact solution for the u component of &#160;velocity in the vortex &#160;decay problem" target="_top">
<polygon fill="none" stroke="black" stroke-width="0.5" points="223,-148 134,-148 134,-129 223,-129 223,-148"/>
<text text-anchor="middle" x="178.5" y="-136" font-family="Vera Sans, DejaVu Sans, Liberation Sans, Arial, Helvetica, sans" font-size="10.00">VortexDecay_u</text>
</a>
</g>
</g>
<!-- AS_base&#45;&gt;VortexDecay_u -->
<g id="edge24" class="edge"><title>AS_base&#45;&gt;VortexDecay_u</title>
<path fill="none" stroke="black" stroke-width="0.5" d="M39.0732,-202.729C50.5492,-190.282 72.1264,-169.01 95,-157.5 105.454,-152.239 117.386,-148.413 128.866,-145.638"/>
<polygon fill="black" stroke="black" stroke-width="0.5" points="129.273,-147.34 133.752,-144.512 128.487,-143.929 129.273,-147.34"/>
</g>
<!-- VortexDecay_v -->
<g id="node26" class="node"><title>VortexDecay_v</title>
<g id="a_node26"><a xlink:href="../api/proteus.AnalyticalSolutions.html#proteus.AnalyticalSolutions.VortexDecay_v" xlink:title="The exact solution for the u component of &#160;velocity in the vortex &#160;decay problem" target="_top">
<polygon fill="none" stroke="black" stroke-width="0.5" points="222.5,-111 134.5,-111 134.5,-92 222.5,-92 222.5,-111"/>
<text text-anchor="middle" x="178.5" y="-99" font-family="Vera Sans, DejaVu Sans, Liberation Sans, Arial, Helvetica, sans" font-size="10.00">VortexDecay_v</text>
</a>
</g>
</g>
<!-- AS_base&#45;&gt;VortexDecay_v -->
<g id="edge25" class="edge"><title>AS_base&#45;&gt;VortexDecay_v</title>
<path fill="none" stroke="black" stroke-width="0.5" d="M34.3678,-202.939C42.5421,-184.008 63.4533,-141.753 95,-120.5 105.133,-113.674 117.383,-109.277 129.308,-106.452"/>
<polygon fill="black" stroke="black" stroke-width="0.5" points="129.884,-108.118 134.392,-105.335 129.133,-104.699 129.884,-108.118"/>
</g>
<!-- NonlinearDAE -->
<g id="node11" class="node"><title>NonlinearDAE</title>
<g id="a_node11"><a xlink:href="../api/proteus.AnalyticalSolutions.html#proteus.AnalyticalSolutions.NonlinearDAE" xlink:title="The exact solution of the simple nonlinear DAE" target="_top">
<polygon fill="none" stroke="black" stroke-width="0.5" points="409.5,-426 326.5,-426 326.5,-407 409.5,-407 409.5,-426"/>
<text text-anchor="middle" x="368" y="-414" font-family="Vera Sans, DejaVu Sans, Liberation Sans, Arial, Helvetica, sans" font-size="10.00">NonlinearDAE</text>
</a>
</g>
</g>
<!-- DAE_base&#45;&gt;NonlinearDAE -->
<g id="edge9" class="edge"><title>DAE_base&#45;&gt;NonlinearDAE</title>
<path fill="none" stroke="black" stroke-width="0.5" d="M211.292,-286.883C228.119,-288.658 248.114,-293.47 262,-305.5 295.499,-334.522 264.923,-368.998 298,-398.5 304.503,-404.3 312.647,-408.272 321.038,-410.982"/>
<polygon fill="black" stroke="black" stroke-width="0.5" points="320.991,-412.791 326.281,-412.511 321.971,-409.431 320.991,-412.791"/>
</g>
<!-- LinearADR_Decay_DiracIC -->
<g id="node4" class="node"><title>LinearADR_Decay_DiracIC</title>
<g id="a_node4"><a xlink:href="../api/proteus.AnalyticalSolutions.html#proteus.AnalyticalSolutions.LinearADR_Decay_DiracIC" xlink:title="The exact solution of" target="_top">
<polygon fill="none" stroke="black" stroke-width="0.5" points="438,-389 298,-389 298,-370 438,-370 438,-389"/>
<text text-anchor="middle" x="368" y="-377" font-family="Vera Sans, DejaVu Sans, Liberation Sans, Arial, Helvetica, sans" font-size="10.00">LinearADR_Decay_DiracIC</text>
</a>
</g>
</g>
<!-- NonlinearADR_Decay_DiracIC -->
<g id="node9" class="node"><title>NonlinearADR_Decay_DiracIC</title>
<g id="a_node9"><a xlink:href="../api/proteus.AnalyticalSolutions.html#proteus.AnalyticalSolutions.NonlinearADR_Decay_DiracIC" xlink:title="The approximate analytical solution of" target="_top">
<polygon fill="none" stroke="black" stroke-width="0.5" points="631,-389 474,-389 474,-370 631,-370 631,-389"/>
<text text-anchor="middle" x="552.5" y="-377" font-family="Vera Sans, DejaVu Sans, Liberation Sans, Arial, Helvetica, sans" font-size="10.00">NonlinearADR_Decay_DiracIC</text>
</a>
</g>
</g>
<!-- LinearADR_Decay_DiracIC&#45;&gt;NonlinearADR_Decay_DiracIC -->
<g id="edge7" class="edge"><title>LinearADR_Decay_DiracIC&#45;&gt;NonlinearADR_Decay_DiracIC</title>
<path fill="none" stroke="black" stroke-width="0.5" d="M438.256,-379.5C448.13,-379.5 458.371,-379.5 468.475,-379.5"/>
<polygon fill="black" stroke="black" stroke-width="0.5" points="468.744,-381.25 473.744,-379.5 468.744,-377.75 468.744,-381.25"/>
</g>
<!-- LinearAD_DiracIC&#45;&gt;LinearADR_Decay_DiracIC -->
<g id="edge3" class="edge"><title>LinearAD_DiracIC&#45;&gt;LinearADR_Decay_DiracIC</title>
<path fill="none" stroke="black" stroke-width="0.5" d="M228.115,-252.657C240.29,-255.477 252.558,-260.32 262,-268.5 295.499,-297.522 264.923,-331.998 298,-361.5 300.486,-363.717 303.211,-365.667 306.099,-367.382"/>
<polygon fill="black" stroke="black" stroke-width="0.5" points="305.526,-369.06 310.758,-369.886 307.183,-365.977 305.526,-369.06"/>
</g>
<!-- LinearADR_Sine -->
<g id="node6" class="node"><title>LinearADR_Sine</title>
<g id="a_node6"><a xlink:href="../api/proteus.AnalyticalSolutions.html#proteus.AnalyticalSolutions.LinearADR_Sine" xlink:title="An exact solution and source term for" target="_top">
<polygon fill="none" stroke="black" stroke-width="0.5" points="414,-352 322,-352 322,-333 414,-333 414,-352"/>
<text text-anchor="middle" x="368" y="-340" font-family="Vera Sans, DejaVu Sans, Liberation Sans, Arial, Helvetica, sans" font-size="10.00">LinearADR_Sine</text>
</a>
</g>
</g>
<!-- SteadyState&#45;&gt;LinearADR_Sine -->
<g id="edge4" class="edge"><title>SteadyState&#45;&gt;LinearADR_Sine</title>
<path fill="none" stroke="black" stroke-width="0.5" d="M217.052,-213.6C232.521,-215.826 249.669,-220.817 262,-231.5 295.499,-260.522 264.923,-294.998 298,-324.5 303.48,-329.388 310.125,-332.977 317.1,-335.606"/>
<polygon fill="black" stroke="black" stroke-width="0.5" points="316.674,-337.31 321.972,-337.278 317.81,-334 316.674,-337.31"/>
</g>
<!-- LinearAD_SteadyState -->
<g id="node8" class="node"><title>LinearAD_SteadyState</title>
<g id="a_node8"><a xlink:href="../api/proteus.AnalyticalSolutions.html#proteus.AnalyticalSolutions.LinearAD_SteadyState" xlink:title="The solution of the steady linear advection&#45;diffusion equation" target="_top">
<polygon fill="none" stroke="black" stroke-width="0.5" points="430.5,-315 305.5,-315 305.5,-296 430.5,-296 430.5,-315"/>
<text text-anchor="middle" x="368" y="-303" font-family="Vera Sans, DejaVu Sans, Liberation Sans, Arial, Helvetica, sans" font-size="10.00">LinearAD_SteadyState</text>
</a>
</g>
</g>
<!-- SteadyState&#45;&gt;LinearAD_SteadyState -->
<g id="edge6" class="edge"><title>SteadyState&#45;&gt;LinearAD_SteadyState</title>
<path fill="none" stroke="black" stroke-width="0.5" d="M217.32,-215.053C232.304,-217.56 249.016,-222.369 262,-231.5 286.202,-248.521 274.045,-270.132 298,-287.5 301.386,-289.955 305.08,-292.075 308.941,-293.907"/>
<polygon fill="black" stroke="black" stroke-width="0.5" points="308.261,-295.519 313.543,-295.927 309.668,-292.314 308.261,-295.519"/>
</g>
<!-- PlaneBase -->
<g id="node12" class="node"><title>PlaneBase</title>
<g id="a_node12"><a xlink:href="../api/proteus.AnalyticalSolutions.html#proteus.AnalyticalSolutions.PlaneBase" xlink:title="The exact solution for the u component of &#160;velocity in plane Poiseuille Flow" target="_top">
<polygon fill="none" stroke="black" stroke-width="0.5" points="401.5,-278 334.5,-278 334.5,-259 401.5,-259 401.5,-278"/>
<text text-anchor="middle" x="368" y="-266" font-family="Vera Sans, DejaVu Sans, Liberation Sans, Arial, Helvetica, sans" font-size="10.00">PlaneBase</text>
</a>
</g>
</g>
<!-- SteadyState&#45;&gt;PlaneBase -->
<g id="edge10" class="edge"><title>SteadyState&#45;&gt;PlaneBase</title>
<path fill="none" stroke="black" stroke-width="0.5" d="M217.063,-219.006C231.371,-222.038 247.673,-226.173 262,-231.5 278.957,-237.805 281.135,-243.951 298,-250.5 307.918,-254.351 318.952,-257.645 329.236,-260.322"/>
<polygon fill="black" stroke="black" stroke-width="0.5" points="328.94,-262.052 334.216,-261.586 329.801,-258.66 328.94,-262.052"/>
</g>
<!-- PlaneCouetteFlow_p -->
<g id="node13" class="node"><title>PlaneCouetteFlow_p</title>
<g id="a_node13"><a xlink:href="../api/proteus.AnalyticalSolutions.html#proteus.AnalyticalSolutions.PlaneCouetteFlow_p" xlink:title="The exact solution for the v component of &#160;velocity in plane Couette Flow" target="_top">
<polygon fill="none" stroke="black" stroke-width="0.5" points="424.5,-241 311.5,-241 311.5,-222 424.5,-222 424.5,-241"/>
<text text-anchor="middle" x="368" y="-229" font-family="Vera Sans, DejaVu Sans, Liberation Sans, Arial, Helvetica, sans" font-size="10.00">PlaneCouetteFlow_p</text>
</a>
</g>
</g>
<!-- SteadyState&#45;&gt;PlaneCouetteFlow_p -->
<g id="edge11" class="edge"><title>SteadyState&#45;&gt;PlaneCouetteFlow_p</title>
<path fill="none" stroke="black" stroke-width="0.5" d="M217.443,-216.345C242.935,-218.928 277.081,-222.388 306.31,-225.35"/>
<polygon fill="black" stroke="black" stroke-width="0.5" points="306.18,-227.096 311.331,-225.859 306.533,-223.614 306.18,-227.096"/>
</g>
<!-- PlaneCouetteFlow_u -->
<g id="node14" class="node"><title>PlaneCouetteFlow_u</title>
<g id="a_node14"><a xlink:href="../api/proteus.AnalyticalSolutions.html#proteus.AnalyticalSolutions.PlaneCouetteFlow_u" xlink:title="The exact solution for the u component of &#160;velocity in plane Couette Flow" target="_top">
<polygon fill="none" stroke="black" stroke-width="0.5" points="424.5,-204 311.5,-204 311.5,-185 424.5,-185 424.5,-204"/>
<text text-anchor="middle" x="368" y="-192" font-family="Vera Sans, DejaVu Sans, Liberation Sans, Arial, Helvetica, sans" font-size="10.00">PlaneCouetteFlow_u</text>
</a>
</g>
</g>
<!-- SteadyState&#45;&gt;PlaneCouetteFlow_u -->
<g id="edge12" class="edge"><title>SteadyState&#45;&gt;PlaneCouetteFlow_u</title>
<path fill="none" stroke="black" stroke-width="0.5" d="M217.443,-208.857C242.935,-206.41 277.081,-203.132 306.31,-200.326"/>
<polygon fill="black" stroke="black" stroke-width="0.5" points="306.521,-202.064 311.331,-199.844 306.186,-198.58 306.521,-202.064"/>
</g>
<!-- PlaneCouetteFlow_v -->
<g id="node15" class="node"><title>PlaneCouetteFlow_v</title>
<g id="a_node15"><a xlink:href="../api/proteus.AnalyticalSolutions.html#proteus.AnalyticalSolutions.PlaneCouetteFlow_v" xlink:title="The exact solution for the v component of &#160;velocity in plane Couette Flow" target="_top">
<polygon fill="none" stroke="black" stroke-width="0.5" points="424,-167 312,-167 312,-148 424,-148 424,-167"/>
<text text-anchor="middle" x="368" y="-155" font-family="Vera Sans, DejaVu Sans, Liberation Sans, Arial, Helvetica, sans" font-size="10.00">PlaneCouetteFlow_v</text>
</a>
</g>
</g>
<!-- SteadyState&#45;&gt;PlaneCouetteFlow_v -->
<g id="edge13" class="edge"><title>SteadyState&#45;&gt;PlaneCouetteFlow_v</title>
<path fill="none" stroke="black" stroke-width="0.5" d="M217.01,-206.364C231.311,-203.495 247.623,-199.573 262,-194.5 278.869,-188.547 281.297,-182.905 298,-176.5 305.686,-173.553 314.015,-170.858 322.139,-168.484"/>
<polygon fill="black" stroke="black" stroke-width="0.5" points="322.837,-170.104 327.164,-167.047 321.875,-166.739 322.837,-170.104"/>
</g>
<!-- PlanePoiseuilleFlow_p -->
<g id="node16" class="node"><title>PlanePoiseuilleFlow_p</title>
<g id="a_node16"><a xlink:href="../api/proteus.AnalyticalSolutions.html#proteus.AnalyticalSolutions.PlanePoiseuilleFlow_p" xlink:title="The exact solution for the v component of &#160;velocity in plane Poiseuille Flow" target="_top">
<polygon fill="none" stroke="black" stroke-width="0.5" points="427.5,-130 308.5,-130 308.5,-111 427.5,-111 427.5,-130"/>
<text text-anchor="middle" x="368" y="-118" font-family="Vera Sans, DejaVu Sans, Liberation Sans, Arial, Helvetica, sans" font-size="10.00">PlanePoiseuilleFlow_p</text>
</a>
</g>
</g>
<!-- SteadyState&#45;&gt;PlanePoiseuilleFlow_p -->
<g id="edge14" class="edge"><title>SteadyState&#45;&gt;PlanePoiseuilleFlow_p</title>
<path fill="none" stroke="black" stroke-width="0.5" d="M217.264,-210.411C232.239,-208.086 248.96,-203.479 262,-194.5 286.062,-177.931 274.393,-156.711 298,-139.5 301.991,-136.59 306.406,-134.126 311.017,-132.039"/>
<polygon fill="black" stroke="black" stroke-width="0.5" points="311.755,-133.628 315.686,-130.076 310.398,-130.401 311.755,-133.628"/>
</g>
<!-- PlanePoiseuilleFlow_u -->
<g id="node18" class="node"><title>PlanePoiseuilleFlow_u</title>
<g id="a_node18"><a xlink:href="../api/proteus.AnalyticalSolutions.html#proteus.AnalyticalSolutions.PlanePoiseuilleFlow_u" xlink:title="PlanePoiseuilleFlow_u" target="_top">
<polygon fill="none" stroke="black" stroke-width="0.5" points="427.5,-93 308.5,-93 308.5,-74 427.5,-74 427.5,-93"/>
<text text-anchor="middle" x="368" y="-81" font-family="Vera Sans, DejaVu Sans, Liberation Sans, Arial, Helvetica, sans" font-size="10.00">PlanePoiseuilleFlow_u</text>
</a>
</g>
</g>
<!-- SteadyState&#45;&gt;PlanePoiseuilleFlow_u -->
<g id="edge16" class="edge"><title>SteadyState&#45;&gt;PlanePoiseuilleFlow_u</title>
<path fill="none" stroke="black" stroke-width="0.5" d="M217.005,-211.882C232.466,-209.848 249.621,-205.061 262,-194.5 295.403,-166.002 265.376,-131.887 298,-102.5 300.92,-99.8701 304.171,-97.6 307.627,-95.6409"/>
<polygon fill="black" stroke="black" stroke-width="0.5" points="308.81,-97.0007 312.456,-93.1577 307.209,-93.8882 308.81,-97.0007"/>
</g>
<!-- PlanePoiseuilleFlow_v -->
<g id="node20" class="node"><title>PlanePoiseuilleFlow_v</title>
<g id="a_node20"><a xlink:href="../api/proteus.AnalyticalSolutions.html#proteus.AnalyticalSolutions.PlanePoiseuilleFlow_v" xlink:title="The exact solution for the v component of &#160;velocity in plane Poiseuille Flow" target="_top">
<polygon fill="none" stroke="black" stroke-width="0.5" points="427,-56 309,-56 309,-37 427,-37 427,-56"/>
<text text-anchor="middle" x="368" y="-44" font-family="Vera Sans, DejaVu Sans, Liberation Sans, Arial, Helvetica, sans" font-size="10.00">PlanePoiseuilleFlow_v</text>
</a>
</g>
</g>
<!-- SteadyState&#45;&gt;PlanePoiseuilleFlow_v -->
<g id="edge18" class="edge"><title>SteadyState&#45;&gt;PlanePoiseuilleFlow_v</title>
<path fill="none" stroke="black" stroke-width="0.5" d="M217.112,-212.521C232.779,-210.627 250.062,-205.772 262,-194.5 305.279,-153.634 255.838,-107.517 298,-65.5 300.662,-62.8469 303.659,-60.5555 306.873,-58.5773"/>
<polygon fill="black" stroke="black" stroke-width="0.5" points="307.863,-60.0296 311.381,-56.0695 306.161,-56.971 307.863,-60.0296"/>
</g>
<!-- PoissonsEquation -->
<g id="node23" class="node"><title>PoissonsEquation</title>
<g id="a_node23"><a xlink:href="../api/proteus.AnalyticalSolutions.html#proteus.AnalyticalSolutions.PoissonsEquation" xlink:title="Manufactured solution of Poisson&#39;s equation" target="_top">
<polygon fill="none" stroke="black" stroke-width="0.5" points="418.5,-19 317.5,-19 317.5,-0 418.5,-0 418.5,-19"/>
<text text-anchor="middle" x="368" y="-7" font-family="Vera Sans, DejaVu Sans, Liberation Sans, Arial, Helvetica, sans" font-size="10.00">PoissonsEquation</text>
</a>
</g>
</g>
<!-- SteadyState&#45;&gt;PoissonsEquation -->
<g id="edge21" class="edge"><title>SteadyState&#45;&gt;PoissonsEquation</title>
<path fill="none" stroke="black" stroke-width="0.5" d="M217.017,-212.904C232.856,-211.11 250.301,-206.228 262,-194.5 315.622,-140.744 245.474,-82.3268 298,-27.5 302.148,-23.1699 307.197,-19.8339 312.657,-17.271"/>
<polygon fill="black" stroke="black" stroke-width="0.5" points="313.406,-18.8545 317.329,-15.2951 312.043,-15.6309 313.406,-18.8545"/>
</g>
<!-- NonlinearAD_SteadyState -->
<g id="node10" class="node"><title>NonlinearAD_SteadyState</title>
<g id="a_node10"><a xlink:href="../api/proteus.AnalyticalSolutions.html#proteus.AnalyticalSolutions.NonlinearAD_SteadyState" xlink:title="The solution of a steady nonlinear advection&#45;diffusion equation" target="_top">
<polygon fill="none" stroke="black" stroke-width="0.5" points="623.5,-352 481.5,-352 481.5,-333 623.5,-333 623.5,-352"/>
<text text-anchor="middle" x="552.5" y="-340" font-family="Vera Sans, DejaVu Sans, Liberation Sans, Arial, Helvetica, sans" font-size="10.00">NonlinearAD_SteadyState</text>
</a>
</g>
</g>
<!-- LinearAD_SteadyState&#45;&gt;NonlinearAD_SteadyState -->
<g id="edge8" class="edge"><title>LinearAD_SteadyState&#45;&gt;NonlinearAD_SteadyState</title>
<path fill="none" stroke="black" stroke-width="0.5" d="M415.998,-315.028C441.444,-320.187 472.948,-326.574 499.173,-331.891"/>
<polygon fill="black" stroke="black" stroke-width="0.5" points="499.096,-333.661 504.344,-332.94 499.792,-330.231 499.096,-333.661"/>
</g>
<!-- PlanePoiseuilleFlow_p2 -->
<g id="node17" class="node"><title>PlanePoiseuilleFlow_p2</title>
<g id="a_node17"><a xlink:href="../api/proteus.AnalyticalSolutions.html#proteus.AnalyticalSolutions.PlanePoiseuilleFlow_p2" xlink:title="The exact solution for the v component of &#160;velocity in plane Poiseuille Flow" target="_top">
<polygon fill="none" stroke="black" stroke-width="0.5" points="615,-315 490,-315 490,-296 615,-296 615,-315"/>
<text text-anchor="middle" x="552.5" y="-303" font-family="Vera Sans, DejaVu Sans, Liberation Sans, Arial, Helvetica, sans" font-size="10.00">PlanePoiseuilleFlow_p2</text>
</a>
</g>
</g>
<!-- PlaneBase&#45;&gt;PlanePoiseuilleFlow_p2 -->
<g id="edge15" class="edge"><title>PlaneBase&#45;&gt;PlanePoiseuilleFlow_p2</title>
<path fill="none" stroke="black" stroke-width="0.5" d="M401.627,-275.115C428.78,-280.62 467.941,-288.559 499.423,-294.942"/>
<polygon fill="black" stroke="black" stroke-width="0.5" points="499.159,-296.674 504.407,-295.952 499.855,-293.244 499.159,-296.674"/>
</g>
<!-- PlanePoiseuilleFlow_u2 -->
<g id="node19" class="node"><title>PlanePoiseuilleFlow_u2</title>
<g id="a_node19"><a xlink:href="../api/proteus.AnalyticalSolutions.html#proteus.AnalyticalSolutions.PlanePoiseuilleFlow_u2" xlink:title="The exact solution for the u component of &#160;velocity in plane Poiseuille Flow" target="_top">
<polygon fill="none" stroke="black" stroke-width="0.5" points="615,-278 490,-278 490,-259 615,-259 615,-278"/>
<text text-anchor="middle" x="552.5" y="-266" font-family="Vera Sans, DejaVu Sans, Liberation Sans, Arial, Helvetica, sans" font-size="10.00">PlanePoiseuilleFlow_u2</text>
</a>
</g>
</g>
<!-- PlaneBase&#45;&gt;PlanePoiseuilleFlow_u2 -->
<g id="edge17" class="edge"><title>PlaneBase&#45;&gt;PlanePoiseuilleFlow_u2</title>
<path fill="none" stroke="black" stroke-width="0.5" d="M401.627,-268.5C424.599,-268.5 456.166,-268.5 484.407,-268.5"/>
<polygon fill="black" stroke="black" stroke-width="0.5" points="484.638,-270.25 489.638,-268.5 484.638,-266.75 484.638,-270.25"/>
</g>
<!-- PlanePoiseuilleFlow_v2 -->
<g id="node21" class="node"><title>PlanePoiseuilleFlow_v2</title>
<g id="a_node21"><a xlink:href="../api/proteus.AnalyticalSolutions.html#proteus.AnalyticalSolutions.PlanePoiseuilleFlow_v2" xlink:title="The exact solution for the v component of &#160;velocity in plane Poiseuille Flow" target="_top">
<polygon fill="none" stroke="black" stroke-width="0.5" points="614.5,-241 490.5,-241 490.5,-222 614.5,-222 614.5,-241"/>
<text text-anchor="middle" x="552.5" y="-229" font-family="Vera Sans, DejaVu Sans, Liberation Sans, Arial, Helvetica, sans" font-size="10.00">PlanePoiseuilleFlow_v2</text>
</a>
</g>
</g>
<!-- PlaneBase&#45;&gt;PlanePoiseuilleFlow_v2 -->
<g id="edge19" class="edge"><title>PlaneBase&#45;&gt;PlanePoiseuilleFlow_v2</title>
<path fill="none" stroke="black" stroke-width="0.5" d="M401.627,-261.885C428.78,-256.38 467.941,-248.441 499.423,-242.058"/>
<polygon fill="black" stroke="black" stroke-width="0.5" points="499.855,-243.756 504.407,-241.048 499.159,-240.326 499.855,-243.756"/>
</g>
<!-- PlanePoiseuilleFlow_w2 -->
<g id="node22" class="node"><title>PlanePoiseuilleFlow_w2</title>
<g id="a_node22"><a xlink:href="../api/proteus.AnalyticalSolutions.html#proteus.AnalyticalSolutions.PlanePoiseuilleFlow_w2" xlink:title="The exact solution for the v component of &#160;velocity in plane Poiseuille Flow" target="_top">
<polygon fill="none" stroke="black" stroke-width="0.5" points="615,-204 490,-204 490,-185 615,-185 615,-204"/>
<text text-anchor="middle" x="552.5" y="-192" font-family="Vera Sans, DejaVu Sans, Liberation Sans, Arial, Helvetica, sans" font-size="10.00">PlanePoiseuilleFlow_w2</text>
</a>
</g>
</g>
<!-- PlaneBase&#45;&gt;PlanePoiseuilleFlow_w2 -->
<g id="edge20" class="edge"><title>PlaneBase&#45;&gt;PlanePoiseuilleFlow_w2</title>
<path fill="none" stroke="black" stroke-width="0.5" d="M401.67,-263.771C413.657,-261.082 426.98,-256.915 438,-250.5 457.829,-238.958 454.086,-224.896 474,-213.5 479.26,-210.49 484.986,-207.954 490.865,-205.817"/>
<polygon fill="black" stroke="black" stroke-width="0.5" points="491.669,-207.391 495.832,-204.115 490.535,-204.08 491.669,-207.391"/>
</g>
</g>
</svg>
