<?xml version="1.0" encoding="UTF-8" standalone="no"?>
<!DOCTYPE svg PUBLIC "-//W3C//DTD SVG 1.1//EN"
 "http://www.w3.org/Graphics/SVG/1.1/DTD/svg11.dtd">
<!-- Generated by graphviz version 2.40.1 (20161225.0304)
 -->
<!-- Title: inheritance478a470905 Pages: 1 -->
<svg width="576pt" height="622pt"
 viewBox="0.00 0.00 576.00 621.66" xmlns="http://www.w3.org/2000/svg" xmlns:xlink="http://www.w3.org/1999/xlink">
<g id="graph0" class="graph" transform="scale(.8011 .8011) rotate(0) translate(4 772)">
<title>inheritance478a470905</title>
<polygon fill="#ffffff" stroke="transparent" points="-4,4 -4,-772 715,-772 715,4 -4,4"/>
<!-- BlockedDofOrderType -->
<g id="node1" class="node">
<title>BlockedDofOrderType</title>
<g id="a_node1"><a xlink:href="../api/proteus.LinearSolvers.html#proteus.LinearSolvers.BlockedDofOrderType" xlink:title="Manages the DOF for blocked velocity and pressure ordering." target="_top">
<polygon fill="none" stroke="#000000" stroke-width=".5" points="353.5,-56 231.5,-56 231.5,-37 353.5,-37 353.5,-56"/>
<text text-anchor="middle" x="292.5" y="-44" font-family="Vera Sans, DejaVu Sans, Liberation Sans, Arial, Helvetica, sans" font-size="10.00" fill="#000000">BlockedDofOrderType</text>
</a>
</g>
</g>
<!-- DofOrderInfo -->
<g id="node2" class="node">
<title>DofOrderInfo</title>
<g id="a_node2"><a xlink:href="../api/proteus.LinearSolvers.html#proteus.LinearSolvers.DofOrderInfo" xlink:title="Base class for managing DOF ordering information" target="_top">
<polygon fill="none" stroke="#000000" stroke-width=".5" points="127,-37 47,-37 47,-18 127,-18 127,-37"/>
<text text-anchor="middle" x="87" y="-25" font-family="Vera Sans, DejaVu Sans, Liberation Sans, Arial, Helvetica, sans" font-size="10.00" fill="#000000">DofOrderInfo</text>
</a>
</g>
</g>
<!-- DofOrderInfo&#45;&gt;BlockedDofOrderType -->
<g id="edge1" class="edge">
<title>DofOrderInfo&#45;&gt;BlockedDofOrderType</title>
<path fill="none" stroke="#000000" stroke-width=".5" d="M127.1103,-31.2085C155.2722,-33.8123 193.586,-37.3547 226.2458,-40.3743"/>
<polygon fill="#000000" stroke="#000000" stroke-width=".5" points="226.2966,-42.1364 231.4365,-40.8542 226.6189,-38.6512 226.2966,-42.1364"/>
</g>
<!-- InterlacedDofOrderType -->
<g id="node6" class="node">
<title>InterlacedDofOrderType</title>
<g id="a_node6"><a xlink:href="../api/proteus.LinearSolvers.html#proteus.LinearSolvers.InterlacedDofOrderType" xlink:title="Manages the DOF for interlaced velocity and pressure ordering." target="_top">
<polygon fill="none" stroke="#000000" stroke-width=".5" points="358.5,-19 226.5,-19 226.5,0 358.5,0 358.5,-19"/>
<text text-anchor="middle" x="292.5" y="-7" font-family="Vera Sans, DejaVu Sans, Liberation Sans, Arial, Helvetica, sans" font-size="10.00" fill="#000000">InterlacedDofOrderType</text>
</a>
</g>
</g>
<!-- DofOrderInfo&#45;&gt;InterlacedDofOrderType -->
<g id="edge4" class="edge">
<title>DofOrderInfo&#45;&gt;InterlacedDofOrderType</title>
<path fill="none" stroke="#000000" stroke-width=".5" d="M127.1103,-23.9867C153.8309,-21.6462 189.6907,-18.5052 221.1888,-15.7462"/>
<polygon fill="#000000" stroke="#000000" stroke-width=".5" points="221.3763,-17.4866 226.2045,-15.3069 221.0709,-14 221.3763,-17.4866"/>
</g>
<!-- ChebyshevSemiIteration -->
<g id="node3" class="node">
<title>ChebyshevSemiIteration</title>
<g id="a_node3"><a xlink:href="../api/proteus.LinearSolvers.html#proteus.LinearSolvers.ChebyshevSemiIteration" xlink:title="Class for implementing the ChebyshevSemiIteration." target="_top">
<polygon fill="none" stroke="#000000" stroke-width=".5" points="361,-389 224,-389 224,-370 361,-370 361,-389"/>
<text text-anchor="middle" x="292.5" y="-377" font-family="Vera Sans, DejaVu Sans, Liberation Sans, Arial, Helvetica, sans" font-size="10.00" fill="#000000">ChebyshevSemiIteration</text>
</a>
</g>
</g>
<!-- LinearSolver -->
<g id="node4" class="node">
<title>LinearSolver</title>
<g id="a_node4"><a xlink:href="../api/proteus.LinearSolvers.html#proteus.LinearSolvers.LinearSolver" xlink:title="The base class for linear solvers." target="_top">
<polygon fill="none" stroke="#000000" stroke-width=".5" points="125.5,-241 48.5,-241 48.5,-222 125.5,-222 125.5,-241"/>
<text text-anchor="middle" x="87" y="-229" font-family="Vera Sans, DejaVu Sans, Liberation Sans, Arial, Helvetica, sans" font-size="10.00" fill="#000000">LinearSolver</text>
</a>
</g>
</g>
<!-- LinearSolver&#45;&gt;ChebyshevSemiIteration -->
<g id="edge2" class="edge">
<title>LinearSolver&#45;&gt;ChebyshevSemiIteration</title>
<path fill="none" stroke="#000000" stroke-width=".5" d="M93.1369,-241.081C109.1638,-265.2685 154.8786,-329.1019 210,-360.5 215.2881,-363.5122 221.0238,-366.047 226.9241,-368.1802"/>
<polygon fill="#000000" stroke="#000000" stroke-width=".5" points="226.6155,-369.9237 231.9128,-369.8791 227.7439,-366.6106 226.6155,-369.9237"/>
</g>
<!-- GaussSeidel -->
<g id="node5" class="node">
<title>GaussSeidel</title>
<g id="a_node5"><a xlink:href="../api/proteus.LinearSolvers.html#proteus.LinearSolvers.GaussSeidel" xlink:title="Damped Gauss&#45;Seidel." target="_top">
<polygon fill="none" stroke="#000000" stroke-width=".5" points="331,-352 254,-352 254,-333 331,-333 331,-352"/>
<text text-anchor="middle" x="292.5" y="-340" font-family="Vera Sans, DejaVu Sans, Liberation Sans, Arial, Helvetica, sans" font-size="10.00" fill="#000000">GaussSeidel</text>
</a>
</g>
</g>
<!-- LinearSolver&#45;&gt;GaussSeidel -->
<g id="edge3" class="edge">
<title>LinearSolver&#45;&gt;GaussSeidel</title>
<path fill="none" stroke="#000000" stroke-width=".5" d="M96.8909,-241.2447C116.6313,-260.1228 163.0688,-301.7329 210,-323.5 222.0064,-329.0687 235.7737,-333.0706 248.5777,-335.919"/>
<polygon fill="#000000" stroke="#000000" stroke-width=".5" points="248.3643,-337.6628 253.6193,-336.9933 249.0938,-334.2396 248.3643,-337.6628"/>
</g>
<!-- Jacobi -->
<g id="node7" class="node">
<title>Jacobi</title>
<g id="a_node7"><a xlink:href="../api/proteus.LinearSolvers.html#proteus.LinearSolvers.Jacobi" xlink:title="Damped Jacobi iteration." target="_top">
<polygon fill="none" stroke="#000000" stroke-width=".5" points="319.5,-315 265.5,-315 265.5,-296 319.5,-296 319.5,-315"/>
<text text-anchor="middle" x="292.5" y="-303" font-family="Vera Sans, DejaVu Sans, Liberation Sans, Arial, Helvetica, sans" font-size="10.00" fill="#000000">Jacobi</text>
</a>
</g>
</g>
<!-- LinearSolver&#45;&gt;Jacobi -->
<g id="edge5" class="edge">
<title>LinearSolver&#45;&gt;Jacobi</title>
<path fill="none" stroke="#000000" stroke-width=".5" d="M105.3045,-241.0397C128.948,-253.0429 171.6303,-273.6389 210,-286.5 226.2766,-291.9558 244.8738,-296.3882 260.2861,-299.5954"/>
<polygon fill="#000000" stroke="#000000" stroke-width=".5" points="260.1338,-301.3503 265.3829,-300.6358 260.8339,-297.921 260.1338,-301.3503"/>
</g>
<!-- KSP_petsc4py -->
<g id="node9" class="node">
<title>KSP_petsc4py</title>
<g id="a_node9"><a xlink:href="../api/proteus.LinearSolvers.html#proteus.LinearSolvers.KSP_petsc4py" xlink:title="A class that interfaces Proteus with PETSc KSP." target="_top">
<polygon fill="none" stroke="#000000" stroke-width=".5" points="335,-278 250,-278 250,-259 335,-259 335,-278"/>
<text text-anchor="middle" x="292.5" y="-266" font-family="Vera Sans, DejaVu Sans, Liberation Sans, Arial, Helvetica, sans" font-size="10.00" fill="#000000">KSP_petsc4py</text>
</a>
</g>
</g>
<!-- LinearSolver&#45;&gt;KSP_petsc4py -->
<g id="edge6" class="edge">
<title>LinearSolver&#45;&gt;KSP_petsc4py</title>
<path fill="none" stroke="#000000" stroke-width=".5" d="M125.653,-238.4594C159.3411,-244.5249 208.3348,-253.3462 244.5215,-259.8615"/>
<polygon fill="#000000" stroke="#000000" stroke-width=".5" points="244.5333,-261.6417 249.7643,-260.8055 245.1535,-258.1971 244.5333,-261.6417"/>
</g>
<!-- LU -->
<g id="node10" class="node">
<title>LU</title>
<g id="a_node10"><a xlink:href="../api/proteus.LinearSolvers.html#proteus.LinearSolvers.LU" xlink:title="A wrapper for pysparse&#39;s wrapper for superlu." target="_top">
<polygon fill="none" stroke="#000000" stroke-width=".5" points="319.5,-241 265.5,-241 265.5,-222 319.5,-222 319.5,-241"/>
<text text-anchor="middle" x="292.5" y="-229" font-family="Vera Sans, DejaVu Sans, Liberation Sans, Arial, Helvetica, sans" font-size="10.00" fill="#000000">LU</text>
</a>
</g>
</g>
<!-- LinearSolver&#45;&gt;LU -->
<g id="edge7" class="edge">
<title>LinearSolver&#45;&gt;LU</title>
<path fill="none" stroke="#000000" stroke-width=".5" d="M125.653,-231.5C164.5495,-231.5 223.85,-231.5 260.2833,-231.5"/>
<polygon fill="#000000" stroke="#000000" stroke-width=".5" points="260.4876,-233.2501 265.4876,-231.5 260.4876,-229.7501 260.4876,-233.2501"/>
</g>
<!-- PETSc -->
<g id="node24" class="node">
<title>PETSc</title>
<g id="a_node24"><a xlink:href="../api/proteus.LinearSolvers.html#proteus.LinearSolvers.PETSc" xlink:title="PETSc" target="_top">
<polygon fill="none" stroke="#000000" stroke-width=".5" points="319.5,-204 265.5,-204 265.5,-185 319.5,-185 319.5,-204"/>
<text text-anchor="middle" x="292.5" y="-192" font-family="Vera Sans, DejaVu Sans, Liberation Sans, Arial, Helvetica, sans" font-size="10.00" fill="#000000">PETSc</text>
</a>
</g>
</g>
<!-- LinearSolver&#45;&gt;PETSc -->
<g id="edge16" class="edge">
<title>LinearSolver&#45;&gt;PETSc</title>
<path fill="none" stroke="#000000" stroke-width=".5" d="M125.653,-224.5406C164.5495,-217.5373 223.85,-206.8603 260.2833,-200.3006"/>
<polygon fill="#000000" stroke="#000000" stroke-width=".5" points="260.8768,-201.9719 265.4876,-199.3635 260.2566,-198.5273 260.8768,-201.9719"/>
</g>
<!-- StarBILU -->
<g id="node30" class="node">
<title>StarBILU</title>
<g id="a_node30"><a xlink:href="../api/proteus.LinearSolvers.html#proteus.LinearSolvers.StarBILU" xlink:title="Alternating Schwarz Method on &#39;blocks&#39; consisting of consectutive rows in system for things like dg ..." target="_top">
<polygon fill="none" stroke="#000000" stroke-width=".5" points="321.5,-167 263.5,-167 263.5,-148 321.5,-148 321.5,-167"/>
<text text-anchor="middle" x="292.5" y="-155" font-family="Vera Sans, DejaVu Sans, Liberation Sans, Arial, Helvetica, sans" font-size="10.00" fill="#000000">StarBILU</text>
</a>
</g>
</g>
<!-- LinearSolver&#45;&gt;StarBILU -->
<g id="edge21" class="edge">
<title>LinearSolver&#45;&gt;StarBILU</title>
<path fill="none" stroke="#000000" stroke-width=".5" d="M104.8506,-221.9091C128.3591,-209.6233 171.2598,-188.3823 210,-175.5 225.6226,-170.305 243.4153,-166.2039 258.4675,-163.2367"/>
<polygon fill="#000000" stroke="#000000" stroke-width=".5" points="258.8819,-164.9392 263.46,-162.274 258.2191,-161.5025 258.8819,-164.9392"/>
</g>
<!-- StarILU -->
<g id="node31" class="node">
<title>StarILU</title>
<g id="a_node31"><a xlink:href="../api/proteus.LinearSolvers.html#proteus.LinearSolvers.StarILU" xlink:title="Alternating Schwarz Method on node stars." target="_top">
<polygon fill="none" stroke="#000000" stroke-width=".5" points="319.5,-130 265.5,-130 265.5,-111 319.5,-111 319.5,-130"/>
<text text-anchor="middle" x="292.5" y="-118" font-family="Vera Sans, DejaVu Sans, Liberation Sans, Arial, Helvetica, sans" font-size="10.00" fill="#000000">StarILU</text>
</a>
</g>
</g>
<!-- LinearSolver&#45;&gt;StarILU -->
<g id="edge22" class="edge">
<title>LinearSolver&#45;&gt;StarILU</title>
<path fill="none" stroke="#000000" stroke-width=".5" d="M96.5444,-221.8911C116.0315,-202.856 162.5728,-160.3145 210,-138.5 225.6753,-131.29 244.3751,-126.905 260.0051,-124.2713"/>
<polygon fill="#000000" stroke="#000000" stroke-width=".5" points="260.5184,-125.9615 265.1792,-123.4437 259.9656,-122.5054 260.5184,-125.9615"/>
</g>
<!-- TwoLevel -->
<g id="node33" class="node">
<title>TwoLevel</title>
<g id="a_node33"><a xlink:href="../api/proteus.LinearSolvers.html#proteus.LinearSolvers.TwoLevel" xlink:title="A generic two&#45;level multiplicative Schwarz solver." target="_top">
<polygon fill="none" stroke="#000000" stroke-width=".5" points="323.5,-93 261.5,-93 261.5,-74 323.5,-74 323.5,-93"/>
<text text-anchor="middle" x="292.5" y="-81" font-family="Vera Sans, DejaVu Sans, Liberation Sans, Arial, Helvetica, sans" font-size="10.00" fill="#000000">TwoLevel</text>
</a>
</g>
</g>
<!-- LinearSolver&#45;&gt;TwoLevel -->
<g id="edge23" class="edge">
<title>LinearSolver&#45;&gt;TwoLevel</title>
<path fill="none" stroke="#000000" stroke-width=".5" d="M93.0958,-221.8056C109.0263,-197.3388 154.5337,-132.8129 210,-101.5 223.9928,-93.6005 241.1273,-89.1658 256.148,-86.6769"/>
<polygon fill="#000000" stroke="#000000" stroke-width=".5" points="256.4784,-88.3968 261.1534,-85.9053 255.9451,-84.9376 256.4784,-88.3968"/>
</g>
<!-- KSP_Preconditioner -->
<g id="node8" class="node">
<title>KSP_Preconditioner</title>
<g id="a_node8"><a xlink:href="../api/proteus.LinearSolvers.html#proteus.LinearSolvers.KSP_Preconditioner" xlink:title="Base class for PETSCc KSP precondtioners." target="_top">
<polygon fill="none" stroke="#000000" stroke-width=".5" points="142.5,-463 31.5,-463 31.5,-444 142.5,-444 142.5,-463"/>
<text text-anchor="middle" x="87" y="-451" font-family="Vera Sans, DejaVu Sans, Liberation Sans, Arial, Helvetica, sans" font-size="10.00" fill="#000000">KSP_Preconditioner</text>
</a>
</g>
</g>
<!-- SchurPrecon -->
<g id="node19" class="node">
<title>SchurPrecon</title>
<g id="a_node19"><a xlink:href="../api/proteus.LinearSolvers.html#proteus.LinearSolvers.SchurPrecon" xlink:title="Base class for PETSc Schur complement preconditioners." target="_top">
<polygon fill="none" stroke="#000000" stroke-width=".5" points="331,-500 254,-500 254,-481 331,-481 331,-500"/>
<text text-anchor="middle" x="292.5" y="-488" font-family="Vera Sans, DejaVu Sans, Liberation Sans, Arial, Helvetica, sans" font-size="10.00" fill="#000000">SchurPrecon</text>
</a>
</g>
</g>
<!-- KSP_Preconditioner&#45;&gt;SchurPrecon -->
<g id="edge17" class="edge">
<title>KSP_Preconditioner&#45;&gt;SchurPrecon</title>
<path fill="none" stroke="#000000" stroke-width=".5" d="M139.9214,-463.0284C173.6734,-469.1054 216.8905,-476.8866 248.7077,-482.6153"/>
<polygon fill="#000000" stroke="#000000" stroke-width=".5" points="248.4821,-484.3527 253.7131,-483.5165 249.1023,-480.9081 248.4821,-484.3527"/>
</g>
<!-- petsc_ASM -->
<g id="node34" class="node">
<title>petsc_ASM</title>
<g id="a_node34"><a xlink:href="../api/proteus.LinearSolvers.html#proteus.LinearSolvers.petsc_ASM" xlink:title="ASM PETSc preconditioner class." target="_top">
<polygon fill="none" stroke="#000000" stroke-width=".5" points="327,-463 258,-463 258,-444 327,-444 327,-463"/>
<text text-anchor="middle" x="292.5" y="-451" font-family="Vera Sans, DejaVu Sans, Liberation Sans, Arial, Helvetica, sans" font-size="10.00" fill="#000000">petsc_ASM</text>
</a>
</g>
</g>
<!-- KSP_Preconditioner&#45;&gt;petsc_ASM -->
<g id="edge24" class="edge">
<title>KSP_Preconditioner&#45;&gt;petsc_ASM</title>
<path fill="none" stroke="#000000" stroke-width=".5" d="M142.6113,-453.5C177.3324,-453.5 221.2221,-453.5 252.5178,-453.5"/>
<polygon fill="#000000" stroke="#000000" stroke-width=".5" points="252.8186,-455.2501 257.8186,-453.5 252.8186,-451.7501 252.8186,-455.2501"/>
</g>
<!-- petsc_LU -->
<g id="node35" class="node">
<title>petsc_LU</title>
<g id="a_node35"><a xlink:href="../api/proteus.LinearSolvers.html#proteus.LinearSolvers.petsc_LU" xlink:title="LU PETSc preconditioner class." target="_top">
<polygon fill="none" stroke="#000000" stroke-width=".5" points="322.5,-426 262.5,-426 262.5,-407 322.5,-407 322.5,-426"/>
<text text-anchor="middle" x="292.5" y="-414" font-family="Vera Sans, DejaVu Sans, Liberation Sans, Arial, Helvetica, sans" font-size="10.00" fill="#000000">petsc_LU</text>
</a>
</g>
</g>
<!-- KSP_Preconditioner&#45;&gt;petsc_LU -->
<g id="edge25" class="edge">
<title>KSP_Preconditioner&#45;&gt;petsc_LU</title>
<path fill="none" stroke="#000000" stroke-width=".5" d="M139.9214,-443.9716C176.8342,-437.3255 225.0676,-428.6411 257.3293,-422.8324"/>
<polygon fill="#000000" stroke="#000000" stroke-width=".5" points="257.755,-424.534 262.3657,-421.9256 257.1347,-421.0894 257.755,-424.534"/>
</g>
<!-- MGM -->
<g id="node11" class="node">
<title>MGM</title>
<g id="a_node11"><a xlink:href="../api/proteus.LinearSolvers.html#proteus.LinearSolvers.MGM" xlink:title="A generic multigrid W cycle." target="_top">
<polygon fill="none" stroke="#000000" stroke-width=".5" points="319.5,-574 265.5,-574 265.5,-555 319.5,-555 319.5,-574"/>
<text text-anchor="middle" x="292.5" y="-562" font-family="Vera Sans, DejaVu Sans, Liberation Sans, Arial, Helvetica, sans" font-size="10.00" fill="#000000">MGM</text>
</a>
</g>
</g>
<!-- MultilevelLinearSolver -->
<g id="node12" class="node">
<title>MultilevelLinearSolver</title>
<g id="a_node12"><a xlink:href="../api/proteus.LinearSolvers.html#proteus.LinearSolvers.MultilevelLinearSolver" xlink:title="A generic multilevel solver." target="_top">
<polygon fill="none" stroke="#000000" stroke-width=".5" points="149.5,-546 24.5,-546 24.5,-527 149.5,-527 149.5,-546"/>
<text text-anchor="middle" x="87" y="-534" font-family="Vera Sans, DejaVu Sans, Liberation Sans, Arial, Helvetica, sans" font-size="10.00" fill="#000000">MultilevelLinearSolver</text>
</a>
</g>
</g>
<!-- MultilevelLinearSolver&#45;&gt;MGM -->
<g id="edge8" class="edge">
<title>MultilevelLinearSolver&#45;&gt;MGM</title>
<path fill="none" stroke="#000000" stroke-width=".5" d="M149.7734,-545.0531C186.3715,-550.0397 230.9863,-556.1186 260.486,-560.138"/>
<polygon fill="#000000" stroke="#000000" stroke-width=".5" points="260.2591,-561.8732 265.4496,-560.8143 260.7317,-558.4052 260.2591,-561.8732"/>
</g>
<!-- NI -->
<g id="node14" class="node">
<title>NI</title>
<g id="a_node14"><a xlink:href="../api/proteus.LinearSolvers.html#proteus.LinearSolvers.NI" xlink:title="A generic nested iteration solver." target="_top">
<polygon fill="none" stroke="#000000" stroke-width=".5" points="319.5,-537 265.5,-537 265.5,-518 319.5,-518 319.5,-537"/>
<text text-anchor="middle" x="292.5" y="-525" font-family="Vera Sans, DejaVu Sans, Liberation Sans, Arial, Helvetica, sans" font-size="10.00" fill="#000000">NI</text>
</a>
</g>
</g>
<!-- MultilevelLinearSolver&#45;&gt;NI -->
<g id="edge9" class="edge">
<title>MultilevelLinearSolver&#45;&gt;NI</title>
<path fill="none" stroke="#000000" stroke-width=".5" d="M149.7734,-533.7508C186.2203,-532.1546 230.6177,-530.2102 260.1196,-528.9181"/>
<polygon fill="#000000" stroke="#000000" stroke-width=".5" points="260.531,-530.6519 265.4496,-528.6847 260.3778,-527.1552 260.531,-530.6519"/>
</g>
<!-- ModelInfo -->
<g id="node13" class="node">
<title>ModelInfo</title>
<g id="a_node13"><a xlink:href="../api/proteus.LinearSolvers.html#proteus.LinearSolvers.ModelInfo" xlink:title="This class stores the model information needed to initialize a" target="_top">
<polygon fill="none" stroke="#000000" stroke-width=".5" points="119.5,-583 54.5,-583 54.5,-564 119.5,-564 119.5,-583"/>
<text text-anchor="middle" x="87" y="-571" font-family="Vera Sans, DejaVu Sans, Liberation Sans, Arial, Helvetica, sans" font-size="10.00" fill="#000000">ModelInfo</text>
</a>
</g>
</g>
<!-- NavierStokes2D -->
<g id="node15" class="node">
<title>NavierStokes2D</title>
<g id="a_node15"><a xlink:href="../api/proteus.LinearSolvers.html#proteus.LinearSolvers.NavierStokes2D" xlink:title="NavierStokes2D" target="_top">
<polygon fill="none" stroke="#000000" stroke-width=".5" points="681,-592 586,-592 586,-573 681,-573 681,-592"/>
<text text-anchor="middle" x="633.5" y="-580" font-family="Vera Sans, DejaVu Sans, Liberation Sans, Arial, Helvetica, sans" font-size="10.00" fill="#000000">NavierStokes2D</text>
</a>
</g>
</g>
<!-- NavierStokesSchur -->
<g id="node16" class="node">
<title>NavierStokesSchur</title>
<g id="a_node16"><a xlink:href="../api/proteus.LinearSolvers.html#proteus.LinearSolvers.NavierStokesSchur" xlink:title="Schur complement preconditioners for Navier&#45;Stokes problems." target="_top">
<polygon fill="none" stroke="#000000" stroke-width=".5" points="520,-555 411,-555 411,-536 520,-536 520,-555"/>
<text text-anchor="middle" x="465.5" y="-543" font-family="Vera Sans, DejaVu Sans, Liberation Sans, Arial, Helvetica, sans" font-size="10.00" fill="#000000">NavierStokesSchur</text>
</a>
</g>
</g>
<!-- NavierStokesSchur&#45;&gt;NavierStokes2D -->
<g id="edge10" class="edge">
<title>NavierStokesSchur&#45;&gt;NavierStokes2D</title>
<path fill="none" stroke="#000000" stroke-width=".5" d="M508.7642,-555.0284C532.0908,-560.1658 560.9474,-566.5211 585.0283,-571.8247"/>
<polygon fill="#000000" stroke="#000000" stroke-width=".5" points="584.8314,-573.5732 590.0908,-572.9396 585.5842,-570.1551 584.8314,-573.5732"/>
</g>
<!-- NavierStokes3D -->
<g id="node17" class="node">
<title>NavierStokes3D</title>
<g id="a_node17"><a xlink:href="../api/proteus.LinearSolvers.html#proteus.LinearSolvers.NavierStokes3D" xlink:title="NavierStokes3D" target="_top">
<polygon fill="none" stroke="#000000" stroke-width=".5" points="681,-555 586,-555 586,-536 681,-536 681,-555"/>
<text text-anchor="middle" x="633.5" y="-543" font-family="Vera Sans, DejaVu Sans, Liberation Sans, Arial, Helvetica, sans" font-size="10.00" fill="#000000">NavierStokes3D</text>
</a>
</g>
</g>
<!-- NavierStokesSchur&#45;&gt;NavierStokes3D -->
<g id="edge11" class="edge">
<title>NavierStokesSchur&#45;&gt;NavierStokes3D</title>
<path fill="none" stroke="#000000" stroke-width=".5" d="M520.0448,-545.5C539.3992,-545.5 561.1424,-545.5 580.3766,-545.5"/>
<polygon fill="#000000" stroke="#000000" stroke-width=".5" points="580.7311,-547.2501 585.731,-545.5 580.731,-543.7501 580.7311,-547.2501"/>
</g>
<!-- NavierStokes_TwoPhasePCD -->
<g id="node20" class="node">
<title>NavierStokes_TwoPhasePCD</title>
<g id="a_node20"><a xlink:href="../api/proteus.LinearSolvers.html#proteus.LinearSolvers.NavierStokes_TwoPhasePCD" xlink:title="Two&#45;phase PCD Schur complement approximation class." target="_top">
<polygon fill="none" stroke="#000000" stroke-width=".5" points="711,-518 556,-518 556,-499 711,-499 711,-518"/>
<text text-anchor="middle" x="633.5" y="-506" font-family="Vera Sans, DejaVu Sans, Liberation Sans, Arial, Helvetica, sans" font-size="10.00" fill="#000000">NavierStokes_TwoPhasePCD</text>
</a>
</g>
</g>
<!-- NavierStokesSchur&#45;&gt;NavierStokes_TwoPhasePCD -->
<g id="edge13" class="edge">
<title>NavierStokesSchur&#45;&gt;NavierStokes_TwoPhasePCD</title>
<path fill="none" stroke="#000000" stroke-width=".5" d="M508.7642,-535.9716C532.0908,-530.8342 560.9474,-524.4789 585.0283,-519.1753"/>
<polygon fill="#000000" stroke="#000000" stroke-width=".5" points="585.5842,-520.8449 590.0908,-518.0604 584.8314,-517.4268 585.5842,-520.8449"/>
</g>
<!-- NavierStokesPressureCorrection -->
<g id="node18" class="node">
<title>NavierStokesPressureCorrection</title>
<g id="a_node18"><a xlink:href="../api/proteus.LinearSolvers.html#proteus.LinearSolvers.NavierStokesPressureCorrection" xlink:title="NavierStokesPressureCorrection" target="_top">
<polygon fill="none" stroke="#000000" stroke-width=".5" points="174,-620 0,-620 0,-601 174,-601 174,-620"/>
<text text-anchor="middle" x="87" y="-608" font-family="Vera Sans, DejaVu Sans, Liberation Sans, Arial, Helvetica, sans" font-size="10.00" fill="#000000">NavierStokesPressureCorrection</text>
</a>
</g>
</g>
<!-- SchurPrecon&#45;&gt;NavierStokesSchur -->
<g id="edge12" class="edge">
<title>SchurPrecon&#45;&gt;NavierStokesSchur</title>
<path fill="none" stroke="#000000" stroke-width=".5" d="M331.2524,-496.8868C345.2506,-499.7319 361.0373,-503.573 375,-508.5 391.8691,-514.4526 394.5204,-519.5413 411,-526.5 417.3262,-529.1713 424.171,-531.774 430.8034,-534.1534"/>
<polygon fill="#000000" stroke="#000000" stroke-width=".5" points="430.5243,-535.9107 435.8217,-535.9268 431.6905,-532.6107 430.5243,-535.9107"/>
</g>
<!-- Schur_LSC -->
<g id="node26" class="node">
<title>Schur_LSC</title>
<g id="a_node26"><a xlink:href="../api/proteus.LinearSolvers.html#proteus.LinearSolvers.Schur_LSC" xlink:title="The Least&#45;Squares Communtator preconditioner for saddle" target="_top">
<polygon fill="none" stroke="#000000" stroke-width=".5" points="499,-518 432,-518 432,-499 499,-499 499,-518"/>
<text text-anchor="middle" x="465.5" y="-506" font-family="Vera Sans, DejaVu Sans, Liberation Sans, Arial, Helvetica, sans" font-size="10.00" fill="#000000">Schur_LSC</text>
</a>
</g>
</g>
<!-- SchurPrecon&#45;&gt;Schur_LSC -->
<g id="edge18" class="edge">
<title>SchurPrecon&#45;&gt;Schur_LSC</title>
<path fill="none" stroke="#000000" stroke-width=".5" d="M331.3246,-494.5396C359.7412,-497.4962 398.1407,-501.4915 426.5797,-504.4505"/>
<polygon fill="#000000" stroke="#000000" stroke-width=".5" points="426.615,-506.2135 431.7693,-504.9905 426.9773,-502.7323 426.615,-506.2135"/>
</g>
<!-- Schur_Qp -->
<g id="node27" class="node">
<title>Schur_Qp</title>
<g id="a_node27"><a xlink:href="../api/proteus.LinearSolvers.html#proteus.LinearSolvers.Schur_Qp" xlink:title="A Navier&#45;Stokes (or Stokes) preconditioner which uses the" target="_top">
<polygon fill="none" stroke="#000000" stroke-width=".5" points="496.5,-481 434.5,-481 434.5,-462 496.5,-462 496.5,-481"/>
<text text-anchor="middle" x="465.5" y="-469" font-family="Vera Sans, DejaVu Sans, Liberation Sans, Arial, Helvetica, sans" font-size="10.00" fill="#000000">Schur_Qp</text>
</a>
</g>
</g>
<!-- SchurPrecon&#45;&gt;Schur_Qp -->
<g id="edge19" class="edge">
<title>SchurPrecon&#45;&gt;Schur_Qp</title>
<path fill="none" stroke="#000000" stroke-width=".5" d="M331.3246,-486.236C360.5852,-483.0224 400.4307,-478.6463 429.087,-475.4991"/>
<polygon fill="#000000" stroke="#000000" stroke-width=".5" points="429.5234,-477.2118 434.3025,-474.9263 429.1413,-473.7327 429.5234,-477.2118"/>
</g>
<!-- Schur_Sp -->
<g id="node28" class="node">
<title>Schur_Sp</title>
<g id="a_node28"><a xlink:href="../api/proteus.LinearSolvers.html#proteus.LinearSolvers.Schur_Sp" xlink:title="Implements the SIMPLE Schur complement approximation proposed" target="_top">
<polygon fill="none" stroke="#000000" stroke-width=".5" points="496,-444 435,-444 435,-425 496,-425 496,-444"/>
<text text-anchor="middle" x="465.5" y="-432" font-family="Vera Sans, DejaVu Sans, Liberation Sans, Arial, Helvetica, sans" font-size="10.00" fill="#000000">Schur_Sp</text>
</a>
</g>
</g>
<!-- SchurPrecon&#45;&gt;Schur_Sp -->
<g id="edge20" class="edge">
<title>SchurPrecon&#45;&gt;Schur_Sp</title>
<path fill="none" stroke="#000000" stroke-width=".5" d="M331.3058,-483.7286C345.3094,-480.7225 361.0859,-476.6737 375,-471.5 391.9574,-465.1947 394.3528,-459.5837 411,-452.5 417.0644,-449.9195 423.6331,-447.4709 430.0407,-445.2583"/>
<polygon fill="#000000" stroke="#000000" stroke-width=".5" points="430.7233,-446.8748 434.8982,-443.614 429.6011,-443.5596 430.7233,-446.8748"/>
</g>
<!-- OperatorConstructor -->
<g id="node21" class="node">
<title>OperatorConstructor</title>
<g id="a_node21"><a xlink:href="../api/proteus.LinearSolvers.html#proteus.LinearSolvers.OperatorConstructor" xlink:title="Base class for operator constructors." target="_top">
<polygon fill="none" stroke="#000000" stroke-width=".5" points="145,-657 29,-657 29,-638 145,-638 145,-657"/>
<text text-anchor="middle" x="87" y="-645" font-family="Vera Sans, DejaVu Sans, Liberation Sans, Arial, Helvetica, sans" font-size="10.00" fill="#000000">OperatorConstructor</text>
</a>
</g>
</g>
<!-- OperatorConstructor_oneLevel -->
<g id="node22" class="node">
<title>OperatorConstructor_oneLevel</title>
<g id="a_node22"><a xlink:href="../api/proteus.LinearSolvers.html#proteus.LinearSolvers.OperatorConstructor_oneLevel" xlink:title="A class for building common discrete operators from one&#45;level" target="_top">
<polygon fill="none" stroke="#000000" stroke-width=".5" points="375,-666 210,-666 210,-647 375,-647 375,-666"/>
<text text-anchor="middle" x="292.5" y="-654" font-family="Vera Sans, DejaVu Sans, Liberation Sans, Arial, Helvetica, sans" font-size="10.00" fill="#000000">OperatorConstructor_oneLevel</text>
</a>
</g>
</g>
<!-- OperatorConstructor&#45;&gt;OperatorConstructor_oneLevel -->
<g id="edge14" class="edge">
<title>OperatorConstructor&#45;&gt;OperatorConstructor_oneLevel</title>
<path fill="none" stroke="#000000" stroke-width=".5" d="M145.064,-650.043C163.5554,-650.8528 184.4448,-651.7677 204.5606,-652.6486"/>
<polygon fill="#000000" stroke="#000000" stroke-width=".5" points="204.5844,-654.4013 209.6562,-652.8718 204.7376,-650.9046 204.5844,-654.4013"/>
</g>
<!-- OperatorConstructor_rans2p -->
<g id="node23" class="node">
<title>OperatorConstructor_rans2p</title>
<g id="a_node23"><a xlink:href="../api/proteus.LinearSolvers.html#proteus.LinearSolvers.OperatorConstructor_rans2p" xlink:title="A class for building common discrete rans2p operators." target="_top">
<polygon fill="none" stroke="#000000" stroke-width=".5" points="369.5,-629 215.5,-629 215.5,-610 369.5,-610 369.5,-629"/>
<text text-anchor="middle" x="292.5" y="-617" font-family="Vera Sans, DejaVu Sans, Liberation Sans, Arial, Helvetica, sans" font-size="10.00" fill="#000000">OperatorConstructor_rans2p</text>
</a>
</g>
</g>
<!-- OperatorConstructor&#45;&gt;OperatorConstructor_rans2p -->
<g id="edge15" class="edge">
<title>OperatorConstructor&#45;&gt;OperatorConstructor_rans2p</title>
<path fill="none" stroke="#000000" stroke-width=".5" d="M145.064,-639.5886C167.5579,-636.5237 193.6002,-632.9754 217.4821,-629.7214"/>
<polygon fill="#000000" stroke="#000000" stroke-width=".5" points="217.8254,-631.4409 222.5434,-629.0318 217.3529,-627.9729 217.8254,-631.4409"/>
</g>
<!-- SchurOperatorConstructor -->
<g id="node25" class="node">
<title>SchurOperatorConstructor</title>
<g id="a_node25"><a xlink:href="../api/proteus.LinearSolvers.html#proteus.LinearSolvers.SchurOperatorConstructor" xlink:title="Generate matrices for use in Schur complement preconditioner operators." target="_top">
<polygon fill="none" stroke="#000000" stroke-width=".5" points="158.5,-694 15.5,-694 15.5,-675 158.5,-675 158.5,-694"/>
<text text-anchor="middle" x="87" y="-682" font-family="Vera Sans, DejaVu Sans, Liberation Sans, Arial, Helvetica, sans" font-size="10.00" fill="#000000">SchurOperatorConstructor</text>
</a>
</g>
</g>
<!-- SimpleDarcyFC -->
<g id="node29" class="node">
<title>SimpleDarcyFC</title>
<g id="a_node29"><a xlink:href="../api/proteus.LinearSolvers.html#proteus.LinearSolvers.SimpleDarcyFC" xlink:title="SimpleDarcyFC" target="_top">
<polygon fill="none" stroke="#000000" stroke-width=".5" points="132.5,-731 41.5,-731 41.5,-712 132.5,-712 132.5,-731"/>
<text text-anchor="middle" x="87" y="-719" font-family="Vera Sans, DejaVu Sans, Liberation Sans, Arial, Helvetica, sans" font-size="10.00" fill="#000000">SimpleDarcyFC</text>
</a>
</g>
</g>
<!-- StorageSet -->
<g id="node32" class="node">
<title>StorageSet</title>
<g id="a_node32"><a xlink:href="../api/proteus.LinearSolvers.html#proteus.LinearSolvers.StorageSet" xlink:title="StorageSet" target="_top">
<polygon fill="none" stroke="#000000" stroke-width=".5" points="122,-768 52,-768 52,-749 122,-749 122,-768"/>
<text text-anchor="middle" x="87" y="-756" font-family="Vera Sans, DejaVu Sans, Liberation Sans, Arial, Helvetica, sans" font-size="10.00" fill="#000000">StorageSet</text>
</a>
</g>
</g>
</g>
</svg>
