<?xml version="1.0" encoding="UTF-8" standalone="no"?>
<!DOCTYPE svg PUBLIC "-//W3C//DTD SVG 1.1//EN"
 "http://www.w3.org/Graphics/SVG/1.1/DTD/svg11.dtd">
<!-- Generated by graphviz version 2.42.3 (0)
 -->
<!-- Title: inheritance3db099f6f4 Pages: 1 -->
<svg width="777pt" height="647pt"
 viewBox="0.00 0.00 777.00 647.00" xmlns="http://www.w3.org/2000/svg" xmlns:xlink="http://www.w3.org/1999/xlink">
<g id="graph0" class="graph" transform="scale(1 1) rotate(0) translate(4 643)">
<title>inheritance3db099f6f4</title>
<polygon fill="white" stroke="transparent" points="-4,4 -4,-643 773,-643 773,4 -4,4"/>
<!-- BackwardEuler -->
<g id="node1" class="node">
<title>BackwardEuler</title>
<g id="a_node1"><a xlink:href="../api/proteus.TimeIntegration.html#proteus.TimeIntegration.BackwardEuler" xlink:title="BackwardEuler" target="_top">
<polygon fill="none" stroke="black" stroke-width="0.5" points="313,-315 224,-315 224,-296 313,-296 313,-315"/>
<text text-anchor="middle" x="268.5" y="-303" font-family="Vera Sans, DejaVu Sans, Liberation Sans, Arial, Helvetica, sans" font-size="10.00">BackwardEuler</text>
</a>
</g>
</g>
<!-- BackwardEuler_cfl -->
<g id="node3" class="node">
<title>BackwardEuler_cfl</title>
<g id="a_node3"><a xlink:href="../api/proteus.TimeIntegration.html#proteus.TimeIntegration.BackwardEuler_cfl" xlink:title="Take a fraction of the max (over all components and elements)" target="_top">
<polygon fill="none" stroke="black" stroke-width="0.5" points="546.5,-352 440.5,-352 440.5,-333 546.5,-333 546.5,-352"/>
<text text-anchor="middle" x="493.5" y="-340" font-family="Vera Sans, DejaVu Sans, Liberation Sans, Arial, Helvetica, sans" font-size="10.00">BackwardEuler_cfl</text>
</a>
</g>
</g>
<!-- BackwardEuler&#45;&gt;BackwardEuler_cfl -->
<g id="edge2" class="edge">
<title>BackwardEuler&#45;&gt;BackwardEuler_cfl</title>
<path fill="none" stroke="black" stroke-width="0.5" d="M313.03,-312.72C347.96,-318.52 397.3,-326.7 435.4,-333.03"/>
<polygon fill="black" stroke="black" stroke-width="0.5" points="435.24,-334.77 440.46,-333.87 435.82,-331.32 435.24,-334.77"/>
</g>
<!-- PsiTCtte_new -->
<g id="node30" class="node">
<title>PsiTCtte_new</title>
<g id="a_node30"><a xlink:href="../api/proteus.TimeIntegration.html#proteus.TimeIntegration.PsiTCtte_new" xlink:title="PsiTCtte_new" target="_top">
<polygon fill="none" stroke="black" stroke-width="0.5" points="534.5,-315 452.5,-315 452.5,-296 534.5,-296 534.5,-315"/>
<text text-anchor="middle" x="493.5" y="-303" font-family="Vera Sans, DejaVu Sans, Liberation Sans, Arial, Helvetica, sans" font-size="10.00">PsiTCtte_new</text>
</a>
</g>
</g>
<!-- BackwardEuler&#45;&gt;PsiTCtte_new -->
<g id="edge24" class="edge">
<title>BackwardEuler&#45;&gt;PsiTCtte_new</title>
<path fill="none" stroke="black" stroke-width="0.5" d="M313.03,-305.5C351.72,-305.5 408.08,-305.5 447.28,-305.5"/>
<polygon fill="black" stroke="black" stroke-width="0.5" points="447.46,-307.25 452.46,-305.5 447.46,-303.75 447.46,-307.25"/>
</g>
<!-- TI_base -->
<g id="node2" class="node">
<title>TI_base</title>
<g id="a_node2"><a xlink:href="../api/proteus.TimeIntegration.html#proteus.TimeIntegration.TI_base" xlink:title="The base class for time discretizations of tightly coupled systems" target="_top">
<polygon fill="none" stroke="black" stroke-width="0.5" points="98.5,-167 44.5,-167 44.5,-148 98.5,-148 98.5,-167"/>
<text text-anchor="middle" x="71.5" y="-155" font-family="Vera Sans, DejaVu Sans, Liberation Sans, Arial, Helvetica, sans" font-size="10.00">TI_base</text>
</a>
</g>
</g>
<!-- TI_base&#45;&gt;BackwardEuler -->
<g id="edge1" class="edge">
<title>TI_base&#45;&gt;BackwardEuler</title>
<path fill="none" stroke="black" stroke-width="0.5" d="M77.44,-167.14C90.44,-191.46 128.12,-255.58 179,-286.5 190.96,-293.77 205.31,-298.28 218.94,-301.07"/>
<polygon fill="black" stroke="black" stroke-width="0.5" points="218.68,-302.8 223.92,-302.02 219.34,-299.37 218.68,-302.8"/>
</g>
<!-- CentralDifference_2ndD -->
<g id="node4" class="node">
<title>CentralDifference_2ndD</title>
<g id="a_node4"><a xlink:href="../api/proteus.TimeIntegration.html#proteus.TimeIntegration.CentralDifference_2ndD" xlink:title="CentralDifference_2ndD" target="_top">
<polygon fill="none" stroke="black" stroke-width="0.5" points="335,-278 202,-278 202,-259 335,-259 335,-278"/>
<text text-anchor="middle" x="268.5" y="-266" font-family="Vera Sans, DejaVu Sans, Liberation Sans, Arial, Helvetica, sans" font-size="10.00">CentralDifference_2ndD</text>
</a>
</g>
</g>
<!-- TI_base&#45;&gt;CentralDifference_2ndD -->
<g id="edge3" class="edge">
<title>TI_base&#45;&gt;CentralDifference_2ndD</title>
<path fill="none" stroke="black" stroke-width="0.5" d="M80.49,-167.06C96.88,-186 136.35,-228.26 179,-249.5 185.29,-252.63 192.07,-255.25 199,-257.43"/>
<polygon fill="black" stroke="black" stroke-width="0.5" points="198.52,-259.12 203.81,-258.88 199.52,-255.76 198.52,-259.12"/>
</g>
<!-- ExplicitRK_base -->
<g id="node19" class="node">
<title>ExplicitRK_base</title>
<g id="a_node19"><a xlink:href="../api/proteus.TimeIntegration.html#proteus.TimeIntegration.ExplicitRK_base" xlink:title="base class for explicit RK schemes which can be written in" target="_top">
<polygon fill="none" stroke="black" stroke-width="0.5" points="316,-241 221,-241 221,-222 316,-222 316,-241"/>
<text text-anchor="middle" x="268.5" y="-229" font-family="Vera Sans, DejaVu Sans, Liberation Sans, Arial, Helvetica, sans" font-size="10.00">ExplicitRK_base</text>
</a>
</g>
</g>
<!-- TI_base&#45;&gt;ExplicitRK_base -->
<g id="edge14" class="edge">
<title>TI_base&#45;&gt;ExplicitRK_base</title>
<path fill="none" stroke="black" stroke-width="0.5" d="M87.79,-167.05C107.96,-179.27 144.91,-200.29 179,-212.5 190.65,-216.67 203.51,-220.08 215.73,-222.79"/>
<polygon fill="black" stroke="black" stroke-width="0.5" points="215.66,-224.57 220.92,-223.91 216.4,-221.15 215.66,-224.57"/>
</g>
<!-- FLCBDF -->
<g id="node20" class="node">
<title>FLCBDF</title>
<g id="a_node20"><a xlink:href="../api/proteus.TimeIntegration.html#proteus.TimeIntegration.FLCBDF" xlink:title="FLCBDF" target="_top">
<polygon fill="none" stroke="black" stroke-width="0.5" points="296,-204 241,-204 241,-185 296,-185 296,-204"/>
<text text-anchor="middle" x="268.5" y="-192" font-family="Vera Sans, DejaVu Sans, Liberation Sans, Arial, Helvetica, sans" font-size="10.00">FLCBDF</text>
</a>
</g>
</g>
<!-- TI_base&#45;&gt;FLCBDF -->
<g id="edge15" class="edge">
<title>TI_base&#45;&gt;FLCBDF</title>
<path fill="none" stroke="black" stroke-width="0.5" d="M98.8,-162.49C134.42,-169.25 197.91,-181.3 236.02,-188.53"/>
<polygon fill="black" stroke="black" stroke-width="0.5" points="235.76,-190.26 241,-189.47 236.41,-186.82 235.76,-190.26"/>
</g>
<!-- ForwardEuler -->
<g id="node22" class="node">
<title>ForwardEuler</title>
<g id="a_node22"><a xlink:href="../api/proteus.TimeIntegration.html#proteus.TimeIntegration.ForwardEuler" xlink:title="ForwardEuler" target="_top">
<polygon fill="none" stroke="black" stroke-width="0.5" points="308.5,-167 228.5,-167 228.5,-148 308.5,-148 308.5,-167"/>
<text text-anchor="middle" x="268.5" y="-155" font-family="Vera Sans, DejaVu Sans, Liberation Sans, Arial, Helvetica, sans" font-size="10.00">ForwardEuler</text>
</a>
</g>
</g>
<!-- TI_base&#45;&gt;ForwardEuler -->
<g id="edge17" class="edge">
<title>TI_base&#45;&gt;ForwardEuler</title>
<path fill="none" stroke="black" stroke-width="0.5" d="M98.8,-157.5C130.64,-157.5 184.74,-157.5 223.09,-157.5"/>
<polygon fill="black" stroke="black" stroke-width="0.5" points="223.16,-159.25 228.16,-157.5 223.16,-155.75 223.16,-159.25"/>
</g>
<!-- ForwardEuler_A -->
<g id="node23" class="node">
<title>ForwardEuler_A</title>
<g id="a_node23"><a xlink:href="../api/proteus.TimeIntegration.html#proteus.TimeIntegration.ForwardEuler_A" xlink:title="ForwardEuler_A" target="_top">
<polygon fill="none" stroke="black" stroke-width="0.5" points="314.5,-130 222.5,-130 222.5,-111 314.5,-111 314.5,-130"/>
<text text-anchor="middle" x="268.5" y="-118" font-family="Vera Sans, DejaVu Sans, Liberation Sans, Arial, Helvetica, sans" font-size="10.00">ForwardEuler_A</text>
</a>
</g>
</g>
<!-- TI_base&#45;&gt;ForwardEuler_A -->
<g id="edge18" class="edge">
<title>TI_base&#45;&gt;ForwardEuler_A</title>
<path fill="none" stroke="black" stroke-width="0.5" d="M98.8,-152.51C129.04,-146.77 179.39,-137.22 217.22,-130.04"/>
<polygon fill="black" stroke="black" stroke-width="0.5" points="217.66,-131.74 222.24,-129.09 217,-128.3 217.66,-131.74"/>
</g>
<!-- ForwardEuler_H -->
<g id="node24" class="node">
<title>ForwardEuler_H</title>
<g id="a_node24"><a xlink:href="../api/proteus.TimeIntegration.html#proteus.TimeIntegration.ForwardEuler_H" xlink:title="ForwardEuler_H" target="_top">
<polygon fill="none" stroke="black" stroke-width="0.5" points="315,-93 222,-93 222,-74 315,-74 315,-93"/>
<text text-anchor="middle" x="268.5" y="-81" font-family="Vera Sans, DejaVu Sans, Liberation Sans, Arial, Helvetica, sans" font-size="10.00">ForwardEuler_H</text>
</a>
</g>
</g>
<!-- TI_base&#45;&gt;ForwardEuler_H -->
<g id="edge19" class="edge">
<title>TI_base&#45;&gt;ForwardEuler_H</title>
<path fill="none" stroke="black" stroke-width="0.5" d="M87.4,-147.91C107.44,-135.44 144.56,-113.77 179,-101.5 191,-97.22 204.29,-93.85 216.85,-91.24"/>
<polygon fill="black" stroke="black" stroke-width="0.5" points="217.25,-92.94 221.8,-90.23 216.56,-89.51 217.25,-92.94"/>
</g>
<!-- OuterTheta -->
<g id="node28" class="node">
<title>OuterTheta</title>
<g id="a_node28"><a xlink:href="../api/proteus.TimeIntegration.html#proteus.TimeIntegration.OuterTheta" xlink:title="OuterTheta" target="_top">
<polygon fill="none" stroke="black" stroke-width="0.5" points="304,-56 233,-56 233,-37 304,-37 304,-56"/>
<text text-anchor="middle" x="268.5" y="-44" font-family="Vera Sans, DejaVu Sans, Liberation Sans, Arial, Helvetica, sans" font-size="10.00">OuterTheta</text>
</a>
</g>
</g>
<!-- TI_base&#45;&gt;OuterTheta -->
<g id="edge22" class="edge">
<title>TI_base&#45;&gt;OuterTheta</title>
<path fill="none" stroke="black" stroke-width="0.5" d="M80.45,-147.79C96.76,-128.57 136.09,-85.72 179,-64.5 194.03,-57.07 211.94,-52.71 227.7,-50.14"/>
<polygon fill="black" stroke="black" stroke-width="0.5" points="228.28,-51.83 232.96,-49.34 227.75,-48.37 228.28,-51.83"/>
</g>
<!-- VBDF -->
<g id="node35" class="node">
<title>VBDF</title>
<g id="a_node35"><a xlink:href="../api/proteus.TimeIntegration.html#proteus.TimeIntegration.VBDF" xlink:title="Variable coefficient bdf&#39;s just first and second order" target="_top">
<polygon fill="none" stroke="black" stroke-width="0.5" points="295.5,-19 241.5,-19 241.5,0 295.5,0 295.5,-19"/>
<text text-anchor="middle" x="268.5" y="-7" font-family="Vera Sans, DejaVu Sans, Liberation Sans, Arial, Helvetica, sans" font-size="10.00">VBDF</text>
</a>
</g>
</g>
<!-- TI_base&#45;&gt;VBDF -->
<g id="edge29" class="edge">
<title>TI_base&#45;&gt;VBDF</title>
<path fill="none" stroke="black" stroke-width="0.5" d="M77.4,-147.75C90.3,-123.17 127.78,-58.38 179,-27.5 196.16,-17.16 218.24,-12.65 236.05,-10.74"/>
<polygon fill="black" stroke="black" stroke-width="0.5" points="236.62,-12.44 241.43,-10.22 236.29,-8.96 236.62,-12.44"/>
</g>
<!-- PsiTCtte -->
<g id="node29" class="node">
<title>PsiTCtte</title>
<g id="a_node29"><a xlink:href="../api/proteus.TimeIntegration.html#proteus.TimeIntegration.PsiTCtte" xlink:title="PsiTCtte" target="_top">
<polygon fill="none" stroke="black" stroke-width="0.5" points="727,-370 671,-370 671,-351 727,-351 727,-370"/>
<text text-anchor="middle" x="699" y="-358" font-family="Vera Sans, DejaVu Sans, Liberation Sans, Arial, Helvetica, sans" font-size="10.00">PsiTCtte</text>
</a>
</g>
</g>
<!-- BackwardEuler_cfl&#45;&gt;PsiTCtte -->
<g id="edge23" class="edge">
<title>BackwardEuler_cfl&#45;&gt;PsiTCtte</title>
<path fill="none" stroke="black" stroke-width="0.5" d="M546.64,-347.11C584.16,-350.43 633.59,-354.8 665.58,-357.63"/>
<polygon fill="black" stroke="black" stroke-width="0.5" points="665.81,-359.41 670.95,-358.11 666.12,-355.92 665.81,-359.41"/>
</g>
<!-- SSP -->
<g id="node31" class="node">
<title>SSP</title>
<g id="a_node31"><a xlink:href="../api/proteus.TimeIntegration.html#proteus.TimeIntegration.SSP" xlink:title="SSP" target="_top">
<polygon fill="none" stroke="black" stroke-width="0.5" points="726,-333 672,-333 672,-314 726,-314 726,-333"/>
<text text-anchor="middle" x="699" y="-321" font-family="Vera Sans, DejaVu Sans, Liberation Sans, Arial, Helvetica, sans" font-size="10.00">SSP</text>
</a>
</g>
</g>
<!-- BackwardEuler_cfl&#45;&gt;SSP -->
<g id="edge25" class="edge">
<title>BackwardEuler_cfl&#45;&gt;SSP</title>
<path fill="none" stroke="black" stroke-width="0.5" d="M546.64,-337.63C584.49,-334.1 634.47,-329.43 666.43,-326.45"/>
<polygon fill="black" stroke="black" stroke-width="0.5" points="666.97,-328.15 671.79,-325.95 666.65,-324.67 666.97,-328.15"/>
</g>
<!-- CockburnNotesLimiter2d_base -->
<g id="node5" class="node">
<title>CockburnNotesLimiter2d_base</title>
<g id="a_node5"><a xlink:href="../api/proteus.TimeIntegration.html#proteus.TimeIntegration.CockburnNotesLimiter2d_base" xlink:title="CockburnNotesLimiter2d_base" target="_top">
<polygon fill="none" stroke="black" stroke-width="0.5" points="351.5,-454 185.5,-454 185.5,-435 351.5,-435 351.5,-454"/>
<text text-anchor="middle" x="268.5" y="-442" font-family="Vera Sans, DejaVu Sans, Liberation Sans, Arial, Helvetica, sans" font-size="10.00">CockburnNotesLimiter2d_base</text>
</a>
</g>
</g>
<!-- DGlimiterP1Lagrange2d -->
<g id="node12" class="node">
<title>DGlimiterP1Lagrange2d</title>
<g id="a_node12"><a xlink:href="../api/proteus.TimeIntegration.html#proteus.TimeIntegration.DGlimiterP1Lagrange2d" xlink:title="apply standard, Cockburn RKDG limiter in 2d (maybe)" target="_top">
<polygon fill="none" stroke="black" stroke-width="0.5" points="560,-500 427,-500 427,-481 560,-481 560,-500"/>
<text text-anchor="middle" x="493.5" y="-488" font-family="Vera Sans, DejaVu Sans, Liberation Sans, Arial, Helvetica, sans" font-size="10.00">DGlimiterP1Lagrange2d</text>
</a>
</g>
</g>
<!-- CockburnNotesLimiter2d_base&#45;&gt;DGlimiterP1Lagrange2d -->
<g id="edge9" class="edge">
<title>CockburnNotesLimiter2d_base&#45;&gt;DGlimiterP1Lagrange2d</title>
<path fill="none" stroke="black" stroke-width="0.5" d="M318.27,-454.02C331.21,-456.65 345.16,-459.59 358,-462.5 374.08,-466.14 377.9,-467.94 394,-471.5 407.33,-474.45 421.73,-477.37 435.29,-480.01"/>
<polygon fill="black" stroke="black" stroke-width="0.5" points="435.01,-481.74 440.25,-480.97 435.67,-478.3 435.01,-481.74"/>
</g>
<!-- DGlimiterP2Lagrange2d -->
<g id="node15" class="node">
<title>DGlimiterP2Lagrange2d</title>
<g id="a_node15"><a xlink:href="../api/proteus.TimeIntegration.html#proteus.TimeIntegration.DGlimiterP2Lagrange2d" xlink:title="canonical (I hope) 2d DG limiting procedure when original" target="_top">
<polygon fill="none" stroke="black" stroke-width="0.5" points="560,-463 427,-463 427,-444 560,-444 560,-463"/>
<text text-anchor="middle" x="493.5" y="-451" font-family="Vera Sans, DejaVu Sans, Liberation Sans, Arial, Helvetica, sans" font-size="10.00">DGlimiterP2Lagrange2d</text>
</a>
</g>
</g>
<!-- CockburnNotesLimiter2d_base&#45;&gt;DGlimiterP2Lagrange2d -->
<g id="edge11" class="edge">
<title>CockburnNotesLimiter2d_base&#45;&gt;DGlimiterP2Lagrange2d</title>
<path fill="none" stroke="black" stroke-width="0.5" d="M351.59,-447.81C374.68,-448.74 399.58,-449.75 421.94,-450.65"/>
<polygon fill="black" stroke="black" stroke-width="0.5" points="421.9,-452.4 426.96,-450.86 422.04,-448.9 421.9,-452.4"/>
</g>
<!-- DGlimiterPkMonomial2d -->
<g id="node18" class="node">
<title>DGlimiterPkMonomial2d</title>
<g id="a_node18"><a xlink:href="../api/proteus.TimeIntegration.html#proteus.TimeIntegration.DGlimiterPkMonomial2d" xlink:title="canonical (I hope) 2d DG limiting procedure when original" target="_top">
<polygon fill="none" stroke="black" stroke-width="0.5" points="562,-426 425,-426 425,-407 562,-407 562,-426"/>
<text text-anchor="middle" x="493.5" y="-414" font-family="Vera Sans, DejaVu Sans, Liberation Sans, Arial, Helvetica, sans" font-size="10.00">DGlimiterPkMonomial2d</text>
</a>
</g>
</g>
<!-- CockburnNotesLimiter2d_base&#45;&gt;DGlimiterPkMonomial2d -->
<g id="edge13" class="edge">
<title>CockburnNotesLimiter2d_base&#45;&gt;DGlimiterPkMonomial2d</title>
<path fill="none" stroke="black" stroke-width="0.5" d="M345.31,-434.98C369.36,-431.96 395.88,-428.63 419.71,-425.64"/>
<polygon fill="black" stroke="black" stroke-width="0.5" points="420.01,-427.37 424.75,-425.01 419.57,-423.89 420.01,-427.37"/>
</g>
<!-- UnstructuredLimiter_base -->
<g id="node6" class="node">
<title>UnstructuredLimiter_base</title>
<g id="a_node6"><a xlink:href="../api/proteus.TimeIntegration.html#proteus.TimeIntegration.UnstructuredLimiter_base" xlink:title="UnstructuredLimiter_base" target="_top">
<polygon fill="none" stroke="black" stroke-width="0.5" points="143,-399 0,-399 0,-380 143,-380 143,-399"/>
<text text-anchor="middle" x="71.5" y="-387" font-family="Vera Sans, DejaVu Sans, Liberation Sans, Arial, Helvetica, sans" font-size="10.00">UnstructuredLimiter_base</text>
</a>
</g>
</g>
<!-- UnstructuredLimiter_base&#45;&gt;CockburnNotesLimiter2d_base -->
<g id="edge4" class="edge">
<title>UnstructuredLimiter_base&#45;&gt;CockburnNotesLimiter2d_base</title>
<path fill="none" stroke="black" stroke-width="0.5" d="M106.47,-399.08C140.48,-408.67 192.75,-423.42 228.45,-433.49"/>
<polygon fill="black" stroke="black" stroke-width="0.5" points="228.31,-435.26 233.6,-434.94 229.26,-431.9 228.31,-435.26"/>
</g>
<!-- DGlimiterDurlofskyP1Lagrange2d -->
<g id="node7" class="node">
<title>DGlimiterDurlofskyP1Lagrange2d</title>
<g id="a_node7"><a xlink:href="../api/proteus.TimeIntegration.html#proteus.TimeIntegration.DGlimiterDurlofskyP1Lagrange2d" xlink:title="DGlimiterDurlofskyP1Lagrange2d" target="_top">
<polygon fill="none" stroke="black" stroke-width="0.5" points="358,-399 179,-399 179,-380 358,-380 358,-399"/>
<text text-anchor="middle" x="268.5" y="-387" font-family="Vera Sans, DejaVu Sans, Liberation Sans, Arial, Helvetica, sans" font-size="10.00">DGlimiterDurlofskyP1Lagrange2d</text>
</a>
</g>
</g>
<!-- UnstructuredLimiter_base&#45;&gt;DGlimiterDurlofskyP1Lagrange2d -->
<g id="edge5" class="edge">
<title>UnstructuredLimiter_base&#45;&gt;DGlimiterDurlofskyP1Lagrange2d</title>
<path fill="none" stroke="black" stroke-width="0.5" d="M143.18,-389.5C153.1,-389.5 163.44,-389.5 173.71,-389.5"/>
<polygon fill="black" stroke="black" stroke-width="0.5" points="173.75,-391.25 178.75,-389.5 173.75,-387.75 173.75,-391.25"/>
</g>
<!-- DGlimiterDurlofskyP1Lagrange3d -->
<g id="node9" class="node">
<title>DGlimiterDurlofskyP1Lagrange3d</title>
<g id="a_node9"><a xlink:href="../api/proteus.TimeIntegration.html#proteus.TimeIntegration.DGlimiterDurlofskyP1Lagrange3d" xlink:title="DGlimiterDurlofskyP1Lagrange3d" target="_top">
<polygon fill="none" stroke="black" stroke-width="0.5" points="358,-362 179,-362 179,-343 358,-343 358,-362"/>
<text text-anchor="middle" x="268.5" y="-350" font-family="Vera Sans, DejaVu Sans, Liberation Sans, Arial, Helvetica, sans" font-size="10.00">DGlimiterDurlofskyP1Lagrange3d</text>
</a>
</g>
</g>
<!-- UnstructuredLimiter_base&#45;&gt;DGlimiterDurlofskyP1Lagrange3d -->
<g id="edge7" class="edge">
<title>UnstructuredLimiter_base&#45;&gt;DGlimiterDurlofskyP1Lagrange3d</title>
<path fill="none" stroke="black" stroke-width="0.5" d="M122.72,-379.97C150.02,-374.79 183.85,-368.37 211.94,-363.04"/>
<polygon fill="black" stroke="black" stroke-width="0.5" points="212.53,-364.71 217.11,-362.06 211.88,-361.27 212.53,-364.71"/>
</g>
<!-- DGlimiterDurlofskyP1Lagrange2d_Sw -->
<g id="node8" class="node">
<title>DGlimiterDurlofskyP1Lagrange2d_Sw</title>
<g id="a_node8"><a xlink:href="../api/proteus.TimeIntegration.html#proteus.TimeIntegration.DGlimiterDurlofskyP1Lagrange2d_Sw" xlink:title="DGlimiterDurlofskyP1Lagrange2d_Sw" target="_top">
<polygon fill="none" stroke="black" stroke-width="0.5" points="593,-389 394,-389 394,-370 593,-370 593,-389"/>
<text text-anchor="middle" x="493.5" y="-377" font-family="Vera Sans, DejaVu Sans, Liberation Sans, Arial, Helvetica, sans" font-size="10.00">DGlimiterDurlofskyP1Lagrange2d_Sw</text>
</a>
</g>
</g>
<!-- DGlimiterDurlofskyP1Lagrange2d&#45;&gt;DGlimiterDurlofskyP1Lagrange2d_Sw -->
<g id="edge6" class="edge">
<title>DGlimiterDurlofskyP1Lagrange2d&#45;&gt;DGlimiterDurlofskyP1Lagrange2d_Sw</title>
<path fill="none" stroke="black" stroke-width="0.5" d="M358.28,-385.52C368.21,-385.07 378.39,-384.62 388.48,-384.16"/>
<polygon fill="black" stroke="black" stroke-width="0.5" points="388.84,-385.9 393.76,-383.93 388.68,-382.4 388.84,-385.9"/>
</g>
<!-- DGlimiterP1Lagrange1d -->
<g id="node10" class="node">
<title>DGlimiterP1Lagrange1d</title>
<g id="a_node10"><a xlink:href="../api/proteus.TimeIntegration.html#proteus.TimeIntegration.DGlimiterP1Lagrange1d" xlink:title="canonical (I hope) 1d DG limiting procedure when original" target="_top">
<polygon fill="none" stroke="black" stroke-width="0.5" points="138,-491 5,-491 5,-472 138,-472 138,-491"/>
<text text-anchor="middle" x="71.5" y="-479" font-family="Vera Sans, DejaVu Sans, Liberation Sans, Arial, Helvetica, sans" font-size="10.00">DGlimiterP1Lagrange1d</text>
</a>
</g>
</g>
<!-- DGlimiterP1Lagrange1d_Sw -->
<g id="node11" class="node">
<title>DGlimiterP1Lagrange1d_Sw</title>
<g id="a_node11"><a xlink:href="../api/proteus.TimeIntegration.html#proteus.TimeIntegration.DGlimiterP1Lagrange1d_Sw" xlink:title="DGP1 version of limiting that applies minmod limiting for h &lt; h_eps" target="_top">
<polygon fill="none" stroke="black" stroke-width="0.5" points="344.5,-491 192.5,-491 192.5,-472 344.5,-472 344.5,-491"/>
<text text-anchor="middle" x="268.5" y="-479" font-family="Vera Sans, DejaVu Sans, Liberation Sans, Arial, Helvetica, sans" font-size="10.00">DGlimiterP1Lagrange1d_Sw</text>
</a>
</g>
</g>
<!-- DGlimiterP1Lagrange1d&#45;&gt;DGlimiterP1Lagrange1d_Sw -->
<g id="edge8" class="edge">
<title>DGlimiterP1Lagrange1d&#45;&gt;DGlimiterP1Lagrange1d_Sw</title>
<path fill="none" stroke="black" stroke-width="0.5" d="M138.25,-481.5C153.98,-481.5 170.95,-481.5 187.25,-481.5"/>
<polygon fill="black" stroke="black" stroke-width="0.5" points="187.29,-483.25 192.29,-481.5 187.29,-479.75 187.29,-483.25"/>
</g>
<!-- DGlimiterP2Lagrange1d -->
<g id="node13" class="node">
<title>DGlimiterP2Lagrange1d</title>
<g id="a_node13"><a xlink:href="../api/proteus.TimeIntegration.html#proteus.TimeIntegration.DGlimiterP2Lagrange1d" xlink:title="canonical (I hope) 1d DG limiting procedure when original" target="_top">
<polygon fill="none" stroke="black" stroke-width="0.5" points="138,-528 5,-528 5,-509 138,-509 138,-528"/>
<text text-anchor="middle" x="71.5" y="-516" font-family="Vera Sans, DejaVu Sans, Liberation Sans, Arial, Helvetica, sans" font-size="10.00">DGlimiterP2Lagrange1d</text>
</a>
</g>
</g>
<!-- DGlimiterP2Lagrange1d_Sw -->
<g id="node14" class="node">
<title>DGlimiterP2Lagrange1d_Sw</title>
<g id="a_node14"><a xlink:href="../api/proteus.TimeIntegration.html#proteus.TimeIntegration.DGlimiterP2Lagrange1d_Sw" xlink:title="DGP1 version of limiting that applies minmod limiting for h &lt; h_eps" target="_top">
<polygon fill="none" stroke="black" stroke-width="0.5" points="344.5,-528 192.5,-528 192.5,-509 344.5,-509 344.5,-528"/>
<text text-anchor="middle" x="268.5" y="-516" font-family="Vera Sans, DejaVu Sans, Liberation Sans, Arial, Helvetica, sans" font-size="10.00">DGlimiterP2Lagrange1d_Sw</text>
</a>
</g>
</g>
<!-- DGlimiterP2Lagrange1d&#45;&gt;DGlimiterP2Lagrange1d_Sw -->
<g id="edge10" class="edge">
<title>DGlimiterP2Lagrange1d&#45;&gt;DGlimiterP2Lagrange1d_Sw</title>
<path fill="none" stroke="black" stroke-width="0.5" d="M138.25,-518.5C153.98,-518.5 170.95,-518.5 187.25,-518.5"/>
<polygon fill="black" stroke="black" stroke-width="0.5" points="187.29,-520.25 192.29,-518.5 187.29,-516.75 187.29,-520.25"/>
</g>
<!-- DGlimiterPkMonomial1d -->
<g id="node16" class="node">
<title>DGlimiterPkMonomial1d</title>
<g id="a_node16"><a xlink:href="../api/proteus.TimeIntegration.html#proteus.TimeIntegration.DGlimiterPkMonomial1d" xlink:title="canonical (I hope) 1d DG limiting procedure when original" target="_top">
<polygon fill="none" stroke="black" stroke-width="0.5" points="140,-565 3,-565 3,-546 140,-546 140,-565"/>
<text text-anchor="middle" x="71.5" y="-553" font-family="Vera Sans, DejaVu Sans, Liberation Sans, Arial, Helvetica, sans" font-size="10.00">DGlimiterPkMonomial1d</text>
</a>
</g>
</g>
<!-- DGlimiterPkMonomial1d_Sw -->
<g id="node17" class="node">
<title>DGlimiterPkMonomial1d_Sw</title>
<g id="a_node17"><a xlink:href="../api/proteus.TimeIntegration.html#proteus.TimeIntegration.DGlimiterPkMonomial1d_Sw" xlink:title="DGPk version of limiting that applies minmod limiting for h &lt; h_eps" target="_top">
<polygon fill="none" stroke="black" stroke-width="0.5" points="346.5,-565 190.5,-565 190.5,-546 346.5,-546 346.5,-565"/>
<text text-anchor="middle" x="268.5" y="-553" font-family="Vera Sans, DejaVu Sans, Liberation Sans, Arial, Helvetica, sans" font-size="10.00">DGlimiterPkMonomial1d_Sw</text>
</a>
</g>
</g>
<!-- DGlimiterPkMonomial1d&#45;&gt;DGlimiterPkMonomial1d_Sw -->
<g id="edge12" class="edge">
<title>DGlimiterPkMonomial1d&#45;&gt;DGlimiterPkMonomial1d_Sw</title>
<path fill="none" stroke="black" stroke-width="0.5" d="M140.15,-555.5C154.68,-555.5 170.19,-555.5 185.2,-555.5"/>
<polygon fill="black" stroke="black" stroke-width="0.5" points="185.27,-557.25 190.27,-555.5 185.27,-553.75 185.27,-557.25"/>
</g>
<!-- LinearSSPRKintegration -->
<g id="node27" class="node">
<title>LinearSSPRKintegration</title>
<g id="a_node27"><a xlink:href="../api/proteus.TimeIntegration.html#proteus.TimeIntegration.LinearSSPRKintegration" xlink:title="implementation of Explicit RK schemes for ODE that are SSP for" target="_top">
<polygon fill="none" stroke="black" stroke-width="0.5" points="559,-278 428,-278 428,-259 559,-259 559,-278"/>
<text text-anchor="middle" x="493.5" y="-266" font-family="Vera Sans, DejaVu Sans, Liberation Sans, Arial, Helvetica, sans" font-size="10.00">LinearSSPRKintegration</text>
</a>
</g>
</g>
<!-- ExplicitRK_base&#45;&gt;LinearSSPRKintegration -->
<g id="edge21" class="edge">
<title>ExplicitRK_base&#45;&gt;LinearSSPRKintegration</title>
<path fill="none" stroke="black" stroke-width="0.5" d="M316.25,-239.26C349.24,-244.73 393.8,-252.12 429.86,-258.11"/>
<polygon fill="black" stroke="black" stroke-width="0.5" points="429.9,-259.89 435.12,-258.98 430.47,-256.43 429.9,-259.89"/>
</g>
<!-- SSPRKPIintegration -->
<g id="node32" class="node">
<title>SSPRKPIintegration</title>
<g id="a_node32"><a xlink:href="../api/proteus.TimeIntegration.html#proteus.TimeIntegration.SSPRKPIintegration" xlink:title="So called SSP RK integration with limiting step at end of each" target="_top">
<polygon fill="none" stroke="black" stroke-width="0.5" points="548.5,-241 438.5,-241 438.5,-222 548.5,-222 548.5,-241"/>
<text text-anchor="middle" x="493.5" y="-229" font-family="Vera Sans, DejaVu Sans, Liberation Sans, Arial, Helvetica, sans" font-size="10.00">SSPRKPIintegration</text>
</a>
</g>
</g>
<!-- ExplicitRK_base&#45;&gt;SSPRKPIintegration -->
<g id="edge26" class="edge">
<title>ExplicitRK_base&#45;&gt;SSPRKPIintegration</title>
<path fill="none" stroke="black" stroke-width="0.5" d="M316.25,-231.5C350.21,-231.5 396.44,-231.5 433.03,-231.5"/>
<polygon fill="black" stroke="black" stroke-width="0.5" points="433.36,-233.25 438.36,-231.5 433.36,-229.75 433.36,-233.25"/>
</g>
<!-- FLCBDF_TwophaseDarcy_fc -->
<g id="node21" class="node">
<title>FLCBDF_TwophaseDarcy_fc</title>
<g id="a_node21"><a xlink:href="../api/proteus.TimeIntegration.html#proteus.TimeIntegration.FLCBDF_TwophaseDarcy_fc" xlink:title="FLCBDF_TwophaseDarcy_fc" target="_top">
<polygon fill="none" stroke="black" stroke-width="0.5" points="569,-204 418,-204 418,-185 569,-185 569,-204"/>
<text text-anchor="middle" x="493.5" y="-192" font-family="Vera Sans, DejaVu Sans, Liberation Sans, Arial, Helvetica, sans" font-size="10.00">FLCBDF_TwophaseDarcy_fc</text>
</a>
</g>
</g>
<!-- FLCBDF&#45;&gt;FLCBDF_TwophaseDarcy_fc -->
<g id="edge16" class="edge">
<title>FLCBDF&#45;&gt;FLCBDF_TwophaseDarcy_fc</title>
<path fill="none" stroke="black" stroke-width="0.5" d="M296.4,-194.5C325,-194.5 371.62,-194.5 412.23,-194.5"/>
<polygon fill="black" stroke="black" stroke-width="0.5" points="412.67,-196.25 417.67,-194.5 412.67,-192.75 412.67,-196.25"/>
</g>
<!-- ForwardIntegrator -->
<g id="node25" class="node">
<title>ForwardIntegrator</title>
<g id="a_node25"><a xlink:href="../api/proteus.TimeIntegration.html#proteus.TimeIntegration.ForwardIntegrator" xlink:title="class that is responsible for basic process of integrating a problem" target="_top">
<polygon fill="none" stroke="black" stroke-width="0.5" points="123.5,-620 19.5,-620 19.5,-601 123.5,-601 123.5,-620"/>
<text text-anchor="middle" x="71.5" y="-608" font-family="Vera Sans, DejaVu Sans, Liberation Sans, Arial, Helvetica, sans" font-size="10.00">ForwardIntegrator</text>
</a>
</g>
</g>
<!-- SignedDistanceIntegrator -->
<g id="node33" class="node">
<title>SignedDistanceIntegrator</title>
<g id="a_node33"><a xlink:href="../api/proteus.TimeIntegration.html#proteus.TimeIntegration.SignedDistanceIntegrator" xlink:title="apply some form of pseudo&#45;transient continuation or direct solve to" target="_top">
<polygon fill="none" stroke="black" stroke-width="0.5" points="338.5,-639 198.5,-639 198.5,-620 338.5,-620 338.5,-639"/>
<text text-anchor="middle" x="268.5" y="-627" font-family="Vera Sans, DejaVu Sans, Liberation Sans, Arial, Helvetica, sans" font-size="10.00">SignedDistanceIntegrator</text>
</a>
</g>
</g>
<!-- ForwardIntegrator&#45;&gt;SignedDistanceIntegrator -->
<g id="edge27" class="edge">
<title>ForwardIntegrator&#45;&gt;SignedDistanceIntegrator</title>
<path fill="none" stroke="black" stroke-width="0.5" d="M123.73,-615.49C144.93,-617.56 169.91,-619.99 193.06,-622.25"/>
<polygon fill="black" stroke="black" stroke-width="0.5" points="193.13,-624.01 198.28,-622.76 193.47,-620.53 193.13,-624.01"/>
</g>
<!-- SteadyStateIntegrator -->
<g id="node34" class="node">
<title>SteadyStateIntegrator</title>
<g id="a_node34"><a xlink:href="../api/proteus.TimeIntegration.html#proteus.TimeIntegration.SteadyStateIntegrator" xlink:title="apply some form of pseudo&#45;transient continuation or direct solve to" target="_top">
<polygon fill="none" stroke="black" stroke-width="0.5" points="330.5,-602 206.5,-602 206.5,-583 330.5,-583 330.5,-602"/>
<text text-anchor="middle" x="268.5" y="-590" font-family="Vera Sans, DejaVu Sans, Liberation Sans, Arial, Helvetica, sans" font-size="10.00">SteadyStateIntegrator</text>
</a>
</g>
</g>
<!-- ForwardIntegrator&#45;&gt;SteadyStateIntegrator -->
<g id="edge28" class="edge">
<title>ForwardIntegrator&#45;&gt;SteadyStateIntegrator</title>
<path fill="none" stroke="black" stroke-width="0.5" d="M123.73,-605.77C147.43,-603.58 175.87,-600.96 201.18,-598.62"/>
<polygon fill="black" stroke="black" stroke-width="0.5" points="201.38,-600.36 206.2,-598.16 201.06,-596.88 201.38,-600.36"/>
</g>
<!-- LinearSSPRKPIintegration -->
<g id="node26" class="node">
<title>LinearSSPRKPIintegration</title>
<g id="a_node26"><a xlink:href="../api/proteus.TimeIntegration.html#proteus.TimeIntegration.LinearSSPRKPIintegration" xlink:title="Linear SSP RK integration with limiting step at end of each phase, this one" target="_top">
<polygon fill="none" stroke="black" stroke-width="0.5" points="769,-278 629,-278 629,-259 769,-259 769,-278"/>
<text text-anchor="middle" x="699" y="-266" font-family="Vera Sans, DejaVu Sans, Liberation Sans, Arial, Helvetica, sans" font-size="10.00">LinearSSPRKPIintegration</text>
</a>
</g>
</g>
<!-- LinearSSPRKintegration&#45;&gt;LinearSSPRKPIintegration -->
<g id="edge20" class="edge">
<title>LinearSSPRKintegration&#45;&gt;LinearSSPRKPIintegration</title>
<path fill="none" stroke="black" stroke-width="0.5" d="M559.17,-268.5C579.75,-268.5 602.67,-268.5 623.87,-268.5"/>
<polygon fill="black" stroke="black" stroke-width="0.5" points="623.93,-270.25 628.93,-268.5 623.93,-266.75 623.93,-270.25"/>
</g>
</g>
</svg>
