<?xml version="1.0" encoding="UTF-8" standalone="no"?>
<!DOCTYPE svg PUBLIC "-//W3C//DTD SVG 1.1//EN"
 "http://www.w3.org/Graphics/SVG/1.1/DTD/svg11.dtd">
<!-- Generated by graphviz version 2.40.1 (20161225.0304)
 -->
<!-- Title: inheritance65a8d20231 Pages: 1 -->
<svg width="241pt" height="397pt"
 viewBox="0.00 0.00 241.00 397.00" xmlns="http://www.w3.org/2000/svg" xmlns:xlink="http://www.w3.org/1999/xlink">
<g id="graph0" class="graph" transform="scale(1 1) rotate(0) translate(4 393)">
<title>inheritance65a8d20231</title>
<polygon fill="#ffffff" stroke="transparent" points="-4,4 -4,-393 237,-393 237,4 -4,4"/>
<!-- AV_base -->
<g id="node1" class="node">
<title>AV_base</title>
<g id="a_node1"><a xlink:href="../api/proteus.AuxiliaryVariables.html#proteus.AuxiliaryVariables.AV_base" xlink:title="AV_base" target="_top">
<polygon fill="none" stroke="#000000" stroke-width=".5" points="58,-204 0,-204 0,-185 58,-185 58,-204"/>
<text text-anchor="middle" x="29" y="-192" font-family="Vera Sans, DejaVu Sans, Liberation Sans, Arial, Helvetica, sans" font-size="10.00" fill="#000000">AV_base</text>
</a>
</g>
</g>
<!-- BoundaryForce -->
<g id="node2" class="node">
<title>BoundaryForce</title>
<g id="a_node2"><a xlink:href="../api/proteus.AuxiliaryVariables.html#proteus.AuxiliaryVariables.BoundaryForce" xlink:title="BoundaryForce" target="_top">
<polygon fill="none" stroke="#000000" stroke-width=".5" points="208,-389 119,-389 119,-370 208,-370 208,-389"/>
<text text-anchor="middle" x="163.5" y="-377" font-family="Vera Sans, DejaVu Sans, Liberation Sans, Arial, Helvetica, sans" font-size="10.00" fill="#000000">BoundaryForce</text>
</a>
</g>
</g>
<!-- AV_base&#45;&gt;BoundaryForce -->
<g id="edge1" class="edge">
<title>AV_base&#45;&gt;BoundaryForce</title>
<path fill="none" stroke="#000000" stroke-width=".5" d="M29.7706,-204.1241C32.5921,-232.7203 44.9304,-317.8933 94,-361.5 99.6774,-366.5453 106.5899,-370.2086 113.8279,-372.862"/>
<polygon fill="#000000" stroke="#000000" stroke-width=".5" points="113.5828,-374.6247 118.8796,-374.5421 114.6874,-371.3035 113.5828,-374.6247"/>
</g>
<!-- BoundaryPressure -->
<g id="node3" class="node">
<title>BoundaryPressure</title>
<g id="a_node3"><a xlink:href="../api/proteus.AuxiliaryVariables.html#proteus.AuxiliaryVariables.BoundaryPressure" xlink:title="BoundaryPressure" target="_top">
<polygon fill="none" stroke="#000000" stroke-width=".5" points="216,-352 111,-352 111,-333 216,-333 216,-352"/>
<text text-anchor="middle" x="163.5" y="-340" font-family="Vera Sans, DejaVu Sans, Liberation Sans, Arial, Helvetica, sans" font-size="10.00" fill="#000000">BoundaryPressure</text>
</a>
</g>
</g>
<!-- AV_base&#45;&gt;BoundaryPressure -->
<g id="edge2" class="edge">
<title>AV_base&#45;&gt;BoundaryPressure</title>
<path fill="none" stroke="#000000" stroke-width=".5" d="M30.9233,-204.0485C36.2962,-228.173 53.7867,-291.962 94,-324.5 97.629,-327.4364 101.6838,-329.8988 105.962,-331.9632"/>
<polygon fill="#000000" stroke="#000000" stroke-width=".5" points="105.4018,-333.6289 110.6824,-334.0506 106.8173,-330.4279 105.4018,-333.6289"/>
</g>
<!-- ConservationHistoryLS -->
<g id="node4" class="node">
<title>ConservationHistoryLS</title>
<g id="a_node4"><a xlink:href="../api/proteus.AuxiliaryVariables.html#proteus.AuxiliaryVariables.ConservationHistoryLS" xlink:title="A simple class for storing the time history of things related conservation in non&#45;conservative level set methods" target="_top">
<polygon fill="none" stroke="#000000" stroke-width=".5" points="227.5,-315 99.5,-315 99.5,-296 227.5,-296 227.5,-315"/>
<text text-anchor="middle" x="163.5" y="-303" font-family="Vera Sans, DejaVu Sans, Liberation Sans, Arial, Helvetica, sans" font-size="10.00" fill="#000000">ConservationHistoryLS</text>
</a>
</g>
</g>
<!-- AV_base&#45;&gt;ConservationHistoryLS -->
<g id="edge3" class="edge">
<title>AV_base&#45;&gt;ConservationHistoryLS</title>
<path fill="none" stroke="#000000" stroke-width=".5" d="M32.9392,-204.0919C41.2514,-223.0966 62.452,-265.586 94,-287.5 97.5317,-289.9532 101.3737,-292.0721 105.3783,-293.9022"/>
<polygon fill="#000000" stroke="#000000" stroke-width=".5" points="104.8585,-295.5825 110.1451,-295.9207 106.2233,-292.3595 104.8585,-295.5825"/>
</g>
<!-- ConservationHistoryMC -->
<g id="node5" class="node">
<title>ConservationHistoryMC</title>
<g id="a_node5"><a xlink:href="../api/proteus.AuxiliaryVariables.html#proteus.AuxiliaryVariables.ConservationHistoryMC" xlink:title="A simple class for storing the time history of things related conservation in conservative level set methods" target="_top">
<polygon fill="none" stroke="#000000" stroke-width=".5" points="229,-278 98,-278 98,-259 229,-259 229,-278"/>
<text text-anchor="middle" x="163.5" y="-266" font-family="Vera Sans, DejaVu Sans, Liberation Sans, Arial, Helvetica, sans" font-size="10.00" fill="#000000">ConservationHistoryMC</text>
</a>
</g>
</g>
<!-- AV_base&#45;&gt;ConservationHistoryMC -->
<g id="edge4" class="edge">
<title>AV_base&#45;&gt;ConservationHistoryMC</title>
<path fill="none" stroke="#000000" stroke-width=".5" d="M37.6672,-204.356C49.262,-216.9286 71.0387,-238.4792 94,-250.5 98.988,-253.1114 104.3797,-255.3616 109.8772,-257.2969"/>
<polygon fill="#000000" stroke="#000000" stroke-width=".5" points="109.6504,-259.0658 114.9472,-258.9869 110.7572,-255.7455 109.6504,-259.0658"/>
</g>
<!-- GatherDOF -->
<g id="node6" class="node">
<title>GatherDOF</title>
<g id="a_node6"><a xlink:href="../api/proteus.AuxiliaryVariables.html#proteus.AuxiliaryVariables.GatherDOF" xlink:title="GatherDOF" target="_top">
<polygon fill="none" stroke="#000000" stroke-width=".5" points="198.5,-241 128.5,-241 128.5,-222 198.5,-222 198.5,-241"/>
<text text-anchor="middle" x="163.5" y="-229" font-family="Vera Sans, DejaVu Sans, Liberation Sans, Arial, Helvetica, sans" font-size="10.00" fill="#000000">GatherDOF</text>
</a>
</g>
</g>
<!-- AV_base&#45;&gt;GatherDOF -->
<g id="edge5" class="edge">
<title>AV_base&#45;&gt;GatherDOF</title>
<path fill="none" stroke="#000000" stroke-width=".5" d="M58.0665,-203.2049C69.2744,-206.5067 82.2122,-210.2515 94,-213.5 103.5162,-216.1225 113.7959,-218.845 123.4559,-221.3547"/>
<polygon fill="#000000" stroke="#000000" stroke-width=".5" points="123.1647,-223.087 128.4437,-222.6461 124.042,-219.6987 123.1647,-223.087"/>
</g>
<!-- MassOverRegion -->
<g id="node7" class="node">
<title>MassOverRegion</title>
<g id="a_node7"><a xlink:href="../api/proteus.AuxiliaryVariables.html#proteus.AuxiliaryVariables.MassOverRegion" xlink:title="MassOverRegion" target="_top">
<polygon fill="none" stroke="#000000" stroke-width=".5" points="212.5,-204 114.5,-204 114.5,-185 212.5,-185 212.5,-204"/>
<text text-anchor="middle" x="163.5" y="-192" font-family="Vera Sans, DejaVu Sans, Liberation Sans, Arial, Helvetica, sans" font-size="10.00" fill="#000000">MassOverRegion</text>
</a>
</g>
</g>
<!-- AV_base&#45;&gt;MassOverRegion -->
<g id="edge6" class="edge">
<title>AV_base&#45;&gt;MassOverRegion</title>
<path fill="none" stroke="#000000" stroke-width=".5" d="M58.1845,-194.5C73.0282,-194.5 91.5612,-194.5 108.9246,-194.5"/>
<polygon fill="#000000" stroke="#000000" stroke-width=".5" points="109.2703,-196.2501 114.2703,-194.5 109.2702,-192.7501 109.2703,-196.2501"/>
</g>
<!-- PT123velocityGenerator -->
<g id="node8" class="node">
<title>PT123velocityGenerator</title>
<g id="a_node8"><a xlink:href="../api/proteus.AuxiliaryVariables.html#proteus.AuxiliaryVariables.PT123velocityGenerator" xlink:title="write out the velocity field from a model for PT123 to use in tracking as a" target="_top">
<polygon fill="none" stroke="#000000" stroke-width=".5" points="230.5,-167 96.5,-167 96.5,-148 230.5,-148 230.5,-167"/>
<text text-anchor="middle" x="163.5" y="-155" font-family="Vera Sans, DejaVu Sans, Liberation Sans, Arial, Helvetica, sans" font-size="10.00" fill="#000000">PT123velocityGenerator</text>
</a>
</g>
</g>
<!-- AV_base&#45;&gt;PT123velocityGenerator -->
<g id="edge7" class="edge">
<title>AV_base&#45;&gt;PT123velocityGenerator</title>
<path fill="none" stroke="#000000" stroke-width=".5" d="M58.1156,-186.4152C69.3295,-183.3071 82.2586,-179.7307 94,-176.5 103.5514,-173.8719 113.8444,-171.0515 123.5062,-168.4094"/>
<polygon fill="#000000" stroke="#000000" stroke-width=".5" points="124.1324,-170.0525 128.4939,-167.0459 123.2094,-166.6764 124.1324,-170.0525"/>
</g>
<!-- PressureProfile -->
<g id="node9" class="node">
<title>PressureProfile</title>
<g id="a_node9"><a xlink:href="../api/proteus.AuxiliaryVariables.html#proteus.AuxiliaryVariables.PressureProfile" xlink:title="PressureProfile" target="_top">
<polygon fill="none" stroke="#000000" stroke-width=".5" points="208,-130 119,-130 119,-111 208,-111 208,-130"/>
<text text-anchor="middle" x="163.5" y="-118" font-family="Vera Sans, DejaVu Sans, Liberation Sans, Arial, Helvetica, sans" font-size="10.00" fill="#000000">PressureProfile</text>
</a>
</g>
</g>
<!-- AV_base&#45;&gt;PressureProfile -->
<g id="edge8" class="edge">
<title>AV_base&#45;&gt;PressureProfile</title>
<path fill="none" stroke="#000000" stroke-width=".5" d="M37.729,-184.874C49.3907,-172.5843 71.2396,-151.4815 94,-139.5 100.0861,-136.2962 106.7639,-133.5921 113.4986,-131.3209"/>
<polygon fill="#000000" stroke="#000000" stroke-width=".5" points="114.4248,-132.8616 118.6509,-129.6674 113.3552,-129.529 114.4248,-132.8616"/>
</g>
<!-- RecirculationLength -->
<g id="node10" class="node">
<title>RecirculationLength</title>
<g id="a_node10"><a xlink:href="../api/proteus.AuxiliaryVariables.html#proteus.AuxiliaryVariables.RecirculationLength" xlink:title="RecirculationLength" target="_top">
<polygon fill="none" stroke="#000000" stroke-width=".5" points="220,-93 107,-93 107,-74 220,-74 220,-93"/>
<text text-anchor="middle" x="163.5" y="-81" font-family="Vera Sans, DejaVu Sans, Liberation Sans, Arial, Helvetica, sans" font-size="10.00" fill="#000000">RecirculationLength</text>
</a>
</g>
</g>
<!-- AV_base&#45;&gt;RecirculationLength -->
<g id="edge9" class="edge">
<title>AV_base&#45;&gt;RecirculationLength</title>
<path fill="none" stroke="#000000" stroke-width=".5" d="M33.1239,-184.7566C41.6227,-165.8807 62.9308,-124.2743 94,-102.5 98.1486,-99.5925 102.7241,-97.1294 107.4875,-95.0429"/>
<polygon fill="#000000" stroke="#000000" stroke-width=".5" points="108.335,-96.5873 112.3046,-93.0794 107.0139,-93.3462 108.335,-96.5873"/>
</g>
<!-- VelocityAverage -->
<g id="node11" class="node">
<title>VelocityAverage</title>
<g id="a_node11"><a xlink:href="../api/proteus.AuxiliaryVariables.html#proteus.AuxiliaryVariables.VelocityAverage" xlink:title="VelocityAverage" target="_top">
<polygon fill="none" stroke="#000000" stroke-width=".5" points="211,-56 116,-56 116,-37 211,-37 211,-56"/>
<text text-anchor="middle" x="163.5" y="-44" font-family="Vera Sans, DejaVu Sans, Liberation Sans, Arial, Helvetica, sans" font-size="10.00" fill="#000000">VelocityAverage</text>
</a>
</g>
</g>
<!-- AV_base&#45;&gt;VelocityAverage -->
<g id="edge10" class="edge">
<title>AV_base&#45;&gt;VelocityAverage</title>
<path fill="none" stroke="#000000" stroke-width=".5" d="M31.054,-184.7034C36.6352,-160.5728 54.3958,-97.8854 94,-65.5 99.0157,-61.3985 104.8469,-58.179 110.9583,-55.6523"/>
<polygon fill="#000000" stroke="#000000" stroke-width=".5" points="111.6296,-57.2693 115.6775,-53.8521 110.3821,-53.9992 111.6296,-57.2693"/>
</g>
<!-- VelocityNormOverRegion -->
<g id="node12" class="node">
<title>VelocityNormOverRegion</title>
<g id="a_node12"><a xlink:href="../api/proteus.AuxiliaryVariables.html#proteus.AuxiliaryVariables.VelocityNormOverRegion" xlink:title="VelocityNormOverRegion" target="_top">
<polygon fill="none" stroke="#000000" stroke-width=".5" points="233,-19 94,-19 94,0 233,0 233,-19"/>
<text text-anchor="middle" x="163.5" y="-7" font-family="Vera Sans, DejaVu Sans, Liberation Sans, Arial, Helvetica, sans" font-size="10.00" fill="#000000">VelocityNormOverRegion</text>
</a>
</g>
</g>
<!-- AV_base&#45;&gt;VelocityNormOverRegion -->
<g id="edge11" class="edge">
<title>AV_base&#45;&gt;VelocityNormOverRegion</title>
<path fill="none" stroke="#000000" stroke-width=".5" d="M29.8173,-184.9625C32.769,-156.6183 45.4335,-72.1576 94,-28.5 96.942,-25.8554 100.2177,-23.5742 103.6998,-21.6071"/>
<polygon fill="#000000" stroke="#000000" stroke-width=".5" points="104.9123,-22.9522 108.5641,-19.1146 103.3162,-19.8373 104.9123,-22.9522"/>
</g>
</g>
</svg>
