<?xml version="1.0" encoding="UTF-8" standalone="no"?>
<!DOCTYPE svg PUBLIC "-//W3C//DTD SVG 1.1//EN"
 "http://www.w3.org/Graphics/SVG/1.1/DTD/svg11.dtd">
<!-- Generated by graphviz version 2.38.0 (20140413.2041)
 -->
<!-- Title: inheritancef0f7c8435a Pages: 1 -->
<svg width="241pt" height="64pt"
 viewBox="0.00 0.00 241.00 64.00" xmlns="http://www.w3.org/2000/svg" xmlns:xlink="http://www.w3.org/1999/xlink">
<g id="graph0" class="graph" transform="scale(1 1) rotate(0) translate(4 60)">
<title>inheritancef0f7c8435a</title>
<polygon fill="white" stroke="none" points="-4,4 -4,-60 237,-60 237,4 -4,4"/>
<!-- MinAlgo_base -->
<g id="node1" class="node"><title>MinAlgo_base</title>
<g id="a_node1"><a xlink:href="../api/proteus.Optimizers.html#proteus.Optimizers.MinAlgo_base" xlink:title="This is the base class for the minimization algorthms class," target="_top">
<polygon fill="none" stroke="black" stroke-width="0.5" points="106,-19 23,-19 23,-0 106,-0 106,-19"/>
<text text-anchor="middle" x="64.5" y="-7" font-family="Vera Sans, DejaVu Sans, Liberation Sans, Arial, Helvetica, sans" font-size="10.00">MinAlgo_base</text>
</a>
</g>
</g>
<!-- fminbound -->
<g id="node3" class="node"><title>fminbound</title>
<g id="a_node3"><a xlink:href="../api/proteus.Optimizers.html#proteus.Optimizers.fminbound" xlink:title="This is a function that uses a golden ratio routine for finding" target="_top">
<polygon fill="none" stroke="black" stroke-width="0.5" points="233,-19 165,-19 165,-0 233,-0 233,-19"/>
<text text-anchor="middle" x="199" y="-7" font-family="Vera Sans, DejaVu Sans, Liberation Sans, Arial, Helvetica, sans" font-size="10.00">fminbound</text>
</a>
</g>
</g>
<!-- MinAlgo_base&#45;&gt;fminbound -->
<g id="edge1" class="edge"><title>MinAlgo_base&#45;&gt;fminbound</title>
<path fill="none" stroke="black" stroke-width="0.5" d="M106.336,-9.5C123.287,-9.5 142.856,-9.5 159.548,-9.5"/>
<polygon fill="black" stroke="black" stroke-width="0.5" points="159.63,-11.2501 164.63,-9.5 159.63,-7.7501 159.63,-11.2501"/>
</g>
<!-- ObjectiveFunction_base -->
<g id="node2" class="node"><title>ObjectiveFunction_base</title>
<g id="a_node2"><a xlink:href="../api/proteus.Optimizers.html#proteus.Optimizers.ObjectiveFunction_base" xlink:title="ObjectiveFunction_base" target="_top">
<polygon fill="none" stroke="black" stroke-width="0.5" points="129,-56 0,-56 0,-37 129,-37 129,-56"/>
<text text-anchor="middle" x="64.5" y="-44" font-family="Vera Sans, DejaVu Sans, Liberation Sans, Arial, Helvetica, sans" font-size="10.00">ObjectiveFunction_base</text>
</a>
</g>
</g>
</g>
</svg>
