<?xml version="1.0" encoding="UTF-8" standalone="no"?>
<!DOCTYPE svg PUBLIC "-//W3C//DTD SVG 1.1//EN"
 "http://www.w3.org/Graphics/SVG/1.1/DTD/svg11.dtd">
<!-- Generated by graphviz version 2.42.3 (0)
 -->
<!-- Title: inheritanced9289a834f Pages: 1 -->
<svg width="700pt" height="582pt"
 viewBox="0.00 0.00 700.00 582.00" xmlns="http://www.w3.org/2000/svg" xmlns:xlink="http://www.w3.org/1999/xlink">
<g id="graph0" class="graph" transform="scale(1 1) rotate(0) translate(4 578)">
<title>inheritanced9289a834f</title>
<polygon fill="white" stroke="transparent" points="-4,4 -4,-578 696,-578 696,4 -4,4"/>
<!-- Edge -->
<g id="node1" class="node">
<title>Edge</title>
<g id="a_node1"><a xlink:href="../api/proteus.MeshTools.html#proteus.MeshTools.Edge" xlink:title="Edge" target="_top">
<polygon fill="none" stroke="black" stroke-width="0.5" points="278.5,-130 224.5,-130 224.5,-111 278.5,-111 278.5,-130"/>
<text text-anchor="middle" x="251.5" y="-118" font-family="Vera Sans, DejaVu Sans, Liberation Sans, Arial, Helvetica, sans" font-size="10.00">Edge</text>
</a>
</g>
</g>
<!-- Element -->
<g id="node2" class="node">
<title>Element</title>
<g id="a_node2"><a xlink:href="../api/proteus.MeshTools.html#proteus.MeshTools.Element" xlink:title="An numbered polytope in R^n" target="_top">
<polygon fill="none" stroke="black" stroke-width="0.5" points="109.5,-93 52.5,-93 52.5,-74 109.5,-74 109.5,-93"/>
<text text-anchor="middle" x="81" y="-81" font-family="Vera Sans, DejaVu Sans, Liberation Sans, Arial, Helvetica, sans" font-size="10.00">Element</text>
</a>
</g>
</g>
<!-- Element&#45;&gt;Edge -->
<g id="edge1" class="edge">
<title>Element&#45;&gt;Edge</title>
<path fill="none" stroke="black" stroke-width="0.5" d="M109.82,-89.61C139.99,-96.23 188.02,-106.78 219.41,-113.67"/>
<polygon fill="black" stroke="black" stroke-width="0.5" points="219.04,-115.38 224.3,-114.75 219.79,-111.96 219.04,-115.38"/>
</g>
<!-- Polyhedron -->
<g id="node8" class="node">
<title>Polyhedron</title>
<g id="a_node8"><a xlink:href="../api/proteus.MeshTools.html#proteus.MeshTools.Polyhedron" xlink:title="An abstract 3D Element&#45;&#45;a closed set of Polygons connecting a set" target="_top">
<polygon fill="none" stroke="black" stroke-width="0.5" points="287,-93 216,-93 216,-74 287,-74 287,-93"/>
<text text-anchor="middle" x="251.5" y="-81" font-family="Vera Sans, DejaVu Sans, Liberation Sans, Arial, Helvetica, sans" font-size="10.00">Polyhedron</text>
</a>
</g>
</g>
<!-- Element&#45;&gt;Polyhedron -->
<g id="edge21" class="edge">
<title>Element&#45;&gt;Polyhedron</title>
<path fill="none" stroke="black" stroke-width="0.5" d="M109.82,-83.5C137.3,-83.5 179.61,-83.5 210.65,-83.5"/>
<polygon fill="black" stroke="black" stroke-width="0.5" points="210.92,-85.25 215.92,-83.5 210.92,-81.75 210.92,-85.25"/>
</g>
<!-- Polygon -->
<g id="node26" class="node">
<title>Polygon</title>
<g id="a_node26"><a xlink:href="../api/proteus.MeshTools.html#proteus.MeshTools.Polygon" xlink:title="An abstract 2D element&#45;&#45;a closed set of Edges connecting a set of Nodes." target="_top">
<polygon fill="none" stroke="black" stroke-width="0.5" points="279.5,-56 223.5,-56 223.5,-37 279.5,-37 279.5,-56"/>
<text text-anchor="middle" x="251.5" y="-44" font-family="Vera Sans, DejaVu Sans, Liberation Sans, Arial, Helvetica, sans" font-size="10.00">Polygon</text>
</a>
</g>
</g>
<!-- Element&#45;&gt;Polygon -->
<g id="edge20" class="edge">
<title>Element&#45;&gt;Polygon</title>
<path fill="none" stroke="black" stroke-width="0.5" d="M109.82,-77.39C139.73,-70.82 187.18,-60.4 218.57,-53.51"/>
<polygon fill="black" stroke="black" stroke-width="0.5" points="218.96,-55.22 223.47,-52.44 218.21,-51.8 218.96,-55.22"/>
</g>
<!-- EdgeGrid -->
<g id="node3" class="node">
<title>EdgeGrid</title>
<g id="a_node3"><a xlink:href="../api/proteus.MeshTools.html#proteus.MeshTools.EdgeGrid" xlink:title="A 1D regular grid on an interval" target="_top">
<polygon fill="none" stroke="black" stroke-width="0.5" points="282,-574 221,-574 221,-555 282,-555 282,-574"/>
<text text-anchor="middle" x="251.5" y="-562" font-family="Vera Sans, DejaVu Sans, Liberation Sans, Arial, Helvetica, sans" font-size="10.00">EdgeGrid</text>
</a>
</g>
</g>
<!-- Mesh -->
<g id="node4" class="node">
<title>Mesh</title>
<g id="a_node4"><a xlink:href="../api/proteus.MeshTools.html#proteus.MeshTools.Mesh" xlink:title="A partition of a domain in R^n into elements." target="_top">
<polygon fill="none" stroke="black" stroke-width="0.5" points="108,-370 54,-370 54,-351 108,-351 108,-370"/>
<text text-anchor="middle" x="81" y="-358" font-family="Vera Sans, DejaVu Sans, Liberation Sans, Arial, Helvetica, sans" font-size="10.00">Mesh</text>
</a>
</g>
</g>
<!-- Mesh&#45;&gt;EdgeGrid -->
<g id="edge2" class="edge">
<title>Mesh&#45;&gt;EdgeGrid</title>
<path fill="none" stroke="black" stroke-width="0.5" d="M108.16,-359.9C125.72,-360.94 148.12,-365.32 162,-379.5 215.13,-433.75 147.57,-489.74 198,-546.5 202.84,-551.94 209.39,-555.74 216.23,-558.39"/>
<polygon fill="black" stroke="black" stroke-width="0.5" points="215.69,-560.06 220.99,-560.05 216.84,-556.75 215.69,-560.06"/>
</g>
<!-- EdgeMesh -->
<g id="node5" class="node">
<title>EdgeMesh</title>
<g id="a_node5"><a xlink:href="../api/proteus.MeshTools.html#proteus.MeshTools.EdgeMesh" xlink:title="A mesh of edges" target="_top">
<polygon fill="none" stroke="black" stroke-width="0.5" points="285,-537 218,-537 218,-518 285,-518 285,-537"/>
<text text-anchor="middle" x="251.5" y="-525" font-family="Vera Sans, DejaVu Sans, Liberation Sans, Arial, Helvetica, sans" font-size="10.00">EdgeMesh</text>
</a>
</g>
</g>
<!-- Mesh&#45;&gt;EdgeMesh -->
<g id="edge3" class="edge">
<title>Mesh&#45;&gt;EdgeMesh</title>
<path fill="none" stroke="black" stroke-width="0.5" d="M108.28,-360.18C125.68,-361.38 147.82,-365.83 162,-379.5 205.17,-421.1 156.9,-465.85 198,-509.5 202.18,-513.94 207.5,-517.28 213.14,-519.8"/>
<polygon fill="black" stroke="black" stroke-width="0.5" points="212.65,-521.49 217.94,-521.73 213.96,-518.24 212.65,-521.49"/>
</g>
<!-- HexahedralMesh -->
<g id="node6" class="node">
<title>HexahedralMesh</title>
<g id="a_node6"><a xlink:href="../api/proteus.MeshTools.html#proteus.MeshTools.HexahedralMesh" xlink:title="A mesh of hexahedra." target="_top">
<polygon fill="none" stroke="black" stroke-width="0.5" points="301,-500 202,-500 202,-481 301,-481 301,-500"/>
<text text-anchor="middle" x="251.5" y="-488" font-family="Vera Sans, DejaVu Sans, Liberation Sans, Arial, Helvetica, sans" font-size="10.00">HexahedralMesh</text>
</a>
</g>
</g>
<!-- Mesh&#45;&gt;HexahedralMesh -->
<g id="edge4" class="edge">
<title>Mesh&#45;&gt;HexahedralMesh</title>
<path fill="none" stroke="black" stroke-width="0.5" d="M108.23,-360.67C125.39,-362.11 147.26,-366.64 162,-379.5 195.4,-408.64 166.05,-441.78 198,-472.5 200.32,-474.74 202.94,-476.69 205.73,-478.41"/>
<polygon fill="black" stroke="black" stroke-width="0.5" points="205.01,-480.02 210.23,-480.91 206.71,-476.96 205.01,-480.02"/>
</g>
<!-- Mesh2DM -->
<g id="node11" class="node">
<title>Mesh2DM</title>
<g id="a_node11"><a xlink:href="../api/proteus.MeshTools.html#proteus.MeshTools.Mesh2DM" xlink:title="A triangular mesh based on an ADH 3dm file" target="_top">
<polygon fill="none" stroke="black" stroke-width="0.5" points="284,-463 219,-463 219,-444 284,-444 284,-463"/>
<text text-anchor="middle" x="251.5" y="-451" font-family="Vera Sans, DejaVu Sans, Liberation Sans, Arial, Helvetica, sans" font-size="10.00">Mesh2DM</text>
</a>
</g>
</g>
<!-- Mesh&#45;&gt;Mesh2DM -->
<g id="edge7" class="edge">
<title>Mesh&#45;&gt;Mesh2DM</title>
<path fill="none" stroke="black" stroke-width="0.5" d="M108.18,-361.76C124.89,-363.69 146.27,-368.36 162,-379.5 186.14,-396.6 174.71,-417.25 198,-435.5 202.74,-439.22 208.29,-442.19 213.98,-444.56"/>
<polygon fill="black" stroke="black" stroke-width="0.5" points="213.48,-446.25 218.78,-446.42 214.75,-442.98 213.48,-446.25"/>
</g>
<!-- Mesh3DM -->
<g id="node12" class="node">
<title>Mesh3DM</title>
<g id="a_node12"><a xlink:href="../api/proteus.MeshTools.html#proteus.MeshTools.Mesh3DM" xlink:title="A Mesh for reading in tetrahedral meshes in the .3dm format" target="_top">
<polygon fill="none" stroke="black" stroke-width="0.5" points="284,-426 219,-426 219,-407 284,-407 284,-426"/>
<text text-anchor="middle" x="251.5" y="-414" font-family="Vera Sans, DejaVu Sans, Liberation Sans, Arial, Helvetica, sans" font-size="10.00">Mesh3DM</text>
</a>
</g>
</g>
<!-- Mesh&#45;&gt;Mesh3DM -->
<g id="edge8" class="edge">
<title>Mesh&#45;&gt;Mesh3DM</title>
<path fill="none" stroke="black" stroke-width="0.5" d="M108.07,-364.96C123.96,-368.1 144.49,-372.92 162,-379.5 178.94,-385.86 181.39,-391.32 198,-398.5 203.46,-400.86 209.34,-403.13 215.12,-405.21"/>
<polygon fill="black" stroke="black" stroke-width="0.5" points="214.64,-406.9 219.93,-406.92 215.8,-403.6 214.64,-406.9"/>
</g>
<!-- MultilevelMesh -->
<g id="node16" class="node">
<title>MultilevelMesh</title>
<g id="a_node16"><a xlink:href="../api/proteus.MeshTools.html#proteus.MeshTools.MultilevelMesh" xlink:title="A hierchical multilevel mesh" target="_top">
<polygon fill="none" stroke="black" stroke-width="0.5" points="297.5,-389 205.5,-389 205.5,-370 297.5,-370 297.5,-389"/>
<text text-anchor="middle" x="251.5" y="-377" font-family="Vera Sans, DejaVu Sans, Liberation Sans, Arial, Helvetica, sans" font-size="10.00">MultilevelMesh</text>
</a>
</g>
</g>
<!-- Mesh&#45;&gt;MultilevelMesh -->
<g id="edge11" class="edge">
<title>Mesh&#45;&gt;MultilevelMesh</title>
<path fill="none" stroke="black" stroke-width="0.5" d="M108.33,-363.47C132.83,-366.23 169.99,-370.42 200.18,-373.83"/>
<polygon fill="black" stroke="black" stroke-width="0.5" points="200.18,-375.59 205.35,-374.41 200.57,-372.11 200.18,-375.59"/>
</g>
<!-- PointMesh -->
<g id="node25" class="node">
<title>PointMesh</title>
<g id="a_node25"><a xlink:href="../api/proteus.MeshTools.html#proteus.MeshTools.PointMesh" xlink:title="0D mesh" target="_top">
<polygon fill="none" stroke="black" stroke-width="0.5" points="285.5,-352 217.5,-352 217.5,-333 285.5,-333 285.5,-352"/>
<text text-anchor="middle" x="251.5" y="-340" font-family="Vera Sans, DejaVu Sans, Liberation Sans, Arial, Helvetica, sans" font-size="10.00">PointMesh</text>
</a>
</g>
</g>
<!-- Mesh&#45;&gt;PointMesh -->
<g id="edge19" class="edge">
<title>Mesh&#45;&gt;PointMesh</title>
<path fill="none" stroke="black" stroke-width="0.5" d="M108.33,-357.69C136.27,-354.7 180.68,-349.96 212.43,-346.57"/>
<polygon fill="black" stroke="black" stroke-width="0.5" points="212.63,-348.31 217.41,-346.03 212.25,-344.83 212.63,-348.31"/>
</g>
<!-- QuadrilateralGrid -->
<g id="node28" class="node">
<title>QuadrilateralGrid</title>
<g id="a_node28"><a xlink:href="../api/proteus.MeshTools.html#proteus.MeshTools.QuadrilateralGrid" xlink:title="A 2D regular grid of quadrilateral cells" target="_top">
<polygon fill="none" stroke="black" stroke-width="0.5" points="302,-315 201,-315 201,-296 302,-296 302,-315"/>
<text text-anchor="middle" x="251.5" y="-303" font-family="Vera Sans, DejaVu Sans, Liberation Sans, Arial, Helvetica, sans" font-size="10.00">QuadrilateralGrid</text>
</a>
</g>
</g>
<!-- Mesh&#45;&gt;QuadrilateralGrid -->
<g id="edge23" class="edge">
<title>Mesh&#45;&gt;QuadrilateralGrid</title>
<path fill="none" stroke="black" stroke-width="0.5" d="M108.33,-351.91C137.41,-342.41 184.34,-327.1 216.26,-316.68"/>
<polygon fill="black" stroke="black" stroke-width="0.5" points="217.04,-318.26 221.25,-315.05 215.95,-314.94 217.04,-318.26"/>
</g>
<!-- QuadrilateralMesh -->
<g id="node29" class="node">
<title>QuadrilateralMesh</title>
<g id="a_node29"><a xlink:href="../api/proteus.MeshTools.html#proteus.MeshTools.QuadrilateralMesh" xlink:title="A mesh of quads" target="_top">
<polygon fill="none" stroke="black" stroke-width="0.5" points="305,-278 198,-278 198,-259 305,-259 305,-278"/>
<text text-anchor="middle" x="251.5" y="-266" font-family="Vera Sans, DejaVu Sans, Liberation Sans, Arial, Helvetica, sans" font-size="10.00">QuadrilateralMesh</text>
</a>
</g>
</g>
<!-- Mesh&#45;&gt;QuadrilateralMesh -->
<g id="edge24" class="edge">
<title>Mesh&#45;&gt;QuadrilateralMesh</title>
<path fill="none" stroke="black" stroke-width="0.5" d="M95.03,-350.99C115.95,-336.02 158.66,-306.72 198,-287.5 203.58,-284.77 209.65,-282.22 215.63,-279.93"/>
<polygon fill="black" stroke="black" stroke-width="0.5" points="216.54,-281.46 220.61,-278.06 215.31,-278.18 216.54,-281.46"/>
</g>
<!-- RectangularGrid -->
<g id="node30" class="node">
<title>RectangularGrid</title>
<g id="a_node30"><a xlink:href="../api/proteus.MeshTools.html#proteus.MeshTools.RectangularGrid" xlink:title="A regular partition into rectangles." target="_top">
<polygon fill="none" stroke="black" stroke-width="0.5" points="299,-241 204,-241 204,-222 299,-222 299,-241"/>
<text text-anchor="middle" x="251.5" y="-229" font-family="Vera Sans, DejaVu Sans, Liberation Sans, Arial, Helvetica, sans" font-size="10.00">RectangularGrid</text>
</a>
</g>
</g>
<!-- Mesh&#45;&gt;RectangularGrid -->
<g id="edge25" class="edge">
<title>Mesh&#45;&gt;RectangularGrid</title>
<path fill="none" stroke="black" stroke-width="0.5" d="M89.7,-350.88C106.98,-329.89 151,-279.51 198,-250.5 202.61,-247.65 207.71,-245.15 212.86,-242.96"/>
<polygon fill="black" stroke="black" stroke-width="0.5" points="213.62,-244.54 217.6,-241.05 212.31,-241.3 213.62,-244.54"/>
</g>
<!-- TetrahedralMesh -->
<g id="node31" class="node">
<title>TetrahedralMesh</title>
<g id="a_node31"><a xlink:href="../api/proteus.MeshTools.html#proteus.MeshTools.TetrahedralMesh" xlink:title="A mesh of tetrahedra." target="_top">
<polygon fill="none" stroke="black" stroke-width="0.5" points="300.5,-204 202.5,-204 202.5,-185 300.5,-185 300.5,-204"/>
<text text-anchor="middle" x="251.5" y="-192" font-family="Vera Sans, DejaVu Sans, Liberation Sans, Arial, Helvetica, sans" font-size="10.00">TetrahedralMesh</text>
</a>
</g>
</g>
<!-- Mesh&#45;&gt;TetrahedralMesh -->
<g id="edge26" class="edge">
<title>Mesh&#45;&gt;TetrahedralMesh</title>
<path fill="none" stroke="black" stroke-width="0.5" d="M87.12,-350.73C101.26,-324.68 143.43,-252.87 198,-213.5 201.95,-210.65 206.37,-208.19 210.93,-206.07"/>
<polygon fill="black" stroke="black" stroke-width="0.5" points="211.64,-207.67 215.52,-204.06 210.24,-204.46 211.64,-207.67"/>
</g>
<!-- TriangularMesh -->
<g id="node34" class="node">
<title>TriangularMesh</title>
<g id="a_node34"><a xlink:href="../api/proteus.MeshTools.html#proteus.MeshTools.TriangularMesh" xlink:title="A mesh of triangles" target="_top">
<polygon fill="none" stroke="black" stroke-width="0.5" points="297,-167 206,-167 206,-148 297,-148 297,-167"/>
<text text-anchor="middle" x="251.5" y="-155" font-family="Vera Sans, DejaVu Sans, Liberation Sans, Arial, Helvetica, sans" font-size="10.00">TriangularMesh</text>
</a>
</g>
</g>
<!-- Mesh&#45;&gt;TriangularMesh -->
<g id="edge29" class="edge">
<title>Mesh&#45;&gt;TriangularMesh</title>
<path fill="none" stroke="black" stroke-width="0.5" d="M85.42,-350.94C96.65,-320.82 135.34,-226.94 198,-176.5 201.42,-173.75 205.27,-171.37 209.3,-169.33"/>
<polygon fill="black" stroke="black" stroke-width="0.5" points="210.3,-170.79 214.08,-167.09 208.81,-167.63 210.3,-170.79"/>
</g>
<!-- NURBSMesh -->
<g id="node23" class="node">
<title>NURBSMesh</title>
<g id="a_node23"><a xlink:href="../api/proteus.MeshTools.html#proteus.MeshTools.NURBSMesh" xlink:title="A mesh consisting of NURBS." target="_top">
<polygon fill="none" stroke="black" stroke-width="0.5" points="457,-537 380,-537 380,-518 457,-518 457,-537"/>
<text text-anchor="middle" x="418.5" y="-525" font-family="Vera Sans, DejaVu Sans, Liberation Sans, Arial, Helvetica, sans" font-size="10.00">NURBSMesh</text>
</a>
</g>
</g>
<!-- HexahedralMesh&#45;&gt;NURBSMesh -->
<g id="edge18" class="edge">
<title>HexahedralMesh&#45;&gt;NURBSMesh</title>
<path fill="none" stroke="black" stroke-width="0.5" d="M294.99,-500.03C319.51,-505.53 350.24,-512.42 374.79,-517.92"/>
<polygon fill="black" stroke="black" stroke-width="0.5" points="374.67,-519.69 379.93,-519.08 375.44,-516.27 374.67,-519.69"/>
</g>
<!-- Hexahedron -->
<g id="node7" class="node">
<title>Hexahedron</title>
<g id="a_node7"><a xlink:href="../api/proteus.MeshTools.html#proteus.MeshTools.Hexahedron" xlink:title="A 3D hexahedral element" target="_top">
<polygon fill="none" stroke="black" stroke-width="0.5" points="456.5,-130 380.5,-130 380.5,-111 456.5,-111 456.5,-130"/>
<text text-anchor="middle" x="418.5" y="-118" font-family="Vera Sans, DejaVu Sans, Liberation Sans, Arial, Helvetica, sans" font-size="10.00">Hexahedron</text>
</a>
</g>
</g>
<!-- Polyhedron&#45;&gt;Hexahedron -->
<g id="edge5" class="edge">
<title>Polyhedron&#45;&gt;Hexahedron</title>
<path fill="none" stroke="black" stroke-width="0.5" d="M287.09,-91.26C312.8,-97.02 348.01,-104.92 375.36,-111.05"/>
<polygon fill="black" stroke="black" stroke-width="0.5" points="375.11,-112.79 380.38,-112.18 375.88,-109.37 375.11,-112.79"/>
</g>
<!-- Tetrahedron -->
<g id="node32" class="node">
<title>Tetrahedron</title>
<g id="a_node32"><a xlink:href="../api/proteus.MeshTools.html#proteus.MeshTools.Tetrahedron" xlink:title="A 3D tetrahedral element" target="_top">
<polygon fill="none" stroke="black" stroke-width="0.5" points="455.5,-93 381.5,-93 381.5,-74 455.5,-74 455.5,-93"/>
<text text-anchor="middle" x="418.5" y="-81" font-family="Vera Sans, DejaVu Sans, Liberation Sans, Arial, Helvetica, sans" font-size="10.00">Tetrahedron</text>
</a>
</g>
</g>
<!-- Polyhedron&#45;&gt;Tetrahedron -->
<g id="edge27" class="edge">
<title>Polyhedron&#45;&gt;Tetrahedron</title>
<path fill="none" stroke="black" stroke-width="0.5" d="M287.09,-83.5C313.07,-83.5 348.74,-83.5 376.21,-83.5"/>
<polygon fill="black" stroke="black" stroke-width="0.5" points="376.24,-85.25 381.24,-83.5 376.24,-81.75 376.24,-85.25"/>
</g>
<!-- InterpolatedBathymetryMesh -->
<g id="node9" class="node">
<title>InterpolatedBathymetryMesh</title>
<g id="a_node9"><a xlink:href="../api/proteus.MeshTools.html#proteus.MeshTools.InterpolatedBathymetryMesh" xlink:title="A triangular mesh that interpolates bathymetry from a point cloud" target="_top">
<polygon fill="none" stroke="black" stroke-width="0.5" points="692,-500 532,-500 532,-481 692,-481 692,-500"/>
<text text-anchor="middle" x="612" y="-488" font-family="Vera Sans, DejaVu Sans, Liberation Sans, Arial, Helvetica, sans" font-size="10.00">InterpolatedBathymetryMesh</text>
</a>
</g>
</g>
<!-- MultilevelTriangularMesh -->
<g id="node10" class="node">
<title>MultilevelTriangularMesh</title>
<g id="a_node10"><a xlink:href="../api/proteus.MeshTools.html#proteus.MeshTools.MultilevelTriangularMesh" xlink:title="A hierarchical &#160;multilevel mesh of triangular cells" target="_top">
<polygon fill="none" stroke="black" stroke-width="0.5" points="488.5,-500 348.5,-500 348.5,-481 488.5,-481 488.5,-500"/>
<text text-anchor="middle" x="418.5" y="-488" font-family="Vera Sans, DejaVu Sans, Liberation Sans, Arial, Helvetica, sans" font-size="10.00">MultilevelTriangularMesh</text>
</a>
</g>
</g>
<!-- MultilevelTriangularMesh&#45;&gt;InterpolatedBathymetryMesh -->
<g id="edge6" class="edge">
<title>MultilevelTriangularMesh&#45;&gt;InterpolatedBathymetryMesh</title>
<path fill="none" stroke="black" stroke-width="0.5" d="M488.64,-490.5C501.03,-490.5 514.06,-490.5 526.82,-490.5"/>
<polygon fill="black" stroke="black" stroke-width="0.5" points="526.88,-492.25 531.88,-490.5 526.88,-488.75 526.88,-492.25"/>
</g>
<!-- MeshOptions -->
<g id="node13" class="node">
<title>MeshOptions</title>
<g id="a_node13"><a xlink:href="../api/proteus.MeshTools.html#proteus.MeshTools.MeshOptions" xlink:title="Mesh options for the domain" target="_top">
<polygon fill="none" stroke="black" stroke-width="0.5" points="121,-407 41,-407 41,-388 121,-388 121,-407"/>
<text text-anchor="middle" x="81" y="-395" font-family="Vera Sans, DejaVu Sans, Liberation Sans, Arial, Helvetica, sans" font-size="10.00">MeshOptions</text>
</a>
</g>
</g>
<!-- MeshParallelPartitioningTypes -->
<g id="node14" class="node">
<title>MeshParallelPartitioningTypes</title>
<g id="a_node14"><a xlink:href="../api/proteus.MeshTools.html#proteus.MeshTools.MeshParallelPartitioningTypes" xlink:title="fake an enum for parallel partitioning options" target="_top">
<polygon fill="none" stroke="black" stroke-width="0.5" points="162,-444 0,-444 0,-425 162,-425 162,-444"/>
<text text-anchor="middle" x="81" y="-432" font-family="Vera Sans, DejaVu Sans, Liberation Sans, Arial, Helvetica, sans" font-size="10.00">MeshParallelPartitioningTypes</text>
</a>
</g>
</g>
<!-- MultilevelEdgeMesh -->
<g id="node15" class="node">
<title>MultilevelEdgeMesh</title>
<g id="a_node15"><a xlink:href="../api/proteus.MeshTools.html#proteus.MeshTools.MultilevelEdgeMesh" xlink:title="A hierarchical multilevel mesh of intervals (edges)" target="_top">
<polygon fill="none" stroke="black" stroke-width="0.5" points="476.5,-463 360.5,-463 360.5,-444 476.5,-444 476.5,-463"/>
<text text-anchor="middle" x="418.5" y="-451" font-family="Vera Sans, DejaVu Sans, Liberation Sans, Arial, Helvetica, sans" font-size="10.00">MultilevelEdgeMesh</text>
</a>
</g>
</g>
<!-- MultilevelMesh&#45;&gt;MultilevelTriangularMesh -->
<g id="edge17" class="edge">
<title>MultilevelMesh&#45;&gt;MultilevelTriangularMesh</title>
<path fill="none" stroke="black" stroke-width="0.5" d="M290.1,-389.02C295.5,-391.5 300.68,-394.61 305,-398.5 332.19,-422.96 312.44,-449.66 341,-472.5 343.93,-474.84 347.11,-476.89 350.46,-478.68"/>
<polygon fill="black" stroke="black" stroke-width="0.5" points="349.86,-480.33 355.12,-480.96 351.4,-477.19 349.86,-480.33"/>
</g>
<!-- MultilevelMesh&#45;&gt;MultilevelEdgeMesh -->
<g id="edge9" class="edge">
<title>MultilevelMesh&#45;&gt;MultilevelEdgeMesh</title>
<path fill="none" stroke="black" stroke-width="0.5" d="M286.07,-389.08C292.6,-391.64 299.22,-394.77 305,-398.5 324.28,-410.94 321.03,-424.2 341,-435.5 345.64,-438.12 350.64,-440.37 355.79,-442.28"/>
<polygon fill="black" stroke="black" stroke-width="0.5" points="355.25,-443.95 360.55,-443.95 356.41,-440.65 355.25,-443.95"/>
</g>
<!-- MultilevelHexahedralMesh -->
<g id="node17" class="node">
<title>MultilevelHexahedralMesh</title>
<g id="a_node17"><a xlink:href="../api/proteus.MeshTools.html#proteus.MeshTools.MultilevelHexahedralMesh" xlink:title="A hierarchical multilevel mesh with hexahedral cells" target="_top">
<polygon fill="none" stroke="black" stroke-width="0.5" points="492.5,-426 344.5,-426 344.5,-407 492.5,-407 492.5,-426"/>
<text text-anchor="middle" x="418.5" y="-414" font-family="Vera Sans, DejaVu Sans, Liberation Sans, Arial, Helvetica, sans" font-size="10.00">MultilevelHexahedralMesh</text>
</a>
</g>
</g>
<!-- MultilevelMesh&#45;&gt;MultilevelHexahedralMesh -->
<g id="edge10" class="edge">
<title>MultilevelMesh&#45;&gt;MultilevelHexahedralMesh</title>
<path fill="none" stroke="black" stroke-width="0.5" d="M294.99,-389.03C317.9,-394.17 346.24,-400.52 369.89,-405.82"/>
<polygon fill="black" stroke="black" stroke-width="0.5" points="369.6,-407.55 374.87,-406.94 370.37,-404.14 369.6,-407.55"/>
</g>
<!-- MultilevelNURBSMesh -->
<g id="node18" class="node">
<title>MultilevelNURBSMesh</title>
<g id="a_node18"><a xlink:href="../api/proteus.MeshTools.html#proteus.MeshTools.MultilevelNURBSMesh" xlink:title="MultilevelNURBSMesh" target="_top">
<polygon fill="none" stroke="black" stroke-width="0.5" points="481.5,-389 355.5,-389 355.5,-370 481.5,-370 481.5,-389"/>
<text text-anchor="middle" x="418.5" y="-377" font-family="Vera Sans, DejaVu Sans, Liberation Sans, Arial, Helvetica, sans" font-size="10.00">MultilevelNURBSMesh</text>
</a>
</g>
</g>
<!-- MultilevelMesh&#45;&gt;MultilevelNURBSMesh -->
<g id="edge12" class="edge">
<title>MultilevelMesh&#45;&gt;MultilevelNURBSMesh</title>
<path fill="none" stroke="black" stroke-width="0.5" d="M297.59,-379.5C313.76,-379.5 332.36,-379.5 350.01,-379.5"/>
<polygon fill="black" stroke="black" stroke-width="0.5" points="350.46,-381.25 355.46,-379.5 350.46,-377.75 350.46,-381.25"/>
</g>
<!-- MultilevelQuadrilateralMesh -->
<g id="node19" class="node">
<title>MultilevelQuadrilateralMesh</title>
<g id="a_node19"><a xlink:href="../api/proteus.MeshTools.html#proteus.MeshTools.MultilevelQuadrilateralMesh" xlink:title="A heirarchical multilevel mesh of quadrilaterals" target="_top">
<polygon fill="none" stroke="black" stroke-width="0.5" points="496,-352 341,-352 341,-333 496,-333 496,-352"/>
<text text-anchor="middle" x="418.5" y="-340" font-family="Vera Sans, DejaVu Sans, Liberation Sans, Arial, Helvetica, sans" font-size="10.00">MultilevelQuadrilateralMesh</text>
</a>
</g>
</g>
<!-- MultilevelMesh&#45;&gt;MultilevelQuadrilateralMesh -->
<g id="edge13" class="edge">
<title>MultilevelMesh&#45;&gt;MultilevelQuadrilateralMesh</title>
<path fill="none" stroke="black" stroke-width="0.5" d="M294.99,-369.97C317.9,-364.83 346.24,-358.48 369.89,-353.18"/>
<polygon fill="black" stroke="black" stroke-width="0.5" points="370.37,-354.86 374.87,-352.06 369.6,-351.45 370.37,-354.86"/>
</g>
<!-- MultilevelRectangularGrid -->
<g id="node20" class="node">
<title>MultilevelRectangularGrid</title>
<g id="a_node20"><a xlink:href="../api/proteus.MeshTools.html#proteus.MeshTools.MultilevelRectangularGrid" xlink:title="A hierarchical multilevel grid" target="_top">
<polygon fill="none" stroke="black" stroke-width="0.5" points="490.5,-315 346.5,-315 346.5,-296 490.5,-296 490.5,-315"/>
<text text-anchor="middle" x="418.5" y="-303" font-family="Vera Sans, DejaVu Sans, Liberation Sans, Arial, Helvetica, sans" font-size="10.00">MultilevelRectangularGrid</text>
</a>
</g>
</g>
<!-- MultilevelMesh&#45;&gt;MultilevelRectangularGrid -->
<g id="edge14" class="edge">
<title>MultilevelMesh&#45;&gt;MultilevelRectangularGrid</title>
<path fill="none" stroke="black" stroke-width="0.5" d="M287.73,-369.99C293.72,-367.66 299.71,-364.85 305,-361.5 324.38,-349.22 321.1,-335.93 341,-324.5 346.28,-321.47 352.05,-318.91 357.96,-316.76"/>
<polygon fill="black" stroke="black" stroke-width="0.5" points="358.79,-318.33 362.95,-315.05 357.65,-315.02 358.79,-318.33"/>
</g>
<!-- MultilevelSimplicialMesh -->
<g id="node21" class="node">
<title>MultilevelSimplicialMesh</title>
<g id="a_node21"><a xlink:href="../api/proteus.MeshTools.html#proteus.MeshTools.MultilevelSimplicialMesh" xlink:title="A wrapper for all the simplicial hierarchical meshes in 1,2, and 3D" target="_top">
<polygon fill="none" stroke="black" stroke-width="0.5" points="488.5,-278 348.5,-278 348.5,-259 488.5,-259 488.5,-278"/>
<text text-anchor="middle" x="418.5" y="-266" font-family="Vera Sans, DejaVu Sans, Liberation Sans, Arial, Helvetica, sans" font-size="10.00">MultilevelSimplicialMesh</text>
</a>
</g>
</g>
<!-- MultilevelMesh&#45;&gt;MultilevelSimplicialMesh -->
<g id="edge15" class="edge">
<title>MultilevelMesh&#45;&gt;MultilevelSimplicialMesh</title>
<path fill="none" stroke="black" stroke-width="0.5" d="M291.97,-369.88C296.68,-367.64 301.17,-364.88 305,-361.5 332.4,-337.27 312.58,-310.52 341,-287.5 344.44,-284.71 348.23,-282.33 352.23,-280.29"/>
<polygon fill="black" stroke="black" stroke-width="0.5" points="353.23,-281.75 357.01,-278.05 351.74,-278.58 353.23,-281.75"/>
</g>
<!-- MultilevelTetrahedralMesh -->
<g id="node22" class="node">
<title>MultilevelTetrahedralMesh</title>
<g id="a_node22"><a xlink:href="../api/proteus.MeshTools.html#proteus.MeshTools.MultilevelTetrahedralMesh" xlink:title="A hierarchical multilevel mesh with tetrahedral cells" target="_top">
<polygon fill="none" stroke="black" stroke-width="0.5" points="491.5,-241 345.5,-241 345.5,-222 491.5,-222 491.5,-241"/>
<text text-anchor="middle" x="418.5" y="-229" font-family="Vera Sans, DejaVu Sans, Liberation Sans, Arial, Helvetica, sans" font-size="10.00">MultilevelTetrahedralMesh</text>
</a>
</g>
</g>
<!-- MultilevelMesh&#45;&gt;MultilevelTetrahedralMesh -->
<g id="edge16" class="edge">
<title>MultilevelMesh&#45;&gt;MultilevelTetrahedralMesh</title>
<path fill="none" stroke="black" stroke-width="0.5" d="M293.21,-369.96C297.56,-367.71 301.62,-364.93 305,-361.5 341.37,-324.52 303.06,-285.86 341,-250.5 343.82,-247.87 346.95,-245.59 350.28,-243.61"/>
<polygon fill="black" stroke="black" stroke-width="0.5" points="351.37,-245.01 354.94,-241.1 349.71,-241.93 351.37,-245.01"/>
</g>
<!-- Node -->
<g id="node24" class="node">
<title>Node</title>
<g id="a_node24"><a xlink:href="../api/proteus.MeshTools.html#proteus.MeshTools.Node" xlink:title="A numbered point in 3D Euclidean space" target="_top">
<polygon fill="none" stroke="black" stroke-width="0.5" points="108,-481 54,-481 54,-462 108,-462 108,-481"/>
<text text-anchor="middle" x="81" y="-469" font-family="Vera Sans, DejaVu Sans, Liberation Sans, Arial, Helvetica, sans" font-size="10.00">Node</text>
</a>
</g>
</g>
<!-- Quadrilateral -->
<g id="node27" class="node">
<title>Quadrilateral</title>
<g id="a_node27"><a xlink:href="../api/proteus.MeshTools.html#proteus.MeshTools.Quadrilateral" xlink:title="A 2D quadrilateral element" target="_top">
<polygon fill="none" stroke="black" stroke-width="0.5" points="458.5,-56 378.5,-56 378.5,-37 458.5,-37 458.5,-56"/>
<text text-anchor="middle" x="418.5" y="-44" font-family="Vera Sans, DejaVu Sans, Liberation Sans, Arial, Helvetica, sans" font-size="10.00">Quadrilateral</text>
</a>
</g>
</g>
<!-- Polygon&#45;&gt;Quadrilateral -->
<g id="edge22" class="edge">
<title>Polygon&#45;&gt;Quadrilateral</title>
<path fill="none" stroke="black" stroke-width="0.5" d="M279.75,-46.5C305.19,-46.5 343.6,-46.5 373.4,-46.5"/>
<polygon fill="black" stroke="black" stroke-width="0.5" points="373.48,-48.25 378.48,-46.5 373.48,-44.75 373.48,-48.25"/>
</g>
<!-- Triangle -->
<g id="node33" class="node">
<title>Triangle</title>
<g id="a_node33"><a xlink:href="../api/proteus.MeshTools.html#proteus.MeshTools.Triangle" xlink:title="A 2D triangular element" target="_top">
<polygon fill="none" stroke="black" stroke-width="0.5" points="446,-19 391,-19 391,0 446,0 446,-19"/>
<text text-anchor="middle" x="418.5" y="-7" font-family="Vera Sans, DejaVu Sans, Liberation Sans, Arial, Helvetica, sans" font-size="10.00">Triangle</text>
</a>
</g>
</g>
<!-- Polygon&#45;&gt;Triangle -->
<g id="edge28" class="edge">
<title>Polygon&#45;&gt;Triangle</title>
<path fill="none" stroke="black" stroke-width="0.5" d="M279.75,-40.39C308.82,-33.87 354.84,-23.55 385.58,-16.66"/>
<polygon fill="black" stroke="black" stroke-width="0.5" points="386.26,-18.3 390.76,-15.5 385.5,-14.88 386.26,-18.3"/>
</g>
</g>
</svg>
