<?xml version="1.0" encoding="UTF-8" standalone="no"?>
<!DOCTYPE svg PUBLIC "-//W3C//DTD SVG 1.1//EN"
 "http://www.w3.org/Graphics/SVG/1.1/DTD/svg11.dtd">
<!-- Generated by graphviz version 2.42.3 (0)
 -->
<!-- Title: inheritancee01062b6ab Pages: 1 -->
<svg width="576pt" height="387pt"
 viewBox="0.00 0.00 576.00 386.71" xmlns="http://www.w3.org/2000/svg" xmlns:xlink="http://www.w3.org/1999/xlink">
<g id="graph0" class="graph" transform="scale(1.6 1.6) rotate(0) translate(4 615)">
<title>inheritancee01062b6ab</title>
<polygon fill="white" stroke="transparent" points="-4,4 -4,-615 918,-615 918,4 -4,4"/>
<!-- AdvectionDiffusionReactionHaukeSangalliInterpolantWithTransientSubScales_ASGS -->
<g id="node1" class="node">
<title>AdvectionDiffusionReactionHaukeSangalliInterpolantWithTransientSubScales_ASGS</title>
<g id="a_node1"><a xlink:href="../api/proteus.SubgridError.html#proteus.SubgridError.AdvectionDiffusionReactionHaukeSangalliInterpolantWithTransientSubScales_ASGS" xlink:title="Should be basic Hauke Sangalli approach but computes terms at interpolation points" target="_top">
<polygon fill="none" stroke="black" stroke-width="0.5" points="914,-611 492,-611 492,-592 914,-592 914,-611"/>
<text text-anchor="middle" x="703" y="-599" font-family="Vera Sans, DejaVu Sans, Liberation Sans, Arial, Helvetica, sans" font-size="10.00">AdvectionDiffusionReactionHaukeSangalliInterpolantWithTransientSubScales_ASGS</text>
</a>
</g>
</g>
<!-- AdvectionDiffusionReactionHaukeSangalliInterpolant_ASGS -->
<g id="node2" class="node">
<title>AdvectionDiffusionReactionHaukeSangalliInterpolant_ASGS</title>
<g id="a_node2"><a xlink:href="../api/proteus.SubgridError.html#proteus.SubgridError.AdvectionDiffusionReactionHaukeSangalliInterpolant_ASGS" xlink:title="Should be basic Hauke Sangalli approach but computes terms at interpolation points" target="_top">
<polygon fill="none" stroke="black" stroke-width="0.5" points="456,-611 150,-611 150,-592 456,-592 456,-611"/>
<text text-anchor="middle" x="303" y="-599" font-family="Vera Sans, DejaVu Sans, Liberation Sans, Arial, Helvetica, sans" font-size="10.00">AdvectionDiffusionReactionHaukeSangalliInterpolant_ASGS</text>
</a>
</g>
</g>
<!-- AdvectionDiffusionReactionHaukeSangalliInterpolant_ASGS&#45;&gt;AdvectionDiffusionReactionHaukeSangalliInterpolantWithTransientSubScales_ASGS -->
<g id="edge1" class="edge">
<title>AdvectionDiffusionReactionHaukeSangalliInterpolant_ASGS&#45;&gt;AdvectionDiffusionReactionHaukeSangalliInterpolantWithTransientSubScales_ASGS</title>
<path fill="none" stroke="black" stroke-width="0.5" d="M456.17,-601.5C466.26,-601.5 476.52,-601.5 486.84,-601.5"/>
<polygon fill="black" stroke="black" stroke-width="0.5" points="486.91,-603.25 491.91,-601.5 486.91,-599.75 486.91,-603.25"/>
</g>
<!-- SGE_base -->
<g id="node3" class="node">
<title>SGE_base</title>
<g id="a_node3"><a xlink:href="../api/proteus.SubgridError.html#proteus.SubgridError.SGE_base" xlink:title="SGE_base" target="_top">
<polygon fill="none" stroke="black" stroke-width="0.5" points="89.5,-315 24.5,-315 24.5,-296 89.5,-296 89.5,-315"/>
<text text-anchor="middle" x="57" y="-303" font-family="Vera Sans, DejaVu Sans, Liberation Sans, Arial, Helvetica, sans" font-size="10.00">SGE_base</text>
</a>
</g>
</g>
<!-- SGE_base&#45;&gt;AdvectionDiffusionReactionHaukeSangalliInterpolant_ASGS -->
<g id="edge2" class="edge">
<title>SGE_base&#45;&gt;AdvectionDiffusionReactionHaukeSangalliInterpolant_ASGS</title>
<path fill="none" stroke="black" stroke-width="0.5" d="M89.51,-309.76C98.67,-312.53 107.85,-317.06 114,-324.5 188.06,-414.07 66.99,-502.16 150,-583.5 152.02,-585.48 154.13,-587.32 156.32,-589.04"/>
<polygon fill="black" stroke="black" stroke-width="0.5" points="155.29,-590.45 160.36,-592 157.36,-587.63 155.29,-590.45"/>
</g>
<!-- AdvectionDiffusionReaction_ASGS -->
<g id="node5" class="node">
<title>AdvectionDiffusionReaction_ASGS</title>
<g id="a_node5"><a xlink:href="../api/proteus.SubgridError.html#proteus.SubgridError.AdvectionDiffusionReaction_ASGS" xlink:title="AdvectionDiffusionReaction_ASGS" target="_top">
<polygon fill="none" stroke="black" stroke-width="0.5" points="394.5,-574 211.5,-574 211.5,-555 394.5,-555 394.5,-574"/>
<text text-anchor="middle" x="303" y="-562" font-family="Vera Sans, DejaVu Sans, Liberation Sans, Arial, Helvetica, sans" font-size="10.00">AdvectionDiffusionReaction_ASGS</text>
</a>
</g>
</g>
<!-- SGE_base&#45;&gt;AdvectionDiffusionReaction_ASGS -->
<g id="edge4" class="edge">
<title>SGE_base&#45;&gt;AdvectionDiffusionReaction_ASGS</title>
<path fill="none" stroke="black" stroke-width="0.5" d="M89.7,-309.93C98.76,-312.71 107.83,-317.21 114,-324.5 178.56,-400.81 77.82,-477.35 150,-546.5 165.19,-561.05 185.52,-568.32 206.35,-571.43"/>
<polygon fill="black" stroke="black" stroke-width="0.5" points="206.18,-573.17 211.37,-572.1 206.65,-569.7 206.18,-573.17"/>
</g>
<!-- AdvectionLag_ASGS -->
<g id="node6" class="node">
<title>AdvectionLag_ASGS</title>
<g id="a_node6"><a xlink:href="../api/proteus.SubgridError.html#proteus.SubgridError.AdvectionLag_ASGS" xlink:title="AdvectionLag_ASGS" target="_top">
<polygon fill="none" stroke="black" stroke-width="0.5" points="360,-537 246,-537 246,-518 360,-518 360,-537"/>
<text text-anchor="middle" x="303" y="-525" font-family="Vera Sans, DejaVu Sans, Liberation Sans, Arial, Helvetica, sans" font-size="10.00">AdvectionLag_ASGS</text>
</a>
</g>
</g>
<!-- SGE_base&#45;&gt;AdvectionLag_ASGS -->
<g id="edge5" class="edge">
<title>SGE_base&#45;&gt;AdvectionLag_ASGS</title>
<path fill="none" stroke="black" stroke-width="0.5" d="M89.56,-310.05C98.61,-312.84 107.72,-317.31 114,-324.5 169.1,-387.59 88.61,-452.51 150,-509.5 173.84,-531.63 209.64,-536.71 240.51,-535.99"/>
<polygon fill="black" stroke="black" stroke-width="0.5" points="240.87,-537.73 245.81,-535.81 240.75,-534.23 240.87,-537.73"/>
</g>
<!-- Advection_ASGS -->
<g id="node7" class="node">
<title>Advection_ASGS</title>
<g id="a_node7"><a xlink:href="../api/proteus.SubgridError.html#proteus.SubgridError.Advection_ASGS" xlink:title="Advection_ASGS" target="_top">
<polygon fill="none" stroke="black" stroke-width="0.5" points="351.5,-500 254.5,-500 254.5,-481 351.5,-481 351.5,-500"/>
<text text-anchor="middle" x="303" y="-488" font-family="Vera Sans, DejaVu Sans, Liberation Sans, Arial, Helvetica, sans" font-size="10.00">Advection_ASGS</text>
</a>
</g>
</g>
<!-- SGE_base&#45;&gt;Advection_ASGS -->
<g id="edge6" class="edge">
<title>SGE_base&#45;&gt;Advection_ASGS</title>
<path fill="none" stroke="black" stroke-width="0.5" d="M89.65,-310.32C98.6,-313.12 107.62,-317.53 114,-324.5 159.7,-374.44 99.33,-427.61 150,-472.5 176.53,-496 216.67,-499.9 249.04,-498.25"/>
<polygon fill="black" stroke="black" stroke-width="0.5" points="249.28,-499.98 254.16,-497.93 249.07,-496.49 249.28,-499.98"/>
</g>
<!-- DarcyFC_ASGS -->
<g id="node8" class="node">
<title>DarcyFC_ASGS</title>
<g id="a_node8"><a xlink:href="../api/proteus.SubgridError.html#proteus.SubgridError.DarcyFC_ASGS" xlink:title="basic stablization for TwophaseDarcy_fc, no advection term" target="_top">
<polygon fill="none" stroke="black" stroke-width="0.5" points="347.5,-463 258.5,-463 258.5,-444 347.5,-444 347.5,-463"/>
<text text-anchor="middle" x="303" y="-451" font-family="Vera Sans, DejaVu Sans, Liberation Sans, Arial, Helvetica, sans" font-size="10.00">DarcyFC_ASGS</text>
</a>
</g>
</g>
<!-- SGE_base&#45;&gt;DarcyFC_ASGS -->
<g id="edge7" class="edge">
<title>SGE_base&#45;&gt;DarcyFC_ASGS</title>
<path fill="none" stroke="black" stroke-width="0.5" d="M89.63,-310.72C98.47,-313.53 107.44,-317.85 114,-324.5 150.42,-361.42 109.92,-402.59 150,-435.5 178.36,-458.79 220.36,-462.19 253.03,-460.38"/>
<polygon fill="black" stroke="black" stroke-width="0.5" points="253.31,-462.12 258.19,-460.05 253.09,-458.62 253.31,-462.12"/>
</g>
<!-- FFDarcyFC_ASGS -->
<g id="node9" class="node">
<title>FFDarcyFC_ASGS</title>
<g id="a_node9"><a xlink:href="../api/proteus.SubgridError.html#proteus.SubgridError.FFDarcyFC_ASGS" xlink:title="basic stablization for TwophaseDarcy_fc_ff, only &#39;mixture&#39; equation has advection term" target="_top">
<polygon fill="none" stroke="black" stroke-width="0.5" points="353.5,-426 252.5,-426 252.5,-407 353.5,-407 353.5,-426"/>
<text text-anchor="middle" x="303" y="-414" font-family="Vera Sans, DejaVu Sans, Liberation Sans, Arial, Helvetica, sans" font-size="10.00">FFDarcyFC_ASGS</text>
</a>
</g>
</g>
<!-- SGE_base&#45;&gt;FFDarcyFC_ASGS -->
<g id="edge8" class="edge">
<title>SGE_base&#45;&gt;FFDarcyFC_ASGS</title>
<path fill="none" stroke="black" stroke-width="0.5" d="M89.65,-311.49C98.29,-314.32 107.15,-318.46 114,-324.5 141.43,-348.69 120.19,-377.31 150,-398.5 177.74,-418.22 215.78,-422.71 246.86,-422.28"/>
<polygon fill="black" stroke="black" stroke-width="0.5" points="247.22,-424.02 252.18,-422.16 247.14,-420.52 247.22,-424.02"/>
</g>
<!-- HamiltonJacobiDiffusionReaction_ASGS -->
<g id="node10" class="node">
<title>HamiltonJacobiDiffusionReaction_ASGS</title>
<g id="a_node10"><a xlink:href="../api/proteus.SubgridError.html#proteus.SubgridError.HamiltonJacobiDiffusionReaction_ASGS" xlink:title="HamiltonJacobiDiffusionReaction_ASGS" target="_top">
<polygon fill="none" stroke="black" stroke-width="0.5" points="407.5,-389 198.5,-389 198.5,-370 407.5,-370 407.5,-389"/>
<text text-anchor="middle" x="303" y="-377" font-family="Vera Sans, DejaVu Sans, Liberation Sans, Arial, Helvetica, sans" font-size="10.00">HamiltonJacobiDiffusionReaction_ASGS</text>
</a>
</g>
</g>
<!-- SGE_base&#45;&gt;HamiltonJacobiDiffusionReaction_ASGS -->
<g id="edge9" class="edge">
<title>SGE_base&#45;&gt;HamiltonJacobiDiffusionReaction_ASGS</title>
<path fill="none" stroke="black" stroke-width="0.5" d="M89.7,-313.37C97.97,-316.18 106.62,-319.84 114,-324.5 133.4,-336.75 129.43,-351.35 150,-361.5 163.38,-368.1 178.2,-372.68 193.19,-375.79"/>
<polygon fill="black" stroke="black" stroke-width="0.5" points="193.04,-377.55 198.28,-376.79 193.71,-374.11 193.04,-377.55"/>
</g>
<!-- HamiltonJacobi_ASGS -->
<g id="node11" class="node">
<title>HamiltonJacobi_ASGS</title>
<g id="a_node11"><a xlink:href="../api/proteus.SubgridError.html#proteus.SubgridError.HamiltonJacobi_ASGS" xlink:title="HamiltonJacobi_ASGS" target="_top">
<polygon fill="none" stroke="black" stroke-width="0.5" points="364,-352 242,-352 242,-333 364,-333 364,-352"/>
<text text-anchor="middle" x="303" y="-340" font-family="Vera Sans, DejaVu Sans, Liberation Sans, Arial, Helvetica, sans" font-size="10.00">HamiltonJacobi_ASGS</text>
</a>
</g>
</g>
<!-- SGE_base&#45;&gt;HamiltonJacobi_ASGS -->
<g id="edge10" class="edge">
<title>SGE_base&#45;&gt;HamiltonJacobi_ASGS</title>
<path fill="none" stroke="black" stroke-width="0.5" d="M89.81,-312.77C107.47,-316.63 129.88,-321.24 150,-324.5 178.4,-329.11 209.96,-333.03 236.93,-336.04"/>
<polygon fill="black" stroke="black" stroke-width="0.5" points="236.75,-337.78 241.91,-336.59 237.14,-334.3 236.75,-337.78"/>
</g>
<!-- HamiltonJacobi_ASGS_opt -->
<g id="node12" class="node">
<title>HamiltonJacobi_ASGS_opt</title>
<g id="a_node12"><a xlink:href="../api/proteus.SubgridError.html#proteus.SubgridError.HamiltonJacobi_ASGS_opt" xlink:title="HamiltonJacobi_ASGS_opt" target="_top">
<polygon fill="none" stroke="black" stroke-width="0.5" points="374.5,-315 231.5,-315 231.5,-296 374.5,-296 374.5,-315"/>
<text text-anchor="middle" x="303" y="-303" font-family="Vera Sans, DejaVu Sans, Liberation Sans, Arial, Helvetica, sans" font-size="10.00">HamiltonJacobi_ASGS_opt</text>
</a>
</g>
</g>
<!-- SGE_base&#45;&gt;HamiltonJacobi_ASGS_opt -->
<g id="edge11" class="edge">
<title>SGE_base&#45;&gt;HamiltonJacobi_ASGS_opt</title>
<path fill="none" stroke="black" stroke-width="0.5" d="M89.9,-305.5C124.29,-305.5 180.27,-305.5 226.08,-305.5"/>
<polygon fill="black" stroke="black" stroke-width="0.5" points="226.33,-307.25 231.33,-305.5 226.33,-303.75 226.33,-307.25"/>
</g>
<!-- NavierStokesASGS_velocity_pressure -->
<g id="node13" class="node">
<title>NavierStokesASGS_velocity_pressure</title>
<g id="a_node13"><a xlink:href="../api/proteus.SubgridError.html#proteus.SubgridError.NavierStokesASGS_velocity_pressure" xlink:title="NavierStokesASGS_velocity_pressure" target="_top">
<polygon fill="none" stroke="black" stroke-width="0.5" points="402.5,-278 203.5,-278 203.5,-259 402.5,-259 402.5,-278"/>
<text text-anchor="middle" x="303" y="-266" font-family="Vera Sans, DejaVu Sans, Liberation Sans, Arial, Helvetica, sans" font-size="10.00">NavierStokesASGS_velocity_pressure</text>
</a>
</g>
</g>
<!-- SGE_base&#45;&gt;NavierStokesASGS_velocity_pressure -->
<g id="edge12" class="edge">
<title>SGE_base&#45;&gt;NavierStokesASGS_velocity_pressure</title>
<path fill="none" stroke="black" stroke-width="0.5" d="M89.84,-298.71C107.51,-295.08 129.91,-290.72 150,-287.5 170.09,-284.28 191.75,-281.29 212.25,-278.68"/>
<polygon fill="black" stroke="black" stroke-width="0.5" points="212.69,-280.39 217.43,-278.02 212.25,-276.91 212.69,-280.39"/>
</g>
<!-- NavierStokesASGS_velocity_pressure_opt -->
<g id="node14" class="node">
<title>NavierStokesASGS_velocity_pressure_opt</title>
<g id="a_node14"><a xlink:href="../api/proteus.SubgridError.html#proteus.SubgridError.NavierStokesASGS_velocity_pressure_opt" xlink:title="NavierStokesASGS_velocity_pressure_opt" target="_top">
<polygon fill="none" stroke="black" stroke-width="0.5" points="413,-241 193,-241 193,-222 413,-222 413,-241"/>
<text text-anchor="middle" x="303" y="-229" font-family="Vera Sans, DejaVu Sans, Liberation Sans, Arial, Helvetica, sans" font-size="10.00">NavierStokesASGS_velocity_pressure_opt</text>
</a>
</g>
</g>
<!-- SGE_base&#45;&gt;NavierStokesASGS_velocity_pressure_opt -->
<g id="edge13" class="edge">
<title>SGE_base&#45;&gt;NavierStokesASGS_velocity_pressure_opt</title>
<path fill="none" stroke="black" stroke-width="0.5" d="M70.27,-295.87C87.16,-283.16 119.03,-261.16 150,-250.5 161.99,-246.37 174.78,-243.12 187.67,-240.57"/>
<polygon fill="black" stroke="black" stroke-width="0.5" points="188.22,-242.25 192.8,-239.59 187.56,-238.81 188.22,-242.25"/>
</g>
<!-- NavierStokesASGS_velocity_pressure_optV2 -->
<g id="node15" class="node">
<title>NavierStokesASGS_velocity_pressure_optV2</title>
<g id="a_node15"><a xlink:href="../api/proteus.SubgridError.html#proteus.SubgridError.NavierStokesASGS_velocity_pressure_optV2" xlink:title="NavierStokesASGS_velocity_pressure_optV2" target="_top">
<polygon fill="none" stroke="black" stroke-width="0.5" points="419.5,-204 186.5,-204 186.5,-185 419.5,-185 419.5,-204"/>
<text text-anchor="middle" x="303" y="-192" font-family="Vera Sans, DejaVu Sans, Liberation Sans, Arial, Helvetica, sans" font-size="10.00">NavierStokesASGS_velocity_pressure_optV2</text>
</a>
</g>
</g>
<!-- SGE_base&#45;&gt;NavierStokesASGS_velocity_pressure_optV2 -->
<g id="edge14" class="edge">
<title>SGE_base&#45;&gt;NavierStokesASGS_velocity_pressure_optV2</title>
<path fill="none" stroke="black" stroke-width="0.5" d="M64.24,-295.91C77.43,-276.55 110.23,-232.95 150,-213.5 159.84,-208.69 170.45,-204.93 181.33,-202.02"/>
<polygon fill="black" stroke="black" stroke-width="0.5" points="181.93,-203.67 186.34,-200.74 181.06,-200.28 181.93,-203.67"/>
</g>
<!-- ShallowWater_CFL -->
<g id="node18" class="node">
<title>ShallowWater_CFL</title>
<g id="a_node18"><a xlink:href="../api/proteus.SubgridError.html#proteus.SubgridError.ShallowWater_CFL" xlink:title="ShallowWater_CFL" target="_top">
<polygon fill="none" stroke="black" stroke-width="0.5" points="356.5,-167 249.5,-167 249.5,-148 356.5,-148 356.5,-167"/>
<text text-anchor="middle" x="303" y="-155" font-family="Vera Sans, DejaVu Sans, Liberation Sans, Arial, Helvetica, sans" font-size="10.00">ShallowWater_CFL</text>
</a>
</g>
</g>
<!-- SGE_base&#45;&gt;ShallowWater_CFL -->
<g id="edge17" class="edge">
<title>SGE_base&#45;&gt;ShallowWater_CFL</title>
<path fill="none" stroke="black" stroke-width="0.5" d="M61.59,-295.98C71.42,-271.37 101.33,-205.53 150,-176.5 178.07,-159.76 214.22,-154.71 244.22,-153.99"/>
<polygon fill="black" stroke="black" stroke-width="0.5" points="244.39,-155.74 249.36,-153.91 244.33,-152.24 244.39,-155.74"/>
</g>
<!-- StokesASGS_velocity -->
<g id="node20" class="node">
<title>StokesASGS_velocity</title>
<g id="a_node20"><a xlink:href="../api/proteus.SubgridError.html#proteus.SubgridError.StokesASGS_velocity" xlink:title="StokesASGS_velocity" target="_top">
<polygon fill="none" stroke="black" stroke-width="0.5" points="362.5,-130 243.5,-130 243.5,-111 362.5,-111 362.5,-130"/>
<text text-anchor="middle" x="303" y="-118" font-family="Vera Sans, DejaVu Sans, Liberation Sans, Arial, Helvetica, sans" font-size="10.00">StokesASGS_velocity</text>
</a>
</g>
</g>
<!-- SGE_base&#45;&gt;StokesASGS_velocity -->
<g id="edge18" class="edge">
<title>SGE_base&#45;&gt;StokesASGS_velocity</title>
<path fill="none" stroke="black" stroke-width="0.5" d="M60.09,-295.94C67.02,-266.79 92.13,-178.63 150,-139.5 175.62,-122.18 209.32,-116.67 238.48,-115.82"/>
<polygon fill="black" stroke="black" stroke-width="0.5" points="238.53,-117.57 243.49,-115.72 238.46,-114.07 238.53,-117.57"/>
</g>
<!-- StokesASGS_velocity_pressure -->
<g id="node21" class="node">
<title>StokesASGS_velocity_pressure</title>
<g id="a_node21"><a xlink:href="../api/proteus.SubgridError.html#proteus.SubgridError.StokesASGS_velocity_pressure" xlink:title="StokesASGS_velocity_pressure" target="_top">
<polygon fill="none" stroke="black" stroke-width="0.5" points="386.5,-93 219.5,-93 219.5,-74 386.5,-74 386.5,-93"/>
<text text-anchor="middle" x="303" y="-81" font-family="Vera Sans, DejaVu Sans, Liberation Sans, Arial, Helvetica, sans" font-size="10.00">StokesASGS_velocity_pressure</text>
</a>
</g>
</g>
<!-- SGE_base&#45;&gt;StokesASGS_velocity_pressure -->
<g id="edge19" class="edge">
<title>SGE_base&#45;&gt;StokesASGS_velocity_pressure</title>
<path fill="none" stroke="black" stroke-width="0.5" d="M59.11,-295.81C63.47,-262.51 82.7,-152.06 150,-102.5 168.41,-88.94 191.61,-82.34 214.3,-79.57"/>
<polygon fill="black" stroke="black" stroke-width="0.5" points="214.65,-81.29 219.43,-79 214.27,-77.81 214.65,-81.29"/>
</g>
<!-- StokesStabilization_1 -->
<g id="node22" class="node">
<title>StokesStabilization_1</title>
<g id="a_node22"><a xlink:href="../api/proteus.SubgridError.html#proteus.SubgridError.StokesStabilization_1" xlink:title="StokesStabilization_1" target="_top">
<polygon fill="none" stroke="black" stroke-width="0.5" points="363.5,-56 242.5,-56 242.5,-37 363.5,-37 363.5,-56"/>
<text text-anchor="middle" x="303" y="-44" font-family="Vera Sans, DejaVu Sans, Liberation Sans, Arial, Helvetica, sans" font-size="10.00">StokesStabilization_1</text>
</a>
</g>
</g>
<!-- SGE_base&#45;&gt;StokesStabilization_1 -->
<g id="edge20" class="edge">
<title>SGE_base&#45;&gt;StokesStabilization_1</title>
<path fill="none" stroke="black" stroke-width="0.5" d="M58.38,-295.94C60.38,-259.17 72.9,-125.9 150,-65.5 174.34,-46.43 207.93,-40.76 237.34,-40.26"/>
<polygon fill="black" stroke="black" stroke-width="0.5" points="237.41,-42.01 242.4,-40.22 237.39,-38.51 237.41,-42.01"/>
</g>
<!-- TwophaseStokes_LS_FC_ASGS -->
<g id="node23" class="node">
<title>TwophaseStokes_LS_FC_ASGS</title>
<g id="a_node23"><a xlink:href="../api/proteus.SubgridError.html#proteus.SubgridError.TwophaseStokes_LS_FC_ASGS" xlink:title="TwophaseStokes_LS_FC_ASGS" target="_top">
<polygon fill="none" stroke="black" stroke-width="0.5" points="384.5,-19 221.5,-19 221.5,0 384.5,0 384.5,-19"/>
<text text-anchor="middle" x="303" y="-7" font-family="Vera Sans, DejaVu Sans, Liberation Sans, Arial, Helvetica, sans" font-size="10.00">TwophaseStokes_LS_FC_ASGS</text>
</a>
</g>
</g>
<!-- SGE_base&#45;&gt;TwophaseStokes_LS_FC_ASGS -->
<g id="edge21" class="edge">
<title>SGE_base&#45;&gt;TwophaseStokes_LS_FC_ASGS</title>
<path fill="none" stroke="black" stroke-width="0.5" d="M57.81,-295.87C57.59,-255.52 62.57,-98.86 150,-27.5 168.45,-12.44 192.61,-5.72 216.23,-3.34"/>
<polygon fill="black" stroke="black" stroke-width="0.5" points="216.43,-5.08 221.25,-2.9 216.12,-1.6 216.43,-5.08"/>
</g>
<!-- AdvectionDiffusionReactionTransientSubscales_ASGS -->
<g id="node4" class="node">
<title>AdvectionDiffusionReactionTransientSubscales_ASGS</title>
<g id="a_node4"><a xlink:href="../api/proteus.SubgridError.html#proteus.SubgridError.AdvectionDiffusionReactionTransientSubscales_ASGS" xlink:title="track subgrid scales in time with Backward Euler" target="_top">
<polygon fill="none" stroke="black" stroke-width="0.5" points="841,-574 565,-574 565,-555 841,-555 841,-574"/>
<text text-anchor="middle" x="703" y="-562" font-family="Vera Sans, DejaVu Sans, Liberation Sans, Arial, Helvetica, sans" font-size="10.00">AdvectionDiffusionReactionTransientSubscales_ASGS</text>
</a>
</g>
</g>
<!-- AdvectionDiffusionReaction_ASGS&#45;&gt;AdvectionDiffusionReactionTransientSubscales_ASGS -->
<g id="edge3" class="edge">
<title>AdvectionDiffusionReaction_ASGS&#45;&gt;AdvectionDiffusionReactionTransientSubscales_ASGS</title>
<path fill="none" stroke="black" stroke-width="0.5" d="M394.81,-564.5C443.48,-564.5 504.57,-564.5 559.41,-564.5"/>
<polygon fill="black" stroke="black" stroke-width="0.5" points="559.7,-566.25 564.7,-564.5 559.7,-562.75 559.7,-566.25"/>
</g>
<!-- NavierStokesTransientSubScalesASGS_velocity_pressure -->
<g id="node16" class="node">
<title>NavierStokesTransientSubScalesASGS_velocity_pressure</title>
<g id="a_node16"><a xlink:href="../api/proteus.SubgridError.html#proteus.SubgridError.NavierStokesTransientSubScalesASGS_velocity_pressure" xlink:title="NavierStokesTransientSubScalesASGS_velocity_pressure" target="_top">
<polygon fill="none" stroke="black" stroke-width="0.5" points="849.5,-297 556.5,-297 556.5,-278 849.5,-278 849.5,-297"/>
<text text-anchor="middle" x="703" y="-285" font-family="Vera Sans, DejaVu Sans, Liberation Sans, Arial, Helvetica, sans" font-size="10.00">NavierStokesTransientSubScalesASGS_velocity_pressure</text>
</a>
</g>
</g>
<!-- NavierStokesASGS_velocity_pressure&#45;&gt;NavierStokesTransientSubScalesASGS_velocity_pressure -->
<g id="edge15" class="edge">
<title>NavierStokesASGS_velocity_pressure&#45;&gt;NavierStokesTransientSubScalesASGS_velocity_pressure</title>
<path fill="none" stroke="black" stroke-width="0.5" d="M402.64,-273.21C447.48,-275.35 501.54,-277.93 551.31,-280.31"/>
<polygon fill="black" stroke="black" stroke-width="0.5" points="551.34,-282.06 556.42,-280.55 551.51,-278.56 551.34,-282.06"/>
</g>
<!-- NavierStokesWithBodyForceASGS_velocity_pressure -->
<g id="node17" class="node">
<title>NavierStokesWithBodyForceASGS_velocity_pressure</title>
<g id="a_node17"><a xlink:href="../api/proteus.SubgridError.html#proteus.SubgridError.NavierStokesWithBodyForceASGS_velocity_pressure" xlink:title="NavierStokesWithBodyForceASGS_velocity_pressure" target="_top">
<polygon fill="none" stroke="black" stroke-width="0.5" points="839,-260 567,-260 567,-241 839,-241 839,-260"/>
<text text-anchor="middle" x="703" y="-248" font-family="Vera Sans, DejaVu Sans, Liberation Sans, Arial, Helvetica, sans" font-size="10.00">NavierStokesWithBodyForceASGS_velocity_pressure</text>
</a>
</g>
</g>
<!-- NavierStokesASGS_velocity_pressure&#45;&gt;NavierStokesWithBodyForceASGS_velocity_pressure -->
<g id="edge16" class="edge">
<title>NavierStokesASGS_velocity_pressure&#45;&gt;NavierStokesWithBodyForceASGS_velocity_pressure</title>
<path fill="none" stroke="black" stroke-width="0.5" d="M402.64,-264.04C450.59,-261.87 509.06,-259.23 561.57,-256.85"/>
<polygon fill="black" stroke="black" stroke-width="0.5" points="561.72,-258.6 566.63,-256.62 561.56,-255.1 561.72,-258.6"/>
</g>
<!-- SkewStabilization_1 -->
<g id="node19" class="node">
<title>SkewStabilization_1</title>
<g id="a_node19"><a xlink:href="../api/proteus.SubgridError.html#proteus.SubgridError.SkewStabilization_1" xlink:title="SkewStabilization_1" target="_top">
<polygon fill="none" stroke="black" stroke-width="0.5" points="114,-352 0,-352 0,-333 114,-333 114,-352"/>
<text text-anchor="middle" x="57" y="-340" font-family="Vera Sans, DejaVu Sans, Liberation Sans, Arial, Helvetica, sans" font-size="10.00">SkewStabilization_1</text>
</a>
</g>
</g>
</g>
</svg>
