<?xml version="1.0" encoding="UTF-8" standalone="no"?>
<!DOCTYPE svg PUBLIC "-//W3C//DTD SVG 1.1//EN"
 "http://www.w3.org/Graphics/SVG/1.1/DTD/svg11.dtd">
<!-- Generated by graphviz version 2.42.3 (0)
 -->
<!-- Title: inheritance544eebe99b Pages: 1 -->
<svg width="498pt" height="323pt"
 viewBox="0.00 0.00 498.00 323.00" xmlns="http://www.w3.org/2000/svg" xmlns:xlink="http://www.w3.org/1999/xlink">
<g id="graph0" class="graph" transform="scale(1 1) rotate(0) translate(4 319)">
<title>inheritance544eebe99b</title>
<polygon fill="white" stroke="transparent" points="-4,4 -4,-319 494,-319 494,4 -4,4"/>
<!-- Eikonal_SC -->
<g id="node1" class="node">
<title>Eikonal_SC</title>
<g id="a_node1"><a xlink:href="../api/proteus.ShockCapturing.html#proteus.ShockCapturing.Eikonal_SC" xlink:title="Eikonal_SC" target="_top">
<polygon fill="none" stroke="black" stroke-width="0.5" points="260,-315 190,-315 190,-296 260,-296 260,-315"/>
<text text-anchor="middle" x="225" y="-303" font-family="Vera Sans, DejaVu Sans, Liberation Sans, Arial, Helvetica, sans" font-size="10.00">Eikonal_SC</text>
</a>
</g>
</g>
<!-- ShockCapturing_base -->
<g id="node2" class="node">
<title>ShockCapturing_base</title>
<g id="a_node2"><a xlink:href="../api/proteus.ShockCapturing.html#proteus.ShockCapturing.ShockCapturing_base" xlink:title="ShockCapturing_base" target="_top">
<polygon fill="none" stroke="black" stroke-width="0.5" points="122,-167 0,-167 0,-148 122,-148 122,-167"/>
<text text-anchor="middle" x="61" y="-155" font-family="Vera Sans, DejaVu Sans, Liberation Sans, Arial, Helvetica, sans" font-size="10.00">ShockCapturing_base</text>
</a>
</g>
</g>
<!-- ShockCapturing_base&#45;&gt;Eikonal_SC -->
<g id="edge1" class="edge">
<title>ShockCapturing_base&#45;&gt;Eikonal_SC</title>
<path fill="none" stroke="black" stroke-width="0.5" d="M66.26,-167.05C77.53,-191.19 110.55,-255 158,-287.5 166.01,-292.99 175.64,-296.8 185.03,-299.46"/>
<polygon fill="black" stroke="black" stroke-width="0.5" points="184.63,-301.16 189.91,-300.75 185.52,-297.78 184.63,-301.16"/>
</g>
<!-- HamiltonJacobiJaffre_SC -->
<g id="node3" class="node">
<title>HamiltonJacobiJaffre_SC</title>
<g id="a_node3"><a xlink:href="../api/proteus.ShockCapturing.html#proteus.ShockCapturing.HamiltonJacobiJaffre_SC" xlink:title="HamiltonJacobiJaffre_SC" target="_top">
<polygon fill="none" stroke="black" stroke-width="0.5" points="292,-278 158,-278 158,-259 292,-259 292,-278"/>
<text text-anchor="middle" x="225" y="-266" font-family="Vera Sans, DejaVu Sans, Liberation Sans, Arial, Helvetica, sans" font-size="10.00">HamiltonJacobiJaffre_SC</text>
</a>
</g>
</g>
<!-- ShockCapturing_base&#45;&gt;HamiltonJacobiJaffre_SC -->
<g id="edge2" class="edge">
<title>ShockCapturing_base&#45;&gt;HamiltonJacobiJaffre_SC</title>
<path fill="none" stroke="black" stroke-width="0.5" d="M69.06,-167.01C83.56,-185.86 118.68,-228.1 158,-250.5 162.58,-253.11 167.56,-255.36 172.66,-257.29"/>
<polygon fill="black" stroke="black" stroke-width="0.5" points="172.07,-258.94 177.37,-258.97 173.25,-255.64 172.07,-258.94"/>
</g>
<!-- HamiltonJacobi_SC -->
<g id="node4" class="node">
<title>HamiltonJacobi_SC</title>
<g id="a_node4"><a xlink:href="../api/proteus.ShockCapturing.html#proteus.ShockCapturing.HamiltonJacobi_SC" xlink:title="HamiltonJacobi_SC" target="_top">
<polygon fill="none" stroke="black" stroke-width="0.5" points="279.5,-241 170.5,-241 170.5,-222 279.5,-222 279.5,-241"/>
<text text-anchor="middle" x="225" y="-229" font-family="Vera Sans, DejaVu Sans, Liberation Sans, Arial, Helvetica, sans" font-size="10.00">HamiltonJacobi_SC</text>
</a>
</g>
</g>
<!-- ShockCapturing_base&#45;&gt;HamiltonJacobi_SC -->
<g id="edge3" class="edge">
<title>ShockCapturing_base&#45;&gt;HamiltonJacobi_SC</title>
<path fill="none" stroke="black" stroke-width="0.5" d="M75.71,-167.06C93.82,-179.31 127.04,-200.51 158,-213.5 164.2,-216.1 170.88,-218.43 177.53,-220.48"/>
<polygon fill="black" stroke="black" stroke-width="0.5" points="177.31,-222.24 182.6,-222 178.31,-218.89 177.31,-222.24"/>
</g>
<!-- JaffreGradU_SC -->
<g id="node5" class="node">
<title>JaffreGradU_SC</title>
<g id="a_node5"><a xlink:href="../api/proteus.ShockCapturing.html#proteus.ShockCapturing.JaffreGradU_SC" xlink:title="JaffreGradU_SC" target="_top">
<polygon fill="none" stroke="black" stroke-width="0.5" points="270.5,-204 179.5,-204 179.5,-185 270.5,-185 270.5,-204"/>
<text text-anchor="middle" x="225" y="-192" font-family="Vera Sans, DejaVu Sans, Liberation Sans, Arial, Helvetica, sans" font-size="10.00">JaffreGradU_SC</text>
</a>
</g>
</g>
<!-- ShockCapturing_base&#45;&gt;JaffreGradU_SC -->
<g id="edge4" class="edge">
<title>ShockCapturing_base&#45;&gt;JaffreGradU_SC</title>
<path fill="none" stroke="black" stroke-width="0.5" d="M103.72,-167.03C126.21,-172.17 154.04,-178.52 177.26,-183.82"/>
<polygon fill="black" stroke="black" stroke-width="0.5" points="176.88,-185.53 182.14,-184.94 177.66,-182.12 176.88,-185.53"/>
</g>
<!-- ResGradQuad_SC -->
<g id="node7" class="node">
<title>ResGradQuad_SC</title>
<g id="a_node7"><a xlink:href="../api/proteus.ShockCapturing.html#proteus.ShockCapturing.ResGradQuad_SC" xlink:title="ResGradQuad_SC" target="_top">
<polygon fill="none" stroke="black" stroke-width="0.5" points="275.5,-167 174.5,-167 174.5,-148 275.5,-148 275.5,-167"/>
<text text-anchor="middle" x="225" y="-155" font-family="Vera Sans, DejaVu Sans, Liberation Sans, Arial, Helvetica, sans" font-size="10.00">ResGradQuad_SC</text>
</a>
</g>
</g>
<!-- ShockCapturing_base&#45;&gt;ResGradQuad_SC -->
<g id="edge12" class="edge">
<title>ShockCapturing_base&#45;&gt;ResGradQuad_SC</title>
<path fill="none" stroke="black" stroke-width="0.5" d="M122.32,-157.5C137.76,-157.5 154.27,-157.5 169.4,-157.5"/>
<polygon fill="black" stroke="black" stroke-width="0.5" points="169.48,-159.25 174.48,-157.5 169.48,-155.75 169.48,-159.25"/>
</g>
<!-- ResGrad_SC -->
<g id="node10" class="node">
<title>ResGrad_SC</title>
<g id="a_node10"><a xlink:href="../api/proteus.ShockCapturing.html#proteus.ShockCapturing.ResGrad_SC" xlink:title="ResGrad_SC" target="_top">
<polygon fill="none" stroke="black" stroke-width="0.5" points="263,-130 187,-130 187,-111 263,-111 263,-130"/>
<text text-anchor="middle" x="225" y="-118" font-family="Vera Sans, DejaVu Sans, Liberation Sans, Arial, Helvetica, sans" font-size="10.00">ResGrad_SC</text>
</a>
</g>
</g>
<!-- ShockCapturing_base&#45;&gt;ResGrad_SC -->
<g id="edge13" class="edge">
<title>ShockCapturing_base&#45;&gt;ResGrad_SC</title>
<path fill="none" stroke="black" stroke-width="0.5" d="M103.72,-147.97C127.7,-142.49 157.74,-135.63 181.8,-130.14"/>
<polygon fill="black" stroke="black" stroke-width="0.5" points="182.36,-131.81 186.84,-128.99 181.58,-128.39 182.36,-131.81"/>
</g>
<!-- ResGradFFDarcy_SC -->
<g id="node12" class="node">
<title>ResGradFFDarcy_SC</title>
<g id="a_node12"><a xlink:href="../api/proteus.ShockCapturing.html#proteus.ShockCapturing.ResGradFFDarcy_SC" xlink:title="ResGradFFDarcy_SC" target="_top">
<polygon fill="none" stroke="black" stroke-width="0.5" points="283,-93 167,-93 167,-74 283,-74 283,-93"/>
<text text-anchor="middle" x="225" y="-81" font-family="Vera Sans, DejaVu Sans, Liberation Sans, Arial, Helvetica, sans" font-size="10.00">ResGradFFDarcy_SC</text>
</a>
</g>
</g>
<!-- ShockCapturing_base&#45;&gt;ResGradFFDarcy_SC -->
<g id="edge9" class="edge">
<title>ShockCapturing_base&#45;&gt;ResGradFFDarcy_SC</title>
<path fill="none" stroke="black" stroke-width="0.5" d="M76.08,-147.99C94.31,-136.01 127.4,-115.45 158,-102.5 164.96,-99.56 172.52,-96.9 179.95,-94.58"/>
<polygon fill="black" stroke="black" stroke-width="0.5" points="180.8,-96.15 185.07,-93.03 179.78,-92.81 180.8,-96.15"/>
</g>
<!-- ResGradJuanes_SC -->
<g id="node13" class="node">
<title>ResGradJuanes_SC</title>
<g id="a_node13"><a xlink:href="../api/proteus.ShockCapturing.html#proteus.ShockCapturing.ResGradJuanes_SC" xlink:title="ResGradJuanes_SC" target="_top">
<polygon fill="none" stroke="black" stroke-width="0.5" points="279,-56 171,-56 171,-37 279,-37 279,-56"/>
<text text-anchor="middle" x="225" y="-44" font-family="Vera Sans, DejaVu Sans, Liberation Sans, Arial, Helvetica, sans" font-size="10.00">ResGradJuanes_SC</text>
</a>
</g>
</g>
<!-- ShockCapturing_base&#45;&gt;ResGradJuanes_SC -->
<g id="edge10" class="edge">
<title>ShockCapturing_base&#45;&gt;ResGradJuanes_SC</title>
<path fill="none" stroke="black" stroke-width="0.5" d="M69.06,-147.99C83.56,-129.14 118.68,-86.9 158,-64.5 162.58,-61.89 167.56,-59.64 172.66,-57.71"/>
<polygon fill="black" stroke="black" stroke-width="0.5" points="173.25,-59.36 177.37,-56.03 172.07,-56.06 173.25,-59.36"/>
</g>
<!-- ScalarAdvection_SC -->
<g id="node15" class="node">
<title>ScalarAdvection_SC</title>
<g id="a_node15"><a xlink:href="../api/proteus.ShockCapturing.html#proteus.ShockCapturing.ScalarAdvection_SC" xlink:title="ScalarAdvection_SC" target="_top">
<polygon fill="none" stroke="black" stroke-width="0.5" points="281.5,-19 168.5,-19 168.5,0 281.5,0 281.5,-19"/>
<text text-anchor="middle" x="225" y="-7" font-family="Vera Sans, DejaVu Sans, Liberation Sans, Arial, Helvetica, sans" font-size="10.00">ScalarAdvection_SC</text>
</a>
</g>
</g>
<!-- ShockCapturing_base&#45;&gt;ScalarAdvection_SC -->
<g id="edge14" class="edge">
<title>ShockCapturing_base&#45;&gt;ScalarAdvection_SC</title>
<path fill="none" stroke="black" stroke-width="0.5" d="M66.26,-147.95C77.53,-123.81 110.55,-60 158,-27.5 161.59,-25.04 165.51,-22.92 169.58,-21.08"/>
<polygon fill="black" stroke="black" stroke-width="0.5" points="170.49,-22.6 174.43,-19.06 169.14,-19.37 170.49,-22.6"/>
</g>
<!-- NavierStokes_SC -->
<g id="node6" class="node">
<title>NavierStokes_SC</title>
<g id="a_node6"><a xlink:href="../api/proteus.ShockCapturing.html#proteus.ShockCapturing.NavierStokes_SC" xlink:title="NavierStokes_SC" target="_top">
<polygon fill="none" stroke="black" stroke-width="0.5" points="458.5,-241 359.5,-241 359.5,-222 458.5,-222 458.5,-241"/>
<text text-anchor="middle" x="409" y="-229" font-family="Vera Sans, DejaVu Sans, Liberation Sans, Arial, Helvetica, sans" font-size="10.00">NavierStokes_SC</text>
</a>
</g>
</g>
<!-- ResGradQuad_SC&#45;&gt;NavierStokes_SC -->
<g id="edge5" class="edge">
<title>ResGradQuad_SC&#45;&gt;NavierStokes_SC</title>
<path fill="none" stroke="black" stroke-width="0.5" d="M270.99,-167.03C278.29,-169.53 285.56,-172.64 292,-176.5 311.68,-188.29 307.98,-202.3 328,-213.5 336.07,-218.02 345.2,-221.4 354.33,-223.93"/>
<polygon fill="black" stroke="black" stroke-width="0.5" points="354.11,-225.69 359.39,-225.26 354.99,-222.3 354.11,-225.69"/>
</g>
<!-- NavierStokes_SC_opt -->
<g id="node8" class="node">
<title>NavierStokes_SC_opt</title>
<g id="a_node8"><a xlink:href="../api/proteus.ShockCapturing.html#proteus.ShockCapturing.NavierStokes_SC_opt" xlink:title="NavierStokes_SC_opt" target="_top">
<polygon fill="none" stroke="black" stroke-width="0.5" points="469,-204 349,-204 349,-185 469,-185 469,-204"/>
<text text-anchor="middle" x="409" y="-192" font-family="Vera Sans, DejaVu Sans, Liberation Sans, Arial, Helvetica, sans" font-size="10.00">NavierStokes_SC_opt</text>
</a>
</g>
</g>
<!-- ResGradQuad_SC&#45;&gt;NavierStokes_SC_opt -->
<g id="edge6" class="edge">
<title>ResGradQuad_SC&#45;&gt;NavierStokes_SC_opt</title>
<path fill="none" stroke="black" stroke-width="0.5" d="M272.87,-167.03C298.25,-172.19 329.66,-178.57 355.82,-183.89"/>
<polygon fill="black" stroke="black" stroke-width="0.5" points="355.72,-185.66 360.97,-184.94 356.42,-182.23 355.72,-185.66"/>
</g>
<!-- ResGradQuadDelayLag_SC -->
<g id="node14" class="node">
<title>ResGradQuadDelayLag_SC</title>
<g id="a_node14"><a xlink:href="../api/proteus.ShockCapturing.html#proteus.ShockCapturing.ResGradQuadDelayLag_SC" xlink:title="ResGradQuadDelayLag_SC" target="_top">
<polygon fill="none" stroke="black" stroke-width="0.5" points="482.5,-167 335.5,-167 335.5,-148 482.5,-148 482.5,-167"/>
<text text-anchor="middle" x="409" y="-155" font-family="Vera Sans, DejaVu Sans, Liberation Sans, Arial, Helvetica, sans" font-size="10.00">ResGradQuadDelayLag_SC</text>
</a>
</g>
</g>
<!-- ResGradQuad_SC&#45;&gt;ResGradQuadDelayLag_SC -->
<g id="edge11" class="edge">
<title>ResGradQuad_SC&#45;&gt;ResGradQuadDelayLag_SC</title>
<path fill="none" stroke="black" stroke-width="0.5" d="M275.73,-157.5C292.57,-157.5 311.79,-157.5 330.27,-157.5"/>
<polygon fill="black" stroke="black" stroke-width="0.5" points="330.46,-159.25 335.46,-157.5 330.46,-155.75 330.46,-159.25"/>
</g>
<!-- ResGradDelayLag_SC -->
<g id="node9" class="node">
<title>ResGradDelayLag_SC</title>
<g id="a_node9"><a xlink:href="../api/proteus.ShockCapturing.html#proteus.ShockCapturing.ResGradDelayLag_SC" xlink:title="ResGradDelayLag_SC" target="_top">
<polygon fill="none" stroke="black" stroke-width="0.5" points="470,-130 348,-130 348,-111 470,-111 470,-130"/>
<text text-anchor="middle" x="409" y="-118" font-family="Vera Sans, DejaVu Sans, Liberation Sans, Arial, Helvetica, sans" font-size="10.00">ResGradDelayLag_SC</text>
</a>
</g>
</g>
<!-- ResGrad_SC&#45;&gt;ResGradDelayLag_SC -->
<g id="edge7" class="edge">
<title>ResGrad_SC&#45;&gt;ResGradDelayLag_SC</title>
<path fill="none" stroke="black" stroke-width="0.5" d="M263.27,-120.5C286.08,-120.5 315.92,-120.5 342.57,-120.5"/>
<polygon fill="black" stroke="black" stroke-width="0.5" points="342.85,-122.25 347.85,-120.5 342.85,-118.75 342.85,-122.25"/>
</g>
<!-- ResGradFFDarcyDelayLag_SC -->
<g id="node11" class="node">
<title>ResGradFFDarcyDelayLag_SC</title>
<g id="a_node11"><a xlink:href="../api/proteus.ShockCapturing.html#proteus.ShockCapturing.ResGradFFDarcyDelayLag_SC" xlink:title="ResGradFFDarcyDelayLag_SC" target="_top">
<polygon fill="none" stroke="black" stroke-width="0.5" points="490,-93 328,-93 328,-74 490,-74 490,-93"/>
<text text-anchor="middle" x="409" y="-81" font-family="Vera Sans, DejaVu Sans, Liberation Sans, Arial, Helvetica, sans" font-size="10.00">ResGradFFDarcyDelayLag_SC</text>
</a>
</g>
</g>
<!-- ResGradFFDarcy_SC&#45;&gt;ResGradFFDarcyDelayLag_SC -->
<g id="edge8" class="edge">
<title>ResGradFFDarcy_SC&#45;&gt;ResGradFFDarcyDelayLag_SC</title>
<path fill="none" stroke="black" stroke-width="0.5" d="M283.09,-83.5C295.6,-83.5 309.12,-83.5 322.47,-83.5"/>
<polygon fill="black" stroke="black" stroke-width="0.5" points="322.78,-85.25 327.78,-83.5 322.78,-81.75 322.78,-85.25"/>
</g>
</g>
</svg>
