<?xml version="1.0" encoding="UTF-8" standalone="no"?>
<!DOCTYPE svg PUBLIC "-//W3C//DTD SVG 1.1//EN"
 "http://www.w3.org/Graphics/SVG/1.1/DTD/svg11.dtd">
<!-- Generated by graphviz version 2.40.1 (20161225.0304)
 -->
<!-- Title: inheritance544eebe99b Pages: 1 -->
<svg width="496pt" height="323pt"
 viewBox="0.00 0.00 496.00 323.00" xmlns="http://www.w3.org/2000/svg" xmlns:xlink="http://www.w3.org/1999/xlink">
<g id="graph0" class="graph" transform="scale(1 1) rotate(0) translate(4 319)">
<title>inheritance544eebe99b</title>
<polygon fill="#ffffff" stroke="transparent" points="-4,4 -4,-319 492,-319 492,4 -4,4"/>
<!-- Eikonal_SC -->
<g id="node1" class="node">
<title>Eikonal_SC</title>
<g id="a_node1"><a xlink:href="../api/proteus.ShockCapturing.html#proteus.ShockCapturing.Eikonal_SC" xlink:title="Eikonal_SC" target="_top">
<polygon fill="none" stroke="#000000" stroke-width=".5" points="260.5,-315 189.5,-315 189.5,-296 260.5,-296 260.5,-315"/>
<text text-anchor="middle" x="225" y="-303" font-family="Vera Sans, DejaVu Sans, Liberation Sans, Arial, Helvetica, sans" font-size="10.00" fill="#000000">Eikonal_SC</text>
</a>
</g>
</g>
<!-- ShockCapturing_base -->
<g id="node2" class="node">
<title>ShockCapturing_base</title>
<g id="a_node2"><a xlink:href="../api/proteus.ShockCapturing.html#proteus.ShockCapturing.ShockCapturing_base" xlink:title="ShockCapturing_base" target="_top">
<polygon fill="none" stroke="#000000" stroke-width=".5" points="122,-167 0,-167 0,-148 122,-148 122,-167"/>
<text text-anchor="middle" x="61" y="-155" font-family="Vera Sans, DejaVu Sans, Liberation Sans, Arial, Helvetica, sans" font-size="10.00" fill="#000000">ShockCapturing_base</text>
</a>
</g>
</g>
<!-- ShockCapturing_base&#45;&gt;Eikonal_SC -->
<g id="edge1" class="edge">
<title>ShockCapturing_base&#45;&gt;Eikonal_SC</title>
<path fill="none" stroke="#000000" stroke-width=".5" d="M65.3275,-167.0638C76.7649,-191.2241 110.2289,-255.0901 158,-287.5 165.821,-292.8061 175.1424,-296.5505 184.3095,-299.1921"/>
<polygon fill="#000000" stroke="#000000" stroke-width=".5" points="184.0934,-300.9459 189.3759,-300.5491 184.9989,-297.565 184.0934,-300.9459"/>
</g>
<!-- HamiltonJacobiJaffre_SC -->
<g id="node3" class="node">
<title>HamiltonJacobiJaffre_SC</title>
<g id="a_node3"><a xlink:href="../api/proteus.ShockCapturing.html#proteus.ShockCapturing.HamiltonJacobiJaffre_SC" xlink:title="HamiltonJacobiJaffre_SC" target="_top">
<polygon fill="none" stroke="#000000" stroke-width=".5" points="292,-278 158,-278 158,-259 292,-259 292,-278"/>
<text text-anchor="middle" x="225" y="-266" font-family="Vera Sans, DejaVu Sans, Liberation Sans, Arial, Helvetica, sans" font-size="10.00" fill="#000000">HamiltonJacobiJaffre_SC</text>
</a>
</g>
</g>
<!-- ShockCapturing_base&#45;&gt;HamiltonJacobiJaffre_SC -->
<g id="edge2" class="edge">
<title>ShockCapturing_base&#45;&gt;HamiltonJacobiJaffre_SC</title>
<path fill="none" stroke="#000000" stroke-width=".5" d="M68.1477,-167.0187C82.8338,-185.8917 118.3718,-228.1562 158,-250.5 162.4852,-253.0289 167.3407,-255.2151 172.3179,-257.1026"/>
<polygon fill="#000000" stroke="#000000" stroke-width=".5" points="172.0292,-258.8578 177.3265,-258.8922 173.2068,-255.5618 172.0292,-258.8578"/>
</g>
<!-- HamiltonJacobi_SC -->
<g id="node4" class="node">
<title>HamiltonJacobi_SC</title>
<g id="a_node4"><a xlink:href="../api/proteus.ShockCapturing.html#proteus.ShockCapturing.HamiltonJacobi_SC" xlink:title="HamiltonJacobi_SC" target="_top">
<polygon fill="none" stroke="#000000" stroke-width=".5" points="279.5,-241 170.5,-241 170.5,-222 279.5,-222 279.5,-241"/>
<text text-anchor="middle" x="225" y="-229" font-family="Vera Sans, DejaVu Sans, Liberation Sans, Arial, Helvetica, sans" font-size="10.00" fill="#000000">HamiltonJacobi_SC</text>
</a>
</g>
</g>
<!-- ShockCapturing_base&#45;&gt;HamiltonJacobi_SC -->
<g id="edge3" class="edge">
<title>ShockCapturing_base&#45;&gt;HamiltonJacobi_SC</title>
<path fill="none" stroke="#000000" stroke-width=".5" d="M74.8607,-167.0676C93.1657,-179.3282 126.745,-200.5421 158,-213.5 164.2063,-216.073 170.889,-218.3794 177.5458,-220.4131"/>
<polygon fill="#000000" stroke="#000000" stroke-width=".5" points="177.3319,-222.1747 182.623,-221.915 178.3248,-218.8185 177.3319,-222.1747"/>
</g>
<!-- JaffreGradU_SC -->
<g id="node5" class="node">
<title>JaffreGradU_SC</title>
<g id="a_node5"><a xlink:href="../api/proteus.ShockCapturing.html#proteus.ShockCapturing.JaffreGradU_SC" xlink:title="JaffreGradU_SC" target="_top">
<polygon fill="none" stroke="#000000" stroke-width=".5" points="270.5,-204 179.5,-204 179.5,-185 270.5,-185 270.5,-204"/>
<text text-anchor="middle" x="225" y="-192" font-family="Vera Sans, DejaVu Sans, Liberation Sans, Arial, Helvetica, sans" font-size="10.00" fill="#000000">JaffreGradU_SC</text>
</a>
</g>
</g>
<!-- ShockCapturing_base&#45;&gt;JaffreGradU_SC -->
<g id="edge4" class="edge">
<title>ShockCapturing_base&#45;&gt;JaffreGradU_SC</title>
<path fill="none" stroke="#000000" stroke-width=".5" d="M103.2341,-167.0284C126.0053,-172.1658 154.1748,-178.5211 177.6824,-183.8247"/>
<polygon fill="#000000" stroke="#000000" stroke-width=".5" points="177.3618,-185.5463 182.6243,-184.9396 178.1321,-182.1321 177.3618,-185.5463"/>
</g>
<!-- ResGradQuad_SC -->
<g id="node7" class="node">
<title>ResGradQuad_SC</title>
<g id="a_node7"><a xlink:href="../api/proteus.ShockCapturing.html#proteus.ShockCapturing.ResGradQuad_SC" xlink:title="ResGradQuad_SC" target="_top">
<polygon fill="none" stroke="#000000" stroke-width=".5" points="275.5,-167 174.5,-167 174.5,-148 275.5,-148 275.5,-167"/>
<text text-anchor="middle" x="225" y="-155" font-family="Vera Sans, DejaVu Sans, Liberation Sans, Arial, Helvetica, sans" font-size="10.00" fill="#000000">ResGradQuad_SC</text>
</a>
</g>
</g>
<!-- ShockCapturing_base&#45;&gt;ResGradQuad_SC -->
<g id="edge12" class="edge">
<title>ShockCapturing_base&#45;&gt;ResGradQuad_SC</title>
<path fill="none" stroke="#000000" stroke-width=".5" d="M122.0675,-157.5C137.5316,-157.5 154.06,-157.5 169.2459,-157.5"/>
<polygon fill="#000000" stroke="#000000" stroke-width=".5" points="169.341,-159.2501 174.341,-157.5 169.341,-155.7501 169.341,-159.2501"/>
</g>
<!-- ResGrad_SC -->
<g id="node10" class="node">
<title>ResGrad_SC</title>
<g id="a_node10"><a xlink:href="../api/proteus.ShockCapturing.html#proteus.ShockCapturing.ResGrad_SC" xlink:title="ResGrad_SC" target="_top">
<polygon fill="none" stroke="#000000" stroke-width=".5" points="262.5,-130 187.5,-130 187.5,-111 262.5,-111 262.5,-130"/>
<text text-anchor="middle" x="225" y="-118" font-family="Vera Sans, DejaVu Sans, Liberation Sans, Arial, Helvetica, sans" font-size="10.00" fill="#000000">ResGrad_SC</text>
</a>
</g>
</g>
<!-- ShockCapturing_base&#45;&gt;ResGrad_SC -->
<g id="edge13" class="edge">
<title>ShockCapturing_base&#45;&gt;ResGrad_SC</title>
<path fill="none" stroke="#000000" stroke-width=".5" d="M103.2341,-147.9716C127.5116,-142.4943 157.9251,-135.6327 182.2833,-130.1373"/>
<polygon fill="#000000" stroke="#000000" stroke-width=".5" points="182.8925,-131.7939 187.3847,-128.9864 182.1222,-128.3797 182.8925,-131.7939"/>
</g>
<!-- ResGradFFDarcy_SC -->
<g id="node12" class="node">
<title>ResGradFFDarcy_SC</title>
<g id="a_node12"><a xlink:href="../api/proteus.ShockCapturing.html#proteus.ShockCapturing.ResGradFFDarcy_SC" xlink:title="ResGradFFDarcy_SC" target="_top">
<polygon fill="none" stroke="#000000" stroke-width=".5" points="282,-93 168,-93 168,-74 282,-74 282,-93"/>
<text text-anchor="middle" x="225" y="-81" font-family="Vera Sans, DejaVu Sans, Liberation Sans, Arial, Helvetica, sans" font-size="10.00" fill="#000000">ResGradFFDarcy_SC</text>
</a>
</g>
</g>
<!-- ShockCapturing_base&#45;&gt;ResGradFFDarcy_SC -->
<g id="edge9" class="edge">
<title>ShockCapturing_base&#45;&gt;ResGradFFDarcy_SC</title>
<path fill="none" stroke="#000000" stroke-width=".5" d="M75.2336,-147.9791C93.6664,-135.9957 127.1016,-115.4207 158,-102.5 165.0692,-99.5439 172.7445,-96.887 180.2925,-94.5623"/>
<polygon fill="#000000" stroke="#000000" stroke-width=".5" points="181.2008,-96.1172 185.4886,-93.0064 180.1967,-92.7642 181.2008,-96.1172"/>
</g>
<!-- ResGradJuanes_SC -->
<g id="node13" class="node">
<title>ResGradJuanes_SC</title>
<g id="a_node13"><a xlink:href="../api/proteus.ShockCapturing.html#proteus.ShockCapturing.ResGradJuanes_SC" xlink:title="ResGradJuanes_SC" target="_top">
<polygon fill="none" stroke="#000000" stroke-width=".5" points="278.5,-56 171.5,-56 171.5,-37 278.5,-37 278.5,-56"/>
<text text-anchor="middle" x="225" y="-44" font-family="Vera Sans, DejaVu Sans, Liberation Sans, Arial, Helvetica, sans" font-size="10.00" fill="#000000">ResGradJuanes_SC</text>
</a>
</g>
</g>
<!-- ShockCapturing_base&#45;&gt;ResGradJuanes_SC -->
<g id="edge10" class="edge">
<title>ShockCapturing_base&#45;&gt;ResGradJuanes_SC</title>
<path fill="none" stroke="#000000" stroke-width=".5" d="M68.1477,-147.9813C82.8338,-129.1083 118.3718,-86.8438 158,-64.5 162.4852,-61.9711 167.3407,-59.7849 172.3179,-57.8974"/>
<polygon fill="#000000" stroke="#000000" stroke-width=".5" points="173.2068,-59.4382 177.3265,-56.1078 172.0292,-56.1422 173.2068,-59.4382"/>
</g>
<!-- ScalarAdvection_SC -->
<g id="node15" class="node">
<title>ScalarAdvection_SC</title>
<g id="a_node15"><a xlink:href="../api/proteus.ShockCapturing.html#proteus.ShockCapturing.ScalarAdvection_SC" xlink:title="ScalarAdvection_SC" target="_top">
<polygon fill="none" stroke="#000000" stroke-width=".5" points="281.5,-19 168.5,-19 168.5,0 281.5,0 281.5,-19"/>
<text text-anchor="middle" x="225" y="-7" font-family="Vera Sans, DejaVu Sans, Liberation Sans, Arial, Helvetica, sans" font-size="10.00" fill="#000000">ScalarAdvection_SC</text>
</a>
</g>
</g>
<!-- ShockCapturing_base&#45;&gt;ScalarAdvection_SC -->
<g id="edge14" class="edge">
<title>ShockCapturing_base&#45;&gt;ScalarAdvection_SC</title>
<path fill="none" stroke="#000000" stroke-width=".5" d="M65.3275,-147.9362C76.7649,-123.7759 110.2289,-59.9099 158,-27.5 161.733,-24.9674 165.8077,-22.7906 170.0444,-20.9196"/>
<polygon fill="#000000" stroke="#000000" stroke-width=".5" points="170.7375,-22.5268 174.6966,-19.0071 169.4067,-19.2897 170.7375,-22.5268"/>
</g>
<!-- NavierStokes_SC -->
<g id="node6" class="node">
<title>NavierStokes_SC</title>
<g id="a_node6"><a xlink:href="../api/proteus.ShockCapturing.html#proteus.ShockCapturing.NavierStokes_SC" xlink:title="NavierStokes_SC" target="_top">
<polygon fill="none" stroke="#000000" stroke-width=".5" points="458,-241 358,-241 358,-222 458,-222 458,-241"/>
<text text-anchor="middle" x="408" y="-229" font-family="Vera Sans, DejaVu Sans, Liberation Sans, Arial, Helvetica, sans" font-size="10.00" fill="#000000">NavierStokes_SC</text>
</a>
</g>
</g>
<!-- ResGradQuad_SC&#45;&gt;NavierStokes_SC -->
<g id="edge5" class="edge">
<title>ResGradQuad_SC&#45;&gt;NavierStokes_SC</title>
<path fill="none" stroke="#000000" stroke-width=".5" d="M271.0217,-167.0819C278.312,-169.5666 285.5617,-172.6607 292,-176.5 311.7061,-188.2512 307.9782,-202.2952 328,-213.5 335.5101,-217.7029 343.9345,-220.9245 352.4224,-223.394"/>
<polygon fill="#000000" stroke="#000000" stroke-width=".5" points="352.4236,-225.2083 357.708,-224.8365 353.3451,-221.8318 352.4236,-225.2083"/>
</g>
<!-- NavierStokes_SC_opt -->
<g id="node8" class="node">
<title>NavierStokes_SC_opt</title>
<g id="a_node8"><a xlink:href="../api/proteus.ShockCapturing.html#proteus.ShockCapturing.NavierStokes_SC_opt" xlink:title="NavierStokes_SC_opt" target="_top">
<polygon fill="none" stroke="#000000" stroke-width=".5" points="468.5,-204 347.5,-204 347.5,-185 468.5,-185 468.5,-204"/>
<text text-anchor="middle" x="408" y="-192" font-family="Vera Sans, DejaVu Sans, Liberation Sans, Arial, Helvetica, sans" font-size="10.00" fill="#000000">NavierStokes_SC_opt</text>
</a>
</g>
</g>
<!-- ResGradQuad_SC&#45;&gt;NavierStokes_SC_opt -->
<g id="edge6" class="edge">
<title>ResGradQuad_SC&#45;&gt;NavierStokes_SC_opt</title>
<path fill="none" stroke="#000000" stroke-width=".5" d="M272.127,-167.0284C297.6427,-172.1873 329.2326,-178.5743 355.5295,-183.8912"/>
<polygon fill="#000000" stroke="#000000" stroke-width=".5" points="355.4673,-185.664 360.715,-184.9396 356.161,-182.2334 355.4673,-185.664"/>
</g>
<!-- ResGradQuadDelayLag_SC -->
<g id="node14" class="node">
<title>ResGradQuadDelayLag_SC</title>
<g id="a_node14"><a xlink:href="../api/proteus.ShockCapturing.html#proteus.ShockCapturing.ResGradQuadDelayLag_SC" xlink:title="ResGradQuadDelayLag_SC" target="_top">
<polygon fill="none" stroke="#000000" stroke-width=".5" points="481,-167 335,-167 335,-148 481,-148 481,-167"/>
<text text-anchor="middle" x="408" y="-155" font-family="Vera Sans, DejaVu Sans, Liberation Sans, Arial, Helvetica, sans" font-size="10.00" fill="#000000">ResGradQuadDelayLag_SC</text>
</a>
</g>
</g>
<!-- ResGradQuad_SC&#45;&gt;ResGradQuadDelayLag_SC -->
<g id="edge11" class="edge">
<title>ResGradQuad_SC&#45;&gt;ResGradQuadDelayLag_SC</title>
<path fill="none" stroke="#000000" stroke-width=".5" d="M275.9757,-157.5C292.6029,-157.5 311.4674,-157.5 329.6274,-157.5"/>
<polygon fill="#000000" stroke="#000000" stroke-width=".5" points="329.7283,-159.2501 334.7283,-157.5 329.7283,-155.7501 329.7283,-159.2501"/>
</g>
<!-- ResGradDelayLag_SC -->
<g id="node9" class="node">
<title>ResGradDelayLag_SC</title>
<g id="a_node9"><a xlink:href="../api/proteus.ShockCapturing.html#proteus.ShockCapturing.ResGradDelayLag_SC" xlink:title="ResGradDelayLag_SC" target="_top">
<polygon fill="none" stroke="#000000" stroke-width=".5" points="468.5,-130 347.5,-130 347.5,-111 468.5,-111 468.5,-130"/>
<text text-anchor="middle" x="408" y="-118" font-family="Vera Sans, DejaVu Sans, Liberation Sans, Arial, Helvetica, sans" font-size="10.00" fill="#000000">ResGradDelayLag_SC</text>
</a>
</g>
</g>
<!-- ResGrad_SC&#45;&gt;ResGradDelayLag_SC -->
<g id="edge7" class="edge">
<title>ResGrad_SC&#45;&gt;ResGradDelayLag_SC</title>
<path fill="none" stroke="#000000" stroke-width=".5" d="M262.9177,-120.5C285.7862,-120.5 315.5492,-120.5 342.1614,-120.5"/>
<polygon fill="#000000" stroke="#000000" stroke-width=".5" points="342.4389,-122.2501 347.4389,-120.5 342.4389,-118.7501 342.4389,-122.2501"/>
</g>
<!-- ResGradFFDarcyDelayLag_SC -->
<g id="node11" class="node">
<title>ResGradFFDarcyDelayLag_SC</title>
<g id="a_node11"><a xlink:href="../api/proteus.ShockCapturing.html#proteus.ShockCapturing.ResGradFFDarcyDelayLag_SC" xlink:title="ResGradFFDarcyDelayLag_SC" target="_top">
<polygon fill="none" stroke="#000000" stroke-width=".5" points="488,-93 328,-93 328,-74 488,-74 488,-93"/>
<text text-anchor="middle" x="408" y="-81" font-family="Vera Sans, DejaVu Sans, Liberation Sans, Arial, Helvetica, sans" font-size="10.00" fill="#000000">ResGradFFDarcyDelayLag_SC</text>
</a>
</g>
</g>
<!-- ResGradFFDarcy_SC&#45;&gt;ResGradFFDarcyDelayLag_SC -->
<g id="edge8" class="edge">
<title>ResGradFFDarcy_SC&#45;&gt;ResGradFFDarcyDelayLag_SC</title>
<path fill="none" stroke="#000000" stroke-width=".5" d="M282.1496,-83.5C295.039,-83.5 308.9922,-83.5 322.7558,-83.5"/>
<polygon fill="#000000" stroke="#000000" stroke-width=".5" points="322.8157,-85.2501 327.8157,-83.5 322.8157,-81.7501 322.8157,-85.2501"/>
</g>
</g>
</svg>
