<?xml version="1.0" encoding="UTF-8" standalone="no"?>
<!DOCTYPE svg PUBLIC "-//W3C//DTD SVG 1.1//EN"
 "http://www.w3.org/Graphics/SVG/1.1/DTD/svg11.dtd">
<!-- Generated by graphviz version 2.42.3 (0)
 -->
<!-- Title: inheritance56adf9a4e7 Pages: 1 -->
<svg width="459pt" height="360pt"
 viewBox="0.00 0.00 459.00 360.00" xmlns="http://www.w3.org/2000/svg" xmlns:xlink="http://www.w3.org/1999/xlink">
<g id="graph0" class="graph" transform="scale(1 1) rotate(0) translate(4 356)">
<title>inheritance56adf9a4e7</title>
<polygon fill="white" stroke="transparent" points="-4,4 -4,-356 455,-356 455,4 -4,4"/>
<!-- FLCBDF_controller -->
<g id="node1" class="node">
<title>FLCBDF_controller</title>
<g id="a_node1"><a xlink:href="../api/proteus.StepControl.html#proteus.StepControl.FLCBDF_controller" xlink:title="FLCBDF_controller" target="_top">
<polygon fill="none" stroke="black" stroke-width="0.5" points="244,-352 137,-352 137,-333 244,-333 244,-352"/>
<text text-anchor="middle" x="190.5" y="-340" font-family="Vera Sans, DejaVu Sans, Liberation Sans, Arial, Helvetica, sans" font-size="10.00">FLCBDF_controller</text>
</a>
</g>
</g>
<!-- FLCBDF_controller_sys -->
<g id="node3" class="node">
<title>FLCBDF_controller_sys</title>
<g id="a_node3"><a xlink:href="../api/proteus.StepControl.html#proteus.StepControl.FLCBDF_controller_sys" xlink:title="FLCBDF_controller_sys" target="_top">
<polygon fill="none" stroke="black" stroke-width="0.5" points="451,-352 323,-352 323,-333 451,-333 451,-352"/>
<text text-anchor="middle" x="387" y="-340" font-family="Vera Sans, DejaVu Sans, Liberation Sans, Arial, Helvetica, sans" font-size="10.00">FLCBDF_controller_sys</text>
</a>
</g>
</g>
<!-- FLCBDF_controller&#45;&gt;FLCBDF_controller_sys -->
<g id="edge2" class="edge">
<title>FLCBDF_controller&#45;&gt;FLCBDF_controller_sys</title>
<path fill="none" stroke="black" stroke-width="0.5" d="M244.13,-342.5C266.82,-342.5 293.64,-342.5 317.83,-342.5"/>
<polygon fill="black" stroke="black" stroke-width="0.5" points="317.94,-344.25 322.94,-342.5 317.94,-340.75 317.94,-344.25"/>
</g>
<!-- SC_base -->
<g id="node2" class="node">
<title>SC_base</title>
<g id="a_node2"><a xlink:href="../api/proteus.StepControl.html#proteus.StepControl.SC_base" xlink:title="A simple fixed time stepping controller with no error/stability" target="_top">
<polygon fill="none" stroke="black" stroke-width="0.5" points="58,-185 0,-185 0,-166 58,-166 58,-185"/>
<text text-anchor="middle" x="29" y="-173" font-family="Vera Sans, DejaVu Sans, Liberation Sans, Arial, Helvetica, sans" font-size="10.00">SC_base</text>
</a>
</g>
</g>
<!-- SC_base&#45;&gt;FLCBDF_controller -->
<g id="edge1" class="edge">
<title>SC_base&#45;&gt;FLCBDF_controller</title>
<path fill="none" stroke="black" stroke-width="0.5" d="M31.04,-185C34.48,-211.68 48.09,-287.7 94,-324.5 104.67,-333.05 118.16,-337.99 131.6,-340.75"/>
<polygon fill="black" stroke="black" stroke-width="0.5" points="131.32,-342.48 136.55,-341.67 131.96,-339.04 131.32,-342.48"/>
</g>
<!-- GustafssonFullNewton_dt_controller -->
<g id="node4" class="node">
<title>GustafssonFullNewton_dt_controller</title>
<g id="a_node4"><a xlink:href="../api/proteus.StepControl.html#proteus.StepControl.GustafssonFullNewton_dt_controller" xlink:title="Try version of basic Gustafsson and Soederlind 97 time step selection strategy" target="_top">
<polygon fill="none" stroke="black" stroke-width="0.5" points="287,-315 94,-315 94,-296 287,-296 287,-315"/>
<text text-anchor="middle" x="190.5" y="-303" font-family="Vera Sans, DejaVu Sans, Liberation Sans, Arial, Helvetica, sans" font-size="10.00">GustafssonFullNewton_dt_controller</text>
</a>
</g>
</g>
<!-- SC_base&#45;&gt;GustafssonFullNewton_dt_controller -->
<g id="edge3" class="edge">
<title>SC_base&#45;&gt;GustafssonFullNewton_dt_controller</title>
<path fill="none" stroke="black" stroke-width="0.5" d="M32.52,-185.17C38.79,-207.23 57.34,-261.38 94,-287.5 97.21,-289.79 100.63,-291.81 104.2,-293.59"/>
<polygon fill="black" stroke="black" stroke-width="0.5" points="103.87,-295.37 109.15,-295.88 105.34,-292.19 103.87,-295.37"/>
</g>
<!-- HeuristicNL_dt_controller -->
<g id="node5" class="node">
<title>HeuristicNL_dt_controller</title>
<g id="a_node5"><a xlink:href="../api/proteus.StepControl.html#proteus.StepControl.HeuristicNL_dt_controller" xlink:title="Classical Heuristic step controller that picks time step based on threshholds in nonlinear" target="_top">
<polygon fill="none" stroke="black" stroke-width="0.5" points="260.5,-278 120.5,-278 120.5,-259 260.5,-259 260.5,-278"/>
<text text-anchor="middle" x="190.5" y="-266" font-family="Vera Sans, DejaVu Sans, Liberation Sans, Arial, Helvetica, sans" font-size="10.00">HeuristicNL_dt_controller</text>
</a>
</g>
</g>
<!-- SC_base&#45;&gt;HeuristicNL_dt_controller -->
<g id="edge4" class="edge">
<title>SC_base&#45;&gt;HeuristicNL_dt_controller</title>
<path fill="none" stroke="black" stroke-width="0.5" d="M35.25,-185.15C44.69,-201.48 66.16,-234.36 94,-250.5 100.52,-254.28 107.68,-257.29 115.05,-259.68"/>
<polygon fill="black" stroke="black" stroke-width="0.5" points="114.88,-261.46 120.18,-261.24 115.9,-258.11 114.88,-261.46"/>
</g>
<!-- Min_dt_RKcontroller -->
<g id="node6" class="node">
<title>Min_dt_RKcontroller</title>
<g id="a_node6"><a xlink:href="../api/proteus.StepControl.html#proteus.StepControl.Min_dt_RKcontroller" xlink:title="Min_dt_RKcontroller" target="_top">
<polygon fill="none" stroke="black" stroke-width="0.5" points="248,-241 133,-241 133,-222 248,-222 248,-241"/>
<text text-anchor="middle" x="190.5" y="-229" font-family="Vera Sans, DejaVu Sans, Liberation Sans, Arial, Helvetica, sans" font-size="10.00">Min_dt_RKcontroller</text>
</a>
</g>
</g>
<!-- SC_base&#45;&gt;Min_dt_RKcontroller -->
<g id="edge5" class="edge">
<title>SC_base&#45;&gt;Min_dt_RKcontroller</title>
<path fill="none" stroke="black" stroke-width="0.5" d="M43.03,-185.11C55.5,-193.83 75.14,-206.38 94,-213.5 104.61,-217.51 116.23,-220.65 127.6,-223.11"/>
<polygon fill="black" stroke="black" stroke-width="0.5" points="127.55,-224.88 132.8,-224.19 128.26,-221.46 127.55,-224.88"/>
</g>
<!-- Min_dt_controller -->
<g id="node8" class="node">
<title>Min_dt_controller</title>
<g id="a_node8"><a xlink:href="../api/proteus.StepControl.html#proteus.StepControl.Min_dt_controller" xlink:title="Min_dt_controller" target="_top">
<polygon fill="none" stroke="black" stroke-width="0.5" points="241,-204 140,-204 140,-185 241,-185 241,-204"/>
<text text-anchor="middle" x="190.5" y="-192" font-family="Vera Sans, DejaVu Sans, Liberation Sans, Arial, Helvetica, sans" font-size="10.00">Min_dt_controller</text>
</a>
</g>
</g>
<!-- SC_base&#45;&gt;Min_dt_controller -->
<g id="edge7" class="edge">
<title>SC_base&#45;&gt;Min_dt_controller</title>
<path fill="none" stroke="black" stroke-width="0.5" d="M58.15,-178.85C79.28,-181.37 108.87,-184.9 134.62,-187.96"/>
<polygon fill="black" stroke="black" stroke-width="0.5" points="134.55,-189.72 139.72,-188.57 134.96,-186.24 134.55,-189.72"/>
</g>
<!-- Newton_controller -->
<g id="node10" class="node">
<title>Newton_controller</title>
<g id="a_node10"><a xlink:href="../api/proteus.StepControl.html#proteus.StepControl.Newton_controller" xlink:title="Same as SC_base but since there is no dt we have not &#160;way to retry" target="_top">
<polygon fill="none" stroke="black" stroke-width="0.5" points="243.5,-167 137.5,-167 137.5,-148 243.5,-148 243.5,-167"/>
<text text-anchor="middle" x="190.5" y="-155" font-family="Vera Sans, DejaVu Sans, Liberation Sans, Arial, Helvetica, sans" font-size="10.00">Newton_controller</text>
</a>
</g>
</g>
<!-- SC_base&#45;&gt;Newton_controller -->
<g id="edge9" class="edge">
<title>SC_base&#45;&gt;Newton_controller</title>
<path fill="none" stroke="black" stroke-width="0.5" d="M58.15,-172.32C78.69,-170.01 107.24,-166.78 132.47,-163.94"/>
<polygon fill="black" stroke="black" stroke-width="0.5" points="132.7,-165.67 137.47,-163.37 132.3,-162.19 132.7,-165.67"/>
</g>
<!-- Osher_PsiTC_controller -->
<g id="node11" class="node">
<title>Osher_PsiTC_controller</title>
<g id="a_node11"><a xlink:href="../api/proteus.StepControl.html#proteus.StepControl.Osher_PsiTC_controller" xlink:title="Osher_PsiTC_controller" target="_top">
<polygon fill="none" stroke="black" stroke-width="0.5" points="254.5,-130 126.5,-130 126.5,-111 254.5,-111 254.5,-130"/>
<text text-anchor="middle" x="190.5" y="-118" font-family="Vera Sans, DejaVu Sans, Liberation Sans, Arial, Helvetica, sans" font-size="10.00">Osher_PsiTC_controller</text>
</a>
</g>
</g>
<!-- SC_base&#45;&gt;Osher_PsiTC_controller -->
<g id="edge10" class="edge">
<title>SC_base&#45;&gt;Osher_PsiTC_controller</title>
<path fill="none" stroke="black" stroke-width="0.5" d="M44.11,-165.83C56.67,-157.65 75.83,-146.22 94,-139.5 102.84,-136.23 112.37,-133.48 121.85,-131.18"/>
<polygon fill="black" stroke="black" stroke-width="0.5" points="122.34,-132.87 126.81,-130.02 121.54,-129.46 122.34,-132.87"/>
</g>
<!-- Osher_PsiTC_controller2 -->
<g id="node12" class="node">
<title>Osher_PsiTC_controller2</title>
<g id="a_node12"><a xlink:href="../api/proteus.StepControl.html#proteus.StepControl.Osher_PsiTC_controller2" xlink:title="Osher_PsiTC_controller2" target="_top">
<polygon fill="none" stroke="black" stroke-width="0.5" points="257.5,-93 123.5,-93 123.5,-74 257.5,-74 257.5,-93"/>
<text text-anchor="middle" x="190.5" y="-81" font-family="Vera Sans, DejaVu Sans, Liberation Sans, Arial, Helvetica, sans" font-size="10.00">Osher_PsiTC_controller2</text>
</a>
</g>
</g>
<!-- SC_base&#45;&gt;Osher_PsiTC_controller2 -->
<g id="edge11" class="edge">
<title>SC_base&#45;&gt;Osher_PsiTC_controller2</title>
<path fill="none" stroke="black" stroke-width="0.5" d="M35.49,-165.88C45.14,-149.95 66.71,-118.26 94,-102.5 101.6,-98.11 110.04,-94.72 118.67,-92.11"/>
<polygon fill="black" stroke="black" stroke-width="0.5" points="119.15,-93.79 123.48,-90.73 118.19,-90.43 119.15,-93.79"/>
</g>
<!-- Osher_controller -->
<g id="node13" class="node">
<title>Osher_controller</title>
<g id="a_node13"><a xlink:href="../api/proteus.StepControl.html#proteus.StepControl.Osher_controller" xlink:title="Osher_controller" target="_top">
<polygon fill="none" stroke="black" stroke-width="0.5" points="239,-56 142,-56 142,-37 239,-37 239,-56"/>
<text text-anchor="middle" x="190.5" y="-44" font-family="Vera Sans, DejaVu Sans, Liberation Sans, Arial, Helvetica, sans" font-size="10.00">Osher_controller</text>
</a>
</g>
</g>
<!-- SC_base&#45;&gt;Osher_controller -->
<g id="edge12" class="edge">
<title>SC_base&#45;&gt;Osher_controller</title>
<path fill="none" stroke="black" stroke-width="0.5" d="M32.69,-165.7C39.2,-143.87 58.04,-91.18 94,-65.5 106.36,-56.67 121.81,-51.7 136.65,-48.97"/>
<polygon fill="black" stroke="black" stroke-width="0.5" points="137.02,-50.68 141.66,-48.12 136.44,-47.23 137.02,-50.68"/>
</g>
<!-- PsiTCtte_controller -->
<g id="node14" class="node">
<title>PsiTCtte_controller</title>
<g id="a_node14"><a xlink:href="../api/proteus.StepControl.html#proteus.StepControl.PsiTCtte_controller" xlink:title="PsiTCtte_controller" target="_top">
<polygon fill="none" stroke="black" stroke-width="0.5" points="244.5,-19 136.5,-19 136.5,0 244.5,0 244.5,-19"/>
<text text-anchor="middle" x="190.5" y="-7" font-family="Vera Sans, DejaVu Sans, Liberation Sans, Arial, Helvetica, sans" font-size="10.00">PsiTCtte_controller</text>
</a>
</g>
</g>
<!-- SC_base&#45;&gt;PsiTCtte_controller -->
<g id="edge13" class="edge">
<title>SC_base&#45;&gt;PsiTCtte_controller</title>
<path fill="none" stroke="black" stroke-width="0.5" d="M31.11,-165.68C34.7,-138.84 48.52,-63.86 94,-27.5 104.47,-19.13 117.64,-14.22 130.83,-11.43"/>
<polygon fill="black" stroke="black" stroke-width="0.5" points="131.49,-13.09 136.07,-10.43 130.83,-9.65 131.49,-13.09"/>
</g>
<!-- Min_dt_cfl_controller -->
<g id="node7" class="node">
<title>Min_dt_cfl_controller</title>
<g id="a_node7"><a xlink:href="../api/proteus.StepControl.html#proteus.StepControl.Min_dt_cfl_controller" xlink:title="Min_dt_cfl_controller" target="_top">
<polygon fill="none" stroke="black" stroke-width="0.5" points="446,-223 328,-223 328,-204 446,-204 446,-223"/>
<text text-anchor="middle" x="387" y="-211" font-family="Vera Sans, DejaVu Sans, Liberation Sans, Arial, Helvetica, sans" font-size="10.00">Min_dt_cfl_controller</text>
</a>
</g>
</g>
<!-- Min_dt_controller&#45;&gt;Min_dt_cfl_controller -->
<g id="edge6" class="edge">
<title>Min_dt_controller&#45;&gt;Min_dt_cfl_controller</title>
<path fill="none" stroke="black" stroke-width="0.5" d="M241.08,-199.34C265.88,-201.77 296.17,-204.72 322.63,-207.31"/>
<polygon fill="black" stroke="black" stroke-width="0.5" points="322.72,-209.08 327.87,-207.82 323.06,-205.59 322.72,-209.08"/>
</g>
<!-- Min_dt_controller_FCT -->
<g id="node9" class="node">
<title>Min_dt_controller_FCT</title>
<g id="a_node9"><a xlink:href="../api/proteus.StepControl.html#proteus.StepControl.Min_dt_controller_FCT" xlink:title="controller try and implement a piece of FCT methodology where first step is" target="_top">
<polygon fill="none" stroke="black" stroke-width="0.5" points="449.5,-186 324.5,-186 324.5,-167 449.5,-167 449.5,-186"/>
<text text-anchor="middle" x="387" y="-174" font-family="Vera Sans, DejaVu Sans, Liberation Sans, Arial, Helvetica, sans" font-size="10.00">Min_dt_controller_FCT</text>
</a>
</g>
</g>
<!-- Min_dt_controller&#45;&gt;Min_dt_controller_FCT -->
<g id="edge8" class="edge">
<title>Min_dt_controller&#45;&gt;Min_dt_controller_FCT</title>
<path fill="none" stroke="black" stroke-width="0.5" d="M241.08,-189.91C264.82,-187.71 293.6,-185.05 319.23,-182.68"/>
<polygon fill="black" stroke="black" stroke-width="0.5" points="319.5,-184.41 324.32,-182.21 319.18,-180.93 319.5,-184.41"/>
</g>
</g>
</svg>
