<?xml version="1.0" encoding="UTF-8" standalone="no"?>
<!DOCTYPE svg PUBLIC "-//W3C//DTD SVG 1.1//EN"
 "http://www.w3.org/Graphics/SVG/1.1/DTD/svg11.dtd">
<!-- Generated by graphviz version 2.38.0 (20140413.2041)
 -->
<!-- Title: inheritanceb0b43b8140 Pages: 1 -->
<svg width="324pt" height="156pt"
 viewBox="0.00 0.00 324.00 156.00" xmlns="http://www.w3.org/2000/svg" xmlns:xlink="http://www.w3.org/1999/xlink">
<g id="graph0" class="graph" transform="scale(1 1) rotate(0) translate(4 152)">
<title>inheritanceb0b43b8140</title>
<polygon fill="white" stroke="none" points="-4,4 -4,-152 320,-152 320,4 -4,4"/>
<!-- Mat -->
<g id="node1" class="node"><title>Mat</title>
<polygon fill="none" stroke="black" stroke-width="0.5" points="182,-56 128,-56 128,-37 182,-37 182,-56"/>
<text text-anchor="middle" x="155" y="-44" font-family="Vera Sans, DejaVu Sans, Liberation Sans, Arial, Helvetica, sans" font-size="10.00">Mat</text>
</g>
<!-- ParMat_petsc4py -->
<g id="node3" class="node"><title>ParMat_petsc4py</title>
<g id="a_node3"><a xlink:href="../api/proteus.LinearAlgebraTools.html#proteus.LinearAlgebraTools.ParMat_petsc4py" xlink:title="Parallel matrix based on petsc4py&#39;s wrappers for PETSc." target="_top">
<polygon fill="none" stroke="black" stroke-width="0.5" points="316,-56 218,-56 218,-37 316,-37 316,-56"/>
<text text-anchor="middle" x="267" y="-44" font-family="Vera Sans, DejaVu Sans, Liberation Sans, Arial, Helvetica, sans" font-size="10.00">ParMat_petsc4py</text>
</a>
</g>
</g>
<!-- Mat&#45;&gt;ParMat_petsc4py -->
<g id="edge2" class="edge"><title>Mat&#45;&gt;ParMat_petsc4py</title>
<path fill="none" stroke="black" stroke-width="0.5" d="M182.068,-46.5C191.241,-46.5 201.914,-46.5 212.512,-46.5"/>
<polygon fill="black" stroke="black" stroke-width="0.5" points="212.702,-48.2501 217.702,-46.5 212.702,-44.7501 212.702,-48.2501"/>
</g>
<!-- Object -->
<g id="node2" class="node"><title>Object</title>
<polygon fill="none" stroke="black" stroke-width="0.5" points="73,-37 19,-37 19,-18 73,-18 73,-37"/>
<text text-anchor="middle" x="46" y="-25" font-family="Vera Sans, DejaVu Sans, Liberation Sans, Arial, Helvetica, sans" font-size="10.00">Object</text>
</g>
<!-- Object&#45;&gt;Mat -->
<g id="edge1" class="edge"><title>Object&#45;&gt;Mat</title>
<path fill="none" stroke="black" stroke-width="0.5" d="M73.1751,-32.1479C88.0722,-34.7932 106.833,-38.1245 122.529,-40.9117"/>
<polygon fill="black" stroke="black" stroke-width="0.5" points="122.495,-42.683 127.724,-41.8342 123.107,-39.2369 122.495,-42.683"/>
</g>
<!-- Vec -->
<g id="node6" class="node"><title>Vec</title>
<polygon fill="none" stroke="black" stroke-width="0.5" points="182,-19 128,-19 128,-0 182,-0 182,-19"/>
<text text-anchor="middle" x="155" y="-7" font-family="Vera Sans, DejaVu Sans, Liberation Sans, Arial, Helvetica, sans" font-size="10.00">Vec</text>
</g>
<!-- Object&#45;&gt;Vec -->
<g id="edge4" class="edge"><title>Object&#45;&gt;Vec</title>
<path fill="none" stroke="black" stroke-width="0.5" d="M73.1751,-23.0967C88.0722,-20.5907 106.833,-17.4346 122.529,-14.7942"/>
<polygon fill="black" stroke="black" stroke-width="0.5" points="123.084,-16.4755 127.724,-13.9202 122.503,-13.024 123.084,-16.4755"/>
</g>
<!-- ParVec -->
<g id="node4" class="node"><title>ParVec</title>
<g id="a_node4"><a xlink:href="../api/proteus.LinearAlgebraTools.html#proteus.LinearAlgebraTools.ParVec" xlink:title="A parallel vector built on top of daetk&#39;s wrappers for petsc" target="_top">
<polygon fill="none" stroke="black" stroke-width="0.5" points="73,-74 19,-74 19,-55 73,-55 73,-74"/>
<text text-anchor="middle" x="46" y="-62" font-family="Vera Sans, DejaVu Sans, Liberation Sans, Arial, Helvetica, sans" font-size="10.00">ParVec</text>
</a>
</g>
</g>
<!-- ParVec_petsc4py -->
<g id="node5" class="node"><title>ParVec_petsc4py</title>
<g id="a_node5"><a xlink:href="../api/proteus.LinearAlgebraTools.html#proteus.LinearAlgebraTools.ParVec_petsc4py" xlink:title="Parallel vector using petsc4py&#39;s wrappers for PETSc" target="_top">
<polygon fill="none" stroke="black" stroke-width="0.5" points="316,-19 218,-19 218,-0 316,-0 316,-19"/>
<text text-anchor="middle" x="267" y="-7" font-family="Vera Sans, DejaVu Sans, Liberation Sans, Arial, Helvetica, sans" font-size="10.00">ParVec_petsc4py</text>
</a>
</g>
</g>
<!-- Vec&#45;&gt;ParVec_petsc4py -->
<g id="edge3" class="edge"><title>Vec&#45;&gt;ParVec_petsc4py</title>
<path fill="none" stroke="black" stroke-width="0.5" d="M182.068,-9.5C191.241,-9.5 201.914,-9.5 212.512,-9.5"/>
<polygon fill="black" stroke="black" stroke-width="0.5" points="212.702,-11.2501 217.702,-9.5 212.702,-7.7501 212.702,-11.2501"/>
</g>
<!-- SparseMatShell -->
<g id="node7" class="node"><title>SparseMatShell</title>
<g id="a_node7"><a xlink:href="../api/proteus.LinearAlgebraTools.html#proteus.LinearAlgebraTools.SparseMatShell" xlink:title="Build a parallel matrix shell from CSR data structures." target="_top">
<polygon fill="none" stroke="black" stroke-width="0.5" points="92,-111 0,-111 0,-92 92,-92 92,-111"/>
<text text-anchor="middle" x="46" y="-99" font-family="Vera Sans, DejaVu Sans, Liberation Sans, Arial, Helvetica, sans" font-size="10.00">SparseMatShell</text>
</a>
</g>
</g>
<!-- WeightedNorm -->
<g id="node8" class="node"><title>WeightedNorm</title>
<g id="a_node8"><a xlink:href="../api/proteus.LinearAlgebraTools.html#proteus.LinearAlgebraTools.WeightedNorm" xlink:title="Compute the weighted norm for time step control (not currently parallel)" target="_top">
<polygon fill="none" stroke="black" stroke-width="0.5" points="89.5,-148 2.5,-148 2.5,-129 89.5,-129 89.5,-148"/>
<text text-anchor="middle" x="46" y="-136" font-family="Vera Sans, DejaVu Sans, Liberation Sans, Arial, Helvetica, sans" font-size="10.00">WeightedNorm</text>
</a>
</g>
</g>
</g>
</svg>
