<?xml version="1.0" encoding="UTF-8" standalone="no"?>
<!DOCTYPE svg PUBLIC "-//W3C//DTD SVG 1.1//EN"
 "http://www.w3.org/Graphics/SVG/1.1/DTD/svg11.dtd">
<!-- Generated by graphviz version 2.38.0 (20140413.2041)
 -->
<!-- Title: inheritancecb50c7d34c Pages: 1 -->
<svg width="473pt" height="360pt"
 viewBox="0.00 0.00 473.00 360.00" xmlns="http://www.w3.org/2000/svg" xmlns:xlink="http://www.w3.org/1999/xlink">
<g id="graph0" class="graph" transform="scale(1 1) rotate(0) translate(4 356)">
<title>inheritancecb50c7d34c</title>
<polygon fill="white" stroke="none" points="-4,4 -4,-356 469,-356 469,4 -4,4"/>
<!-- D_base -->
<g id="node1" class="node"><title>D_base</title>
<g id="a_node1"><a xlink:href="../api/proteus.Domain.html#proteus.Domain.D_base" xlink:title="The base class for domains" target="_top">
<polygon fill="none" stroke="black" stroke-width="0.5" points="54,-185 0,-185 0,-166 54,-166 54,-185"/>
<text text-anchor="middle" x="27" y="-173" font-family="Vera Sans, DejaVu Sans, Liberation Sans, Arial, Helvetica, sans" font-size="10.00">D_base</text>
</a>
</g>
</g>
<!-- GMSH_3D_Domain -->
<g id="node2" class="node"><title>GMSH_3D_Domain</title>
<g id="a_node2"><a xlink:href="../api/proteus.Domain.html#proteus.Domain.GMSH_3D_Domain" xlink:title="A domain described by a gmsh .geo file" target="_top">
<polygon fill="none" stroke="black" stroke-width="0.5" points="229.5,-352 121.5,-352 121.5,-333 229.5,-333 229.5,-352"/>
<text text-anchor="middle" x="175.5" y="-340" font-family="Vera Sans, DejaVu Sans, Liberation Sans, Arial, Helvetica, sans" font-size="10.00">GMSH_3D_Domain</text>
</a>
</g>
</g>
<!-- D_base&#45;&gt;GMSH_3D_Domain -->
<g id="edge1" class="edge"><title>D_base&#45;&gt;GMSH_3D_Domain</title>
<path fill="none" stroke="black" stroke-width="0.5" d="M28.9937,-185.323C32.2597,-212.172 45.1717,-287.261 90,-324.5 97.5653,-330.784 106.799,-335.031 116.349,-337.87"/>
<polygon fill="black" stroke="black" stroke-width="0.5" points="116.082,-339.611 121.366,-339.23 116.998,-336.233 116.082,-339.611"/>
</g>
<!-- PlanarStraightLineGraphDomain -->
<g id="node4" class="node"><title>PlanarStraightLineGraphDomain</title>
<g id="a_node4"><a xlink:href="../api/proteus.Domain.html#proteus.Domain.PlanarStraightLineGraphDomain" xlink:title="2D domains described by planar straight line graphs." target="_top">
<polygon fill="none" stroke="black" stroke-width="0.5" points="261,-315 90,-315 90,-296 261,-296 261,-315"/>
<text text-anchor="middle" x="175.5" y="-303" font-family="Vera Sans, DejaVu Sans, Liberation Sans, Arial, Helvetica, sans" font-size="10.00">PlanarStraightLineGraphDomain</text>
</a>
</g>
</g>
<!-- D_base&#45;&gt;PlanarStraightLineGraphDomain -->
<g id="edge9" class="edge"><title>D_base&#45;&gt;PlanarStraightLineGraphDomain</title>
<path fill="none" stroke="black" stroke-width="0.5" d="M30.385,-185.106C36.3545,-207.03 54.1034,-260.91 90,-287.5 93.1488,-289.832 96.5349,-291.876 100.077,-293.666"/>
<polygon fill="black" stroke="black" stroke-width="0.5" points="99.7248,-295.432 104.997,-295.953 101.2,-292.258 99.7248,-295.432"/>
</g>
<!-- Mesh2DMDomain -->
<g id="node5" class="node"><title>Mesh2DMDomain</title>
<g id="a_node5"><a xlink:href="../api/proteus.Domain.html#proteus.Domain.Mesh2DMDomain" xlink:title="2D domains from ADH mesh files" target="_top">
<polygon fill="none" stroke="black" stroke-width="0.5" points="226,-278 125,-278 125,-259 226,-259 226,-278"/>
<text text-anchor="middle" x="175.5" y="-266" font-family="Vera Sans, DejaVu Sans, Liberation Sans, Arial, Helvetica, sans" font-size="10.00">Mesh2DMDomain</text>
</a>
</g>
</g>
<!-- D_base&#45;&gt;Mesh2DMDomain -->
<g id="edge3" class="edge"><title>D_base&#45;&gt;Mesh2DMDomain</title>
<path fill="none" stroke="black" stroke-width="0.5" d="M33.0506,-185.079C42.1341,-201.306 62.8398,-234.036 90,-250.5 98.9286,-255.912 109.249,-259.712 119.545,-262.376"/>
<polygon fill="black" stroke="black" stroke-width="0.5" points="119.319,-264.122 124.591,-263.595 120.141,-260.72 119.319,-264.122"/>
</g>
<!-- Mesh3DMDomain -->
<g id="node6" class="node"><title>Mesh3DMDomain</title>
<g id="a_node6"><a xlink:href="../api/proteus.Domain.html#proteus.Domain.Mesh3DMDomain" xlink:title="3D domains from ADH mesh files" target="_top">
<polygon fill="none" stroke="black" stroke-width="0.5" points="226,-241 125,-241 125,-222 226,-222 226,-241"/>
<text text-anchor="middle" x="175.5" y="-229" font-family="Vera Sans, DejaVu Sans, Liberation Sans, Arial, Helvetica, sans" font-size="10.00">Mesh3DMDomain</text>
</a>
</g>
</g>
<!-- D_base&#45;&gt;Mesh3DMDomain -->
<g id="edge4" class="edge"><title>D_base&#45;&gt;Mesh3DMDomain</title>
<path fill="none" stroke="black" stroke-width="0.5" d="M40.6176,-185.022C52.6875,-193.684 71.7093,-206.197 90,-213.5 99.4572,-217.276 109.841,-220.315 119.995,-222.743"/>
<polygon fill="black" stroke="black" stroke-width="0.5" points="119.691,-224.468 124.957,-223.886 120.477,-221.058 119.691,-224.468"/>
</g>
<!-- MeshHexDomain -->
<g id="node7" class="node"><title>MeshHexDomain</title>
<g id="a_node7"><a xlink:href="../api/proteus.Domain.html#proteus.Domain.MeshHexDomain" xlink:title="3D domains from Hex mesh files" target="_top">
<polygon fill="none" stroke="black" stroke-width="0.5" points="224.5,-204 126.5,-204 126.5,-185 224.5,-185 224.5,-204"/>
<text text-anchor="middle" x="175.5" y="-192" font-family="Vera Sans, DejaVu Sans, Liberation Sans, Arial, Helvetica, sans" font-size="10.00">MeshHexDomain</text>
</a>
</g>
</g>
<!-- D_base&#45;&gt;MeshHexDomain -->
<g id="edge5" class="edge"><title>D_base&#45;&gt;MeshHexDomain</title>
<path fill="none" stroke="black" stroke-width="0.5" d="M54.1913,-178.897C72.7844,-181.308 98.3926,-184.629 121.205,-187.588"/>
<polygon fill="black" stroke="black" stroke-width="0.5" points="121.146,-189.345 126.329,-188.253 121.596,-185.874 121.146,-189.345"/>
</g>
<!-- MeshTetgenDomain -->
<g id="node8" class="node"><title>MeshTetgenDomain</title>
<g id="a_node8"><a xlink:href="../api/proteus.Domain.html#proteus.Domain.MeshTetgenDomain" xlink:title="3D domains from tetgen mesh files" target="_top">
<polygon fill="none" stroke="black" stroke-width="0.5" points="231,-167 120,-167 120,-148 231,-148 231,-167"/>
<text text-anchor="middle" x="175.5" y="-155" font-family="Vera Sans, DejaVu Sans, Liberation Sans, Arial, Helvetica, sans" font-size="10.00">MeshTetgenDomain</text>
</a>
</g>
</g>
<!-- D_base&#45;&gt;MeshTetgenDomain -->
<g id="edge6" class="edge"><title>D_base&#45;&gt;MeshTetgenDomain</title>
<path fill="none" stroke="black" stroke-width="0.5" d="M54.1913,-172.282C71.03,-170.213 93.6225,-167.437 114.681,-164.85"/>
<polygon fill="black" stroke="black" stroke-width="0.5" points="114.964,-166.578 119.713,-164.232 114.537,-163.104 114.964,-166.578"/>
</g>
<!-- PUMIDomain -->
<g id="node9" class="node"><title>PUMIDomain</title>
<g id="a_node9"><a xlink:href="../api/proteus.Domain.html#proteus.Domain.PUMIDomain" xlink:title="3d domains from PUMI mesh files" target="_top">
<polygon fill="none" stroke="black" stroke-width="0.5" points="214.5,-130 136.5,-130 136.5,-111 214.5,-111 214.5,-130"/>
<text text-anchor="middle" x="175.5" y="-118" font-family="Vera Sans, DejaVu Sans, Liberation Sans, Arial, Helvetica, sans" font-size="10.00">PUMIDomain</text>
</a>
</g>
</g>
<!-- D_base&#45;&gt;PUMIDomain -->
<g id="edge7" class="edge"><title>D_base&#45;&gt;PUMIDomain</title>
<path fill="none" stroke="black" stroke-width="0.5" d="M41.6624,-165.922C53.8312,-157.802 72.386,-146.405 90,-139.5 103.091,-134.368 117.894,-130.45 131.411,-127.544"/>
<polygon fill="black" stroke="black" stroke-width="0.5" points="131.79,-129.252 136.327,-126.518 131.075,-125.826 131.79,-129.252"/>
</g>
<!-- PiecewiseLinearComplexDomain -->
<g id="node10" class="node"><title>PiecewiseLinearComplexDomain</title>
<g id="a_node10"><a xlink:href="../api/proteus.Domain.html#proteus.Domain.PiecewiseLinearComplexDomain" xlink:title="3D domains desribed by closed surfaces made up of general polygonal facets." target="_top">
<polygon fill="none" stroke="black" stroke-width="0.5" points="261,-93 90,-93 90,-74 261,-74 261,-93"/>
<text text-anchor="middle" x="175.5" y="-81" font-family="Vera Sans, DejaVu Sans, Liberation Sans, Arial, Helvetica, sans" font-size="10.00">PiecewiseLinearComplexDomain</text>
</a>
</g>
</g>
<!-- D_base&#45;&gt;PiecewiseLinearComplexDomain -->
<g id="edge8" class="edge"><title>D_base&#45;&gt;PiecewiseLinearComplexDomain</title>
<path fill="none" stroke="black" stroke-width="0.5" d="M33.2857,-165.956C42.5753,-150.126 63.3937,-118.591 90,-102.5 95.0259,-99.4604 100.485,-96.906 106.129,-94.7595"/>
<polygon fill="black" stroke="black" stroke-width="0.5" points="106.789,-96.3821 110.908,-93.0507 105.611,-93.0865 106.789,-96.3821"/>
</g>
<!-- RectangularDomain -->
<g id="node11" class="node"><title>RectangularDomain</title>
<g id="a_node11"><a xlink:href="../api/proteus.Domain.html#proteus.Domain.RectangularDomain" xlink:title="Rectangular domains in 1,2, or 3D specified by the lower left hand corner and dimensions." target="_top">
<polygon fill="none" stroke="black" stroke-width="0.5" points="230.5,-56 120.5,-56 120.5,-37 230.5,-37 230.5,-56"/>
<text text-anchor="middle" x="175.5" y="-44" font-family="Vera Sans, DejaVu Sans, Liberation Sans, Arial, Helvetica, sans" font-size="10.00">RectangularDomain</text>
</a>
</g>
</g>
<!-- D_base&#45;&gt;RectangularDomain -->
<g id="edge10" class="edge"><title>D_base&#45;&gt;RectangularDomain</title>
<path fill="none" stroke="black" stroke-width="0.5" d="M30.5517,-165.767C36.7654,-144.084 54.8165,-91.6606 90,-65.5 97.4321,-59.9738 106.18,-56.007 115.179,-53.169"/>
<polygon fill="black" stroke="black" stroke-width="0.5" points="115.888,-54.7854 120.198,-51.7058 114.908,-51.4253 115.888,-54.7854"/>
</g>
<!-- TriangulatedSurfaceDomain -->
<g id="node12" class="node"><title>TriangulatedSurfaceDomain</title>
<g id="a_node12"><a xlink:href="../api/proteus.Domain.html#proteus.Domain.TriangulatedSurfaceDomain" xlink:title="3D domains described by closed surfaces made up of triangular facets." target="_top">
<polygon fill="none" stroke="black" stroke-width="0.5" points="250,-19 101,-19 101,-0 250,-0 250,-19"/>
<text text-anchor="middle" x="175.5" y="-7" font-family="Vera Sans, DejaVu Sans, Liberation Sans, Arial, Helvetica, sans" font-size="10.00">TriangulatedSurfaceDomain</text>
</a>
</g>
</g>
<!-- D_base&#45;&gt;TriangulatedSurfaceDomain -->
<g id="edge11" class="edge"><title>D_base&#45;&gt;TriangulatedSurfaceDomain</title>
<path fill="none" stroke="black" stroke-width="0.5" d="M29.0603,-165.832C32.4967,-139.402 45.8036,-65.4564 90,-28.5 93.3163,-25.7269 96.9535,-23.3371 100.798,-21.2793"/>
<polygon fill="black" stroke="black" stroke-width="0.5" points="101.686,-22.7924 105.399,-19.0132 100.14,-19.6526 101.686,-22.7924"/>
</g>
<!-- InterpolatedBathymetryDomain -->
<g id="node3" class="node"><title>InterpolatedBathymetryDomain</title>
<g id="a_node3"><a xlink:href="../api/proteus.Domain.html#proteus.Domain.InterpolatedBathymetryDomain" xlink:title="2D domains with an attached bathymetry data set." target="_top">
<polygon fill="none" stroke="black" stroke-width="0.5" points="465,-315 297,-315 297,-296 465,-296 465,-315"/>
<text text-anchor="middle" x="381" y="-303" font-family="Vera Sans, DejaVu Sans, Liberation Sans, Arial, Helvetica, sans" font-size="10.00">InterpolatedBathymetryDomain</text>
</a>
</g>
</g>
<!-- PlanarStraightLineGraphDomain&#45;&gt;InterpolatedBathymetryDomain -->
<g id="edge2" class="edge"><title>PlanarStraightLineGraphDomain&#45;&gt;InterpolatedBathymetryDomain</title>
<path fill="none" stroke="black" stroke-width="0.5" d="M261.034,-305.5C271.078,-305.5 281.351,-305.5 291.448,-305.5"/>
<polygon fill="black" stroke="black" stroke-width="0.5" points="291.71,-307.25 296.71,-305.5 291.71,-303.75 291.71,-307.25"/>
</g>
</g>
</svg>
