<?xml version="1.0" encoding="UTF-8" standalone="no"?>
<!DOCTYPE svg PUBLIC "-//W3C//DTD SVG 1.1//EN"
 "http://www.w3.org/Graphics/SVG/1.1/DTD/svg11.dtd">
<!-- Generated by graphviz version 2.38.0 (20140413.2041)
 -->
<!-- Title: inheritanceb3a20b897e Pages: 1 -->
<svg width="576pt" height="312pt"
 viewBox="0.00 0.00 576.00 311.82" xmlns="http://www.w3.org/2000/svg" xmlns:xlink="http://www.w3.org/1999/xlink">
<g id="graph0" class="graph" transform="scale(0.866165 0.866165) rotate(0) translate(4 356)">
<title>inheritanceb3a20b897e</title>
<polygon fill="white" stroke="none" points="-4,4 -4,-356 661,-356 661,4 -4,4"/>
<!-- AggregateVelocityPostProcessor -->
<g id="node1" class="node"><title>AggregateVelocityPostProcessor</title>
<g id="a_node1"><a xlink:href="../api/proteus.PostProcessingTools.html#proteus.PostProcessingTools.AggregateVelocityPostProcessor" xlink:title="collect different velocity postprocessing algorithms for a (possibly) multicomponent system" target="_top">
<polygon fill="none" stroke="black" stroke-width="0.5" points="184.5,-148 12.5,-148 12.5,-129 184.5,-129 184.5,-148"/>
<text text-anchor="middle" x="98.5" y="-136" font-family="Vera Sans, DejaVu Sans, Liberation Sans, Arial, Helvetica, sans" font-size="10.00">AggregateVelocityPostProcessor</text>
</a>
</g>
</g>
<!-- VPP_DG_BDM -->
<g id="node2" class="node"><title>VPP_DG_BDM</title>
<g id="a_node2"><a xlink:href="../api/proteus.PostProcessingTools.html#proteus.PostProcessingTools.VPP_DG_BDM" xlink:title="Project DG solution onto BDM1 local representation which is" target="_top">
<polygon fill="none" stroke="black" stroke-width="0.5" points="497.5,-352 414.5,-352 414.5,-333 497.5,-333 497.5,-352"/>
<text text-anchor="middle" x="456" y="-340" font-family="Vera Sans, DejaVu Sans, Liberation Sans, Arial, Helvetica, sans" font-size="10.00">VPP_DG_BDM</text>
</a>
</g>
</g>
<!-- VPP_DG_RT0 -->
<g id="node3" class="node"><title>VPP_DG_RT0</title>
<g id="a_node3"><a xlink:href="../api/proteus.PostProcessingTools.html#proteus.PostProcessingTools.VPP_DG_RT0" xlink:title="Post process DG solution velocity by projecting boundary fluxes" target="_top">
<polygon fill="none" stroke="black" stroke-width="0.5" points="338.5,-352 261.5,-352 261.5,-333 338.5,-333 338.5,-352"/>
<text text-anchor="middle" x="300" y="-340" font-family="Vera Sans, DejaVu Sans, Liberation Sans, Arial, Helvetica, sans" font-size="10.00">VPP_DG_RT0</text>
</a>
</g>
</g>
<!-- VPP_DG_RT0&#45;&gt;VPP_DG_BDM -->
<g id="edge1" class="edge"><title>VPP_DG_RT0&#45;&gt;VPP_DG_BDM</title>
<path fill="none" stroke="black" stroke-width="0.5" d="M338.673,-342.5C360.031,-342.5 386.908,-342.5 409.445,-342.5"/>
<polygon fill="black" stroke="black" stroke-width="0.5" points="409.48,-344.25 414.48,-342.5 409.48,-340.75 409.48,-344.25"/>
</g>
<!-- VelocityPostProcessingAlgorithmBase -->
<g id="node4" class="node"><title>VelocityPostProcessingAlgorithmBase</title>
<g id="a_node4"><a xlink:href="../api/proteus.PostProcessingTools.html#proteus.PostProcessingTools.VelocityPostProcessingAlgorithmBase" xlink:title="Base class for velocity post processing algorithms" target="_top">
<polygon fill="none" stroke="black" stroke-width="0.5" points="197,-185 0,-185 0,-166 197,-166 197,-185"/>
<text text-anchor="middle" x="98.5" y="-173" font-family="Vera Sans, DejaVu Sans, Liberation Sans, Arial, Helvetica, sans" font-size="10.00">VelocityPostProcessingAlgorithmBase</text>
</a>
</g>
</g>
<!-- VelocityPostProcessingAlgorithmBase&#45;&gt;VPP_DG_RT0 -->
<g id="edge2" class="edge"><title>VelocityPostProcessingAlgorithmBase&#45;&gt;VPP_DG_RT0</title>
<path fill="none" stroke="black" stroke-width="0.5" d="M183.506,-185.076C188.388,-187.645 192.949,-190.752 197,-194.5 241.007,-235.214 190.525,-282.19 233,-324.5 239.39,-330.865 247.796,-335.038 256.46,-337.759"/>
<polygon fill="black" stroke="black" stroke-width="0.5" points="256.002,-339.447 261.289,-339.126 256.955,-336.08 256.002,-339.447"/>
</g>
<!-- VPP_LOW_K_IB_PWL_RT0 -->
<g id="node5" class="node"><title>VPP_LOW_K_IB_PWL_RT0</title>
<g id="a_node5"><a xlink:href="../api/proteus.PostProcessingTools.html#proteus.PostProcessingTools.VPP_LOW_K_IB_PWL_RT0" xlink:title="Local Larson&#45;Niklasson method with RT_0 representation for element" target="_top">
<polygon fill="none" stroke="black" stroke-width="0.5" points="367,-315 233,-315 233,-296 367,-296 367,-315"/>
<text text-anchor="middle" x="300" y="-303" font-family="Vera Sans, DejaVu Sans, Liberation Sans, Arial, Helvetica, sans" font-size="10.00">VPP_LOW_K_IB_PWL_RT0</text>
</a>
</g>
</g>
<!-- VelocityPostProcessingAlgorithmBase&#45;&gt;VPP_LOW_K_IB_PWL_RT0 -->
<g id="edge3" class="edge"><title>VelocityPostProcessingAlgorithmBase&#45;&gt;VPP_LOW_K_IB_PWL_RT0</title>
<path fill="none" stroke="black" stroke-width="0.5" d="M182.154,-185.093C187.482,-187.637 192.504,-190.736 197,-194.5 230.986,-222.95 200.087,-257.816 233,-287.5 235.489,-289.745 238.231,-291.713 241.14,-293.439"/>
<polygon fill="black" stroke="black" stroke-width="0.5" points="240.603,-295.137 245.837,-295.956 242.257,-292.052 240.603,-295.137"/>
</g>
<!-- VPP_P1nc_RT0 -->
<g id="node6" class="node"><title>VPP_P1nc_RT0</title>
<g id="a_node6"><a xlink:href="../api/proteus.PostProcessingTools.html#proteus.PostProcessingTools.VPP_P1nc_RT0" xlink:title="P1&#45;nonconforming velocity postprocessing" target="_top">
<polygon fill="none" stroke="black" stroke-width="0.5" points="343,-278 257,-278 257,-259 343,-259 343,-278"/>
<text text-anchor="middle" x="300" y="-266" font-family="Vera Sans, DejaVu Sans, Liberation Sans, Arial, Helvetica, sans" font-size="10.00">VPP_P1nc_RT0</text>
</a>
</g>
</g>
<!-- VelocityPostProcessingAlgorithmBase&#45;&gt;VPP_P1nc_RT0 -->
<g id="edge4" class="edge"><title>VelocityPostProcessingAlgorithmBase&#45;&gt;VPP_P1nc_RT0</title>
<path fill="none" stroke="black" stroke-width="0.5" d="M178.902,-185.174C185.301,-187.659 191.434,-190.725 197,-194.5 221.487,-211.108 209.142,-233 233,-250.5 238.571,-254.586 245.018,-257.745 251.655,-260.187"/>
<polygon fill="black" stroke="black" stroke-width="0.5" points="251.46,-261.968 256.757,-261.917 252.584,-258.654 251.46,-261.968"/>
</g>
<!-- VPP_POINT_EVAL -->
<g id="node7" class="node"><title>VPP_POINT_EVAL</title>
<g id="a_node7"><a xlink:href="../api/proteus.PostProcessingTools.html#proteus.PostProcessingTools.VPP_POINT_EVAL" xlink:title="Velocity calculation from just directly evaluating flux formula at intergration points using" target="_top">
<polygon fill="none" stroke="black" stroke-width="0.5" points="349,-241 251,-241 251,-222 349,-222 349,-241"/>
<text text-anchor="middle" x="300" y="-229" font-family="Vera Sans, DejaVu Sans, Liberation Sans, Arial, Helvetica, sans" font-size="10.00">VPP_POINT_EVAL</text>
</a>
</g>
</g>
<!-- VelocityPostProcessingAlgorithmBase&#45;&gt;VPP_POINT_EVAL -->
<g id="edge5" class="edge"><title>VelocityPostProcessingAlgorithmBase&#45;&gt;VPP_POINT_EVAL</title>
<path fill="none" stroke="black" stroke-width="0.5" d="M162.902,-185.05C174.409,-187.571 186.185,-190.686 197,-194.5 214.062,-200.517 216.172,-206.858 233,-213.5 239.552,-216.086 246.612,-218.44 253.591,-220.531"/>
<polygon fill="black" stroke="black" stroke-width="0.5" points="253.112,-222.214 258.403,-221.936 254.093,-218.855 253.112,-222.214"/>
</g>
<!-- VPP_POINT_EVAL_GWVD -->
<g id="node8" class="node"><title>VPP_POINT_EVAL_GWVD</title>
<g id="a_node8"><a xlink:href="../api/proteus.PostProcessingTools.html#proteus.PostProcessingTools.VPP_POINT_EVAL_GWVD" xlink:title="Velocity calculation for evaluating coarse grid velocity solution" target="_top">
<polygon fill="none" stroke="black" stroke-width="0.5" points="367,-204 233,-204 233,-185 367,-185 367,-204"/>
<text text-anchor="middle" x="300" y="-192" font-family="Vera Sans, DejaVu Sans, Liberation Sans, Arial, Helvetica, sans" font-size="10.00">VPP_POINT_EVAL_GWVD</text>
</a>
</g>
</g>
<!-- VelocityPostProcessingAlgorithmBase&#45;&gt;VPP_POINT_EVAL_GWVD -->
<g id="edge6" class="edge"><title>VelocityPostProcessingAlgorithmBase&#45;&gt;VPP_POINT_EVAL_GWVD</title>
<path fill="none" stroke="black" stroke-width="0.5" d="M197.204,-184.805C207.461,-185.782 217.747,-186.762 227.627,-187.703"/>
<polygon fill="black" stroke="black" stroke-width="0.5" points="227.611,-189.459 232.755,-188.191 227.943,-185.975 227.611,-189.459"/>
</g>
<!-- VPP_PWC_RT0 -->
<g id="node9" class="node"><title>VPP_PWC_RT0</title>
<g id="a_node9"><a xlink:href="../api/proteus.PostProcessingTools.html#proteus.PostProcessingTools.VPP_PWC_RT0" xlink:title="Global piecewise constant Larson&#45;Niklasson method with :math:`RT_0`" target="_top">
<polygon fill="none" stroke="black" stroke-width="0.5" points="341.5,-167 258.5,-167 258.5,-148 341.5,-148 341.5,-167"/>
<text text-anchor="middle" x="300" y="-155" font-family="Vera Sans, DejaVu Sans, Liberation Sans, Arial, Helvetica, sans" font-size="10.00">VPP_PWC_RT0</text>
</a>
</g>
</g>
<!-- VelocityPostProcessingAlgorithmBase&#45;&gt;VPP_PWC_RT0 -->
<g id="edge7" class="edge"><title>VelocityPostProcessingAlgorithmBase&#45;&gt;VPP_PWC_RT0</title>
<path fill="none" stroke="black" stroke-width="0.5" d="M197.204,-166.685C216.709,-164.925 236.318,-163.156 253.046,-161.646"/>
<polygon fill="black" stroke="black" stroke-width="0.5" points="253.32,-163.379 258.142,-161.186 253.005,-159.893 253.32,-163.379"/>
</g>
<!-- VPP_PWL_RT0 -->
<g id="node11" class="node"><title>VPP_PWL_RT0</title>
<g id="a_node11"><a xlink:href="../api/proteus.PostProcessingTools.html#proteus.PostProcessingTools.VPP_PWL_RT0" xlink:title="Local Larson&#45;Niklasson method with RT_0 representation for element" target="_top">
<polygon fill="none" stroke="black" stroke-width="0.5" points="341,-130 259,-130 259,-111 341,-111 341,-130"/>
<text text-anchor="middle" x="300" y="-118" font-family="Vera Sans, DejaVu Sans, Liberation Sans, Arial, Helvetica, sans" font-size="10.00">VPP_PWL_RT0</text>
</a>
</g>
</g>
<!-- VelocityPostProcessingAlgorithmBase&#45;&gt;VPP_PWL_RT0 -->
<g id="edge11" class="edge"><title>VelocityPostProcessingAlgorithmBase&#45;&gt;VPP_PWL_RT0</title>
<path fill="none" stroke="black" stroke-width="0.5" d="M165.179,-165.994C175.943,-163.692 186.88,-160.889 197,-157.5 213.963,-151.82 216.335,-146.002 233,-139.5 240.451,-136.593 248.529,-133.905 256.393,-131.521"/>
<polygon fill="black" stroke="black" stroke-width="0.5" points="256.96,-133.178 261.255,-130.076 255.964,-129.823 256.96,-133.178"/>
</g>
<!-- VPP_PWL_RT1 -->
<g id="node15" class="node"><title>VPP_PWL_RT1</title>
<g id="a_node15"><a xlink:href="../api/proteus.PostProcessingTools.html#proteus.PostProcessingTools.VPP_PWL_RT1" xlink:title="Base class for higher order RT elements." target="_top">
<polygon fill="none" stroke="black" stroke-width="0.5" points="341,-93 259,-93 259,-74 341,-74 341,-93"/>
<text text-anchor="middle" x="300" y="-81" font-family="Vera Sans, DejaVu Sans, Liberation Sans, Arial, Helvetica, sans" font-size="10.00">VPP_PWL_RT1</text>
</a>
</g>
</g>
<!-- VelocityPostProcessingAlgorithmBase&#45;&gt;VPP_PWL_RT1 -->
<g id="edge13" class="edge"><title>VelocityPostProcessingAlgorithmBase&#45;&gt;VPP_PWL_RT1</title>
<path fill="none" stroke="black" stroke-width="0.5" d="M180.815,-165.877C186.516,-163.597 191.984,-160.836 197,-157.5 221.326,-141.321 209.493,-119.848 233,-102.5 239.158,-97.9554 246.377,-94.4953 253.739,-91.8615"/>
<polygon fill="black" stroke="black" stroke-width="0.5" points="254.651,-93.4025 258.846,-90.167 253.549,-90.0805 254.651,-93.4025"/>
</g>
<!-- VPP_SUN_GS_RT0 -->
<g id="node16" class="node"><title>VPP_SUN_GS_RT0</title>
<g id="a_node16"><a xlink:href="../api/proteus.PostProcessingTools.html#proteus.PostProcessingTools.VPP_SUN_GS_RT0" xlink:title="Local Sun&#45;Wheeler &quot;Gauss&#45;Seidel&quot; method with :math:`RT_0` representation" target="_top">
<polygon fill="none" stroke="black" stroke-width="0.5" points="352,-56 248,-56 248,-37 352,-37 352,-56"/>
<text text-anchor="middle" x="300" y="-44" font-family="Vera Sans, DejaVu Sans, Liberation Sans, Arial, Helvetica, sans" font-size="10.00">VPP_SUN_GS_RT0</text>
</a>
</g>
</g>
<!-- VelocityPostProcessingAlgorithmBase&#45;&gt;VPP_SUN_GS_RT0 -->
<g id="edge14" class="edge"><title>VelocityPostProcessingAlgorithmBase&#45;&gt;VPP_SUN_GS_RT0</title>
<path fill="none" stroke="black" stroke-width="0.5" d="M183.987,-165.871C188.63,-163.552 193.018,-160.788 197,-157.5 230.859,-129.545 200.547,-95.0759 233,-65.5 236.104,-62.6713 239.603,-60.2614 243.329,-58.2085"/>
<polygon fill="black" stroke="black" stroke-width="0.5" points="244.119,-59.7701 247.799,-55.9588 242.546,-56.6438 244.119,-59.7701"/>
</g>
<!-- VPP_SUN_RT0 -->
<g id="node17" class="node"><title>VPP_SUN_RT0</title>
<g id="a_node17"><a xlink:href="../api/proteus.PostProcessingTools.html#proteus.PostProcessingTools.VPP_SUN_RT0" xlink:title="Global piecewise constant Sun&#45;Wheeler method with :math:`RT_0`" target="_top">
<polygon fill="none" stroke="black" stroke-width="0.5" points="342,-19 258,-19 258,-0 342,-0 342,-19"/>
<text text-anchor="middle" x="300" y="-7" font-family="Vera Sans, DejaVu Sans, Liberation Sans, Arial, Helvetica, sans" font-size="10.00">VPP_SUN_RT0</text>
</a>
</g>
</g>
<!-- VelocityPostProcessingAlgorithmBase&#45;&gt;VPP_SUN_RT0 -->
<g id="edge15" class="edge"><title>VelocityPostProcessingAlgorithmBase&#45;&gt;VPP_SUN_RT0</title>
<path fill="none" stroke="black" stroke-width="0.5" d="M185.299,-165.846C189.503,-163.514 193.446,-160.756 197,-157.5 241.208,-117.004 190.525,-69.8099 233,-27.5 238.469,-22.0518 245.416,-18.2099 252.738,-15.5097"/>
<polygon fill="black" stroke="black" stroke-width="0.5" points="253.656,-17.0494 257.853,-13.8171 252.556,-13.7266 253.656,-17.0494"/>
</g>
<!-- VPP_PWL_BDM -->
<g id="node10" class="node"><title>VPP_PWL_BDM</title>
<g id="a_node10"><a xlink:href="../api/proteus.PostProcessingTools.html#proteus.PostProcessingTools.VPP_PWL_BDM" xlink:title="Local Larson&#45;Niklasson method with BDM1 representation for element" target="_top">
<polygon fill="none" stroke="black" stroke-width="0.5" points="500,-167 412,-167 412,-148 500,-148 500,-167"/>
<text text-anchor="middle" x="456" y="-155" font-family="Vera Sans, DejaVu Sans, Liberation Sans, Arial, Helvetica, sans" font-size="10.00">VPP_PWL_BDM</text>
</a>
</g>
</g>
<!-- VPP_PWL_RT0&#45;&gt;VPP_PWL_BDM -->
<g id="edge8" class="edge"><title>VPP_PWL_RT0&#45;&gt;VPP_PWL_BDM</title>
<path fill="none" stroke="black" stroke-width="0.5" d="M340.659,-130.028C361.952,-135.144 388.272,-141.468 410.29,-146.758"/>
<polygon fill="black" stroke="black" stroke-width="0.5" points="409.938,-148.473 415.208,-147.94 410.755,-145.07 409.938,-148.473"/>
</g>
<!-- VPP_PWL_BDM2 -->
<g id="node12" class="node"><title>VPP_PWL_BDM2</title>
<g id="a_node12"><a xlink:href="../api/proteus.PostProcessingTools.html#proteus.PostProcessingTools.VPP_PWL_BDM2" xlink:title="This class is intended to implement BDM2 elements in proteus" target="_top">
<polygon fill="none" stroke="black" stroke-width="0.5" points="503,-130 409,-130 409,-111 503,-111 503,-130"/>
<text text-anchor="middle" x="456" y="-118" font-family="Vera Sans, DejaVu Sans, Liberation Sans, Arial, Helvetica, sans" font-size="10.00">VPP_PWL_BDM2</text>
</a>
</g>
</g>
<!-- VPP_PWL_RT0&#45;&gt;VPP_PWL_BDM2 -->
<g id="edge9" class="edge"><title>VPP_PWL_RT0&#45;&gt;VPP_PWL_BDM2</title>
<path fill="none" stroke="black" stroke-width="0.5" d="M341.06,-120.5C360.202,-120.5 383.337,-120.5 403.745,-120.5"/>
<polygon fill="black" stroke="black" stroke-width="0.5" points="403.871,-122.25 408.871,-120.5 403.871,-118.75 403.871,-122.25"/>
</g>
<!-- VPP_PWL_RT0_OPT -->
<g id="node14" class="node"><title>VPP_PWL_RT0_OPT</title>
<g id="a_node14"><a xlink:href="../api/proteus.PostProcessingTools.html#proteus.PostProcessingTools.VPP_PWL_RT0_OPT" xlink:title="Version of local Larson&#45;Niklasson scheme to use with optimized" target="_top">
<polygon fill="none" stroke="black" stroke-width="0.5" points="509,-93 403,-93 403,-74 509,-74 509,-93"/>
<text text-anchor="middle" x="456" y="-81" font-family="Vera Sans, DejaVu Sans, Liberation Sans, Arial, Helvetica, sans" font-size="10.00">VPP_PWL_RT0_OPT</text>
</a>
</g>
</g>
<!-- VPP_PWL_RT0&#45;&gt;VPP_PWL_RT0_OPT -->
<g id="edge12" class="edge"><title>VPP_PWL_RT0&#45;&gt;VPP_PWL_RT0_OPT</title>
<path fill="none" stroke="black" stroke-width="0.5" d="M340.659,-110.972C361.952,-105.856 388.272,-99.532 410.29,-94.2419"/>
<polygon fill="black" stroke="black" stroke-width="0.5" points="410.755,-95.9301 415.208,-93.0604 409.938,-92.5269 410.755,-95.9301"/>
</g>
<!-- VPP_PWL_BDM_OPT -->
<g id="node13" class="node"><title>VPP_PWL_BDM_OPT</title>
<g id="a_node13"><a xlink:href="../api/proteus.PostProcessingTools.html#proteus.PostProcessingTools.VPP_PWL_BDM_OPT" xlink:title="Local Larson&#45;Niklasson method with BDM1 representation for element" target="_top">
<polygon fill="none" stroke="black" stroke-width="0.5" points="657,-93 545,-93 545,-74 657,-74 657,-93"/>
<text text-anchor="middle" x="601" y="-81" font-family="Vera Sans, DejaVu Sans, Liberation Sans, Arial, Helvetica, sans" font-size="10.00">VPP_PWL_BDM_OPT</text>
</a>
</g>
</g>
<!-- VPP_PWL_RT0_OPT&#45;&gt;VPP_PWL_BDM_OPT -->
<g id="edge10" class="edge"><title>VPP_PWL_RT0_OPT&#45;&gt;VPP_PWL_BDM_OPT</title>
<path fill="none" stroke="black" stroke-width="0.5" d="M509.031,-83.5C519.05,-83.5 529.622,-83.5 539.874,-83.5"/>
<polygon fill="black" stroke="black" stroke-width="0.5" points="539.877,-85.2501 544.877,-83.5 539.877,-81.7501 539.877,-85.2501"/>
</g>
<!-- VelocityPostProcessor_Original -->
<g id="node18" class="node"><title>VelocityPostProcessor_Original</title>
<g id="a_node18"><a xlink:href="../api/proteus.PostProcessingTools.html#proteus.PostProcessingTools.VelocityPostProcessor_Original" xlink:title="accumulate basic functionality for post&#45;processing velocity vields" target="_top">
<polygon fill="none" stroke="black" stroke-width="0.5" points="180,-222 17,-222 17,-203 180,-203 180,-222"/>
<text text-anchor="middle" x="98.5" y="-210" font-family="Vera Sans, DejaVu Sans, Liberation Sans, Arial, Helvetica, sans" font-size="10.00">VelocityPostProcessor_Original</text>
</a>
</g>
</g>
</g>
</svg>
