<?xml version="1.0" encoding="UTF-8" standalone="no"?>
<!DOCTYPE svg PUBLIC "-//W3C//DTD SVG 1.1//EN"
 "http://www.w3.org/Graphics/SVG/1.1/DTD/svg11.dtd">
<!-- Generated by graphviz version 2.40.1 (20161225.0304)
 -->
<!-- Title: inheritance3ba27a0141 Pages: 1 -->
<svg width="576pt" height="385pt"
 viewBox="0.00 0.00 576.00 384.59" xmlns="http://www.w3.org/2000/svg" xmlns:xlink="http://www.w3.org/1999/xlink">
<g id="graph0" class="graph" transform="scale(.8862 .8862) rotate(0) translate(4 430)">
<title>inheritance3ba27a0141</title>
<polygon fill="#ffffff" stroke="transparent" points="-4,4 -4,-430 646,-430 646,4 -4,4"/>
<!-- AS_base -->
<g id="node1" class="node">
<title>AS_base</title>
<g id="a_node1"><a xlink:href="../api/proteus.AnalyticalSolutions.html#proteus.AnalyticalSolutions.AS_base" xlink:title="The base class for general analytical solutions, u(x,y,z,t)" target="_top">
<polygon fill="none" stroke="#000000" stroke-width=".5" points="58,-222 0,-222 0,-203 58,-203 58,-222"/>
<text text-anchor="middle" x="29" y="-210" font-family="Vera Sans, DejaVu Sans, Liberation Sans, Arial, Helvetica, sans" font-size="10.00" fill="#000000">AS_base</text>
</a>
</g>
</g>
<!-- Buckley_Leverett_RiemannSoln -->
<g id="node2" class="node">
<title>Buckley_Leverett_RiemannSoln</title>
<g id="a_node2"><a xlink:href="../api/proteus.AnalyticalSolutions.html#proteus.AnalyticalSolutions.Buckley_Leverett_RiemannSoln" xlink:title="Buckley_Leverett_RiemannSoln" target="_top">
<polygon fill="none" stroke="#000000" stroke-width=".5" points="265,-333 94,-333 94,-314 265,-314 265,-333"/>
<text text-anchor="middle" x="179.5" y="-321" font-family="Vera Sans, DejaVu Sans, Liberation Sans, Arial, Helvetica, sans" font-size="10.00" fill="#000000">Buckley_Leverett_RiemannSoln</text>
</a>
</g>
</g>
<!-- AS_base&#45;&gt;Buckley_Leverett_RiemannSoln -->
<g id="edge1" class="edge">
<title>AS_base&#45;&gt;Buckley_Leverett_RiemannSoln</title>
<path fill="none" stroke="#000000" stroke-width=".5" d="M32.8549,-222.2163C41.0156,-241.4446 61.9572,-284.3162 94,-305.5 97.81,-308.0188 101.9065,-310.1941 106.1694,-312.0719"/>
<polygon fill="#000000" stroke="#000000" stroke-width=".5" points="105.5647,-313.7153 110.8548,-313.9949 106.8937,-310.4774 105.5647,-313.7153"/>
</g>
<!-- DAE_base -->
<g id="node3" class="node">
<title>DAE_base</title>
<g id="a_node3"><a xlink:href="../api/proteus.AnalyticalSolutions.html#proteus.AnalyticalSolutions.DAE_base" xlink:title="The base class for differential&#45;algebraic equation solutions" target="_top">
<polygon fill="none" stroke="#000000" stroke-width=".5" points="212,-296 147,-296 147,-277 212,-277 212,-296"/>
<text text-anchor="middle" x="179.5" y="-284" font-family="Vera Sans, DejaVu Sans, Liberation Sans, Arial, Helvetica, sans" font-size="10.00" fill="#000000">DAE_base</text>
</a>
</g>
</g>
<!-- AS_base&#45;&gt;DAE_base -->
<g id="edge2" class="edge">
<title>AS_base&#45;&gt;DAE_base</title>
<path fill="none" stroke="#000000" stroke-width=".5" d="M37.1914,-222.0833C48.5909,-234.7672 70.5017,-256.8775 94,-268.5 108.7813,-275.811 126.4269,-280.1586 141.8387,-282.7413"/>
<polygon fill="#000000" stroke="#000000" stroke-width=".5" points="141.7607,-284.5006 146.9723,-283.5513 142.3062,-281.0434 141.7607,-284.5006"/>
</g>
<!-- LinearAD_DiracIC -->
<g id="node5" class="node">
<title>LinearAD_DiracIC</title>
<g id="a_node5"><a xlink:href="../api/proteus.AnalyticalSolutions.html#proteus.AnalyticalSolutions.LinearAD_DiracIC" xlink:title="The exact solution of" target="_top">
<polygon fill="none" stroke="#000000" stroke-width=".5" points="230,-259 129,-259 129,-240 230,-240 230,-259"/>
<text text-anchor="middle" x="179.5" y="-247" font-family="Vera Sans, DejaVu Sans, Liberation Sans, Arial, Helvetica, sans" font-size="10.00" fill="#000000">LinearAD_DiracIC</text>
</a>
</g>
</g>
<!-- AS_base&#45;&gt;LinearAD_DiracIC -->
<g id="edge5" class="edge">
<title>AS_base&#45;&gt;LinearAD_DiracIC</title>
<path fill="none" stroke="#000000" stroke-width=".5" d="M58.3144,-221.5885C69.4385,-224.9001 82.2547,-228.5517 94,-231.5 104.2414,-234.0708 115.2348,-236.5744 125.8141,-238.8573"/>
<polygon fill="#000000" stroke="#000000" stroke-width=".5" points="125.7137,-240.6253 130.9691,-239.9595 126.4456,-237.2027 125.7137,-240.6253"/>
</g>
<!-- SteadyState -->
<g id="node7" class="node">
<title>SteadyState</title>
<g id="a_node7"><a xlink:href="../api/proteus.AnalyticalSolutions.html#proteus.AnalyticalSolutions.SteadyState" xlink:title="Based class for steady&#45;state solutions u(x)" target="_top">
<polygon fill="none" stroke="#000000" stroke-width=".5" points="217.5,-222 141.5,-222 141.5,-203 217.5,-203 217.5,-222"/>
<text text-anchor="middle" x="179.5" y="-210" font-family="Vera Sans, DejaVu Sans, Liberation Sans, Arial, Helvetica, sans" font-size="10.00" fill="#000000">SteadyState</text>
</a>
</g>
</g>
<!-- AS_base&#45;&gt;SteadyState -->
<g id="edge22" class="edge">
<title>AS_base&#45;&gt;SteadyState</title>
<path fill="none" stroke="#000000" stroke-width=".5" d="M58.0179,-212.5C80.187,-212.5 111.0965,-212.5 136.1887,-212.5"/>
<polygon fill="#000000" stroke="#000000" stroke-width=".5" points="136.4496,-214.2501 141.4496,-212.5 136.4495,-210.7501 136.4496,-214.2501"/>
</g>
<!-- VortexDecay_p -->
<g id="node24" class="node">
<title>VortexDecay_p</title>
<g id="a_node24"><a xlink:href="../api/proteus.AnalyticalSolutions.html#proteus.AnalyticalSolutions.VortexDecay_p" xlink:title="The exact solution for the u component of &#160;velocity in the vortex &#160;decay problem" target="_top">
<polygon fill="none" stroke="#000000" stroke-width=".5" points="224.5,-185 134.5,-185 134.5,-166 224.5,-166 224.5,-185"/>
<text text-anchor="middle" x="179.5" y="-173" font-family="Vera Sans, DejaVu Sans, Liberation Sans, Arial, Helvetica, sans" font-size="10.00" fill="#000000">VortexDecay_p</text>
</a>
</g>
</g>
<!-- AS_base&#45;&gt;VortexDecay_p -->
<g id="edge23" class="edge">
<title>AS_base&#45;&gt;VortexDecay_p</title>
<path fill="none" stroke="#000000" stroke-width=".5" d="M58.0368,-204.115C69.2411,-200.9701 82.1841,-197.4468 94,-194.5 105.4896,-191.6345 117.9009,-188.7542 129.6099,-186.1332"/>
<polygon fill="#000000" stroke="#000000" stroke-width=".5" points="130.0801,-187.8214 134.5803,-185.0266 129.3195,-184.4051 130.0801,-187.8214"/>
</g>
<!-- VortexDecay_u -->
<g id="node25" class="node">
<title>VortexDecay_u</title>
<g id="a_node25"><a xlink:href="../api/proteus.AnalyticalSolutions.html#proteus.AnalyticalSolutions.VortexDecay_u" xlink:title="The exact solution for the u component of &#160;velocity in the vortex &#160;decay problem" target="_top">
<polygon fill="none" stroke="#000000" stroke-width=".5" points="224.5,-148 134.5,-148 134.5,-129 224.5,-129 224.5,-148"/>
<text text-anchor="middle" x="179.5" y="-136" font-family="Vera Sans, DejaVu Sans, Liberation Sans, Arial, Helvetica, sans" font-size="10.00" fill="#000000">VortexDecay_u</text>
</a>
</g>
</g>
<!-- AS_base&#45;&gt;VortexDecay_u -->
<g id="edge24" class="edge">
<title>AS_base&#45;&gt;VortexDecay_u</title>
<path fill="none" stroke="#000000" stroke-width=".5" d="M37.6422,-202.7041C49.21,-190.2308 70.9575,-168.9297 94,-157.5 104.8466,-152.1198 117.2174,-148.2484 129.1148,-145.4676"/>
<polygon fill="#000000" stroke="#000000" stroke-width=".5" points="129.6781,-147.1352 134.179,-144.3414 128.9183,-143.7186 129.6781,-147.1352"/>
</g>
<!-- VortexDecay_v -->
<g id="node26" class="node">
<title>VortexDecay_v</title>
<g id="a_node26"><a xlink:href="../api/proteus.AnalyticalSolutions.html#proteus.AnalyticalSolutions.VortexDecay_v" xlink:title="The exact solution for the u component of &#160;velocity in the vortex &#160;decay problem" target="_top">
<polygon fill="none" stroke="#000000" stroke-width=".5" points="224.5,-111 134.5,-111 134.5,-92 224.5,-92 224.5,-111"/>
<text text-anchor="middle" x="179.5" y="-99" font-family="Vera Sans, DejaVu Sans, Liberation Sans, Arial, Helvetica, sans" font-size="10.00" fill="#000000">VortexDecay_v</text>
</a>
</g>
</g>
<!-- AS_base&#45;&gt;VortexDecay_v -->
<g id="edge25" class="edge">
<title>AS_base&#45;&gt;VortexDecay_v</title>
<path fill="none" stroke="#000000" stroke-width=".5" d="M32.9052,-202.9174C41.1563,-183.9485 62.2524,-141.6277 94,-120.5 104.4119,-113.571 116.9593,-109.1331 129.1951,-106.3008"/>
<polygon fill="#000000" stroke="#000000" stroke-width=".5" points="129.8905,-107.9416 134.4128,-105.1827 129.157,-104.5193 129.8905,-107.9416"/>
</g>
<!-- NonlinearDAE -->
<g id="node11" class="node">
<title>NonlinearDAE</title>
<g id="a_node11"><a xlink:href="../api/proteus.AnalyticalSolutions.html#proteus.AnalyticalSolutions.NonlinearDAE" xlink:title="The exact solution of the simple nonlinear DAE" target="_top">
<polygon fill="none" stroke="#000000" stroke-width=".5" points="415,-426 331,-426 331,-407 415,-407 415,-426"/>
<text text-anchor="middle" x="373" y="-414" font-family="Vera Sans, DejaVu Sans, Liberation Sans, Arial, Helvetica, sans" font-size="10.00" fill="#000000">NonlinearDAE</text>
</a>
</g>
</g>
<!-- DAE_base&#45;&gt;NonlinearDAE -->
<g id="edge9" class="edge">
<title>DAE_base&#45;&gt;NonlinearDAE</title>
<path fill="none" stroke="#000000" stroke-width=".5" d="M212.012,-286.5604C229.5318,-288.2124 250.4711,-293.0103 265,-305.5 298.6103,-334.3928 267.7727,-369.1676 301,-398.5 308.0091,-404.6875 316.8294,-408.8135 325.8711,-411.5495"/>
<polygon fill="#000000" stroke="#000000" stroke-width=".5" points="325.622,-413.2958 330.9069,-412.9308 326.5479,-409.9205 325.622,-413.2958"/>
</g>
<!-- LinearADR_Decay_DiracIC -->
<g id="node4" class="node">
<title>LinearADR_Decay_DiracIC</title>
<g id="a_node4"><a xlink:href="../api/proteus.AnalyticalSolutions.html#proteus.AnalyticalSolutions.LinearADR_Decay_DiracIC" xlink:title="The exact solution of" target="_top">
<polygon fill="none" stroke="#000000" stroke-width=".5" points="445,-389 301,-389 301,-370 445,-370 445,-389"/>
<text text-anchor="middle" x="373" y="-377" font-family="Vera Sans, DejaVu Sans, Liberation Sans, Arial, Helvetica, sans" font-size="10.00" fill="#000000">LinearADR_Decay_DiracIC</text>
</a>
</g>
</g>
<!-- NonlinearADR_Decay_DiracIC -->
<g id="node9" class="node">
<title>NonlinearADR_Decay_DiracIC</title>
<g id="a_node9"><a xlink:href="../api/proteus.AnalyticalSolutions.html#proteus.AnalyticalSolutions.NonlinearADR_Decay_DiracIC" xlink:title="The approximate analytical solution of" target="_top">
<polygon fill="none" stroke="#000000" stroke-width=".5" points="642,-389 481,-389 481,-370 642,-370 642,-389"/>
<text text-anchor="middle" x="561.5" y="-377" font-family="Vera Sans, DejaVu Sans, Liberation Sans, Arial, Helvetica, sans" font-size="10.00" fill="#000000">NonlinearADR_Decay_DiracIC</text>
</a>
</g>
</g>
<!-- LinearADR_Decay_DiracIC&#45;&gt;NonlinearADR_Decay_DiracIC -->
<g id="edge7" class="edge">
<title>LinearADR_Decay_DiracIC&#45;&gt;NonlinearADR_Decay_DiracIC</title>
<path fill="none" stroke="#000000" stroke-width=".5" d="M445.0706,-379.5C455.1636,-379.5 465.6163,-379.5 475.9293,-379.5"/>
<polygon fill="#000000" stroke="#000000" stroke-width=".5" points="475.9786,-381.2501 480.9786,-379.5 475.9786,-377.7501 475.9786,-381.2501"/>
</g>
<!-- LinearAD_DiracIC&#45;&gt;LinearADR_Decay_DiracIC -->
<g id="edge3" class="edge">
<title>LinearAD_DiracIC&#45;&gt;LinearADR_Decay_DiracIC</title>
<path fill="none" stroke="#000000" stroke-width=".5" d="M230.3076,-252.4294C242.7791,-255.2657 255.3141,-260.1735 265,-268.5 298.6103,-297.3928 267.7727,-332.1676 301,-361.5 303.5356,-363.7384 306.3082,-365.707 309.2426,-367.4376"/>
<polygon fill="#000000" stroke="#000000" stroke-width=".5" points="308.7413,-369.1537 313.9761,-369.9657 310.3902,-366.0665 308.7413,-369.1537"/>
</g>
<!-- LinearADR_Sine -->
<g id="node6" class="node">
<title>LinearADR_Sine</title>
<g id="a_node6"><a xlink:href="../api/proteus.AnalyticalSolutions.html#proteus.AnalyticalSolutions.LinearADR_Sine" xlink:title="An exact solution and source term for" target="_top">
<polygon fill="none" stroke="#000000" stroke-width=".5" points="420,-352 326,-352 326,-333 420,-333 420,-352"/>
<text text-anchor="middle" x="373" y="-340" font-family="Vera Sans, DejaVu Sans, Liberation Sans, Arial, Helvetica, sans" font-size="10.00" fill="#000000">LinearADR_Sine</text>
</a>
</g>
</g>
<!-- SteadyState&#45;&gt;LinearADR_Sine -->
<g id="edge4" class="edge">
<title>SteadyState&#45;&gt;LinearADR_Sine</title>
<path fill="none" stroke="#000000" stroke-width=".5" d="M217.5332,-213.1772C233.7844,-215.2844 251.9701,-220.2989 265,-231.5 298.6103,-260.3928 267.7727,-295.1676 301,-324.5 306.6507,-329.4884 313.4787,-333.1369 320.6508,-335.7973"/>
<polygon fill="#000000" stroke="#000000" stroke-width=".5" points="320.3638,-337.5472 325.6608,-337.4857 321.4815,-334.2305 320.3638,-337.5472"/>
</g>
<!-- LinearAD_SteadyState -->
<g id="node8" class="node">
<title>LinearAD_SteadyState</title>
<g id="a_node8"><a xlink:href="../api/proteus.AnalyticalSolutions.html#proteus.AnalyticalSolutions.LinearAD_SteadyState" xlink:title="The solution of the steady linear advection&#45;diffusion equation" target="_top">
<polygon fill="none" stroke="#000000" stroke-width=".5" points="435.5,-315 310.5,-315 310.5,-296 435.5,-296 435.5,-315"/>
<text text-anchor="middle" x="373" y="-303" font-family="Vera Sans, DejaVu Sans, Liberation Sans, Arial, Helvetica, sans" font-size="10.00" fill="#000000">LinearAD_SteadyState</text>
</a>
</g>
</g>
<!-- SteadyState&#45;&gt;LinearAD_SteadyState -->
<g id="edge6" class="edge">
<title>SteadyState&#45;&gt;LinearAD_SteadyState</title>
<path fill="none" stroke="#000000" stroke-width=".5" d="M217.8218,-214.6534C233.5661,-217.0771 251.2813,-221.9308 265,-231.5 289.2677,-248.4274 276.9571,-270.2549 301,-287.5 304.3864,-289.9289 308.0664,-292.0314 311.9117,-293.8512"/>
<polygon fill="#000000" stroke="#000000" stroke-width=".5" points="311.2122,-295.4553 316.4941,-295.8602 312.6175,-292.2498 311.2122,-295.4553"/>
</g>
<!-- PlaneBase -->
<g id="node12" class="node">
<title>PlaneBase</title>
<g id="a_node12"><a xlink:href="../api/proteus.AnalyticalSolutions.html#proteus.AnalyticalSolutions.PlaneBase" xlink:title="The exact solution for the u component of &#160;velocity in plane Poiseuille Flow" target="_top">
<polygon fill="none" stroke="#000000" stroke-width=".5" points="407,-278 339,-278 339,-259 407,-259 407,-278"/>
<text text-anchor="middle" x="373" y="-266" font-family="Vera Sans, DejaVu Sans, Liberation Sans, Arial, Helvetica, sans" font-size="10.00" fill="#000000">PlaneBase</text>
</a>
</g>
</g>
<!-- SteadyState&#45;&gt;PlaneBase -->
<g id="edge10" class="edge">
<title>SteadyState&#45;&gt;PlaneBase</title>
<path fill="none" stroke="#000000" stroke-width=".5" d="M217.5805,-218.6991C232.6118,-221.7276 249.8709,-225.9406 265,-231.5 281.9815,-237.74 284.1021,-244.0371 301,-250.5 311.4362,-254.4915 323.0638,-257.8443 333.8782,-260.533"/>
<polygon fill="#000000" stroke="#000000" stroke-width=".5" points="333.511,-262.2446 338.7825,-261.7216 334.3354,-258.8431 333.511,-262.2446"/>
</g>
<!-- PlaneCouetteFlow_p -->
<g id="node13" class="node">
<title>PlaneCouetteFlow_p</title>
<g id="a_node13"><a xlink:href="../api/proteus.AnalyticalSolutions.html#proteus.AnalyticalSolutions.PlaneCouetteFlow_p" xlink:title="The exact solution for the v component of &#160;velocity in plane Couette Flow" target="_top">
<polygon fill="none" stroke="#000000" stroke-width=".5" points="431,-241 315,-241 315,-222 431,-222 431,-241"/>
<text text-anchor="middle" x="373" y="-229" font-family="Vera Sans, DejaVu Sans, Liberation Sans, Arial, Helvetica, sans" font-size="10.00" fill="#000000">PlaneCouetteFlow_p</text>
</a>
</g>
</g>
<!-- SteadyState&#45;&gt;PlaneCouetteFlow_p -->
<g id="edge11" class="edge">
<title>SteadyState&#45;&gt;PlaneCouetteFlow_p</title>
<path fill="none" stroke="#000000" stroke-width=".5" d="M217.7294,-216.2538C243.8627,-218.8199 279.1207,-222.2819 309.4337,-225.2583"/>
<polygon fill="#000000" stroke="#000000" stroke-width=".5" points="309.4951,-227.0227 314.6422,-225.7698 309.8372,-223.5395 309.4951,-227.0227"/>
</g>
<!-- PlaneCouetteFlow_u -->
<g id="node14" class="node">
<title>PlaneCouetteFlow_u</title>
<g id="a_node14"><a xlink:href="../api/proteus.AnalyticalSolutions.html#proteus.AnalyticalSolutions.PlaneCouetteFlow_u" xlink:title="The exact solution for the u component of &#160;velocity in plane Couette Flow" target="_top">
<polygon fill="none" stroke="#000000" stroke-width=".5" points="431,-204 315,-204 315,-185 431,-185 431,-204"/>
<text text-anchor="middle" x="373" y="-192" font-family="Vera Sans, DejaVu Sans, Liberation Sans, Arial, Helvetica, sans" font-size="10.00" fill="#000000">PlaneCouetteFlow_u</text>
</a>
</g>
</g>
<!-- SteadyState&#45;&gt;PlaneCouetteFlow_u -->
<g id="edge12" class="edge">
<title>SteadyState&#45;&gt;PlaneCouetteFlow_u</title>
<path fill="none" stroke="#000000" stroke-width=".5" d="M217.7294,-208.9438C243.8627,-206.5128 279.1207,-203.233 309.4337,-200.4131"/>
<polygon fill="#000000" stroke="#000000" stroke-width=".5" points="309.8259,-202.1343 314.6422,-199.9286 309.5016,-198.6494 309.8259,-202.1343"/>
</g>
<!-- PlaneCouetteFlow_v -->
<g id="node15" class="node">
<title>PlaneCouetteFlow_v</title>
<g id="a_node15"><a xlink:href="../api/proteus.AnalyticalSolutions.html#proteus.AnalyticalSolutions.PlaneCouetteFlow_v" xlink:title="The exact solution for the v component of &#160;velocity in plane Couette Flow" target="_top">
<polygon fill="none" stroke="#000000" stroke-width=".5" points="431,-167 315,-167 315,-148 431,-148 431,-167"/>
<text text-anchor="middle" x="373" y="-155" font-family="Vera Sans, DejaVu Sans, Liberation Sans, Arial, Helvetica, sans" font-size="10.00" fill="#000000">PlaneCouetteFlow_v</text>
</a>
</g>
</g>
<!-- SteadyState&#45;&gt;PlaneCouetteFlow_v -->
<g id="edge13" class="edge">
<title>SteadyState&#45;&gt;PlaneCouetteFlow_v</title>
<path fill="none" stroke="#000000" stroke-width=".5" d="M217.5256,-206.6563C232.5493,-203.7912 249.8176,-199.7951 265,-194.5 281.8908,-188.6091 284.2634,-182.8155 301,-176.5 308.913,-173.514 317.4838,-170.8134 325.8594,-168.4472"/>
<polygon fill="#000000" stroke="#000000" stroke-width=".5" points="326.687,-170.0343 331.0415,-167.0176 325.7562,-166.6604 326.687,-170.0343"/>
</g>
<!-- PlanePoiseuilleFlow_p -->
<g id="node16" class="node">
<title>PlanePoiseuilleFlow_p</title>
<g id="a_node16"><a xlink:href="../api/proteus.AnalyticalSolutions.html#proteus.AnalyticalSolutions.PlanePoiseuilleFlow_p" xlink:title="The exact solution for the v component of &#160;velocity in plane Poiseuille Flow" target="_top">
<polygon fill="none" stroke="#000000" stroke-width=".5" points="435.5,-130 310.5,-130 310.5,-111 435.5,-111 435.5,-130"/>
<text text-anchor="middle" x="373" y="-118" font-family="Vera Sans, DejaVu Sans, Liberation Sans, Arial, Helvetica, sans" font-size="10.00" fill="#000000">PlanePoiseuilleFlow_p</text>
</a>
</g>
</g>
<!-- SteadyState&#45;&gt;PlanePoiseuilleFlow_p -->
<g id="edge14" class="edge">
<title>SteadyState&#45;&gt;PlanePoiseuilleFlow_p</title>
<path fill="none" stroke="#000000" stroke-width=".5" d="M217.7644,-210.7989C233.499,-208.5599 251.2224,-203.9129 265,-194.5 289.1229,-178.0192 277.301,-156.5848 301,-139.5 305.0113,-136.6083 309.4312,-134.1565 314.0482,-132.0778"/>
<polygon fill="#000000" stroke="#000000" stroke-width=".5" points="314.7865,-133.6659 318.7229,-130.1209 313.435,-130.4374 314.7865,-133.6659"/>
</g>
<!-- PlanePoiseuilleFlow_u -->
<g id="node18" class="node">
<title>PlanePoiseuilleFlow_u</title>
<g id="a_node18"><a xlink:href="../api/proteus.AnalyticalSolutions.html#proteus.AnalyticalSolutions.PlanePoiseuilleFlow_u" xlink:title="PlanePoiseuilleFlow_u" target="_top">
<polygon fill="none" stroke="#000000" stroke-width=".5" points="435.5,-93 310.5,-93 310.5,-74 435.5,-74 435.5,-93"/>
<text text-anchor="middle" x="373" y="-81" font-family="Vera Sans, DejaVu Sans, Liberation Sans, Arial, Helvetica, sans" font-size="10.00" fill="#000000">PlanePoiseuilleFlow_u</text>
</a>
</g>
</g>
<!-- SteadyState&#45;&gt;PlanePoiseuilleFlow_u -->
<g id="edge16" class="edge">
<title>SteadyState&#45;&gt;PlanePoiseuilleFlow_u</title>
<path fill="none" stroke="#000000" stroke-width=".5" d="M217.9171,-212.2431C234.049,-210.297 252.0348,-205.4793 265,-194.5 298.5074,-166.1248 268.2198,-131.7123 301,-102.5 303.986,-99.839 307.3017,-97.5438 310.824,-95.5646"/>
<polygon fill="#000000" stroke="#000000" stroke-width=".5" points="312.0836,-96.8869 315.7436,-93.0571 310.4941,-93.7686 312.0836,-96.8869"/>
</g>
<!-- PlanePoiseuilleFlow_v -->
<g id="node20" class="node">
<title>PlanePoiseuilleFlow_v</title>
<g id="a_node20"><a xlink:href="../api/proteus.AnalyticalSolutions.html#proteus.AnalyticalSolutions.PlanePoiseuilleFlow_v" xlink:title="The exact solution for the v component of &#160;velocity in plane Poiseuille Flow" target="_top">
<polygon fill="none" stroke="#000000" stroke-width=".5" points="435.5,-56 310.5,-56 310.5,-37 435.5,-37 435.5,-56"/>
<text text-anchor="middle" x="373" y="-44" font-family="Vera Sans, DejaVu Sans, Liberation Sans, Arial, Helvetica, sans" font-size="10.00" fill="#000000">PlanePoiseuilleFlow_v</text>
</a>
</g>
</g>
<!-- SteadyState&#45;&gt;PlanePoiseuilleFlow_v -->
<g id="edge18" class="edge">
<title>SteadyState&#45;&gt;PlanePoiseuilleFlow_v</title>
<path fill="none" stroke="#000000" stroke-width=".5" d="M217.5901,-212.9454C234.0485,-211.1892 252.3833,-206.3263 265,-194.5 308.4282,-153.7924 258.6137,-107.2913 301,-65.5 303.6582,-62.8791 306.6327,-60.6078 309.8184,-58.6404"/>
<polygon fill="#000000" stroke="#000000" stroke-width=".5" points="310.7748,-60.1107 314.2836,-56.1419 309.0657,-57.0563 310.7748,-60.1107"/>
</g>
<!-- PoissonsEquation -->
<g id="node23" class="node">
<title>PoissonsEquation</title>
<g id="a_node23"><a xlink:href="../api/proteus.AnalyticalSolutions.html#proteus.AnalyticalSolutions.PoissonsEquation" xlink:title="Manufactured solution of Poisson&#39;s equation" target="_top">
<polygon fill="none" stroke="#000000" stroke-width=".5" points="424,-19 322,-19 322,0 424,0 424,-19"/>
<text text-anchor="middle" x="373" y="-7" font-family="Vera Sans, DejaVu Sans, Liberation Sans, Arial, Helvetica, sans" font-size="10.00" fill="#000000">PoissonsEquation</text>
</a>
</g>
</g>
<!-- SteadyState&#45;&gt;PoissonsEquation -->
<g id="edge21" class="edge">
<title>SteadyState&#45;&gt;PoissonsEquation</title>
<path fill="none" stroke="#000000" stroke-width=".5" d="M217.9218,-213.2888C234.4471,-211.602 252.7427,-206.6983 265,-194.5 318.818,-140.941 248.1952,-82.0581 301,-27.5 305.57,-22.7782 311.1768,-19.2234 317.2257,-16.5579"/>
<polygon fill="#000000" stroke="#000000" stroke-width=".5" points="317.9281,-18.162 321.9277,-14.6884 316.6349,-14.9096 317.9281,-18.162"/>
</g>
<!-- NonlinearAD_SteadyState -->
<g id="node10" class="node">
<title>NonlinearAD_SteadyState</title>
<g id="a_node10"><a xlink:href="../api/proteus.AnalyticalSolutions.html#proteus.AnalyticalSolutions.NonlinearAD_SteadyState" xlink:title="The solution of a steady nonlinear advection&#45;diffusion equation" target="_top">
<polygon fill="none" stroke="#000000" stroke-width=".5" points="633,-352 490,-352 490,-333 633,-333 633,-352"/>
<text text-anchor="middle" x="561.5" y="-340" font-family="Vera Sans, DejaVu Sans, Liberation Sans, Arial, Helvetica, sans" font-size="10.00" fill="#000000">NonlinearAD_SteadyState</text>
</a>
</g>
</g>
<!-- LinearAD_SteadyState&#45;&gt;NonlinearAD_SteadyState -->
<g id="edge8" class="edge">
<title>LinearAD_SteadyState&#45;&gt;NonlinearAD_SteadyState</title>
<path fill="none" stroke="#000000" stroke-width=".5" d="M421.5434,-315.0284C447.9355,-320.2088 480.6365,-326.6276 507.7908,-331.9576"/>
<polygon fill="#000000" stroke="#000000" stroke-width=".5" points="507.5503,-333.6937 512.7938,-332.9396 508.2245,-330.2593 507.5503,-333.6937"/>
</g>
<!-- PlanePoiseuilleFlow_p2 -->
<g id="node17" class="node">
<title>PlanePoiseuilleFlow_p2</title>
<g id="a_node17"><a xlink:href="../api/proteus.AnalyticalSolutions.html#proteus.AnalyticalSolutions.PlanePoiseuilleFlow_p2" xlink:title="The exact solution for the v component of &#160;velocity in plane Poiseuille Flow" target="_top">
<polygon fill="none" stroke="#000000" stroke-width=".5" points="627,-315 496,-315 496,-296 627,-296 627,-315"/>
<text text-anchor="middle" x="561.5" y="-303" font-family="Vera Sans, DejaVu Sans, Liberation Sans, Arial, Helvetica, sans" font-size="10.00" fill="#000000">PlanePoiseuilleFlow_p2</text>
</a>
</g>
</g>
<!-- PlaneBase&#45;&gt;PlanePoiseuilleFlow_p2 -->
<g id="edge15" class="edge">
<title>PlaneBase&#45;&gt;PlanePoiseuilleFlow_p2</title>
<path fill="none" stroke="#000000" stroke-width=".5" d="M407.1359,-275.2004C435.2332,-280.7155 475.5636,-288.6318 507.9546,-294.9898"/>
<polygon fill="#000000" stroke="#000000" stroke-width=".5" points="507.8384,-296.7503 513.0819,-295.9962 508.5126,-293.3158 507.8384,-296.7503"/>
</g>
<!-- PlanePoiseuilleFlow_u2 -->
<g id="node19" class="node">
<title>PlanePoiseuilleFlow_u2</title>
<g id="a_node19"><a xlink:href="../api/proteus.AnalyticalSolutions.html#proteus.AnalyticalSolutions.PlanePoiseuilleFlow_u2" xlink:title="The exact solution for the u component of &#160;velocity in plane Poiseuille Flow" target="_top">
<polygon fill="none" stroke="#000000" stroke-width=".5" points="627,-278 496,-278 496,-259 627,-259 627,-278"/>
<text text-anchor="middle" x="561.5" y="-266" font-family="Vera Sans, DejaVu Sans, Liberation Sans, Arial, Helvetica, sans" font-size="10.00" fill="#000000">PlanePoiseuilleFlow_u2</text>
</a>
</g>
</g>
<!-- PlaneBase&#45;&gt;PlanePoiseuilleFlow_u2 -->
<g id="edge17" class="edge">
<title>PlaneBase&#45;&gt;PlanePoiseuilleFlow_u2</title>
<path fill="none" stroke="#000000" stroke-width=".5" d="M407.1359,-268.5C430.4076,-268.5 462.0711,-268.5 490.6649,-268.5"/>
<polygon fill="#000000" stroke="#000000" stroke-width=".5" points="490.9656,-270.2501 495.9656,-268.5 490.9656,-266.7501 490.9656,-270.2501"/>
</g>
<!-- PlanePoiseuilleFlow_v2 -->
<g id="node21" class="node">
<title>PlanePoiseuilleFlow_v2</title>
<g id="a_node21"><a xlink:href="../api/proteus.AnalyticalSolutions.html#proteus.AnalyticalSolutions.PlanePoiseuilleFlow_v2" xlink:title="The exact solution for the v component of &#160;velocity in plane Poiseuille Flow" target="_top">
<polygon fill="none" stroke="#000000" stroke-width=".5" points="627,-241 496,-241 496,-222 627,-222 627,-241"/>
<text text-anchor="middle" x="561.5" y="-229" font-family="Vera Sans, DejaVu Sans, Liberation Sans, Arial, Helvetica, sans" font-size="10.00" fill="#000000">PlanePoiseuilleFlow_v2</text>
</a>
</g>
</g>
<!-- PlaneBase&#45;&gt;PlanePoiseuilleFlow_v2 -->
<g id="edge19" class="edge">
<title>PlaneBase&#45;&gt;PlanePoiseuilleFlow_v2</title>
<path fill="none" stroke="#000000" stroke-width=".5" d="M407.1359,-261.7996C435.2332,-256.2845 475.5636,-248.3682 507.9546,-242.0102"/>
<polygon fill="#000000" stroke="#000000" stroke-width=".5" points="508.5126,-243.6842 513.0819,-241.0038 507.8384,-240.2497 508.5126,-243.6842"/>
</g>
<!-- PlanePoiseuilleFlow_w2 -->
<g id="node22" class="node">
<title>PlanePoiseuilleFlow_w2</title>
<g id="a_node22"><a xlink:href="../api/proteus.AnalyticalSolutions.html#proteus.AnalyticalSolutions.PlanePoiseuilleFlow_w2" xlink:title="The exact solution for the v component of &#160;velocity in plane Poiseuille Flow" target="_top">
<polygon fill="none" stroke="#000000" stroke-width=".5" points="628,-204 495,-204 495,-185 628,-185 628,-204"/>
<text text-anchor="middle" x="561.5" y="-192" font-family="Vera Sans, DejaVu Sans, Liberation Sans, Arial, Helvetica, sans" font-size="10.00" fill="#000000">PlanePoiseuilleFlow_w2</text>
</a>
</g>
</g>
<!-- PlaneBase&#45;&gt;PlanePoiseuilleFlow_w2 -->
<g id="edge20" class="edge">
<title>PlaneBase&#45;&gt;PlanePoiseuilleFlow_w2</title>
<path fill="none" stroke="#000000" stroke-width=".5" d="M407.0858,-263.9882C419.5942,-261.324 433.4964,-257.1177 445,-250.5 464.8878,-239.0591 461.0371,-224.8094 481,-213.5 486.3685,-210.4586 492.2028,-207.9029 498.1951,-205.7556"/>
<polygon fill="#000000" stroke="#000000" stroke-width=".5" points="499.0815,-207.3034 503.2592,-204.0461 497.962,-203.9873 499.0815,-207.3034"/>
</g>
</g>
</svg>
