<?xml version="1.0" encoding="UTF-8" standalone="no"?>
<!DOCTYPE svg PUBLIC "-//W3C//DTD SVG 1.1//EN"
 "http://www.w3.org/Graphics/SVG/1.1/DTD/svg11.dtd">
<!-- Generated by graphviz version 2.38.0 (20140413.2041)
 -->
<!-- Title: inheritance3db099f6f4 Pages: 1 -->
<svg width="576pt" height="488pt"
 viewBox="0.00 0.00 576.00 488.43" xmlns="http://www.w3.org/2000/svg" xmlns:xlink="http://www.w3.org/1999/xlink">
<g id="graph0" class="graph" transform="scale(0.754915 0.754915) rotate(0) translate(4 643)">
<title>inheritance3db099f6f4</title>
<polygon fill="white" stroke="none" points="-4,4 -4,-643 759,-643 759,4 -4,4"/>
<!-- BackwardEuler -->
<g id="node1" class="node"><title>BackwardEuler</title>
<g id="a_node1"><a xlink:href="../api/proteus.TimeIntegration.html#proteus.TimeIntegration.BackwardEuler" xlink:title="BackwardEuler" target="_top">
<polygon fill="none" stroke="black" stroke-width="0.5" points="307.5,-315 221.5,-315 221.5,-296 307.5,-296 307.5,-315"/>
<text text-anchor="middle" x="264.5" y="-303" font-family="Vera Sans, DejaVu Sans, Liberation Sans, Arial, Helvetica, sans" font-size="10.00">BackwardEuler</text>
</a>
</g>
</g>
<!-- BackwardEuler_cfl -->
<g id="node3" class="node"><title>BackwardEuler_cfl</title>
<g id="a_node3"><a xlink:href="../api/proteus.TimeIntegration.html#proteus.TimeIntegration.BackwardEuler_cfl" xlink:title="Take a fraction of the max (over all components and elements)" target="_top">
<polygon fill="none" stroke="black" stroke-width="0.5" points="536,-352 434,-352 434,-333 536,-333 536,-352"/>
<text text-anchor="middle" x="485" y="-340" font-family="Vera Sans, DejaVu Sans, Liberation Sans, Arial, Helvetica, sans" font-size="10.00">BackwardEuler_cfl</text>
</a>
</g>
</g>
<!-- BackwardEuler&#45;&gt;BackwardEuler_cfl -->
<g id="edge2" class="edge"><title>BackwardEuler&#45;&gt;BackwardEuler_cfl</title>
<path fill="none" stroke="black" stroke-width="0.5" d="M307.629,-312.634C342.166,-318.482 391.313,-326.805 428.959,-333.179"/>
<polygon fill="black" stroke="black" stroke-width="0.5" points="428.735,-334.917 433.957,-334.026 429.32,-331.466 428.735,-334.917"/>
</g>
<!-- PsiTCtte_new -->
<g id="node30" class="node"><title>PsiTCtte_new</title>
<g id="a_node30"><a xlink:href="../api/proteus.TimeIntegration.html#proteus.TimeIntegration.PsiTCtte_new" xlink:title="PsiTCtte_new" target="_top">
<polygon fill="none" stroke="black" stroke-width="0.5" points="524.5,-315 445.5,-315 445.5,-296 524.5,-296 524.5,-315"/>
<text text-anchor="middle" x="485" y="-303" font-family="Vera Sans, DejaVu Sans, Liberation Sans, Arial, Helvetica, sans" font-size="10.00">PsiTCtte_new</text>
</a>
</g>
</g>
<!-- BackwardEuler&#45;&gt;PsiTCtte_new -->
<g id="edge24" class="edge"><title>BackwardEuler&#45;&gt;PsiTCtte_new</title>
<path fill="none" stroke="black" stroke-width="0.5" d="M307.629,-305.5C345.726,-305.5 401.602,-305.5 440.206,-305.5"/>
<polygon fill="black" stroke="black" stroke-width="0.5" points="440.298,-307.25 445.298,-305.5 440.298,-303.75 440.298,-307.25"/>
</g>
<!-- TI_base -->
<g id="node2" class="node"><title>TI_base</title>
<g id="a_node2"><a xlink:href="../api/proteus.TimeIntegration.html#proteus.TimeIntegration.TI_base" xlink:title="The base class for time discretizations of tightly coupled systems" target="_top">
<polygon fill="none" stroke="black" stroke-width="0.5" points="97.5,-167 43.5,-167 43.5,-148 97.5,-148 97.5,-167"/>
<text text-anchor="middle" x="70.5" y="-155" font-family="Vera Sans, DejaVu Sans, Liberation Sans, Arial, Helvetica, sans" font-size="10.00">TI_base</text>
</a>
</g>
</g>
<!-- TI_base&#45;&gt;BackwardEuler -->
<g id="edge1" class="edge"><title>TI_base&#45;&gt;BackwardEuler</title>
<path fill="none" stroke="black" stroke-width="0.5" d="M76.3755,-167.124C89.211,-191.412 126.46,-255.461 177,-286.5 188.786,-293.738 202.969,-298.235 216.409,-301.024"/>
<polygon fill="black" stroke="black" stroke-width="0.5" points="216.08,-302.743 221.322,-301.976 216.746,-299.307 216.08,-302.743"/>
</g>
<!-- CentralDifference_2ndD -->
<g id="node4" class="node"><title>CentralDifference_2ndD</title>
<g id="a_node4"><a xlink:href="../api/proteus.TimeIntegration.html#proteus.TimeIntegration.CentralDifference_2ndD" xlink:title="CentralDifference_2ndD" target="_top">
<polygon fill="none" stroke="black" stroke-width="0.5" points="330,-278 199,-278 199,-259 330,-259 330,-278"/>
<text text-anchor="middle" x="264.5" y="-266" font-family="Vera Sans, DejaVu Sans, Liberation Sans, Arial, Helvetica, sans" font-size="10.00">CentralDifference_2ndD</text>
</a>
</g>
</g>
<!-- TI_base&#45;&gt;CentralDifference_2ndD -->
<g id="edge3" class="edge"><title>TI_base&#45;&gt;CentralDifference_2ndD</title>
<path fill="none" stroke="black" stroke-width="0.5" d="M79.4068,-167.05C95.6185,-185.959 134.679,-228.178 177,-249.5 183.248,-252.648 190.007,-255.277 196.899,-257.472"/>
<polygon fill="black" stroke="black" stroke-width="0.5" points="196.394,-259.147 201.686,-258.923 197.409,-255.798 196.394,-259.147"/>
</g>
<!-- ExplicitRK_base -->
<g id="node19" class="node"><title>ExplicitRK_base</title>
<g id="a_node19"><a xlink:href="../api/proteus.TimeIntegration.html#proteus.TimeIntegration.ExplicitRK_base" xlink:title="base class for explicit RK schemes which can be written in" target="_top">
<polygon fill="none" stroke="black" stroke-width="0.5" points="309.5,-241 219.5,-241 219.5,-222 309.5,-222 309.5,-241"/>
<text text-anchor="middle" x="264.5" y="-229" font-family="Vera Sans, DejaVu Sans, Liberation Sans, Arial, Helvetica, sans" font-size="10.00">ExplicitRK_base</text>
</a>
</g>
</g>
<!-- TI_base&#45;&gt;ExplicitRK_base -->
<g id="edge14" class="edge"><title>TI_base&#45;&gt;ExplicitRK_base</title>
<path fill="none" stroke="black" stroke-width="0.5" d="M86.6407,-167.037C106.62,-179.231 143.219,-200.23 177,-212.5 188.865,-216.809 202.017,-220.309 214.409,-223.075"/>
<polygon fill="black" stroke="black" stroke-width="0.5" points="214.041,-224.786 219.299,-224.138 214.785,-221.366 214.041,-224.786"/>
</g>
<!-- FLCBDF -->
<g id="node20" class="node"><title>FLCBDF</title>
<g id="a_node20"><a xlink:href="../api/proteus.TimeIntegration.html#proteus.TimeIntegration.FLCBDF" xlink:title="FLCBDF" target="_top">
<polygon fill="none" stroke="black" stroke-width="0.5" points="291.5,-204 237.5,-204 237.5,-185 291.5,-185 291.5,-204"/>
<text text-anchor="middle" x="264.5" y="-192" font-family="Vera Sans, DejaVu Sans, Liberation Sans, Arial, Helvetica, sans" font-size="10.00">FLCBDF</text>
</a>
</g>
</g>
<!-- TI_base&#45;&gt;FLCBDF -->
<g id="edge15" class="edge"><title>TI_base&#45;&gt;FLCBDF</title>
<path fill="none" stroke="black" stroke-width="0.5" d="M97.7942,-162.567C132.741,-169.302 194.425,-181.189 231.873,-188.405"/>
<polygon fill="black" stroke="black" stroke-width="0.5" points="231.975,-190.207 237.216,-189.435 232.637,-186.77 231.975,-190.207"/>
</g>
<!-- ForwardEuler -->
<g id="node22" class="node"><title>ForwardEuler</title>
<g id="a_node22"><a xlink:href="../api/proteus.TimeIntegration.html#proteus.TimeIntegration.ForwardEuler" xlink:title="ForwardEuler" target="_top">
<polygon fill="none" stroke="black" stroke-width="0.5" points="303.5,-167 225.5,-167 225.5,-148 303.5,-148 303.5,-167"/>
<text text-anchor="middle" x="264.5" y="-155" font-family="Vera Sans, DejaVu Sans, Liberation Sans, Arial, Helvetica, sans" font-size="10.00">ForwardEuler</text>
</a>
</g>
</g>
<!-- TI_base&#45;&gt;ForwardEuler -->
<g id="edge17" class="edge"><title>TI_base&#45;&gt;ForwardEuler</title>
<path fill="none" stroke="black" stroke-width="0.5" d="M97.7942,-157.5C129.217,-157.5 182.256,-157.5 219.857,-157.5"/>
<polygon fill="black" stroke="black" stroke-width="0.5" points="220.288,-159.25 225.288,-157.5 220.288,-155.75 220.288,-159.25"/>
</g>
<!-- ForwardEuler_A -->
<g id="node23" class="node"><title>ForwardEuler_A</title>
<g id="a_node23"><a xlink:href="../api/proteus.TimeIntegration.html#proteus.TimeIntegration.ForwardEuler_A" xlink:title="ForwardEuler_A" target="_top">
<polygon fill="none" stroke="black" stroke-width="0.5" points="309.5,-130 219.5,-130 219.5,-111 309.5,-111 309.5,-130"/>
<text text-anchor="middle" x="264.5" y="-118" font-family="Vera Sans, DejaVu Sans, Liberation Sans, Arial, Helvetica, sans" font-size="10.00">ForwardEuler_A</text>
</a>
</g>
</g>
<!-- TI_base&#45;&gt;ForwardEuler_A -->
<g id="edge18" class="edge"><title>TI_base&#45;&gt;ForwardEuler_A</title>
<path fill="none" stroke="black" stroke-width="0.5" d="M97.7942,-152.433C127.674,-146.675 177.102,-137.15 214.213,-129.998"/>
<polygon fill="black" stroke="black" stroke-width="0.5" points="214.556,-131.714 219.135,-129.05 213.894,-128.277 214.556,-131.714"/>
</g>
<!-- ForwardEuler_H -->
<g id="node24" class="node"><title>ForwardEuler_H</title>
<g id="a_node24"><a xlink:href="../api/proteus.TimeIntegration.html#proteus.TimeIntegration.ForwardEuler_H" xlink:title="ForwardEuler_H" target="_top">
<polygon fill="none" stroke="black" stroke-width="0.5" points="310,-93 219,-93 219,-74 310,-74 310,-93"/>
<text text-anchor="middle" x="264.5" y="-81" font-family="Vera Sans, DejaVu Sans, Liberation Sans, Arial, Helvetica, sans" font-size="10.00">ForwardEuler_H</text>
</a>
</g>
</g>
<!-- TI_base&#45;&gt;ForwardEuler_H -->
<g id="edge19" class="edge"><title>TI_base&#45;&gt;ForwardEuler_H</title>
<path fill="none" stroke="black" stroke-width="0.5" d="M86.2512,-147.931C106.101,-135.469 142.869,-113.826 177,-101.5 188.614,-97.3057 201.477,-93.9693 213.655,-91.3661"/>
<polygon fill="black" stroke="black" stroke-width="0.5" points="214.285,-93.0227 218.827,-90.295 213.576,-89.5955 214.285,-93.0227"/>
</g>
<!-- OuterTheta -->
<g id="node28" class="node"><title>OuterTheta</title>
<g id="a_node28"><a xlink:href="../api/proteus.TimeIntegration.html#proteus.TimeIntegration.OuterTheta" xlink:title="OuterTheta" target="_top">
<polygon fill="none" stroke="black" stroke-width="0.5" points="300,-56 229,-56 229,-37 300,-37 300,-56"/>
<text text-anchor="middle" x="264.5" y="-44" font-family="Vera Sans, DejaVu Sans, Liberation Sans, Arial, Helvetica, sans" font-size="10.00">OuterTheta</text>
</a>
</g>
</g>
<!-- TI_base&#45;&gt;OuterTheta -->
<g id="edge22" class="edge"><title>TI_base&#45;&gt;OuterTheta</title>
<path fill="none" stroke="black" stroke-width="0.5" d="M79.3625,-147.804C95.4945,-128.611 134.419,-85.8008 177,-64.5 191.42,-57.2864 208.583,-52.9619 223.804,-50.3702"/>
<polygon fill="black" stroke="black" stroke-width="0.5" points="224.224,-52.0752 228.884,-49.5561 223.67,-48.6193 224.224,-52.0752"/>
</g>
<!-- VBDF -->
<g id="node34" class="node"><title>VBDF</title>
<g id="a_node34"><a xlink:href="../api/proteus.TimeIntegration.html#proteus.TimeIntegration.VBDF" xlink:title="Variable coefficient bdf&#39;s just first and second order" target="_top">
<polygon fill="none" stroke="black" stroke-width="0.5" points="291.5,-19 237.5,-19 237.5,-0 291.5,-0 291.5,-19"/>
<text text-anchor="middle" x="264.5" y="-7" font-family="Vera Sans, DejaVu Sans, Liberation Sans, Arial, Helvetica, sans" font-size="10.00">VBDF</text>
</a>
</g>
</g>
<!-- TI_base&#45;&gt;VBDF -->
<g id="edge28" class="edge"><title>TI_base&#45;&gt;VBDF</title>
<path fill="none" stroke="black" stroke-width="0.5" d="M76.334,-147.768C89.0722,-123.213 126.112,-58.498 177,-27.5 193.502,-17.448 214.708,-12.9302 231.993,-10.9341"/>
<polygon fill="black" stroke="black" stroke-width="0.5" points="232.429,-12.6484 237.222,-10.3922 232.068,-9.167 232.429,-12.6484"/>
</g>
<!-- PsiTCtte -->
<g id="node29" class="node"><title>PsiTCtte</title>
<g id="a_node29"><a xlink:href="../api/proteus.TimeIntegration.html#proteus.TimeIntegration.PsiTCtte" xlink:title="PsiTCtte" target="_top">
<polygon fill="none" stroke="black" stroke-width="0.5" points="714,-352 659,-352 659,-333 714,-333 714,-352"/>
<text text-anchor="middle" x="686.5" y="-340" font-family="Vera Sans, DejaVu Sans, Liberation Sans, Arial, Helvetica, sans" font-size="10.00">PsiTCtte</text>
</a>
</g>
</g>
<!-- BackwardEuler_cfl&#45;&gt;PsiTCtte -->
<g id="edge23" class="edge"><title>BackwardEuler_cfl&#45;&gt;PsiTCtte</title>
<path fill="none" stroke="black" stroke-width="0.5" d="M536.085,-342.5C572.964,-342.5 622.003,-342.5 653.662,-342.5"/>
<polygon fill="black" stroke="black" stroke-width="0.5" points="653.977,-344.25 658.977,-342.5 653.977,-340.75 653.977,-344.25"/>
</g>
<!-- CockburnNotesLimiter2d_base -->
<g id="node5" class="node"><title>CockburnNotesLimiter2d_base</title>
<g id="a_node5"><a xlink:href="../api/proteus.TimeIntegration.html#proteus.TimeIntegration.CockburnNotesLimiter2d_base" xlink:title="CockburnNotesLimiter2d_base" target="_top">
<polygon fill="none" stroke="black" stroke-width="0.5" points="346.5,-454 182.5,-454 182.5,-435 346.5,-435 346.5,-454"/>
<text text-anchor="middle" x="264.5" y="-442" font-family="Vera Sans, DejaVu Sans, Liberation Sans, Arial, Helvetica, sans" font-size="10.00">CockburnNotesLimiter2d_base</text>
</a>
</g>
</g>
<!-- DGlimiterP1Lagrange2d -->
<g id="node12" class="node"><title>DGlimiterP1Lagrange2d</title>
<g id="a_node12"><a xlink:href="../api/proteus.TimeIntegration.html#proteus.TimeIntegration.DGlimiterP1Lagrange2d" xlink:title="apply standard, Cockburn RKDG limiter in 2d (maybe)" target="_top">
<polygon fill="none" stroke="black" stroke-width="0.5" points="550.5,-500 419.5,-500 419.5,-481 550.5,-481 550.5,-500"/>
<text text-anchor="middle" x="485" y="-488" font-family="Vera Sans, DejaVu Sans, Liberation Sans, Arial, Helvetica, sans" font-size="10.00">DGlimiterP1Lagrange2d</text>
</a>
</g>
</g>
<!-- CockburnNotesLimiter2d_base&#45;&gt;DGlimiterP1Lagrange2d -->
<g id="edge9" class="edge"><title>CockburnNotesLimiter2d_base&#45;&gt;DGlimiterP1Lagrange2d</title>
<path fill="none" stroke="black" stroke-width="0.5" d="M313.163,-454.064C325.81,-456.698 339.44,-459.624 352,-462.5 368.076,-466.181 371.906,-467.898 388,-471.5 400.88,-474.383 414.784,-477.266 427.904,-479.883"/>
<polygon fill="black" stroke="black" stroke-width="0.5" points="427.838,-481.654 433.083,-480.911 428.519,-478.221 427.838,-481.654"/>
</g>
<!-- DGlimiterP2Lagrange2d -->
<g id="node15" class="node"><title>DGlimiterP2Lagrange2d</title>
<g id="a_node15"><a xlink:href="../api/proteus.TimeIntegration.html#proteus.TimeIntegration.DGlimiterP2Lagrange2d" xlink:title="canonical (I hope) 2d DG limiting procedure when original" target="_top">
<polygon fill="none" stroke="black" stroke-width="0.5" points="550.5,-463 419.5,-463 419.5,-444 550.5,-444 550.5,-463"/>
<text text-anchor="middle" x="485" y="-451" font-family="Vera Sans, DejaVu Sans, Liberation Sans, Arial, Helvetica, sans" font-size="10.00">DGlimiterP2Lagrange2d</text>
</a>
</g>
</g>
<!-- CockburnNotesLimiter2d_base&#45;&gt;DGlimiterP2Lagrange2d -->
<g id="edge11" class="edge"><title>CockburnNotesLimiter2d_base&#45;&gt;DGlimiterP2Lagrange2d</title>
<path fill="none" stroke="black" stroke-width="0.5" d="M346.551,-447.838C368.813,-448.755 392.753,-449.742 414.315,-450.63"/>
<polygon fill="black" stroke="black" stroke-width="0.5" points="414.385,-452.384 419.453,-450.841 414.529,-448.887 414.385,-452.384"/>
</g>
<!-- DGlimiterPkMonomial2d -->
<g id="node18" class="node"><title>DGlimiterPkMonomial2d</title>
<g id="a_node18"><a xlink:href="../api/proteus.TimeIntegration.html#proteus.TimeIntegration.DGlimiterPkMonomial2d" xlink:title="canonical (I hope) 2d DG limiting procedure when original" target="_top">
<polygon fill="none" stroke="black" stroke-width="0.5" points="550.5,-426 419.5,-426 419.5,-407 550.5,-407 550.5,-426"/>
<text text-anchor="middle" x="485" y="-414" font-family="Vera Sans, DejaVu Sans, Liberation Sans, Arial, Helvetica, sans" font-size="10.00">DGlimiterPkMonomial2d</text>
</a>
</g>
</g>
<!-- CockburnNotesLimiter2d_base&#45;&gt;DGlimiterPkMonomial2d -->
<g id="edge13" class="edge"><title>CockburnNotesLimiter2d_base&#45;&gt;DGlimiterPkMonomial2d</title>
<path fill="none" stroke="black" stroke-width="0.5" d="M339.779,-434.981C363.919,-431.888 390.605,-428.468 414.392,-425.42"/>
<polygon fill="black" stroke="black" stroke-width="0.5" points="414.684,-427.147 419.421,-424.776 414.239,-423.675 414.684,-427.147"/>
</g>
<!-- UnstructuredLimiter_base -->
<g id="node6" class="node"><title>UnstructuredLimiter_base</title>
<g id="a_node6"><a xlink:href="../api/proteus.TimeIntegration.html#proteus.TimeIntegration.UnstructuredLimiter_base" xlink:title="UnstructuredLimiter_base" target="_top">
<polygon fill="none" stroke="black" stroke-width="0.5" points="141,-399 0,-399 0,-380 141,-380 141,-399"/>
<text text-anchor="middle" x="70.5" y="-387" font-family="Vera Sans, DejaVu Sans, Liberation Sans, Arial, Helvetica, sans" font-size="10.00">UnstructuredLimiter_base</text>
</a>
</g>
</g>
<!-- UnstructuredLimiter_base&#45;&gt;CockburnNotesLimiter2d_base -->
<g id="edge4" class="edge"><title>UnstructuredLimiter_base&#45;&gt;CockburnNotesLimiter2d_base</title>
<path fill="none" stroke="black" stroke-width="0.5" d="M104.944,-399.08C138.43,-408.673 189.902,-423.417 225.054,-433.487"/>
<polygon fill="black" stroke="black" stroke-width="0.5" points="224.829,-435.243 230.118,-434.937 225.793,-431.878 224.829,-435.243"/>
</g>
<!-- DGlimiterDurlofskyP1Lagrange2d -->
<g id="node7" class="node"><title>DGlimiterDurlofskyP1Lagrange2d</title>
<g id="a_node7"><a xlink:href="../api/proteus.TimeIntegration.html#proteus.TimeIntegration.DGlimiterDurlofskyP1Lagrange2d" xlink:title="DGlimiterDurlofskyP1Lagrange2d" target="_top">
<polygon fill="none" stroke="black" stroke-width="0.5" points="352,-399 177,-399 177,-380 352,-380 352,-399"/>
<text text-anchor="middle" x="264.5" y="-387" font-family="Vera Sans, DejaVu Sans, Liberation Sans, Arial, Helvetica, sans" font-size="10.00">DGlimiterDurlofskyP1Lagrange2d</text>
</a>
</g>
</g>
<!-- UnstructuredLimiter_base&#45;&gt;DGlimiterDurlofskyP1Lagrange2d -->
<g id="edge5" class="edge"><title>UnstructuredLimiter_base&#45;&gt;DGlimiterDurlofskyP1Lagrange2d</title>
<path fill="none" stroke="black" stroke-width="0.5" d="M141.088,-389.5C151.048,-389.5 161.42,-389.5 171.727,-389.5"/>
<polygon fill="black" stroke="black" stroke-width="0.5" points="171.779,-391.25 176.779,-389.5 171.779,-387.75 171.779,-391.25"/>
</g>
<!-- DGlimiterDurlofskyP1Lagrange3d -->
<g id="node9" class="node"><title>DGlimiterDurlofskyP1Lagrange3d</title>
<g id="a_node9"><a xlink:href="../api/proteus.TimeIntegration.html#proteus.TimeIntegration.DGlimiterDurlofskyP1Lagrange3d" xlink:title="DGlimiterDurlofskyP1Lagrange3d" target="_top">
<polygon fill="none" stroke="black" stroke-width="0.5" points="352,-362 177,-362 177,-343 352,-343 352,-362"/>
<text text-anchor="middle" x="264.5" y="-350" font-family="Vera Sans, DejaVu Sans, Liberation Sans, Arial, Helvetica, sans" font-size="10.00">DGlimiterDurlofskyP1Lagrange3d</text>
</a>
</g>
</g>
<!-- UnstructuredLimiter_base&#45;&gt;DGlimiterDurlofskyP1Lagrange3d -->
<g id="edge7" class="edge"><title>UnstructuredLimiter_base&#45;&gt;DGlimiterDurlofskyP1Lagrange3d</title>
<path fill="none" stroke="black" stroke-width="0.5" d="M120.945,-379.972C147.827,-374.791 181.135,-368.372 208.794,-363.042"/>
<polygon fill="black" stroke="black" stroke-width="0.5" points="209.311,-364.725 213.889,-362.06 208.649,-361.288 209.311,-364.725"/>
</g>
<!-- DGlimiterDurlofskyP1Lagrange2d_Sw -->
<g id="node8" class="node"><title>DGlimiterDurlofskyP1Lagrange2d_Sw</title>
<g id="a_node8"><a xlink:href="../api/proteus.TimeIntegration.html#proteus.TimeIntegration.DGlimiterDurlofskyP1Lagrange2d_Sw" xlink:title="DGlimiterDurlofskyP1Lagrange2d_Sw" target="_top">
<polygon fill="none" stroke="black" stroke-width="0.5" points="582,-389 388,-389 388,-370 582,-370 582,-389"/>
<text text-anchor="middle" x="485" y="-377" font-family="Vera Sans, DejaVu Sans, Liberation Sans, Arial, Helvetica, sans" font-size="10.00">DGlimiterDurlofskyP1Lagrange2d_Sw</text>
</a>
</g>
</g>
<!-- DGlimiterDurlofskyP1Lagrange2d&#45;&gt;DGlimiterDurlofskyP1Lagrange2d_Sw -->
<g id="edge6" class="edge"><title>DGlimiterDurlofskyP1Lagrange2d&#45;&gt;DGlimiterDurlofskyP1Lagrange2d_Sw</title>
<path fill="none" stroke="black" stroke-width="0.5" d="M352.171,-385.533C362.205,-385.074 372.506,-384.603 382.713,-384.136"/>
<polygon fill="black" stroke="black" stroke-width="0.5" points="382.8,-385.884 387.714,-383.907 382.639,-382.387 382.8,-385.884"/>
</g>
<!-- DGlimiterP1Lagrange1d -->
<g id="node10" class="node"><title>DGlimiterP1Lagrange1d</title>
<g id="a_node10"><a xlink:href="../api/proteus.TimeIntegration.html#proteus.TimeIntegration.DGlimiterP1Lagrange1d" xlink:title="canonical (I hope) 1d DG limiting procedure when original" target="_top">
<polygon fill="none" stroke="black" stroke-width="0.5" points="136,-491 5,-491 5,-472 136,-472 136,-491"/>
<text text-anchor="middle" x="70.5" y="-479" font-family="Vera Sans, DejaVu Sans, Liberation Sans, Arial, Helvetica, sans" font-size="10.00">DGlimiterP1Lagrange1d</text>
</a>
</g>
</g>
<!-- DGlimiterP1Lagrange1d_Sw -->
<g id="node11" class="node"><title>DGlimiterP1Lagrange1d_Sw</title>
<g id="a_node11"><a xlink:href="../api/proteus.TimeIntegration.html#proteus.TimeIntegration.DGlimiterP1Lagrange1d_Sw" xlink:title="DGP1 version of limiting that applies minmod limiting for h &lt; h_eps" target="_top">
<polygon fill="none" stroke="black" stroke-width="0.5" points="339,-491 190,-491 190,-472 339,-472 339,-491"/>
<text text-anchor="middle" x="264.5" y="-479" font-family="Vera Sans, DejaVu Sans, Liberation Sans, Arial, Helvetica, sans" font-size="10.00">DGlimiterP1Lagrange1d_Sw</text>
</a>
</g>
</g>
<!-- DGlimiterP1Lagrange1d&#45;&gt;DGlimiterP1Lagrange1d_Sw -->
<g id="edge8" class="edge"><title>DGlimiterP1Lagrange1d&#45;&gt;DGlimiterP1Lagrange1d_Sw</title>
<path fill="none" stroke="black" stroke-width="0.5" d="M136.235,-481.5C151.689,-481.5 168.356,-481.5 184.376,-481.5"/>
<polygon fill="black" stroke="black" stroke-width="0.5" points="184.782,-483.25 189.782,-481.5 184.781,-479.75 184.782,-483.25"/>
</g>
<!-- DGlimiterP2Lagrange1d -->
<g id="node13" class="node"><title>DGlimiterP2Lagrange1d</title>
<g id="a_node13"><a xlink:href="../api/proteus.TimeIntegration.html#proteus.TimeIntegration.DGlimiterP2Lagrange1d" xlink:title="canonical (I hope) 1d DG limiting procedure when original" target="_top">
<polygon fill="none" stroke="black" stroke-width="0.5" points="136,-528 5,-528 5,-509 136,-509 136,-528"/>
<text text-anchor="middle" x="70.5" y="-516" font-family="Vera Sans, DejaVu Sans, Liberation Sans, Arial, Helvetica, sans" font-size="10.00">DGlimiterP2Lagrange1d</text>
</a>
</g>
</g>
<!-- DGlimiterP2Lagrange1d_Sw -->
<g id="node14" class="node"><title>DGlimiterP2Lagrange1d_Sw</title>
<g id="a_node14"><a xlink:href="../api/proteus.TimeIntegration.html#proteus.TimeIntegration.DGlimiterP2Lagrange1d_Sw" xlink:title="DGP1 version of limiting that applies minmod limiting for h &lt; h_eps" target="_top">
<polygon fill="none" stroke="black" stroke-width="0.5" points="339,-528 190,-528 190,-509 339,-509 339,-528"/>
<text text-anchor="middle" x="264.5" y="-516" font-family="Vera Sans, DejaVu Sans, Liberation Sans, Arial, Helvetica, sans" font-size="10.00">DGlimiterP2Lagrange1d_Sw</text>
</a>
</g>
</g>
<!-- DGlimiterP2Lagrange1d&#45;&gt;DGlimiterP2Lagrange1d_Sw -->
<g id="edge10" class="edge"><title>DGlimiterP2Lagrange1d&#45;&gt;DGlimiterP2Lagrange1d_Sw</title>
<path fill="none" stroke="black" stroke-width="0.5" d="M136.235,-518.5C151.689,-518.5 168.356,-518.5 184.376,-518.5"/>
<polygon fill="black" stroke="black" stroke-width="0.5" points="184.782,-520.25 189.782,-518.5 184.781,-516.75 184.782,-520.25"/>
</g>
<!-- DGlimiterPkMonomial1d -->
<g id="node16" class="node"><title>DGlimiterPkMonomial1d</title>
<g id="a_node16"><a xlink:href="../api/proteus.TimeIntegration.html#proteus.TimeIntegration.DGlimiterPkMonomial1d" xlink:title="canonical (I hope) 1d DG limiting procedure when original" target="_top">
<polygon fill="none" stroke="black" stroke-width="0.5" points="136,-565 5,-565 5,-546 136,-546 136,-565"/>
<text text-anchor="middle" x="70.5" y="-553" font-family="Vera Sans, DejaVu Sans, Liberation Sans, Arial, Helvetica, sans" font-size="10.00">DGlimiterPkMonomial1d</text>
</a>
</g>
</g>
<!-- DGlimiterPkMonomial1d_Sw -->
<g id="node17" class="node"><title>DGlimiterPkMonomial1d_Sw</title>
<g id="a_node17"><a xlink:href="../api/proteus.TimeIntegration.html#proteus.TimeIntegration.DGlimiterPkMonomial1d_Sw" xlink:title="DGPk version of limiting that applies minmod limiting for h &lt; h_eps" target="_top">
<polygon fill="none" stroke="black" stroke-width="0.5" points="339.5,-565 189.5,-565 189.5,-546 339.5,-546 339.5,-565"/>
<text text-anchor="middle" x="264.5" y="-553" font-family="Vera Sans, DejaVu Sans, Liberation Sans, Arial, Helvetica, sans" font-size="10.00">DGlimiterPkMonomial1d_Sw</text>
</a>
</g>
</g>
<!-- DGlimiterPkMonomial1d&#45;&gt;DGlimiterPkMonomial1d_Sw -->
<g id="edge12" class="edge"><title>DGlimiterPkMonomial1d&#45;&gt;DGlimiterPkMonomial1d_Sw</title>
<path fill="none" stroke="black" stroke-width="0.5" d="M136.235,-555.5C151.591,-555.5 168.145,-555.5 184.072,-555.5"/>
<polygon fill="black" stroke="black" stroke-width="0.5" points="184.446,-557.25 189.446,-555.5 184.446,-553.75 184.446,-557.25"/>
</g>
<!-- LinearSSPRKintegration -->
<g id="node27" class="node"><title>LinearSSPRKintegration</title>
<g id="a_node27"><a xlink:href="../api/proteus.TimeIntegration.html#proteus.TimeIntegration.LinearSSPRKintegration" xlink:title="implementation of Explicit RK schemes for ODE that are SSP for" target="_top">
<polygon fill="none" stroke="black" stroke-width="0.5" points="549.5,-278 420.5,-278 420.5,-259 549.5,-259 549.5,-278"/>
<text text-anchor="middle" x="485" y="-266" font-family="Vera Sans, DejaVu Sans, Liberation Sans, Arial, Helvetica, sans" font-size="10.00">LinearSSPRKintegration</text>
</a>
</g>
</g>
<!-- ExplicitRK_base&#45;&gt;LinearSSPRKintegration -->
<g id="edge21" class="edge"><title>ExplicitRK_base&#45;&gt;LinearSSPRKintegration</title>
<path fill="none" stroke="black" stroke-width="0.5" d="M309.717,-238.988C342.164,-244.482 386.645,-252.014 422.547,-258.094"/>
<polygon fill="black" stroke="black" stroke-width="0.5" points="422.558,-259.87 427.78,-258.98 423.142,-256.42 422.558,-259.87"/>
</g>
<!-- SSPRKPIintegration -->
<g id="node31" class="node"><title>SSPRKPIintegration</title>
<g id="a_node31"><a xlink:href="../api/proteus.TimeIntegration.html#proteus.TimeIntegration.SSPRKPIintegration" xlink:title="So called SSP RK integration with limiting step at end of each" target="_top">
<polygon fill="none" stroke="black" stroke-width="0.5" points="539,-241 431,-241 431,-222 539,-222 539,-241"/>
<text text-anchor="middle" x="485" y="-229" font-family="Vera Sans, DejaVu Sans, Liberation Sans, Arial, Helvetica, sans" font-size="10.00">SSPRKPIintegration</text>
</a>
</g>
</g>
<!-- ExplicitRK_base&#45;&gt;SSPRKPIintegration -->
<g id="edge25" class="edge"><title>ExplicitRK_base&#45;&gt;SSPRKPIintegration</title>
<path fill="none" stroke="black" stroke-width="0.5" d="M309.717,-231.5C343.115,-231.5 389.262,-231.5 425.681,-231.5"/>
<polygon fill="black" stroke="black" stroke-width="0.5" points="425.981,-233.25 430.981,-231.5 425.981,-229.75 425.981,-233.25"/>
</g>
<!-- FLCBDF_TwophaseDarcy_fc -->
<g id="node21" class="node"><title>FLCBDF_TwophaseDarcy_fc</title>
<g id="a_node21"><a xlink:href="../api/proteus.TimeIntegration.html#proteus.TimeIntegration.FLCBDF_TwophaseDarcy_fc" xlink:title="FLCBDF_TwophaseDarcy_fc" target="_top">
<polygon fill="none" stroke="black" stroke-width="0.5" points="558,-204 412,-204 412,-185 558,-185 558,-204"/>
<text text-anchor="middle" x="485" y="-192" font-family="Vera Sans, DejaVu Sans, Liberation Sans, Arial, Helvetica, sans" font-size="10.00">FLCBDF_TwophaseDarcy_fc</text>
</a>
</g>
</g>
<!-- FLCBDF&#45;&gt;FLCBDF_TwophaseDarcy_fc -->
<g id="edge16" class="edge"><title>FLCBDF&#45;&gt;FLCBDF_TwophaseDarcy_fc</title>
<path fill="none" stroke="black" stroke-width="0.5" d="M291.856,-194.5C320.099,-194.5 366.273,-194.5 406.278,-194.5"/>
<polygon fill="black" stroke="black" stroke-width="0.5" points="406.627,-196.25 411.627,-194.5 406.627,-192.75 406.627,-196.25"/>
</g>
<!-- ForwardIntegrator -->
<g id="node25" class="node"><title>ForwardIntegrator</title>
<g id="a_node25"><a xlink:href="../api/proteus.TimeIntegration.html#proteus.TimeIntegration.ForwardIntegrator" xlink:title="class that is responsible for basic process of integrating a problem" target="_top">
<polygon fill="none" stroke="black" stroke-width="0.5" points="121,-620 20,-620 20,-601 121,-601 121,-620"/>
<text text-anchor="middle" x="70.5" y="-608" font-family="Vera Sans, DejaVu Sans, Liberation Sans, Arial, Helvetica, sans" font-size="10.00">ForwardIntegrator</text>
</a>
</g>
</g>
<!-- SignedDistanceIntegrator -->
<g id="node32" class="node"><title>SignedDistanceIntegrator</title>
<g id="a_node32"><a xlink:href="../api/proteus.TimeIntegration.html#proteus.TimeIntegration.SignedDistanceIntegrator" xlink:title="apply some form of pseudo&#45;transient continuation or direct solve to" target="_top">
<polygon fill="none" stroke="black" stroke-width="0.5" points="334,-639 195,-639 195,-620 334,-620 334,-639"/>
<text text-anchor="middle" x="264.5" y="-627" font-family="Vera Sans, DejaVu Sans, Liberation Sans, Arial, Helvetica, sans" font-size="10.00">SignedDistanceIntegrator</text>
</a>
</g>
</g>
<!-- ForwardIntegrator&#45;&gt;SignedDistanceIntegrator -->
<g id="edge26" class="edge"><title>ForwardIntegrator&#45;&gt;SignedDistanceIntegrator</title>
<path fill="none" stroke="black" stroke-width="0.5" d="M121.445,-615.442C142.207,-617.497 166.737,-619.925 189.519,-622.179"/>
<polygon fill="black" stroke="black" stroke-width="0.5" points="189.507,-623.936 194.655,-622.687 189.852,-620.453 189.507,-623.936"/>
</g>
<!-- SteadyStateIntegrator -->
<g id="node33" class="node"><title>SteadyStateIntegrator</title>
<g id="a_node33"><a xlink:href="../api/proteus.TimeIntegration.html#proteus.TimeIntegration.SteadyStateIntegrator" xlink:title="apply some form of pseudo&#45;transient continuation or direct solve to" target="_top">
<polygon fill="none" stroke="black" stroke-width="0.5" points="326.5,-602 202.5,-602 202.5,-583 326.5,-583 326.5,-602"/>
<text text-anchor="middle" x="264.5" y="-590" font-family="Vera Sans, DejaVu Sans, Liberation Sans, Arial, Helvetica, sans" font-size="10.00">SteadyStateIntegrator</text>
</a>
</g>
</g>
<!-- ForwardIntegrator&#45;&gt;SteadyStateIntegrator -->
<g id="edge27" class="edge"><title>ForwardIntegrator&#45;&gt;SteadyStateIntegrator</title>
<path fill="none" stroke="black" stroke-width="0.5" d="M121.445,-605.818C144.577,-603.649 172.385,-601.042 197.241,-598.712"/>
<polygon fill="black" stroke="black" stroke-width="0.5" points="197.683,-600.428 202.498,-598.219 197.356,-596.943 197.683,-600.428"/>
</g>
<!-- LinearSSPRKPIintegration -->
<g id="node26" class="node"><title>LinearSSPRKPIintegration</title>
<g id="a_node26"><a xlink:href="../api/proteus.TimeIntegration.html#proteus.TimeIntegration.LinearSSPRKPIintegration" xlink:title="Linear SSP RK integration with limiting step at end of each phase, this one" target="_top">
<polygon fill="none" stroke="black" stroke-width="0.5" points="755,-278 618,-278 618,-259 755,-259 755,-278"/>
<text text-anchor="middle" x="686.5" y="-266" font-family="Vera Sans, DejaVu Sans, Liberation Sans, Arial, Helvetica, sans" font-size="10.00">LinearSSPRKPIintegration</text>
</a>
</g>
</g>
<!-- LinearSSPRKintegration&#45;&gt;LinearSSPRKPIintegration -->
<g id="edge20" class="edge"><title>LinearSSPRKintegration&#45;&gt;LinearSSPRKPIintegration</title>
<path fill="none" stroke="black" stroke-width="0.5" d="M549.672,-268.5C569.75,-268.5 592.083,-268.5 612.745,-268.5"/>
<polygon fill="black" stroke="black" stroke-width="0.5" points="612.96,-270.25 617.959,-268.5 612.959,-266.75 612.96,-270.25"/>
</g>
</g>
</svg>
