<?xml version="1.0" encoding="UTF-8" standalone="no"?>
<!DOCTYPE svg PUBLIC "-//W3C//DTD SVG 1.1//EN"
 "http://www.w3.org/Graphics/SVG/1.1/DTD/svg11.dtd">
<!-- Generated by graphviz version 2.38.0 (20140413.2041)
 -->
<!-- Title: inheritance0624bf74da Pages: 1 -->
<svg width="576pt" height="291pt"
 viewBox="0.00 0.00 576.00 291.35" xmlns="http://www.w3.org/2000/svg" xmlns:xlink="http://www.w3.org/1999/xlink">
<g id="graph0" class="graph" transform="scale(0.958403 0.958403) rotate(0) translate(4 300)">
<title>inheritance0624bf74da</title>
<polygon fill="white" stroke="none" points="-4,4 -4,-300 597,-300 597,4 -4,4"/>
<!-- EikonalSolver -->
<g id="node1" class="node"><title>EikonalSolver</title>
<g id="a_node1"><a xlink:href="../api/proteus.NonlinearSolvers.html#proteus.NonlinearSolvers.EikonalSolver" xlink:title="Simple wrapper for special purpose Eikonal equation solvers on a single level." target="_top">
<polygon fill="none" stroke="black" stroke-width="0.5" points="108.5,-61 28.5,-61 28.5,-42 108.5,-42 108.5,-61"/>
<text text-anchor="middle" x="68.5" y="-49" font-family="Vera Sans, DejaVu Sans, Liberation Sans, Arial, Helvetica, sans" font-size="10.00">EikonalSolver</text>
</a>
</g>
</g>
<!-- ExplicitConsistentMassMatrixShallowWaterEquationsSolver -->
<g id="node2" class="node"><title>ExplicitConsistentMassMatrixShallowWaterEquationsSolver</title>
<g id="a_node2"><a xlink:href="../api/proteus.NonlinearSolvers.html#proteus.NonlinearSolvers.ExplicitConsistentMassMatrixShallowWaterEquationsSolver" xlink:title="This is a fake solver meant to be used with optimized code" target="_top">
<polygon fill="none" stroke="black" stroke-width="0.5" points="593,-296 298,-296 298,-277 593,-277 593,-296"/>
<text text-anchor="middle" x="445.5" y="-284" font-family="Vera Sans, DejaVu Sans, Liberation Sans, Arial, Helvetica, sans" font-size="10.00">ExplicitConsistentMassMatrixShallowWaterEquationsSolver</text>
</a>
</g>
</g>
<!-- Newton -->
<g id="node3" class="node"><title>Newton</title>
<g id="a_node3"><a xlink:href="../api/proteus.NonlinearSolvers.html#proteus.NonlinearSolvers.Newton" xlink:title="A simple iterative solver that is Newton&#39;s method" target="_top">
<polygon fill="none" stroke="black" stroke-width="0.5" points="244.5,-204 190.5,-204 190.5,-185 244.5,-185 244.5,-204"/>
<text text-anchor="middle" x="217.5" y="-192" font-family="Vera Sans, DejaVu Sans, Liberation Sans, Arial, Helvetica, sans" font-size="10.00">Newton</text>
</a>
</g>
</g>
<!-- Newton&#45;&gt;ExplicitConsistentMassMatrixShallowWaterEquationsSolver -->
<g id="edge1" class="edge"><title>Newton&#45;&gt;ExplicitConsistentMassMatrixShallowWaterEquationsSolver</title>
<path fill="none" stroke="black" stroke-width="0.5" d="M244.77,-203.06C250.827,-205.794 256.964,-209.245 262,-213.5 284.316,-232.355 273.197,-253.062 298,-268.5 301.753,-270.836 305.665,-272.939 309.698,-274.829"/>
<polygon fill="black" stroke="black" stroke-width="0.5" points="309.206,-276.525 314.486,-276.952 310.625,-273.325 309.206,-276.525"/>
</g>
<!-- ExplicitLumpedMassMatrixShallowWaterEquationsSolver -->
<g id="node4" class="node"><title>ExplicitLumpedMassMatrixShallowWaterEquationsSolver</title>
<g id="a_node4"><a xlink:href="../api/proteus.NonlinearSolvers.html#proteus.NonlinearSolvers.ExplicitLumpedMassMatrixShallowWaterEquationsSolver" xlink:title="This is a fake solver meant to be used with optimized code" target="_top">
<polygon fill="none" stroke="black" stroke-width="0.5" points="587,-259 304,-259 304,-240 587,-240 587,-259"/>
<text text-anchor="middle" x="445.5" y="-247" font-family="Vera Sans, DejaVu Sans, Liberation Sans, Arial, Helvetica, sans" font-size="10.00">ExplicitLumpedMassMatrixShallowWaterEquationsSolver</text>
</a>
</g>
</g>
<!-- Newton&#45;&gt;ExplicitLumpedMassMatrixShallowWaterEquationsSolver -->
<g id="edge2" class="edge"><title>Newton&#45;&gt;ExplicitLumpedMassMatrixShallowWaterEquationsSolver</title>
<path fill="none" stroke="black" stroke-width="0.5" d="M241.177,-204.14C247.912,-207.074 255.282,-210.356 262,-213.5 278.202,-221.083 280.874,-226.334 298,-231.5 307.804,-234.457 318.117,-236.93 328.541,-238.997"/>
<polygon fill="black" stroke="black" stroke-width="0.5" points="328.425,-240.756 333.665,-239.979 329.084,-237.319 328.425,-240.756"/>
</g>
<!-- POD_DEIM_Newton -->
<g id="node16" class="node"><title>POD_DEIM_Newton</title>
<g id="a_node16"><a xlink:href="../api/proteus.NonlinearSolvers.html#proteus.NonlinearSolvers.POD_DEIM_Newton" xlink:title="Newton&#39;s method on the reduced order system based on POD" target="_top">
<polygon fill="none" stroke="black" stroke-width="0.5" points="499.5,-222 391.5,-222 391.5,-203 499.5,-203 499.5,-222"/>
<text text-anchor="middle" x="445.5" y="-210" font-family="Vera Sans, DejaVu Sans, Liberation Sans, Arial, Helvetica, sans" font-size="10.00">POD_DEIM_Newton</text>
</a>
</g>
</g>
<!-- Newton&#45;&gt;POD_DEIM_Newton -->
<g id="edge10" class="edge"><title>Newton&#45;&gt;POD_DEIM_Newton</title>
<path fill="none" stroke="black" stroke-width="0.5" d="M244.867,-196.6C279.287,-199.341 340.508,-204.217 386.109,-207.849"/>
<polygon fill="black" stroke="black" stroke-width="0.5" points="386.186,-209.611 391.309,-208.264 386.464,-206.122 386.186,-209.611"/>
</g>
<!-- POD_Newton -->
<g id="node17" class="node"><title>POD_Newton</title>
<g id="a_node17"><a xlink:href="../api/proteus.NonlinearSolvers.html#proteus.NonlinearSolvers.POD_Newton" xlink:title="Newton&#39;s method on the reduced order system based on POD" target="_top">
<polygon fill="none" stroke="black" stroke-width="0.5" points="485,-185 406,-185 406,-166 485,-166 485,-185"/>
<text text-anchor="middle" x="445.5" y="-173" font-family="Vera Sans, DejaVu Sans, Liberation Sans, Arial, Helvetica, sans" font-size="10.00">POD_Newton</text>
</a>
</g>
</g>
<!-- Newton&#45;&gt;POD_Newton -->
<g id="edge11" class="edge"><title>Newton&#45;&gt;POD_Newton</title>
<path fill="none" stroke="black" stroke-width="0.5" d="M244.867,-192.283C283.099,-189.069 354.397,-183.075 400.627,-179.188"/>
<polygon fill="black" stroke="black" stroke-width="0.5" points="401.021,-180.912 405.857,-178.749 400.728,-177.424 401.021,-180.912"/>
</g>
<!-- PicardNewton -->
<g id="node18" class="node"><title>PicardNewton</title>
<g id="a_node18"><a xlink:href="../api/proteus.NonlinearSolvers.html#proteus.NonlinearSolvers.PicardNewton" xlink:title="PicardNewton" target="_top">
<polygon fill="none" stroke="black" stroke-width="0.5" points="486.5,-148 404.5,-148 404.5,-129 486.5,-129 486.5,-148"/>
<text text-anchor="middle" x="445.5" y="-136" font-family="Vera Sans, DejaVu Sans, Liberation Sans, Arial, Helvetica, sans" font-size="10.00">PicardNewton</text>
</a>
</g>
</g>
<!-- Newton&#45;&gt;PicardNewton -->
<g id="edge12" class="edge"><title>Newton&#45;&gt;PicardNewton</title>
<path fill="none" stroke="black" stroke-width="0.5" d="M242.607,-184.994C248.966,-182.359 255.786,-179.418 262,-176.5 278.376,-168.811 280.756,-162.972 298,-157.5 330.93,-147.05 369.768,-142.336 399.179,-140.216"/>
<polygon fill="black" stroke="black" stroke-width="0.5" points="399.317,-141.961 404.186,-139.874 399.078,-138.469 399.317,-141.961"/>
</g>
<!-- SSPRKNewton -->
<g id="node19" class="node"><title>SSPRKNewton</title>
<g id="a_node19"><a xlink:href="../api/proteus.NonlinearSolvers.html#proteus.NonlinearSolvers.SSPRKNewton" xlink:title="Version of Newton for SSPRK so doesn&#39;t refactor unnecessarily" target="_top">
<polygon fill="none" stroke="black" stroke-width="0.5" points="487.5,-111 403.5,-111 403.5,-92 487.5,-92 487.5,-111"/>
<text text-anchor="middle" x="445.5" y="-99" font-family="Vera Sans, DejaVu Sans, Liberation Sans, Arial, Helvetica, sans" font-size="10.00">SSPRKNewton</text>
</a>
</g>
</g>
<!-- Newton&#45;&gt;SSPRKNewton -->
<g id="edge13" class="edge"><title>Newton&#45;&gt;SSPRKNewton</title>
<path fill="none" stroke="black" stroke-width="0.5" d="M244.795,-186.618C250.852,-184.021 256.982,-180.692 262,-176.5 284.708,-157.532 272.998,-136.322 298,-120.5 327.706,-101.701 367.6,-97.5861 398.257,-97.8201"/>
<polygon fill="black" stroke="black" stroke-width="0.5" points="398.454,-99.5733 403.481,-97.9023 398.509,-96.0737 398.454,-99.5733"/>
</g>
<!-- FAS -->
<g id="node5" class="node"><title>FAS</title>
<g id="a_node5"><a xlink:href="../api/proteus.NonlinearSolvers.html#proteus.NonlinearSolvers.FAS" xlink:title="A generic nonlinear multigrid W cycle using the Full Approximation Scheme (FAS)." target="_top">
<polygon fill="none" stroke="black" stroke-width="0.5" points="95.5,-144 41.5,-144 41.5,-125 95.5,-125 95.5,-144"/>
<text text-anchor="middle" x="68.5" y="-132" font-family="Vera Sans, DejaVu Sans, Liberation Sans, Arial, Helvetica, sans" font-size="10.00">FAS</text>
</a>
</g>
</g>
<!-- FasTwoLevel -->
<g id="node6" class="node"><title>FasTwoLevel</title>
<g id="a_node6"><a xlink:href="../api/proteus.NonlinearSolvers.html#proteus.NonlinearSolvers.FasTwoLevel" xlink:title="A generic nonlinear two&#45;level solver based on the full approximation scheme. (FAS)." target="_top">
<polygon fill="none" stroke="black" stroke-width="0.5" points="254.5,-167 180.5,-167 180.5,-148 254.5,-148 254.5,-167"/>
<text text-anchor="middle" x="217.5" y="-155" font-family="Vera Sans, DejaVu Sans, Liberation Sans, Arial, Helvetica, sans" font-size="10.00">FasTwoLevel</text>
</a>
</g>
</g>
<!-- NonlinearSolver -->
<g id="node7" class="node"><title>NonlinearSolver</title>
<g id="a_node7"><a xlink:href="../api/proteus.NonlinearSolvers.html#proteus.NonlinearSolvers.NonlinearSolver" xlink:title="The base class for nonlinear solvers." target="_top">
<polygon fill="none" stroke="black" stroke-width="0.5" points="114.5,-98 22.5,-98 22.5,-79 114.5,-79 114.5,-98"/>
<text text-anchor="middle" x="68.5" y="-86" font-family="Vera Sans, DejaVu Sans, Liberation Sans, Arial, Helvetica, sans" font-size="10.00">NonlinearSolver</text>
</a>
</g>
</g>
<!-- NonlinearSolver&#45;&gt;Newton -->
<g id="edge8" class="edge"><title>NonlinearSolver&#45;&gt;Newton</title>
<path fill="none" stroke="black" stroke-width="0.5" d="M104.14,-98.051C115.487,-102.372 127.586,-108.379 137,-116.5 160.547,-136.813 149.444,-156.197 173,-176.5 176.637,-179.635 180.896,-182.279 185.299,-184.492"/>
<polygon fill="black" stroke="black" stroke-width="0.5" points="184.84,-186.208 190.112,-186.728 186.315,-183.034 184.84,-186.208"/>
</g>
<!-- NonlinearSolver&#45;&gt;FasTwoLevel -->
<g id="edge3" class="edge"><title>NonlinearSolver&#45;&gt;FasTwoLevel</title>
<path fill="none" stroke="black" stroke-width="0.5" d="M95.6262,-98.1006C108.349,-103.085 123.727,-109.575 137,-116.5 153.833,-125.282 156.163,-130.725 173,-139.5 177.349,-141.766 182.049,-143.959 186.696,-145.988"/>
<polygon fill="black" stroke="black" stroke-width="0.5" points="186.025,-147.605 191.311,-147.96 187.4,-144.386 186.025,-147.605"/>
</g>
<!-- NLGaussSeidel -->
<g id="node10" class="node"><title>NLGaussSeidel</title>
<g id="a_node10"><a xlink:href="../api/proteus.NonlinearSolvers.html#proteus.NonlinearSolvers.NLGaussSeidel" xlink:title="Nonlinear Gauss&#45;Seidel." target="_top">
<polygon fill="none" stroke="black" stroke-width="0.5" points="262,-130 173,-130 173,-111 262,-111 262,-130"/>
<text text-anchor="middle" x="217.5" y="-118" font-family="Vera Sans, DejaVu Sans, Liberation Sans, Arial, Helvetica, sans" font-size="10.00">NLGaussSeidel</text>
</a>
</g>
</g>
<!-- NonlinearSolver&#45;&gt;NLGaussSeidel -->
<g id="edge4" class="edge"><title>NonlinearSolver&#45;&gt;NLGaussSeidel</title>
<path fill="none" stroke="black" stroke-width="0.5" d="M113.207,-98.0144C130.458,-101.77 150.345,-106.099 168.034,-109.95"/>
<polygon fill="black" stroke="black" stroke-width="0.5" points="167.704,-111.669 172.962,-111.022 168.448,-108.249 167.704,-111.669"/>
</g>
<!-- NLJacobi -->
<g id="node11" class="node"><title>NLJacobi</title>
<g id="a_node11"><a xlink:href="../api/proteus.NonlinearSolvers.html#proteus.NonlinearSolvers.NLJacobi" xlink:title="Nonlinear Jacobi iteration." target="_top">
<polygon fill="none" stroke="black" stroke-width="0.5" points="246,-93 189,-93 189,-74 246,-74 246,-93"/>
<text text-anchor="middle" x="217.5" y="-81" font-family="Vera Sans, DejaVu Sans, Liberation Sans, Arial, Helvetica, sans" font-size="10.00">NLJacobi</text>
</a>
</g>
</g>
<!-- NonlinearSolver&#45;&gt;NLJacobi -->
<g id="edge5" class="edge"><title>NonlinearSolver&#45;&gt;NLJacobi</title>
<path fill="none" stroke="black" stroke-width="0.5" d="M114.804,-86.959C137.046,-86.2025 163.348,-85.3079 183.631,-84.618"/>
<polygon fill="black" stroke="black" stroke-width="0.5" points="183.714,-86.3663 188.652,-84.4472 183.595,-82.8683 183.714,-86.3663"/>
</g>
<!-- NLStarILU -->
<g id="node13" class="node"><title>NLStarILU</title>
<g id="a_node13"><a xlink:href="../api/proteus.NonlinearSolvers.html#proteus.NonlinearSolvers.NLStarILU" xlink:title="Nonlinear alternating Schwarz on node stars." target="_top">
<polygon fill="none" stroke="black" stroke-width="0.5" points="249.5,-56 185.5,-56 185.5,-37 249.5,-37 249.5,-56"/>
<text text-anchor="middle" x="217.5" y="-44" font-family="Vera Sans, DejaVu Sans, Liberation Sans, Arial, Helvetica, sans" font-size="10.00">NLStarILU</text>
</a>
</g>
</g>
<!-- NonlinearSolver&#45;&gt;NLStarILU -->
<g id="edge7" class="edge"><title>NonlinearSolver&#45;&gt;NLStarILU</title>
<path fill="none" stroke="black" stroke-width="0.5" d="M103.506,-78.9796C114.228,-75.9642 126.113,-72.6071 137,-69.5 151.151,-65.4614 166.704,-60.9728 180.273,-57.0407"/>
<polygon fill="black" stroke="black" stroke-width="0.5" points="180.861,-58.6924 185.175,-55.6191 179.886,-55.3309 180.861,-58.6924"/>
</g>
<!-- NewtonNS -->
<g id="node14" class="node"><title>NewtonNS</title>
<g id="a_node14"><a xlink:href="../api/proteus.NonlinearSolvers.html#proteus.NonlinearSolvers.NewtonNS" xlink:title="A simple iterative solver that is Newton&#39;s method" target="_top">
<polygon fill="none" stroke="black" stroke-width="0.5" points="251,-19 184,-19 184,-0 251,-0 251,-19"/>
<text text-anchor="middle" x="217.5" y="-7" font-family="Vera Sans, DejaVu Sans, Liberation Sans, Arial, Helvetica, sans" font-size="10.00">NewtonNS</text>
</a>
</g>
</g>
<!-- NonlinearSolver&#45;&gt;NewtonNS -->
<g id="edge9" class="edge"><title>NonlinearSolver&#45;&gt;NewtonNS</title>
<path fill="none" stroke="black" stroke-width="0.5" d="M114.663,-79.7834C122.461,-77.1817 130.228,-73.8242 137,-69.5 157.721,-56.2686 153.095,-41.9298 173,-27.5 176.094,-25.2574 179.508,-23.2336 183.023,-21.4235"/>
<polygon fill="black" stroke="black" stroke-width="0.5" points="184.117,-22.8384 187.857,-19.0871 182.594,-19.6871 184.117,-22.8384"/>
</g>
<!-- MultilevelEikonalSolver -->
<g id="node8" class="node"><title>MultilevelEikonalSolver</title>
<g id="a_node8"><a xlink:href="../api/proteus.NonlinearSolvers.html#proteus.NonlinearSolvers.MultilevelEikonalSolver" xlink:title="Attempt a wrapper for multilevel Eikonal equation solves with restricted interface" target="_top">
<polygon fill="none" stroke="black" stroke-width="0.5" points="131,-199 6,-199 6,-180 131,-180 131,-199"/>
<text text-anchor="middle" x="68.5" y="-187" font-family="Vera Sans, DejaVu Sans, Liberation Sans, Arial, Helvetica, sans" font-size="10.00">MultilevelEikonalSolver</text>
</a>
</g>
</g>
<!-- MultilevelNonlinearSolver -->
<g id="node9" class="node"><title>MultilevelNonlinearSolver</title>
<g id="a_node9"><a xlink:href="../api/proteus.NonlinearSolvers.html#proteus.NonlinearSolvers.MultilevelNonlinearSolver" xlink:title="A generic multilevel solver." target="_top">
<polygon fill="none" stroke="black" stroke-width="0.5" points="137,-241 0,-241 0,-222 137,-222 137,-241"/>
<text text-anchor="middle" x="68.5" y="-229" font-family="Vera Sans, DejaVu Sans, Liberation Sans, Arial, Helvetica, sans" font-size="10.00">MultilevelNonlinearSolver</text>
</a>
</g>
</g>
<!-- NLNI -->
<g id="node12" class="node"><title>NLNI</title>
<g id="a_node12"><a xlink:href="../api/proteus.NonlinearSolvers.html#proteus.NonlinearSolvers.NLNI" xlink:title="Nonlinear nested iteration." target="_top">
<polygon fill="none" stroke="black" stroke-width="0.5" points="244.5,-241 190.5,-241 190.5,-222 244.5,-222 244.5,-241"/>
<text text-anchor="middle" x="217.5" y="-229" font-family="Vera Sans, DejaVu Sans, Liberation Sans, Arial, Helvetica, sans" font-size="10.00">NLNI</text>
</a>
</g>
</g>
<!-- MultilevelNonlinearSolver&#45;&gt;NLNI -->
<g id="edge6" class="edge"><title>MultilevelNonlinearSolver&#45;&gt;NLNI</title>
<path fill="none" stroke="black" stroke-width="0.5" d="M137.406,-231.5C154.156,-231.5 171.296,-231.5 185.318,-231.5"/>
<polygon fill="black" stroke="black" stroke-width="0.5" points="185.337,-233.25 190.337,-231.5 185.337,-229.75 185.337,-233.25"/>
</g>
<!-- NonlinearEquation -->
<g id="node15" class="node"><title>NonlinearEquation</title>
<g id="a_node15"><a xlink:href="../api/proteus.NonlinearSolvers.html#proteus.NonlinearSolvers.NonlinearEquation" xlink:title="The base class for nonlinear equations." target="_top">
<polygon fill="none" stroke="black" stroke-width="0.5" points="120.5,-278 16.5,-278 16.5,-259 120.5,-259 120.5,-278"/>
<text text-anchor="middle" x="68.5" y="-266" font-family="Vera Sans, DejaVu Sans, Liberation Sans, Arial, Helvetica, sans" font-size="10.00">NonlinearEquation</text>
</a>
</g>
</g>
</g>
</svg>
