<?xml version="1.0" encoding="UTF-8" standalone="no"?>
<!DOCTYPE svg PUBLIC "-//W3C//DTD SVG 1.1//EN"
 "http://www.w3.org/Graphics/SVG/1.1/DTD/svg11.dtd">
<!-- Generated by graphviz version 2.42.3 (0)
 -->
<!-- Title: inheritance46841c7b14 Pages: 1 -->
<svg width="261pt" height="656pt"
 viewBox="0.00 0.00 261.00 656.00" xmlns="http://www.w3.org/2000/svg" xmlns:xlink="http://www.w3.org/1999/xlink">
<g id="graph0" class="graph" transform="scale(1 1) rotate(0) translate(4 652)">
<title>inheritance46841c7b14</title>
<polygon fill="white" stroke="transparent" points="-4,4 -4,-652 257,-652 257,4 -4,4"/>
<!-- CompositeTetrahedron -->
<g id="node1" class="node">
<title>CompositeTetrahedron</title>
<g id="a_node1"><a xlink:href="../api/proteus.Quadrature.html#proteus.Quadrature.CompositeTetrahedron" xlink:title="CompositeTetrahedron" target="_top">
<polygon fill="none" stroke="black" stroke-width="0.5" points="235,-648 108,-648 108,-629 235,-629 235,-648"/>
<text text-anchor="middle" x="171.5" y="-636" font-family="Vera Sans, DejaVu Sans, Liberation Sans, Arial, Helvetica, sans" font-size="10.00">CompositeTetrahedron</text>
</a>
</g>
</g>
<!-- Q_base -->
<g id="node2" class="node">
<title>Q_base</title>
<g id="a_node2"><a xlink:href="../api/proteus.Quadrature.html#proteus.Quadrature.Q_base" xlink:title="The base class for quadrature methods." target="_top">
<polygon fill="none" stroke="black" stroke-width="0.5" points="54,-333 0,-333 0,-314 54,-314 54,-333"/>
<text text-anchor="middle" x="27" y="-321" font-family="Vera Sans, DejaVu Sans, Liberation Sans, Arial, Helvetica, sans" font-size="10.00">Q_base</text>
</a>
</g>
</g>
<!-- Q_base&#45;&gt;CompositeTetrahedron -->
<g id="edge1" class="edge">
<title>Q_base&#45;&gt;CompositeTetrahedron</title>
<path fill="none" stroke="black" stroke-width="0.5" d="M28.63,-333.03C31.89,-379.1 48.21,-578.11 90,-620.5 93.85,-624.4 98.35,-627.54 103.21,-630.06"/>
<polygon fill="black" stroke="black" stroke-width="0.5" points="102.51,-631.66 107.78,-632.2 103.99,-628.49 102.51,-631.66"/>
</g>
<!-- CompositeTrapezoidalEdge -->
<g id="node3" class="node">
<title>CompositeTrapezoidalEdge</title>
<g id="a_node3"><a xlink:href="../api/proteus.Quadrature.html#proteus.Quadrature.CompositeTrapezoidalEdge" xlink:title="Composite trapezoidal rule on the unit interval." target="_top">
<polygon fill="none" stroke="black" stroke-width="0.5" points="246,-611 97,-611 97,-592 246,-592 246,-611"/>
<text text-anchor="middle" x="171.5" y="-599" font-family="Vera Sans, DejaVu Sans, Liberation Sans, Arial, Helvetica, sans" font-size="10.00">CompositeTrapezoidalEdge</text>
</a>
</g>
</g>
<!-- Q_base&#45;&gt;CompositeTrapezoidalEdge -->
<g id="edge2" class="edge">
<title>Q_base&#45;&gt;CompositeTrapezoidalEdge</title>
<path fill="none" stroke="black" stroke-width="0.5" d="M28.96,-333.25C33.37,-376.08 53.07,-547.09 90,-583.5 92.1,-585.57 94.39,-587.43 96.82,-589.09"/>
<polygon fill="black" stroke="black" stroke-width="0.5" points="96.15,-590.74 101.33,-591.87 97.99,-587.76 96.15,-590.74"/>
</g>
<!-- CompositeTrapezoidalTriangle -->
<g id="node4" class="node">
<title>CompositeTrapezoidalTriangle</title>
<g id="a_node4"><a xlink:href="../api/proteus.Quadrature.html#proteus.Quadrature.CompositeTrapezoidalTriangle" xlink:title="Composite trapezoidal rule on the reference triangle" target="_top">
<polygon fill="none" stroke="black" stroke-width="0.5" points="253,-574 90,-574 90,-555 253,-555 253,-574"/>
<text text-anchor="middle" x="171.5" y="-562" font-family="Vera Sans, DejaVu Sans, Liberation Sans, Arial, Helvetica, sans" font-size="10.00">CompositeTrapezoidalTriangle</text>
</a>
</g>
</g>
<!-- Q_base&#45;&gt;CompositeTrapezoidalTriangle -->
<g id="edge3" class="edge">
<title>Q_base&#45;&gt;CompositeTrapezoidalTriangle</title>
<path fill="none" stroke="black" stroke-width="0.5" d="M27.48,-333.27C26.19,-367.97 26.78,-486.44 90,-546.5 92.32,-548.7 94.84,-550.65 97.52,-552.39"/>
<polygon fill="black" stroke="black" stroke-width="0.5" points="96.65,-553.91 101.85,-554.93 98.42,-550.89 96.65,-553.91"/>
</g>
<!-- CompositeTriangle -->
<g id="node5" class="node">
<title>CompositeTriangle</title>
<g id="a_node5"><a xlink:href="../api/proteus.Quadrature.html#proteus.Quadrature.CompositeTriangle" xlink:title="Composite quadrature rule on the unit triangle." target="_top">
<polygon fill="none" stroke="black" stroke-width="0.5" points="225,-537 118,-537 118,-518 225,-518 225,-537"/>
<text text-anchor="middle" x="171.5" y="-525" font-family="Vera Sans, DejaVu Sans, Liberation Sans, Arial, Helvetica, sans" font-size="10.00">CompositeTriangle</text>
</a>
</g>
</g>
<!-- Q_base&#45;&gt;CompositeTriangle -->
<g id="edge4" class="edge">
<title>Q_base&#45;&gt;CompositeTriangle</title>
<path fill="none" stroke="black" stroke-width="0.5" d="M28.11,-333.37C29,-364.41 36.19,-460.91 90,-509.5 96.43,-515.3 104.3,-519.37 112.59,-522.19"/>
<polygon fill="black" stroke="black" stroke-width="0.5" points="112.5,-524 117.8,-523.8 113.54,-520.65 112.5,-524"/>
</g>
<!-- CubeGaussQuadrature -->
<g id="node6" class="node">
<title>CubeGaussQuadrature</title>
<g id="a_node6"><a xlink:href="../api/proteus.Quadrature.html#proteus.Quadrature.CubeGaussQuadrature" xlink:title="A class for all quadrature on unit simplices." target="_top">
<polygon fill="none" stroke="black" stroke-width="0.5" points="234.5,-500 108.5,-500 108.5,-481 234.5,-481 234.5,-500"/>
<text text-anchor="middle" x="171.5" y="-488" font-family="Vera Sans, DejaVu Sans, Liberation Sans, Arial, Helvetica, sans" font-size="10.00">CubeGaussQuadrature</text>
</a>
</g>
</g>
<!-- Q_base&#45;&gt;CubeGaussQuadrature -->
<g id="edge5" class="edge">
<title>Q_base&#45;&gt;CubeGaussQuadrature</title>
<path fill="none" stroke="black" stroke-width="0.5" d="M29.01,-333.3C32.33,-360.09 45.36,-435.04 90,-472.5 94.03,-475.88 98.56,-478.67 103.37,-480.95"/>
<polygon fill="black" stroke="black" stroke-width="0.5" points="102.98,-482.69 108.26,-483.07 104.37,-479.48 102.98,-482.69"/>
</g>
<!-- FaceBarycenterEdge -->
<g id="node7" class="node">
<title>FaceBarycenterEdge</title>
<g id="a_node7"><a xlink:href="../api/proteus.Quadrature.html#proteus.Quadrature.FaceBarycenterEdge" xlink:title="FaceBarycenterEdge" target="_top">
<polygon fill="none" stroke="black" stroke-width="0.5" points="229.5,-463 113.5,-463 113.5,-444 229.5,-444 229.5,-463"/>
<text text-anchor="middle" x="171.5" y="-451" font-family="Vera Sans, DejaVu Sans, Liberation Sans, Arial, Helvetica, sans" font-size="10.00">FaceBarycenterEdge</text>
</a>
</g>
</g>
<!-- Q_base&#45;&gt;FaceBarycenterEdge -->
<g id="edge6" class="edge">
<title>Q_base&#45;&gt;FaceBarycenterEdge</title>
<path fill="none" stroke="black" stroke-width="0.5" d="M30.4,-333.08C36.41,-354.95 54.24,-408.73 90,-435.5 95.48,-439.6 101.72,-442.8 108.25,-445.29"/>
<polygon fill="black" stroke="black" stroke-width="0.5" points="107.99,-447.05 113.29,-447.06 109.15,-443.75 107.99,-447.05"/>
</g>
<!-- FaceBarycenterTetrahedron -->
<g id="node8" class="node">
<title>FaceBarycenterTetrahedron</title>
<g id="a_node8"><a xlink:href="../api/proteus.Quadrature.html#proteus.Quadrature.FaceBarycenterTetrahedron" xlink:title="FaceBarycenterTetrahedron" target="_top">
<polygon fill="none" stroke="black" stroke-width="0.5" points="246,-426 97,-426 97,-407 246,-407 246,-426"/>
<text text-anchor="middle" x="171.5" y="-414" font-family="Vera Sans, DejaVu Sans, Liberation Sans, Arial, Helvetica, sans" font-size="10.00">FaceBarycenterTetrahedron</text>
</a>
</g>
</g>
<!-- Q_base&#45;&gt;FaceBarycenterTetrahedron -->
<g id="edge7" class="edge">
<title>Q_base&#45;&gt;FaceBarycenterTetrahedron</title>
<path fill="none" stroke="black" stroke-width="0.5" d="M33.07,-333.05C42.18,-349.23 62.92,-381.9 90,-398.5 94.21,-401.08 98.75,-403.3 103.45,-405.19"/>
<polygon fill="black" stroke="black" stroke-width="0.5" points="102.9,-406.86 108.2,-406.99 104.14,-403.58 102.9,-406.86"/>
</g>
<!-- FaceBarycenterTriangle -->
<g id="node9" class="node">
<title>FaceBarycenterTriangle</title>
<g id="a_node9"><a xlink:href="../api/proteus.Quadrature.html#proteus.Quadrature.FaceBarycenterTriangle" xlink:title="FaceBarycenterTriangle" target="_top">
<polygon fill="none" stroke="black" stroke-width="0.5" points="236.5,-389 106.5,-389 106.5,-370 236.5,-370 236.5,-389"/>
<text text-anchor="middle" x="171.5" y="-377" font-family="Vera Sans, DejaVu Sans, Liberation Sans, Arial, Helvetica, sans" font-size="10.00">FaceBarycenterTriangle</text>
</a>
</g>
</g>
<!-- Q_base&#45;&gt;FaceBarycenterTriangle -->
<g id="edge8" class="edge">
<title>Q_base&#45;&gt;FaceBarycenterTriangle</title>
<path fill="none" stroke="black" stroke-width="0.5" d="M41.1,-333.31C53.2,-341.93 71.98,-354.2 90,-361.5 96.69,-364.21 103.86,-366.55 111.07,-368.56"/>
<polygon fill="black" stroke="black" stroke-width="0.5" points="110.77,-370.29 116.06,-369.9 111.68,-366.91 110.77,-370.29"/>
</g>
<!-- GaussEdge -->
<g id="node10" class="node">
<title>GaussEdge</title>
<g id="a_node10"><a xlink:href="../api/proteus.Quadrature.html#proteus.Quadrature.GaussEdge" xlink:title="Gaussian Quadrature on the unit interval." target="_top">
<polygon fill="none" stroke="black" stroke-width="0.5" points="207,-352 136,-352 136,-333 207,-333 207,-352"/>
<text text-anchor="middle" x="171.5" y="-340" font-family="Vera Sans, DejaVu Sans, Liberation Sans, Arial, Helvetica, sans" font-size="10.00">GaussEdge</text>
</a>
</g>
</g>
<!-- Q_base&#45;&gt;GaussEdge -->
<g id="edge9" class="edge">
<title>Q_base&#45;&gt;GaussEdge</title>
<path fill="none" stroke="black" stroke-width="0.5" d="M54.14,-326.98C75.59,-329.85 106.31,-333.94 130.8,-337.21"/>
<polygon fill="black" stroke="black" stroke-width="0.5" points="130.74,-338.96 135.93,-337.89 131.21,-335.5 130.74,-338.96"/>
</g>
<!-- GaussPoint -->
<g id="node11" class="node">
<title>GaussPoint</title>
<g id="a_node11"><a xlink:href="../api/proteus.Quadrature.html#proteus.Quadrature.GaussPoint" xlink:title="A dummy class for integrating the boundary of the unit interval (i.e. a point)." target="_top">
<polygon fill="none" stroke="black" stroke-width="0.5" points="207,-315 136,-315 136,-296 207,-296 207,-315"/>
<text text-anchor="middle" x="171.5" y="-303" font-family="Vera Sans, DejaVu Sans, Liberation Sans, Arial, Helvetica, sans" font-size="10.00">GaussPoint</text>
</a>
</g>
</g>
<!-- Q_base&#45;&gt;GaussPoint -->
<g id="edge10" class="edge">
<title>Q_base&#45;&gt;GaussPoint</title>
<path fill="none" stroke="black" stroke-width="0.5" d="M54.14,-320.2C75.59,-317.49 106.31,-313.61 130.8,-310.51"/>
<polygon fill="black" stroke="black" stroke-width="0.5" points="131.19,-312.23 135.93,-309.87 130.75,-308.76 131.19,-312.23"/>
</g>
<!-- GaussTetrahedron -->
<g id="node12" class="node">
<title>GaussTetrahedron</title>
<g id="a_node12"><a xlink:href="../api/proteus.Quadrature.html#proteus.Quadrature.GaussTetrahedron" xlink:title="Gauss&#45;Legendre quadrature on the unit tetrahedron." target="_top">
<polygon fill="none" stroke="black" stroke-width="0.5" points="223.5,-278 119.5,-278 119.5,-259 223.5,-259 223.5,-278"/>
<text text-anchor="middle" x="171.5" y="-266" font-family="Vera Sans, DejaVu Sans, Liberation Sans, Arial, Helvetica, sans" font-size="10.00">GaussTetrahedron</text>
</a>
</g>
</g>
<!-- Q_base&#45;&gt;GaussTetrahedron -->
<g id="edge11" class="edge">
<title>Q_base&#45;&gt;GaussTetrahedron</title>
<path fill="none" stroke="black" stroke-width="0.5" d="M41.68,-313.97C53.86,-305.88 72.42,-294.5 90,-287.5 97.84,-284.38 106.33,-281.69 114.75,-279.39"/>
<polygon fill="black" stroke="black" stroke-width="0.5" points="115.59,-280.98 119.98,-278.02 114.7,-277.6 115.59,-280.98"/>
</g>
<!-- GaussTriangle -->
<g id="node13" class="node">
<title>GaussTriangle</title>
<g id="a_node13"><a xlink:href="../api/proteus.Quadrature.html#proteus.Quadrature.GaussTriangle" xlink:title="Gauss quadrature on the unit triangle." target="_top">
<polygon fill="none" stroke="black" stroke-width="0.5" points="214,-241 129,-241 129,-222 214,-222 214,-241"/>
<text text-anchor="middle" x="171.5" y="-229" font-family="Vera Sans, DejaVu Sans, Liberation Sans, Arial, Helvetica, sans" font-size="10.00">GaussTriangle</text>
</a>
</g>
</g>
<!-- Q_base&#45;&gt;GaussTriangle -->
<g id="edge12" class="edge">
<title>Q_base&#45;&gt;GaussTriangle</title>
<path fill="none" stroke="black" stroke-width="0.5" d="M33.3,-313.99C42.62,-298.2 63.48,-266.73 90,-250.5 100.18,-244.27 112.24,-240.08 123.88,-237.27"/>
<polygon fill="black" stroke="black" stroke-width="0.5" points="124.35,-238.95 128.84,-236.14 123.57,-235.54 124.35,-238.95"/>
</g>
<!-- LobattoEdge -->
<g id="node14" class="node">
<title>LobattoEdge</title>
<g id="a_node14"><a xlink:href="../api/proteus.Quadrature.html#proteus.Quadrature.LobattoEdge" xlink:title="Gauss&#45;Lobatto quadrature on the unit interval." target="_top">
<polygon fill="none" stroke="black" stroke-width="0.5" points="210,-204 133,-204 133,-185 210,-185 210,-204"/>
<text text-anchor="middle" x="171.5" y="-192" font-family="Vera Sans, DejaVu Sans, Liberation Sans, Arial, Helvetica, sans" font-size="10.00">LobattoEdge</text>
</a>
</g>
</g>
<!-- Q_base&#45;&gt;LobattoEdge -->
<g id="edge13" class="edge">
<title>Q_base&#45;&gt;LobattoEdge</title>
<path fill="none" stroke="black" stroke-width="0.5" d="M30.57,-313.79C36.83,-292.17 54.96,-239.85 90,-213.5 100.84,-205.35 114.64,-200.63 127.74,-197.91"/>
<polygon fill="black" stroke="black" stroke-width="0.5" points="128.33,-199.58 132.91,-196.93 127.68,-196.14 128.33,-199.58"/>
</g>
<!-- LobattoEdgeAlt -->
<g id="node15" class="node">
<title>LobattoEdgeAlt</title>
<g id="a_node15"><a xlink:href="../api/proteus.Quadrature.html#proteus.Quadrature.LobattoEdgeAlt" xlink:title="Gauss&#45;Lobatto quadrature on the [&#45;1:1] interval." target="_top">
<polygon fill="none" stroke="black" stroke-width="0.5" points="217,-167 126,-167 126,-148 217,-148 217,-167"/>
<text text-anchor="middle" x="171.5" y="-155" font-family="Vera Sans, DejaVu Sans, Liberation Sans, Arial, Helvetica, sans" font-size="10.00">LobattoEdgeAlt</text>
</a>
</g>
</g>
<!-- Q_base&#45;&gt;LobattoEdgeAlt -->
<g id="edge14" class="edge">
<title>Q_base&#45;&gt;LobattoEdgeAlt</title>
<path fill="none" stroke="black" stroke-width="0.5" d="M29.08,-313.86C32.57,-287.49 46,-213.69 90,-176.5 98.65,-169.18 109.62,-164.57 120.66,-161.7"/>
<polygon fill="black" stroke="black" stroke-width="0.5" points="121.26,-163.35 125.72,-160.49 120.45,-159.95 121.26,-163.35"/>
</g>
<!-- LobattoTetrahedron -->
<g id="node16" class="node">
<title>LobattoTetrahedron</title>
<g id="a_node16"><a xlink:href="../api/proteus.Quadrature.html#proteus.Quadrature.LobattoTetrahedron" xlink:title="Gauss&#45;Lobatto quadrature on the unit tetrahedron." target="_top">
<polygon fill="none" stroke="black" stroke-width="0.5" points="227,-130 116,-130 116,-111 227,-111 227,-130"/>
<text text-anchor="middle" x="171.5" y="-118" font-family="Vera Sans, DejaVu Sans, Liberation Sans, Arial, Helvetica, sans" font-size="10.00">LobattoTetrahedron</text>
</a>
</g>
</g>
<!-- Q_base&#45;&gt;LobattoTetrahedron -->
<g id="edge15" class="edge">
<title>Q_base&#45;&gt;LobattoTetrahedron</title>
<path fill="none" stroke="black" stroke-width="0.5" d="M28.17,-313.76C29.25,-283.12 36.92,-187.85 90,-139.5 95.98,-134.05 103.22,-130.09 110.88,-127.21"/>
<polygon fill="black" stroke="black" stroke-width="0.5" points="111.54,-128.83 115.7,-125.55 110.4,-125.52 111.54,-128.83"/>
</g>
<!-- LobattoTriangle -->
<g id="node17" class="node">
<title>LobattoTriangle</title>
<g id="a_node17"><a xlink:href="../api/proteus.Quadrature.html#proteus.Quadrature.LobattoTriangle" xlink:title="Gauss&#45;Lobatto quadrature on the unit triangle." target="_top">
<polygon fill="none" stroke="black" stroke-width="0.5" points="217.5,-93 125.5,-93 125.5,-74 217.5,-74 217.5,-93"/>
<text text-anchor="middle" x="171.5" y="-81" font-family="Vera Sans, DejaVu Sans, Liberation Sans, Arial, Helvetica, sans" font-size="10.00">LobattoTriangle</text>
</a>
</g>
</g>
<!-- Q_base&#45;&gt;LobattoTriangle -->
<g id="edge16" class="edge">
<title>Q_base&#45;&gt;LobattoTriangle</title>
<path fill="none" stroke="black" stroke-width="0.5" d="M27.53,-313.84C26.44,-279.53 27.59,-162.36 90,-102.5 98.27,-94.57 109.2,-89.74 120.34,-86.84"/>
<polygon fill="black" stroke="black" stroke-width="0.5" points="120.99,-88.49 125.46,-85.64 120.19,-85.08 120.99,-88.49"/>
</g>
<!-- SimplexGaussQuadrature -->
<g id="node18" class="node">
<title>SimplexGaussQuadrature</title>
<g id="a_node18"><a xlink:href="../api/proteus.Quadrature.html#proteus.Quadrature.SimplexGaussQuadrature" xlink:title="A class which defines quadrature on unit simplices." target="_top">
<polygon fill="none" stroke="black" stroke-width="0.5" points="242,-56 101,-56 101,-37 242,-37 242,-56"/>
<text text-anchor="middle" x="171.5" y="-44" font-family="Vera Sans, DejaVu Sans, Liberation Sans, Arial, Helvetica, sans" font-size="10.00">SimplexGaussQuadrature</text>
</a>
</g>
</g>
<!-- Q_base&#45;&gt;SimplexGaussQuadrature -->
<g id="edge17" class="edge">
<title>Q_base&#45;&gt;SimplexGaussQuadrature</title>
<path fill="none" stroke="black" stroke-width="0.5" d="M28.98,-313.84C33.48,-271.37 53.52,-101.83 90,-65.5 92.47,-63.04 95.2,-60.87 98.11,-58.97"/>
<polygon fill="black" stroke="black" stroke-width="0.5" points="99.4,-60.24 102.82,-56.19 97.63,-57.22 99.4,-60.24"/>
</g>
<!-- SimplexLobattoQuadrature -->
<g id="node19" class="node">
<title>SimplexLobattoQuadrature</title>
<g id="a_node19"><a xlink:href="../api/proteus.Quadrature.html#proteus.Quadrature.SimplexLobattoQuadrature" xlink:title="A class for quadrature on unit simplices." target="_top">
<polygon fill="none" stroke="black" stroke-width="0.5" points="245.5,-19 97.5,-19 97.5,0 245.5,0 245.5,-19"/>
<text text-anchor="middle" x="171.5" y="-7" font-family="Vera Sans, DejaVu Sans, Liberation Sans, Arial, Helvetica, sans" font-size="10.00">SimplexLobattoQuadrature</text>
</a>
</g>
</g>
<!-- Q_base&#45;&gt;SimplexLobattoQuadrature -->
<g id="edge18" class="edge">
<title>Q_base&#45;&gt;SimplexLobattoQuadrature</title>
<path fill="none" stroke="black" stroke-width="0.5" d="M28.68,-313.73C32.07,-267.46 48.79,-70.73 90,-28.5 92.43,-26 95.13,-23.81 98.02,-21.89"/>
<polygon fill="black" stroke="black" stroke-width="0.5" points="99.32,-23.15 102.7,-19.07 97.52,-20.15 99.32,-23.15"/>
</g>
</g>
</svg>
