<?xml version="1.0" encoding="UTF-8" standalone="no"?>
<!DOCTYPE svg PUBLIC "-//W3C//DTD SVG 1.1//EN"
 "http://www.w3.org/Graphics/SVG/1.1/DTD/svg11.dtd">
<!-- Generated by graphviz version 2.40.1 (20161225.0304)
 -->
<!-- Title: inheritancea2a0a950e2 Pages: 1 -->
<svg width="576pt" height="247pt"
 viewBox="0.00 0.00 576.00 246.86" xmlns="http://www.w3.org/2000/svg" xmlns:xlink="http://www.w3.org/1999/xlink">
<g id="graph0" class="graph" transform="scale(.9914 .9914) rotate(0) translate(4 245)">
<title>inheritancea2a0a950e2</title>
<polygon fill="#ffffff" stroke="transparent" points="-4,4 -4,-245 577,-245 577,4 -4,4"/>
<!-- ISO_fixed_MinAdaptiveModelStep -->
<g id="node1" class="node">
<title>ISO_fixed_MinAdaptiveModelStep</title>
<g id="a_node1"><a xlink:href="../api/proteus.SplitOperator.html#proteus.SplitOperator.ISO_fixed_MinAdaptiveModelStep" xlink:title="Look at the minimum model step and make that the system step as" target="_top">
<polygon fill="none" stroke="#000000" stroke-width=".5" points="286,-241 107,-241 107,-222 286,-222 286,-241"/>
<text text-anchor="middle" x="196.5" y="-229" font-family="Vera Sans, DejaVu Sans, Liberation Sans, Arial, Helvetica, sans" font-size="10.00" fill="#000000">ISO_fixed_MinAdaptiveModelStep</text>
</a>
</g>
</g>
<!-- SO_base -->
<g id="node2" class="node">
<title>SO_base</title>
<g id="a_node2"><a xlink:href="../api/proteus.SplitOperator.html#proteus.SplitOperator.SO_base" xlink:title="Base class for operating splitting methods for systems." target="_top">
<polygon fill="none" stroke="#000000" stroke-width=".5" points="59,-130 0,-130 0,-111 59,-111 59,-130"/>
<text text-anchor="middle" x="29.5" y="-118" font-family="Vera Sans, DejaVu Sans, Liberation Sans, Arial, Helvetica, sans" font-size="10.00" fill="#000000">SO_base</text>
</a>
</g>
</g>
<!-- SO_base&#45;&gt;ISO_fixed_MinAdaptiveModelStep -->
<g id="edge1" class="edge">
<title>SO_base&#45;&gt;ISO_fixed_MinAdaptiveModelStep</title>
<path fill="none" stroke="#000000" stroke-width=".5" d="M47.8793,-130.128C51.8761,-132.7933 55.8466,-135.9456 59,-139.5 83.2726,-166.8591 65.8124,-191.46 95,-213.5 98.0439,-215.7985 101.2844,-217.839 104.6677,-219.6486"/>
<polygon fill="#000000" stroke="#000000" stroke-width=".5" points="104.1077,-221.324 109.3649,-221.9756 105.6614,-218.1878 104.1077,-221.324"/>
</g>
<!-- Sequential_MinAdaptiveModelStep -->
<g id="node4" class="node">
<title>Sequential_MinAdaptiveModelStep</title>
<g id="a_node4"><a xlink:href="../api/proteus.SplitOperator.html#proteus.SplitOperator.Sequential_MinAdaptiveModelStep" xlink:title="Look at the minimum model step and make that the system step as" target="_top">
<polygon fill="none" stroke="#000000" stroke-width=".5" points="289,-204 104,-204 104,-185 289,-185 289,-204"/>
<text text-anchor="middle" x="196.5" y="-192" font-family="Vera Sans, DejaVu Sans, Liberation Sans, Arial, Helvetica, sans" font-size="10.00" fill="#000000">Sequential_MinAdaptiveModelStep</text>
</a>
</g>
</g>
<!-- SO_base&#45;&gt;Sequential_MinAdaptiveModelStep -->
<g id="edge4" class="edge">
<title>SO_base&#45;&gt;Sequential_MinAdaptiveModelStep</title>
<path fill="none" stroke="#000000" stroke-width=".5" d="M45.8846,-130.1195C50.2852,-132.9501 54.945,-136.1828 59,-139.5 76.7588,-154.0274 74.7269,-165.7566 95,-176.5 99.9034,-179.0984 105.108,-181.3315 110.469,-183.2496"/>
<polygon fill="#000000" stroke="#000000" stroke-width=".5" points="110.1351,-184.9838 115.4322,-184.9239 111.2539,-181.6674 110.1351,-184.9838"/>
</g>
<!-- Sequential_MinFLCBDFModelStep -->
<g id="node6" class="node">
<title>Sequential_MinFLCBDFModelStep</title>
<g id="a_node6"><a xlink:href="../api/proteus.SplitOperator.html#proteus.SplitOperator.Sequential_MinFLCBDFModelStep" xlink:title="Look at the minimum model step and make that the system step as" target="_top">
<polygon fill="none" stroke="#000000" stroke-width=".5" points="286,-167 107,-167 107,-148 286,-148 286,-167"/>
<text text-anchor="middle" x="196.5" y="-155" font-family="Vera Sans, DejaVu Sans, Liberation Sans, Arial, Helvetica, sans" font-size="10.00" fill="#000000">Sequential_MinFLCBDFModelStep</text>
</a>
</g>
</g>
<!-- SO_base&#45;&gt;Sequential_MinFLCBDFModelStep -->
<g id="edge6" class="edge">
<title>SO_base&#45;&gt;Sequential_MinFLCBDFModelStep</title>
<path fill="none" stroke="#000000" stroke-width=".5" d="M59.322,-129.8794C70.4505,-133.1864 83.238,-136.7594 95,-139.5 106.7432,-142.2362 119.3356,-144.779 131.5168,-147.0406"/>
<polygon fill="#000000" stroke="#000000" stroke-width=".5" points="131.4749,-148.812 136.7085,-147.9923 132.1061,-145.3693 131.4749,-148.812"/>
</g>
<!-- Sequential_MinAdaptiveModelStep_SS -->
<g id="node7" class="node">
<title>Sequential_MinAdaptiveModelStep_SS</title>
<g id="a_node7"><a xlink:href="../api/proteus.SplitOperator.html#proteus.SplitOperator.Sequential_MinAdaptiveModelStep_SS" xlink:title="Look at the minimum model step and make that the system step as" target="_top">
<polygon fill="none" stroke="#000000" stroke-width=".5" points="298,-130 95,-130 95,-111 298,-111 298,-130"/>
<text text-anchor="middle" x="196.5" y="-118" font-family="Vera Sans, DejaVu Sans, Liberation Sans, Arial, Helvetica, sans" font-size="10.00" fill="#000000">Sequential_MinAdaptiveModelStep_SS</text>
</a>
</g>
</g>
<!-- SO_base&#45;&gt;Sequential_MinAdaptiveModelStep_SS -->
<g id="edge5" class="edge">
<title>SO_base&#45;&gt;Sequential_MinAdaptiveModelStep_SS</title>
<path fill="none" stroke="#000000" stroke-width=".5" d="M59.3563,-120.5C68.3057,-120.5 78.6808,-120.5 89.6397,-120.5"/>
<polygon fill="#000000" stroke="#000000" stroke-width=".5" points="89.713,-122.2501 94.713,-120.5 89.713,-118.7501 89.713,-122.2501"/>
</g>
<!-- Sequential_MinModelStep -->
<g id="node8" class="node">
<title>Sequential_MinModelStep</title>
<g id="a_node8"><a xlink:href="../api/proteus.SplitOperator.html#proteus.SplitOperator.Sequential_MinModelStep" xlink:title="Look at the minimum model step and make that the system step as" target="_top">
<polygon fill="none" stroke="#000000" stroke-width=".5" points="267.5,-93 125.5,-93 125.5,-74 267.5,-74 267.5,-93"/>
<text text-anchor="middle" x="196.5" y="-81" font-family="Vera Sans, DejaVu Sans, Liberation Sans, Arial, Helvetica, sans" font-size="10.00" fill="#000000">Sequential_MinModelStep</text>
</a>
</g>
</g>
<!-- SO_base&#45;&gt;Sequential_MinModelStep -->
<g id="edge7" class="edge">
<title>SO_base&#45;&gt;Sequential_MinModelStep</title>
<path fill="none" stroke="#000000" stroke-width=".5" d="M59.0392,-111.8214C70.2487,-108.6761 83.1637,-105.2292 95,-102.5 108.2247,-99.4506 122.5039,-96.5432 136.0574,-93.9605"/>
<polygon fill="#000000" stroke="#000000" stroke-width=".5" points="136.4264,-95.6719 141.0146,-93.024 135.7767,-92.2327 136.4264,-95.6719"/>
</g>
<!-- Sequential_NonUniformFixedStep -->
<g id="node9" class="node">
<title>Sequential_NonUniformFixedStep</title>
<g id="a_node9"><a xlink:href="../api/proteus.SplitOperator.html#proteus.SplitOperator.Sequential_NonUniformFixedStep" xlink:title="Just step to system output time levels, allowing models to" target="_top">
<polygon fill="none" stroke="#000000" stroke-width=".5" points="286.5,-56 106.5,-56 106.5,-37 286.5,-37 286.5,-56"/>
<text text-anchor="middle" x="196.5" y="-44" font-family="Vera Sans, DejaVu Sans, Liberation Sans, Arial, Helvetica, sans" font-size="10.00" fill="#000000">Sequential_NonUniformFixedStep</text>
</a>
</g>
</g>
<!-- SO_base&#45;&gt;Sequential_NonUniformFixedStep -->
<g id="edge8" class="edge">
<title>SO_base&#45;&gt;Sequential_NonUniformFixedStep</title>
<path fill="none" stroke="#000000" stroke-width=".5" d="M38.1666,-110.5861C49.7778,-97.9851 71.6434,-76.5462 95,-65.5 101.7156,-62.3239 108.9165,-59.6783 116.2696,-57.4745"/>
<polygon fill="#000000" stroke="#000000" stroke-width=".5" points="117.0513,-59.0715 121.3804,-56.0183 116.0922,-55.7054 117.0513,-59.0715"/>
</g>
<!-- Sequential_tnList -->
<g id="node10" class="node">
<title>Sequential_tnList</title>
<g id="a_node10"><a xlink:href="../api/proteus.SplitOperator.html#proteus.SplitOperator.Sequential_tnList" xlink:title="Sequential_tnList" target="_top">
<polygon fill="none" stroke="#000000" stroke-width=".5" points="247,-19 146,-19 146,0 247,0 247,-19"/>
<text text-anchor="middle" x="196.5" y="-7" font-family="Vera Sans, DejaVu Sans, Liberation Sans, Arial, Helvetica, sans" font-size="10.00" fill="#000000">Sequential_tnList</text>
</a>
</g>
</g>
<!-- SO_base&#45;&gt;Sequential_tnList -->
<g id="edge9" class="edge">
<title>SO_base&#45;&gt;Sequential_tnList</title>
<path fill="none" stroke="#000000" stroke-width=".5" d="M33.3967,-110.8251C41.642,-91.6902 62.7821,-49.0858 95,-28.5 108.5049,-19.871 124.9548,-14.9516 140.6462,-12.2033"/>
<polygon fill="#000000" stroke="#000000" stroke-width=".5" points="141.2749,-13.8747 145.9333,-11.3522 140.7187,-10.4191 141.2749,-13.8747"/>
</g>
<!-- SequentialNotInOrder_MinAdaptiveModelStep -->
<g id="node3" class="node">
<title>SequentialNotInOrder_MinAdaptiveModelStep</title>
<g id="a_node3"><a xlink:href="../api/proteus.SplitOperator.html#proteus.SplitOperator.SequentialNotInOrder_MinAdaptiveModelStep" xlink:title="loop through the models in some specified order" target="_top">
<polygon fill="none" stroke="#000000" stroke-width=".5" points="573,-204 334,-204 334,-185 573,-185 573,-204"/>
<text text-anchor="middle" x="453.5" y="-192" font-family="Vera Sans, DejaVu Sans, Liberation Sans, Arial, Helvetica, sans" font-size="10.00" fill="#000000">SequentialNotInOrder_MinAdaptiveModelStep</text>
</a>
</g>
</g>
<!-- Sequential_MinAdaptiveModelStep&#45;&gt;SequentialNotInOrder_MinAdaptiveModelStep -->
<g id="edge2" class="edge">
<title>Sequential_MinAdaptiveModelStep&#45;&gt;SequentialNotInOrder_MinAdaptiveModelStep</title>
<path fill="none" stroke="#000000" stroke-width=".5" d="M289.2829,-194.5C301.9758,-194.5 315.1738,-194.5 328.3254,-194.5"/>
<polygon fill="#000000" stroke="#000000" stroke-width=".5" points="328.559,-196.2501 333.5589,-194.5 328.5589,-192.7501 328.559,-196.2501"/>
</g>
<!-- SequentialNotInOrder_MinFLCBDFModelStep -->
<g id="node5" class="node">
<title>SequentialNotInOrder_MinFLCBDFModelStep</title>
<g id="a_node5"><a xlink:href="../api/proteus.SplitOperator.html#proteus.SplitOperator.SequentialNotInOrder_MinFLCBDFModelStep" xlink:title="loop through the models in some specified order" target="_top">
<polygon fill="none" stroke="#000000" stroke-width=".5" points="569.5,-167 337.5,-167 337.5,-148 569.5,-148 569.5,-167"/>
<text text-anchor="middle" x="453.5" y="-155" font-family="Vera Sans, DejaVu Sans, Liberation Sans, Arial, Helvetica, sans" font-size="10.00" fill="#000000">SequentialNotInOrder_MinFLCBDFModelStep</text>
</a>
</g>
</g>
<!-- Sequential_MinFLCBDFModelStep&#45;&gt;SequentialNotInOrder_MinFLCBDFModelStep -->
<g id="edge3" class="edge">
<title>Sequential_MinFLCBDFModelStep&#45;&gt;SequentialNotInOrder_MinFLCBDFModelStep</title>
<path fill="none" stroke="#000000" stroke-width=".5" d="M286.0253,-157.5C300.8625,-157.5 316.4654,-157.5 331.9339,-157.5"/>
<polygon fill="#000000" stroke="#000000" stroke-width=".5" points="332.1733,-159.2501 337.1733,-157.5 332.1732,-155.7501 332.1733,-159.2501"/>
</g>
<!-- System -->
<g id="node11" class="node">
<title>System</title>
<g id="a_node11"><a xlink:href="../api/proteus.SplitOperator.html#proteus.SplitOperator.System" xlink:title="System" target="_top">
<polygon fill="none" stroke="#000000" stroke-width=".5" points="56.5,-167 2.5,-167 2.5,-148 56.5,-148 56.5,-167"/>
<text text-anchor="middle" x="29.5" y="-155" font-family="Vera Sans, DejaVu Sans, Liberation Sans, Arial, Helvetica, sans" font-size="10.00" fill="#000000">System</text>
</a>
</g>
</g>
</g>
</svg>
