<?xml version="1.0" encoding="UTF-8" standalone="no"?>
<!DOCTYPE svg PUBLIC "-//W3C//DTD SVG 1.1//EN"
 "http://www.w3.org/Graphics/SVG/1.1/DTD/svg11.dtd">
<!-- Generated by graphviz version 2.42.3 (0)
 -->
<!-- Title: inheritancea2a0a950e2 Pages: 1 -->
<svg width="576pt" height="246pt"
 viewBox="0.00 0.00 576.00 246.01" xmlns="http://www.w3.org/2000/svg" xmlns:xlink="http://www.w3.org/1999/xlink">
<g id="graph0" class="graph" transform="scale(1.01 1.01) rotate(0) translate(4 245)">
<title>inheritancea2a0a950e2</title>
<polygon fill="white" stroke="transparent" points="-4,4 -4,-245 579,-245 579,4 -4,4"/>
<!-- ISO_fixed_MinAdaptiveModelStep -->
<g id="node1" class="node">
<title>ISO_fixed_MinAdaptiveModelStep</title>
<g id="a_node1"><a xlink:href="../api/proteus.SplitOperator.html#proteus.SplitOperator.ISO_fixed_MinAdaptiveModelStep" xlink:title="Look at the minimum model step and make that the system step as" target="_top">
<polygon fill="none" stroke="black" stroke-width="0.5" points="287,-241 107,-241 107,-222 287,-222 287,-241"/>
<text text-anchor="middle" x="197" y="-229" font-family="Vera Sans, DejaVu Sans, Liberation Sans, Arial, Helvetica, sans" font-size="10.00">ISO_fixed_MinAdaptiveModelStep</text>
</a>
</g>
</g>
<!-- SO_base -->
<g id="node2" class="node">
<title>SO_base</title>
<g id="a_node2"><a xlink:href="../api/proteus.SplitOperator.html#proteus.SplitOperator.SO_base" xlink:title="Base class for operating splitting methods for systems." target="_top">
<polygon fill="none" stroke="black" stroke-width="0.5" points="59,-130 0,-130 0,-111 59,-111 59,-130"/>
<text text-anchor="middle" x="29.5" y="-118" font-family="Vera Sans, DejaVu Sans, Liberation Sans, Arial, Helvetica, sans" font-size="10.00">SO_base</text>
</a>
</g>
</g>
<!-- SO_base&#45;&gt;ISO_fixed_MinAdaptiveModelStep -->
<g id="edge1" class="edge">
<title>SO_base&#45;&gt;ISO_fixed_MinAdaptiveModelStep</title>
<path fill="none" stroke="black" stroke-width="0.5" d="M47.95,-130.01C51.91,-132.72 55.87,-135.92 59,-139.5 83.06,-167.05 65.82,-191.45 95,-213.5 98.03,-215.79 101.25,-217.82 104.62,-219.62"/>
<polygon fill="black" stroke="black" stroke-width="0.5" points="104.04,-221.29 109.29,-221.94 105.59,-218.15 104.04,-221.29"/>
</g>
<!-- Sequential_MinAdaptiveModelStep -->
<g id="node4" class="node">
<title>Sequential_MinAdaptiveModelStep</title>
<g id="a_node4"><a xlink:href="../api/proteus.SplitOperator.html#proteus.SplitOperator.Sequential_MinAdaptiveModelStep" xlink:title="Look at the minimum model step and make that the system step as" target="_top">
<polygon fill="none" stroke="black" stroke-width="0.5" points="290.5,-204 103.5,-204 103.5,-185 290.5,-185 290.5,-204"/>
<text text-anchor="middle" x="197" y="-192" font-family="Vera Sans, DejaVu Sans, Liberation Sans, Arial, Helvetica, sans" font-size="10.00">Sequential_MinAdaptiveModelStep</text>
</a>
</g>
</g>
<!-- SO_base&#45;&gt;Sequential_MinAdaptiveModelStep -->
<g id="edge4" class="edge">
<title>SO_base&#45;&gt;Sequential_MinAdaptiveModelStep</title>
<path fill="none" stroke="black" stroke-width="0.5" d="M46.31,-130.18C50.56,-133.01 55.07,-136.23 59,-139.5 76.64,-154.17 74.73,-165.75 95,-176.5 99.94,-179.12 105.19,-181.37 110.59,-183.3"/>
<polygon fill="black" stroke="black" stroke-width="0.5" points="110.3,-185.04 115.59,-184.98 111.41,-181.73 110.3,-185.04"/>
</g>
<!-- Sequential_MinFLCBDFModelStep -->
<g id="node6" class="node">
<title>Sequential_MinFLCBDFModelStep</title>
<g id="a_node6"><a xlink:href="../api/proteus.SplitOperator.html#proteus.SplitOperator.Sequential_MinFLCBDFModelStep" xlink:title="Look at the minimum model step and make that the system step as" target="_top">
<polygon fill="none" stroke="black" stroke-width="0.5" points="288,-167 106,-167 106,-148 288,-148 288,-167"/>
<text text-anchor="middle" x="197" y="-155" font-family="Vera Sans, DejaVu Sans, Liberation Sans, Arial, Helvetica, sans" font-size="10.00">Sequential_MinFLCBDFModelStep</text>
</a>
</g>
</g>
<!-- SO_base&#45;&gt;Sequential_MinFLCBDFModelStep -->
<g id="edge6" class="edge">
<title>SO_base&#45;&gt;Sequential_MinFLCBDFModelStep</title>
<path fill="none" stroke="black" stroke-width="0.5" d="M59.22,-129.7C70.32,-133.06 83.18,-136.72 95,-139.5 106.6,-142.23 119.05,-144.77 131.09,-147.02"/>
<polygon fill="black" stroke="black" stroke-width="0.5" points="130.99,-148.78 136.23,-147.97 131.63,-145.34 130.99,-148.78"/>
</g>
<!-- Sequential_MinAdaptiveModelStep_SS -->
<g id="node7" class="node">
<title>Sequential_MinAdaptiveModelStep_SS</title>
<g id="a_node7"><a xlink:href="../api/proteus.SplitOperator.html#proteus.SplitOperator.Sequential_MinAdaptiveModelStep_SS" xlink:title="Look at the minimum model step and make that the system step as" target="_top">
<polygon fill="none" stroke="black" stroke-width="0.5" points="299,-130 95,-130 95,-111 299,-111 299,-130"/>
<text text-anchor="middle" x="197" y="-118" font-family="Vera Sans, DejaVu Sans, Liberation Sans, Arial, Helvetica, sans" font-size="10.00">Sequential_MinAdaptiveModelStep_SS</text>
</a>
</g>
</g>
<!-- SO_base&#45;&gt;Sequential_MinAdaptiveModelStep_SS -->
<g id="edge5" class="edge">
<title>SO_base&#45;&gt;Sequential_MinAdaptiveModelStep_SS</title>
<path fill="none" stroke="black" stroke-width="0.5" d="M59.33,-120.5C68.24,-120.5 78.64,-120.5 89.64,-120.5"/>
<polygon fill="black" stroke="black" stroke-width="0.5" points="89.73,-122.25 94.73,-120.5 89.73,-118.75 89.73,-122.25"/>
</g>
<!-- Sequential_MinModelStep -->
<g id="node8" class="node">
<title>Sequential_MinModelStep</title>
<g id="a_node8"><a xlink:href="../api/proteus.SplitOperator.html#proteus.SplitOperator.Sequential_MinModelStep" xlink:title="Look at the minimum model step and make that the system step as" target="_top">
<polygon fill="none" stroke="black" stroke-width="0.5" points="268.5,-93 125.5,-93 125.5,-74 268.5,-74 268.5,-93"/>
<text text-anchor="middle" x="197" y="-81" font-family="Vera Sans, DejaVu Sans, Liberation Sans, Arial, Helvetica, sans" font-size="10.00">Sequential_MinModelStep</text>
</a>
</g>
</g>
<!-- SO_base&#45;&gt;Sequential_MinModelStep -->
<g id="edge7" class="edge">
<title>SO_base&#45;&gt;Sequential_MinModelStep</title>
<path fill="none" stroke="black" stroke-width="0.5" d="M59.26,-111.9C70.37,-108.73 83.22,-105.25 95,-102.5 107.96,-99.48 121.95,-96.6 135.26,-94.05"/>
<polygon fill="black" stroke="black" stroke-width="0.5" points="135.93,-95.7 140.52,-93.05 135.28,-92.26 135.93,-95.7"/>
</g>
<!-- Sequential_NonUniformFixedStep -->
<g id="node9" class="node">
<title>Sequential_NonUniformFixedStep</title>
<g id="a_node9"><a xlink:href="../api/proteus.SplitOperator.html#proteus.SplitOperator.Sequential_NonUniformFixedStep" xlink:title="Just step to system output time levels, allowing models to" target="_top">
<polygon fill="none" stroke="black" stroke-width="0.5" points="287,-56 107,-56 107,-37 287,-37 287,-56"/>
<text text-anchor="middle" x="197" y="-44" font-family="Vera Sans, DejaVu Sans, Liberation Sans, Arial, Helvetica, sans" font-size="10.00">Sequential_NonUniformFixedStep</text>
</a>
</g>
</g>
<!-- SO_base&#45;&gt;Sequential_NonUniformFixedStep -->
<g id="edge8" class="edge">
<title>SO_base&#45;&gt;Sequential_NonUniformFixedStep</title>
<path fill="none" stroke="black" stroke-width="0.5" d="M39,-110.59C50.4,-97.98 71.9,-76.55 95,-65.5 101.6,-62.34 108.69,-59.71 115.92,-57.51"/>
<polygon fill="black" stroke="black" stroke-width="0.5" points="116.64,-59.13 120.95,-56.06 115.67,-55.76 116.64,-59.13"/>
</g>
<!-- Sequential_tnList -->
<g id="node10" class="node">
<title>Sequential_tnList</title>
<g id="a_node10"><a xlink:href="../api/proteus.SplitOperator.html#proteus.SplitOperator.Sequential_tnList" xlink:title="Sequential_tnList" target="_top">
<polygon fill="none" stroke="black" stroke-width="0.5" points="247.5,-19 146.5,-19 146.5,0 247.5,0 247.5,-19"/>
<text text-anchor="middle" x="197" y="-7" font-family="Vera Sans, DejaVu Sans, Liberation Sans, Arial, Helvetica, sans" font-size="10.00">Sequential_tnList</text>
</a>
</g>
</g>
<!-- SO_base&#45;&gt;Sequential_tnList -->
<g id="edge9" class="edge">
<title>SO_base&#45;&gt;Sequential_tnList</title>
<path fill="none" stroke="black" stroke-width="0.5" d="M34.3,-110.83C42.34,-91.7 63.03,-49.11 95,-28.5 108.61,-19.73 125.26,-14.79 141.09,-12.06"/>
<polygon fill="black" stroke="black" stroke-width="0.5" points="141.75,-13.73 146.42,-11.22 141.2,-10.27 141.75,-13.73"/>
</g>
<!-- SequentialNotInOrder_MinAdaptiveModelStep -->
<g id="node3" class="node">
<title>SequentialNotInOrder_MinAdaptiveModelStep</title>
<g id="a_node3"><a xlink:href="../api/proteus.SplitOperator.html#proteus.SplitOperator.SequentialNotInOrder_MinAdaptiveModelStep" xlink:title="loop through the models in some specified order" target="_top">
<polygon fill="none" stroke="black" stroke-width="0.5" points="575,-204 335,-204 335,-185 575,-185 575,-204"/>
<text text-anchor="middle" x="455" y="-192" font-family="Vera Sans, DejaVu Sans, Liberation Sans, Arial, Helvetica, sans" font-size="10.00">SequentialNotInOrder_MinAdaptiveModelStep</text>
</a>
</g>
</g>
<!-- Sequential_MinAdaptiveModelStep&#45;&gt;SequentialNotInOrder_MinAdaptiveModelStep -->
<g id="edge2" class="edge">
<title>Sequential_MinAdaptiveModelStep&#45;&gt;SequentialNotInOrder_MinAdaptiveModelStep</title>
<path fill="none" stroke="black" stroke-width="0.5" d="M290.78,-194.5C303.42,-194.5 316.54,-194.5 329.62,-194.5"/>
<polygon fill="black" stroke="black" stroke-width="0.5" points="329.83,-196.25 334.83,-194.5 329.83,-192.75 329.83,-196.25"/>
</g>
<!-- SequentialNotInOrder_MinFLCBDFModelStep -->
<g id="node5" class="node">
<title>SequentialNotInOrder_MinFLCBDFModelStep</title>
<g id="a_node5"><a xlink:href="../api/proteus.SplitOperator.html#proteus.SplitOperator.SequentialNotInOrder_MinFLCBDFModelStep" xlink:title="loop through the models in some specified order" target="_top">
<polygon fill="none" stroke="black" stroke-width="0.5" points="572.5,-167 337.5,-167 337.5,-148 572.5,-148 572.5,-167"/>
<text text-anchor="middle" x="455" y="-155" font-family="Vera Sans, DejaVu Sans, Liberation Sans, Arial, Helvetica, sans" font-size="10.00">SequentialNotInOrder_MinFLCBDFModelStep</text>
</a>
</g>
</g>
<!-- Sequential_MinFLCBDFModelStep&#45;&gt;SequentialNotInOrder_MinFLCBDFModelStep -->
<g id="edge3" class="edge">
<title>Sequential_MinFLCBDFModelStep&#45;&gt;SequentialNotInOrder_MinFLCBDFModelStep</title>
<path fill="none" stroke="black" stroke-width="0.5" d="M288.26,-157.5C302.48,-157.5 317.39,-157.5 332.19,-157.5"/>
<polygon fill="black" stroke="black" stroke-width="0.5" points="332.21,-159.25 337.21,-157.5 332.2,-155.75 332.21,-159.25"/>
</g>
<!-- System -->
<g id="node11" class="node">
<title>System</title>
<g id="a_node11"><a xlink:href="../api/proteus.SplitOperator.html#proteus.SplitOperator.System" xlink:title="System" target="_top">
<polygon fill="none" stroke="black" stroke-width="0.5" points="56.5,-167 2.5,-167 2.5,-148 56.5,-148 56.5,-167"/>
<text text-anchor="middle" x="29.5" y="-155" font-family="Vera Sans, DejaVu Sans, Liberation Sans, Arial, Helvetica, sans" font-size="10.00">System</text>
</a>
</g>
</g>
</g>
</svg>
