<?xml version="1.0" encoding="UTF-8" standalone="no"?>
<!DOCTYPE svg PUBLIC "-//W3C//DTD SVG 1.1//EN"
 "http://www.w3.org/Graphics/SVG/1.1/DTD/svg11.dtd">
<!-- Generated by graphviz version 2.38.0 (20140413.2041)
 -->
<!-- Title: inheritanced9289a834f Pages: 1 -->
<svg width="576pt" height="494pt"
 viewBox="0.00 0.00 576.00 493.71" xmlns="http://www.w3.org/2000/svg" xmlns:xlink="http://www.w3.org/1999/xlink">
<g id="graph0" class="graph" transform="scale(0.848306 0.848306) rotate(0) translate(4 578)">
<title>inheritanced9289a834f</title>
<polygon fill="white" stroke="none" points="-4,4 -4,-578 675,-578 675,4 -4,4"/>
<!-- Edge -->
<g id="node1" class="node"><title>Edge</title>
<g id="a_node1"><a xlink:href="../api/proteus.MeshTools.html#proteus.MeshTools.Edge" xlink:title="Edge" target="_top">
<polygon fill="none" stroke="black" stroke-width="0.5" points="270,-130 216,-130 216,-111 270,-111 270,-130"/>
<text text-anchor="middle" x="243" y="-118" font-family="Vera Sans, DejaVu Sans, Liberation Sans, Arial, Helvetica, sans" font-size="10.00">Edge</text>
</a>
</g>
</g>
<!-- Element -->
<g id="node2" class="node"><title>Element</title>
<g id="a_node2"><a xlink:href="../api/proteus.MeshTools.html#proteus.MeshTools.Element" xlink:title="An numbered polytope in R^n" target="_top">
<polygon fill="none" stroke="black" stroke-width="0.5" points="105.5,-93 49.5,-93 49.5,-74 105.5,-74 105.5,-93"/>
<text text-anchor="middle" x="77.5" y="-81" font-family="Vera Sans, DejaVu Sans, Liberation Sans, Arial, Helvetica, sans" font-size="10.00">Element</text>
</a>
</g>
</g>
<!-- Element&#45;&gt;Edge -->
<g id="edge1" class="edge"><title>Element&#45;&gt;Edge</title>
<path fill="none" stroke="black" stroke-width="0.5" d="M105.866,-89.693C134.827,-96.2467 180.451,-106.572 210.791,-113.437"/>
<polygon fill="black" stroke="black" stroke-width="0.5" points="210.634,-115.196 215.897,-114.593 211.407,-111.782 210.634,-115.196"/>
</g>
<!-- Polyhedron -->
<g id="node8" class="node"><title>Polyhedron</title>
<g id="a_node8"><a xlink:href="../api/proteus.MeshTools.html#proteus.MeshTools.Polyhedron" xlink:title="An abstract 3D Element&#45;&#45;a closed set of Polygons connecting a set" target="_top">
<polygon fill="none" stroke="black" stroke-width="0.5" points="278,-93 208,-93 208,-74 278,-74 278,-93"/>
<text text-anchor="middle" x="243" y="-81" font-family="Vera Sans, DejaVu Sans, Liberation Sans, Arial, Helvetica, sans" font-size="10.00">Polyhedron</text>
</a>
</g>
</g>
<!-- Element&#45;&gt;Polyhedron -->
<g id="edge21" class="edge"><title>Element&#45;&gt;Polyhedron</title>
<path fill="none" stroke="black" stroke-width="0.5" d="M105.866,-83.5C132.334,-83.5 172.722,-83.5 202.64,-83.5"/>
<polygon fill="black" stroke="black" stroke-width="0.5" points="202.722,-85.2501 207.722,-83.5 202.722,-81.7501 202.722,-85.2501"/>
</g>
<!-- Polygon -->
<g id="node26" class="node"><title>Polygon</title>
<g id="a_node26"><a xlink:href="../api/proteus.MeshTools.html#proteus.MeshTools.Polygon" xlink:title="An abstract 2D element&#45;&#45;a closed set of Edges connecting a set of Nodes." target="_top">
<polygon fill="none" stroke="black" stroke-width="0.5" points="270,-56 216,-56 216,-37 270,-37 270,-56"/>
<text text-anchor="middle" x="243" y="-44" font-family="Vera Sans, DejaVu Sans, Liberation Sans, Arial, Helvetica, sans" font-size="10.00">Polygon</text>
</a>
</g>
</g>
<!-- Element&#45;&gt;Polygon -->
<g id="edge20" class="edge"><title>Element&#45;&gt;Polygon</title>
<path fill="none" stroke="black" stroke-width="0.5" d="M105.866,-77.307C134.827,-70.7533 180.451,-60.4284 210.791,-53.5625"/>
<polygon fill="black" stroke="black" stroke-width="0.5" points="211.407,-55.2175 215.897,-52.407 210.634,-51.8039 211.407,-55.2175"/>
</g>
<!-- EdgeGrid -->
<g id="node3" class="node"><title>EdgeGrid</title>
<g id="a_node3"><a xlink:href="../api/proteus.MeshTools.html#proteus.MeshTools.EdgeGrid" xlink:title="A 1D regular grid on an interval" target="_top">
<polygon fill="none" stroke="black" stroke-width="0.5" points="273,-574 213,-574 213,-555 273,-555 273,-574"/>
<text text-anchor="middle" x="243" y="-562" font-family="Vera Sans, DejaVu Sans, Liberation Sans, Arial, Helvetica, sans" font-size="10.00">EdgeGrid</text>
</a>
</g>
</g>
<!-- Mesh -->
<g id="node4" class="node"><title>Mesh</title>
<g id="a_node4"><a xlink:href="../api/proteus.MeshTools.html#proteus.MeshTools.Mesh" xlink:title="A partition of a domain in R^n into elements." target="_top">
<polygon fill="none" stroke="black" stroke-width="0.5" points="104.5,-370 50.5,-370 50.5,-351 104.5,-351 104.5,-370"/>
<text text-anchor="middle" x="77.5" y="-358" font-family="Vera Sans, DejaVu Sans, Liberation Sans, Arial, Helvetica, sans" font-size="10.00">Mesh</text>
</a>
</g>
</g>
<!-- Mesh&#45;&gt;EdgeGrid -->
<g id="edge2" class="edge"><title>Mesh&#45;&gt;EdgeGrid</title>
<path fill="none" stroke="black" stroke-width="0.5" d="M104.63,-360.302C121.265,-361.61 142.046,-366.137 155,-379.5 207.847,-434.018 140.826,-489.513 191,-546.5 195.499,-551.61 201.542,-555.27 207.892,-557.89"/>
<polygon fill="black" stroke="black" stroke-width="0.5" points="207.491,-559.608 212.788,-559.699 208.704,-556.325 207.491,-559.608"/>
</g>
<!-- EdgeMesh -->
<g id="node5" class="node"><title>EdgeMesh</title>
<g id="a_node5"><a xlink:href="../api/proteus.MeshTools.html#proteus.MeshTools.EdgeMesh" xlink:title="A mesh of edges" target="_top">
<polygon fill="none" stroke="black" stroke-width="0.5" points="276,-537 210,-537 210,-518 276,-518 276,-537"/>
<text text-anchor="middle" x="243" y="-525" font-family="Vera Sans, DejaVu Sans, Liberation Sans, Arial, Helvetica, sans" font-size="10.00">EdgeMesh</text>
</a>
</g>
</g>
<!-- Mesh&#45;&gt;EdgeMesh -->
<g id="edge3" class="edge"><title>Mesh&#45;&gt;EdgeMesh</title>
<path fill="none" stroke="black" stroke-width="0.5" d="M104.744,-360.584C121.213,-362.033 141.763,-366.612 155,-379.5 197.955,-421.323 150.098,-465.667 191,-509.5 194.875,-513.652 199.765,-516.847 204.975,-519.305"/>
<polygon fill="black" stroke="black" stroke-width="0.5" points="204.544,-521.023 209.83,-521.362 205.909,-517.8 204.544,-521.023"/>
</g>
<!-- HexahedralMesh -->
<g id="node6" class="node"><title>HexahedralMesh</title>
<g id="a_node6"><a xlink:href="../api/proteus.MeshTools.html#proteus.MeshTools.HexahedralMesh" xlink:title="A mesh of hexahedra." target="_top">
<polygon fill="none" stroke="black" stroke-width="0.5" points="291.5,-500 194.5,-500 194.5,-481 291.5,-481 291.5,-500"/>
<text text-anchor="middle" x="243" y="-488" font-family="Vera Sans, DejaVu Sans, Liberation Sans, Arial, Helvetica, sans" font-size="10.00">HexahedralMesh</text>
</a>
</g>
</g>
<!-- Mesh&#45;&gt;HexahedralMesh -->
<g id="edge4" class="edge"><title>Mesh&#45;&gt;HexahedralMesh</title>
<path fill="none" stroke="black" stroke-width="0.5" d="M104.69,-361.071C120.928,-362.737 141.243,-367.375 155,-379.5 188.25,-408.807 159.192,-441.634 191,-472.5 193.299,-474.731 195.892,-476.688 198.659,-478.403"/>
<polygon fill="black" stroke="black" stroke-width="0.5" points="197.915,-479.992 203.133,-480.904 199.623,-476.936 197.915,-479.992"/>
</g>
<!-- Mesh2DM -->
<g id="node11" class="node"><title>Mesh2DM</title>
<g id="a_node11"><a xlink:href="../api/proteus.MeshTools.html#proteus.MeshTools.Mesh2DM" xlink:title="A triangular mesh based on an ADH 3dm file" target="_top">
<polygon fill="none" stroke="black" stroke-width="0.5" points="275,-463 211,-463 211,-444 275,-444 275,-463"/>
<text text-anchor="middle" x="243" y="-451" font-family="Vera Sans, DejaVu Sans, Liberation Sans, Arial, Helvetica, sans" font-size="10.00">Mesh2DM</text>
</a>
</g>
</g>
<!-- Mesh&#45;&gt;Mesh2DM -->
<g id="edge7" class="edge"><title>Mesh&#45;&gt;Mesh2DM</title>
<path fill="none" stroke="black" stroke-width="0.5" d="M104.62,-362.152C120.433,-364.26 140.313,-368.983 155,-379.5 179.056,-396.727 167.797,-417.141 191,-435.5 195.454,-439.024 200.65,-441.887 205.989,-444.206"/>
<polygon fill="black" stroke="black" stroke-width="0.5" points="205.623,-445.945 210.915,-446.185 206.928,-442.697 205.623,-445.945"/>
</g>
<!-- Mesh3DM -->
<g id="node12" class="node"><title>Mesh3DM</title>
<g id="a_node12"><a xlink:href="../api/proteus.MeshTools.html#proteus.MeshTools.Mesh3DM" xlink:title="A Mesh for reading in tetrahedral meshes in the .3dm format" target="_top">
<polygon fill="none" stroke="black" stroke-width="0.5" points="275,-426 211,-426 211,-407 275,-407 275,-426"/>
<text text-anchor="middle" x="243" y="-414" font-family="Vera Sans, DejaVu Sans, Liberation Sans, Arial, Helvetica, sans" font-size="10.00">Mesh3DM</text>
</a>
</g>
</g>
<!-- Mesh&#45;&gt;Mesh3DM -->
<g id="edge8" class="edge"><title>Mesh&#45;&gt;Mesh3DM</title>
<path fill="none" stroke="black" stroke-width="0.5" d="M104.829,-365.391C119.808,-368.579 138.762,-373.304 155,-379.5 171.903,-385.95 174.426,-391.248 191,-398.5 196.376,-400.852 202.167,-403.129 207.85,-405.227"/>
<polygon fill="black" stroke="black" stroke-width="0.5" points="207.289,-406.885 212.587,-406.944 208.483,-403.595 207.289,-406.885"/>
</g>
<!-- MultilevelMesh -->
<g id="node16" class="node"><title>MultilevelMesh</title>
<g id="a_node16"><a xlink:href="../api/proteus.MeshTools.html#proteus.MeshTools.MultilevelMesh" xlink:title="A hierchical multilevel mesh" target="_top">
<polygon fill="none" stroke="black" stroke-width="0.5" points="286,-389 200,-389 200,-370 286,-370 286,-389"/>
<text text-anchor="middle" x="243" y="-377" font-family="Vera Sans, DejaVu Sans, Liberation Sans, Arial, Helvetica, sans" font-size="10.00">MultilevelMesh</text>
</a>
</g>
</g>
<!-- Mesh&#45;&gt;MultilevelMesh -->
<g id="edge11" class="edge"><title>Mesh&#45;&gt;MultilevelMesh</title>
<path fill="none" stroke="black" stroke-width="0.5" d="M104.769,-363.553C129.003,-366.369 165.554,-370.616 194.842,-374.02"/>
<polygon fill="black" stroke="black" stroke-width="0.5" points="194.68,-375.763 199.848,-374.602 195.084,-372.286 194.68,-375.763"/>
</g>
<!-- PointMesh -->
<g id="node25" class="node"><title>PointMesh</title>
<g id="a_node25"><a xlink:href="../api/proteus.MeshTools.html#proteus.MeshTools.PointMesh" xlink:title="0D mesh" target="_top">
<polygon fill="none" stroke="black" stroke-width="0.5" points="276,-352 210,-352 210,-333 276,-333 276,-352"/>
<text text-anchor="middle" x="243" y="-340" font-family="Vera Sans, DejaVu Sans, Liberation Sans, Arial, Helvetica, sans" font-size="10.00">PointMesh</text>
</a>
</g>
</g>
<!-- Mesh&#45;&gt;PointMesh -->
<g id="edge19" class="edge"><title>Mesh&#45;&gt;PointMesh</title>
<path fill="none" stroke="black" stroke-width="0.5" d="M104.769,-357.608C131.819,-354.63 174.215,-349.963 204.726,-346.604"/>
<polygon fill="black" stroke="black" stroke-width="0.5" points="205.119,-348.321 209.897,-346.034 204.736,-344.842 205.119,-348.321"/>
</g>
<!-- QuadrilateralGrid -->
<g id="node28" class="node"><title>QuadrilateralGrid</title>
<g id="a_node28"><a xlink:href="../api/proteus.MeshTools.html#proteus.MeshTools.QuadrilateralGrid" xlink:title="A 2D regular grid of quadrilateral cells" target="_top">
<polygon fill="none" stroke="black" stroke-width="0.5" points="292,-315 194,-315 194,-296 292,-296 292,-315"/>
<text text-anchor="middle" x="243" y="-303" font-family="Vera Sans, DejaVu Sans, Liberation Sans, Arial, Helvetica, sans" font-size="10.00">QuadrilateralGrid</text>
</a>
</g>
</g>
<!-- Mesh&#45;&gt;QuadrilateralGrid -->
<g id="edge23" class="edge"><title>Mesh&#45;&gt;QuadrilateralGrid</title>
<path fill="none" stroke="black" stroke-width="0.5" d="M104.769,-351.663C133.045,-342.151 178.088,-326.999 208.798,-316.669"/>
<polygon fill="black" stroke="black" stroke-width="0.5" points="209.418,-318.307 213.599,-315.054 208.302,-314.989 209.418,-318.307"/>
</g>
<!-- QuadrilateralMesh -->
<g id="node29" class="node"><title>QuadrilateralMesh</title>
<g id="a_node29"><a xlink:href="../api/proteus.MeshTools.html#proteus.MeshTools.QuadrilateralMesh" xlink:title="A mesh of quads" target="_top">
<polygon fill="none" stroke="black" stroke-width="0.5" points="295,-278 191,-278 191,-259 295,-259 295,-278"/>
<text text-anchor="middle" x="243" y="-266" font-family="Vera Sans, DejaVu Sans, Liberation Sans, Arial, Helvetica, sans" font-size="10.00">QuadrilateralMesh</text>
</a>
</g>
</g>
<!-- Mesh&#45;&gt;QuadrilateralMesh -->
<g id="edge24" class="edge"><title>Mesh&#45;&gt;QuadrilateralMesh</title>
<path fill="none" stroke="black" stroke-width="0.5" d="M91.1094,-350.994C111.355,-336.042 152.73,-306.753 191,-287.5 196.407,-284.78 202.302,-282.231 208.102,-279.938"/>
<polygon fill="black" stroke="black" stroke-width="0.5" points="208.902,-281.506 212.938,-278.075 207.643,-278.24 208.902,-281.506"/>
</g>
<!-- RectangularGrid -->
<g id="node30" class="node"><title>RectangularGrid</title>
<g id="a_node30"><a xlink:href="../api/proteus.MeshTools.html#proteus.MeshTools.RectangularGrid" xlink:title="A regular partition into rectangles." target="_top">
<polygon fill="none" stroke="black" stroke-width="0.5" points="289,-241 197,-241 197,-222 289,-222 289,-241"/>
<text text-anchor="middle" x="243" y="-229" font-family="Vera Sans, DejaVu Sans, Liberation Sans, Arial, Helvetica, sans" font-size="10.00">RectangularGrid</text>
</a>
</g>
</g>
<!-- Mesh&#45;&gt;RectangularGrid -->
<g id="edge25" class="edge"><title>Mesh&#45;&gt;RectangularGrid</title>
<path fill="none" stroke="black" stroke-width="0.5" d="M85.9216,-350.9C102.581,-329.938 145.1,-279.623 191,-250.5 195.368,-247.729 200.2,-245.273 205.099,-243.126"/>
<polygon fill="black" stroke="black" stroke-width="0.5" points="206.063,-244.62 210.004,-241.081 204.716,-241.39 206.063,-244.62"/>
</g>
<!-- TetrahedralMesh -->
<g id="node31" class="node"><title>TetrahedralMesh</title>
<g id="a_node31"><a xlink:href="../api/proteus.MeshTools.html#proteus.MeshTools.TetrahedralMesh" xlink:title="A mesh of tetrahedra." target="_top">
<polygon fill="none" stroke="black" stroke-width="0.5" points="290.5,-204 195.5,-204 195.5,-185 290.5,-185 290.5,-204"/>
<text text-anchor="middle" x="243" y="-192" font-family="Vera Sans, DejaVu Sans, Liberation Sans, Arial, Helvetica, sans" font-size="10.00">TetrahedralMesh</text>
</a>
</g>
</g>
<!-- Mesh&#45;&gt;TetrahedralMesh -->
<g id="edge26" class="edge"><title>Mesh&#45;&gt;TetrahedralMesh</title>
<path fill="none" stroke="black" stroke-width="0.5" d="M83.4098,-350.754C96.9746,-324.761 137.527,-253.072 191,-213.5 194.793,-210.693 199.047,-208.258 203.437,-206.157"/>
<polygon fill="black" stroke="black" stroke-width="0.5" points="204.391,-207.647 208.24,-204.007 202.961,-204.453 204.391,-207.647"/>
</g>
<!-- TriangularMesh -->
<g id="node34" class="node"><title>TriangularMesh</title>
<g id="a_node34"><a xlink:href="../api/proteus.MeshTools.html#proteus.MeshTools.TriangularMesh" xlink:title="A mesh of triangles" target="_top">
<polygon fill="none" stroke="black" stroke-width="0.5" points="287,-167 199,-167 199,-148 287,-148 287,-167"/>
<text text-anchor="middle" x="243" y="-155" font-family="Vera Sans, DejaVu Sans, Liberation Sans, Arial, Helvetica, sans" font-size="10.00">TriangularMesh</text>
</a>
</g>
</g>
<!-- Mesh&#45;&gt;TriangularMesh -->
<g id="edge29" class="edge"><title>Mesh&#45;&gt;TriangularMesh</title>
<path fill="none" stroke="black" stroke-width="0.5" d="M81.7468,-350.963C92.4445,-320.919 129.457,-227.223 191,-176.5 194.354,-173.736 198.149,-171.351 202.119,-169.3"/>
<polygon fill="black" stroke="black" stroke-width="0.5" points="203.087,-170.776 206.843,-167.041 201.578,-167.619 203.087,-170.776"/>
</g>
<!-- NURBSMesh -->
<g id="node23" class="node"><title>NURBSMesh</title>
<g id="a_node23"><a xlink:href="../api/proteus.MeshTools.html#proteus.MeshTools.NURBSMesh" xlink:title="A mesh consisting of NURBS." target="_top">
<polygon fill="none" stroke="black" stroke-width="0.5" points="443.5,-537 366.5,-537 366.5,-518 443.5,-518 443.5,-537"/>
<text text-anchor="middle" x="405" y="-525" font-family="Vera Sans, DejaVu Sans, Liberation Sans, Arial, Helvetica, sans" font-size="10.00">NURBSMesh</text>
</a>
</g>
</g>
<!-- HexahedralMesh&#45;&gt;NURBSMesh -->
<g id="edge18" class="edge"><title>HexahedralMesh&#45;&gt;NURBSMesh</title>
<path fill="none" stroke="black" stroke-width="0.5" d="M285.204,-500.028C308.63,-505.446 337.912,-512.217 361.542,-517.682"/>
<polygon fill="black" stroke="black" stroke-width="0.5" points="361.229,-519.405 366.495,-518.827 362.018,-515.995 361.229,-519.405"/>
</g>
<!-- Hexahedron -->
<g id="node7" class="node"><title>Hexahedron</title>
<g id="a_node7"><a xlink:href="../api/proteus.MeshTools.html#proteus.MeshTools.Hexahedron" xlink:title="A 3D hexahedral element" target="_top">
<polygon fill="none" stroke="black" stroke-width="0.5" points="442.5,-130 367.5,-130 367.5,-111 442.5,-111 442.5,-130"/>
<text text-anchor="middle" x="405" y="-118" font-family="Vera Sans, DejaVu Sans, Liberation Sans, Arial, Helvetica, sans" font-size="10.00">Hexahedron</text>
</a>
</g>
</g>
<!-- Polyhedron&#45;&gt;Hexahedron -->
<g id="edge5" class="edge"><title>Polyhedron&#45;&gt;Hexahedron</title>
<path fill="none" stroke="black" stroke-width="0.5" d="M278.324,-91.4374C302.858,-97.1109 336.011,-104.778 362.106,-110.812"/>
<polygon fill="black" stroke="black" stroke-width="0.5" points="361.96,-112.574 367.226,-111.996 362.749,-109.164 361.96,-112.574"/>
</g>
<!-- Tetrahedron -->
<g id="node32" class="node"><title>Tetrahedron</title>
<g id="a_node32"><a xlink:href="../api/proteus.MeshTools.html#proteus.MeshTools.Tetrahedron" xlink:title="A 3D tetrahedral element" target="_top">
<polygon fill="none" stroke="black" stroke-width="0.5" points="442,-93 368,-93 368,-74 442,-74 442,-93"/>
<text text-anchor="middle" x="405" y="-81" font-family="Vera Sans, DejaVu Sans, Liberation Sans, Arial, Helvetica, sans" font-size="10.00">Tetrahedron</text>
</a>
</g>
</g>
<!-- Polyhedron&#45;&gt;Tetrahedron -->
<g id="edge27" class="edge"><title>Polyhedron&#45;&gt;Tetrahedron</title>
<path fill="none" stroke="black" stroke-width="0.5" d="M278.324,-83.5C303.03,-83.5 336.477,-83.5 362.654,-83.5"/>
<polygon fill="black" stroke="black" stroke-width="0.5" points="362.788,-85.2501 367.788,-83.5 362.788,-81.7501 362.788,-85.2501"/>
</g>
<!-- InterpolatedBathymetryMesh -->
<g id="node9" class="node"><title>InterpolatedBathymetryMesh</title>
<g id="a_node9"><a xlink:href="../api/proteus.MeshTools.html#proteus.MeshTools.InterpolatedBathymetryMesh" xlink:title="A triangular mesh that interpolates bathymetry from a point cloud" target="_top">
<polygon fill="none" stroke="black" stroke-width="0.5" points="671,-500 515,-500 515,-481 671,-481 671,-500"/>
<text text-anchor="middle" x="593" y="-488" font-family="Vera Sans, DejaVu Sans, Liberation Sans, Arial, Helvetica, sans" font-size="10.00">InterpolatedBathymetryMesh</text>
</a>
</g>
</g>
<!-- MultilevelTriangularMesh -->
<g id="node10" class="node"><title>MultilevelTriangularMesh</title>
<g id="a_node10"><a xlink:href="../api/proteus.MeshTools.html#proteus.MeshTools.MultilevelTriangularMesh" xlink:title="A hierarchical &#160;multilevel mesh of triangular cells" target="_top">
<polygon fill="none" stroke="black" stroke-width="0.5" points="471,-500 339,-500 339,-481 471,-481 471,-500"/>
<text text-anchor="middle" x="405" y="-488" font-family="Vera Sans, DejaVu Sans, Liberation Sans, Arial, Helvetica, sans" font-size="10.00">MultilevelTriangularMesh</text>
</a>
</g>
</g>
<!-- MultilevelTriangularMesh&#45;&gt;InterpolatedBathymetryMesh -->
<g id="edge6" class="edge"><title>MultilevelTriangularMesh&#45;&gt;InterpolatedBathymetryMesh</title>
<path fill="none" stroke="black" stroke-width="0.5" d="M471.054,-490.5C483.539,-490.5 496.765,-490.5 509.711,-490.5"/>
<polygon fill="black" stroke="black" stroke-width="0.5" points="509.849,-492.25 514.849,-490.5 509.849,-488.75 509.849,-492.25"/>
</g>
<!-- MeshOptions -->
<g id="node13" class="node"><title>MeshOptions</title>
<g id="a_node13"><a xlink:href="../api/proteus.MeshTools.html#proteus.MeshTools.MeshOptions" xlink:title="Mesh options for the domain" target="_top">
<polygon fill="none" stroke="black" stroke-width="0.5" points="117,-407 38,-407 38,-388 117,-388 117,-407"/>
<text text-anchor="middle" x="77.5" y="-395" font-family="Vera Sans, DejaVu Sans, Liberation Sans, Arial, Helvetica, sans" font-size="10.00">MeshOptions</text>
</a>
</g>
</g>
<!-- MeshParallelPartitioningTypes -->
<g id="node14" class="node"><title>MeshParallelPartitioningTypes</title>
<g id="a_node14"><a xlink:href="../api/proteus.MeshTools.html#proteus.MeshTools.MeshParallelPartitioningTypes" xlink:title="fake an enum for parallel partitioning options" target="_top">
<polygon fill="none" stroke="black" stroke-width="0.5" points="155,-444 0,-444 0,-425 155,-425 155,-444"/>
<text text-anchor="middle" x="77.5" y="-432" font-family="Vera Sans, DejaVu Sans, Liberation Sans, Arial, Helvetica, sans" font-size="10.00">MeshParallelPartitioningTypes</text>
</a>
</g>
</g>
<!-- MultilevelEdgeMesh -->
<g id="node15" class="node"><title>MultilevelEdgeMesh</title>
<g id="a_node15"><a xlink:href="../api/proteus.MeshTools.html#proteus.MeshTools.MultilevelEdgeMesh" xlink:title="A hierarchical multilevel mesh of intervals (edges)" target="_top">
<polygon fill="none" stroke="black" stroke-width="0.5" points="460,-463 350,-463 350,-444 460,-444 460,-463"/>
<text text-anchor="middle" x="405" y="-451" font-family="Vera Sans, DejaVu Sans, Liberation Sans, Arial, Helvetica, sans" font-size="10.00">MultilevelEdgeMesh</text>
</a>
</g>
</g>
<!-- MultilevelMesh&#45;&gt;MultilevelTriangularMesh -->
<g id="edge17" class="edge"><title>MultilevelMesh&#45;&gt;MultilevelTriangularMesh</title>
<path fill="none" stroke="black" stroke-width="0.5" d="M280.266,-389.033C285.604,-391.518 290.733,-394.625 295,-398.5 322.075,-423.089 302.558,-449.506 331,-472.5 333.861,-474.813 336.977,-476.835 340.258,-478.602"/>
<polygon fill="black" stroke="black" stroke-width="0.5" points="339.566,-480.212 344.824,-480.857 341.116,-477.074 339.566,-480.212"/>
</g>
<!-- MultilevelMesh&#45;&gt;MultilevelEdgeMesh -->
<g id="edge9" class="edge"><title>MultilevelMesh&#45;&gt;MultilevelEdgeMesh</title>
<path fill="none" stroke="black" stroke-width="0.5" d="M276.335,-389.077C282.774,-391.655 289.302,-394.784 295,-398.5 314.219,-411.033 311.094,-424.091 331,-435.5 335.595,-438.134 340.568,-440.385 345.683,-442.308"/>
<polygon fill="black" stroke="black" stroke-width="0.5" points="345.116,-443.964 350.414,-443.984 346.285,-440.665 345.116,-443.964"/>
</g>
<!-- MultilevelHexahedralMesh -->
<g id="node17" class="node"><title>MultilevelHexahedralMesh</title>
<g id="a_node17"><a xlink:href="../api/proteus.MeshTools.html#proteus.MeshTools.MultilevelHexahedralMesh" xlink:title="A hierarchical multilevel mesh with hexahedral cells" target="_top">
<polygon fill="none" stroke="black" stroke-width="0.5" points="475.5,-426 334.5,-426 334.5,-407 475.5,-407 475.5,-426"/>
<text text-anchor="middle" x="405" y="-414" font-family="Vera Sans, DejaVu Sans, Liberation Sans, Arial, Helvetica, sans" font-size="10.00">MultilevelHexahedralMesh</text>
</a>
</g>
</g>
<!-- MultilevelMesh&#45;&gt;MultilevelHexahedralMesh -->
<g id="edge10" class="edge"><title>MultilevelMesh&#45;&gt;MultilevelHexahedralMesh</title>
<path fill="none" stroke="black" stroke-width="0.5" d="M285.204,-389.028C307.327,-394.144 334.672,-400.468 357.548,-405.758"/>
<polygon fill="black" stroke="black" stroke-width="0.5" points="357.392,-407.518 362.658,-406.94 358.181,-404.108 357.392,-407.518"/>
</g>
<!-- MultilevelNURBSMesh -->
<g id="node18" class="node"><title>MultilevelNURBSMesh</title>
<g id="a_node18"><a xlink:href="../api/proteus.MeshTools.html#proteus.MeshTools.MultilevelNURBSMesh" xlink:title="MultilevelNURBSMesh" target="_top">
<polygon fill="none" stroke="black" stroke-width="0.5" points="465.5,-389 344.5,-389 344.5,-370 465.5,-370 465.5,-389"/>
<text text-anchor="middle" x="405" y="-377" font-family="Vera Sans, DejaVu Sans, Liberation Sans, Arial, Helvetica, sans" font-size="10.00">MultilevelNURBSMesh</text>
</a>
</g>
</g>
<!-- MultilevelMesh&#45;&gt;MultilevelNURBSMesh -->
<g id="edge12" class="edge"><title>MultilevelMesh&#45;&gt;MultilevelNURBSMesh</title>
<path fill="none" stroke="black" stroke-width="0.5" d="M286.038,-379.5C302.372,-379.5 321.454,-379.5 339.452,-379.5"/>
<polygon fill="black" stroke="black" stroke-width="0.5" points="339.497,-381.25 344.497,-379.5 339.496,-377.75 339.497,-381.25"/>
</g>
<!-- MultilevelQuadrilateralMesh -->
<g id="node19" class="node"><title>MultilevelQuadrilateralMesh</title>
<g id="a_node19"><a xlink:href="../api/proteus.MeshTools.html#proteus.MeshTools.MultilevelQuadrilateralMesh" xlink:title="A heirarchical multilevel mesh of quadrilaterals" target="_top">
<polygon fill="none" stroke="black" stroke-width="0.5" points="479,-352 331,-352 331,-333 479,-333 479,-352"/>
<text text-anchor="middle" x="405" y="-340" font-family="Vera Sans, DejaVu Sans, Liberation Sans, Arial, Helvetica, sans" font-size="10.00">MultilevelQuadrilateralMesh</text>
</a>
</g>
</g>
<!-- MultilevelMesh&#45;&gt;MultilevelQuadrilateralMesh -->
<g id="edge13" class="edge"><title>MultilevelMesh&#45;&gt;MultilevelQuadrilateralMesh</title>
<path fill="none" stroke="black" stroke-width="0.5" d="M285.204,-369.972C307.327,-364.856 334.672,-358.532 357.548,-353.242"/>
<polygon fill="black" stroke="black" stroke-width="0.5" points="358.181,-354.892 362.658,-352.06 357.392,-351.482 358.181,-354.892"/>
</g>
<!-- MultilevelRectangularGrid -->
<g id="node20" class="node"><title>MultilevelRectangularGrid</title>
<g id="a_node20"><a xlink:href="../api/proteus.MeshTools.html#proteus.MeshTools.MultilevelRectangularGrid" xlink:title="A hierarchical multilevel grid" target="_top">
<polygon fill="none" stroke="black" stroke-width="0.5" points="473.5,-315 336.5,-315 336.5,-296 473.5,-296 473.5,-315"/>
<text text-anchor="middle" x="405" y="-303" font-family="Vera Sans, DejaVu Sans, Liberation Sans, Arial, Helvetica, sans" font-size="10.00">MultilevelRectangularGrid</text>
</a>
</g>
</g>
<!-- MultilevelMesh&#45;&gt;MultilevelRectangularGrid -->
<g id="edge14" class="edge"><title>MultilevelMesh&#45;&gt;MultilevelRectangularGrid</title>
<path fill="none" stroke="black" stroke-width="0.5" d="M277.952,-369.992C283.862,-367.654 289.78,-364.84 295,-361.5 314.326,-349.134 311.168,-336.037 331,-324.5 336.218,-321.465 341.923,-318.907 347.772,-316.752"/>
<polygon fill="black" stroke="black" stroke-width="0.5" points="348.562,-318.33 352.71,-315.036 347.413,-315.024 348.562,-318.33"/>
</g>
<!-- MultilevelSimplicialMesh -->
<g id="node21" class="node"><title>MultilevelSimplicialMesh</title>
<g id="a_node21"><a xlink:href="../api/proteus.MeshTools.html#proteus.MeshTools.MultilevelSimplicialMesh" xlink:title="A wrapper for all the simplicial hierarchical meshes in 1,2, and 3D" target="_top">
<polygon fill="none" stroke="black" stroke-width="0.5" points="470.5,-278 339.5,-278 339.5,-259 470.5,-259 470.5,-278"/>
<text text-anchor="middle" x="405" y="-266" font-family="Vera Sans, DejaVu Sans, Liberation Sans, Arial, Helvetica, sans" font-size="10.00">MultilevelSimplicialMesh</text>
</a>
</g>
</g>
<!-- MultilevelMesh&#45;&gt;MultilevelSimplicialMesh -->
<g id="edge15" class="edge"><title>MultilevelMesh&#45;&gt;MultilevelSimplicialMesh</title>
<path fill="none" stroke="black" stroke-width="0.5" d="M281.824,-369.995C286.596,-367.731 291.147,-364.939 295,-361.5 322.287,-337.146 302.707,-310.677 331,-287.5 334.422,-284.697 338.213,-282.302 342.214,-280.258"/>
<polygon fill="black" stroke="black" stroke-width="0.5" points="343.214,-281.721 346.999,-278.015 341.729,-278.552 343.214,-281.721"/>
</g>
<!-- MultilevelTetrahedralMesh -->
<g id="node22" class="node"><title>MultilevelTetrahedralMesh</title>
<g id="a_node22"><a xlink:href="../api/proteus.MeshTools.html#proteus.MeshTools.MultilevelTetrahedralMesh" xlink:title="A hierarchical multilevel mesh with tetrahedral cells" target="_top">
<polygon fill="none" stroke="black" stroke-width="0.5" points="475,-241 335,-241 335,-222 475,-222 475,-241"/>
<text text-anchor="middle" x="405" y="-229" font-family="Vera Sans, DejaVu Sans, Liberation Sans, Arial, Helvetica, sans" font-size="10.00">MultilevelTetrahedralMesh</text>
</a>
</g>
</g>
<!-- MultilevelMesh&#45;&gt;MultilevelTetrahedralMesh -->
<g id="edge16" class="edge"><title>MultilevelMesh&#45;&gt;MultilevelTetrahedralMesh</title>
<path fill="none" stroke="black" stroke-width="0.5" d="M283.304,-369.956C287.623,-367.707 291.658,-364.929 295,-361.5 331.199,-324.36 293.262,-286.075 331,-250.5 333.817,-247.844 336.957,-245.549 340.308,-243.565"/>
<polygon fill="black" stroke="black" stroke-width="0.5" points="341.418,-244.956 344.997,-241.05 339.763,-241.871 341.418,-244.956"/>
</g>
<!-- Node -->
<g id="node24" class="node"><title>Node</title>
<g id="a_node24"><a xlink:href="../api/proteus.MeshTools.html#proteus.MeshTools.Node" xlink:title="A numbered point in 3D Euclidean space" target="_top">
<polygon fill="none" stroke="black" stroke-width="0.5" points="104.5,-481 50.5,-481 50.5,-462 104.5,-462 104.5,-481"/>
<text text-anchor="middle" x="77.5" y="-469" font-family="Vera Sans, DejaVu Sans, Liberation Sans, Arial, Helvetica, sans" font-size="10.00">Node</text>
</a>
</g>
</g>
<!-- Quadrilateral -->
<g id="node27" class="node"><title>Quadrilateral</title>
<g id="a_node27"><a xlink:href="../api/proteus.MeshTools.html#proteus.MeshTools.Quadrilateral" xlink:title="A 2D quadrilateral element" target="_top">
<polygon fill="none" stroke="black" stroke-width="0.5" points="444,-56 366,-56 366,-37 444,-37 444,-56"/>
<text text-anchor="middle" x="405" y="-44" font-family="Vera Sans, DejaVu Sans, Liberation Sans, Arial, Helvetica, sans" font-size="10.00">Quadrilateral</text>
</a>
</g>
</g>
<!-- Polygon&#45;&gt;Quadrilateral -->
<g id="edge22" class="edge"><title>Polygon&#45;&gt;Quadrilateral</title>
<path fill="none" stroke="black" stroke-width="0.5" d="M270.063,-46.5C294.571,-46.5 331.722,-46.5 360.684,-46.5"/>
<polygon fill="black" stroke="black" stroke-width="0.5" points="360.992,-48.2501 365.992,-46.5 360.992,-44.7501 360.992,-48.2501"/>
</g>
<!-- Triangle -->
<g id="node33" class="node"><title>Triangle</title>
<g id="a_node33"><a xlink:href="../api/proteus.MeshTools.html#proteus.MeshTools.Triangle" xlink:title="A 2D triangular element" target="_top">
<polygon fill="none" stroke="black" stroke-width="0.5" points="432,-19 378,-19 378,-0 432,-0 432,-19"/>
<text text-anchor="middle" x="405" y="-7" font-family="Vera Sans, DejaVu Sans, Liberation Sans, Arial, Helvetica, sans" font-size="10.00">Triangle</text>
</a>
</g>
</g>
<!-- Polygon&#45;&gt;Triangle -->
<g id="edge28" class="edge"><title>Polygon&#45;&gt;Triangle</title>
<path fill="none" stroke="black" stroke-width="0.5" d="M270.063,-40.473C298.189,-33.9689 342.964,-23.6147 372.907,-16.6903"/>
<polygon fill="black" stroke="black" stroke-width="0.5" points="373.471,-18.3561 377.948,-15.5245 372.683,-14.946 373.471,-18.3561"/>
</g>
</g>
</svg>
