<?xml version="1.0" encoding="UTF-8" standalone="no"?>
<!DOCTYPE svg PUBLIC "-//W3C//DTD SVG 1.1//EN"
 "http://www.w3.org/Graphics/SVG/1.1/DTD/svg11.dtd">
<!-- Generated by graphviz version 2.42.3 (0)
 -->
<!-- Title: inheritancefc727d2e48 Pages: 1 -->
<svg width="261pt" height="101pt"
 viewBox="0.00 0.00 261.00 101.00" xmlns="http://www.w3.org/2000/svg" xmlns:xlink="http://www.w3.org/1999/xlink">
<g id="graph0" class="graph" transform="scale(1 1) rotate(0) translate(4 97)">
<title>inheritancefc727d2e48</title>
<polygon fill="white" stroke="transparent" points="-4,4 -4,-97 257,-97 257,4 -4,4"/>
<!-- MultilevelTransport -->
<g id="node1" class="node">
<title>MultilevelTransport</title>
<g id="a_node1"><a xlink:href="../api/proteus.Transport.html#proteus.Transport.MultilevelTransport" xlink:title="Nonlinear ADR on a multilevel mesh" target="_top">
<polygon fill="none" stroke="black" stroke-width="0.5" points="110,-19 0,-19 0,0 110,0 110,-19"/>
<text text-anchor="middle" x="55" y="-7" font-family="Vera Sans, DejaVu Sans, Liberation Sans, Arial, Helvetica, sans" font-size="10.00">MultilevelTransport</text>
</a>
</g>
</g>
<!-- NonlinearEquation -->
<g id="node2" class="node">
<title>NonlinearEquation</title>
<g id="a_node2"><a xlink:href="../proteus.NonlinearSolvers.html#proteus.NonlinearSolvers.NonlinearEquation" xlink:title="The base class for nonlinear equations." target="_top">
<polygon fill="none" stroke="black" stroke-width="0.5" points="108.5,-56 1.5,-56 1.5,-37 108.5,-37 108.5,-56"/>
<text text-anchor="middle" x="55" y="-44" font-family="Vera Sans, DejaVu Sans, Liberation Sans, Arial, Helvetica, sans" font-size="10.00">NonlinearEquation</text>
</a>
</g>
</g>
<!-- OneLevelTransport -->
<g id="node3" class="node">
<title>OneLevelTransport</title>
<g id="a_node3"><a xlink:href="../api/proteus.Transport.html#proteus.Transport.OneLevelTransport" xlink:title="A class for finite element discretizations of multicomponent" target="_top">
<polygon fill="none" stroke="black" stroke-width="0.5" points="253,-56 146,-56 146,-37 253,-37 253,-56"/>
<text text-anchor="middle" x="199.5" y="-44" font-family="Vera Sans, DejaVu Sans, Liberation Sans, Arial, Helvetica, sans" font-size="10.00">OneLevelTransport</text>
</a>
</g>
</g>
<!-- NonlinearEquation&#45;&gt;OneLevelTransport -->
<g id="edge1" class="edge">
<title>NonlinearEquation&#45;&gt;OneLevelTransport</title>
<path fill="none" stroke="black" stroke-width="0.5" d="M108.66,-46.5C119.01,-46.5 129.93,-46.5 140.45,-46.5"/>
<polygon fill="black" stroke="black" stroke-width="0.5" points="140.58,-48.25 145.58,-46.5 140.58,-44.75 140.58,-48.25"/>
</g>
<!-- StorageSet -->
<g id="node4" class="node">
<title>StorageSet</title>
<g id="a_node4"><a xlink:href="../api/proteus.Transport.html#proteus.Transport.StorageSet" xlink:title="StorageSet" target="_top">
<polygon fill="none" stroke="black" stroke-width="0.5" points="90,-93 20,-93 20,-74 90,-74 90,-93"/>
<text text-anchor="middle" x="55" y="-81" font-family="Vera Sans, DejaVu Sans, Liberation Sans, Arial, Helvetica, sans" font-size="10.00">StorageSet</text>
</a>
</g>
</g>
</g>
</svg>
