<?xml version="1.0" encoding="UTF-8" standalone="no"?>
<!DOCTYPE svg PUBLIC "-//W3C//DTD SVG 1.1//EN"
 "http://www.w3.org/Graphics/SVG/1.1/DTD/svg11.dtd">
<!-- Generated by graphviz version 2.40.1 (20161225.0304)
 -->
<!-- Title: inheritance478a470905 Pages: 1 -->
<svg width="576pt" height="649pt"
 viewBox="0.00 0.00 576.00 649.50" xmlns="http://www.w3.org/2000/svg" xmlns:xlink="http://www.w3.org/1999/xlink">
<g id="graph0" class="graph" transform="scale(.7989 .7989) rotate(0) translate(4 809)">
<title>inheritance478a470905</title>
<polygon fill="#ffffff" stroke="transparent" points="-4,4 -4,-809 717,-809 717,4 -4,4"/>
<!-- BlockedDofOrderType -->
<g id="node1" class="node">
<title>BlockedDofOrderType</title>
<g id="a_node1"><a xlink:href="../api/proteus.LinearSolvers.html#proteus.LinearSolvers.BlockedDofOrderType" xlink:title="Manages the DOF for blocked velocity and pressure ordering." target="_top">
<polygon fill="none" stroke="#000000" stroke-width=".5" points="354.5,-56 232.5,-56 232.5,-37 354.5,-37 354.5,-56"/>
<text text-anchor="middle" x="293.5" y="-44" font-family="Vera Sans, DejaVu Sans, Liberation Sans, Arial, Helvetica, sans" font-size="10.00" fill="#000000">BlockedDofOrderType</text>
</a>
</g>
</g>
<!-- DofOrderInfo -->
<g id="node2" class="node">
<title>DofOrderInfo</title>
<g id="a_node2"><a xlink:href="../api/proteus.LinearSolvers.html#proteus.LinearSolvers.DofOrderInfo" xlink:title="Base class for managing DOF ordering information" target="_top">
<polygon fill="none" stroke="#000000" stroke-width=".5" points="127,-37 47,-37 47,-18 127,-18 127,-37"/>
<text text-anchor="middle" x="87" y="-25" font-family="Vera Sans, DejaVu Sans, Liberation Sans, Arial, Helvetica, sans" font-size="10.00" fill="#000000">DofOrderInfo</text>
</a>
</g>
</g>
<!-- DofOrderInfo&#45;&gt;BlockedDofOrderType -->
<g id="edge1" class="edge">
<title>DofOrderInfo&#45;&gt;BlockedDofOrderType</title>
<path fill="none" stroke="#000000" stroke-width=".5" d="M127.3055,-31.2085C155.6044,-33.8123 194.1047,-37.3547 226.9234,-40.3743"/>
<polygon fill="#000000" stroke="#000000" stroke-width=".5" points="227,-42.1387 232.1394,-40.8542 227.3208,-38.6534 227,-42.1387"/>
</g>
<!-- InterlacedDofOrderType -->
<g id="node8" class="node">
<title>InterlacedDofOrderType</title>
<g id="a_node8"><a xlink:href="../api/proteus.LinearSolvers.html#proteus.LinearSolvers.InterlacedDofOrderType" xlink:title="Manages the DOF for interlaced velocity and pressure ordering." target="_top">
<polygon fill="none" stroke="#000000" stroke-width=".5" points="359.5,-19 227.5,-19 227.5,0 359.5,0 359.5,-19"/>
<text text-anchor="middle" x="293.5" y="-7" font-family="Vera Sans, DejaVu Sans, Liberation Sans, Arial, Helvetica, sans" font-size="10.00" fill="#000000">InterlacedDofOrderType</text>
</a>
</g>
</g>
<!-- DofOrderInfo&#45;&gt;InterlacedDofOrderType -->
<g id="edge5" class="edge">
<title>DofOrderInfo&#45;&gt;InterlacedDofOrderType</title>
<path fill="none" stroke="#000000" stroke-width=".5" d="M127.3055,-23.9867C154.2675,-21.6365 190.4896,-18.4791 222.2355,-15.7119"/>
<polygon fill="#000000" stroke="#000000" stroke-width=".5" points="222.4609,-17.449 227.29,-15.2713 222.1569,-13.9622 222.4609,-17.449"/>
</g>
<!-- ChebyshevSemiIteration -->
<g id="node3" class="node">
<title>ChebyshevSemiIteration</title>
<g id="a_node3"><a xlink:href="../api/proteus.LinearSolvers.html#proteus.LinearSolvers.ChebyshevSemiIteration" xlink:title="Class for implementing the ChebyshevSemiIteration." target="_top">
<polygon fill="none" stroke="#000000" stroke-width=".5" points="362,-352 225,-352 225,-333 362,-333 362,-352"/>
<text text-anchor="middle" x="293.5" y="-340" font-family="Vera Sans, DejaVu Sans, Liberation Sans, Arial, Helvetica, sans" font-size="10.00" fill="#000000">ChebyshevSemiIteration</text>
</a>
</g>
</g>
<!-- LinearSolver -->
<g id="node4" class="node">
<title>LinearSolver</title>
<g id="a_node4"><a xlink:href="../api/proteus.LinearSolvers.html#proteus.LinearSolvers.LinearSolver" xlink:title="The base class for linear solvers." target="_top">
<polygon fill="none" stroke="#000000" stroke-width=".5" points="125.5,-222 48.5,-222 48.5,-203 125.5,-203 125.5,-222"/>
<text text-anchor="middle" x="87" y="-210" font-family="Vera Sans, DejaVu Sans, Liberation Sans, Arial, Helvetica, sans" font-size="10.00" fill="#000000">LinearSolver</text>
</a>
</g>
</g>
<!-- LinearSolver&#45;&gt;ChebyshevSemiIteration -->
<g id="edge2" class="edge">
<title>LinearSolver&#45;&gt;ChebyshevSemiIteration</title>
<path fill="none" stroke="#000000" stroke-width=".5" d="M94.753,-222.3049C112.5902,-244.1522 158.9451,-296.9885 210,-323.5 215.9931,-326.6121 222.4881,-329.2179 229.1184,-331.3992"/>
<polygon fill="#000000" stroke="#000000" stroke-width=".5" points="228.9145,-333.1687 234.2088,-332.9859 229.9561,-329.8272 228.9145,-333.1687"/>
</g>
<!-- GaussSeidel -->
<g id="node7" class="node">
<title>GaussSeidel</title>
<g id="a_node7"><a xlink:href="../api/proteus.LinearSolvers.html#proteus.LinearSolvers.GaussSeidel" xlink:title="Damped Gauss&#45;Seidel." target="_top">
<polygon fill="none" stroke="#000000" stroke-width=".5" points="332,-315 255,-315 255,-296 332,-296 332,-315"/>
<text text-anchor="middle" x="293.5" y="-303" font-family="Vera Sans, DejaVu Sans, Liberation Sans, Arial, Helvetica, sans" font-size="10.00" fill="#000000">GaussSeidel</text>
</a>
</g>
</g>
<!-- LinearSolver&#45;&gt;GaussSeidel -->
<g id="edge4" class="edge">
<title>LinearSolver&#45;&gt;GaussSeidel</title>
<path fill="none" stroke="#000000" stroke-width=".5" d="M99.915,-222.1904C121.5534,-237.9704 166.9999,-269.1917 210,-286.5 222.5408,-291.5479 236.7073,-295.4069 249.7626,-298.2848"/>
<polygon fill="#000000" stroke="#000000" stroke-width=".5" points="249.6413,-300.0482 254.8964,-299.3794 250.3713,-296.6251 249.6413,-300.0482"/>
</g>
<!-- Jacobi -->
<g id="node9" class="node">
<title>Jacobi</title>
<g id="a_node9"><a xlink:href="../api/proteus.LinearSolvers.html#proteus.LinearSolvers.Jacobi" xlink:title="Damped Jacobi iteration." target="_top">
<polygon fill="none" stroke="#000000" stroke-width=".5" points="320.5,-278 266.5,-278 266.5,-259 320.5,-259 320.5,-278"/>
<text text-anchor="middle" x="293.5" y="-266" font-family="Vera Sans, DejaVu Sans, Liberation Sans, Arial, Helvetica, sans" font-size="10.00" fill="#000000">Jacobi</text>
</a>
</g>
</g>
<!-- LinearSolver&#45;&gt;Jacobi -->
<g id="edge6" class="edge">
<title>LinearSolver&#45;&gt;Jacobi</title>
<path fill="none" stroke="#000000" stroke-width=".5" d="M116.6636,-222.0456C141.4766,-229.88 177.8733,-241.0234 210,-249.5 226.7897,-253.9299 245.64,-258.2726 261.1758,-261.6855"/>
<polygon fill="#000000" stroke="#000000" stroke-width=".5" points="261.0514,-263.4494 266.3096,-262.806 261.7978,-260.0299 261.0514,-263.4494"/>
</g>
<!-- KSP_petsc4py -->
<g id="node11" class="node">
<title>KSP_petsc4py</title>
<g id="a_node11"><a xlink:href="../api/proteus.LinearSolvers.html#proteus.LinearSolvers.KSP_petsc4py" xlink:title="A class that interfaces Proteus with PETSc KSP." target="_top">
<polygon fill="none" stroke="#000000" stroke-width=".5" points="336,-241 251,-241 251,-222 336,-222 336,-241"/>
<text text-anchor="middle" x="293.5" y="-229" font-family="Vera Sans, DejaVu Sans, Liberation Sans, Arial, Helvetica, sans" font-size="10.00" fill="#000000">KSP_petsc4py</text>
</a>
</g>
</g>
<!-- LinearSolver&#45;&gt;KSP_petsc4py -->
<g id="edge7" class="edge">
<title>LinearSolver&#45;&gt;KSP_petsc4py</title>
<path fill="none" stroke="#000000" stroke-width=".5" d="M125.8411,-216.0738C159.8045,-219.1987 209.2493,-223.7481 245.6465,-227.097"/>
<polygon fill="#000000" stroke="#000000" stroke-width=".5" points="245.7792,-228.8665 250.9185,-227.5821 246.0999,-225.3813 245.7792,-228.8665"/>
</g>
<!-- LU -->
<g id="node12" class="node">
<title>LU</title>
<g id="a_node12"><a xlink:href="../api/proteus.LinearSolvers.html#proteus.LinearSolvers.LU" xlink:title="A wrapper for pysparse&#39;s wrapper for superlu." target="_top">
<polygon fill="none" stroke="#000000" stroke-width=".5" points="320.5,-204 266.5,-204 266.5,-185 320.5,-185 320.5,-204"/>
<text text-anchor="middle" x="293.5" y="-192" font-family="Vera Sans, DejaVu Sans, Liberation Sans, Arial, Helvetica, sans" font-size="10.00" fill="#000000">LU</text>
</a>
</g>
</g>
<!-- LinearSolver&#45;&gt;LU -->
<g id="edge8" class="edge">
<title>LinearSolver&#45;&gt;LU</title>
<path fill="none" stroke="#000000" stroke-width=".5" d="M125.8411,-209.1143C164.9269,-205.7073 224.5159,-200.5131 261.1265,-197.3219"/>
<polygon fill="#000000" stroke="#000000" stroke-width=".5" points="261.527,-199.0437 266.3562,-196.866 261.223,-195.5569 261.527,-199.0437"/>
</g>
<!-- StarBILU -->
<g id="node32" class="node">
<title>StarBILU</title>
<g id="a_node32"><a xlink:href="../api/proteus.LinearSolvers.html#proteus.LinearSolvers.StarBILU" xlink:title="Alternating Schwarz Method on &#39;blocks&#39; consisting of consectutive rows in system for things like dg ..." target="_top">
<polygon fill="none" stroke="#000000" stroke-width=".5" points="322.5,-167 264.5,-167 264.5,-148 322.5,-148 322.5,-167"/>
<text text-anchor="middle" x="293.5" y="-155" font-family="Vera Sans, DejaVu Sans, Liberation Sans, Arial, Helvetica, sans" font-size="10.00" fill="#000000">StarBILU</text>
</a>
</g>
</g>
<!-- LinearSolver&#45;&gt;StarBILU -->
<g id="edge23" class="edge">
<title>LinearSolver&#45;&gt;StarBILU</title>
<path fill="none" stroke="#000000" stroke-width=".5" d="M116.6386,-202.8582C141.4366,-194.9666 177.8255,-183.793 210,-175.5 226.1272,-171.3432 244.1742,-167.3694 259.3529,-164.218"/>
<polygon fill="#000000" stroke="#000000" stroke-width=".5" points="259.8395,-165.9046 264.3836,-163.1818 259.1333,-162.4766 259.8395,-165.9046"/>
</g>
<!-- StarILU -->
<g id="node33" class="node">
<title>StarILU</title>
<g id="a_node33"><a xlink:href="../api/proteus.LinearSolvers.html#proteus.LinearSolvers.StarILU" xlink:title="Alternating Schwarz Method on node stars." target="_top">
<polygon fill="none" stroke="#000000" stroke-width=".5" points="320.5,-130 266.5,-130 266.5,-111 320.5,-111 320.5,-130"/>
<text text-anchor="middle" x="293.5" y="-118" font-family="Vera Sans, DejaVu Sans, Liberation Sans, Arial, Helvetica, sans" font-size="10.00" fill="#000000">StarILU</text>
</a>
</g>
</g>
<!-- LinearSolver&#45;&gt;StarILU -->
<g id="edge24" class="edge">
<title>LinearSolver&#45;&gt;StarILU</title>
<path fill="none" stroke="#000000" stroke-width=".5" d="M99.893,-202.7545C121.4998,-186.8952 166.9018,-155.5626 210,-138.5 226.2282,-132.0753 245.1838,-127.7534 260.9289,-124.9589"/>
<polygon fill="#000000" stroke="#000000" stroke-width=".5" points="261.5032,-126.6362 266.1369,-124.0689 260.9135,-123.1862 261.5032,-126.6362"/>
</g>
<!-- TwoLevel -->
<g id="node35" class="node">
<title>TwoLevel</title>
<g id="a_node35"><a xlink:href="../api/proteus.LinearSolvers.html#proteus.LinearSolvers.TwoLevel" xlink:title="A generic two&#45;level multiplicative Schwarz solver." target="_top">
<polygon fill="none" stroke="#000000" stroke-width=".5" points="324.5,-93 262.5,-93 262.5,-74 324.5,-74 324.5,-93"/>
<text text-anchor="middle" x="293.5" y="-81" font-family="Vera Sans, DejaVu Sans, Liberation Sans, Arial, Helvetica, sans" font-size="10.00" fill="#000000">TwoLevel</text>
</a>
</g>
</g>
<!-- LinearSolver&#45;&gt;TwoLevel -->
<g id="edge25" class="edge">
<title>LinearSolver&#45;&gt;TwoLevel</title>
<path fill="none" stroke="#000000" stroke-width=".5" d="M94.4667,-202.9798C112.0618,-181.2508 158.5386,-127.8508 210,-101.5 224.5867,-94.0309 242.1395,-89.6561 257.3795,-87.0959"/>
<polygon fill="#000000" stroke="#000000" stroke-width=".5" points="257.7856,-88.8035 262.4516,-86.2954 257.2399,-85.3463 257.7856,-88.8035"/>
</g>
<!-- ConstantNullSpace -->
<g id="node5" class="node">
<title>ConstantNullSpace</title>
<g id="a_node5"><a xlink:href="../api/proteus.LinearSolvers.html#proteus.LinearSolvers.ConstantNullSpace" xlink:title="ConstantNullSpace" target="_top">
<polygon fill="none" stroke="#000000" stroke-width=".5" points="348,-426 239,-426 239,-407 348,-407 348,-426"/>
<text text-anchor="middle" x="293.5" y="-414" font-family="Vera Sans, DejaVu Sans, Liberation Sans, Arial, Helvetica, sans" font-size="10.00" fill="#000000">ConstantNullSpace</text>
</a>
</g>
</g>
<!-- SolverNullSpace -->
<g id="node6" class="node">
<title>SolverNullSpace</title>
<g id="a_node6"><a xlink:href="../api/proteus.LinearSolvers.html#proteus.LinearSolvers.SolverNullSpace" xlink:title="SolverNullSpace" target="_top">
<polygon fill="none" stroke="#000000" stroke-width=".5" points="135,-407 39,-407 39,-388 135,-388 135,-407"/>
<text text-anchor="middle" x="87" y="-395" font-family="Vera Sans, DejaVu Sans, Liberation Sans, Arial, Helvetica, sans" font-size="10.00" fill="#000000">SolverNullSpace</text>
</a>
</g>
</g>
<!-- SolverNullSpace&#45;&gt;ConstantNullSpace -->
<g id="edge3" class="edge">
<title>SolverNullSpace&#45;&gt;ConstantNullSpace</title>
<path fill="none" stroke="#000000" stroke-width=".5" d="M135.1545,-401.9307C164.4462,-404.6258 202.1045,-408.0907 233.3469,-410.9653"/>
<polygon fill="#000000" stroke="#000000" stroke-width=".5" points="233.5625,-412.7425 238.7018,-411.458 233.8832,-409.2572 233.5625,-412.7425"/>
</g>
<!-- NavierStokesConstantPressure -->
<g id="node20" class="node">
<title>NavierStokesConstantPressure</title>
<g id="a_node20"><a xlink:href="../api/proteus.LinearSolvers.html#proteus.LinearSolvers.NavierStokesConstantPressure" xlink:title="NavierStokesConstantPressure" target="_top">
<polygon fill="none" stroke="#000000" stroke-width=".5" points="377,-389 210,-389 210,-370 377,-370 377,-389"/>
<text text-anchor="middle" x="293.5" y="-377" font-family="Vera Sans, DejaVu Sans, Liberation Sans, Arial, Helvetica, sans" font-size="10.00" fill="#000000">NavierStokesConstantPressure</text>
</a>
</g>
</g>
<!-- SolverNullSpace&#45;&gt;NavierStokesConstantPressure -->
<g id="edge13" class="edge">
<title>SolverNullSpace&#45;&gt;NavierStokesConstantPressure</title>
<path fill="none" stroke="#000000" stroke-width=".5" d="M135.1545,-393.3025C155.8495,-391.4986 180.7209,-389.3306 204.5553,-387.253"/>
<polygon fill="#000000" stroke="#000000" stroke-width=".5" points="204.7946,-388.9889 209.6237,-386.8113 204.4906,-385.5021 204.7946,-388.9889"/>
</g>
<!-- KSP_Preconditioner -->
<g id="node10" class="node">
<title>KSP_Preconditioner</title>
<g id="a_node10"><a xlink:href="../api/proteus.LinearSolvers.html#proteus.LinearSolvers.KSP_Preconditioner" xlink:title="Base class for PETSc KSP precondtioners." target="_top">
<polygon fill="none" stroke="#000000" stroke-width=".5" points="142.5,-500 31.5,-500 31.5,-481 142.5,-481 142.5,-500"/>
<text text-anchor="middle" x="87" y="-488" font-family="Vera Sans, DejaVu Sans, Liberation Sans, Arial, Helvetica, sans" font-size="10.00" fill="#000000">KSP_Preconditioner</text>
</a>
</g>
</g>
<!-- SchurPrecon -->
<g id="node22" class="node">
<title>SchurPrecon</title>
<g id="a_node22"><a xlink:href="../api/proteus.LinearSolvers.html#proteus.LinearSolvers.SchurPrecon" xlink:title="Base class for PETSc Schur complement preconditioners." target="_top">
<polygon fill="none" stroke="#000000" stroke-width=".5" points="332,-537 255,-537 255,-518 332,-518 332,-537"/>
<text text-anchor="middle" x="293.5" y="-525" font-family="Vera Sans, DejaVu Sans, Liberation Sans, Arial, Helvetica, sans" font-size="10.00" fill="#000000">SchurPrecon</text>
</a>
</g>
</g>
<!-- KSP_Preconditioner&#45;&gt;SchurPrecon -->
<g id="edge19" class="edge">
<title>KSP_Preconditioner&#45;&gt;SchurPrecon</title>
<path fill="none" stroke="#000000" stroke-width=".5" d="M140.1789,-500.0284C174.2086,-506.1258 217.8131,-513.9387 249.815,-519.6727"/>
<polygon fill="#000000" stroke="#000000" stroke-width=".5" points="249.6179,-521.4151 254.8482,-520.5745 250.2353,-517.97 249.6179,-521.4151"/>
</g>
<!-- petsc_ASM -->
<g id="node36" class="node">
<title>petsc_ASM</title>
<g id="a_node36"><a xlink:href="../api/proteus.LinearSolvers.html#proteus.LinearSolvers.petsc_ASM" xlink:title="ASM PETSc preconditioner class." target="_top">
<polygon fill="none" stroke="#000000" stroke-width=".5" points="328,-500 259,-500 259,-481 328,-481 328,-500"/>
<text text-anchor="middle" x="293.5" y="-488" font-family="Vera Sans, DejaVu Sans, Liberation Sans, Arial, Helvetica, sans" font-size="10.00" fill="#000000">petsc_ASM</text>
</a>
</g>
</g>
<!-- KSP_Preconditioner&#45;&gt;petsc_ASM -->
<g id="edge26" class="edge">
<title>KSP_Preconditioner&#45;&gt;petsc_ASM</title>
<path fill="none" stroke="#000000" stroke-width=".5" d="M142.6099,-490.5C177.6165,-490.5 221.981,-490.5 253.5234,-490.5"/>
<polygon fill="#000000" stroke="#000000" stroke-width=".5" points="253.8648,-492.2501 258.8647,-490.5 253.8647,-488.7501 253.8648,-492.2501"/>
</g>
<!-- petsc_LU -->
<g id="node37" class="node">
<title>petsc_LU</title>
<g id="a_node37"><a xlink:href="../api/proteus.LinearSolvers.html#proteus.LinearSolvers.petsc_LU" xlink:title="LU PETSc preconditioner class." target="_top">
<polygon fill="none" stroke="#000000" stroke-width=".5" points="323.5,-463 263.5,-463 263.5,-444 323.5,-444 323.5,-463"/>
<text text-anchor="middle" x="293.5" y="-451" font-family="Vera Sans, DejaVu Sans, Liberation Sans, Arial, Helvetica, sans" font-size="10.00" fill="#000000">petsc_LU</text>
</a>
</g>
</g>
<!-- KSP_Preconditioner&#45;&gt;petsc_LU -->
<g id="edge27" class="edge">
<title>KSP_Preconditioner&#45;&gt;petsc_LU</title>
<path fill="none" stroke="#000000" stroke-width=".5" d="M140.1789,-480.9716C177.2713,-474.3255 225.7395,-465.6411 258.1581,-459.8324"/>
<polygon fill="#000000" stroke="#000000" stroke-width=".5" points="258.6061,-461.5301 263.2191,-458.9256 257.9888,-458.085 258.6061,-461.5301"/>
</g>
<!-- MGM -->
<g id="node13" class="node">
<title>MGM</title>
<g id="a_node13"><a xlink:href="../api/proteus.LinearSolvers.html#proteus.LinearSolvers.MGM" xlink:title="A generic multigrid W cycle." target="_top">
<polygon fill="none" stroke="#000000" stroke-width=".5" points="320.5,-611 266.5,-611 266.5,-592 320.5,-592 320.5,-611"/>
<text text-anchor="middle" x="293.5" y="-599" font-family="Vera Sans, DejaVu Sans, Liberation Sans, Arial, Helvetica, sans" font-size="10.00" fill="#000000">MGM</text>
</a>
</g>
</g>
<!-- MultilevelLinearSolver -->
<g id="node14" class="node">
<title>MultilevelLinearSolver</title>
<g id="a_node14"><a xlink:href="../api/proteus.LinearSolvers.html#proteus.LinearSolvers.MultilevelLinearSolver" xlink:title="A generic multilevel solver." target="_top">
<polygon fill="none" stroke="#000000" stroke-width=".5" points="149.5,-583 24.5,-583 24.5,-564 149.5,-564 149.5,-583"/>
<text text-anchor="middle" x="87" y="-571" font-family="Vera Sans, DejaVu Sans, Liberation Sans, Arial, Helvetica, sans" font-size="10.00" fill="#000000">MultilevelLinearSolver</text>
</a>
</g>
</g>
<!-- MultilevelLinearSolver&#45;&gt;MGM -->
<g id="edge9" class="edge">
<title>MultilevelLinearSolver&#45;&gt;MGM</title>
<path fill="none" stroke="#000000" stroke-width=".5" d="M149.5172,-581.9769C186.4362,-586.9829 231.63,-593.1108 261.4234,-597.1506"/>
<polygon fill="#000000" stroke="#000000" stroke-width=".5" points="261.2451,-598.8924 266.435,-597.8302 261.7155,-595.4241 261.2451,-598.8924"/>
</g>
<!-- NI -->
<g id="node16" class="node">
<title>NI</title>
<g id="a_node16"><a xlink:href="../api/proteus.LinearSolvers.html#proteus.LinearSolvers.NI" xlink:title="A generic nested iteration solver." target="_top">
<polygon fill="none" stroke="#000000" stroke-width=".5" points="320.5,-574 266.5,-574 266.5,-555 320.5,-555 320.5,-574"/>
<text text-anchor="middle" x="293.5" y="-562" font-family="Vera Sans, DejaVu Sans, Liberation Sans, Arial, Helvetica, sans" font-size="10.00" fill="#000000">NI</text>
</a>
</g>
</g>
<!-- MultilevelLinearSolver&#45;&gt;NI -->
<g id="edge10" class="edge">
<title>MultilevelLinearSolver&#45;&gt;NI</title>
<path fill="none" stroke="#000000" stroke-width=".5" d="M149.5172,-570.7753C186.4362,-569.1662 231.63,-567.1965 261.4234,-565.898"/>
<polygon fill="#000000" stroke="#000000" stroke-width=".5" points="261.5159,-567.6457 266.435,-565.6796 261.3635,-564.1491 261.5159,-567.6457"/>
</g>
<!-- ModelInfo -->
<g id="node15" class="node">
<title>ModelInfo</title>
<g id="a_node15"><a xlink:href="../api/proteus.LinearSolvers.html#proteus.LinearSolvers.ModelInfo" xlink:title="This class stores the model information needed to initialize a" target="_top">
<polygon fill="none" stroke="#000000" stroke-width=".5" points="119.5,-620 54.5,-620 54.5,-601 119.5,-601 119.5,-620"/>
<text text-anchor="middle" x="87" y="-608" font-family="Vera Sans, DejaVu Sans, Liberation Sans, Arial, Helvetica, sans" font-size="10.00" fill="#000000">ModelInfo</text>
</a>
</g>
</g>
<!-- NavierStokes2D -->
<g id="node17" class="node">
<title>NavierStokes2D</title>
<g id="a_node17"><a xlink:href="../api/proteus.LinearSolvers.html#proteus.LinearSolvers.NavierStokes2D" xlink:title="NavierStokes2D" target="_top">
<polygon fill="none" stroke="#000000" stroke-width=".5" points="683,-610 588,-610 588,-591 683,-591 683,-610"/>
<text text-anchor="middle" x="635.5" y="-598" font-family="Vera Sans, DejaVu Sans, Liberation Sans, Arial, Helvetica, sans" font-size="10.00" fill="#000000">NavierStokes2D</text>
</a>
</g>
</g>
<!-- NavierStokesSchur -->
<g id="node18" class="node">
<title>NavierStokesSchur</title>
<g id="a_node18"><a xlink:href="../api/proteus.LinearSolvers.html#proteus.LinearSolvers.NavierStokesSchur" xlink:title="Schur complement preconditioners for Navier&#45;Stokes problems." target="_top">
<polygon fill="none" stroke="#000000" stroke-width=".5" points="522,-555 413,-555 413,-536 522,-536 522,-555"/>
<text text-anchor="middle" x="467.5" y="-543" font-family="Vera Sans, DejaVu Sans, Liberation Sans, Arial, Helvetica, sans" font-size="10.00" fill="#000000">NavierStokesSchur</text>
</a>
</g>
</g>
<!-- NavierStokesSchur&#45;&gt;NavierStokes2D -->
<g id="edge11" class="edge">
<title>NavierStokesSchur&#45;&gt;NavierStokes2D</title>
<path fill="none" stroke="#000000" stroke-width=".5" d="M489.1372,-555.0881C507.2817,-562.8895 534.0024,-573.8259 558,-581.5 567.3262,-584.4824 577.4102,-587.2663 587.1227,-589.7339"/>
<polygon fill="#000000" stroke="#000000" stroke-width=".5" points="586.8866,-591.4787 592.1618,-590.9949 587.7362,-588.0834 586.8866,-591.4787"/>
</g>
<!-- NavierStokes3D -->
<g id="node19" class="node">
<title>NavierStokes3D</title>
<g id="a_node19"><a xlink:href="../api/proteus.LinearSolvers.html#proteus.LinearSolvers.NavierStokes3D" xlink:title="NavierStokes3D" target="_top">
<polygon fill="none" stroke="#000000" stroke-width=".5" points="683,-573 588,-573 588,-554 683,-554 683,-573"/>
<text text-anchor="middle" x="635.5" y="-561" font-family="Vera Sans, DejaVu Sans, Liberation Sans, Arial, Helvetica, sans" font-size="10.00" fill="#000000">NavierStokes3D</text>
</a>
</g>
</g>
<!-- NavierStokesSchur&#45;&gt;NavierStokes3D -->
<g id="edge12" class="edge">
<title>NavierStokesSchur&#45;&gt;NavierStokes3D</title>
<path fill="none" stroke="#000000" stroke-width=".5" d="M522.0448,-551.3441C541.3992,-553.4178 563.1424,-555.7474 582.3766,-557.8082"/>
<polygon fill="#000000" stroke="#000000" stroke-width=".5" points="582.573,-559.5892 587.731,-558.3819 582.946,-556.1091 582.573,-559.5892"/>
</g>
<!-- NavierStokes_TwoPhasePCD -->
<g id="node23" class="node">
<title>NavierStokes_TwoPhasePCD</title>
<g id="a_node23"><a xlink:href="../api/proteus.LinearSolvers.html#proteus.LinearSolvers.NavierStokes_TwoPhasePCD" xlink:title="Two&#45;phase PCD Schur complement approximation class." target="_top">
<polygon fill="none" stroke="#000000" stroke-width=".5" points="713,-536 558,-536 558,-517 713,-517 713,-536"/>
<text text-anchor="middle" x="635.5" y="-524" font-family="Vera Sans, DejaVu Sans, Liberation Sans, Arial, Helvetica, sans" font-size="10.00" fill="#000000">NavierStokes_TwoPhasePCD</text>
</a>
</g>
</g>
<!-- NavierStokesSchur&#45;&gt;NavierStokes_TwoPhasePCD -->
<g id="edge16" class="edge">
<title>NavierStokesSchur&#45;&gt;NavierStokes_TwoPhasePCD</title>
<path fill="none" stroke="#000000" stroke-width=".5" d="M522.0448,-539.3312C531.8429,-538.2231 542.2532,-537.0458 552.6403,-535.871"/>
<polygon fill="#000000" stroke="#000000" stroke-width=".5" points="552.9631,-537.5958 557.7347,-535.2949 552.5697,-534.1179 552.9631,-537.5958"/>
</g>
<!-- Schur_Sp -->
<g id="node30" class="node">
<title>Schur_Sp</title>
<g id="a_node30"><a xlink:href="../api/proteus.LinearSolvers.html#proteus.LinearSolvers.Schur_Sp" xlink:title="Implements the SIMPLE Schur complement approximation proposed" target="_top">
<polygon fill="none" stroke="#000000" stroke-width=".5" points="666,-499 605,-499 605,-480 666,-480 666,-499"/>
<text text-anchor="middle" x="635.5" y="-487" font-family="Vera Sans, DejaVu Sans, Liberation Sans, Arial, Helvetica, sans" font-size="10.00" fill="#000000">Schur_Sp</text>
</a>
</g>
</g>
<!-- NavierStokesSchur&#45;&gt;Schur_Sp -->
<g id="edge22" class="edge">
<title>NavierStokesSchur&#45;&gt;Schur_Sp</title>
<path fill="none" stroke="#000000" stroke-width=".5" d="M497.5115,-535.943C505.5586,-533.1358 514.1905,-529.8992 522,-526.5 538.5884,-519.2796 541.0485,-513.821 558,-507.5 571.2539,-502.5578 586.3056,-498.6892 599.5958,-495.8262"/>
<polygon fill="#000000" stroke="#000000" stroke-width=".5" points="600.2518,-497.4769 604.7869,-494.7391 599.5343,-494.0512 600.2518,-497.4769"/>
</g>
<!-- NavierStokesPressureCorrection -->
<g id="node21" class="node">
<title>NavierStokesPressureCorrection</title>
<g id="a_node21"><a xlink:href="../api/proteus.LinearSolvers.html#proteus.LinearSolvers.NavierStokesPressureCorrection" xlink:title="NavierStokesPressureCorrection" target="_top">
<polygon fill="none" stroke="#000000" stroke-width=".5" points="174,-657 0,-657 0,-638 174,-638 174,-657"/>
<text text-anchor="middle" x="87" y="-645" font-family="Vera Sans, DejaVu Sans, Liberation Sans, Arial, Helvetica, sans" font-size="10.00" fill="#000000">NavierStokesPressureCorrection</text>
</a>
</g>
</g>
<!-- SchurPrecon&#45;&gt;NavierStokesSchur -->
<g id="edge14" class="edge">
<title>SchurPrecon&#45;&gt;NavierStokesSchur</title>
<path fill="none" stroke="#000000" stroke-width=".5" d="M332.1162,-525.7748C359.6385,-527.3095 396.6329,-531.0783 424.9949,-535.2084"/>
<polygon fill="#000000" stroke="#000000" stroke-width=".5" points="424.9824,-536.9758 430.186,-535.9833 425.4992,-533.5142 424.9824,-536.9758"/>
</g>
<!-- SchurPrecon&#45;&gt;NavierStokesSchur -->
<g id="edge15" class="edge">
<title>SchurPrecon&#45;&gt;NavierStokesSchur</title>
<path fill="none" stroke="#000000" stroke-width=".5" d="M330.8274,-537.0188C353.2016,-540.4445 382.1676,-543.7047 407.6709,-545.7593"/>
<polygon fill="#000000" stroke="#000000" stroke-width=".5" points="407.6013,-547.5091 412.7224,-546.1538 407.8738,-544.0197 407.6013,-547.5091"/>
</g>
<!-- Schur_LSC -->
<g id="node28" class="node">
<title>Schur_LSC</title>
<g id="a_node28"><a xlink:href="../api/proteus.LinearSolvers.html#proteus.LinearSolvers.Schur_LSC" xlink:title="The Least&#45;Squares Communtator preconditioner for saddle" target="_top">
<polygon fill="none" stroke="#000000" stroke-width=".5" points="501,-518 434,-518 434,-499 501,-499 501,-518"/>
<text text-anchor="middle" x="467.5" y="-506" font-family="Vera Sans, DejaVu Sans, Liberation Sans, Arial, Helvetica, sans" font-size="10.00" fill="#000000">Schur_LSC</text>
</a>
</g>
</g>
<!-- SchurPrecon&#45;&gt;Schur_LSC -->
<g id="edge20" class="edge">
<title>SchurPrecon&#45;&gt;Schur_LSC</title>
<path fill="none" stroke="#000000" stroke-width=".5" d="M332.1162,-523.2833C360.8638,-520.1442 399.9457,-515.8766 428.73,-512.7335"/>
<polygon fill="#000000" stroke="#000000" stroke-width=".5" points="429.1996,-514.4427 433.98,-512.1602 428.8196,-510.9634 429.1996,-514.4427"/>
</g>
<!-- Schur_Qp -->
<g id="node29" class="node">
<title>Schur_Qp</title>
<g id="a_node29"><a xlink:href="../api/proteus.LinearSolvers.html#proteus.LinearSolvers.Schur_Qp" xlink:title="A Navier&#45;Stokes (or Stokes) preconditioner which uses the" target="_top">
<polygon fill="none" stroke="#000000" stroke-width=".5" points="498.5,-481 436.5,-481 436.5,-462 498.5,-462 498.5,-481"/>
<text text-anchor="middle" x="467.5" y="-469" font-family="Vera Sans, DejaVu Sans, Liberation Sans, Arial, Helvetica, sans" font-size="10.00" fill="#000000">Schur_Qp</text>
</a>
</g>
</g>
<!-- SchurPrecon&#45;&gt;Schur_Qp -->
<g id="edge21" class="edge">
<title>SchurPrecon&#45;&gt;Schur_Qp</title>
<path fill="none" stroke="#000000" stroke-width=".5" d="M332.3575,-520.8627C346.6351,-517.8525 362.7794,-513.7664 377,-508.5 393.9656,-502.217 396.3528,-496.5837 413,-489.5 418.9183,-486.9817 425.3168,-484.589 431.5772,-482.4186"/>
<polygon fill="#000000" stroke="#000000" stroke-width=".5" points="432.1567,-484.0701 436.3274,-480.8039 431.0302,-480.7563 432.1567,-484.0701"/>
</g>
<!-- OperatorConstructor -->
<g id="node24" class="node">
<title>OperatorConstructor</title>
<g id="a_node24"><a xlink:href="../api/proteus.LinearSolvers.html#proteus.LinearSolvers.OperatorConstructor" xlink:title="Base class for operator constructors." target="_top">
<polygon fill="none" stroke="#000000" stroke-width=".5" points="145,-694 29,-694 29,-675 145,-675 145,-694"/>
<text text-anchor="middle" x="87" y="-682" font-family="Vera Sans, DejaVu Sans, Liberation Sans, Arial, Helvetica, sans" font-size="10.00" fill="#000000">OperatorConstructor</text>
</a>
</g>
</g>
<!-- OperatorConstructor_oneLevel -->
<g id="node25" class="node">
<title>OperatorConstructor_oneLevel</title>
<g id="a_node25"><a xlink:href="../api/proteus.LinearSolvers.html#proteus.LinearSolvers.OperatorConstructor_oneLevel" xlink:title="A class for building common discrete operators from one&#45;level" target="_top">
<polygon fill="none" stroke="#000000" stroke-width=".5" points="376,-703 211,-703 211,-684 376,-684 376,-703"/>
<text text-anchor="middle" x="293.5" y="-691" font-family="Vera Sans, DejaVu Sans, Liberation Sans, Arial, Helvetica, sans" font-size="10.00" fill="#000000">OperatorConstructor_oneLevel</text>
</a>
</g>
</g>
<!-- OperatorConstructor&#45;&gt;OperatorConstructor_oneLevel -->
<g id="edge17" class="edge">
<title>OperatorConstructor&#45;&gt;OperatorConstructor_oneLevel</title>
<path fill="none" stroke="#000000" stroke-width=".5" d="M145.0713,-687.031C163.8766,-687.8506 185.1725,-688.7787 205.6427,-689.6709"/>
<polygon fill="#000000" stroke="#000000" stroke-width=".5" points="205.7557,-691.4274 210.8272,-689.8968 205.9082,-687.9307 205.7557,-691.4274"/>
</g>
<!-- OperatorConstructor_rans2p -->
<g id="node26" class="node">
<title>OperatorConstructor_rans2p</title>
<g id="a_node26"><a xlink:href="../api/proteus.LinearSolvers.html#proteus.LinearSolvers.OperatorConstructor_rans2p" xlink:title="A class for building common discrete rans2p operators." target="_top">
<polygon fill="none" stroke="#000000" stroke-width=".5" points="370.5,-666 216.5,-666 216.5,-647 370.5,-647 370.5,-666"/>
<text text-anchor="middle" x="293.5" y="-654" font-family="Vera Sans, DejaVu Sans, Liberation Sans, Arial, Helvetica, sans" font-size="10.00" fill="#000000">OperatorConstructor_rans2p</text>
</a>
</g>
</g>
<!-- OperatorConstructor&#45;&gt;OperatorConstructor_rans2p -->
<g id="edge18" class="edge">
<title>OperatorConstructor&#45;&gt;OperatorConstructor_rans2p</title>
<path fill="none" stroke="#000000" stroke-width=".5" d="M145.0713,-676.6259C167.7909,-673.5453 194.1458,-669.9718 218.288,-666.6982"/>
<polygon fill="#000000" stroke="#000000" stroke-width=".5" points="218.6845,-668.4106 223.404,-666.0045 218.2141,-664.9423 218.6845,-668.4106"/>
</g>
<!-- SchurOperatorConstructor -->
<g id="node27" class="node">
<title>SchurOperatorConstructor</title>
<g id="a_node27"><a xlink:href="../api/proteus.LinearSolvers.html#proteus.LinearSolvers.SchurOperatorConstructor" xlink:title="Generate matrices for use in Schur complement preconditioner operators." target="_top">
<polygon fill="none" stroke="#000000" stroke-width=".5" points="158.5,-731 15.5,-731 15.5,-712 158.5,-712 158.5,-731"/>
<text text-anchor="middle" x="87" y="-719" font-family="Vera Sans, DejaVu Sans, Liberation Sans, Arial, Helvetica, sans" font-size="10.00" fill="#000000">SchurOperatorConstructor</text>
</a>
</g>
</g>
<!-- SimpleDarcyFC -->
<g id="node31" class="node">
<title>SimpleDarcyFC</title>
<g id="a_node31"><a xlink:href="../api/proteus.LinearSolvers.html#proteus.LinearSolvers.SimpleDarcyFC" xlink:title="SimpleDarcyFC" target="_top">
<polygon fill="none" stroke="#000000" stroke-width=".5" points="132.5,-768 41.5,-768 41.5,-749 132.5,-749 132.5,-768"/>
<text text-anchor="middle" x="87" y="-756" font-family="Vera Sans, DejaVu Sans, Liberation Sans, Arial, Helvetica, sans" font-size="10.00" fill="#000000">SimpleDarcyFC</text>
</a>
</g>
</g>
<!-- StorageSet -->
<g id="node34" class="node">
<title>StorageSet</title>
<g id="a_node34"><a xlink:href="../api/proteus.LinearSolvers.html#proteus.LinearSolvers.StorageSet" xlink:title="StorageSet" target="_top">
<polygon fill="none" stroke="#000000" stroke-width=".5" points="122,-805 52,-805 52,-786 122,-786 122,-805"/>
<text text-anchor="middle" x="87" y="-793" font-family="Vera Sans, DejaVu Sans, Liberation Sans, Arial, Helvetica, sans" font-size="10.00" fill="#000000">StorageSet</text>
</a>
</g>
</g>
</g>
</svg>
