<?xml version="1.0" encoding="UTF-8" standalone="no"?>
<!DOCTYPE svg PUBLIC "-//W3C//DTD SVG 1.1//EN"
 "http://www.w3.org/Graphics/SVG/1.1/DTD/svg11.dtd">
<!-- Generated by graphviz version 2.38.0 (20140413.2041)
 -->
<!-- Title: inheritance46841c7b14 Pages: 1 -->
<svg width="256pt" height="656pt"
 viewBox="0.00 0.00 256.00 656.00" xmlns="http://www.w3.org/2000/svg" xmlns:xlink="http://www.w3.org/1999/xlink">
<g id="graph0" class="graph" transform="scale(1 1) rotate(0) translate(4 652)">
<title>inheritance46841c7b14</title>
<polygon fill="white" stroke="none" points="-4,4 -4,-652 252,-652 252,4 -4,4"/>
<!-- CompositeTetrahedron -->
<g id="node1" class="node"><title>CompositeTetrahedron</title>
<g id="a_node1"><a xlink:href="../api/proteus.Quadrature.html#proteus.Quadrature.CompositeTetrahedron" xlink:title="CompositeTetrahedron" target="_top">
<polygon fill="none" stroke="black" stroke-width="0.5" points="231.5,-648 106.5,-648 106.5,-629 231.5,-629 231.5,-648"/>
<text text-anchor="middle" x="169" y="-636" font-family="Vera Sans, DejaVu Sans, Liberation Sans, Arial, Helvetica, sans" font-size="10.00">CompositeTetrahedron</text>
</a>
</g>
</g>
<!-- Q_base -->
<g id="node2" class="node"><title>Q_base</title>
<g id="a_node2"><a xlink:href="../api/proteus.Quadrature.html#proteus.Quadrature.Q_base" xlink:title="The base class for quadrature methods." target="_top">
<polygon fill="none" stroke="black" stroke-width="0.5" points="54,-333 0,-333 0,-314 54,-314 54,-333"/>
<text text-anchor="middle" x="27" y="-321" font-family="Vera Sans, DejaVu Sans, Liberation Sans, Arial, Helvetica, sans" font-size="10.00">Q_base</text>
</a>
</g>
</g>
<!-- Q_base&#45;&gt;CompositeTetrahedron -->
<g id="edge1" class="edge"><title>Q_base&#45;&gt;CompositeTetrahedron</title>
<path fill="none" stroke="black" stroke-width="0.5" d="M28.6391,-333.028C31.9195,-379.063 48.3561,-577.972 90,-620.5 93.5004,-624.075 97.5588,-627 101.949,-629.388"/>
<polygon fill="black" stroke="black" stroke-width="0.5" points="101.183,-630.961 106.441,-631.601 102.729,-627.821 101.183,-630.961"/>
</g>
<!-- CompositeTrapezoidalEdge -->
<g id="node3" class="node"><title>CompositeTrapezoidalEdge</title>
<g id="a_node3"><a xlink:href="../api/proteus.Quadrature.html#proteus.Quadrature.CompositeTrapezoidalEdge" xlink:title="Composite trapezoidal rule on the unit interval." target="_top">
<polygon fill="none" stroke="black" stroke-width="0.5" points="242,-611 96,-611 96,-592 242,-592 242,-611"/>
<text text-anchor="middle" x="169" y="-599" font-family="Vera Sans, DejaVu Sans, Liberation Sans, Arial, Helvetica, sans" font-size="10.00">CompositeTrapezoidalEdge</text>
</a>
</g>
</g>
<!-- Q_base&#45;&gt;CompositeTrapezoidalEdge -->
<g id="edge2" class="edge"><title>Q_base&#45;&gt;CompositeTrapezoidalEdge</title>
<path fill="none" stroke="black" stroke-width="0.5" d="M28.9646,-333.241C33.3987,-376.049 53.1981,-546.965 90,-583.5 92.0958,-585.581 94.3812,-587.44 96.8101,-589.1"/>
<polygon fill="black" stroke="black" stroke-width="0.5" points="96.1517,-590.75 101.327,-591.879 97.9854,-587.768 96.1517,-590.75"/>
</g>
<!-- CompositeTrapezoidalTriangle -->
<g id="node4" class="node"><title>CompositeTrapezoidalTriangle</title>
<g id="a_node4"><a xlink:href="../api/proteus.Quadrature.html#proteus.Quadrature.CompositeTrapezoidalTriangle" xlink:title="Composite trapezoidal rule on the reference triangle" target="_top">
<polygon fill="none" stroke="black" stroke-width="0.5" points="248,-574 90,-574 90,-555 248,-555 248,-574"/>
<text text-anchor="middle" x="169" y="-562" font-family="Vera Sans, DejaVu Sans, Liberation Sans, Arial, Helvetica, sans" font-size="10.00">CompositeTrapezoidalTriangle</text>
</a>
</g>
</g>
<!-- Q_base&#45;&gt;CompositeTrapezoidalTriangle -->
<g id="edge3" class="edge"><title>Q_base&#45;&gt;CompositeTrapezoidalTriangle</title>
<path fill="none" stroke="black" stroke-width="0.5" d="M27.4911,-333.253C26.2528,-367.905 26.9883,-486.224 90,-546.5 92.3067,-548.707 94.8273,-550.662 97.505,-552.394"/>
<polygon fill="black" stroke="black" stroke-width="0.5" points="96.6359,-553.913 101.834,-554.935 98.4077,-550.894 96.6359,-553.913"/>
</g>
<!-- CompositeTriangle -->
<g id="node5" class="node"><title>CompositeTriangle</title>
<g id="a_node5"><a xlink:href="../api/proteus.Quadrature.html#proteus.Quadrature.CompositeTriangle" xlink:title="Composite quadrature rule on the unit triangle." target="_top">
<polygon fill="none" stroke="black" stroke-width="0.5" points="221,-537 117,-537 117,-518 221,-518 221,-537"/>
<text text-anchor="middle" x="169" y="-525" font-family="Vera Sans, DejaVu Sans, Liberation Sans, Arial, Helvetica, sans" font-size="10.00">CompositeTriangle</text>
</a>
</g>
</g>
<!-- Q_base&#45;&gt;CompositeTriangle -->
<g id="edge4" class="edge"><title>Q_base&#45;&gt;CompositeTriangle</title>
<path fill="none" stroke="black" stroke-width="0.5" d="M28.1198,-333.352C29.0586,-364.351 36.3582,-460.724 90,-509.5 96.216,-515.152 103.846,-519.139 111.875,-521.931"/>
<polygon fill="black" stroke="black" stroke-width="0.5" points="111.622,-523.686 116.917,-523.519 112.674,-520.348 111.622,-523.686"/>
</g>
<!-- CubeGaussQuadrature -->
<g id="node6" class="node"><title>CubeGaussQuadrature</title>
<g id="a_node6"><a xlink:href="../api/proteus.Quadrature.html#proteus.Quadrature.CubeGaussQuadrature" xlink:title="A class for all quadrature on unit simplices." target="_top">
<polygon fill="none" stroke="black" stroke-width="0.5" points="232,-500 106,-500 106,-481 232,-481 232,-500"/>
<text text-anchor="middle" x="169" y="-488" font-family="Vera Sans, DejaVu Sans, Liberation Sans, Arial, Helvetica, sans" font-size="10.00">CubeGaussQuadrature</text>
</a>
</g>
</g>
<!-- Q_base&#45;&gt;CubeGaussQuadrature -->
<g id="edge5" class="edge"><title>Q_base&#45;&gt;CubeGaussQuadrature</title>
<path fill="none" stroke="black" stroke-width="0.5" d="M29.0271,-333.283C32.3784,-360.03 45.4883,-434.883 90,-472.5 93.3569,-475.337 97.0748,-477.748 101.013,-479.794"/>
<polygon fill="black" stroke="black" stroke-width="0.5" points="100.462,-481.47 105.729,-482.033 101.963,-478.308 100.462,-481.47"/>
</g>
<!-- FaceBarycenterEdge -->
<g id="node7" class="node"><title>FaceBarycenterEdge</title>
<g id="a_node7"><a xlink:href="../api/proteus.Quadrature.html#proteus.Quadrature.FaceBarycenterEdge" xlink:title="FaceBarycenterEdge" target="_top">
<polygon fill="none" stroke="black" stroke-width="0.5" points="226.5,-463 111.5,-463 111.5,-444 226.5,-444 226.5,-463"/>
<text text-anchor="middle" x="169" y="-451" font-family="Vera Sans, DejaVu Sans, Liberation Sans, Arial, Helvetica, sans" font-size="10.00">FaceBarycenterEdge</text>
</a>
</g>
</g>
<!-- Q_base&#45;&gt;FaceBarycenterEdge -->
<g id="edge6" class="edge"><title>Q_base&#45;&gt;FaceBarycenterEdge</title>
<path fill="none" stroke="black" stroke-width="0.5" d="M30.4163,-333.064C36.4517,-354.9 54.3296,-408.607 90,-435.5 94.9417,-439.226 100.524,-442.2 106.375,-444.571"/>
<polygon fill="black" stroke="black" stroke-width="0.5" points="106.049,-446.317 111.345,-446.425 107.272,-443.038 106.049,-446.317"/>
</g>
<!-- FaceBarycenterTetrahedron -->
<g id="node8" class="node"><title>FaceBarycenterTetrahedron</title>
<g id="a_node8"><a xlink:href="../api/proteus.Quadrature.html#proteus.Quadrature.FaceBarycenterTetrahedron" xlink:title="FaceBarycenterTetrahedron" target="_top">
<polygon fill="none" stroke="black" stroke-width="0.5" points="243,-426 95,-426 95,-407 243,-407 243,-426"/>
<text text-anchor="middle" x="169" y="-414" font-family="Vera Sans, DejaVu Sans, Liberation Sans, Arial, Helvetica, sans" font-size="10.00">FaceBarycenterTetrahedron</text>
</a>
</g>
</g>
<!-- Q_base&#45;&gt;FaceBarycenterTetrahedron -->
<g id="edge7" class="edge"><title>Q_base&#45;&gt;FaceBarycenterTetrahedron</title>
<path fill="none" stroke="black" stroke-width="0.5" d="M33.0803,-333.031C42.2086,-349.184 62.98,-381.807 90,-398.5 94.1677,-401.075 98.6665,-403.282 103.326,-405.173"/>
<polygon fill="black" stroke="black" stroke-width="0.5" points="102.738,-406.822 108.033,-406.962 103.981,-403.55 102.738,-406.822"/>
</g>
<!-- FaceBarycenterTriangle -->
<g id="node9" class="node"><title>FaceBarycenterTriangle</title>
<g id="a_node9"><a xlink:href="../api/proteus.Quadrature.html#proteus.Quadrature.FaceBarycenterTriangle" xlink:title="FaceBarycenterTriangle" target="_top">
<polygon fill="none" stroke="black" stroke-width="0.5" points="232.5,-389 105.5,-389 105.5,-370 232.5,-370 232.5,-389"/>
<text text-anchor="middle" x="169" y="-377" font-family="Vera Sans, DejaVu Sans, Liberation Sans, Arial, Helvetica, sans" font-size="10.00">FaceBarycenterTriangle</text>
</a>
</g>
</g>
<!-- Q_base&#45;&gt;FaceBarycenterTriangle -->
<g id="edge8" class="edge"><title>Q_base&#45;&gt;FaceBarycenterTriangle</title>
<path fill="none" stroke="black" stroke-width="0.5" d="M41.1146,-333.285C53.2242,-341.882 72.0054,-354.138 90,-361.5 96.6887,-364.236 103.878,-366.604 111.089,-368.639"/>
<polygon fill="black" stroke="black" stroke-width="0.5" points="110.795,-370.373 116.079,-369.996 111.714,-366.995 110.795,-370.373"/>
</g>
<!-- GaussEdge -->
<g id="node10" class="node"><title>GaussEdge</title>
<g id="a_node10"><a xlink:href="../api/proteus.Quadrature.html#proteus.Quadrature.GaussEdge" xlink:title="Gaussian Quadrature on the unit interval." target="_top">
<polygon fill="none" stroke="black" stroke-width="0.5" points="204.5,-352 133.5,-352 133.5,-333 204.5,-333 204.5,-352"/>
<text text-anchor="middle" x="169" y="-340" font-family="Vera Sans, DejaVu Sans, Liberation Sans, Arial, Helvetica, sans" font-size="10.00">GaussEdge</text>
</a>
</g>
</g>
<!-- Q_base&#45;&gt;GaussEdge -->
<g id="edge9" class="edge"><title>Q_base&#45;&gt;GaussEdge</title>
<path fill="none" stroke="black" stroke-width="0.5" d="M54.0048,-327.029C74.8973,-329.865 104.583,-333.893 128.423,-337.129"/>
<polygon fill="black" stroke="black" stroke-width="0.5" points="128.226,-338.868 133.416,-337.807 128.697,-335.4 128.226,-338.868"/>
</g>
<!-- GaussPoint -->
<g id="node11" class="node"><title>GaussPoint</title>
<g id="a_node11"><a xlink:href="../api/proteus.Quadrature.html#proteus.Quadrature.GaussPoint" xlink:title="A dummy class for integrating the boundary of the unit interval (i.e. a point)." target="_top">
<polygon fill="none" stroke="black" stroke-width="0.5" points="204.5,-315 133.5,-315 133.5,-296 204.5,-296 204.5,-315"/>
<text text-anchor="middle" x="169" y="-303" font-family="Vera Sans, DejaVu Sans, Liberation Sans, Arial, Helvetica, sans" font-size="10.00">GaussPoint</text>
</a>
</g>
</g>
<!-- Q_base&#45;&gt;GaussPoint -->
<g id="edge10" class="edge"><title>Q_base&#45;&gt;GaussPoint</title>
<path fill="none" stroke="black" stroke-width="0.5" d="M54.0048,-320.157C74.8973,-317.47 104.583,-313.654 128.423,-310.588"/>
<polygon fill="black" stroke="black" stroke-width="0.5" points="128.68,-312.32 133.416,-309.946 128.234,-308.848 128.68,-312.32"/>
</g>
<!-- GaussTetrahedron -->
<g id="node12" class="node"><title>GaussTetrahedron</title>
<g id="a_node12"><a xlink:href="../api/proteus.Quadrature.html#proteus.Quadrature.GaussTetrahedron" xlink:title="Gauss&#45;Legendre quadrature on the unit tetrahedron." target="_top">
<polygon fill="none" stroke="black" stroke-width="0.5" points="221,-278 117,-278 117,-259 221,-259 221,-278"/>
<text text-anchor="middle" x="169" y="-266" font-family="Vera Sans, DejaVu Sans, Liberation Sans, Arial, Helvetica, sans" font-size="10.00">GaussTetrahedron</text>
</a>
</g>
</g>
<!-- Q_base&#45;&gt;GaussTetrahedron -->
<g id="edge11" class="edge"><title>Q_base&#45;&gt;GaussTetrahedron</title>
<path fill="none" stroke="black" stroke-width="0.5" d="M41.6931,-313.999C53.8816,-305.929 72.448,-294.561 90,-287.5 97.7098,-284.398 106.059,-281.711 114.333,-279.413"/>
<polygon fill="black" stroke="black" stroke-width="0.5" points="115.094,-281.02 119.468,-278.032 114.185,-277.64 115.094,-281.02"/>
</g>
<!-- GaussTriangle -->
<g id="node13" class="node"><title>GaussTriangle</title>
<g id="a_node13"><a xlink:href="../api/proteus.Quadrature.html#proteus.Quadrature.GaussTriangle" xlink:title="Gauss quadrature on the unit triangle." target="_top">
<polygon fill="none" stroke="black" stroke-width="0.5" points="210.5,-241 127.5,-241 127.5,-222 210.5,-222 210.5,-241"/>
<text text-anchor="middle" x="169" y="-229" font-family="Vera Sans, DejaVu Sans, Liberation Sans, Arial, Helvetica, sans" font-size="10.00">GaussTriangle</text>
</a>
</g>
</g>
<!-- Q_base&#45;&gt;GaussTriangle -->
<g id="edge12" class="edge"><title>Q_base&#45;&gt;GaussTriangle</title>
<path fill="none" stroke="black" stroke-width="0.5" d="M33.4679,-313.753C42.8764,-297.917 63.6791,-266.74 90,-250.5 99.6691,-244.534 111.089,-240.441 122.164,-237.633"/>
<polygon fill="black" stroke="black" stroke-width="0.5" points="122.762,-239.29 127.221,-236.432 121.952,-235.885 122.762,-239.29"/>
</g>
<!-- LobattoEdge -->
<g id="node14" class="node"><title>LobattoEdge</title>
<g id="a_node14"><a xlink:href="../api/proteus.Quadrature.html#proteus.Quadrature.LobattoEdge" xlink:title="Gauss&#45;Lobatto quadrature on the unit interval." target="_top">
<polygon fill="none" stroke="black" stroke-width="0.5" points="207.5,-204 130.5,-204 130.5,-185 207.5,-185 207.5,-204"/>
<text text-anchor="middle" x="169" y="-192" font-family="Vera Sans, DejaVu Sans, Liberation Sans, Arial, Helvetica, sans" font-size="10.00">LobattoEdge</text>
</a>
</g>
</g>
<!-- Q_base&#45;&gt;LobattoEdge -->
<g id="edge13" class="edge"><title>Q_base&#45;&gt;LobattoEdge</title>
<path fill="none" stroke="black" stroke-width="0.5" d="M30.5852,-313.812C36.8677,-292.22 55.0502,-239.972 90,-213.5 100.11,-205.842 112.889,-201.228 125.161,-198.461"/>
<polygon fill="black" stroke="black" stroke-width="0.5" points="125.837,-200.108 130.38,-197.384 125.13,-196.68 125.837,-200.108"/>
</g>
<!-- LobattoEdgeAlt -->
<g id="node15" class="node"><title>LobattoEdgeAlt</title>
<g id="a_node15"><a xlink:href="../api/proteus.Quadrature.html#proteus.Quadrature.LobattoEdgeAlt" xlink:title="Gauss&#45;Lobatto quadrature on the [&#45;1:1] interval." target="_top">
<polygon fill="none" stroke="black" stroke-width="0.5" points="214,-167 124,-167 124,-148 214,-148 214,-167"/>
<text text-anchor="middle" x="169" y="-155" font-family="Vera Sans, DejaVu Sans, Liberation Sans, Arial, Helvetica, sans" font-size="10.00">LobattoEdgeAlt</text>
</a>
</g>
</g>
<!-- Q_base&#45;&gt;LobattoEdgeAlt -->
<g id="edge14" class="edge"><title>Q_base&#45;&gt;LobattoEdgeAlt</title>
<path fill="none" stroke="black" stroke-width="0.5" d="M29.0951,-313.873C32.6204,-287.548 46.1335,-213.848 90,-176.5 98.1168,-169.589 108.346,-165.112 118.701,-162.231"/>
<polygon fill="black" stroke="black" stroke-width="0.5" points="119.369,-163.867 123.785,-160.941 118.509,-160.475 119.369,-163.867"/>
</g>
<!-- LobattoTetrahedron -->
<g id="node16" class="node"><title>LobattoTetrahedron</title>
<g id="a_node16"><a xlink:href="../api/proteus.Quadrature.html#proteus.Quadrature.LobattoTetrahedron" xlink:title="Gauss&#45;Lobatto quadrature on the unit tetrahedron." target="_top">
<polygon fill="none" stroke="black" stroke-width="0.5" points="224,-130 114,-130 114,-111 224,-111 224,-130"/>
<text text-anchor="middle" x="169" y="-118" font-family="Vera Sans, DejaVu Sans, Liberation Sans, Arial, Helvetica, sans" font-size="10.00">LobattoTetrahedron</text>
</a>
</g>
</g>
<!-- Q_base&#45;&gt;LobattoTetrahedron -->
<g id="edge15" class="edge"><title>Q_base&#45;&gt;LobattoTetrahedron</title>
<path fill="none" stroke="black" stroke-width="0.5" d="M28.1819,-313.778C29.3051,-283.185 37.0921,-188.039 90,-139.5 95.424,-134.524 101.93,-130.792 108.84,-128.003"/>
<polygon fill="black" stroke="black" stroke-width="0.5" points="109.594,-129.591 113.68,-126.22 108.383,-126.307 109.594,-129.591"/>
</g>
<!-- LobattoTriangle -->
<g id="node17" class="node"><title>LobattoTriangle</title>
<g id="a_node17"><a xlink:href="../api/proteus.Quadrature.html#proteus.Quadrature.LobattoTriangle" xlink:title="Gauss&#45;Lobatto quadrature on the unit triangle." target="_top">
<polygon fill="none" stroke="black" stroke-width="0.5" points="213.5,-93 124.5,-93 124.5,-74 213.5,-74 213.5,-93"/>
<text text-anchor="middle" x="169" y="-81" font-family="Vera Sans, DejaVu Sans, Liberation Sans, Arial, Helvetica, sans" font-size="10.00">LobattoTriangle</text>
</a>
</g>
</g>
<!-- Q_base&#45;&gt;LobattoTriangle -->
<g id="edge16" class="edge"><title>Q_base&#45;&gt;LobattoTriangle</title>
<path fill="none" stroke="black" stroke-width="0.5" d="M27.5481,-313.859C26.5021,-279.599 27.8064,-162.58 90,-102.5 97.9975,-94.7743 108.586,-90.0187 119.373,-87.1322"/>
<polygon fill="black" stroke="black" stroke-width="0.5" points="119.886,-88.8088 124.335,-85.9335 119.064,-85.4066 119.886,-88.8088"/>
</g>
<!-- SimplexGaussQuadrature -->
<g id="node18" class="node"><title>SimplexGaussQuadrature</title>
<g id="a_node18"><a xlink:href="../api/proteus.Quadrature.html#proteus.Quadrature.SimplexGaussQuadrature" xlink:title="A class which defines quadrature on unit simplices." target="_top">
<polygon fill="none" stroke="black" stroke-width="0.5" points="239,-56 99,-56 99,-37 239,-37 239,-56"/>
<text text-anchor="middle" x="169" y="-44" font-family="Vera Sans, DejaVu Sans, Liberation Sans, Arial, Helvetica, sans" font-size="10.00">SimplexGaussQuadrature</text>
</a>
</g>
</g>
<!-- Q_base&#45;&gt;SimplexGaussQuadrature -->
<g id="edge17" class="edge"><title>Q_base&#45;&gt;SimplexGaussQuadrature</title>
<path fill="none" stroke="black" stroke-width="0.5" d="M28.9867,-313.844C33.5147,-271.407 53.6548,-101.958 90,-65.5 92.6384,-62.8534 95.5797,-60.5528 98.7316,-58.5547"/>
<polygon fill="black" stroke="black" stroke-width="0.5" points="99.6892,-60.0229 103.152,-56.0135 97.9446,-56.9886 99.6892,-60.0229"/>
</g>
<!-- SimplexLobattoQuadrature -->
<g id="node19" class="node"><title>SimplexLobattoQuadrature</title>
<g id="a_node19"><a xlink:href="../api/proteus.Quadrature.html#proteus.Quadrature.SimplexLobattoQuadrature" xlink:title="A class for quadrature on unit simplices." target="_top">
<polygon fill="none" stroke="black" stroke-width="0.5" points="242,-19 96,-19 96,-0 242,-0 242,-19"/>
<text text-anchor="middle" x="169" y="-7" font-family="Vera Sans, DejaVu Sans, Liberation Sans, Arial, Helvetica, sans" font-size="10.00">SimplexLobattoQuadrature</text>
</a>
</g>
</g>
<!-- Q_base&#45;&gt;SimplexLobattoQuadrature -->
<g id="edge18" class="edge"><title>Q_base&#45;&gt;SimplexLobattoQuadrature</title>
<path fill="none" stroke="black" stroke-width="0.5" d="M28.6822,-313.74C32.1105,-267.493 48.9442,-70.8818 90,-28.5 92.4183,-26.0036 95.1057,-23.8132 97.9866,-21.893"/>
<polygon fill="black" stroke="black" stroke-width="0.5" points="99.272,-23.163 102.662,-19.0927 97.4737,-20.1603 99.272,-23.163"/>
</g>
</g>
</svg>
