<?xml version="1.0" encoding="UTF-8" standalone="no"?>
<!DOCTYPE svg PUBLIC "-//W3C//DTD SVG 1.1//EN"
 "http://www.w3.org/Graphics/SVG/1.1/DTD/svg11.dtd">
<!-- Generated by graphviz version 2.38.0 (20140413.2041)
 -->
<!-- Title: inheritancea2a0a950e2 Pages: 1 -->
<svg width="575pt" height="249pt"
 viewBox="0.00 0.00 575.00 249.00" xmlns="http://www.w3.org/2000/svg" xmlns:xlink="http://www.w3.org/1999/xlink">
<g id="graph0" class="graph" transform="scale(1 1) rotate(0) translate(4 245)">
<title>inheritancea2a0a950e2</title>
<polygon fill="white" stroke="none" points="-4,4 -4,-245 571,-245 571,4 -4,4"/>
<!-- ISO_fixed_MinAdaptiveModelStep -->
<g id="node1" class="node"><title>ISO_fixed_MinAdaptiveModelStep</title>
<g id="a_node1"><a xlink:href="../api/proteus.SplitOperator.html#proteus.SplitOperator.ISO_fixed_MinAdaptiveModelStep" xlink:title="Look at the minimum model step and make that the system step as" target="_top">
<polygon fill="none" stroke="black" stroke-width="0.5" points="283.5,-241 107.5,-241 107.5,-222 283.5,-222 283.5,-241"/>
<text text-anchor="middle" x="195.5" y="-229" font-family="Vera Sans, DejaVu Sans, Liberation Sans, Arial, Helvetica, sans" font-size="10.00">ISO_fixed_MinAdaptiveModelStep</text>
</a>
</g>
</g>
<!-- SO_base -->
<g id="node2" class="node"><title>SO_base</title>
<g id="a_node2"><a xlink:href="../api/proteus.SplitOperator.html#proteus.SplitOperator.SO_base" xlink:title="Base class for operating splitting methods for systems." target="_top">
<polygon fill="none" stroke="black" stroke-width="0.5" points="59,-130 0,-130 0,-111 59,-111 59,-130"/>
<text text-anchor="middle" x="29.5" y="-118" font-family="Vera Sans, DejaVu Sans, Liberation Sans, Arial, Helvetica, sans" font-size="10.00">SO_base</text>
</a>
</g>
</g>
<!-- SO_base&#45;&gt;ISO_fixed_MinAdaptiveModelStep -->
<g id="edge1" class="edge"><title>SO_base&#45;&gt;ISO_fixed_MinAdaptiveModelStep</title>
<path fill="none" stroke="black" stroke-width="0.5" d="M47.9531,-130.012C51.9144,-132.717 55.871,-135.916 59,-139.5 83.0556,-167.05 65.8505,-191.41 95,-213.5 97.9818,-215.76 101.157,-217.768 104.472,-219.551"/>
<polygon fill="black" stroke="black" stroke-width="0.5" points="103.819,-221.181 109.075,-221.845 105.381,-218.048 103.819,-221.181"/>
</g>
<!-- Sequential_MinAdaptiveModelStep -->
<g id="node4" class="node"><title>Sequential_MinAdaptiveModelStep</title>
<g id="a_node4"><a xlink:href="../api/proteus.SplitOperator.html#proteus.SplitOperator.Sequential_MinAdaptiveModelStep" xlink:title="Look at the minimum model step and make that the system step as" target="_top">
<polygon fill="none" stroke="black" stroke-width="0.5" points="286.5,-204 104.5,-204 104.5,-185 286.5,-185 286.5,-204"/>
<text text-anchor="middle" x="195.5" y="-192" font-family="Vera Sans, DejaVu Sans, Liberation Sans, Arial, Helvetica, sans" font-size="10.00">Sequential_MinAdaptiveModelStep</text>
</a>
</g>
</g>
<!-- SO_base&#45;&gt;Sequential_MinAdaptiveModelStep -->
<g id="edge4" class="edge"><title>SO_base&#45;&gt;Sequential_MinAdaptiveModelStep</title>
<path fill="none" stroke="black" stroke-width="0.5" d="M46.3093,-130.183C50.5606,-133.014 55.0673,-136.231 59,-139.5 76.6434,-154.167 74.7455,-165.722 95,-176.5 99.924,-179.12 105.158,-181.367 110.55,-183.294"/>
<polygon fill="black" stroke="black" stroke-width="0.5" points="110.245,-185.037 115.542,-184.974 111.362,-181.72 110.245,-185.037"/>
</g>
<!-- Sequential_MinFLCBDFModelStep -->
<g id="node6" class="node"><title>Sequential_MinFLCBDFModelStep</title>
<g id="a_node6"><a xlink:href="../api/proteus.SplitOperator.html#proteus.SplitOperator.Sequential_MinFLCBDFModelStep" xlink:title="Look at the minimum model step and make that the system step as" target="_top">
<polygon fill="none" stroke="black" stroke-width="0.5" points="284,-167 107,-167 107,-148 284,-148 284,-167"/>
<text text-anchor="middle" x="195.5" y="-155" font-family="Vera Sans, DejaVu Sans, Liberation Sans, Arial, Helvetica, sans" font-size="10.00">Sequential_MinFLCBDFModelStep</text>
</a>
</g>
</g>
<!-- SO_base&#45;&gt;Sequential_MinFLCBDFModelStep -->
<g id="edge6" class="edge"><title>SO_base&#45;&gt;Sequential_MinFLCBDFModelStep</title>
<path fill="none" stroke="black" stroke-width="0.5" d="M59.22,-129.679C70.3267,-133.039 83.1867,-136.7 95,-139.5 106.509,-142.228 118.851,-144.766 130.792,-147.027"/>
<polygon fill="black" stroke="black" stroke-width="0.5" points="130.645,-148.779 135.881,-147.978 131.288,-145.339 130.645,-148.779"/>
</g>
<!-- Sequential_MinAdaptiveModelStep_SS -->
<g id="node7" class="node"><title>Sequential_MinAdaptiveModelStep_SS</title>
<g id="a_node7"><a xlink:href="../api/proteus.SplitOperator.html#proteus.SplitOperator.Sequential_MinAdaptiveModelStep_SS" xlink:title="Look at the minimum model step and make that the system step as" target="_top">
<polygon fill="none" stroke="black" stroke-width="0.5" points="296,-130 95,-130 95,-111 296,-111 296,-130"/>
<text text-anchor="middle" x="195.5" y="-118" font-family="Vera Sans, DejaVu Sans, Liberation Sans, Arial, Helvetica, sans" font-size="10.00">Sequential_MinAdaptiveModelStep_SS</text>
</a>
</g>
</g>
<!-- SO_base&#45;&gt;Sequential_MinAdaptiveModelStep_SS -->
<g id="edge5" class="edge"><title>SO_base&#45;&gt;Sequential_MinAdaptiveModelStep_SS</title>
<path fill="none" stroke="black" stroke-width="0.5" d="M59.0666,-120.5C68.0595,-120.5 78.5711,-120.5 89.6906,-120.5"/>
<polygon fill="black" stroke="black" stroke-width="0.5" points="89.8391,-122.25 94.8391,-120.5 89.8391,-118.75 89.8391,-122.25"/>
</g>
<!-- Sequential_MinModelStep -->
<g id="node8" class="node"><title>Sequential_MinModelStep</title>
<g id="a_node8"><a xlink:href="../api/proteus.SplitOperator.html#proteus.SplitOperator.Sequential_MinModelStep" xlink:title="Look at the minimum model step and make that the system step as" target="_top">
<polygon fill="none" stroke="black" stroke-width="0.5" points="265.5,-93 125.5,-93 125.5,-74 265.5,-74 265.5,-93"/>
<text text-anchor="middle" x="195.5" y="-81" font-family="Vera Sans, DejaVu Sans, Liberation Sans, Arial, Helvetica, sans" font-size="10.00">Sequential_MinModelStep</text>
</a>
</g>
</g>
<!-- SO_base&#45;&gt;Sequential_MinModelStep -->
<g id="edge7" class="edge"><title>SO_base&#45;&gt;Sequential_MinModelStep</title>
<path fill="none" stroke="black" stroke-width="0.5" d="M59.2645,-111.919C70.3766,-108.75 83.2287,-105.261 95,-102.5 107.848,-99.4861 121.713,-96.6066 134.895,-94.0417"/>
<polygon fill="black" stroke="black" stroke-width="0.5" points="135.526,-95.7023 140.104,-93.0373 134.863,-92.2656 135.526,-95.7023"/>
</g>
<!-- Sequential_NonUniformFixedStep -->
<g id="node9" class="node"><title>Sequential_NonUniformFixedStep</title>
<g id="a_node9"><a xlink:href="../api/proteus.SplitOperator.html#proteus.SplitOperator.Sequential_NonUniformFixedStep" xlink:title="Just step to system output time levels, allowing models to" target="_top">
<polygon fill="none" stroke="black" stroke-width="0.5" points="284,-56 107,-56 107,-37 284,-37 284,-56"/>
<text text-anchor="middle" x="195.5" y="-44" font-family="Vera Sans, DejaVu Sans, Liberation Sans, Arial, Helvetica, sans" font-size="10.00">Sequential_NonUniformFixedStep</text>
</a>
</g>
</g>
<!-- SO_base&#45;&gt;Sequential_NonUniformFixedStep -->
<g id="edge8" class="edge"><title>SO_base&#45;&gt;Sequential_NonUniformFixedStep</title>
<path fill="none" stroke="black" stroke-width="0.5" d="M39.0077,-110.596C50.4129,-98.005 71.9137,-76.5773 95,-65.5 101.635,-62.3166 108.759,-59.6662 116.035,-57.4597"/>
<polygon fill="black" stroke="black" stroke-width="0.5" points="116.773,-59.0683 121.092,-56.0019 115.803,-55.7052 116.773,-59.0683"/>
</g>
<!-- Sequential_tnList -->
<g id="node10" class="node"><title>Sequential_tnList</title>
<g id="a_node10"><a xlink:href="../api/proteus.SplitOperator.html#proteus.SplitOperator.Sequential_tnList" xlink:title="Sequential_tnList" target="_top">
<polygon fill="none" stroke="black" stroke-width="0.5" points="245,-19 146,-19 146,-0 245,-0 245,-19"/>
<text text-anchor="middle" x="195.5" y="-7" font-family="Vera Sans, DejaVu Sans, Liberation Sans, Arial, Helvetica, sans" font-size="10.00">Sequential_tnList</text>
</a>
</g>
</g>
<!-- SO_base&#45;&gt;Sequential_tnList -->
<g id="edge9" class="edge"><title>SO_base&#45;&gt;Sequential_tnList</title>
<path fill="none" stroke="black" stroke-width="0.5" d="M34.3006,-110.837C42.354,-91.7231 63.0586,-49.1547 95,-28.5 108.467,-19.7916 124.965,-14.8765 140.626,-12.1572"/>
<polygon fill="black" stroke="black" stroke-width="0.5" points="141.238,-13.8319 145.9,-11.3168 140.687,-10.3755 141.238,-13.8319"/>
</g>
<!-- SequentialNotInOrder_MinAdaptiveModelStep -->
<g id="node3" class="node"><title>SequentialNotInOrder_MinAdaptiveModelStep</title>
<g id="a_node3"><a xlink:href="../api/proteus.SplitOperator.html#proteus.SplitOperator.SequentialNotInOrder_MinAdaptiveModelStep" xlink:title="loop through the models in some specified order" target="_top">
<polygon fill="none" stroke="black" stroke-width="0.5" points="567,-204 332,-204 332,-185 567,-185 567,-204"/>
<text text-anchor="middle" x="449.5" y="-192" font-family="Vera Sans, DejaVu Sans, Liberation Sans, Arial, Helvetica, sans" font-size="10.00">SequentialNotInOrder_MinAdaptiveModelStep</text>
</a>
</g>
</g>
<!-- Sequential_MinAdaptiveModelStep&#45;&gt;SequentialNotInOrder_MinAdaptiveModelStep -->
<g id="edge2" class="edge"><title>Sequential_MinAdaptiveModelStep&#45;&gt;SequentialNotInOrder_MinAdaptiveModelStep</title>
<path fill="none" stroke="black" stroke-width="0.5" d="M286.766,-194.5C299.608,-194.5 312.99,-194.5 326.314,-194.5"/>
<polygon fill="black" stroke="black" stroke-width="0.5" points="326.616,-196.25 331.616,-194.5 326.616,-192.75 326.616,-196.25"/>
</g>
<!-- SequentialNotInOrder_MinFLCBDFModelStep -->
<g id="node5" class="node"><title>SequentialNotInOrder_MinFLCBDFModelStep</title>
<g id="a_node5"><a xlink:href="../api/proteus.SplitOperator.html#proteus.SplitOperator.SequentialNotInOrder_MinFLCBDFModelStep" xlink:title="loop through the models in some specified order" target="_top">
<polygon fill="none" stroke="black" stroke-width="0.5" points="564.5,-167 334.5,-167 334.5,-148 564.5,-148 564.5,-167"/>
<text text-anchor="middle" x="449.5" y="-155" font-family="Vera Sans, DejaVu Sans, Liberation Sans, Arial, Helvetica, sans" font-size="10.00">SequentialNotInOrder_MinFLCBDFModelStep</text>
</a>
</g>
</g>
<!-- Sequential_MinFLCBDFModelStep&#45;&gt;SequentialNotInOrder_MinFLCBDFModelStep -->
<g id="edge3" class="edge"><title>Sequential_MinFLCBDFModelStep&#45;&gt;SequentialNotInOrder_MinFLCBDFModelStep</title>
<path fill="none" stroke="black" stroke-width="0.5" d="M284.284,-157.5C298.832,-157.5 314.131,-157.5 329.299,-157.5"/>
<polygon fill="black" stroke="black" stroke-width="0.5" points="329.436,-159.25 334.436,-157.5 329.436,-155.75 329.436,-159.25"/>
</g>
<!-- System -->
<g id="node11" class="node"><title>System</title>
<g id="a_node11"><a xlink:href="../api/proteus.SplitOperator.html#proteus.SplitOperator.System" xlink:title="System" target="_top">
<polygon fill="none" stroke="black" stroke-width="0.5" points="56.5,-167 2.5,-167 2.5,-148 56.5,-148 56.5,-167"/>
<text text-anchor="middle" x="29.5" y="-155" font-family="Vera Sans, DejaVu Sans, Liberation Sans, Arial, Helvetica, sans" font-size="10.00">System</text>
</a>
</g>
</g>
</g>
</svg>
