<?xml version="1.0" encoding="UTF-8" standalone="no"?>
<!DOCTYPE svg PUBLIC "-//W3C//DTD SVG 1.1//EN"
 "http://www.w3.org/Graphics/SVG/1.1/DTD/svg11.dtd">
<!-- Generated by graphviz version 2.40.1 (20161225.0304)
 -->
<!-- Title: inheritanced9289a834f Pages: 1 -->
<svg width="576pt" height="482pt"
 viewBox="0.00 0.00 576.00 481.66" xmlns="http://www.w3.org/2000/svg" xmlns:xlink="http://www.w3.org/1999/xlink">
<g id="graph0" class="graph" transform="scale(.8276 .8276) rotate(0) translate(4 578)">
<title>inheritanced9289a834f</title>
<polygon fill="#ffffff" stroke="transparent" points="-4,4 -4,-578 692,-578 692,4 -4,4"/>
<!-- Edge -->
<g id="node1" class="node">
<title>Edge</title>
<g id="a_node1"><a xlink:href="../api/proteus.MeshTools.html#proteus.MeshTools.Edge" xlink:title="Edge" target="_top">
<polygon fill="none" stroke="#000000" stroke-width=".5" points="277,-130 223,-130 223,-111 277,-111 277,-130"/>
<text text-anchor="middle" x="250" y="-118" font-family="Vera Sans, DejaVu Sans, Liberation Sans, Arial, Helvetica, sans" font-size="10.00" fill="#000000">Edge</text>
</a>
</g>
</g>
<!-- Element -->
<g id="node2" class="node">
<title>Element</title>
<g id="a_node2"><a xlink:href="../api/proteus.MeshTools.html#proteus.MeshTools.Element" xlink:title="An numbered polytope in R^n" target="_top">
<polygon fill="none" stroke="#000000" stroke-width=".5" points="109,-93 52,-93 52,-74 109,-74 109,-93"/>
<text text-anchor="middle" x="80.5" y="-81" font-family="Vera Sans, DejaVu Sans, Liberation Sans, Arial, Helvetica, sans" font-size="10.00" fill="#000000">Element</text>
</a>
</g>
</g>
<!-- Element&#45;&gt;Edge -->
<g id="edge1" class="edge">
<title>Element&#45;&gt;Edge</title>
<path fill="none" stroke="#000000" stroke-width=".5" d="M109.2534,-89.7765C139.3774,-96.3523 186.5861,-106.6574 217.9053,-113.4941"/>
<polygon fill="#000000" stroke="#000000" stroke-width=".5" points="217.5322,-115.2038 222.7904,-114.5604 218.2787,-111.7843 217.5322,-115.2038"/>
</g>
<!-- Polyhedron -->
<g id="node8" class="node">
<title>Polyhedron</title>
<g id="a_node8"><a xlink:href="../api/proteus.MeshTools.html#proteus.MeshTools.Polyhedron" xlink:title="An abstract 3D Element&#45;&#45;a closed set of Polygons connecting a set" target="_top">
<polygon fill="none" stroke="#000000" stroke-width=".5" points="285.5,-93 214.5,-93 214.5,-74 285.5,-74 285.5,-93"/>
<text text-anchor="middle" x="250" y="-81" font-family="Vera Sans, DejaVu Sans, Liberation Sans, Arial, Helvetica, sans" font-size="10.00" fill="#000000">Polyhedron</text>
</a>
</g>
</g>
<!-- Element&#45;&gt;Polyhedron -->
<g id="edge21" class="edge">
<title>Element&#45;&gt;Polyhedron</title>
<path fill="none" stroke="#000000" stroke-width=".5" d="M109.2534,-83.5C136.6642,-83.5 178.2206,-83.5 209.08,-83.5"/>
<polygon fill="#000000" stroke="#000000" stroke-width=".5" points="209.3236,-85.2501 214.3236,-83.5 209.3235,-81.7501 209.3236,-85.2501"/>
</g>
<!-- Polygon -->
<g id="node26" class="node">
<title>Polygon</title>
<g id="a_node26"><a xlink:href="../api/proteus.MeshTools.html#proteus.MeshTools.Polygon" xlink:title="An abstract 2D element&#45;&#45;a closed set of Edges connecting a set of Nodes." target="_top">
<polygon fill="none" stroke="#000000" stroke-width=".5" points="278,-56 222,-56 222,-37 278,-37 278,-56"/>
<text text-anchor="middle" x="250" y="-44" font-family="Vera Sans, DejaVu Sans, Liberation Sans, Arial, Helvetica, sans" font-size="10.00" fill="#000000">Polygon</text>
</a>
</g>
</g>
<!-- Element&#45;&gt;Polygon -->
<g id="edge20" class="edge">
<title>Element&#45;&gt;Polygon</title>
<path fill="none" stroke="#000000" stroke-width=".5" d="M109.2534,-77.2235C139.1085,-70.7064 185.7445,-60.5263 217.0627,-53.6899"/>
<polygon fill="#000000" stroke="#000000" stroke-width=".5" points="217.4409,-55.3986 221.9526,-52.6224 216.6944,-51.9791 217.4409,-55.3986"/>
</g>
<!-- EdgeGrid -->
<g id="node3" class="node">
<title>EdgeGrid</title>
<g id="a_node3"><a xlink:href="../api/proteus.MeshTools.html#proteus.MeshTools.EdgeGrid" xlink:title="A 1D regular grid on an interval" target="_top">
<polygon fill="none" stroke="#000000" stroke-width=".5" points="280.5,-574 219.5,-574 219.5,-555 280.5,-555 280.5,-574"/>
<text text-anchor="middle" x="250" y="-562" font-family="Vera Sans, DejaVu Sans, Liberation Sans, Arial, Helvetica, sans" font-size="10.00" fill="#000000">EdgeGrid</text>
</a>
</g>
</g>
<!-- Mesh -->
<g id="node4" class="node">
<title>Mesh</title>
<g id="a_node4"><a xlink:href="../api/proteus.MeshTools.html#proteus.MeshTools.Mesh" xlink:title="A partition of a domain in R^n into elements." target="_top">
<polygon fill="none" stroke="#000000" stroke-width=".5" points="107.5,-370 53.5,-370 53.5,-351 107.5,-351 107.5,-370"/>
<text text-anchor="middle" x="80.5" y="-358" font-family="Vera Sans, DejaVu Sans, Liberation Sans, Arial, Helvetica, sans" font-size="10.00" fill="#000000">Mesh</text>
</a>
</g>
</g>
<!-- Mesh&#45;&gt;EdgeGrid -->
<g id="edge2" class="edge">
<title>Mesh&#45;&gt;EdgeGrid</title>
<path fill="none" stroke="#000000" stroke-width=".5" d="M107.5826,-359.8949C125.1392,-361.0006 147.2253,-365.4545 161,-379.5 214.1636,-433.7086 146.4878,-489.8127 197,-546.5 201.6365,-551.7033 207.8348,-555.4039 214.356,-558.0354"/>
<polygon fill="#000000" stroke="#000000" stroke-width=".5" points="214.088,-559.7988 219.3852,-559.8465 215.2739,-556.5059 214.088,-559.7988"/>
</g>
<!-- EdgeMesh -->
<g id="node5" class="node">
<title>EdgeMesh</title>
<g id="a_node5"><a xlink:href="../api/proteus.MeshTools.html#proteus.MeshTools.EdgeMesh" xlink:title="A mesh of edges" target="_top">
<polygon fill="none" stroke="#000000" stroke-width=".5" points="283,-537 217,-537 217,-518 283,-518 283,-537"/>
<text text-anchor="middle" x="250" y="-525" font-family="Vera Sans, DejaVu Sans, Liberation Sans, Arial, Helvetica, sans" font-size="10.00" fill="#000000">EdgeMesh</text>
</a>
</g>
</g>
<!-- Mesh&#45;&gt;EdgeMesh -->
<g id="edge3" class="edge">
<title>Mesh&#45;&gt;EdgeMesh</title>
<path fill="none" stroke="#000000" stroke-width=".5" d="M107.7058,-360.1841C125.0886,-361.4423 146.9284,-365.9582 161,-379.5 204.1981,-421.0716 155.838,-465.9115 197,-509.5 201.1699,-513.9158 206.4628,-517.2483 212.0818,-519.7632"/>
<polygon fill="#000000" stroke="#000000" stroke-width=".5" points="211.5692,-521.4434 216.8609,-521.6894 212.8776,-518.1971 211.5692,-521.4434"/>
</g>
<!-- HexahedralMesh -->
<g id="node6" class="node">
<title>HexahedralMesh</title>
<g id="a_node6"><a xlink:href="../api/proteus.MeshTools.html#proteus.MeshTools.HexahedralMesh" xlink:title="A mesh of hexahedra." target="_top">
<polygon fill="none" stroke="#000000" stroke-width=".5" points="299,-500 201,-500 201,-481 299,-481 299,-500"/>
<text text-anchor="middle" x="250" y="-488" font-family="Vera Sans, DejaVu Sans, Liberation Sans, Arial, Helvetica, sans" font-size="10.00" fill="#000000">HexahedralMesh</text>
</a>
</g>
</g>
<!-- Mesh&#45;&gt;HexahedralMesh -->
<g id="edge4" class="edge">
<title>Mesh&#45;&gt;HexahedralMesh</title>
<path fill="none" stroke="#000000" stroke-width=".5" d="M107.6549,-360.6875C124.7957,-362.1793 146.3827,-366.7667 161,-379.5 194.4201,-408.6126 165.0094,-441.8235 197,-472.5 199.3475,-474.751 201.987,-476.7211 204.8022,-478.4453"/>
<polygon fill="#000000" stroke="#000000" stroke-width=".5" points="204.1306,-480.0734 209.3537,-480.9573 205.8218,-477.0091 204.1306,-480.0734"/>
</g>
<!-- Mesh2DM -->
<g id="node11" class="node">
<title>Mesh2DM</title>
<g id="a_node11"><a xlink:href="../api/proteus.MeshTools.html#proteus.MeshTools.Mesh2DM" xlink:title="A triangular mesh based on an ADH 3dm file" target="_top">
<polygon fill="none" stroke="#000000" stroke-width=".5" points="282,-463 218,-463 218,-444 282,-444 282,-463"/>
<text text-anchor="middle" x="250" y="-451" font-family="Vera Sans, DejaVu Sans, Liberation Sans, Arial, Helvetica, sans" font-size="10.00" fill="#000000">Mesh2DM</text>
</a>
</g>
</g>
<!-- Mesh&#45;&gt;Mesh2DM -->
<g id="edge7" class="edge">
<title>Mesh&#45;&gt;Mesh2DM</title>
<path fill="none" stroke="#000000" stroke-width=".5" d="M107.5944,-361.8057C124.2889,-363.7738 145.4078,-368.4713 161,-379.5 185.1562,-396.5861 173.688,-417.279 197,-435.5 201.7852,-439.2402 207.3929,-442.227 213.1363,-444.6054"/>
<polygon fill="#000000" stroke="#000000" stroke-width=".5" points="212.6825,-446.3056 217.9776,-446.4632 213.9366,-443.0379 212.6825,-446.3056"/>
</g>
<!-- Mesh3DM -->
<g id="node12" class="node">
<title>Mesh3DM</title>
<g id="a_node12"><a xlink:href="../api/proteus.MeshTools.html#proteus.MeshTools.Mesh3DM" xlink:title="A Mesh for reading in tetrahedral meshes in the .3dm format" target="_top">
<polygon fill="none" stroke="#000000" stroke-width=".5" points="282,-426 218,-426 218,-407 282,-407 282,-426"/>
<text text-anchor="middle" x="250" y="-414" font-family="Vera Sans, DejaVu Sans, Liberation Sans, Arial, Helvetica, sans" font-size="10.00" fill="#000000">Mesh3DM</text>
</a>
</g>
</g>
<!-- Mesh&#45;&gt;Mesh3DM -->
<g id="edge8" class="edge">
<title>Mesh&#45;&gt;Mesh3DM</title>
<path fill="none" stroke="#000000" stroke-width=".5" d="M107.8421,-365.1605C123.6644,-368.2974 143.7894,-373.0474 161,-379.5 177.9402,-385.8513 180.3827,-391.3464 197,-398.5 202.5088,-400.8715 208.4419,-403.1457 214.2746,-405.2318"/>
<polygon fill="#000000" stroke="#000000" stroke-width=".5" points="213.8415,-406.9343 219.1389,-406.9378 214.9999,-403.6315 213.8415,-406.9343"/>
</g>
<!-- MultilevelMesh -->
<g id="node16" class="node">
<title>MultilevelMesh</title>
<g id="a_node16"><a xlink:href="../api/proteus.MeshTools.html#proteus.MeshTools.MultilevelMesh" xlink:title="A hierchical multilevel mesh" target="_top">
<polygon fill="none" stroke="#000000" stroke-width=".5" points="295,-389 205,-389 205,-370 295,-370 295,-389"/>
<text text-anchor="middle" x="250" y="-377" font-family="Vera Sans, DejaVu Sans, Liberation Sans, Arial, Helvetica, sans" font-size="10.00" fill="#000000">MultilevelMesh</text>
</a>
</g>
</g>
<!-- Mesh&#45;&gt;MultilevelMesh -->
<g id="edge11" class="edge">
<title>Mesh&#45;&gt;MultilevelMesh</title>
<path fill="none" stroke="#000000" stroke-width=".5" d="M107.7331,-363.5527C132.503,-366.3292 169.684,-370.497 199.824,-373.8756"/>
<polygon fill="#000000" stroke="#000000" stroke-width=".5" points="199.8166,-375.6356 204.9805,-374.4536 200.2065,-372.1574 199.8166,-375.6356"/>
</g>
<!-- PointMesh -->
<g id="node25" class="node">
<title>PointMesh</title>
<g id="a_node25"><a xlink:href="../api/proteus.MeshTools.html#proteus.MeshTools.PointMesh" xlink:title="0D mesh" target="_top">
<polygon fill="none" stroke="#000000" stroke-width=".5" points="283.5,-352 216.5,-352 216.5,-333 283.5,-333 283.5,-352"/>
<text text-anchor="middle" x="250" y="-340" font-family="Vera Sans, DejaVu Sans, Liberation Sans, Arial, Helvetica, sans" font-size="10.00" fill="#000000">PointMesh</text>
</a>
</g>
</g>
<!-- Mesh&#45;&gt;PointMesh -->
<g id="edge19" class="edge">
<title>Mesh&#45;&gt;PointMesh</title>
<path fill="none" stroke="#000000" stroke-width=".5" d="M107.7331,-357.608C135.6877,-354.6394 179.45,-349.992 211.0589,-346.6353"/>
<polygon fill="#000000" stroke="#000000" stroke-width=".5" points="211.6301,-348.3346 216.4173,-346.0663 211.2604,-344.8542 211.6301,-348.3346"/>
</g>
<!-- QuadrilateralGrid -->
<g id="node28" class="node">
<title>QuadrilateralGrid</title>
<g id="a_node28"><a xlink:href="../api/proteus.MeshTools.html#proteus.MeshTools.QuadrilateralGrid" xlink:title="A 2D regular grid of quadrilateral cells" target="_top">
<polygon fill="none" stroke="#000000" stroke-width=".5" points="300.5,-315 199.5,-315 199.5,-296 300.5,-296 300.5,-315"/>
<text text-anchor="middle" x="250" y="-303" font-family="Vera Sans, DejaVu Sans, Liberation Sans, Arial, Helvetica, sans" font-size="10.00" fill="#000000">QuadrilateralGrid</text>
</a>
</g>
</g>
<!-- Mesh&#45;&gt;QuadrilateralGrid -->
<g id="edge23" class="edge">
<title>Mesh&#45;&gt;QuadrilateralGrid</title>
<path fill="none" stroke="#000000" stroke-width=".5" d="M107.7331,-351.6633C137.0468,-342.1515 183.7428,-326.9994 215.5799,-316.6688"/>
<polygon fill="#000000" stroke="#000000" stroke-width=".5" points="216.3413,-318.2616 220.557,-315.0538 215.261,-314.9325 216.3413,-318.2616"/>
</g>
<!-- QuadrilateralMesh -->
<g id="node29" class="node">
<title>QuadrilateralMesh</title>
<g id="a_node29"><a xlink:href="../api/proteus.MeshTools.html#proteus.MeshTools.QuadrilateralMesh" xlink:title="A mesh of quads" target="_top">
<polygon fill="none" stroke="#000000" stroke-width=".5" points="303,-278 197,-278 197,-259 303,-259 303,-278"/>
<text text-anchor="middle" x="250" y="-266" font-family="Vera Sans, DejaVu Sans, Liberation Sans, Arial, Helvetica, sans" font-size="10.00" fill="#000000">QuadrilateralMesh</text>
</a>
</g>
</g>
<!-- Mesh&#45;&gt;QuadrilateralMesh -->
<g id="edge24" class="edge">
<title>Mesh&#45;&gt;QuadrilateralMesh</title>
<path fill="none" stroke="#000000" stroke-width=".5" d="M93.587,-350.9767C114.5929,-336.0014 157.4924,-306.6813 197,-287.5 202.6331,-284.7651 208.7659,-282.2091 214.7956,-279.9138"/>
<polygon fill="#000000" stroke="#000000" stroke-width=".5" points="215.7438,-281.4287 219.8229,-278.0489 214.5264,-278.1472 215.7438,-281.4287"/>
</g>
<!-- RectangularGrid -->
<g id="node30" class="node">
<title>RectangularGrid</title>
<g id="a_node30"><a xlink:href="../api/proteus.MeshTools.html#proteus.MeshTools.RectangularGrid" xlink:title="A regular partition into rectangles." target="_top">
<polygon fill="none" stroke="#000000" stroke-width=".5" points="297.5,-241 202.5,-241 202.5,-222 297.5,-222 297.5,-241"/>
<text text-anchor="middle" x="250" y="-229" font-family="Vera Sans, DejaVu Sans, Liberation Sans, Arial, Helvetica, sans" font-size="10.00" fill="#000000">RectangularGrid</text>
</a>
</g>
</g>
<!-- Mesh&#45;&gt;RectangularGrid -->
<g id="edge25" class="edge">
<title>Mesh&#45;&gt;RectangularGrid</title>
<path fill="none" stroke="#000000" stroke-width=".5" d="M88.238,-350.8749C105.5941,-329.8633 149.8213,-279.4556 197,-250.5 201.6562,-247.6423 206.8055,-245.1268 212.0107,-242.9402"/>
<polygon fill="#000000" stroke="#000000" stroke-width=".5" points="212.8033,-244.508 216.7941,-241.0243 211.5019,-241.2589 212.8033,-244.508"/>
</g>
<!-- TetrahedralMesh -->
<g id="node31" class="node">
<title>TetrahedralMesh</title>
<g id="a_node31"><a xlink:href="../api/proteus.MeshTools.html#proteus.MeshTools.TetrahedralMesh" xlink:title="A mesh of tetrahedra." target="_top">
<polygon fill="none" stroke="#000000" stroke-width=".5" points="298.5,-204 201.5,-204 201.5,-185 298.5,-185 298.5,-204"/>
<text text-anchor="middle" x="250" y="-192" font-family="Vera Sans, DejaVu Sans, Liberation Sans, Arial, Helvetica, sans" font-size="10.00" fill="#000000">TetrahedralMesh</text>
</a>
</g>
</g>
<!-- Mesh&#45;&gt;TetrahedralMesh -->
<g id="edge26" class="edge">
<title>Mesh&#45;&gt;TetrahedralMesh</title>
<path fill="none" stroke="#000000" stroke-width=".5" d="M85.6513,-350.7243C99.8645,-324.6561 142.2343,-252.7987 197,-213.5 200.9907,-210.6364 205.4568,-208.1649 210.0579,-206.0419"/>
<polygon fill="#000000" stroke="#000000" stroke-width=".5" points="210.7998,-207.6277 214.6914,-204.0335 209.4078,-204.4164 210.7998,-207.6277"/>
</g>
<!-- TriangularMesh -->
<g id="node34" class="node">
<title>TriangularMesh</title>
<g id="a_node34"><a xlink:href="../api/proteus.MeshTools.html#proteus.MeshTools.TriangularMesh" xlink:title="A mesh of triangles" target="_top">
<polygon fill="none" stroke="#000000" stroke-width=".5" points="295,-167 205,-167 205,-148 295,-148 295,-167"/>
<text text-anchor="middle" x="250" y="-155" font-family="Vera Sans, DejaVu Sans, Liberation Sans, Arial, Helvetica, sans" font-size="10.00" fill="#000000">TriangularMesh</text>
</a>
</g>
</g>
<!-- Mesh&#45;&gt;TriangularMesh -->
<g id="edge29" class="edge">
<title>Mesh&#45;&gt;TriangularMesh</title>
<path fill="none" stroke="#000000" stroke-width=".5" d="M83.9361,-350.9312C95.2333,-320.7909 134.1415,-226.8431 197,-176.5 200.5298,-173.673 204.5149,-171.2472 208.6753,-169.17"/>
<polygon fill="#000000" stroke="#000000" stroke-width=".5" points="209.4459,-170.7417 213.2454,-167.0503 207.9731,-167.5666 209.4459,-170.7417"/>
</g>
<!-- NURBSMesh -->
<g id="node23" class="node">
<title>NURBSMesh</title>
<g id="a_node23"><a xlink:href="../api/proteus.MeshTools.html#proteus.MeshTools.NURBSMesh" xlink:title="A mesh consisting of NURBS." target="_top">
<polygon fill="none" stroke="#000000" stroke-width=".5" points="454.5,-537 377.5,-537 377.5,-518 454.5,-518 454.5,-537"/>
<text text-anchor="middle" x="416" y="-525" font-family="Vera Sans, DejaVu Sans, Liberation Sans, Arial, Helvetica, sans" font-size="10.00" fill="#000000">NURBSMesh</text>
</a>
</g>
</g>
<!-- HexahedralMesh&#45;&gt;NURBSMesh -->
<g id="edge18" class="edge">
<title>HexahedralMesh&#45;&gt;NURBSMesh</title>
<path fill="none" stroke="#000000" stroke-width=".5" d="M292.7491,-500.0284C317.1433,-505.4657 347.6581,-512.2672 372.2215,-517.7421"/>
<polygon fill="#000000" stroke="#000000" stroke-width=".5" points="372.1074,-519.5096 377.3683,-518.8893 372.8688,-516.0934 372.1074,-519.5096"/>
</g>
<!-- Hexahedron -->
<g id="node7" class="node">
<title>Hexahedron</title>
<g id="a_node7"><a xlink:href="../api/proteus.MeshTools.html#proteus.MeshTools.Hexahedron" xlink:title="A 3D hexahedral element" target="_top">
<polygon fill="none" stroke="#000000" stroke-width=".5" points="454,-130 378,-130 378,-111 454,-111 454,-130"/>
<text text-anchor="middle" x="416" y="-118" font-family="Vera Sans, DejaVu Sans, Liberation Sans, Arial, Helvetica, sans" font-size="10.00" fill="#000000">Hexahedron</text>
</a>
</g>
</g>
<!-- Polyhedron&#45;&gt;Hexahedron -->
<g id="edge5" class="edge">
<title>Polyhedron&#45;&gt;Hexahedron</title>
<path fill="none" stroke="#000000" stroke-width=".5" d="M285.6112,-91.4374C311.1711,-97.1345 345.748,-104.8414 372.8729,-110.8873"/>
<polygon fill="#000000" stroke="#000000" stroke-width=".5" points="372.5861,-112.6163 377.8471,-111.996 373.3476,-109.2001 372.5861,-112.6163"/>
</g>
<!-- Tetrahedron -->
<g id="node32" class="node">
<title>Tetrahedron</title>
<g id="a_node32"><a xlink:href="../api/proteus.MeshTools.html#proteus.MeshTools.Tetrahedron" xlink:title="A 3D tetrahedral element" target="_top">
<polygon fill="none" stroke="#000000" stroke-width=".5" points="453,-93 379,-93 379,-74 453,-74 453,-93"/>
<text text-anchor="middle" x="416" y="-81" font-family="Vera Sans, DejaVu Sans, Liberation Sans, Arial, Helvetica, sans" font-size="10.00" fill="#000000">Tetrahedron</text>
</a>
</g>
</g>
<!-- Polyhedron&#45;&gt;Tetrahedron -->
<g id="edge27" class="edge">
<title>Polyhedron&#45;&gt;Tetrahedron</title>
<path fill="none" stroke="#000000" stroke-width=".5" d="M285.6112,-83.5C311.333,-83.5 346.1864,-83.5 373.3873,-83.5"/>
<polygon fill="#000000" stroke="#000000" stroke-width=".5" points="373.7205,-85.2501 378.7205,-83.5 373.7205,-81.7501 373.7205,-85.2501"/>
</g>
<!-- InterpolatedBathymetryMesh -->
<g id="node9" class="node">
<title>InterpolatedBathymetryMesh</title>
<g id="a_node9"><a xlink:href="../api/proteus.MeshTools.html#proteus.MeshTools.InterpolatedBathymetryMesh" xlink:title="A triangular mesh that interpolates bathymetry from a point cloud" target="_top">
<polygon fill="none" stroke="#000000" stroke-width=".5" points="688,-500 529,-500 529,-481 688,-481 688,-500"/>
<text text-anchor="middle" x="608.5" y="-488" font-family="Vera Sans, DejaVu Sans, Liberation Sans, Arial, Helvetica, sans" font-size="10.00" fill="#000000">InterpolatedBathymetryMesh</text>
</a>
</g>
</g>
<!-- MultilevelTriangularMesh -->
<g id="node10" class="node">
<title>MultilevelTriangularMesh</title>
<g id="a_node10"><a xlink:href="../api/proteus.MeshTools.html#proteus.MeshTools.MultilevelTriangularMesh" xlink:title="A hierarchical &#160;multilevel mesh of triangular cells" target="_top">
<polygon fill="none" stroke="#000000" stroke-width=".5" points="485,-500 347,-500 347,-481 485,-481 485,-500"/>
<text text-anchor="middle" x="416" y="-488" font-family="Vera Sans, DejaVu Sans, Liberation Sans, Arial, Helvetica, sans" font-size="10.00" fill="#000000">MultilevelTriangularMesh</text>
</a>
</g>
</g>
<!-- MultilevelTriangularMesh&#45;&gt;InterpolatedBathymetryMesh -->
<g id="edge6" class="edge">
<title>MultilevelTriangularMesh&#45;&gt;InterpolatedBathymetryMesh</title>
<path fill="none" stroke="#000000" stroke-width=".5" d="M485.225,-490.5C497.6906,-490.5 510.8143,-490.5 523.6628,-490.5"/>
<polygon fill="#000000" stroke="#000000" stroke-width=".5" points="523.7628,-492.2501 528.7628,-490.5 523.7627,-488.7501 523.7628,-492.2501"/>
</g>
<!-- MeshOptions -->
<g id="node13" class="node">
<title>MeshOptions</title>
<g id="a_node13"><a xlink:href="../api/proteus.MeshTools.html#proteus.MeshTools.MeshOptions" xlink:title="Mesh options for the domain" target="_top">
<polygon fill="none" stroke="#000000" stroke-width=".5" points="120.5,-407 40.5,-407 40.5,-388 120.5,-388 120.5,-407"/>
<text text-anchor="middle" x="80.5" y="-395" font-family="Vera Sans, DejaVu Sans, Liberation Sans, Arial, Helvetica, sans" font-size="10.00" fill="#000000">MeshOptions</text>
</a>
</g>
</g>
<!-- MeshParallelPartitioningTypes -->
<g id="node14" class="node">
<title>MeshParallelPartitioningTypes</title>
<g id="a_node14"><a xlink:href="../api/proteus.MeshTools.html#proteus.MeshTools.MeshParallelPartitioningTypes" xlink:title="fake an enum for parallel partitioning options" target="_top">
<polygon fill="none" stroke="#000000" stroke-width=".5" points="161,-444 0,-444 0,-425 161,-425 161,-444"/>
<text text-anchor="middle" x="80.5" y="-432" font-family="Vera Sans, DejaVu Sans, Liberation Sans, Arial, Helvetica, sans" font-size="10.00" fill="#000000">MeshParallelPartitioningTypes</text>
</a>
</g>
</g>
<!-- MultilevelEdgeMesh -->
<g id="node15" class="node">
<title>MultilevelEdgeMesh</title>
<g id="a_node15"><a xlink:href="../api/proteus.MeshTools.html#proteus.MeshTools.MultilevelEdgeMesh" xlink:title="A hierarchical multilevel mesh of intervals (edges)" target="_top">
<polygon fill="none" stroke="#000000" stroke-width=".5" points="473,-463 359,-463 359,-444 473,-444 473,-463"/>
<text text-anchor="middle" x="416" y="-451" font-family="Vera Sans, DejaVu Sans, Liberation Sans, Arial, Helvetica, sans" font-size="10.00" fill="#000000">MultilevelEdgeMesh</text>
</a>
</g>
</g>
<!-- MultilevelMesh&#45;&gt;MultilevelTriangularMesh -->
<g id="edge17" class="edge">
<title>MultilevelMesh&#45;&gt;MultilevelTriangularMesh</title>
<path fill="none" stroke="#000000" stroke-width=".5" d="M288.2251,-389.0966C293.5773,-391.5643 298.7068,-394.6493 303,-398.5 330.2269,-422.9207 310.4195,-449.6782 339,-472.5 341.9502,-474.8557 345.1551,-476.9131 348.5259,-478.7089"/>
<polygon fill="#000000" stroke="#000000" stroke-width=".5" points="347.9561,-480.3781 353.217,-480.9992 349.4917,-477.233 347.9561,-480.3781"/>
</g>
<!-- MultilevelMesh&#45;&gt;MultilevelEdgeMesh -->
<g id="edge9" class="edge">
<title>MultilevelMesh&#45;&gt;MultilevelEdgeMesh</title>
<path fill="none" stroke="#000000" stroke-width=".5" d="M283.8868,-389.0437C290.4875,-391.6117 297.1633,-394.7452 303,-398.5 322.2959,-410.9132 319.025,-424.212 339,-435.5 343.6669,-438.1373 348.7015,-440.3889 353.8831,-442.311"/>
<polygon fill="#000000" stroke="#000000" stroke-width=".5" points="353.3792,-443.9886 358.6766,-443.9852 354.5333,-440.6843 353.3792,-443.9886"/>
</g>
<!-- MultilevelHexahedralMesh -->
<g id="node17" class="node">
<title>MultilevelHexahedralMesh</title>
<g id="a_node17"><a xlink:href="../api/proteus.MeshTools.html#proteus.MeshTools.MultilevelHexahedralMesh" xlink:title="A hierarchical multilevel mesh with hexahedral cells" target="_top">
<polygon fill="none" stroke="#000000" stroke-width=".5" points="489,-426 343,-426 343,-407 489,-407 489,-426"/>
<text text-anchor="middle" x="416" y="-414" font-family="Vera Sans, DejaVu Sans, Liberation Sans, Arial, Helvetica, sans" font-size="10.00" fill="#000000">MultilevelHexahedralMesh</text>
</a>
</g>
</g>
<!-- MultilevelMesh&#45;&gt;MultilevelHexahedralMesh -->
<g id="edge10" class="edge">
<title>MultilevelMesh&#45;&gt;MultilevelHexahedralMesh</title>
<path fill="none" stroke="#000000" stroke-width=".5" d="M292.7491,-389.0284C315.798,-394.1658 344.3111,-400.5211 368.1054,-405.8247"/>
<polygon fill="#000000" stroke="#000000" stroke-width=".5" points="367.8466,-407.5599 373.1076,-406.9396 368.6081,-404.1437 367.8466,-407.5599"/>
</g>
<!-- MultilevelNURBSMesh -->
<g id="node18" class="node">
<title>MultilevelNURBSMesh</title>
<g id="a_node18"><a xlink:href="../api/proteus.MeshTools.html#proteus.MeshTools.MultilevelNURBSMesh" xlink:title="MultilevelNURBSMesh" target="_top">
<polygon fill="none" stroke="#000000" stroke-width=".5" points="478.5,-389 353.5,-389 353.5,-370 478.5,-370 478.5,-389"/>
<text text-anchor="middle" x="416" y="-377" font-family="Vera Sans, DejaVu Sans, Liberation Sans, Arial, Helvetica, sans" font-size="10.00" fill="#000000">MultilevelNURBSMesh</text>
</a>
</g>
</g>
<!-- MultilevelMesh&#45;&gt;MultilevelNURBSMesh -->
<g id="edge12" class="edge">
<title>MultilevelMesh&#45;&gt;MultilevelNURBSMesh</title>
<path fill="none" stroke="#000000" stroke-width=".5" d="M295.3602,-379.5C311.5414,-379.5 330.1441,-379.5 347.8199,-379.5"/>
<polygon fill="#000000" stroke="#000000" stroke-width=".5" points="348.2721,-381.2501 353.2721,-379.5 348.2721,-377.7501 348.2721,-381.2501"/>
</g>
<!-- MultilevelQuadrilateralMesh -->
<g id="node19" class="node">
<title>MultilevelQuadrilateralMesh</title>
<g id="a_node19"><a xlink:href="../api/proteus.MeshTools.html#proteus.MeshTools.MultilevelQuadrilateralMesh" xlink:title="A heirarchical multilevel mesh of quadrilaterals" target="_top">
<polygon fill="none" stroke="#000000" stroke-width=".5" points="493,-352 339,-352 339,-333 493,-333 493,-352"/>
<text text-anchor="middle" x="416" y="-340" font-family="Vera Sans, DejaVu Sans, Liberation Sans, Arial, Helvetica, sans" font-size="10.00" fill="#000000">MultilevelQuadrilateralMesh</text>
</a>
</g>
</g>
<!-- MultilevelMesh&#45;&gt;MultilevelQuadrilateralMesh -->
<g id="edge13" class="edge">
<title>MultilevelMesh&#45;&gt;MultilevelQuadrilateralMesh</title>
<path fill="none" stroke="#000000" stroke-width=".5" d="M292.7491,-369.9716C315.798,-364.8342 344.3111,-358.4789 368.1054,-353.1753"/>
<polygon fill="#000000" stroke="#000000" stroke-width=".5" points="368.6081,-354.8563 373.1076,-352.0604 367.8466,-351.4401 368.6081,-354.8563"/>
</g>
<!-- MultilevelRectangularGrid -->
<g id="node20" class="node">
<title>MultilevelRectangularGrid</title>
<g id="a_node20"><a xlink:href="../api/proteus.MeshTools.html#proteus.MeshTools.MultilevelRectangularGrid" xlink:title="A hierarchical multilevel grid" target="_top">
<polygon fill="none" stroke="#000000" stroke-width=".5" points="487.5,-315 344.5,-315 344.5,-296 487.5,-296 487.5,-315"/>
<text text-anchor="middle" x="416" y="-303" font-family="Vera Sans, DejaVu Sans, Liberation Sans, Arial, Helvetica, sans" font-size="10.00" fill="#000000">MultilevelRectangularGrid</text>
</a>
</g>
</g>
<!-- MultilevelMesh&#45;&gt;MultilevelRectangularGrid -->
<g id="edge14" class="edge">
<title>MultilevelMesh&#45;&gt;MultilevelRectangularGrid</title>
<path fill="none" stroke="#000000" stroke-width=".5" d="M285.845,-369.9161C291.7997,-367.606 297.7415,-364.8207 303,-361.5 322.3996,-349.2495 319.0947,-335.9105 339,-324.5 344.3195,-321.4507 350.1183,-318.8873 356.0686,-316.7331"/>
<polygon fill="#000000" stroke="#000000" stroke-width=".5" points="356.9282,-318.2889 361.0953,-315.0181 355.798,-314.9764 356.9282,-318.2889"/>
</g>
<!-- MultilevelSimplicialMesh -->
<g id="node21" class="node">
<title>MultilevelSimplicialMesh</title>
<g id="a_node21"><a xlink:href="../api/proteus.MeshTools.html#proteus.MeshTools.MultilevelSimplicialMesh" xlink:title="A wrapper for all the simplicial hierarchical meshes in 1,2, and 3D" target="_top">
<polygon fill="none" stroke="#000000" stroke-width=".5" points="485,-278 347,-278 347,-259 485,-259 485,-278"/>
<text text-anchor="middle" x="416" y="-266" font-family="Vera Sans, DejaVu Sans, Liberation Sans, Arial, Helvetica, sans" font-size="10.00" fill="#000000">MultilevelSimplicialMesh</text>
</a>
</g>
</g>
<!-- MultilevelMesh&#45;&gt;MultilevelSimplicialMesh -->
<g id="edge15" class="edge">
<title>MultilevelMesh&#45;&gt;MultilevelSimplicialMesh</title>
<path fill="none" stroke="#000000" stroke-width=".5" d="M289.8388,-369.9211C294.6021,-367.674 299.1372,-364.9065 303,-361.5 330.4313,-337.3091 310.5601,-310.4968 339,-287.5 342.5382,-284.639 346.4461,-282.2 350.5692,-280.1217"/>
<polygon fill="#000000" stroke="#000000" stroke-width=".5" points="351.3245,-281.7005 355.1204,-278.0053 349.8487,-278.5269 351.3245,-281.7005"/>
</g>
<!-- MultilevelTetrahedralMesh -->
<g id="node22" class="node">
<title>MultilevelTetrahedralMesh</title>
<g id="a_node22"><a xlink:href="../api/proteus.MeshTools.html#proteus.MeshTools.MultilevelTetrahedralMesh" xlink:title="A hierarchical multilevel mesh with tetrahedral cells" target="_top">
<polygon fill="none" stroke="#000000" stroke-width=".5" points="488.5,-241 343.5,-241 343.5,-222 488.5,-222 488.5,-241"/>
<text text-anchor="middle" x="416" y="-229" font-family="Vera Sans, DejaVu Sans, Liberation Sans, Arial, Helvetica, sans" font-size="10.00" fill="#000000">MultilevelTetrahedralMesh</text>
</a>
</g>
</g>
<!-- MultilevelMesh&#45;&gt;MultilevelTetrahedralMesh -->
<g id="edge16" class="edge">
<title>MultilevelMesh&#45;&gt;MultilevelTetrahedralMesh</title>
<path fill="none" stroke="#000000" stroke-width=".5" d="M291.3596,-369.8755C295.6509,-367.6419 299.6563,-364.8901 303,-361.5 339.4192,-324.5755 301.0364,-285.8347 339,-250.5 341.841,-247.8557 344.9899,-245.5634 348.3444,-243.5777"/>
<polygon fill="#000000" stroke="#000000" stroke-width=".5" points="349.4611,-244.9643 353.0366,-241.0555 347.8039,-241.8814 349.4611,-244.9643"/>
</g>
<!-- Node -->
<g id="node24" class="node">
<title>Node</title>
<g id="a_node24"><a xlink:href="../api/proteus.MeshTools.html#proteus.MeshTools.Node" xlink:title="A numbered point in 3D Euclidean space" target="_top">
<polygon fill="none" stroke="#000000" stroke-width=".5" points="107.5,-481 53.5,-481 53.5,-462 107.5,-462 107.5,-481"/>
<text text-anchor="middle" x="80.5" y="-469" font-family="Vera Sans, DejaVu Sans, Liberation Sans, Arial, Helvetica, sans" font-size="10.00" fill="#000000">Node</text>
</a>
</g>
</g>
<!-- Quadrilateral -->
<g id="node27" class="node">
<title>Quadrilateral</title>
<g id="a_node27"><a xlink:href="../api/proteus.MeshTools.html#proteus.MeshTools.Quadrilateral" xlink:title="A 2D quadrilateral element" target="_top">
<polygon fill="none" stroke="#000000" stroke-width=".5" points="456,-56 376,-56 376,-37 456,-37 456,-56"/>
<text text-anchor="middle" x="416" y="-44" font-family="Vera Sans, DejaVu Sans, Liberation Sans, Arial, Helvetica, sans" font-size="10.00" fill="#000000">Quadrilateral</text>
</a>
</g>
</g>
<!-- Polygon&#45;&gt;Quadrilateral -->
<g id="edge22" class="edge">
<title>Polygon&#45;&gt;Quadrilateral</title>
<path fill="none" stroke="#000000" stroke-width=".5" d="M278.1596,-46.5C303.5179,-46.5 341.2379,-46.5 370.8121,-46.5"/>
<polygon fill="#000000" stroke="#000000" stroke-width=".5" points="370.8591,-48.2501 375.859,-46.5 370.859,-44.7501 370.8591,-48.2501"/>
</g>
<!-- Triangle -->
<g id="node33" class="node">
<title>Triangle</title>
<g id="a_node33"><a xlink:href="../api/proteus.MeshTools.html#proteus.MeshTools.Triangle" xlink:title="A 2D triangular element" target="_top">
<polygon fill="none" stroke="#000000" stroke-width=".5" points="443.5,-19 388.5,-19 388.5,0 443.5,0 443.5,-19"/>
<text text-anchor="middle" x="416" y="-7" font-family="Vera Sans, DejaVu Sans, Liberation Sans, Arial, Helvetica, sans" font-size="10.00" fill="#000000">Triangle</text>
</a>
</g>
</g>
<!-- Polygon&#45;&gt;Triangle -->
<g id="edge28" class="edge">
<title>Polygon&#45;&gt;Triangle</title>
<path fill="none" stroke="#000000" stroke-width=".5" d="M278.1596,-40.2235C307.1905,-33.7527 352.423,-23.6708 383.0867,-16.8361"/>
<polygon fill="#000000" stroke="#000000" stroke-width=".5" points="383.7567,-18.4798 388.2562,-15.6839 382.9952,-15.0636 383.7567,-18.4798"/>
</g>
</g>
</svg>
