<?xml version="1.0" encoding="UTF-8" standalone="no"?>
<!DOCTYPE svg PUBLIC "-//W3C//DTD SVG 1.1//EN"
 "http://www.w3.org/Graphics/SVG/1.1/DTD/svg11.dtd">
<!-- Generated by graphviz version 2.40.1 (20161225.0304)
 -->
<!-- Title: inheritance44a015191f Pages: 1 -->
<svg width="205pt" height="249pt"
 viewBox="0.00 0.00 205.00 249.00" xmlns="http://www.w3.org/2000/svg" xmlns:xlink="http://www.w3.org/1999/xlink">
<g id="graph0" class="graph" transform="scale(1 1) rotate(0) translate(4 245)">
<title>inheritance44a015191f</title>
<polygon fill="#ffffff" stroke="transparent" points="-4,4 -4,-245 201,-245 201,4 -4,4"/>
<!-- BCContainer -->
<g id="node1" class="node">
<title>BCContainer</title>
<g id="a_node1"><a xlink:href="../api/proteus.SpatialTools.html#proteus.SpatialTools.BCContainer" xlink:title="Creates a class from a dictionary (keys become class variable names)" target="_top">
<polygon fill="none" stroke="#000000" stroke-width=".5" points="77,-93 0,-93 0,-74 77,-74 77,-93"/>
<text text-anchor="middle" x="38.5" y="-81" font-family="Vera Sans, DejaVu Sans, Liberation Sans, Arial, Helvetica, sans" font-size="10.00" fill="#000000">BCContainer</text>
</a>
</g>
</g>
<!-- Circle -->
<g id="node2" class="node">
<title>Circle</title>
<g id="a_node2"><a xlink:href="../api/proteus.SpatialTools.html#proteus.SpatialTools.Circle" xlink:title="Class to create a circular shape." target="_top">
<polygon fill="none" stroke="#000000" stroke-width=".5" points="182,-241 128,-241 128,-222 182,-222 182,-241"/>
<text text-anchor="middle" x="155" y="-229" font-family="Vera Sans, DejaVu Sans, Liberation Sans, Arial, Helvetica, sans" font-size="10.00" fill="#000000">Circle</text>
</a>
</g>
</g>
<!-- Shape -->
<g id="node3" class="node">
<title>Shape</title>
<g id="a_node3"><a xlink:href="../api/proteus.SpatialTools.html#proteus.SpatialTools.Shape" xlink:title="Base/super class of all shapes." target="_top">
<polygon fill="none" stroke="#000000" stroke-width=".5" points="65.5,-130 11.5,-130 11.5,-111 65.5,-111 65.5,-130"/>
<text text-anchor="middle" x="38.5" y="-118" font-family="Vera Sans, DejaVu Sans, Liberation Sans, Arial, Helvetica, sans" font-size="10.00" fill="#000000">Shape</text>
</a>
</g>
</g>
<!-- Shape&#45;&gt;Circle -->
<g id="edge1" class="edge">
<title>Shape&#45;&gt;Circle</title>
<path fill="none" stroke="#000000" stroke-width=".5" d="M44.0406,-130.2337C55.0135,-148.746 81.2182,-189.332 113,-213.5 116.039,-215.8109 119.4196,-217.8891 122.9061,-219.7404"/>
<polygon fill="#000000" stroke="#000000" stroke-width=".5" points="122.4474,-221.4666 127.7038,-222.1248 124.0051,-218.3323 122.4474,-221.4666"/>
</g>
<!-- Cuboid -->
<g id="node4" class="node">
<title>Cuboid</title>
<g id="a_node4"><a xlink:href="../api/proteus.SpatialTools.html#proteus.SpatialTools.Cuboid" xlink:title="Class to create a 3D cuboid" target="_top">
<polygon fill="none" stroke="#000000" stroke-width=".5" points="182,-204 128,-204 128,-185 182,-185 182,-204"/>
<text text-anchor="middle" x="155" y="-192" font-family="Vera Sans, DejaVu Sans, Liberation Sans, Arial, Helvetica, sans" font-size="10.00" fill="#000000">Cuboid</text>
</a>
</g>
</g>
<!-- Shape&#45;&gt;Cuboid -->
<g id="edge2" class="edge">
<title>Shape&#45;&gt;Cuboid</title>
<path fill="none" stroke="#000000" stroke-width=".5" d="M49.5197,-130.1277C63.5629,-142.0709 88.9138,-162.5574 113,-176.5 116.9328,-178.7766 121.2084,-180.9355 125.4765,-182.9155"/>
<polygon fill="#000000" stroke="#000000" stroke-width=".5" points="124.8106,-184.5349 130.0884,-184.9909 126.247,-181.3431 124.8106,-184.5349"/>
</g>
<!-- CustomShape -->
<g id="node5" class="node">
<title>CustomShape</title>
<g id="a_node5"><a xlink:href="../api/proteus.SpatialTools.html#proteus.SpatialTools.CustomShape" xlink:title="Class to create a custom 2D or 3D shape" target="_top">
<polygon fill="none" stroke="#000000" stroke-width=".5" points="197,-167 113,-167 113,-148 197,-148 197,-167"/>
<text text-anchor="middle" x="155" y="-155" font-family="Vera Sans, DejaVu Sans, Liberation Sans, Arial, Helvetica, sans" font-size="10.00" fill="#000000">CustomShape</text>
</a>
</g>
</g>
<!-- Shape&#45;&gt;CustomShape -->
<g id="edge3" class="edge">
<title>Shape&#45;&gt;CustomShape</title>
<path fill="none" stroke="#000000" stroke-width=".5" d="M65.5203,-129.0815C81.7407,-134.2331 102.548,-140.8414 120.0153,-146.389"/>
<polygon fill="#000000" stroke="#000000" stroke-width=".5" points="119.5517,-148.0778 124.8468,-147.9235 120.6112,-144.742 119.5517,-148.0778"/>
</g>
<!-- Cylinder -->
<g id="node6" class="node">
<title>Cylinder</title>
<g id="a_node6"><a xlink:href="../api/proteus.SpatialTools.html#proteus.SpatialTools.Cylinder" xlink:title="Class to create a cylinder." target="_top">
<polygon fill="none" stroke="#000000" stroke-width=".5" points="183.5,-130 126.5,-130 126.5,-111 183.5,-111 183.5,-130"/>
<text text-anchor="middle" x="155" y="-118" font-family="Vera Sans, DejaVu Sans, Liberation Sans, Arial, Helvetica, sans" font-size="10.00" fill="#000000">Cylinder</text>
</a>
</g>
</g>
<!-- Shape&#45;&gt;Cylinder -->
<g id="edge4" class="edge">
<title>Shape&#45;&gt;Cylinder</title>
<path fill="none" stroke="#000000" stroke-width=".5" d="M65.5203,-120.5C81.9675,-120.5 103.1309,-120.5 120.7462,-120.5"/>
<polygon fill="#000000" stroke="#000000" stroke-width=".5" points="121.09,-122.2501 126.09,-120.5 121.09,-118.7501 121.09,-122.2501"/>
</g>
<!-- Rectangle -->
<g id="node7" class="node">
<title>Rectangle</title>
<g id="a_node7"><a xlink:href="../api/proteus.SpatialTools.html#proteus.SpatialTools.Rectangle" xlink:title="Class to create a rectangle" target="_top">
<polygon fill="none" stroke="#000000" stroke-width=".5" points="187.5,-93 122.5,-93 122.5,-74 187.5,-74 187.5,-93"/>
<text text-anchor="middle" x="155" y="-81" font-family="Vera Sans, DejaVu Sans, Liberation Sans, Arial, Helvetica, sans" font-size="10.00" fill="#000000">Rectangle</text>
</a>
</g>
</g>
<!-- Shape&#45;&gt;Rectangle -->
<g id="edge5" class="edge">
<title>Shape&#45;&gt;Rectangle</title>
<path fill="none" stroke="#000000" stroke-width=".5" d="M65.5203,-111.9185C81.7407,-106.7669 102.548,-100.1586 120.0153,-94.611"/>
<polygon fill="#000000" stroke="#000000" stroke-width=".5" points="120.6112,-96.258 124.8468,-93.0765 119.5517,-92.9222 120.6112,-96.258"/>
</g>
<!-- ShapeSTL -->
<g id="node8" class="node">
<title>ShapeSTL</title>
<g id="a_node8"><a xlink:href="../api/proteus.SpatialTools.html#proteus.SpatialTools.ShapeSTL" xlink:title="Class to extract geometrical information from STL file" target="_top">
<polygon fill="none" stroke="#000000" stroke-width=".5" points="187,-56 123,-56 123,-37 187,-37 187,-56"/>
<text text-anchor="middle" x="155" y="-44" font-family="Vera Sans, DejaVu Sans, Liberation Sans, Arial, Helvetica, sans" font-size="10.00" fill="#000000">ShapeSTL</text>
</a>
</g>
</g>
<!-- Shape&#45;&gt;ShapeSTL -->
<g id="edge6" class="edge">
<title>Shape&#45;&gt;ShapeSTL</title>
<path fill="none" stroke="#000000" stroke-width=".5" d="M62.4622,-110.941C67.4564,-108.5036 72.5505,-105.6646 77,-102.5 95.6972,-89.2021 94.22,-78.6807 113,-65.5 116.7523,-62.8665 120.9282,-60.4602 125.1503,-58.3113"/>
<polygon fill="#000000" stroke="#000000" stroke-width=".5" points="126.0016,-59.8434 129.7319,-56.0821 124.4702,-56.6961 126.0016,-59.8434"/>
</g>
<!-- Sphere -->
<g id="node9" class="node">
<title>Sphere</title>
<g id="a_node9"><a xlink:href="../api/proteus.SpatialTools.html#proteus.SpatialTools.Sphere" xlink:title="Class to create a 3D cuboid" target="_top">
<polygon fill="none" stroke="#000000" stroke-width=".5" points="182,-19 128,-19 128,0 182,0 182,-19"/>
<text text-anchor="middle" x="155" y="-7" font-family="Vera Sans, DejaVu Sans, Liberation Sans, Arial, Helvetica, sans" font-size="10.00" fill="#000000">Sphere</text>
</a>
</g>
</g>
<!-- Shape&#45;&gt;Sphere -->
<g id="edge7" class="edge">
<title>Shape&#45;&gt;Sphere</title>
<path fill="none" stroke="#000000" stroke-width=".5" d="M65.3063,-110.9036C69.5466,-108.5949 73.6352,-105.8132 77,-102.5 103.0608,-76.8385 86.7792,-53.998 113,-28.5 116.0517,-25.5325 119.6482,-22.9779 123.4316,-20.7927"/>
<polygon fill="#000000" stroke="#000000" stroke-width=".5" points="124.3456,-22.2887 127.9372,-18.3946 122.7012,-19.199 124.3456,-22.2887"/>
</g>
</g>
</svg>
