<?xml version="1.0" encoding="UTF-8" standalone="no"?>
<!DOCTYPE svg PUBLIC "-//W3C//DTD SVG 1.1//EN"
 "http://www.w3.org/Graphics/SVG/1.1/DTD/svg11.dtd">
<!-- Generated by graphviz version 2.40.1 (20161225.0304)
 -->
<!-- Title: inheritance51f61a8c20 Pages: 1 -->
<svg width="455pt" height="101pt"
 viewBox="0.00 0.00 455.00 101.00" xmlns="http://www.w3.org/2000/svg" xmlns:xlink="http://www.w3.org/1999/xlink">
<g id="graph0" class="graph" transform="scale(1 1) rotate(0) translate(4 97)">
<title>inheritance51f61a8c20</title>
<polygon fill="#ffffff" stroke="transparent" points="-4,4 -4,-97 451,-97 451,4 -4,4"/>
<!-- TC_base -->
<g id="node1" class="node">
<title>TC_base</title>
<g id="a_node1"><a xlink:href="../proteus.TransportCoefficients.html#proteus.TransportCoefficients.TC_base" xlink:title="This is the base class for coefficients of the vector transport" target="_top">
<polygon fill="none" stroke="#000000" stroke-width=".5" points="57,-56 0,-56 0,-37 57,-37 57,-56"/>
<text text-anchor="middle" x="28.5" y="-44" font-family="Vera Sans, DejaVu Sans, Liberation Sans, Arial, Helvetica, sans" font-size="10.00" fill="#000000">TC_base</text>
</a>
</g>
</g>
<!-- TwophaseDarcyFlow_base -->
<g id="node2" class="node">
<title>TwophaseDarcyFlow_base</title>
<g id="a_node2"><a xlink:href="../api/proteus.TwophaseDarcyCoefficients.html#proteus.TwophaseDarcyCoefficients.TwophaseDarcyFlow_base" xlink:title="TwophaseDarcyFlow_base" target="_top">
<polygon fill="none" stroke="#000000" stroke-width=".5" points="237,-56 93,-56 93,-37 237,-37 237,-56"/>
<text text-anchor="middle" x="165" y="-44" font-family="Vera Sans, DejaVu Sans, Liberation Sans, Arial, Helvetica, sans" font-size="10.00" fill="#000000">TwophaseDarcyFlow_base</text>
</a>
</g>
</g>
<!-- TC_base&#45;&gt;TwophaseDarcyFlow_base -->
<g id="edge1" class="edge">
<title>TC_base&#45;&gt;TwophaseDarcyFlow_base</title>
<path fill="none" stroke="#000000" stroke-width=".5" d="M57.1149,-46.5C66.267,-46.5 76.8742,-46.5 87.7927,-46.5"/>
<polygon fill="#000000" stroke="#000000" stroke-width=".5" points="87.8271,-48.2501 92.8271,-46.5 87.8271,-44.7501 87.8271,-48.2501"/>
</g>
<!-- TwophaseDarcy_fc -->
<g id="node3" class="node">
<title>TwophaseDarcy_fc</title>
<g id="a_node3"><a xlink:href="../api/proteus.TwophaseDarcyCoefficients.html#proteus.TwophaseDarcyCoefficients.TwophaseDarcy_fc" xlink:title="TwophaseDarcy_fc" target="_top">
<polygon fill="none" stroke="#000000" stroke-width=".5" points="413.5,-93 306.5,-93 306.5,-74 413.5,-74 413.5,-93"/>
<text text-anchor="middle" x="360" y="-81" font-family="Vera Sans, DejaVu Sans, Liberation Sans, Arial, Helvetica, sans" font-size="10.00" fill="#000000">TwophaseDarcy_fc</text>
</a>
</g>
</g>
<!-- TwophaseDarcyFlow_base&#45;&gt;TwophaseDarcy_fc -->
<g id="edge2" class="edge">
<title>TwophaseDarcyFlow_base&#45;&gt;TwophaseDarcy_fc</title>
<path fill="none" stroke="#000000" stroke-width=".5" d="M215.2173,-56.0284C242.5194,-61.2088 276.3481,-67.6276 304.4388,-72.9576"/>
<polygon fill="#000000" stroke="#000000" stroke-width=".5" points="304.3757,-74.7268 309.6143,-73.9396 305.0282,-71.2881 304.3757,-74.7268"/>
</g>
<!-- TwophaseDarcy_split_pressure -->
<g id="node4" class="node">
<title>TwophaseDarcy_split_pressure</title>
<g id="a_node4"><a xlink:href="../api/proteus.TwophaseDarcyCoefficients.html#proteus.TwophaseDarcyCoefficients.TwophaseDarcy_split_pressure" xlink:title="TwophaseDarcy_split_pressure" target="_top">
<polygon fill="none" stroke="#000000" stroke-width=".5" points="443.5,-56 276.5,-56 276.5,-37 443.5,-37 443.5,-56"/>
<text text-anchor="middle" x="360" y="-44" font-family="Vera Sans, DejaVu Sans, Liberation Sans, Arial, Helvetica, sans" font-size="10.00" fill="#000000">TwophaseDarcy_split_pressure</text>
</a>
</g>
</g>
<!-- TwophaseDarcyFlow_base&#45;&gt;TwophaseDarcy_split_pressure -->
<g id="edge3" class="edge">
<title>TwophaseDarcyFlow_base&#45;&gt;TwophaseDarcy_split_pressure</title>
<path fill="none" stroke="#000000" stroke-width=".5" d="M237.0568,-46.5C248.1586,-46.5 259.7337,-46.5 271.1493,-46.5"/>
<polygon fill="#000000" stroke="#000000" stroke-width=".5" points="271.3809,-48.2501 276.3809,-46.5 271.3808,-44.7501 271.3809,-48.2501"/>
</g>
<!-- TwophaseDarcy_split_saturation -->
<g id="node5" class="node">
<title>TwophaseDarcy_split_saturation</title>
<g id="a_node5"><a xlink:href="../api/proteus.TwophaseDarcyCoefficients.html#proteus.TwophaseDarcyCoefficients.TwophaseDarcy_split_saturation" xlink:title="TwophaseDarcy_split_saturation" target="_top">
<polygon fill="none" stroke="#000000" stroke-width=".5" points="447,-19 273,-19 273,0 447,0 447,-19"/>
<text text-anchor="middle" x="360" y="-7" font-family="Vera Sans, DejaVu Sans, Liberation Sans, Arial, Helvetica, sans" font-size="10.00" fill="#000000">TwophaseDarcy_split_saturation</text>
</a>
</g>
</g>
<!-- TwophaseDarcyFlow_base&#45;&gt;TwophaseDarcy_split_saturation -->
<g id="edge4" class="edge">
<title>TwophaseDarcyFlow_base&#45;&gt;TwophaseDarcy_split_saturation</title>
<path fill="none" stroke="#000000" stroke-width=".5" d="M215.2173,-36.9716C242.5194,-31.7912 276.3481,-25.3724 304.4388,-20.0424"/>
<polygon fill="#000000" stroke="#000000" stroke-width=".5" points="305.0282,-21.7119 309.6143,-19.0604 304.3757,-18.2732 305.0282,-21.7119"/>
</g>
</g>
</svg>
