<?xml version="1.0" encoding="UTF-8" standalone="no"?>
<!DOCTYPE svg PUBLIC "-//W3C//DTD SVG 1.1//EN"
 "http://www.w3.org/Graphics/SVG/1.1/DTD/svg11.dtd">
<!-- Generated by graphviz version 2.40.1 (20161225.0304)
 -->
<!-- Title: inheritancecaff6f4bb2 Pages: 1 -->
<svg width="265pt" height="175pt"
 viewBox="0.00 0.00 265.00 175.00" xmlns="http://www.w3.org/2000/svg" xmlns:xlink="http://www.w3.org/1999/xlink">
<g id="graph0" class="graph" transform="scale(1 1) rotate(0) translate(4 171)">
<title>inheritancecaff6f4bb2</title>
<polygon fill="#ffffff" stroke="transparent" points="-4,4 -4,-171 261,-171 261,4 -4,4"/>
<!-- BuckleyLeverett -->
<g id="node1" class="node">
<title>BuckleyLeverett</title>
<g id="a_node1"><a xlink:href="../api/proteus.ObjectiveFunctions.html#proteus.ObjectiveFunctions.BuckleyLeverett" xlink:title="BuckleyLeverett" target="_top">
<polygon fill="none" stroke="#000000" stroke-width=".5" points="114,-56 18,-56 18,-37 114,-37 114,-56"/>
<text text-anchor="middle" x="66" y="-44" font-family="Vera Sans, DejaVu Sans, Liberation Sans, Arial, Helvetica, sans" font-size="10.00" fill="#000000">BuckleyLeverett</text>
</a>
</g>
</g>
<!-- ObjectiveFunction_base -->
<g id="node2" class="node">
<title>ObjectiveFunction_base</title>
<g id="a_node2"><a xlink:href="../proteus.Optimizers.html#proteus.Optimizers.ObjectiveFunction_base" xlink:title="ObjectiveFunction_base" target="_top">
<polygon fill="none" stroke="#000000" stroke-width=".5" points="132,-93 0,-93 0,-74 132,-74 132,-93"/>
<text text-anchor="middle" x="66" y="-81" font-family="Vera Sans, DejaVu Sans, Liberation Sans, Arial, Helvetica, sans" font-size="10.00" fill="#000000">ObjectiveFunction_base</text>
</a>
</g>
</g>
<!-- OsherFunc -->
<g id="node3" class="node">
<title>OsherFunc</title>
<g id="a_node3"><a xlink:href="../api/proteus.ObjectiveFunctions.html#proteus.ObjectiveFunctions.OsherFunc" xlink:title="OsherFunc" target="_top">
<polygon fill="none" stroke="#000000" stroke-width=".5" points="246,-167 179,-167 179,-148 246,-148 246,-167"/>
<text text-anchor="middle" x="212.5" y="-155" font-family="Vera Sans, DejaVu Sans, Liberation Sans, Arial, Helvetica, sans" font-size="10.00" fill="#000000">OsherFunc</text>
</a>
</g>
</g>
<!-- ObjectiveFunction_base&#45;&gt;OsherFunc -->
<g id="edge1" class="edge">
<title>ObjectiveFunction_base&#45;&gt;OsherFunc</title>
<path fill="none" stroke="#000000" stroke-width=".5" d="M81.9464,-93.0216C101.7662,-104.6757 136.7932,-124.685 168,-139.5 172.63,-141.698 177.6037,-143.8788 182.4886,-145.9238"/>
<polygon fill="#000000" stroke="#000000" stroke-width=".5" points="182.0384,-147.631 187.328,-147.919 183.3726,-144.3952 182.0384,-147.631"/>
</g>
<!-- OsherFuncCoef -->
<g id="node4" class="node">
<title>OsherFuncCoef</title>
<g id="a_node4"><a xlink:href="../api/proteus.ObjectiveFunctions.html#proteus.ObjectiveFunctions.OsherFuncCoef" xlink:title="OsherFuncCoef" target="_top">
<polygon fill="none" stroke="#000000" stroke-width=".5" points="257,-130 168,-130 168,-111 257,-111 257,-130"/>
<text text-anchor="middle" x="212.5" y="-118" font-family="Vera Sans, DejaVu Sans, Liberation Sans, Arial, Helvetica, sans" font-size="10.00" fill="#000000">OsherFuncCoef</text>
</a>
</g>
</g>
<!-- ObjectiveFunction_base&#45;&gt;OsherFuncCoef -->
<g id="edge2" class="edge">
<title>ObjectiveFunction_base&#45;&gt;OsherFuncCoef</title>
<path fill="none" stroke="#000000" stroke-width=".5" d="M103.7274,-93.0284C123.8985,-98.1228 148.8116,-104.4149 169.7035,-109.6913"/>
<polygon fill="#000000" stroke="#000000" stroke-width=".5" points="169.3698,-111.4119 174.6461,-110.9396 170.2269,-108.0185 169.3698,-111.4119"/>
</g>
<!-- SimpelFunc -->
<g id="node5" class="node">
<title>SimpelFunc</title>
<g id="a_node5"><a xlink:href="../api/proteus.ObjectiveFunctions.html#proteus.ObjectiveFunctions.SimpelFunc" xlink:title="SimpelFunc" target="_top">
<polygon fill="none" stroke="#000000" stroke-width=".5" points="248.5,-93 176.5,-93 176.5,-74 248.5,-74 248.5,-93"/>
<text text-anchor="middle" x="212.5" y="-81" font-family="Vera Sans, DejaVu Sans, Liberation Sans, Arial, Helvetica, sans" font-size="10.00" fill="#000000">SimpelFunc</text>
</a>
</g>
</g>
<!-- ObjectiveFunction_base&#45;&gt;SimpelFunc -->
<g id="edge3" class="edge">
<title>ObjectiveFunction_base&#45;&gt;SimpelFunc</title>
<path fill="none" stroke="#000000" stroke-width=".5" d="M132.3918,-83.5C145.6405,-83.5 159.1911,-83.5 171.2895,-83.5"/>
<polygon fill="#000000" stroke="#000000" stroke-width=".5" points="171.3805,-85.2501 176.3805,-83.5 171.3805,-81.7501 171.3805,-85.2501"/>
</g>
<!-- SimpelFunc2 -->
<g id="node6" class="node">
<title>SimpelFunc2</title>
<g id="a_node6"><a xlink:href="../api/proteus.ObjectiveFunctions.html#proteus.ObjectiveFunctions.SimpelFunc2" xlink:title="SimpelFunc2" target="_top">
<polygon fill="none" stroke="#000000" stroke-width=".5" points="251.5,-56 173.5,-56 173.5,-37 251.5,-37 251.5,-56"/>
<text text-anchor="middle" x="212.5" y="-44" font-family="Vera Sans, DejaVu Sans, Liberation Sans, Arial, Helvetica, sans" font-size="10.00" fill="#000000">SimpelFunc2</text>
</a>
</g>
</g>
<!-- ObjectiveFunction_base&#45;&gt;SimpelFunc2 -->
<g id="edge4" class="edge">
<title>ObjectiveFunction_base&#45;&gt;SimpelFunc2</title>
<path fill="none" stroke="#000000" stroke-width=".5" d="M103.7274,-73.9716C123.8985,-68.8772 148.8116,-62.5851 169.7035,-57.3087"/>
<polygon fill="#000000" stroke="#000000" stroke-width=".5" points="170.2269,-58.9815 174.6461,-56.0604 169.3698,-55.5881 170.2269,-58.9815"/>
</g>
<!-- SimpelFunc3 -->
<g id="node7" class="node">
<title>SimpelFunc3</title>
<g id="a_node7"><a xlink:href="../api/proteus.ObjectiveFunctions.html#proteus.ObjectiveFunctions.SimpelFunc3" xlink:title="SimpelFunc3" target="_top">
<polygon fill="none" stroke="#000000" stroke-width=".5" points="251.5,-19 173.5,-19 173.5,0 251.5,0 251.5,-19"/>
<text text-anchor="middle" x="212.5" y="-7" font-family="Vera Sans, DejaVu Sans, Liberation Sans, Arial, Helvetica, sans" font-size="10.00" fill="#000000">SimpelFunc3</text>
</a>
</g>
</g>
<!-- ObjectiveFunction_base&#45;&gt;SimpelFunc3 -->
<g id="edge5" class="edge">
<title>ObjectiveFunction_base&#45;&gt;SimpelFunc3</title>
<path fill="none" stroke="#000000" stroke-width=".5" d="M113.416,-73.8918C119.8894,-71.6389 126.2705,-68.8776 132,-65.5 151.765,-53.8482 149.0807,-41.48 168,-28.5 171.8661,-25.8476 176.1616,-23.4486 180.5155,-21.3187"/>
<polygon fill="#000000" stroke="#000000" stroke-width=".5" points="181.453,-22.8125 185.2453,-19.1137 179.9741,-19.6403 181.453,-22.8125"/>
</g>
</g>
</svg>
