<?xml version="1.0" encoding="UTF-8" standalone="no"?>
<!DOCTYPE svg PUBLIC "-//W3C//DTD SVG 1.1//EN"
 "http://www.w3.org/Graphics/SVG/1.1/DTD/svg11.dtd">
<!-- Generated by graphviz version 2.42.3 (0)
 -->
<!-- Title: inheritance44a015191f Pages: 1 -->
<svg width="205pt" height="249pt"
 viewBox="0.00 0.00 205.00 249.00" xmlns="http://www.w3.org/2000/svg" xmlns:xlink="http://www.w3.org/1999/xlink">
<g id="graph0" class="graph" transform="scale(1 1) rotate(0) translate(4 245)">
<title>inheritance44a015191f</title>
<polygon fill="white" stroke="transparent" points="-4,4 -4,-245 201,-245 201,4 -4,4"/>
<!-- BCContainer -->
<g id="node1" class="node">
<title>BCContainer</title>
<g id="a_node1"><a xlink:href="../api/proteus.SpatialTools.html#proteus.SpatialTools.BCContainer" xlink:title="Creates a class from a dictionary (keys become class variable names)" target="_top">
<polygon fill="none" stroke="black" stroke-width="0.5" points="77,-93 0,-93 0,-74 77,-74 77,-93"/>
<text text-anchor="middle" x="38.5" y="-81" font-family="Vera Sans, DejaVu Sans, Liberation Sans, Arial, Helvetica, sans" font-size="10.00">BCContainer</text>
</a>
</g>
</g>
<!-- Circle -->
<g id="node2" class="node">
<title>Circle</title>
<g id="a_node2"><a xlink:href="../api/proteus.SpatialTools.html#proteus.SpatialTools.Circle" xlink:title="Class to create a circular shape." target="_top">
<polygon fill="none" stroke="black" stroke-width="0.5" points="182,-241 128,-241 128,-222 182,-222 182,-241"/>
<text text-anchor="middle" x="155" y="-229" font-family="Vera Sans, DejaVu Sans, Liberation Sans, Arial, Helvetica, sans" font-size="10.00">Circle</text>
</a>
</g>
</g>
<!-- Shape -->
<g id="node3" class="node">
<title>Shape</title>
<g id="a_node3"><a xlink:href="../api/proteus.SpatialTools.html#proteus.SpatialTools.Shape" xlink:title="Base/super class of all shapes." target="_top">
<polygon fill="none" stroke="black" stroke-width="0.5" points="65.5,-130 11.5,-130 11.5,-111 65.5,-111 65.5,-130"/>
<text text-anchor="middle" x="38.5" y="-118" font-family="Vera Sans, DejaVu Sans, Liberation Sans, Arial, Helvetica, sans" font-size="10.00">Shape</text>
</a>
</g>
</g>
<!-- Shape&#45;&gt;Circle -->
<g id="edge1" class="edge">
<title>Shape&#45;&gt;Circle</title>
<path fill="none" stroke="black" stroke-width="0.5" d="M44.95,-130.21C55.76,-148.69 81.57,-189.22 113,-213.5 116.05,-215.85 119.45,-217.97 122.95,-219.85"/>
<polygon fill="black" stroke="black" stroke-width="0.5" points="122.52,-221.59 127.77,-222.27 124.09,-218.46 122.52,-221.59"/>
</g>
<!-- Cuboid -->
<g id="node4" class="node">
<title>Cuboid</title>
<g id="a_node4"><a xlink:href="../api/proteus.SpatialTools.html#proteus.SpatialTools.Cuboid" xlink:title="Class to create a 3D cuboid" target="_top">
<polygon fill="none" stroke="black" stroke-width="0.5" points="182,-204 128,-204 128,-185 182,-185 182,-204"/>
<text text-anchor="middle" x="155" y="-192" font-family="Vera Sans, DejaVu Sans, Liberation Sans, Arial, Helvetica, sans" font-size="10.00">Cuboid</text>
</a>
</g>
</g>
<!-- Shape&#45;&gt;Cuboid -->
<g id="edge2" class="edge">
<title>Shape&#45;&gt;Cuboid</title>
<path fill="none" stroke="black" stroke-width="0.5" d="M50.37,-130.11C64.22,-142.03 89.23,-162.49 113,-176.5 116.76,-178.71 120.83,-180.82 124.91,-182.76"/>
<polygon fill="black" stroke="black" stroke-width="0.5" points="124.4,-184.45 129.68,-184.96 125.87,-181.28 124.4,-184.45"/>
</g>
<!-- CustomShape -->
<g id="node5" class="node">
<title>CustomShape</title>
<g id="a_node5"><a xlink:href="../api/proteus.SpatialTools.html#proteus.SpatialTools.CustomShape" xlink:title="Class to create a custom 2D or 3D shape" target="_top">
<polygon fill="none" stroke="black" stroke-width="0.5" points="197,-167 113,-167 113,-148 197,-148 197,-167"/>
<text text-anchor="middle" x="155" y="-155" font-family="Vera Sans, DejaVu Sans, Liberation Sans, Arial, Helvetica, sans" font-size="10.00">CustomShape</text>
</a>
</g>
</g>
<!-- Shape&#45;&gt;CustomShape -->
<g id="edge3" class="edge">
<title>Shape&#45;&gt;CustomShape</title>
<path fill="none" stroke="black" stroke-width="0.5" d="M65.77,-128.99C81.7,-134.14 102.21,-140.77 119.45,-146.34"/>
<polygon fill="black" stroke="black" stroke-width="0.5" points="118.92,-148 124.22,-147.88 120,-144.67 118.92,-148"/>
</g>
<!-- Cylinder -->
<g id="node6" class="node">
<title>Cylinder</title>
<g id="a_node6"><a xlink:href="../api/proteus.SpatialTools.html#proteus.SpatialTools.Cylinder" xlink:title="Class to create a cylinder." target="_top">
<polygon fill="none" stroke="black" stroke-width="0.5" points="183.5,-130 126.5,-130 126.5,-111 183.5,-111 183.5,-130"/>
<text text-anchor="middle" x="155" y="-118" font-family="Vera Sans, DejaVu Sans, Liberation Sans, Arial, Helvetica, sans" font-size="10.00">Cylinder</text>
</a>
</g>
</g>
<!-- Shape&#45;&gt;Cylinder -->
<g id="edge4" class="edge">
<title>Shape&#45;&gt;Cylinder</title>
<path fill="none" stroke="black" stroke-width="0.5" d="M65.77,-120.5C82.16,-120.5 103.41,-120.5 120.94,-120.5"/>
<polygon fill="black" stroke="black" stroke-width="0.5" points="121.26,-122.25 126.26,-120.5 121.26,-118.75 121.26,-122.25"/>
</g>
<!-- Rectangle -->
<g id="node7" class="node">
<title>Rectangle</title>
<g id="a_node7"><a xlink:href="../api/proteus.SpatialTools.html#proteus.SpatialTools.Rectangle" xlink:title="Class to create a rectangle" target="_top">
<polygon fill="none" stroke="black" stroke-width="0.5" points="187.5,-93 122.5,-93 122.5,-74 187.5,-74 187.5,-93"/>
<text text-anchor="middle" x="155" y="-81" font-family="Vera Sans, DejaVu Sans, Liberation Sans, Arial, Helvetica, sans" font-size="10.00">Rectangle</text>
</a>
</g>
</g>
<!-- Shape&#45;&gt;Rectangle -->
<g id="edge5" class="edge">
<title>Shape&#45;&gt;Rectangle</title>
<path fill="none" stroke="black" stroke-width="0.5" d="M65.77,-112.01C81.7,-106.86 102.21,-100.23 119.45,-94.66"/>
<polygon fill="black" stroke="black" stroke-width="0.5" points="120,-96.33 124.22,-93.12 118.92,-93 120,-96.33"/>
</g>
<!-- ShapeSTL -->
<g id="node8" class="node">
<title>ShapeSTL</title>
<g id="a_node8"><a xlink:href="../api/proteus.SpatialTools.html#proteus.SpatialTools.ShapeSTL" xlink:title="Class to extract geometrical information from STL file" target="_top">
<polygon fill="none" stroke="black" stroke-width="0.5" points="187,-56 123,-56 123,-37 187,-37 187,-56"/>
<text text-anchor="middle" x="155" y="-44" font-family="Vera Sans, DejaVu Sans, Liberation Sans, Arial, Helvetica, sans" font-size="10.00">ShapeSTL</text>
</a>
</g>
</g>
<!-- Shape&#45;&gt;ShapeSTL -->
<g id="edge6" class="edge">
<title>Shape&#45;&gt;ShapeSTL</title>
<path fill="none" stroke="black" stroke-width="0.5" d="M62.83,-110.87C67.7,-108.44 72.66,-105.62 77,-102.5 95.63,-89.11 94.28,-78.77 113,-65.5 116.59,-62.96 120.57,-60.62 124.6,-58.51"/>
<polygon fill="black" stroke="black" stroke-width="0.5" points="125.65,-59.95 129.34,-56.15 124.08,-56.82 125.65,-59.95"/>
</g>
<!-- Sphere -->
<g id="node9" class="node">
<title>Sphere</title>
<g id="a_node9"><a xlink:href="../api/proteus.SpatialTools.html#proteus.SpatialTools.Sphere" xlink:title="Class to create a 3D cuboid" target="_top">
<polygon fill="none" stroke="black" stroke-width="0.5" points="182,-19 128,-19 128,0 182,0 182,-19"/>
<text text-anchor="middle" x="155" y="-7" font-family="Vera Sans, DejaVu Sans, Liberation Sans, Arial, Helvetica, sans" font-size="10.00">Sphere</text>
</a>
</g>
</g>
<!-- Shape&#45;&gt;Sphere -->
<g id="edge7" class="edge">
<title>Shape&#45;&gt;Sphere</title>
<path fill="none" stroke="black" stroke-width="0.5" d="M65.61,-110.81C69.74,-108.51 73.72,-105.76 77,-102.5 102.93,-76.71 86.9,-54.12 113,-28.5 115.98,-25.58 119.49,-23.05 123.18,-20.88"/>
<polygon fill="black" stroke="black" stroke-width="0.5" points="124.02,-22.41 127.58,-18.49 122.35,-19.34 124.02,-22.41"/>
</g>
</g>
</svg>
