<?xml version="1.0" encoding="UTF-8" standalone="no"?>
<!DOCTYPE svg PUBLIC "-//W3C//DTD SVG 1.1//EN"
 "http://www.w3.org/Graphics/SVG/1.1/DTD/svg11.dtd">
<!-- Generated by graphviz version 2.38.0 (20140413.2041)
 -->
<!-- Title: inheritancee01062b6ab Pages: 1 -->
<svg width="576pt" height="395pt"
 viewBox="0.00 0.00 576.00 395.28" xmlns="http://www.w3.org/2000/svg" xmlns:xlink="http://www.w3.org/1999/xlink">
<g id="graph0" class="graph" transform="scale(0.638581 0.638581) rotate(0) translate(4 615)">
<title>inheritancee01062b6ab</title>
<polygon fill="white" stroke="none" points="-4,4 -4,-615 898,-615 898,4 -4,4"/>
<!-- AdvectionDiffusionReactionHaukeSangalliInterpolantWithTransientSubScales_ASGS -->
<g id="node1" class="node"><title>AdvectionDiffusionReactionHaukeSangalliInterpolantWithTransientSubScales_ASGS</title>
<g id="a_node1"><a xlink:href="../api/proteus.SubgridError.html#proteus.SubgridError.AdvectionDiffusionReactionHaukeSangalliInterpolantWithTransientSubScales_ASGS" xlink:title="Should be basic Hauke Sangalli approach but computes terms at interpolation points" target="_top">
<polygon fill="none" stroke="black" stroke-width="0.5" points="894,-611 482,-611 482,-592 894,-592 894,-611"/>
<text text-anchor="middle" x="688" y="-599" font-family="Vera Sans, DejaVu Sans, Liberation Sans, Arial, Helvetica, sans" font-size="10.00">AdvectionDiffusionReactionHaukeSangalliInterpolantWithTransientSubScales_ASGS</text>
</a>
</g>
</g>
<!-- AdvectionDiffusionReactionHaukeSangalliInterpolant_ASGS -->
<g id="node2" class="node"><title>AdvectionDiffusionReactionHaukeSangalliInterpolant_ASGS</title>
<g id="a_node2"><a xlink:href="../api/proteus.SubgridError.html#proteus.SubgridError.AdvectionDiffusionReactionHaukeSangalliInterpolant_ASGS" xlink:title="Should be basic Hauke Sangalli approach but computes terms at interpolation points" target="_top">
<polygon fill="none" stroke="black" stroke-width="0.5" points="446,-611 147,-611 147,-592 446,-592 446,-611"/>
<text text-anchor="middle" x="296.5" y="-599" font-family="Vera Sans, DejaVu Sans, Liberation Sans, Arial, Helvetica, sans" font-size="10.00">AdvectionDiffusionReactionHaukeSangalliInterpolant_ASGS</text>
</a>
</g>
</g>
<!-- AdvectionDiffusionReactionHaukeSangalliInterpolant_ASGS&#45;&gt;AdvectionDiffusionReactionHaukeSangalliInterpolantWithTransientSubScales_ASGS -->
<g id="edge1" class="edge"><title>AdvectionDiffusionReactionHaukeSangalliInterpolant_ASGS&#45;&gt;AdvectionDiffusionReactionHaukeSangalliInterpolantWithTransientSubScales_ASGS</title>
<path fill="none" stroke="black" stroke-width="0.5" d="M446.142,-601.5C456.206,-601.5 466.444,-601.5 476.74,-601.5"/>
<polygon fill="black" stroke="black" stroke-width="0.5" points="476.799,-603.25 481.799,-601.5 476.799,-599.75 476.799,-603.25"/>
</g>
<!-- SGE_base -->
<g id="node3" class="node"><title>SGE_base</title>
<g id="a_node3"><a xlink:href="../api/proteus.SubgridError.html#proteus.SubgridError.SGE_base" xlink:title="SGE_base" target="_top">
<polygon fill="none" stroke="black" stroke-width="0.5" points="88,-315 23,-315 23,-296 88,-296 88,-315"/>
<text text-anchor="middle" x="55.5" y="-303" font-family="Vera Sans, DejaVu Sans, Liberation Sans, Arial, Helvetica, sans" font-size="10.00">SGE_base</text>
</a>
</g>
</g>
<!-- SGE_base&#45;&gt;AdvectionDiffusionReactionHaukeSangalliInterpolant_ASGS -->
<g id="edge2" class="edge"><title>SGE_base&#45;&gt;AdvectionDiffusionReactionHaukeSangalliInterpolant_ASGS</title>
<path fill="none" stroke="black" stroke-width="0.5" d="M88.0314,-310.216C96.6611,-313.009 105.219,-317.448 111,-324.5 184.683,-414.374 64.1062,-502.043 147,-583.5 148.87,-585.337 150.823,-587.058 152.85,-588.668"/>
<polygon fill="black" stroke="black" stroke-width="0.5" points="152.051,-590.253 157.112,-591.819 154.132,-587.439 152.051,-590.253"/>
</g>
<!-- AdvectionDiffusionReaction_ASGS -->
<g id="node5" class="node"><title>AdvectionDiffusionReaction_ASGS</title>
<g id="a_node5"><a xlink:href="../api/proteus.SubgridError.html#proteus.SubgridError.AdvectionDiffusionReaction_ASGS" xlink:title="AdvectionDiffusionReaction_ASGS" target="_top">
<polygon fill="none" stroke="black" stroke-width="0.5" points="386,-574 207,-574 207,-555 386,-555 386,-574"/>
<text text-anchor="middle" x="296.5" y="-562" font-family="Vera Sans, DejaVu Sans, Liberation Sans, Arial, Helvetica, sans" font-size="10.00">AdvectionDiffusionReaction_ASGS</text>
</a>
</g>
</g>
<!-- SGE_base&#45;&gt;AdvectionDiffusionReaction_ASGS -->
<g id="edge4" class="edge"><title>SGE_base&#45;&gt;AdvectionDiffusionReaction_ASGS</title>
<path fill="none" stroke="black" stroke-width="0.5" d="M88.2167,-310.391C96.7469,-313.192 105.204,-317.591 111,-324.5 175.244,-401.075 74.9166,-477.253 147,-546.5 161.762,-560.681 181.511,-567.836 201.777,-570.947"/>
<polygon fill="black" stroke="black" stroke-width="0.5" points="201.747,-572.709 206.938,-571.652 202.221,-569.241 201.747,-572.709"/>
</g>
<!-- AdvectionLag_ASGS -->
<g id="node6" class="node"><title>AdvectionLag_ASGS</title>
<g id="a_node6"><a xlink:href="../api/proteus.SubgridError.html#proteus.SubgridError.AdvectionLag_ASGS" xlink:title="AdvectionLag_ASGS" target="_top">
<polygon fill="none" stroke="black" stroke-width="0.5" points="353.5,-537 239.5,-537 239.5,-518 353.5,-518 353.5,-537"/>
<text text-anchor="middle" x="296.5" y="-525" font-family="Vera Sans, DejaVu Sans, Liberation Sans, Arial, Helvetica, sans" font-size="10.00">AdvectionLag_ASGS</text>
</a>
</g>
</g>
<!-- SGE_base&#45;&gt;AdvectionLag_ASGS -->
<g id="edge5" class="edge"><title>SGE_base&#45;&gt;AdvectionLag_ASGS</title>
<path fill="none" stroke="black" stroke-width="0.5" d="M88.0807,-310.507C96.607,-313.311 105.096,-317.683 111,-324.5 165.84,-387.818 85.6884,-452.427 147,-509.5 170.001,-530.911 204.434,-536.103 234.354,-535.625"/>
<polygon fill="black" stroke="black" stroke-width="0.5" points="234.547,-537.37 239.498,-535.487 234.453,-533.872 234.547,-537.37"/>
</g>
<!-- Advection_ASGS -->
<g id="node7" class="node"><title>Advection_ASGS</title>
<g id="a_node7"><a xlink:href="../api/proteus.SubgridError.html#proteus.SubgridError.Advection_ASGS" xlink:title="Advection_ASGS" target="_top">
<polygon fill="none" stroke="black" stroke-width="0.5" points="345,-500 248,-500 248,-481 345,-481 345,-500"/>
<text text-anchor="middle" x="296.5" y="-488" font-family="Vera Sans, DejaVu Sans, Liberation Sans, Arial, Helvetica, sans" font-size="10.00">Advection_ASGS</text>
</a>
</g>
</g>
<!-- SGE_base&#45;&gt;Advection_ASGS -->
<g id="edge6" class="edge"><title>SGE_base&#45;&gt;Advection_ASGS</title>
<path fill="none" stroke="black" stroke-width="0.5" d="M88.1672,-310.777C96.5933,-313.588 105.007,-317.896 111,-324.5 156.495,-374.629 96.3929,-427.537 147,-472.5 172.51,-495.165 210.955,-499.305 242.336,-497.966"/>
<polygon fill="black" stroke="black" stroke-width="0.5" points="242.808,-499.694 247.708,-497.681 242.622,-496.199 242.808,-499.694"/>
</g>
<!-- DarcyFC_ASGS -->
<g id="node8" class="node"><title>DarcyFC_ASGS</title>
<g id="a_node8"><a xlink:href="../api/proteus.SubgridError.html#proteus.SubgridError.DarcyFC_ASGS" xlink:title="basic stablization for TwophaseDarcy_fc, no advection term" target="_top">
<polygon fill="none" stroke="black" stroke-width="0.5" points="341,-463 252,-463 252,-444 341,-444 341,-463"/>
<text text-anchor="middle" x="296.5" y="-451" font-family="Vera Sans, DejaVu Sans, Liberation Sans, Arial, Helvetica, sans" font-size="10.00">DarcyFC_ASGS</text>
</a>
</g>
</g>
<!-- SGE_base&#45;&gt;DarcyFC_ASGS -->
<g id="edge7" class="edge"><title>SGE_base&#45;&gt;DarcyFC_ASGS</title>
<path fill="none" stroke="black" stroke-width="0.5" d="M88.1402,-311.165C96.4662,-313.982 104.833,-318.197 111,-324.5 147.27,-361.571 106.965,-402.531 147,-435.5 174.402,-458.065 214.878,-461.665 246.654,-460.12"/>
<polygon fill="black" stroke="black" stroke-width="0.5" points="246.785,-461.865 251.676,-459.829 246.583,-458.371 246.785,-461.865"/>
</g>
<!-- FFDarcyFC_ASGS -->
<g id="node9" class="node"><title>FFDarcyFC_ASGS</title>
<g id="a_node9"><a xlink:href="../api/proteus.SubgridError.html#proteus.SubgridError.FFDarcyFC_ASGS" xlink:title="basic stablization for TwophaseDarcy_fc_ff, only &#39;mixture&#39; equation has advection term" target="_top">
<polygon fill="none" stroke="black" stroke-width="0.5" points="346.5,-426 246.5,-426 246.5,-407 346.5,-407 346.5,-426"/>
<text text-anchor="middle" x="296.5" y="-414" font-family="Vera Sans, DejaVu Sans, Liberation Sans, Arial, Helvetica, sans" font-size="10.00">FFDarcyFC_ASGS</text>
</a>
</g>
</g>
<!-- SGE_base&#45;&gt;FFDarcyFC_ASGS -->
<g id="edge8" class="edge"><title>SGE_base&#45;&gt;FFDarcyFC_ASGS</title>
<path fill="none" stroke="black" stroke-width="0.5" d="M88.1607,-311.933C96.296,-314.751 104.56,-318.774 111,-324.5 138.334,-348.801 117.219,-377.269 147,-398.5 173.987,-417.738 210.971,-422.269 241.278,-421.975"/>
<polygon fill="black" stroke="black" stroke-width="0.5" points="241.502,-423.721 246.468,-421.877 241.436,-420.222 241.502,-423.721"/>
</g>
<!-- HamiltonJacobiDiffusionReaction_ASGS -->
<g id="node10" class="node"><title>HamiltonJacobiDiffusionReaction_ASGS</title>
<g id="a_node10"><a xlink:href="../api/proteus.SubgridError.html#proteus.SubgridError.HamiltonJacobiDiffusionReaction_ASGS" xlink:title="HamiltonJacobiDiffusionReaction_ASGS" target="_top">
<polygon fill="none" stroke="black" stroke-width="0.5" points="398,-389 195,-389 195,-370 398,-370 398,-389"/>
<text text-anchor="middle" x="296.5" y="-377" font-family="Vera Sans, DejaVu Sans, Liberation Sans, Arial, Helvetica, sans" font-size="10.00">HamiltonJacobiDiffusionReaction_ASGS</text>
</a>
</g>
</g>
<!-- SGE_base&#45;&gt;HamiltonJacobiDiffusionReaction_ASGS -->
<g id="edge9" class="edge"><title>SGE_base&#45;&gt;HamiltonJacobiDiffusionReaction_ASGS</title>
<path fill="none" stroke="black" stroke-width="0.5" d="M88.2031,-313.782C95.9883,-316.549 104.07,-320.085 111,-324.5 130.35,-336.828 126.44,-351.317 147,-361.5 160.277,-368.076 175.011,-372.615 189.894,-375.698"/>
<polygon fill="black" stroke="black" stroke-width="0.5" points="189.702,-377.443 194.945,-376.688 190.376,-374.009 189.702,-377.443"/>
</g>
<!-- HamiltonJacobi_ASGS -->
<g id="node11" class="node"><title>HamiltonJacobi_ASGS</title>
<g id="a_node11"><a xlink:href="../api/proteus.SubgridError.html#proteus.SubgridError.HamiltonJacobi_ASGS" xlink:title="HamiltonJacobi_ASGS" target="_top">
<polygon fill="none" stroke="black" stroke-width="0.5" points="357,-352 236,-352 236,-333 357,-333 357,-352"/>
<text text-anchor="middle" x="296.5" y="-340" font-family="Vera Sans, DejaVu Sans, Liberation Sans, Arial, Helvetica, sans" font-size="10.00">HamiltonJacobi_ASGS</text>
</a>
</g>
</g>
<!-- SGE_base&#45;&gt;HamiltonJacobi_ASGS -->
<g id="edge10" class="edge"><title>SGE_base&#45;&gt;HamiltonJacobi_ASGS</title>
<path fill="none" stroke="black" stroke-width="0.5" d="M88.2046,-312.856C105.512,-316.695 127.359,-321.254 147,-324.5 174.264,-329.006 204.519,-332.876 230.568,-335.86"/>
<polygon fill="black" stroke="black" stroke-width="0.5" points="230.554,-337.619 235.72,-336.445 230.949,-334.142 230.554,-337.619"/>
</g>
<!-- HamiltonJacobi_ASGS_opt -->
<g id="node12" class="node"><title>HamiltonJacobi_ASGS_opt</title>
<g id="a_node12"><a xlink:href="../api/proteus.SubgridError.html#proteus.SubgridError.HamiltonJacobi_ASGS_opt" xlink:title="HamiltonJacobi_ASGS_opt" target="_top">
<polygon fill="none" stroke="black" stroke-width="0.5" points="367.5,-315 225.5,-315 225.5,-296 367.5,-296 367.5,-315"/>
<text text-anchor="middle" x="296.5" y="-303" font-family="Vera Sans, DejaVu Sans, Liberation Sans, Arial, Helvetica, sans" font-size="10.00">HamiltonJacobi_ASGS_opt</text>
</a>
</g>
</g>
<!-- SGE_base&#45;&gt;HamiltonJacobi_ASGS_opt -->
<g id="edge11" class="edge"><title>SGE_base&#45;&gt;HamiltonJacobi_ASGS_opt</title>
<path fill="none" stroke="black" stroke-width="0.5" d="M88.2374,-305.5C121.738,-305.5 175.748,-305.5 220.235,-305.5"/>
<polygon fill="black" stroke="black" stroke-width="0.5" points="220.334,-307.25 225.334,-305.5 220.334,-303.75 220.334,-307.25"/>
</g>
<!-- NavierStokesASGS_velocity_pressure -->
<g id="node13" class="node"><title>NavierStokesASGS_velocity_pressure</title>
<g id="a_node13"><a xlink:href="../api/proteus.SubgridError.html#proteus.SubgridError.NavierStokesASGS_velocity_pressure" xlink:title="NavierStokesASGS_velocity_pressure" target="_top">
<polygon fill="none" stroke="black" stroke-width="0.5" points="395,-278 198,-278 198,-259 395,-259 395,-278"/>
<text text-anchor="middle" x="296.5" y="-266" font-family="Vera Sans, DejaVu Sans, Liberation Sans, Arial, Helvetica, sans" font-size="10.00">NavierStokesASGS_velocity_pressure</text>
</a>
</g>
</g>
<!-- SGE_base&#45;&gt;NavierStokesASGS_velocity_pressure -->
<g id="edge12" class="edge"><title>SGE_base&#45;&gt;NavierStokesASGS_velocity_pressure</title>
<path fill="none" stroke="black" stroke-width="0.5" d="M88.2334,-298.631C105.549,-295.023 127.395,-290.7 147,-287.5 166.628,-284.296 187.789,-281.31 207.813,-278.698"/>
<polygon fill="black" stroke="black" stroke-width="0.5" points="208.144,-280.42 212.878,-278.042 207.694,-276.949 208.144,-280.42"/>
</g>
<!-- NavierStokesASGS_velocity_pressure_opt -->
<g id="node14" class="node"><title>NavierStokesASGS_velocity_pressure_opt</title>
<g id="a_node14"><a xlink:href="../api/proteus.SubgridError.html#proteus.SubgridError.NavierStokesASGS_velocity_pressure_opt" xlink:title="NavierStokesASGS_velocity_pressure_opt" target="_top">
<polygon fill="none" stroke="black" stroke-width="0.5" points="405.5,-241 187.5,-241 187.5,-222 405.5,-222 405.5,-241"/>
<text text-anchor="middle" x="296.5" y="-229" font-family="Vera Sans, DejaVu Sans, Liberation Sans, Arial, Helvetica, sans" font-size="10.00">NavierStokesASGS_velocity_pressure_opt</text>
</a>
</g>
</g>
<!-- SGE_base&#45;&gt;NavierStokesASGS_velocity_pressure_opt -->
<g id="edge13" class="edge"><title>SGE_base&#45;&gt;NavierStokesASGS_velocity_pressure_opt</title>
<path fill="none" stroke="black" stroke-width="0.5" d="M68.542,-295.875C85.1357,-283.177 116.458,-261.19 147,-250.5 158.162,-246.593 170.048,-243.475 182.047,-240.989"/>
<polygon fill="black" stroke="black" stroke-width="0.5" points="182.633,-242.656 187.194,-239.961 181.948,-239.224 182.633,-242.656"/>
</g>
<!-- NavierStokesASGS_velocity_pressure_optV2 -->
<g id="node15" class="node"><title>NavierStokesASGS_velocity_pressure_optV2</title>
<g id="a_node15"><a xlink:href="../api/proteus.SubgridError.html#proteus.SubgridError.NavierStokesASGS_velocity_pressure_optV2" xlink:title="NavierStokesASGS_velocity_pressure_optV2" target="_top">
<polygon fill="none" stroke="black" stroke-width="0.5" points="411.5,-204 181.5,-204 181.5,-185 411.5,-185 411.5,-204"/>
<text text-anchor="middle" x="296.5" y="-192" font-family="Vera Sans, DejaVu Sans, Liberation Sans, Arial, Helvetica, sans" font-size="10.00">NavierStokesASGS_velocity_pressure_optV2</text>
</a>
</g>
</g>
<!-- SGE_base&#45;&gt;NavierStokesASGS_velocity_pressure_optV2 -->
<g id="edge14" class="edge"><title>SGE_base&#45;&gt;NavierStokesASGS_velocity_pressure_optV2</title>
<path fill="none" stroke="black" stroke-width="0.5" d="M62.6006,-295.923C75.5099,-276.575 107.66,-233.012 147,-213.5 156.205,-208.935 166.108,-205.326 176.274,-202.488"/>
<polygon fill="black" stroke="black" stroke-width="0.5" points="176.901,-204.132 181.284,-201.155 176.002,-200.749 176.901,-204.132"/>
</g>
<!-- ShallowWater_CFL -->
<g id="node18" class="node"><title>ShallowWater_CFL</title>
<g id="a_node18"><a xlink:href="../api/proteus.SubgridError.html#proteus.SubgridError.ShallowWater_CFL" xlink:title="ShallowWater_CFL" target="_top">
<polygon fill="none" stroke="black" stroke-width="0.5" points="347.5,-167 245.5,-167 245.5,-148 347.5,-148 347.5,-167"/>
<text text-anchor="middle" x="296.5" y="-155" font-family="Vera Sans, DejaVu Sans, Liberation Sans, Arial, Helvetica, sans" font-size="10.00">ShallowWater_CFL</text>
</a>
</g>
</g>
<!-- SGE_base&#45;&gt;ShallowWater_CFL -->
<g id="edge17" class="edge"><title>SGE_base&#45;&gt;ShallowWater_CFL</title>
<path fill="none" stroke="black" stroke-width="0.5" d="M59.987,-295.993C69.5531,-271.408 98.7538,-205.627 147,-176.5 174.765,-159.738 210.745,-154.802 240.334,-154.147"/>
<polygon fill="black" stroke="black" stroke-width="0.5" points="240.428,-155.895 245.403,-154.074 240.378,-152.396 240.428,-155.895"/>
</g>
<!-- StokesASGS_velocity -->
<g id="node20" class="node"><title>StokesASGS_velocity</title>
<g id="a_node20"><a xlink:href="../api/proteus.SubgridError.html#proteus.SubgridError.StokesASGS_velocity" xlink:title="StokesASGS_velocity" target="_top">
<polygon fill="none" stroke="black" stroke-width="0.5" points="356,-130 237,-130 237,-111 356,-111 356,-130"/>
<text text-anchor="middle" x="296.5" y="-118" font-family="Vera Sans, DejaVu Sans, Liberation Sans, Arial, Helvetica, sans" font-size="10.00">StokesASGS_velocity</text>
</a>
</g>
</g>
<!-- SGE_base&#45;&gt;StokesASGS_velocity -->
<g id="edge18" class="edge"><title>SGE_base&#45;&gt;StokesASGS_velocity</title>
<path fill="none" stroke="black" stroke-width="0.5" d="M58.5096,-295.954C65.1861,-266.837 89.546,-178.761 147,-139.5 171.445,-122.796 203.537,-117.195 231.632,-116.124"/>
<polygon fill="black" stroke="black" stroke-width="0.5" points="231.88,-117.868 236.828,-115.975 231.78,-114.369 231.88,-117.868"/>
</g>
<!-- StokesASGS_velocity_pressure -->
<g id="node21" class="node"><title>StokesASGS_velocity_pressure</title>
<g id="a_node21"><a xlink:href="../api/proteus.SubgridError.html#proteus.SubgridError.StokesASGS_velocity_pressure" xlink:title="StokesASGS_velocity_pressure" target="_top">
<polygon fill="none" stroke="black" stroke-width="0.5" points="379.5,-93 213.5,-93 213.5,-74 379.5,-74 379.5,-93"/>
<text text-anchor="middle" x="296.5" y="-81" font-family="Vera Sans, DejaVu Sans, Liberation Sans, Arial, Helvetica, sans" font-size="10.00">StokesASGS_velocity_pressure</text>
</a>
</g>
</g>
<!-- SGE_base&#45;&gt;StokesASGS_velocity_pressure -->
<g id="edge19" class="edge"><title>SGE_base&#45;&gt;StokesASGS_velocity_pressure</title>
<path fill="none" stroke="black" stroke-width="0.5" d="M57.5391,-295.823C61.6701,-262.559 80.1148,-152.231 147,-102.5 164.475,-89.5067 186.418,-82.9831 208.032,-80.0862"/>
<polygon fill="black" stroke="black" stroke-width="0.5" points="208.468,-81.7963 213.222,-79.458 208.048,-78.3217 208.468,-81.7963"/>
</g>
<!-- StokesStabilization_1 -->
<g id="node22" class="node"><title>StokesStabilization_1</title>
<g id="a_node22"><a xlink:href="../api/proteus.SubgridError.html#proteus.SubgridError.StokesStabilization_1" xlink:title="StokesStabilization_1" target="_top">
<polygon fill="none" stroke="black" stroke-width="0.5" points="356,-56 237,-56 237,-37 356,-37 356,-56"/>
<text text-anchor="middle" x="296.5" y="-44" font-family="Vera Sans, DejaVu Sans, Liberation Sans, Arial, Helvetica, sans" font-size="10.00">StokesStabilization_1</text>
</a>
</g>
</g>
<!-- SGE_base&#45;&gt;StokesStabilization_1 -->
<g id="edge20" class="edge"><title>SGE_base&#45;&gt;StokesStabilization_1</title>
<path fill="none" stroke="black" stroke-width="0.5" d="M56.8175,-295.95C58.5978,-259.222 70.3085,-126.1 147,-65.5 170.518,-46.9165 202.982,-41.2203 231.56,-40.5716"/>
<polygon fill="black" stroke="black" stroke-width="0.5" points="231.87,-42.318 236.848,-40.5072 231.827,-38.8183 231.87,-42.318"/>
</g>
<!-- TwophaseStokes_LS_FC_ASGS -->
<g id="node23" class="node"><title>TwophaseStokes_LS_FC_ASGS</title>
<g id="a_node23"><a xlink:href="../api/proteus.SubgridError.html#proteus.SubgridError.TwophaseStokes_LS_FC_ASGS" xlink:title="TwophaseStokes_LS_FC_ASGS" target="_top">
<polygon fill="none" stroke="black" stroke-width="0.5" points="378,-19 215,-19 215,-0 378,-0 378,-19"/>
<text text-anchor="middle" x="296.5" y="-7" font-family="Vera Sans, DejaVu Sans, Liberation Sans, Arial, Helvetica, sans" font-size="10.00">TwophaseStokes_LS_FC_ASGS</text>
</a>
</g>
</g>
<!-- SGE_base&#45;&gt;TwophaseStokes_LS_FC_ASGS -->
<g id="edge21" class="edge"><title>SGE_base&#45;&gt;TwophaseStokes_LS_FC_ASGS</title>
<path fill="none" stroke="black" stroke-width="0.5" d="M56.2855,-295.928C55.9554,-255.824 60.4595,-100.09 147,-28.5 164.502,-14.0218 187.36,-7.21429 209.877,-4.5276"/>
<polygon fill="black" stroke="black" stroke-width="0.5" points="210.19,-6.25433 214.978,-3.98719 209.821,-2.77381 210.19,-6.25433"/>
</g>
<!-- AdvectionDiffusionReactionTransientSubscales_ASGS -->
<g id="node4" class="node"><title>AdvectionDiffusionReactionTransientSubscales_ASGS</title>
<g id="a_node4"><a xlink:href="../api/proteus.SubgridError.html#proteus.SubgridError.AdvectionDiffusionReactionTransientSubscales_ASGS" xlink:title="track subgrid scales in time with Backward Euler" target="_top">
<polygon fill="none" stroke="black" stroke-width="0.5" points="823,-574 553,-574 553,-555 823,-555 823,-574"/>
<text text-anchor="middle" x="688" y="-562" font-family="Vera Sans, DejaVu Sans, Liberation Sans, Arial, Helvetica, sans" font-size="10.00">AdvectionDiffusionReactionTransientSubscales_ASGS</text>
</a>
</g>
</g>
<!-- AdvectionDiffusionReaction_ASGS&#45;&gt;AdvectionDiffusionReactionTransientSubscales_ASGS -->
<g id="edge3" class="edge"><title>AdvectionDiffusionReaction_ASGS&#45;&gt;AdvectionDiffusionReactionTransientSubscales_ASGS</title>
<path fill="none" stroke="black" stroke-width="0.5" d="M386.371,-564.5C434.005,-564.5 493.782,-564.5 547.459,-564.5"/>
<polygon fill="black" stroke="black" stroke-width="0.5" points="547.634,-566.25 552.633,-564.5 547.633,-562.75 547.634,-566.25"/>
</g>
<!-- NavierStokesTransientSubScalesASGS_velocity_pressure -->
<g id="node16" class="node"><title>NavierStokesTransientSubScalesASGS_velocity_pressure</title>
<g id="a_node16"><a xlink:href="../api/proteus.SubgridError.html#proteus.SubgridError.NavierStokesTransientSubScalesASGS_velocity_pressure" xlink:title="NavierStokesTransientSubScalesASGS_velocity_pressure" target="_top">
<polygon fill="none" stroke="black" stroke-width="0.5" points="833,-296 543,-296 543,-277 833,-277 833,-296"/>
<text text-anchor="middle" x="688" y="-284" font-family="Vera Sans, DejaVu Sans, Liberation Sans, Arial, Helvetica, sans" font-size="10.00">NavierStokesTransientSubScalesASGS_velocity_pressure</text>
</a>
</g>
</g>
<!-- NavierStokesASGS_velocity_pressure&#45;&gt;NavierStokesTransientSubScalesASGS_velocity_pressure -->
<g id="edge15" class="edge"><title>NavierStokesASGS_velocity_pressure&#45;&gt;NavierStokesTransientSubScalesASGS_velocity_pressure</title>
<path fill="none" stroke="black" stroke-width="0.5" d="M395.033,-273.007C438.19,-275.002 489.914,-277.392 537.756,-279.603"/>
<polygon fill="black" stroke="black" stroke-width="0.5" points="537.894,-281.361 542.969,-279.844 538.056,-277.865 537.894,-281.361"/>
</g>
<!-- NavierStokesWithBodyForceASGS_velocity_pressure -->
<g id="node17" class="node"><title>NavierStokesWithBodyForceASGS_velocity_pressure</title>
<g id="a_node17"><a xlink:href="../api/proteus.SubgridError.html#proteus.SubgridError.NavierStokesWithBodyForceASGS_velocity_pressure" xlink:title="NavierStokesWithBodyForceASGS_velocity_pressure" target="_top">
<polygon fill="none" stroke="black" stroke-width="0.5" points="821.5,-259 554.5,-259 554.5,-240 821.5,-240 821.5,-259"/>
<text text-anchor="middle" x="688" y="-247" font-family="Vera Sans, DejaVu Sans, Liberation Sans, Arial, Helvetica, sans" font-size="10.00">NavierStokesWithBodyForceASGS_velocity_pressure</text>
</a>
</g>
</g>
<!-- NavierStokesASGS_velocity_pressure&#45;&gt;NavierStokesWithBodyForceASGS_velocity_pressure -->
<g id="edge16" class="edge"><title>NavierStokesASGS_velocity_pressure&#45;&gt;NavierStokesWithBodyForceASGS_velocity_pressure</title>
<path fill="none" stroke="black" stroke-width="0.5" d="M395.033,-263.742C441.654,-261.468 498.272,-258.706 549.195,-256.222"/>
<polygon fill="black" stroke="black" stroke-width="0.5" points="549.512,-257.959 554.421,-255.967 549.341,-254.463 549.512,-257.959"/>
</g>
<!-- SkewStabilization_1 -->
<g id="node19" class="node"><title>SkewStabilization_1</title>
<g id="a_node19"><a xlink:href="../api/proteus.SubgridError.html#proteus.SubgridError.SkewStabilization_1" xlink:title="SkewStabilization_1" target="_top">
<polygon fill="none" stroke="black" stroke-width="0.5" points="111,-352 7.10543e-15,-352 7.10543e-15,-333 111,-333 111,-352"/>
<text text-anchor="middle" x="55.5" y="-340" font-family="Vera Sans, DejaVu Sans, Liberation Sans, Arial, Helvetica, sans" font-size="10.00">SkewStabilization_1</text>
</a>
</g>
</g>
</g>
</svg>
