<?xml version="1.0" encoding="UTF-8" standalone="no"?>
<!DOCTYPE svg PUBLIC "-//W3C//DTD SVG 1.1//EN"
 "http://www.w3.org/Graphics/SVG/1.1/DTD/svg11.dtd">
<!-- Generated by graphviz version 2.42.3 (0)
 -->
<!-- Title: inheritancef0f7c8435a Pages: 1 -->
<svg width="246pt" height="64pt"
 viewBox="0.00 0.00 246.00 64.00" xmlns="http://www.w3.org/2000/svg" xmlns:xlink="http://www.w3.org/1999/xlink">
<g id="graph0" class="graph" transform="scale(1 1) rotate(0) translate(4 60)">
<title>inheritancef0f7c8435a</title>
<polygon fill="white" stroke="transparent" points="-4,4 -4,-60 242,-60 242,4 -4,4"/>
<!-- MinAlgo_base -->
<g id="node1" class="node">
<title>MinAlgo_base</title>
<g id="a_node1"><a xlink:href="../api/proteus.Optimizers.html#proteus.Optimizers.MinAlgo_base" xlink:title="This is the base class for the minimization algorthms class," target="_top">
<polygon fill="none" stroke="black" stroke-width="0.5" points="109,-19 24,-19 24,0 109,0 109,-19"/>
<text text-anchor="middle" x="66.5" y="-7" font-family="Vera Sans, DejaVu Sans, Liberation Sans, Arial, Helvetica, sans" font-size="10.00">MinAlgo_base</text>
</a>
</g>
</g>
<!-- fminbound -->
<g id="node3" class="node">
<title>fminbound</title>
<g id="a_node3"><a xlink:href="../api/proteus.Optimizers.html#proteus.Optimizers.fminbound" xlink:title="This is a function that uses a golden ratio routine for finding" target="_top">
<polygon fill="none" stroke="black" stroke-width="0.5" points="238,-19 169,-19 169,0 238,0 238,-19"/>
<text text-anchor="middle" x="203.5" y="-7" font-family="Vera Sans, DejaVu Sans, Liberation Sans, Arial, Helvetica, sans" font-size="10.00">fminbound</text>
</a>
</g>
</g>
<!-- MinAlgo_base&#45;&gt;fminbound -->
<g id="edge1" class="edge">
<title>MinAlgo_base&#45;&gt;fminbound</title>
<path fill="none" stroke="black" stroke-width="0.5" d="M109.11,-9.5C126.52,-9.5 146.64,-9.5 163.74,-9.5"/>
<polygon fill="black" stroke="black" stroke-width="0.5" points="163.94,-11.25 168.94,-9.5 163.94,-7.75 163.94,-11.25"/>
</g>
<!-- ObjectiveFunction_base -->
<g id="node2" class="node">
<title>ObjectiveFunction_base</title>
<g id="a_node2"><a xlink:href="../api/proteus.Optimizers.html#proteus.Optimizers.ObjectiveFunction_base" xlink:title="ObjectiveFunction_base" target="_top">
<polygon fill="none" stroke="black" stroke-width="0.5" points="133,-56 0,-56 0,-37 133,-37 133,-56"/>
<text text-anchor="middle" x="66.5" y="-44" font-family="Vera Sans, DejaVu Sans, Liberation Sans, Arial, Helvetica, sans" font-size="10.00">ObjectiveFunction_base</text>
</a>
</g>
</g>
</g>
</svg>
