<?xml version="1.0" encoding="UTF-8" standalone="no"?>
<!DOCTYPE svg PUBLIC "-//W3C//DTD SVG 1.1//EN"
 "http://www.w3.org/Graphics/SVG/1.1/DTD/svg11.dtd">
<!-- Generated by graphviz version 2.38.0 (20140413.2041)
 -->
<!-- Title: inheritance56adf9a4e7 Pages: 1 -->
<svg width="451pt" height="360pt"
 viewBox="0.00 0.00 451.00 360.00" xmlns="http://www.w3.org/2000/svg" xmlns:xlink="http://www.w3.org/1999/xlink">
<g id="graph0" class="graph" transform="scale(1 1) rotate(0) translate(4 356)">
<title>inheritance56adf9a4e7</title>
<polygon fill="white" stroke="none" points="-4,4 -4,-356 447,-356 447,4 -4,4"/>
<!-- FLCBDF_controller -->
<g id="node1" class="node"><title>FLCBDF_controller</title>
<g id="a_node1"><a xlink:href="../api/proteus.StepControl.html#proteus.StepControl.FLCBDF_controller" xlink:title="FLCBDF_controller" target="_top">
<polygon fill="none" stroke="black" stroke-width="0.5" points="240.5,-352 136.5,-352 136.5,-333 240.5,-333 240.5,-352"/>
<text text-anchor="middle" x="188.5" y="-340" font-family="Vera Sans, DejaVu Sans, Liberation Sans, Arial, Helvetica, sans" font-size="10.00">FLCBDF_controller</text>
</a>
</g>
</g>
<!-- FLCBDF_controller_sys -->
<g id="node3" class="node"><title>FLCBDF_controller_sys</title>
<g id="a_node3"><a xlink:href="../api/proteus.StepControl.html#proteus.StepControl.FLCBDF_controller_sys" xlink:title="FLCBDF_controller_sys" target="_top">
<polygon fill="none" stroke="black" stroke-width="0.5" points="443,-352 318,-352 318,-333 443,-333 443,-352"/>
<text text-anchor="middle" x="380.5" y="-340" font-family="Vera Sans, DejaVu Sans, Liberation Sans, Arial, Helvetica, sans" font-size="10.00">FLCBDF_controller_sys</text>
</a>
</g>
</g>
<!-- FLCBDF_controller&#45;&gt;FLCBDF_controller_sys -->
<g id="edge2" class="edge"><title>FLCBDF_controller&#45;&gt;FLCBDF_controller_sys</title>
<path fill="none" stroke="black" stroke-width="0.5" d="M240.666,-342.5C262.831,-342.5 289.073,-342.5 312.742,-342.5"/>
<polygon fill="black" stroke="black" stroke-width="0.5" points="312.751,-344.25 317.751,-342.5 312.751,-340.75 312.751,-344.25"/>
</g>
<!-- SC_base -->
<g id="node2" class="node"><title>SC_base</title>
<g id="a_node2"><a xlink:href="../api/proteus.StepControl.html#proteus.StepControl.SC_base" xlink:title="A simple fixed time stepping controller with no error/stability" target="_top">
<polygon fill="none" stroke="black" stroke-width="0.5" points="59,-185 0,-185 0,-166 59,-166 59,-185"/>
<text text-anchor="middle" x="29.5" y="-173" font-family="Vera Sans, DejaVu Sans, Liberation Sans, Arial, Helvetica, sans" font-size="10.00">SC_base</text>
</a>
</g>
</g>
<!-- SC_base&#45;&gt;FLCBDF_controller -->
<g id="edge1" class="edge"><title>SC_base&#45;&gt;FLCBDF_controller</title>
<path fill="none" stroke="black" stroke-width="0.5" d="M31.6334,-185.376C35.2856,-212.359 49.3085,-287.76 95,-324.5 105.243,-332.736 118.166,-337.575 131.079,-340.339"/>
<polygon fill="black" stroke="black" stroke-width="0.5" points="130.973,-342.101 136.214,-341.333 131.638,-338.665 130.973,-342.101"/>
</g>
<!-- GustafssonFullNewton_dt_controller -->
<g id="node4" class="node"><title>GustafssonFullNewton_dt_controller</title>
<g id="a_node4"><a xlink:href="../api/proteus.StepControl.html#proteus.StepControl.GustafssonFullNewton_dt_controller" xlink:title="Try version of basic Gustafsson and Soederlind 97 time step selection strategy" target="_top">
<polygon fill="none" stroke="black" stroke-width="0.5" points="282,-315 95,-315 95,-296 282,-296 282,-315"/>
<text text-anchor="middle" x="188.5" y="-303" font-family="Vera Sans, DejaVu Sans, Liberation Sans, Arial, Helvetica, sans" font-size="10.00">GustafssonFullNewton_dt_controller</text>
</a>
</g>
</g>
<!-- SC_base&#45;&gt;GustafssonFullNewton_dt_controller -->
<g id="edge3" class="edge"><title>SC_base&#45;&gt;GustafssonFullNewton_dt_controller</title>
<path fill="none" stroke="black" stroke-width="0.5" d="M33.0702,-185.158C39.4679,-207.191 58.2995,-261.286 95,-287.5 98.2034,-289.788 101.622,-291.805 105.187,-293.582"/>
<polygon fill="black" stroke="black" stroke-width="0.5" points="104.858,-295.357 110.132,-295.858 106.322,-292.178 104.858,-295.357"/>
</g>
<!-- HeuristicNL_dt_controller -->
<g id="node5" class="node"><title>HeuristicNL_dt_controller</title>
<g id="a_node5"><a xlink:href="../api/proteus.StepControl.html#proteus.StepControl.HeuristicNL_dt_controller" xlink:title="Classical Heuristic step controller that picks time step based on threshholds in nonlinear" target="_top">
<polygon fill="none" stroke="black" stroke-width="0.5" points="257,-278 120,-278 120,-259 257,-259 257,-278"/>
<text text-anchor="middle" x="188.5" y="-266" font-family="Vera Sans, DejaVu Sans, Liberation Sans, Arial, Helvetica, sans" font-size="10.00">HeuristicNL_dt_controller</text>
</a>
</g>
</g>
<!-- SC_base&#45;&gt;HeuristicNL_dt_controller -->
<g id="edge4" class="edge"><title>SC_base&#45;&gt;HeuristicNL_dt_controller</title>
<path fill="none" stroke="black" stroke-width="0.5" d="M35.826,-185.131C45.3842,-201.435 67.0837,-234.28 95,-250.5 101.206,-254.106 108.003,-257.005 115.004,-259.333"/>
<polygon fill="black" stroke="black" stroke-width="0.5" points="114.585,-261.035 119.879,-260.855 115.628,-257.694 114.585,-261.035"/>
</g>
<!-- Min_dt_RKcontroller -->
<g id="node6" class="node"><title>Min_dt_RKcontroller</title>
<g id="a_node6"><a xlink:href="../api/proteus.StepControl.html#proteus.StepControl.Min_dt_RKcontroller" xlink:title="Min_dt_RKcontroller" target="_top">
<polygon fill="none" stroke="black" stroke-width="0.5" points="243.5,-241 133.5,-241 133.5,-222 243.5,-222 243.5,-241"/>
<text text-anchor="middle" x="188.5" y="-229" font-family="Vera Sans, DejaVu Sans, Liberation Sans, Arial, Helvetica, sans" font-size="10.00">Min_dt_RKcontroller</text>
</a>
</g>
</g>
<!-- SC_base&#45;&gt;Min_dt_RKcontroller -->
<g id="edge5" class="edge"><title>SC_base&#45;&gt;Min_dt_RKcontroller</title>
<path fill="none" stroke="black" stroke-width="0.5" d="M43.6581,-185.076C56.2371,-193.775 76.0411,-206.314 95,-213.5 105.48,-217.472 116.976,-220.608 128.193,-223.07"/>
<polygon fill="black" stroke="black" stroke-width="0.5" points="128.068,-224.832 133.322,-224.154 128.792,-221.408 128.068,-224.832"/>
</g>
<!-- Min_dt_controller -->
<g id="node8" class="node"><title>Min_dt_controller</title>
<g id="a_node8"><a xlink:href="../api/proteus.StepControl.html#proteus.StepControl.Min_dt_controller" xlink:title="Min_dt_controller" target="_top">
<polygon fill="none" stroke="black" stroke-width="0.5" points="237.5,-204 139.5,-204 139.5,-185 237.5,-185 237.5,-204"/>
<text text-anchor="middle" x="188.5" y="-192" font-family="Vera Sans, DejaVu Sans, Liberation Sans, Arial, Helvetica, sans" font-size="10.00">Min_dt_controller</text>
</a>
</g>
</g>
<!-- SC_base&#45;&gt;Min_dt_controller -->
<g id="edge7" class="edge"><title>SC_base&#45;&gt;Min_dt_controller</title>
<path fill="none" stroke="black" stroke-width="0.5" d="M59.2962,-178.985C80.2931,-181.526 109.35,-185.042 134.492,-188.085"/>
<polygon fill="black" stroke="black" stroke-width="0.5" points="134.291,-189.823 139.465,-188.687 134.711,-186.349 134.291,-189.823"/>
</g>
<!-- Newton_controller -->
<g id="node10" class="node"><title>Newton_controller</title>
<g id="a_node10"><a xlink:href="../api/proteus.StepControl.html#proteus.StepControl.Newton_controller" xlink:title="Same as SC_base but since there is no dt we have not &#160;way to retry" target="_top">
<polygon fill="none" stroke="black" stroke-width="0.5" points="240,-167 137,-167 137,-148 240,-148 240,-167"/>
<text text-anchor="middle" x="188.5" y="-155" font-family="Vera Sans, DejaVu Sans, Liberation Sans, Arial, Helvetica, sans" font-size="10.00">Newton_controller</text>
</a>
</g>
</g>
<!-- SC_base&#45;&gt;Newton_controller -->
<g id="edge9" class="edge"><title>SC_base&#45;&gt;Newton_controller</title>
<path fill="none" stroke="black" stroke-width="0.5" d="M59.2962,-172.199C79.5445,-169.877 107.288,-166.696 131.788,-163.887"/>
<polygon fill="black" stroke="black" stroke-width="0.5" points="132.195,-165.602 136.963,-163.294 131.797,-162.125 132.195,-165.602"/>
</g>
<!-- Osher_controller -->
<g id="node12" class="node"><title>Osher_controller</title>
<g id="a_node12"><a xlink:href="../api/proteus.StepControl.html#proteus.StepControl.Osher_controller" xlink:title="Osher_controller" target="_top">
<polygon fill="none" stroke="black" stroke-width="0.5" points="236,-130 141,-130 141,-111 236,-111 236,-130"/>
<text text-anchor="middle" x="188.5" y="-118" font-family="Vera Sans, DejaVu Sans, Liberation Sans, Arial, Helvetica, sans" font-size="10.00">Osher_controller</text>
</a>
</g>
</g>
<!-- SC_base&#45;&gt;Osher_controller -->
<g id="edge13" class="edge"><title>SC_base&#45;&gt;Osher_controller</title>
<path fill="none" stroke="black" stroke-width="0.5" d="M44.7395,-165.865C57.4157,-157.709 76.7285,-146.291 95,-139.5 107.865,-134.719 122.209,-131.033 135.687,-128.237"/>
<polygon fill="black" stroke="black" stroke-width="0.5" points="136.053,-129.948 140.61,-127.247 135.363,-126.517 136.053,-129.948"/>
</g>
<!-- Osher_PsiTC_controller -->
<g id="node13" class="node"><title>Osher_PsiTC_controller</title>
<g id="a_node13"><a xlink:href="../api/proteus.StepControl.html#proteus.StepControl.Osher_PsiTC_controller" xlink:title="Osher_PsiTC_controller" target="_top">
<polygon fill="none" stroke="black" stroke-width="0.5" points="251,-93 126,-93 126,-74 251,-74 251,-93"/>
<text text-anchor="middle" x="188.5" y="-81" font-family="Vera Sans, DejaVu Sans, Liberation Sans, Arial, Helvetica, sans" font-size="10.00">Osher_PsiTC_controller</text>
</a>
</g>
</g>
<!-- SC_base&#45;&gt;Osher_PsiTC_controller -->
<g id="edge11" class="edge"><title>SC_base&#45;&gt;Osher_PsiTC_controller</title>
<path fill="none" stroke="black" stroke-width="0.5" d="M36.0666,-165.903C45.8306,-149.994 67.6317,-118.347 95,-102.5 102.901,-97.9252 111.741,-94.4417 120.739,-91.7911"/>
<polygon fill="black" stroke="black" stroke-width="0.5" points="121.397,-93.4245 125.748,-90.4026 120.463,-90.0517 121.397,-93.4245"/>
</g>
<!-- Osher_PsiTC_controller2 -->
<g id="node14" class="node"><title>Osher_PsiTC_controller2</title>
<g id="a_node14"><a xlink:href="../api/proteus.StepControl.html#proteus.StepControl.Osher_PsiTC_controller2" xlink:title="Osher_PsiTC_controller2" target="_top">
<polygon fill="none" stroke="black" stroke-width="0.5" points="254,-56 123,-56 123,-37 254,-37 254,-56"/>
<text text-anchor="middle" x="188.5" y="-44" font-family="Vera Sans, DejaVu Sans, Liberation Sans, Arial, Helvetica, sans" font-size="10.00">Osher_PsiTC_controller2</text>
</a>
</g>
</g>
<!-- SC_base&#45;&gt;Osher_PsiTC_controller2 -->
<g id="edge12" class="edge"><title>SC_base&#45;&gt;Osher_PsiTC_controller2</title>
<path fill="none" stroke="black" stroke-width="0.5" d="M33.2415,-165.713C39.884,-143.918 59.0038,-91.281 95,-65.5 101.843,-60.5987 109.662,-56.8992 117.791,-54.1165"/>
<polygon fill="black" stroke="black" stroke-width="0.5" points="118.649,-55.6802 122.886,-52.4998 117.59,-52.3441 118.649,-55.6802"/>
</g>
<!-- PsiTCtte_controller -->
<g id="node15" class="node"><title>PsiTCtte_controller</title>
<g id="a_node15"><a xlink:href="../api/proteus.StepControl.html#proteus.StepControl.PsiTCtte_controller" xlink:title="PsiTCtte_controller" target="_top">
<polygon fill="none" stroke="black" stroke-width="0.5" points="241,-19 136,-19 136,-0 241,-0 241,-19"/>
<text text-anchor="middle" x="188.5" y="-7" font-family="Vera Sans, DejaVu Sans, Liberation Sans, Arial, Helvetica, sans" font-size="10.00">PsiTCtte_controller</text>
</a>
</g>
</g>
<!-- SC_base&#45;&gt;PsiTCtte_controller -->
<g id="edge14" class="edge"><title>SC_base&#45;&gt;PsiTCtte_controller</title>
<path fill="none" stroke="black" stroke-width="0.5" d="M31.6982,-165.778C35.5163,-139.211 49.9235,-64.948 95,-28.5 105.129,-20.31 117.881,-15.3735 130.651,-12.46"/>
<polygon fill="black" stroke="black" stroke-width="0.5" points="131.193,-14.1349 135.732,-11.4038 130.481,-10.7082 131.193,-14.1349"/>
</g>
<!-- Min_dt_cfl_controller -->
<g id="node7" class="node"><title>Min_dt_cfl_controller</title>
<g id="a_node7"><a xlink:href="../api/proteus.StepControl.html#proteus.StepControl.Min_dt_cfl_controller" xlink:title="Min_dt_cfl_controller" target="_top">
<polygon fill="none" stroke="black" stroke-width="0.5" points="437.5,-222 323.5,-222 323.5,-203 437.5,-203 437.5,-222"/>
<text text-anchor="middle" x="380.5" y="-210" font-family="Vera Sans, DejaVu Sans, Liberation Sans, Arial, Helvetica, sans" font-size="10.00">Min_dt_cfl_controller</text>
</a>
</g>
</g>
<!-- Min_dt_controller&#45;&gt;Min_dt_cfl_controller -->
<g id="edge6" class="edge"><title>Min_dt_controller&#45;&gt;Min_dt_cfl_controller</title>
<path fill="none" stroke="black" stroke-width="0.5" d="M237.937,-199.089C262.365,-201.403 292.251,-204.234 318.257,-206.698"/>
<polygon fill="black" stroke="black" stroke-width="0.5" points="318.261,-208.456 323.404,-207.186 318.592,-204.972 318.261,-208.456"/>
</g>
<!-- Min_dt_controller_FCT -->
<g id="node9" class="node"><title>Min_dt_controller_FCT</title>
<g id="a_node9"><a xlink:href="../api/proteus.StepControl.html#proteus.StepControl.Min_dt_controller_FCT" xlink:title="controller try and implement a piece of FCT methodology where first step is" target="_top">
<polygon fill="none" stroke="black" stroke-width="0.5" points="441,-185 320,-185 320,-166 441,-166 441,-185"/>
<text text-anchor="middle" x="380.5" y="-173" font-family="Vera Sans, DejaVu Sans, Liberation Sans, Arial, Helvetica, sans" font-size="10.00">Min_dt_controller_FCT</text>
</a>
</g>
</g>
<!-- Min_dt_controller&#45;&gt;Min_dt_controller_FCT -->
<g id="edge8" class="edge"><title>Min_dt_controller&#45;&gt;Min_dt_controller_FCT</title>
<path fill="none" stroke="black" stroke-width="0.5" d="M237.937,-189.656C261.334,-187.317 289.739,-184.476 314.945,-181.955"/>
<polygon fill="black" stroke="black" stroke-width="0.5" points="315.141,-183.695 319.942,-181.456 314.792,-180.212 315.141,-183.695"/>
</g>
<!-- Osher_FMM_controller -->
<g id="node11" class="node"><title>Osher_FMM_controller</title>
<g id="a_node11"><a xlink:href="../api/proteus.StepControl.html#proteus.StepControl.Osher_FMM_controller" xlink:title="TODO" target="_top">
<polygon fill="none" stroke="black" stroke-width="0.5" points="441.5,-130 319.5,-130 319.5,-111 441.5,-111 441.5,-130"/>
<text text-anchor="middle" x="380.5" y="-118" font-family="Vera Sans, DejaVu Sans, Liberation Sans, Arial, Helvetica, sans" font-size="10.00">Osher_FMM_controller</text>
</a>
</g>
</g>
<!-- Osher_controller&#45;&gt;Osher_FMM_controller -->
<g id="edge10" class="edge"><title>Osher_controller&#45;&gt;Osher_FMM_controller</title>
<path fill="none" stroke="black" stroke-width="0.5" d="M236.466,-120.5C259.956,-120.5 288.762,-120.5 314.351,-120.5"/>
<polygon fill="black" stroke="black" stroke-width="0.5" points="314.424,-122.25 319.424,-120.5 314.424,-118.75 314.424,-122.25"/>
</g>
</g>
</svg>
