<?xml version="1.0" encoding="UTF-8" standalone="no"?>
<!DOCTYPE svg PUBLIC "-//W3C//DTD SVG 1.1//EN"
 "http://www.w3.org/Graphics/SVG/1.1/DTD/svg11.dtd">
<!-- Generated by graphviz version 2.38.0 (20140413.2041)
 -->
<!-- Title: inheritanceb3a20b897e Pages: 1 -->
<svg width="576pt" height="280pt"
 viewBox="0.00 0.00 576.00 279.77" xmlns="http://www.w3.org/2000/svg" xmlns:xlink="http://www.w3.org/1999/xlink">
<g id="graph0" class="graph" transform="scale(0.866165 0.866165) rotate(0) translate(4 319)">
<title>inheritanceb3a20b897e</title>
<polygon fill="white" stroke="none" points="-4,4 -4,-319 661,-319 661,4 -4,4"/>
<!-- AggregateVelocityPostProcessor -->
<g id="node1" class="node"><title>AggregateVelocityPostProcessor</title>
<g id="a_node1"><a xlink:href="../api/proteus.PostProcessingTools.html#proteus.PostProcessingTools.AggregateVelocityPostProcessor" xlink:title="collect different velocity postprocessing algorithms for a (possibly) multicomponent system" target="_top">
<polygon fill="none" stroke="black" stroke-width="0.5" points="184.5,-130 12.5,-130 12.5,-111 184.5,-111 184.5,-130"/>
<text text-anchor="middle" x="98.5" y="-118" font-family="Vera Sans, DejaVu Sans, Liberation Sans, Arial, Helvetica, sans" font-size="10.00">AggregateVelocityPostProcessor</text>
</a>
</g>
</g>
<!-- VPP_DG_BDM -->
<g id="node2" class="node"><title>VPP_DG_BDM</title>
<g id="a_node2"><a xlink:href="../api/proteus.PostProcessingTools.html#proteus.PostProcessingTools.VPP_DG_BDM" xlink:title="Project DG solution onto BDM1 local representation which is" target="_top">
<polygon fill="none" stroke="black" stroke-width="0.5" points="497.5,-315 414.5,-315 414.5,-296 497.5,-296 497.5,-315"/>
<text text-anchor="middle" x="456" y="-303" font-family="Vera Sans, DejaVu Sans, Liberation Sans, Arial, Helvetica, sans" font-size="10.00">VPP_DG_BDM</text>
</a>
</g>
</g>
<!-- VPP_DG_RT0 -->
<g id="node3" class="node"><title>VPP_DG_RT0</title>
<g id="a_node3"><a xlink:href="../api/proteus.PostProcessingTools.html#proteus.PostProcessingTools.VPP_DG_RT0" xlink:title="Post process DG solution velocity by projecting boundary fluxes" target="_top">
<polygon fill="none" stroke="black" stroke-width="0.5" points="338.5,-315 261.5,-315 261.5,-296 338.5,-296 338.5,-315"/>
<text text-anchor="middle" x="300" y="-303" font-family="Vera Sans, DejaVu Sans, Liberation Sans, Arial, Helvetica, sans" font-size="10.00">VPP_DG_RT0</text>
</a>
</g>
</g>
<!-- VPP_DG_RT0&#45;&gt;VPP_DG_BDM -->
<g id="edge1" class="edge"><title>VPP_DG_RT0&#45;&gt;VPP_DG_BDM</title>
<path fill="none" stroke="black" stroke-width="0.5" d="M338.673,-305.5C360.031,-305.5 386.908,-305.5 409.445,-305.5"/>
<polygon fill="black" stroke="black" stroke-width="0.5" points="409.48,-307.25 414.48,-305.5 409.48,-303.75 409.48,-307.25"/>
</g>
<!-- VelocityPostProcessingAlgorithmBase -->
<g id="node4" class="node"><title>VelocityPostProcessingAlgorithmBase</title>
<g id="a_node4"><a xlink:href="../api/proteus.PostProcessingTools.html#proteus.PostProcessingTools.VelocityPostProcessingAlgorithmBase" xlink:title="Base class for velocity post processing algorithms" target="_top">
<polygon fill="none" stroke="black" stroke-width="0.5" points="197,-167 0,-167 0,-148 197,-148 197,-167"/>
<text text-anchor="middle" x="98.5" y="-155" font-family="Vera Sans, DejaVu Sans, Liberation Sans, Arial, Helvetica, sans" font-size="10.00">VelocityPostProcessingAlgorithmBase</text>
</a>
</g>
</g>
<!-- VelocityPostProcessingAlgorithmBase&#45;&gt;VPP_DG_RT0 -->
<g id="edge2" class="edge"><title>VelocityPostProcessingAlgorithmBase&#45;&gt;VPP_DG_RT0</title>
<path fill="none" stroke="black" stroke-width="0.5" d="M182.859,-167.045C187.957,-169.611 192.74,-172.727 197,-176.5 235.826,-210.885 195.469,-251.706 233,-287.5 239.527,-293.725 247.989,-297.84 256.663,-300.55"/>
<polygon fill="black" stroke="black" stroke-width="0.5" points="256.206,-302.239 261.494,-301.916 257.158,-298.871 256.206,-302.239"/>
</g>
<!-- VPP_LOW_K_IB_PWL_RT0 -->
<g id="node5" class="node"><title>VPP_LOW_K_IB_PWL_RT0</title>
<g id="a_node5"><a xlink:href="../api/proteus.PostProcessingTools.html#proteus.PostProcessingTools.VPP_LOW_K_IB_PWL_RT0" xlink:title="Local Larson&#45;Niklasson method with RT_0 representation for element" target="_top">
<polygon fill="none" stroke="black" stroke-width="0.5" points="367,-278 233,-278 233,-259 367,-259 367,-278"/>
<text text-anchor="middle" x="300" y="-266" font-family="Vera Sans, DejaVu Sans, Liberation Sans, Arial, Helvetica, sans" font-size="10.00">VPP_LOW_K_IB_PWL_RT0</text>
</a>
</g>
</g>
<!-- VelocityPostProcessingAlgorithmBase&#45;&gt;VPP_LOW_K_IB_PWL_RT0 -->
<g id="edge3" class="edge"><title>VelocityPostProcessingAlgorithmBase&#45;&gt;VPP_LOW_K_IB_PWL_RT0</title>
<path fill="none" stroke="black" stroke-width="0.5" d="M180.851,-167.097C186.611,-169.622 192.077,-172.717 197,-176.5 226,-198.786 204.842,-227.159 233,-250.5 235.829,-252.845 238.938,-254.886 242.218,-256.662"/>
<polygon fill="black" stroke="black" stroke-width="0.5" points="241.529,-258.274 246.787,-258.924 243.082,-255.137 241.529,-258.274"/>
</g>
<!-- VPP_P1nc_RT0 -->
<g id="node6" class="node"><title>VPP_P1nc_RT0</title>
<g id="a_node6"><a xlink:href="../api/proteus.PostProcessingTools.html#proteus.PostProcessingTools.VPP_P1nc_RT0" xlink:title="P1&#45;nonconforming velocity postprocessing" target="_top">
<polygon fill="none" stroke="black" stroke-width="0.5" points="343,-241 257,-241 257,-222 343,-222 343,-241"/>
<text text-anchor="middle" x="300" y="-229" font-family="Vera Sans, DejaVu Sans, Liberation Sans, Arial, Helvetica, sans" font-size="10.00">VPP_P1nc_RT0</text>
</a>
</g>
</g>
<!-- VelocityPostProcessingAlgorithmBase&#45;&gt;VPP_P1nc_RT0 -->
<g id="edge4" class="edge"><title>VelocityPostProcessingAlgorithmBase&#45;&gt;VPP_P1nc_RT0</title>
<path fill="none" stroke="black" stroke-width="0.5" d="M173.837,-167.026C181.906,-169.498 189.795,-172.603 197,-176.5 217.181,-187.415 213.235,-201.848 233,-213.5 238.789,-216.913 245.242,-219.696 251.785,-221.961"/>
<polygon fill="black" stroke="black" stroke-width="0.5" points="251.499,-223.709 256.795,-223.595 252.584,-220.381 251.499,-223.709"/>
</g>
<!-- VPP_POINT_EVAL -->
<g id="node7" class="node"><title>VPP_POINT_EVAL</title>
<g id="a_node7"><a xlink:href="../api/proteus.PostProcessingTools.html#proteus.PostProcessingTools.VPP_POINT_EVAL" xlink:title="Velocity calculation from just directly evaluating flux formula at intergration points using" target="_top">
<polygon fill="none" stroke="black" stroke-width="0.5" points="349,-204 251,-204 251,-185 349,-185 349,-204"/>
<text text-anchor="middle" x="300" y="-192" font-family="Vera Sans, DejaVu Sans, Liberation Sans, Arial, Helvetica, sans" font-size="10.00">VPP_POINT_EVAL</text>
</a>
</g>
</g>
<!-- VelocityPostProcessingAlgorithmBase&#45;&gt;VPP_POINT_EVAL -->
<g id="edge5" class="edge"><title>VelocityPostProcessingAlgorithmBase&#45;&gt;VPP_POINT_EVAL</title>
<path fill="none" stroke="black" stroke-width="0.5" d="M150.876,-167.028C180.016,-172.433 216.422,-179.185 245.849,-184.642"/>
<polygon fill="black" stroke="black" stroke-width="0.5" points="245.648,-186.385 250.883,-185.576 246.286,-182.944 245.648,-186.385"/>
</g>
<!-- VPP_POINT_EVAL_GWVD -->
<g id="node8" class="node"><title>VPP_POINT_EVAL_GWVD</title>
<g id="a_node8"><a xlink:href="../api/proteus.PostProcessingTools.html#proteus.PostProcessingTools.VPP_POINT_EVAL_GWVD" xlink:title="Velocity calculation for evaluating coarse grid velocity solution" target="_top">
<polygon fill="none" stroke="black" stroke-width="0.5" points="367,-167 233,-167 233,-148 367,-148 367,-167"/>
<text text-anchor="middle" x="300" y="-155" font-family="Vera Sans, DejaVu Sans, Liberation Sans, Arial, Helvetica, sans" font-size="10.00">VPP_POINT_EVAL_GWVD</text>
</a>
</g>
</g>
<!-- VelocityPostProcessingAlgorithmBase&#45;&gt;VPP_POINT_EVAL_GWVD -->
<g id="edge6" class="edge"><title>VelocityPostProcessingAlgorithmBase&#45;&gt;VPP_POINT_EVAL_GWVD</title>
<path fill="none" stroke="black" stroke-width="0.5" d="M197.204,-157.5C207.461,-157.5 217.747,-157.5 227.627,-157.5"/>
<polygon fill="black" stroke="black" stroke-width="0.5" points="227.755,-159.25 232.755,-157.5 227.754,-155.75 227.755,-159.25"/>
</g>
<!-- VPP_PWC_RT0 -->
<g id="node9" class="node"><title>VPP_PWC_RT0</title>
<g id="a_node9"><a xlink:href="../api/proteus.PostProcessingTools.html#proteus.PostProcessingTools.VPP_PWC_RT0" xlink:title="Global piecewise constant Larson&#45;Niklasson method with :math:`RT_0`" target="_top">
<polygon fill="none" stroke="black" stroke-width="0.5" points="341.5,-130 258.5,-130 258.5,-111 341.5,-111 341.5,-130"/>
<text text-anchor="middle" x="300" y="-118" font-family="Vera Sans, DejaVu Sans, Liberation Sans, Arial, Helvetica, sans" font-size="10.00">VPP_PWC_RT0</text>
</a>
</g>
</g>
<!-- VelocityPostProcessingAlgorithmBase&#45;&gt;VPP_PWC_RT0 -->
<g id="edge7" class="edge"><title>VelocityPostProcessingAlgorithmBase&#45;&gt;VPP_PWC_RT0</title>
<path fill="none" stroke="black" stroke-width="0.5" d="M151.115,-147.987C165.931,-145.252 182.106,-142.262 197,-139.5 215.298,-136.107 235.439,-132.358 252.956,-129.093"/>
<polygon fill="black" stroke="black" stroke-width="0.5" points="253.708,-130.733 258.303,-128.096 253.067,-127.292 253.708,-130.733"/>
</g>
<!-- VPP_PWL_RT0 -->
<g id="node11" class="node"><title>VPP_PWL_RT0</title>
<g id="a_node11"><a xlink:href="../api/proteus.PostProcessingTools.html#proteus.PostProcessingTools.VPP_PWL_RT0" xlink:title="Local Larson&#45;Niklasson method with RT_0 representation for element" target="_top">
<polygon fill="none" stroke="black" stroke-width="0.5" points="341,-93 259,-93 259,-74 341,-74 341,-93"/>
<text text-anchor="middle" x="300" y="-81" font-family="Vera Sans, DejaVu Sans, Liberation Sans, Arial, Helvetica, sans" font-size="10.00">VPP_PWL_RT0</text>
</a>
</g>
</g>
<!-- VelocityPostProcessingAlgorithmBase&#45;&gt;VPP_PWL_RT0 -->
<g id="edge10" class="edge"><title>VelocityPostProcessingAlgorithmBase&#45;&gt;VPP_PWL_RT0</title>
<path fill="none" stroke="black" stroke-width="0.5" d="M176.622,-147.938C183.716,-145.682 190.624,-142.908 197,-139.5 217.235,-128.685 213.317,-114.29 233,-102.5 239.399,-98.6666 246.613,-95.5721 253.86,-93.0843"/>
<polygon fill="black" stroke="black" stroke-width="0.5" points="254.658,-94.6654 258.873,-91.4573 253.577,-91.3363 254.658,-94.6654"/>
</g>
<!-- VPP_SUN_GS_RT0 -->
<g id="node14" class="node"><title>VPP_SUN_GS_RT0</title>
<g id="a_node14"><a xlink:href="../api/proteus.PostProcessingTools.html#proteus.PostProcessingTools.VPP_SUN_GS_RT0" xlink:title="Local Sun&#45;Wheeler &quot;Gauss&#45;Seidel&quot; method with :math:`RT_0` representation" target="_top">
<polygon fill="none" stroke="black" stroke-width="0.5" points="352,-56 248,-56 248,-37 352,-37 352,-56"/>
<text text-anchor="middle" x="300" y="-44" font-family="Vera Sans, DejaVu Sans, Liberation Sans, Arial, Helvetica, sans" font-size="10.00">VPP_SUN_GS_RT0</text>
</a>
</g>
</g>
<!-- VelocityPostProcessingAlgorithmBase&#45;&gt;VPP_SUN_GS_RT0 -->
<g id="edge12" class="edge"><title>VelocityPostProcessingAlgorithmBase&#45;&gt;VPP_SUN_GS_RT0</title>
<path fill="none" stroke="black" stroke-width="0.5" d="M182.741,-147.933C187.805,-145.617 192.616,-142.835 197,-139.5 226.11,-117.357 205.007,-89.0383 233,-65.5 236.345,-62.6871 240.086,-60.2902 244.04,-58.2478"/>
<polygon fill="black" stroke="black" stroke-width="0.5" points="244.998,-59.7304 248.768,-56.0094 243.5,-56.567 244.998,-59.7304"/>
</g>
<!-- VPP_SUN_RT0 -->
<g id="node15" class="node"><title>VPP_SUN_RT0</title>
<g id="a_node15"><a xlink:href="../api/proteus.PostProcessingTools.html#proteus.PostProcessingTools.VPP_SUN_RT0" xlink:title="Global piecewise constant Sun&#45;Wheeler method with :math:`RT_0`" target="_top">
<polygon fill="none" stroke="black" stroke-width="0.5" points="342,-19 258,-19 258,-0 342,-0 342,-19"/>
<text text-anchor="middle" x="300" y="-7" font-family="Vera Sans, DejaVu Sans, Liberation Sans, Arial, Helvetica, sans" font-size="10.00">VPP_SUN_RT0</text>
</a>
</g>
</g>
<!-- VelocityPostProcessingAlgorithmBase&#45;&gt;VPP_SUN_RT0 -->
<g id="edge13" class="edge"><title>VelocityPostProcessingAlgorithmBase&#45;&gt;VPP_SUN_RT0</title>
<path fill="none" stroke="black" stroke-width="0.5" d="M184.677,-147.904C189.093,-145.567 193.247,-142.791 197,-139.5 235.995,-105.307 195.721,-64.5567 233,-28.5 238.501,-23.1791 245.393,-19.3319 252.632,-16.554"/>
<polygon fill="black" stroke="black" stroke-width="0.5" points="253.539,-18.0917 257.687,-14.7967 252.389,-14.7858 253.539,-18.0917"/>
</g>
<!-- VPP_PWL_BDM -->
<g id="node10" class="node"><title>VPP_PWL_BDM</title>
<g id="a_node10"><a xlink:href="../api/proteus.PostProcessingTools.html#proteus.PostProcessingTools.VPP_PWL_BDM" xlink:title="Local Larson&#45;Niklasson method with BDM1 representation for element" target="_top">
<polygon fill="none" stroke="black" stroke-width="0.5" points="500,-111 412,-111 412,-92 500,-92 500,-111"/>
<text text-anchor="middle" x="456" y="-99" font-family="Vera Sans, DejaVu Sans, Liberation Sans, Arial, Helvetica, sans" font-size="10.00">VPP_PWL_BDM</text>
</a>
</g>
</g>
<!-- VPP_PWL_RT0&#45;&gt;VPP_PWL_BDM -->
<g id="edge8" class="edge"><title>VPP_PWL_RT0&#45;&gt;VPP_PWL_BDM</title>
<path fill="none" stroke="black" stroke-width="0.5" d="M341.06,-88.1823C361.191,-90.5353 385.737,-93.4044 406.884,-95.8761"/>
<polygon fill="black" stroke="black" stroke-width="0.5" points="406.731,-97.6201 411.901,-96.4624 407.138,-94.1437 406.731,-97.6201"/>
</g>
<!-- VPP_PWL_RT0_OPT -->
<g id="node13" class="node"><title>VPP_PWL_RT0_OPT</title>
<g id="a_node13"><a xlink:href="../api/proteus.PostProcessingTools.html#proteus.PostProcessingTools.VPP_PWL_RT0_OPT" xlink:title="Version of local Larson&#45;Niklasson scheme to use with optimized" target="_top">
<polygon fill="none" stroke="black" stroke-width="0.5" points="509,-74 403,-74 403,-55 509,-55 509,-74"/>
<text text-anchor="middle" x="456" y="-62" font-family="Vera Sans, DejaVu Sans, Liberation Sans, Arial, Helvetica, sans" font-size="10.00">VPP_PWL_RT0_OPT</text>
</a>
</g>
</g>
<!-- VPP_PWL_RT0&#45;&gt;VPP_PWL_RT0_OPT -->
<g id="edge11" class="edge"><title>VPP_PWL_RT0&#45;&gt;VPP_PWL_RT0_OPT</title>
<path fill="none" stroke="black" stroke-width="0.5" d="M341.06,-78.5576C358.329,-76.4269 378.848,-73.8953 397.683,-71.5716"/>
<polygon fill="black" stroke="black" stroke-width="0.5" points="398.198,-73.2713 402.947,-70.9222 397.77,-69.7977 398.198,-73.2713"/>
</g>
<!-- VPP_PWL_BDM_OPT -->
<g id="node12" class="node"><title>VPP_PWL_BDM_OPT</title>
<g id="a_node12"><a xlink:href="../api/proteus.PostProcessingTools.html#proteus.PostProcessingTools.VPP_PWL_BDM_OPT" xlink:title="Local Larson&#45;Niklasson method with BDM1 representation for element" target="_top">
<polygon fill="none" stroke="black" stroke-width="0.5" points="657,-74 545,-74 545,-55 657,-55 657,-74"/>
<text text-anchor="middle" x="601" y="-62" font-family="Vera Sans, DejaVu Sans, Liberation Sans, Arial, Helvetica, sans" font-size="10.00">VPP_PWL_BDM_OPT</text>
</a>
</g>
</g>
<!-- VPP_PWL_RT0_OPT&#45;&gt;VPP_PWL_BDM_OPT -->
<g id="edge9" class="edge"><title>VPP_PWL_RT0_OPT&#45;&gt;VPP_PWL_BDM_OPT</title>
<path fill="none" stroke="black" stroke-width="0.5" d="M509.031,-64.5C519.05,-64.5 529.622,-64.5 539.874,-64.5"/>
<polygon fill="black" stroke="black" stroke-width="0.5" points="539.877,-66.2501 544.877,-64.5 539.877,-62.7501 539.877,-66.2501"/>
</g>
<!-- VelocityPostProcessor_Original -->
<g id="node16" class="node"><title>VelocityPostProcessor_Original</title>
<g id="a_node16"><a xlink:href="../api/proteus.PostProcessingTools.html#proteus.PostProcessingTools.VelocityPostProcessor_Original" xlink:title="accumulate basic functionality for post&#45;processing velocity vields" target="_top">
<polygon fill="none" stroke="black" stroke-width="0.5" points="180,-204 17,-204 17,-185 180,-185 180,-204"/>
<text text-anchor="middle" x="98.5" y="-192" font-family="Vera Sans, DejaVu Sans, Liberation Sans, Arial, Helvetica, sans" font-size="10.00">VelocityPostProcessor_Original</text>
</a>
</g>
</g>
</g>
</svg>
