<?xml version="1.0" encoding="UTF-8" standalone="no"?>
<!DOCTYPE svg PUBLIC "-//W3C//DTD SVG 1.1//EN"
 "http://www.w3.org/Graphics/SVG/1.1/DTD/svg11.dtd">
<!-- Generated by graphviz version 2.38.0 (20140413.2041)
 -->
<!-- Title: inheritance44a015191f Pages: 1 -->
<svg width="206pt" height="249pt"
 viewBox="0.00 0.00 206.00 249.00" xmlns="http://www.w3.org/2000/svg" xmlns:xlink="http://www.w3.org/1999/xlink">
<g id="graph0" class="graph" transform="scale(1 1) rotate(0) translate(4 245)">
<title>inheritance44a015191f</title>
<polygon fill="white" stroke="none" points="-4,4 -4,-245 202,-245 202,4 -4,4"/>
<!-- BCContainer -->
<g id="node1" class="node"><title>BCContainer</title>
<g id="a_node1"><a xlink:href="../api/proteus.SpatialTools.html#proteus.SpatialTools.BCContainer" xlink:title="Creates a class from a dictionary (keys become class variable names)" target="_top">
<polygon fill="none" stroke="black" stroke-width="0.5" points="77,-93 0,-93 0,-74 77,-74 77,-93"/>
<text text-anchor="middle" x="38.5" y="-81" font-family="Vera Sans, DejaVu Sans, Liberation Sans, Arial, Helvetica, sans" font-size="10.00">BCContainer</text>
</a>
</g>
</g>
<!-- Circle -->
<g id="node2" class="node"><title>Circle</title>
<g id="a_node2"><a xlink:href="../api/proteus.SpatialTools.html#proteus.SpatialTools.Circle" xlink:title="Class to create a circular shape." target="_top">
<polygon fill="none" stroke="black" stroke-width="0.5" points="182.5,-241 128.5,-241 128.5,-222 182.5,-222 182.5,-241"/>
<text text-anchor="middle" x="155.5" y="-229" font-family="Vera Sans, DejaVu Sans, Liberation Sans, Arial, Helvetica, sans" font-size="10.00">Circle</text>
</a>
</g>
</g>
<!-- Shape -->
<g id="node3" class="node"><title>Shape</title>
<g id="a_node3"><a xlink:href="../api/proteus.SpatialTools.html#proteus.SpatialTools.Shape" xlink:title="Base/super class of all shapes." target="_top">
<polygon fill="none" stroke="black" stroke-width="0.5" points="65.5,-130 11.5,-130 11.5,-111 65.5,-111 65.5,-130"/>
<text text-anchor="middle" x="38.5" y="-118" font-family="Vera Sans, DejaVu Sans, Liberation Sans, Arial, Helvetica, sans" font-size="10.00">Shape</text>
</a>
</g>
</g>
<!-- Shape&#45;&gt;Circle -->
<g id="edge1" class="edge"><title>Shape&#45;&gt;Circle</title>
<path fill="none" stroke="black" stroke-width="0.5" d="M44.9429,-130.225C55.7286,-148.723 81.5163,-189.286 113,-213.5 116.311,-216.047 120.038,-218.312 123.864,-220.303"/>
<polygon fill="black" stroke="black" stroke-width="0.5" points="123.123,-221.888 128.383,-222.515 124.662,-218.745 123.123,-221.888"/>
</g>
<!-- Cuboid -->
<g id="node4" class="node"><title>Cuboid</title>
<g id="a_node4"><a xlink:href="../api/proteus.SpatialTools.html#proteus.SpatialTools.Cuboid" xlink:title="Class to create a 3D cuboid" target="_top">
<polygon fill="none" stroke="black" stroke-width="0.5" points="182.5,-204 128.5,-204 128.5,-185 182.5,-185 182.5,-204"/>
<text text-anchor="middle" x="155.5" y="-192" font-family="Vera Sans, DejaVu Sans, Liberation Sans, Arial, Helvetica, sans" font-size="10.00">Cuboid</text>
</a>
</g>
</g>
<!-- Shape&#45;&gt;Cuboid -->
<g id="edge2" class="edge"><title>Shape&#45;&gt;Cuboid</title>
<path fill="none" stroke="black" stroke-width="0.5" d="M50.3583,-130.124C64.1991,-142.064 89.1953,-162.547 113,-176.5 116.881,-178.775 121.103,-180.933 125.319,-182.912"/>
<polygon fill="black" stroke="black" stroke-width="0.5" points="124.599,-184.508 129.875,-184.987 126.05,-181.322 124.599,-184.508"/>
</g>
<!-- CustomShape -->
<g id="node5" class="node"><title>CustomShape</title>
<g id="a_node5"><a xlink:href="../api/proteus.SpatialTools.html#proteus.SpatialTools.CustomShape" xlink:title="Class to create a custom 2D or 3D shape" target="_top">
<polygon fill="none" stroke="black" stroke-width="0.5" points="198,-167 113,-167 113,-148 198,-148 198,-167"/>
<text text-anchor="middle" x="155.5" y="-155" font-family="Vera Sans, DejaVu Sans, Liberation Sans, Arial, Helvetica, sans" font-size="10.00">CustomShape</text>
</a>
</g>
</g>
<!-- Shape&#45;&gt;CustomShape -->
<g id="edge3" class="edge"><title>Shape&#45;&gt;CustomShape</title>
<path fill="none" stroke="black" stroke-width="0.5" d="M65.5953,-128.896C81.708,-134.08 102.567,-140.791 120.03,-146.41"/>
<polygon fill="black" stroke="black" stroke-width="0.5" points="119.563,-148.098 124.859,-147.963 120.635,-144.766 119.563,-148.098"/>
</g>
<!-- Cylinder -->
<g id="node6" class="node"><title>Cylinder</title>
<g id="a_node6"><a xlink:href="../api/proteus.SpatialTools.html#proteus.SpatialTools.Cylinder" xlink:title="Class to create a cylinder." target="_top">
<polygon fill="none" stroke="black" stroke-width="0.5" points="183,-130 128,-130 128,-111 183,-111 183,-130"/>
<text text-anchor="middle" x="155.5" y="-118" font-family="Vera Sans, DejaVu Sans, Liberation Sans, Arial, Helvetica, sans" font-size="10.00">Cylinder</text>
</a>
</g>
</g>
<!-- Shape&#45;&gt;Cylinder -->
<g id="edge4" class="edge"><title>Shape&#45;&gt;Cylinder</title>
<path fill="none" stroke="black" stroke-width="0.5" d="M65.5953,-120.5C82.4111,-120.5 104.396,-120.5 122.296,-120.5"/>
<polygon fill="black" stroke="black" stroke-width="0.5" points="122.71,-122.25 127.71,-120.5 122.71,-118.75 122.71,-122.25"/>
</g>
<!-- Rectangle -->
<g id="node7" class="node"><title>Rectangle</title>
<g id="a_node7"><a xlink:href="../api/proteus.SpatialTools.html#proteus.SpatialTools.Rectangle" xlink:title="Class to create a rectangle" target="_top">
<polygon fill="none" stroke="black" stroke-width="0.5" points="187,-93 124,-93 124,-74 187,-74 187,-93"/>
<text text-anchor="middle" x="155.5" y="-81" font-family="Vera Sans, DejaVu Sans, Liberation Sans, Arial, Helvetica, sans" font-size="10.00">Rectangle</text>
</a>
</g>
</g>
<!-- Shape&#45;&gt;Rectangle -->
<g id="edge5" class="edge"><title>Shape&#45;&gt;Rectangle</title>
<path fill="none" stroke="black" stroke-width="0.5" d="M65.5953,-112.104C81.708,-106.92 102.567,-100.209 120.03,-94.5903"/>
<polygon fill="black" stroke="black" stroke-width="0.5" points="120.635,-96.234 124.859,-93.0367 119.563,-92.9022 120.635,-96.234"/>
</g>
<!-- ShapeSTL -->
<g id="node8" class="node"><title>ShapeSTL</title>
<g id="a_node8"><a xlink:href="../api/proteus.SpatialTools.html#proteus.SpatialTools.ShapeSTL" xlink:title="Class to extract geometrical information from STL file" target="_top">
<polygon fill="none" stroke="black" stroke-width="0.5" points="188,-56 123,-56 123,-37 188,-37 188,-56"/>
<text text-anchor="middle" x="155.5" y="-44" font-family="Vera Sans, DejaVu Sans, Liberation Sans, Arial, Helvetica, sans" font-size="10.00">ShapeSTL</text>
</a>
</g>
</g>
<!-- Shape&#45;&gt;ShapeSTL -->
<g id="edge6" class="edge"><title>Shape&#45;&gt;ShapeSTL</title>
<path fill="none" stroke="black" stroke-width="0.5" d="M62.832,-110.873C67.697,-108.439 72.661,-105.619 77,-102.5 95.6293,-89.1071 94.2498,-78.7231 113,-65.5 116.709,-62.8841 120.837,-60.4875 125.009,-58.3432"/>
<polygon fill="black" stroke="black" stroke-width="0.5" points="125.822,-59.8937 129.536,-56.1169 124.277,-56.7529 125.822,-59.8937"/>
</g>
<!-- Sphere -->
<g id="node9" class="node"><title>Sphere</title>
<g id="a_node9"><a xlink:href="../api/proteus.SpatialTools.html#proteus.SpatialTools.Sphere" xlink:title="Class to create a 3D cuboid" target="_top">
<polygon fill="none" stroke="black" stroke-width="0.5" points="182.5,-19 128.5,-19 128.5,-0 182.5,-0 182.5,-19"/>
<text text-anchor="middle" x="155.5" y="-7" font-family="Vera Sans, DejaVu Sans, Liberation Sans, Arial, Helvetica, sans" font-size="10.00">Sphere</text>
</a>
</g>
</g>
<!-- Shape&#45;&gt;Sphere -->
<g id="edge7" class="edge"><title>Shape&#45;&gt;Sphere</title>
<path fill="none" stroke="black" stroke-width="0.5" d="M65.6112,-110.813C69.7412,-108.514 73.7233,-105.76 77,-102.5 102.93,-76.7062 86.8369,-54.0572 113,-28.5 116.096,-25.4753 119.761,-22.8764 123.61,-20.6592"/>
<polygon fill="black" stroke="black" stroke-width="0.5" points="124.594,-22.1184 128.191,-18.2291 122.953,-19.0266 124.594,-22.1184"/>
</g>
</g>
</svg>
