<?xml version="1.0" encoding="UTF-8" standalone="no"?>
<!DOCTYPE svg PUBLIC "-//W3C//DTD SVG 1.1//EN"
 "http://www.w3.org/Graphics/SVG/1.1/DTD/svg11.dtd">
<!-- Generated by graphviz version 2.40.1 (20161225.0304)
 -->
<!-- Title: inheritance51f61a8c20 Pages: 1 -->
<svg width="455pt" height="138pt"
 viewBox="0.00 0.00 455.00 138.00" xmlns="http://www.w3.org/2000/svg" xmlns:xlink="http://www.w3.org/1999/xlink">
<g id="graph0" class="graph" transform="scale(1 1) rotate(0) translate(4 134)">
<title>inheritance51f61a8c20</title>
<polygon fill="#ffffff" stroke="transparent" points="-4,4 -4,-134 451,-134 451,4 -4,4"/>
<!-- TC_base -->
<g id="node1" class="node">
<title>TC_base</title>
<g id="a_node1"><a xlink:href="../proteus.TransportCoefficients.html#proteus.TransportCoefficients.TC_base" xlink:title="This is the base class for coefficients of the vector transport" target="_top">
<polygon fill="none" stroke="#000000" stroke-width=".5" points="57,-74 0,-74 0,-55 57,-55 57,-74"/>
<text text-anchor="middle" x="28.5" y="-62" font-family="Vera Sans, DejaVu Sans, Liberation Sans, Arial, Helvetica, sans" font-size="10.00" fill="#000000">TC_base</text>
</a>
</g>
</g>
<!-- TwophaseDarcyFlow_base -->
<g id="node2" class="node">
<title>TwophaseDarcyFlow_base</title>
<g id="a_node2"><a xlink:href="../api/proteus.TwophaseDarcyCoefficients.html#proteus.TwophaseDarcyCoefficients.TwophaseDarcyFlow_base" xlink:title="TwophaseDarcyFlow_base" target="_top">
<polygon fill="none" stroke="#000000" stroke-width=".5" points="237,-74 93,-74 93,-55 237,-55 237,-74"/>
<text text-anchor="middle" x="165" y="-62" font-family="Vera Sans, DejaVu Sans, Liberation Sans, Arial, Helvetica, sans" font-size="10.00" fill="#000000">TwophaseDarcyFlow_base</text>
</a>
</g>
</g>
<!-- TC_base&#45;&gt;TwophaseDarcyFlow_base -->
<g id="edge1" class="edge">
<title>TC_base&#45;&gt;TwophaseDarcyFlow_base</title>
<path fill="none" stroke="#000000" stroke-width=".5" d="M57.1149,-64.5C66.267,-64.5 76.8742,-64.5 87.7927,-64.5"/>
<polygon fill="#000000" stroke="#000000" stroke-width=".5" points="87.8271,-66.2501 92.8271,-64.5 87.8271,-62.7501 87.8271,-66.2501"/>
</g>
<!-- TwophaseDarcy_fc -->
<g id="node3" class="node">
<title>TwophaseDarcy_fc</title>
<g id="a_node3"><a xlink:href="../api/proteus.TwophaseDarcyCoefficients.html#proteus.TwophaseDarcyCoefficients.TwophaseDarcy_fc" xlink:title="TwophaseDarcy_fc" target="_top">
<polygon fill="none" stroke="#000000" stroke-width=".5" points="413.5,-130 306.5,-130 306.5,-111 413.5,-111 413.5,-130"/>
<text text-anchor="middle" x="360" y="-118" font-family="Vera Sans, DejaVu Sans, Liberation Sans, Arial, Helvetica, sans" font-size="10.00" fill="#000000">TwophaseDarcy_fc</text>
</a>
</g>
</g>
<!-- TwophaseDarcyFlow_base&#45;&gt;TwophaseDarcy_fc -->
<g id="edge2" class="edge">
<title>TwophaseDarcyFlow_base&#45;&gt;TwophaseDarcy_fc</title>
<path fill="none" stroke="#000000" stroke-width=".5" d="M189.1515,-74.0483C210.8457,-82.3717 243.6998,-94.354 273,-102.5 282.7057,-105.1984 293.1219,-107.6915 303.2542,-109.9085"/>
<polygon fill="#000000" stroke="#000000" stroke-width=".5" points="302.9446,-111.6319 308.2011,-110.9743 303.6819,-108.2104 302.9446,-111.6319"/>
</g>
<!-- TwophaseDarcy_fc_ff -->
<g id="node4" class="node">
<title>TwophaseDarcy_fc_ff</title>
<g id="a_node4"><a xlink:href="../api/proteus.TwophaseDarcyCoefficients.html#proteus.TwophaseDarcyCoefficients.TwophaseDarcy_fc_ff" xlink:title="TwophaseDarcy_fc_ff" target="_top">
<polygon fill="none" stroke="#000000" stroke-width=".5" points="419.5,-93 300.5,-93 300.5,-74 419.5,-74 419.5,-93"/>
<text text-anchor="middle" x="360" y="-81" font-family="Vera Sans, DejaVu Sans, Liberation Sans, Arial, Helvetica, sans" font-size="10.00" fill="#000000">TwophaseDarcy_fc_ff</text>
</a>
</g>
</g>
<!-- TwophaseDarcyFlow_base&#45;&gt;TwophaseDarcy_fc_ff -->
<g id="edge3" class="edge">
<title>TwophaseDarcyFlow_base&#45;&gt;TwophaseDarcy_fc_ff</title>
<path fill="none" stroke="#000000" stroke-width=".5" d="M237.0568,-71.5209C256.0972,-73.3761 276.5296,-75.367 295.1625,-77.1825"/>
<polygon fill="#000000" stroke="#000000" stroke-width=".5" points="295.2214,-78.9464 300.3676,-77.6897 295.5609,-75.4629 295.2214,-78.9464"/>
</g>
<!-- TwophaseDarcy_split_pressure -->
<g id="node5" class="node">
<title>TwophaseDarcy_split_pressure</title>
<g id="a_node5"><a xlink:href="../api/proteus.TwophaseDarcyCoefficients.html#proteus.TwophaseDarcyCoefficients.TwophaseDarcy_split_pressure" xlink:title="TwophaseDarcy_split_pressure" target="_top">
<polygon fill="none" stroke="#000000" stroke-width=".5" points="443.5,-56 276.5,-56 276.5,-37 443.5,-37 443.5,-56"/>
<text text-anchor="middle" x="360" y="-44" font-family="Vera Sans, DejaVu Sans, Liberation Sans, Arial, Helvetica, sans" font-size="10.00" fill="#000000">TwophaseDarcy_split_pressure</text>
</a>
</g>
</g>
<!-- TwophaseDarcyFlow_base&#45;&gt;TwophaseDarcy_split_pressure -->
<g id="edge4" class="edge">
<title>TwophaseDarcyFlow_base&#45;&gt;TwophaseDarcy_split_pressure</title>
<path fill="none" stroke="#000000" stroke-width=".5" d="M237.0568,-57.8486C248.1586,-56.8238 259.7337,-55.7554 271.1493,-54.7016"/>
<polygon fill="#000000" stroke="#000000" stroke-width=".5" points="271.5629,-56.421 276.3809,-54.2187 271.2412,-52.9358 271.5629,-56.421"/>
</g>
<!-- TwophaseDarcy_split_saturation -->
<g id="node6" class="node">
<title>TwophaseDarcy_split_saturation</title>
<g id="a_node6"><a xlink:href="../api/proteus.TwophaseDarcyCoefficients.html#proteus.TwophaseDarcyCoefficients.TwophaseDarcy_split_saturation" xlink:title="TwophaseDarcy_split_saturation" target="_top">
<polygon fill="none" stroke="#000000" stroke-width=".5" points="447,-19 273,-19 273,0 447,0 447,-19"/>
<text text-anchor="middle" x="360" y="-7" font-family="Vera Sans, DejaVu Sans, Liberation Sans, Arial, Helvetica, sans" font-size="10.00" fill="#000000">TwophaseDarcy_split_saturation</text>
</a>
</g>
</g>
<!-- TwophaseDarcyFlow_base&#45;&gt;TwophaseDarcy_split_saturation -->
<g id="edge5" class="edge">
<title>TwophaseDarcyFlow_base&#45;&gt;TwophaseDarcy_split_saturation</title>
<path fill="none" stroke="#000000" stroke-width=".5" d="M190.9488,-54.9826C212.6779,-47.2232 244.6055,-36.309 273,-28.5 283.8586,-25.5137 295.5817,-22.6885 306.7982,-20.1745"/>
<polygon fill="#000000" stroke="#000000" stroke-width=".5" points="307.408,-21.832 311.9112,-19.0419 306.651,-18.4148 307.408,-21.832"/>
</g>
</g>
</svg>
