<?xml version="1.0" encoding="UTF-8" standalone="no"?>
<!DOCTYPE svg PUBLIC "-//W3C//DTD SVG 1.1//EN"
 "http://www.w3.org/Graphics/SVG/1.1/DTD/svg11.dtd">
<!-- Generated by graphviz version 2.40.1 (20161225.0304)
 -->
<!-- Title: inheritance46841c7b14 Pages: 1 -->
<svg width="261pt" height="656pt"
 viewBox="0.00 0.00 261.00 656.00" xmlns="http://www.w3.org/2000/svg" xmlns:xlink="http://www.w3.org/1999/xlink">
<g id="graph0" class="graph" transform="scale(1 1) rotate(0) translate(4 652)">
<title>inheritance46841c7b14</title>
<polygon fill="#ffffff" stroke="transparent" points="-4,4 -4,-652 257,-652 257,4 -4,4"/>
<!-- CompositeTetrahedron -->
<g id="node1" class="node">
<title>CompositeTetrahedron</title>
<g id="a_node1"><a xlink:href="../api/proteus.Quadrature.html#proteus.Quadrature.CompositeTetrahedron" xlink:title="CompositeTetrahedron" target="_top">
<polygon fill="none" stroke="#000000" stroke-width=".5" points="235,-648 108,-648 108,-629 235,-629 235,-648"/>
<text text-anchor="middle" x="171.5" y="-636" font-family="Vera Sans, DejaVu Sans, Liberation Sans, Arial, Helvetica, sans" font-size="10.00" fill="#000000">CompositeTetrahedron</text>
</a>
</g>
</g>
<!-- Q_base -->
<g id="node2" class="node">
<title>Q_base</title>
<g id="a_node2"><a xlink:href="../api/proteus.Quadrature.html#proteus.Quadrature.Q_base" xlink:title="The base class for quadrature methods." target="_top">
<polygon fill="none" stroke="#000000" stroke-width=".5" points="54,-333 0,-333 0,-314 54,-314 54,-333"/>
<text text-anchor="middle" x="27" y="-321" font-family="Vera Sans, DejaVu Sans, Liberation Sans, Arial, Helvetica, sans" font-size="10.00" fill="#000000">Q_base</text>
</a>
</g>
</g>
<!-- Q_base&#45;&gt;CompositeTetrahedron -->
<g id="edge1" class="edge">
<title>Q_base&#45;&gt;CompositeTetrahedron</title>
<path fill="none" stroke="#000000" stroke-width=".5" d="M27.6648,-333.0377C31.0706,-379.1185 48.0594,-578.2079 90,-620.5 93.7497,-624.2812 98.1024,-627.3476 102.8077,-629.8267"/>
<polygon fill="#000000" stroke="#000000" stroke-width=".5" points="102.3541,-631.5487 107.6212,-632.1147 103.8567,-628.3877 102.3541,-631.5487"/>
</g>
<!-- CompositeTrapezoidalEdge -->
<g id="node3" class="node">
<title>CompositeTrapezoidalEdge</title>
<g id="a_node3"><a xlink:href="../api/proteus.Quadrature.html#proteus.Quadrature.CompositeTrapezoidalEdge" xlink:title="Composite trapezoidal rule on the unit interval." target="_top">
<polygon fill="none" stroke="#000000" stroke-width=".5" points="246,-611 97,-611 97,-592 246,-592 246,-611"/>
<text text-anchor="middle" x="171.5" y="-599" font-family="Vera Sans, DejaVu Sans, Liberation Sans, Arial, Helvetica, sans" font-size="10.00" fill="#000000">CompositeTrapezoidalEdge</text>
</a>
</g>
</g>
<!-- Q_base&#45;&gt;CompositeTrapezoidalEdge -->
<g id="edge2" class="edge">
<title>Q_base&#45;&gt;CompositeTrapezoidalEdge</title>
<path fill="none" stroke="#000000" stroke-width=".5" d="M27.9958,-333.251C32.5679,-376.102 52.9278,-547.1749 90,-583.5 92.1347,-585.5917 94.4544,-587.4631 96.9155,-589.1363"/>
<polygon fill="#000000" stroke="#000000" stroke-width=".5" points="96.3111,-590.8183 101.4887,-591.9386 98.1397,-587.834 96.3111,-590.8183"/>
</g>
<!-- CompositeTrapezoidalTriangle -->
<g id="node4" class="node">
<title>CompositeTrapezoidalTriangle</title>
<g id="a_node4"><a xlink:href="../api/proteus.Quadrature.html#proteus.Quadrature.CompositeTrapezoidalTriangle" xlink:title="Composite trapezoidal rule on the reference triangle" target="_top">
<polygon fill="none" stroke="#000000" stroke-width=".5" points="253,-574 90,-574 90,-555 253,-555 253,-574"/>
<text text-anchor="middle" x="171.5" y="-562" font-family="Vera Sans, DejaVu Sans, Liberation Sans, Arial, Helvetica, sans" font-size="10.00" fill="#000000">CompositeTrapezoidalTriangle</text>
</a>
</g>
</g>
<!-- Q_base&#45;&gt;CompositeTrapezoidalTriangle -->
<g id="edge3" class="edge">
<title>Q_base&#45;&gt;CompositeTrapezoidalTriangle</title>
<path fill="none" stroke="#000000" stroke-width=".5" d="M28.3977,-333.1543C34.2082,-371.9656 57.668,-515.9898 90,-546.5 92.3515,-548.719 94.9122,-550.6879 97.6277,-552.4334"/>
<polygon fill="#000000" stroke="#000000" stroke-width=".5" points="96.8147,-553.9852 102.0148,-554.9965 98.5804,-550.9632 96.8147,-553.9852"/>
</g>
<!-- CompositeTriangle -->
<g id="node5" class="node">
<title>CompositeTriangle</title>
<g id="a_node5"><a xlink:href="../api/proteus.Quadrature.html#proteus.Quadrature.CompositeTriangle" xlink:title="Composite quadrature rule on the unit triangle." target="_top">
<polygon fill="none" stroke="#000000" stroke-width=".5" points="225,-537 118,-537 118,-518 225,-518 225,-537"/>
<text text-anchor="middle" x="171.5" y="-525" font-family="Vera Sans, DejaVu Sans, Liberation Sans, Arial, Helvetica, sans" font-size="10.00" fill="#000000">CompositeTriangle</text>
</a>
</g>
</g>
<!-- Q_base&#45;&gt;CompositeTriangle -->
<g id="edge4" class="edge">
<title>Q_base&#45;&gt;CompositeTriangle</title>
<path fill="none" stroke="#000000" stroke-width=".5" d="M29.023,-333.416C36.3403,-368.3322 62.4543,-484.8096 90,-509.5 96.4336,-515.2667 104.2915,-519.3237 112.5611,-522.1544"/>
<polygon fill="#000000" stroke="#000000" stroke-width=".5" points="112.4604,-523.9552 117.7543,-523.7628 113.4959,-520.6118 112.4604,-523.9552"/>
</g>
<!-- CubeGaussQuadrature -->
<g id="node6" class="node">
<title>CubeGaussQuadrature</title>
<g id="a_node6"><a xlink:href="../api/proteus.Quadrature.html#proteus.Quadrature.CubeGaussQuadrature" xlink:title="A class for all quadrature on unit simplices." target="_top">
<polygon fill="none" stroke="#000000" stroke-width=".5" points="234.5,-500 108.5,-500 108.5,-481 234.5,-481 234.5,-500"/>
<text text-anchor="middle" x="171.5" y="-488" font-family="Vera Sans, DejaVu Sans, Liberation Sans, Arial, Helvetica, sans" font-size="10.00" fill="#000000">CubeGaussQuadrature</text>
</a>
</g>
</g>
<!-- Q_base&#45;&gt;CubeGaussQuadrature -->
<g id="edge5" class="edge">
<title>Q_base&#45;&gt;CubeGaussQuadrature</title>
<path fill="none" stroke="#000000" stroke-width=".5" d="M28.0782,-333.3093C31.5717,-360.1237 45.0976,-435.132 90,-472.5 94.0097,-475.8369 98.5033,-478.5912 103.2655,-480.8608"/>
<polygon fill="#000000" stroke="#000000" stroke-width=".5" points="102.8265,-482.5785 108.1092,-482.9725 104.2252,-479.3701 102.8265,-482.5785"/>
</g>
<!-- FaceBarycenterEdge -->
<g id="node7" class="node">
<title>FaceBarycenterEdge</title>
<g id="a_node7"><a xlink:href="../api/proteus.Quadrature.html#proteus.Quadrature.FaceBarycenterEdge" xlink:title="FaceBarycenterEdge" target="_top">
<polygon fill="none" stroke="#000000" stroke-width=".5" points="229.5,-463 113.5,-463 113.5,-444 229.5,-444 229.5,-463"/>
<text text-anchor="middle" x="171.5" y="-451" font-family="Vera Sans, DejaVu Sans, Liberation Sans, Arial, Helvetica, sans" font-size="10.00" fill="#000000">FaceBarycenterEdge</text>
</a>
</g>
</g>
<!-- Q_base&#45;&gt;FaceBarycenterEdge -->
<g id="edge6" class="edge">
<title>Q_base&#45;&gt;FaceBarycenterEdge</title>
<path fill="none" stroke="#000000" stroke-width=".5" d="M29.4859,-333.09C35.6832,-354.9812 53.9758,-408.7965 90,-435.5 95.473,-439.557 101.6847,-442.7309 108.179,-445.2093"/>
<polygon fill="#000000" stroke="#000000" stroke-width=".5" points="107.8954,-446.9645 113.1929,-446.9721 109.0564,-443.6627 107.8954,-446.9645"/>
</g>
<!-- FaceBarycenterTetrahedron -->
<g id="node8" class="node">
<title>FaceBarycenterTetrahedron</title>
<g id="a_node8"><a xlink:href="../api/proteus.Quadrature.html#proteus.Quadrature.FaceBarycenterTetrahedron" xlink:title="FaceBarycenterTetrahedron" target="_top">
<polygon fill="none" stroke="#000000" stroke-width=".5" points="246,-426 97,-426 97,-407 246,-407 246,-426"/>
<text text-anchor="middle" x="171.5" y="-414" font-family="Vera Sans, DejaVu Sans, Liberation Sans, Arial, Helvetica, sans" font-size="10.00" fill="#000000">FaceBarycenterTetrahedron</text>
</a>
</g>
</g>
<!-- Q_base&#45;&gt;FaceBarycenterTetrahedron -->
<g id="edge7" class="edge">
<title>Q_base&#45;&gt;FaceBarycenterTetrahedron</title>
<path fill="none" stroke="#000000" stroke-width=".5" d="M32.1863,-333.0573C41.4982,-349.2509 62.658,-381.9332 90,-398.5 94.1826,-401.0343 98.6789,-403.2132 103.3335,-405.0864"/>
<polygon fill="#000000" stroke="#000000" stroke-width=".5" points="102.7392,-406.7325 108.0351,-406.8595 103.9743,-403.4577 102.7392,-406.7325"/>
</g>
<!-- FaceBarycenterTriangle -->
<g id="node9" class="node">
<title>FaceBarycenterTriangle</title>
<g id="a_node9"><a xlink:href="../api/proteus.Quadrature.html#proteus.Quadrature.FaceBarycenterTriangle" xlink:title="FaceBarycenterTriangle" target="_top">
<polygon fill="none" stroke="#000000" stroke-width=".5" points="236.5,-389 106.5,-389 106.5,-370 236.5,-370 236.5,-389"/>
<text text-anchor="middle" x="171.5" y="-377" font-family="Vera Sans, DejaVu Sans, Liberation Sans, Arial, Helvetica, sans" font-size="10.00" fill="#000000">FaceBarycenterTriangle</text>
</a>
</g>
</g>
<!-- Q_base&#45;&gt;FaceBarycenterTriangle -->
<g id="edge8" class="edge">
<title>Q_base&#45;&gt;FaceBarycenterTriangle</title>
<path fill="none" stroke="#000000" stroke-width=".5" d="M40.3346,-333.3152C52.6453,-341.9336 71.7331,-354.2027 90,-361.5 96.7786,-364.2079 104.0453,-366.5471 111.3454,-368.5579"/>
<polygon fill="#000000" stroke="#000000" stroke-width=".5" points="111.1175,-370.3079 116.3991,-369.8979 112.0147,-366.9248 111.1175,-370.3079"/>
</g>
<!-- GaussEdge -->
<g id="node10" class="node">
<title>GaussEdge</title>
<g id="a_node10"><a xlink:href="../api/proteus.Quadrature.html#proteus.Quadrature.GaussEdge" xlink:title="Gaussian Quadrature on the unit interval." target="_top">
<polygon fill="none" stroke="#000000" stroke-width=".5" points="207,-352 136,-352 136,-333 207,-333 207,-352"/>
<text text-anchor="middle" x="171.5" y="-340" font-family="Vera Sans, DejaVu Sans, Liberation Sans, Arial, Helvetica, sans" font-size="10.00" fill="#000000">GaussEdge</text>
</a>
</g>
</g>
<!-- Q_base&#45;&gt;GaussEdge -->
<g id="edge9" class="edge">
<title>Q_base&#45;&gt;GaussEdge</title>
<path fill="none" stroke="#000000" stroke-width=".5" d="M54.1793,-327.0738C75.7794,-329.9139 106.3278,-333.9306 130.8375,-337.1534"/>
<polygon fill="#000000" stroke="#000000" stroke-width=".5" points="130.7851,-338.9115 135.9706,-337.8283 131.2414,-335.4413 130.7851,-338.9115"/>
</g>
<!-- GaussPoint -->
<g id="node11" class="node">
<title>GaussPoint</title>
<g id="a_node11"><a xlink:href="../api/proteus.Quadrature.html#proteus.Quadrature.GaussPoint" xlink:title="A dummy class for integrating the boundary of the unit interval (i.e. a point)." target="_top">
<polygon fill="none" stroke="#000000" stroke-width=".5" points="207,-315 136,-315 136,-296 207,-296 207,-315"/>
<text text-anchor="middle" x="171.5" y="-303" font-family="Vera Sans, DejaVu Sans, Liberation Sans, Arial, Helvetica, sans" font-size="10.00" fill="#000000">GaussPoint</text>
</a>
</g>
</g>
<!-- Q_base&#45;&gt;GaussPoint -->
<g id="edge10" class="edge">
<title>Q_base&#45;&gt;GaussPoint</title>
<path fill="none" stroke="#000000" stroke-width=".5" d="M54.1793,-320.1143C75.7794,-317.4237 106.3278,-313.6183 130.8375,-310.5652"/>
<polygon fill="#000000" stroke="#000000" stroke-width=".5" points="131.2253,-312.2805 135.9706,-309.9258 130.7926,-308.8074 131.2253,-312.2805"/>
</g>
<!-- GaussTetrahedron -->
<g id="node12" class="node">
<title>GaussTetrahedron</title>
<g id="a_node12"><a xlink:href="../api/proteus.Quadrature.html#proteus.Quadrature.GaussTetrahedron" xlink:title="Gauss&#45;Legendre quadrature on the unit tetrahedron." target="_top">
<polygon fill="none" stroke="#000000" stroke-width=".5" points="223.5,-278 119.5,-278 119.5,-259 223.5,-259 223.5,-278"/>
<text text-anchor="middle" x="171.5" y="-266" font-family="Vera Sans, DejaVu Sans, Liberation Sans, Arial, Helvetica, sans" font-size="10.00" fill="#000000">GaussTetrahedron</text>
</a>
</g>
</g>
<!-- Q_base&#45;&gt;GaussTetrahedron -->
<g id="edge11" class="edge">
<title>Q_base&#45;&gt;GaussTetrahedron</title>
<path fill="none" stroke="#000000" stroke-width=".5" d="M40.9197,-313.9676C53.3084,-305.8766 72.1764,-294.4972 90,-287.5 97.9516,-284.3784 106.5499,-281.6884 115.0782,-279.3965"/>
<polygon fill="#000000" stroke="#000000" stroke-width=".5" points="115.9738,-280.9719 120.3729,-278.0205 115.0935,-277.5844 115.9738,-280.9719"/>
</g>
<!-- GaussTriangle -->
<g id="node13" class="node">
<title>GaussTriangle</title>
<g id="a_node13"><a xlink:href="../api/proteus.Quadrature.html#proteus.Quadrature.GaussTriangle" xlink:title="Gauss quadrature on the unit triangle." target="_top">
<polygon fill="none" stroke="#000000" stroke-width=".5" points="214,-241 129,-241 129,-222 214,-222 214,-241"/>
<text text-anchor="middle" x="171.5" y="-229" font-family="Vera Sans, DejaVu Sans, Liberation Sans, Arial, Helvetica, sans" font-size="10.00" fill="#000000">GaussTriangle</text>
</a>
</g>
</g>
<!-- Q_base&#45;&gt;GaussTriangle -->
<g id="edge12" class="edge">
<title>Q_base&#45;&gt;GaussTriangle</title>
<path fill="none" stroke="#000000" stroke-width=".5" d="M32.4251,-313.9797C41.9441,-298.1845 63.2127,-266.7001 90,-250.5 100.2254,-244.316 112.2931,-240.1445 123.9638,-237.3305"/>
<polygon fill="#000000" stroke="#000000" stroke-width=".5" points="124.4442,-239.0161 128.9347,-236.2057 123.6718,-235.6024 124.4442,-239.0161"/>
</g>
<!-- LobattoEdge -->
<g id="node14" class="node">
<title>LobattoEdge</title>
<g id="a_node14"><a xlink:href="../api/proteus.Quadrature.html#proteus.Quadrature.LobattoEdge" xlink:title="Gauss&#45;Lobatto quadrature on the unit interval." target="_top">
<polygon fill="none" stroke="#000000" stroke-width=".5" points="210,-204 133,-204 133,-185 210,-185 210,-204"/>
<text text-anchor="middle" x="171.5" y="-192" font-family="Vera Sans, DejaVu Sans, Liberation Sans, Arial, Helvetica, sans" font-size="10.00" fill="#000000">LobattoEdge</text>
</a>
</g>
</g>
<!-- Q_base&#45;&gt;LobattoEdge -->
<g id="edge13" class="edge">
<title>Q_base&#45;&gt;LobattoEdge</title>
<path fill="none" stroke="#000000" stroke-width=".5" d="M29.6564,-313.7845C36.1005,-292.1364 54.6918,-239.7805 90,-213.5 100.8033,-205.4589 114.4686,-200.7499 127.5067,-198.0143"/>
<polygon fill="#000000" stroke="#000000" stroke-width=".5" points="128.0769,-199.6869 132.6576,-197.026 127.4174,-196.2496 128.0769,-199.6869"/>
</g>
<!-- LobattoEdgeAlt -->
<g id="node15" class="node">
<title>LobattoEdgeAlt</title>
<g id="a_node15"><a xlink:href="../api/proteus.Quadrature.html#proteus.Quadrature.LobattoEdgeAlt" xlink:title="Gauss&#45;Lobatto quadrature on the [&#45;1:1] interval." target="_top">
<polygon fill="none" stroke="#000000" stroke-width=".5" points="217,-167 126,-167 126,-148 217,-148 217,-167"/>
<text text-anchor="middle" x="171.5" y="-155" font-family="Vera Sans, DejaVu Sans, Liberation Sans, Arial, Helvetica, sans" font-size="10.00" fill="#000000">LobattoEdgeAlt</text>
</a>
</g>
</g>
<!-- Q_base&#45;&gt;LobattoEdgeAlt -->
<g id="edge14" class="edge">
<title>Q_base&#45;&gt;LobattoEdgeAlt</title>
<path fill="none" stroke="#000000" stroke-width=".5" d="M28.1453,-313.8463C31.8105,-287.4531 45.7342,-213.5937 90,-176.5 98.6912,-169.217 109.6581,-164.6088 120.7053,-161.7214"/>
<polygon fill="#000000" stroke="#000000" stroke-width=".5" points="121.3207,-163.3738 125.7788,-160.5124 120.5093,-159.9691 121.3207,-163.3738"/>
</g>
<!-- LobattoTetrahedron -->
<g id="node16" class="node">
<title>LobattoTetrahedron</title>
<g id="a_node16"><a xlink:href="../api/proteus.Quadrature.html#proteus.Quadrature.LobattoTetrahedron" xlink:title="Gauss&#45;Lobatto quadrature on the unit tetrahedron." target="_top">
<polygon fill="none" stroke="#000000" stroke-width=".5" points="227,-130 116,-130 116,-111 227,-111 227,-130"/>
<text text-anchor="middle" x="171.5" y="-118" font-family="Vera Sans, DejaVu Sans, Liberation Sans, Arial, Helvetica, sans" font-size="10.00" fill="#000000">LobattoTetrahedron</text>
</a>
</g>
</g>
<!-- Q_base&#45;&gt;LobattoTetrahedron -->
<g id="edge15" class="edge">
<title>Q_base&#45;&gt;LobattoTetrahedron</title>
<path fill="none" stroke="#000000" stroke-width=".5" d="M29.0487,-313.7004C36.4525,-279.1929 62.8224,-164.0664 90,-139.5 95.9801,-134.0944 103.1965,-130.1395 110.8322,-127.2603"/>
<polygon fill="#000000" stroke="#000000" stroke-width=".5" points="111.478,-128.8888 115.6335,-125.6033 110.3361,-125.5803 111.478,-128.8888"/>
</g>
<!-- LobattoTriangle -->
<g id="node17" class="node">
<title>LobattoTriangle</title>
<g id="a_node17"><a xlink:href="../api/proteus.Quadrature.html#proteus.Quadrature.LobattoTriangle" xlink:title="Gauss&#45;Lobatto quadrature on the unit triangle." target="_top">
<polygon fill="none" stroke="#000000" stroke-width=".5" points="217.5,-93 125.5,-93 125.5,-74 217.5,-74 217.5,-93"/>
<text text-anchor="middle" x="171.5" y="-81" font-family="Vera Sans, DejaVu Sans, Liberation Sans, Arial, Helvetica, sans" font-size="10.00" fill="#000000">LobattoTriangle</text>
</a>
</g>
</g>
<!-- Q_base&#45;&gt;LobattoTriangle -->
<g id="edge16" class="edge">
<title>Q_base&#45;&gt;LobattoTriangle</title>
<path fill="none" stroke="#000000" stroke-width=".5" d="M28.4207,-313.9418C34.3202,-275.5153 58.0775,-132.9056 90,-102.5 98.2107,-94.6794 108.9902,-89.8614 120.0089,-86.942"/>
<polygon fill="#000000" stroke="#000000" stroke-width=".5" points="120.6236,-88.5945 125.08,-85.7303 119.8102,-85.1903 120.6236,-88.5945"/>
</g>
<!-- SimplexGaussQuadrature -->
<g id="node18" class="node">
<title>SimplexGaussQuadrature</title>
<g id="a_node18"><a xlink:href="../api/proteus.Quadrature.html#proteus.Quadrature.SimplexGaussQuadrature" xlink:title="A class which defines quadrature on unit simplices." target="_top">
<polygon fill="none" stroke="#000000" stroke-width=".5" points="242,-56 101,-56 101,-37 242,-37 242,-56"/>
<text text-anchor="middle" x="171.5" y="-44" font-family="Vera Sans, DejaVu Sans, Liberation Sans, Arial, Helvetica, sans" font-size="10.00" fill="#000000">SimplexGaussQuadrature</text>
</a>
</g>
</g>
<!-- Q_base&#45;&gt;SimplexGaussQuadrature -->
<g id="edge17" class="edge">
<title>Q_base&#45;&gt;SimplexGaussQuadrature</title>
<path fill="none" stroke="#000000" stroke-width=".5" d="M28.0175,-313.8336C32.6816,-271.3527 53.376,-101.7429 90,-65.5 92.6269,-62.9004 95.5365,-60.6299 98.6466,-58.6486"/>
<polygon fill="#000000" stroke="#000000" stroke-width=".5" points="99.5561,-60.1442 103.0042,-56.1225 97.8008,-57.1162 99.5561,-60.1442"/>
</g>
<!-- SimplexLobattoQuadrature -->
<g id="node19" class="node">
<title>SimplexLobattoQuadrature</title>
<g id="a_node19"><a xlink:href="../api/proteus.Quadrature.html#proteus.Quadrature.SimplexLobattoQuadrature" xlink:title="A class for quadrature on unit simplices." target="_top">
<polygon fill="none" stroke="#000000" stroke-width=".5" points="245.5,-19 97.5,-19 97.5,0 245.5,0 245.5,-19"/>
<text text-anchor="middle" x="171.5" y="-7" font-family="Vera Sans, DejaVu Sans, Liberation Sans, Arial, Helvetica, sans" font-size="10.00" fill="#000000">SimplexLobattoQuadrature</text>
</a>
</g>
</g>
<!-- Q_base&#45;&gt;SimplexLobattoQuadrature -->
<g id="edge18" class="edge">
<title>Q_base&#45;&gt;SimplexLobattoQuadrature</title>
<path fill="none" stroke="#000000" stroke-width=".5" d="M27.7083,-313.7301C31.2617,-267.4356 48.6381,-70.6401 90,-28.5 92.5888,-25.8625 95.4678,-23.5615 98.5538,-21.5563"/>
<polygon fill="#000000" stroke="#000000" stroke-width=".5" points="99.4662,-23.0499 102.8825,-19.0013 97.6871,-20.0358 99.4662,-23.0499"/>
</g>
</g>
</svg>
