<?xml version="1.0" encoding="UTF-8" standalone="no"?>
<!DOCTYPE svg PUBLIC "-//W3C//DTD SVG 1.1//EN"
 "http://www.w3.org/Graphics/SVG/1.1/DTD/svg11.dtd">
<!-- Generated by graphviz version 2.38.0 (20140413.2041)
 -->
<!-- Title: inheritance44a015191f Pages: 1 -->
<svg width="206pt" height="175pt"
 viewBox="0.00 0.00 206.00 175.00" xmlns="http://www.w3.org/2000/svg" xmlns:xlink="http://www.w3.org/1999/xlink">
<g id="graph0" class="graph" transform="scale(1 1) rotate(0) translate(4 171)">
<title>inheritance44a015191f</title>
<polygon fill="white" stroke="none" points="-4,4 -4,-171 202,-171 202,4 -4,4"/>
<!-- BCContainer -->
<g id="node1" class="node"><title>BCContainer</title>
<g id="a_node1"><a xlink:href="../api/proteus.SpatialTools.html#proteus.SpatialTools.BCContainer" xlink:title="Creates a class from a dictionary (keys become class variable names)" target="_top">
<polygon fill="none" stroke="black" stroke-width="0.5" points="77,-56 0,-56 0,-37 77,-37 77,-56"/>
<text text-anchor="middle" x="38.5" y="-44" font-family="Vera Sans, DejaVu Sans, Liberation Sans, Arial, Helvetica, sans" font-size="10.00">BCContainer</text>
</a>
</g>
</g>
<!-- Cuboid -->
<g id="node2" class="node"><title>Cuboid</title>
<g id="a_node2"><a xlink:href="../api/proteus.SpatialTools.html#proteus.SpatialTools.Cuboid" xlink:title="Class to create a 3D cuboid" target="_top">
<polygon fill="none" stroke="black" stroke-width="0.5" points="182.5,-167 128.5,-167 128.5,-148 182.5,-148 182.5,-167"/>
<text text-anchor="middle" x="155.5" y="-155" font-family="Vera Sans, DejaVu Sans, Liberation Sans, Arial, Helvetica, sans" font-size="10.00">Cuboid</text>
</a>
</g>
</g>
<!-- Shape -->
<g id="node3" class="node"><title>Shape</title>
<g id="a_node3"><a xlink:href="../api/proteus.SpatialTools.html#proteus.SpatialTools.Shape" xlink:title="Base/super class of all shapes." target="_top">
<polygon fill="none" stroke="black" stroke-width="0.5" points="65.5,-93 11.5,-93 11.5,-74 65.5,-74 65.5,-93"/>
<text text-anchor="middle" x="38.5" y="-81" font-family="Vera Sans, DejaVu Sans, Liberation Sans, Arial, Helvetica, sans" font-size="10.00">Shape</text>
</a>
</g>
</g>
<!-- Shape&#45;&gt;Cuboid -->
<g id="edge1" class="edge"><title>Shape&#45;&gt;Cuboid</title>
<path fill="none" stroke="black" stroke-width="0.5" d="M50.3583,-93.1245C64.1991,-105.064 89.1953,-125.547 113,-139.5 116.881,-141.775 121.103,-143.933 125.319,-145.912"/>
<polygon fill="black" stroke="black" stroke-width="0.5" points="124.599,-147.508 129.875,-147.987 126.05,-144.322 124.599,-147.508"/>
</g>
<!-- CustomShape -->
<g id="node4" class="node"><title>CustomShape</title>
<g id="a_node4"><a xlink:href="../api/proteus.SpatialTools.html#proteus.SpatialTools.CustomShape" xlink:title="Class to create a custom 2D or 3D shape" target="_top">
<polygon fill="none" stroke="black" stroke-width="0.5" points="198,-130 113,-130 113,-111 198,-111 198,-130"/>
<text text-anchor="middle" x="155.5" y="-118" font-family="Vera Sans, DejaVu Sans, Liberation Sans, Arial, Helvetica, sans" font-size="10.00">CustomShape</text>
</a>
</g>
</g>
<!-- Shape&#45;&gt;CustomShape -->
<g id="edge2" class="edge"><title>Shape&#45;&gt;CustomShape</title>
<path fill="none" stroke="black" stroke-width="0.5" d="M65.5953,-91.8959C81.708,-97.08 102.567,-103.791 120.03,-109.41"/>
<polygon fill="black" stroke="black" stroke-width="0.5" points="119.563,-111.098 124.859,-110.963 120.635,-107.766 119.563,-111.098"/>
</g>
<!-- Rectangle -->
<g id="node5" class="node"><title>Rectangle</title>
<g id="a_node5"><a xlink:href="../api/proteus.SpatialTools.html#proteus.SpatialTools.Rectangle" xlink:title="Class to create a rectangle" target="_top">
<polygon fill="none" stroke="black" stroke-width="0.5" points="187,-93 124,-93 124,-74 187,-74 187,-93"/>
<text text-anchor="middle" x="155.5" y="-81" font-family="Vera Sans, DejaVu Sans, Liberation Sans, Arial, Helvetica, sans" font-size="10.00">Rectangle</text>
</a>
</g>
</g>
<!-- Shape&#45;&gt;Rectangle -->
<g id="edge3" class="edge"><title>Shape&#45;&gt;Rectangle</title>
<path fill="none" stroke="black" stroke-width="0.5" d="M65.5953,-83.5C81.21,-83.5 101.282,-83.5 118.401,-83.5"/>
<polygon fill="black" stroke="black" stroke-width="0.5" points="118.611,-85.2501 123.611,-83.5 118.611,-81.7501 118.611,-85.2501"/>
</g>
<!-- ShapeSTL -->
<g id="node6" class="node"><title>ShapeSTL</title>
<g id="a_node6"><a xlink:href="../api/proteus.SpatialTools.html#proteus.SpatialTools.ShapeSTL" xlink:title="Class to extract geometrical information from STL file" target="_top">
<polygon fill="none" stroke="black" stroke-width="0.5" points="188,-56 123,-56 123,-37 188,-37 188,-56"/>
<text text-anchor="middle" x="155.5" y="-44" font-family="Vera Sans, DejaVu Sans, Liberation Sans, Arial, Helvetica, sans" font-size="10.00">ShapeSTL</text>
</a>
</g>
</g>
<!-- Shape&#45;&gt;ShapeSTL -->
<g id="edge4" class="edge"><title>Shape&#45;&gt;ShapeSTL</title>
<path fill="none" stroke="black" stroke-width="0.5" d="M65.5953,-75.1041C81.708,-69.92 102.567,-63.209 120.03,-57.5903"/>
<polygon fill="black" stroke="black" stroke-width="0.5" points="120.635,-59.234 124.859,-56.0367 119.563,-55.9022 120.635,-59.234"/>
</g>
<!-- Sphere -->
<g id="node7" class="node"><title>Sphere</title>
<g id="a_node7"><a xlink:href="../api/proteus.SpatialTools.html#proteus.SpatialTools.Sphere" xlink:title="Class to create a 3D cuboid" target="_top">
<polygon fill="none" stroke="black" stroke-width="0.5" points="182.5,-19 128.5,-19 128.5,-0 182.5,-0 182.5,-19"/>
<text text-anchor="middle" x="155.5" y="-7" font-family="Vera Sans, DejaVu Sans, Liberation Sans, Arial, Helvetica, sans" font-size="10.00">Sphere</text>
</a>
</g>
</g>
<!-- Shape&#45;&gt;Sphere -->
<g id="edge5" class="edge"><title>Shape&#45;&gt;Sphere</title>
<path fill="none" stroke="black" stroke-width="0.5" d="M62.832,-73.8725C67.697,-71.4394 72.661,-68.6194 77,-65.5 95.6293,-52.1071 94.2498,-41.7231 113,-28.5 116.709,-25.8841 120.837,-23.4875 125.009,-21.3432"/>
<polygon fill="black" stroke="black" stroke-width="0.5" points="125.822,-22.8937 129.536,-19.1169 124.277,-19.7529 125.822,-22.8937"/>
</g>
</g>
</svg>
