<?xml version="1.0" encoding="UTF-8" standalone="no"?>
<!DOCTYPE svg PUBLIC "-//W3C//DTD SVG 1.1//EN"
 "http://www.w3.org/Graphics/SVG/1.1/DTD/svg11.dtd">
<!-- Generated by graphviz version 2.38.0 (20140413.2041)
 -->
<!-- Title: inheritanceb0b43b8140 Pages: 1 -->
<svg width="425pt" height="378pt"
 viewBox="0.00 0.00 425.00 378.00" xmlns="http://www.w3.org/2000/svg" xmlns:xlink="http://www.w3.org/1999/xlink">
<g id="graph0" class="graph" transform="scale(1 1) rotate(0) translate(4 374)">
<title>inheritanceb0b43b8140</title>
<polygon fill="white" stroke="none" points="-4,4 -4,-374 421,-374 421,4 -4,4"/>
<!-- InvOperatorShell -->
<g id="node1" class="node"><title>InvOperatorShell</title>
<g id="a_node1"><a xlink:href="../api/proteus.LinearAlgebraTools.html#proteus.LinearAlgebraTools.InvOperatorShell" xlink:title="A base class for inverse operator shells " target="_top">
<polygon fill="none" stroke="black" stroke-width="0.5" points="241.5,-93 145.5,-93 145.5,-74 241.5,-74 241.5,-93"/>
<text text-anchor="middle" x="193.5" y="-81" font-family="Vera Sans, DejaVu Sans, Liberation Sans, Arial, Helvetica, sans" font-size="10.00">InvOperatorShell</text>
</a>
</g>
</g>
<!-- LSCInv_shell -->
<g id="node3" class="node"><title>LSCInv_shell</title>
<g id="a_node3"><a xlink:href="../api/proteus.LinearAlgebraTools.html#proteus.LinearAlgebraTools.LSCInv_shell" xlink:title="Shell class for the LSC Inverse Preconditioner " target="_top">
<polygon fill="none" stroke="black" stroke-width="0.5" points="391,-167 315,-167 315,-148 391,-148 391,-167"/>
<text text-anchor="middle" x="353" y="-155" font-family="Vera Sans, DejaVu Sans, Liberation Sans, Arial, Helvetica, sans" font-size="10.00">LSCInv_shell</text>
</a>
</g>
</g>
<!-- InvOperatorShell&#45;&gt;LSCInv_shell -->
<g id="edge2" class="edge"><title>InvOperatorShell&#45;&gt;LSCInv_shell</title>
<path fill="none" stroke="black" stroke-width="0.5" d="M207.995,-93.0164C225.819,-105.222 258.523,-126.376 289,-139.5 295.621,-142.351 302.825,-144.894 309.917,-147.106"/>
<polygon fill="black" stroke="black" stroke-width="0.5" points="309.509,-148.811 314.801,-148.585 310.523,-145.461 309.509,-148.811"/>
</g>
<!-- MatrixInvShell -->
<g id="node6" class="node"><title>MatrixInvShell</title>
<g id="a_node6"><a xlink:href="../api/proteus.LinearAlgebraTools.html#proteus.LinearAlgebraTools.MatrixInvShell" xlink:title="A PETSc shell class for a inverse operator." target="_top">
<polygon fill="none" stroke="black" stroke-width="0.5" points="394.5,-130 311.5,-130 311.5,-111 394.5,-111 394.5,-130"/>
<text text-anchor="middle" x="353" y="-118" font-family="Vera Sans, DejaVu Sans, Liberation Sans, Arial, Helvetica, sans" font-size="10.00">MatrixInvShell</text>
</a>
</g>
</g>
<!-- InvOperatorShell&#45;&gt;MatrixInvShell -->
<g id="edge4" class="edge"><title>InvOperatorShell&#45;&gt;MatrixInvShell</title>
<path fill="none" stroke="black" stroke-width="0.5" d="M235.06,-93.0284C256.837,-98.1443 283.756,-104.468 306.274,-109.758"/>
<polygon fill="black" stroke="black" stroke-width="0.5" points="306.036,-111.5 311.304,-110.94 306.837,-108.092 306.036,-111.5"/>
</g>
<!-- Sp_shell -->
<g id="node14" class="node"><title>Sp_shell</title>
<g id="a_node14"><a xlink:href="../api/proteus.LinearAlgebraTools.html#proteus.LinearAlgebraTools.Sp_shell" xlink:title="Shell class for the SIMPLE preconditioner which applies the " target="_top">
<polygon fill="none" stroke="black" stroke-width="0.5" points="381,-93 325,-93 325,-74 381,-74 381,-93"/>
<text text-anchor="middle" x="353" y="-81" font-family="Vera Sans, DejaVu Sans, Liberation Sans, Arial, Helvetica, sans" font-size="10.00">Sp_shell</text>
</a>
</g>
</g>
<!-- InvOperatorShell&#45;&gt;Sp_shell -->
<g id="edge9" class="edge"><title>InvOperatorShell&#45;&gt;Sp_shell</title>
<path fill="none" stroke="black" stroke-width="0.5" d="M241.755,-83.5C266.921,-83.5 297.224,-83.5 319.686,-83.5"/>
<polygon fill="black" stroke="black" stroke-width="0.5" points="319.93,-85.2501 324.93,-83.5 319.93,-81.7501 319.93,-85.2501"/>
</g>
<!-- TwoPhase_PCDInv_shell -->
<g id="node16" class="node"><title>TwoPhase_PCDInv_shell</title>
<g id="a_node16"><a xlink:href="../api/proteus.LinearAlgebraTools.html#proteus.LinearAlgebraTools.TwoPhase_PCDInv_shell" xlink:title="Shell class for the two&#45;phase PCD preconditioner. &#160;The" target="_top">
<polygon fill="none" stroke="black" stroke-width="0.5" points="417,-56 289,-56 289,-37 417,-37 417,-56"/>
<text text-anchor="middle" x="353" y="-44" font-family="Vera Sans, DejaVu Sans, Liberation Sans, Arial, Helvetica, sans" font-size="10.00">TwoPhase_PCDInv_shell</text>
</a>
</g>
</g>
<!-- InvOperatorShell&#45;&gt;TwoPhase_PCDInv_shell -->
<g id="edge10" class="edge"><title>InvOperatorShell&#45;&gt;TwoPhase_PCDInv_shell</title>
<path fill="none" stroke="black" stroke-width="0.5" d="M235.06,-73.9716C256.837,-68.8557 283.756,-62.532 306.274,-57.2419"/>
<polygon fill="black" stroke="black" stroke-width="0.5" points="306.837,-58.9075 311.304,-56.0604 306.036,-55.5003 306.837,-58.9075"/>
</g>
<!-- OperatorShell -->
<g id="node2" class="node"><title>OperatorShell</title>
<g id="a_node2"><a xlink:href="../api/proteus.LinearAlgebraTools.html#proteus.LinearAlgebraTools.OperatorShell" xlink:title="A base class for operator shells" target="_top">
<polygon fill="none" stroke="black" stroke-width="0.5" points="90.5,-75 7.5,-75 7.5,-56 90.5,-56 90.5,-75"/>
<text text-anchor="middle" x="49" y="-63" font-family="Vera Sans, DejaVu Sans, Liberation Sans, Arial, Helvetica, sans" font-size="10.00">OperatorShell</text>
</a>
</g>
</g>
<!-- OperatorShell&#45;&gt;InvOperatorShell -->
<g id="edge1" class="edge"><title>OperatorShell&#45;&gt;InvOperatorShell</title>
<path fill="none" stroke="black" stroke-width="0.5" d="M90.8348,-70.6581C106.263,-72.6069 124.034,-74.8516 140.359,-76.9138"/>
<polygon fill="black" stroke="black" stroke-width="0.5" points="140.195,-78.6569 145.375,-77.5474 140.634,-75.1845 140.195,-78.6569"/>
</g>
<!-- ProductOperatorShell -->
<g id="node8" class="node"><title>ProductOperatorShell</title>
<g id="a_node8"><a xlink:href="../api/proteus.LinearAlgebraTools.html#proteus.LinearAlgebraTools.ProductOperatorShell" xlink:title="A base class for shell operators that apply multiplcation. " target="_top">
<polygon fill="none" stroke="black" stroke-width="0.5" points="253,-38 134,-38 134,-19 253,-19 253,-38"/>
<text text-anchor="middle" x="193.5" y="-26" font-family="Vera Sans, DejaVu Sans, Liberation Sans, Arial, Helvetica, sans" font-size="10.00">ProductOperatorShell</text>
</a>
</g>
</g>
<!-- OperatorShell&#45;&gt;ProductOperatorShell -->
<g id="edge8" class="edge"><title>OperatorShell&#45;&gt;ProductOperatorShell</title>
<path fill="none" stroke="black" stroke-width="0.5" d="M86.6973,-55.9716C106.159,-50.9184 130.159,-44.6869 150.378,-39.437"/>
<polygon fill="black" stroke="black" stroke-width="0.5" points="151.032,-41.0752 155.432,-38.1247 150.152,-37.6875 151.032,-41.0752"/>
</g>
<!-- Mat -->
<g id="node4" class="node"><title>Mat</title>
<polygon fill="none" stroke="black" stroke-width="0.5" points="220.5,-241 166.5,-241 166.5,-222 220.5,-222 220.5,-241"/>
<text text-anchor="middle" x="193.5" y="-229" font-family="Vera Sans, DejaVu Sans, Liberation Sans, Arial, Helvetica, sans" font-size="10.00">Mat</text>
</g>
<!-- ParMat_petsc4py -->
<g id="node10" class="node"><title>ParMat_petsc4py</title>
<g id="a_node10"><a xlink:href="../api/proteus.LinearAlgebraTools.html#proteus.LinearAlgebraTools.ParMat_petsc4py" xlink:title="Parallel matrix based on petsc4py&#39;s wrappers for PETSc. " target="_top">
<polygon fill="none" stroke="black" stroke-width="0.5" points="402,-241 304,-241 304,-222 402,-222 402,-241"/>
<text text-anchor="middle" x="353" y="-229" font-family="Vera Sans, DejaVu Sans, Liberation Sans, Arial, Helvetica, sans" font-size="10.00">ParMat_petsc4py</text>
</a>
</g>
</g>
<!-- Mat&#45;&gt;ParMat_petsc4py -->
<g id="edge6" class="edge"><title>Mat&#45;&gt;ParMat_petsc4py</title>
<path fill="none" stroke="black" stroke-width="0.5" d="M220.508,-231.5C241.723,-231.5 272.389,-231.5 298.771,-231.5"/>
<polygon fill="black" stroke="black" stroke-width="0.5" points="298.986,-233.25 303.986,-231.5 298.986,-229.75 298.986,-233.25"/>
</g>
<!-- Object -->
<g id="node5" class="node"><title>Object</title>
<polygon fill="none" stroke="black" stroke-width="0.5" points="76,-222 22,-222 22,-203 76,-203 76,-222"/>
<text text-anchor="middle" x="49" y="-210" font-family="Vera Sans, DejaVu Sans, Liberation Sans, Arial, Helvetica, sans" font-size="10.00">Object</text>
</g>
<!-- Object&#45;&gt;Mat -->
<g id="edge3" class="edge"><title>Object&#45;&gt;Mat</title>
<path fill="none" stroke="black" stroke-width="0.5" d="M76.1367,-215.985C100.091,-219.179 135.601,-223.914 161.089,-227.312"/>
<polygon fill="black" stroke="black" stroke-width="0.5" points="160.859,-229.047 166.046,-227.973 161.322,-225.577 160.859,-229.047"/>
</g>
<!-- Vec -->
<g id="node13" class="node"><title>Vec</title>
<polygon fill="none" stroke="black" stroke-width="0.5" points="220.5,-204 166.5,-204 166.5,-185 220.5,-185 220.5,-204"/>
<text text-anchor="middle" x="193.5" y="-192" font-family="Vera Sans, DejaVu Sans, Liberation Sans, Arial, Helvetica, sans" font-size="10.00">Vec</text>
</g>
<!-- Object&#45;&gt;Vec -->
<g id="edge11" class="edge"><title>Object&#45;&gt;Vec</title>
<path fill="none" stroke="black" stroke-width="0.5" d="M76.1367,-209.199C99.9908,-206.185 135.306,-201.725 160.77,-198.508"/>
<polygon fill="black" stroke="black" stroke-width="0.5" points="161.305,-200.204 166.046,-197.842 160.867,-196.732 161.305,-200.204"/>
</g>
<!-- MatrixShell -->
<g id="node7" class="node"><title>MatrixShell</title>
<g id="a_node7"><a xlink:href="../api/proteus.LinearAlgebraTools.html#proteus.LinearAlgebraTools.MatrixShell" xlink:title="A shell class for a matrix." target="_top">
<polygon fill="none" stroke="black" stroke-width="0.5" points="387.5,-19 318.5,-19 318.5,-0 387.5,-0 387.5,-19"/>
<text text-anchor="middle" x="353" y="-7" font-family="Vera Sans, DejaVu Sans, Liberation Sans, Arial, Helvetica, sans" font-size="10.00">MatrixShell</text>
</a>
</g>
</g>
<!-- ProductOperatorShell&#45;&gt;MatrixShell -->
<g id="edge5" class="edge"><title>ProductOperatorShell&#45;&gt;MatrixShell</title>
<path fill="none" stroke="black" stroke-width="0.5" d="M253.147,-21.4251C273.293,-18.9948 295.32,-16.3376 313.458,-14.1495"/>
<polygon fill="black" stroke="black" stroke-width="0.5" points="313.711,-15.8817 318.466,-13.5454 313.292,-12.4069 313.711,-15.8817"/>
</g>
<!-- ParInfo_petsc4py -->
<g id="node9" class="node"><title>ParInfo_petsc4py</title>
<g id="a_node9"><a xlink:href="../api/proteus.LinearAlgebraTools.html#proteus.LinearAlgebraTools.ParInfo_petsc4py" xlink:title="ARB &#45; this class is experimental. &#160;My idea is to store the" target="_top">
<polygon fill="none" stroke="black" stroke-width="0.5" points="98,-259 7.10543e-15,-259 7.10543e-15,-240 98,-240 98,-259"/>
<text text-anchor="middle" x="49" y="-247" font-family="Vera Sans, DejaVu Sans, Liberation Sans, Arial, Helvetica, sans" font-size="10.00">ParInfo_petsc4py</text>
</a>
</g>
</g>
<!-- ParVec -->
<g id="node11" class="node"><title>ParVec</title>
<g id="a_node11"><a xlink:href="../api/proteus.LinearAlgebraTools.html#proteus.LinearAlgebraTools.ParVec" xlink:title="A parallel vector built on top of daetk&#39;s wrappers for petsc" target="_top">
<polygon fill="none" stroke="black" stroke-width="0.5" points="76,-296 22,-296 22,-277 76,-277 76,-296"/>
<text text-anchor="middle" x="49" y="-284" font-family="Vera Sans, DejaVu Sans, Liberation Sans, Arial, Helvetica, sans" font-size="10.00">ParVec</text>
</a>
</g>
</g>
<!-- ParVec_petsc4py -->
<g id="node12" class="node"><title>ParVec_petsc4py</title>
<g id="a_node12"><a xlink:href="../api/proteus.LinearAlgebraTools.html#proteus.LinearAlgebraTools.ParVec_petsc4py" xlink:title="Parallel vector using petsc4py&#39;s wrappers for PETSc" target="_top">
<polygon fill="none" stroke="black" stroke-width="0.5" points="402,-204 304,-204 304,-185 402,-185 402,-204"/>
<text text-anchor="middle" x="353" y="-192" font-family="Vera Sans, DejaVu Sans, Liberation Sans, Arial, Helvetica, sans" font-size="10.00">ParVec_petsc4py</text>
</a>
</g>
</g>
<!-- Vec&#45;&gt;ParVec_petsc4py -->
<g id="edge7" class="edge"><title>Vec&#45;&gt;ParVec_petsc4py</title>
<path fill="none" stroke="black" stroke-width="0.5" d="M220.508,-194.5C241.723,-194.5 272.389,-194.5 298.771,-194.5"/>
<polygon fill="black" stroke="black" stroke-width="0.5" points="298.986,-196.25 303.986,-194.5 298.986,-192.75 298.986,-196.25"/>
</g>
<!-- SparseMatShell -->
<g id="node15" class="node"><title>SparseMatShell</title>
<g id="a_node15"><a xlink:href="../api/proteus.LinearAlgebraTools.html#proteus.LinearAlgebraTools.SparseMatShell" xlink:title="Build a parallel matrix shell from CSR data structures." target="_top">
<polygon fill="none" stroke="black" stroke-width="0.5" points="95,-333 3,-333 3,-314 95,-314 95,-333"/>
<text text-anchor="middle" x="49" y="-321" font-family="Vera Sans, DejaVu Sans, Liberation Sans, Arial, Helvetica, sans" font-size="10.00">SparseMatShell</text>
</a>
</g>
</g>
<!-- WeightedNorm -->
<g id="node17" class="node"><title>WeightedNorm</title>
<g id="a_node17"><a xlink:href="../api/proteus.LinearAlgebraTools.html#proteus.LinearAlgebraTools.WeightedNorm" xlink:title="Compute the weighted norm for time step control (not currently parallel)" target="_top">
<polygon fill="none" stroke="black" stroke-width="0.5" points="92.5,-370 5.5,-370 5.5,-351 92.5,-351 92.5,-370"/>
<text text-anchor="middle" x="49" y="-358" font-family="Vera Sans, DejaVu Sans, Liberation Sans, Arial, Helvetica, sans" font-size="10.00">WeightedNorm</text>
</a>
</g>
</g>
</g>
</svg>
