<?xml version="1.0" encoding="UTF-8" standalone="no"?>
<!DOCTYPE svg PUBLIC "-//W3C//DTD SVG 1.1//EN"
 "http://www.w3.org/Graphics/SVG/1.1/DTD/svg11.dtd">
<!-- Generated by graphviz version 2.40.1 (20161225.0304)
 -->
<!-- Title: inheritance56adf9a4e7 Pages: 1 -->
<svg width="457pt" height="360pt"
 viewBox="0.00 0.00 457.00 360.00" xmlns="http://www.w3.org/2000/svg" xmlns:xlink="http://www.w3.org/1999/xlink">
<g id="graph0" class="graph" transform="scale(1 1) rotate(0) translate(4 356)">
<title>inheritance56adf9a4e7</title>
<polygon fill="#ffffff" stroke="transparent" points="-4,4 -4,-356 453,-356 453,4 -4,4"/>
<!-- FLCBDF_controller -->
<g id="node1" class="node">
<title>FLCBDF_controller</title>
<g id="a_node1"><a xlink:href="../api/proteus.StepControl.html#proteus.StepControl.FLCBDF_controller" xlink:title="FLCBDF_controller" target="_top">
<polygon fill="none" stroke="#000000" stroke-width=".5" points="242.5,-352 137.5,-352 137.5,-333 242.5,-333 242.5,-352"/>
<text text-anchor="middle" x="190" y="-340" font-family="Vera Sans, DejaVu Sans, Liberation Sans, Arial, Helvetica, sans" font-size="10.00" fill="#000000">FLCBDF_controller</text>
</a>
</g>
</g>
<!-- FLCBDF_controller_sys -->
<g id="node3" class="node">
<title>FLCBDF_controller_sys</title>
<g id="a_node3"><a xlink:href="../api/proteus.StepControl.html#proteus.StepControl.FLCBDF_controller_sys" xlink:title="FLCBDF_controller_sys" target="_top">
<polygon fill="none" stroke="#000000" stroke-width=".5" points="449,-352 322,-352 322,-333 449,-333 449,-352"/>
<text text-anchor="middle" x="385.5" y="-340" font-family="Vera Sans, DejaVu Sans, Liberation Sans, Arial, Helvetica, sans" font-size="10.00" fill="#000000">FLCBDF_controller_sys</text>
</a>
</g>
</g>
<!-- FLCBDF_controller&#45;&gt;FLCBDF_controller_sys -->
<g id="edge2" class="edge">
<title>FLCBDF_controller&#45;&gt;FLCBDF_controller_sys</title>
<path fill="none" stroke="#000000" stroke-width=".5" d="M242.6476,-342.5C265.4537,-342.5 292.4551,-342.5 316.8092,-342.5"/>
<polygon fill="#000000" stroke="#000000" stroke-width=".5" points="316.9635,-344.2501 321.9634,-342.5 316.9634,-340.7501 316.9635,-344.2501"/>
</g>
<!-- SC_base -->
<g id="node2" class="node">
<title>SC_base</title>
<g id="a_node2"><a xlink:href="../api/proteus.StepControl.html#proteus.StepControl.SC_base" xlink:title="A simple fixed time stepping controller with no error/stability" target="_top">
<polygon fill="none" stroke="#000000" stroke-width=".5" points="58,-185 0,-185 0,-166 58,-166 58,-185"/>
<text text-anchor="middle" x="29" y="-173" font-family="Vera Sans, DejaVu Sans, Liberation Sans, Arial, Helvetica, sans" font-size="10.00" fill="#000000">SC_base</text>
</a>
</g>
</g>
<!-- SC_base&#45;&gt;FLCBDF_controller -->
<g id="edge1" class="edge">
<title>SC_base&#45;&gt;FLCBDF_controller</title>
<path fill="none" stroke="#000000" stroke-width=".5" d="M30.1021,-185.0077C33.7322,-211.6984 47.8544,-287.7607 94,-324.5 104.8699,-333.1542 118.6162,-338.1125 132.284,-340.8542"/>
<polygon fill="#000000" stroke="#000000" stroke-width=".5" points="132.0783,-342.5954 137.3105,-341.7668 132.7035,-339.1517 132.0783,-342.5954"/>
</g>
<!-- GustafssonFullNewton_dt_controller -->
<g id="node4" class="node">
<title>GustafssonFullNewton_dt_controller</title>
<g id="a_node4"><a xlink:href="../api/proteus.StepControl.html#proteus.StepControl.GustafssonFullNewton_dt_controller" xlink:title="Try version of basic Gustafsson and Soederlind 97 time step selection strategy" target="_top">
<polygon fill="none" stroke="#000000" stroke-width=".5" points="286,-315 94,-315 94,-296 286,-296 286,-315"/>
<text text-anchor="middle" x="190" y="-303" font-family="Vera Sans, DejaVu Sans, Liberation Sans, Arial, Helvetica, sans" font-size="10.00" fill="#000000">GustafssonFullNewton_dt_controller</text>
</a>
</g>
</g>
<!-- SC_base&#45;&gt;GustafssonFullNewton_dt_controller -->
<g id="edge3" class="edge">
<title>SC_base&#45;&gt;GustafssonFullNewton_dt_controller</title>
<path fill="none" stroke="#000000" stroke-width=".5" d="M31.6013,-185.1767C38.0719,-207.2503 57.0951,-261.4227 94,-287.5 97.2371,-289.7874 100.6835,-291.8071 104.2739,-293.589"/>
<polygon fill="#000000" stroke="#000000" stroke-width=".5" points="103.9787,-295.379 109.253,-295.8742 105.4387,-292.1981 103.9787,-295.379"/>
</g>
<!-- HeuristicNL_dt_controller -->
<g id="node5" class="node">
<title>HeuristicNL_dt_controller</title>
<g id="a_node5"><a xlink:href="../api/proteus.StepControl.html#proteus.StepControl.HeuristicNL_dt_controller" xlink:title="Classical Heuristic step controller that picks time step based on threshholds in nonlinear" target="_top">
<polygon fill="none" stroke="#000000" stroke-width=".5" points="260,-278 120,-278 120,-259 260,-259 260,-278"/>
<text text-anchor="middle" x="190" y="-266" font-family="Vera Sans, DejaVu Sans, Liberation Sans, Arial, Helvetica, sans" font-size="10.00" fill="#000000">HeuristicNL_dt_controller</text>
</a>
</g>
</g>
<!-- SC_base&#45;&gt;HeuristicNL_dt_controller -->
<g id="edge4" class="edge">
<title>SC_base&#45;&gt;HeuristicNL_dt_controller</title>
<path fill="none" stroke="#000000" stroke-width=".5" d="M34.3753,-185.151C44.0197,-201.4859 65.9051,-234.3756 94,-250.5 100.4527,-254.2034 107.5135,-257.1661 114.7843,-259.5332"/>
<polygon fill="#000000" stroke="#000000" stroke-width=".5" points="114.5535,-261.2924 119.8466,-261.0785 115.5754,-257.9449 114.5535,-261.2924"/>
</g>
<!-- Min_dt_RKcontroller -->
<g id="node6" class="node">
<title>Min_dt_RKcontroller</title>
<g id="a_node6"><a xlink:href="../api/proteus.StepControl.html#proteus.StepControl.Min_dt_RKcontroller" xlink:title="Min_dt_RKcontroller" target="_top">
<polygon fill="none" stroke="#000000" stroke-width=".5" points="247,-241 133,-241 133,-222 247,-222 247,-241"/>
<text text-anchor="middle" x="190" y="-229" font-family="Vera Sans, DejaVu Sans, Liberation Sans, Arial, Helvetica, sans" font-size="10.00" fill="#000000">Min_dt_RKcontroller</text>
</a>
</g>
</g>
<!-- SC_base&#45;&gt;Min_dt_RKcontroller -->
<g id="edge5" class="edge">
<title>SC_base&#45;&gt;Min_dt_RKcontroller</title>
<path fill="none" stroke="#000000" stroke-width=".5" d="M42.2606,-185.1013C54.9375,-193.819 74.8953,-206.3702 94,-213.5 104.6082,-217.4589 116.2137,-220.5773 127.5746,-223.0241"/>
<polygon fill="#000000" stroke="#000000" stroke-width=".5" points="127.5216,-224.8003 132.7728,-224.1017 128.2321,-221.3731 127.5216,-224.8003"/>
</g>
<!-- Min_dt_controller -->
<g id="node8" class="node">
<title>Min_dt_controller</title>
<g id="a_node8"><a xlink:href="../api/proteus.StepControl.html#proteus.StepControl.Min_dt_controller" xlink:title="Min_dt_controller" target="_top">
<polygon fill="none" stroke="#000000" stroke-width=".5" points="240.5,-204 139.5,-204 139.5,-185 240.5,-185 240.5,-204"/>
<text text-anchor="middle" x="190" y="-192" font-family="Vera Sans, DejaVu Sans, Liberation Sans, Arial, Helvetica, sans" font-size="10.00" fill="#000000">Min_dt_controller</text>
</a>
</g>
</g>
<!-- SC_base&#45;&gt;Min_dt_controller -->
<g id="edge7" class="edge">
<title>SC_base&#45;&gt;Min_dt_controller</title>
<path fill="none" stroke="#000000" stroke-width=".5" d="M58.1559,-178.9408C79.3092,-181.4371 108.5806,-184.8915 134.1702,-187.9114"/>
<polygon fill="#000000" stroke="#000000" stroke-width=".5" points="134.0649,-189.661 139.2356,-188.5092 134.4752,-186.1851 134.0649,-189.661"/>
</g>
<!-- Newton_controller -->
<g id="node10" class="node">
<title>Newton_controller</title>
<g id="a_node10"><a xlink:href="../api/proteus.StepControl.html#proteus.StepControl.Newton_controller" xlink:title="Same as SC_base but since there is no dt we have not &#160;way to retry" target="_top">
<polygon fill="none" stroke="#000000" stroke-width=".5" points="243,-167 137,-167 137,-148 243,-148 243,-167"/>
<text text-anchor="middle" x="190" y="-155" font-family="Vera Sans, DejaVu Sans, Liberation Sans, Arial, Helvetica, sans" font-size="10.00" fill="#000000">Newton_controller</text>
</a>
</g>
</g>
<!-- SC_base&#45;&gt;Newton_controller -->
<g id="edge9" class="edge">
<title>SC_base&#45;&gt;Newton_controller</title>
<path fill="none" stroke="#000000" stroke-width=".5" d="M58.1559,-172.2403C78.6289,-169.9514 106.7062,-166.8124 131.6902,-164.0191"/>
<polygon fill="#000000" stroke="#000000" stroke-width=".5" points="132.1961,-165.7235 136.9707,-163.4287 131.8072,-162.2452 132.1961,-165.7235"/>
</g>
<!-- Osher_controller -->
<g id="node12" class="node">
<title>Osher_controller</title>
<g id="a_node12"><a xlink:href="../api/proteus.StepControl.html#proteus.StepControl.Osher_controller" xlink:title="Osher_controller" target="_top">
<polygon fill="none" stroke="#000000" stroke-width=".5" points="238.5,-130 141.5,-130 141.5,-111 238.5,-111 238.5,-130"/>
<text text-anchor="middle" x="190" y="-118" font-family="Vera Sans, DejaVu Sans, Liberation Sans, Arial, Helvetica, sans" font-size="10.00" fill="#000000">Osher_controller</text>
</a>
</g>
</g>
<!-- SC_base&#45;&gt;Osher_controller -->
<g id="edge13" class="edge">
<title>SC_base&#45;&gt;Osher_controller</title>
<path fill="none" stroke="#000000" stroke-width=".5" d="M43.3489,-165.8375C56.1227,-157.6631 75.5849,-146.2344 94,-139.5 107.3585,-134.6148 122.2467,-130.8928 136.2355,-128.0957"/>
<polygon fill="#000000" stroke="#000000" stroke-width=".5" points="136.7679,-129.7752 141.344,-127.1065 136.1025,-126.339 136.7679,-129.7752"/>
</g>
<!-- Osher_PsiTC_controller -->
<g id="node13" class="node">
<title>Osher_PsiTC_controller</title>
<g id="a_node13"><a xlink:href="../api/proteus.StepControl.html#proteus.StepControl.Osher_PsiTC_controller" xlink:title="Osher_PsiTC_controller" target="_top">
<polygon fill="none" stroke="#000000" stroke-width=".5" points="254,-93 126,-93 126,-74 254,-74 254,-93"/>
<text text-anchor="middle" x="190" y="-81" font-family="Vera Sans, DejaVu Sans, Liberation Sans, Arial, Helvetica, sans" font-size="10.00" fill="#000000">Osher_PsiTC_controller</text>
</a>
</g>
</g>
<!-- SC_base&#45;&gt;Osher_PsiTC_controller -->
<g id="edge11" class="edge">
<title>SC_base&#45;&gt;Osher_PsiTC_controller</title>
<path fill="none" stroke="#000000" stroke-width=".5" d="M34.6167,-165.8815C44.4665,-149.9417 66.4512,-118.2496 94,-102.5 102.2898,-97.7608 111.5668,-94.1867 120.998,-91.4945"/>
<polygon fill="#000000" stroke="#000000" stroke-width=".5" points="121.5655,-93.1542 125.9395,-90.1656 120.6565,-89.7742 121.5655,-93.1542"/>
</g>
<!-- Osher_PsiTC_controller2 -->
<g id="node14" class="node">
<title>Osher_PsiTC_controller2</title>
<g id="a_node14"><a xlink:href="../api/proteus.StepControl.html#proteus.StepControl.Osher_PsiTC_controller2" xlink:title="Osher_PsiTC_controller2" target="_top">
<polygon fill="none" stroke="#000000" stroke-width=".5" points="257,-56 123,-56 123,-37 257,-37 257,-56"/>
<text text-anchor="middle" x="190" y="-44" font-family="Vera Sans, DejaVu Sans, Liberation Sans, Arial, Helvetica, sans" font-size="10.00" fill="#000000">Osher_PsiTC_controller2</text>
</a>
</g>
</g>
<!-- SC_base&#45;&gt;Osher_PsiTC_controller2 -->
<g id="edge12" class="edge">
<title>SC_base&#45;&gt;Osher_PsiTC_controller2</title>
<path fill="none" stroke="#000000" stroke-width=".5" d="M31.773,-165.6928C38.488,-143.8567 57.7961,-91.1413 94,-65.5 101.253,-60.3631 109.5505,-56.5322 118.1627,-53.688"/>
<polygon fill="#000000" stroke="#000000" stroke-width=".5" points="118.7106,-55.3505 122.9749,-52.2075 117.6814,-52.0052 118.7106,-55.3505"/>
</g>
<!-- PsiTCtte_controller -->
<g id="node15" class="node">
<title>PsiTCtte_controller</title>
<g id="a_node15"><a xlink:href="../api/proteus.StepControl.html#proteus.StepControl.PsiTCtte_controller" xlink:title="PsiTCtte_controller" target="_top">
<polygon fill="none" stroke="#000000" stroke-width=".5" points="244,-19 136,-19 136,0 244,0 244,-19"/>
<text text-anchor="middle" x="190" y="-7" font-family="Vera Sans, DejaVu Sans, Liberation Sans, Arial, Helvetica, sans" font-size="10.00" fill="#000000">PsiTCtte_controller</text>
</a>
</g>
</g>
<!-- SC_base&#45;&gt;PsiTCtte_controller -->
<g id="edge14" class="edge">
<title>SC_base&#45;&gt;PsiTCtte_controller</title>
<path fill="none" stroke="#000000" stroke-width=".5" d="M30.2191,-165.7591C34.0964,-139.1429 48.6842,-64.7666 94,-28.5 104.4223,-20.1589 117.49,-15.1481 130.5975,-12.2091"/>
<polygon fill="#000000" stroke="#000000" stroke-width=".5" points="131.2639,-13.8593 135.8133,-11.1452 130.5644,-10.4299 131.2639,-13.8593"/>
</g>
<!-- Min_dt_cfl_controller -->
<g id="node7" class="node">
<title>Min_dt_cfl_controller</title>
<g id="a_node7"><a xlink:href="../api/proteus.StepControl.html#proteus.StepControl.Min_dt_cfl_controller" xlink:title="Min_dt_cfl_controller" target="_top">
<polygon fill="none" stroke="#000000" stroke-width=".5" points="444,-223 327,-223 327,-204 444,-204 444,-223"/>
<text text-anchor="middle" x="385.5" y="-211" font-family="Vera Sans, DejaVu Sans, Liberation Sans, Arial, Helvetica, sans" font-size="10.00" fill="#000000">Min_dt_cfl_controller</text>
</a>
</g>
</g>
<!-- Min_dt_controller&#45;&gt;Min_dt_cfl_controller -->
<g id="edge6" class="edge">
<title>Min_dt_controller&#45;&gt;Min_dt_cfl_controller</title>
<path fill="none" stroke="#000000" stroke-width=".5" d="M240.6004,-199.4177C265.3136,-201.8195 295.3141,-204.7351 321.5921,-207.289"/>
<polygon fill="#000000" stroke="#000000" stroke-width=".5" points="321.6496,-209.0527 326.7954,-207.7947 321.9882,-205.5692 321.6496,-209.0527"/>
</g>
<!-- Min_dt_controller_FCT -->
<g id="node9" class="node">
<title>Min_dt_controller_FCT</title>
<g id="a_node9"><a xlink:href="../api/proteus.StepControl.html#proteus.StepControl.Min_dt_controller_FCT" xlink:title="controller try and implement a piece of FCT methodology where first step is" target="_top">
<polygon fill="none" stroke="#000000" stroke-width=".5" points="447.5,-186 323.5,-186 323.5,-167 447.5,-167 447.5,-186"/>
<text text-anchor="middle" x="385.5" y="-174" font-family="Vera Sans, DejaVu Sans, Liberation Sans, Arial, Helvetica, sans" font-size="10.00" fill="#000000">Min_dt_controller_FCT</text>
</a>
</g>
</g>
<!-- Min_dt_controller&#45;&gt;Min_dt_controller_FCT -->
<g id="edge8" class="edge">
<title>Min_dt_controller&#45;&gt;Min_dt_controller_FCT</title>
<path fill="none" stroke="#000000" stroke-width=".5" d="M240.6004,-189.8411C264.253,-187.6634 292.7487,-185.0398 318.1888,-182.6974"/>
<polygon fill="#000000" stroke="#000000" stroke-width=".5" points="318.4153,-184.4341 323.2338,-182.233 318.0944,-180.9488 318.4153,-184.4341"/>
</g>
<!-- Osher_FMM_controller -->
<g id="node11" class="node">
<title>Osher_FMM_controller</title>
<g id="a_node11"><a xlink:href="../api/proteus.StepControl.html#proteus.StepControl.Osher_FMM_controller" xlink:title="TODO" target="_top">
<polygon fill="none" stroke="#000000" stroke-width=".5" points="447.5,-130 323.5,-130 323.5,-111 447.5,-111 447.5,-130"/>
<text text-anchor="middle" x="385.5" y="-118" font-family="Vera Sans, DejaVu Sans, Liberation Sans, Arial, Helvetica, sans" font-size="10.00" fill="#000000">Osher_FMM_controller</text>
</a>
</g>
</g>
<!-- Osher_controller&#45;&gt;Osher_FMM_controller -->
<g id="edge10" class="edge">
<title>Osher_controller&#45;&gt;Osher_FMM_controller</title>
<path fill="none" stroke="#000000" stroke-width=".5" d="M238.577,-120.5C262.6431,-120.5 292.0861,-120.5 318.2785,-120.5"/>
<polygon fill="#000000" stroke="#000000" stroke-width=".5" points="318.4711,-122.2501 323.4711,-120.5 318.471,-118.7501 318.4711,-122.2501"/>
</g>
</g>
</svg>
