<?xml version="1.0" encoding="UTF-8" standalone="no"?>
<!DOCTYPE svg PUBLIC "-//W3C//DTD SVG 1.1//EN"
 "http://www.w3.org/Graphics/SVG/1.1/DTD/svg11.dtd">
<!-- Generated by graphviz version 2.38.0 (20140413.2041)
 -->
<!-- Title: inheritance44a015191f Pages: 1 -->
<svg width="206pt" height="138pt"
 viewBox="0.00 0.00 206.00 138.00" xmlns="http://www.w3.org/2000/svg" xmlns:xlink="http://www.w3.org/1999/xlink">
<g id="graph0" class="graph" transform="scale(1 1) rotate(0) translate(4 134)">
<title>inheritance44a015191f</title>
<polygon fill="white" stroke="none" points="-4,4 -4,-134 202,-134 202,4 -4,4"/>
<!-- BCContainer -->
<g id="node1" class="node"><title>BCContainer</title>
<g id="a_node1"><a xlink:href="../api/proteus.SpatialTools.html#proteus.SpatialTools.BCContainer" xlink:title="Creates a class from a dictionary (keys become class variable names)" target="_top">
<polygon fill="none" stroke="black" stroke-width="0.5" points="77,-37 0,-37 0,-18 77,-18 77,-37"/>
<text text-anchor="middle" x="38.5" y="-25" font-family="Vera Sans, DejaVu Sans, Liberation Sans, Arial, Helvetica, sans" font-size="10.00">BCContainer</text>
</a>
</g>
</g>
<!-- Cuboid -->
<g id="node2" class="node"><title>Cuboid</title>
<g id="a_node2"><a xlink:href="../api/proteus.SpatialTools.html#proteus.SpatialTools.Cuboid" xlink:title="Class to create a 3D cuboid" target="_top">
<polygon fill="none" stroke="black" stroke-width="0.5" points="182.5,-130 128.5,-130 128.5,-111 182.5,-111 182.5,-130"/>
<text text-anchor="middle" x="155.5" y="-118" font-family="Vera Sans, DejaVu Sans, Liberation Sans, Arial, Helvetica, sans" font-size="10.00">Cuboid</text>
</a>
</g>
</g>
<!-- Shape -->
<g id="node3" class="node"><title>Shape</title>
<g id="a_node3"><a xlink:href="../api/proteus.SpatialTools.html#proteus.SpatialTools.Shape" xlink:title="Base/super class of all shapes." target="_top">
<polygon fill="none" stroke="black" stroke-width="0.5" points="65.5,-74 11.5,-74 11.5,-55 65.5,-55 65.5,-74"/>
<text text-anchor="middle" x="38.5" y="-62" font-family="Vera Sans, DejaVu Sans, Liberation Sans, Arial, Helvetica, sans" font-size="10.00">Shape</text>
</a>
</g>
</g>
<!-- Shape&#45;&gt;Cuboid -->
<g id="edge1" class="edge"><title>Shape&#45;&gt;Cuboid</title>
<path fill="none" stroke="black" stroke-width="0.5" d="M57.1534,-74.0557C71.9376,-81.9543 93.6642,-93.3213 113,-102.5 117.47,-104.622 122.253,-106.789 126.924,-108.852"/>
<polygon fill="black" stroke="black" stroke-width="0.5" points="126.261,-110.471 131.543,-110.873 127.664,-107.265 126.261,-110.471"/>
</g>
<!-- CustomShape -->
<g id="node4" class="node"><title>CustomShape</title>
<g id="a_node4"><a xlink:href="../api/proteus.SpatialTools.html#proteus.SpatialTools.CustomShape" xlink:title="Class to create a custom 2D or 3D shape" target="_top">
<polygon fill="none" stroke="black" stroke-width="0.5" points="198,-93 113,-93 113,-74 198,-74 198,-93"/>
<text text-anchor="middle" x="155.5" y="-81" font-family="Vera Sans, DejaVu Sans, Liberation Sans, Arial, Helvetica, sans" font-size="10.00">CustomShape</text>
</a>
</g>
</g>
<!-- Shape&#45;&gt;CustomShape -->
<g id="edge2" class="edge"><title>Shape&#45;&gt;CustomShape</title>
<path fill="none" stroke="black" stroke-width="0.5" d="M65.5953,-68.8114C77.9897,-70.8592 93.1924,-73.3709 107.498,-75.7344"/>
<polygon fill="black" stroke="black" stroke-width="0.5" points="107.502,-77.5088 112.721,-76.5973 108.073,-74.0556 107.502,-77.5088"/>
</g>
<!-- Rectangle -->
<g id="node5" class="node"><title>Rectangle</title>
<g id="a_node5"><a xlink:href="../api/proteus.SpatialTools.html#proteus.SpatialTools.Rectangle" xlink:title="Class to create a rectangle" target="_top">
<polygon fill="none" stroke="black" stroke-width="0.5" points="187,-56 124,-56 124,-37 187,-37 187,-56"/>
<text text-anchor="middle" x="155.5" y="-44" font-family="Vera Sans, DejaVu Sans, Liberation Sans, Arial, Helvetica, sans" font-size="10.00">Rectangle</text>
</a>
</g>
</g>
<!-- Shape&#45;&gt;Rectangle -->
<g id="edge3" class="edge"><title>Shape&#45;&gt;Rectangle</title>
<path fill="none" stroke="black" stroke-width="0.5" d="M65.5953,-60.4155C81.21,-57.9715 101.282,-54.8298 118.401,-52.1502"/>
<polygon fill="black" stroke="black" stroke-width="0.5" points="118.942,-53.837 123.611,-51.3348 118.401,-50.3791 118.942,-53.837"/>
</g>
<!-- ShapeSTL -->
<g id="node6" class="node"><title>ShapeSTL</title>
<g id="a_node6"><a xlink:href="../api/proteus.SpatialTools.html#proteus.SpatialTools.ShapeSTL" xlink:title="Class to extract geometrical information from STL file" target="_top">
<polygon fill="none" stroke="black" stroke-width="0.5" points="188,-19 123,-19 123,-0 188,-0 188,-19"/>
<text text-anchor="middle" x="155.5" y="-7" font-family="Vera Sans, DejaVu Sans, Liberation Sans, Arial, Helvetica, sans" font-size="10.00">ShapeSTL</text>
</a>
</g>
</g>
<!-- Shape&#45;&gt;ShapeSTL -->
<g id="edge4" class="edge"><title>Shape&#45;&gt;ShapeSTL</title>
<path fill="none" stroke="black" stroke-width="0.5" d="M59.7692,-54.8443C65.3609,-52.1606 71.4229,-49.2326 77,-46.5 93.064,-38.6293 96.8652,-36.2244 113,-28.5 118.034,-26.0899 123.44,-23.5676 128.632,-21.1774"/>
<polygon fill="black" stroke="black" stroke-width="0.5" points="129.507,-22.7012 133.323,-19.0264 128.048,-19.5198 129.507,-22.7012"/>
</g>
</g>
</svg>
