<?xml version="1.0" encoding="UTF-8" standalone="no"?>
<!DOCTYPE svg PUBLIC "-//W3C//DTD SVG 1.1//EN"
 "http://www.w3.org/Graphics/SVG/1.1/DTD/svg11.dtd">
<!-- Generated by graphviz version 2.42.3 (0)
 -->
<!-- Title: inheritanceb3a20b897e Pages: 1 -->
<svg width="576pt" height="304pt"
 viewBox="0.00 0.00 576.00 304.05" xmlns="http://www.w3.org/2000/svg" xmlns:xlink="http://www.w3.org/1999/xlink">
<g id="graph0" class="graph" transform="scale(1.18 1.18) rotate(0) translate(4 356)">
<title>inheritanceb3a20b897e</title>
<polygon fill="white" stroke="transparent" points="-4,4 -4,-356 678,-356 678,4 -4,4"/>
<!-- AggregateVelocityPostProcessor -->
<g id="node1" class="node">
<title>AggregateVelocityPostProcessor</title>
<g id="a_node1"><a xlink:href="../api/proteus.PostProcessingTools.html#proteus.PostProcessingTools.AggregateVelocityPostProcessor" xlink:title="collect different velocity postprocessing algorithms for a (possibly) multicomponent system" target="_top">
<polygon fill="none" stroke="black" stroke-width="0.5" points="187.5,-148 13.5,-148 13.5,-129 187.5,-129 187.5,-148"/>
<text text-anchor="middle" x="100.5" y="-136" font-family="Vera Sans, DejaVu Sans, Liberation Sans, Arial, Helvetica, sans" font-size="10.00">AggregateVelocityPostProcessor</text>
</a>
</g>
</g>
<!-- VPP_DG_BDM -->
<g id="node2" class="node">
<title>VPP_DG_BDM</title>
<g id="a_node2"><a xlink:href="../api/proteus.PostProcessingTools.html#proteus.PostProcessingTools.VPP_DG_BDM" xlink:title="Project DG solution onto BDM1 local representation which is" target="_top">
<polygon fill="none" stroke="black" stroke-width="0.5" points="510,-352 426,-352 426,-333 510,-333 510,-352"/>
<text text-anchor="middle" x="468" y="-340" font-family="Vera Sans, DejaVu Sans, Liberation Sans, Arial, Helvetica, sans" font-size="10.00">VPP_DG_BDM</text>
</a>
</g>
</g>
<!-- VPP_DG_RT0 -->
<g id="node3" class="node">
<title>VPP_DG_RT0</title>
<g id="a_node3"><a xlink:href="../api/proteus.PostProcessingTools.html#proteus.PostProcessingTools.VPP_DG_RT0" xlink:title="Post process DG solution velocity by projecting boundary fluxes" target="_top">
<polygon fill="none" stroke="black" stroke-width="0.5" points="346.5,-352 267.5,-352 267.5,-333 346.5,-333 346.5,-352"/>
<text text-anchor="middle" x="307" y="-340" font-family="Vera Sans, DejaVu Sans, Liberation Sans, Arial, Helvetica, sans" font-size="10.00">VPP_DG_RT0</text>
</a>
</g>
</g>
<!-- VPP_DG_RT0&#45;&gt;VPP_DG_BDM -->
<g id="edge1" class="edge">
<title>VPP_DG_RT0&#45;&gt;VPP_DG_BDM</title>
<path fill="none" stroke="black" stroke-width="0.5" d="M346.9,-342.5C369.12,-342.5 397.13,-342.5 420.51,-342.5"/>
<polygon fill="black" stroke="black" stroke-width="0.5" points="420.73,-344.25 425.73,-342.5 420.73,-340.75 420.73,-344.25"/>
</g>
<!-- VelocityPostProcessingAlgorithmBase -->
<g id="node4" class="node">
<title>VelocityPostProcessingAlgorithmBase</title>
<g id="a_node4"><a xlink:href="../api/proteus.PostProcessingTools.html#proteus.PostProcessingTools.VelocityPostProcessingAlgorithmBase" xlink:title="Base class for velocity post processing algorithms" target="_top">
<polygon fill="none" stroke="black" stroke-width="0.5" points="201,-185 0,-185 0,-166 201,-166 201,-185"/>
<text text-anchor="middle" x="100.5" y="-173" font-family="Vera Sans, DejaVu Sans, Liberation Sans, Arial, Helvetica, sans" font-size="10.00">VelocityPostProcessingAlgorithmBase</text>
</a>
</g>
</g>
<!-- VelocityPostProcessingAlgorithmBase&#45;&gt;VPP_DG_RT0 -->
<g id="edge2" class="edge">
<title>VelocityPostProcessingAlgorithmBase&#45;&gt;VPP_DG_RT0</title>
<path fill="none" stroke="black" stroke-width="0.5" d="M187.69,-185.17C192.49,-187.73 196.99,-190.81 201,-194.5 245.08,-235.13 194.29,-282.43 237,-324.5 243.91,-331.31 253.05,-335.63 262.41,-338.36"/>
<polygon fill="black" stroke="black" stroke-width="0.5" points="262.04,-340.07 267.32,-339.64 262.93,-336.68 262.04,-340.07"/>
</g>
<!-- VPP_LOW_K_IB_PWL_RT0 -->
<g id="node5" class="node">
<title>VPP_LOW_K_IB_PWL_RT0</title>
<g id="a_node5"><a xlink:href="../api/proteus.PostProcessingTools.html#proteus.PostProcessingTools.VPP_LOW_K_IB_PWL_RT0" xlink:title="Local Larson&#45;Niklasson method with RT_0 representation for element" target="_top">
<polygon fill="none" stroke="black" stroke-width="0.5" points="377,-315 237,-315 237,-296 377,-296 377,-315"/>
<text text-anchor="middle" x="307" y="-303" font-family="Vera Sans, DejaVu Sans, Liberation Sans, Arial, Helvetica, sans" font-size="10.00">VPP_LOW_K_IB_PWL_RT0</text>
</a>
</g>
</g>
<!-- VelocityPostProcessingAlgorithmBase&#45;&gt;VPP_LOW_K_IB_PWL_RT0 -->
<g id="edge3" class="edge">
<title>VelocityPostProcessingAlgorithmBase&#45;&gt;VPP_LOW_K_IB_PWL_RT0</title>
<path fill="none" stroke="black" stroke-width="0.5" d="M186.32,-185.17C191.58,-187.71 196.54,-190.78 201,-194.5 235.04,-222.89 203.92,-258 237,-287.5 239.49,-289.72 242.21,-291.67 245.1,-293.38"/>
<polygon fill="black" stroke="black" stroke-width="0.5" points="244.53,-295.06 249.76,-295.89 246.18,-291.98 244.53,-295.06"/>
</g>
<!-- VPP_P1nc_RT0 -->
<g id="node6" class="node">
<title>VPP_P1nc_RT0</title>
<g id="a_node6"><a xlink:href="../api/proteus.PostProcessingTools.html#proteus.PostProcessingTools.VPP_P1nc_RT0" xlink:title="P1&#45;nonconforming velocity postprocessing" target="_top">
<polygon fill="none" stroke="black" stroke-width="0.5" points="350.5,-278 263.5,-278 263.5,-259 350.5,-259 350.5,-278"/>
<text text-anchor="middle" x="307" y="-266" font-family="Vera Sans, DejaVu Sans, Liberation Sans, Arial, Helvetica, sans" font-size="10.00">VPP_P1nc_RT0</text>
</a>
</g>
</g>
<!-- VelocityPostProcessingAlgorithmBase&#45;&gt;VPP_P1nc_RT0 -->
<g id="edge4" class="edge">
<title>VelocityPostProcessingAlgorithmBase&#45;&gt;VPP_P1nc_RT0</title>
<path fill="none" stroke="black" stroke-width="0.5" d="M182.52,-185.04C189.06,-187.55 195.32,-190.66 201,-194.5 225.52,-211.06 213.05,-233.13 237,-250.5 243.27,-255.05 250.6,-258.45 258.09,-260.99"/>
<polygon fill="black" stroke="black" stroke-width="0.5" points="258,-262.79 263.29,-262.61 259.04,-259.45 258,-262.79"/>
</g>
<!-- VPP_POINT_EVAL -->
<g id="node7" class="node">
<title>VPP_POINT_EVAL</title>
<g id="a_node7"><a xlink:href="../api/proteus.PostProcessingTools.html#proteus.PostProcessingTools.VPP_POINT_EVAL" xlink:title="Velocity calculation from just directly evaluating flux formula at intergration points using" target="_top">
<polygon fill="none" stroke="black" stroke-width="0.5" points="357,-241 257,-241 257,-222 357,-222 357,-241"/>
<text text-anchor="middle" x="307" y="-229" font-family="Vera Sans, DejaVu Sans, Liberation Sans, Arial, Helvetica, sans" font-size="10.00">VPP_POINT_EVAL</text>
</a>
</g>
</g>
<!-- VelocityPostProcessingAlgorithmBase&#45;&gt;VPP_POINT_EVAL -->
<g id="edge5" class="edge">
<title>VelocityPostProcessingAlgorithmBase&#45;&gt;VPP_POINT_EVAL</title>
<path fill="none" stroke="black" stroke-width="0.5" d="M166.47,-185.02C178.13,-187.54 190.05,-190.66 201,-194.5 218.07,-200.48 220.14,-206.95 237,-213.5 243.75,-216.12 251.02,-218.49 258.22,-220.57"/>
<polygon fill="black" stroke="black" stroke-width="0.5" points="257.89,-222.3 263.18,-221.97 258.84,-218.93 257.89,-222.3"/>
</g>
<!-- VPP_POINT_EVAL_GWVD -->
<g id="node8" class="node">
<title>VPP_POINT_EVAL_GWVD</title>
<g id="a_node8"><a xlink:href="../api/proteus.PostProcessingTools.html#proteus.PostProcessingTools.VPP_POINT_EVAL_GWVD" xlink:title="Velocity calculation for evaluating coarse grid velocity solution" target="_top">
<polygon fill="none" stroke="black" stroke-width="0.5" points="375.5,-204 238.5,-204 238.5,-185 375.5,-185 375.5,-204"/>
<text text-anchor="middle" x="307" y="-192" font-family="Vera Sans, DejaVu Sans, Liberation Sans, Arial, Helvetica, sans" font-size="10.00">VPP_POINT_EVAL_GWVD</text>
</a>
</g>
</g>
<!-- VelocityPostProcessingAlgorithmBase&#45;&gt;VPP_POINT_EVAL_GWVD -->
<g id="edge6" class="edge">
<title>VelocityPostProcessingAlgorithmBase&#45;&gt;VPP_POINT_EVAL_GWVD</title>
<path fill="none" stroke="black" stroke-width="0.5" d="M201.05,-184.75C211.88,-185.76 222.74,-186.76 233.16,-187.73"/>
<polygon fill="black" stroke="black" stroke-width="0.5" points="233.1,-189.48 238.24,-188.2 233.42,-186 233.1,-189.48"/>
</g>
<!-- VPP_PWC_RT0 -->
<g id="node9" class="node">
<title>VPP_PWC_RT0</title>
<g id="a_node9"><a xlink:href="../api/proteus.PostProcessingTools.html#proteus.PostProcessingTools.VPP_PWC_RT0" xlink:title="Global piecewise constant Larson&#45;Niklasson method with :math:`RT_0`" target="_top">
<polygon fill="none" stroke="black" stroke-width="0.5" points="350,-167 264,-167 264,-148 350,-148 350,-167"/>
<text text-anchor="middle" x="307" y="-155" font-family="Vera Sans, DejaVu Sans, Liberation Sans, Arial, Helvetica, sans" font-size="10.00">VPP_PWC_RT0</text>
</a>
</g>
</g>
<!-- VelocityPostProcessingAlgorithmBase&#45;&gt;VPP_PWC_RT0 -->
<g id="edge7" class="edge">
<title>VelocityPostProcessingAlgorithmBase&#45;&gt;VPP_PWC_RT0</title>
<path fill="none" stroke="black" stroke-width="0.5" d="M201.05,-166.74C221.12,-164.97 241.33,-163.19 258.58,-161.67"/>
<polygon fill="black" stroke="black" stroke-width="0.5" points="259.01,-163.39 263.83,-161.21 258.7,-159.91 259.01,-163.39"/>
</g>
<!-- VPP_PWL_RT0 -->
<g id="node11" class="node">
<title>VPP_PWL_RT0</title>
<g id="a_node11"><a xlink:href="../api/proteus.PostProcessingTools.html#proteus.PostProcessingTools.VPP_PWL_RT0" xlink:title="Local Larson&#45;Niklasson method with RT_0 representation for element" target="_top">
<polygon fill="none" stroke="black" stroke-width="0.5" points="349.5,-130 264.5,-130 264.5,-111 349.5,-111 349.5,-130"/>
<text text-anchor="middle" x="307" y="-118" font-family="Vera Sans, DejaVu Sans, Liberation Sans, Arial, Helvetica, sans" font-size="10.00">VPP_PWL_RT0</text>
</a>
</g>
</g>
<!-- VelocityPostProcessingAlgorithmBase&#45;&gt;VPP_PWL_RT0 -->
<g id="edge11" class="edge">
<title>VelocityPostProcessingAlgorithmBase&#45;&gt;VPP_PWL_RT0</title>
<path fill="none" stroke="black" stroke-width="0.5" d="M169.06,-165.97C179.87,-163.67 190.84,-160.88 201,-157.5 217.97,-151.85 220.3,-145.9 237,-139.5 244.69,-136.55 253.01,-133.86 261.14,-131.48"/>
<polygon fill="black" stroke="black" stroke-width="0.5" points="261.84,-133.1 266.16,-130.05 260.88,-129.74 261.84,-133.1"/>
</g>
<!-- VPP_PWL_RT1 -->
<g id="node15" class="node">
<title>VPP_PWL_RT1</title>
<g id="a_node15"><a xlink:href="../api/proteus.PostProcessingTools.html#proteus.PostProcessingTools.VPP_PWL_RT1" xlink:title="Base class for higher order RT elements." target="_top">
<polygon fill="none" stroke="black" stroke-width="0.5" points="349.5,-93 264.5,-93 264.5,-74 349.5,-74 349.5,-93"/>
<text text-anchor="middle" x="307" y="-81" font-family="Vera Sans, DejaVu Sans, Liberation Sans, Arial, Helvetica, sans" font-size="10.00">VPP_PWL_RT1</text>
</a>
</g>
</g>
<!-- VelocityPostProcessingAlgorithmBase&#45;&gt;VPP_PWL_RT1 -->
<g id="edge13" class="edge">
<title>VelocityPostProcessingAlgorithmBase&#45;&gt;VPP_PWL_RT1</title>
<path fill="none" stroke="black" stroke-width="0.5" d="M184.98,-165.8C190.62,-163.53 196.02,-160.8 201,-157.5 225.36,-141.36 213.39,-119.71 237,-102.5 243.65,-97.65 251.48,-94.04 259.43,-91.35"/>
<polygon fill="black" stroke="black" stroke-width="0.5" points="260.15,-92.96 264.39,-89.79 259.1,-89.62 260.15,-92.96"/>
</g>
<!-- VPP_SUN_GS_RT0 -->
<g id="node16" class="node">
<title>VPP_SUN_GS_RT0</title>
<g id="a_node16"><a xlink:href="../api/proteus.PostProcessingTools.html#proteus.PostProcessingTools.VPP_SUN_GS_RT0" xlink:title="Local Sun&#45;Wheeler &quot;Gauss&#45;Seidel&quot; method with :math:`RT_0` representation" target="_top">
<polygon fill="none" stroke="black" stroke-width="0.5" points="359,-56 255,-56 255,-37 359,-37 359,-56"/>
<text text-anchor="middle" x="307" y="-44" font-family="Vera Sans, DejaVu Sans, Liberation Sans, Arial, Helvetica, sans" font-size="10.00">VPP_SUN_GS_RT0</text>
</a>
</g>
</g>
<!-- VelocityPostProcessingAlgorithmBase&#45;&gt;VPP_SUN_GS_RT0 -->
<g id="edge14" class="edge">
<title>VelocityPostProcessingAlgorithmBase&#45;&gt;VPP_SUN_GS_RT0</title>
<path fill="none" stroke="black" stroke-width="0.5" d="M188.19,-165.77C192.75,-163.47 197.07,-160.73 201,-157.5 234.91,-129.61 204.38,-94.89 237,-65.5 240.88,-62.01 245.34,-59.15 250.09,-56.81"/>
<polygon fill="black" stroke="black" stroke-width="0.5" points="251.08,-58.29 254.93,-54.64 249.65,-55.09 251.08,-58.29"/>
</g>
<!-- VPP_SUN_RT0 -->
<g id="node17" class="node">
<title>VPP_SUN_RT0</title>
<g id="a_node17"><a xlink:href="../api/proteus.PostProcessingTools.html#proteus.PostProcessingTools.VPP_SUN_RT0" xlink:title="Global piecewise constant Sun&#45;Wheeler method with :math:`RT_0`" target="_top">
<polygon fill="none" stroke="black" stroke-width="0.5" points="349.5,-19 264.5,-19 264.5,0 349.5,0 349.5,-19"/>
<text text-anchor="middle" x="307" y="-7" font-family="Vera Sans, DejaVu Sans, Liberation Sans, Arial, Helvetica, sans" font-size="10.00">VPP_SUN_RT0</text>
</a>
</g>
</g>
<!-- VelocityPostProcessingAlgorithmBase&#45;&gt;VPP_SUN_RT0 -->
<g id="edge15" class="edge">
<title>VelocityPostProcessingAlgorithmBase&#45;&gt;VPP_SUN_RT0</title>
<path fill="none" stroke="black" stroke-width="0.5" d="M189.05,-165.98C193.34,-163.62 197.37,-160.81 201,-157.5 245.28,-117.08 194.29,-69.57 237,-27.5 243.13,-21.46 251.03,-17.37 259.28,-14.62"/>
<polygon fill="black" stroke="black" stroke-width="0.5" points="260.15,-16.18 264.44,-13.07 259.15,-12.83 260.15,-16.18"/>
</g>
<!-- VPP_PWL_BDM -->
<g id="node10" class="node">
<title>VPP_PWL_BDM</title>
<g id="a_node10"><a xlink:href="../api/proteus.PostProcessingTools.html#proteus.PostProcessingTools.VPP_PWL_BDM" xlink:title="Local Larson&#45;Niklasson method with BDM1 representation for element" target="_top">
<polygon fill="none" stroke="black" stroke-width="0.5" points="513,-167 423,-167 423,-148 513,-148 513,-167"/>
<text text-anchor="middle" x="468" y="-155" font-family="Vera Sans, DejaVu Sans, Liberation Sans, Arial, Helvetica, sans" font-size="10.00">VPP_PWL_BDM</text>
</a>
</g>
</g>
<!-- VPP_PWL_RT0&#45;&gt;VPP_PWL_BDM -->
<g id="edge8" class="edge">
<title>VPP_PWL_RT0&#45;&gt;VPP_PWL_BDM</title>
<path fill="none" stroke="black" stroke-width="0.5" d="M348.95,-130.03C370.93,-135.14 398.11,-141.47 420.84,-146.76"/>
<polygon fill="black" stroke="black" stroke-width="0.5" points="420.65,-148.51 425.92,-147.94 421.44,-145.1 420.65,-148.51"/>
</g>
<!-- VPP_PWL_BDM2 -->
<g id="node12" class="node">
<title>VPP_PWL_BDM2</title>
<g id="a_node12"><a xlink:href="../api/proteus.PostProcessingTools.html#proteus.PostProcessingTools.VPP_PWL_BDM2" xlink:title="This class is intended to implement BDM2 elements in proteus" target="_top">
<polygon fill="none" stroke="black" stroke-width="0.5" points="516,-130 420,-130 420,-111 516,-111 516,-130"/>
<text text-anchor="middle" x="468" y="-118" font-family="Vera Sans, DejaVu Sans, Liberation Sans, Arial, Helvetica, sans" font-size="10.00">VPP_PWL_BDM2</text>
</a>
</g>
</g>
<!-- VPP_PWL_RT0&#45;&gt;VPP_PWL_BDM2 -->
<g id="edge9" class="edge">
<title>VPP_PWL_RT0&#45;&gt;VPP_PWL_BDM2</title>
<path fill="none" stroke="black" stroke-width="0.5" d="M349.78,-120.5C369.71,-120.5 393.76,-120.5 414.87,-120.5"/>
<polygon fill="black" stroke="black" stroke-width="0.5" points="414.89,-122.25 419.89,-120.5 414.89,-118.75 414.89,-122.25"/>
</g>
<!-- VPP_PWL_RT0_OPT -->
<g id="node14" class="node">
<title>VPP_PWL_RT0_OPT</title>
<g id="a_node14"><a xlink:href="../api/proteus.PostProcessingTools.html#proteus.PostProcessingTools.VPP_PWL_RT0_OPT" xlink:title="Version of local Larson&#45;Niklasson scheme to use with optimized" target="_top">
<polygon fill="none" stroke="black" stroke-width="0.5" points="523,-93 413,-93 413,-74 523,-74 523,-93"/>
<text text-anchor="middle" x="468" y="-81" font-family="Vera Sans, DejaVu Sans, Liberation Sans, Arial, Helvetica, sans" font-size="10.00">VPP_PWL_RT0_OPT</text>
</a>
</g>
</g>
<!-- VPP_PWL_RT0&#45;&gt;VPP_PWL_RT0_OPT -->
<g id="edge12" class="edge">
<title>VPP_PWL_RT0&#45;&gt;VPP_PWL_RT0_OPT</title>
<path fill="none" stroke="black" stroke-width="0.5" d="M348.95,-110.97C370.93,-105.86 398.11,-99.53 420.84,-94.24"/>
<polygon fill="black" stroke="black" stroke-width="0.5" points="421.44,-95.9 425.92,-93.06 420.65,-92.49 421.44,-95.9"/>
</g>
<!-- VPP_PWL_BDM_OPT -->
<g id="node13" class="node">
<title>VPP_PWL_BDM_OPT</title>
<g id="a_node13"><a xlink:href="../api/proteus.PostProcessingTools.html#proteus.PostProcessingTools.VPP_PWL_BDM_OPT" xlink:title="Local Larson&#45;Niklasson method with BDM1 representation for element" target="_top">
<polygon fill="none" stroke="black" stroke-width="0.5" points="674,-93 559,-93 559,-74 674,-74 674,-93"/>
<text text-anchor="middle" x="616.5" y="-81" font-family="Vera Sans, DejaVu Sans, Liberation Sans, Arial, Helvetica, sans" font-size="10.00">VPP_PWL_BDM_OPT</text>
</a>
</g>
</g>
<!-- VPP_PWL_RT0_OPT&#45;&gt;VPP_PWL_BDM_OPT -->
<g id="edge10" class="edge">
<title>VPP_PWL_RT0_OPT&#45;&gt;VPP_PWL_BDM_OPT</title>
<path fill="none" stroke="black" stroke-width="0.5" d="M523.13,-83.5C532.99,-83.5 543.34,-83.5 553.41,-83.5"/>
<polygon fill="black" stroke="black" stroke-width="0.5" points="553.64,-85.25 558.64,-83.5 553.64,-81.75 553.64,-85.25"/>
</g>
<!-- VelocityPostProcessor_Original -->
<g id="node18" class="node">
<title>VelocityPostProcessor_Original</title>
<g id="a_node18"><a xlink:href="../api/proteus.PostProcessingTools.html#proteus.PostProcessingTools.VelocityPostProcessor_Original" xlink:title="accumulate basic functionality for post&#45;processing velocity vields" target="_top">
<polygon fill="none" stroke="black" stroke-width="0.5" points="184,-222 17,-222 17,-203 184,-203 184,-222"/>
<text text-anchor="middle" x="100.5" y="-210" font-family="Vera Sans, DejaVu Sans, Liberation Sans, Arial, Helvetica, sans" font-size="10.00">VelocityPostProcessor_Original</text>
</a>
</g>
</g>
</g>
</svg>
