<?xml version="1.0" encoding="UTF-8" standalone="no"?>
<!DOCTYPE svg PUBLIC "-//W3C//DTD SVG 1.1//EN"
 "http://www.w3.org/Graphics/SVG/1.1/DTD/svg11.dtd">
<!-- Generated by graphviz version 2.40.1 (20161225.0304)
 -->
<!-- Title: inheritance3db099f6f4 Pages: 1 -->
<svg width="576pt" height="478pt"
 viewBox="0.00 0.00 576.00 478.40" xmlns="http://www.w3.org/2000/svg" xmlns:xlink="http://www.w3.org/1999/xlink">
<g id="graph0" class="graph" transform="scale(.7394 .7394) rotate(0) translate(4 643)">
<title>inheritance3db099f6f4</title>
<polygon fill="#ffffff" stroke="transparent" points="-4,4 -4,-643 775,-643 775,4 -4,4"/>
<!-- BackwardEuler -->
<g id="node1" class="node">
<title>BackwardEuler</title>
<g id="a_node1"><a xlink:href="../api/proteus.TimeIntegration.html#proteus.TimeIntegration.BackwardEuler" xlink:title="BackwardEuler" target="_top">
<polygon fill="none" stroke="#000000" stroke-width=".5" points="313.5,-315 224.5,-315 224.5,-296 313.5,-296 313.5,-315"/>
<text text-anchor="middle" x="269" y="-303" font-family="Vera Sans, DejaVu Sans, Liberation Sans, Arial, Helvetica, sans" font-size="10.00" fill="#000000">BackwardEuler</text>
</a>
</g>
</g>
<!-- BackwardEuler_cfl -->
<g id="node3" class="node">
<title>BackwardEuler_cfl</title>
<g id="a_node3"><a xlink:href="../api/proteus.TimeIntegration.html#proteus.TimeIntegration.BackwardEuler_cfl" xlink:title="Take a fraction of the max (over all components and elements)" target="_top">
<polygon fill="none" stroke="#000000" stroke-width=".5" points="548,-352 442,-352 442,-333 548,-333 548,-352"/>
<text text-anchor="middle" x="495" y="-340" font-family="Vera Sans, DejaVu Sans, Liberation Sans, Arial, Helvetica, sans" font-size="10.00" fill="#000000">BackwardEuler_cfl</text>
</a>
</g>
</g>
<!-- BackwardEuler&#45;&gt;BackwardEuler_cfl -->
<g id="edge2" class="edge">
<title>BackwardEuler&#45;&gt;BackwardEuler_cfl</title>
<path fill="none" stroke="#000000" stroke-width=".5" d="M313.6503,-312.81C348.8603,-318.5745 398.252,-326.6607 436.5999,-332.9389"/>
<polygon fill="#000000" stroke="#000000" stroke-width=".5" points="436.479,-334.6923 441.6961,-333.7732 437.0445,-331.2383 436.479,-334.6923"/>
</g>
<!-- PsiTCtte_new -->
<g id="node30" class="node">
<title>PsiTCtte_new</title>
<g id="a_node30"><a xlink:href="../api/proteus.TimeIntegration.html#proteus.TimeIntegration.PsiTCtte_new" xlink:title="PsiTCtte_new" target="_top">
<polygon fill="none" stroke="#000000" stroke-width=".5" points="536,-315 454,-315 454,-296 536,-296 536,-315"/>
<text text-anchor="middle" x="495" y="-303" font-family="Vera Sans, DejaVu Sans, Liberation Sans, Arial, Helvetica, sans" font-size="10.00" fill="#000000">PsiTCtte_new</text>
</a>
</g>
</g>
<!-- BackwardEuler&#45;&gt;PsiTCtte_new -->
<g id="edge24" class="edge">
<title>BackwardEuler&#45;&gt;PsiTCtte_new</title>
<path fill="none" stroke="#000000" stroke-width=".5" d="M313.6503,-305.5C352.6768,-305.5 409.1259,-305.5 448.6483,-305.5"/>
<polygon fill="#000000" stroke="#000000" stroke-width=".5" points="448.8663,-307.2501 453.8663,-305.5 448.8662,-303.7501 448.8663,-307.2501"/>
</g>
<!-- TI_base -->
<g id="node2" class="node">
<title>TI_base</title>
<g id="a_node2"><a xlink:href="../api/proteus.TimeIntegration.html#proteus.TimeIntegration.TI_base" xlink:title="The base class for time discretizations of tightly coupled systems" target="_top">
<polygon fill="none" stroke="#000000" stroke-width=".5" points="98.5,-167 44.5,-167 44.5,-148 98.5,-148 98.5,-167"/>
<text text-anchor="middle" x="71.5" y="-155" font-family="Vera Sans, DejaVu Sans, Liberation Sans, Arial, Helvetica, sans" font-size="10.00" fill="#000000">TI_base</text>
</a>
</g>
</g>
<!-- TI_base&#45;&gt;BackwardEuler -->
<g id="edge1" class="edge">
<title>TI_base&#45;&gt;BackwardEuler</title>
<path fill="none" stroke="#000000" stroke-width=".5" d="M76.5039,-167.1484C89.6671,-191.4941 127.8038,-255.6681 179,-286.5 191.0621,-293.7641 205.4916,-298.2783 219.2269,-301.0751"/>
<polygon fill="#000000" stroke="#000000" stroke-width=".5" points="219.0114,-302.8154 224.2502,-302.0297 219.6649,-299.3769 219.0114,-302.8154"/>
</g>
<!-- CentralDifference_2ndD -->
<g id="node4" class="node">
<title>CentralDifference_2ndD</title>
<g id="a_node4"><a xlink:href="../api/proteus.TimeIntegration.html#proteus.TimeIntegration.CentralDifference_2ndD" xlink:title="CentralDifference_2ndD" target="_top">
<polygon fill="none" stroke="#000000" stroke-width=".5" points="335.5,-278 202.5,-278 202.5,-259 335.5,-259 335.5,-278"/>
<text text-anchor="middle" x="269" y="-266" font-family="Vera Sans, DejaVu Sans, Liberation Sans, Arial, Helvetica, sans" font-size="10.00" fill="#000000">CentralDifference_2ndD</text>
</a>
</g>
</g>
<!-- TI_base&#45;&gt;CentralDifference_2ndD -->
<g id="edge3" class="edge">
<title>TI_base&#45;&gt;CentralDifference_2ndD</title>
<path fill="none" stroke="#000000" stroke-width=".5" d="M79.5837,-167.074C96.1512,-186.0275 136.0346,-228.322 179,-249.5 185.401,-252.6551 192.3097,-255.2876 199.3538,-257.4839"/>
<polygon fill="#000000" stroke="#000000" stroke-width=".5" points="198.9562,-259.1913 204.2475,-258.9358 199.9518,-255.8359 198.9562,-259.1913"/>
</g>
<!-- ExplicitRK_base -->
<g id="node19" class="node">
<title>ExplicitRK_base</title>
<g id="a_node19"><a xlink:href="../api/proteus.TimeIntegration.html#proteus.TimeIntegration.ExplicitRK_base" xlink:title="base class for explicit RK schemes which can be written in" target="_top">
<polygon fill="none" stroke="#000000" stroke-width=".5" points="316.5,-241 221.5,-241 221.5,-222 316.5,-222 316.5,-241"/>
<text text-anchor="middle" x="269" y="-229" font-family="Vera Sans, DejaVu Sans, Liberation Sans, Arial, Helvetica, sans" font-size="10.00" fill="#000000">ExplicitRK_base</text>
</a>
</g>
</g>
<!-- TI_base&#45;&gt;ExplicitRK_base -->
<g id="edge14" class="edge">
<title>TI_base&#45;&gt;ExplicitRK_base</title>
<path fill="none" stroke="#000000" stroke-width=".5" d="M86.9395,-167.0646C107.3108,-179.2877 144.6166,-200.3187 179,-212.5 190.8269,-216.69 203.8718,-220.0978 216.2731,-222.8089"/>
<polygon fill="#000000" stroke="#000000" stroke-width=".5" points="215.9184,-224.5225 221.1732,-223.8519 216.6471,-221.0992 215.9184,-224.5225"/>
</g>
<!-- FLCBDF -->
<g id="node20" class="node">
<title>FLCBDF</title>
<g id="a_node20"><a xlink:href="../api/proteus.TimeIntegration.html#proteus.TimeIntegration.FLCBDF" xlink:title="FLCBDF" target="_top">
<polygon fill="none" stroke="#000000" stroke-width=".5" points="296,-204 242,-204 242,-185 296,-185 296,-204"/>
<text text-anchor="middle" x="269" y="-192" font-family="Vera Sans, DejaVu Sans, Liberation Sans, Arial, Helvetica, sans" font-size="10.00" fill="#000000">FLCBDF</text>
</a>
</g>
</g>
<!-- TI_base&#45;&gt;FLCBDF -->
<g id="edge15" class="edge">
<title>TI_base&#45;&gt;FLCBDF</title>
<path fill="none" stroke="#000000" stroke-width=".5" d="M98.5474,-162.5671C134.6421,-169.3292 198.4663,-181.2861 236.9391,-188.4937"/>
<polygon fill="#000000" stroke="#000000" stroke-width=".5" points="236.7263,-190.2342 241.9631,-189.4349 237.3708,-186.794 236.7263,-190.2342"/>
</g>
<!-- ForwardEuler -->
<g id="node22" class="node">
<title>ForwardEuler</title>
<g id="a_node22"><a xlink:href="../api/proteus.TimeIntegration.html#proteus.TimeIntegration.ForwardEuler" xlink:title="ForwardEuler" target="_top">
<polygon fill="none" stroke="#000000" stroke-width=".5" points="309,-167 229,-167 229,-148 309,-148 309,-167"/>
<text text-anchor="middle" x="269" y="-155" font-family="Vera Sans, DejaVu Sans, Liberation Sans, Arial, Helvetica, sans" font-size="10.00" fill="#000000">ForwardEuler</text>
</a>
</g>
</g>
<!-- TI_base&#45;&gt;ForwardEuler -->
<g id="edge17" class="edge">
<title>TI_base&#45;&gt;ForwardEuler</title>
<path fill="none" stroke="#000000" stroke-width=".5" d="M98.5474,-157.5C130.8001,-157.5 185.1933,-157.5 223.856,-157.5"/>
<polygon fill="#000000" stroke="#000000" stroke-width=".5" points="223.9651,-159.2501 228.9651,-157.5 223.9651,-155.7501 223.9651,-159.2501"/>
</g>
<!-- ForwardEuler_A -->
<g id="node23" class="node">
<title>ForwardEuler_A</title>
<g id="a_node23"><a xlink:href="../api/proteus.TimeIntegration.html#proteus.TimeIntegration.ForwardEuler_A" xlink:title="ForwardEuler_A" target="_top">
<polygon fill="none" stroke="#000000" stroke-width=".5" points="315,-130 223,-130 223,-111 315,-111 315,-130"/>
<text text-anchor="middle" x="269" y="-118" font-family="Vera Sans, DejaVu Sans, Liberation Sans, Arial, Helvetica, sans" font-size="10.00" fill="#000000">ForwardEuler_A</text>
</a>
</g>
</g>
<!-- TI_base&#45;&gt;ForwardEuler_A -->
<g id="edge18" class="edge">
<title>TI_base&#45;&gt;ForwardEuler_A</title>
<path fill="none" stroke="#000000" stroke-width=".5" d="M98.5474,-152.4329C129.1824,-146.6937 179.7926,-137.2123 217.9245,-130.0686"/>
<polygon fill="#000000" stroke="#000000" stroke-width=".5" points="218.39,-131.7619 222.9822,-129.1211 217.7454,-128.3217 218.39,-131.7619"/>
</g>
<!-- ForwardEuler_H -->
<g id="node24" class="node">
<title>ForwardEuler_H</title>
<g id="a_node24"><a xlink:href="../api/proteus.TimeIntegration.html#proteus.TimeIntegration.ForwardEuler_H" xlink:title="ForwardEuler_H" target="_top">
<polygon fill="none" stroke="#000000" stroke-width=".5" points="315.5,-93 222.5,-93 222.5,-74 315.5,-74 315.5,-93"/>
<text text-anchor="middle" x="269" y="-81" font-family="Vera Sans, DejaVu Sans, Liberation Sans, Arial, Helvetica, sans" font-size="10.00" fill="#000000">ForwardEuler_H</text>
</a>
</g>
</g>
<!-- TI_base&#45;&gt;ForwardEuler_H -->
<g id="edge19" class="edge">
<title>TI_base&#45;&gt;ForwardEuler_H</title>
<path fill="none" stroke="#000000" stroke-width=".5" d="M86.5444,-147.905C106.7859,-135.4146 144.2673,-113.7403 179,-101.5 191.0733,-97.2452 204.4321,-93.8882 217.0807,-91.2846"/>
<polygon fill="#000000" stroke="#000000" stroke-width=".5" points="217.515,-92.9825 222.0755,-90.2872 216.8296,-89.5502 217.515,-92.9825"/>
</g>
<!-- OuterTheta -->
<g id="node28" class="node">
<title>OuterTheta</title>
<g id="a_node28"><a xlink:href="../api/proteus.TimeIntegration.html#proteus.TimeIntegration.OuterTheta" xlink:title="OuterTheta" target="_top">
<polygon fill="none" stroke="#000000" stroke-width=".5" points="304.5,-56 233.5,-56 233.5,-37 304.5,-37 304.5,-56"/>
<text text-anchor="middle" x="269" y="-44" font-family="Vera Sans, DejaVu Sans, Liberation Sans, Arial, Helvetica, sans" font-size="10.00" fill="#000000">OuterTheta</text>
</a>
</g>
</g>
<!-- TI_base&#45;&gt;OuterTheta -->
<g id="edge22" class="edge">
<title>TI_base&#45;&gt;OuterTheta</title>
<path fill="none" stroke="#000000" stroke-width=".5" d="M79.5403,-147.7798C96.0299,-128.5445 135.7802,-85.6608 179,-64.5 194.1721,-57.0716 212.2128,-52.7088 228.1442,-50.1465"/>
<polygon fill="#000000" stroke="#000000" stroke-width=".5" points="228.776,-51.821 233.459,-49.3447 228.2538,-48.3602 228.776,-51.821"/>
</g>
<!-- VBDF -->
<g id="node35" class="node">
<title>VBDF</title>
<g id="a_node35"><a xlink:href="../api/proteus.TimeIntegration.html#proteus.TimeIntegration.VBDF" xlink:title="Variable coefficient bdf&#39;s just first and second order" target="_top">
<polygon fill="none" stroke="#000000" stroke-width=".5" points="296,-19 242,-19 242,0 296,0 296,-19"/>
<text text-anchor="middle" x="269" y="-7" font-family="Vera Sans, DejaVu Sans, Liberation Sans, Arial, Helvetica, sans" font-size="10.00" fill="#000000">VBDF</text>
</a>
</g>
</g>
<!-- TI_base&#45;&gt;VBDF -->
<g id="edge29" class="edge">
<title>TI_base&#45;&gt;VBDF</title>
<path fill="none" stroke="#000000" stroke-width=".5" d="M76.4633,-147.7441C89.5314,-123.133 127.4632,-58.2964 179,-27.5 196.2305,-17.2037 218.2954,-12.682 236.2652,-10.745"/>
<polygon fill="#000000" stroke="#000000" stroke-width=".5" points="236.8907,-12.4431 241.7006,-10.2233 236.5563,-8.9591 236.8907,-12.4431"/>
</g>
<!-- PsiTCtte -->
<g id="node29" class="node">
<title>PsiTCtte</title>
<g id="a_node29"><a xlink:href="../api/proteus.TimeIntegration.html#proteus.TimeIntegration.PsiTCtte" xlink:title="PsiTCtte" target="_top">
<polygon fill="none" stroke="#000000" stroke-width=".5" points="729,-370 673,-370 673,-351 729,-351 729,-370"/>
<text text-anchor="middle" x="701" y="-358" font-family="Vera Sans, DejaVu Sans, Liberation Sans, Arial, Helvetica, sans" font-size="10.00" fill="#000000">PsiTCtte</text>
</a>
</g>
</g>
<!-- BackwardEuler_cfl&#45;&gt;PsiTCtte -->
<g id="edge23" class="edge">
<title>BackwardEuler_cfl&#45;&gt;PsiTCtte</title>
<path fill="none" stroke="#000000" stroke-width=".5" d="M548.0501,-347.1354C585.8449,-350.4379 635.4788,-354.7748 667.7983,-357.5989"/>
<polygon fill="#000000" stroke="#000000" stroke-width=".5" points="667.6989,-359.3468 672.8322,-358.0387 668.0036,-355.8601 667.6989,-359.3468"/>
</g>
<!-- SSP -->
<g id="node31" class="node">
<title>SSP</title>
<g id="a_node31"><a xlink:href="../api/proteus.TimeIntegration.html#proteus.TimeIntegration.SSP" xlink:title="SSP" target="_top">
<polygon fill="none" stroke="#000000" stroke-width=".5" points="728,-333 674,-333 674,-314 728,-314 728,-333"/>
<text text-anchor="middle" x="701" y="-321" font-family="Vera Sans, DejaVu Sans, Liberation Sans, Arial, Helvetica, sans" font-size="10.00" fill="#000000">SSP</text>
</a>
</g>
</g>
<!-- BackwardEuler_cfl&#45;&gt;SSP -->
<g id="edge25" class="edge">
<title>BackwardEuler_cfl&#45;&gt;SSP</title>
<path fill="none" stroke="#000000" stroke-width=".5" d="M548.0501,-337.607C586.2975,-334.0794 636.6694,-329.4334 668.952,-326.4559"/>
<polygon fill="#000000" stroke="#000000" stroke-width=".5" points="669.1551,-328.1947 673.9732,-325.9928 668.8336,-324.7095 669.1551,-328.1947"/>
</g>
<!-- CockburnNotesLimiter2d_base -->
<g id="node5" class="node">
<title>CockburnNotesLimiter2d_base</title>
<g id="a_node5"><a xlink:href="../api/proteus.TimeIntegration.html#proteus.TimeIntegration.CockburnNotesLimiter2d_base" xlink:title="CockburnNotesLimiter2d_base" target="_top">
<polygon fill="none" stroke="#000000" stroke-width=".5" points="352,-454 186,-454 186,-435 352,-435 352,-454"/>
<text text-anchor="middle" x="269" y="-442" font-family="Vera Sans, DejaVu Sans, Liberation Sans, Arial, Helvetica, sans" font-size="10.00" fill="#000000">CockburnNotesLimiter2d_base</text>
</a>
</g>
</g>
<!-- DGlimiterP1Lagrange2d -->
<g id="node12" class="node">
<title>DGlimiterP1Lagrange2d</title>
<g id="a_node12"><a xlink:href="../api/proteus.TimeIntegration.html#proteus.TimeIntegration.DGlimiterP1Lagrange2d" xlink:title="apply standard, Cockburn RKDG limiter in 2d (maybe)" target="_top">
<polygon fill="none" stroke="#000000" stroke-width=".5" points="561.5,-500 428.5,-500 428.5,-481 561.5,-481 561.5,-500"/>
<text text-anchor="middle" x="495" y="-488" font-family="Vera Sans, DejaVu Sans, Liberation Sans, Arial, Helvetica, sans" font-size="10.00" fill="#000000">DGlimiterP1Lagrange2d</text>
</a>
</g>
</g>
<!-- CockburnNotesLimiter2d_base&#45;&gt;DGlimiterP1Lagrange2d -->
<g id="edge9" class="edge">
<title>CockburnNotesLimiter2d_base&#45;&gt;DGlimiterP1Lagrange2d</title>
<path fill="none" stroke="#000000" stroke-width=".5" d="M319.0747,-454.0753C332.0997,-456.6863 346.0966,-459.5985 359,-462.5 375.0906,-466.1182 378.8921,-467.9593 395,-471.5 408.4504,-474.4565 422.9786,-477.3738 436.6819,-480.0016"/>
<polygon fill="#000000" stroke="#000000" stroke-width=".5" points="436.4504,-481.7389 441.6897,-480.9562 437.1058,-478.3008 436.4504,-481.7389"/>
</g>
<!-- DGlimiterP2Lagrange2d -->
<g id="node15" class="node">
<title>DGlimiterP2Lagrange2d</title>
<g id="a_node15"><a xlink:href="../api/proteus.TimeIntegration.html#proteus.TimeIntegration.DGlimiterP2Lagrange2d" xlink:title="canonical (I hope) 2d DG limiting procedure when original" target="_top">
<polygon fill="none" stroke="#000000" stroke-width=".5" points="561.5,-463 428.5,-463 428.5,-444 561.5,-444 561.5,-463"/>
<text text-anchor="middle" x="495" y="-451" font-family="Vera Sans, DejaVu Sans, Liberation Sans, Arial, Helvetica, sans" font-size="10.00" fill="#000000">DGlimiterP2Lagrange2d</text>
</a>
</g>
</g>
<!-- CockburnNotesLimiter2d_base&#45;&gt;DGlimiterP2Lagrange2d -->
<g id="edge11" class="edge">
<title>CockburnNotesLimiter2d_base&#45;&gt;DGlimiterP2Lagrange2d</title>
<path fill="none" stroke="#000000" stroke-width=".5" d="M352.1912,-447.8129C375.4762,-448.7402 400.5798,-449.7399 423.1475,-450.6386"/>
<polygon fill="#000000" stroke="#000000" stroke-width=".5" points="423.1568,-452.3903 428.2225,-450.8407 423.2961,-448.8931 423.1568,-452.3903"/>
</g>
<!-- DGlimiterPkMonomial2d -->
<g id="node18" class="node">
<title>DGlimiterPkMonomial2d</title>
<g id="a_node18"><a xlink:href="../api/proteus.TimeIntegration.html#proteus.TimeIntegration.DGlimiterPkMonomial2d" xlink:title="canonical (I hope) 2d DG limiting procedure when original" target="_top">
<polygon fill="none" stroke="#000000" stroke-width=".5" points="563,-426 427,-426 427,-407 563,-407 563,-426"/>
<text text-anchor="middle" x="495" y="-414" font-family="Vera Sans, DejaVu Sans, Liberation Sans, Arial, Helvetica, sans" font-size="10.00" fill="#000000">DGlimiterPkMonomial2d</text>
</a>
</g>
</g>
<!-- CockburnNotesLimiter2d_base&#45;&gt;DGlimiterPkMonomial2d -->
<g id="edge13" class="edge">
<title>CockburnNotesLimiter2d_base&#45;&gt;DGlimiterPkMonomial2d</title>
<path fill="none" stroke="#000000" stroke-width=".5" d="M345.8286,-434.9814C370.3193,-431.9472 397.3441,-428.599 421.5864,-425.5955"/>
<polygon fill="#000000" stroke="#000000" stroke-width=".5" points="421.9685,-427.3116 426.7153,-424.96 421.5381,-423.8382 421.9685,-427.3116"/>
</g>
<!-- UnstructuredLimiter_base -->
<g id="node6" class="node">
<title>UnstructuredLimiter_base</title>
<g id="a_node6"><a xlink:href="../api/proteus.TimeIntegration.html#proteus.TimeIntegration.UnstructuredLimiter_base" xlink:title="UnstructuredLimiter_base" target="_top">
<polygon fill="none" stroke="#000000" stroke-width=".5" points="143,-399 0,-399 0,-380 143,-380 143,-399"/>
<text text-anchor="middle" x="71.5" y="-387" font-family="Vera Sans, DejaVu Sans, Liberation Sans, Arial, Helvetica, sans" font-size="10.00" fill="#000000">UnstructuredLimiter_base</text>
</a>
</g>
</g>
<!-- UnstructuredLimiter_base&#45;&gt;CockburnNotesLimiter2d_base -->
<g id="edge4" class="edge">
<title>UnstructuredLimiter_base&#45;&gt;CockburnNotesLimiter2d_base</title>
<path fill="none" stroke="#000000" stroke-width=".5" d="M105.9019,-399.0803C140.3471,-408.6726 193.2936,-423.4172 229.4527,-433.4868"/>
<polygon fill="#000000" stroke="#000000" stroke-width=".5" points="229.3754,-435.2818 234.6616,-434.9374 230.3144,-431.9101 229.3754,-435.2818"/>
</g>
<!-- DGlimiterDurlofskyP1Lagrange2d -->
<g id="node7" class="node">
<title>DGlimiterDurlofskyP1Lagrange2d</title>
<g id="a_node7"><a xlink:href="../api/proteus.TimeIntegration.html#proteus.TimeIntegration.DGlimiterDurlofskyP1Lagrange2d" xlink:title="DGlimiterDurlofskyP1Lagrange2d" target="_top">
<polygon fill="none" stroke="#000000" stroke-width=".5" points="359,-399 179,-399 179,-380 359,-380 359,-399"/>
<text text-anchor="middle" x="269" y="-387" font-family="Vera Sans, DejaVu Sans, Liberation Sans, Arial, Helvetica, sans" font-size="10.00" fill="#000000">DGlimiterDurlofskyP1Lagrange2d</text>
</a>
</g>
</g>
<!-- UnstructuredLimiter_base&#45;&gt;DGlimiterDurlofskyP1Lagrange2d -->
<g id="edge5" class="edge">
<title>UnstructuredLimiter_base&#45;&gt;DGlimiterDurlofskyP1Lagrange2d</title>
<path fill="none" stroke="#000000" stroke-width=".5" d="M143.0813,-389.5C153.0425,-389.5 163.4037,-389.5 173.7144,-389.5"/>
<polygon fill="#000000" stroke="#000000" stroke-width=".5" points="173.7701,-391.2501 178.77,-389.5 173.77,-387.7501 173.7701,-391.2501"/>
</g>
<!-- DGlimiterDurlofskyP1Lagrange3d -->
<g id="node9" class="node">
<title>DGlimiterDurlofskyP1Lagrange3d</title>
<g id="a_node9"><a xlink:href="../api/proteus.TimeIntegration.html#proteus.TimeIntegration.DGlimiterDurlofskyP1Lagrange3d" xlink:title="DGlimiterDurlofskyP1Lagrange3d" target="_top">
<polygon fill="none" stroke="#000000" stroke-width=".5" points="359,-362 179,-362 179,-343 359,-343 359,-362"/>
<text text-anchor="middle" x="269" y="-350" font-family="Vera Sans, DejaVu Sans, Liberation Sans, Arial, Helvetica, sans" font-size="10.00" fill="#000000">DGlimiterDurlofskyP1Lagrange3d</text>
</a>
</g>
</g>
<!-- UnstructuredLimiter_base&#45;&gt;DGlimiterDurlofskyP1Lagrange3d -->
<g id="edge7" class="edge">
<title>UnstructuredLimiter_base&#45;&gt;DGlimiterDurlofskyP1Lagrange3d</title>
<path fill="none" stroke="#000000" stroke-width=".5" d="M122.3612,-379.9716C150.0133,-374.7912 184.2757,-368.3724 212.7265,-363.0424"/>
<polygon fill="#000000" stroke="#000000" stroke-width=".5" points="213.3761,-364.7012 217.9683,-362.0604 212.7316,-361.2611 213.3761,-364.7012"/>
</g>
<!-- DGlimiterDurlofskyP1Lagrange2d_Sw -->
<g id="node8" class="node">
<title>DGlimiterDurlofskyP1Lagrange2d_Sw</title>
<g id="a_node8"><a xlink:href="../api/proteus.TimeIntegration.html#proteus.TimeIntegration.DGlimiterDurlofskyP1Lagrange2d_Sw" xlink:title="DGlimiterDurlofskyP1Lagrange2d_Sw" target="_top">
<polygon fill="none" stroke="#000000" stroke-width=".5" points="595,-389 395,-389 395,-370 595,-370 595,-389"/>
<text text-anchor="middle" x="495" y="-377" font-family="Vera Sans, DejaVu Sans, Liberation Sans, Arial, Helvetica, sans" font-size="10.00" fill="#000000">DGlimiterDurlofskyP1Lagrange2d_Sw</text>
</a>
</g>
</g>
<!-- DGlimiterDurlofskyP1Lagrange2d&#45;&gt;DGlimiterDurlofskyP1Lagrange2d_Sw -->
<g id="edge6" class="edge">
<title>DGlimiterDurlofskyP1Lagrange2d&#45;&gt;DGlimiterDurlofskyP1Lagrange2d_Sw</title>
<path fill="none" stroke="#000000" stroke-width=".5" d="M359.2955,-385.5046C369.3331,-385.0605 379.6201,-384.6053 389.8216,-384.1539"/>
<polygon fill="#000000" stroke="#000000" stroke-width=".5" points="389.9035,-385.9021 394.8212,-383.9327 389.7487,-382.4055 389.9035,-385.9021"/>
</g>
<!-- DGlimiterP1Lagrange1d -->
<g id="node10" class="node">
<title>DGlimiterP1Lagrange1d</title>
<g id="a_node10"><a xlink:href="../api/proteus.TimeIntegration.html#proteus.TimeIntegration.DGlimiterP1Lagrange1d" xlink:title="canonical (I hope) 1d DG limiting procedure when original" target="_top">
<polygon fill="none" stroke="#000000" stroke-width=".5" points="138,-491 5,-491 5,-472 138,-472 138,-491"/>
<text text-anchor="middle" x="71.5" y="-479" font-family="Vera Sans, DejaVu Sans, Liberation Sans, Arial, Helvetica, sans" font-size="10.00" fill="#000000">DGlimiterP1Lagrange1d</text>
</a>
</g>
</g>
<!-- DGlimiterP1Lagrange1d_Sw -->
<g id="node11" class="node">
<title>DGlimiterP1Lagrange1d_Sw</title>
<g id="a_node11"><a xlink:href="../api/proteus.TimeIntegration.html#proteus.TimeIntegration.DGlimiterP1Lagrange1d_Sw" xlink:title="DGP1 version of limiting that applies minmod limiting for h &lt; h_eps" target="_top">
<polygon fill="none" stroke="#000000" stroke-width=".5" points="345,-491 193,-491 193,-472 345,-472 345,-491"/>
<text text-anchor="middle" x="269" y="-479" font-family="Vera Sans, DejaVu Sans, Liberation Sans, Arial, Helvetica, sans" font-size="10.00" fill="#000000">DGlimiterP1Lagrange1d_Sw</text>
</a>
</g>
</g>
<!-- DGlimiterP1Lagrange1d&#45;&gt;DGlimiterP1Lagrange1d_Sw -->
<g id="edge8" class="edge">
<title>DGlimiterP1Lagrange1d&#45;&gt;DGlimiterP1Lagrange1d_Sw</title>
<path fill="none" stroke="#000000" stroke-width=".5" d="M138.0892,-481.5C154.0225,-481.5 171.2099,-481.5 187.7238,-481.5"/>
<polygon fill="#000000" stroke="#000000" stroke-width=".5" points="187.8251,-483.2501 192.8251,-481.5 187.8251,-479.7501 187.8251,-483.2501"/>
</g>
<!-- DGlimiterP2Lagrange1d -->
<g id="node13" class="node">
<title>DGlimiterP2Lagrange1d</title>
<g id="a_node13"><a xlink:href="../api/proteus.TimeIntegration.html#proteus.TimeIntegration.DGlimiterP2Lagrange1d" xlink:title="canonical (I hope) 1d DG limiting procedure when original" target="_top">
<polygon fill="none" stroke="#000000" stroke-width=".5" points="138,-528 5,-528 5,-509 138,-509 138,-528"/>
<text text-anchor="middle" x="71.5" y="-516" font-family="Vera Sans, DejaVu Sans, Liberation Sans, Arial, Helvetica, sans" font-size="10.00" fill="#000000">DGlimiterP2Lagrange1d</text>
</a>
</g>
</g>
<!-- DGlimiterP2Lagrange1d_Sw -->
<g id="node14" class="node">
<title>DGlimiterP2Lagrange1d_Sw</title>
<g id="a_node14"><a xlink:href="../api/proteus.TimeIntegration.html#proteus.TimeIntegration.DGlimiterP2Lagrange1d_Sw" xlink:title="DGP1 version of limiting that applies minmod limiting for h &lt; h_eps" target="_top">
<polygon fill="none" stroke="#000000" stroke-width=".5" points="345,-528 193,-528 193,-509 345,-509 345,-528"/>
<text text-anchor="middle" x="269" y="-516" font-family="Vera Sans, DejaVu Sans, Liberation Sans, Arial, Helvetica, sans" font-size="10.00" fill="#000000">DGlimiterP2Lagrange1d_Sw</text>
</a>
</g>
</g>
<!-- DGlimiterP2Lagrange1d&#45;&gt;DGlimiterP2Lagrange1d_Sw -->
<g id="edge10" class="edge">
<title>DGlimiterP2Lagrange1d&#45;&gt;DGlimiterP2Lagrange1d_Sw</title>
<path fill="none" stroke="#000000" stroke-width=".5" d="M138.0892,-518.5C154.0225,-518.5 171.2099,-518.5 187.7238,-518.5"/>
<polygon fill="#000000" stroke="#000000" stroke-width=".5" points="187.8251,-520.2501 192.8251,-518.5 187.8251,-516.7501 187.8251,-520.2501"/>
</g>
<!-- DGlimiterPkMonomial1d -->
<g id="node16" class="node">
<title>DGlimiterPkMonomial1d</title>
<g id="a_node16"><a xlink:href="../api/proteus.TimeIntegration.html#proteus.TimeIntegration.DGlimiterPkMonomial1d" xlink:title="canonical (I hope) 1d DG limiting procedure when original" target="_top">
<polygon fill="none" stroke="#000000" stroke-width=".5" points="139.5,-565 3.5,-565 3.5,-546 139.5,-546 139.5,-565"/>
<text text-anchor="middle" x="71.5" y="-553" font-family="Vera Sans, DejaVu Sans, Liberation Sans, Arial, Helvetica, sans" font-size="10.00" fill="#000000">DGlimiterPkMonomial1d</text>
</a>
</g>
</g>
<!-- DGlimiterPkMonomial1d_Sw -->
<g id="node17" class="node">
<title>DGlimiterPkMonomial1d_Sw</title>
<g id="a_node17"><a xlink:href="../api/proteus.TimeIntegration.html#proteus.TimeIntegration.DGlimiterPkMonomial1d_Sw" xlink:title="DGPk version of limiting that applies minmod limiting for h &lt; h_eps" target="_top">
<polygon fill="none" stroke="#000000" stroke-width=".5" points="346.5,-565 191.5,-565 191.5,-546 346.5,-546 346.5,-565"/>
<text text-anchor="middle" x="269" y="-553" font-family="Vera Sans, DejaVu Sans, Liberation Sans, Arial, Helvetica, sans" font-size="10.00" fill="#000000">DGlimiterPkMonomial1d_Sw</text>
</a>
</g>
</g>
<!-- DGlimiterPkMonomial1d&#45;&gt;DGlimiterPkMonomial1d_Sw -->
<g id="edge12" class="edge">
<title>DGlimiterPkMonomial1d&#45;&gt;DGlimiterPkMonomial1d_Sw</title>
<path fill="none" stroke="#000000" stroke-width=".5" d="M139.7448,-555.5C154.6707,-555.5 170.6275,-555.5 186.0559,-555.5"/>
<polygon fill="#000000" stroke="#000000" stroke-width=".5" points="186.2656,-557.2501 191.2656,-555.5 186.2655,-553.7501 186.2656,-557.2501"/>
</g>
<!-- LinearSSPRKintegration -->
<g id="node27" class="node">
<title>LinearSSPRKintegration</title>
<g id="a_node27"><a xlink:href="../api/proteus.TimeIntegration.html#proteus.TimeIntegration.LinearSSPRKintegration" xlink:title="implementation of Explicit RK schemes for ODE that are SSP for" target="_top">
<polygon fill="none" stroke="#000000" stroke-width=".5" points="560.5,-278 429.5,-278 429.5,-259 560.5,-259 560.5,-278"/>
<text text-anchor="middle" x="495" y="-266" font-family="Vera Sans, DejaVu Sans, Liberation Sans, Arial, Helvetica, sans" font-size="10.00" fill="#000000">LinearSSPRKintegration</text>
</a>
</g>
</g>
<!-- ExplicitRK_base&#45;&gt;LinearSSPRKintegration -->
<g id="edge21" class="edge">
<title>ExplicitRK_base&#45;&gt;LinearSSPRKintegration</title>
<path fill="none" stroke="#000000" stroke-width=".5" d="M316.6526,-239.3015C349.9796,-244.7577 394.8608,-252.1055 431.2619,-258.065"/>
<polygon fill="#000000" stroke="#000000" stroke-width=".5" points="431.3516,-259.8529 436.5687,-258.9338 431.9171,-256.3989 431.3516,-259.8529"/>
</g>
<!-- SSPRKPIintegration -->
<g id="node32" class="node">
<title>SSPRKPIintegration</title>
<g id="a_node32"><a xlink:href="../api/proteus.TimeIntegration.html#proteus.TimeIntegration.SSPRKPIintegration" xlink:title="So called SSP RK integration with limiting step at end of each" target="_top">
<polygon fill="none" stroke="#000000" stroke-width=".5" points="550,-241 440,-241 440,-222 550,-222 550,-241"/>
<text text-anchor="middle" x="495" y="-229" font-family="Vera Sans, DejaVu Sans, Liberation Sans, Arial, Helvetica, sans" font-size="10.00" fill="#000000">SSPRKPIintegration</text>
</a>
</g>
</g>
<!-- ExplicitRK_base&#45;&gt;SSPRKPIintegration -->
<g id="edge26" class="edge">
<title>ExplicitRK_base&#45;&gt;SSPRKPIintegration</title>
<path fill="none" stroke="#000000" stroke-width=".5" d="M316.6526,-231.5C350.967,-231.5 397.5306,-231.5 434.4747,-231.5"/>
<polygon fill="#000000" stroke="#000000" stroke-width=".5" points="434.8531,-233.2501 439.8531,-231.5 434.8531,-229.7501 434.8531,-233.2501"/>
</g>
<!-- FLCBDF_TwophaseDarcy_fc -->
<g id="node21" class="node">
<title>FLCBDF_TwophaseDarcy_fc</title>
<g id="a_node21"><a xlink:href="../api/proteus.TimeIntegration.html#proteus.TimeIntegration.FLCBDF_TwophaseDarcy_fc" xlink:title="FLCBDF_TwophaseDarcy_fc" target="_top">
<polygon fill="none" stroke="#000000" stroke-width=".5" points="569.5,-204 420.5,-204 420.5,-185 569.5,-185 569.5,-204"/>
<text text-anchor="middle" x="495" y="-192" font-family="Vera Sans, DejaVu Sans, Liberation Sans, Arial, Helvetica, sans" font-size="10.00" fill="#000000">FLCBDF_TwophaseDarcy_fc</text>
</a>
</g>
</g>
<!-- FLCBDF&#45;&gt;FLCBDF_TwophaseDarcy_fc -->
<g id="edge16" class="edge">
<title>FLCBDF&#45;&gt;FLCBDF_TwophaseDarcy_fc</title>
<path fill="none" stroke="#000000" stroke-width=".5" d="M296.2609,-194.5C325.5927,-194.5 373.6219,-194.5 415.1163,-194.5"/>
<polygon fill="#000000" stroke="#000000" stroke-width=".5" points="415.1426,-196.2501 420.1425,-194.5 415.1425,-192.7501 415.1426,-196.2501"/>
</g>
<!-- ForwardIntegrator -->
<g id="node25" class="node">
<title>ForwardIntegrator</title>
<g id="a_node25"><a xlink:href="../api/proteus.TimeIntegration.html#proteus.TimeIntegration.ForwardIntegrator" xlink:title="class that is responsible for basic process of integrating a problem" target="_top">
<polygon fill="none" stroke="#000000" stroke-width=".5" points="123.5,-620 19.5,-620 19.5,-601 123.5,-601 123.5,-620"/>
<text text-anchor="middle" x="71.5" y="-608" font-family="Vera Sans, DejaVu Sans, Liberation Sans, Arial, Helvetica, sans" font-size="10.00" fill="#000000">ForwardIntegrator</text>
</a>
</g>
</g>
<!-- SignedDistanceIntegrator -->
<g id="node33" class="node">
<title>SignedDistanceIntegrator</title>
<g id="a_node33"><a xlink:href="../api/proteus.TimeIntegration.html#proteus.TimeIntegration.SignedDistanceIntegrator" xlink:title="apply some form of pseudo&#45;transient continuation or direct solve to" target="_top">
<polygon fill="none" stroke="#000000" stroke-width=".5" points="339,-639 199,-639 199,-620 339,-620 339,-639"/>
<text text-anchor="middle" x="269" y="-627" font-family="Vera Sans, DejaVu Sans, Liberation Sans, Arial, Helvetica, sans" font-size="10.00" fill="#000000">SignedDistanceIntegrator</text>
</a>
</g>
</g>
<!-- ForwardIntegrator&#45;&gt;SignedDistanceIntegrator -->
<g id="edge27" class="edge">
<title>ForwardIntegrator&#45;&gt;SignedDistanceIntegrator</title>
<path fill="none" stroke="#000000" stroke-width=".5" d="M123.6491,-615.5169C145.0051,-617.5714 170.134,-619.9888 193.437,-622.2306"/>
<polygon fill="#000000" stroke="#000000" stroke-width=".5" points="193.5459,-623.9991 198.6905,-622.736 193.8811,-620.5152 193.5459,-623.9991"/>
</g>
<!-- SteadyStateIntegrator -->
<g id="node34" class="node">
<title>SteadyStateIntegrator</title>
<g id="a_node34"><a xlink:href="../api/proteus.TimeIntegration.html#proteus.TimeIntegration.SteadyStateIntegrator" xlink:title="apply some form of pseudo&#45;transient continuation or direct solve to" target="_top">
<polygon fill="none" stroke="#000000" stroke-width=".5" points="331,-602 207,-602 207,-583 331,-583 331,-602"/>
<text text-anchor="middle" x="269" y="-590" font-family="Vera Sans, DejaVu Sans, Liberation Sans, Arial, Helvetica, sans" font-size="10.00" fill="#000000">SteadyStateIntegrator</text>
</a>
</g>
</g>
<!-- ForwardIntegrator&#45;&gt;SteadyStateIntegrator -->
<g id="edge28" class="edge">
<title>ForwardIntegrator&#45;&gt;SteadyStateIntegrator</title>
<path fill="none" stroke="#000000" stroke-width=".5" d="M123.6491,-605.7472C147.5417,-603.5696 176.1566,-600.9617 201.6538,-598.6379"/>
<polygon fill="#000000" stroke="#000000" stroke-width=".5" points="201.8889,-600.3738 206.7094,-598.1771 201.5712,-596.8882 201.8889,-600.3738"/>
</g>
<!-- LinearSSPRKPIintegration -->
<g id="node26" class="node">
<title>LinearSSPRKPIintegration</title>
<g id="a_node26"><a xlink:href="../api/proteus.TimeIntegration.html#proteus.TimeIntegration.LinearSSPRKPIintegration" xlink:title="Linear SSP RK integration with limiting step at end of each phase, this one" target="_top">
<polygon fill="none" stroke="#000000" stroke-width=".5" points="771,-278 631,-278 631,-259 771,-259 771,-278"/>
<text text-anchor="middle" x="701" y="-266" font-family="Vera Sans, DejaVu Sans, Liberation Sans, Arial, Helvetica, sans" font-size="10.00" fill="#000000">LinearSSPRKPIintegration</text>
</a>
</g>
</g>
<!-- LinearSSPRKintegration&#45;&gt;LinearSSPRKPIintegration -->
<g id="edge20" class="edge">
<title>LinearSSPRKintegration&#45;&gt;LinearSSPRKPIintegration</title>
<path fill="none" stroke="#000000" stroke-width=".5" d="M560.7461,-268.5C581.4579,-268.5 604.4924,-268.5 625.8091,-268.5"/>
<polygon fill="#000000" stroke="#000000" stroke-width=".5" points="625.9007,-270.2501 630.9007,-268.5 625.9007,-266.7501 625.9007,-270.2501"/>
</g>
</g>
</svg>
