<?xml version="1.0" encoding="UTF-8" standalone="no"?>
<!DOCTYPE svg PUBLIC "-//W3C//DTD SVG 1.1//EN"
 "http://www.w3.org/Graphics/SVG/1.1/DTD/svg11.dtd">
<!-- Generated by graphviz version 2.38.0 (20140413.2041)
 -->
<!-- Title: inheritance22b3c436e6 Pages: 1 -->
<svg width="576pt" height="129pt"
 viewBox="0.00 0.00 576.00 128.82" xmlns="http://www.w3.org/2000/svg" xmlns:xlink="http://www.w3.org/1999/xlink">
<g id="graph0" class="graph" transform="scale(0.296144 0.296144) rotate(0) translate(4 431)">
<title>inheritance22b3c436e6</title>
<polygon fill="white" stroke="none" points="-4,4 -4,-431 1941,-431 1941,4 -4,4"/>
<!-- BlockHeterogeneousCoefficients -->
<g id="node1" class="node"><title>BlockHeterogeneousCoefficients</title>
<g id="a_node1"><a xlink:href="../api/proteus.SubsurfaceTransportCoefficients.html#proteus.SubsurfaceTransportCoefficients.BlockHeterogeneousCoefficients" xlink:title="Basic data structures and functionality for keeping track of a" target="_top">
<polygon fill="none" stroke="black" stroke-width="0.5" points="172,-261 0,-261 0,-242 172,-242 172,-261"/>
<text text-anchor="middle" x="86" y="-249" font-family="Vera Sans, DejaVu Sans, Liberation Sans, Arial, Helvetica, sans" font-size="10.00">BlockHeterogeneousCoefficients</text>
</a>
</g>
</g>
<!-- CompressibleFractionalFlowPressureMualemVanGenuchten -->
<g id="node2" class="node"><title>CompressibleFractionalFlowPressureMualemVanGenuchten</title>
<g id="a_node2"><a xlink:href="../api/proteus.SubsurfaceTransportCoefficients.html#proteus.SubsurfaceTransportCoefficients.CompressibleFractionalFlowPressureMualemVanGenuchten" xlink:title="Total flow equation coefficients for slight compressible flow" target="_top">
<polygon fill="none" stroke="black" stroke-width="0.5" points="1483.5,-278 1184.5,-278 1184.5,-259 1483.5,-259 1483.5,-278"/>
<text text-anchor="middle" x="1334" y="-266" font-family="Vera Sans, DejaVu Sans, Liberation Sans, Arial, Helvetica, sans" font-size="10.00">CompressibleFractionalFlowPressureMualemVanGenuchten</text>
</a>
</g>
</g>
<!-- TwophaseDarcy_compressible_split_pressure -->
<g id="node3" class="node"><title>TwophaseDarcy_compressible_split_pressure</title>
<g id="a_node3"><a xlink:href="../api/proteus.SubsurfaceTransportCoefficients.html#proteus.SubsurfaceTransportCoefficients.TwophaseDarcy_compressible_split_pressure" xlink:title="Total flow conservation equation in a split compressible" target="_top">
<polygon fill="none" stroke="black" stroke-width="0.5" points="1080,-241 849,-241 849,-222 1080,-222 1080,-241"/>
<text text-anchor="middle" x="964.5" y="-229" font-family="Vera Sans, DejaVu Sans, Liberation Sans, Arial, Helvetica, sans" font-size="10.00">TwophaseDarcy_compressible_split_pressure</text>
</a>
</g>
</g>
<!-- TwophaseDarcy_compressible_split_pressure&#45;&gt;CompressibleFractionalFlowPressureMualemVanGenuchten -->
<g id="edge1" class="edge"><title>TwophaseDarcy_compressible_split_pressure&#45;&gt;CompressibleFractionalFlowPressureMualemVanGenuchten</title>
<path fill="none" stroke="black" stroke-width="0.5" d="M1053.46,-241.012C1079.69,-243.802 1108.5,-246.822 1135,-249.5 1164.72,-252.504 1196.96,-255.647 1226.62,-258.492"/>
<polygon fill="black" stroke="black" stroke-width="0.5" points="1226.6,-260.248 1231.74,-258.983 1226.93,-256.764 1226.6,-260.248"/>
</g>
<!-- CompressibleFractionalFlowSaturationMualemVanGenuchten -->
<g id="node4" class="node"><title>CompressibleFractionalFlowSaturationMualemVanGenuchten</title>
<g id="a_node4"><a xlink:href="../api/proteus.SubsurfaceTransportCoefficients.html#proteus.SubsurfaceTransportCoefficients.CompressibleFractionalFlowSaturationMualemVanGenuchten" xlink:title="Saturation equation coefficients for slightly compressible flow" target="_top">
<polygon fill="none" stroke="black" stroke-width="0.5" points="1487.5,-167 1180.5,-167 1180.5,-148 1487.5,-148 1487.5,-167"/>
<text text-anchor="middle" x="1334" y="-155" font-family="Vera Sans, DejaVu Sans, Liberation Sans, Arial, Helvetica, sans" font-size="10.00">CompressibleFractionalFlowSaturationMualemVanGenuchten</text>
</a>
</g>
</g>
<!-- TwophaseDarcy_compressible_split_saturation -->
<g id="node5" class="node"><title>TwophaseDarcy_compressible_split_saturation</title>
<g id="a_node5"><a xlink:href="../api/proteus.SubsurfaceTransportCoefficients.html#proteus.SubsurfaceTransportCoefficients.TwophaseDarcy_compressible_split_saturation" xlink:title="Aqueous phase mass conservation equation (saturation equation) in a" target="_top">
<polygon fill="none" stroke="black" stroke-width="0.5" points="1083.5,-167 845.5,-167 845.5,-148 1083.5,-148 1083.5,-167"/>
<text text-anchor="middle" x="964.5" y="-155" font-family="Vera Sans, DejaVu Sans, Liberation Sans, Arial, Helvetica, sans" font-size="10.00">TwophaseDarcy_compressible_split_saturation</text>
</a>
</g>
</g>
<!-- TwophaseDarcy_compressible_split_saturation&#45;&gt;CompressibleFractionalFlowSaturationMualemVanGenuchten -->
<g id="edge2" class="edge"><title>TwophaseDarcy_compressible_split_saturation&#45;&gt;CompressibleFractionalFlowSaturationMualemVanGenuchten</title>
<path fill="none" stroke="black" stroke-width="0.5" d="M1083.55,-157.5C1112.72,-157.5 1144.42,-157.5 1175.15,-157.5"/>
<polygon fill="black" stroke="black" stroke-width="0.5" points="1175.47,-159.25 1180.47,-157.5 1175.47,-155.75 1175.47,-159.25"/>
</g>
<!-- ConservativeHeadRichardsMualemVanGenuchten -->
<g id="node6" class="node"><title>ConservativeHeadRichardsMualemVanGenuchten</title>
<g id="a_node6"><a xlink:href="../api/proteus.SubsurfaceTransportCoefficients.html#proteus.SubsurfaceTransportCoefficients.ConservativeHeadRichardsMualemVanGenuchten" xlink:title="version of Re where element material type id&#39;s used in evals" target="_top">
<polygon fill="none" stroke="black" stroke-width="0.5" points="462,-372 208,-372 208,-353 462,-353 462,-372"/>
<text text-anchor="middle" x="335" y="-360" font-family="Vera Sans, DejaVu Sans, Liberation Sans, Arial, Helvetica, sans" font-size="10.00">ConservativeHeadRichardsMualemVanGenuchten</text>
</a>
</g>
</g>
<!-- TC_base -->
<g id="node7" class="node"><title>TC_base</title>
<g id="a_node7"><a xlink:href="../proteus.TransportCoefficients.html#proteus.TransportCoefficients.TC_base" xlink:title="This is the base class for coefficients of the vector transport" target="_top">
<polygon fill="none" stroke="black" stroke-width="0.5" points="114,-298 58,-298 58,-279 114,-279 114,-298"/>
<text text-anchor="middle" x="86" y="-286" font-family="Vera Sans, DejaVu Sans, Liberation Sans, Arial, Helvetica, sans" font-size="10.00">TC_base</text>
</a>
</g>
</g>
<!-- TC_base&#45;&gt;ConservativeHeadRichardsMualemVanGenuchten -->
<g id="edge3" class="edge"><title>TC_base&#45;&gt;ConservativeHeadRichardsMualemVanGenuchten</title>
<path fill="none" stroke="black" stroke-width="0.5" d="M103.619,-298.102C126.393,-310.807 168.934,-332.941 208,-344.5 217.924,-347.436 228.434,-349.901 238.984,-351.968"/>
<polygon fill="black" stroke="black" stroke-width="0.5" points="238.925,-353.738 244.164,-352.951 239.578,-350.299 238.925,-353.738"/>
</g>
<!-- GroundwaterTransportCoefficients -->
<g id="node14" class="node"><title>GroundwaterTransportCoefficients</title>
<g id="a_node14"><a xlink:href="../api/proteus.SubsurfaceTransportCoefficients.html#proteus.SubsurfaceTransportCoefficients.GroundwaterTransportCoefficients" xlink:title="GroundwaterTransportCoefficients" target="_top">
<polygon fill="none" stroke="black" stroke-width="0.5" points="424,-335 246,-335 246,-316 424,-316 424,-335"/>
<text text-anchor="middle" x="335" y="-323" font-family="Vera Sans, DejaVu Sans, Liberation Sans, Arial, Helvetica, sans" font-size="10.00">GroundwaterTransportCoefficients</text>
</a>
</g>
</g>
<!-- TC_base&#45;&gt;GroundwaterTransportCoefficients -->
<g id="edge8" class="edge"><title>TC_base&#45;&gt;GroundwaterTransportCoefficients</title>
<path fill="none" stroke="black" stroke-width="0.5" d="M114.377,-292.601C150.504,-298.013 215.349,-307.726 265.246,-315.201"/>
<polygon fill="black" stroke="black" stroke-width="0.5" points="265.128,-316.953 270.332,-315.963 265.647,-313.491 265.128,-316.953"/>
</g>
<!-- MultiphaseGroundwaterTransportCoefficients -->
<g id="node22" class="node"><title>MultiphaseGroundwaterTransportCoefficients</title>
<g id="a_node22"><a xlink:href="../api/proteus.SubsurfaceTransportCoefficients.html#proteus.SubsurfaceTransportCoefficients.MultiphaseGroundwaterTransportCoefficients" xlink:title="MultiphaseGroundwaterTransportCoefficients" target="_top">
<polygon fill="none" stroke="black" stroke-width="0.5" points="450,-298 220,-298 220,-279 450,-279 450,-298"/>
<text text-anchor="middle" x="335" y="-286" font-family="Vera Sans, DejaVu Sans, Liberation Sans, Arial, Helvetica, sans" font-size="10.00">MultiphaseGroundwaterTransportCoefficients</text>
</a>
</g>
</g>
<!-- TC_base&#45;&gt;MultiphaseGroundwaterTransportCoefficients -->
<g id="edge14" class="edge"><title>TC_base&#45;&gt;MultiphaseGroundwaterTransportCoefficients</title>
<path fill="none" stroke="black" stroke-width="0.5" d="M114.377,-288.5C139.08,-288.5 177.21,-288.5 214.807,-288.5"/>
<polygon fill="black" stroke="black" stroke-width="0.5" points="214.867,-290.25 219.867,-288.5 214.867,-286.75 214.867,-290.25"/>
</g>
<!-- SinglePhaseDarcyCoefficients -->
<g id="node30" class="node"><title>SinglePhaseDarcyCoefficients</title>
<g id="a_node30"><a xlink:href="../api/proteus.SubsurfaceTransportCoefficients.html#proteus.SubsurfaceTransportCoefficients.SinglePhaseDarcyCoefficients" xlink:title=":math:`S_s h_t &#45;\deld ( K_i(x,t) \grad h_i ) + r(x,t) = 0 i=1,nc`" target="_top">
<polygon fill="none" stroke="black" stroke-width="0.5" points="414,-261 256,-261 256,-242 414,-242 414,-261"/>
<text text-anchor="middle" x="335" y="-249" font-family="Vera Sans, DejaVu Sans, Liberation Sans, Arial, Helvetica, sans" font-size="10.00">SinglePhaseDarcyCoefficients</text>
</a>
</g>
</g>
<!-- TC_base&#45;&gt;SinglePhaseDarcyCoefficients -->
<g id="edge19" class="edge"><title>TC_base&#45;&gt;SinglePhaseDarcyCoefficients</title>
<path fill="none" stroke="black" stroke-width="0.5" d="M114.375,-284.091C138.889,-280.169 175.825,-274.324 208,-269.5 225.032,-266.946 243.371,-264.279 260.644,-261.805"/>
<polygon fill="black" stroke="black" stroke-width="0.5" points="261.266,-263.483 265.968,-261.043 260.77,-260.019 261.266,-263.483"/>
</g>
<!-- TwophaseDarcyFlow_base -->
<g id="node31" class="node"><title>TwophaseDarcyFlow_base</title>
<g id="a_node31"><a xlink:href="../api/proteus.SubsurfaceTransportCoefficients.html#proteus.SubsurfaceTransportCoefficients.TwophaseDarcyFlow_base" xlink:title="TwophaseDarcyFlow_base" target="_top">
<polygon fill="none" stroke="black" stroke-width="0.5" points="404.5,-215 265.5,-215 265.5,-196 404.5,-196 404.5,-215"/>
<text text-anchor="middle" x="335" y="-203" font-family="Vera Sans, DejaVu Sans, Liberation Sans, Arial, Helvetica, sans" font-size="10.00">TwophaseDarcyFlow_base</text>
</a>
</g>
</g>
<!-- TC_base&#45;&gt;TwophaseDarcyFlow_base -->
<g id="edge20" class="edge"><title>TC_base&#45;&gt;TwophaseDarcyFlow_base</title>
<path fill="none" stroke="black" stroke-width="0.5" d="M114.073,-286.452C131.516,-284.196 154.179,-279.457 172,-269.5 192.03,-258.309 187.921,-243.602 208,-232.5 223.927,-223.693 242.455,-217.757 260.324,-213.757"/>
<polygon fill="black" stroke="black" stroke-width="0.5" points="260.822,-215.44 265.343,-212.679 260.087,-212.018 260.822,-215.44"/>
</g>
<!-- FullyCoupledMualemVanGenuchten -->
<g id="node8" class="node"><title>FullyCoupledMualemVanGenuchten</title>
<g id="a_node8"><a xlink:href="../api/proteus.SubsurfaceTransportCoefficients.html#proteus.SubsurfaceTransportCoefficients.FullyCoupledMualemVanGenuchten" xlink:title="Formulation using phase continuity equations and Van&#45;Genuchten" target="_top">
<polygon fill="none" stroke="black" stroke-width="0.5" points="1057,-389 872,-389 872,-370 1057,-370 1057,-389"/>
<text text-anchor="middle" x="964.5" y="-377" font-family="Vera Sans, DejaVu Sans, Liberation Sans, Arial, Helvetica, sans" font-size="10.00">FullyCoupledMualemVanGenuchten</text>
</a>
</g>
</g>
<!-- TwophaseDarcy_fc -->
<g id="node9" class="node"><title>TwophaseDarcy_fc</title>
<g id="a_node9"><a xlink:href="../api/proteus.SubsurfaceTransportCoefficients.html#proteus.SubsurfaceTransportCoefficients.TwophaseDarcy_fc" xlink:title="continuity equation for each phase" target="_top">
<polygon fill="none" stroke="black" stroke-width="0.5" points="698,-340 594,-340 594,-321 698,-321 698,-340"/>
<text text-anchor="middle" x="646" y="-328" font-family="Vera Sans, DejaVu Sans, Liberation Sans, Arial, Helvetica, sans" font-size="10.00">TwophaseDarcy_fc</text>
</a>
</g>
</g>
<!-- TwophaseDarcy_fc&#45;&gt;FullyCoupledMualemVanGenuchten -->
<g id="edge4" class="edge"><title>TwophaseDarcy_fc&#45;&gt;FullyCoupledMualemVanGenuchten</title>
<path fill="none" stroke="black" stroke-width="0.5" d="M698.112,-334.658C726.577,-337.583 762.52,-342.29 794,-349.5 810.44,-353.265 813.571,-357.69 830,-361.5 842.884,-364.488 856.591,-367.034 870.129,-369.188"/>
<polygon fill="black" stroke="black" stroke-width="0.5" points="869.897,-370.923 875.107,-369.964 870.436,-367.465 869.897,-370.923"/>
</g>
<!-- FullyCoupledSimplePSKs -->
<g id="node13" class="node"><title>FullyCoupledSimplePSKs</title>
<g id="a_node13"><a xlink:href="../api/proteus.SubsurfaceTransportCoefficients.html#proteus.SubsurfaceTransportCoefficients.FullyCoupledSimplePSKs" xlink:title="Formulation using phase continuity equations and &#39;simp&#39; quadratic" target="_top">
<polygon fill="none" stroke="black" stroke-width="0.5" points="1031,-352 898,-352 898,-333 1031,-333 1031,-352"/>
<text text-anchor="middle" x="964.5" y="-340" font-family="Vera Sans, DejaVu Sans, Liberation Sans, Arial, Helvetica, sans" font-size="10.00">FullyCoupledSimplePSKs</text>
</a>
</g>
</g>
<!-- TwophaseDarcy_fc&#45;&gt;FullyCoupledSimplePSKs -->
<g id="edge7" class="edge"><title>TwophaseDarcy_fc&#45;&gt;FullyCoupledSimplePSKs</title>
<path fill="none" stroke="black" stroke-width="0.5" d="M698.203,-332.441C750.935,-334.441 833.519,-337.572 892.535,-339.809"/>
<polygon fill="black" stroke="black" stroke-width="0.5" points="892.75,-341.569 897.813,-340.009 892.882,-338.071 892.75,-341.569"/>
</g>
<!-- FullyCoupledPressurePressureMualemVanGenuchten -->
<g id="node10" class="node"><title>FullyCoupledPressurePressureMualemVanGenuchten</title>
<g id="a_node10"><a xlink:href="../api/proteus.SubsurfaceTransportCoefficients.html#proteus.SubsurfaceTransportCoefficients.FullyCoupledPressurePressureMualemVanGenuchten" xlink:title="Formulation using phase continuity equations, pressure&#45;pressure" target="_top">
<polygon fill="none" stroke="black" stroke-width="0.5" points="1099,-315 830,-315 830,-296 1099,-296 1099,-315"/>
<text text-anchor="middle" x="964.5" y="-303" font-family="Vera Sans, DejaVu Sans, Liberation Sans, Arial, Helvetica, sans" font-size="10.00">FullyCoupledPressurePressureMualemVanGenuchten</text>
</a>
</g>
</g>
<!-- TwophaseDarcy_fc_pp -->
<g id="node11" class="node"><title>TwophaseDarcy_fc_pp</title>
<g id="a_node11"><a xlink:href="../api/proteus.SubsurfaceTransportCoefficients.html#proteus.SubsurfaceTransportCoefficients.TwophaseDarcy_fc_pp" xlink:title="continuity equation for each phase" target="_top">
<polygon fill="none" stroke="black" stroke-width="0.5" points="706.5,-278 585.5,-278 585.5,-259 706.5,-259 706.5,-278"/>
<text text-anchor="middle" x="646" y="-266" font-family="Vera Sans, DejaVu Sans, Liberation Sans, Arial, Helvetica, sans" font-size="10.00">TwophaseDarcy_fc_pp</text>
</a>
</g>
</g>
<!-- TwophaseDarcy_fc_pp&#45;&gt;FullyCoupledPressurePressureMualemVanGenuchten -->
<g id="edge5" class="edge"><title>TwophaseDarcy_fc_pp&#45;&gt;FullyCoupledPressurePressureMualemVanGenuchten</title>
<path fill="none" stroke="black" stroke-width="0.5" d="M706.531,-275.459C754.583,-281.077 822.853,-289.058 876.948,-295.382"/>
<polygon fill="black" stroke="black" stroke-width="0.5" points="876.969,-297.146 882.138,-295.988 877.375,-293.67 876.969,-297.146"/>
</g>
<!-- FullyCoupledPressurePressureSimplePSKs -->
<g id="node12" class="node"><title>FullyCoupledPressurePressureSimplePSKs</title>
<g id="a_node12"><a xlink:href="../api/proteus.SubsurfaceTransportCoefficients.html#proteus.SubsurfaceTransportCoefficients.FullyCoupledPressurePressureSimplePSKs" xlink:title="Formulation using phase continuity equations and &#39;simp&#39; quadratic" target="_top">
<polygon fill="none" stroke="black" stroke-width="0.5" points="1073,-278 856,-278 856,-259 1073,-259 1073,-278"/>
<text text-anchor="middle" x="964.5" y="-266" font-family="Vera Sans, DejaVu Sans, Liberation Sans, Arial, Helvetica, sans" font-size="10.00">FullyCoupledPressurePressureSimplePSKs</text>
</a>
</g>
</g>
<!-- TwophaseDarcy_fc_pp&#45;&gt;FullyCoupledPressurePressureSimplePSKs -->
<g id="edge6" class="edge"><title>TwophaseDarcy_fc_pp&#45;&gt;FullyCoupledPressurePressureSimplePSKs</title>
<path fill="none" stroke="black" stroke-width="0.5" d="M706.531,-268.5C747.046,-268.5 801.935,-268.5 850.581,-268.5"/>
<polygon fill="black" stroke="black" stroke-width="0.5" points="850.873,-270.25 855.873,-268.5 850.873,-266.75 850.873,-270.25"/>
</g>
<!-- IncompressibleFractionalFlowPressureMualemVanGenuchten -->
<g id="node15" class="node"><title>IncompressibleFractionalFlowPressureMualemVanGenuchten</title>
<g id="a_node15"><a xlink:href="../api/proteus.SubsurfaceTransportCoefficients.html#proteus.SubsurfaceTransportCoefficients.IncompressibleFractionalFlowPressureMualemVanGenuchten" xlink:title="Total flow equation coefficients for incompressible flow assuming" target="_top">
<polygon fill="none" stroke="black" stroke-width="0.5" points="1486.5,-241 1181.5,-241 1181.5,-222 1486.5,-222 1486.5,-241"/>
<text text-anchor="middle" x="1334" y="-229" font-family="Vera Sans, DejaVu Sans, Liberation Sans, Arial, Helvetica, sans" font-size="10.00">IncompressibleFractionalFlowPressureMualemVanGenuchten</text>
</a>
</g>
</g>
<!-- TwophaseDarcy_incompressible_split_pressure -->
<g id="node16" class="node"><title>TwophaseDarcy_incompressible_split_pressure</title>
<g id="a_node16"><a xlink:href="../api/proteus.SubsurfaceTransportCoefficients.html#proteus.SubsurfaceTransportCoefficients.TwophaseDarcy_incompressible_split_pressure" xlink:title="Total flow conservation equation in an incompressible fractional" target="_top">
<polygon fill="none" stroke="black" stroke-width="0.5" points="1084,-204 845,-204 845,-185 1084,-185 1084,-204"/>
<text text-anchor="middle" x="964.5" y="-192" font-family="Vera Sans, DejaVu Sans, Liberation Sans, Arial, Helvetica, sans" font-size="10.00">TwophaseDarcy_incompressible_split_pressure</text>
</a>
</g>
</g>
<!-- TwophaseDarcy_incompressible_split_pressure&#45;&gt;IncompressibleFractionalFlowPressureMualemVanGenuchten -->
<g id="edge9" class="edge"><title>TwophaseDarcy_incompressible_split_pressure&#45;&gt;IncompressibleFractionalFlowPressureMualemVanGenuchten</title>
<path fill="none" stroke="black" stroke-width="0.5" d="M1053.46,-204.012C1079.69,-206.802 1108.5,-209.822 1135,-212.5 1164.72,-215.504 1196.96,-218.647 1226.62,-221.492"/>
<polygon fill="black" stroke="black" stroke-width="0.5" points="1226.6,-223.248 1231.74,-221.983 1226.93,-219.764 1226.6,-223.248"/>
</g>
<!-- IncompressibleFractionalFlowPressureSimplePSKs -->
<g id="node17" class="node"><title>IncompressibleFractionalFlowPressureSimplePSKs</title>
<g id="a_node17"><a xlink:href="../api/proteus.SubsurfaceTransportCoefficients.html#proteus.SubsurfaceTransportCoefficients.IncompressibleFractionalFlowPressureSimplePSKs" xlink:title="Total flow equation coefficients for incompressible flow assuming" target="_top">
<polygon fill="none" stroke="black" stroke-width="0.5" points="1461,-204 1207,-204 1207,-185 1461,-185 1461,-204"/>
<text text-anchor="middle" x="1334" y="-192" font-family="Vera Sans, DejaVu Sans, Liberation Sans, Arial, Helvetica, sans" font-size="10.00">IncompressibleFractionalFlowPressureSimplePSKs</text>
</a>
</g>
</g>
<!-- TwophaseDarcy_incompressible_split_pressure&#45;&gt;IncompressibleFractionalFlowPressureSimplePSKs -->
<g id="edge10" class="edge"><title>TwophaseDarcy_incompressible_split_pressure&#45;&gt;IncompressibleFractionalFlowPressureSimplePSKs</title>
<path fill="none" stroke="black" stroke-width="0.5" d="M1084.06,-194.5C1121.6,-194.5 1163.31,-194.5 1201.69,-194.5"/>
<polygon fill="black" stroke="black" stroke-width="0.5" points="1201.84,-196.25 1206.84,-194.5 1201.84,-192.75 1201.84,-196.25"/>
</g>
<!-- IncompressibleFractionalFlowSaturationMualemVanGenuchten -->
<g id="node18" class="node"><title>IncompressibleFractionalFlowSaturationMualemVanGenuchten</title>
<g id="a_node18"><a xlink:href="../api/proteus.SubsurfaceTransportCoefficients.html#proteus.SubsurfaceTransportCoefficients.IncompressibleFractionalFlowSaturationMualemVanGenuchten" xlink:title="Saturation equation coefficients for incompressible flow assuming" target="_top">
<polygon fill="none" stroke="black" stroke-width="0.5" points="1491,-130 1177,-130 1177,-111 1491,-111 1491,-130"/>
<text text-anchor="middle" x="1334" y="-118" font-family="Vera Sans, DejaVu Sans, Liberation Sans, Arial, Helvetica, sans" font-size="10.00">IncompressibleFractionalFlowSaturationMualemVanGenuchten</text>
</a>
</g>
</g>
<!-- IncompressibleFractionalFlowSaturationMualemVanGenuchtenSplitAdvDiff -->
<g id="node20" class="node"><title>IncompressibleFractionalFlowSaturationMualemVanGenuchtenSplitAdvDiff</title>
<g id="a_node20"><a xlink:href="../api/proteus.SubsurfaceTransportCoefficients.html#proteus.SubsurfaceTransportCoefficients.IncompressibleFractionalFlowSaturationMualemVanGenuchtenSplitAdvDiff" xlink:title="Saturation equation coefficients for incompressible flow assuming" target="_top">
<polygon fill="none" stroke="black" stroke-width="0.5" points="1937,-130 1569,-130 1569,-111 1937,-111 1937,-130"/>
<text text-anchor="middle" x="1753" y="-118" font-family="Vera Sans, DejaVu Sans, Liberation Sans, Arial, Helvetica, sans" font-size="10.00">IncompressibleFractionalFlowSaturationMualemVanGenuchtenSplitAdvDiff</text>
</a>
</g>
</g>
<!-- IncompressibleFractionalFlowSaturationMualemVanGenuchten&#45;&gt;IncompressibleFractionalFlowSaturationMualemVanGenuchtenSplitAdvDiff -->
<g id="edge12" class="edge"><title>IncompressibleFractionalFlowSaturationMualemVanGenuchten&#45;&gt;IncompressibleFractionalFlowSaturationMualemVanGenuchtenSplitAdvDiff</title>
<path fill="none" stroke="black" stroke-width="0.5" d="M1491.17,-120.5C1514.8,-120.5 1539.4,-120.5 1563.63,-120.5"/>
<polygon fill="black" stroke="black" stroke-width="0.5" points="1563.79,-122.25 1568.79,-120.5 1563.79,-118.75 1563.79,-122.25"/>
</g>
<!-- TwophaseDarcy_incompressible_split_saturation -->
<g id="node19" class="node"><title>TwophaseDarcy_incompressible_split_saturation</title>
<g id="a_node19"><a xlink:href="../api/proteus.SubsurfaceTransportCoefficients.html#proteus.SubsurfaceTransportCoefficients.TwophaseDarcy_incompressible_split_saturation" xlink:title="Aqueous phase mass conservation equation (saturation equation) in" target="_top">
<polygon fill="none" stroke="black" stroke-width="0.5" points="1087.5,-130 841.5,-130 841.5,-111 1087.5,-111 1087.5,-130"/>
<text text-anchor="middle" x="964.5" y="-118" font-family="Vera Sans, DejaVu Sans, Liberation Sans, Arial, Helvetica, sans" font-size="10.00">TwophaseDarcy_incompressible_split_saturation</text>
</a>
</g>
</g>
<!-- TwophaseDarcy_incompressible_split_saturation&#45;&gt;IncompressibleFractionalFlowSaturationMualemVanGenuchten -->
<g id="edge11" class="edge"><title>TwophaseDarcy_incompressible_split_saturation&#45;&gt;IncompressibleFractionalFlowSaturationMualemVanGenuchten</title>
<path fill="none" stroke="black" stroke-width="0.5" d="M1087.62,-120.5C1114.56,-120.5 1143.49,-120.5 1171.71,-120.5"/>
<polygon fill="black" stroke="black" stroke-width="0.5" points="1171.97,-122.25 1176.97,-120.5 1171.97,-118.75 1171.97,-122.25"/>
</g>
<!-- IncompressibleFractionalFlowSaturationSimplePSKs -->
<g id="node21" class="node"><title>IncompressibleFractionalFlowSaturationSimplePSKs</title>
<g id="a_node21"><a xlink:href="../api/proteus.SubsurfaceTransportCoefficients.html#proteus.SubsurfaceTransportCoefficients.IncompressibleFractionalFlowSaturationSimplePSKs" xlink:title="Saturation equation coefficients for incompressible flow assuming" target="_top">
<polygon fill="none" stroke="black" stroke-width="0.5" points="1465,-93 1203,-93 1203,-74 1465,-74 1465,-93"/>
<text text-anchor="middle" x="1334" y="-81" font-family="Vera Sans, DejaVu Sans, Liberation Sans, Arial, Helvetica, sans" font-size="10.00">IncompressibleFractionalFlowSaturationSimplePSKs</text>
</a>
</g>
</g>
<!-- TwophaseDarcy_incompressible_split_saturation&#45;&gt;IncompressibleFractionalFlowSaturationSimplePSKs -->
<g id="edge13" class="edge"><title>TwophaseDarcy_incompressible_split_saturation&#45;&gt;IncompressibleFractionalFlowSaturationSimplePSKs</title>
<path fill="none" stroke="black" stroke-width="0.5" d="M1047.37,-110.973C1075.17,-107.83 1106.42,-104.4 1135,-101.5 1162.07,-98.7522 1191.25,-95.9895 1218.67,-93.4819"/>
<polygon fill="black" stroke="black" stroke-width="0.5" points="1218.95,-95.2139 1223.77,-93.0167 1218.63,-91.7284 1218.95,-95.2139"/>
</g>
<!-- VariablySaturatedGroundwaterEnergyTransportCoefficients -->
<g id="node36" class="node"><title>VariablySaturatedGroundwaterEnergyTransportCoefficients</title>
<g id="a_node36"><a xlink:href="../api/proteus.SubsurfaceTransportCoefficients.html#proteus.SubsurfaceTransportCoefficients.VariablySaturatedGroundwaterEnergyTransportCoefficients" xlink:title="VariablySaturatedGroundwaterEnergyTransportCoefficients" target="_top">
<polygon fill="none" stroke="black" stroke-width="0.5" points="794,-377 498,-377 498,-358 794,-358 794,-377"/>
<text text-anchor="middle" x="646" y="-365" font-family="Vera Sans, DejaVu Sans, Liberation Sans, Arial, Helvetica, sans" font-size="10.00">VariablySaturatedGroundwaterEnergyTransportCoefficients</text>
</a>
</g>
</g>
<!-- MultiphaseGroundwaterTransportCoefficients&#45;&gt;VariablySaturatedGroundwaterEnergyTransportCoefficients -->
<g id="edge33" class="edge"><title>MultiphaseGroundwaterTransportCoefficients&#45;&gt;VariablySaturatedGroundwaterEnergyTransportCoefficients</title>
<path fill="none" stroke="black" stroke-width="0.5" d="M443.033,-298.052C449.631,-300.381 456.014,-303.169 462,-306.5 483.779,-318.621 476.1,-337.598 498,-349.5 502.49,-351.94 507.169,-354.11 511.98,-356.036"/>
<polygon fill="black" stroke="black" stroke-width="0.5" points="511.538,-357.741 516.833,-357.883 512.783,-354.469 511.538,-357.741"/>
</g>
<!-- NonlinearEquation -->
<g id="node23" class="node"><title>NonlinearEquation</title>
<g id="a_node23"><a xlink:href="../proteus.NonlinearSolvers.html#proteus.NonlinearSolvers.NonlinearEquation" xlink:title="The base class for nonlinear equations." target="_top">
<polygon fill="none" stroke="black" stroke-width="0.5" points="138,-427 34,-427 34,-408 138,-408 138,-427"/>
<text text-anchor="middle" x="86" y="-415" font-family="Vera Sans, DejaVu Sans, Liberation Sans, Arial, Helvetica, sans" font-size="10.00">NonlinearEquation</text>
</a>
</g>
</g>
<!-- OneLevelTransport -->
<g id="node24" class="node"><title>OneLevelTransport</title>
<g id="a_node24"><a xlink:href="../proteus.Transport.html#proteus.Transport.OneLevelTransport" xlink:title="A class for finite element discretizations of multicomponent" target="_top">
<polygon fill="none" stroke="black" stroke-width="0.5" points="387.5,-427 282.5,-427 282.5,-408 387.5,-408 387.5,-427"/>
<text text-anchor="middle" x="335" y="-415" font-family="Vera Sans, DejaVu Sans, Liberation Sans, Arial, Helvetica, sans" font-size="10.00">OneLevelTransport</text>
</a>
</g>
</g>
<!-- NonlinearEquation&#45;&gt;OneLevelTransport -->
<g id="edge15" class="edge"><title>NonlinearEquation&#45;&gt;OneLevelTransport</title>
<path fill="none" stroke="black" stroke-width="0.5" d="M138.179,-417.5C178.778,-417.5 235.478,-417.5 277.423,-417.5"/>
<polygon fill="black" stroke="black" stroke-width="0.5" points="277.463,-419.25 282.463,-417.5 277.463,-415.75 277.463,-419.25"/>
</g>
<!-- RE_NCP1_OneLevelTransport -->
<g id="node29" class="node"><title>RE_NCP1_OneLevelTransport</title>
<g id="a_node29"><a xlink:href="../api/proteus.SubsurfaceTransportCoefficients.html#proteus.SubsurfaceTransportCoefficients.RE_NCP1_OneLevelTransport" xlink:title="OneLevelTransport designed specifically for Non&#45;Conforming" target="_top">
<polygon fill="none" stroke="black" stroke-width="0.5" points="723,-427 569,-427 569,-408 723,-408 723,-427"/>
<text text-anchor="middle" x="646" y="-415" font-family="Vera Sans, DejaVu Sans, Liberation Sans, Arial, Helvetica, sans" font-size="10.00">RE_NCP1_OneLevelTransport</text>
</a>
</g>
</g>
<!-- OneLevelTransport&#45;&gt;RE_NCP1_OneLevelTransport -->
<g id="edge18" class="edge"><title>OneLevelTransport&#45;&gt;RE_NCP1_OneLevelTransport</title>
<path fill="none" stroke="black" stroke-width="0.5" d="M387.72,-417.5C435.654,-417.5 507.744,-417.5 563.43,-417.5"/>
<polygon fill="black" stroke="black" stroke-width="0.5" points="563.767,-419.25 568.767,-417.5 563.767,-415.75 563.767,-419.25"/>
</g>
<!-- PressurePressureIncompressibleFractionalFlowPressureMualemVanGenuchten -->
<g id="node25" class="node"><title>PressurePressureIncompressibleFractionalFlowPressureMualemVanGenuchten</title>
<g id="a_node25"><a xlink:href="../api/proteus.SubsurfaceTransportCoefficients.html#proteus.SubsurfaceTransportCoefficients.PressurePressureIncompressibleFractionalFlowPressureMualemVanGenuchten" xlink:title="Total flow equation coefficients for incompressible flow assuming" target="_top">
<polygon fill="none" stroke="black" stroke-width="0.5" points="1528.5,-56 1139.5,-56 1139.5,-37 1528.5,-37 1528.5,-56"/>
<text text-anchor="middle" x="1334" y="-44" font-family="Vera Sans, DejaVu Sans, Liberation Sans, Arial, Helvetica, sans" font-size="10.00">PressurePressureIncompressibleFractionalFlowPressureMualemVanGenuchten</text>
</a>
</g>
</g>
<!-- TwophaseDarcy_incompressible_split_pp_pressure -->
<g id="node26" class="node"><title>TwophaseDarcy_incompressible_split_pp_pressure</title>
<g id="a_node26"><a xlink:href="../api/proteus.SubsurfaceTransportCoefficients.html#proteus.SubsurfaceTransportCoefficients.TwophaseDarcy_incompressible_split_pp_pressure" xlink:title="Total flow conservation equation in an incompressible fractional" target="_top">
<polygon fill="none" stroke="black" stroke-width="0.5" points="1093,-83 836,-83 836,-64 1093,-64 1093,-83"/>
<text text-anchor="middle" x="964.5" y="-71" font-family="Vera Sans, DejaVu Sans, Liberation Sans, Arial, Helvetica, sans" font-size="10.00">TwophaseDarcy_incompressible_split_pp_pressure</text>
</a>
</g>
</g>
<!-- TwophaseDarcy_incompressible_split_pp_pressure&#45;&gt;PressurePressureIncompressibleFractionalFlowPressureMualemVanGenuchten -->
<g id="edge16" class="edge"><title>TwophaseDarcy_incompressible_split_pp_pressure&#45;&gt;PressurePressureIncompressibleFractionalFlowPressureMualemVanGenuchten</title>
<path fill="none" stroke="black" stroke-width="0.5" d="M1093,-64.1325C1127.09,-61.6283 1164.03,-58.9142 1198.48,-56.3832"/>
<polygon fill="black" stroke="black" stroke-width="0.5" points="1198.68,-58.1229 1203.54,-56.0111 1198.43,-54.6323 1198.68,-58.1229"/>
</g>
<!-- PressurePressureIncompressibleFractionalFlowSaturationMualemVanGenuchten -->
<g id="node27" class="node"><title>PressurePressureIncompressibleFractionalFlowSaturationMualemVanGenuchten</title>
<g id="a_node27"><a xlink:href="../api/proteus.SubsurfaceTransportCoefficients.html#proteus.SubsurfaceTransportCoefficients.PressurePressureIncompressibleFractionalFlowSaturationMualemVanGenuchten" xlink:title="Saturation equation coefficients for incompressible flow assuming" target="_top">
<polygon fill="none" stroke="black" stroke-width="0.5" points="1533,-19 1135,-19 1135,-0 1533,-0 1533,-19"/>
<text text-anchor="middle" x="1334" y="-7" font-family="Vera Sans, DejaVu Sans, Liberation Sans, Arial, Helvetica, sans" font-size="10.00">PressurePressureIncompressibleFractionalFlowSaturationMualemVanGenuchten</text>
</a>
</g>
</g>
<!-- TwophaseDarcy_incompressible_split_pp_saturation -->
<g id="node28" class="node"><title>TwophaseDarcy_incompressible_split_pp_saturation</title>
<g id="a_node28"><a xlink:href="../api/proteus.SubsurfaceTransportCoefficients.html#proteus.SubsurfaceTransportCoefficients.TwophaseDarcy_incompressible_split_pp_saturation" xlink:title="Aqueous phase mass conservation equation (saturation equation) in" target="_top">
<polygon fill="none" stroke="black" stroke-width="0.5" points="1096,-28 833,-28 833,-9 1096,-9 1096,-28"/>
<text text-anchor="middle" x="964.5" y="-16" font-family="Vera Sans, DejaVu Sans, Liberation Sans, Arial, Helvetica, sans" font-size="10.00">TwophaseDarcy_incompressible_split_pp_saturation</text>
</a>
</g>
</g>
<!-- TwophaseDarcy_incompressible_split_pp_saturation&#45;&gt;PressurePressureIncompressibleFractionalFlowSaturationMualemVanGenuchten -->
<g id="edge17" class="edge"><title>TwophaseDarcy_incompressible_split_pp_saturation&#45;&gt;PressurePressureIncompressibleFractionalFlowSaturationMualemVanGenuchten</title>
<path fill="none" stroke="black" stroke-width="0.5" d="M1096.1,-15.3016C1107.01,-15.0343 1118.2,-14.7604 1129.49,-14.4839"/>
<polygon fill="black" stroke="black" stroke-width="0.5" points="1129.73,-16.2287 1134.68,-14.3568 1129.64,-12.7298 1129.73,-16.2287"/>
</g>
<!-- TwophaseDarcyFlow_base&#45;&gt;TwophaseDarcy_fc -->
<g id="edge23" class="edge"><title>TwophaseDarcyFlow_base&#45;&gt;TwophaseDarcy_fc</title>
<path fill="none" stroke="black" stroke-width="0.5" d="M404.572,-210.429C424.374,-214.337 445.163,-221.056 462,-232.5 485.856,-248.714 474.809,-269.348 498,-286.5 524.422,-306.042 559.515,-316.967 588.786,-323.043"/>
<polygon fill="black" stroke="black" stroke-width="0.5" points="588.559,-324.782 593.805,-324.049 589.247,-321.35 588.559,-324.782"/>
</g>
<!-- TwophaseDarcyFlow_base&#45;&gt;TwophaseDarcy_fc_pp -->
<g id="edge24" class="edge"><title>TwophaseDarcyFlow_base&#45;&gt;TwophaseDarcy_fc_pp</title>
<path fill="none" stroke="black" stroke-width="0.5" d="M382.93,-215.068C439.553,-226.613 534.442,-245.959 593.171,-257.933"/>
<polygon fill="black" stroke="black" stroke-width="0.5" points="593.139,-259.712 598.388,-258.997 593.838,-256.283 593.139,-259.712"/>
</g>
<!-- TwophaseDarcy_split_pressure_base -->
<g id="node32" class="node"><title>TwophaseDarcy_split_pressure_base</title>
<g id="a_node32"><a xlink:href="../api/proteus.SubsurfaceTransportCoefficients.html#proteus.SubsurfaceTransportCoefficients.TwophaseDarcy_split_pressure_base" xlink:title="Base class for &#39;pressure&#39; or total flow conservation equation in" target="_top">
<polygon fill="none" stroke="black" stroke-width="0.5" points="741.5,-215 550.5,-215 550.5,-196 741.5,-196 741.5,-215"/>
<text text-anchor="middle" x="646" y="-203" font-family="Vera Sans, DejaVu Sans, Liberation Sans, Arial, Helvetica, sans" font-size="10.00">TwophaseDarcy_split_pressure_base</text>
</a>
</g>
</g>
<!-- TwophaseDarcyFlow_base&#45;&gt;TwophaseDarcy_split_pressure_base -->
<g id="edge31" class="edge"><title>TwophaseDarcyFlow_base&#45;&gt;TwophaseDarcy_split_pressure_base</title>
<path fill="none" stroke="black" stroke-width="0.5" d="M404.577,-205.5C445.837,-205.5 499.084,-205.5 544.977,-205.5"/>
<polygon fill="black" stroke="black" stroke-width="0.5" points="545.249,-207.25 550.249,-205.5 545.249,-203.75 545.249,-207.25"/>
</g>
<!-- TwophaseDarcy_split_saturation_base -->
<g id="node33" class="node"><title>TwophaseDarcy_split_saturation_base</title>
<g id="a_node33"><a xlink:href="../api/proteus.SubsurfaceTransportCoefficients.html#proteus.SubsurfaceTransportCoefficients.TwophaseDarcy_split_saturation_base" xlink:title="Base class for aqueous phase mass conservation equation" target="_top">
<polygon fill="none" stroke="black" stroke-width="0.5" points="744.5,-167 547.5,-167 547.5,-148 744.5,-148 744.5,-167"/>
<text text-anchor="middle" x="646" y="-155" font-family="Vera Sans, DejaVu Sans, Liberation Sans, Arial, Helvetica, sans" font-size="10.00">TwophaseDarcy_split_saturation_base</text>
</a>
</g>
</g>
<!-- TwophaseDarcyFlow_base&#45;&gt;TwophaseDarcy_split_saturation_base -->
<g id="edge32" class="edge"><title>TwophaseDarcyFlow_base&#45;&gt;TwophaseDarcy_split_saturation_base</title>
<path fill="none" stroke="black" stroke-width="0.5" d="M397.418,-195.959C449.762,-187.828 524.833,-176.167 578.566,-167.82"/>
<polygon fill="black" stroke="black" stroke-width="0.5" points="579.026,-169.519 583.698,-167.023 578.489,-166.061 579.026,-169.519"/>
</g>
<!-- TwophaseDarcy_split_pp_pressure_base -->
<g id="node34" class="node"><title>TwophaseDarcy_split_pp_pressure_base</title>
<g id="a_node34"><a xlink:href="../api/proteus.SubsurfaceTransportCoefficients.html#proteus.SubsurfaceTransportCoefficients.TwophaseDarcy_split_pp_pressure_base" xlink:title="Base class for &#39;pressure&#39; or total flow conservation equation in" target="_top">
<polygon fill="none" stroke="black" stroke-width="0.5" points="750,-112 542,-112 542,-93 750,-93 750,-112"/>
<text text-anchor="middle" x="646" y="-100" font-family="Vera Sans, DejaVu Sans, Liberation Sans, Arial, Helvetica, sans" font-size="10.00">TwophaseDarcy_split_pp_pressure_base</text>
</a>
</g>
</g>
<!-- TwophaseDarcyFlow_base&#45;&gt;TwophaseDarcy_split_pp_pressure_base -->
<g id="edge29" class="edge"><title>TwophaseDarcyFlow_base&#45;&gt;TwophaseDarcy_split_pp_pressure_base</title>
<path fill="none" stroke="black" stroke-width="0.5" d="M356.589,-195.795C386.994,-181.737 445.932,-155.534 498,-138.5 529.032,-128.348 564.575,-119.569 592.937,-113.223"/>
<polygon fill="black" stroke="black" stroke-width="0.5" points="593.644,-114.858 598.146,-112.066 592.886,-111.442 593.644,-114.858"/>
</g>
<!-- TwophaseDarcy_split_pp_saturation_base -->
<g id="node35" class="node"><title>TwophaseDarcy_split_pp_saturation_base</title>
<g id="a_node35"><a xlink:href="../api/proteus.SubsurfaceTransportCoefficients.html#proteus.SubsurfaceTransportCoefficients.TwophaseDarcy_split_pp_saturation_base" xlink:title="Base class for aqueous phase mass conservation equation" target="_top">
<polygon fill="none" stroke="black" stroke-width="0.5" points="753.5,-38 538.5,-38 538.5,-19 753.5,-19 753.5,-38"/>
<text text-anchor="middle" x="646" y="-26" font-family="Vera Sans, DejaVu Sans, Liberation Sans, Arial, Helvetica, sans" font-size="10.00">TwophaseDarcy_split_pp_saturation_base</text>
</a>
</g>
</g>
<!-- TwophaseDarcyFlow_base&#45;&gt;TwophaseDarcy_split_pp_saturation_base -->
<g id="edge30" class="edge"><title>TwophaseDarcyFlow_base&#45;&gt;TwophaseDarcy_split_pp_saturation_base</title>
<path fill="none" stroke="black" stroke-width="0.5" d="M346.628,-195.739C371.471,-173.335 435.954,-117.537 498,-83.5 532.892,-64.3593 575.817,-49.157 606.253,-39.6293"/>
<polygon fill="black" stroke="black" stroke-width="0.5" points="607.148,-41.1843 611.406,-38.033 606.112,-37.841 607.148,-41.1843"/>
</g>
<!-- TwophaseDarcy_split_pressure_base&#45;&gt;TwophaseDarcy_compressible_split_pressure -->
<g id="edge21" class="edge"><title>TwophaseDarcy_split_pressure_base&#45;&gt;TwophaseDarcy_compressible_split_pressure</title>
<path fill="none" stroke="black" stroke-width="0.5" d="M741.532,-213.266C773.519,-215.893 809.675,-218.864 843.378,-221.632"/>
<polygon fill="black" stroke="black" stroke-width="0.5" points="843.639,-223.409 848.765,-222.075 843.925,-219.921 843.639,-223.409"/>
</g>
<!-- TwophaseDarcy_split_pressure_base&#45;&gt;TwophaseDarcy_incompressible_split_pressure -->
<g id="edge27" class="edge"><title>TwophaseDarcy_split_pressure_base&#45;&gt;TwophaseDarcy_incompressible_split_pressure</title>
<path fill="none" stroke="black" stroke-width="0.5" d="M741.532,-202.215C772.308,-201.145 806.945,-199.941 839.542,-198.808"/>
<polygon fill="black" stroke="black" stroke-width="0.5" points="839.819,-200.55 844.755,-198.627 839.698,-197.052 839.819,-200.55"/>
</g>
<!-- TwophaseDarcy_split_saturation_base&#45;&gt;TwophaseDarcy_compressible_split_saturation -->
<g id="edge22" class="edge"><title>TwophaseDarcy_split_saturation_base&#45;&gt;TwophaseDarcy_compressible_split_saturation</title>
<path fill="none" stroke="black" stroke-width="0.5" d="M744.543,-157.5C774.801,-157.5 808.548,-157.5 840.311,-157.5"/>
<polygon fill="black" stroke="black" stroke-width="0.5" points="840.391,-159.25 845.391,-157.5 840.391,-155.75 840.391,-159.25"/>
</g>
<!-- TwophaseDarcy_split_saturation_base&#45;&gt;TwophaseDarcy_incompressible_split_saturation -->
<g id="edge28" class="edge"><title>TwophaseDarcy_split_saturation_base&#45;&gt;TwophaseDarcy_incompressible_split_saturation</title>
<path fill="none" stroke="black" stroke-width="0.5" d="M728.507,-147.972C774.012,-142.652 830.687,-136.026 876.977,-130.615"/>
<polygon fill="black" stroke="black" stroke-width="0.5" points="877.232,-132.347 881.995,-130.028 876.826,-128.871 877.232,-132.347"/>
</g>
<!-- TwophaseDarcy_split_pp_pressure_base&#45;&gt;TwophaseDarcy_incompressible_split_pp_pressure -->
<g id="edge25" class="edge"><title>TwophaseDarcy_split_pp_pressure_base&#45;&gt;TwophaseDarcy_incompressible_split_pp_pressure</title>
<path fill="none" stroke="black" stroke-width="0.5" d="M750.196,-93.0444C783.501,-89.9928 820.522,-86.6007 854.248,-83.5104"/>
<polygon fill="black" stroke="black" stroke-width="0.5" points="854.813,-85.2161 859.632,-83.0171 854.493,-81.7307 854.813,-85.2161"/>
</g>
<!-- TwophaseDarcy_split_pp_saturation_base&#45;&gt;TwophaseDarcy_incompressible_split_pp_saturation -->
<g id="edge26" class="edge"><title>TwophaseDarcy_split_pp_saturation_base&#45;&gt;TwophaseDarcy_incompressible_split_pp_saturation</title>
<path fill="none" stroke="black" stroke-width="0.5" d="M753.711,-25.1284C777.418,-24.3794 802.858,-23.5756 827.558,-22.7952"/>
<polygon fill="black" stroke="black" stroke-width="0.5" points="827.874,-24.5361 832.816,-22.629 827.764,-21.0379 827.874,-24.5361"/>
</g>
</g>
</svg>
