<?xml version="1.0" encoding="UTF-8" standalone="no"?>
<!DOCTYPE svg PUBLIC "-//W3C//DTD SVG 1.1//EN"
 "http://www.w3.org/Graphics/SVG/1.1/DTD/svg11.dtd">
<!-- Generated by graphviz version 2.40.1 (20161225.0304)
 -->
<!-- Title: inheritancecb50c7d34c Pages: 1 -->
<svg width="483pt" height="360pt"
 viewBox="0.00 0.00 483.00 360.00" xmlns="http://www.w3.org/2000/svg" xmlns:xlink="http://www.w3.org/1999/xlink">
<g id="graph0" class="graph" transform="scale(1 1) rotate(0) translate(4 356)">
<title>inheritancecb50c7d34c</title>
<polygon fill="#ffffff" stroke="transparent" points="-4,4 -4,-356 479,-356 479,4 -4,4"/>
<!-- D_base -->
<g id="node1" class="node">
<title>D_base</title>
<g id="a_node1"><a xlink:href="../api/proteus.Domain.html#proteus.Domain.D_base" xlink:title="The base class for domains" target="_top">
<polygon fill="none" stroke="#000000" stroke-width=".5" points="54,-185 0,-185 0,-166 54,-166 54,-185"/>
<text text-anchor="middle" x="27" y="-173" font-family="Vera Sans, DejaVu Sans, Liberation Sans, Arial, Helvetica, sans" font-size="10.00" fill="#000000">D_base</text>
</a>
</g>
</g>
<!-- GMSH_3D_Domain -->
<g id="node2" class="node">
<title>GMSH_3D_Domain</title>
<g id="a_node2"><a xlink:href="../api/proteus.Domain.html#proteus.Domain.GMSH_3D_Domain" xlink:title="A domain described by a gmsh .geo file" target="_top">
<polygon fill="none" stroke="#000000" stroke-width=".5" points="232.5,-352 124.5,-352 124.5,-333 232.5,-333 232.5,-352"/>
<text text-anchor="middle" x="178.5" y="-340" font-family="Vera Sans, DejaVu Sans, Liberation Sans, Arial, Helvetica, sans" font-size="10.00" fill="#000000">GMSH_3D_Domain</text>
</a>
</g>
</g>
<!-- D_base&#45;&gt;GMSH_3D_Domain -->
<g id="edge1" class="edge">
<title>D_base&#45;&gt;GMSH_3D_Domain</title>
<path fill="none" stroke="#000000" stroke-width=".5" d="M28.0454,-185.349C31.4552,-212.2649 44.7868,-287.5086 90,-324.5 98.4188,-331.3879 108.774,-335.8645 119.3978,-338.7308"/>
<polygon fill="#000000" stroke="#000000" stroke-width=".5" points="119.0184,-340.4396 124.2919,-339.9374 119.8562,-337.0414 119.0184,-340.4396"/>
</g>
<!-- PlanarStraightLineGraphDomain -->
<g id="node4" class="node">
<title>PlanarStraightLineGraphDomain</title>
<g id="a_node4"><a xlink:href="../api/proteus.Domain.html#proteus.Domain.PlanarStraightLineGraphDomain" xlink:title="2D domains described by planar straight line graphs." target="_top">
<polygon fill="none" stroke="#000000" stroke-width=".5" points="265,-315 92,-315 92,-296 265,-296 265,-315"/>
<text text-anchor="middle" x="178.5" y="-303" font-family="Vera Sans, DejaVu Sans, Liberation Sans, Arial, Helvetica, sans" font-size="10.00" fill="#000000">PlanarStraightLineGraphDomain</text>
</a>
</g>
</g>
<!-- D_base&#45;&gt;PlanarStraightLineGraphDomain -->
<g id="edge9" class="edge">
<title>D_base&#45;&gt;PlanarStraightLineGraphDomain</title>
<path fill="none" stroke="#000000" stroke-width=".5" d="M29.4552,-185.1318C35.5879,-207.1109 53.7539,-261.0985 90,-287.5 93.1367,-289.7848 96.4941,-291.796 100.0002,-293.5652"/>
<polygon fill="#000000" stroke="#000000" stroke-width=".5" points="99.5952,-295.307 104.8666,-295.8307 101.0724,-292.1339 99.5952,-295.307"/>
</g>
<!-- Mesh2DMDomain -->
<g id="node5" class="node">
<title>Mesh2DMDomain</title>
<g id="a_node5"><a xlink:href="../api/proteus.Domain.html#proteus.Domain.Mesh2DMDomain" xlink:title="2D domains from ADH mesh files" target="_top">
<polygon fill="none" stroke="#000000" stroke-width=".5" points="229.5,-278 127.5,-278 127.5,-259 229.5,-259 229.5,-278"/>
<text text-anchor="middle" x="178.5" y="-266" font-family="Vera Sans, DejaVu Sans, Liberation Sans, Arial, Helvetica, sans" font-size="10.00" fill="#000000">Mesh2DMDomain</text>
</a>
</g>
</g>
<!-- D_base&#45;&gt;Mesh2DMDomain -->
<g id="edge3" class="edge">
<title>D_base&#45;&gt;Mesh2DMDomain</title>
<path fill="none" stroke="#000000" stroke-width=".5" d="M32.1572,-185.1058C41.4252,-201.3726 62.5204,-234.1623 90,-250.5 99.7004,-256.2673 110.942,-260.2144 122.0914,-262.909"/>
<polygon fill="#000000" stroke="#000000" stroke-width=".5" points="121.9392,-264.6685 127.2017,-264.0609 122.7089,-261.2542 121.9392,-264.6685"/>
</g>
<!-- Mesh3DMDomain -->
<g id="node6" class="node">
<title>Mesh3DMDomain</title>
<g id="a_node6"><a xlink:href="../api/proteus.Domain.html#proteus.Domain.Mesh3DMDomain" xlink:title="3D domains from ADH mesh files" target="_top">
<polygon fill="none" stroke="#000000" stroke-width=".5" points="229.5,-241 127.5,-241 127.5,-222 229.5,-222 229.5,-241"/>
<text text-anchor="middle" x="178.5" y="-229" font-family="Vera Sans, DejaVu Sans, Liberation Sans, Arial, Helvetica, sans" font-size="10.00" fill="#000000">Mesh3DMDomain</text>
</a>
</g>
</g>
<!-- D_base&#45;&gt;Mesh3DMDomain -->
<g id="edge4" class="edge">
<title>D_base&#45;&gt;Mesh3DMDomain</title>
<path fill="none" stroke="#000000" stroke-width=".5" d="M39.8304,-185.0522C52.1016,-193.7351 71.4347,-206.2628 90,-213.5 100.1346,-217.4507 111.2757,-220.582 122.1334,-223.048"/>
<polygon fill="#000000" stroke="#000000" stroke-width=".5" points="121.839,-224.7749 127.0976,-224.1347 122.5875,-221.3559 121.839,-224.7749"/>
</g>
<!-- MeshHexDomain -->
<g id="node7" class="node">
<title>MeshHexDomain</title>
<g id="a_node7"><a xlink:href="../api/proteus.Domain.html#proteus.Domain.MeshHexDomain" xlink:title="3D domains from Hex mesh files" target="_top">
<polygon fill="none" stroke="#000000" stroke-width=".5" points="228.5,-204 128.5,-204 128.5,-185 228.5,-185 228.5,-204"/>
<text text-anchor="middle" x="178.5" y="-192" font-family="Vera Sans, DejaVu Sans, Liberation Sans, Arial, Helvetica, sans" font-size="10.00" fill="#000000">MeshHexDomain</text>
</a>
</g>
</g>
<!-- D_base&#45;&gt;MeshHexDomain -->
<g id="edge5" class="edge">
<title>D_base&#45;&gt;MeshHexDomain</title>
<path fill="none" stroke="#000000" stroke-width=".5" d="M54.0852,-178.8968C73.3142,-181.3084 99.7988,-184.6299 123.3913,-187.5887"/>
<polygon fill="#000000" stroke="#000000" stroke-width=".5" points="123.1992,-189.3282 128.3781,-188.2141 123.6348,-185.8554 123.1992,-189.3282"/>
</g>
<!-- MeshTetgenDomain -->
<g id="node8" class="node">
<title>MeshTetgenDomain</title>
<g id="a_node8"><a xlink:href="../api/proteus.Domain.html#proteus.Domain.MeshTetgenDomain" xlink:title="3D domains from tetgen mesh files" target="_top">
<polygon fill="none" stroke="#000000" stroke-width=".5" points="235,-167 122,-167 122,-148 235,-148 235,-167"/>
<text text-anchor="middle" x="178.5" y="-155" font-family="Vera Sans, DejaVu Sans, Liberation Sans, Arial, Helvetica, sans" font-size="10.00" fill="#000000">MeshTetgenDomain</text>
</a>
</g>
</g>
<!-- D_base&#45;&gt;MeshTetgenDomain -->
<g id="edge6" class="edge">
<title>D_base&#45;&gt;MeshTetgenDomain</title>
<path fill="none" stroke="#000000" stroke-width=".5" d="M54.0852,-172.282C71.4987,-170.213 94.8622,-167.4372 116.6397,-164.8497"/>
<polygon fill="#000000" stroke="#000000" stroke-width=".5" points="117.0843,-166.5593 121.8429,-164.2315 116.6713,-163.0838 117.0843,-166.5593"/>
</g>
<!-- PUMIDomain -->
<g id="node9" class="node">
<title>PUMIDomain</title>
<g id="a_node9"><a xlink:href="../api/proteus.Domain.html#proteus.Domain.PUMIDomain" xlink:title="3d domains from PUMI mesh files" target="_top">
<polygon fill="none" stroke="#000000" stroke-width=".5" points="218.5,-130 138.5,-130 138.5,-111 218.5,-111 218.5,-130"/>
<text text-anchor="middle" x="178.5" y="-118" font-family="Vera Sans, DejaVu Sans, Liberation Sans, Arial, Helvetica, sans" font-size="10.00" fill="#000000">PUMIDomain</text>
</a>
</g>
</g>
<!-- D_base&#45;&gt;PUMIDomain -->
<g id="edge7" class="edge">
<title>D_base&#45;&gt;PUMIDomain</title>
<path fill="none" stroke="#000000" stroke-width=".5" d="M40.8896,-165.89C53.259,-157.7492 72.1157,-146.3404 90,-139.5 103.5952,-134.3001 118.9381,-130.3757 132.9843,-127.4845"/>
<polygon fill="#000000" stroke="#000000" stroke-width=".5" points="133.5335,-129.1596 138.0949,-126.4657 132.8492,-125.7271 133.5335,-129.1596"/>
</g>
<!-- PiecewiseLinearComplexDomain -->
<g id="node10" class="node">
<title>PiecewiseLinearComplexDomain</title>
<g id="a_node10"><a xlink:href="../api/proteus.Domain.html#proteus.Domain.PiecewiseLinearComplexDomain" xlink:title="3D domains desribed by closed surfaces made up of general polygonal facets." target="_top">
<polygon fill="none" stroke="#000000" stroke-width=".5" points="267,-93 90,-93 90,-74 267,-74 267,-93"/>
<text text-anchor="middle" x="178.5" y="-81" font-family="Vera Sans, DejaVu Sans, Liberation Sans, Arial, Helvetica, sans" font-size="10.00" fill="#000000">PiecewiseLinearComplexDomain</text>
</a>
</g>
</g>
<!-- D_base&#45;&gt;PiecewiseLinearComplexDomain -->
<g id="edge8" class="edge">
<title>D_base&#45;&gt;PiecewiseLinearComplexDomain</title>
<path fill="none" stroke="#000000" stroke-width=".5" d="M32.3943,-165.9283C41.868,-150.0574 63.0715,-118.4643 90,-102.5 95.0692,-99.4948 100.5522,-96.9623 106.2191,-94.8286"/>
<polygon fill="#000000" stroke="#000000" stroke-width=".5" points="106.8891,-96.4479 111.0175,-93.1284 105.7202,-93.1489 106.8891,-96.4479"/>
</g>
<!-- RectangularDomain -->
<g id="node11" class="node">
<title>RectangularDomain</title>
<g id="a_node11"><a xlink:href="../api/proteus.Domain.html#proteus.Domain.RectangularDomain" xlink:title="Rectangular domains in 1,2, or 3D specified by the lower left hand corner and dimensions." target="_top">
<polygon fill="none" stroke="#000000" stroke-width=".5" points="235,-56 122,-56 122,-37 235,-37 235,-56"/>
<text text-anchor="middle" x="178.5" y="-44" font-family="Vera Sans, DejaVu Sans, Liberation Sans, Arial, Helvetica, sans" font-size="10.00" fill="#000000">RectangularDomain</text>
</a>
</g>
</g>
<!-- D_base&#45;&gt;RectangularDomain -->
<g id="edge10" class="edge">
<title>D_base&#45;&gt;RectangularDomain</title>
<path fill="none" stroke="#000000" stroke-width=".5" d="M29.6235,-165.7399C36.0002,-144.0003 54.4625,-91.4695 90,-65.5 97.8873,-59.7362 107.1626,-55.6513 116.6866,-52.7698"/>
<polygon fill="#000000" stroke="#000000" stroke-width=".5" points="117.3411,-54.4039 121.6837,-51.3701 116.397,-51.0336 117.3411,-54.4039"/>
</g>
<!-- TriangulatedSurfaceDomain -->
<g id="node12" class="node">
<title>TriangulatedSurfaceDomain</title>
<g id="a_node12"><a xlink:href="../api/proteus.Domain.html#proteus.Domain.TriangulatedSurfaceDomain" xlink:title="3D domains described by closed surfaces made up of triangular facets." target="_top">
<polygon fill="none" stroke="#000000" stroke-width=".5" points="254.5,-19 102.5,-19 102.5,0 254.5,0 254.5,-19"/>
<text text-anchor="middle" x="178.5" y="-7" font-family="Vera Sans, DejaVu Sans, Liberation Sans, Arial, Helvetica, sans" font-size="10.00" fill="#000000">TriangulatedSurfaceDomain</text>
</a>
</g>
</g>
<!-- D_base&#45;&gt;TriangulatedSurfaceDomain -->
<g id="edge11" class="edge">
<title>D_base&#45;&gt;TriangulatedSurfaceDomain</title>
<path fill="none" stroke="#000000" stroke-width=".5" d="M28.1111,-165.8052C31.689,-139.3068 45.4102,-65.2036 90,-28.5 93.3138,-25.7723 96.9279,-23.4103 100.7405,-21.3671"/>
<polygon fill="#000000" stroke="#000000" stroke-width=".5" points="101.5947,-22.897 105.3011,-19.1122 100.0434,-19.7596 101.5947,-22.897"/>
</g>
<!-- InterpolatedBathymetryDomain -->
<g id="node3" class="node">
<title>InterpolatedBathymetryDomain</title>
<g id="a_node3"><a xlink:href="../api/proteus.Domain.html#proteus.Domain.InterpolatedBathymetryDomain" xlink:title="2D domains with an attached bathymetry data set." target="_top">
<polygon fill="none" stroke="#000000" stroke-width=".5" points="475,-315 303,-315 303,-296 475,-296 475,-315"/>
<text text-anchor="middle" x="389" y="-303" font-family="Vera Sans, DejaVu Sans, Liberation Sans, Arial, Helvetica, sans" font-size="10.00" fill="#000000">InterpolatedBathymetryDomain</text>
</a>
</g>
</g>
<!-- PlanarStraightLineGraphDomain&#45;&gt;InterpolatedBathymetryDomain -->
<g id="edge2" class="edge">
<title>PlanarStraightLineGraphDomain&#45;&gt;InterpolatedBathymetryDomain</title>
<path fill="none" stroke="#000000" stroke-width=".5" d="M265.0297,-305.5C275.7491,-305.5 286.7363,-305.5 297.5269,-305.5"/>
<polygon fill="#000000" stroke="#000000" stroke-width=".5" points="297.8063,-307.2501 302.8063,-305.5 297.8062,-303.7501 297.8063,-307.2501"/>
</g>
</g>
</svg>
