<?xml version="1.0" encoding="UTF-8" standalone="no"?>
<!DOCTYPE svg PUBLIC "-//W3C//DTD SVG 1.1//EN"
 "http://www.w3.org/Graphics/SVG/1.1/DTD/svg11.dtd">
<!-- Generated by graphviz version 2.40.1 (20161225.0304)
 -->
<!-- Title: inheritanceb0b43b8140 Pages: 1 -->
<svg width="434pt" height="378pt"
 viewBox="0.00 0.00 434.00 378.00" xmlns="http://www.w3.org/2000/svg" xmlns:xlink="http://www.w3.org/1999/xlink">
<g id="graph0" class="graph" transform="scale(1 1) rotate(0) translate(4 374)">
<title>inheritanceb0b43b8140</title>
<polygon fill="#ffffff" stroke="transparent" points="-4,4 -4,-374 430,-374 430,4 -4,4"/>
<!-- InvOperatorShell -->
<g id="node1" class="node">
<title>InvOperatorShell</title>
<g id="a_node1"><a xlink:href="../api/proteus.LinearAlgebraTools.html#proteus.LinearAlgebraTools.InvOperatorShell" xlink:title="A base class for inverse operator shells" target="_top">
<polygon fill="none" stroke="#000000" stroke-width=".5" points="245,-93 147,-93 147,-74 245,-74 245,-93"/>
<text text-anchor="middle" x="196" y="-81" font-family="Vera Sans, DejaVu Sans, Liberation Sans, Arial, Helvetica, sans" font-size="10.00" fill="#000000">InvOperatorShell</text>
</a>
</g>
</g>
<!-- LSCInv_shell -->
<g id="node3" class="node">
<title>LSCInv_shell</title>
<g id="a_node3"><a xlink:href="../api/proteus.LinearAlgebraTools.html#proteus.LinearAlgebraTools.LSCInv_shell" xlink:title="Shell class for the LSC Inverse Preconditioner" target="_top">
<polygon fill="none" stroke="#000000" stroke-width=".5" points="398,-167 320,-167 320,-148 398,-148 398,-167"/>
<text text-anchor="middle" x="359" y="-155" font-family="Vera Sans, DejaVu Sans, Liberation Sans, Arial, Helvetica, sans" font-size="10.00" fill="#000000">LSCInv_shell</text>
</a>
</g>
</g>
<!-- InvOperatorShell&#45;&gt;LSCInv_shell -->
<g id="edge2" class="edge">
<title>InvOperatorShell&#45;&gt;LSCInv_shell</title>
<path fill="none" stroke="#000000" stroke-width=".5" d="M209.7018,-93.0769C227.8008,-105.3477 261.0153,-126.5724 292,-139.5 299.2721,-142.5341 307.203,-145.193 314.9811,-147.4703"/>
<polygon fill="#000000" stroke="#000000" stroke-width=".5" points="314.509,-149.1554 319.797,-148.8389 315.4658,-145.7887 314.509,-149.1554"/>
</g>
<!-- MatrixInvShell -->
<g id="node6" class="node">
<title>MatrixInvShell</title>
<g id="a_node6"><a xlink:href="../api/proteus.LinearAlgebraTools.html#proteus.LinearAlgebraTools.MatrixInvShell" xlink:title="A PETSc shell class for a inverse operator." target="_top">
<polygon fill="none" stroke="#000000" stroke-width=".5" points="402,-130 316,-130 316,-111 402,-111 402,-130"/>
<text text-anchor="middle" x="359" y="-118" font-family="Vera Sans, DejaVu Sans, Liberation Sans, Arial, Helvetica, sans" font-size="10.00" fill="#000000">MatrixInvShell</text>
</a>
</g>
</g>
<!-- InvOperatorShell&#45;&gt;MatrixInvShell -->
<g id="edge4" class="edge">
<title>InvOperatorShell&#45;&gt;MatrixInvShell</title>
<path fill="none" stroke="#000000" stroke-width=".5" d="M237.9766,-93.0284C260.6089,-98.1658 288.6067,-104.5211 311.971,-109.8247"/>
<polygon fill="#000000" stroke="#000000" stroke-width=".5" points="311.6193,-111.5393 316.8827,-110.9396 312.3942,-108.1262 311.6193,-111.5393"/>
</g>
<!-- SpInv_shell -->
<g id="node14" class="node">
<title>SpInv_shell</title>
<g id="a_node14"><a xlink:href="../api/proteus.LinearAlgebraTools.html#proteus.LinearAlgebraTools.SpInv_shell" xlink:title="Shell class for the SIMPLE preconditioner which applies the" target="_top">
<polygon fill="none" stroke="#000000" stroke-width=".5" points="395,-93 323,-93 323,-74 395,-74 395,-93"/>
<text text-anchor="middle" x="359" y="-81" font-family="Vera Sans, DejaVu Sans, Liberation Sans, Arial, Helvetica, sans" font-size="10.00" fill="#000000">SpInv_shell</text>
</a>
</g>
</g>
<!-- InvOperatorShell&#45;&gt;SpInv_shell -->
<g id="edge9" class="edge">
<title>InvOperatorShell&#45;&gt;SpInv_shell</title>
<path fill="none" stroke="#000000" stroke-width=".5" d="M245.3477,-83.5C268.4224,-83.5 295.5922,-83.5 317.5799,-83.5"/>
<polygon fill="#000000" stroke="#000000" stroke-width=".5" points="317.7634,-85.2501 322.7634,-83.5 317.7633,-81.7501 317.7634,-85.2501"/>
</g>
<!-- TwoPhase_PCDInv_shell -->
<g id="node16" class="node">
<title>TwoPhase_PCDInv_shell</title>
<g id="a_node16"><a xlink:href="../api/proteus.LinearAlgebraTools.html#proteus.LinearAlgebraTools.TwoPhase_PCDInv_shell" xlink:title="Shell class for the two&#45;phase PCD preconditioner. &#160;The" target="_top">
<polygon fill="none" stroke="#000000" stroke-width=".5" points="426,-56 292,-56 292,-37 426,-37 426,-56"/>
<text text-anchor="middle" x="359" y="-44" font-family="Vera Sans, DejaVu Sans, Liberation Sans, Arial, Helvetica, sans" font-size="10.00" fill="#000000">TwoPhase_PCDInv_shell</text>
</a>
</g>
</g>
<!-- InvOperatorShell&#45;&gt;TwoPhase_PCDInv_shell -->
<g id="edge10" class="edge">
<title>InvOperatorShell&#45;&gt;TwoPhase_PCDInv_shell</title>
<path fill="none" stroke="#000000" stroke-width=".5" d="M237.9766,-73.9716C260.6089,-68.8342 288.6067,-62.4789 311.971,-57.1753"/>
<polygon fill="#000000" stroke="#000000" stroke-width=".5" points="312.3942,-58.8738 316.8827,-56.0604 311.6193,-55.4607 312.3942,-58.8738"/>
</g>
<!-- OperatorShell -->
<g id="node2" class="node">
<title>OperatorShell</title>
<g id="a_node2"><a xlink:href="../api/proteus.LinearAlgebraTools.html#proteus.LinearAlgebraTools.OperatorShell" xlink:title="A base class for operator shells" target="_top">
<polygon fill="none" stroke="#000000" stroke-width=".5" points="91.5,-75 8.5,-75 8.5,-56 91.5,-56 91.5,-75"/>
<text text-anchor="middle" x="50" y="-63" font-family="Vera Sans, DejaVu Sans, Liberation Sans, Arial, Helvetica, sans" font-size="10.00" fill="#000000">OperatorShell</text>
</a>
</g>
</g>
<!-- OperatorShell&#45;&gt;InvOperatorShell -->
<g id="edge1" class="edge">
<title>OperatorShell&#45;&gt;InvOperatorShell</title>
<path fill="none" stroke="#000000" stroke-width=".5" d="M91.8377,-70.6581C107.4159,-72.5787 125.3248,-74.7866 141.8503,-76.824"/>
<polygon fill="#000000" stroke="#000000" stroke-width=".5" points="141.7537,-78.5753 146.9303,-77.4503 142.182,-75.1016 141.7537,-78.5753"/>
</g>
<!-- ProductOperatorShell -->
<g id="node8" class="node">
<title>ProductOperatorShell</title>
<g id="a_node8"><a xlink:href="../api/proteus.LinearAlgebraTools.html#proteus.LinearAlgebraTools.ProductOperatorShell" xlink:title="A base class for shell operators that apply multiplcation." target="_top">
<polygon fill="none" stroke="#000000" stroke-width=".5" points="256,-38 136,-38 136,-19 256,-19 256,-38"/>
<text text-anchor="middle" x="196" y="-26" font-family="Vera Sans, DejaVu Sans, Liberation Sans, Arial, Helvetica, sans" font-size="10.00" fill="#000000">ProductOperatorShell</text>
</a>
</g>
</g>
<!-- OperatorShell&#45;&gt;ProductOperatorShell -->
<g id="edge8" class="edge">
<title>OperatorShell&#45;&gt;ProductOperatorShell</title>
<path fill="none" stroke="#000000" stroke-width=".5" d="M87.5986,-55.9716C107.7009,-50.8772 132.5289,-44.5851 153.3496,-39.3087"/>
<polygon fill="#000000" stroke="#000000" stroke-width=".5" points="153.8585,-40.9851 158.2753,-38.0604 152.9986,-37.5924 153.8585,-40.9851"/>
</g>
<!-- Mat -->
<g id="node4" class="node">
<title>Mat</title>
<polygon fill="none" stroke="#000000" stroke-width=".5" points="223,-241 169,-241 169,-222 223,-222 223,-241"/>
<text text-anchor="middle" x="196" y="-229" font-family="Vera Sans, DejaVu Sans, Liberation Sans, Arial, Helvetica, sans" font-size="10.00" fill="#000000">Mat</text>
</g>
<!-- ParMat_petsc4py -->
<g id="node10" class="node">
<title>ParMat_petsc4py</title>
<g id="a_node10"><a xlink:href="../api/proteus.LinearAlgebraTools.html#proteus.LinearAlgebraTools.ParMat_petsc4py" xlink:title="Parallel matrix based on petsc4py&#39;s wrappers for PETSc." target="_top">
<polygon fill="none" stroke="#000000" stroke-width=".5" points="408.5,-241 309.5,-241 309.5,-222 408.5,-222 408.5,-241"/>
<text text-anchor="middle" x="359" y="-229" font-family="Vera Sans, DejaVu Sans, Liberation Sans, Arial, Helvetica, sans" font-size="10.00" fill="#000000">ParMat_petsc4py</text>
</a>
</g>
</g>
<!-- Mat&#45;&gt;ParMat_petsc4py -->
<g id="edge6" class="edge">
<title>Mat&#45;&gt;ParMat_petsc4py</title>
<path fill="none" stroke="#000000" stroke-width=".5" d="M223.2825,-231.5C245.2948,-231.5 276.9641,-231.5 304.1747,-231.5"/>
<polygon fill="#000000" stroke="#000000" stroke-width=".5" points="304.2003,-233.2501 309.2003,-231.5 304.2002,-229.7501 304.2003,-233.2501"/>
</g>
<!-- Object -->
<g id="node5" class="node">
<title>Object</title>
<polygon fill="none" stroke="#000000" stroke-width=".5" points="77,-222 23,-222 23,-203 77,-203 77,-222"/>
<text text-anchor="middle" x="50" y="-210" font-family="Vera Sans, DejaVu Sans, Liberation Sans, Arial, Helvetica, sans" font-size="10.00" fill="#000000">Object</text>
</g>
<!-- Object&#45;&gt;Mat -->
<g id="edge3" class="edge">
<title>Object&#45;&gt;Mat</title>
<path fill="none" stroke="#000000" stroke-width=".5" d="M77.1193,-216.0292C101.5496,-219.2085 137.509,-223.8882 163.4766,-227.2675"/>
<polygon fill="#000000" stroke="#000000" stroke-width=".5" points="163.3464,-229.0152 168.5305,-227.9252 163.7982,-225.5445 163.3464,-229.0152"/>
</g>
<!-- Vec -->
<g id="node13" class="node">
<title>Vec</title>
<polygon fill="none" stroke="#000000" stroke-width=".5" points="223,-204 169,-204 169,-185 223,-185 223,-204"/>
<text text-anchor="middle" x="196" y="-192" font-family="Vera Sans, DejaVu Sans, Liberation Sans, Arial, Helvetica, sans" font-size="10.00" fill="#000000">Vec</text>
</g>
<!-- Object&#45;&gt;Vec -->
<g id="edge11" class="edge">
<title>Object&#45;&gt;Vec</title>
<path fill="none" stroke="#000000" stroke-width=".5" d="M77.1193,-209.1565C101.5496,-206.1446 137.509,-201.7112 163.4766,-198.5097"/>
<polygon fill="#000000" stroke="#000000" stroke-width=".5" points="163.7822,-200.2354 168.5305,-197.8867 163.3539,-196.7617 163.7822,-200.2354"/>
</g>
<!-- MatrixShell -->
<g id="node7" class="node">
<title>MatrixShell</title>
<g id="a_node7"><a xlink:href="../api/proteus.LinearAlgebraTools.html#proteus.LinearAlgebraTools.MatrixShell" xlink:title="A shell class for a matrix." target="_top">
<polygon fill="none" stroke="#000000" stroke-width=".5" points="394.5,-19 323.5,-19 323.5,0 394.5,0 394.5,-19"/>
<text text-anchor="middle" x="359" y="-7" font-family="Vera Sans, DejaVu Sans, Liberation Sans, Arial, Helvetica, sans" font-size="10.00" fill="#000000">MatrixShell</text>
</a>
</g>
</g>
<!-- ProductOperatorShell&#45;&gt;MatrixShell -->
<g id="edge5" class="edge">
<title>ProductOperatorShell&#45;&gt;MatrixShell</title>
<path fill="none" stroke="#000000" stroke-width=".5" d="M256.2321,-21.4791C276.7901,-19.0828 299.2893,-16.4601 317.9808,-14.2814"/>
<polygon fill="#000000" stroke="#000000" stroke-width=".5" points="318.3833,-15.9964 323.147,-13.6792 317.978,-12.5199 318.3833,-15.9964"/>
</g>
<!-- ParInfo_petsc4py -->
<g id="node9" class="node">
<title>ParInfo_petsc4py</title>
<g id="a_node9"><a xlink:href="../api/proteus.LinearAlgebraTools.html#proteus.LinearAlgebraTools.ParInfo_petsc4py" xlink:title="ARB &#45; this class is experimental. &#160;My idea is to store the" target="_top">
<polygon fill="none" stroke="#000000" stroke-width=".5" points="100,-259 0,-259 0,-240 100,-240 100,-259"/>
<text text-anchor="middle" x="50" y="-247" font-family="Vera Sans, DejaVu Sans, Liberation Sans, Arial, Helvetica, sans" font-size="10.00" fill="#000000">ParInfo_petsc4py</text>
</a>
</g>
</g>
<!-- ParVec -->
<g id="node11" class="node">
<title>ParVec</title>
<g id="a_node11"><a xlink:href="../api/proteus.LinearAlgebraTools.html#proteus.LinearAlgebraTools.ParVec" xlink:title="A parallel vector built on top of daetk&#39;s wrappers for petsc" target="_top">
<polygon fill="none" stroke="#000000" stroke-width=".5" points="77,-296 23,-296 23,-277 77,-277 77,-296"/>
<text text-anchor="middle" x="50" y="-284" font-family="Vera Sans, DejaVu Sans, Liberation Sans, Arial, Helvetica, sans" font-size="10.00" fill="#000000">ParVec</text>
</a>
</g>
</g>
<!-- ParVec_petsc4py -->
<g id="node12" class="node">
<title>ParVec_petsc4py</title>
<g id="a_node12"><a xlink:href="../api/proteus.LinearAlgebraTools.html#proteus.LinearAlgebraTools.ParVec_petsc4py" xlink:title="Parallel vector using petsc4py&#39;s wrappers for PETSc" target="_top">
<polygon fill="none" stroke="#000000" stroke-width=".5" points="408,-204 310,-204 310,-185 408,-185 408,-204"/>
<text text-anchor="middle" x="359" y="-192" font-family="Vera Sans, DejaVu Sans, Liberation Sans, Arial, Helvetica, sans" font-size="10.00" fill="#000000">ParVec_petsc4py</text>
</a>
</g>
</g>
<!-- Vec&#45;&gt;ParVec_petsc4py -->
<g id="edge7" class="edge">
<title>Vec&#45;&gt;ParVec_petsc4py</title>
<path fill="none" stroke="#000000" stroke-width=".5" d="M223.2825,-194.5C245.4654,-194.5 277.4557,-194.5 304.8067,-194.5"/>
<polygon fill="#000000" stroke="#000000" stroke-width=".5" points="304.8563,-196.2501 309.8563,-194.5 304.8563,-192.7501 304.8563,-196.2501"/>
</g>
<!-- SparseMatShell -->
<g id="node15" class="node">
<title>SparseMatShell</title>
<g id="a_node15"><a xlink:href="../api/proteus.LinearAlgebraTools.html#proteus.LinearAlgebraTools.SparseMatShell" xlink:title="Build a parallel matrix shell from CSR data structures." target="_top">
<polygon fill="none" stroke="#000000" stroke-width=".5" points="96,-333 4,-333 4,-314 96,-314 96,-333"/>
<text text-anchor="middle" x="50" y="-321" font-family="Vera Sans, DejaVu Sans, Liberation Sans, Arial, Helvetica, sans" font-size="10.00" fill="#000000">SparseMatShell</text>
</a>
</g>
</g>
<!-- WeightedNorm -->
<g id="node17" class="node">
<title>WeightedNorm</title>
<g id="a_node17"><a xlink:href="../api/proteus.LinearAlgebraTools.html#proteus.LinearAlgebraTools.WeightedNorm" xlink:title="Compute the weighted norm for time step control (not currently parallel)" target="_top">
<polygon fill="none" stroke="#000000" stroke-width=".5" points="94.5,-370 5.5,-370 5.5,-351 94.5,-351 94.5,-370"/>
<text text-anchor="middle" x="50" y="-358" font-family="Vera Sans, DejaVu Sans, Liberation Sans, Arial, Helvetica, sans" font-size="10.00" fill="#000000">WeightedNorm</text>
</a>
</g>
</g>
</g>
</svg>
