<?xml version="1.0" encoding="UTF-8" standalone="no"?>
<!DOCTYPE svg PUBLIC "-//W3C//DTD SVG 1.1//EN"
 "http://www.w3.org/Graphics/SVG/1.1/DTD/svg11.dtd">
<!-- Generated by graphviz version 2.38.0 (20140413.2041)
 -->
<!-- Title: inheritancecb50c7d34c Pages: 1 -->
<svg width="498pt" height="323pt"
 viewBox="0.00 0.00 498.00 323.00" xmlns="http://www.w3.org/2000/svg" xmlns:xlink="http://www.w3.org/1999/xlink">
<g id="graph0" class="graph" transform="scale(1 1) rotate(0) translate(4 319)">
<title>inheritancecb50c7d34c</title>
<polygon fill="white" stroke="none" points="-4,4 -4,-319 494,-319 494,4 -4,4"/>
<!-- D_base -->
<g id="node1" class="node"><title>D_base</title>
<g id="a_node1"><a xlink:href="../api/proteus.Domain.html#proteus.Domain.D_base" xlink:title="The base class for domains" target="_top">
<polygon fill="none" stroke="black" stroke-width="0.5" points="66.5,-167 12.5,-167 12.5,-148 66.5,-148 66.5,-167"/>
<text text-anchor="middle" x="39.5" y="-155" font-family="Vera Sans, DejaVu Sans, Liberation Sans, Arial, Helvetica, sans" font-size="10.00">D_base</text>
</a>
</g>
</g>
<!-- GMSH_3D_Domain -->
<g id="node2" class="node"><title>GMSH_3D_Domain</title>
<g id="a_node2"><a xlink:href="../api/proteus.Domain.html#proteus.Domain.GMSH_3D_Domain" xlink:title="A domain described by a gmsh .geo file" target="_top">
<polygon fill="none" stroke="black" stroke-width="0.5" points="254.5,-315 146.5,-315 146.5,-296 254.5,-296 254.5,-315"/>
<text text-anchor="middle" x="200.5" y="-303" font-family="Vera Sans, DejaVu Sans, Liberation Sans, Arial, Helvetica, sans" font-size="10.00">GMSH_3D_Domain</text>
</a>
</g>
</g>
<!-- D_base&#45;&gt;GMSH_3D_Domain -->
<g id="edge1" class="edge"><title>D_base&#45;&gt;GMSH_3D_Domain</title>
<path fill="none" stroke="black" stroke-width="0.5" d="M66.5337,-166.765C71.1622,-169.344 75.5872,-172.553 79,-176.5 112.924,-215.73 76.4752,-252.778 115,-287.5 122.401,-294.17 131.649,-298.591 141.289,-301.48"/>
<polygon fill="black" stroke="black" stroke-width="0.5" points="141.074,-303.235 146.358,-302.855 141.991,-299.857 141.074,-303.235"/>
</g>
<!-- PlanarStraightLineGraphDomain -->
<g id="node4" class="node"><title>PlanarStraightLineGraphDomain</title>
<g id="a_node4"><a xlink:href="../api/proteus.Domain.html#proteus.Domain.PlanarStraightLineGraphDomain" xlink:title="2D domains described by planar straight line graphs." target="_top">
<polygon fill="none" stroke="black" stroke-width="0.5" points="286,-278 115,-278 115,-259 286,-259 286,-278"/>
<text text-anchor="middle" x="200.5" y="-266" font-family="Vera Sans, DejaVu Sans, Liberation Sans, Arial, Helvetica, sans" font-size="10.00">PlanarStraightLineGraphDomain</text>
</a>
</g>
</g>
<!-- D_base&#45;&gt;PlanarStraightLineGraphDomain -->
<g id="edge8" class="edge"><title>D_base&#45;&gt;PlanarStraightLineGraphDomain</title>
<path fill="none" stroke="black" stroke-width="0.5" d="M66.1123,-167.156C70.7755,-169.703 75.3211,-172.8 79,-176.5 104.789,-202.435 86.1954,-227.962 115,-250.5 117.924,-252.788 121.072,-254.801 124.374,-256.572"/>
<polygon fill="black" stroke="black" stroke-width="0.5" points="123.707,-258.195 128.965,-258.84 125.257,-255.057 123.707,-258.195"/>
</g>
<!-- Mesh2DMDomain -->
<g id="node5" class="node"><title>Mesh2DMDomain</title>
<g id="a_node5"><a xlink:href="../api/proteus.Domain.html#proteus.Domain.Mesh2DMDomain" xlink:title="2D domains from ADH mesh files" target="_top">
<polygon fill="none" stroke="black" stroke-width="0.5" points="251,-241 150,-241 150,-222 251,-222 251,-241"/>
<text text-anchor="middle" x="200.5" y="-229" font-family="Vera Sans, DejaVu Sans, Liberation Sans, Arial, Helvetica, sans" font-size="10.00">Mesh2DMDomain</text>
</a>
</g>
</g>
<!-- D_base&#45;&gt;Mesh2DMDomain -->
<g id="edge3" class="edge"><title>D_base&#45;&gt;Mesh2DMDomain</title>
<path fill="none" stroke="black" stroke-width="0.5" d="M63.2324,-167.12C68.6092,-169.822 74.1775,-172.993 79,-176.5 97.5559,-189.994 94.9145,-202.41 115,-213.5 124.14,-218.547 134.557,-222.18 144.881,-224.795"/>
<polygon fill="black" stroke="black" stroke-width="0.5" points="144.666,-226.542 149.936,-225.998 145.477,-223.138 144.666,-226.542"/>
</g>
<!-- Mesh3DMDomain -->
<g id="node6" class="node"><title>Mesh3DMDomain</title>
<g id="a_node6"><a xlink:href="../api/proteus.Domain.html#proteus.Domain.Mesh3DMDomain" xlink:title="3D domains from ADH mesh files" target="_top">
<polygon fill="none" stroke="black" stroke-width="0.5" points="251,-204 150,-204 150,-185 251,-185 251,-204"/>
<text text-anchor="middle" x="200.5" y="-192" font-family="Vera Sans, DejaVu Sans, Liberation Sans, Arial, Helvetica, sans" font-size="10.00">Mesh3DMDomain</text>
</a>
</g>
</g>
<!-- D_base&#45;&gt;Mesh3DMDomain -->
<g id="edge4" class="edge"><title>D_base&#45;&gt;Mesh3DMDomain</title>
<path fill="none" stroke="black" stroke-width="0.5" d="M66.6409,-164.438C80.9008,-168.154 98.8835,-172.73 115,-176.5 125.639,-178.989 137.065,-181.519 147.969,-183.865"/>
<polygon fill="black" stroke="black" stroke-width="0.5" points="147.681,-185.593 152.937,-184.929 148.415,-182.17 147.681,-185.593"/>
</g>
<!-- MeshHexDomain -->
<g id="node7" class="node"><title>MeshHexDomain</title>
<g id="a_node7"><a xlink:href="../api/proteus.Domain.html#proteus.Domain.MeshHexDomain" xlink:title="3D domains from Hex mesh files" target="_top">
<polygon fill="none" stroke="black" stroke-width="0.5" points="249.5,-167 151.5,-167 151.5,-148 249.5,-148 249.5,-167"/>
<text text-anchor="middle" x="200.5" y="-155" font-family="Vera Sans, DejaVu Sans, Liberation Sans, Arial, Helvetica, sans" font-size="10.00">MeshHexDomain</text>
</a>
</g>
</g>
<!-- D_base&#45;&gt;MeshHexDomain -->
<g id="edge5" class="edge"><title>D_base&#45;&gt;MeshHexDomain</title>
<path fill="none" stroke="black" stroke-width="0.5" d="M66.7556,-157.5C88.2553,-157.5 119.37,-157.5 146.072,-157.5"/>
<polygon fill="black" stroke="black" stroke-width="0.5" points="146.35,-159.25 151.35,-157.5 146.35,-155.75 146.35,-159.25"/>
</g>
<!-- MeshTetgenDomain -->
<g id="node9" class="node"><title>MeshTetgenDomain</title>
<g id="a_node9"><a xlink:href="../api/proteus.Domain.html#proteus.Domain.MeshTetgenDomain" xlink:title="3D domains from tetgen mesh files" target="_top">
<polygon fill="none" stroke="black" stroke-width="0.5" points="256,-130 145,-130 145,-111 256,-111 256,-130"/>
<text text-anchor="middle" x="200.5" y="-118" font-family="Vera Sans, DejaVu Sans, Liberation Sans, Arial, Helvetica, sans" font-size="10.00">MeshTetgenDomain</text>
</a>
</g>
</g>
<!-- D_base&#45;&gt;MeshTetgenDomain -->
<g id="edge6" class="edge"><title>D_base&#45;&gt;MeshTetgenDomain</title>
<path fill="none" stroke="black" stroke-width="0.5" d="M66.6792,-151.067C80.9503,-147.588 98.9315,-143.247 115,-139.5 126.788,-136.751 139.518,-133.852 151.432,-131.169"/>
<polygon fill="black" stroke="black" stroke-width="0.5" points="151.988,-132.838 156.482,-130.034 151.22,-129.423 151.988,-132.838"/>
</g>
<!-- PiecewiseLinearComplexDomain -->
<g id="node10" class="node"><title>PiecewiseLinearComplexDomain</title>
<g id="a_node10"><a xlink:href="../api/proteus.Domain.html#proteus.Domain.PiecewiseLinearComplexDomain" xlink:title="3D domains desribed by closed surfaces made up of general polygonal facets." target="_top">
<polygon fill="none" stroke="black" stroke-width="0.5" points="286,-93 115,-93 115,-74 286,-74 286,-93"/>
<text text-anchor="middle" x="200.5" y="-81" font-family="Vera Sans, DejaVu Sans, Liberation Sans, Arial, Helvetica, sans" font-size="10.00">PiecewiseLinearComplexDomain</text>
</a>
</g>
</g>
<!-- D_base&#45;&gt;PiecewiseLinearComplexDomain -->
<g id="edge7" class="edge"><title>D_base&#45;&gt;PiecewiseLinearComplexDomain</title>
<path fill="none" stroke="black" stroke-width="0.5" d="M50.7027,-147.764C64.2828,-135.356 89.5561,-114.125 115,-102.5 121.89,-99.3523 129.34,-96.7077 136.863,-94.4901"/>
<polygon fill="black" stroke="black" stroke-width="0.5" points="137.738,-96.0617 142.077,-93.0221 136.79,-92.6927 137.738,-96.0617"/>
</g>
<!-- RectangularDomain -->
<g id="node11" class="node"><title>RectangularDomain</title>
<g id="a_node11"><a xlink:href="../api/proteus.Domain.html#proteus.Domain.RectangularDomain" xlink:title="Rectangular domains in 1,2, or 3D specified by the lower left hand corner and dimensions." target="_top">
<polygon fill="none" stroke="black" stroke-width="0.5" points="255.5,-56 145.5,-56 145.5,-37 255.5,-37 255.5,-56"/>
<text text-anchor="middle" x="200.5" y="-44" font-family="Vera Sans, DejaVu Sans, Liberation Sans, Arial, Helvetica, sans" font-size="10.00">RectangularDomain</text>
</a>
</g>
</g>
<!-- D_base&#45;&gt;RectangularDomain -->
<g id="edge9" class="edge"><title>D_base&#45;&gt;RectangularDomain</title>
<path fill="none" stroke="black" stroke-width="0.5" d="M45.3745,-147.92C55.548,-128.955 80.952,-86.6404 115,-65.5 122.653,-60.7485 131.351,-57.1803 140.186,-54.5019"/>
<polygon fill="black" stroke="black" stroke-width="0.5" points="140.773,-56.1546 145.103,-53.1035 139.815,-52.7881 140.773,-56.1546"/>
</g>
<!-- TriangulatedSurfaceDomain -->
<g id="node12" class="node"><title>TriangulatedSurfaceDomain</title>
<g id="a_node12"><a xlink:href="../api/proteus.Domain.html#proteus.Domain.TriangulatedSurfaceDomain" xlink:title="3D domains described by closed surfaces made up of triangular facets." target="_top">
<polygon fill="none" stroke="black" stroke-width="0.5" points="275,-19 126,-19 126,-0 275,-0 275,-19"/>
<text text-anchor="middle" x="200.5" y="-7" font-family="Vera Sans, DejaVu Sans, Liberation Sans, Arial, Helvetica, sans" font-size="10.00">TriangulatedSurfaceDomain</text>
</a>
</g>
</g>
<!-- D_base&#45;&gt;TriangulatedSurfaceDomain -->
<g id="edge10" class="edge"><title>D_base&#45;&gt;TriangulatedSurfaceDomain</title>
<path fill="none" stroke="black" stroke-width="0.5" d="M43.1069,-147.921C50.2093,-123.737 72.2892,-59.9115 115,-28.5 118.825,-25.6868 122.992,-23.2786 127.359,-21.2181"/>
<polygon fill="black" stroke="black" stroke-width="0.5" points="128.288,-22.722 132.169,-19.1162 126.886,-19.5149 128.288,-22.722"/>
</g>
<!-- InterpolatedBathymetryDomain -->
<g id="node3" class="node"><title>InterpolatedBathymetryDomain</title>
<g id="a_node3"><a xlink:href="../api/proteus.Domain.html#proteus.Domain.InterpolatedBathymetryDomain" xlink:title="2D domains with an attached bathymetry data set." target="_top">
<polygon fill="none" stroke="black" stroke-width="0.5" points="490,-278 322,-278 322,-259 490,-259 490,-278"/>
<text text-anchor="middle" x="406" y="-266" font-family="Vera Sans, DejaVu Sans, Liberation Sans, Arial, Helvetica, sans" font-size="10.00">InterpolatedBathymetryDomain</text>
</a>
</g>
</g>
<!-- PlanarStraightLineGraphDomain&#45;&gt;InterpolatedBathymetryDomain -->
<g id="edge2" class="edge"><title>PlanarStraightLineGraphDomain&#45;&gt;InterpolatedBathymetryDomain</title>
<path fill="none" stroke="black" stroke-width="0.5" d="M286.034,-268.5C296.078,-268.5 306.351,-268.5 316.448,-268.5"/>
<polygon fill="black" stroke="black" stroke-width="0.5" points="316.71,-270.25 321.71,-268.5 316.71,-266.75 316.71,-270.25"/>
</g>
<!-- MeshOptions -->
<g id="node8" class="node"><title>MeshOptions</title>
<g id="a_node8"><a xlink:href="../api/proteus.Domain.html#proteus.Domain.MeshOptions" xlink:title="Mesh options for the domain" target="_top">
<polygon fill="none" stroke="black" stroke-width="0.5" points="79,-204 7.10543e-15,-204 7.10543e-15,-185 79,-185 79,-204"/>
<text text-anchor="middle" x="39.5" y="-192" font-family="Vera Sans, DejaVu Sans, Liberation Sans, Arial, Helvetica, sans" font-size="10.00">MeshOptions</text>
</a>
</g>
</g>
</g>
</svg>
