<?xml version="1.0" encoding="UTF-8" standalone="no"?>
<!DOCTYPE svg PUBLIC "-//W3C//DTD SVG 1.1//EN"
 "http://www.w3.org/Graphics/SVG/1.1/DTD/svg11.dtd">
<!-- Generated by graphviz version 2.42.3 (0)
 -->
<!-- Title: inheritance0624bf74da Pages: 1 -->
<svg width="576pt" height="473pt"
 viewBox="0.00 0.00 576.00 472.71" xmlns="http://www.w3.org/2000/svg" xmlns:xlink="http://www.w3.org/1999/xlink">
<g id="graph0" class="graph" transform="scale(1.07 1.07) rotate(0) translate(4 504)">
<title>inheritance0624bf74da</title>
<polygon fill="white" stroke="transparent" points="-4,4 -4,-504 615,-504 615,4 -4,4"/>
<!-- AddedMassNewton -->
<g id="node1" class="node">
<title>AddedMassNewton</title>
<g id="a_node1"><a xlink:href="../api/proteus.NonlinearSolvers.html#proteus.NonlinearSolvers.AddedMassNewton" xlink:title="AddedMassNewton" target="_top">
<polygon fill="none" stroke="black" stroke-width="0.5" points="512.5,-500 402.5,-500 402.5,-481 512.5,-481 512.5,-500"/>
<text text-anchor="middle" x="457.5" y="-488" font-family="Vera Sans, DejaVu Sans, Liberation Sans, Arial, Helvetica, sans" font-size="10.00">AddedMassNewton</text>
</a>
</g>
</g>
<!-- Newton -->
<g id="node2" class="node">
<title>Newton</title>
<g id="a_node2"><a xlink:href="../api/proteus.NonlinearSolvers.html#proteus.NonlinearSolvers.Newton" xlink:title="A simple iterative solver that is Newton&#39;s method" target="_top">
<polygon fill="none" stroke="black" stroke-width="0.5" points="250.5,-259 196.5,-259 196.5,-240 250.5,-240 250.5,-259"/>
<text text-anchor="middle" x="223.5" y="-247" font-family="Vera Sans, DejaVu Sans, Liberation Sans, Arial, Helvetica, sans" font-size="10.00">Newton</text>
</a>
</g>
</g>
<!-- Newton&#45;&gt;AddedMassNewton -->
<g id="edge1" class="edge">
<title>Newton&#45;&gt;AddedMassNewton</title>
<path fill="none" stroke="black" stroke-width="0.5" d="M250.77,-256.14C257.27,-258.96 263.62,-262.93 268,-268.5 324.94,-340.85 237.06,-409.29 304,-472.5 328.38,-495.52 365.61,-500.27 397.18,-499.14"/>
<polygon fill="black" stroke="black" stroke-width="0.5" points="397.29,-500.89 402.2,-498.91 397.13,-497.39 397.29,-500.89"/>
</g>
<!-- CLSVOFNewton -->
<g id="node3" class="node">
<title>CLSVOFNewton</title>
<g id="a_node3"><a xlink:href="../api/proteus.NonlinearSolvers.html#proteus.NonlinearSolvers.CLSVOFNewton" xlink:title="CLSVOFNewton" target="_top">
<polygon fill="none" stroke="black" stroke-width="0.5" points="503.5,-463 411.5,-463 411.5,-444 503.5,-444 503.5,-463"/>
<text text-anchor="middle" x="457.5" y="-451" font-family="Vera Sans, DejaVu Sans, Liberation Sans, Arial, Helvetica, sans" font-size="10.00">CLSVOFNewton</text>
</a>
</g>
</g>
<!-- Newton&#45;&gt;CLSVOFNewton -->
<g id="edge2" class="edge">
<title>Newton&#45;&gt;CLSVOFNewton</title>
<path fill="none" stroke="black" stroke-width="0.5" d="M250.63,-256.25C257.13,-259.07 263.51,-263.01 268,-268.5 316.08,-327.27 247.83,-384.42 304,-435.5 331.15,-460.19 373.18,-463.53 406.25,-461.35"/>
<polygon fill="black" stroke="black" stroke-width="0.5" points="406.63,-463.07 411.48,-460.95 406.36,-459.58 406.63,-463.07"/>
</g>
<!-- ExplicitConsistentMassMatrixForVOF -->
<g id="node4" class="node">
<title>ExplicitConsistentMassMatrixForVOF</title>
<g id="a_node4"><a xlink:href="../api/proteus.NonlinearSolvers.html#proteus.NonlinearSolvers.ExplicitConsistentMassMatrixForVOF" xlink:title="This is a fake solver meant to be used with optimized code" target="_top">
<polygon fill="none" stroke="black" stroke-width="0.5" points="556,-426 359,-426 359,-407 556,-407 556,-426"/>
<text text-anchor="middle" x="457.5" y="-414" font-family="Vera Sans, DejaVu Sans, Liberation Sans, Arial, Helvetica, sans" font-size="10.00">ExplicitConsistentMassMatrixForVOF</text>
</a>
</g>
</g>
<!-- Newton&#45;&gt;ExplicitConsistentMassMatrixForVOF -->
<g id="edge3" class="edge">
<title>Newton&#45;&gt;ExplicitConsistentMassMatrixForVOF</title>
<path fill="none" stroke="black" stroke-width="0.5" d="M250.88,-256.62C257.22,-259.43 263.46,-263.27 268,-268.5 307.29,-313.79 258.5,-359.46 304,-398.5 317.96,-410.48 335.48,-417.31 353.62,-420.89"/>
<polygon fill="black" stroke="black" stroke-width="0.5" points="353.52,-422.65 358.75,-421.82 354.14,-419.21 353.52,-422.65"/>
</g>
<!-- ExplicitConsistentMassMatrixShallowWaterEquationsSolver -->
<g id="node5" class="node">
<title>ExplicitConsistentMassMatrixShallowWaterEquationsSolver</title>
<g id="a_node5"><a xlink:href="../api/proteus.NonlinearSolvers.html#proteus.NonlinearSolvers.ExplicitConsistentMassMatrixShallowWaterEquationsSolver" xlink:title="This is a fake solver meant to be used with optimized code" target="_top">
<polygon fill="none" stroke="black" stroke-width="0.5" points="611,-389 304,-389 304,-370 611,-370 611,-389"/>
<text text-anchor="middle" x="457.5" y="-377" font-family="Vera Sans, DejaVu Sans, Liberation Sans, Arial, Helvetica, sans" font-size="10.00">ExplicitConsistentMassMatrixShallowWaterEquationsSolver</text>
</a>
</g>
</g>
<!-- Newton&#45;&gt;ExplicitConsistentMassMatrixShallowWaterEquationsSolver -->
<g id="edge4" class="edge">
<title>Newton&#45;&gt;ExplicitConsistentMassMatrixShallowWaterEquationsSolver</title>
<path fill="none" stroke="black" stroke-width="0.5" d="M250.54,-256.94C256.88,-259.74 263.21,-263.5 268,-268.5 298.67,-300.5 268.97,-334.34 304,-361.5 306.7,-363.59 309.5,-365.52 312.41,-367.29"/>
<polygon fill="black" stroke="black" stroke-width="0.5" points="311.83,-368.98 317.04,-369.95 313.58,-365.94 311.83,-368.98"/>
</g>
<!-- ExplicitConsistentMassMatrixWithRedistancing -->
<g id="node6" class="node">
<title>ExplicitConsistentMassMatrixWithRedistancing</title>
<g id="a_node6"><a xlink:href="../api/proteus.NonlinearSolvers.html#proteus.NonlinearSolvers.ExplicitConsistentMassMatrixWithRedistancing" xlink:title="This is a fake solver meant to be used with optimized code" target="_top">
<polygon fill="none" stroke="black" stroke-width="0.5" points="581,-352 334,-352 334,-333 581,-333 581,-352"/>
<text text-anchor="middle" x="457.5" y="-340" font-family="Vera Sans, DejaVu Sans, Liberation Sans, Arial, Helvetica, sans" font-size="10.00">ExplicitConsistentMassMatrixWithRedistancing</text>
</a>
</g>
</g>
<!-- Newton&#45;&gt;ExplicitConsistentMassMatrixWithRedistancing -->
<g id="edge5" class="edge">
<title>Newton&#45;&gt;ExplicitConsistentMassMatrixWithRedistancing</title>
<path fill="none" stroke="black" stroke-width="0.5" d="M250.79,-258.03C256.85,-260.77 262.98,-264.22 268,-268.5 290.52,-287.69 278.91,-308.82 304,-324.5 311.73,-329.33 320.11,-333.19 328.83,-336.25"/>
<polygon fill="black" stroke="black" stroke-width="0.5" points="328.41,-337.96 333.71,-337.87 329.52,-334.63 328.41,-337.96"/>
</g>
<!-- ExplicitLumpedMassMatrix -->
<g id="node7" class="node">
<title>ExplicitLumpedMassMatrix</title>
<g id="a_node7"><a xlink:href="../api/proteus.NonlinearSolvers.html#proteus.NonlinearSolvers.ExplicitLumpedMassMatrix" xlink:title="This is a fake solver meant to be used with optimized code" target="_top">
<polygon fill="none" stroke="black" stroke-width="0.5" points="532,-315 383,-315 383,-296 532,-296 532,-315"/>
<text text-anchor="middle" x="457.5" y="-303" font-family="Vera Sans, DejaVu Sans, Liberation Sans, Arial, Helvetica, sans" font-size="10.00">ExplicitLumpedMassMatrix</text>
</a>
</g>
</g>
<!-- Newton&#45;&gt;ExplicitLumpedMassMatrix -->
<g id="edge6" class="edge">
<title>Newton&#45;&gt;ExplicitLumpedMassMatrix</title>
<path fill="none" stroke="black" stroke-width="0.5" d="M247.22,-259.05C253.96,-261.98 261.32,-265.28 268,-268.5 284.3,-276.35 286.72,-282.13 304,-287.5 327.41,-294.78 353.68,-299.15 377.73,-301.77"/>
<polygon fill="black" stroke="black" stroke-width="0.5" points="377.68,-303.52 382.83,-302.3 378.04,-300.04 377.68,-303.52"/>
</g>
<!-- ExplicitLumpedMassMatrixShallowWaterEquationsSolver -->
<g id="node8" class="node">
<title>ExplicitLumpedMassMatrixShallowWaterEquationsSolver</title>
<g id="a_node8"><a xlink:href="../api/proteus.NonlinearSolvers.html#proteus.NonlinearSolvers.ExplicitLumpedMassMatrixShallowWaterEquationsSolver" xlink:title="This is a fake solver meant to be used with optimized code" target="_top">
<polygon fill="none" stroke="black" stroke-width="0.5" points="604.5,-278 310.5,-278 310.5,-259 604.5,-259 604.5,-278"/>
<text text-anchor="middle" x="457.5" y="-266" font-family="Vera Sans, DejaVu Sans, Liberation Sans, Arial, Helvetica, sans" font-size="10.00">ExplicitLumpedMassMatrixShallowWaterEquationsSolver</text>
</a>
</g>
</g>
<!-- Newton&#45;&gt;ExplicitLumpedMassMatrixShallowWaterEquationsSolver -->
<g id="edge7" class="edge">
<title>Newton&#45;&gt;ExplicitLumpedMassMatrixShallowWaterEquationsSolver</title>
<path fill="none" stroke="black" stroke-width="0.5" d="M250.66,-251.64C271.81,-253.37 303.22,-255.95 335.17,-258.56"/>
<polygon fill="black" stroke="black" stroke-width="0.5" points="335.18,-260.32 340.3,-258.98 335.46,-256.83 335.18,-260.32"/>
</g>
<!-- MoveMeshMonitorNewton -->
<g id="node12" class="node">
<title>MoveMeshMonitorNewton</title>
<g id="a_node12"><a xlink:href="../api/proteus.NonlinearSolvers.html#proteus.NonlinearSolvers.MoveMeshMonitorNewton" xlink:title="MoveMeshMonitorNewton" target="_top">
<polygon fill="none" stroke="black" stroke-width="0.5" points="530,-241 385,-241 385,-222 530,-222 530,-241"/>
<text text-anchor="middle" x="457.5" y="-229" font-family="Vera Sans, DejaVu Sans, Liberation Sans, Arial, Helvetica, sans" font-size="10.00">MoveMeshMonitorNewton</text>
</a>
</g>
</g>
<!-- Newton&#45;&gt;MoveMeshMonitorNewton -->
<g id="edge9" class="edge">
<title>Newton&#45;&gt;MoveMeshMonitorNewton</title>
<path fill="none" stroke="black" stroke-width="0.5" d="M250.66,-247.47C281.81,-245.05 335.24,-240.91 379.85,-237.45"/>
<polygon fill="black" stroke="black" stroke-width="0.5" points="380.12,-239.18 384.97,-237.05 379.85,-235.69 380.12,-239.18"/>
</g>
<!-- NewtonWithL2ProjectionForMassCorrection -->
<g id="node19" class="node">
<title>NewtonWithL2ProjectionForMassCorrection</title>
<g id="a_node19"><a xlink:href="../api/proteus.NonlinearSolvers.html#proteus.NonlinearSolvers.NewtonWithL2ProjectionForMassCorrection" xlink:title="This is a fake solver meant to be used with optimized code" target="_top">
<polygon fill="none" stroke="black" stroke-width="0.5" points="571,-204 344,-204 344,-185 571,-185 571,-204"/>
<text text-anchor="middle" x="457.5" y="-192" font-family="Vera Sans, DejaVu Sans, Liberation Sans, Arial, Helvetica, sans" font-size="10.00">NewtonWithL2ProjectionForMassCorrection</text>
</a>
</g>
</g>
<!-- Newton&#45;&gt;NewtonWithL2ProjectionForMassCorrection -->
<g id="edge16" class="edge">
<title>Newton&#45;&gt;NewtonWithL2ProjectionForMassCorrection</title>
<path fill="none" stroke="black" stroke-width="0.5" d="M248.56,-239.9C254.92,-237.27 261.75,-234.35 268,-231.5 284.28,-224.08 286.88,-218.68 304,-213.5 315.28,-210.09 327.22,-207.28 339.24,-204.99"/>
<polygon fill="black" stroke="black" stroke-width="0.5" points="339.79,-206.66 344.39,-204.03 339.16,-203.22 339.79,-206.66"/>
</g>
<!-- POD_DEIM_Newton -->
<g id="node21" class="node">
<title>POD_DEIM_Newton</title>
<g id="a_node21"><a xlink:href="../api/proteus.NonlinearSolvers.html#proteus.NonlinearSolvers.POD_DEIM_Newton" xlink:title="Newton&#39;s method on the reduced order system based on POD" target="_top">
<polygon fill="none" stroke="black" stroke-width="0.5" points="513,-167 402,-167 402,-148 513,-148 513,-167"/>
<text text-anchor="middle" x="457.5" y="-155" font-family="Vera Sans, DejaVu Sans, Liberation Sans, Arial, Helvetica, sans" font-size="10.00">POD_DEIM_Newton</text>
</a>
</g>
</g>
<!-- Newton&#45;&gt;POD_DEIM_Newton -->
<g id="edge17" class="edge">
<title>Newton&#45;&gt;POD_DEIM_Newton</title>
<path fill="none" stroke="black" stroke-width="0.5" d="M250.8,-241.62C256.85,-239.02 262.98,-235.69 268,-231.5 290.71,-212.53 278.91,-191.18 304,-175.5 331.36,-158.41 366.92,-153.45 396.82,-152.98"/>
<polygon fill="black" stroke="black" stroke-width="0.5" points="396.97,-154.73 401.95,-152.94 396.94,-151.23 396.97,-154.73"/>
</g>
<!-- POD_Newton -->
<g id="node22" class="node">
<title>POD_Newton</title>
<g id="a_node22"><a xlink:href="../api/proteus.NonlinearSolvers.html#proteus.NonlinearSolvers.POD_Newton" xlink:title="Newton&#39;s method on the reduced order system based on POD" target="_top">
<polygon fill="none" stroke="black" stroke-width="0.5" points="497.5,-130 417.5,-130 417.5,-111 497.5,-111 497.5,-130"/>
<text text-anchor="middle" x="457.5" y="-118" font-family="Vera Sans, DejaVu Sans, Liberation Sans, Arial, Helvetica, sans" font-size="10.00">POD_Newton</text>
</a>
</g>
</g>
<!-- Newton&#45;&gt;POD_Newton -->
<g id="edge18" class="edge">
<title>Newton&#45;&gt;POD_Newton</title>
<path fill="none" stroke="black" stroke-width="0.5" d="M250.52,-242.69C256.87,-240.04 263.2,-236.41 268,-231.5 298.98,-199.8 268.97,-165.66 304,-138.5 334.4,-114.93 378.97,-112.21 412.09,-114.33"/>
<polygon fill="black" stroke="black" stroke-width="0.5" points="412.19,-116.09 417.3,-114.71 412.44,-112.6 412.19,-116.09"/>
</g>
<!-- PicardNewton -->
<g id="node23" class="node">
<title>PicardNewton</title>
<g id="a_node23"><a xlink:href="../api/proteus.NonlinearSolvers.html#proteus.NonlinearSolvers.PicardNewton" xlink:title="PicardNewton" target="_top">
<polygon fill="none" stroke="black" stroke-width="0.5" points="499.5,-93 415.5,-93 415.5,-74 499.5,-74 499.5,-93"/>
<text text-anchor="middle" x="457.5" y="-81" font-family="Vera Sans, DejaVu Sans, Liberation Sans, Arial, Helvetica, sans" font-size="10.00">PicardNewton</text>
</a>
</g>
</g>
<!-- Newton&#45;&gt;PicardNewton -->
<g id="edge19" class="edge">
<title>Newton&#45;&gt;PicardNewton</title>
<path fill="none" stroke="black" stroke-width="0.5" d="M250.86,-243.01C257.2,-240.35 263.45,-236.64 268,-231.5 307.73,-186.6 258.5,-140.54 304,-101.5 332.81,-76.78 376.75,-73.99 410.07,-76.38"/>
<polygon fill="black" stroke="black" stroke-width="0.5" points="410.2,-78.15 415.33,-76.81 410.48,-74.66 410.2,-78.15"/>
</g>
<!-- SSPRKNewton -->
<g id="node24" class="node">
<title>SSPRKNewton</title>
<g id="a_node24"><a xlink:href="../api/proteus.NonlinearSolvers.html#proteus.NonlinearSolvers.SSPRKNewton" xlink:title="Version of Newton for SSPRK so doesn&#39;t refactor unnecessarily" target="_top">
<polygon fill="none" stroke="black" stroke-width="0.5" points="500.5,-56 414.5,-56 414.5,-37 500.5,-37 500.5,-56"/>
<text text-anchor="middle" x="457.5" y="-44" font-family="Vera Sans, DejaVu Sans, Liberation Sans, Arial, Helvetica, sans" font-size="10.00">SSPRKNewton</text>
</a>
</g>
</g>
<!-- Newton&#45;&gt;SSPRKNewton -->
<g id="edge20" class="edge">
<title>Newton&#45;&gt;SSPRKNewton</title>
<path fill="none" stroke="black" stroke-width="0.5" d="M250.61,-243.37C257.11,-240.7 263.5,-236.9 268,-231.5 316.65,-173.2 247.83,-115.58 304,-64.5 331.9,-39.13 375.52,-36.3 408.97,-38.85"/>
<polygon fill="black" stroke="black" stroke-width="0.5" points="409.12,-40.62 414.25,-39.3 409.42,-37.13 409.12,-40.62"/>
</g>
<!-- TwoStageNewton -->
<g id="node25" class="node">
<title>TwoStageNewton</title>
<g id="a_node25"><a xlink:href="../api/proteus.NonlinearSolvers.html#proteus.NonlinearSolvers.TwoStageNewton" xlink:title="Solves a 2 Stage problem via Newton&#39;s solve" target="_top">
<polygon fill="none" stroke="black" stroke-width="0.5" points="508,-19 407,-19 407,0 508,0 508,-19"/>
<text text-anchor="middle" x="457.5" y="-7" font-family="Vera Sans, DejaVu Sans, Liberation Sans, Arial, Helvetica, sans" font-size="10.00">TwoStageNewton</text>
</a>
</g>
</g>
<!-- Newton&#45;&gt;TwoStageNewton -->
<g id="edge21" class="edge">
<title>Newton&#45;&gt;TwoStageNewton</title>
<path fill="none" stroke="black" stroke-width="0.5" d="M250.75,-243.48C257.25,-240.81 263.6,-236.98 268,-231.5 325.65,-159.71 237.06,-90.71 304,-27.5 329.57,-3.35 369.29,0.69 401.79,-1.07"/>
<polygon fill="black" stroke="black" stroke-width="0.5" points="401.84,-2.83 406.94,-1.4 402.06,0.67 401.84,-2.83"/>
</g>
<!-- FAS -->
<g id="node9" class="node">
<title>FAS</title>
<g id="a_node9"><a xlink:href="../api/proteus.NonlinearSolvers.html#proteus.NonlinearSolvers.FAS" xlink:title="A generic nonlinear multigrid W cycle using the Full Approximation Scheme (FAS)." target="_top">
<polygon fill="none" stroke="black" stroke-width="0.5" points="98.5,-240 44.5,-240 44.5,-221 98.5,-221 98.5,-240"/>
<text text-anchor="middle" x="71.5" y="-228" font-family="Vera Sans, DejaVu Sans, Liberation Sans, Arial, Helvetica, sans" font-size="10.00">FAS</text>
</a>
</g>
</g>
<!-- FasTwoLevel -->
<g id="node10" class="node">
<title>FasTwoLevel</title>
<g id="a_node10"><a xlink:href="../api/proteus.NonlinearSolvers.html#proteus.NonlinearSolvers.FasTwoLevel" xlink:title="A generic nonlinear two&#45;level solver based on the full approximation scheme. (FAS)." target="_top">
<polygon fill="none" stroke="black" stroke-width="0.5" points="262,-222 185,-222 185,-203 262,-203 262,-222"/>
<text text-anchor="middle" x="223.5" y="-210" font-family="Vera Sans, DejaVu Sans, Liberation Sans, Arial, Helvetica, sans" font-size="10.00">FasTwoLevel</text>
</a>
</g>
</g>
<!-- NonlinearSolver -->
<g id="node11" class="node">
<title>NonlinearSolver</title>
<g id="a_node11"><a xlink:href="../api/proteus.NonlinearSolvers.html#proteus.NonlinearSolvers.NonlinearSolver" xlink:title="The base class for nonlinear solvers." target="_top">
<polygon fill="none" stroke="black" stroke-width="0.5" points="119,-166 24,-166 24,-147 119,-147 119,-166"/>
<text text-anchor="middle" x="71.5" y="-154" font-family="Vera Sans, DejaVu Sans, Liberation Sans, Arial, Helvetica, sans" font-size="10.00">NonlinearSolver</text>
</a>
</g>
</g>
<!-- NonlinearSolver&#45;&gt;Newton -->
<g id="edge14" class="edge">
<title>NonlinearSolver&#45;&gt;Newton</title>
<path fill="none" stroke="black" stroke-width="0.5" d="M84.38,-166.2C103.47,-181.47 142.54,-211.44 179,-231.5 183.1,-233.76 187.55,-235.9 191.97,-237.88"/>
<polygon fill="black" stroke="black" stroke-width="0.5" points="191.47,-239.57 196.76,-239.95 192.86,-236.36 191.47,-239.57"/>
</g>
<!-- NonlinearSolver&#45;&gt;FasTwoLevel -->
<g id="edge8" class="edge">
<title>NonlinearSolver&#45;&gt;FasTwoLevel</title>
<path fill="none" stroke="black" stroke-width="0.5" d="M98.29,-166.13C124.31,-175.84 164.48,-190.84 192.06,-201.13"/>
<polygon fill="black" stroke="black" stroke-width="0.5" points="191.75,-202.89 197.05,-203 192.98,-199.61 191.75,-202.89"/>
</g>
<!-- NLGaussSeidel -->
<g id="node14" class="node">
<title>NLGaussSeidel</title>
<g id="a_node14"><a xlink:href="../api/proteus.NonlinearSolvers.html#proteus.NonlinearSolvers.NLGaussSeidel" xlink:title="Nonlinear Gauss&#45;Seidel." target="_top">
<polygon fill="none" stroke="black" stroke-width="0.5" points="268,-185 179,-185 179,-166 268,-166 268,-185"/>
<text text-anchor="middle" x="223.5" y="-173" font-family="Vera Sans, DejaVu Sans, Liberation Sans, Arial, Helvetica, sans" font-size="10.00">NLGaussSeidel</text>
</a>
</g>
</g>
<!-- NonlinearSolver&#45;&gt;NLGaussSeidel -->
<g id="edge10" class="edge">
<title>NonlinearSolver&#45;&gt;NLGaussSeidel</title>
<path fill="none" stroke="black" stroke-width="0.5" d="M119.14,-162.41C136.44,-164.6 156.11,-167.09 173.6,-169.31"/>
<polygon fill="black" stroke="black" stroke-width="0.5" points="173.78,-171.09 178.96,-169.98 174.22,-167.62 173.78,-171.09"/>
</g>
<!-- NLJacobi -->
<g id="node15" class="node">
<title>NLJacobi</title>
<g id="a_node15"><a xlink:href="../api/proteus.NonlinearSolvers.html#proteus.NonlinearSolvers.NLJacobi" xlink:title="Nonlinear Jacobi iteration." target="_top">
<polygon fill="none" stroke="black" stroke-width="0.5" points="253,-148 194,-148 194,-129 253,-129 253,-148"/>
<text text-anchor="middle" x="223.5" y="-136" font-family="Vera Sans, DejaVu Sans, Liberation Sans, Arial, Helvetica, sans" font-size="10.00">NLJacobi</text>
</a>
</g>
</g>
<!-- NonlinearSolver&#45;&gt;NLJacobi -->
<g id="edge11" class="edge">
<title>NonlinearSolver&#45;&gt;NLJacobi</title>
<path fill="none" stroke="black" stroke-width="0.5" d="M119.14,-150.9C141.66,-148.2 168.17,-145.02 188.71,-142.56"/>
<polygon fill="black" stroke="black" stroke-width="0.5" points="189.04,-144.28 193.79,-141.94 188.62,-140.8 189.04,-144.28"/>
</g>
<!-- NLStarILU -->
<g id="node17" class="node">
<title>NLStarILU</title>
<g id="a_node17"><a xlink:href="../api/proteus.NonlinearSolvers.html#proteus.NonlinearSolvers.NLStarILU" xlink:title="Nonlinear alternating Schwarz on node stars." target="_top">
<polygon fill="none" stroke="black" stroke-width="0.5" points="256,-111 191,-111 191,-92 256,-92 256,-111"/>
<text text-anchor="middle" x="223.5" y="-99" font-family="Vera Sans, DejaVu Sans, Liberation Sans, Arial, Helvetica, sans" font-size="10.00">NLStarILU</text>
</a>
</g>
</g>
<!-- NonlinearSolver&#45;&gt;NLStarILU -->
<g id="edge13" class="edge">
<title>NonlinearSolver&#45;&gt;NLStarILU</title>
<path fill="none" stroke="black" stroke-width="0.5" d="M98.63,-146.92C124.47,-137.45 164.01,-122.94 191.45,-112.89"/>
<polygon fill="black" stroke="black" stroke-width="0.5" points="192.33,-114.43 196.42,-111.06 191.12,-111.14 192.33,-114.43"/>
</g>
<!-- NewtonNS -->
<g id="node18" class="node">
<title>NewtonNS</title>
<g id="a_node18"><a xlink:href="../api/proteus.NonlinearSolvers.html#proteus.NonlinearSolvers.NewtonNS" xlink:title="A simple iterative solver that is Newton&#39;s method" target="_top">
<polygon fill="none" stroke="black" stroke-width="0.5" points="257.5,-74 189.5,-74 189.5,-55 257.5,-55 257.5,-74"/>
<text text-anchor="middle" x="223.5" y="-62" font-family="Vera Sans, DejaVu Sans, Liberation Sans, Arial, Helvetica, sans" font-size="10.00">NewtonNS</text>
</a>
</g>
</g>
<!-- NonlinearSolver&#45;&gt;NewtonNS -->
<g id="edge15" class="edge">
<title>NonlinearSolver&#45;&gt;NewtonNS</title>
<path fill="none" stroke="black" stroke-width="0.5" d="M84.41,-146.94C103.53,-131.9 142.64,-102.35 179,-82.5 183.11,-80.26 187.56,-78.12 191.99,-76.14"/>
<polygon fill="black" stroke="black" stroke-width="0.5" points="192.88,-77.67 196.77,-74.07 191.49,-74.45 192.88,-77.67"/>
</g>
<!-- MultilevelNonlinearSolver -->
<g id="node13" class="node">
<title>MultilevelNonlinearSolver</title>
<g id="a_node13"><a xlink:href="../api/proteus.NonlinearSolvers.html#proteus.NonlinearSolvers.MultilevelNonlinearSolver" xlink:title="A generic multilevel solver." target="_top">
<polygon fill="none" stroke="black" stroke-width="0.5" points="143,-296 0,-296 0,-277 143,-277 143,-296"/>
<text text-anchor="middle" x="71.5" y="-284" font-family="Vera Sans, DejaVu Sans, Liberation Sans, Arial, Helvetica, sans" font-size="10.00">MultilevelNonlinearSolver</text>
</a>
</g>
</g>
<!-- NLNI -->
<g id="node16" class="node">
<title>NLNI</title>
<g id="a_node16"><a xlink:href="../api/proteus.NonlinearSolvers.html#proteus.NonlinearSolvers.NLNI" xlink:title="Nonlinear nested iteration." target="_top">
<polygon fill="none" stroke="black" stroke-width="0.5" points="250.5,-296 196.5,-296 196.5,-277 250.5,-277 250.5,-296"/>
<text text-anchor="middle" x="223.5" y="-284" font-family="Vera Sans, DejaVu Sans, Liberation Sans, Arial, Helvetica, sans" font-size="10.00">NLNI</text>
</a>
</g>
</g>
<!-- MultilevelNonlinearSolver&#45;&gt;NLNI -->
<g id="edge12" class="edge">
<title>MultilevelNonlinearSolver&#45;&gt;NLNI</title>
<path fill="none" stroke="black" stroke-width="0.5" d="M143.11,-286.5C160.03,-286.5 177.24,-286.5 191.3,-286.5"/>
<polygon fill="black" stroke="black" stroke-width="0.5" points="191.33,-288.25 196.33,-286.5 191.33,-284.75 191.33,-288.25"/>
</g>
<!-- NonlinearEquation -->
<g id="node20" class="node">
<title>NonlinearEquation</title>
<g id="a_node20"><a xlink:href="../api/proteus.NonlinearSolvers.html#proteus.NonlinearSolvers.NonlinearEquation" xlink:title="The base class for nonlinear equations." target="_top">
<polygon fill="none" stroke="black" stroke-width="0.5" points="125,-333 18,-333 18,-314 125,-314 125,-333"/>
<text text-anchor="middle" x="71.5" y="-321" font-family="Vera Sans, DejaVu Sans, Liberation Sans, Arial, Helvetica, sans" font-size="10.00">NonlinearEquation</text>
</a>
</g>
</g>
</g>
</svg>
