<?xml version="1.0" encoding="UTF-8" standalone="no"?>
<!DOCTYPE svg PUBLIC "-//W3C//DTD SVG 1.1//EN"
 "http://www.w3.org/Graphics/SVG/1.1/DTD/svg11.dtd">
<!-- Generated by graphviz version 2.38.0 (20140413.2041)
 -->
<!-- Title: inheritancecaff6f4bb2 Pages: 1 -->
<svg width="262pt" height="175pt"
 viewBox="0.00 0.00 262.00 175.00" xmlns="http://www.w3.org/2000/svg" xmlns:xlink="http://www.w3.org/1999/xlink">
<g id="graph0" class="graph" transform="scale(1 1) rotate(0) translate(4 171)">
<title>inheritancecaff6f4bb2</title>
<polygon fill="white" stroke="none" points="-4,4 -4,-171 258,-171 258,4 -4,4"/>
<!-- BuckleyLeverett -->
<g id="node1" class="node"><title>BuckleyLeverett</title>
<g id="a_node1"><a xlink:href="../api/proteus.ObjectiveFunctions.html#proteus.ObjectiveFunctions.BuckleyLeverett" xlink:title="BuckleyLeverett" target="_top">
<polygon fill="none" stroke="black" stroke-width="0.5" points="111,-56 18,-56 18,-37 111,-37 111,-56"/>
<text text-anchor="middle" x="64.5" y="-44" font-family="Vera Sans, DejaVu Sans, Liberation Sans, Arial, Helvetica, sans" font-size="10.00">BuckleyLeverett</text>
</a>
</g>
</g>
<!-- ObjectiveFunction_base -->
<g id="node2" class="node"><title>ObjectiveFunction_base</title>
<g id="a_node2"><a xlink:href="../proteus.Optimizers.html#proteus.Optimizers.ObjectiveFunction_base" xlink:title="ObjectiveFunction_base" target="_top">
<polygon fill="none" stroke="black" stroke-width="0.5" points="129,-93 0,-93 0,-74 129,-74 129,-93"/>
<text text-anchor="middle" x="64.5" y="-81" font-family="Vera Sans, DejaVu Sans, Liberation Sans, Arial, Helvetica, sans" font-size="10.00">ObjectiveFunction_base</text>
</a>
</g>
</g>
<!-- OsherFunc -->
<g id="node3" class="node"><title>OsherFunc</title>
<g id="a_node3"><a xlink:href="../api/proteus.ObjectiveFunctions.html#proteus.ObjectiveFunctions.OsherFunc" xlink:title="OsherFunc" target="_top">
<polygon fill="none" stroke="black" stroke-width="0.5" points="243,-167 176,-167 176,-148 243,-148 243,-167"/>
<text text-anchor="middle" x="209.5" y="-155" font-family="Vera Sans, DejaVu Sans, Liberation Sans, Arial, Helvetica, sans" font-size="10.00">OsherFunc</text>
</a>
</g>
</g>
<!-- ObjectiveFunction_base&#45;&gt;OsherFunc -->
<g id="edge1" class="edge"><title>ObjectiveFunction_base&#45;&gt;OsherFunc</title>
<path fill="none" stroke="black" stroke-width="0.5" d="M81.0413,-93.0201C100.361,-104.673 134.515,-124.681 165,-139.5 169.521,-141.698 174.38,-143.878 179.154,-145.923"/>
<polygon fill="black" stroke="black" stroke-width="0.5" points="178.597,-147.587 183.884,-147.918 179.957,-144.362 178.597,-147.587"/>
</g>
<!-- OsherFuncCoef -->
<g id="node4" class="node"><title>OsherFuncCoef</title>
<g id="a_node4"><a xlink:href="../api/proteus.ObjectiveFunctions.html#proteus.ObjectiveFunctions.OsherFuncCoef" xlink:title="OsherFuncCoef" target="_top">
<polygon fill="none" stroke="black" stroke-width="0.5" points="254,-130 165,-130 165,-111 254,-111 254,-130"/>
<text text-anchor="middle" x="209.5" y="-118" font-family="Vera Sans, DejaVu Sans, Liberation Sans, Arial, Helvetica, sans" font-size="10.00">OsherFuncCoef</text>
</a>
</g>
</g>
<!-- ObjectiveFunction_base&#45;&gt;OsherFuncCoef -->
<g id="edge2" class="edge"><title>ObjectiveFunction_base&#45;&gt;OsherFuncCoef</title>
<path fill="none" stroke="black" stroke-width="0.5" d="M102.326,-93.0284C121.856,-98.0816 145.94,-104.313 166.23,-109.563"/>
<polygon fill="black" stroke="black" stroke-width="0.5" points="166.023,-111.317 171.302,-110.875 166.9,-107.929 166.023,-111.317"/>
</g>
<!-- SimpelFunc -->
<g id="node5" class="node"><title>SimpelFunc</title>
<g id="a_node5"><a xlink:href="../api/proteus.ObjectiveFunctions.html#proteus.ObjectiveFunctions.SimpelFunc" xlink:title="SimpelFunc" target="_top">
<polygon fill="none" stroke="black" stroke-width="0.5" points="245,-93 174,-93 174,-74 245,-74 245,-93"/>
<text text-anchor="middle" x="209.5" y="-81" font-family="Vera Sans, DejaVu Sans, Liberation Sans, Arial, Helvetica, sans" font-size="10.00">SimpelFunc</text>
</a>
</g>
</g>
<!-- ObjectiveFunction_base&#45;&gt;SimpelFunc -->
<g id="edge3" class="edge"><title>ObjectiveFunction_base&#45;&gt;SimpelFunc</title>
<path fill="none" stroke="black" stroke-width="0.5" d="M129.055,-83.5C142.5,-83.5 156.325,-83.5 168.596,-83.5"/>
<polygon fill="black" stroke="black" stroke-width="0.5" points="168.754,-85.2501 173.754,-83.5 168.754,-81.7501 168.754,-85.2501"/>
</g>
<!-- SimpelFunc2 -->
<g id="node6" class="node"><title>SimpelFunc2</title>
<g id="a_node6"><a xlink:href="../api/proteus.ObjectiveFunctions.html#proteus.ObjectiveFunctions.SimpelFunc2" xlink:title="SimpelFunc2" target="_top">
<polygon fill="none" stroke="black" stroke-width="0.5" points="248,-56 171,-56 171,-37 248,-37 248,-56"/>
<text text-anchor="middle" x="209.5" y="-44" font-family="Vera Sans, DejaVu Sans, Liberation Sans, Arial, Helvetica, sans" font-size="10.00">SimpelFunc2</text>
</a>
</g>
</g>
<!-- ObjectiveFunction_base&#45;&gt;SimpelFunc2 -->
<g id="edge4" class="edge"><title>ObjectiveFunction_base&#45;&gt;SimpelFunc2</title>
<path fill="none" stroke="black" stroke-width="0.5" d="M102.326,-73.9716C121.856,-68.9184 145.94,-62.6869 166.23,-57.437"/>
<polygon fill="black" stroke="black" stroke-width="0.5" points="166.9,-59.0715 171.302,-56.1247 166.023,-55.6831 166.9,-59.0715"/>
</g>
<!-- SimpelFunc3 -->
<g id="node7" class="node"><title>SimpelFunc3</title>
<g id="a_node7"><a xlink:href="../api/proteus.ObjectiveFunctions.html#proteus.ObjectiveFunctions.SimpelFunc3" xlink:title="SimpelFunc3" target="_top">
<polygon fill="none" stroke="black" stroke-width="0.5" points="248,-19 171,-19 171,-0 248,-0 248,-19"/>
<text text-anchor="middle" x="209.5" y="-7" font-family="Vera Sans, DejaVu Sans, Liberation Sans, Arial, Helvetica, sans" font-size="10.00">SimpelFunc3</text>
</a>
</g>
</g>
<!-- ObjectiveFunction_base&#45;&gt;SimpelFunc3 -->
<g id="edge5" class="edge"><title>ObjectiveFunction_base&#45;&gt;SimpelFunc3</title>
<path fill="none" stroke="black" stroke-width="0.5" d="M110.454,-73.9613C116.91,-71.6889 123.292,-68.9036 129,-65.5 148.707,-53.7499 146.135,-41.5581 165,-28.5 168.782,-25.8823 172.982,-23.5028 177.239,-21.3822"/>
<polygon fill="black" stroke="black" stroke-width="0.5" points="178.099,-22.9112 181.863,-19.1837 176.596,-19.7503 178.099,-22.9112"/>
</g>
</g>
</svg>
