<?xml version="1.0" encoding="UTF-8" standalone="no"?>
<!DOCTYPE svg PUBLIC "-//W3C//DTD SVG 1.1//EN"
 "http://www.w3.org/Graphics/SVG/1.1/DTD/svg11.dtd">
<!-- Generated by graphviz version 2.42.3 (0)
 -->
<!-- Title: inheritance65a8d20231 Pages: 1 -->
<svg width="242pt" height="397pt"
 viewBox="0.00 0.00 242.00 397.00" xmlns="http://www.w3.org/2000/svg" xmlns:xlink="http://www.w3.org/1999/xlink">
<g id="graph0" class="graph" transform="scale(1 1) rotate(0) translate(4 393)">
<title>inheritance65a8d20231</title>
<polygon fill="white" stroke="transparent" points="-4,4 -4,-393 238,-393 238,4 -4,4"/>
<!-- AV_base -->
<g id="node1" class="node">
<title>AV_base</title>
<g id="a_node1"><a xlink:href="../api/proteus.AuxiliaryVariables.html#proteus.AuxiliaryVariables.AV_base" xlink:title="AV_base" target="_top">
<polygon fill="none" stroke="black" stroke-width="0.5" points="58,-204 0,-204 0,-185 58,-185 58,-204"/>
<text text-anchor="middle" x="29" y="-192" font-family="Vera Sans, DejaVu Sans, Liberation Sans, Arial, Helvetica, sans" font-size="10.00">AV_base</text>
</a>
</g>
</g>
<!-- BoundaryForce -->
<g id="node2" class="node">
<title>BoundaryForce</title>
<g id="a_node2"><a xlink:href="../api/proteus.AuxiliaryVariables.html#proteus.AuxiliaryVariables.BoundaryForce" xlink:title="BoundaryForce" target="_top">
<polygon fill="none" stroke="black" stroke-width="0.5" points="208.5,-389 119.5,-389 119.5,-370 208.5,-370 208.5,-389"/>
<text text-anchor="middle" x="164" y="-377" font-family="Vera Sans, DejaVu Sans, Liberation Sans, Arial, Helvetica, sans" font-size="10.00">BoundaryForce</text>
</a>
</g>
</g>
<!-- AV_base&#45;&gt;BoundaryForce -->
<g id="edge1" class="edge">
<title>AV_base&#45;&gt;BoundaryForce</title>
<path fill="none" stroke="black" stroke-width="0.5" d="M30.71,-204.12C33.36,-232.69 45.18,-317.81 94,-361.5 99.77,-366.67 106.84,-370.38 114.23,-373.05"/>
<polygon fill="black" stroke="black" stroke-width="0.5" points="114.09,-374.84 119.39,-374.73 115.18,-371.51 114.09,-374.84"/>
</g>
<!-- BoundaryPressure -->
<g id="node3" class="node">
<title>BoundaryPressure</title>
<g id="a_node3"><a xlink:href="../api/proteus.AuxiliaryVariables.html#proteus.AuxiliaryVariables.BoundaryPressure" xlink:title="BoundaryPressure" target="_top">
<polygon fill="none" stroke="black" stroke-width="0.5" points="216.5,-352 111.5,-352 111.5,-333 216.5,-333 216.5,-352"/>
<text text-anchor="middle" x="164" y="-340" font-family="Vera Sans, DejaVu Sans, Liberation Sans, Arial, Helvetica, sans" font-size="10.00">BoundaryPressure</text>
</a>
</g>
</g>
<!-- AV_base&#45;&gt;BoundaryPressure -->
<g id="edge2" class="edge">
<title>AV_base&#45;&gt;BoundaryPressure</title>
<path fill="none" stroke="black" stroke-width="0.5" d="M31.85,-204.04C37.04,-228.15 54.04,-291.9 94,-324.5 97.81,-327.61 102.11,-330.19 106.64,-332.33"/>
<polygon fill="black" stroke="black" stroke-width="0.5" points="105.96,-333.94 111.24,-334.32 107.35,-330.73 105.96,-333.94"/>
</g>
<!-- ConservationHistoryLS -->
<g id="node4" class="node">
<title>ConservationHistoryLS</title>
<g id="a_node4"><a xlink:href="../api/proteus.AuxiliaryVariables.html#proteus.AuxiliaryVariables.ConservationHistoryLS" xlink:title="A simple class for storing the time history of things related conservation in non&#45;conservative level set methods" target="_top">
<polygon fill="none" stroke="black" stroke-width="0.5" points="228,-315 100,-315 100,-296 228,-296 228,-315"/>
<text text-anchor="middle" x="164" y="-303" font-family="Vera Sans, DejaVu Sans, Liberation Sans, Arial, Helvetica, sans" font-size="10.00">ConservationHistoryLS</text>
</a>
</g>
</g>
<!-- AV_base&#45;&gt;ConservationHistoryLS -->
<g id="edge3" class="edge">
<title>AV_base&#45;&gt;ConservationHistoryLS</title>
<path fill="none" stroke="black" stroke-width="0.5" d="M33.84,-204.09C41.95,-223.08 62.71,-265.55 94,-287.5 97.5,-289.95 101.3,-292.07 105.28,-293.9"/>
<polygon fill="black" stroke="black" stroke-width="0.5" points="104.72,-295.57 110,-295.92 106.09,-292.35 104.72,-295.57"/>
</g>
<!-- ConservationHistoryMC -->
<g id="node5" class="node">
<title>ConservationHistoryMC</title>
<g id="a_node5"><a xlink:href="../api/proteus.AuxiliaryVariables.html#proteus.AuxiliaryVariables.ConservationHistoryMC" xlink:title="A simple class for storing the time history of things related conservation in conservative level set methods" target="_top">
<polygon fill="none" stroke="black" stroke-width="0.5" points="230,-278 98,-278 98,-259 230,-259 230,-278"/>
<text text-anchor="middle" x="164" y="-266" font-family="Vera Sans, DejaVu Sans, Liberation Sans, Arial, Helvetica, sans" font-size="10.00">ConservationHistoryMC</text>
</a>
</g>
</g>
<!-- AV_base&#45;&gt;ConservationHistoryMC -->
<g id="edge4" class="edge">
<title>AV_base&#45;&gt;ConservationHistoryMC</title>
<path fill="none" stroke="black" stroke-width="0.5" d="M38.5,-204.36C49.89,-216.93 71.3,-238.48 94,-250.5 98.86,-253.07 104.11,-255.29 109.47,-257.21"/>
<polygon fill="black" stroke="black" stroke-width="0.5" points="109.11,-258.94 114.41,-258.88 110.23,-255.62 109.11,-258.94"/>
</g>
<!-- GatherDOF -->
<g id="node6" class="node">
<title>GatherDOF</title>
<g id="a_node6"><a xlink:href="../api/proteus.AuxiliaryVariables.html#proteus.AuxiliaryVariables.GatherDOF" xlink:title="GatherDOF" target="_top">
<polygon fill="none" stroke="black" stroke-width="0.5" points="199.5,-241 128.5,-241 128.5,-222 199.5,-222 199.5,-241"/>
<text text-anchor="middle" x="164" y="-229" font-family="Vera Sans, DejaVu Sans, Liberation Sans, Arial, Helvetica, sans" font-size="10.00">GatherDOF</text>
</a>
</g>
</g>
<!-- AV_base&#45;&gt;GatherDOF -->
<g id="edge5" class="edge">
<title>AV_base&#45;&gt;GatherDOF</title>
<path fill="none" stroke="black" stroke-width="0.5" d="M58.3,-203.12C69.4,-206.45 82.28,-210.23 94,-213.5 103.44,-216.13 113.65,-218.86 123.24,-221.37"/>
<polygon fill="black" stroke="black" stroke-width="0.5" points="122.91,-223.09 128.19,-222.66 123.79,-219.71 122.91,-223.09"/>
</g>
<!-- MassOverRegion -->
<g id="node7" class="node">
<title>MassOverRegion</title>
<g id="a_node7"><a xlink:href="../api/proteus.AuxiliaryVariables.html#proteus.AuxiliaryVariables.MassOverRegion" xlink:title="MassOverRegion" target="_top">
<polygon fill="none" stroke="black" stroke-width="0.5" points="213.5,-204 114.5,-204 114.5,-185 213.5,-185 213.5,-204"/>
<text text-anchor="middle" x="164" y="-192" font-family="Vera Sans, DejaVu Sans, Liberation Sans, Arial, Helvetica, sans" font-size="10.00">MassOverRegion</text>
</a>
</g>
</g>
<!-- AV_base&#45;&gt;MassOverRegion -->
<g id="edge6" class="edge">
<title>AV_base&#45;&gt;MassOverRegion</title>
<path fill="none" stroke="black" stroke-width="0.5" d="M58.21,-194.5C72.99,-194.5 91.61,-194.5 109.04,-194.5"/>
<polygon fill="black" stroke="black" stroke-width="0.5" points="109.41,-196.25 114.41,-194.5 109.41,-192.75 109.41,-196.25"/>
</g>
<!-- PT123velocityGenerator -->
<g id="node8" class="node">
<title>PT123velocityGenerator</title>
<g id="a_node8"><a xlink:href="../api/proteus.AuxiliaryVariables.html#proteus.AuxiliaryVariables.PT123velocityGenerator" xlink:title="write out the velocity field from a model for PT123 to use in tracking as a" target="_top">
<polygon fill="none" stroke="black" stroke-width="0.5" points="231,-167 97,-167 97,-148 231,-148 231,-167"/>
<text text-anchor="middle" x="164" y="-155" font-family="Vera Sans, DejaVu Sans, Liberation Sans, Arial, Helvetica, sans" font-size="10.00">PT123velocityGenerator</text>
</a>
</g>
</g>
<!-- AV_base&#45;&gt;PT123velocityGenerator -->
<g id="edge7" class="edge">
<title>AV_base&#45;&gt;PT123velocityGenerator</title>
<path fill="none" stroke="black" stroke-width="0.5" d="M58.03,-186.58C69.21,-183.43 82.21,-179.78 94,-176.5 103.48,-173.86 113.7,-171.04 123.29,-168.39"/>
<polygon fill="black" stroke="black" stroke-width="0.5" points="123.89,-170.05 128.24,-167.03 122.96,-166.67 123.89,-170.05"/>
</g>
<!-- PressureProfile -->
<g id="node9" class="node">
<title>PressureProfile</title>
<g id="a_node9"><a xlink:href="../api/proteus.AuxiliaryVariables.html#proteus.AuxiliaryVariables.PressureProfile" xlink:title="PressureProfile" target="_top">
<polygon fill="none" stroke="black" stroke-width="0.5" points="208.5,-130 119.5,-130 119.5,-111 208.5,-111 208.5,-130"/>
<text text-anchor="middle" x="164" y="-118" font-family="Vera Sans, DejaVu Sans, Liberation Sans, Arial, Helvetica, sans" font-size="10.00">PressureProfile</text>
</a>
</g>
</g>
<!-- AV_base&#45;&gt;PressureProfile -->
<g id="edge8" class="edge">
<title>AV_base&#45;&gt;PressureProfile</title>
<path fill="none" stroke="black" stroke-width="0.5" d="M38.57,-184.87C50.02,-172.58 71.5,-151.48 94,-139.5 100.33,-136.13 107.31,-133.32 114.32,-130.98"/>
<polygon fill="black" stroke="black" stroke-width="0.5" points="114.94,-132.61 119.18,-129.43 113.88,-129.28 114.94,-132.61"/>
</g>
<!-- RecirculationLength -->
<g id="node10" class="node">
<title>RecirculationLength</title>
<g id="a_node10"><a xlink:href="../api/proteus.AuxiliaryVariables.html#proteus.AuxiliaryVariables.RecirculationLength" xlink:title="RecirculationLength" target="_top">
<polygon fill="none" stroke="black" stroke-width="0.5" points="220.5,-93 107.5,-93 107.5,-74 220.5,-74 220.5,-93"/>
<text text-anchor="middle" x="164" y="-81" font-family="Vera Sans, DejaVu Sans, Liberation Sans, Arial, Helvetica, sans" font-size="10.00">RecirculationLength</text>
</a>
</g>
</g>
<!-- AV_base&#45;&gt;RecirculationLength -->
<g id="edge9" class="edge">
<title>AV_base&#45;&gt;RecirculationLength</title>
<path fill="none" stroke="black" stroke-width="0.5" d="M34.02,-184.76C42.32,-165.9 63.19,-124.3 94,-102.5 98.11,-99.59 102.64,-97.13 107.37,-95.04"/>
<polygon fill="black" stroke="black" stroke-width="0.5" points="108.19,-96.6 112.15,-93.08 106.86,-93.36 108.19,-96.6"/>
</g>
<!-- VelocityAverage -->
<g id="node11" class="node">
<title>VelocityAverage</title>
<g id="a_node11"><a xlink:href="../api/proteus.AuxiliaryVariables.html#proteus.AuxiliaryVariables.VelocityAverage" xlink:title="VelocityAverage" target="_top">
<polygon fill="none" stroke="black" stroke-width="0.5" points="211.5,-56 116.5,-56 116.5,-37 211.5,-37 211.5,-56"/>
<text text-anchor="middle" x="164" y="-44" font-family="Vera Sans, DejaVu Sans, Liberation Sans, Arial, Helvetica, sans" font-size="10.00">VelocityAverage</text>
</a>
</g>
</g>
<!-- AV_base&#45;&gt;VelocityAverage -->
<g id="edge10" class="edge">
<title>AV_base&#45;&gt;VelocityAverage</title>
<path fill="none" stroke="black" stroke-width="0.5" d="M31.98,-184.71C37.37,-160.6 54.65,-97.94 94,-65.5 99.12,-61.28 105.1,-57.99 111.37,-55.44"/>
<polygon fill="black" stroke="black" stroke-width="0.5" points="112.14,-57.01 116.21,-53.62 110.91,-53.74 112.14,-57.01"/>
</g>
<!-- VelocityNormOverRegion -->
<g id="node12" class="node">
<title>VelocityNormOverRegion</title>
<g id="a_node12"><a xlink:href="../api/proteus.AuxiliaryVariables.html#proteus.AuxiliaryVariables.VelocityNormOverRegion" xlink:title="VelocityNormOverRegion" target="_top">
<polygon fill="none" stroke="black" stroke-width="0.5" points="234,-19 94,-19 94,0 234,0 234,-19"/>
<text text-anchor="middle" x="164" y="-7" font-family="Vera Sans, DejaVu Sans, Liberation Sans, Arial, Helvetica, sans" font-size="10.00">VelocityNormOverRegion</text>
</a>
</g>
</g>
<!-- AV_base&#45;&gt;VelocityNormOverRegion -->
<g id="edge11" class="edge">
<title>AV_base&#45;&gt;VelocityNormOverRegion</title>
<path fill="none" stroke="black" stroke-width="0.5" d="M30.76,-184.97C33.54,-156.65 45.69,-72.24 94,-28.5 96.91,-25.86 100.16,-23.59 103.61,-21.62"/>
<polygon fill="black" stroke="black" stroke-width="0.5" points="104.79,-22.98 108.44,-19.14 103.19,-19.87 104.79,-22.98"/>
</g>
</g>
</svg>
