<?xml version="1.0" encoding="UTF-8" standalone="no"?>
<!DOCTYPE svg PUBLIC "-//W3C//DTD SVG 1.1//EN"
 "http://www.w3.org/Graphics/SVG/1.1/DTD/svg11.dtd">
<!-- Generated by graphviz version 2.42.3 (0)
 -->
<!-- Title: inheritance478a470905 Pages: 1 -->
<svg width="576pt" height="651pt"
 viewBox="0.00 0.00 576.00 651.30" xmlns="http://www.w3.org/2000/svg" xmlns:xlink="http://www.w3.org/1999/xlink">
<g id="graph0" class="graph" transform="scale(1.25 1.25) rotate(0) translate(4 809)">
<title>inheritance478a470905</title>
<polygon fill="white" stroke="transparent" points="-4,4 -4,-809 715,-809 715,4 -4,4"/>
<!-- BlockedDofOrderType -->
<g id="node1" class="node">
<title>BlockedDofOrderType</title>
<g id="a_node1"><a xlink:href="../api/proteus.LinearSolvers.html#proteus.LinearSolvers.BlockedDofOrderType" xlink:title="Manages the DOF for blocked velocity and pressure ordering." target="_top">
<polygon fill="none" stroke="black" stroke-width="0.5" points="353.5,-56 231.5,-56 231.5,-37 353.5,-37 353.5,-56"/>
<text text-anchor="middle" x="292.5" y="-44" font-family="Vera Sans, DejaVu Sans, Liberation Sans, Arial, Helvetica, sans" font-size="10.00">BlockedDofOrderType</text>
</a>
</g>
</g>
<!-- DofOrderInfo -->
<g id="node2" class="node">
<title>DofOrderInfo</title>
<g id="a_node2"><a xlink:href="../api/proteus.LinearSolvers.html#proteus.LinearSolvers.DofOrderInfo" xlink:title="Base class for managing DOF ordering information" target="_top">
<polygon fill="none" stroke="black" stroke-width="0.5" points="126.5,-37 46.5,-37 46.5,-18 126.5,-18 126.5,-37"/>
<text text-anchor="middle" x="86.5" y="-25" font-family="Vera Sans, DejaVu Sans, Liberation Sans, Arial, Helvetica, sans" font-size="10.00">DofOrderInfo</text>
</a>
</g>
</g>
<!-- DofOrderInfo&#45;&gt;BlockedDofOrderType -->
<g id="edge1" class="edge">
<title>DofOrderInfo&#45;&gt;BlockedDofOrderType</title>
<path fill="none" stroke="black" stroke-width="0.5" d="M126.83,-31.16C154.97,-33.78 193.49,-37.37 226.2,-40.42"/>
<polygon fill="black" stroke="black" stroke-width="0.5" points="226.26,-42.18 231.4,-40.9 226.58,-38.7 226.26,-42.18"/>
</g>
<!-- InterlacedDofOrderType -->
<g id="node8" class="node">
<title>InterlacedDofOrderType</title>
<g id="a_node8"><a xlink:href="../api/proteus.LinearSolvers.html#proteus.LinearSolvers.InterlacedDofOrderType" xlink:title="Manages the DOF for interlaced velocity and pressure ordering." target="_top">
<polygon fill="none" stroke="black" stroke-width="0.5" points="358.5,-19 226.5,-19 226.5,0 358.5,0 358.5,-19"/>
<text text-anchor="middle" x="292.5" y="-7" font-family="Vera Sans, DejaVu Sans, Liberation Sans, Arial, Helvetica, sans" font-size="10.00">InterlacedDofOrderType</text>
</a>
</g>
</g>
<!-- DofOrderInfo&#45;&gt;InterlacedDofOrderType -->
<g id="edge5" class="edge">
<title>DofOrderInfo&#45;&gt;InterlacedDofOrderType</title>
<path fill="none" stroke="black" stroke-width="0.5" d="M126.83,-24.03C153.54,-21.67 189.6,-18.49 221.17,-15.71"/>
<polygon fill="black" stroke="black" stroke-width="0.5" points="221.37,-17.44 226.2,-15.26 221.06,-13.96 221.37,-17.44"/>
</g>
<!-- ChebyshevSemiIteration -->
<g id="node3" class="node">
<title>ChebyshevSemiIteration</title>
<g id="a_node3"><a xlink:href="../api/proteus.LinearSolvers.html#proteus.LinearSolvers.ChebyshevSemiIteration" xlink:title="Class for implementing the ChebyshevSemiIteration." target="_top">
<polygon fill="none" stroke="black" stroke-width="0.5" points="361,-352 224,-352 224,-333 361,-333 361,-352"/>
<text text-anchor="middle" x="292.5" y="-340" font-family="Vera Sans, DejaVu Sans, Liberation Sans, Arial, Helvetica, sans" font-size="10.00">ChebyshevSemiIteration</text>
</a>
</g>
</g>
<!-- LinearSolver -->
<g id="node4" class="node">
<title>LinearSolver</title>
<g id="a_node4"><a xlink:href="../api/proteus.LinearSolvers.html#proteus.LinearSolvers.LinearSolver" xlink:title="The base class for linear solvers." target="_top">
<polygon fill="none" stroke="black" stroke-width="0.5" points="125,-222 48,-222 48,-203 125,-203 125,-222"/>
<text text-anchor="middle" x="86.5" y="-210" font-family="Vera Sans, DejaVu Sans, Liberation Sans, Arial, Helvetica, sans" font-size="10.00">LinearSolver</text>
</a>
</g>
</g>
<!-- LinearSolver&#45;&gt;ChebyshevSemiIteration -->
<g id="edge2" class="edge">
<title>LinearSolver&#45;&gt;ChebyshevSemiIteration</title>
<path fill="none" stroke="black" stroke-width="0.5" d="M95.13,-222.3C112.71,-244.13 158.4,-296.95 209,-323.5 214.91,-326.6 221.32,-329.2 227.87,-331.38"/>
<polygon fill="black" stroke="black" stroke-width="0.5" points="227.6,-333.13 232.9,-332.96 228.65,-329.79 227.6,-333.13"/>
</g>
<!-- GaussSeidel -->
<g id="node7" class="node">
<title>GaussSeidel</title>
<g id="a_node7"><a xlink:href="../api/proteus.LinearSolvers.html#proteus.LinearSolvers.GaussSeidel" xlink:title="Damped Gauss&#45;Seidel." target="_top">
<polygon fill="none" stroke="black" stroke-width="0.5" points="331,-315 254,-315 254,-296 331,-296 331,-315"/>
<text text-anchor="middle" x="292.5" y="-303" font-family="Vera Sans, DejaVu Sans, Liberation Sans, Arial, Helvetica, sans" font-size="10.00">GaussSeidel</text>
</a>
</g>
</g>
<!-- LinearSolver&#45;&gt;GaussSeidel -->
<g id="edge4" class="edge">
<title>LinearSolver&#45;&gt;GaussSeidel</title>
<path fill="none" stroke="black" stroke-width="0.5" d="M100.24,-222.19C121.59,-237.96 166.45,-269.17 209,-286.5 221.5,-291.59 235.64,-295.47 248.65,-298.36"/>
<polygon fill="black" stroke="black" stroke-width="0.5" points="248.5,-300.12 253.76,-299.46 249.24,-296.7 248.5,-300.12"/>
</g>
<!-- Jacobi -->
<g id="node9" class="node">
<title>Jacobi</title>
<g id="a_node9"><a xlink:href="../api/proteus.LinearSolvers.html#proteus.LinearSolvers.Jacobi" xlink:title="Damped Jacobi iteration." target="_top">
<polygon fill="none" stroke="black" stroke-width="0.5" points="319.5,-278 265.5,-278 265.5,-259 319.5,-259 319.5,-278"/>
<text text-anchor="middle" x="292.5" y="-266" font-family="Vera Sans, DejaVu Sans, Liberation Sans, Arial, Helvetica, sans" font-size="10.00">Jacobi</text>
</a>
</g>
</g>
<!-- LinearSolver&#45;&gt;Jacobi -->
<g id="edge6" class="edge">
<title>LinearSolver&#45;&gt;Jacobi</title>
<path fill="none" stroke="black" stroke-width="0.5" d="M116.8,-222.05C141.31,-229.88 177.26,-241.02 209,-249.5 225.84,-254 244.78,-258.41 260.27,-261.84"/>
<polygon fill="black" stroke="black" stroke-width="0.5" points="260.12,-263.6 265.38,-262.97 260.87,-260.18 260.12,-263.6"/>
</g>
<!-- KSP_petsc4py -->
<g id="node11" class="node">
<title>KSP_petsc4py</title>
<g id="a_node11"><a xlink:href="../api/proteus.LinearSolvers.html#proteus.LinearSolvers.KSP_petsc4py" xlink:title="A class that interfaces Proteus with PETSc KSP." target="_top">
<polygon fill="none" stroke="black" stroke-width="0.5" points="335,-241 250,-241 250,-222 335,-222 335,-241"/>
<text text-anchor="middle" x="292.5" y="-229" font-family="Vera Sans, DejaVu Sans, Liberation Sans, Arial, Helvetica, sans" font-size="10.00">KSP_petsc4py</text>
</a>
</g>
</g>
<!-- LinearSolver&#45;&gt;KSP_petsc4py -->
<g id="edge7" class="edge">
<title>LinearSolver&#45;&gt;KSP_petsc4py</title>
<path fill="none" stroke="black" stroke-width="0.5" d="M125.39,-216.03C159.11,-219.17 208.54,-223.77 244.71,-227.14"/>
<polygon fill="black" stroke="black" stroke-width="0.5" points="244.81,-228.91 249.95,-227.63 245.13,-225.42 244.81,-228.91"/>
</g>
<!-- LU -->
<g id="node12" class="node">
<title>LU</title>
<g id="a_node12"><a xlink:href="../api/proteus.LinearSolvers.html#proteus.LinearSolvers.LU" xlink:title="A wrapper for pysparse&#39;s wrapper for superlu." target="_top">
<polygon fill="none" stroke="black" stroke-width="0.5" points="319.5,-204 265.5,-204 265.5,-185 319.5,-185 319.5,-204"/>
<text text-anchor="middle" x="292.5" y="-192" font-family="Vera Sans, DejaVu Sans, Liberation Sans, Arial, Helvetica, sans" font-size="10.00">LU</text>
</a>
</g>
</g>
<!-- LinearSolver&#45;&gt;LU -->
<g id="edge8" class="edge">
<title>LinearSolver&#45;&gt;LU</title>
<path fill="none" stroke="black" stroke-width="0.5" d="M125.39,-209.16C164.27,-205.73 224.04,-200.45 260.29,-197.25"/>
<polygon fill="black" stroke="black" stroke-width="0.5" points="260.63,-198.98 265.46,-196.8 260.33,-195.49 260.63,-198.98"/>
</g>
<!-- StarBILU -->
<g id="node32" class="node">
<title>StarBILU</title>
<g id="a_node32"><a xlink:href="../api/proteus.LinearSolvers.html#proteus.LinearSolvers.StarBILU" xlink:title="Alternating Schwarz Method on &#39;blocks&#39; consisting of consectutive rows in system for things like dg ..." target="_top">
<polygon fill="none" stroke="black" stroke-width="0.5" points="322,-167 263,-167 263,-148 322,-148 322,-167"/>
<text text-anchor="middle" x="292.5" y="-155" font-family="Vera Sans, DejaVu Sans, Liberation Sans, Arial, Helvetica, sans" font-size="10.00">StarBILU</text>
</a>
</g>
</g>
<!-- LinearSolver&#45;&gt;StarBILU -->
<g id="edge23" class="edge">
<title>LinearSolver&#45;&gt;StarBILU</title>
<path fill="none" stroke="black" stroke-width="0.5" d="M116.77,-202.86C141.27,-194.97 177.21,-183.79 209,-175.5 224.93,-171.34 242.76,-167.37 257.76,-164.22"/>
<polygon fill="black" stroke="black" stroke-width="0.5" points="258.19,-165.92 262.73,-163.18 257.48,-162.49 258.19,-165.92"/>
</g>
<!-- StarILU -->
<g id="node33" class="node">
<title>StarILU</title>
<g id="a_node33"><a xlink:href="../api/proteus.LinearSolvers.html#proteus.LinearSolvers.StarILU" xlink:title="Alternating Schwarz Method on node stars." target="_top">
<polygon fill="none" stroke="black" stroke-width="0.5" points="319.5,-130 265.5,-130 265.5,-111 319.5,-111 319.5,-130"/>
<text text-anchor="middle" x="292.5" y="-118" font-family="Vera Sans, DejaVu Sans, Liberation Sans, Arial, Helvetica, sans" font-size="10.00">StarILU</text>
</a>
</g>
</g>
<!-- LinearSolver&#45;&gt;StarILU -->
<g id="edge24" class="edge">
<title>LinearSolver&#45;&gt;StarILU</title>
<path fill="none" stroke="black" stroke-width="0.5" d="M100.22,-202.76C121.54,-186.9 166.35,-155.58 209,-138.5 225.26,-131.99 244.32,-127.63 260.01,-124.84"/>
<polygon fill="black" stroke="black" stroke-width="0.5" points="260.57,-126.52 265.2,-123.95 259.98,-123.07 260.57,-126.52"/>
</g>
<!-- TwoLevel -->
<g id="node35" class="node">
<title>TwoLevel</title>
<g id="a_node35"><a xlink:href="../api/proteus.LinearSolvers.html#proteus.LinearSolvers.TwoLevel" xlink:title="A generic two&#45;level multiplicative Schwarz solver." target="_top">
<polygon fill="none" stroke="black" stroke-width="0.5" points="323.5,-93 261.5,-93 261.5,-74 323.5,-74 323.5,-93"/>
<text text-anchor="middle" x="292.5" y="-81" font-family="Vera Sans, DejaVu Sans, Liberation Sans, Arial, Helvetica, sans" font-size="10.00">TwoLevel</text>
</a>
</g>
</g>
<!-- LinearSolver&#45;&gt;TwoLevel -->
<g id="edge25" class="edge">
<title>LinearSolver&#45;&gt;TwoLevel</title>
<path fill="none" stroke="black" stroke-width="0.5" d="M94.85,-202.99C112.18,-181.27 158,-127.89 209,-101.5 223.5,-93.99 241.01,-89.61 256.16,-87.06"/>
<polygon fill="black" stroke="black" stroke-width="0.5" points="256.53,-88.77 261.19,-86.26 255.98,-85.31 256.53,-88.77"/>
</g>
<!-- ConstantNullSpace -->
<g id="node5" class="node">
<title>ConstantNullSpace</title>
<g id="a_node5"><a xlink:href="../api/proteus.LinearSolvers.html#proteus.LinearSolvers.ConstantNullSpace" xlink:title="ConstantNullSpace" target="_top">
<polygon fill="none" stroke="black" stroke-width="0.5" points="347,-426 238,-426 238,-407 347,-407 347,-426"/>
<text text-anchor="middle" x="292.5" y="-414" font-family="Vera Sans, DejaVu Sans, Liberation Sans, Arial, Helvetica, sans" font-size="10.00">ConstantNullSpace</text>
</a>
</g>
</g>
<!-- SolverNullSpace -->
<g id="node6" class="node">
<title>SolverNullSpace</title>
<g id="a_node6"><a xlink:href="../api/proteus.LinearSolvers.html#proteus.LinearSolvers.SolverNullSpace" xlink:title="SolverNullSpace" target="_top">
<polygon fill="none" stroke="black" stroke-width="0.5" points="134.5,-407 38.5,-407 38.5,-388 134.5,-388 134.5,-407"/>
<text text-anchor="middle" x="86.5" y="-395" font-family="Vera Sans, DejaVu Sans, Liberation Sans, Arial, Helvetica, sans" font-size="10.00">SolverNullSpace</text>
</a>
</g>
</g>
<!-- SolverNullSpace&#45;&gt;ConstantNullSpace -->
<g id="edge3" class="edge">
<title>SolverNullSpace&#45;&gt;ConstantNullSpace</title>
<path fill="none" stroke="black" stroke-width="0.5" d="M134.56,-401.88C163.7,-404.6 201.37,-408.11 232.5,-411.01"/>
<polygon fill="black" stroke="black" stroke-width="0.5" points="232.7,-412.78 237.84,-411.5 233.02,-409.3 232.7,-412.78"/>
</g>
<!-- NavierStokesConstantPressure -->
<g id="node20" class="node">
<title>NavierStokesConstantPressure</title>
<g id="a_node20"><a xlink:href="../api/proteus.LinearSolvers.html#proteus.LinearSolvers.NavierStokesConstantPressure" xlink:title="NavierStokesConstantPressure" target="_top">
<polygon fill="none" stroke="black" stroke-width="0.5" points="376,-389 209,-389 209,-370 376,-370 376,-389"/>
<text text-anchor="middle" x="292.5" y="-377" font-family="Vera Sans, DejaVu Sans, Liberation Sans, Arial, Helvetica, sans" font-size="10.00">NavierStokesConstantPressure</text>
</a>
</g>
</g>
<!-- SolverNullSpace&#45;&gt;NavierStokesConstantPressure -->
<g id="edge13" class="edge">
<title>SolverNullSpace&#45;&gt;NavierStokesConstantPressure</title>
<path fill="none" stroke="black" stroke-width="0.5" d="M134.56,-393.35C155.1,-391.54 179.88,-389.35 203.62,-387.25"/>
<polygon fill="black" stroke="black" stroke-width="0.5" points="203.84,-388.99 208.67,-386.81 203.54,-385.5 203.84,-388.99"/>
</g>
<!-- KSP_Preconditioner -->
<g id="node10" class="node">
<title>KSP_Preconditioner</title>
<g id="a_node10"><a xlink:href="../api/proteus.LinearSolvers.html#proteus.LinearSolvers.KSP_Preconditioner" xlink:title="Base class for PETSc KSP precondtioners." target="_top">
<polygon fill="none" stroke="black" stroke-width="0.5" points="142,-500 31,-500 31,-481 142,-481 142,-500"/>
<text text-anchor="middle" x="86.5" y="-488" font-family="Vera Sans, DejaVu Sans, Liberation Sans, Arial, Helvetica, sans" font-size="10.00">KSP_Preconditioner</text>
</a>
</g>
</g>
<!-- SchurPrecon -->
<g id="node22" class="node">
<title>SchurPrecon</title>
<g id="a_node22"><a xlink:href="../api/proteus.LinearSolvers.html#proteus.LinearSolvers.SchurPrecon" xlink:title="Base class for PETSc Schur complement preconditioners." target="_top">
<polygon fill="none" stroke="black" stroke-width="0.5" points="331,-537 254,-537 254,-518 331,-518 331,-537"/>
<text text-anchor="middle" x="292.5" y="-525" font-family="Vera Sans, DejaVu Sans, Liberation Sans, Arial, Helvetica, sans" font-size="10.00">SchurPrecon</text>
</a>
</g>
</g>
<!-- KSP_Preconditioner&#45;&gt;SchurPrecon -->
<g id="edge19" class="edge">
<title>KSP_Preconditioner&#45;&gt;SchurPrecon</title>
<path fill="none" stroke="black" stroke-width="0.5" d="M140.04,-500.03C173.88,-506.17 217.3,-514.04 248.97,-519.79"/>
<polygon fill="black" stroke="black" stroke-width="0.5" points="248.72,-521.52 253.95,-520.69 249.35,-518.08 248.72,-521.52"/>
</g>
<!-- petsc_ASM -->
<g id="node36" class="node">
<title>petsc_ASM</title>
<g id="a_node36"><a xlink:href="../api/proteus.LinearSolvers.html#proteus.LinearSolvers.petsc_ASM" xlink:title="ASM PETSc preconditioner class." target="_top">
<polygon fill="none" stroke="black" stroke-width="0.5" points="327.5,-500 257.5,-500 257.5,-481 327.5,-481 327.5,-500"/>
<text text-anchor="middle" x="292.5" y="-488" font-family="Vera Sans, DejaVu Sans, Liberation Sans, Arial, Helvetica, sans" font-size="10.00">petsc_ASM</text>
</a>
</g>
</g>
<!-- KSP_Preconditioner&#45;&gt;petsc_ASM -->
<g id="edge26" class="edge">
<title>KSP_Preconditioner&#45;&gt;petsc_ASM</title>
<path fill="none" stroke="black" stroke-width="0.5" d="M142.17,-490.5C176.87,-490.5 220.95,-490.5 252.21,-490.5"/>
<polygon fill="black" stroke="black" stroke-width="0.5" points="252.5,-492.25 257.5,-490.5 252.5,-488.75 252.5,-492.25"/>
</g>
<!-- petsc_LU -->
<g id="node37" class="node">
<title>petsc_LU</title>
<g id="a_node37"><a xlink:href="../api/proteus.LinearSolvers.html#proteus.LinearSolvers.petsc_LU" xlink:title="LU PETSc preconditioner class." target="_top">
<polygon fill="none" stroke="black" stroke-width="0.5" points="323,-463 262,-463 262,-444 323,-444 323,-463"/>
<text text-anchor="middle" x="292.5" y="-451" font-family="Vera Sans, DejaVu Sans, Liberation Sans, Arial, Helvetica, sans" font-size="10.00">petsc_LU</text>
</a>
</g>
</g>
<!-- KSP_Preconditioner&#45;&gt;petsc_LU -->
<g id="edge27" class="edge">
<title>KSP_Preconditioner&#45;&gt;petsc_LU</title>
<path fill="none" stroke="black" stroke-width="0.5" d="M140.04,-480.97C176.79,-474.31 224.85,-465.59 256.88,-459.78"/>
<polygon fill="black" stroke="black" stroke-width="0.5" points="257.27,-461.49 261.88,-458.87 256.65,-458.04 257.27,-461.49"/>
</g>
<!-- MGM -->
<g id="node13" class="node">
<title>MGM</title>
<g id="a_node13"><a xlink:href="../api/proteus.LinearSolvers.html#proteus.LinearSolvers.MGM" xlink:title="A generic multigrid W cycle." target="_top">
<polygon fill="none" stroke="black" stroke-width="0.5" points="319.5,-611 265.5,-611 265.5,-592 319.5,-592 319.5,-611"/>
<text text-anchor="middle" x="292.5" y="-599" font-family="Vera Sans, DejaVu Sans, Liberation Sans, Arial, Helvetica, sans" font-size="10.00">MGM</text>
</a>
</g>
</g>
<!-- MultilevelLinearSolver -->
<g id="node14" class="node">
<title>MultilevelLinearSolver</title>
<g id="a_node14"><a xlink:href="../api/proteus.LinearSolvers.html#proteus.LinearSolvers.MultilevelLinearSolver" xlink:title="A generic multilevel solver." target="_top">
<polygon fill="none" stroke="black" stroke-width="0.5" points="149.5,-583 23.5,-583 23.5,-564 149.5,-564 149.5,-583"/>
<text text-anchor="middle" x="86.5" y="-571" font-family="Vera Sans, DejaVu Sans, Liberation Sans, Arial, Helvetica, sans" font-size="10.00">MultilevelLinearSolver</text>
</a>
</g>
</g>
<!-- MultilevelLinearSolver&#45;&gt;MGM -->
<g id="edge9" class="edge">
<title>MultilevelLinearSolver&#45;&gt;MGM</title>
<path fill="none" stroke="black" stroke-width="0.5" d="M149.54,-582.01C186.06,-587.03 230.71,-593.16 260.07,-597.19"/>
<polygon fill="black" stroke="black" stroke-width="0.5" points="260.17,-598.97 265.37,-597.91 260.65,-595.5 260.17,-598.97"/>
</g>
<!-- NI -->
<g id="node16" class="node">
<title>NI</title>
<g id="a_node16"><a xlink:href="../api/proteus.LinearSolvers.html#proteus.LinearSolvers.NI" xlink:title="A generic nested iteration solver." target="_top">
<polygon fill="none" stroke="black" stroke-width="0.5" points="319.5,-574 265.5,-574 265.5,-555 319.5,-555 319.5,-574"/>
<text text-anchor="middle" x="292.5" y="-562" font-family="Vera Sans, DejaVu Sans, Liberation Sans, Arial, Helvetica, sans" font-size="10.00">NI</text>
</a>
</g>
</g>
<!-- MultilevelLinearSolver&#45;&gt;NI -->
<g id="edge10" class="edge">
<title>MultilevelLinearSolver&#45;&gt;NI</title>
<path fill="none" stroke="black" stroke-width="0.5" d="M149.54,-570.76C186.06,-569.15 230.71,-567.18 260.07,-565.89"/>
<polygon fill="black" stroke="black" stroke-width="0.5" points="260.45,-567.62 265.37,-565.65 260.29,-564.13 260.45,-567.62"/>
</g>
<!-- ModelInfo -->
<g id="node15" class="node">
<title>ModelInfo</title>
<g id="a_node15"><a xlink:href="../api/proteus.LinearSolvers.html#proteus.LinearSolvers.ModelInfo" xlink:title="This class stores the model information needed to initialize a" target="_top">
<polygon fill="none" stroke="black" stroke-width="0.5" points="119,-620 54,-620 54,-601 119,-601 119,-620"/>
<text text-anchor="middle" x="86.5" y="-608" font-family="Vera Sans, DejaVu Sans, Liberation Sans, Arial, Helvetica, sans" font-size="10.00">ModelInfo</text>
</a>
</g>
</g>
<!-- NavierStokes2D -->
<g id="node17" class="node">
<title>NavierStokes2D</title>
<g id="a_node17"><a xlink:href="../api/proteus.LinearSolvers.html#proteus.LinearSolvers.NavierStokes2D" xlink:title="NavierStokes2D" target="_top">
<polygon fill="none" stroke="black" stroke-width="0.5" points="681,-610 586,-610 586,-591 681,-591 681,-610"/>
<text text-anchor="middle" x="633.5" y="-598" font-family="Vera Sans, DejaVu Sans, Liberation Sans, Arial, Helvetica, sans" font-size="10.00">NavierStokes2D</text>
</a>
</g>
</g>
<!-- NavierStokesSchur -->
<g id="node18" class="node">
<title>NavierStokesSchur</title>
<g id="a_node18"><a xlink:href="../api/proteus.LinearSolvers.html#proteus.LinearSolvers.NavierStokesSchur" xlink:title="Schur complement preconditioners for Navier&#45;Stokes problems." target="_top">
<polygon fill="none" stroke="black" stroke-width="0.5" points="520,-555 412,-555 412,-536 520,-536 520,-555"/>
<text text-anchor="middle" x="466" y="-543" font-family="Vera Sans, DejaVu Sans, Liberation Sans, Arial, Helvetica, sans" font-size="10.00">NavierStokesSchur</text>
</a>
</g>
</g>
<!-- NavierStokesSchur&#45;&gt;NavierStokes2D -->
<g id="edge11" class="edge">
<title>NavierStokesSchur&#45;&gt;NavierStokes2D</title>
<path fill="none" stroke="black" stroke-width="0.5" d="M488.27,-555.09C506.1,-562.89 532.38,-573.83 556,-581.5 565.09,-584.45 574.91,-587.21 584.39,-589.65"/>
<polygon fill="black" stroke="black" stroke-width="0.5" points="584.03,-591.37 589.31,-590.9 584.9,-587.97 584.03,-591.37"/>
</g>
<!-- NavierStokes3D -->
<g id="node19" class="node">
<title>NavierStokes3D</title>
<g id="a_node19"><a xlink:href="../api/proteus.LinearSolvers.html#proteus.LinearSolvers.NavierStokes3D" xlink:title="NavierStokes3D" target="_top">
<polygon fill="none" stroke="black" stroke-width="0.5" points="681,-573 586,-573 586,-554 681,-554 681,-573"/>
<text text-anchor="middle" x="633.5" y="-561" font-family="Vera Sans, DejaVu Sans, Liberation Sans, Arial, Helvetica, sans" font-size="10.00">NavierStokes3D</text>
</a>
</g>
</g>
<!-- NavierStokesSchur&#45;&gt;NavierStokes3D -->
<g id="edge12" class="edge">
<title>NavierStokesSchur&#45;&gt;NavierStokes3D</title>
<path fill="none" stroke="black" stroke-width="0.5" d="M520.28,-551.29C539.54,-553.39 561.25,-555.75 580.41,-557.83"/>
<polygon fill="black" stroke="black" stroke-width="0.5" points="580.58,-559.61 585.74,-558.41 580.96,-556.13 580.58,-559.61"/>
</g>
<!-- NavierStokes_TwoPhasePCD -->
<g id="node23" class="node">
<title>NavierStokes_TwoPhasePCD</title>
<g id="a_node23"><a xlink:href="../api/proteus.LinearSolvers.html#proteus.LinearSolvers.NavierStokes_TwoPhasePCD" xlink:title="Two&#45;phase PCD Schur complement approximation class." target="_top">
<polygon fill="none" stroke="black" stroke-width="0.5" points="711,-536 556,-536 556,-517 711,-517 711,-536"/>
<text text-anchor="middle" x="633.5" y="-524" font-family="Vera Sans, DejaVu Sans, Liberation Sans, Arial, Helvetica, sans" font-size="10.00">NavierStokes_TwoPhasePCD</text>
</a>
</g>
</g>
<!-- NavierStokesSchur&#45;&gt;NavierStokes_TwoPhasePCD -->
<g id="edge16" class="edge">
<title>NavierStokesSchur&#45;&gt;NavierStokes_TwoPhasePCD</title>
<path fill="none" stroke="black" stroke-width="0.5" d="M520.28,-539.38C530.02,-538.26 540.39,-537.07 550.74,-535.89"/>
<polygon fill="black" stroke="black" stroke-width="0.5" points="551.05,-537.61 555.82,-535.3 550.65,-534.13 551.05,-537.61"/>
</g>
<!-- Schur_Sp -->
<g id="node30" class="node">
<title>Schur_Sp</title>
<g id="a_node30"><a xlink:href="../api/proteus.LinearSolvers.html#proteus.LinearSolvers.Schur_Sp" xlink:title="Implements the SIMPLE Schur complement approximation proposed" target="_top">
<polygon fill="none" stroke="black" stroke-width="0.5" points="664,-499 603,-499 603,-480 664,-480 664,-499"/>
<text text-anchor="middle" x="633.5" y="-487" font-family="Vera Sans, DejaVu Sans, Liberation Sans, Arial, Helvetica, sans" font-size="10.00">Schur_Sp</text>
</a>
</g>
</g>
<!-- NavierStokesSchur&#45;&gt;Schur_Sp -->
<g id="edge22" class="edge">
<title>NavierStokesSchur&#45;&gt;Schur_Sp</title>
<path fill="none" stroke="black" stroke-width="0.5" d="M495.9,-535.98C503.8,-533.14 512.31,-529.89 520,-526.5 536.56,-519.21 539.06,-513.85 556,-507.5 569.31,-502.51 584.46,-498.61 597.74,-495.72"/>
<polygon fill="black" stroke="black" stroke-width="0.5" points="598.39,-497.37 602.92,-494.63 597.67,-493.95 598.39,-497.37"/>
</g>
<!-- NavierStokesPressureCorrection -->
<g id="node21" class="node">
<title>NavierStokesPressureCorrection</title>
<g id="a_node21"><a xlink:href="../api/proteus.LinearSolvers.html#proteus.LinearSolvers.NavierStokesPressureCorrection" xlink:title="NavierStokesPressureCorrection" target="_top">
<polygon fill="none" stroke="black" stroke-width="0.5" points="173,-657 0,-657 0,-638 173,-638 173,-657"/>
<text text-anchor="middle" x="86.5" y="-645" font-family="Vera Sans, DejaVu Sans, Liberation Sans, Arial, Helvetica, sans" font-size="10.00">NavierStokesPressureCorrection</text>
</a>
</g>
</g>
<!-- SchurPrecon&#45;&gt;NavierStokesSchur -->
<g id="edge14" class="edge">
<title>SchurPrecon&#45;&gt;NavierStokesSchur</title>
<path fill="none" stroke="black" stroke-width="0.5" d="M331.14,-525.75C358.24,-527.27 394.83,-531.04 422.9,-535.18"/>
<polygon fill="black" stroke="black" stroke-width="0.5" points="422.84,-536.94 428.04,-535.96 423.36,-533.48 422.84,-536.94"/>
</g>
<!-- SchurPrecon&#45;&gt;NavierStokesSchur -->
<g id="edge15" class="edge">
<title>SchurPrecon&#45;&gt;NavierStokesSchur</title>
<path fill="none" stroke="black" stroke-width="0.5" d="M330.29,-537.02C352.62,-540.49 381.61,-543.79 406.98,-545.84"/>
<polygon fill="black" stroke="black" stroke-width="0.5" points="406.88,-547.58 412,-546.23 407.15,-544.09 406.88,-547.58"/>
</g>
<!-- Schur_LSC -->
<g id="node28" class="node">
<title>Schur_LSC</title>
<g id="a_node28"><a xlink:href="../api/proteus.LinearSolvers.html#proteus.LinearSolvers.Schur_LSC" xlink:title="The Least&#45;Squares Communtator preconditioner for saddle" target="_top">
<polygon fill="none" stroke="black" stroke-width="0.5" points="499.5,-518 432.5,-518 432.5,-499 499.5,-499 499.5,-518"/>
<text text-anchor="middle" x="466" y="-506" font-family="Vera Sans, DejaVu Sans, Liberation Sans, Arial, Helvetica, sans" font-size="10.00">Schur_LSC</text>
</a>
</g>
</g>
<!-- SchurPrecon&#45;&gt;Schur_LSC -->
<g id="edge20" class="edge">
<title>SchurPrecon&#45;&gt;Schur_LSC</title>
<path fill="none" stroke="black" stroke-width="0.5" d="M331.14,-523.33C359.63,-520.17 398.61,-515.85 427.16,-512.69"/>
<polygon fill="black" stroke="black" stroke-width="0.5" points="427.59,-514.41 432.36,-512.12 427.2,-510.93 427.59,-514.41"/>
</g>
<!-- Schur_Qp -->
<g id="node29" class="node">
<title>Schur_Qp</title>
<g id="a_node29"><a xlink:href="../api/proteus.LinearSolvers.html#proteus.LinearSolvers.Schur_Qp" xlink:title="A Navier&#45;Stokes (or Stokes) preconditioner which uses the" target="_top">
<polygon fill="none" stroke="black" stroke-width="0.5" points="497,-481 435,-481 435,-462 497,-462 497,-481"/>
<text text-anchor="middle" x="466" y="-469" font-family="Vera Sans, DejaVu Sans, Liberation Sans, Arial, Helvetica, sans" font-size="10.00">Schur_Qp</text>
</a>
</g>
</g>
<!-- SchurPrecon&#45;&gt;Schur_Qp -->
<g id="edge21" class="edge">
<title>SchurPrecon&#45;&gt;Schur_Qp</title>
<path fill="none" stroke="black" stroke-width="0.5" d="M331.06,-520.99C345.37,-517.96 361.67,-513.83 376,-508.5 392.96,-502.19 395.38,-496.65 412,-489.5 417.72,-487.04 423.89,-484.68 429.94,-482.53"/>
<polygon fill="black" stroke="black" stroke-width="0.5" points="430.83,-484.07 434.97,-480.78 429.68,-480.77 430.83,-484.07"/>
</g>
<!-- OperatorConstructor -->
<g id="node24" class="node">
<title>OperatorConstructor</title>
<g id="a_node24"><a xlink:href="../api/proteus.LinearSolvers.html#proteus.LinearSolvers.OperatorConstructor" xlink:title="Base class for operator constructors." target="_top">
<polygon fill="none" stroke="black" stroke-width="0.5" points="144.5,-694 28.5,-694 28.5,-675 144.5,-675 144.5,-694"/>
<text text-anchor="middle" x="86.5" y="-682" font-family="Vera Sans, DejaVu Sans, Liberation Sans, Arial, Helvetica, sans" font-size="10.00">OperatorConstructor</text>
</a>
</g>
</g>
<!-- OperatorConstructor_oneLevel -->
<g id="node25" class="node">
<title>OperatorConstructor_oneLevel</title>
<g id="a_node25"><a xlink:href="../api/proteus.LinearSolvers.html#proteus.LinearSolvers.OperatorConstructor_oneLevel" xlink:title="A class for building common discrete operators from one&#45;level" target="_top">
<polygon fill="none" stroke="black" stroke-width="0.5" points="375,-703 210,-703 210,-684 375,-684 375,-703"/>
<text text-anchor="middle" x="292.5" y="-691" font-family="Vera Sans, DejaVu Sans, Liberation Sans, Arial, Helvetica, sans" font-size="10.00">OperatorConstructor_oneLevel</text>
</a>
</g>
</g>
<!-- OperatorConstructor&#45;&gt;OperatorConstructor_oneLevel -->
<g id="edge17" class="edge">
<title>OperatorConstructor&#45;&gt;OperatorConstructor_oneLevel</title>
<path fill="none" stroke="black" stroke-width="0.5" d="M144.6,-687.02C163.18,-687.84 184.24,-688.77 204.5,-689.66"/>
<polygon fill="black" stroke="black" stroke-width="0.5" points="204.56,-691.42 209.63,-689.89 204.71,-687.92 204.56,-691.42"/>
</g>
<!-- OperatorConstructor_rans2p -->
<g id="node26" class="node">
<title>OperatorConstructor_rans2p</title>
<g id="a_node26"><a xlink:href="../api/proteus.LinearSolvers.html#proteus.LinearSolvers.OperatorConstructor_rans2p" xlink:title="A class for building common discrete rans2p operators." target="_top">
<polygon fill="none" stroke="black" stroke-width="0.5" points="369.5,-666 215.5,-666 215.5,-647 369.5,-647 369.5,-666"/>
<text text-anchor="middle" x="292.5" y="-654" font-family="Vera Sans, DejaVu Sans, Liberation Sans, Arial, Helvetica, sans" font-size="10.00">OperatorConstructor_rans2p</text>
</a>
</g>
</g>
<!-- OperatorConstructor&#45;&gt;OperatorConstructor_rans2p -->
<g id="edge18" class="edge">
<title>OperatorConstructor&#45;&gt;OperatorConstructor_rans2p</title>
<path fill="none" stroke="black" stroke-width="0.5" d="M144.6,-676.66C167.05,-673.58 193.12,-670 217.02,-666.72"/>
<polygon fill="black" stroke="black" stroke-width="0.5" points="217.37,-668.44 222.08,-666.03 216.89,-664.97 217.37,-668.44"/>
</g>
<!-- SchurOperatorConstructor -->
<g id="node27" class="node">
<title>SchurOperatorConstructor</title>
<g id="a_node27"><a xlink:href="../api/proteus.LinearSolvers.html#proteus.LinearSolvers.SchurOperatorConstructor" xlink:title="Generate matrices for use in Schur complement preconditioner operators." target="_top">
<polygon fill="none" stroke="black" stroke-width="0.5" points="158,-731 15,-731 15,-712 158,-712 158,-731"/>
<text text-anchor="middle" x="86.5" y="-719" font-family="Vera Sans, DejaVu Sans, Liberation Sans, Arial, Helvetica, sans" font-size="10.00">SchurOperatorConstructor</text>
</a>
</g>
</g>
<!-- SimpleDarcyFC -->
<g id="node31" class="node">
<title>SimpleDarcyFC</title>
<g id="a_node31"><a xlink:href="../api/proteus.LinearSolvers.html#proteus.LinearSolvers.SimpleDarcyFC" xlink:title="SimpleDarcyFC" target="_top">
<polygon fill="none" stroke="black" stroke-width="0.5" points="132.5,-768 40.5,-768 40.5,-749 132.5,-749 132.5,-768"/>
<text text-anchor="middle" x="86.5" y="-756" font-family="Vera Sans, DejaVu Sans, Liberation Sans, Arial, Helvetica, sans" font-size="10.00">SimpleDarcyFC</text>
</a>
</g>
</g>
<!-- StorageSet -->
<g id="node34" class="node">
<title>StorageSet</title>
<g id="a_node34"><a xlink:href="../api/proteus.LinearSolvers.html#proteus.LinearSolvers.StorageSet" xlink:title="StorageSet" target="_top">
<polygon fill="none" stroke="black" stroke-width="0.5" points="121.5,-805 51.5,-805 51.5,-786 121.5,-786 121.5,-805"/>
<text text-anchor="middle" x="86.5" y="-793" font-family="Vera Sans, DejaVu Sans, Liberation Sans, Arial, Helvetica, sans" font-size="10.00">StorageSet</text>
</a>
</g>
</g>
</g>
</svg>
