<?xml version="1.0" encoding="UTF-8" standalone="no"?>
<!DOCTYPE svg PUBLIC "-//W3C//DTD SVG 1.1//EN"
 "http://www.w3.org/Graphics/SVG/1.1/DTD/svg11.dtd">
<!-- Generated by graphviz version 2.42.3 (0)
 -->
<!-- Title: inheritance22b3c436e6 Pages: 1 -->
<svg width="1987pt" height="429pt"
 viewBox="0.00 0.00 1987.00 429.00" xmlns="http://www.w3.org/2000/svg" xmlns:xlink="http://www.w3.org/1999/xlink">
<g id="graph0" class="graph" transform="scale(1 1) rotate(0) translate(4 425)">
<title>inheritance22b3c436e6</title>
<polygon fill="white" stroke="transparent" points="-4,4 -4,-425 1983,-425 1983,4 -4,4"/>
<!-- BlockHeterogeneousCoefficients -->
<g id="node1" class="node">
<title>BlockHeterogeneousCoefficients</title>
<g id="a_node1"><a xlink:href="../api/proteus.SubsurfaceTransportCoefficients.html#proteus.SubsurfaceTransportCoefficients.BlockHeterogeneousCoefficients" xlink:title="Basic data structures and functionality for keeping track of a" target="_top">
<polygon fill="none" stroke="black" stroke-width="0.5" points="176,-255 0,-255 0,-236 176,-236 176,-255"/>
<text text-anchor="middle" x="88" y="-243" font-family="Vera Sans, DejaVu Sans, Liberation Sans, Arial, Helvetica, sans" font-size="10.00">BlockHeterogeneousCoefficients</text>
</a>
</g>
</g>
<!-- CompressibleFractionalFlowPressureMualemVanGenuchten -->
<g id="node2" class="node">
<title>CompressibleFractionalFlowPressureMualemVanGenuchten</title>
<g id="a_node2"><a xlink:href="../api/proteus.SubsurfaceTransportCoefficients.html#proteus.SubsurfaceTransportCoefficients.CompressibleFractionalFlowPressureMualemVanGenuchten" xlink:title="Total flow equation coefficients for slight compressible flow" target="_top">
<polygon fill="none" stroke="black" stroke-width="0.5" points="1513,-278 1206,-278 1206,-259 1513,-259 1513,-278"/>
<text text-anchor="middle" x="1359.5" y="-266" font-family="Vera Sans, DejaVu Sans, Liberation Sans, Arial, Helvetica, sans" font-size="10.00">CompressibleFractionalFlowPressureMualemVanGenuchten</text>
</a>
</g>
</g>
<!-- TwophaseDarcy_compressible_split_pressure -->
<g id="node3" class="node">
<title>TwophaseDarcy_compressible_split_pressure</title>
<g id="a_node3"><a xlink:href="../api/proteus.SubsurfaceTransportCoefficients.html#proteus.SubsurfaceTransportCoefficients.TwophaseDarcy_compressible_split_pressure" xlink:title="Total flow conservation equation in a split compressible" target="_top">
<polygon fill="none" stroke="black" stroke-width="0.5" points="1101.5,-241 864.5,-241 864.5,-222 1101.5,-222 1101.5,-241"/>
<text text-anchor="middle" x="983" y="-229" font-family="Vera Sans, DejaVu Sans, Liberation Sans, Arial, Helvetica, sans" font-size="10.00">TwophaseDarcy_compressible_split_pressure</text>
</a>
</g>
</g>
<!-- TwophaseDarcy_compressible_split_pressure&#45;&gt;CompressibleFractionalFlowPressureMualemVanGenuchten -->
<g id="edge1" class="edge">
<title>TwophaseDarcy_compressible_split_pressure&#45;&gt;CompressibleFractionalFlowPressureMualemVanGenuchten</title>
<path fill="none" stroke="black" stroke-width="0.5" d="M1073.25,-241.02C1099.87,-243.81 1129.11,-246.83 1156,-249.5 1186.39,-252.52 1219.37,-255.66 1249.7,-258.51"/>
<polygon fill="black" stroke="black" stroke-width="0.5" points="1249.8,-260.27 1254.94,-259 1250.13,-256.79 1249.8,-260.27"/>
</g>
<!-- CompressibleFractionalFlowSaturationMualemVanGenuchten -->
<g id="node4" class="node">
<title>CompressibleFractionalFlowSaturationMualemVanGenuchten</title>
<g id="a_node4"><a xlink:href="../api/proteus.SubsurfaceTransportCoefficients.html#proteus.SubsurfaceTransportCoefficients.CompressibleFractionalFlowSaturationMualemVanGenuchten" xlink:title="Saturation equation coefficients for slightly compressible flow" target="_top">
<polygon fill="none" stroke="black" stroke-width="0.5" points="1517,-167 1202,-167 1202,-148 1517,-148 1517,-167"/>
<text text-anchor="middle" x="1359.5" y="-155" font-family="Vera Sans, DejaVu Sans, Liberation Sans, Arial, Helvetica, sans" font-size="10.00">CompressibleFractionalFlowSaturationMualemVanGenuchten</text>
</a>
</g>
</g>
<!-- TwophaseDarcy_compressible_split_saturation -->
<g id="node5" class="node">
<title>TwophaseDarcy_compressible_split_saturation</title>
<g id="a_node5"><a xlink:href="../api/proteus.SubsurfaceTransportCoefficients.html#proteus.SubsurfaceTransportCoefficients.TwophaseDarcy_compressible_split_saturation" xlink:title="Aqueous phase mass conservation equation (saturation equation) in a" target="_top">
<polygon fill="none" stroke="black" stroke-width="0.5" points="1105.5,-167 860.5,-167 860.5,-148 1105.5,-148 1105.5,-167"/>
<text text-anchor="middle" x="983" y="-155" font-family="Vera Sans, DejaVu Sans, Liberation Sans, Arial, Helvetica, sans" font-size="10.00">TwophaseDarcy_compressible_split_saturation</text>
</a>
</g>
</g>
<!-- TwophaseDarcy_compressible_split_saturation&#45;&gt;CompressibleFractionalFlowSaturationMualemVanGenuchten -->
<g id="edge2" class="edge">
<title>TwophaseDarcy_compressible_split_saturation&#45;&gt;CompressibleFractionalFlowSaturationMualemVanGenuchten</title>
<path fill="none" stroke="black" stroke-width="0.5" d="M1105.59,-157.5C1134.56,-157.5 1165.94,-157.5 1196.4,-157.5"/>
<polygon fill="black" stroke="black" stroke-width="0.5" points="1196.68,-159.25 1201.68,-157.5 1196.68,-155.75 1196.68,-159.25"/>
</g>
<!-- ConservativeHeadRichardsMualemVanGenuchten -->
<g id="node6" class="node">
<title>ConservativeHeadRichardsMualemVanGenuchten</title>
<g id="a_node6"><a xlink:href="../api/proteus.SubsurfaceTransportCoefficients.html#proteus.SubsurfaceTransportCoefficients.ConservativeHeadRichardsMualemVanGenuchten" xlink:title="version of Re where element material type id&#39;s used in evals" target="_top">
<polygon fill="none" stroke="black" stroke-width="0.5" points="471,-366 212,-366 212,-347 471,-347 471,-366"/>
<text text-anchor="middle" x="341.5" y="-354" font-family="Vera Sans, DejaVu Sans, Liberation Sans, Arial, Helvetica, sans" font-size="10.00">ConservativeHeadRichardsMualemVanGenuchten</text>
</a>
</g>
</g>
<!-- TC_base -->
<g id="node7" class="node">
<title>TC_base</title>
<g id="a_node7"><a xlink:href="../proteus.TransportCoefficients.html#proteus.TransportCoefficients.TC_base" xlink:title="This is the base class for coefficients of the vector transport" target="_top">
<polygon fill="none" stroke="black" stroke-width="0.5" points="116.5,-292 59.5,-292 59.5,-273 116.5,-273 116.5,-292"/>
<text text-anchor="middle" x="88" y="-280" font-family="Vera Sans, DejaVu Sans, Liberation Sans, Arial, Helvetica, sans" font-size="10.00">TC_base</text>
</a>
</g>
</g>
<!-- TC_base&#45;&gt;ConservativeHeadRichardsMualemVanGenuchten -->
<g id="edge3" class="edge">
<title>TC_base&#45;&gt;ConservativeHeadRichardsMualemVanGenuchten</title>
<path fill="none" stroke="black" stroke-width="0.5" d="M105.91,-292.11C129.08,-304.82 172.35,-326.96 212,-338.5 222.22,-341.48 233.05,-343.97 243.91,-346.05"/>
<polygon fill="black" stroke="black" stroke-width="0.5" points="243.67,-347.78 248.9,-346.98 244.31,-344.34 243.67,-347.78"/>
</g>
<!-- GroundwaterTransportCoefficients -->
<g id="node14" class="node">
<title>GroundwaterTransportCoefficients</title>
<g id="a_node14"><a xlink:href="../api/proteus.SubsurfaceTransportCoefficients.html#proteus.SubsurfaceTransportCoefficients.GroundwaterTransportCoefficients" xlink:title="GroundwaterTransportCoefficients" target="_top">
<polygon fill="none" stroke="black" stroke-width="0.5" points="432.5,-329 250.5,-329 250.5,-310 432.5,-310 432.5,-329"/>
<text text-anchor="middle" x="341.5" y="-317" font-family="Vera Sans, DejaVu Sans, Liberation Sans, Arial, Helvetica, sans" font-size="10.00">GroundwaterTransportCoefficients</text>
</a>
</g>
</g>
<!-- TC_base&#45;&gt;GroundwaterTransportCoefficients -->
<g id="edge8" class="edge">
<title>TC_base&#45;&gt;GroundwaterTransportCoefficients</title>
<path fill="none" stroke="black" stroke-width="0.5" d="M116.88,-286.6C153.66,-292.01 219.69,-301.73 270.49,-309.2"/>
<polygon fill="black" stroke="black" stroke-width="0.5" points="270.47,-310.97 275.67,-309.96 270.98,-307.5 270.47,-310.97"/>
</g>
<!-- MultiphaseGroundwaterTransportCoefficients -->
<g id="node22" class="node">
<title>MultiphaseGroundwaterTransportCoefficients</title>
<g id="a_node22"><a xlink:href="../api/proteus.SubsurfaceTransportCoefficients.html#proteus.SubsurfaceTransportCoefficients.MultiphaseGroundwaterTransportCoefficients" xlink:title="MultiphaseGroundwaterTransportCoefficients" target="_top">
<polygon fill="none" stroke="black" stroke-width="0.5" points="459.5,-292 223.5,-292 223.5,-273 459.5,-273 459.5,-292"/>
<text text-anchor="middle" x="341.5" y="-280" font-family="Vera Sans, DejaVu Sans, Liberation Sans, Arial, Helvetica, sans" font-size="10.00">MultiphaseGroundwaterTransportCoefficients</text>
</a>
</g>
</g>
<!-- TC_base&#45;&gt;MultiphaseGroundwaterTransportCoefficients -->
<g id="edge14" class="edge">
<title>TC_base&#45;&gt;MultiphaseGroundwaterTransportCoefficients</title>
<path fill="none" stroke="black" stroke-width="0.5" d="M116.88,-282.5C141.84,-282.5 180.29,-282.5 218.3,-282.5"/>
<polygon fill="black" stroke="black" stroke-width="0.5" points="218.41,-284.25 223.41,-282.5 218.41,-280.75 218.41,-284.25"/>
</g>
<!-- SinglePhaseDarcyCoefficients -->
<g id="node30" class="node">
<title>SinglePhaseDarcyCoefficients</title>
<g id="a_node30"><a xlink:href="../api/proteus.SubsurfaceTransportCoefficients.html#proteus.SubsurfaceTransportCoefficients.SinglePhaseDarcyCoefficients" xlink:title=":math:`S_s h_t &#45;deld ( K_i(x,t) grad h_i ) + r(x,t) = 0 i=1,nc`" target="_top">
<polygon fill="none" stroke="black" stroke-width="0.5" points="422.5,-255 260.5,-255 260.5,-236 422.5,-236 422.5,-255"/>
<text text-anchor="middle" x="341.5" y="-243" font-family="Vera Sans, DejaVu Sans, Liberation Sans, Arial, Helvetica, sans" font-size="10.00">SinglePhaseDarcyCoefficients</text>
</a>
</g>
</g>
<!-- TC_base&#45;&gt;SinglePhaseDarcyCoefficients -->
<g id="edge19" class="edge">
<title>TC_base&#45;&gt;SinglePhaseDarcyCoefficients</title>
<path fill="none" stroke="black" stroke-width="0.5" d="M116.83,-278.09C141.75,-274.16 179.29,-268.32 212,-263.5 229.52,-260.92 248.4,-258.23 266.14,-255.73"/>
<polygon fill="black" stroke="black" stroke-width="0.5" points="266.41,-257.46 271.12,-255.04 265.92,-254 266.41,-257.46"/>
</g>
<!-- TwophaseDarcyFlow_base -->
<g id="node31" class="node">
<title>TwophaseDarcyFlow_base</title>
<g id="a_node31"><a xlink:href="../api/proteus.SubsurfaceTransportCoefficients.html#proteus.SubsurfaceTransportCoefficients.TwophaseDarcyFlow_base" xlink:title="TwophaseDarcyFlow_base" target="_top">
<polygon fill="none" stroke="black" stroke-width="0.5" points="414,-209 269,-209 269,-190 414,-190 414,-209"/>
<text text-anchor="middle" x="341.5" y="-197" font-family="Vera Sans, DejaVu Sans, Liberation Sans, Arial, Helvetica, sans" font-size="10.00">TwophaseDarcyFlow_base</text>
</a>
</g>
</g>
<!-- TC_base&#45;&gt;TwophaseDarcyFlow_base -->
<g id="edge20" class="edge">
<title>TC_base&#45;&gt;TwophaseDarcyFlow_base</title>
<path fill="none" stroke="black" stroke-width="0.5" d="M116.71,-280.57C134.56,-278.36 157.75,-273.64 176,-263.5 196.06,-252.36 191.9,-237.56 212,-226.5 227.79,-217.81 246.09,-211.91 263.83,-207.91"/>
<polygon fill="black" stroke="black" stroke-width="0.5" points="264.3,-209.6 268.82,-206.83 263.56,-206.18 264.3,-209.6"/>
</g>
<!-- FullyCoupledMualemVanGenuchten -->
<g id="node8" class="node">
<title>FullyCoupledMualemVanGenuchten</title>
<g id="a_node8"><a xlink:href="../api/proteus.SubsurfaceTransportCoefficients.html#proteus.SubsurfaceTransportCoefficients.FullyCoupledMualemVanGenuchten" xlink:title="Formulation using phase continuity equations and Van&#45;Genuchten" target="_top">
<polygon fill="none" stroke="black" stroke-width="0.5" points="1078,-389 888,-389 888,-370 1078,-370 1078,-389"/>
<text text-anchor="middle" x="983" y="-377" font-family="Vera Sans, DejaVu Sans, Liberation Sans, Arial, Helvetica, sans" font-size="10.00">FullyCoupledMualemVanGenuchten</text>
</a>
</g>
</g>
<!-- TwophaseDarcy_fc -->
<g id="node9" class="node">
<title>TwophaseDarcy_fc</title>
<g id="a_node9"><a xlink:href="../api/proteus.SubsurfaceTransportCoefficients.html#proteus.SubsurfaceTransportCoefficients.TwophaseDarcy_fc" xlink:title="continuity equation for each phase" target="_top">
<polygon fill="none" stroke="black" stroke-width="0.5" points="712,-331 605,-331 605,-312 712,-312 712,-331"/>
<text text-anchor="middle" x="658.5" y="-319" font-family="Vera Sans, DejaVu Sans, Liberation Sans, Arial, Helvetica, sans" font-size="10.00">TwophaseDarcy_fc</text>
</a>
</g>
</g>
<!-- TwophaseDarcy_fc&#45;&gt;FullyCoupledMualemVanGenuchten -->
<g id="edge4" class="edge">
<title>TwophaseDarcy_fc&#45;&gt;FullyCoupledMualemVanGenuchten</title>
<path fill="none" stroke="black" stroke-width="0.5" d="M712.2,-322.98C741.62,-325.08 778.57,-329.85 810,-340.5 827.54,-346.45 828.48,-355.5 846,-361.5 857.74,-365.52 870.33,-368.65 882.94,-371.08"/>
<polygon fill="black" stroke="black" stroke-width="0.5" points="882.72,-372.82 887.96,-372.01 883.36,-369.38 882.72,-372.82"/>
</g>
<!-- FullyCoupledSimplePSKs -->
<g id="node13" class="node">
<title>FullyCoupledSimplePSKs</title>
<g id="a_node13"><a xlink:href="../api/proteus.SubsurfaceTransportCoefficients.html#proteus.SubsurfaceTransportCoefficients.FullyCoupledSimplePSKs" xlink:title="Formulation using phase continuity equations and &#39;simp&#39; quadratic" target="_top">
<polygon fill="none" stroke="black" stroke-width="0.5" points="1051.5,-352 914.5,-352 914.5,-333 1051.5,-333 1051.5,-352"/>
<text text-anchor="middle" x="983" y="-340" font-family="Vera Sans, DejaVu Sans, Liberation Sans, Arial, Helvetica, sans" font-size="10.00">FullyCoupledSimplePSKs</text>
</a>
</g>
</g>
<!-- TwophaseDarcy_fc&#45;&gt;FullyCoupledSimplePSKs -->
<g id="edge7" class="edge">
<title>TwophaseDarcy_fc&#45;&gt;FullyCoupledSimplePSKs</title>
<path fill="none" stroke="black" stroke-width="0.5" d="M712.03,-324.92C765.68,-328.41 849.37,-333.86 909.34,-337.77"/>
<polygon fill="black" stroke="black" stroke-width="0.5" points="909.24,-339.52 914.35,-338.09 909.47,-336.02 909.24,-339.52"/>
</g>
<!-- FullyCoupledPressurePressureMualemVanGenuchten -->
<g id="node10" class="node">
<title>FullyCoupledPressurePressureMualemVanGenuchten</title>
<g id="a_node10"><a xlink:href="../api/proteus.SubsurfaceTransportCoefficients.html#proteus.SubsurfaceTransportCoefficients.FullyCoupledPressurePressureMualemVanGenuchten" xlink:title="Formulation using phase continuity equations, pressure&#45;pressure" target="_top">
<polygon fill="none" stroke="black" stroke-width="0.5" points="1120,-315 846,-315 846,-296 1120,-296 1120,-315"/>
<text text-anchor="middle" x="983" y="-303" font-family="Vera Sans, DejaVu Sans, Liberation Sans, Arial, Helvetica, sans" font-size="10.00">FullyCoupledPressurePressureMualemVanGenuchten</text>
</a>
</g>
</g>
<!-- TwophaseDarcy_fc_pp -->
<g id="node11" class="node">
<title>TwophaseDarcy_fc_pp</title>
<g id="a_node11"><a xlink:href="../api/proteus.SubsurfaceTransportCoefficients.html#proteus.SubsurfaceTransportCoefficients.TwophaseDarcy_fc_pp" xlink:title="continuity equation for each phase" target="_top">
<polygon fill="none" stroke="black" stroke-width="0.5" points="721,-278 596,-278 596,-259 721,-259 721,-278"/>
<text text-anchor="middle" x="658.5" y="-266" font-family="Vera Sans, DejaVu Sans, Liberation Sans, Arial, Helvetica, sans" font-size="10.00">TwophaseDarcy_fc_pp</text>
</a>
</g>
</g>
<!-- TwophaseDarcy_fc_pp&#45;&gt;FullyCoupledPressurePressureMualemVanGenuchten -->
<g id="edge5" class="edge">
<title>TwophaseDarcy_fc_pp&#45;&gt;FullyCoupledPressurePressureMualemVanGenuchten</title>
<path fill="none" stroke="black" stroke-width="0.5" d="M721.3,-275.59C770.2,-281.2 839.12,-289.11 893.82,-295.38"/>
<polygon fill="black" stroke="black" stroke-width="0.5" points="893.9,-297.15 899.07,-295.99 894.3,-293.68 893.9,-297.15"/>
</g>
<!-- FullyCoupledPressurePressureSimplePSKs -->
<g id="node12" class="node">
<title>FullyCoupledPressurePressureSimplePSKs</title>
<g id="a_node12"><a xlink:href="../api/proteus.SubsurfaceTransportCoefficients.html#proteus.SubsurfaceTransportCoefficients.FullyCoupledPressurePressureSimplePSKs" xlink:title="Formulation using phase continuity equations and &#39;simp&#39; quadratic" target="_top">
<polygon fill="none" stroke="black" stroke-width="0.5" points="1093.5,-278 872.5,-278 872.5,-259 1093.5,-259 1093.5,-278"/>
<text text-anchor="middle" x="983" y="-266" font-family="Vera Sans, DejaVu Sans, Liberation Sans, Arial, Helvetica, sans" font-size="10.00">FullyCoupledPressurePressureSimplePSKs</text>
</a>
</g>
</g>
<!-- TwophaseDarcy_fc_pp&#45;&gt;FullyCoupledPressurePressureSimplePSKs -->
<g id="edge6" class="edge">
<title>TwophaseDarcy_fc_pp&#45;&gt;FullyCoupledPressurePressureSimplePSKs</title>
<path fill="none" stroke="black" stroke-width="0.5" d="M721.3,-268.5C762.59,-268.5 818.15,-268.5 867.37,-268.5"/>
<polygon fill="black" stroke="black" stroke-width="0.5" points="867.42,-270.25 872.42,-268.5 867.42,-266.75 867.42,-270.25"/>
</g>
<!-- IncompressibleFractionalFlowPressureMualemVanGenuchten -->
<g id="node15" class="node">
<title>IncompressibleFractionalFlowPressureMualemVanGenuchten</title>
<g id="a_node15"><a xlink:href="../api/proteus.SubsurfaceTransportCoefficients.html#proteus.SubsurfaceTransportCoefficients.IncompressibleFractionalFlowPressureMualemVanGenuchten" xlink:title="Total flow equation coefficients for incompressible flow assuming" target="_top">
<polygon fill="none" stroke="black" stroke-width="0.5" points="1516.5,-241 1202.5,-241 1202.5,-222 1516.5,-222 1516.5,-241"/>
<text text-anchor="middle" x="1359.5" y="-229" font-family="Vera Sans, DejaVu Sans, Liberation Sans, Arial, Helvetica, sans" font-size="10.00">IncompressibleFractionalFlowPressureMualemVanGenuchten</text>
</a>
</g>
</g>
<!-- TwophaseDarcy_incompressible_split_pressure -->
<g id="node16" class="node">
<title>TwophaseDarcy_incompressible_split_pressure</title>
<g id="a_node16"><a xlink:href="../api/proteus.SubsurfaceTransportCoefficients.html#proteus.SubsurfaceTransportCoefficients.TwophaseDarcy_incompressible_split_pressure" xlink:title="Total flow conservation equation in an incompressible fractional" target="_top">
<polygon fill="none" stroke="black" stroke-width="0.5" points="1106,-204 860,-204 860,-185 1106,-185 1106,-204"/>
<text text-anchor="middle" x="983" y="-192" font-family="Vera Sans, DejaVu Sans, Liberation Sans, Arial, Helvetica, sans" font-size="10.00">TwophaseDarcy_incompressible_split_pressure</text>
</a>
</g>
</g>
<!-- TwophaseDarcy_incompressible_split_pressure&#45;&gt;IncompressibleFractionalFlowPressureMualemVanGenuchten -->
<g id="edge9" class="edge">
<title>TwophaseDarcy_incompressible_split_pressure&#45;&gt;IncompressibleFractionalFlowPressureMualemVanGenuchten</title>
<path fill="none" stroke="black" stroke-width="0.5" d="M1073.25,-204.02C1099.87,-206.81 1129.11,-209.83 1156,-212.5 1186.39,-215.52 1219.37,-218.66 1249.7,-221.51"/>
<polygon fill="black" stroke="black" stroke-width="0.5" points="1249.8,-223.27 1254.94,-222 1250.13,-219.79 1249.8,-223.27"/>
</g>
<!-- IncompressibleFractionalFlowPressureSimplePSKs -->
<g id="node17" class="node">
<title>IncompressibleFractionalFlowPressureSimplePSKs</title>
<g id="a_node17"><a xlink:href="../api/proteus.SubsurfaceTransportCoefficients.html#proteus.SubsurfaceTransportCoefficients.IncompressibleFractionalFlowPressureSimplePSKs" xlink:title="Total flow equation coefficients for incompressible flow assuming" target="_top">
<polygon fill="none" stroke="black" stroke-width="0.5" points="1490.5,-204 1228.5,-204 1228.5,-185 1490.5,-185 1490.5,-204"/>
<text text-anchor="middle" x="1359.5" y="-192" font-family="Vera Sans, DejaVu Sans, Liberation Sans, Arial, Helvetica, sans" font-size="10.00">IncompressibleFractionalFlowPressureSimplePSKs</text>
</a>
</g>
</g>
<!-- TwophaseDarcy_incompressible_split_pressure&#45;&gt;IncompressibleFractionalFlowPressureSimplePSKs -->
<g id="edge10" class="edge">
<title>TwophaseDarcy_incompressible_split_pressure&#45;&gt;IncompressibleFractionalFlowPressureSimplePSKs</title>
<path fill="none" stroke="black" stroke-width="0.5" d="M1106.11,-194.5C1143.59,-194.5 1185.06,-194.5 1223.36,-194.5"/>
<polygon fill="black" stroke="black" stroke-width="0.5" points="1223.5,-196.25 1228.5,-194.5 1223.5,-192.75 1223.5,-196.25"/>
</g>
<!-- IncompressibleFractionalFlowSaturationMualemVanGenuchten -->
<g id="node18" class="node">
<title>IncompressibleFractionalFlowSaturationMualemVanGenuchten</title>
<g id="a_node18"><a xlink:href="../api/proteus.SubsurfaceTransportCoefficients.html#proteus.SubsurfaceTransportCoefficients.IncompressibleFractionalFlowSaturationMualemVanGenuchten" xlink:title="Saturation equation coefficients for incompressible flow assuming" target="_top">
<polygon fill="none" stroke="black" stroke-width="0.5" points="1521,-130 1198,-130 1198,-111 1521,-111 1521,-130"/>
<text text-anchor="middle" x="1359.5" y="-118" font-family="Vera Sans, DejaVu Sans, Liberation Sans, Arial, Helvetica, sans" font-size="10.00">IncompressibleFractionalFlowSaturationMualemVanGenuchten</text>
</a>
</g>
</g>
<!-- IncompressibleFractionalFlowSaturationMualemVanGenuchtenSplitAdvDiff -->
<g id="node20" class="node">
<title>IncompressibleFractionalFlowSaturationMualemVanGenuchtenSplitAdvDiff</title>
<g id="a_node20"><a xlink:href="../api/proteus.SubsurfaceTransportCoefficients.html#proteus.SubsurfaceTransportCoefficients.IncompressibleFractionalFlowSaturationMualemVanGenuchtenSplitAdvDiff" xlink:title="Saturation equation coefficients for incompressible flow assuming" target="_top">
<polygon fill="none" stroke="black" stroke-width="0.5" points="1979,-130 1599,-130 1599,-111 1979,-111 1979,-130"/>
<text text-anchor="middle" x="1789" y="-118" font-family="Vera Sans, DejaVu Sans, Liberation Sans, Arial, Helvetica, sans" font-size="10.00">IncompressibleFractionalFlowSaturationMualemVanGenuchtenSplitAdvDiff</text>
</a>
</g>
</g>
<!-- IncompressibleFractionalFlowSaturationMualemVanGenuchten&#45;&gt;IncompressibleFractionalFlowSaturationMualemVanGenuchtenSplitAdvDiff -->
<g id="edge12" class="edge">
<title>IncompressibleFractionalFlowSaturationMualemVanGenuchten&#45;&gt;IncompressibleFractionalFlowSaturationMualemVanGenuchtenSplitAdvDiff</title>
<path fill="none" stroke="black" stroke-width="0.5" d="M1521.21,-120.5C1544.86,-120.5 1569.44,-120.5 1593.69,-120.5"/>
<polygon fill="black" stroke="black" stroke-width="0.5" points="1593.85,-122.25 1598.85,-120.5 1593.85,-118.75 1593.85,-122.25"/>
</g>
<!-- TwophaseDarcy_incompressible_split_saturation -->
<g id="node19" class="node">
<title>TwophaseDarcy_incompressible_split_saturation</title>
<g id="a_node19"><a xlink:href="../api/proteus.SubsurfaceTransportCoefficients.html#proteus.SubsurfaceTransportCoefficients.TwophaseDarcy_incompressible_split_saturation" xlink:title="Aqueous phase mass conservation equation (saturation equation) in" target="_top">
<polygon fill="none" stroke="black" stroke-width="0.5" points="1110,-130 856,-130 856,-111 1110,-111 1110,-130"/>
<text text-anchor="middle" x="983" y="-118" font-family="Vera Sans, DejaVu Sans, Liberation Sans, Arial, Helvetica, sans" font-size="10.00">TwophaseDarcy_incompressible_split_saturation</text>
</a>
</g>
</g>
<!-- TwophaseDarcy_incompressible_split_saturation&#45;&gt;IncompressibleFractionalFlowSaturationMualemVanGenuchten -->
<g id="edge11" class="edge">
<title>TwophaseDarcy_incompressible_split_saturation&#45;&gt;IncompressibleFractionalFlowSaturationMualemVanGenuchten</title>
<path fill="none" stroke="black" stroke-width="0.5" d="M1110.01,-120.5C1136.5,-120.5 1164.84,-120.5 1192.54,-120.5"/>
<polygon fill="black" stroke="black" stroke-width="0.5" points="1192.71,-122.25 1197.71,-120.5 1192.71,-118.75 1192.71,-122.25"/>
</g>
<!-- IncompressibleFractionalFlowSaturationSimplePSKs -->
<g id="node21" class="node">
<title>IncompressibleFractionalFlowSaturationSimplePSKs</title>
<g id="a_node21"><a xlink:href="../api/proteus.SubsurfaceTransportCoefficients.html#proteus.SubsurfaceTransportCoefficients.IncompressibleFractionalFlowSaturationSimplePSKs" xlink:title="Saturation equation coefficients for incompressible flow assuming" target="_top">
<polygon fill="none" stroke="black" stroke-width="0.5" points="1494.5,-93 1224.5,-93 1224.5,-74 1494.5,-74 1494.5,-93"/>
<text text-anchor="middle" x="1359.5" y="-81" font-family="Vera Sans, DejaVu Sans, Liberation Sans, Arial, Helvetica, sans" font-size="10.00">IncompressibleFractionalFlowSaturationSimplePSKs</text>
</a>
</g>
</g>
<!-- TwophaseDarcy_incompressible_split_saturation&#45;&gt;IncompressibleFractionalFlowSaturationSimplePSKs -->
<g id="edge13" class="edge">
<title>TwophaseDarcy_incompressible_split_saturation&#45;&gt;IncompressibleFractionalFlowSaturationSimplePSKs</title>
<path fill="none" stroke="black" stroke-width="0.5" d="M1067.07,-110.96C1095.29,-107.82 1127,-104.39 1156,-101.5 1183.61,-98.75 1213.35,-95.99 1241.32,-93.49"/>
<polygon fill="black" stroke="black" stroke-width="0.5" points="1241.7,-95.21 1246.52,-93.02 1241.39,-91.72 1241.7,-95.21"/>
</g>
<!-- VariablySaturatedGroundwaterEnergyTransportCoefficients -->
<g id="node36" class="node">
<title>VariablySaturatedGroundwaterEnergyTransportCoefficients</title>
<g id="a_node36"><a xlink:href="../api/proteus.SubsurfaceTransportCoefficients.html#proteus.SubsurfaceTransportCoefficients.VariablySaturatedGroundwaterEnergyTransportCoefficients" xlink:title="VariablySaturatedGroundwaterEnergyTransportCoefficients" target="_top">
<polygon fill="none" stroke="black" stroke-width="0.5" points="810,-368 507,-368 507,-349 810,-349 810,-368"/>
<text text-anchor="middle" x="658.5" y="-356" font-family="Vera Sans, DejaVu Sans, Liberation Sans, Arial, Helvetica, sans" font-size="10.00">VariablySaturatedGroundwaterEnergyTransportCoefficients</text>
</a>
</g>
</g>
<!-- MultiphaseGroundwaterTransportCoefficients&#45;&gt;VariablySaturatedGroundwaterEnergyTransportCoefficients -->
<g id="edge33" class="edge">
<title>MultiphaseGroundwaterTransportCoefficients&#45;&gt;VariablySaturatedGroundwaterEnergyTransportCoefficients</title>
<path fill="none" stroke="black" stroke-width="0.5" d="M451.19,-292.07C458.06,-294.39 464.73,-297.17 471,-300.5 492.12,-311.73 485.77,-329.49 507,-340.5 511.83,-343 516.86,-345.22 522.03,-347.18"/>
<polygon fill="black" stroke="black" stroke-width="0.5" points="521.51,-348.86 526.81,-348.91 522.7,-345.57 521.51,-348.86"/>
</g>
<!-- NonlinearEquation -->
<g id="node23" class="node">
<title>NonlinearEquation</title>
<g id="a_node23"><a xlink:href="../proteus.NonlinearSolvers.html#proteus.NonlinearSolvers.NonlinearEquation" xlink:title="The base class for nonlinear equations." target="_top">
<polygon fill="none" stroke="black" stroke-width="0.5" points="141.5,-421 34.5,-421 34.5,-402 141.5,-402 141.5,-421"/>
<text text-anchor="middle" x="88" y="-409" font-family="Vera Sans, DejaVu Sans, Liberation Sans, Arial, Helvetica, sans" font-size="10.00">NonlinearEquation</text>
</a>
</g>
</g>
<!-- OneLevelTransport -->
<g id="node24" class="node">
<title>OneLevelTransport</title>
<g id="a_node24"><a xlink:href="../proteus.Transport.html#proteus.Transport.OneLevelTransport" xlink:title="A class for finite element discretizations of multicomponent" target="_top">
<polygon fill="none" stroke="black" stroke-width="0.5" points="395,-421 288,-421 288,-402 395,-402 395,-421"/>
<text text-anchor="middle" x="341.5" y="-409" font-family="Vera Sans, DejaVu Sans, Liberation Sans, Arial, Helvetica, sans" font-size="10.00">OneLevelTransport</text>
</a>
</g>
</g>
<!-- NonlinearEquation&#45;&gt;OneLevelTransport -->
<g id="edge15" class="edge">
<title>NonlinearEquation&#45;&gt;OneLevelTransport</title>
<path fill="none" stroke="black" stroke-width="0.5" d="M141.72,-411.5C182.97,-411.5 240.26,-411.5 282.74,-411.5"/>
<polygon fill="black" stroke="black" stroke-width="0.5" points="282.85,-413.25 287.85,-411.5 282.85,-409.75 282.85,-413.25"/>
</g>
<!-- RE_NCP1_OneLevelTransport -->
<g id="node29" class="node">
<title>RE_NCP1_OneLevelTransport</title>
<g id="a_node29"><a xlink:href="../api/proteus.SubsurfaceTransportCoefficients.html#proteus.SubsurfaceTransportCoefficients.RE_NCP1_OneLevelTransport" xlink:title="OneLevelTransport designed specifically for Non&#45;Conforming" target="_top">
<polygon fill="none" stroke="black" stroke-width="0.5" points="737,-421 580,-421 580,-402 737,-402 737,-421"/>
<text text-anchor="middle" x="658.5" y="-409" font-family="Vera Sans, DejaVu Sans, Liberation Sans, Arial, Helvetica, sans" font-size="10.00">RE_NCP1_OneLevelTransport</text>
</a>
</g>
</g>
<!-- OneLevelTransport&#45;&gt;RE_NCP1_OneLevelTransport -->
<g id="edge18" class="edge">
<title>OneLevelTransport&#45;&gt;RE_NCP1_OneLevelTransport</title>
<path fill="none" stroke="black" stroke-width="0.5" d="M395.22,-411.5C444.19,-411.5 517.88,-411.5 574.69,-411.5"/>
<polygon fill="black" stroke="black" stroke-width="0.5" points="574.79,-413.25 579.79,-411.5 574.79,-409.75 574.79,-413.25"/>
</g>
<!-- PressurePressureIncompressibleFractionalFlowPressureMualemVanGenuchten -->
<g id="node25" class="node">
<title>PressurePressureIncompressibleFractionalFlowPressureMualemVanGenuchten</title>
<g id="a_node25"><a xlink:href="../api/proteus.SubsurfaceTransportCoefficients.html#proteus.SubsurfaceTransportCoefficients.PressurePressureIncompressibleFractionalFlowPressureMualemVanGenuchten" xlink:title="Total flow equation coefficients for incompressible flow assuming" target="_top">
<polygon fill="none" stroke="black" stroke-width="0.5" points="1558.5,-56 1160.5,-56 1160.5,-37 1558.5,-37 1558.5,-56"/>
<text text-anchor="middle" x="1359.5" y="-44" font-family="Vera Sans, DejaVu Sans, Liberation Sans, Arial, Helvetica, sans" font-size="10.00">PressurePressureIncompressibleFractionalFlowPressureMualemVanGenuchten</text>
</a>
</g>
</g>
<!-- TwophaseDarcy_incompressible_split_pp_pressure -->
<g id="node26" class="node">
<title>TwophaseDarcy_incompressible_split_pp_pressure</title>
<g id="a_node26"><a xlink:href="../api/proteus.SubsurfaceTransportCoefficients.html#proteus.SubsurfaceTransportCoefficients.TwophaseDarcy_incompressible_split_pp_pressure" xlink:title="Total flow conservation equation in an incompressible fractional" target="_top">
<polygon fill="none" stroke="black" stroke-width="0.5" points="1114.5,-84 851.5,-84 851.5,-65 1114.5,-65 1114.5,-84"/>
<text text-anchor="middle" x="983" y="-72" font-family="Vera Sans, DejaVu Sans, Liberation Sans, Arial, Helvetica, sans" font-size="10.00">TwophaseDarcy_incompressible_split_pp_pressure</text>
</a>
</g>
</g>
<!-- TwophaseDarcy_incompressible_split_pp_pressure&#45;&gt;PressurePressureIncompressibleFractionalFlowPressureMualemVanGenuchten -->
<g id="edge16" class="edge">
<title>TwophaseDarcy_incompressible_split_pp_pressure&#45;&gt;PressurePressureIncompressibleFractionalFlowPressureMualemVanGenuchten</title>
<path fill="none" stroke="black" stroke-width="0.5" d="M1111.31,-64.98C1148.35,-62.21 1188.88,-59.18 1226.21,-56.39"/>
<polygon fill="black" stroke="black" stroke-width="0.5" points="1226.37,-58.13 1231.22,-56.02 1226.11,-54.64 1226.37,-58.13"/>
</g>
<!-- PressurePressureIncompressibleFractionalFlowSaturationMualemVanGenuchten -->
<g id="node27" class="node">
<title>PressurePressureIncompressibleFractionalFlowSaturationMualemVanGenuchten</title>
<g id="a_node27"><a xlink:href="../api/proteus.SubsurfaceTransportCoefficients.html#proteus.SubsurfaceTransportCoefficients.PressurePressureIncompressibleFractionalFlowSaturationMualemVanGenuchten" xlink:title="Saturation equation coefficients for incompressible flow assuming" target="_top">
<polygon fill="none" stroke="black" stroke-width="0.5" points="1563,-19 1156,-19 1156,0 1563,0 1563,-19"/>
<text text-anchor="middle" x="1359.5" y="-7" font-family="Vera Sans, DejaVu Sans, Liberation Sans, Arial, Helvetica, sans" font-size="10.00">PressurePressureIncompressibleFractionalFlowSaturationMualemVanGenuchten</text>
</a>
</g>
</g>
<!-- TwophaseDarcy_incompressible_split_pp_saturation -->
<g id="node28" class="node">
<title>TwophaseDarcy_incompressible_split_pp_saturation</title>
<g id="a_node28"><a xlink:href="../api/proteus.SubsurfaceTransportCoefficients.html#proteus.SubsurfaceTransportCoefficients.TwophaseDarcy_incompressible_split_pp_saturation" xlink:title="Aqueous phase mass conservation equation (saturation equation) in" target="_top">
<polygon fill="none" stroke="black" stroke-width="0.5" points="1118.5,-37 847.5,-37 847.5,-18 1118.5,-18 1118.5,-37"/>
<text text-anchor="middle" x="983" y="-25" font-family="Vera Sans, DejaVu Sans, Liberation Sans, Arial, Helvetica, sans" font-size="10.00">TwophaseDarcy_incompressible_split_pp_saturation</text>
</a>
</g>
</g>
<!-- TwophaseDarcy_incompressible_split_pp_saturation&#45;&gt;PressurePressureIncompressibleFractionalFlowSaturationMualemVanGenuchten -->
<g id="edge17" class="edge">
<title>TwophaseDarcy_incompressible_split_pp_saturation&#45;&gt;PressurePressureIncompressibleFractionalFlowSaturationMualemVanGenuchten</title>
<path fill="none" stroke="black" stroke-width="0.5" d="M1118.67,-21.03C1130.8,-20.44 1143.25,-19.85 1155.78,-19.24"/>
<polygon fill="black" stroke="black" stroke-width="0.5" points="1155.87,-20.99 1160.78,-19 1155.7,-17.5 1155.87,-20.99"/>
</g>
<!-- TwophaseDarcyFlow_base&#45;&gt;TwophaseDarcy_fc -->
<g id="edge23" class="edge">
<title>TwophaseDarcyFlow_base&#45;&gt;TwophaseDarcy_fc</title>
<path fill="none" stroke="black" stroke-width="0.5" d="M414.11,-203.96C433.91,-207.88 454.47,-214.73 471,-226.5 496.33,-244.54 481.86,-268.19 507,-286.5 533.75,-305.98 569.67,-314.81 599.71,-318.74"/>
<polygon fill="black" stroke="black" stroke-width="0.5" points="599.68,-320.5 604.86,-319.37 600.11,-317.02 599.68,-320.5"/>
</g>
<!-- TwophaseDarcyFlow_base&#45;&gt;TwophaseDarcy_fc_pp -->
<g id="edge24" class="edge">
<title>TwophaseDarcyFlow_base&#45;&gt;TwophaseDarcy_fc_pp</title>
<path fill="none" stroke="black" stroke-width="0.5" d="M388.63,-209.02C413.12,-214.12 443.71,-220.56 471,-226.5 518.8,-236.9 573.37,-249.25 611.08,-257.85"/>
<polygon fill="black" stroke="black" stroke-width="0.5" points="610.79,-259.58 616.06,-258.99 611.57,-256.17 610.79,-259.58"/>
</g>
<!-- TwophaseDarcy_split_pressure_base -->
<g id="node32" class="node">
<title>TwophaseDarcy_split_pressure_base</title>
<g id="a_node32"><a xlink:href="../api/proteus.SubsurfaceTransportCoefficients.html#proteus.SubsurfaceTransportCoefficients.TwophaseDarcy_split_pressure_base" xlink:title="Base class for &#39;pressure&#39; or total flow conservation equation in" target="_top">
<polygon fill="none" stroke="black" stroke-width="0.5" points="756,-209 561,-209 561,-190 756,-190 756,-209"/>
<text text-anchor="middle" x="658.5" y="-197" font-family="Vera Sans, DejaVu Sans, Liberation Sans, Arial, Helvetica, sans" font-size="10.00">TwophaseDarcy_split_pressure_base</text>
</a>
</g>
</g>
<!-- TwophaseDarcyFlow_base&#45;&gt;TwophaseDarcy_split_pressure_base -->
<g id="edge31" class="edge">
<title>TwophaseDarcyFlow_base&#45;&gt;TwophaseDarcy_split_pressure_base</title>
<path fill="none" stroke="black" stroke-width="0.5" d="M414.37,-199.5C456.24,-199.5 509.72,-199.5 555.85,-199.5"/>
<polygon fill="black" stroke="black" stroke-width="0.5" points="555.86,-201.25 560.86,-199.5 555.86,-197.75 555.86,-201.25"/>
</g>
<!-- TwophaseDarcy_split_saturation_base -->
<g id="node33" class="node">
<title>TwophaseDarcy_split_saturation_base</title>
<g id="a_node33"><a xlink:href="../api/proteus.SubsurfaceTransportCoefficients.html#proteus.SubsurfaceTransportCoefficients.TwophaseDarcy_split_saturation_base" xlink:title="Base class for aqueous phase mass conservation equation" target="_top">
<polygon fill="none" stroke="black" stroke-width="0.5" points="760,-167 557,-167 557,-148 760,-148 760,-167"/>
<text text-anchor="middle" x="658.5" y="-155" font-family="Vera Sans, DejaVu Sans, Liberation Sans, Arial, Helvetica, sans" font-size="10.00">TwophaseDarcy_split_saturation_base</text>
</a>
</g>
</g>
<!-- TwophaseDarcyFlow_base&#45;&gt;TwophaseDarcy_split_saturation_base -->
<g id="edge32" class="edge">
<title>TwophaseDarcyFlow_base&#45;&gt;TwophaseDarcy_split_saturation_base</title>
<path fill="none" stroke="black" stroke-width="0.5" d="M413.98,-189.97C463.73,-183.34 530,-174.5 580.85,-167.72"/>
<polygon fill="black" stroke="black" stroke-width="0.5" points="581.31,-169.42 586.03,-167.03 580.84,-165.96 581.31,-169.42"/>
</g>
<!-- TwophaseDarcy_split_pp_pressure_base -->
<g id="node34" class="node">
<title>TwophaseDarcy_split_pp_pressure_base</title>
<g id="a_node34"><a xlink:href="../api/proteus.SubsurfaceTransportCoefficients.html#proteus.SubsurfaceTransportCoefficients.TwophaseDarcy_split_pp_pressure_base" xlink:title="Base class for &#39;pressure&#39; or total flow conservation equation in" target="_top">
<polygon fill="none" stroke="black" stroke-width="0.5" points="764.5,-121 552.5,-121 552.5,-102 764.5,-102 764.5,-121"/>
<text text-anchor="middle" x="658.5" y="-109" font-family="Vera Sans, DejaVu Sans, Liberation Sans, Arial, Helvetica, sans" font-size="10.00">TwophaseDarcy_split_pp_pressure_base</text>
</a>
</g>
</g>
<!-- TwophaseDarcyFlow_base&#45;&gt;TwophaseDarcy_split_pp_pressure_base -->
<g id="edge29" class="edge">
<title>TwophaseDarcyFlow_base&#45;&gt;TwophaseDarcy_split_pp_pressure_base</title>
<path fill="none" stroke="black" stroke-width="0.5" d="M364.44,-189.94C395.6,-176.69 454.69,-152.77 507,-138.5 532.09,-131.66 560.02,-126.1 584.94,-121.84"/>
<polygon fill="black" stroke="black" stroke-width="0.5" points="585.24,-123.56 589.88,-121.01 584.66,-120.11 585.24,-123.56"/>
</g>
<!-- TwophaseDarcy_split_pp_saturation_base -->
<g id="node35" class="node">
<title>TwophaseDarcy_split_pp_saturation_base</title>
<g id="a_node35"><a xlink:href="../api/proteus.SubsurfaceTransportCoefficients.html#proteus.SubsurfaceTransportCoefficients.TwophaseDarcy_split_pp_saturation_base" xlink:title="Base class for aqueous phase mass conservation equation" target="_top">
<polygon fill="none" stroke="black" stroke-width="0.5" points="768.5,-74 548.5,-74 548.5,-55 768.5,-55 768.5,-74"/>
<text text-anchor="middle" x="658.5" y="-62" font-family="Vera Sans, DejaVu Sans, Liberation Sans, Arial, Helvetica, sans" font-size="10.00">TwophaseDarcy_split_pp_saturation_base</text>
</a>
</g>
</g>
<!-- TwophaseDarcyFlow_base&#45;&gt;TwophaseDarcy_split_pp_saturation_base -->
<g id="edge30" class="edge">
<title>TwophaseDarcyFlow_base&#45;&gt;TwophaseDarcy_split_pp_saturation_base</title>
<path fill="none" stroke="black" stroke-width="0.5" d="M353.97,-189.69C379.56,-168.36 444.05,-117.67 507,-92.5 526.42,-84.74 548.12,-79.1 568.87,-75.02"/>
<polygon fill="black" stroke="black" stroke-width="0.5" points="569.25,-76.72 573.84,-74.06 568.59,-73.29 569.25,-76.72"/>
</g>
<!-- TwophaseDarcy_split_pressure_base&#45;&gt;TwophaseDarcy_compressible_split_pressure -->
<g id="edge21" class="edge">
<title>TwophaseDarcy_split_pressure_base&#45;&gt;TwophaseDarcy_compressible_split_pressure</title>
<path fill="none" stroke="black" stroke-width="0.5" d="M755.39,-209.01C794.92,-212.94 840.77,-217.49 880.84,-221.46"/>
<polygon fill="black" stroke="black" stroke-width="0.5" points="881.06,-223.24 886.2,-221.99 881.4,-219.76 881.06,-223.24"/>
</g>
<!-- TwophaseDarcy_split_pressure_base&#45;&gt;TwophaseDarcy_incompressible_split_pressure -->
<g id="edge27" class="edge">
<title>TwophaseDarcy_split_pressure_base&#45;&gt;TwophaseDarcy_incompressible_split_pressure</title>
<path fill="none" stroke="black" stroke-width="0.5" d="M756.26,-198C787.17,-197.52 821.86,-196.98 854.6,-196.48"/>
<polygon fill="black" stroke="black" stroke-width="0.5" points="854.87,-198.22 859.84,-196.39 854.81,-194.72 854.87,-198.22"/>
</g>
<!-- TwophaseDarcy_split_saturation_base&#45;&gt;TwophaseDarcy_compressible_split_saturation -->
<g id="edge22" class="edge">
<title>TwophaseDarcy_split_saturation_base&#45;&gt;TwophaseDarcy_compressible_split_saturation</title>
<path fill="none" stroke="black" stroke-width="0.5" d="M760.21,-157.5C790.3,-157.5 823.68,-157.5 855.21,-157.5"/>
<polygon fill="black" stroke="black" stroke-width="0.5" points="855.25,-159.25 860.25,-157.5 855.25,-155.75 855.25,-159.25"/>
</g>
<!-- TwophaseDarcy_split_saturation_base&#45;&gt;TwophaseDarcy_incompressible_split_saturation -->
<g id="edge28" class="edge">
<title>TwophaseDarcy_split_saturation_base&#45;&gt;TwophaseDarcy_incompressible_split_saturation</title>
<path fill="none" stroke="black" stroke-width="0.5" d="M742.55,-147.97C788.92,-142.65 846.67,-136.03 893.84,-130.61"/>
<polygon fill="black" stroke="black" stroke-width="0.5" points="894.18,-132.34 898.95,-130.03 893.78,-128.86 894.18,-132.34"/>
</g>
<!-- TwophaseDarcy_split_pp_pressure_base&#45;&gt;TwophaseDarcy_incompressible_split_pp_pressure -->
<g id="edge25" class="edge">
<title>TwophaseDarcy_split_pp_pressure_base&#45;&gt;TwophaseDarcy_incompressible_split_pp_pressure</title>
<path fill="none" stroke="black" stroke-width="0.5" d="M742.55,-101.97C788.92,-96.65 846.67,-90.03 893.84,-84.61"/>
<polygon fill="black" stroke="black" stroke-width="0.5" points="894.18,-86.34 898.95,-84.03 893.78,-82.86 894.18,-86.34"/>
</g>
<!-- TwophaseDarcy_split_pp_saturation_base&#45;&gt;TwophaseDarcy_incompressible_split_pp_saturation -->
<g id="edge26" class="edge">
<title>TwophaseDarcy_split_pp_saturation_base&#45;&gt;TwophaseDarcy_incompressible_split_pp_saturation</title>
<path fill="none" stroke="black" stroke-width="0.5" d="M742.55,-54.97C788.92,-49.65 846.67,-43.03 893.84,-37.61"/>
<polygon fill="black" stroke="black" stroke-width="0.5" points="894.18,-39.34 898.95,-37.03 893.78,-35.86 894.18,-39.34"/>
</g>
</g>
</svg>
