<?xml version="1.0" encoding="UTF-8" standalone="no"?>
<!DOCTYPE svg PUBLIC "-//W3C//DTD SVG 1.1//EN"
 "http://www.w3.org/Graphics/SVG/1.1/DTD/svg11.dtd">
<!-- Generated by graphviz version 2.42.3 (0)
 -->
<!-- Title: inheritancecaff6f4bb2 Pages: 1 -->
<svg width="267pt" height="175pt"
 viewBox="0.00 0.00 267.00 175.00" xmlns="http://www.w3.org/2000/svg" xmlns:xlink="http://www.w3.org/1999/xlink">
<g id="graph0" class="graph" transform="scale(1 1) rotate(0) translate(4 171)">
<title>inheritancecaff6f4bb2</title>
<polygon fill="white" stroke="transparent" points="-4,4 -4,-171 263,-171 263,4 -4,4"/>
<!-- BuckleyLeverett -->
<g id="node1" class="node">
<title>BuckleyLeverett</title>
<g id="a_node1"><a xlink:href="../api/proteus.ObjectiveFunctions.html#proteus.ObjectiveFunctions.BuckleyLeverett" xlink:title="BuckleyLeverett" target="_top">
<polygon fill="none" stroke="black" stroke-width="0.5" points="114.5,-56 18.5,-56 18.5,-37 114.5,-37 114.5,-56"/>
<text text-anchor="middle" x="66.5" y="-44" font-family="Vera Sans, DejaVu Sans, Liberation Sans, Arial, Helvetica, sans" font-size="10.00">BuckleyLeverett</text>
</a>
</g>
</g>
<!-- ObjectiveFunction_base -->
<g id="node2" class="node">
<title>ObjectiveFunction_base</title>
<g id="a_node2"><a xlink:href="../proteus.Optimizers.html#proteus.Optimizers.ObjectiveFunction_base" xlink:title="ObjectiveFunction_base" target="_top">
<polygon fill="none" stroke="black" stroke-width="0.5" points="133,-93 0,-93 0,-74 133,-74 133,-93"/>
<text text-anchor="middle" x="66.5" y="-81" font-family="Vera Sans, DejaVu Sans, Liberation Sans, Arial, Helvetica, sans" font-size="10.00">ObjectiveFunction_base</text>
</a>
</g>
</g>
<!-- OsherFunc -->
<g id="node3" class="node">
<title>OsherFunc</title>
<g id="a_node3"><a xlink:href="../api/proteus.ObjectiveFunctions.html#proteus.ObjectiveFunctions.OsherFunc" xlink:title="OsherFunc" target="_top">
<polygon fill="none" stroke="black" stroke-width="0.5" points="248,-167 180,-167 180,-148 248,-148 248,-167"/>
<text text-anchor="middle" x="214" y="-155" font-family="Vera Sans, DejaVu Sans, Liberation Sans, Arial, Helvetica, sans" font-size="10.00">OsherFunc</text>
</a>
</g>
</g>
<!-- ObjectiveFunction_base&#45;&gt;OsherFunc -->
<g id="edge1" class="edge">
<title>ObjectiveFunction_base&#45;&gt;OsherFunc</title>
<path fill="none" stroke="black" stroke-width="0.5" d="M83.37,-93.01C103.1,-104.65 137.96,-124.65 169,-139.5 173.58,-141.69 178.5,-143.87 183.33,-145.91"/>
<polygon fill="black" stroke="black" stroke-width="0.5" points="182.82,-147.6 188.11,-147.91 184.17,-144.37 182.82,-147.6"/>
</g>
<!-- OsherFuncCoef -->
<g id="node4" class="node">
<title>OsherFuncCoef</title>
<g id="a_node4"><a xlink:href="../api/proteus.ObjectiveFunctions.html#proteus.ObjectiveFunctions.OsherFuncCoef" xlink:title="OsherFuncCoef" target="_top">
<polygon fill="none" stroke="black" stroke-width="0.5" points="259,-130 169,-130 169,-111 259,-111 259,-130"/>
<text text-anchor="middle" x="214" y="-118" font-family="Vera Sans, DejaVu Sans, Liberation Sans, Arial, Helvetica, sans" font-size="10.00">OsherFuncCoef</text>
</a>
</g>
</g>
<!-- ObjectiveFunction_base&#45;&gt;OsherFuncCoef -->
<g id="edge2" class="edge">
<title>ObjectiveFunction_base&#45;&gt;OsherFuncCoef</title>
<path fill="none" stroke="black" stroke-width="0.5" d="M104.97,-93.03C125,-98.12 149.75,-104.41 170.5,-109.69"/>
<polygon fill="black" stroke="black" stroke-width="0.5" points="170.13,-111.4 175.4,-110.94 170.99,-108.01 170.13,-111.4"/>
</g>
<!-- SimpelFunc -->
<g id="node5" class="node">
<title>SimpelFunc</title>
<g id="a_node5"><a xlink:href="../api/proteus.ObjectiveFunctions.html#proteus.ObjectiveFunctions.SimpelFunc" xlink:title="SimpelFunc" target="_top">
<polygon fill="none" stroke="black" stroke-width="0.5" points="250.5,-93 177.5,-93 177.5,-74 250.5,-74 250.5,-93"/>
<text text-anchor="middle" x="214" y="-81" font-family="Vera Sans, DejaVu Sans, Liberation Sans, Arial, Helvetica, sans" font-size="10.00">SimpelFunc</text>
</a>
</g>
</g>
<!-- ObjectiveFunction_base&#45;&gt;SimpelFunc -->
<g id="edge3" class="edge">
<title>ObjectiveFunction_base&#45;&gt;SimpelFunc</title>
<path fill="none" stroke="black" stroke-width="0.5" d="M133.01,-83.5C146.35,-83.5 160.01,-83.5 172.18,-83.5"/>
<polygon fill="black" stroke="black" stroke-width="0.5" points="172.3,-85.25 177.3,-83.5 172.3,-81.75 172.3,-85.25"/>
</g>
<!-- SimpelFunc2 -->
<g id="node6" class="node">
<title>SimpelFunc2</title>
<g id="a_node6"><a xlink:href="../api/proteus.ObjectiveFunctions.html#proteus.ObjectiveFunctions.SimpelFunc2" xlink:title="SimpelFunc2" target="_top">
<polygon fill="none" stroke="black" stroke-width="0.5" points="253.5,-56 174.5,-56 174.5,-37 253.5,-37 253.5,-56"/>
<text text-anchor="middle" x="214" y="-44" font-family="Vera Sans, DejaVu Sans, Liberation Sans, Arial, Helvetica, sans" font-size="10.00">SimpelFunc2</text>
</a>
</g>
</g>
<!-- ObjectiveFunction_base&#45;&gt;SimpelFunc2 -->
<g id="edge4" class="edge">
<title>ObjectiveFunction_base&#45;&gt;SimpelFunc2</title>
<path fill="none" stroke="black" stroke-width="0.5" d="M104.97,-73.97C125,-68.88 149.75,-62.59 170.5,-57.31"/>
<polygon fill="black" stroke="black" stroke-width="0.5" points="170.99,-58.99 175.4,-56.06 170.13,-55.6 170.99,-58.99"/>
</g>
<!-- SimpelFunc3 -->
<g id="node7" class="node">
<title>SimpelFunc3</title>
<g id="a_node7"><a xlink:href="../api/proteus.ObjectiveFunctions.html#proteus.ObjectiveFunctions.SimpelFunc3" xlink:title="SimpelFunc3" target="_top">
<polygon fill="none" stroke="black" stroke-width="0.5" points="253.5,-19 174.5,-19 174.5,0 253.5,0 253.5,-19"/>
<text text-anchor="middle" x="214" y="-7" font-family="Vera Sans, DejaVu Sans, Liberation Sans, Arial, Helvetica, sans" font-size="10.00">SimpelFunc3</text>
</a>
</g>
</g>
<!-- ObjectiveFunction_base&#45;&gt;SimpelFunc3 -->
<g id="edge5" class="edge">
<title>ObjectiveFunction_base&#45;&gt;SimpelFunc3</title>
<path fill="none" stroke="black" stroke-width="0.5" d="M114.21,-73.98C120.76,-71.71 127.21,-68.92 133,-65.5 152.75,-53.83 150.11,-41.52 169,-28.5 172.82,-25.86 177.07,-23.48 181.38,-21.35"/>
<polygon fill="black" stroke="black" stroke-width="0.5" points="182.28,-22.86 186.05,-19.15 180.79,-19.7 182.28,-22.86"/>
</g>
</g>
</svg>
