<?xml version="1.0" encoding="UTF-8" standalone="no"?>
<!DOCTYPE svg PUBLIC "-//W3C//DTD SVG 1.1//EN"
 "http://www.w3.org/Graphics/SVG/1.1/DTD/svg11.dtd">
<!-- Generated by graphviz version 2.38.0 (20140413.2041)
 -->
<!-- Title: inheritance478a470905 Pages: 1 -->
<svg width="576pt" height="605pt"
 viewBox="0.00 0.00 576.00 605.12" xmlns="http://www.w3.org/2000/svg" xmlns:xlink="http://www.w3.org/1999/xlink">
<g id="graph0" class="graph" transform="scale(0.808989 0.808989) rotate(0) translate(4 744)">
<title>inheritance478a470905</title>
<polygon fill="white" stroke="none" points="-4,4 -4,-744 708,-744 708,4 -4,4"/>
<!-- ChebyshevSemiIteration -->
<g id="node1" class="node"><title>ChebyshevSemiIteration</title>
<g id="a_node1"><a xlink:href="../api/proteus.LinearSolvers.html#proteus.LinearSolvers.ChebyshevSemiIteration" xlink:title="Class for implementing the ChebyshevSemiIteration. " target="_top">
<polygon fill="none" stroke="black" stroke-width="0.5" points="357,-315 223,-315 223,-296 357,-296 357,-315"/>
<text text-anchor="middle" x="290" y="-303" font-family="Vera Sans, DejaVu Sans, Liberation Sans, Arial, Helvetica, sans" font-size="10.00">ChebyshevSemiIteration</text>
</a>
</g>
</g>
<!-- LinearSolver -->
<g id="node2" class="node"><title>LinearSolver</title>
<g id="a_node2"><a xlink:href="../api/proteus.LinearSolvers.html#proteus.LinearSolvers.LinearSolver" xlink:title="The base class for linear solvers. &#160;" target="_top">
<polygon fill="none" stroke="black" stroke-width="0.5" points="124,-167 48,-167 48,-148 124,-148 124,-167"/>
<text text-anchor="middle" x="86" y="-155" font-family="Vera Sans, DejaVu Sans, Liberation Sans, Arial, Helvetica, sans" font-size="10.00">LinearSolver</text>
</a>
</g>
</g>
<!-- LinearSolver&#45;&gt;ChebyshevSemiIteration -->
<g id="edge1" class="edge"><title>LinearSolver&#45;&gt;ChebyshevSemiIteration</title>
<path fill="none" stroke="black" stroke-width="0.5" d="M93.0038,-167.07C108.692,-191.232 153.495,-255.01 208,-286.5 213.276,-289.548 219.013,-292.108 224.916,-294.257"/>
<polygon fill="black" stroke="black" stroke-width="0.5" points="224.609,-296.002 229.907,-295.968 225.744,-292.691 224.609,-296.002"/>
</g>
<!-- GaussSeidel -->
<g id="node3" class="node"><title>GaussSeidel</title>
<g id="a_node3"><a xlink:href="../api/proteus.LinearSolvers.html#proteus.LinearSolvers.GaussSeidel" xlink:title="Damped Gauss&#45;Seidel." target="_top">
<polygon fill="none" stroke="black" stroke-width="0.5" points="328,-278 252,-278 252,-259 328,-259 328,-278"/>
<text text-anchor="middle" x="290" y="-266" font-family="Vera Sans, DejaVu Sans, Liberation Sans, Arial, Helvetica, sans" font-size="10.00">GaussSeidel</text>
</a>
</g>
</g>
<!-- LinearSolver&#45;&gt;GaussSeidel -->
<g id="edge2" class="edge"><title>LinearSolver&#45;&gt;GaussSeidel</title>
<path fill="none" stroke="black" stroke-width="0.5" d="M96.7044,-167.236C116.079,-186.098 161.686,-227.683 208,-249.5 219.997,-255.152 233.807,-259.193 246.587,-262.053"/>
<polygon fill="black" stroke="black" stroke-width="0.5" points="246.36,-263.794 251.615,-263.13 247.093,-260.371 246.36,-263.794"/>
</g>
<!-- Jacobi -->
<g id="node4" class="node"><title>Jacobi</title>
<g id="a_node4"><a xlink:href="../api/proteus.LinearSolvers.html#proteus.LinearSolvers.Jacobi" xlink:title="Damped Jacobi iteration." target="_top">
<polygon fill="none" stroke="black" stroke-width="0.5" points="317,-241 263,-241 263,-222 317,-222 317,-241"/>
<text text-anchor="middle" x="290" y="-229" font-family="Vera Sans, DejaVu Sans, Liberation Sans, Arial, Helvetica, sans" font-size="10.00">Jacobi</text>
</a>
</g>
</g>
<!-- LinearSolver&#45;&gt;Jacobi -->
<g id="edge3" class="edge"><title>LinearSolver&#45;&gt;Jacobi</title>
<path fill="none" stroke="black" stroke-width="0.5" d="M104.994,-167.034C128.24,-179.031 170.215,-199.62 208,-212.5 224.091,-217.985 242.507,-222.442 257.709,-225.658"/>
<polygon fill="black" stroke="black" stroke-width="0.5" points="257.483,-227.398 262.734,-226.701 258.194,-223.971 257.483,-227.398"/>
</g>
<!-- KSP_petsc4py -->
<g id="node6" class="node"><title>KSP_petsc4py</title>
<g id="a_node6"><a xlink:href="../api/proteus.LinearSolvers.html#proteus.LinearSolvers.KSP_petsc4py" xlink:title="A class that interfaces Proteus with PETSc KSP." target="_top">
<polygon fill="none" stroke="black" stroke-width="0.5" points="332,-204 248,-204 248,-185 332,-185 332,-204"/>
<text text-anchor="middle" x="290" y="-192" font-family="Vera Sans, DejaVu Sans, Liberation Sans, Arial, Helvetica, sans" font-size="10.00">KSP_petsc4py</text>
</a>
</g>
</g>
<!-- LinearSolver&#45;&gt;KSP_petsc4py -->
<g id="edge4" class="edge"><title>LinearSolver&#45;&gt;KSP_petsc4py</title>
<path fill="none" stroke="black" stroke-width="0.5" d="M124.05,-164.286C157.377,-170.391 206.487,-179.386 242.454,-185.974"/>
<polygon fill="black" stroke="black" stroke-width="0.5" points="242.428,-187.749 247.662,-186.928 243.059,-184.306 242.428,-187.749"/>
</g>
<!-- LU -->
<g id="node7" class="node"><title>LU</title>
<g id="a_node7"><a xlink:href="../api/proteus.LinearSolvers.html#proteus.LinearSolvers.LU" xlink:title="A wrapper for pysparse&#39;s wrapper for superlu." target="_top">
<polygon fill="none" stroke="black" stroke-width="0.5" points="317,-167 263,-167 263,-148 317,-148 317,-167"/>
<text text-anchor="middle" x="290" y="-155" font-family="Vera Sans, DejaVu Sans, Liberation Sans, Arial, Helvetica, sans" font-size="10.00">LU</text>
</a>
</g>
</g>
<!-- LinearSolver&#45;&gt;LU -->
<g id="edge5" class="edge"><title>LinearSolver&#45;&gt;LU</title>
<path fill="none" stroke="black" stroke-width="0.5" d="M124.05,-157.5C162.371,-157.5 221.558,-157.5 257.639,-157.5"/>
<polygon fill="black" stroke="black" stroke-width="0.5" points="257.789,-159.25 262.789,-157.5 257.789,-155.75 257.789,-159.25"/>
</g>
<!-- PETSc -->
<g id="node20" class="node"><title>PETSc</title>
<g id="a_node20"><a xlink:href="../api/proteus.LinearSolvers.html#proteus.LinearSolvers.PETSc" xlink:title="PETSc" target="_top">
<polygon fill="none" stroke="black" stroke-width="0.5" points="317,-130 263,-130 263,-111 317,-111 317,-130"/>
<text text-anchor="middle" x="290" y="-118" font-family="Vera Sans, DejaVu Sans, Liberation Sans, Arial, Helvetica, sans" font-size="10.00">PETSc</text>
</a>
</g>
</g>
<!-- LinearSolver&#45;&gt;PETSc -->
<g id="edge12" class="edge"><title>LinearSolver&#45;&gt;PETSc</title>
<path fill="none" stroke="black" stroke-width="0.5" d="M124.05,-150.714C162.371,-143.694 221.558,-132.853 257.639,-126.244"/>
<polygon fill="black" stroke="black" stroke-width="0.5" points="258.187,-127.923 262.789,-125.301 257.556,-124.481 258.187,-127.923"/>
</g>
<!-- StarBILU -->
<g id="node26" class="node"><title>StarBILU</title>
<g id="a_node26"><a xlink:href="../api/proteus.LinearSolvers.html#proteus.LinearSolvers.StarBILU" xlink:title="Alternating Schwarz Method on &#39;blocks&#39; consisting of consectutive rows in system for things like dg ..." target="_top">
<polygon fill="none" stroke="black" stroke-width="0.5" points="319,-93 261,-93 261,-74 319,-74 319,-93"/>
<text text-anchor="middle" x="290" y="-81" font-family="Vera Sans, DejaVu Sans, Liberation Sans, Arial, Helvetica, sans" font-size="10.00">StarBILU</text>
</a>
</g>
</g>
<!-- LinearSolver&#45;&gt;StarBILU -->
<g id="edge17" class="edge"><title>LinearSolver&#45;&gt;StarBILU</title>
<path fill="none" stroke="black" stroke-width="0.5" d="M104.547,-147.915C127.658,-135.636 169.845,-114.401 208,-101.5 223.448,-96.2765 241.073,-92.1529 255.928,-89.1779"/>
<polygon fill="black" stroke="black" stroke-width="0.5" points="256.283,-90.8918 260.853,-88.2131 255.61,-87.4571 256.283,-90.8918"/>
</g>
<!-- StarILU -->
<g id="node27" class="node"><title>StarILU</title>
<g id="a_node27"><a xlink:href="../api/proteus.LinearSolvers.html#proteus.LinearSolvers.StarILU" xlink:title="Alternating Schwarz Method on node stars." target="_top">
<polygon fill="none" stroke="black" stroke-width="0.5" points="317,-56 263,-56 263,-37 317,-37 317,-56"/>
<text text-anchor="middle" x="290" y="-44" font-family="Vera Sans, DejaVu Sans, Liberation Sans, Arial, Helvetica, sans" font-size="10.00">StarILU</text>
</a>
</g>
</g>
<!-- LinearSolver&#45;&gt;StarILU -->
<g id="edge18" class="edge"><title>LinearSolver&#45;&gt;StarILU</title>
<path fill="none" stroke="black" stroke-width="0.5" d="M96.363,-147.9C115.486,-128.88 161.19,-86.365 208,-64.5 223.596,-57.2151 242.28,-52.8092 257.772,-50.1819"/>
<polygon fill="black" stroke="black" stroke-width="0.5" points="258.235,-51.8798 262.894,-49.3575 257.679,-48.4243 258.235,-51.8798"/>
</g>
<!-- TwoLevel -->
<g id="node29" class="node"><title>TwoLevel</title>
<g id="a_node29"><a xlink:href="../api/proteus.LinearSolvers.html#proteus.LinearSolvers.TwoLevel" xlink:title="A generic two&#45;level multiplicative Schwarz solver." target="_top">
<polygon fill="none" stroke="black" stroke-width="0.5" points="319,-19 261,-19 261,-0 319,-0 319,-19"/>
<text text-anchor="middle" x="290" y="-7" font-family="Vera Sans, DejaVu Sans, Liberation Sans, Arial, Helvetica, sans" font-size="10.00">TwoLevel</text>
</a>
</g>
</g>
<!-- LinearSolver&#45;&gt;TwoLevel -->
<g id="edge19" class="edge"><title>LinearSolver&#45;&gt;TwoLevel</title>
<path fill="none" stroke="black" stroke-width="0.5" d="M92.9622,-147.816C108.553,-123.375 153.146,-58.9041 208,-27.5 222.489,-19.2049 240.461,-14.7313 255.793,-12.3192"/>
<polygon fill="black" stroke="black" stroke-width="0.5" points="256.186,-14.0304 260.882,-11.5777 255.682,-10.5669 256.186,-14.0304"/>
</g>
<!-- KSP_Preconditioner -->
<g id="node5" class="node"><title>KSP_Preconditioner</title>
<g id="a_node5"><a xlink:href="../api/proteus.LinearSolvers.html#proteus.LinearSolvers.KSP_Preconditioner" xlink:title="Base class for PETSCc KSP precondtioners." target="_top">
<polygon fill="none" stroke="black" stroke-width="0.5" points="141,-389 31,-389 31,-370 141,-370 141,-389"/>
<text text-anchor="middle" x="86" y="-377" font-family="Vera Sans, DejaVu Sans, Liberation Sans, Arial, Helvetica, sans" font-size="10.00">KSP_Preconditioner</text>
</a>
</g>
</g>
<!-- SchurPrecon -->
<g id="node15" class="node"><title>SchurPrecon</title>
<g id="a_node15"><a xlink:href="../api/proteus.LinearSolvers.html#proteus.LinearSolvers.SchurPrecon" xlink:title="Base class for PETSc Schur complement preconditioners." target="_top">
<polygon fill="none" stroke="black" stroke-width="0.5" points="328.5,-426 251.5,-426 251.5,-407 328.5,-407 328.5,-426"/>
<text text-anchor="middle" x="290" y="-414" font-family="Vera Sans, DejaVu Sans, Liberation Sans, Arial, Helvetica, sans" font-size="10.00">SchurPrecon</text>
</a>
</g>
</g>
<!-- KSP_Preconditioner&#45;&gt;SchurPrecon -->
<g id="edge13" class="edge"><title>KSP_Preconditioner&#45;&gt;SchurPrecon</title>
<path fill="none" stroke="black" stroke-width="0.5" d="M139.02,-389.028C172.308,-395.126 214.962,-402.939 246.267,-408.673"/>
<polygon fill="black" stroke="black" stroke-width="0.5" points="245.957,-410.395 251.191,-409.575 246.588,-406.952 245.957,-410.395"/>
</g>
<!-- petsc_ASM -->
<g id="node30" class="node"><title>petsc_ASM</title>
<g id="a_node30"><a xlink:href="../api/proteus.LinearSolvers.html#proteus.LinearSolvers.petsc_ASM" xlink:title="ASM PETSc preconditioner class." target="_top">
<polygon fill="none" stroke="black" stroke-width="0.5" points="325,-389 255,-389 255,-370 325,-370 325,-389"/>
<text text-anchor="middle" x="290" y="-377" font-family="Vera Sans, DejaVu Sans, Liberation Sans, Arial, Helvetica, sans" font-size="10.00">petsc_ASM</text>
</a>
</g>
</g>
<!-- KSP_Preconditioner&#45;&gt;petsc_ASM -->
<g id="edge20" class="edge"><title>KSP_Preconditioner&#45;&gt;petsc_ASM</title>
<path fill="none" stroke="black" stroke-width="0.5" d="M141.132,-379.5C175.269,-379.5 218.583,-379.5 249.492,-379.5"/>
<polygon fill="black" stroke="black" stroke-width="0.5" points="249.728,-381.25 254.728,-379.5 249.728,-377.75 249.728,-381.25"/>
</g>
<!-- petsc_LU -->
<g id="node31" class="node"><title>petsc_LU</title>
<g id="a_node31"><a xlink:href="../api/proteus.LinearSolvers.html#proteus.LinearSolvers.petsc_LU" xlink:title="LU PETSc preconditioner class." target="_top">
<polygon fill="none" stroke="black" stroke-width="0.5" points="320,-352 260,-352 260,-333 320,-333 320,-352"/>
<text text-anchor="middle" x="290" y="-340" font-family="Vera Sans, DejaVu Sans, Liberation Sans, Arial, Helvetica, sans" font-size="10.00">petsc_LU</text>
</a>
</g>
</g>
<!-- KSP_Preconditioner&#45;&gt;petsc_LU -->
<g id="edge21" class="edge"><title>KSP_Preconditioner&#45;&gt;petsc_LU</title>
<path fill="none" stroke="black" stroke-width="0.5" d="M139.02,-369.972C175.526,-363.285 223.296,-354.535 255.008,-348.726"/>
<polygon fill="black" stroke="black" stroke-width="0.5" points="255.353,-350.442 259.956,-347.82 254.722,-347 255.353,-350.442"/>
</g>
<!-- MGM -->
<g id="node8" class="node"><title>MGM</title>
<g id="a_node8"><a xlink:href="../api/proteus.LinearSolvers.html#proteus.LinearSolvers.MGM" xlink:title="A generic multigrid W cycle." target="_top">
<polygon fill="none" stroke="black" stroke-width="0.5" points="317,-500 263,-500 263,-481 317,-481 317,-500"/>
<text text-anchor="middle" x="290" y="-488" font-family="Vera Sans, DejaVu Sans, Liberation Sans, Arial, Helvetica, sans" font-size="10.00">MGM</text>
</a>
</g>
</g>
<!-- MultilevelLinearSolver -->
<g id="node9" class="node"><title>MultilevelLinearSolver</title>
<g id="a_node9"><a xlink:href="../api/proteus.LinearSolvers.html#proteus.LinearSolvers.MultilevelLinearSolver" xlink:title="A generic multilevel solver." target="_top">
<polygon fill="none" stroke="black" stroke-width="0.5" points="146,-481 26,-481 26,-462 146,-462 146,-481"/>
<text text-anchor="middle" x="86" y="-469" font-family="Vera Sans, DejaVu Sans, Liberation Sans, Arial, Helvetica, sans" font-size="10.00">MultilevelLinearSolver</text>
</a>
</g>
</g>
<!-- MultilevelLinearSolver&#45;&gt;MGM -->
<g id="edge6" class="edge"><title>MultilevelLinearSolver&#45;&gt;MGM</title>
<path fill="none" stroke="black" stroke-width="0.5" d="M146.242,-477.072C182.778,-480.509 228.162,-484.778 257.82,-487.567"/>
<polygon fill="black" stroke="black" stroke-width="0.5" points="257.662,-489.31 262.804,-488.036 257.99,-485.825 257.662,-489.31"/>
</g>
<!-- NI -->
<g id="node10" class="node"><title>NI</title>
<g id="a_node10"><a xlink:href="../api/proteus.LinearSolvers.html#proteus.LinearSolvers.NI" xlink:title="A generic nested iteration solver." target="_top">
<polygon fill="none" stroke="black" stroke-width="0.5" points="317,-463 263,-463 263,-444 317,-444 317,-463"/>
<text text-anchor="middle" x="290" y="-451" font-family="Vera Sans, DejaVu Sans, Liberation Sans, Arial, Helvetica, sans" font-size="10.00">NI</text>
</a>
</g>
</g>
<!-- MultilevelLinearSolver&#45;&gt;NI -->
<g id="edge7" class="edge"><title>MultilevelLinearSolver&#45;&gt;NI</title>
<path fill="none" stroke="black" stroke-width="0.5" d="M146.242,-466.221C182.778,-462.965 228.162,-458.921 257.82,-456.278"/>
<polygon fill="black" stroke="black" stroke-width="0.5" points="257.979,-458.021 262.804,-455.834 257.668,-454.535 257.979,-458.021"/>
</g>
<!-- NavierStokes2D -->
<g id="node11" class="node"><title>NavierStokes2D</title>
<g id="a_node11"><a xlink:href="../api/proteus.LinearSolvers.html#proteus.LinearSolvers.NavierStokes2D" xlink:title="NavierStokes2D" target="_top">
<polygon fill="none" stroke="black" stroke-width="0.5" points="133,-518 39,-518 39,-499 133,-499 133,-518"/>
<text text-anchor="middle" x="86" y="-506" font-family="Vera Sans, DejaVu Sans, Liberation Sans, Arial, Helvetica, sans" font-size="10.00">NavierStokes2D</text>
</a>
</g>
</g>
<!-- NavierStokes3D -->
<g id="node12" class="node"><title>NavierStokes3D</title>
<g id="a_node12"><a xlink:href="../api/proteus.LinearSolvers.html#proteus.LinearSolvers.NavierStokes3D" xlink:title="NavierStokes3D" target="_top">
<polygon fill="none" stroke="black" stroke-width="0.5" points="133,-555 39,-555 39,-536 133,-536 133,-555"/>
<text text-anchor="middle" x="86" y="-543" font-family="Vera Sans, DejaVu Sans, Liberation Sans, Arial, Helvetica, sans" font-size="10.00">NavierStokes3D</text>
</a>
</g>
</g>
<!-- NavierStokesPressureCorrection -->
<g id="node13" class="node"><title>NavierStokesPressureCorrection</title>
<g id="a_node13"><a xlink:href="../api/proteus.LinearSolvers.html#proteus.LinearSolvers.NavierStokesPressureCorrection" xlink:title="NavierStokesPressureCorrection" target="_top">
<polygon fill="none" stroke="black" stroke-width="0.5" points="172,-592 0,-592 0,-573 172,-573 172,-592"/>
<text text-anchor="middle" x="86" y="-580" font-family="Vera Sans, DejaVu Sans, Liberation Sans, Arial, Helvetica, sans" font-size="10.00">NavierStokesPressureCorrection</text>
</a>
</g>
</g>
<!-- NavierStokesSchur -->
<g id="node14" class="node"><title>NavierStokesSchur</title>
<g id="a_node14"><a xlink:href="../api/proteus.LinearSolvers.html#proteus.LinearSolvers.NavierStokesSchur" xlink:title="Schur complement preconditioners for Navier&#45;Stokes problems." target="_top">
<polygon fill="none" stroke="black" stroke-width="0.5" points="516,-481 408,-481 408,-462 516,-462 516,-481"/>
<text text-anchor="middle" x="462" y="-469" font-family="Vera Sans, DejaVu Sans, Liberation Sans, Arial, Helvetica, sans" font-size="10.00">NavierStokesSchur</text>
</a>
</g>
</g>
<!-- NavierStokes_TwoPhasePCD -->
<g id="node16" class="node"><title>NavierStokes_TwoPhasePCD</title>
<g id="a_node16"><a xlink:href="../api/proteus.LinearSolvers.html#proteus.LinearSolvers.NavierStokes_TwoPhasePCD" xlink:title="Two&#45;phase PCD Schur complement approximation class." target="_top">
<polygon fill="none" stroke="black" stroke-width="0.5" points="704,-481 552,-481 552,-462 704,-462 704,-481"/>
<text text-anchor="middle" x="628" y="-469" font-family="Vera Sans, DejaVu Sans, Liberation Sans, Arial, Helvetica, sans" font-size="10.00">NavierStokes_TwoPhasePCD</text>
</a>
</g>
</g>
<!-- NavierStokesSchur&#45;&gt;NavierStokes_TwoPhasePCD -->
<g id="edge9" class="edge"><title>NavierStokesSchur&#45;&gt;NavierStokes_TwoPhasePCD</title>
<path fill="none" stroke="black" stroke-width="0.5" d="M516.246,-471.5C526.052,-471.5 536.486,-471.5 546.88,-471.5"/>
<polygon fill="black" stroke="black" stroke-width="0.5" points="546.976,-473.25 551.976,-471.5 546.976,-469.75 546.976,-473.25"/>
</g>
<!-- SchurPrecon&#45;&gt;NavierStokesSchur -->
<g id="edge8" class="edge"><title>SchurPrecon&#45;&gt;NavierStokesSchur</title>
<path fill="none" stroke="black" stroke-width="0.5" d="M328.638,-422.867C342.482,-425.728 358.153,-429.584 372,-434.5 388.858,-440.485 391.551,-445.469 408,-452.5 414.231,-455.163 420.975,-457.778 427.496,-460.174"/>
<polygon fill="black" stroke="black" stroke-width="0.5" points="427.13,-461.903 432.427,-461.962 428.322,-458.612 427.13,-461.903"/>
</g>
<!-- Schur_LSC -->
<g id="node22" class="node"><title>Schur_LSC</title>
<g id="a_node22"><a xlink:href="../api/proteus.LinearSolvers.html#proteus.LinearSolvers.Schur_LSC" xlink:title="The Least&#45;Squares Communtator preconditioner for saddle" target="_top">
<polygon fill="none" stroke="black" stroke-width="0.5" points="496,-444 428,-444 428,-425 496,-425 496,-444"/>
<text text-anchor="middle" x="462" y="-432" font-family="Vera Sans, DejaVu Sans, Liberation Sans, Arial, Helvetica, sans" font-size="10.00">Schur_LSC</text>
</a>
</g>
</g>
<!-- SchurPrecon&#45;&gt;Schur_LSC -->
<g id="edge14" class="edge"><title>SchurPrecon&#45;&gt;Schur_LSC</title>
<path fill="none" stroke="black" stroke-width="0.5" d="M328.729,-420.495C356.723,-423.459 394.748,-427.485 422.844,-430.46"/>
<polygon fill="black" stroke="black" stroke-width="0.5" points="422.814,-432.216 427.97,-431.003 423.182,-428.736 422.814,-432.216"/>
</g>
<!-- Schur_Qp -->
<g id="node23" class="node"><title>Schur_Qp</title>
<g id="a_node23"><a xlink:href="../api/proteus.LinearSolvers.html#proteus.LinearSolvers.Schur_Qp" xlink:title="A Navier&#45;Stokes (or Stokes) preconditioner which uses the " target="_top">
<polygon fill="none" stroke="black" stroke-width="0.5" points="493.5,-407 430.5,-407 430.5,-388 493.5,-388 493.5,-407"/>
<text text-anchor="middle" x="462" y="-395" font-family="Vera Sans, DejaVu Sans, Liberation Sans, Arial, Helvetica, sans" font-size="10.00">Schur_Qp</text>
</a>
</g>
</g>
<!-- SchurPrecon&#45;&gt;Schur_Qp -->
<g id="edge15" class="edge"><title>SchurPrecon&#45;&gt;Schur_Qp</title>
<path fill="none" stroke="black" stroke-width="0.5" d="M328.729,-412.283C357.552,-409.062 397.009,-404.652 425.313,-401.489"/>
<polygon fill="black" stroke="black" stroke-width="0.5" points="425.689,-403.208 430.463,-400.913 425.3,-399.729 425.689,-403.208"/>
</g>
<!-- Schur_Sp -->
<g id="node24" class="node"><title>Schur_Sp</title>
<g id="a_node24"><a xlink:href="../api/proteus.LinearSolvers.html#proteus.LinearSolvers.Schur_Sp" xlink:title="This class implements the SIMPLE approximation to the Schur " target="_top">
<polygon fill="none" stroke="black" stroke-width="0.5" points="493,-370 431,-370 431,-351 493,-351 493,-370"/>
<text text-anchor="middle" x="462" y="-358" font-family="Vera Sans, DejaVu Sans, Liberation Sans, Arial, Helvetica, sans" font-size="10.00">Schur_Sp</text>
</a>
</g>
</g>
<!-- SchurPrecon&#45;&gt;Schur_Sp -->
<g id="edge16" class="edge"><title>SchurPrecon&#45;&gt;Schur_Sp</title>
<path fill="none" stroke="black" stroke-width="0.5" d="M328.69,-409.75C342.539,-406.728 358.201,-402.663 372,-397.5 388.945,-391.16 391.383,-385.654 408,-378.5 413.718,-376.038 419.893,-373.682 425.939,-371.531"/>
<polygon fill="black" stroke="black" stroke-width="0.5" points="426.828,-373.075 430.973,-369.776 425.676,-369.77 426.828,-373.075"/>
</g>
<!-- OperatorConstructor -->
<g id="node17" class="node"><title>OperatorConstructor</title>
<g id="a_node17"><a xlink:href="../api/proteus.LinearSolvers.html#proteus.LinearSolvers.OperatorConstructor" xlink:title="Base class for operator constructors." target="_top">
<polygon fill="none" stroke="black" stroke-width="0.5" points="144,-629 28,-629 28,-610 144,-610 144,-629"/>
<text text-anchor="middle" x="86" y="-617" font-family="Vera Sans, DejaVu Sans, Liberation Sans, Arial, Helvetica, sans" font-size="10.00">OperatorConstructor</text>
</a>
</g>
</g>
<!-- OperatorConstructor_oneLevel -->
<g id="node18" class="node"><title>OperatorConstructor_oneLevel</title>
<g id="a_node18"><a xlink:href="../api/proteus.LinearSolvers.html#proteus.LinearSolvers.OperatorConstructor_oneLevel" xlink:title="A class for building common discrete operators from one&#45;level" target="_top">
<polygon fill="none" stroke="black" stroke-width="0.5" points="372,-647 208,-647 208,-628 372,-628 372,-647"/>
<text text-anchor="middle" x="290" y="-635" font-family="Vera Sans, DejaVu Sans, Liberation Sans, Arial, Helvetica, sans" font-size="10.00">OperatorConstructor_oneLevel</text>
</a>
</g>
</g>
<!-- OperatorConstructor&#45;&gt;OperatorConstructor_oneLevel -->
<g id="edge10" class="edge"><title>OperatorConstructor&#45;&gt;OperatorConstructor_oneLevel</title>
<path fill="none" stroke="black" stroke-width="0.5" d="M144.075,-624.586C162.359,-626.215 183.028,-628.057 202.909,-629.829"/>
<polygon fill="black" stroke="black" stroke-width="0.5" points="202.809,-631.576 207.945,-630.277 203.12,-628.09 202.809,-631.576"/>
</g>
<!-- OperatorConstructor_rans2p -->
<g id="node19" class="node"><title>OperatorConstructor_rans2p</title>
<g id="a_node19"><a xlink:href="../api/proteus.LinearSolvers.html#proteus.LinearSolvers.OperatorConstructor_rans2p" xlink:title="A class for building common discrete rans2p operators." target="_top">
<polygon fill="none" stroke="black" stroke-width="0.5" points="367,-610 213,-610 213,-591 367,-591 367,-610"/>
<text text-anchor="middle" x="290" y="-598" font-family="Vera Sans, DejaVu Sans, Liberation Sans, Arial, Helvetica, sans" font-size="10.00">OperatorConstructor_rans2p</text>
</a>
</g>
</g>
<!-- OperatorConstructor&#45;&gt;OperatorConstructor_rans2p -->
<g id="edge11" class="edge"><title>OperatorConstructor&#45;&gt;OperatorConstructor_rans2p</title>
<path fill="none" stroke="black" stroke-width="0.5" d="M144.075,-614.132C163.841,-612.272 186.394,-610.151 207.725,-608.145"/>
<polygon fill="black" stroke="black" stroke-width="0.5" points="208.016,-609.875 212.83,-607.665 207.688,-606.391 208.016,-609.875"/>
</g>
<!-- SchurOperatorConstructor -->
<g id="node21" class="node"><title>SchurOperatorConstructor</title>
<g id="a_node21"><a xlink:href="../api/proteus.LinearSolvers.html#proteus.LinearSolvers.SchurOperatorConstructor" xlink:title="Generate matrices for use in Schur complement preconditioner operators." target="_top">
<polygon fill="none" stroke="black" stroke-width="0.5" points="157.5,-666 14.5,-666 14.5,-647 157.5,-647 157.5,-666"/>
<text text-anchor="middle" x="86" y="-654" font-family="Vera Sans, DejaVu Sans, Liberation Sans, Arial, Helvetica, sans" font-size="10.00">SchurOperatorConstructor</text>
</a>
</g>
</g>
<!-- SimpleDarcyFC -->
<g id="node25" class="node"><title>SimpleDarcyFC</title>
<g id="a_node25"><a xlink:href="../api/proteus.LinearSolvers.html#proteus.LinearSolvers.SimpleDarcyFC" xlink:title="SimpleDarcyFC" target="_top">
<polygon fill="none" stroke="black" stroke-width="0.5" points="130.5,-703 41.5,-703 41.5,-684 130.5,-684 130.5,-703"/>
<text text-anchor="middle" x="86" y="-691" font-family="Vera Sans, DejaVu Sans, Liberation Sans, Arial, Helvetica, sans" font-size="10.00">SimpleDarcyFC</text>
</a>
</g>
</g>
<!-- StorageSet -->
<g id="node28" class="node"><title>StorageSet</title>
<g id="a_node28"><a xlink:href="../api/proteus.LinearSolvers.html#proteus.LinearSolvers.StorageSet" xlink:title="StorageSet" target="_top">
<polygon fill="none" stroke="black" stroke-width="0.5" points="121.5,-740 50.5,-740 50.5,-721 121.5,-721 121.5,-740"/>
<text text-anchor="middle" x="86" y="-728" font-family="Vera Sans, DejaVu Sans, Liberation Sans, Arial, Helvetica, sans" font-size="10.00">StorageSet</text>
</a>
</g>
</g>
</g>
</svg>
