<?xml version="1.0" encoding="UTF-8" standalone="no"?>
<!DOCTYPE svg PUBLIC "-//W3C//DTD SVG 1.1//EN"
 "http://www.w3.org/Graphics/SVG/1.1/DTD/svg11.dtd">
<!-- Generated by graphviz version 2.38.0 (20140413.2041)
 -->
<!-- Title: inheritancecb50c7d34c Pages: 1 -->
<svg width="498pt" height="286pt"
 viewBox="0.00 0.00 498.00 286.00" xmlns="http://www.w3.org/2000/svg" xmlns:xlink="http://www.w3.org/1999/xlink">
<g id="graph0" class="graph" transform="scale(1 1) rotate(0) translate(4 282)">
<title>inheritancecb50c7d34c</title>
<polygon fill="white" stroke="none" points="-4,4 -4,-282 494,-282 494,4 -4,4"/>
<!-- D_base -->
<g id="node1" class="node"><title>D_base</title>
<g id="a_node1"><a xlink:href="../api/proteus.Domain.html#proteus.Domain.D_base" xlink:title="The base class for domains" target="_top">
<polygon fill="none" stroke="black" stroke-width="0.5" points="66.5,-148 12.5,-148 12.5,-129 66.5,-129 66.5,-148"/>
<text text-anchor="middle" x="39.5" y="-136" font-family="Vera Sans, DejaVu Sans, Liberation Sans, Arial, Helvetica, sans" font-size="10.00">D_base</text>
</a>
</g>
</g>
<!-- PlanarStraightLineGraphDomain -->
<g id="node3" class="node"><title>PlanarStraightLineGraphDomain</title>
<g id="a_node3"><a xlink:href="../api/proteus.Domain.html#proteus.Domain.PlanarStraightLineGraphDomain" xlink:title="2D domains described by planar straight line graphs." target="_top">
<polygon fill="none" stroke="black" stroke-width="0.5" points="286,-278 115,-278 115,-259 286,-259 286,-278"/>
<text text-anchor="middle" x="200.5" y="-266" font-family="Vera Sans, DejaVu Sans, Liberation Sans, Arial, Helvetica, sans" font-size="10.00">PlanarStraightLineGraphDomain</text>
</a>
</g>
</g>
<!-- D_base&#45;&gt;PlanarStraightLineGraphDomain -->
<g id="edge7" class="edge"><title>D_base&#45;&gt;PlanarStraightLineGraphDomain</title>
<path fill="none" stroke="black" stroke-width="0.5" d="M66.7593,-148.139C71.2593,-150.666 75.5792,-153.76 79,-157.5 108.913,-190.205 81.2631,-221.755 115,-250.5 117.547,-252.67 120.293,-254.599 123.182,-256.312"/>
<polygon fill="black" stroke="black" stroke-width="0.5" points="122.603,-257.989 127.833,-258.83 124.269,-254.911 122.603,-257.989"/>
</g>
<!-- Mesh2DMDomain -->
<g id="node4" class="node"><title>Mesh2DMDomain</title>
<g id="a_node4"><a xlink:href="../api/proteus.Domain.html#proteus.Domain.Mesh2DMDomain" xlink:title="2D domains from ADH mesh files" target="_top">
<polygon fill="none" stroke="black" stroke-width="0.5" points="251,-241 150,-241 150,-222 251,-222 251,-241"/>
<text text-anchor="middle" x="200.5" y="-229" font-family="Vera Sans, DejaVu Sans, Liberation Sans, Arial, Helvetica, sans" font-size="10.00">Mesh2DMDomain</text>
</a>
</g>
</g>
<!-- D_base&#45;&gt;Mesh2DMDomain -->
<g id="edge2" class="edge"><title>D_base&#45;&gt;Mesh2DMDomain</title>
<path fill="none" stroke="black" stroke-width="0.5" d="M64.9709,-148.084C69.9334,-150.689 74.886,-153.826 79,-157.5 101.069,-177.208 90.6582,-196.679 115,-213.5 123.882,-219.637 134.449,-223.747 145.052,-226.483"/>
<polygon fill="black" stroke="black" stroke-width="0.5" points="144.65,-228.186 149.92,-227.646 145.463,-224.782 144.65,-228.186"/>
</g>
<!-- Mesh3DMDomain -->
<g id="node5" class="node"><title>Mesh3DMDomain</title>
<g id="a_node5"><a xlink:href="../api/proteus.Domain.html#proteus.Domain.Mesh3DMDomain" xlink:title="3D domains from ADH mesh files" target="_top">
<polygon fill="none" stroke="black" stroke-width="0.5" points="251,-204 150,-204 150,-185 251,-185 251,-204"/>
<text text-anchor="middle" x="200.5" y="-192" font-family="Vera Sans, DejaVu Sans, Liberation Sans, Arial, Helvetica, sans" font-size="10.00">Mesh3DMDomain</text>
</a>
</g>
</g>
<!-- D_base&#45;&gt;Mesh3DMDomain -->
<g id="edge3" class="edge"><title>D_base&#45;&gt;Mesh3DMDomain</title>
<path fill="none" stroke="black" stroke-width="0.5" d="M60.1374,-148.063C66.2025,-151.051 72.8925,-154.382 79,-157.5 95.1133,-165.726 97.9913,-170.335 115,-176.5 124.452,-179.926 134.748,-182.792 144.797,-185.157"/>
<polygon fill="black" stroke="black" stroke-width="0.5" points="144.442,-186.871 149.706,-186.277 145.221,-183.458 144.442,-186.871"/>
</g>
<!-- MeshHexDomain -->
<g id="node6" class="node"><title>MeshHexDomain</title>
<g id="a_node6"><a xlink:href="../api/proteus.Domain.html#proteus.Domain.MeshHexDomain" xlink:title="3D domains from Hex mesh files" target="_top">
<polygon fill="none" stroke="black" stroke-width="0.5" points="249.5,-167 151.5,-167 151.5,-148 249.5,-148 249.5,-167"/>
<text text-anchor="middle" x="200.5" y="-155" font-family="Vera Sans, DejaVu Sans, Liberation Sans, Arial, Helvetica, sans" font-size="10.00">MeshHexDomain</text>
</a>
</g>
</g>
<!-- D_base&#45;&gt;MeshHexDomain -->
<g id="edge4" class="edge"><title>D_base&#45;&gt;MeshHexDomain</title>
<path fill="none" stroke="black" stroke-width="0.5" d="M66.7556,-141.637C88.2553,-144.207 119.37,-147.925 146.072,-151.116"/>
<polygon fill="black" stroke="black" stroke-width="0.5" points="146.177,-152.89 151.35,-151.746 146.593,-149.415 146.177,-152.89"/>
</g>
<!-- MeshTetgenDomain -->
<g id="node8" class="node"><title>MeshTetgenDomain</title>
<g id="a_node8"><a xlink:href="../api/proteus.Domain.html#proteus.Domain.MeshTetgenDomain" xlink:title="3D domains from tetgen mesh files" target="_top">
<polygon fill="none" stroke="black" stroke-width="0.5" points="256,-130 145,-130 145,-111 256,-111 256,-130"/>
<text text-anchor="middle" x="200.5" y="-118" font-family="Vera Sans, DejaVu Sans, Liberation Sans, Arial, Helvetica, sans" font-size="10.00">MeshTetgenDomain</text>
</a>
</g>
</g>
<!-- D_base&#45;&gt;MeshTetgenDomain -->
<g id="edge5" class="edge"><title>D_base&#45;&gt;MeshTetgenDomain</title>
<path fill="none" stroke="black" stroke-width="0.5" d="M66.7556,-135.528C86.6015,-133.281 114.64,-130.107 139.838,-127.254"/>
<polygon fill="black" stroke="black" stroke-width="0.5" points="140.065,-128.99 144.837,-126.688 139.672,-125.512 140.065,-128.99"/>
</g>
<!-- PiecewiseLinearComplexDomain -->
<g id="node9" class="node"><title>PiecewiseLinearComplexDomain</title>
<g id="a_node9"><a xlink:href="../api/proteus.Domain.html#proteus.Domain.PiecewiseLinearComplexDomain" xlink:title="3D domains desribed by closed surfaces made up of general polygonal facets." target="_top">
<polygon fill="none" stroke="black" stroke-width="0.5" points="286,-93 115,-93 115,-74 286,-74 286,-93"/>
<text text-anchor="middle" x="200.5" y="-81" font-family="Vera Sans, DejaVu Sans, Liberation Sans, Arial, Helvetica, sans" font-size="10.00">PiecewiseLinearComplexDomain</text>
</a>
</g>
</g>
<!-- D_base&#45;&gt;PiecewiseLinearComplexDomain -->
<g id="edge6" class="edge"><title>D_base&#45;&gt;PiecewiseLinearComplexDomain</title>
<path fill="none" stroke="black" stroke-width="0.5" d="M57.4818,-128.905C72.2798,-120.886 94.5194,-109.645 115,-102.5 123.947,-99.379 133.609,-96.6432 143.092,-94.2921"/>
<polygon fill="black" stroke="black" stroke-width="0.5" points="143.582,-95.9742 148.03,-93.0977 142.759,-92.5723 143.582,-95.9742"/>
</g>
<!-- RectangularDomain -->
<g id="node10" class="node"><title>RectangularDomain</title>
<g id="a_node10"><a xlink:href="../api/proteus.Domain.html#proteus.Domain.RectangularDomain" xlink:title="Rectangular domains in 1,2, or 3D specified by the lower left hand corner and dimensions." target="_top">
<polygon fill="none" stroke="black" stroke-width="0.5" points="255.5,-56 145.5,-56 145.5,-37 255.5,-37 255.5,-56"/>
<text text-anchor="middle" x="200.5" y="-44" font-family="Vera Sans, DejaVu Sans, Liberation Sans, Arial, Helvetica, sans" font-size="10.00">RectangularDomain</text>
</a>
</g>
</g>
<!-- D_base&#45;&gt;RectangularDomain -->
<g id="edge8" class="edge"><title>D_base&#45;&gt;RectangularDomain</title>
<path fill="none" stroke="black" stroke-width="0.5" d="M47.3362,-128.976C59.2129,-113.174 85.2537,-81.6811 115,-65.5 122.801,-61.2563 131.501,-57.9594 140.269,-55.3983"/>
<polygon fill="black" stroke="black" stroke-width="0.5" points="140.789,-57.0701 145.141,-54.0499 139.856,-53.6969 140.789,-57.0701"/>
</g>
<!-- TriangulatedSurfaceDomain -->
<g id="node11" class="node"><title>TriangulatedSurfaceDomain</title>
<g id="a_node11"><a xlink:href="../api/proteus.Domain.html#proteus.Domain.TriangulatedSurfaceDomain" xlink:title="3D domains described by closed surfaces made up of triangular facets." target="_top">
<polygon fill="none" stroke="black" stroke-width="0.5" points="275,-19 126,-19 126,-0 275,-0 275,-19"/>
<text text-anchor="middle" x="200.5" y="-7" font-family="Vera Sans, DejaVu Sans, Liberation Sans, Arial, Helvetica, sans" font-size="10.00">TriangulatedSurfaceDomain</text>
</a>
</g>
</g>
<!-- D_base&#45;&gt;TriangulatedSurfaceDomain -->
<g id="edge9" class="edge"><title>D_base&#45;&gt;TriangulatedSurfaceDomain</title>
<path fill="none" stroke="black" stroke-width="0.5" d="M44.1634,-128.742C52.853,-107.006 76.8839,-54.4833 115,-28.5 119.286,-25.578 123.952,-23.0986 128.817,-20.9954"/>
<polygon fill="black" stroke="black" stroke-width="0.5" points="129.756,-22.5042 133.742,-19.0152 128.45,-19.2569 129.756,-22.5042"/>
</g>
<!-- InterpolatedBathymetryDomain -->
<g id="node2" class="node"><title>InterpolatedBathymetryDomain</title>
<g id="a_node2"><a xlink:href="../api/proteus.Domain.html#proteus.Domain.InterpolatedBathymetryDomain" xlink:title="2D domains with an attached bathymetry data set." target="_top">
<polygon fill="none" stroke="black" stroke-width="0.5" points="490,-278 322,-278 322,-259 490,-259 490,-278"/>
<text text-anchor="middle" x="406" y="-266" font-family="Vera Sans, DejaVu Sans, Liberation Sans, Arial, Helvetica, sans" font-size="10.00">InterpolatedBathymetryDomain</text>
</a>
</g>
</g>
<!-- PlanarStraightLineGraphDomain&#45;&gt;InterpolatedBathymetryDomain -->
<g id="edge1" class="edge"><title>PlanarStraightLineGraphDomain&#45;&gt;InterpolatedBathymetryDomain</title>
<path fill="none" stroke="black" stroke-width="0.5" d="M286.034,-268.5C296.078,-268.5 306.351,-268.5 316.448,-268.5"/>
<polygon fill="black" stroke="black" stroke-width="0.5" points="316.71,-270.25 321.71,-268.5 316.71,-266.75 316.71,-270.25"/>
</g>
<!-- MeshOptions -->
<g id="node7" class="node"><title>MeshOptions</title>
<g id="a_node7"><a xlink:href="../api/proteus.Domain.html#proteus.Domain.MeshOptions" xlink:title="Mesh options for the domain" target="_top">
<polygon fill="none" stroke="black" stroke-width="0.5" points="79,-185 7.10543e-15,-185 7.10543e-15,-166 79,-166 79,-185"/>
<text text-anchor="middle" x="39.5" y="-173" font-family="Vera Sans, DejaVu Sans, Liberation Sans, Arial, Helvetica, sans" font-size="10.00">MeshOptions</text>
</a>
</g>
</g>
</g>
</svg>
