<?xml version="1.0" encoding="UTF-8" standalone="no"?>
<!DOCTYPE svg PUBLIC "-//W3C//DTD SVG 1.1//EN"
 "http://www.w3.org/Graphics/SVG/1.1/DTD/svg11.dtd">
<!-- Generated by graphviz version 2.42.3 (0)
 -->
<!-- Title: inheritancecb50c7d34c Pages: 1 -->
<svg width="483pt" height="360pt"
 viewBox="0.00 0.00 483.00 360.00" xmlns="http://www.w3.org/2000/svg" xmlns:xlink="http://www.w3.org/1999/xlink">
<g id="graph0" class="graph" transform="scale(1 1) rotate(0) translate(4 356)">
<title>inheritancecb50c7d34c</title>
<polygon fill="white" stroke="transparent" points="-4,4 -4,-356 479,-356 479,4 -4,4"/>
<!-- D_base -->
<g id="node1" class="node">
<title>D_base</title>
<g id="a_node1"><a xlink:href="../api/proteus.Domain.html#proteus.Domain.D_base" xlink:title="The base class for domains" target="_top">
<polygon fill="none" stroke="black" stroke-width="0.5" points="54,-185 0,-185 0,-166 54,-166 54,-185"/>
<text text-anchor="middle" x="27" y="-173" font-family="Vera Sans, DejaVu Sans, Liberation Sans, Arial, Helvetica, sans" font-size="10.00">D_base</text>
</a>
</g>
</g>
<!-- GMSH_3D_Domain -->
<g id="node2" class="node">
<title>GMSH_3D_Domain</title>
<g id="a_node2"><a xlink:href="../api/proteus.Domain.html#proteus.Domain.GMSH_3D_Domain" xlink:title="A domain described by a gmsh .geo file" target="_top">
<polygon fill="none" stroke="black" stroke-width="0.5" points="233,-352 124,-352 124,-333 233,-333 233,-352"/>
<text text-anchor="middle" x="178.5" y="-340" font-family="Vera Sans, DejaVu Sans, Liberation Sans, Arial, Helvetica, sans" font-size="10.00">GMSH_3D_Domain</text>
</a>
</g>
</g>
<!-- D_base&#45;&gt;GMSH_3D_Domain -->
<g id="edge1" class="edge">
<title>D_base&#45;&gt;GMSH_3D_Domain</title>
<path fill="none" stroke="black" stroke-width="0.5" d="M28.98,-185.34C32.21,-212.23 45.04,-287.42 90,-324.5 98.23,-331.28 108.34,-335.72 118.74,-338.59"/>
<polygon fill="black" stroke="black" stroke-width="0.5" points="118.59,-340.35 123.87,-339.87 119.44,-336.96 118.59,-340.35"/>
</g>
<!-- PlanarStraightLineGraphDomain -->
<g id="node4" class="node">
<title>PlanarStraightLineGraphDomain</title>
<g id="a_node4"><a xlink:href="../api/proteus.Domain.html#proteus.Domain.PlanarStraightLineGraphDomain" xlink:title="2D domains described by planar straight line graphs." target="_top">
<polygon fill="none" stroke="black" stroke-width="0.5" points="265,-315 92,-315 92,-296 265,-296 265,-315"/>
<text text-anchor="middle" x="178.5" y="-303" font-family="Vera Sans, DejaVu Sans, Liberation Sans, Arial, Helvetica, sans" font-size="10.00">PlanarStraightLineGraphDomain</text>
</a>
</g>
</g>
<!-- D_base&#45;&gt;PlanarStraightLineGraphDomain -->
<g id="edge9" class="edge">
<title>D_base&#45;&gt;PlanarStraightLineGraphDomain</title>
<path fill="none" stroke="black" stroke-width="0.5" d="M30.37,-185.12C36.31,-207.08 54.01,-261.04 90,-287.5 93.18,-289.84 96.59,-291.89 100.15,-293.69"/>
<polygon fill="black" stroke="black" stroke-width="0.5" points="99.83,-295.47 105.1,-295.98 101.31,-292.29 99.83,-295.47"/>
</g>
<!-- Mesh2DMDomain -->
<g id="node5" class="node">
<title>Mesh2DMDomain</title>
<g id="a_node5"><a xlink:href="../api/proteus.Domain.html#proteus.Domain.Mesh2DMDomain" xlink:title="2D domains from ADH mesh files" target="_top">
<polygon fill="none" stroke="black" stroke-width="0.5" points="230.5,-278 126.5,-278 126.5,-259 230.5,-259 230.5,-278"/>
<text text-anchor="middle" x="178.5" y="-266" font-family="Vera Sans, DejaVu Sans, Liberation Sans, Arial, Helvetica, sans" font-size="10.00">Mesh2DMDomain</text>
</a>
</g>
</g>
<!-- D_base&#45;&gt;Mesh2DMDomain -->
<g id="edge3" class="edge">
<title>D_base&#45;&gt;Mesh2DMDomain</title>
<path fill="none" stroke="black" stroke-width="0.5" d="M33.04,-185.1C42.1,-201.36 62.78,-234.13 90,-250.5 99.45,-256.18 110.4,-260.1 121.29,-262.79"/>
<polygon fill="black" stroke="black" stroke-width="0.5" points="121.02,-264.52 126.29,-263.94 121.81,-261.11 121.02,-264.52"/>
</g>
<!-- Mesh3DMDomain -->
<g id="node6" class="node">
<title>Mesh3DMDomain</title>
<g id="a_node6"><a xlink:href="../api/proteus.Domain.html#proteus.Domain.Mesh3DMDomain" xlink:title="3D domains from ADH mesh files" target="_top">
<polygon fill="none" stroke="black" stroke-width="0.5" points="230.5,-241 126.5,-241 126.5,-222 230.5,-222 230.5,-241"/>
<text text-anchor="middle" x="178.5" y="-229" font-family="Vera Sans, DejaVu Sans, Liberation Sans, Arial, Helvetica, sans" font-size="10.00">Mesh3DMDomain</text>
</a>
</g>
</g>
<!-- D_base&#45;&gt;Mesh3DMDomain -->
<g id="edge4" class="edge">
<title>D_base&#45;&gt;Mesh3DMDomain</title>
<path fill="none" stroke="black" stroke-width="0.5" d="M40.61,-185.05C52.67,-193.73 71.68,-206.26 90,-213.5 99.79,-217.37 110.54,-220.45 121.06,-222.89"/>
<polygon fill="black" stroke="black" stroke-width="0.5" points="120.94,-224.66 126.2,-224.04 121.7,-221.24 120.94,-224.66"/>
</g>
<!-- MeshHexDomain -->
<g id="node7" class="node">
<title>MeshHexDomain</title>
<g id="a_node7"><a xlink:href="../api/proteus.Domain.html#proteus.Domain.MeshHexDomain" xlink:title="3D domains from Hex mesh files" target="_top">
<polygon fill="none" stroke="black" stroke-width="0.5" points="229,-204 128,-204 128,-185 229,-185 229,-204"/>
<text text-anchor="middle" x="178.5" y="-192" font-family="Vera Sans, DejaVu Sans, Liberation Sans, Arial, Helvetica, sans" font-size="10.00">MeshHexDomain</text>
</a>
</g>
</g>
<!-- D_base&#45;&gt;MeshHexDomain -->
<g id="edge5" class="edge">
<title>D_base&#45;&gt;MeshHexDomain</title>
<path fill="none" stroke="black" stroke-width="0.5" d="M54.04,-178.81C73.02,-181.22 99.42,-184.58 122.94,-187.57"/>
<polygon fill="black" stroke="black" stroke-width="0.5" points="122.73,-189.3 127.91,-188.2 123.17,-185.83 122.73,-189.3"/>
</g>
<!-- MeshTetgenDomain -->
<g id="node8" class="node">
<title>MeshTetgenDomain</title>
<g id="a_node8"><a xlink:href="../api/proteus.Domain.html#proteus.Domain.MeshTetgenDomain" xlink:title="3D domains from tetgen mesh files" target="_top">
<polygon fill="none" stroke="black" stroke-width="0.5" points="235,-167 122,-167 122,-148 235,-148 235,-167"/>
<text text-anchor="middle" x="178.5" y="-155" font-family="Vera Sans, DejaVu Sans, Liberation Sans, Arial, Helvetica, sans" font-size="10.00">MeshTetgenDomain</text>
</a>
</g>
</g>
<!-- D_base&#45;&gt;MeshTetgenDomain -->
<g id="edge6" class="edge">
<title>D_base&#45;&gt;MeshTetgenDomain</title>
<path fill="none" stroke="black" stroke-width="0.5" d="M54.04,-172.36C71.31,-170.29 94.73,-167.47 116.52,-164.84"/>
<polygon fill="black" stroke="black" stroke-width="0.5" points="116.98,-166.55 121.73,-164.21 116.56,-163.07 116.98,-166.55"/>
</g>
<!-- PUMIDomain -->
<g id="node9" class="node">
<title>PUMIDomain</title>
<g id="a_node9"><a xlink:href="../api/proteus.Domain.html#proteus.Domain.PUMIDomain" xlink:title="3d domains from PUMI mesh files" target="_top">
<polygon fill="none" stroke="black" stroke-width="0.5" points="218.5,-130 138.5,-130 138.5,-111 218.5,-111 218.5,-130"/>
<text text-anchor="middle" x="178.5" y="-118" font-family="Vera Sans, DejaVu Sans, Liberation Sans, Arial, Helvetica, sans" font-size="10.00">PUMIDomain</text>
</a>
</g>
</g>
<!-- D_base&#45;&gt;PUMIDomain -->
<g id="edge7" class="edge">
<title>D_base&#45;&gt;PUMIDomain</title>
<path fill="none" stroke="black" stroke-width="0.5" d="M41.65,-165.89C53.81,-157.75 72.36,-146.34 90,-139.5 103.68,-134.19 119.17,-130.22 133.28,-127.31"/>
<polygon fill="black" stroke="black" stroke-width="0.5" points="133.84,-128.98 138.41,-126.29 133.16,-125.55 133.84,-128.98"/>
</g>
<!-- PiecewiseLinearComplexDomain -->
<g id="node10" class="node">
<title>PiecewiseLinearComplexDomain</title>
<g id="a_node10"><a xlink:href="../api/proteus.Domain.html#proteus.Domain.PiecewiseLinearComplexDomain" xlink:title="3D domains desribed by closed surfaces made up of general polygonal facets." target="_top">
<polygon fill="none" stroke="black" stroke-width="0.5" points="267,-93 90,-93 90,-74 267,-74 267,-93"/>
<text text-anchor="middle" x="178.5" y="-81" font-family="Vera Sans, DejaVu Sans, Liberation Sans, Arial, Helvetica, sans" font-size="10.00">PiecewiseLinearComplexDomain</text>
</a>
</g>
</g>
<!-- D_base&#45;&gt;PiecewiseLinearComplexDomain -->
<g id="edge8" class="edge">
<title>D_base&#45;&gt;PiecewiseLinearComplexDomain</title>
<path fill="none" stroke="black" stroke-width="0.5" d="M33.27,-165.93C42.54,-150.07 63.33,-118.49 90,-102.5 95,-99.5 100.41,-96.97 106.01,-94.84"/>
<polygon fill="black" stroke="black" stroke-width="0.5" points="106.63,-96.48 110.75,-93.15 105.45,-93.18 106.63,-96.48"/>
</g>
<!-- RectangularDomain -->
<g id="node11" class="node">
<title>RectangularDomain</title>
<g id="a_node11"><a xlink:href="../api/proteus.Domain.html#proteus.Domain.RectangularDomain" xlink:title="Rectangular domains in 1,2, or 3D specified by the lower left hand corner and dimensions." target="_top">
<polygon fill="none" stroke="black" stroke-width="0.5" points="235,-56 122,-56 122,-37 235,-37 235,-56"/>
<text text-anchor="middle" x="178.5" y="-44" font-family="Vera Sans, DejaVu Sans, Liberation Sans, Arial, Helvetica, sans" font-size="10.00">RectangularDomain</text>
</a>
</g>
</g>
<!-- D_base&#45;&gt;RectangularDomain -->
<g id="edge10" class="edge">
<title>D_base&#45;&gt;RectangularDomain</title>
<path fill="none" stroke="black" stroke-width="0.5" d="M30.54,-165.75C36.72,-144.03 54.72,-91.53 90,-65.5 97.88,-59.68 107.19,-55.58 116.73,-52.7"/>
<polygon fill="black" stroke="black" stroke-width="0.5" points="117.4,-54.33 121.74,-51.3 116.46,-50.96 117.4,-54.33"/>
</g>
<!-- TriangulatedSurfaceDomain -->
<g id="node12" class="node">
<title>TriangulatedSurfaceDomain</title>
<g id="a_node12"><a xlink:href="../api/proteus.Domain.html#proteus.Domain.TriangulatedSurfaceDomain" xlink:title="3D domains described by closed surfaces made up of triangular facets." target="_top">
<polygon fill="none" stroke="black" stroke-width="0.5" points="254.5,-19 102.5,-19 102.5,0 254.5,0 254.5,-19"/>
<text text-anchor="middle" x="178.5" y="-7" font-family="Vera Sans, DejaVu Sans, Liberation Sans, Arial, Helvetica, sans" font-size="10.00">TriangulatedSurfaceDomain</text>
</a>
</g>
</g>
<!-- D_base&#45;&gt;TriangulatedSurfaceDomain -->
<g id="edge11" class="edge">
<title>D_base&#45;&gt;TriangulatedSurfaceDomain</title>
<path fill="none" stroke="black" stroke-width="0.5" d="M29.05,-165.81C32.45,-139.34 45.67,-65.29 90,-28.5 93.27,-25.79 96.83,-23.44 100.6,-21.41"/>
<polygon fill="black" stroke="black" stroke-width="0.5" points="101.41,-22.96 105.1,-19.16 99.84,-19.83 101.41,-22.96"/>
</g>
<!-- InterpolatedBathymetryDomain -->
<g id="node3" class="node">
<title>InterpolatedBathymetryDomain</title>
<g id="a_node3"><a xlink:href="../api/proteus.Domain.html#proteus.Domain.InterpolatedBathymetryDomain" xlink:title="2D domains with an attached bathymetry data set." target="_top">
<polygon fill="none" stroke="black" stroke-width="0.5" points="475,-315 303,-315 303,-296 475,-296 475,-315"/>
<text text-anchor="middle" x="389" y="-303" font-family="Vera Sans, DejaVu Sans, Liberation Sans, Arial, Helvetica, sans" font-size="10.00">InterpolatedBathymetryDomain</text>
</a>
</g>
</g>
<!-- PlanarStraightLineGraphDomain&#45;&gt;InterpolatedBathymetryDomain -->
<g id="edge2" class="edge">
<title>PlanarStraightLineGraphDomain&#45;&gt;InterpolatedBathymetryDomain</title>
<path fill="none" stroke="black" stroke-width="0.5" d="M265.21,-305.5C275.92,-305.5 286.91,-305.5 297.69,-305.5"/>
<polygon fill="black" stroke="black" stroke-width="0.5" points="297.96,-307.25 302.96,-305.5 297.96,-303.75 297.96,-307.25"/>
</g>
</g>
</svg>
