<?xml version="1.0" encoding="UTF-8" standalone="no"?>
<!DOCTYPE svg PUBLIC "-//W3C//DTD SVG 1.1//EN"
 "http://www.w3.org/Graphics/SVG/1.1/DTD/svg11.dtd">
<!-- Generated by graphviz version 2.40.1 (20161225.0304)
 -->
<!-- Title: inheritance0624bf74da Pages: 1 -->
<svg width="576pt" height="440pt"
 viewBox="0.00 0.00 576.00 439.70" xmlns="http://www.w3.org/2000/svg" xmlns:xlink="http://www.w3.org/1999/xlink">
<g id="graph0" class="graph" transform="scale(.9335 .9335) rotate(0) translate(4 467)">
<title>inheritance0624bf74da</title>
<polygon fill="#ffffff" stroke="transparent" points="-4,4 -4,-467 613,-467 613,4 -4,4"/>
<!-- AddedMassNewton -->
<g id="node1" class="node">
<title>AddedMassNewton</title>
<g id="a_node1"><a xlink:href="../api/proteus.NonlinearSolvers.html#proteus.NonlinearSolvers.AddedMassNewton" xlink:title="AddedMassNewton" target="_top">
<polygon fill="none" stroke="#000000" stroke-width=".5" points="511.5,-463 401.5,-463 401.5,-444 511.5,-444 511.5,-463"/>
<text text-anchor="middle" x="456.5" y="-451" font-family="Vera Sans, DejaVu Sans, Liberation Sans, Arial, Helvetica, sans" font-size="10.00" fill="#000000">AddedMassNewton</text>
</a>
</g>
</g>
<!-- Newton -->
<g id="node2" class="node">
<title>Newton</title>
<g id="a_node2"><a xlink:href="../api/proteus.NonlinearSolvers.html#proteus.NonlinearSolvers.Newton" xlink:title="A simple iterative solver that is Newton&#39;s method" target="_top">
<polygon fill="none" stroke="#000000" stroke-width=".5" points="250.5,-241 196.5,-241 196.5,-222 250.5,-222 250.5,-241"/>
<text text-anchor="middle" x="223.5" y="-229" font-family="Vera Sans, DejaVu Sans, Liberation Sans, Arial, Helvetica, sans" font-size="10.00" fill="#000000">Newton</text>
</a>
</g>
</g>
<!-- Newton&#45;&gt;AddedMassNewton -->
<g id="edge1" class="edge">
<title>Newton&#45;&gt;AddedMassNewton</title>
<path fill="none" stroke="#000000" stroke-width=".5" d="M250.764,-238.2733C257.2487,-241.0798 263.5645,-245.012 268,-250.5 320.6528,-315.6474 242.599,-378.5227 304,-435.5 328.1999,-457.9564 364.672,-462.8989 395.8805,-462.0169"/>
<polygon fill="#000000" stroke="#000000" stroke-width=".5" points="396.3128,-463.7515 401.2407,-461.8076 396.1761,-460.2541 396.3128,-463.7515"/>
</g>
<!-- CLSVOFNewton -->
<g id="node3" class="node">
<title>CLSVOFNewton</title>
<g id="a_node3"><a xlink:href="../api/proteus.NonlinearSolvers.html#proteus.NonlinearSolvers.CLSVOFNewton" xlink:title="CLSVOFNewton" target="_top">
<polygon fill="none" stroke="#000000" stroke-width=".5" points="502.5,-426 410.5,-426 410.5,-407 502.5,-407 502.5,-426"/>
<text text-anchor="middle" x="456.5" y="-414" font-family="Vera Sans, DejaVu Sans, Liberation Sans, Arial, Helvetica, sans" font-size="10.00" fill="#000000">CLSVOFNewton</text>
</a>
</g>
</g>
<!-- Newton&#45;&gt;CLSVOFNewton -->
<g id="edge2" class="edge">
<title>Newton&#45;&gt;CLSVOFNewton</title>
<path fill="none" stroke="#000000" stroke-width=".5" d="M250.5932,-238.4147C257.0791,-241.2201 263.4383,-245.1164 268,-250.5 311.7626,-302.1483 253.3225,-353.6167 304,-398.5 331.0899,-422.4926 372.3263,-426.1026 405.0913,-424.1996"/>
<polygon fill="#000000" stroke="#000000" stroke-width=".5" points="405.4032,-425.9326 410.2736,-423.8492 405.1669,-422.4406 405.4032,-425.9326"/>
</g>
<!-- ExplicitConsistentMassMatrixForVOF -->
<g id="node5" class="node">
<title>ExplicitConsistentMassMatrixForVOF</title>
<g id="a_node5"><a xlink:href="../api/proteus.NonlinearSolvers.html#proteus.NonlinearSolvers.ExplicitConsistentMassMatrixForVOF" xlink:title="This is a fake solver meant to be used with optimized code" target="_top">
<polygon fill="none" stroke="#000000" stroke-width=".5" points="553.5,-389 359.5,-389 359.5,-370 553.5,-370 553.5,-389"/>
<text text-anchor="middle" x="456.5" y="-377" font-family="Vera Sans, DejaVu Sans, Liberation Sans, Arial, Helvetica, sans" font-size="10.00" fill="#000000">ExplicitConsistentMassMatrixForVOF</text>
</a>
</g>
</g>
<!-- Newton&#45;&gt;ExplicitConsistentMassMatrixForVOF -->
<g id="edge3" class="edge">
<title>Newton&#45;&gt;ExplicitConsistentMassMatrixForVOF</title>
<path fill="none" stroke="#000000" stroke-width=".5" d="M250.7874,-238.8535C257.1173,-241.6385 263.353,-245.4152 268,-250.5 302.9875,-288.7838 263.9129,-328.594 304,-361.5 318.2207,-373.1732 335.8567,-379.8609 354.0332,-383.4026"/>
<polygon fill="#000000" stroke="#000000" stroke-width=".5" points="353.9421,-385.164 359.1718,-384.3197 354.5571,-381.7184 353.9421,-385.164"/>
</g>
<!-- ExplicitConsistentMassMatrixShallowWaterEquationsSolver -->
<g id="node6" class="node">
<title>ExplicitConsistentMassMatrixShallowWaterEquationsSolver</title>
<g id="a_node6"><a xlink:href="../api/proteus.NonlinearSolvers.html#proteus.NonlinearSolvers.ExplicitConsistentMassMatrixShallowWaterEquationsSolver" xlink:title="This is a fake solver meant to be used with optimized code" target="_top">
<polygon fill="none" stroke="#000000" stroke-width=".5" points="609,-352 304,-352 304,-333 609,-333 609,-352"/>
<text text-anchor="middle" x="456.5" y="-340" font-family="Vera Sans, DejaVu Sans, Liberation Sans, Arial, Helvetica, sans" font-size="10.00" fill="#000000">ExplicitConsistentMassMatrixShallowWaterEquationsSolver</text>
</a>
</g>
</g>
<!-- Newton&#45;&gt;ExplicitConsistentMassMatrixShallowWaterEquationsSolver -->
<g id="edge4" class="edge">
<title>Newton&#45;&gt;ExplicitConsistentMassMatrixShallowWaterEquationsSolver</title>
<path fill="none" stroke="#000000" stroke-width=".5" d="M250.7769,-239.523C256.9614,-242.2734 263.1324,-245.8664 268,-250.5 294.4908,-275.7174 274.1853,-303.316 304,-324.5 307.0629,-326.6763 310.2508,-328.6675 313.5406,-330.4874"/>
<polygon fill="#000000" stroke="#000000" stroke-width=".5" points="312.8458,-332.0988 318.0876,-332.8642 314.4672,-328.997 312.8458,-332.0988"/>
</g>
<!-- ExplicitConsistentMassMatrixWithRedistancing -->
<g id="node7" class="node">
<title>ExplicitConsistentMassMatrixWithRedistancing</title>
<g id="a_node7"><a xlink:href="../api/proteus.NonlinearSolvers.html#proteus.NonlinearSolvers.ExplicitConsistentMassMatrixWithRedistancing" xlink:title="This is a fake solver meant to be used with optimized code" target="_top">
<polygon fill="none" stroke="#000000" stroke-width=".5" points="579,-315 334,-315 334,-296 579,-296 579,-315"/>
<text text-anchor="middle" x="456.5" y="-303" font-family="Vera Sans, DejaVu Sans, Liberation Sans, Arial, Helvetica, sans" font-size="10.00" fill="#000000">ExplicitConsistentMassMatrixWithRedistancing</text>
</a>
</g>
</g>
<!-- Newton&#45;&gt;ExplicitConsistentMassMatrixWithRedistancing -->
<g id="edge5" class="edge">
<title>Newton&#45;&gt;ExplicitConsistentMassMatrixWithRedistancing</title>
<path fill="none" stroke="#000000" stroke-width=".5" d="M250.7547,-241.1137C256.6748,-243.7464 262.7355,-246.8882 268,-250.5 286.9193,-263.48 283.4238,-277.3492 304,-287.5 311.7217,-291.3093 319.9223,-294.4439 328.358,-297.0135"/>
<polygon fill="#000000" stroke="#000000" stroke-width=".5" points="328.3493,-298.8327 333.6387,-298.5414 329.3221,-295.4706 328.3493,-298.8327"/>
</g>
<!-- ExplicitLumpedMassMatrix -->
<g id="node8" class="node">
<title>ExplicitLumpedMassMatrix</title>
<g id="a_node8"><a xlink:href="../api/proteus.NonlinearSolvers.html#proteus.NonlinearSolvers.ExplicitLumpedMassMatrix" xlink:title="This is a fake solver meant to be used with optimized code" target="_top">
<polygon fill="none" stroke="#000000" stroke-width=".5" points="530,-278 383,-278 383,-259 530,-259 530,-278"/>
<text text-anchor="middle" x="456.5" y="-266" font-family="Vera Sans, DejaVu Sans, Liberation Sans, Arial, Helvetica, sans" font-size="10.00" fill="#000000">ExplicitLumpedMassMatrix</text>
</a>
</g>
</g>
<!-- Newton&#45;&gt;ExplicitLumpedMassMatrix -->
<g id="edge6" class="edge">
<title>Newton&#45;&gt;ExplicitLumpedMassMatrix</title>
<path fill="none" stroke="#000000" stroke-width=".5" d="M250.5408,-238.6976C266.0885,-242.6305 286.0406,-247.3314 304,-250.5 327.8978,-254.7164 354.0814,-258.21 377.9039,-260.9619"/>
<polygon fill="#000000" stroke="#000000" stroke-width=".5" points="377.7836,-262.7094 382.9498,-261.5378 378.1805,-259.232 377.7836,-262.7094"/>
</g>
<!-- ExplicitLumpedMassMatrixShallowWaterEquationsSolver -->
<g id="node9" class="node">
<title>ExplicitLumpedMassMatrixShallowWaterEquationsSolver</title>
<g id="a_node9"><a xlink:href="../api/proteus.NonlinearSolvers.html#proteus.NonlinearSolvers.ExplicitLumpedMassMatrixShallowWaterEquationsSolver" xlink:title="This is a fake solver meant to be used with optimized code" target="_top">
<polygon fill="none" stroke="#000000" stroke-width=".5" points="603,-241 310,-241 310,-222 603,-222 603,-241"/>
<text text-anchor="middle" x="456.5" y="-229" font-family="Vera Sans, DejaVu Sans, Liberation Sans, Arial, Helvetica, sans" font-size="10.00" fill="#000000">ExplicitLumpedMassMatrixShallowWaterEquationsSolver</text>
</a>
</g>
</g>
<!-- Newton&#45;&gt;ExplicitLumpedMassMatrixShallowWaterEquationsSolver -->
<g id="edge7" class="edge">
<title>Newton&#45;&gt;ExplicitLumpedMassMatrixShallowWaterEquationsSolver</title>
<path fill="none" stroke="#000000" stroke-width=".5" d="M250.6841,-231.5C265.0707,-231.5 283.9987,-231.5 304.5539,-231.5"/>
<polygon fill="#000000" stroke="#000000" stroke-width=".5" points="304.8132,-233.2501 309.8131,-231.5 304.8131,-229.7501 304.8132,-233.2501"/>
</g>
<!-- NewtonWithL2ProjectionForMassCorrection -->
<g id="node20" class="node">
<title>NewtonWithL2ProjectionForMassCorrection</title>
<g id="a_node20"><a xlink:href="../api/proteus.NonlinearSolvers.html#proteus.NonlinearSolvers.NewtonWithL2ProjectionForMassCorrection" xlink:title="This is a fake solver meant to be used with optimized code" target="_top">
<polygon fill="none" stroke="#000000" stroke-width=".5" points="570,-204 343,-204 343,-185 570,-185 570,-204"/>
<text text-anchor="middle" x="456.5" y="-192" font-family="Vera Sans, DejaVu Sans, Liberation Sans, Arial, Helvetica, sans" font-size="10.00" fill="#000000">NewtonWithL2ProjectionForMassCorrection</text>
</a>
</g>
</g>
<!-- Newton&#45;&gt;NewtonWithL2ProjectionForMassCorrection -->
<g id="edge15" class="edge">
<title>Newton&#45;&gt;NewtonWithL2ProjectionForMassCorrection</title>
<path fill="none" stroke="#000000" stroke-width=".5" d="M250.5715,-224.7653C266.1291,-221.0665 286.0808,-216.6123 304,-213.5 323.1442,-210.175 343.738,-207.2041 363.4073,-204.6549"/>
<polygon fill="#000000" stroke="#000000" stroke-width=".5" points="363.65,-206.3882 368.3866,-204.016 363.2045,-202.9167 363.65,-206.3882"/>
</g>
<!-- POD_DEIM_Newton -->
<g id="node22" class="node">
<title>POD_DEIM_Newton</title>
<g id="a_node22"><a xlink:href="../api/proteus.NonlinearSolvers.html#proteus.NonlinearSolvers.POD_DEIM_Newton" xlink:title="Newton&#39;s method on the reduced order system based on POD" target="_top">
<polygon fill="none" stroke="#000000" stroke-width=".5" points="511.5,-167 401.5,-167 401.5,-148 511.5,-148 511.5,-167"/>
<text text-anchor="middle" x="456.5" y="-155" font-family="Vera Sans, DejaVu Sans, Liberation Sans, Arial, Helvetica, sans" font-size="10.00" fill="#000000">POD_DEIM_Newton</text>
</a>
</g>
</g>
<!-- Newton&#45;&gt;POD_DEIM_Newton -->
<g id="edge16" class="edge">
<title>Newton&#45;&gt;POD_DEIM_Newton</title>
<path fill="none" stroke="#000000" stroke-width=".5" d="M250.7661,-222.5572C256.6856,-220.0546 262.7432,-217.0329 268,-213.5 287.0428,-200.7019 283.4567,-186.7172 304,-176.5 332.3411,-162.4046 367.1655,-157.2931 396.3776,-155.8658"/>
<polygon fill="#000000" stroke="#000000" stroke-width=".5" points="396.4672,-157.6137 401.3888,-155.6541 396.3193,-154.1168 396.4672,-157.6137"/>
</g>
<!-- POD_Newton -->
<g id="node23" class="node">
<title>POD_Newton</title>
<g id="a_node23"><a xlink:href="../api/proteus.NonlinearSolvers.html#proteus.NonlinearSolvers.POD_Newton" xlink:title="Newton&#39;s method on the reduced order system based on POD" target="_top">
<polygon fill="none" stroke="#000000" stroke-width=".5" points="496.5,-130 416.5,-130 416.5,-111 496.5,-111 496.5,-130"/>
<text text-anchor="middle" x="456.5" y="-118" font-family="Vera Sans, DejaVu Sans, Liberation Sans, Arial, Helvetica, sans" font-size="10.00" fill="#000000">POD_Newton</text>
</a>
</g>
</g>
<!-- Newton&#45;&gt;POD_Newton -->
<g id="edge17" class="edge">
<title>Newton&#45;&gt;POD_Newton</title>
<path fill="none" stroke="#000000" stroke-width=".5" d="M250.7695,-224.127C256.9543,-221.5145 263.1272,-218.0503 268,-213.5 294.7312,-188.5375 274.2539,-160.7803 304,-139.5 334.8961,-117.397 378.5987,-114.0032 411.3049,-115.3444"/>
<polygon fill="#000000" stroke="#000000" stroke-width=".5" points="411.3759,-117.1 416.456,-115.5982 411.5482,-113.6042 411.3759,-117.1"/>
</g>
<!-- PicardNewton -->
<g id="node24" class="node">
<title>PicardNewton</title>
<g id="a_node24"><a xlink:href="../api/proteus.NonlinearSolvers.html#proteus.NonlinearSolvers.PicardNewton" xlink:title="PicardNewton" target="_top">
<polygon fill="none" stroke="#000000" stroke-width=".5" points="498.5,-93 414.5,-93 414.5,-74 498.5,-74 498.5,-93"/>
<text text-anchor="middle" x="456.5" y="-81" font-family="Vera Sans, DejaVu Sans, Liberation Sans, Arial, Helvetica, sans" font-size="10.00" fill="#000000">PicardNewton</text>
</a>
</g>
</g>
<!-- Newton&#45;&gt;PicardNewton -->
<g id="edge18" class="edge">
<title>Newton&#45;&gt;PicardNewton</title>
<path fill="none" stroke="#000000" stroke-width=".5" d="M250.7809,-224.7954C257.1109,-222.152 263.3483,-218.5062 268,-213.5 303.5908,-175.197 263.6295,-134.7273 304,-101.5 332.9173,-77.6994 376.0216,-74.6001 409.0338,-76.6492"/>
<polygon fill="#000000" stroke="#000000" stroke-width=".5" points="409.13,-78.4104 414.2417,-77.0199 409.3786,-74.9193 409.13,-78.4104"/>
</g>
<!-- SSPRKNewton -->
<g id="node25" class="node">
<title>SSPRKNewton</title>
<g id="a_node25"><a xlink:href="../api/proteus.NonlinearSolvers.html#proteus.NonlinearSolvers.SSPRKNewton" xlink:title="Version of Newton for SSPRK so doesn&#39;t refactor unnecessarily" target="_top">
<polygon fill="none" stroke="#000000" stroke-width=".5" points="499.5,-56 413.5,-56 413.5,-37 499.5,-37 499.5,-56"/>
<text text-anchor="middle" x="456.5" y="-44" font-family="Vera Sans, DejaVu Sans, Liberation Sans, Arial, Helvetica, sans" font-size="10.00" fill="#000000">SSPRKNewton</text>
</a>
</g>
</g>
<!-- Newton&#45;&gt;SSPRKNewton -->
<g id="edge19" class="edge">
<title>Newton&#45;&gt;SSPRKNewton</title>
<path fill="none" stroke="#000000" stroke-width=".5" d="M250.5787,-225.2208C257.0648,-222.561 263.4277,-218.8009 268,-213.5 312.498,-161.9121 253.034,-109.7089 304,-64.5 331.9233,-39.7309 374.9183,-36.6708 408.1468,-38.9827"/>
<polygon fill="#000000" stroke="#000000" stroke-width=".5" points="408.2698,-40.7478 413.3922,-39.3973 408.5457,-37.2587 408.2698,-40.7478"/>
</g>
<!-- TwoStageNewton -->
<g id="node26" class="node">
<title>TwoStageNewton</title>
<g id="a_node26"><a xlink:href="../api/proteus.NonlinearSolvers.html#proteus.NonlinearSolvers.TwoStageNewton" xlink:title="Solves a 2 Stage problem via Newton&#39;s solve" target="_top">
<polygon fill="none" stroke="#000000" stroke-width=".5" points="507,-19 406,-19 406,0 507,0 507,-19"/>
<text text-anchor="middle" x="456.5" y="-7" font-family="Vera Sans, DejaVu Sans, Liberation Sans, Arial, Helvetica, sans" font-size="10.00" fill="#000000">TwoStageNewton</text>
</a>
</g>
</g>
<!-- Newton&#45;&gt;TwoStageNewton -->
<g id="edge20" class="edge">
<title>Newton&#45;&gt;TwoStageNewton</title>
<path fill="none" stroke="#000000" stroke-width=".5" d="M250.745,-225.361C257.2298,-222.7001 263.5505,-218.9043 268,-213.5 321.5192,-148.4963 242.3081,-84.8052 304,-27.5 329.4937,-3.8191 368.6317,.3939 400.8748,-1.1656"/>
<polygon fill="#000000" stroke="#000000" stroke-width=".5" points="400.894,-2.9196 405.9873,-1.4634 401.0975,.5745 400.894,-2.9196"/>
</g>
<!-- EikonalSolver -->
<g id="node4" class="node">
<title>EikonalSolver</title>
<g id="a_node4"><a xlink:href="../api/proteus.NonlinearSolvers.html#proteus.NonlinearSolvers.EikonalSolver" xlink:title="Simple wrapper for special purpose Eikonal equation solvers on a single level." target="_top">
<polygon fill="none" stroke="#000000" stroke-width=".5" points="113,-167 30,-167 30,-148 113,-148 113,-167"/>
<text text-anchor="middle" x="71.5" y="-155" font-family="Vera Sans, DejaVu Sans, Liberation Sans, Arial, Helvetica, sans" font-size="10.00" fill="#000000">EikonalSolver</text>
</a>
</g>
</g>
<!-- FAS -->
<g id="node10" class="node">
<title>FAS</title>
<g id="a_node10"><a xlink:href="../api/proteus.NonlinearSolvers.html#proteus.NonlinearSolvers.FAS" xlink:title="A generic nonlinear multigrid W cycle using the Full Approximation Scheme (FAS)." target="_top">
<polygon fill="none" stroke="#000000" stroke-width=".5" points="98.5,-204 44.5,-204 44.5,-185 98.5,-185 98.5,-204"/>
<text text-anchor="middle" x="71.5" y="-192" font-family="Vera Sans, DejaVu Sans, Liberation Sans, Arial, Helvetica, sans" font-size="10.00" fill="#000000">FAS</text>
</a>
</g>
</g>
<!-- FasTwoLevel -->
<g id="node11" class="node">
<title>FasTwoLevel</title>
<g id="a_node11"><a xlink:href="../api/proteus.NonlinearSolvers.html#proteus.NonlinearSolvers.FasTwoLevel" xlink:title="A generic nonlinear two&#45;level solver based on the full approximation scheme. (FAS)." target="_top">
<polygon fill="none" stroke="#000000" stroke-width=".5" points="262,-204 185,-204 185,-185 262,-185 262,-204"/>
<text text-anchor="middle" x="223.5" y="-192" font-family="Vera Sans, DejaVu Sans, Liberation Sans, Arial, Helvetica, sans" font-size="10.00" fill="#000000">FasTwoLevel</text>
</a>
</g>
</g>
<!-- NonlinearSolver -->
<g id="node12" class="node">
<title>NonlinearSolver</title>
<g id="a_node12"><a xlink:href="../api/proteus.NonlinearSolvers.html#proteus.NonlinearSolvers.NonlinearSolver" xlink:title="The base class for nonlinear solvers." target="_top">
<polygon fill="none" stroke="#000000" stroke-width=".5" points="119,-130 24,-130 24,-111 119,-111 119,-130"/>
<text text-anchor="middle" x="71.5" y="-118" font-family="Vera Sans, DejaVu Sans, Liberation Sans, Arial, Helvetica, sans" font-size="10.00" fill="#000000">NonlinearSolver</text>
</a>
</g>
</g>
<!-- NonlinearSolver&#45;&gt;Newton -->
<g id="edge13" class="edge">
<title>NonlinearSolver&#45;&gt;Newton</title>
<path fill="none" stroke="#000000" stroke-width=".5" d="M119.2658,-127.0853C127.8109,-129.8895 136.1586,-133.8665 143,-139.5 171.234,-162.7491 152.2688,-188.5375 179,-213.5 182.6546,-216.9128 187.0405,-219.7145 191.6142,-222.0043"/>
<polygon fill="#000000" stroke="#000000" stroke-width=".5" points="190.9566,-223.628 196.2305,-224.127 192.4189,-220.4481 190.9566,-223.628"/>
</g>
<!-- NonlinearSolver&#45;&gt;FasTwoLevel -->
<g id="edge8" class="edge">
<title>NonlinearSolver&#45;&gt;FasTwoLevel</title>
<path fill="none" stroke="#000000" stroke-width=".5" d="M119.1024,-129.2878C127.3871,-131.8823 135.6834,-135.2189 143,-139.5 162.8029,-151.0873 159.9572,-163.7019 179,-176.5 182.48,-178.8388 186.311,-180.9536 190.2206,-182.842"/>
<polygon fill="#000000" stroke="#000000" stroke-width=".5" points="189.5553,-184.4622 194.8298,-184.9548 191.0138,-181.2805 189.5553,-184.4622"/>
</g>
<!-- NLGaussSeidel -->
<g id="node15" class="node">
<title>NLGaussSeidel</title>
<g id="a_node15"><a xlink:href="../api/proteus.NonlinearSolvers.html#proteus.NonlinearSolvers.NLGaussSeidel" xlink:title="Nonlinear Gauss&#45;Seidel." target="_top">
<polygon fill="none" stroke="#000000" stroke-width=".5" points="268,-167 179,-167 179,-148 268,-148 268,-167"/>
<text text-anchor="middle" x="223.5" y="-155" font-family="Vera Sans, DejaVu Sans, Liberation Sans, Arial, Helvetica, sans" font-size="10.00" fill="#000000">NLGaussSeidel</text>
</a>
</g>
</g>
<!-- NonlinearSolver&#45;&gt;NLGaussSeidel -->
<g id="edge9" class="edge">
<title>NonlinearSolver&#45;&gt;NLGaussSeidel</title>
<path fill="none" stroke="#000000" stroke-width=".5" d="M110.6438,-130.0284C131.5722,-135.1228 157.4205,-141.4149 179.0968,-146.6913"/>
<polygon fill="#000000" stroke="#000000" stroke-width=".5" points="178.9529,-148.4573 184.225,-147.9396 179.7808,-145.0566 178.9529,-148.4573"/>
</g>
<!-- NLJacobi -->
<g id="node16" class="node">
<title>NLJacobi</title>
<g id="a_node16"><a xlink:href="../api/proteus.NonlinearSolvers.html#proteus.NonlinearSolvers.NLJacobi" xlink:title="Nonlinear Jacobi iteration." target="_top">
<polygon fill="none" stroke="#000000" stroke-width=".5" points="253,-130 194,-130 194,-111 253,-111 253,-130"/>
<text text-anchor="middle" x="223.5" y="-118" font-family="Vera Sans, DejaVu Sans, Liberation Sans, Arial, Helvetica, sans" font-size="10.00" fill="#000000">NLJacobi</text>
</a>
</g>
</g>
<!-- NonlinearSolver&#45;&gt;NLJacobi -->
<g id="edge10" class="edge">
<title>NonlinearSolver&#45;&gt;NLJacobi</title>
<path fill="none" stroke="#000000" stroke-width=".5" d="M119.1767,-120.5C141.65,-120.5 167.9791,-120.5 188.5641,-120.5"/>
<polygon fill="#000000" stroke="#000000" stroke-width=".5" points="188.6681,-122.2501 193.668,-120.5 188.668,-118.7501 188.6681,-122.2501"/>
</g>
<!-- NLStarILU -->
<g id="node18" class="node">
<title>NLStarILU</title>
<g id="a_node18"><a xlink:href="../api/proteus.NonlinearSolvers.html#proteus.NonlinearSolvers.NLStarILU" xlink:title="Nonlinear alternating Schwarz on node stars." target="_top">
<polygon fill="none" stroke="#000000" stroke-width=".5" points="255.5,-93 191.5,-93 191.5,-74 255.5,-74 255.5,-93"/>
<text text-anchor="middle" x="223.5" y="-81" font-family="Vera Sans, DejaVu Sans, Liberation Sans, Arial, Helvetica, sans" font-size="10.00" fill="#000000">NLStarILU</text>
</a>
</g>
</g>
<!-- NonlinearSolver&#45;&gt;NLStarILU -->
<g id="edge12" class="edge">
<title>NonlinearSolver&#45;&gt;NLStarILU</title>
<path fill="none" stroke="#000000" stroke-width=".5" d="M110.6438,-110.9716C133.8685,-105.3182 163.152,-98.19 186.0692,-92.6114"/>
<polygon fill="#000000" stroke="#000000" stroke-width=".5" points="186.71,-94.2566 191.1543,-91.3736 185.8822,-90.8559 186.71,-94.2566"/>
</g>
<!-- NewtonNS -->
<g id="node19" class="node">
<title>NewtonNS</title>
<g id="a_node19"><a xlink:href="../api/proteus.NonlinearSolvers.html#proteus.NonlinearSolvers.NewtonNS" xlink:title="A simple iterative solver that is Newton&#39;s method" target="_top">
<polygon fill="none" stroke="#000000" stroke-width=".5" points="257.5,-56 189.5,-56 189.5,-37 257.5,-37 257.5,-56"/>
<text text-anchor="middle" x="223.5" y="-44" font-family="Vera Sans, DejaVu Sans, Liberation Sans, Arial, Helvetica, sans" font-size="10.00" fill="#000000">NewtonNS</text>
</a>
</g>
</g>
<!-- NonlinearSolver&#45;&gt;NewtonNS -->
<g id="edge14" class="edge">
<title>NonlinearSolver&#45;&gt;NewtonNS</title>
<path fill="none" stroke="#000000" stroke-width=".5" d="M88.7469,-110.8612C109.7702,-99.2652 146.517,-79.4884 179,-64.5 183.6537,-62.3527 188.6397,-60.1982 193.5297,-58.164"/>
<polygon fill="#000000" stroke="#000000" stroke-width=".5" points="194.4121,-59.6935 198.3719,-56.1746 193.0819,-56.4561 194.4121,-59.6935"/>
</g>
<!-- MultilevelEikonalSolver -->
<g id="node13" class="node">
<title>MultilevelEikonalSolver</title>
<g id="a_node13"><a xlink:href="../api/proteus.NonlinearSolvers.html#proteus.NonlinearSolvers.MultilevelEikonalSolver" xlink:title="Attempt a wrapper for multilevel Eikonal equation solves with restricted interface" target="_top">
<polygon fill="none" stroke="#000000" stroke-width=".5" points="137,-241 6,-241 6,-222 137,-222 137,-241"/>
<text text-anchor="middle" x="71.5" y="-229" font-family="Vera Sans, DejaVu Sans, Liberation Sans, Arial, Helvetica, sans" font-size="10.00" fill="#000000">MultilevelEikonalSolver</text>
</a>
</g>
</g>
<!-- MultilevelNonlinearSolver -->
<g id="node14" class="node">
<title>MultilevelNonlinearSolver</title>
<g id="a_node14"><a xlink:href="../api/proteus.NonlinearSolvers.html#proteus.NonlinearSolvers.MultilevelNonlinearSolver" xlink:title="A generic multilevel solver." target="_top">
<polygon fill="none" stroke="#000000" stroke-width=".5" points="143,-278 0,-278 0,-259 143,-259 143,-278"/>
<text text-anchor="middle" x="71.5" y="-266" font-family="Vera Sans, DejaVu Sans, Liberation Sans, Arial, Helvetica, sans" font-size="10.00" fill="#000000">MultilevelNonlinearSolver</text>
</a>
</g>
</g>
<!-- NLNI -->
<g id="node17" class="node">
<title>NLNI</title>
<g id="a_node17"><a xlink:href="../api/proteus.NonlinearSolvers.html#proteus.NonlinearSolvers.NLNI" xlink:title="Nonlinear nested iteration." target="_top">
<polygon fill="none" stroke="#000000" stroke-width=".5" points="250.5,-278 196.5,-278 196.5,-259 250.5,-259 250.5,-278"/>
<text text-anchor="middle" x="223.5" y="-266" font-family="Vera Sans, DejaVu Sans, Liberation Sans, Arial, Helvetica, sans" font-size="10.00" fill="#000000">NLNI</text>
</a>
</g>
</g>
<!-- MultilevelNonlinearSolver&#45;&gt;NLNI -->
<g id="edge11" class="edge">
<title>MultilevelNonlinearSolver&#45;&gt;NLNI</title>
<path fill="none" stroke="#000000" stroke-width=".5" d="M143.0491,-268.5C159.9194,-268.5 177.0831,-268.5 191.2,-268.5"/>
<polygon fill="#000000" stroke="#000000" stroke-width=".5" points="191.257,-270.2501 196.2569,-268.5 191.2569,-266.7501 191.257,-270.2501"/>
</g>
<!-- NonlinearEquation -->
<g id="node21" class="node">
<title>NonlinearEquation</title>
<g id="a_node21"><a xlink:href="../api/proteus.NonlinearSolvers.html#proteus.NonlinearSolvers.NonlinearEquation" xlink:title="The base class for nonlinear equations." target="_top">
<polygon fill="none" stroke="#000000" stroke-width=".5" points="125,-315 18,-315 18,-296 125,-296 125,-315"/>
<text text-anchor="middle" x="71.5" y="-303" font-family="Vera Sans, DejaVu Sans, Liberation Sans, Arial, Helvetica, sans" font-size="10.00" fill="#000000">NonlinearEquation</text>
</a>
</g>
</g>
</g>
</svg>
