<?xml version="1.0" encoding="UTF-8" standalone="no"?>
<!DOCTYPE svg PUBLIC "-//W3C//DTD SVG 1.1//EN"
 "http://www.w3.org/Graphics/SVG/1.1/DTD/svg11.dtd">
<!-- Generated by graphviz version 2.38.0 (20140413.2041)
 -->
<!-- Title: inheritance46841c7b14 Pages: 1 -->
<svg width="256pt" height="582pt"
 viewBox="0.00 0.00 256.00 582.00" xmlns="http://www.w3.org/2000/svg" xmlns:xlink="http://www.w3.org/1999/xlink">
<g id="graph0" class="graph" transform="scale(1 1) rotate(0) translate(4 578)">
<title>inheritance46841c7b14</title>
<polygon fill="white" stroke="none" points="-4,4 -4,-578 252,-578 252,4 -4,4"/>
<!-- CompositeTrapezoidalEdge -->
<g id="node1" class="node"><title>CompositeTrapezoidalEdge</title>
<g id="a_node1"><a xlink:href="../api/proteus.Quadrature.html#proteus.Quadrature.CompositeTrapezoidalEdge" xlink:title="Composite trapezoidal rule on the unit interval." target="_top">
<polygon fill="none" stroke="black" stroke-width="0.5" points="242,-574 96,-574 96,-555 242,-555 242,-574"/>
<text text-anchor="middle" x="169" y="-562" font-family="Vera Sans, DejaVu Sans, Liberation Sans, Arial, Helvetica, sans" font-size="10.00">CompositeTrapezoidalEdge</text>
</a>
</g>
</g>
<!-- Q_base -->
<g id="node2" class="node"><title>Q_base</title>
<g id="a_node2"><a xlink:href="../api/proteus.Quadrature.html#proteus.Quadrature.Q_base" xlink:title="The base class for quadrature methods." target="_top">
<polygon fill="none" stroke="black" stroke-width="0.5" points="54,-296 0,-296 0,-277 54,-277 54,-296"/>
<text text-anchor="middle" x="27" y="-284" font-family="Vera Sans, DejaVu Sans, Liberation Sans, Arial, Helvetica, sans" font-size="10.00">Q_base</text>
</a>
</g>
</g>
<!-- Q_base&#45;&gt;CompositeTrapezoidalEdge -->
<g id="edge1" class="edge"><title>Q_base&#45;&gt;CompositeTrapezoidalEdge</title>
<path fill="none" stroke="black" stroke-width="0.5" d="M28.9646,-296.241C33.3987,-339.049 53.1981,-509.965 90,-546.5 92.0958,-548.581 94.3812,-550.44 96.8101,-552.1"/>
<polygon fill="black" stroke="black" stroke-width="0.5" points="96.1517,-553.75 101.327,-554.879 97.9854,-550.768 96.1517,-553.75"/>
</g>
<!-- CompositeTrapezoidalTriangle -->
<g id="node3" class="node"><title>CompositeTrapezoidalTriangle</title>
<g id="a_node3"><a xlink:href="../api/proteus.Quadrature.html#proteus.Quadrature.CompositeTrapezoidalTriangle" xlink:title="Composite trapezoidal rule on the reference triangle" target="_top">
<polygon fill="none" stroke="black" stroke-width="0.5" points="248,-537 90,-537 90,-518 248,-518 248,-537"/>
<text text-anchor="middle" x="169" y="-525" font-family="Vera Sans, DejaVu Sans, Liberation Sans, Arial, Helvetica, sans" font-size="10.00">CompositeTrapezoidalTriangle</text>
</a>
</g>
</g>
<!-- Q_base&#45;&gt;CompositeTrapezoidalTriangle -->
<g id="edge2" class="edge"><title>Q_base&#45;&gt;CompositeTrapezoidalTriangle</title>
<path fill="none" stroke="black" stroke-width="0.5" d="M27.4911,-296.253C26.2528,-330.905 26.9883,-449.224 90,-509.5 92.3067,-511.707 94.8273,-513.662 97.505,-515.394"/>
<polygon fill="black" stroke="black" stroke-width="0.5" points="96.6359,-516.913 101.834,-517.935 98.4077,-513.894 96.6359,-516.913"/>
</g>
<!-- CubeGaussQuadrature -->
<g id="node4" class="node"><title>CubeGaussQuadrature</title>
<g id="a_node4"><a xlink:href="../api/proteus.Quadrature.html#proteus.Quadrature.CubeGaussQuadrature" xlink:title="A class for all quadrature on unit simplices." target="_top">
<polygon fill="none" stroke="black" stroke-width="0.5" points="232,-500 106,-500 106,-481 232,-481 232,-500"/>
<text text-anchor="middle" x="169" y="-488" font-family="Vera Sans, DejaVu Sans, Liberation Sans, Arial, Helvetica, sans" font-size="10.00">CubeGaussQuadrature</text>
</a>
</g>
</g>
<!-- Q_base&#45;&gt;CubeGaussQuadrature -->
<g id="edge3" class="edge"><title>Q_base&#45;&gt;CubeGaussQuadrature</title>
<path fill="none" stroke="black" stroke-width="0.5" d="M28.1198,-296.352C29.0586,-327.351 36.3582,-423.724 90,-472.5 93.398,-475.59 97.2185,-478.182 101.296,-480.353"/>
<polygon fill="black" stroke="black" stroke-width="0.5" points="100.551,-481.937 105.813,-482.548 102.08,-478.789 100.551,-481.937"/>
</g>
<!-- FaceBarycenterEdge -->
<g id="node5" class="node"><title>FaceBarycenterEdge</title>
<g id="a_node5"><a xlink:href="../api/proteus.Quadrature.html#proteus.Quadrature.FaceBarycenterEdge" xlink:title="FaceBarycenterEdge" target="_top">
<polygon fill="none" stroke="black" stroke-width="0.5" points="226.5,-463 111.5,-463 111.5,-444 226.5,-444 226.5,-463"/>
<text text-anchor="middle" x="169" y="-451" font-family="Vera Sans, DejaVu Sans, Liberation Sans, Arial, Helvetica, sans" font-size="10.00">FaceBarycenterEdge</text>
</a>
</g>
</g>
<!-- Q_base&#45;&gt;FaceBarycenterEdge -->
<g id="edge4" class="edge"><title>Q_base&#45;&gt;FaceBarycenterEdge</title>
<path fill="none" stroke="black" stroke-width="0.5" d="M29.0271,-296.283C32.3784,-323.03 45.4883,-397.883 90,-435.5 94.8098,-439.565 100.361,-442.754 106.239,-445.252"/>
<polygon fill="black" stroke="black" stroke-width="0.5" points="105.951,-447.017 111.246,-447.19 107.215,-443.753 105.951,-447.017"/>
</g>
<!-- FaceBarycenterTetrahedron -->
<g id="node6" class="node"><title>FaceBarycenterTetrahedron</title>
<g id="a_node6"><a xlink:href="../api/proteus.Quadrature.html#proteus.Quadrature.FaceBarycenterTetrahedron" xlink:title="FaceBarycenterTetrahedron" target="_top">
<polygon fill="none" stroke="black" stroke-width="0.5" points="243,-426 95,-426 95,-407 243,-407 243,-426"/>
<text text-anchor="middle" x="169" y="-414" font-family="Vera Sans, DejaVu Sans, Liberation Sans, Arial, Helvetica, sans" font-size="10.00">FaceBarycenterTetrahedron</text>
</a>
</g>
</g>
<!-- Q_base&#45;&gt;FaceBarycenterTetrahedron -->
<g id="edge5" class="edge"><title>Q_base&#45;&gt;FaceBarycenterTetrahedron</title>
<path fill="none" stroke="black" stroke-width="0.5" d="M30.4163,-296.064C36.4517,-317.9 54.3296,-371.607 90,-398.5 93.128,-400.858 96.5128,-402.915 100.06,-404.709"/>
<polygon fill="black" stroke="black" stroke-width="0.5" points="99.7165,-406.479 104.989,-406.996 101.189,-403.304 99.7165,-406.479"/>
</g>
<!-- FaceBarycenterTriangle -->
<g id="node7" class="node"><title>FaceBarycenterTriangle</title>
<g id="a_node7"><a xlink:href="../api/proteus.Quadrature.html#proteus.Quadrature.FaceBarycenterTriangle" xlink:title="FaceBarycenterTriangle" target="_top">
<polygon fill="none" stroke="black" stroke-width="0.5" points="232.5,-389 105.5,-389 105.5,-370 232.5,-370 232.5,-389"/>
<text text-anchor="middle" x="169" y="-377" font-family="Vera Sans, DejaVu Sans, Liberation Sans, Arial, Helvetica, sans" font-size="10.00">FaceBarycenterTriangle</text>
</a>
</g>
</g>
<!-- Q_base&#45;&gt;FaceBarycenterTriangle -->
<g id="edge6" class="edge"><title>Q_base&#45;&gt;FaceBarycenterTriangle</title>
<path fill="none" stroke="black" stroke-width="0.5" d="M33.0803,-296.031C42.2086,-312.184 62.98,-344.807 90,-361.5 94.1677,-364.075 98.6665,-366.282 103.326,-368.173"/>
<polygon fill="black" stroke="black" stroke-width="0.5" points="102.738,-369.822 108.033,-369.962 103.981,-366.55 102.738,-369.822"/>
</g>
<!-- GaussEdge -->
<g id="node8" class="node"><title>GaussEdge</title>
<g id="a_node8"><a xlink:href="../api/proteus.Quadrature.html#proteus.Quadrature.GaussEdge" xlink:title="Gaussian Quadrature on the unit interval." target="_top">
<polygon fill="none" stroke="black" stroke-width="0.5" points="204.5,-352 133.5,-352 133.5,-333 204.5,-333 204.5,-352"/>
<text text-anchor="middle" x="169" y="-340" font-family="Vera Sans, DejaVu Sans, Liberation Sans, Arial, Helvetica, sans" font-size="10.00">GaussEdge</text>
</a>
</g>
</g>
<!-- Q_base&#45;&gt;GaussEdge -->
<g id="edge7" class="edge"><title>Q_base&#45;&gt;GaussEdge</title>
<path fill="none" stroke="black" stroke-width="0.5" d="M41.1146,-296.285C53.2242,-304.882 72.0054,-317.138 90,-324.5 102.15,-329.471 115.954,-333.224 128.536,-335.981"/>
<polygon fill="black" stroke="black" stroke-width="0.5" points="128.222,-337.703 133.476,-337.027 128.947,-334.279 128.222,-337.703"/>
</g>
<!-- GaussPoint -->
<g id="node9" class="node"><title>GaussPoint</title>
<g id="a_node9"><a xlink:href="../api/proteus.Quadrature.html#proteus.Quadrature.GaussPoint" xlink:title="A dummy class for integrating the boundary of the unit interval (i.e. a point)." target="_top">
<polygon fill="none" stroke="black" stroke-width="0.5" points="204.5,-315 133.5,-315 133.5,-296 204.5,-296 204.5,-315"/>
<text text-anchor="middle" x="169" y="-303" font-family="Vera Sans, DejaVu Sans, Liberation Sans, Arial, Helvetica, sans" font-size="10.00">GaussPoint</text>
</a>
</g>
</g>
<!-- Q_base&#45;&gt;GaussPoint -->
<g id="edge8" class="edge"><title>Q_base&#45;&gt;GaussPoint</title>
<path fill="none" stroke="black" stroke-width="0.5" d="M54.0048,-290.029C74.8973,-292.865 104.583,-296.893 128.423,-300.129"/>
<polygon fill="black" stroke="black" stroke-width="0.5" points="128.226,-301.868 133.416,-300.807 128.697,-298.4 128.226,-301.868"/>
</g>
<!-- GaussTetrahedron -->
<g id="node10" class="node"><title>GaussTetrahedron</title>
<g id="a_node10"><a xlink:href="../api/proteus.Quadrature.html#proteus.Quadrature.GaussTetrahedron" xlink:title="Gauss&#45;Legendre quadrature on the unit tetrahedron." target="_top">
<polygon fill="none" stroke="black" stroke-width="0.5" points="221,-278 117,-278 117,-259 221,-259 221,-278"/>
<text text-anchor="middle" x="169" y="-266" font-family="Vera Sans, DejaVu Sans, Liberation Sans, Arial, Helvetica, sans" font-size="10.00">GaussTetrahedron</text>
</a>
</g>
</g>
<!-- Q_base&#45;&gt;GaussTetrahedron -->
<g id="edge9" class="edge"><title>Q_base&#45;&gt;GaussTetrahedron</title>
<path fill="none" stroke="black" stroke-width="0.5" d="M54.0048,-283.157C70.2611,-281.066 91.8411,-278.292 111.849,-275.719"/>
<polygon fill="black" stroke="black" stroke-width="0.5" points="112.161,-277.444 116.897,-275.07 111.715,-273.972 112.161,-277.444"/>
</g>
<!-- GaussTriangle -->
<g id="node11" class="node"><title>GaussTriangle</title>
<g id="a_node11"><a xlink:href="../api/proteus.Quadrature.html#proteus.Quadrature.GaussTriangle" xlink:title="Gauss quadrature on the unit triangle." target="_top">
<polygon fill="none" stroke="black" stroke-width="0.5" points="210.5,-241 127.5,-241 127.5,-222 210.5,-222 210.5,-241"/>
<text text-anchor="middle" x="169" y="-229" font-family="Vera Sans, DejaVu Sans, Liberation Sans, Arial, Helvetica, sans" font-size="10.00">GaussTriangle</text>
</a>
</g>
</g>
<!-- Q_base&#45;&gt;GaussTriangle -->
<g id="edge10" class="edge"><title>Q_base&#45;&gt;GaussTriangle</title>
<path fill="none" stroke="black" stroke-width="0.5" d="M41.6931,-276.999C53.8816,-268.929 72.448,-257.561 90,-250.5 100.204,-246.395 111.529,-243.015 122.314,-240.304"/>
<polygon fill="black" stroke="black" stroke-width="0.5" points="122.783,-241.991 127.225,-239.105 121.953,-238.59 122.783,-241.991"/>
</g>
<!-- LobattoEdge -->
<g id="node12" class="node"><title>LobattoEdge</title>
<g id="a_node12"><a xlink:href="../api/proteus.Quadrature.html#proteus.Quadrature.LobattoEdge" xlink:title="Gauss&#45;Lobatto quadrature on the unit interval." target="_top">
<polygon fill="none" stroke="black" stroke-width="0.5" points="207.5,-204 130.5,-204 130.5,-185 207.5,-185 207.5,-204"/>
<text text-anchor="middle" x="169" y="-192" font-family="Vera Sans, DejaVu Sans, Liberation Sans, Arial, Helvetica, sans" font-size="10.00">LobattoEdge</text>
</a>
</g>
</g>
<!-- Q_base&#45;&gt;LobattoEdge -->
<g id="edge11" class="edge"><title>Q_base&#45;&gt;LobattoEdge</title>
<path fill="none" stroke="black" stroke-width="0.5" d="M33.4679,-276.753C42.8764,-260.917 63.6791,-229.74 90,-213.5 100.586,-206.968 113.272,-202.682 125.306,-199.868"/>
<polygon fill="black" stroke="black" stroke-width="0.5" points="125.905,-201.529 130.415,-198.751 125.157,-198.11 125.905,-201.529"/>
</g>
<!-- LobattoEdgeAlt -->
<g id="node13" class="node"><title>LobattoEdgeAlt</title>
<g id="a_node13"><a xlink:href="../api/proteus.Quadrature.html#proteus.Quadrature.LobattoEdgeAlt" xlink:title="Gauss&#45;Lobatto quadrature on the [&#45;1:1] interval." target="_top">
<polygon fill="none" stroke="black" stroke-width="0.5" points="214,-167 124,-167 124,-148 214,-148 214,-167"/>
<text text-anchor="middle" x="169" y="-155" font-family="Vera Sans, DejaVu Sans, Liberation Sans, Arial, Helvetica, sans" font-size="10.00">LobattoEdgeAlt</text>
</a>
</g>
</g>
<!-- Q_base&#45;&gt;LobattoEdgeAlt -->
<g id="edge12" class="edge"><title>Q_base&#45;&gt;LobattoEdgeAlt</title>
<path fill="none" stroke="black" stroke-width="0.5" d="M30.5852,-276.812C36.8677,-255.22 55.0502,-202.972 90,-176.5 98.4022,-170.136 108.647,-165.874 118.913,-163.027"/>
<polygon fill="black" stroke="black" stroke-width="0.5" points="119.535,-164.674 123.946,-161.74 118.668,-161.283 119.535,-164.674"/>
</g>
<!-- LobattoTetrahedron -->
<g id="node14" class="node"><title>LobattoTetrahedron</title>
<g id="a_node14"><a xlink:href="../api/proteus.Quadrature.html#proteus.Quadrature.LobattoTetrahedron" xlink:title="Gauss&#45;Lobatto quadrature on the unit tetrahedron." target="_top">
<polygon fill="none" stroke="black" stroke-width="0.5" points="224,-130 114,-130 114,-111 224,-111 224,-130"/>
<text text-anchor="middle" x="169" y="-118" font-family="Vera Sans, DejaVu Sans, Liberation Sans, Arial, Helvetica, sans" font-size="10.00">LobattoTetrahedron</text>
</a>
</g>
</g>
<!-- Q_base&#45;&gt;LobattoTetrahedron -->
<g id="edge13" class="edge"><title>Q_base&#45;&gt;LobattoTetrahedron</title>
<path fill="none" stroke="black" stroke-width="0.5" d="M29.0951,-276.873C32.6204,-250.548 46.1335,-176.848 90,-139.5 95.5184,-134.802 102.013,-131.228 108.86,-128.516"/>
<polygon fill="black" stroke="black" stroke-width="0.5" points="109.549,-130.128 113.649,-126.773 108.352,-126.839 109.549,-130.128"/>
</g>
<!-- LobattoTriangle -->
<g id="node15" class="node"><title>LobattoTriangle</title>
<g id="a_node15"><a xlink:href="../api/proteus.Quadrature.html#proteus.Quadrature.LobattoTriangle" xlink:title="Gauss&#45;Lobatto quadrature on the unit triangle." target="_top">
<polygon fill="none" stroke="black" stroke-width="0.5" points="213.5,-93 124.5,-93 124.5,-74 213.5,-74 213.5,-93"/>
<text text-anchor="middle" x="169" y="-81" font-family="Vera Sans, DejaVu Sans, Liberation Sans, Arial, Helvetica, sans" font-size="10.00">LobattoTriangle</text>
</a>
</g>
</g>
<!-- Q_base&#45;&gt;LobattoTriangle -->
<g id="edge14" class="edge"><title>Q_base&#45;&gt;LobattoTriangle</title>
<path fill="none" stroke="black" stroke-width="0.5" d="M28.1819,-276.778C29.3051,-246.185 37.0921,-151.039 90,-102.5 98.1047,-95.0645 108.625,-90.4077 119.3,-87.523"/>
<polygon fill="black" stroke="black" stroke-width="0.5" points="119.769,-89.2099 124.208,-86.3186 118.935,-85.8107 119.769,-89.2099"/>
</g>
<!-- SimplexGaussQuadrature -->
<g id="node16" class="node"><title>SimplexGaussQuadrature</title>
<g id="a_node16"><a xlink:href="../api/proteus.Quadrature.html#proteus.Quadrature.SimplexGaussQuadrature" xlink:title="A class which defines quadrature on unit simplices." target="_top">
<polygon fill="none" stroke="black" stroke-width="0.5" points="239,-56 99,-56 99,-37 239,-37 239,-56"/>
<text text-anchor="middle" x="169" y="-44" font-family="Vera Sans, DejaVu Sans, Liberation Sans, Arial, Helvetica, sans" font-size="10.00">SimplexGaussQuadrature</text>
</a>
</g>
</g>
<!-- Q_base&#45;&gt;SimplexGaussQuadrature -->
<g id="edge15" class="edge"><title>Q_base&#45;&gt;SimplexGaussQuadrature</title>
<path fill="none" stroke="black" stroke-width="0.5" d="M27.5481,-276.859C26.5021,-242.599 27.8064,-125.58 90,-65.5 92.6878,-62.9036 95.6681,-60.6426 98.8504,-58.6754"/>
<polygon fill="black" stroke="black" stroke-width="0.5" points="99.8051,-60.1463 103.306,-56.1708 98.0902,-57.0952 99.8051,-60.1463"/>
</g>
<!-- SimplexLobattoQuadrature -->
<g id="node17" class="node"><title>SimplexLobattoQuadrature</title>
<g id="a_node17"><a xlink:href="../api/proteus.Quadrature.html#proteus.Quadrature.SimplexLobattoQuadrature" xlink:title="A class for quadrature on unit simplices." target="_top">
<polygon fill="none" stroke="black" stroke-width="0.5" points="242,-19 96,-19 96,-0 242,-0 242,-19"/>
<text text-anchor="middle" x="169" y="-7" font-family="Vera Sans, DejaVu Sans, Liberation Sans, Arial, Helvetica, sans" font-size="10.00">SimplexLobattoQuadrature</text>
</a>
</g>
</g>
<!-- Q_base&#45;&gt;SimplexLobattoQuadrature -->
<g id="edge16" class="edge"><title>Q_base&#45;&gt;SimplexLobattoQuadrature</title>
<path fill="none" stroke="black" stroke-width="0.5" d="M28.9867,-276.844C33.5147,-234.407 53.6548,-64.958 90,-28.5 92.6384,-25.8534 95.5797,-23.5528 98.7316,-21.5547"/>
<polygon fill="black" stroke="black" stroke-width="0.5" points="99.6892,-23.0229 103.152,-19.0135 97.9446,-19.9886 99.6892,-23.0229"/>
</g>
</g>
</svg>
