<?xml version="1.0" encoding="UTF-8" standalone="no"?>
<!DOCTYPE svg PUBLIC "-//W3C//DTD SVG 1.1//EN"
 "http://www.w3.org/Graphics/SVG/1.1/DTD/svg11.dtd">
<!-- Generated by graphviz version 2.38.0 (20140413.2041)
 -->
<!-- Title: inheritance478a470905 Pages: 1 -->
<svg width="300pt" height="489pt"
 viewBox="0.00 0.00 300.00 489.00" xmlns="http://www.w3.org/2000/svg" xmlns:xlink="http://www.w3.org/1999/xlink">
<g id="graph0" class="graph" transform="scale(1 1) rotate(0) translate(4 485)">
<title>inheritance478a470905</title>
<polygon fill="white" stroke="none" points="-4,4 -4,-485 296,-485 296,4 -4,4"/>
<!-- GaussSeidel -->
<g id="node1" class="node"><title>GaussSeidel</title>
<g id="a_node1"><a xlink:href="../api/proteus.LinearSolvers.html#proteus.LinearSolvers.GaussSeidel" xlink:title="Damped Gauss&#45;Seidel." target="_top">
<polygon fill="none" stroke="black" stroke-width="0.5" points="288,-278 212,-278 212,-259 288,-259 288,-278"/>
<text text-anchor="middle" x="250" y="-266" font-family="Vera Sans, DejaVu Sans, Liberation Sans, Arial, Helvetica, sans" font-size="10.00">GaussSeidel</text>
</a>
</g>
</g>
<!-- LinearSolver -->
<g id="node2" class="node"><title>LinearSolver</title>
<g id="a_node2"><a xlink:href="../api/proteus.LinearSolvers.html#proteus.LinearSolvers.LinearSolver" xlink:title="The base class for linear solvers." target="_top">
<polygon fill="none" stroke="black" stroke-width="0.5" points="124,-148 48,-148 48,-129 124,-129 124,-148"/>
<text text-anchor="middle" x="86" y="-136" font-family="Vera Sans, DejaVu Sans, Liberation Sans, Arial, Helvetica, sans" font-size="10.00">LinearSolver</text>
</a>
</g>
</g>
<!-- LinearSolver&#45;&gt;GaussSeidel -->
<g id="edge1" class="edge"><title>LinearSolver&#45;&gt;GaussSeidel</title>
<path fill="none" stroke="black" stroke-width="0.5" d="M95.5872,-148.189C114.338,-168.909 161.04,-218.184 208,-249.5 211.835,-252.057 216.069,-254.441 220.317,-256.597"/>
<polygon fill="black" stroke="black" stroke-width="0.5" points="219.653,-258.221 224.913,-258.844 221.19,-255.076 219.653,-258.221"/>
</g>
<!-- Jacobi -->
<g id="node3" class="node"><title>Jacobi</title>
<g id="a_node3"><a xlink:href="../api/proteus.LinearSolvers.html#proteus.LinearSolvers.Jacobi" xlink:title="Damped Jacobi iteration." target="_top">
<polygon fill="none" stroke="black" stroke-width="0.5" points="277,-241 223,-241 223,-222 277,-222 277,-241"/>
<text text-anchor="middle" x="250" y="-229" font-family="Vera Sans, DejaVu Sans, Liberation Sans, Arial, Helvetica, sans" font-size="10.00">Jacobi</text>
</a>
</g>
</g>
<!-- LinearSolver&#45;&gt;Jacobi -->
<g id="edge2" class="edge"><title>LinearSolver&#45;&gt;Jacobi</title>
<path fill="none" stroke="black" stroke-width="0.5" d="M101.582,-148.174C124,-162.872 168.488,-191.352 208,-212.5 212.565,-214.943 217.502,-217.39 222.314,-219.675"/>
<polygon fill="black" stroke="black" stroke-width="0.5" points="221.797,-221.365 227.068,-221.901 223.282,-218.196 221.797,-221.365"/>
</g>
<!-- KSP_petsc4py -->
<g id="node4" class="node"><title>KSP_petsc4py</title>
<g id="a_node4"><a xlink:href="../api/proteus.LinearSolvers.html#proteus.LinearSolvers.KSP_petsc4py" xlink:title="KSP_petsc4py" target="_top">
<polygon fill="none" stroke="black" stroke-width="0.5" points="292,-204 208,-204 208,-185 292,-185 292,-204"/>
<text text-anchor="middle" x="250" y="-192" font-family="Vera Sans, DejaVu Sans, Liberation Sans, Arial, Helvetica, sans" font-size="10.00">KSP_petsc4py</text>
</a>
</g>
</g>
<!-- LinearSolver&#45;&gt;KSP_petsc4py -->
<g id="edge3" class="edge"><title>LinearSolver&#45;&gt;KSP_petsc4py</title>
<path fill="none" stroke="black" stroke-width="0.5" d="M114.849,-148.127C143.07,-157.882 186.702,-172.965 216.49,-183.262"/>
<polygon fill="black" stroke="black" stroke-width="0.5" points="216.217,-185.019 221.515,-184.999 217.361,-181.711 216.217,-185.019"/>
</g>
<!-- LU -->
<g id="node5" class="node"><title>LU</title>
<g id="a_node5"><a xlink:href="../api/proteus.LinearSolvers.html#proteus.LinearSolvers.LU" xlink:title="A wrapper for pysparse&#39;s wrapper for superlu." target="_top">
<polygon fill="none" stroke="black" stroke-width="0.5" points="277,-167 223,-167 223,-148 277,-148 277,-167"/>
<text text-anchor="middle" x="250" y="-155" font-family="Vera Sans, DejaVu Sans, Liberation Sans, Arial, Helvetica, sans" font-size="10.00">LU</text>
</a>
</g>
</g>
<!-- LinearSolver&#45;&gt;LU -->
<g id="edge4" class="edge"><title>LinearSolver&#45;&gt;LU</title>
<path fill="none" stroke="black" stroke-width="0.5" d="M124.166,-142.859C152.365,-146.166 190.708,-150.663 217.43,-153.797"/>
<polygon fill="black" stroke="black" stroke-width="0.5" points="217.443,-155.561 222.613,-154.405 217.851,-152.085 217.443,-155.561"/>
</g>
<!-- PETSc -->
<g id="node12" class="node"><title>PETSc</title>
<g id="a_node12"><a xlink:href="../api/proteus.LinearSolvers.html#proteus.LinearSolvers.PETSc" xlink:title="PETSc" target="_top">
<polygon fill="none" stroke="black" stroke-width="0.5" points="277,-130 223,-130 223,-111 277,-111 277,-130"/>
<text text-anchor="middle" x="250" y="-118" font-family="Vera Sans, DejaVu Sans, Liberation Sans, Arial, Helvetica, sans" font-size="10.00">PETSc</text>
</a>
</g>
</g>
<!-- LinearSolver&#45;&gt;PETSc -->
<g id="edge7" class="edge"><title>LinearSolver&#45;&gt;PETSc</title>
<path fill="none" stroke="black" stroke-width="0.5" d="M124.166,-134.37C152.365,-131.237 190.708,-126.977 217.43,-124.008"/>
<polygon fill="black" stroke="black" stroke-width="0.5" points="217.837,-125.723 222.613,-123.432 217.45,-122.245 217.837,-125.723"/>
</g>
<!-- StarBILU -->
<g id="node14" class="node"><title>StarBILU</title>
<g id="a_node14"><a xlink:href="../api/proteus.LinearSolvers.html#proteus.LinearSolvers.StarBILU" xlink:title="Alternating Schwarz Method on &#39;blocks&#39; consisting of consectutive rows in system for things like dg ..." target="_top">
<polygon fill="none" stroke="black" stroke-width="0.5" points="279,-93 221,-93 221,-74 279,-74 279,-93"/>
<text text-anchor="middle" x="250" y="-81" font-family="Vera Sans, DejaVu Sans, Liberation Sans, Arial, Helvetica, sans" font-size="10.00">StarBILU</text>
</a>
</g>
</g>
<!-- LinearSolver&#45;&gt;StarBILU -->
<g id="edge8" class="edge"><title>LinearSolver&#45;&gt;StarBILU</title>
<path fill="none" stroke="black" stroke-width="0.5" d="M115.218,-128.92C143.24,-119.406 186.191,-104.824 215.829,-94.7617"/>
<polygon fill="black" stroke="black" stroke-width="0.5" points="216.662,-96.3272 220.834,-93.0626 215.537,-93.013 216.662,-96.3272"/>
</g>
<!-- StarILU -->
<g id="node15" class="node"><title>StarILU</title>
<g id="a_node15"><a xlink:href="../api/proteus.LinearSolvers.html#proteus.LinearSolvers.StarILU" xlink:title="Alternating Schwarz Method on node stars." target="_top">
<polygon fill="none" stroke="black" stroke-width="0.5" points="277,-56 223,-56 223,-37 277,-37 277,-56"/>
<text text-anchor="middle" x="250" y="-44" font-family="Vera Sans, DejaVu Sans, Liberation Sans, Arial, Helvetica, sans" font-size="10.00">StarILU</text>
</a>
</g>
</g>
<!-- LinearSolver&#45;&gt;StarILU -->
<g id="edge9" class="edge"><title>LinearSolver&#45;&gt;StarILU</title>
<path fill="none" stroke="black" stroke-width="0.5" d="M101.162,-128.969C123.389,-114.211 168.057,-85.3601 208,-64.5 212.15,-62.3329 216.615,-60.1894 221.019,-58.1782"/>
<polygon fill="black" stroke="black" stroke-width="0.5" points="221.911,-59.6965 225.756,-56.053 220.478,-56.5032 221.911,-59.6965"/>
</g>
<!-- TwoLevel -->
<g id="node16" class="node"><title>TwoLevel</title>
<g id="a_node16"><a xlink:href="../api/proteus.LinearSolvers.html#proteus.LinearSolvers.TwoLevel" xlink:title="A generic two&#45;level multiplicative Schwarz solver." target="_top">
<polygon fill="none" stroke="black" stroke-width="0.5" points="279,-19 221,-19 221,-0 279,-0 279,-19"/>
<text text-anchor="middle" x="250" y="-7" font-family="Vera Sans, DejaVu Sans, Liberation Sans, Arial, Helvetica, sans" font-size="10.00">TwoLevel</text>
</a>
</g>
</g>
<!-- LinearSolver&#45;&gt;TwoLevel -->
<g id="edge10" class="edge"><title>LinearSolver&#45;&gt;TwoLevel</title>
<path fill="none" stroke="black" stroke-width="0.5" d="M95.5387,-128.738C114.196,-107.875 160.725,-58.3385 208,-27.5 211.388,-25.2901 215.092,-23.2349 218.844,-21.3629"/>
<polygon fill="black" stroke="black" stroke-width="0.5" points="219.844,-22.8249 223.603,-19.0918 218.336,-19.6662 219.844,-22.8249"/>
</g>
<!-- MGM -->
<g id="node6" class="node"><title>MGM</title>
<g id="a_node6"><a xlink:href="../api/proteus.LinearSolvers.html#proteus.LinearSolvers.MGM" xlink:title="A generic multigrid W cycle." target="_top">
<polygon fill="none" stroke="black" stroke-width="0.5" points="277,-352 223,-352 223,-333 277,-333 277,-352"/>
<text text-anchor="middle" x="250" y="-340" font-family="Vera Sans, DejaVu Sans, Liberation Sans, Arial, Helvetica, sans" font-size="10.00">MGM</text>
</a>
</g>
</g>
<!-- MultilevelLinearSolver -->
<g id="node7" class="node"><title>MultilevelLinearSolver</title>
<g id="a_node7"><a xlink:href="../api/proteus.LinearSolvers.html#proteus.LinearSolvers.MultilevelLinearSolver" xlink:title="A generic multilevel solver." target="_top">
<polygon fill="none" stroke="black" stroke-width="0.5" points="146,-333 26,-333 26,-314 146,-314 146,-333"/>
<text text-anchor="middle" x="86" y="-321" font-family="Vera Sans, DejaVu Sans, Liberation Sans, Arial, Helvetica, sans" font-size="10.00">MultilevelLinearSolver</text>
</a>
</g>
</g>
<!-- MultilevelLinearSolver&#45;&gt;MGM -->
<g id="edge5" class="edge"><title>MultilevelLinearSolver&#45;&gt;MGM</title>
<path fill="none" stroke="black" stroke-width="0.5" d="M146.403,-330.467C170.545,-333.298 197.448,-336.454 217.646,-338.823"/>
<polygon fill="black" stroke="black" stroke-width="0.5" points="217.461,-340.563 222.631,-339.407 217.869,-337.087 217.461,-340.563"/>
</g>
<!-- NI -->
<g id="node8" class="node"><title>NI</title>
<g id="a_node8"><a xlink:href="../api/proteus.LinearSolvers.html#proteus.LinearSolvers.NI" xlink:title="A generic nested iteration solver." target="_top">
<polygon fill="none" stroke="black" stroke-width="0.5" points="277,-315 223,-315 223,-296 277,-296 277,-315"/>
<text text-anchor="middle" x="250" y="-303" font-family="Vera Sans, DejaVu Sans, Liberation Sans, Arial, Helvetica, sans" font-size="10.00">NI</text>
</a>
</g>
</g>
<!-- MultilevelLinearSolver&#45;&gt;NI -->
<g id="edge6" class="edge"><title>MultilevelLinearSolver&#45;&gt;NI</title>
<path fill="none" stroke="black" stroke-width="0.5" d="M146.403,-316.9C170.545,-314.217 197.448,-311.228 217.646,-308.984"/>
<polygon fill="black" stroke="black" stroke-width="0.5" points="217.855,-310.721 222.631,-308.43 217.468,-307.243 217.855,-310.721"/>
</g>
<!-- NavierStokes2D -->
<g id="node9" class="node"><title>NavierStokes2D</title>
<g id="a_node9"><a xlink:href="../api/proteus.LinearSolvers.html#proteus.LinearSolvers.NavierStokes2D" xlink:title="NavierStokes2D" target="_top">
<polygon fill="none" stroke="black" stroke-width="0.5" points="133,-370 39,-370 39,-351 133,-351 133,-370"/>
<text text-anchor="middle" x="86" y="-358" font-family="Vera Sans, DejaVu Sans, Liberation Sans, Arial, Helvetica, sans" font-size="10.00">NavierStokes2D</text>
</a>
</g>
</g>
<!-- NavierStokes3D -->
<g id="node10" class="node"><title>NavierStokes3D</title>
<g id="a_node10"><a xlink:href="../api/proteus.LinearSolvers.html#proteus.LinearSolvers.NavierStokes3D" xlink:title="NavierStokes3D" target="_top">
<polygon fill="none" stroke="black" stroke-width="0.5" points="133,-407 39,-407 39,-388 133,-388 133,-407"/>
<text text-anchor="middle" x="86" y="-395" font-family="Vera Sans, DejaVu Sans, Liberation Sans, Arial, Helvetica, sans" font-size="10.00">NavierStokes3D</text>
</a>
</g>
</g>
<!-- NavierStokesPressureCorrection -->
<g id="node11" class="node"><title>NavierStokesPressureCorrection</title>
<g id="a_node11"><a xlink:href="../api/proteus.LinearSolvers.html#proteus.LinearSolvers.NavierStokesPressureCorrection" xlink:title="NavierStokesPressureCorrection" target="_top">
<polygon fill="none" stroke="black" stroke-width="0.5" points="172,-444 0,-444 0,-425 172,-425 172,-444"/>
<text text-anchor="middle" x="86" y="-432" font-family="Vera Sans, DejaVu Sans, Liberation Sans, Arial, Helvetica, sans" font-size="10.00">NavierStokesPressureCorrection</text>
</a>
</g>
</g>
<!-- SimpleDarcyFC -->
<g id="node13" class="node"><title>SimpleDarcyFC</title>
<g id="a_node13"><a xlink:href="../api/proteus.LinearSolvers.html#proteus.LinearSolvers.SimpleDarcyFC" xlink:title="SimpleDarcyFC" target="_top">
<polygon fill="none" stroke="black" stroke-width="0.5" points="130.5,-481 41.5,-481 41.5,-462 130.5,-462 130.5,-481"/>
<text text-anchor="middle" x="86" y="-469" font-family="Vera Sans, DejaVu Sans, Liberation Sans, Arial, Helvetica, sans" font-size="10.00">SimpleDarcyFC</text>
</a>
</g>
</g>
</g>
</svg>
