<?xml version="1.0" encoding="UTF-8" standalone="no"?>
<!DOCTYPE svg PUBLIC "-//W3C//DTD SVG 1.1//EN"
 "http://www.w3.org/Graphics/SVG/1.1/DTD/svg11.dtd">
<!-- Generated by graphviz version 2.38.0 (20140413.2041)
 -->
<!-- Title: inheritance51f61a8c20 Pages: 1 -->
<svg width="444pt" height="138pt"
 viewBox="0.00 0.00 444.00 138.00" xmlns="http://www.w3.org/2000/svg" xmlns:xlink="http://www.w3.org/1999/xlink">
<g id="graph0" class="graph" transform="scale(1 1) rotate(0) translate(4 134)">
<title>inheritance51f61a8c20</title>
<polygon fill="white" stroke="none" points="-4,4 -4,-134 440,-134 440,4 -4,4"/>
<!-- TC_base -->
<g id="node1" class="node"><title>TC_base</title>
<g id="a_node1"><a xlink:href="proteus.TransportCoefficients.html#proteus.TransportCoefficients.TC_base" xlink:title="This is the base class for coefficients of the vector transport">
<polygon fill="none" stroke="black" stroke-width="0.5" points="56,-74 0,-74 0,-55 56,-55 56,-74"/>
<text text-anchor="middle" x="28" y="-62" font-family="Vera Sans, DejaVu Sans, Liberation Sans, Arial, Helvetica, sans" font-size="10.00">TC_base</text>
</a>
</g>
</g>
<!-- TwophaseDarcyFlow_base -->
<g id="node2" class="node"><title>TwophaseDarcyFlow_base</title>
<g id="a_node2"><a xlink:href="#proteus.TwophaseDarcyCoefficients.TwophaseDarcyFlow_base" xlink:title="TwophaseDarcyFlow_base">
<polygon fill="none" stroke="black" stroke-width="0.5" points="231,-74 92,-74 92,-55 231,-55 231,-74"/>
<text text-anchor="middle" x="161.5" y="-62" font-family="Vera Sans, DejaVu Sans, Liberation Sans, Arial, Helvetica, sans" font-size="10.00">TwophaseDarcyFlow_base</text>
</a>
</g>
</g>
<!-- TC_base&#45;&gt;TwophaseDarcyFlow_base -->
<g id="edge1" class="edge"><title>TC_base&#45;&gt;TwophaseDarcyFlow_base</title>
<path fill="none" stroke="black" stroke-width="0.5" d="M56.2469,-64.5C65.3149,-64.5 75.8915,-64.5 86.7639,-64.5"/>
<polygon fill="black" stroke="black" stroke-width="0.5" points="86.7758,-66.2501 91.7757,-64.5 86.7757,-62.7501 86.7758,-66.2501"/>
</g>
<!-- TwophaseDarcy_fc -->
<g id="node3" class="node"><title>TwophaseDarcy_fc</title>
<g id="a_node3"><a xlink:href="#proteus.TwophaseDarcyCoefficients.TwophaseDarcy_fc" xlink:title="TwophaseDarcy_fc">
<polygon fill="none" stroke="black" stroke-width="0.5" points="403.5,-130 299.5,-130 299.5,-111 403.5,-111 403.5,-130"/>
<text text-anchor="middle" x="351.5" y="-118" font-family="Vera Sans, DejaVu Sans, Liberation Sans, Arial, Helvetica, sans" font-size="10.00">TwophaseDarcy_fc</text>
</a>
</g>
</g>
<!-- TwophaseDarcyFlow_base&#45;&gt;TwophaseDarcy_fc -->
<g id="edge2" class="edge"><title>TwophaseDarcyFlow_base&#45;&gt;TwophaseDarcy_fc</title>
<path fill="none" stroke="black" stroke-width="0.5" d="M185.854,-74.0328C206.835,-82.346 238.619,-94.3221 267,-102.5 276.222,-105.157 286.118,-107.622 295.758,-109.82"/>
<polygon fill="black" stroke="black" stroke-width="0.5" points="295.509,-111.558 300.77,-110.946 296.275,-108.143 295.509,-111.558"/>
</g>
<!-- TwophaseDarcy_fc_ff -->
<g id="node4" class="node"><title>TwophaseDarcy_fc_ff</title>
<g id="a_node4"><a xlink:href="#proteus.TwophaseDarcyCoefficients.TwophaseDarcy_fc_ff" xlink:title="TwophaseDarcy_fc_ff">
<polygon fill="none" stroke="black" stroke-width="0.5" points="409,-93 294,-93 294,-74 409,-74 409,-93"/>
<text text-anchor="middle" x="351.5" y="-81" font-family="Vera Sans, DejaVu Sans, Liberation Sans, Arial, Helvetica, sans" font-size="10.00">TwophaseDarcy_fc_ff</text>
</a>
</g>
</g>
<!-- TwophaseDarcyFlow_base&#45;&gt;TwophaseDarcy_fc_ff -->
<g id="edge3" class="edge"><title>TwophaseDarcyFlow_base&#45;&gt;TwophaseDarcy_fc_ff</title>
<path fill="none" stroke="black" stroke-width="0.5" d="M231.17,-71.4401C249.962,-73.3393 270.214,-75.386 288.603,-77.2444"/>
<polygon fill="black" stroke="black" stroke-width="0.5" points="288.587,-79.0016 293.737,-77.7633 288.939,-75.5194 288.587,-79.0016"/>
</g>
<!-- TwophaseDarcy_split_pressure -->
<g id="node5" class="node"><title>TwophaseDarcy_split_pressure</title>
<g id="a_node5"><a xlink:href="#proteus.TwophaseDarcyCoefficients.TwophaseDarcy_split_pressure" xlink:title="TwophaseDarcy_split_pressure">
<polygon fill="none" stroke="black" stroke-width="0.5" points="432.5,-56 270.5,-56 270.5,-37 432.5,-37 432.5,-56"/>
<text text-anchor="middle" x="351.5" y="-44" font-family="Vera Sans, DejaVu Sans, Liberation Sans, Arial, Helvetica, sans" font-size="10.00">TwophaseDarcy_split_pressure</text>
</a>
</g>
</g>
<!-- TwophaseDarcyFlow_base&#45;&gt;TwophaseDarcy_split_pressure -->
<g id="edge4" class="edge"><title>TwophaseDarcyFlow_base&#45;&gt;TwophaseDarcy_split_pressure</title>
<path fill="none" stroke="black" stroke-width="0.5" d="M231.17,-57.9252C242.177,-56.8714 253.684,-55.7697 265.024,-54.6839"/>
<polygon fill="black" stroke="black" stroke-width="0.5" points="265.409,-56.4051 270.22,-54.1864 265.076,-52.921 265.409,-56.4051"/>
</g>
<!-- TwophaseDarcy_split_saturation -->
<g id="node6" class="node"><title>TwophaseDarcy_split_saturation</title>
<g id="a_node6"><a xlink:href="#proteus.TwophaseDarcyCoefficients.TwophaseDarcy_split_saturation" xlink:title="TwophaseDarcy_split_saturation">
<polygon fill="none" stroke="black" stroke-width="0.5" points="436,-19 267,-19 267,-0 436,-0 436,-19"/>
<text text-anchor="middle" x="351.5" y="-7" font-family="Vera Sans, DejaVu Sans, Liberation Sans, Arial, Helvetica, sans" font-size="10.00">TwophaseDarcy_split_saturation</text>
</a>
</g>
</g>
<!-- TwophaseDarcyFlow_base&#45;&gt;TwophaseDarcy_split_saturation -->
<g id="edge5" class="edge"><title>TwophaseDarcyFlow_base&#45;&gt;TwophaseDarcy_split_saturation</title>
<path fill="none" stroke="black" stroke-width="0.5" d="M187.597,-54.9986C208.615,-47.2487 239.505,-36.3395 267,-28.5 277.415,-25.5306 288.663,-22.7127 299.428,-20.2005"/>
<polygon fill="black" stroke="black" stroke-width="0.5" points="299.856,-21.8976 304.335,-19.0683 299.069,-18.4872 299.856,-21.8976"/>
</g>
</g>
</svg>
