<?xml version="1.0" encoding="UTF-8" standalone="no"?>
<!DOCTYPE svg PUBLIC "-//W3C//DTD SVG 1.1//EN"
 "http://www.w3.org/Graphics/SVG/1.1/DTD/svg11.dtd">
<!-- Generated by graphviz version 2.38.0 (20140413.2041)
 -->
<!-- Title: inheritance544eebe99b Pages: 1 -->
<svg width="490pt" height="323pt"
 viewBox="0.00 0.00 490.00 323.00" xmlns="http://www.w3.org/2000/svg" xmlns:xlink="http://www.w3.org/1999/xlink">
<g id="graph0" class="graph" transform="scale(1 1) rotate(0) translate(4 319)">
<title>inheritance544eebe99b</title>
<polygon fill="white" stroke="none" points="-4,4 -4,-319 486,-319 486,4 -4,4"/>
<!-- Eikonal_SC -->
<g id="node1" class="node"><title>Eikonal_SC</title>
<g id="a_node1"><a xlink:href="../api/proteus.ShockCapturing.html#proteus.ShockCapturing.Eikonal_SC" xlink:title="Eikonal_SC" target="_top">
<polygon fill="none" stroke="black" stroke-width="0.5" points="257,-315 188,-315 188,-296 257,-296 257,-315"/>
<text text-anchor="middle" x="222.5" y="-303" font-family="Vera Sans, DejaVu Sans, Liberation Sans, Arial, Helvetica, sans" font-size="10.00">Eikonal_SC</text>
</a>
</g>
</g>
<!-- ShockCapturing_base -->
<g id="node2" class="node"><title>ShockCapturing_base</title>
<g id="a_node2"><a xlink:href="../api/proteus.ShockCapturing.html#proteus.ShockCapturing.ShockCapturing_base" xlink:title="ShockCapturing_base" target="_top">
<polygon fill="none" stroke="black" stroke-width="0.5" points="121,-167 7.10543e-15,-167 7.10543e-15,-148 121,-148 121,-167"/>
<text text-anchor="middle" x="60.5" y="-155" font-family="Vera Sans, DejaVu Sans, Liberation Sans, Arial, Helvetica, sans" font-size="10.00">ShockCapturing_base</text>
</a>
</g>
</g>
<!-- ShockCapturing_base&#45;&gt;Eikonal_SC -->
<g id="edge1" class="edge"><title>ShockCapturing_base&#45;&gt;Eikonal_SC</title>
<path fill="none" stroke="black" stroke-width="0.5" d="M65.737,-167.037C76.9423,-191.133 109.77,-254.863 157,-287.5 164.666,-292.798 173.855,-296.543 182.862,-299.188"/>
<polygon fill="black" stroke="black" stroke-width="0.5" points="182.551,-300.917 187.836,-300.547 183.474,-297.541 182.551,-300.917"/>
</g>
<!-- HamiltonJacobiJaffre_SC -->
<g id="node3" class="node"><title>HamiltonJacobiJaffre_SC</title>
<g id="a_node3"><a xlink:href="../api/proteus.ShockCapturing.html#proteus.ShockCapturing.HamiltonJacobiJaffre_SC" xlink:title="HamiltonJacobiJaffre_SC" target="_top">
<polygon fill="none" stroke="black" stroke-width="0.5" points="288,-278 157,-278 157,-259 288,-259 288,-278"/>
<text text-anchor="middle" x="222.5" y="-266" font-family="Vera Sans, DejaVu Sans, Liberation Sans, Arial, Helvetica, sans" font-size="10.00">HamiltonJacobiJaffre_SC</text>
</a>
</g>
</g>
<!-- ShockCapturing_base&#45;&gt;HamiltonJacobiJaffre_SC -->
<g id="edge2" class="edge"><title>ShockCapturing_base&#45;&gt;HamiltonJacobiJaffre_SC</title>
<path fill="none" stroke="black" stroke-width="0.5" d="M68.7438,-167.282C83.3072,-186.246 118.086,-228.108 157,-250.5 161.383,-253.022 166.139,-255.207 171.015,-257.096"/>
<polygon fill="black" stroke="black" stroke-width="0.5" points="170.624,-258.816 175.921,-258.888 171.825,-255.529 170.624,-258.816"/>
</g>
<!-- HamiltonJacobi_SC -->
<g id="node4" class="node"><title>HamiltonJacobi_SC</title>
<g id="a_node4"><a xlink:href="../api/proteus.ShockCapturing.html#proteus.ShockCapturing.HamiltonJacobi_SC" xlink:title="HamiltonJacobi_SC" target="_top">
<polygon fill="none" stroke="black" stroke-width="0.5" points="276,-241 169,-241 169,-222 276,-222 276,-241"/>
<text text-anchor="middle" x="222.5" y="-229" font-family="Vera Sans, DejaVu Sans, Liberation Sans, Arial, Helvetica, sans" font-size="10.00">HamiltonJacobi_SC</text>
</a>
</g>
</g>
<!-- ShockCapturing_base&#45;&gt;HamiltonJacobi_SC -->
<g id="edge3" class="edge"><title>ShockCapturing_base&#45;&gt;HamiltonJacobi_SC</title>
<path fill="none" stroke="black" stroke-width="0.5" d="M75.1417,-167.036C93.1586,-179.262 126.213,-200.438 157,-213.5 163.055,-216.069 169.584,-218.382 176.082,-220.426"/>
<polygon fill="black" stroke="black" stroke-width="0.5" points="175.744,-222.152 181.037,-221.936 176.765,-218.804 175.744,-222.152"/>
</g>
<!-- JaffreGradU_SC -->
<g id="node5" class="node"><title>JaffreGradU_SC</title>
<g id="a_node5"><a xlink:href="../api/proteus.ShockCapturing.html#proteus.ShockCapturing.JaffreGradU_SC" xlink:title="JaffreGradU_SC" target="_top">
<polygon fill="none" stroke="black" stroke-width="0.5" points="267.5,-204 177.5,-204 177.5,-185 267.5,-185 267.5,-204"/>
<text text-anchor="middle" x="222.5" y="-192" font-family="Vera Sans, DejaVu Sans, Liberation Sans, Arial, Helvetica, sans" font-size="10.00">JaffreGradU_SC</text>
</a>
</g>
</g>
<!-- ShockCapturing_base&#45;&gt;JaffreGradU_SC -->
<g id="edge4" class="edge"><title>ShockCapturing_base&#45;&gt;JaffreGradU_SC</title>
<path fill="none" stroke="black" stroke-width="0.5" d="M102.704,-167.028C124.827,-172.144 152.172,-178.468 175.048,-183.758"/>
<polygon fill="black" stroke="black" stroke-width="0.5" points="174.892,-185.518 180.158,-184.94 175.681,-182.108 174.892,-185.518"/>
</g>
<!-- ResGradQuad_SC -->
<g id="node7" class="node"><title>ResGradQuad_SC</title>
<g id="a_node7"><a xlink:href="../api/proteus.ShockCapturing.html#proteus.ShockCapturing.ResGradQuad_SC" xlink:title="ResGradQuad_SC" target="_top">
<polygon fill="none" stroke="black" stroke-width="0.5" points="273,-167 172,-167 172,-148 273,-148 273,-167"/>
<text text-anchor="middle" x="222.5" y="-155" font-family="Vera Sans, DejaVu Sans, Liberation Sans, Arial, Helvetica, sans" font-size="10.00">ResGradQuad_SC</text>
</a>
</g>
</g>
<!-- ShockCapturing_base&#45;&gt;ResGradQuad_SC -->
<g id="edge12" class="edge"><title>ShockCapturing_base&#45;&gt;ResGradQuad_SC</title>
<path fill="none" stroke="black" stroke-width="0.5" d="M121.078,-157.5C135.955,-157.5 151.841,-157.5 166.485,-157.5"/>
<polygon fill="black" stroke="black" stroke-width="0.5" points="166.82,-159.25 171.82,-157.5 166.82,-155.75 166.82,-159.25"/>
</g>
<!-- ResGrad_SC -->
<g id="node10" class="node"><title>ResGrad_SC</title>
<g id="a_node10"><a xlink:href="../api/proteus.ShockCapturing.html#proteus.ShockCapturing.ResGrad_SC" xlink:title="ResGrad_SC" target="_top">
<polygon fill="none" stroke="black" stroke-width="0.5" points="260,-130 185,-130 185,-111 260,-111 260,-130"/>
<text text-anchor="middle" x="222.5" y="-118" font-family="Vera Sans, DejaVu Sans, Liberation Sans, Arial, Helvetica, sans" font-size="10.00">ResGrad_SC</text>
</a>
</g>
</g>
<!-- ShockCapturing_base&#45;&gt;ResGrad_SC -->
<g id="edge13" class="edge"><title>ShockCapturing_base&#45;&gt;ResGrad_SC</title>
<path fill="none" stroke="black" stroke-width="0.5" d="M102.704,-147.972C126.389,-142.494 156.061,-135.633 179.825,-130.137"/>
<polygon fill="black" stroke="black" stroke-width="0.5" points="180.325,-131.818 184.802,-128.986 179.536,-128.408 180.325,-131.818"/>
</g>
<!-- ResGradFFDarcy_SC -->
<g id="node12" class="node"><title>ResGradFFDarcy_SC</title>
<g id="a_node12"><a xlink:href="../api/proteus.ShockCapturing.html#proteus.ShockCapturing.ResGradFFDarcy_SC" xlink:title="ResGradFFDarcy_SC" target="_top">
<polygon fill="none" stroke="black" stroke-width="0.5" points="279,-93 166,-93 166,-74 279,-74 279,-93"/>
<text text-anchor="middle" x="222.5" y="-81" font-family="Vera Sans, DejaVu Sans, Liberation Sans, Arial, Helvetica, sans" font-size="10.00">ResGradFFDarcy_SC</text>
</a>
</g>
</g>
<!-- ShockCapturing_base&#45;&gt;ResGradFFDarcy_SC -->
<g id="edge9" class="edge"><title>ShockCapturing_base&#45;&gt;ResGradFFDarcy_SC</title>
<path fill="none" stroke="black" stroke-width="0.5" d="M75.8271,-147.804C94.0363,-135.827 126.747,-115.451 157,-102.5 163.801,-99.5884 171.188,-96.954 178.453,-94.6379"/>
<polygon fill="black" stroke="black" stroke-width="0.5" points="179.198,-96.2391 183.455,-93.0858 178.161,-92.8963 179.198,-96.2391"/>
</g>
<!-- ResGradJuanes_SC -->
<g id="node13" class="node"><title>ResGradJuanes_SC</title>
<g id="a_node13"><a xlink:href="../api/proteus.ShockCapturing.html#proteus.ShockCapturing.ResGradJuanes_SC" xlink:title="ResGradJuanes_SC" target="_top">
<polygon fill="none" stroke="black" stroke-width="0.5" points="276,-56 169,-56 169,-37 276,-37 276,-56"/>
<text text-anchor="middle" x="222.5" y="-44" font-family="Vera Sans, DejaVu Sans, Liberation Sans, Arial, Helvetica, sans" font-size="10.00">ResGradJuanes_SC</text>
</a>
</g>
</g>
<!-- ShockCapturing_base&#45;&gt;ResGradJuanes_SC -->
<g id="edge10" class="edge"><title>ShockCapturing_base&#45;&gt;ResGradJuanes_SC</title>
<path fill="none" stroke="black" stroke-width="0.5" d="M68.7438,-147.718C83.3072,-128.754 118.086,-86.8916 157,-64.5 161.383,-61.9778 166.139,-59.793 171.015,-57.9038"/>
<polygon fill="black" stroke="black" stroke-width="0.5" points="171.825,-59.4711 175.921,-56.1116 170.624,-56.1836 171.825,-59.4711"/>
</g>
<!-- ScalarAdvection_SC -->
<g id="node15" class="node"><title>ScalarAdvection_SC</title>
<g id="a_node15"><a xlink:href="../api/proteus.ShockCapturing.html#proteus.ShockCapturing.ScalarAdvection_SC" xlink:title="ScalarAdvection_SC" target="_top">
<polygon fill="none" stroke="black" stroke-width="0.5" points="279,-19 166,-19 166,-0 279,-0 279,-19"/>
<text text-anchor="middle" x="222.5" y="-7" font-family="Vera Sans, DejaVu Sans, Liberation Sans, Arial, Helvetica, sans" font-size="10.00">ScalarAdvection_SC</text>
</a>
</g>
</g>
<!-- ShockCapturing_base&#45;&gt;ScalarAdvection_SC -->
<g id="edge14" class="edge"><title>ShockCapturing_base&#45;&gt;ScalarAdvection_SC</title>
<path fill="none" stroke="black" stroke-width="0.5" d="M65.737,-147.963C76.9423,-123.867 109.77,-60.1375 157,-27.5 160.575,-25.0298 164.48,-22.8972 168.544,-21.0563"/>
<polygon fill="black" stroke="black" stroke-width="0.5" points="169.445,-22.5761 173.377,-19.0265 168.09,-19.3492 169.445,-22.5761"/>
</g>
<!-- NavierStokes_SC -->
<g id="node6" class="node"><title>NavierStokes_SC</title>
<g id="a_node6"><a xlink:href="../api/proteus.ShockCapturing.html#proteus.ShockCapturing.NavierStokes_SC" xlink:title="NavierStokes_SC" target="_top">
<polygon fill="none" stroke="black" stroke-width="0.5" points="452.5,-241 353.5,-241 353.5,-222 452.5,-222 452.5,-241"/>
<text text-anchor="middle" x="403" y="-229" font-family="Vera Sans, DejaVu Sans, Liberation Sans, Arial, Helvetica, sans" font-size="10.00">NavierStokes_SC</text>
</a>
</g>
</g>
<!-- ResGradQuad_SC&#45;&gt;NavierStokes_SC -->
<g id="edge5" class="edge"><title>ResGradQuad_SC&#45;&gt;NavierStokes_SC</title>
<path fill="none" stroke="black" stroke-width="0.5" d="M267.126,-167.019C274.373,-169.524 281.603,-172.641 288,-176.5 307.646,-188.351 304.009,-202.24 324,-213.5 331.421,-217.68 339.758,-220.889 348.148,-223.355"/>
<polygon fill="black" stroke="black" stroke-width="0.5" points="348.086,-225.153 353.371,-224.795 349.017,-221.779 348.086,-225.153"/>
</g>
<!-- NavierStokes_SC_opt -->
<g id="node8" class="node"><title>NavierStokes_SC_opt</title>
<g id="a_node8"><a xlink:href="../api/proteus.ShockCapturing.html#proteus.ShockCapturing.NavierStokes_SC_opt" xlink:title="NavierStokes_SC_opt" target="_top">
<polygon fill="none" stroke="black" stroke-width="0.5" points="463,-204 343,-204 343,-185 463,-185 463,-204"/>
<text text-anchor="middle" x="403" y="-192" font-family="Vera Sans, DejaVu Sans, Liberation Sans, Arial, Helvetica, sans" font-size="10.00">NavierStokes_SC_opt</text>
</a>
</g>
</g>
<!-- ResGradQuad_SC&#45;&gt;NavierStokes_SC_opt -->
<g id="edge6" class="edge"><title>ResGradQuad_SC&#45;&gt;NavierStokes_SC_opt</title>
<path fill="none" stroke="black" stroke-width="0.5" d="M269.468,-167.028C294.356,-172.187 325.169,-178.574 350.82,-183.891"/>
<polygon fill="black" stroke="black" stroke-width="0.5" points="350.627,-185.638 355.878,-184.94 351.337,-182.211 350.627,-185.638"/>
</g>
<!-- ResGradQuadDelayLag_SC -->
<g id="node14" class="node"><title>ResGradQuadDelayLag_SC</title>
<g id="a_node14"><a xlink:href="../api/proteus.ShockCapturing.html#proteus.ShockCapturing.ResGradQuadDelayLag_SC" xlink:title="ResGradQuadDelayLag_SC" target="_top">
<polygon fill="none" stroke="black" stroke-width="0.5" points="475.5,-167 330.5,-167 330.5,-148 475.5,-148 475.5,-167"/>
<text text-anchor="middle" x="403" y="-155" font-family="Vera Sans, DejaVu Sans, Liberation Sans, Arial, Helvetica, sans" font-size="10.00">ResGradQuadDelayLag_SC</text>
</a>
</g>
</g>
<!-- ResGradQuad_SC&#45;&gt;ResGradQuadDelayLag_SC -->
<g id="edge11" class="edge"><title>ResGradQuad_SC&#45;&gt;ResGradQuadDelayLag_SC</title>
<path fill="none" stroke="black" stroke-width="0.5" d="M273.222,-157.5C289.208,-157.5 307.315,-157.5 324.794,-157.5"/>
<polygon fill="black" stroke="black" stroke-width="0.5" points="325.195,-159.25 330.195,-157.5 325.195,-155.75 325.195,-159.25"/>
</g>
<!-- ResGradDelayLag_SC -->
<g id="node9" class="node"><title>ResGradDelayLag_SC</title>
<g id="a_node9"><a xlink:href="../api/proteus.ShockCapturing.html#proteus.ShockCapturing.ResGradDelayLag_SC" xlink:title="ResGradDelayLag_SC" target="_top">
<polygon fill="none" stroke="black" stroke-width="0.5" points="462.5,-130 343.5,-130 343.5,-111 462.5,-111 462.5,-130"/>
<text text-anchor="middle" x="403" y="-118" font-family="Vera Sans, DejaVu Sans, Liberation Sans, Arial, Helvetica, sans" font-size="10.00">ResGradDelayLag_SC</text>
</a>
</g>
</g>
<!-- ResGrad_SC&#45;&gt;ResGradDelayLag_SC -->
<g id="edge7" class="edge"><title>ResGrad_SC&#45;&gt;ResGradDelayLag_SC</title>
<path fill="none" stroke="black" stroke-width="0.5" d="M260.053,-120.5C282.524,-120.5 311.939,-120.5 338.161,-120.5"/>
<polygon fill="black" stroke="black" stroke-width="0.5" points="338.36,-122.25 343.36,-120.5 338.36,-118.75 338.36,-122.25"/>
</g>
<!-- ResGradFFDarcyDelayLag_SC -->
<g id="node11" class="node"><title>ResGradFFDarcyDelayLag_SC</title>
<g id="a_node11"><a xlink:href="../api/proteus.ShockCapturing.html#proteus.ShockCapturing.ResGradFFDarcyDelayLag_SC" xlink:title="ResGradFFDarcyDelayLag_SC" target="_top">
<polygon fill="none" stroke="black" stroke-width="0.5" points="482,-93 324,-93 324,-74 482,-74 482,-93"/>
<text text-anchor="middle" x="403" y="-81" font-family="Vera Sans, DejaVu Sans, Liberation Sans, Arial, Helvetica, sans" font-size="10.00">ResGradFFDarcyDelayLag_SC</text>
</a>
</g>
</g>
<!-- ResGradFFDarcy_SC&#45;&gt;ResGradFFDarcyDelayLag_SC -->
<g id="edge8" class="edge"><title>ResGradFFDarcy_SC&#45;&gt;ResGradFFDarcyDelayLag_SC</title>
<path fill="none" stroke="black" stroke-width="0.5" d="M279,-83.5C291.559,-83.5 305.163,-83.5 318.59,-83.5"/>
<polygon fill="black" stroke="black" stroke-width="0.5" points="318.924,-85.2501 323.924,-83.5 318.924,-81.7501 318.924,-85.2501"/>
</g>
</g>
</svg>
