<?xml version="1.0" encoding="UTF-8" standalone="no"?>
<!DOCTYPE svg PUBLIC "-//W3C//DTD SVG 1.1//EN"
 "http://www.w3.org/Graphics/SVG/1.1/DTD/svg11.dtd">
<!-- Generated by graphviz version 2.38.0 (20140413.2041)
 -->
<!-- Title: inheritance65a8d20231 Pages: 1 -->
<svg width="236pt" height="397pt"
 viewBox="0.00 0.00 236.00 397.00" xmlns="http://www.w3.org/2000/svg" xmlns:xlink="http://www.w3.org/1999/xlink">
<g id="graph0" class="graph" transform="scale(1 1) rotate(0) translate(4 393)">
<title>inheritance65a8d20231</title>
<polygon fill="white" stroke="none" points="-4,4 -4,-393 232,-393 232,4 -4,4"/>
<!-- AV_base -->
<g id="node1" class="node"><title>AV_base</title>
<g id="a_node1"><a xlink:href="../api/proteus.AuxiliaryVariables.html#proteus.AuxiliaryVariables.AV_base" xlink:title="AV_base" target="_top">
<polygon fill="none" stroke="black" stroke-width="0.5" points="58,-204 3.55271e-15,-204 3.55271e-15,-185 58,-185 58,-204"/>
<text text-anchor="middle" x="29" y="-192" font-family="Vera Sans, DejaVu Sans, Liberation Sans, Arial, Helvetica, sans" font-size="10.00">AV_base</text>
</a>
</g>
</g>
<!-- BoundaryForce -->
<g id="node2" class="node"><title>BoundaryForce</title>
<g id="a_node2"><a xlink:href="../api/proteus.AuxiliaryVariables.html#proteus.AuxiliaryVariables.BoundaryForce" xlink:title="BoundaryForce" target="_top">
<polygon fill="none" stroke="black" stroke-width="0.5" points="205.5,-389 116.5,-389 116.5,-370 205.5,-370 205.5,-389"/>
<text text-anchor="middle" x="161" y="-377" font-family="Vera Sans, DejaVu Sans, Liberation Sans, Arial, Helvetica, sans" font-size="10.00">BoundaryForce</text>
</a>
</g>
</g>
<!-- AV_base&#45;&gt;BoundaryForce -->
<g id="edge1" class="edge"><title>AV_base&#45;&gt;BoundaryForce</title>
<path fill="none" stroke="black" stroke-width="0.5" d="M30.7345,-204.091C33.4448,-232.596 45.4235,-317.541 94,-361.5 98.9824,-366.009 104.986,-369.404 111.317,-371.957"/>
<polygon fill="black" stroke="black" stroke-width="0.5" points="110.913,-373.673 116.21,-373.75 112.117,-370.387 110.913,-373.673"/>
</g>
<!-- BoundaryPressure -->
<g id="node3" class="node"><title>BoundaryPressure</title>
<g id="a_node3"><a xlink:href="../api/proteus.AuxiliaryVariables.html#proteus.AuxiliaryVariables.BoundaryPressure" xlink:title="BoundaryPressure" target="_top">
<polygon fill="none" stroke="black" stroke-width="0.5" points="213,-352 109,-352 109,-333 213,-333 213,-352"/>
<text text-anchor="middle" x="161" y="-340" font-family="Vera Sans, DejaVu Sans, Liberation Sans, Arial, Helvetica, sans" font-size="10.00">BoundaryPressure</text>
</a>
</g>
</g>
<!-- AV_base&#45;&gt;BoundaryPressure -->
<g id="edge2" class="edge"><title>AV_base&#45;&gt;BoundaryPressure</title>
<path fill="none" stroke="black" stroke-width="0.5" d="M31.8716,-204.015C37.11,-228.062 54.2196,-291.682 94,-324.5 97.0233,-326.994 100.364,-329.144 103.89,-330.998"/>
<polygon fill="black" stroke="black" stroke-width="0.5" points="103.534,-332.768 108.8,-333.346 105.044,-329.61 103.534,-332.768"/>
</g>
<!-- ConservationHistoryLS -->
<g id="node4" class="node"><title>ConservationHistoryLS</title>
<g id="a_node4"><a xlink:href="../api/proteus.AuxiliaryVariables.html#proteus.AuxiliaryVariables.ConservationHistoryLS" xlink:title="A simple class for storing the time history of things related conservation in non&#45;conservative level set methods" target="_top">
<polygon fill="none" stroke="black" stroke-width="0.5" points="223.5,-315 98.5,-315 98.5,-296 223.5,-296 223.5,-315"/>
<text text-anchor="middle" x="161" y="-303" font-family="Vera Sans, DejaVu Sans, Liberation Sans, Arial, Helvetica, sans" font-size="10.00">ConservationHistoryLS</text>
</a>
</g>
</g>
<!-- AV_base&#45;&gt;ConservationHistoryLS -->
<g id="edge3" class="edge"><title>AV_base&#45;&gt;ConservationHistoryLS</title>
<path fill="none" stroke="black" stroke-width="0.5" d="M33.8605,-204.057C42.0123,-222.999 62.8311,-265.382 94,-287.5 97.4809,-289.97 101.285,-292.101 105.253,-293.94"/>
<polygon fill="black" stroke="black" stroke-width="0.5" points="104.692,-295.604 109.977,-295.968 106.073,-292.388 104.692,-295.604"/>
</g>
<!-- ConservationHistoryMC -->
<g id="node5" class="node"><title>ConservationHistoryMC</title>
<g id="a_node5"><a xlink:href="../api/proteus.AuxiliaryVariables.html#proteus.AuxiliaryVariables.ConservationHistoryMC" xlink:title="A simple class for storing the time history of things related conservation in conservative level set methods" target="_top">
<polygon fill="none" stroke="black" stroke-width="0.5" points="225,-278 97,-278 97,-259 225,-259 225,-278"/>
<text text-anchor="middle" x="161" y="-266" font-family="Vera Sans, DejaVu Sans, Liberation Sans, Arial, Helvetica, sans" font-size="10.00">ConservationHistoryMC</text>
</a>
</g>
</g>
<!-- AV_base&#45;&gt;ConservationHistoryMC -->
<g id="edge4" class="edge"><title>AV_base&#45;&gt;ConservationHistoryMC</title>
<path fill="none" stroke="black" stroke-width="0.5" d="M38.5253,-204.317C49.9325,-216.847 71.3641,-238.352 94,-250.5 98.8074,-253.08 104.015,-255.314 109.324,-257.242"/>
<polygon fill="black" stroke="black" stroke-width="0.5" points="108.922,-258.954 114.219,-258.929 110.062,-255.645 108.922,-258.954"/>
</g>
<!-- GatherDOF -->
<g id="node6" class="node"><title>GatherDOF</title>
<g id="a_node6"><a xlink:href="../api/proteus.AuxiliaryVariables.html#proteus.AuxiliaryVariables.GatherDOF" xlink:title="GatherDOF" target="_top">
<polygon fill="none" stroke="black" stroke-width="0.5" points="196,-241 126,-241 126,-222 196,-222 196,-241"/>
<text text-anchor="middle" x="161" y="-229" font-family="Vera Sans, DejaVu Sans, Liberation Sans, Arial, Helvetica, sans" font-size="10.00">GatherDOF</text>
</a>
</g>
</g>
<!-- AV_base&#45;&gt;GatherDOF -->
<g id="edge5" class="edge"><title>AV_base&#45;&gt;GatherDOF</title>
<path fill="none" stroke="black" stroke-width="0.5" d="M58.3155,-203.054C69.4256,-206.372 82.2954,-210.167 94,-213.5 102.674,-215.97 112.01,-218.559 120.851,-220.978"/>
<polygon fill="black" stroke="black" stroke-width="0.5" points="120.42,-222.674 125.704,-222.303 121.342,-219.298 120.42,-222.674"/>
</g>
<!-- MassOverRegion -->
<g id="node7" class="node"><title>MassOverRegion</title>
<g id="a_node7"><a xlink:href="../api/proteus.AuxiliaryVariables.html#proteus.AuxiliaryVariables.MassOverRegion" xlink:title="MassOverRegion" target="_top">
<polygon fill="none" stroke="black" stroke-width="0.5" points="208.5,-204 113.5,-204 113.5,-185 208.5,-185 208.5,-204"/>
<text text-anchor="middle" x="161" y="-192" font-family="Vera Sans, DejaVu Sans, Liberation Sans, Arial, Helvetica, sans" font-size="10.00">MassOverRegion</text>
</a>
</g>
</g>
<!-- AV_base&#45;&gt;MassOverRegion -->
<g id="edge6" class="edge"><title>AV_base&#45;&gt;MassOverRegion</title>
<path fill="none" stroke="black" stroke-width="0.5" d="M58.2081,-194.5C72.8259,-194.5 91.1453,-194.5 108.199,-194.5"/>
<polygon fill="black" stroke="black" stroke-width="0.5" points="108.446,-196.25 113.446,-194.5 108.446,-192.75 108.446,-196.25"/>
</g>
<!-- PT123velocityGenerator -->
<g id="node8" class="node"><title>PT123velocityGenerator</title>
<g id="a_node8"><a xlink:href="../api/proteus.AuxiliaryVariables.html#proteus.AuxiliaryVariables.PT123velocityGenerator" xlink:title="write out the velocity field from a model for PT123 to use in tracking as a" target="_top">
<polygon fill="none" stroke="black" stroke-width="0.5" points="226.5,-167 95.5,-167 95.5,-148 226.5,-148 226.5,-167"/>
<text text-anchor="middle" x="161" y="-155" font-family="Vera Sans, DejaVu Sans, Liberation Sans, Arial, Helvetica, sans" font-size="10.00">PT123velocityGenerator</text>
</a>
</g>
</g>
<!-- AV_base&#45;&gt;PT123velocityGenerator -->
<g id="edge7" class="edge"><title>AV_base&#45;&gt;PT123velocityGenerator</title>
<path fill="none" stroke="black" stroke-width="0.5" d="M58.2081,-186.472C76.6577,-181.221 101.004,-174.291 121.26,-168.526"/>
<polygon fill="black" stroke="black" stroke-width="0.5" points="121.986,-170.139 126.316,-167.087 121.028,-166.773 121.986,-170.139"/>
</g>
<!-- PressureProfile -->
<g id="node9" class="node"><title>PressureProfile</title>
<g id="a_node9"><a xlink:href="../api/proteus.AuxiliaryVariables.html#proteus.AuxiliaryVariables.PressureProfile" xlink:title="PressureProfile" target="_top">
<polygon fill="none" stroke="black" stroke-width="0.5" points="205,-130 117,-130 117,-111 205,-111 205,-130"/>
<text text-anchor="middle" x="161" y="-118" font-family="Vera Sans, DejaVu Sans, Liberation Sans, Arial, Helvetica, sans" font-size="10.00">PressureProfile</text>
</a>
</g>
</g>
<!-- AV_base&#45;&gt;PressureProfile -->
<g id="edge8" class="edge"><title>AV_base&#45;&gt;PressureProfile</title>
<path fill="none" stroke="black" stroke-width="0.5" d="M38.5885,-184.914C50.064,-172.668 71.5695,-151.612 94,-139.5 99.6017,-136.475 105.738,-133.886 111.941,-131.682"/>
<polygon fill="black" stroke="black" stroke-width="0.5" points="112.518,-133.334 116.691,-130.07 111.393,-130.02 112.518,-133.334"/>
</g>
<!-- RecirculationLength -->
<g id="node10" class="node"><title>RecirculationLength</title>
<g id="a_node10"><a xlink:href="../api/proteus.AuxiliaryVariables.html#proteus.AuxiliaryVariables.RecirculationLength" xlink:title="RecirculationLength" target="_top">
<polygon fill="none" stroke="black" stroke-width="0.5" points="216,-93 106,-93 106,-74 216,-74 216,-93"/>
<text text-anchor="middle" x="161" y="-81" font-family="Vera Sans, DejaVu Sans, Liberation Sans, Arial, Helvetica, sans" font-size="10.00">RecirculationLength</text>
</a>
</g>
</g>
<!-- AV_base&#45;&gt;RecirculationLength -->
<g id="edge9" class="edge"><title>AV_base&#45;&gt;RecirculationLength</title>
<path fill="none" stroke="black" stroke-width="0.5" d="M34.044,-184.793C42.3832,-165.982 63.3153,-124.482 94,-102.5 98.0711,-99.5835 102.583,-97.1126 107.281,-95.0195"/>
<polygon fill="black" stroke="black" stroke-width="0.5" points="108.083,-96.5813 112.032,-93.0499 106.743,-93.3482 108.083,-96.5813"/>
</g>
<!-- VelocityAverage -->
<g id="node11" class="node"><title>VelocityAverage</title>
<g id="a_node11"><a xlink:href="../api/proteus.AuxiliaryVariables.html#proteus.AuxiliaryVariables.VelocityAverage" xlink:title="VelocityAverage" target="_top">
<polygon fill="none" stroke="black" stroke-width="0.5" points="207,-56 115,-56 115,-37 207,-37 207,-56"/>
<text text-anchor="middle" x="161" y="-44" font-family="Vera Sans, DejaVu Sans, Liberation Sans, Arial, Helvetica, sans" font-size="10.00">VelocityAverage</text>
</a>
</g>
</g>
<!-- AV_base&#45;&gt;VelocityAverage -->
<g id="edge10" class="edge"><title>AV_base&#45;&gt;VelocityAverage</title>
<path fill="none" stroke="black" stroke-width="0.5" d="M32.0016,-184.739C37.4496,-160.689 54.8374,-98.1713 94,-65.5 98.721,-61.5615 104.218,-58.4388 109.986,-55.9629"/>
<polygon fill="black" stroke="black" stroke-width="0.5" points="110.875,-57.4937 114.885,-54.0317 109.591,-54.2376 110.875,-57.4937"/>
</g>
<!-- VelocityNormOverRegion -->
<g id="node12" class="node"><title>VelocityNormOverRegion</title>
<g id="a_node12"><a xlink:href="../api/proteus.AuxiliaryVariables.html#proteus.AuxiliaryVariables.VelocityNormOverRegion" xlink:title="VelocityNormOverRegion" target="_top">
<polygon fill="none" stroke="black" stroke-width="0.5" points="228,-19 94,-19 94,-0 228,-0 228,-19"/>
<text text-anchor="middle" x="161" y="-7" font-family="Vera Sans, DejaVu Sans, Liberation Sans, Arial, Helvetica, sans" font-size="10.00">VelocityNormOverRegion</text>
</a>
</g>
</g>
<!-- AV_base&#45;&gt;VelocityNormOverRegion -->
<g id="edge11" class="edge"><title>AV_base&#45;&gt;VelocityNormOverRegion</title>
<path fill="none" stroke="black" stroke-width="0.5" d="M30.7825,-184.996C33.6267,-156.745 45.9411,-72.5195 94,-28.5 96.9016,-25.8423 100.152,-23.554 103.613,-21.5842"/>
<polygon fill="black" stroke="black" stroke-width="0.5" points="104.807,-22.9372 108.449,-19.0905 103.203,-19.8263 104.807,-22.9372"/>
</g>
</g>
</svg>
