<?xml version="1.0" encoding="UTF-8" standalone="no"?>
<!DOCTYPE svg PUBLIC "-//W3C//DTD SVG 1.1//EN"
 "http://www.w3.org/Graphics/SVG/1.1/DTD/svg11.dtd">
<!-- Generated by graphviz version 2.40.1 (20161225.0304)
 -->
<!-- Title: inheritancef0f7c8435a Pages: 1 -->
<svg width="245pt" height="64pt"
 viewBox="0.00 0.00 245.00 64.00" xmlns="http://www.w3.org/2000/svg" xmlns:xlink="http://www.w3.org/1999/xlink">
<g id="graph0" class="graph" transform="scale(1 1) rotate(0) translate(4 60)">
<title>inheritancef0f7c8435a</title>
<polygon fill="#ffffff" stroke="transparent" points="-4,4 -4,-60 241,-60 241,4 -4,4"/>
<!-- MinAlgo_base -->
<g id="node1" class="node">
<title>MinAlgo_base</title>
<g id="a_node1"><a xlink:href="../api/proteus.Optimizers.html#proteus.Optimizers.MinAlgo_base" xlink:title="This is the base class for the minimization algorthms class," target="_top">
<polygon fill="none" stroke="#000000" stroke-width=".5" points="108,-19 24,-19 24,0 108,0 108,-19"/>
<text text-anchor="middle" x="66" y="-7" font-family="Vera Sans, DejaVu Sans, Liberation Sans, Arial, Helvetica, sans" font-size="10.00" fill="#000000">MinAlgo_base</text>
</a>
</g>
</g>
<!-- fminbound -->
<g id="node3" class="node">
<title>fminbound</title>
<g id="a_node3"><a xlink:href="../api/proteus.Optimizers.html#proteus.Optimizers.fminbound" xlink:title="This is a function that uses a golden ratio routine for finding" target="_top">
<polygon fill="none" stroke="#000000" stroke-width=".5" points="237,-19 168,-19 168,0 237,0 237,-19"/>
<text text-anchor="middle" x="202.5" y="-7" font-family="Vera Sans, DejaVu Sans, Liberation Sans, Arial, Helvetica, sans" font-size="10.00" fill="#000000">fminbound</text>
</a>
</g>
</g>
<!-- MinAlgo_base&#45;&gt;fminbound -->
<g id="edge1" class="edge">
<title>MinAlgo_base&#45;&gt;fminbound</title>
<path fill="none" stroke="#000000" stroke-width=".5" d="M108.0683,-9.5C125.3899,-9.5 145.3634,-9.5 162.4674,-9.5"/>
<polygon fill="#000000" stroke="#000000" stroke-width=".5" points="162.6773,-11.2501 167.6772,-9.5 162.6772,-7.7501 162.6773,-11.2501"/>
</g>
<!-- ObjectiveFunction_base -->
<g id="node2" class="node">
<title>ObjectiveFunction_base</title>
<g id="a_node2"><a xlink:href="../api/proteus.Optimizers.html#proteus.Optimizers.ObjectiveFunction_base" xlink:title="ObjectiveFunction_base" target="_top">
<polygon fill="none" stroke="#000000" stroke-width=".5" points="132,-56 0,-56 0,-37 132,-37 132,-56"/>
<text text-anchor="middle" x="66" y="-44" font-family="Vera Sans, DejaVu Sans, Liberation Sans, Arial, Helvetica, sans" font-size="10.00" fill="#000000">ObjectiveFunction_base</text>
</a>
</g>
</g>
</g>
</svg>
