<?xml version="1.0" encoding="UTF-8" standalone="no"?>
<!DOCTYPE svg PUBLIC "-//W3C//DTD SVG 1.1//EN"
 "http://www.w3.org/Graphics/SVG/1.1/DTD/svg11.dtd">
<!-- Generated by graphviz version 2.42.3 (0)
 -->
<!-- Title: inheritanceb0b43b8140 Pages: 1 -->
<svg width="434pt" height="341pt"
 viewBox="0.00 0.00 434.00 341.00" xmlns="http://www.w3.org/2000/svg" xmlns:xlink="http://www.w3.org/1999/xlink">
<g id="graph0" class="graph" transform="scale(1 1) rotate(0) translate(4 337)">
<title>inheritanceb0b43b8140</title>
<polygon fill="white" stroke="transparent" points="-4,4 -4,-337 430,-337 430,4 -4,4"/>
<!-- InvOperatorShell -->
<g id="node1" class="node">
<title>InvOperatorShell</title>
<g id="a_node1"><a xlink:href="../api/proteus.LinearAlgebraTools.html#proteus.LinearAlgebraTools.InvOperatorShell" xlink:title="A base class for inverse operator shells" target="_top">
<polygon fill="none" stroke="black" stroke-width="0.5" points="245,-93 147,-93 147,-74 245,-74 245,-93"/>
<text text-anchor="middle" x="196" y="-81" font-family="Vera Sans, DejaVu Sans, Liberation Sans, Arial, Helvetica, sans" font-size="10.00">InvOperatorShell</text>
</a>
</g>
</g>
<!-- LSCInv_shell -->
<g id="node3" class="node">
<title>LSCInv_shell</title>
<g id="a_node3"><a xlink:href="../api/proteus.LinearAlgebraTools.html#proteus.LinearAlgebraTools.LSCInv_shell" xlink:title="Shell class for the LSC Inverse Preconditioner" target="_top">
<polygon fill="none" stroke="black" stroke-width="0.5" points="398,-167 320,-167 320,-148 398,-148 398,-167"/>
<text text-anchor="middle" x="359" y="-155" font-family="Vera Sans, DejaVu Sans, Liberation Sans, Arial, Helvetica, sans" font-size="10.00">LSCInv_shell</text>
</a>
</g>
</g>
<!-- InvOperatorShell&#45;&gt;LSCInv_shell -->
<g id="edge2" class="edge">
<title>InvOperatorShell&#45;&gt;LSCInv_shell</title>
<path fill="none" stroke="black" stroke-width="0.5" d="M210.55,-93.07C228.45,-105.33 261.31,-126.54 292,-139.5 299.11,-142.5 306.87,-145.14 314.48,-147.41"/>
<polygon fill="black" stroke="black" stroke-width="0.5" points="314.43,-149.21 319.72,-148.91 315.4,-145.85 314.43,-149.21"/>
</g>
<!-- MatrixInvShell -->
<g id="node6" class="node">
<title>MatrixInvShell</title>
<g id="a_node6"><a xlink:href="../api/proteus.LinearAlgebraTools.html#proteus.LinearAlgebraTools.MatrixInvShell" xlink:title="A PETSc shell class for a inverse operator." target="_top">
<polygon fill="none" stroke="black" stroke-width="0.5" points="402.5,-130 315.5,-130 315.5,-111 402.5,-111 402.5,-130"/>
<text text-anchor="middle" x="359" y="-118" font-family="Vera Sans, DejaVu Sans, Liberation Sans, Arial, Helvetica, sans" font-size="10.00">MatrixInvShell</text>
</a>
</g>
</g>
<!-- InvOperatorShell&#45;&gt;MatrixInvShell -->
<g id="edge4" class="edge">
<title>InvOperatorShell&#45;&gt;MatrixInvShell</title>
<path fill="none" stroke="black" stroke-width="0.5" d="M238.46,-93.03C260.72,-98.14 288.24,-104.47 311.26,-109.76"/>
<polygon fill="black" stroke="black" stroke-width="0.5" points="311.13,-111.53 316.4,-110.94 311.92,-108.11 311.13,-111.53"/>
</g>
<!-- SpInv_shell -->
<g id="node13" class="node">
<title>SpInv_shell</title>
<g id="a_node13"><a xlink:href="../api/proteus.LinearAlgebraTools.html#proteus.LinearAlgebraTools.SpInv_shell" xlink:title="Shell class for the SIMPLE preconditioner which applies the" target="_top">
<polygon fill="none" stroke="black" stroke-width="0.5" points="395,-93 323,-93 323,-74 395,-74 395,-93"/>
<text text-anchor="middle" x="359" y="-81" font-family="Vera Sans, DejaVu Sans, Liberation Sans, Arial, Helvetica, sans" font-size="10.00">SpInv_shell</text>
</a>
</g>
</g>
<!-- InvOperatorShell&#45;&gt;SpInv_shell -->
<g id="edge9" class="edge">
<title>InvOperatorShell&#45;&gt;SpInv_shell</title>
<path fill="none" stroke="black" stroke-width="0.5" d="M245.31,-83.5C268.37,-83.5 295.66,-83.5 317.61,-83.5"/>
<polygon fill="black" stroke="black" stroke-width="0.5" points="317.78,-85.25 322.78,-83.5 317.78,-81.75 317.78,-85.25"/>
</g>
<!-- TwoPhase_PCDInv_shell -->
<g id="node15" class="node">
<title>TwoPhase_PCDInv_shell</title>
<g id="a_node15"><a xlink:href="../api/proteus.LinearAlgebraTools.html#proteus.LinearAlgebraTools.TwoPhase_PCDInv_shell" xlink:title="Shell class for the two&#45;phase PCD preconditioner. &#160;The" target="_top">
<polygon fill="none" stroke="black" stroke-width="0.5" points="426,-56 292,-56 292,-37 426,-37 426,-56"/>
<text text-anchor="middle" x="359" y="-44" font-family="Vera Sans, DejaVu Sans, Liberation Sans, Arial, Helvetica, sans" font-size="10.00">TwoPhase_PCDInv_shell</text>
</a>
</g>
</g>
<!-- InvOperatorShell&#45;&gt;TwoPhase_PCDInv_shell -->
<g id="edge10" class="edge">
<title>InvOperatorShell&#45;&gt;TwoPhase_PCDInv_shell</title>
<path fill="none" stroke="black" stroke-width="0.5" d="M238.46,-73.97C260.72,-68.86 288.24,-62.53 311.26,-57.24"/>
<polygon fill="black" stroke="black" stroke-width="0.5" points="311.92,-58.89 316.4,-56.06 311.13,-55.47 311.92,-58.89"/>
</g>
<!-- OperatorShell -->
<g id="node2" class="node">
<title>OperatorShell</title>
<g id="a_node2"><a xlink:href="../api/proteus.LinearAlgebraTools.html#proteus.LinearAlgebraTools.OperatorShell" xlink:title="A base class for operator shells" target="_top">
<polygon fill="none" stroke="black" stroke-width="0.5" points="91.5,-75 8.5,-75 8.5,-56 91.5,-56 91.5,-75"/>
<text text-anchor="middle" x="50" y="-63" font-family="Vera Sans, DejaVu Sans, Liberation Sans, Arial, Helvetica, sans" font-size="10.00">OperatorShell</text>
</a>
</g>
</g>
<!-- OperatorShell&#45;&gt;InvOperatorShell -->
<g id="edge1" class="edge">
<title>OperatorShell&#45;&gt;InvOperatorShell</title>
<path fill="none" stroke="black" stroke-width="0.5" d="M91.88,-70.61C107.4,-72.55 125.32,-74.79 141.81,-76.85"/>
<polygon fill="black" stroke="black" stroke-width="0.5" points="141.7,-78.6 146.88,-77.49 142.14,-75.13 141.7,-78.6"/>
</g>
<!-- ProductOperatorShell -->
<g id="node8" class="node">
<title>ProductOperatorShell</title>
<g id="a_node8"><a xlink:href="../api/proteus.LinearAlgebraTools.html#proteus.LinearAlgebraTools.ProductOperatorShell" xlink:title="A base class for shell operators that apply multiplcation." target="_top">
<polygon fill="none" stroke="black" stroke-width="0.5" points="256,-38 136,-38 136,-19 256,-19 256,-38"/>
<text text-anchor="middle" x="196" y="-26" font-family="Vera Sans, DejaVu Sans, Liberation Sans, Arial, Helvetica, sans" font-size="10.00">ProductOperatorShell</text>
</a>
</g>
</g>
<!-- OperatorShell&#45;&gt;ProductOperatorShell -->
<g id="edge8" class="edge">
<title>OperatorShell&#45;&gt;ProductOperatorShell</title>
<path fill="none" stroke="black" stroke-width="0.5" d="M88.08,-55.97C107.83,-50.9 132.21,-44.63 152.69,-39.37"/>
<polygon fill="black" stroke="black" stroke-width="0.5" points="153.13,-41.06 157.54,-38.12 152.26,-37.67 153.13,-41.06"/>
</g>
<!-- Mat -->
<g id="node4" class="node">
<title>Mat</title>
<polygon fill="none" stroke="black" stroke-width="0.5" points="223,-241 169,-241 169,-222 223,-222 223,-241"/>
<text text-anchor="middle" x="196" y="-229" font-family="Vera Sans, DejaVu Sans, Liberation Sans, Arial, Helvetica, sans" font-size="10.00">Mat</text>
</g>
<!-- ParMat_petsc4py -->
<g id="node10" class="node">
<title>ParMat_petsc4py</title>
<g id="a_node10"><a xlink:href="../api/proteus.LinearAlgebraTools.html#proteus.LinearAlgebraTools.ParMat_petsc4py" xlink:title="Parallel matrix based on petsc4py&#39;s wrappers for PETSc." target="_top">
<polygon fill="none" stroke="black" stroke-width="0.5" points="409,-241 309,-241 309,-222 409,-222 409,-241"/>
<text text-anchor="middle" x="359" y="-229" font-family="Vera Sans, DejaVu Sans, Liberation Sans, Arial, Helvetica, sans" font-size="10.00">ParMat_petsc4py</text>
</a>
</g>
</g>
<!-- Mat&#45;&gt;ParMat_petsc4py -->
<g id="edge6" class="edge">
<title>Mat&#45;&gt;ParMat_petsc4py</title>
<path fill="none" stroke="black" stroke-width="0.5" d="M223.23,-231.5C244.95,-231.5 276.55,-231.5 303.69,-231.5"/>
<polygon fill="black" stroke="black" stroke-width="0.5" points="303.7,-233.25 308.7,-231.5 303.7,-229.75 303.7,-233.25"/>
</g>
<!-- Object -->
<g id="node5" class="node">
<title>Object</title>
<polygon fill="none" stroke="black" stroke-width="0.5" points="77,-222 23,-222 23,-203 77,-203 77,-222"/>
<text text-anchor="middle" x="50" y="-210" font-family="Vera Sans, DejaVu Sans, Liberation Sans, Arial, Helvetica, sans" font-size="10.00">Object</text>
</g>
<!-- Object&#45;&gt;Mat -->
<g id="edge3" class="edge">
<title>Object&#45;&gt;Mat</title>
<path fill="none" stroke="black" stroke-width="0.5" d="M77.08,-215.94C101.39,-219.15 137.7,-223.94 163.6,-227.36"/>
<polygon fill="black" stroke="black" stroke-width="0.5" points="163.44,-229.1 168.63,-228.02 163.9,-225.63 163.44,-229.1"/>
</g>
<!-- Vec -->
<g id="node12" class="node">
<title>Vec</title>
<polygon fill="none" stroke="black" stroke-width="0.5" points="223,-204 169,-204 169,-185 223,-185 223,-204"/>
<text text-anchor="middle" x="196" y="-192" font-family="Vera Sans, DejaVu Sans, Liberation Sans, Arial, Helvetica, sans" font-size="10.00">Vec</text>
</g>
<!-- Object&#45;&gt;Vec -->
<g id="edge11" class="edge">
<title>Object&#45;&gt;Vec</title>
<path fill="none" stroke="black" stroke-width="0.5" d="M77.08,-209.24C101.39,-206.2 137.7,-201.66 163.6,-198.43"/>
<polygon fill="black" stroke="black" stroke-width="0.5" points="163.89,-200.15 168.63,-197.8 163.45,-196.68 163.89,-200.15"/>
</g>
<!-- MatrixShell -->
<g id="node7" class="node">
<title>MatrixShell</title>
<g id="a_node7"><a xlink:href="../api/proteus.LinearAlgebraTools.html#proteus.LinearAlgebraTools.MatrixShell" xlink:title="A shell class for a matrix." target="_top">
<polygon fill="none" stroke="black" stroke-width="0.5" points="395,-19 323,-19 323,0 395,0 395,-19"/>
<text text-anchor="middle" x="359" y="-7" font-family="Vera Sans, DejaVu Sans, Liberation Sans, Arial, Helvetica, sans" font-size="10.00">MatrixShell</text>
</a>
</g>
</g>
<!-- ProductOperatorShell&#45;&gt;MatrixShell -->
<g id="edge5" class="edge">
<title>ProductOperatorShell&#45;&gt;MatrixShell</title>
<path fill="none" stroke="black" stroke-width="0.5" d="M256.04,-21.53C276.54,-19.11 299.06,-16.46 317.7,-14.26"/>
<polygon fill="black" stroke="black" stroke-width="0.5" points="318.09,-15.97 322.85,-13.65 317.68,-12.5 318.09,-15.97"/>
</g>
<!-- ParInfo_petsc4py -->
<g id="node9" class="node">
<title>ParInfo_petsc4py</title>
<g id="a_node9"><a xlink:href="../api/proteus.LinearAlgebraTools.html#proteus.LinearAlgebraTools.ParInfo_petsc4py" xlink:title="ARB &#45; this class is experimental. &#160;My idea is to store the" target="_top">
<polygon fill="none" stroke="black" stroke-width="0.5" points="100,-259 0,-259 0,-240 100,-240 100,-259"/>
<text text-anchor="middle" x="50" y="-247" font-family="Vera Sans, DejaVu Sans, Liberation Sans, Arial, Helvetica, sans" font-size="10.00">ParInfo_petsc4py</text>
</a>
</g>
</g>
<!-- ParVec_petsc4py -->
<g id="node11" class="node">
<title>ParVec_petsc4py</title>
<g id="a_node11"><a xlink:href="../api/proteus.LinearAlgebraTools.html#proteus.LinearAlgebraTools.ParVec_petsc4py" xlink:title="Parallel vector using petsc4py&#39;s wrappers for PETSc" target="_top">
<polygon fill="none" stroke="black" stroke-width="0.5" points="408,-204 310,-204 310,-185 408,-185 408,-204"/>
<text text-anchor="middle" x="359" y="-192" font-family="Vera Sans, DejaVu Sans, Liberation Sans, Arial, Helvetica, sans" font-size="10.00">ParVec_petsc4py</text>
</a>
</g>
</g>
<!-- Vec&#45;&gt;ParVec_petsc4py -->
<g id="edge7" class="edge">
<title>Vec&#45;&gt;ParVec_petsc4py</title>
<path fill="none" stroke="black" stroke-width="0.5" d="M223.23,-194.5C245.2,-194.5 277.28,-194.5 304.63,-194.5"/>
<polygon fill="black" stroke="black" stroke-width="0.5" points="304.68,-196.25 309.68,-194.5 304.68,-192.75 304.68,-196.25"/>
</g>
<!-- SparseMatShell -->
<g id="node14" class="node">
<title>SparseMatShell</title>
<g id="a_node14"><a xlink:href="../api/proteus.LinearAlgebraTools.html#proteus.LinearAlgebraTools.SparseMatShell" xlink:title="Build a parallel matrix shell from CSR data structures." target="_top">
<polygon fill="none" stroke="black" stroke-width="0.5" points="96,-296 4,-296 4,-277 96,-277 96,-296"/>
<text text-anchor="middle" x="50" y="-284" font-family="Vera Sans, DejaVu Sans, Liberation Sans, Arial, Helvetica, sans" font-size="10.00">SparseMatShell</text>
</a>
</g>
</g>
<!-- WeightedNorm -->
<g id="node16" class="node">
<title>WeightedNorm</title>
<g id="a_node16"><a xlink:href="../api/proteus.LinearAlgebraTools.html#proteus.LinearAlgebraTools.WeightedNorm" xlink:title="Compute the weighted norm for time step control (not currently parallel)" target="_top">
<polygon fill="none" stroke="black" stroke-width="0.5" points="94.5,-333 5.5,-333 5.5,-314 94.5,-314 94.5,-333"/>
<text text-anchor="middle" x="50" y="-321" font-family="Vera Sans, DejaVu Sans, Liberation Sans, Arial, Helvetica, sans" font-size="10.00">WeightedNorm</text>
</a>
</g>
</g>
</g>
</svg>
