<?xml version="1.0" encoding="UTF-8" standalone="no"?>
<!DOCTYPE svg PUBLIC "-//W3C//DTD SVG 1.1//EN"
 "http://www.w3.org/Graphics/SVG/1.1/DTD/svg11.dtd">
<!-- Generated by graphviz version 2.42.3 (0)
 -->
<!-- Title: inheritance3ba27a0141 Pages: 1 -->
<svg width="650pt" height="434pt"
 viewBox="0.00 0.00 650.00 434.00" xmlns="http://www.w3.org/2000/svg" xmlns:xlink="http://www.w3.org/1999/xlink">
<g id="graph0" class="graph" transform="scale(1 1) rotate(0) translate(4 430)">
<title>inheritance3ba27a0141</title>
<polygon fill="white" stroke="transparent" points="-4,4 -4,-430 646,-430 646,4 -4,4"/>
<!-- AS_base -->
<g id="node1" class="node">
<title>AS_base</title>
<g id="a_node1"><a xlink:href="../api/proteus.AnalyticalSolutions.html#proteus.AnalyticalSolutions.AS_base" xlink:title="The base class for general analytical solutions, u(x,y,z,t)" target="_top">
<polygon fill="none" stroke="black" stroke-width="0.5" points="58,-222 0,-222 0,-203 58,-203 58,-222"/>
<text text-anchor="middle" x="29" y="-210" font-family="Vera Sans, DejaVu Sans, Liberation Sans, Arial, Helvetica, sans" font-size="10.00">AS_base</text>
</a>
</g>
</g>
<!-- Buckley_Leverett_RiemannSoln -->
<g id="node2" class="node">
<title>Buckley_Leverett_RiemannSoln</title>
<g id="a_node2"><a xlink:href="../api/proteus.AnalyticalSolutions.html#proteus.AnalyticalSolutions.Buckley_Leverett_RiemannSoln" xlink:title="Buckley_Leverett_RiemannSoln" target="_top">
<polygon fill="none" stroke="black" stroke-width="0.5" points="265,-333 94,-333 94,-314 265,-314 265,-333"/>
<text text-anchor="middle" x="179.5" y="-321" font-family="Vera Sans, DejaVu Sans, Liberation Sans, Arial, Helvetica, sans" font-size="10.00">Buckley_Leverett_RiemannSoln</text>
</a>
</g>
</g>
<!-- AS_base&#45;&gt;Buckley_Leverett_RiemannSoln -->
<g id="edge1" class="edge">
<title>AS_base&#45;&gt;Buckley_Leverett_RiemannSoln</title>
<path fill="none" stroke="black" stroke-width="0.5" d="M33.76,-222.21C41.72,-241.42 62.22,-284.27 94,-305.5 97.76,-308.01 101.8,-310.18 106,-312.05"/>
<polygon fill="black" stroke="black" stroke-width="0.5" points="105.34,-313.67 110.63,-313.97 106.68,-310.43 105.34,-313.67"/>
</g>
<!-- DAE_base -->
<g id="node3" class="node">
<title>DAE_base</title>
<g id="a_node3"><a xlink:href="../api/proteus.AnalyticalSolutions.html#proteus.AnalyticalSolutions.DAE_base" xlink:title="The base class for differential&#45;algebraic equation solutions" target="_top">
<polygon fill="none" stroke="black" stroke-width="0.5" points="212,-296 147,-296 147,-277 212,-277 212,-296"/>
<text text-anchor="middle" x="179.5" y="-284" font-family="Vera Sans, DejaVu Sans, Liberation Sans, Arial, Helvetica, sans" font-size="10.00">DAE_base</text>
</a>
</g>
</g>
<!-- AS_base&#45;&gt;DAE_base -->
<g id="edge2" class="edge">
<title>AS_base&#45;&gt;DAE_base</title>
<path fill="none" stroke="black" stroke-width="0.5" d="M38.04,-222.08C49.23,-234.76 70.77,-256.86 94,-268.5 108.7,-275.86 126.3,-280.22 141.63,-282.8"/>
<polygon fill="black" stroke="black" stroke-width="0.5" points="141.52,-284.55 146.73,-283.6 142.06,-281.09 141.52,-284.55"/>
</g>
<!-- LinearAD_DiracIC -->
<g id="node5" class="node">
<title>LinearAD_DiracIC</title>
<g id="a_node5"><a xlink:href="../api/proteus.AnalyticalSolutions.html#proteus.AnalyticalSolutions.LinearAD_DiracIC" xlink:title="The exact solution of" target="_top">
<polygon fill="none" stroke="black" stroke-width="0.5" points="230,-259 129,-259 129,-240 230,-240 230,-259"/>
<text text-anchor="middle" x="179.5" y="-247" font-family="Vera Sans, DejaVu Sans, Liberation Sans, Arial, Helvetica, sans" font-size="10.00">LinearAD_DiracIC</text>
</a>
</g>
</g>
<!-- AS_base&#45;&gt;LinearAD_DiracIC -->
<g id="edge5" class="edge">
<title>AS_base&#45;&gt;LinearAD_DiracIC</title>
<path fill="none" stroke="black" stroke-width="0.5" d="M58.22,-221.4C69.32,-224.76 82.21,-228.5 94,-231.5 104.12,-234.08 114.98,-236.58 125.44,-238.86"/>
<polygon fill="black" stroke="black" stroke-width="0.5" points="125.27,-240.62 130.53,-239.97 126.01,-237.2 125.27,-240.62"/>
</g>
<!-- SteadyState -->
<g id="node7" class="node">
<title>SteadyState</title>
<g id="a_node7"><a xlink:href="../api/proteus.AnalyticalSolutions.html#proteus.AnalyticalSolutions.SteadyState" xlink:title="Based class for steady&#45;state solutions u(x)" target="_top">
<polygon fill="none" stroke="black" stroke-width="0.5" points="217.5,-222 141.5,-222 141.5,-203 217.5,-203 217.5,-222"/>
<text text-anchor="middle" x="179.5" y="-210" font-family="Vera Sans, DejaVu Sans, Liberation Sans, Arial, Helvetica, sans" font-size="10.00">SteadyState</text>
</a>
</g>
</g>
<!-- AS_base&#45;&gt;SteadyState -->
<g id="edge22" class="edge">
<title>AS_base&#45;&gt;SteadyState</title>
<path fill="none" stroke="black" stroke-width="0.5" d="M58.28,-212.5C80.28,-212.5 111.15,-212.5 136.1,-212.5"/>
<polygon fill="black" stroke="black" stroke-width="0.5" points="136.33,-214.25 141.33,-212.5 136.33,-210.75 136.33,-214.25"/>
</g>
<!-- VortexDecay_p -->
<g id="node24" class="node">
<title>VortexDecay_p</title>
<g id="a_node24"><a xlink:href="../api/proteus.AnalyticalSolutions.html#proteus.AnalyticalSolutions.VortexDecay_p" xlink:title="The exact solution for the u component of &#160;velocity in the vortex &#160;decay problem" target="_top">
<polygon fill="none" stroke="black" stroke-width="0.5" points="224.5,-185 134.5,-185 134.5,-166 224.5,-166 224.5,-185"/>
<text text-anchor="middle" x="179.5" y="-173" font-family="Vera Sans, DejaVu Sans, Liberation Sans, Arial, Helvetica, sans" font-size="10.00">VortexDecay_p</text>
</a>
</g>
</g>
<!-- AS_base&#45;&gt;VortexDecay_p -->
<g id="edge23" class="edge">
<title>AS_base&#45;&gt;VortexDecay_p</title>
<path fill="none" stroke="black" stroke-width="0.5" d="M58.27,-204.2C69.37,-201.03 82.25,-197.47 94,-194.5 105.35,-191.63 117.62,-188.75 129.19,-186.13"/>
<polygon fill="black" stroke="black" stroke-width="0.5" points="129.61,-187.83 134.1,-185.02 128.84,-184.41 129.61,-187.83"/>
</g>
<!-- VortexDecay_u -->
<g id="node25" class="node">
<title>VortexDecay_u</title>
<g id="a_node25"><a xlink:href="../api/proteus.AnalyticalSolutions.html#proteus.AnalyticalSolutions.VortexDecay_u" xlink:title="The exact solution for the u component of &#160;velocity in the vortex &#160;decay problem" target="_top">
<polygon fill="none" stroke="black" stroke-width="0.5" points="224.5,-148 134.5,-148 134.5,-129 224.5,-129 224.5,-148"/>
<text text-anchor="middle" x="179.5" y="-136" font-family="Vera Sans, DejaVu Sans, Liberation Sans, Arial, Helvetica, sans" font-size="10.00">VortexDecay_u</text>
</a>
</g>
</g>
<!-- AS_base&#45;&gt;VortexDecay_u -->
<g id="edge24" class="edge">
<title>AS_base&#45;&gt;VortexDecay_u</title>
<path fill="none" stroke="black" stroke-width="0.5" d="M38.48,-202.71C49.84,-190.24 71.22,-168.94 94,-157.5 104.82,-152.07 117.19,-148.17 129.06,-145.38"/>
<polygon fill="black" stroke="black" stroke-width="0.5" points="129.62,-147.05 134.12,-144.26 128.85,-143.64 129.62,-147.05"/>
</g>
<!-- VortexDecay_v -->
<g id="node26" class="node">
<title>VortexDecay_v</title>
<g id="a_node26"><a xlink:href="../api/proteus.AnalyticalSolutions.html#proteus.AnalyticalSolutions.VortexDecay_v" xlink:title="The exact solution for the u component of &#160;velocity in the vortex &#160;decay problem" target="_top">
<polygon fill="none" stroke="black" stroke-width="0.5" points="224.5,-111 134.5,-111 134.5,-92 224.5,-92 224.5,-111"/>
<text text-anchor="middle" x="179.5" y="-99" font-family="Vera Sans, DejaVu Sans, Liberation Sans, Arial, Helvetica, sans" font-size="10.00">VortexDecay_v</text>
</a>
</g>
</g>
<!-- AS_base&#45;&gt;VortexDecay_v -->
<g id="edge25" class="edge">
<title>AS_base&#45;&gt;VortexDecay_v</title>
<path fill="none" stroke="black" stroke-width="0.5" d="M33.81,-202.93C41.86,-183.97 62.52,-141.67 94,-120.5 104.37,-113.52 116.92,-109.08 129.13,-106.25"/>
<polygon fill="black" stroke="black" stroke-width="0.5" points="129.81,-107.89 134.34,-105.13 129.08,-104.47 129.81,-107.89"/>
</g>
<!-- NonlinearDAE -->
<g id="node11" class="node">
<title>NonlinearDAE</title>
<g id="a_node11"><a xlink:href="../api/proteus.AnalyticalSolutions.html#proteus.AnalyticalSolutions.NonlinearDAE" xlink:title="The exact solution of the simple nonlinear DAE" target="_top">
<polygon fill="none" stroke="black" stroke-width="0.5" points="415,-426 331,-426 331,-407 415,-407 415,-426"/>
<text text-anchor="middle" x="373" y="-414" font-family="Vera Sans, DejaVu Sans, Liberation Sans, Arial, Helvetica, sans" font-size="10.00">NonlinearDAE</text>
</a>
</g>
</g>
<!-- DAE_base&#45;&gt;NonlinearDAE -->
<g id="edge9" class="edge">
<title>DAE_base&#45;&gt;NonlinearDAE</title>
<path fill="none" stroke="black" stroke-width="0.5" d="M212.23,-286.61C229.63,-288.26 250.53,-293.03 265,-305.5 298.57,-334.43 267.82,-369.11 301,-398.5 307.99,-404.69 316.81,-408.81 325.83,-411.54"/>
<polygon fill="black" stroke="black" stroke-width="0.5" points="325.57,-413.28 330.85,-412.91 326.49,-409.9 325.57,-413.28"/>
</g>
<!-- LinearADR_Decay_DiracIC -->
<g id="node4" class="node">
<title>LinearADR_Decay_DiracIC</title>
<g id="a_node4"><a xlink:href="../api/proteus.AnalyticalSolutions.html#proteus.AnalyticalSolutions.LinearADR_Decay_DiracIC" xlink:title="The exact solution of" target="_top">
<polygon fill="none" stroke="black" stroke-width="0.5" points="445,-389 301,-389 301,-370 445,-370 445,-389"/>
<text text-anchor="middle" x="373" y="-377" font-family="Vera Sans, DejaVu Sans, Liberation Sans, Arial, Helvetica, sans" font-size="10.00">LinearADR_Decay_DiracIC</text>
</a>
</g>
</g>
<!-- NonlinearADR_Decay_DiracIC -->
<g id="node9" class="node">
<title>NonlinearADR_Decay_DiracIC</title>
<g id="a_node9"><a xlink:href="../api/proteus.AnalyticalSolutions.html#proteus.AnalyticalSolutions.NonlinearADR_Decay_DiracIC" xlink:title="The approximate analytical solution of" target="_top">
<polygon fill="none" stroke="black" stroke-width="0.5" points="642,-389 481,-389 481,-370 642,-370 642,-389"/>
<text text-anchor="middle" x="561.5" y="-377" font-family="Vera Sans, DejaVu Sans, Liberation Sans, Arial, Helvetica, sans" font-size="10.00">NonlinearADR_Decay_DiracIC</text>
</a>
</g>
</g>
<!-- LinearADR_Decay_DiracIC&#45;&gt;NonlinearADR_Decay_DiracIC -->
<g id="edge7" class="edge">
<title>LinearADR_Decay_DiracIC&#45;&gt;NonlinearADR_Decay_DiracIC</title>
<path fill="none" stroke="black" stroke-width="0.5" d="M445.04,-379.5C455.12,-379.5 465.58,-379.5 475.89,-379.5"/>
<polygon fill="black" stroke="black" stroke-width="0.5" points="475.94,-381.25 480.94,-379.5 475.94,-377.75 475.94,-381.25"/>
</g>
<!-- LinearAD_DiracIC&#45;&gt;LinearADR_Decay_DiracIC -->
<g id="edge3" class="edge">
<title>LinearAD_DiracIC&#45;&gt;LinearADR_Decay_DiracIC</title>
<path fill="none" stroke="black" stroke-width="0.5" d="M230.28,-252.44C242.75,-255.26 255.32,-260.16 265,-268.5 298.57,-297.43 267.82,-332.11 301,-361.5 303.5,-363.71 306.23,-365.66 309.12,-367.38"/>
<polygon fill="black" stroke="black" stroke-width="0.5" points="308.56,-369.06 313.79,-369.88 310.21,-365.98 308.56,-369.06"/>
</g>
<!-- LinearADR_Sine -->
<g id="node6" class="node">
<title>LinearADR_Sine</title>
<g id="a_node6"><a xlink:href="../api/proteus.AnalyticalSolutions.html#proteus.AnalyticalSolutions.LinearADR_Sine" xlink:title="An exact solution and source term for" target="_top">
<polygon fill="none" stroke="black" stroke-width="0.5" points="420,-352 326,-352 326,-333 420,-333 420,-352"/>
<text text-anchor="middle" x="373" y="-340" font-family="Vera Sans, DejaVu Sans, Liberation Sans, Arial, Helvetica, sans" font-size="10.00">LinearADR_Sine</text>
</a>
</g>
</g>
<!-- SteadyState&#45;&gt;LinearADR_Sine -->
<g id="edge4" class="edge">
<title>SteadyState&#45;&gt;LinearADR_Sine</title>
<path fill="none" stroke="black" stroke-width="0.5" d="M217.67,-213.22C233.84,-215.32 252.02,-220.31 265,-231.5 298.57,-260.43 267.82,-295.11 301,-324.5 306.65,-329.5 313.49,-333.15 320.67,-335.81"/>
<polygon fill="black" stroke="black" stroke-width="0.5" points="320.38,-337.56 325.68,-337.49 321.5,-334.24 320.38,-337.56"/>
</g>
<!-- LinearAD_SteadyState -->
<g id="node8" class="node">
<title>LinearAD_SteadyState</title>
<g id="a_node8"><a xlink:href="../api/proteus.AnalyticalSolutions.html#proteus.AnalyticalSolutions.LinearAD_SteadyState" xlink:title="The solution of the steady linear advection&#45;diffusion equation" target="_top">
<polygon fill="none" stroke="black" stroke-width="0.5" points="435.5,-315 310.5,-315 310.5,-296 435.5,-296 435.5,-315"/>
<text text-anchor="middle" x="373" y="-303" font-family="Vera Sans, DejaVu Sans, Liberation Sans, Arial, Helvetica, sans" font-size="10.00">LinearAD_SteadyState</text>
</a>
</g>
</g>
<!-- SteadyState&#45;&gt;LinearAD_SteadyState -->
<g id="edge6" class="edge">
<title>SteadyState&#45;&gt;LinearAD_SteadyState</title>
<path fill="none" stroke="black" stroke-width="0.5" d="M217.53,-214.61C233.3,-217 251.2,-221.85 265,-231.5 289.25,-248.46 276.99,-270.22 301,-287.5 304.41,-289.96 308.13,-292.08 312.01,-293.91"/>
<polygon fill="black" stroke="black" stroke-width="0.5" points="311.36,-295.53 316.64,-295.93 312.76,-292.33 311.36,-295.53"/>
</g>
<!-- PlaneBase -->
<g id="node12" class="node">
<title>PlaneBase</title>
<g id="a_node12"><a xlink:href="../api/proteus.AnalyticalSolutions.html#proteus.AnalyticalSolutions.PlaneBase" xlink:title="The exact solution for the u component of &#160;velocity in plane Poiseuille Flow" target="_top">
<polygon fill="none" stroke="black" stroke-width="0.5" points="407,-278 339,-278 339,-259 407,-259 407,-278"/>
<text text-anchor="middle" x="373" y="-266" font-family="Vera Sans, DejaVu Sans, Liberation Sans, Arial, Helvetica, sans" font-size="10.00">PlaneBase</text>
</a>
</g>
</g>
<!-- SteadyState&#45;&gt;PlaneBase -->
<g id="edge10" class="edge">
<title>SteadyState&#45;&gt;PlaneBase</title>
<path fill="none" stroke="black" stroke-width="0.5" d="M217.71,-218.66C232.67,-221.7 249.91,-225.93 265,-231.5 281.97,-237.76 284.11,-244.01 301,-250.5 311.5,-254.54 323.22,-257.93 334.06,-260.65"/>
<polygon fill="black" stroke="black" stroke-width="0.5" points="333.7,-262.36 338.98,-261.85 334.53,-258.96 333.7,-262.36"/>
</g>
<!-- PlaneCouetteFlow_p -->
<g id="node13" class="node">
<title>PlaneCouetteFlow_p</title>
<g id="a_node13"><a xlink:href="../api/proteus.AnalyticalSolutions.html#proteus.AnalyticalSolutions.PlaneCouetteFlow_p" xlink:title="The exact solution for the v component of &#160;velocity in plane Couette Flow" target="_top">
<polygon fill="none" stroke="black" stroke-width="0.5" points="431,-241 315,-241 315,-222 431,-222 431,-241"/>
<text text-anchor="middle" x="373" y="-229" font-family="Vera Sans, DejaVu Sans, Liberation Sans, Arial, Helvetica, sans" font-size="10.00">PlaneCouetteFlow_p</text>
</a>
</g>
</g>
<!-- SteadyState&#45;&gt;PlaneCouetteFlow_p -->
<g id="edge11" class="edge">
<title>SteadyState&#45;&gt;PlaneCouetteFlow_p</title>
<path fill="none" stroke="black" stroke-width="0.5" d="M217.88,-216.21C243.91,-218.79 279.25,-222.3 309.52,-225.3"/>
<polygon fill="black" stroke="black" stroke-width="0.5" points="309.58,-227.07 314.73,-225.82 309.92,-223.58 309.58,-227.07"/>
</g>
<!-- PlaneCouetteFlow_u -->
<g id="node14" class="node">
<title>PlaneCouetteFlow_u</title>
<g id="a_node14"><a xlink:href="../api/proteus.AnalyticalSolutions.html#proteus.AnalyticalSolutions.PlaneCouetteFlow_u" xlink:title="The exact solution for the u component of &#160;velocity in plane Couette Flow" target="_top">
<polygon fill="none" stroke="black" stroke-width="0.5" points="431,-204 315,-204 315,-185 431,-185 431,-204"/>
<text text-anchor="middle" x="373" y="-192" font-family="Vera Sans, DejaVu Sans, Liberation Sans, Arial, Helvetica, sans" font-size="10.00">PlaneCouetteFlow_u</text>
</a>
</g>
</g>
<!-- SteadyState&#45;&gt;PlaneCouetteFlow_u -->
<g id="edge12" class="edge">
<title>SteadyState&#45;&gt;PlaneCouetteFlow_u</title>
<path fill="none" stroke="black" stroke-width="0.5" d="M217.88,-208.99C243.91,-206.54 279.25,-203.22 309.52,-200.37"/>
<polygon fill="black" stroke="black" stroke-width="0.5" points="309.91,-202.09 314.73,-199.88 309.58,-198.61 309.91,-202.09"/>
</g>
<!-- PlaneCouetteFlow_v -->
<g id="node15" class="node">
<title>PlaneCouetteFlow_v</title>
<g id="a_node15"><a xlink:href="../api/proteus.AnalyticalSolutions.html#proteus.AnalyticalSolutions.PlaneCouetteFlow_v" xlink:title="The exact solution for the v component of &#160;velocity in plane Couette Flow" target="_top">
<polygon fill="none" stroke="black" stroke-width="0.5" points="431,-167 315,-167 315,-148 431,-148 431,-167"/>
<text text-anchor="middle" x="373" y="-155" font-family="Vera Sans, DejaVu Sans, Liberation Sans, Arial, Helvetica, sans" font-size="10.00">PlaneCouetteFlow_v</text>
</a>
</g>
</g>
<!-- SteadyState&#45;&gt;PlaneCouetteFlow_v -->
<g id="edge13" class="edge">
<title>SteadyState&#45;&gt;PlaneCouetteFlow_v</title>
<path fill="none" stroke="black" stroke-width="0.5" d="M217.66,-206.69C232.61,-203.82 249.85,-199.8 265,-194.5 281.88,-188.59 284.27,-182.84 301,-176.5 308.81,-173.54 317.26,-170.85 325.52,-168.49"/>
<polygon fill="black" stroke="black" stroke-width="0.5" points="326.28,-170.09 330.63,-167.06 325.34,-166.72 326.28,-170.09"/>
</g>
<!-- PlanePoiseuilleFlow_p -->
<g id="node16" class="node">
<title>PlanePoiseuilleFlow_p</title>
<g id="a_node16"><a xlink:href="../api/proteus.AnalyticalSolutions.html#proteus.AnalyticalSolutions.PlanePoiseuilleFlow_p" xlink:title="The exact solution for the v component of &#160;velocity in plane Poiseuille Flow" target="_top">
<polygon fill="none" stroke="black" stroke-width="0.5" points="435.5,-130 310.5,-130 310.5,-111 435.5,-111 435.5,-130"/>
<text text-anchor="middle" x="373" y="-118" font-family="Vera Sans, DejaVu Sans, Liberation Sans, Arial, Helvetica, sans" font-size="10.00">PlanePoiseuilleFlow_p</text>
</a>
</g>
</g>
<!-- SteadyState&#45;&gt;PlanePoiseuilleFlow_p -->
<g id="edge14" class="edge">
<title>SteadyState&#45;&gt;PlanePoiseuilleFlow_p</title>
<path fill="none" stroke="black" stroke-width="0.5" d="M217.9,-210.77C233.55,-208.54 251.26,-203.91 265,-194.5 289.1,-177.99 277.33,-156.63 301,-139.5 305.03,-136.58 309.48,-134.11 314.13,-132.02"/>
<polygon fill="black" stroke="black" stroke-width="0.5" points="314.9,-133.6 318.84,-130.06 313.55,-130.37 314.9,-133.6"/>
</g>
<!-- PlanePoiseuilleFlow_u -->
<g id="node18" class="node">
<title>PlanePoiseuilleFlow_u</title>
<g id="a_node18"><a xlink:href="../api/proteus.AnalyticalSolutions.html#proteus.AnalyticalSolutions.PlanePoiseuilleFlow_u" xlink:title="PlanePoiseuilleFlow_u" target="_top">
<polygon fill="none" stroke="black" stroke-width="0.5" points="435.5,-93 310.5,-93 310.5,-74 435.5,-74 435.5,-93"/>
<text text-anchor="middle" x="373" y="-81" font-family="Vera Sans, DejaVu Sans, Liberation Sans, Arial, Helvetica, sans" font-size="10.00">PlanePoiseuilleFlow_u</text>
</a>
</g>
</g>
<!-- SteadyState&#45;&gt;PlanePoiseuilleFlow_u -->
<g id="edge16" class="edge">
<title>SteadyState&#45;&gt;PlanePoiseuilleFlow_u</title>
<path fill="none" stroke="black" stroke-width="0.5" d="M217.62,-212.24C233.78,-210.35 251.96,-205.57 265,-194.5 298.47,-166.08 268.27,-131.77 301,-102.5 303.94,-99.87 307.21,-97.6 310.68,-95.63"/>
<polygon fill="black" stroke="black" stroke-width="0.5" points="311.88,-96.98 315.53,-93.14 310.29,-93.87 311.88,-96.98"/>
</g>
<!-- PlanePoiseuilleFlow_v -->
<g id="node20" class="node">
<title>PlanePoiseuilleFlow_v</title>
<g id="a_node20"><a xlink:href="../api/proteus.AnalyticalSolutions.html#proteus.AnalyticalSolutions.PlanePoiseuilleFlow_v" xlink:title="The exact solution for the v component of &#160;velocity in plane Poiseuille Flow" target="_top">
<polygon fill="none" stroke="black" stroke-width="0.5" points="435.5,-56 310.5,-56 310.5,-37 435.5,-37 435.5,-56"/>
<text text-anchor="middle" x="373" y="-44" font-family="Vera Sans, DejaVu Sans, Liberation Sans, Arial, Helvetica, sans" font-size="10.00">PlanePoiseuilleFlow_v</text>
</a>
</g>
</g>
<!-- SteadyState&#45;&gt;PlanePoiseuilleFlow_v -->
<g id="edge18" class="edge">
<title>SteadyState&#45;&gt;PlanePoiseuilleFlow_v</title>
<path fill="none" stroke="black" stroke-width="0.5" d="M217.72,-212.88C234.1,-211.14 252.43,-206.31 265,-194.5 308.38,-153.74 258.69,-107.36 301,-65.5 303.68,-62.85 306.69,-60.55 309.92,-58.57"/>
<polygon fill="black" stroke="black" stroke-width="0.5" points="310.92,-60.02 314.44,-56.06 309.22,-56.96 310.92,-60.02"/>
</g>
<!-- PoissonsEquation -->
<g id="node23" class="node">
<title>PoissonsEquation</title>
<g id="a_node23"><a xlink:href="../api/proteus.AnalyticalSolutions.html#proteus.AnalyticalSolutions.PoissonsEquation" xlink:title="Manufactured solution of Poisson&#39;s equation" target="_top">
<polygon fill="none" stroke="black" stroke-width="0.5" points="424,-19 322,-19 322,0 424,0 424,-19"/>
<text text-anchor="middle" x="373" y="-7" font-family="Vera Sans, DejaVu Sans, Liberation Sans, Arial, Helvetica, sans" font-size="10.00">PoissonsEquation</text>
</a>
</g>
</g>
<!-- SteadyState&#45;&gt;PoissonsEquation -->
<g id="edge21" class="edge">
<title>SteadyState&#45;&gt;PoissonsEquation</title>
<path fill="none" stroke="black" stroke-width="0.5" d="M217.62,-213.26C234.18,-211.64 252.68,-206.79 265,-194.5 318.75,-140.88 248.29,-82.15 301,-27.5 305.57,-22.76 311.2,-19.2 317.27,-16.54"/>
<polygon fill="black" stroke="black" stroke-width="0.5" points="317.98,-18.14 321.99,-14.67 316.7,-14.88 317.98,-18.14"/>
</g>
<!-- NonlinearAD_SteadyState -->
<g id="node10" class="node">
<title>NonlinearAD_SteadyState</title>
<g id="a_node10"><a xlink:href="../api/proteus.AnalyticalSolutions.html#proteus.AnalyticalSolutions.NonlinearAD_SteadyState" xlink:title="The solution of a steady nonlinear advection&#45;diffusion equation" target="_top">
<polygon fill="none" stroke="black" stroke-width="0.5" points="633,-352 490,-352 490,-333 633,-333 633,-352"/>
<text text-anchor="middle" x="561.5" y="-340" font-family="Vera Sans, DejaVu Sans, Liberation Sans, Arial, Helvetica, sans" font-size="10.00">NonlinearAD_SteadyState</text>
</a>
</g>
</g>
<!-- LinearAD_SteadyState&#45;&gt;NonlinearAD_SteadyState -->
<g id="edge8" class="edge">
<title>LinearAD_SteadyState&#45;&gt;NonlinearAD_SteadyState</title>
<path fill="none" stroke="black" stroke-width="0.5" d="M422.03,-315.03C448.14,-320.21 480.49,-326.63 507.36,-331.96"/>
<polygon fill="black" stroke="black" stroke-width="0.5" points="507.07,-333.68 512.31,-332.94 507.75,-330.25 507.07,-333.68"/>
</g>
<!-- PlanePoiseuilleFlow_p2 -->
<g id="node17" class="node">
<title>PlanePoiseuilleFlow_p2</title>
<g id="a_node17"><a xlink:href="../api/proteus.AnalyticalSolutions.html#proteus.AnalyticalSolutions.PlanePoiseuilleFlow_p2" xlink:title="The exact solution for the v component of &#160;velocity in plane Poiseuille Flow" target="_top">
<polygon fill="none" stroke="black" stroke-width="0.5" points="627,-315 496,-315 496,-296 627,-296 627,-315"/>
<text text-anchor="middle" x="561.5" y="-303" font-family="Vera Sans, DejaVu Sans, Liberation Sans, Arial, Helvetica, sans" font-size="10.00">PlanePoiseuilleFlow_p2</text>
</a>
</g>
</g>
<!-- PlaneBase&#45;&gt;PlanePoiseuilleFlow_p2 -->
<g id="edge15" class="edge">
<title>PlaneBase&#45;&gt;PlanePoiseuilleFlow_p2</title>
<path fill="none" stroke="black" stroke-width="0.5" d="M407.34,-275.11C435.09,-280.62 475.11,-288.56 507.28,-294.94"/>
<polygon fill="black" stroke="black" stroke-width="0.5" points="507.13,-296.7 512.38,-295.95 507.81,-293.26 507.13,-296.7"/>
</g>
<!-- PlanePoiseuilleFlow_u2 -->
<g id="node19" class="node">
<title>PlanePoiseuilleFlow_u2</title>
<g id="a_node19"><a xlink:href="../api/proteus.AnalyticalSolutions.html#proteus.AnalyticalSolutions.PlanePoiseuilleFlow_u2" xlink:title="The exact solution for the u component of &#160;velocity in plane Poiseuille Flow" target="_top">
<polygon fill="none" stroke="black" stroke-width="0.5" points="627,-278 496,-278 496,-259 627,-259 627,-278"/>
<text text-anchor="middle" x="561.5" y="-266" font-family="Vera Sans, DejaVu Sans, Liberation Sans, Arial, Helvetica, sans" font-size="10.00">PlanePoiseuilleFlow_u2</text>
</a>
</g>
</g>
<!-- PlaneBase&#45;&gt;PlanePoiseuilleFlow_u2 -->
<g id="edge17" class="edge">
<title>PlaneBase&#45;&gt;PlanePoiseuilleFlow_u2</title>
<path fill="none" stroke="black" stroke-width="0.5" d="M407.34,-268.5C430.42,-268.5 461.99,-268.5 490.48,-268.5"/>
<polygon fill="black" stroke="black" stroke-width="0.5" points="490.76,-270.25 495.76,-268.5 490.76,-266.75 490.76,-270.25"/>
</g>
<!-- PlanePoiseuilleFlow_v2 -->
<g id="node21" class="node">
<title>PlanePoiseuilleFlow_v2</title>
<g id="a_node21"><a xlink:href="../api/proteus.AnalyticalSolutions.html#proteus.AnalyticalSolutions.PlanePoiseuilleFlow_v2" xlink:title="The exact solution for the v component of &#160;velocity in plane Poiseuille Flow" target="_top">
<polygon fill="none" stroke="black" stroke-width="0.5" points="627,-241 496,-241 496,-222 627,-222 627,-241"/>
<text text-anchor="middle" x="561.5" y="-229" font-family="Vera Sans, DejaVu Sans, Liberation Sans, Arial, Helvetica, sans" font-size="10.00">PlanePoiseuilleFlow_v2</text>
</a>
</g>
</g>
<!-- PlaneBase&#45;&gt;PlanePoiseuilleFlow_v2 -->
<g id="edge19" class="edge">
<title>PlaneBase&#45;&gt;PlanePoiseuilleFlow_v2</title>
<path fill="none" stroke="black" stroke-width="0.5" d="M407.34,-261.89C435.09,-256.38 475.11,-248.44 507.28,-242.06"/>
<polygon fill="black" stroke="black" stroke-width="0.5" points="507.81,-243.74 512.38,-241.05 507.13,-240.3 507.81,-243.74"/>
</g>
<!-- PlanePoiseuilleFlow_w2 -->
<g id="node22" class="node">
<title>PlanePoiseuilleFlow_w2</title>
<g id="a_node22"><a xlink:href="../api/proteus.AnalyticalSolutions.html#proteus.AnalyticalSolutions.PlanePoiseuilleFlow_w2" xlink:title="The exact solution for the v component of &#160;velocity in plane Poiseuille Flow" target="_top">
<polygon fill="none" stroke="black" stroke-width="0.5" points="628.5,-204 494.5,-204 494.5,-185 628.5,-185 628.5,-204"/>
<text text-anchor="middle" x="561.5" y="-192" font-family="Vera Sans, DejaVu Sans, Liberation Sans, Arial, Helvetica, sans" font-size="10.00">PlanePoiseuilleFlow_w2</text>
</a>
</g>
</g>
<!-- PlaneBase&#45;&gt;PlanePoiseuilleFlow_w2 -->
<g id="edge20" class="edge">
<title>PlaneBase&#45;&gt;PlanePoiseuilleFlow_w2</title>
<path fill="none" stroke="black" stroke-width="0.5" d="M407.25,-263.99C419.68,-261.32 433.55,-257.11 445,-250.5 464.87,-239.03 461.05,-224.84 481,-213.5 486.3,-210.49 492.06,-207.95 497.98,-205.81"/>
<polygon fill="black" stroke="black" stroke-width="0.5" points="498.81,-207.38 502.98,-204.11 497.68,-204.07 498.81,-207.38"/>
</g>
</g>
</svg>
