<?xml version="1.0" encoding="UTF-8" standalone="no"?>
<!DOCTYPE svg PUBLIC "-//W3C//DTD SVG 1.1//EN"
 "http://www.w3.org/Graphics/SVG/1.1/DTD/svg11.dtd">
<!-- Generated by graphviz version 2.42.3 (0)
 -->
<!-- Title: inheritance51f61a8c20 Pages: 1 -->
<svg width="456pt" height="101pt"
 viewBox="0.00 0.00 456.00 101.00" xmlns="http://www.w3.org/2000/svg" xmlns:xlink="http://www.w3.org/1999/xlink">
<g id="graph0" class="graph" transform="scale(1 1) rotate(0) translate(4 97)">
<title>inheritance51f61a8c20</title>
<polygon fill="white" stroke="transparent" points="-4,4 -4,-97 452,-97 452,4 -4,4"/>
<!-- TC_base -->
<g id="node1" class="node">
<title>TC_base</title>
<g id="a_node1"><a xlink:href="../proteus.TransportCoefficients.html#proteus.TransportCoefficients.TC_base" xlink:title="This is the base class for coefficients of the vector transport" target="_top">
<polygon fill="none" stroke="black" stroke-width="0.5" points="57,-56 0,-56 0,-37 57,-37 57,-56"/>
<text text-anchor="middle" x="28.5" y="-44" font-family="Vera Sans, DejaVu Sans, Liberation Sans, Arial, Helvetica, sans" font-size="10.00">TC_base</text>
</a>
</g>
</g>
<!-- TwophaseDarcyFlow_base -->
<g id="node2" class="node">
<title>TwophaseDarcyFlow_base</title>
<g id="a_node2"><a xlink:href="../api/proteus.TwophaseDarcyCoefficients.html#proteus.TwophaseDarcyCoefficients.TwophaseDarcyFlow_base" xlink:title="TwophaseDarcyFlow_base" target="_top">
<polygon fill="none" stroke="black" stroke-width="0.5" points="238,-56 93,-56 93,-37 238,-37 238,-56"/>
<text text-anchor="middle" x="165.5" y="-44" font-family="Vera Sans, DejaVu Sans, Liberation Sans, Arial, Helvetica, sans" font-size="10.00">TwophaseDarcyFlow_base</text>
</a>
</g>
</g>
<!-- TC_base&#45;&gt;TwophaseDarcyFlow_base -->
<g id="edge1" class="edge">
<title>TC_base&#45;&gt;TwophaseDarcyFlow_base</title>
<path fill="none" stroke="black" stroke-width="0.5" d="M57.15,-46.5C66.24,-46.5 76.85,-46.5 87.78,-46.5"/>
<polygon fill="black" stroke="black" stroke-width="0.5" points="87.82,-48.25 92.82,-46.5 87.82,-44.75 87.82,-48.25"/>
</g>
<!-- TwophaseDarcy_fc -->
<g id="node3" class="node">
<title>TwophaseDarcy_fc</title>
<g id="a_node3"><a xlink:href="../api/proteus.TwophaseDarcyCoefficients.html#proteus.TwophaseDarcyCoefficients.TwophaseDarcy_fc" xlink:title="TwophaseDarcy_fc" target="_top">
<polygon fill="none" stroke="black" stroke-width="0.5" points="414.5,-93 307.5,-93 307.5,-74 414.5,-74 414.5,-93"/>
<text text-anchor="middle" x="361" y="-81" font-family="Vera Sans, DejaVu Sans, Liberation Sans, Arial, Helvetica, sans" font-size="10.00">TwophaseDarcy_fc</text>
</a>
</g>
</g>
<!-- TwophaseDarcyFlow_base&#45;&gt;TwophaseDarcy_fc -->
<g id="edge2" class="edge">
<title>TwophaseDarcyFlow_base&#45;&gt;TwophaseDarcy_fc</title>
<path fill="none" stroke="black" stroke-width="0.5" d="M216.33,-56.03C243.42,-61.21 276.99,-67.63 304.87,-72.96"/>
<polygon fill="black" stroke="black" stroke-width="0.5" points="304.76,-74.72 310,-73.94 305.42,-71.28 304.76,-74.72"/>
</g>
<!-- TwophaseDarcy_split_pressure -->
<g id="node4" class="node">
<title>TwophaseDarcy_split_pressure</title>
<g id="a_node4"><a xlink:href="../api/proteus.TwophaseDarcyCoefficients.html#proteus.TwophaseDarcyCoefficients.TwophaseDarcy_split_pressure" xlink:title="TwophaseDarcy_split_pressure" target="_top">
<polygon fill="none" stroke="black" stroke-width="0.5" points="444.5,-56 277.5,-56 277.5,-37 444.5,-37 444.5,-56"/>
<text text-anchor="middle" x="361" y="-44" font-family="Vera Sans, DejaVu Sans, Liberation Sans, Arial, Helvetica, sans" font-size="10.00">TwophaseDarcy_split_pressure</text>
</a>
</g>
</g>
<!-- TwophaseDarcyFlow_base&#45;&gt;TwophaseDarcy_split_pressure -->
<g id="edge3" class="edge">
<title>TwophaseDarcyFlow_base&#45;&gt;TwophaseDarcy_split_pressure</title>
<path fill="none" stroke="black" stroke-width="0.5" d="M238,-46.5C249.11,-46.5 260.7,-46.5 272.12,-46.5"/>
<polygon fill="black" stroke="black" stroke-width="0.5" points="272.35,-48.25 277.35,-46.5 272.35,-44.75 272.35,-48.25"/>
</g>
<!-- TwophaseDarcy_split_saturation -->
<g id="node5" class="node">
<title>TwophaseDarcy_split_saturation</title>
<g id="a_node5"><a xlink:href="../api/proteus.TwophaseDarcyCoefficients.html#proteus.TwophaseDarcyCoefficients.TwophaseDarcy_split_saturation" xlink:title="TwophaseDarcy_split_saturation" target="_top">
<polygon fill="none" stroke="black" stroke-width="0.5" points="448,-19 274,-19 274,0 448,0 448,-19"/>
<text text-anchor="middle" x="361" y="-7" font-family="Vera Sans, DejaVu Sans, Liberation Sans, Arial, Helvetica, sans" font-size="10.00">TwophaseDarcy_split_saturation</text>
</a>
</g>
</g>
<!-- TwophaseDarcyFlow_base&#45;&gt;TwophaseDarcy_split_saturation -->
<g id="edge4" class="edge">
<title>TwophaseDarcyFlow_base&#45;&gt;TwophaseDarcy_split_saturation</title>
<path fill="none" stroke="black" stroke-width="0.5" d="M216.33,-36.97C243.42,-31.79 276.99,-25.37 304.87,-20.04"/>
<polygon fill="black" stroke="black" stroke-width="0.5" points="305.42,-21.72 310,-19.06 304.76,-18.28 305.42,-21.72"/>
</g>
</g>
</svg>
