<?xml version="1.0" encoding="UTF-8" standalone="no"?>
<!DOCTYPE svg PUBLIC "-//W3C//DTD SVG 1.1//EN"
 "http://www.w3.org/Graphics/SVG/1.1/DTD/svg11.dtd">
<!-- Generated by graphviz version 2.40.1 (20161225.0304)
 -->
<!-- Title: inheritance0624bf74da Pages: 1 -->
<svg width="576pt" height="474pt"
 viewBox="0.00 0.00 576.00 474.24" xmlns="http://www.w3.org/2000/svg" xmlns:xlink="http://www.w3.org/1999/xlink">
<g id="graph0" class="graph" transform="scale(.9335 .9335) rotate(0) translate(4 504)">
<title>inheritance0624bf74da</title>
<polygon fill="#ffffff" stroke="transparent" points="-4,4 -4,-504 613,-504 613,4 -4,4"/>
<!-- AddedMassNewton -->
<g id="node1" class="node">
<title>AddedMassNewton</title>
<g id="a_node1"><a xlink:href="../api/proteus.NonlinearSolvers.html#proteus.NonlinearSolvers.AddedMassNewton" xlink:title="AddedMassNewton" target="_top">
<polygon fill="none" stroke="#000000" stroke-width=".5" points="511.5,-500 401.5,-500 401.5,-481 511.5,-481 511.5,-500"/>
<text text-anchor="middle" x="456.5" y="-488" font-family="Vera Sans, DejaVu Sans, Liberation Sans, Arial, Helvetica, sans" font-size="10.00" fill="#000000">AddedMassNewton</text>
</a>
</g>
</g>
<!-- Newton -->
<g id="node2" class="node">
<title>Newton</title>
<g id="a_node2"><a xlink:href="../api/proteus.NonlinearSolvers.html#proteus.NonlinearSolvers.Newton" xlink:title="A simple iterative solver that is Newton&#39;s method" target="_top">
<polygon fill="none" stroke="#000000" stroke-width=".5" points="250.5,-259 196.5,-259 196.5,-240 250.5,-240 250.5,-259"/>
<text text-anchor="middle" x="223.5" y="-247" font-family="Vera Sans, DejaVu Sans, Liberation Sans, Arial, Helvetica, sans" font-size="10.00" fill="#000000">Newton</text>
</a>
</g>
</g>
<!-- Newton&#45;&gt;AddedMassNewton -->
<g id="edge1" class="edge">
<title>Newton&#45;&gt;AddedMassNewton</title>
<path fill="none" stroke="#000000" stroke-width=".5" d="M250.8294,-256.221C257.3135,-259.0279 263.6128,-262.9733 268,-268.5 325.2424,-340.6093 237.0639,-409.2861 304,-472.5 328.0939,-495.2541 364.7464,-500.1544 396.0801,-499.1748"/>
<polygon fill="#000000" stroke="#000000" stroke-width=".5" points="396.5395,-500.9071 401.4614,-498.9481 396.3921,-497.4102 396.5395,-500.9071"/>
</g>
<!-- CLSVOFNewton -->
<g id="node3" class="node">
<title>CLSVOFNewton</title>
<g id="a_node3"><a xlink:href="../api/proteus.NonlinearSolvers.html#proteus.NonlinearSolvers.CLSVOFNewton" xlink:title="CLSVOFNewton" target="_top">
<polygon fill="none" stroke="#000000" stroke-width=".5" points="502.5,-463 410.5,-463 410.5,-444 502.5,-444 502.5,-463"/>
<text text-anchor="middle" x="456.5" y="-451" font-family="Vera Sans, DejaVu Sans, Liberation Sans, Arial, Helvetica, sans" font-size="10.00" fill="#000000">CLSVOFNewton</text>
</a>
</g>
</g>
<!-- Newton&#45;&gt;CLSVOFNewton -->
<g id="edge2" class="edge">
<title>Newton&#45;&gt;CLSVOFNewton</title>
<path fill="none" stroke="#000000" stroke-width=".5" d="M250.6895,-256.3342C257.1748,-259.1401 263.5095,-263.0569 268,-268.5 316.3182,-327.0687 247.827,-384.4164 304,-435.5 330.8658,-459.9317 372.3164,-463.4601 405.2252,-461.4128"/>
<polygon fill="#000000" stroke="#000000" stroke-width=".5" points="405.5684,-463.1428 410.43,-461.0387 405.3174,-459.6518 405.5684,-463.1428"/>
</g>
<!-- ExplicitConsistentMassMatrixForVOF -->
<g id="node4" class="node">
<title>ExplicitConsistentMassMatrixForVOF</title>
<g id="a_node4"><a xlink:href="../api/proteus.NonlinearSolvers.html#proteus.NonlinearSolvers.ExplicitConsistentMassMatrixForVOF" xlink:title="This is a fake solver meant to be used with optimized code" target="_top">
<polygon fill="none" stroke="#000000" stroke-width=".5" points="553.5,-426 359.5,-426 359.5,-407 553.5,-407 553.5,-426"/>
<text text-anchor="middle" x="456.5" y="-414" font-family="Vera Sans, DejaVu Sans, Liberation Sans, Arial, Helvetica, sans" font-size="10.00" fill="#000000">ExplicitConsistentMassMatrixForVOF</text>
</a>
</g>
</g>
<!-- Newton&#45;&gt;ExplicitConsistentMassMatrixForVOF -->
<g id="edge3" class="edge">
<title>Newton&#45;&gt;ExplicitConsistentMassMatrixForVOF</title>
<path fill="none" stroke="#000000" stroke-width=".5" d="M250.9421,-256.7152C257.269,-259.5028 263.4646,-263.3154 268,-268.5 307.4733,-313.6235 258.498,-359.4636 304,-398.5 318.0561,-410.5588 335.7134,-417.3985 353.9823,-420.9636"/>
<polygon fill="#000000" stroke="#000000" stroke-width=".5" points="353.9193,-422.7299 359.1488,-421.884 354.5332,-419.2842 353.9193,-422.7299"/>
</g>
<!-- ExplicitConsistentMassMatrixShallowWaterEquationsSolver -->
<g id="node5" class="node">
<title>ExplicitConsistentMassMatrixShallowWaterEquationsSolver</title>
<g id="a_node5"><a xlink:href="../api/proteus.NonlinearSolvers.html#proteus.NonlinearSolvers.ExplicitConsistentMassMatrixShallowWaterEquationsSolver" xlink:title="This is a fake solver meant to be used with optimized code" target="_top">
<polygon fill="none" stroke="#000000" stroke-width=".5" points="609,-389 304,-389 304,-370 609,-370 609,-389"/>
<text text-anchor="middle" x="456.5" y="-377" font-family="Vera Sans, DejaVu Sans, Liberation Sans, Arial, Helvetica, sans" font-size="10.00" fill="#000000">ExplicitConsistentMassMatrixShallowWaterEquationsSolver</text>
</a>
</g>
</g>
<!-- Newton&#45;&gt;ExplicitConsistentMassMatrixShallowWaterEquationsSolver -->
<g id="edge4" class="edge">
<title>Newton&#45;&gt;ExplicitConsistentMassMatrixShallowWaterEquationsSolver</title>
<path fill="none" stroke="#000000" stroke-width=".5" d="M250.5936,-257.0356C256.9272,-259.8171 263.2132,-263.5466 268,-268.5 298.7999,-300.3718 268.9717,-334.3438 304,-361.5 306.6962,-363.5903 309.5039,-365.5166 312.4053,-367.29"/>
<polygon fill="#000000" stroke="#000000" stroke-width=".5" points="311.8319,-368.9789 317.039,-369.9527 313.5757,-365.9442 311.8319,-368.9789"/>
</g>
<!-- ExplicitConsistentMassMatrixWithRedistancing -->
<g id="node6" class="node">
<title>ExplicitConsistentMassMatrixWithRedistancing</title>
<g id="a_node6"><a xlink:href="../api/proteus.NonlinearSolvers.html#proteus.NonlinearSolvers.ExplicitConsistentMassMatrixWithRedistancing" xlink:title="This is a fake solver meant to be used with optimized code" target="_top">
<polygon fill="none" stroke="#000000" stroke-width=".5" points="579,-352 334,-352 334,-333 579,-333 579,-352"/>
<text text-anchor="middle" x="456.5" y="-340" font-family="Vera Sans, DejaVu Sans, Liberation Sans, Arial, Helvetica, sans" font-size="10.00" fill="#000000">ExplicitConsistentMassMatrixWithRedistancing</text>
</a>
</g>
</g>
<!-- Newton&#45;&gt;ExplicitConsistentMassMatrixWithRedistancing -->
<g id="edge5" class="edge">
<title>Newton&#45;&gt;ExplicitConsistentMassMatrixWithRedistancing</title>
<path fill="none" stroke="#000000" stroke-width=".5" d="M250.8646,-258.1502C256.9085,-260.8557 262.9948,-264.2714 268,-268.5 290.6017,-287.595 278.9074,-308.8215 304,-324.5 311.7259,-329.3273 320.1065,-333.1867 328.8293,-336.2504"/>
<polygon fill="#000000" stroke="#000000" stroke-width=".5" points="328.4118,-337.9557 333.7085,-337.8717 329.5155,-334.6342 328.4118,-337.9557"/>
</g>
<!-- ExplicitLumpedMassMatrix -->
<g id="node7" class="node">
<title>ExplicitLumpedMassMatrix</title>
<g id="a_node7"><a xlink:href="../api/proteus.NonlinearSolvers.html#proteus.NonlinearSolvers.ExplicitLumpedMassMatrix" xlink:title="This is a fake solver meant to be used with optimized code" target="_top">
<polygon fill="none" stroke="#000000" stroke-width=".5" points="530,-315 383,-315 383,-296 530,-296 530,-315"/>
<text text-anchor="middle" x="456.5" y="-303" font-family="Vera Sans, DejaVu Sans, Liberation Sans, Arial, Helvetica, sans" font-size="10.00" fill="#000000">ExplicitLumpedMassMatrix</text>
</a>
</g>
</g>
<!-- Newton&#45;&gt;ExplicitLumpedMassMatrix -->
<g id="edge6" class="edge">
<title>Newton&#45;&gt;ExplicitLumpedMassMatrix</title>
<path fill="none" stroke="#000000" stroke-width=".5" d="M246.7574,-259.0046C253.6482,-261.9348 261.1745,-265.2484 268,-268.5 284.333,-276.2808 286.7247,-282.1267 304,-287.5 327.4095,-294.7813 353.6788,-299.1542 377.7327,-301.7685"/>
<polygon fill="#000000" stroke="#000000" stroke-width=".5" points="377.6755,-303.522 382.8301,-302.3001 378.0386,-300.0409 377.6755,-303.522"/>
</g>
<!-- ExplicitLumpedMassMatrixShallowWaterEquationsSolver -->
<g id="node8" class="node">
<title>ExplicitLumpedMassMatrixShallowWaterEquationsSolver</title>
<g id="a_node8"><a xlink:href="../api/proteus.NonlinearSolvers.html#proteus.NonlinearSolvers.ExplicitLumpedMassMatrixShallowWaterEquationsSolver" xlink:title="This is a fake solver meant to be used with optimized code" target="_top">
<polygon fill="none" stroke="#000000" stroke-width=".5" points="603,-278 310,-278 310,-259 603,-259 603,-278"/>
<text text-anchor="middle" x="456.5" y="-266" font-family="Vera Sans, DejaVu Sans, Liberation Sans, Arial, Helvetica, sans" font-size="10.00" fill="#000000">ExplicitLumpedMassMatrixShallowWaterEquationsSolver</text>
</a>
</g>
</g>
<!-- Newton&#45;&gt;ExplicitLumpedMassMatrixShallowWaterEquationsSolver -->
<g id="edge7" class="edge">
<title>Newton&#45;&gt;ExplicitLumpedMassMatrixShallowWaterEquationsSolver</title>
<path fill="none" stroke="#000000" stroke-width=".5" d="M250.6841,-251.7167C271.9355,-253.4497 303.0964,-255.9907 334.7737,-258.5738"/>
<polygon fill="#000000" stroke="#000000" stroke-width=".5" points="334.735,-260.3264 339.8607,-258.9886 335.0195,-256.838 334.735,-260.3264"/>
</g>
<!-- MoveMeshMonitorNewton -->
<g id="node12" class="node">
<title>MoveMeshMonitorNewton</title>
<g id="a_node12"><a xlink:href="../api/proteus.NonlinearSolvers.html#proteus.NonlinearSolvers.MoveMeshMonitorNewton" xlink:title="MoveMeshMonitorNewton" target="_top">
<polygon fill="none" stroke="#000000" stroke-width=".5" points="528,-241 385,-241 385,-222 528,-222 528,-241"/>
<text text-anchor="middle" x="456.5" y="-229" font-family="Vera Sans, DejaVu Sans, Liberation Sans, Arial, Helvetica, sans" font-size="10.00" fill="#000000">MoveMeshMonitorNewton</text>
</a>
</g>
</g>
<!-- Newton&#45;&gt;MoveMeshMonitorNewton -->
<g id="edge9" class="edge">
<title>Newton&#45;&gt;MoveMeshMonitorNewton</title>
<path fill="none" stroke="#000000" stroke-width=".5" d="M250.6841,-247.3999C282.1245,-244.9711 335.2547,-240.8666 379.6576,-237.4363"/>
<polygon fill="#000000" stroke="#000000" stroke-width=".5" points="379.9004,-239.1729 384.7507,-237.0429 379.6307,-235.6833 379.9004,-239.1729"/>
</g>
<!-- NewtonWithL2ProjectionForMassCorrection -->
<g id="node19" class="node">
<title>NewtonWithL2ProjectionForMassCorrection</title>
<g id="a_node19"><a xlink:href="../api/proteus.NonlinearSolvers.html#proteus.NonlinearSolvers.NewtonWithL2ProjectionForMassCorrection" xlink:title="This is a fake solver meant to be used with optimized code" target="_top">
<polygon fill="none" stroke="#000000" stroke-width=".5" points="570,-204 343,-204 343,-185 570,-185 570,-204"/>
<text text-anchor="middle" x="456.5" y="-192" font-family="Vera Sans, DejaVu Sans, Liberation Sans, Arial, Helvetica, sans" font-size="10.00" fill="#000000">NewtonWithL2ProjectionForMassCorrection</text>
</a>
</g>
</g>
<!-- Newton&#45;&gt;NewtonWithL2ProjectionForMassCorrection -->
<g id="edge16" class="edge">
<title>Newton&#45;&gt;NewtonWithL2ProjectionForMassCorrection</title>
<path fill="none" stroke="#000000" stroke-width=".5" d="M248.13,-239.9425C254.6351,-237.3081 261.6195,-234.3801 268,-231.5 284.3044,-224.1403 286.878,-218.6804 304,-213.5 315.2842,-210.0859 327.2165,-207.2843 339.2368,-204.9855"/>
<polygon fill="#000000" stroke="#000000" stroke-width=".5" points="339.7944,-206.6621 344.3921,-204.0308 339.157,-203.2206 339.7944,-206.6621"/>
</g>
<!-- POD_DEIM_Newton -->
<g id="node21" class="node">
<title>POD_DEIM_Newton</title>
<g id="a_node21"><a xlink:href="../api/proteus.NonlinearSolvers.html#proteus.NonlinearSolvers.POD_DEIM_Newton" xlink:title="Newton&#39;s method on the reduced order system based on POD" target="_top">
<polygon fill="none" stroke="#000000" stroke-width=".5" points="511.5,-167 401.5,-167 401.5,-148 511.5,-148 511.5,-167"/>
<text text-anchor="middle" x="456.5" y="-155" font-family="Vera Sans, DejaVu Sans, Liberation Sans, Arial, Helvetica, sans" font-size="10.00" fill="#000000">POD_DEIM_Newton</text>
</a>
</g>
</g>
<!-- Newton&#45;&gt;POD_DEIM_Newton -->
<g id="edge17" class="edge">
<title>Newton&#45;&gt;POD_DEIM_Newton</title>
<path fill="none" stroke="#000000" stroke-width=".5" d="M250.8642,-241.51C256.9082,-238.9384 262.9946,-235.6473 268,-231.5 290.7836,-212.6224 278.9074,-191.1785 304,-175.5 331.1431,-158.5403 366.3668,-153.5289 396.1226,-152.989"/>
<polygon fill="#000000" stroke="#000000" stroke-width=".5" points="396.2468,-154.738 401.2293,-152.9388 396.2123,-151.2381 396.2468,-154.738"/>
</g>
<!-- POD_Newton -->
<g id="node22" class="node">
<title>POD_Newton</title>
<g id="a_node22"><a xlink:href="../api/proteus.NonlinearSolvers.html#proteus.NonlinearSolvers.POD_Newton" xlink:title="Newton&#39;s method on the reduced order system based on POD" target="_top">
<polygon fill="none" stroke="#000000" stroke-width=".5" points="496.5,-130 416.5,-130 416.5,-111 496.5,-111 496.5,-130"/>
<text text-anchor="middle" x="456.5" y="-118" font-family="Vera Sans, DejaVu Sans, Liberation Sans, Arial, Helvetica, sans" font-size="10.00" fill="#000000">POD_Newton</text>
</a>
</g>
</g>
<!-- Newton&#45;&gt;POD_Newton -->
<g id="edge18" class="edge">
<title>Newton&#45;&gt;POD_Newton</title>
<path fill="none" stroke="#000000" stroke-width=".5" d="M250.5813,-242.6045C256.9152,-239.9647 263.2043,-236.3684 268,-231.5 299.1038,-199.9248 268.9717,-165.6562 304,-138.5 334.0991,-115.1652 378.0947,-112.2684 411.1042,-114.266"/>
<polygon fill="#000000" stroke="#000000" stroke-width=".5" points="411.1949,-116.0264 416.3039,-114.6262 411.4368,-112.5347 411.1949,-116.0264"/>
</g>
<!-- PicardNewton -->
<g id="node23" class="node">
<title>PicardNewton</title>
<g id="a_node23"><a xlink:href="../api/proteus.NonlinearSolvers.html#proteus.NonlinearSolvers.PicardNewton" xlink:title="PicardNewton" target="_top">
<polygon fill="none" stroke="#000000" stroke-width=".5" points="498.5,-93 414.5,-93 414.5,-74 498.5,-74 498.5,-93"/>
<text text-anchor="middle" x="456.5" y="-81" font-family="Vera Sans, DejaVu Sans, Liberation Sans, Arial, Helvetica, sans" font-size="10.00" fill="#000000">PicardNewton</text>
</a>
</g>
</g>
<!-- Newton&#45;&gt;PicardNewton -->
<g id="edge19" class="edge">
<title>Newton&#45;&gt;PicardNewton</title>
<path fill="none" stroke="#000000" stroke-width=".5" d="M250.924,-242.9257C257.2512,-240.2797 263.4515,-236.6001 268,-231.5 307.9038,-186.7567 258.498,-140.5364 304,-101.5 332.5213,-77.0314 375.8692,-74.0514 409.0689,-76.3142"/>
<polygon fill="#000000" stroke="#000000" stroke-width=".5" points="409.186,-78.0785 414.3063,-76.7199 409.4564,-74.5889 409.186,-78.0785"/>
</g>
<!-- SSPRKNewton -->
<g id="node24" class="node">
<title>SSPRKNewton</title>
<g id="a_node24"><a xlink:href="../api/proteus.NonlinearSolvers.html#proteus.NonlinearSolvers.SSPRKNewton" xlink:title="Version of Newton for SSPRK so doesn&#39;t refactor unnecessarily" target="_top">
<polygon fill="none" stroke="#000000" stroke-width=".5" points="499.5,-56 413.5,-56 413.5,-37 499.5,-37 499.5,-56"/>
<text text-anchor="middle" x="456.5" y="-44" font-family="Vera Sans, DejaVu Sans, Liberation Sans, Arial, Helvetica, sans" font-size="10.00" fill="#000000">SSPRKNewton</text>
</a>
</g>
</g>
<!-- Newton&#45;&gt;SSPRKNewton -->
<g id="edge20" class="edge">
<title>Newton&#45;&gt;SSPRKNewton</title>
<path fill="none" stroke="#000000" stroke-width=".5" d="M250.668,-243.2969C257.1534,-240.6365 263.4936,-236.857 268,-231.5 316.8771,-173.3969 247.827,-115.5836 304,-64.5 331.6147,-39.3873 374.6386,-36.3594 407.9568,-38.7711"/>
<polygon fill="#000000" stroke="#000000" stroke-width=".5" points="408.0907,-40.5378 413.2169,-39.2023 408.3767,-37.0495 408.0907,-40.5378"/>
</g>
<!-- TwoStageNewton -->
<g id="node25" class="node">
<title>TwoStageNewton</title>
<g id="a_node25"><a xlink:href="../api/proteus.NonlinearSolvers.html#proteus.NonlinearSolvers.TwoStageNewton" xlink:title="Solves a 2 Stage problem via Newton&#39;s solve" target="_top">
<polygon fill="none" stroke="#000000" stroke-width=".5" points="507,-19 406,-19 406,0 507,0 507,-19"/>
<text text-anchor="middle" x="456.5" y="-7" font-family="Vera Sans, DejaVu Sans, Liberation Sans, Arial, Helvetica, sans" font-size="10.00" fill="#000000">TwoStageNewton</text>
</a>
</g>
</g>
<!-- Newton&#45;&gt;TwoStageNewton -->
<g id="edge21" class="edge">
<title>Newton&#45;&gt;TwoStageNewton</title>
<path fill="none" stroke="#000000" stroke-width=".5" d="M250.8056,-243.4105C257.29,-240.7492 263.5952,-236.9409 268,-231.5 325.9306,-159.9424 237.0639,-90.7139 304,-27.5 329.2973,-3.6094 368.4392,.5994 400.7333,-1.0145"/>
<polygon fill="#000000" stroke="#000000" stroke-width=".5" points="400.7586,-2.7691 405.8543,-1.3214 400.968,.7247 400.7586,-2.7691"/>
</g>
<!-- FAS -->
<g id="node9" class="node">
<title>FAS</title>
<g id="a_node9"><a xlink:href="../api/proteus.NonlinearSolvers.html#proteus.NonlinearSolvers.FAS" xlink:title="A generic nonlinear multigrid W cycle using the Full Approximation Scheme (FAS)." target="_top">
<polygon fill="none" stroke="#000000" stroke-width=".5" points="98.5,-240 44.5,-240 44.5,-221 98.5,-221 98.5,-240"/>
<text text-anchor="middle" x="71.5" y="-228" font-family="Vera Sans, DejaVu Sans, Liberation Sans, Arial, Helvetica, sans" font-size="10.00" fill="#000000">FAS</text>
</a>
</g>
</g>
<!-- FasTwoLevel -->
<g id="node10" class="node">
<title>FasTwoLevel</title>
<g id="a_node10"><a xlink:href="../api/proteus.NonlinearSolvers.html#proteus.NonlinearSolvers.FasTwoLevel" xlink:title="A generic nonlinear two&#45;level solver based on the full approximation scheme. (FAS)." target="_top">
<polygon fill="none" stroke="#000000" stroke-width=".5" points="262,-222 185,-222 185,-203 262,-203 262,-222"/>
<text text-anchor="middle" x="223.5" y="-210" font-family="Vera Sans, DejaVu Sans, Liberation Sans, Arial, Helvetica, sans" font-size="10.00" fill="#000000">FasTwoLevel</text>
</a>
</g>
</g>
<!-- NonlinearSolver -->
<g id="node11" class="node">
<title>NonlinearSolver</title>
<g id="a_node11"><a xlink:href="../api/proteus.NonlinearSolvers.html#proteus.NonlinearSolvers.NonlinearSolver" xlink:title="The base class for nonlinear solvers." target="_top">
<polygon fill="none" stroke="#000000" stroke-width=".5" points="119,-166 24,-166 24,-147 119,-147 119,-166"/>
<text text-anchor="middle" x="71.5" y="-154" font-family="Vera Sans, DejaVu Sans, Liberation Sans, Arial, Helvetica, sans" font-size="10.00" fill="#000000">NonlinearSolver</text>
</a>
</g>
</g>
<!-- NonlinearSolver&#45;&gt;Newton -->
<g id="edge14" class="edge">
<title>NonlinearSolver&#45;&gt;Newton</title>
<path fill="none" stroke="#000000" stroke-width=".5" d="M83.4917,-166.2252C102.7593,-181.5298 142.1893,-211.5444 179,-231.5 183.1967,-233.7751 187.7433,-235.9332 192.273,-237.9129"/>
<polygon fill="#000000" stroke="#000000" stroke-width=".5" points="191.878,-239.6462 197.1644,-239.988 193.245,-236.4242 191.878,-239.6462"/>
</g>
<!-- NonlinearSolver&#45;&gt;FasTwoLevel -->
<g id="edge8" class="edge">
<title>NonlinearSolver&#45;&gt;FasTwoLevel</title>
<path fill="none" stroke="#000000" stroke-width=".5" d="M97.6297,-166.1267C124.1086,-175.8821 165.0476,-190.9649 192.9964,-201.2618"/>
<polygon fill="#000000" stroke="#000000" stroke-width=".5" points="192.4145,-202.9124 197.7112,-202.9989 193.6245,-199.6282 192.4145,-202.9124"/>
</g>
<!-- NLGaussSeidel -->
<g id="node14" class="node">
<title>NLGaussSeidel</title>
<g id="a_node14"><a xlink:href="../api/proteus.NonlinearSolvers.html#proteus.NonlinearSolvers.NLGaussSeidel" xlink:title="Nonlinear Gauss&#45;Seidel." target="_top">
<polygon fill="none" stroke="#000000" stroke-width=".5" points="268,-185 179,-185 179,-166 268,-166 268,-185"/>
<text text-anchor="middle" x="223.5" y="-173" font-family="Vera Sans, DejaVu Sans, Liberation Sans, Arial, Helvetica, sans" font-size="10.00" fill="#000000">NLGaussSeidel</text>
</a>
</g>
</g>
<!-- NonlinearSolver&#45;&gt;NLGaussSeidel -->
<g id="edge10" class="edge">
<title>NonlinearSolver&#45;&gt;NLGaussSeidel</title>
<path fill="none" stroke="#000000" stroke-width=".5" d="M119.1767,-162.4596C136.4561,-164.6195 156.015,-167.0644 173.4898,-169.2487"/>
<polygon fill="#000000" stroke="#000000" stroke-width=".5" points="173.6627,-171.0339 178.8412,-169.9177 174.0969,-167.5609 173.6627,-171.0339"/>
</g>
<!-- NLJacobi -->
<g id="node15" class="node">
<title>NLJacobi</title>
<g id="a_node15"><a xlink:href="../api/proteus.NonlinearSolvers.html#proteus.NonlinearSolvers.NLJacobi" xlink:title="Nonlinear Jacobi iteration." target="_top">
<polygon fill="none" stroke="#000000" stroke-width=".5" points="253,-148 194,-148 194,-129 253,-129 253,-148"/>
<text text-anchor="middle" x="223.5" y="-136" font-family="Vera Sans, DejaVu Sans, Liberation Sans, Arial, Helvetica, sans" font-size="10.00" fill="#000000">NLJacobi</text>
</a>
</g>
</g>
<!-- NonlinearSolver&#45;&gt;NLJacobi -->
<g id="edge11" class="edge">
<title>NonlinearSolver&#45;&gt;NLJacobi</title>
<path fill="none" stroke="#000000" stroke-width=".5" d="M119.1767,-150.8541C141.65,-148.1928 167.9791,-145.0748 188.5641,-142.6371"/>
<polygon fill="#000000" stroke="#000000" stroke-width=".5" points="188.9086,-144.3587 193.668,-142.0327 188.4969,-140.883 188.9086,-144.3587"/>
</g>
<!-- NLStarILU -->
<g id="node17" class="node">
<title>NLStarILU</title>
<g id="a_node17"><a xlink:href="../api/proteus.NonlinearSolvers.html#proteus.NonlinearSolvers.NLStarILU" xlink:title="Nonlinear alternating Schwarz on node stars." target="_top">
<polygon fill="none" stroke="#000000" stroke-width=".5" points="255.5,-111 191.5,-111 191.5,-92 255.5,-92 255.5,-111"/>
<text text-anchor="middle" x="223.5" y="-99" font-family="Vera Sans, DejaVu Sans, Liberation Sans, Arial, Helvetica, sans" font-size="10.00" fill="#000000">NLStarILU</text>
</a>
</g>
</g>
<!-- NonlinearSolver&#45;&gt;NLStarILU -->
<g id="edge13" class="edge">
<title>NonlinearSolver&#45;&gt;NLStarILU</title>
<path fill="none" stroke="#000000" stroke-width=".5" d="M97.9764,-146.9197C124.1602,-137.4453 164.2349,-122.9446 192.0313,-112.8867"/>
<polygon fill="#000000" stroke="#000000" stroke-width=".5" points="192.9663,-114.4095 197.0725,-111.0626 191.7753,-111.1183 192.9663,-114.4095"/>
</g>
<!-- NewtonNS -->
<g id="node18" class="node">
<title>NewtonNS</title>
<g id="a_node18"><a xlink:href="../api/proteus.NonlinearSolvers.html#proteus.NonlinearSolvers.NewtonNS" xlink:title="A simple iterative solver that is Newton&#39;s method" target="_top">
<polygon fill="none" stroke="#000000" stroke-width=".5" points="257.5,-74 189.5,-74 189.5,-55 257.5,-55 257.5,-74"/>
<text text-anchor="middle" x="223.5" y="-62" font-family="Vera Sans, DejaVu Sans, Liberation Sans, Arial, Helvetica, sans" font-size="10.00" fill="#000000">NewtonNS</text>
</a>
</g>
</g>
<!-- NonlinearSolver&#45;&gt;NewtonNS -->
<g id="edge15" class="edge">
<title>NonlinearSolver&#45;&gt;NewtonNS</title>
<path fill="none" stroke="#000000" stroke-width=".5" d="M83.5149,-146.9197C102.8143,-131.8399 142.287,-102.2537 179,-82.5 183.2038,-80.2381 187.7543,-78.0872 192.2859,-76.111"/>
<polygon fill="#000000" stroke="#000000" stroke-width=".5" points="193.2574,-77.6 197.1785,-74.038 191.8919,-74.3774 193.2574,-77.6"/>
</g>
<!-- MultilevelNonlinearSolver -->
<g id="node13" class="node">
<title>MultilevelNonlinearSolver</title>
<g id="a_node13"><a xlink:href="../api/proteus.NonlinearSolvers.html#proteus.NonlinearSolvers.MultilevelNonlinearSolver" xlink:title="A generic multilevel solver." target="_top">
<polygon fill="none" stroke="#000000" stroke-width=".5" points="143,-296 0,-296 0,-277 143,-277 143,-296"/>
<text text-anchor="middle" x="71.5" y="-284" font-family="Vera Sans, DejaVu Sans, Liberation Sans, Arial, Helvetica, sans" font-size="10.00" fill="#000000">MultilevelNonlinearSolver</text>
</a>
</g>
</g>
<!-- NLNI -->
<g id="node16" class="node">
<title>NLNI</title>
<g id="a_node16"><a xlink:href="../api/proteus.NonlinearSolvers.html#proteus.NonlinearSolvers.NLNI" xlink:title="Nonlinear nested iteration." target="_top">
<polygon fill="none" stroke="#000000" stroke-width=".5" points="250.5,-296 196.5,-296 196.5,-277 250.5,-277 250.5,-296"/>
<text text-anchor="middle" x="223.5" y="-284" font-family="Vera Sans, DejaVu Sans, Liberation Sans, Arial, Helvetica, sans" font-size="10.00" fill="#000000">NLNI</text>
</a>
</g>
</g>
<!-- MultilevelNonlinearSolver&#45;&gt;NLNI -->
<g id="edge12" class="edge">
<title>MultilevelNonlinearSolver&#45;&gt;NLNI</title>
<path fill="none" stroke="#000000" stroke-width=".5" d="M143.0491,-286.5C159.9194,-286.5 177.0831,-286.5 191.2,-286.5"/>
<polygon fill="#000000" stroke="#000000" stroke-width=".5" points="191.257,-288.2501 196.2569,-286.5 191.2569,-284.7501 191.257,-288.2501"/>
</g>
<!-- NonlinearEquation -->
<g id="node20" class="node">
<title>NonlinearEquation</title>
<g id="a_node20"><a xlink:href="../api/proteus.NonlinearSolvers.html#proteus.NonlinearSolvers.NonlinearEquation" xlink:title="The base class for nonlinear equations." target="_top">
<polygon fill="none" stroke="#000000" stroke-width=".5" points="125,-333 18,-333 18,-314 125,-314 125,-333"/>
<text text-anchor="middle" x="71.5" y="-321" font-family="Vera Sans, DejaVu Sans, Liberation Sans, Arial, Helvetica, sans" font-size="10.00" fill="#000000">NonlinearEquation</text>
</a>
</g>
</g>
</g>
</svg>
