<?xml version="1.0" encoding="UTF-8" standalone="no"?>
<!DOCTYPE svg PUBLIC "-//W3C//DTD SVG 1.1//EN"
 "http://www.w3.org/Graphics/SVG/1.1/DTD/svg11.dtd">
<!-- Generated by graphviz version 2.40.1 (20161225.0304)
 -->
<!-- Title: inheritancee01062b6ab Pages: 1 -->
<svg width="576pt" height="386pt"
 viewBox="0.00 0.00 576.00 386.29" xmlns="http://www.w3.org/2000/svg" xmlns:xlink="http://www.w3.org/1999/xlink">
<g id="graph0" class="graph" transform="scale(.6241 .6241) rotate(0) translate(4 615)">
<title>inheritancee01062b6ab</title>
<polygon fill="#ffffff" stroke="transparent" points="-4,4 -4,-615 919,-615 919,4 -4,4"/>
<!-- AdvectionDiffusionReactionHaukeSangalliInterpolantWithTransientSubScales_ASGS -->
<g id="node1" class="node">
<title>AdvectionDiffusionReactionHaukeSangalliInterpolantWithTransientSubScales_ASGS</title>
<g id="a_node1"><a xlink:href="../api/proteus.SubgridError.html#proteus.SubgridError.AdvectionDiffusionReactionHaukeSangalliInterpolantWithTransientSubScales_ASGS" xlink:title="Should be basic Hauke Sangalli approach but computes terms at interpolation points" target="_top">
<polygon fill="none" stroke="#000000" stroke-width=".5" points="915,-611 493,-611 493,-592 915,-592 915,-611"/>
<text text-anchor="middle" x="704" y="-599" font-family="Vera Sans, DejaVu Sans, Liberation Sans, Arial, Helvetica, sans" font-size="10.00" fill="#000000">AdvectionDiffusionReactionHaukeSangalliInterpolantWithTransientSubScales_ASGS</text>
</a>
</g>
</g>
<!-- AdvectionDiffusionReactionHaukeSangalliInterpolant_ASGS -->
<g id="node2" class="node">
<title>AdvectionDiffusionReactionHaukeSangalliInterpolant_ASGS</title>
<g id="a_node2"><a xlink:href="../api/proteus.SubgridError.html#proteus.SubgridError.AdvectionDiffusionReactionHaukeSangalliInterpolant_ASGS" xlink:title="Should be basic Hauke Sangalli approach but computes terms at interpolation points" target="_top">
<polygon fill="none" stroke="#000000" stroke-width=".5" points="457,-611 151,-611 151,-592 457,-592 457,-611"/>
<text text-anchor="middle" x="304" y="-599" font-family="Vera Sans, DejaVu Sans, Liberation Sans, Arial, Helvetica, sans" font-size="10.00" fill="#000000">AdvectionDiffusionReactionHaukeSangalliInterpolant_ASGS</text>
</a>
</g>
</g>
<!-- AdvectionDiffusionReactionHaukeSangalliInterpolant_ASGS&#45;&gt;AdvectionDiffusionReactionHaukeSangalliInterpolantWithTransientSubScales_ASGS -->
<g id="edge1" class="edge">
<title>AdvectionDiffusionReactionHaukeSangalliInterpolant_ASGS&#45;&gt;AdvectionDiffusionReactionHaukeSangalliInterpolantWithTransientSubScales_ASGS</title>
<path fill="none" stroke="#000000" stroke-width=".5" d="M457.2207,-601.5C467.2608,-601.5 477.4674,-601.5 487.7317,-601.5"/>
<polygon fill="#000000" stroke="#000000" stroke-width=".5" points="487.7746,-603.2501 492.7746,-601.5 487.7746,-599.7501 487.7746,-603.2501"/>
</g>
<!-- SGE_base -->
<g id="node3" class="node">
<title>SGE_base</title>
<g id="a_node3"><a xlink:href="../api/proteus.SubgridError.html#proteus.SubgridError.SGE_base" xlink:title="SGE_base" target="_top">
<polygon fill="none" stroke="#000000" stroke-width=".5" points="90,-315 25,-315 25,-296 90,-296 90,-315"/>
<text text-anchor="middle" x="57.5" y="-303" font-family="Vera Sans, DejaVu Sans, Liberation Sans, Arial, Helvetica, sans" font-size="10.00" fill="#000000">SGE_base</text>
</a>
</g>
</g>
<!-- SGE_base&#45;&gt;AdvectionDiffusionReactionHaukeSangalliInterpolant_ASGS -->
<g id="edge2" class="edge">
<title>SGE_base&#45;&gt;AdvectionDiffusionReactionHaukeSangalliInterpolant_ASGS</title>
<path fill="none" stroke="#000000" stroke-width=".5" d="M90.1338,-309.665C99.4391,-312.4285 108.7395,-316.9896 115,-324.5 189.4138,-413.7701 67.9632,-502.1891 151,-583.5 152.8721,-585.3332 154.8251,-587.0525 156.8499,-588.6639"/>
<polygon fill="#000000" stroke="#000000" stroke-width=".5" points="156.0462,-590.2467 161.104,-591.8218 158.1323,-587.4364 156.0462,-590.2467"/>
</g>
<!-- AdvectionDiffusionReaction_ASGS -->
<g id="node5" class="node">
<title>AdvectionDiffusionReaction_ASGS</title>
<g id="a_node5"><a xlink:href="../api/proteus.SubgridError.html#proteus.SubgridError.AdvectionDiffusionReaction_ASGS" xlink:title="AdvectionDiffusionReaction_ASGS" target="_top">
<polygon fill="none" stroke="#000000" stroke-width=".5" points="395,-574 213,-574 213,-555 395,-555 395,-574"/>
<text text-anchor="middle" x="304" y="-562" font-family="Vera Sans, DejaVu Sans, Liberation Sans, Arial, Helvetica, sans" font-size="10.00" fill="#000000">AdvectionDiffusionReaction_ASGS</text>
</a>
</g>
</g>
<!-- SGE_base&#45;&gt;AdvectionDiffusionReaction_ASGS -->
<g id="edge4" class="edge">
<title>SGE_base&#45;&gt;AdvectionDiffusionReaction_ASGS</title>
<path fill="none" stroke="#000000" stroke-width=".5" d="M90.0309,-309.7518C99.3313,-312.5194 108.6548,-317.061 115,-324.5 179.8666,-400.5489 78.795,-477.3802 151,-546.5 166.2929,-561.1394 186.7559,-568.4468 207.7299,-571.5566"/>
<polygon fill="#000000" stroke="#000000" stroke-width=".5" points="207.5953,-573.304 212.7817,-572.2252 208.0546,-569.8342 207.5953,-573.304"/>
</g>
<!-- AdvectionLag_ASGS -->
<g id="node6" class="node">
<title>AdvectionLag_ASGS</title>
<g id="a_node6"><a xlink:href="../api/proteus.SubgridError.html#proteus.SubgridError.AdvectionLag_ASGS" xlink:title="AdvectionLag_ASGS" target="_top">
<polygon fill="none" stroke="#000000" stroke-width=".5" points="361,-537 247,-537 247,-518 361,-518 361,-537"/>
<text text-anchor="middle" x="304" y="-525" font-family="Vera Sans, DejaVu Sans, Liberation Sans, Arial, Helvetica, sans" font-size="10.00" fill="#000000">AdvectionLag_ASGS</text>
</a>
</g>
</g>
<!-- SGE_base&#45;&gt;AdvectionLag_ASGS -->
<g id="edge5" class="edge">
<title>SGE_base&#45;&gt;AdvectionLag_ASGS</title>
<path fill="none" stroke="#000000" stroke-width=".5" d="M90.1895,-309.9642C99.3843,-312.7449 108.6082,-317.2405 115,-324.5 170.3541,-387.3682 89.5882,-452.5344 151,-509.5 174.819,-531.5945 210.4821,-536.774 241.3861,-536.1162"/>
<polygon fill="#000000" stroke="#000000" stroke-width=".5" points="241.7574,-537.8553 246.6986,-535.9456 241.645,-534.3571 241.7574,-537.8553"/>
</g>
<!-- Advection_ASGS -->
<g id="node7" class="node">
<title>Advection_ASGS</title>
<g id="a_node7"><a xlink:href="../api/proteus.SubgridError.html#proteus.SubgridError.Advection_ASGS" xlink:title="Advection_ASGS" target="_top">
<polygon fill="none" stroke="#000000" stroke-width=".5" points="352.5,-500 255.5,-500 255.5,-481 352.5,-481 352.5,-500"/>
<text text-anchor="middle" x="304" y="-488" font-family="Vera Sans, DejaVu Sans, Liberation Sans, Arial, Helvetica, sans" font-size="10.00" fill="#000000">Advection_ASGS</text>
</a>
</g>
</g>
<!-- SGE_base&#45;&gt;Advection_ASGS -->
<g id="edge6" class="edge">
<title>SGE_base&#45;&gt;Advection_ASGS</title>
<path fill="none" stroke="#000000" stroke-width=".5" d="M90.2838,-310.2408C99.3719,-313.0346 108.5127,-317.4681 115,-324.5 160.9024,-374.2562 100.314,-427.6264 151,-472.5 177.6119,-496.0601 217.8238,-500.0104 250.3451,-498.3612"/>
<polygon fill="#000000" stroke="#000000" stroke-width=".5" points="250.6097,-500.0985 255.4953,-498.0506 250.3989,-496.6048 250.6097,-500.0985"/>
</g>
<!-- DarcyFC_ASGS -->
<g id="node8" class="node">
<title>DarcyFC_ASGS</title>
<g id="a_node8"><a xlink:href="../api/proteus.SubgridError.html#proteus.SubgridError.DarcyFC_ASGS" xlink:title="basic stablization for TwophaseDarcy_fc, no advection term" target="_top">
<polygon fill="none" stroke="#000000" stroke-width=".5" points="348.5,-463 259.5,-463 259.5,-444 348.5,-444 348.5,-463"/>
<text text-anchor="middle" x="304" y="-451" font-family="Vera Sans, DejaVu Sans, Liberation Sans, Arial, Helvetica, sans" font-size="10.00" fill="#000000">DarcyFC_ASGS</text>
</a>
</g>
</g>
<!-- SGE_base&#45;&gt;DarcyFC_ASGS -->
<g id="edge7" class="edge">
<title>SGE_base&#45;&gt;DarcyFC_ASGS</title>
<path fill="none" stroke="#000000" stroke-width=".5" d="M90.2601,-310.6431C99.2401,-313.4507 108.3277,-317.7908 115,-324.5 151.5714,-361.2738 110.9066,-402.6017 151,-435.5 179.3597,-458.7704 221.2515,-462.272 254.0335,-460.5084"/>
<polygon fill="#000000" stroke="#000000" stroke-width=".5" points="254.333,-462.2431 259.2131,-460.1823 254.113,-458.75 254.333,-462.2431"/>
</g>
<!-- FFDarcyFC_ASGS -->
<g id="node9" class="node">
<title>FFDarcyFC_ASGS</title>
<g id="a_node9"><a xlink:href="../api/proteus.SubgridError.html#proteus.SubgridError.FFDarcyFC_ASGS" xlink:title="basic stablization for TwophaseDarcy_fc_ff, only &#39;mixture&#39; equation has advection term" target="_top">
<polygon fill="none" stroke="#000000" stroke-width=".5" points="353.5,-426 254.5,-426 254.5,-407 353.5,-407 353.5,-426"/>
<text text-anchor="middle" x="304" y="-414" font-family="Vera Sans, DejaVu Sans, Liberation Sans, Arial, Helvetica, sans" font-size="10.00" fill="#000000">FFDarcyFC_ASGS</text>
</a>
</g>
</g>
<!-- SGE_base&#45;&gt;FFDarcyFC_ASGS -->
<g id="edge8" class="edge">
<title>SGE_base&#45;&gt;FFDarcyFC_ASGS</title>
<path fill="none" stroke="#000000" stroke-width=".5" d="M90.2901,-311.4391C99.0649,-314.2609 108.0357,-318.4093 115,-324.5 142.531,-348.5774 121.1813,-377.3216 151,-398.5 179.0338,-418.4106 217.4975,-422.8627 248.8452,-422.3613"/>
<polygon fill="#000000" stroke="#000000" stroke-width=".5" points="249.2564,-424.1016 254.2109,-422.2266 249.1685,-420.6027 249.2564,-424.1016"/>
</g>
<!-- HamiltonJacobiDiffusionReaction_ASGS -->
<g id="node10" class="node">
<title>HamiltonJacobiDiffusionReaction_ASGS</title>
<g id="a_node10"><a xlink:href="../api/proteus.SubgridError.html#proteus.SubgridError.HamiltonJacobiDiffusionReaction_ASGS" xlink:title="HamiltonJacobiDiffusionReaction_ASGS" target="_top">
<polygon fill="none" stroke="#000000" stroke-width=".5" points="408,-389 200,-389 200,-370 408,-370 408,-389"/>
<text text-anchor="middle" x="304" y="-377" font-family="Vera Sans, DejaVu Sans, Liberation Sans, Arial, Helvetica, sans" font-size="10.00" fill="#000000">HamiltonJacobiDiffusionReaction_ASGS</text>
</a>
</g>
</g>
<!-- SGE_base&#45;&gt;HamiltonJacobiDiffusionReaction_ASGS -->
<g id="edge9" class="edge">
<title>SGE_base&#45;&gt;HamiltonJacobiDiffusionReaction_ASGS</title>
<path fill="none" stroke="#000000" stroke-width=".5" d="M90.0519,-313.262C98.5403,-316.0727 107.4243,-319.7597 115,-324.5 134.45,-336.6703 130.4218,-351.3532 151,-361.5 164.4698,-368.1418 179.3918,-372.7359 194.4807,-375.8611"/>
<polygon fill="#000000" stroke="#000000" stroke-width=".5" points="194.359,-377.6205 199.6024,-376.8655 195.0326,-374.186 194.359,-377.6205"/>
</g>
<!-- HamiltonJacobi_ASGS -->
<g id="node11" class="node">
<title>HamiltonJacobi_ASGS</title>
<g id="a_node11"><a xlink:href="../api/proteus.SubgridError.html#proteus.SubgridError.HamiltonJacobi_ASGS" xlink:title="HamiltonJacobi_ASGS" target="_top">
<polygon fill="none" stroke="#000000" stroke-width=".5" points="365,-352 243,-352 243,-333 365,-333 365,-352"/>
<text text-anchor="middle" x="304" y="-340" font-family="Vera Sans, DejaVu Sans, Liberation Sans, Arial, Helvetica, sans" font-size="10.00" fill="#000000">HamiltonJacobi_ASGS</text>
</a>
</g>
</g>
<!-- SGE_base&#45;&gt;HamiltonJacobi_ASGS -->
<g id="edge10" class="edge">
<title>SGE_base&#45;&gt;HamiltonJacobi_ASGS</title>
<path fill="none" stroke="#000000" stroke-width=".5" d="M90.2641,-312.8546C108.1479,-316.6928 130.7186,-321.2521 151,-324.5 179.3424,-329.0388 210.8105,-332.9355 237.8025,-335.9308"/>
<polygon fill="#000000" stroke="#000000" stroke-width=".5" points="237.6271,-337.672 242.7886,-336.4796 238.0101,-334.193 237.6271,-337.672"/>
</g>
<!-- HamiltonJacobi_ASGS_opt -->
<g id="node12" class="node">
<title>HamiltonJacobi_ASGS_opt</title>
<g id="a_node12"><a xlink:href="../api/proteus.SubgridError.html#proteus.SubgridError.HamiltonJacobi_ASGS_opt" xlink:title="HamiltonJacobi_ASGS_opt" target="_top">
<polygon fill="none" stroke="#000000" stroke-width=".5" points="375.5,-315 232.5,-315 232.5,-296 375.5,-296 375.5,-315"/>
<text text-anchor="middle" x="304" y="-303" font-family="Vera Sans, DejaVu Sans, Liberation Sans, Arial, Helvetica, sans" font-size="10.00" fill="#000000">HamiltonJacobi_ASGS_opt</text>
</a>
</g>
</g>
<!-- SGE_base&#45;&gt;HamiltonJacobi_ASGS_opt -->
<g id="edge11" class="edge">
<title>SGE_base&#45;&gt;HamiltonJacobi_ASGS_opt</title>
<path fill="none" stroke="#000000" stroke-width=".5" d="M90.2333,-305.5C124.9746,-305.5 181.1005,-305.5 227.1255,-305.5"/>
<polygon fill="#000000" stroke="#000000" stroke-width=".5" points="227.4,-307.2501 232.4,-305.5 227.4,-303.7501 227.4,-307.2501"/>
</g>
<!-- NavierStokesASGS_velocity_pressure -->
<g id="node13" class="node">
<title>NavierStokesASGS_velocity_pressure</title>
<g id="a_node13"><a xlink:href="../api/proteus.SubgridError.html#proteus.SubgridError.NavierStokesASGS_velocity_pressure" xlink:title="NavierStokesASGS_velocity_pressure" target="_top">
<polygon fill="none" stroke="#000000" stroke-width=".5" points="404,-278 204,-278 204,-259 404,-259 404,-278"/>
<text text-anchor="middle" x="304" y="-266" font-family="Vera Sans, DejaVu Sans, Liberation Sans, Arial, Helvetica, sans" font-size="10.00" fill="#000000">NavierStokesASGS_velocity_pressure</text>
</a>
</g>
</g>
<!-- SGE_base&#45;&gt;NavierStokesASGS_velocity_pressure -->
<g id="edge12" class="edge">
<title>SGE_base&#45;&gt;NavierStokesASGS_velocity_pressure</title>
<path fill="none" stroke="#000000" stroke-width=".5" d="M90.292,-298.6325C108.184,-295.0255 130.7536,-290.7023 151,-287.5 171.2291,-284.3004 193.0339,-281.3161 213.6653,-278.7042"/>
<polygon fill="#000000" stroke="#000000" stroke-width=".5" points="214.141,-280.4083 218.8836,-278.0483 213.7044,-276.9356 214.141,-280.4083"/>
</g>
<!-- NavierStokesASGS_velocity_pressure_opt -->
<g id="node14" class="node">
<title>NavierStokesASGS_velocity_pressure_opt</title>
<g id="a_node14"><a xlink:href="../api/proteus.SubgridError.html#proteus.SubgridError.NavierStokesASGS_velocity_pressure_opt" xlink:title="NavierStokesASGS_velocity_pressure_opt" target="_top">
<polygon fill="none" stroke="#000000" stroke-width=".5" points="414.5,-241 193.5,-241 193.5,-222 414.5,-222 414.5,-241"/>
<text text-anchor="middle" x="304" y="-229" font-family="Vera Sans, DejaVu Sans, Liberation Sans, Arial, Helvetica, sans" font-size="10.00" fill="#000000">NavierStokesASGS_velocity_pressure_opt</text>
</a>
</g>
</g>
<!-- SGE_base&#45;&gt;NavierStokesASGS_velocity_pressure_opt -->
<g id="edge13" class="edge">
<title>SGE_base&#45;&gt;NavierStokesASGS_velocity_pressure_opt</title>
<path fill="none" stroke="#000000" stroke-width=".5" d="M69.9917,-295.8686C87.1925,-283.1627 119.6174,-261.1665 151,-250.5 162.8576,-246.4698 175.4917,-243.278 188.2224,-240.7529"/>
<polygon fill="#000000" stroke="#000000" stroke-width=".5" points="188.7137,-242.4408 193.2957,-239.7822 188.0558,-239.0031 188.7137,-242.4408"/>
</g>
<!-- NavierStokesASGS_velocity_pressure_optV2 -->
<g id="node15" class="node">
<title>NavierStokesASGS_velocity_pressure_optV2</title>
<g id="a_node15"><a xlink:href="../api/proteus.SubgridError.html#proteus.SubgridError.NavierStokesASGS_velocity_pressure_optV2" xlink:title="NavierStokesASGS_velocity_pressure_optV2" target="_top">
<polygon fill="none" stroke="#000000" stroke-width=".5" points="420.5,-204 187.5,-204 187.5,-185 420.5,-185 420.5,-204"/>
<text text-anchor="middle" x="304" y="-192" font-family="Vera Sans, DejaVu Sans, Liberation Sans, Arial, Helvetica, sans" font-size="10.00" fill="#000000">NavierStokesASGS_velocity_pressure_optV2</text>
</a>
</g>
</g>
<!-- SGE_base&#45;&gt;NavierStokesASGS_velocity_pressure_optV2 -->
<g id="edge14" class="edge">
<title>SGE_base&#45;&gt;NavierStokesASGS_velocity_pressure_optV2</title>
<path fill="none" stroke="#000000" stroke-width=".5" d="M63.8788,-295.9101C77.3561,-276.5375 110.8168,-232.9321 151,-213.5 160.8213,-208.7505 171.3936,-205.0318 182.2287,-202.1359"/>
<polygon fill="#000000" stroke="#000000" stroke-width=".5" points="182.811,-203.7935 187.2237,-200.8626 181.9464,-200.402 182.811,-203.7935"/>
</g>
<!-- ShallowWater_CFL -->
<g id="node18" class="node">
<title>ShallowWater_CFL</title>
<g id="a_node18"><a xlink:href="../api/proteus.SubgridError.html#proteus.SubgridError.ShallowWater_CFL" xlink:title="ShallowWater_CFL" target="_top">
<polygon fill="none" stroke="#000000" stroke-width=".5" points="357,-167 251,-167 251,-148 357,-148 357,-167"/>
<text text-anchor="middle" x="304" y="-155" font-family="Vera Sans, DejaVu Sans, Liberation Sans, Arial, Helvetica, sans" font-size="10.00" fill="#000000">ShallowWater_CFL</text>
</a>
</g>
</g>
<!-- SGE_base&#45;&gt;ShallowWater_CFL -->
<g id="edge17" class="edge">
<title>SGE_base&#45;&gt;ShallowWater_CFL</title>
<path fill="none" stroke="#000000" stroke-width=".5" d="M61.1926,-295.976C71.2931,-271.351 101.9412,-205.481 151,-176.5 179.2121,-159.834 215.429,-154.7624 245.5438,-154.0076"/>
<polygon fill="#000000" stroke="#000000" stroke-width=".5" points="245.7373,-155.7546 250.7063,-153.9185 245.6768,-152.2551 245.7373,-155.7546"/>
</g>
<!-- StokesASGS_velocity -->
<g id="node20" class="node">
<title>StokesASGS_velocity</title>
<g id="a_node20"><a xlink:href="../api/proteus.SubgridError.html#proteus.SubgridError.StokesASGS_velocity" xlink:title="StokesASGS_velocity" target="_top">
<polygon fill="none" stroke="#000000" stroke-width=".5" points="364,-130 244,-130 244,-111 364,-111 364,-130"/>
<text text-anchor="middle" x="304" y="-118" font-family="Vera Sans, DejaVu Sans, Liberation Sans, Arial, Helvetica, sans" font-size="10.00" fill="#000000">StokesASGS_velocity</text>
</a>
</g>
</g>
<!-- SGE_base&#45;&gt;StokesASGS_velocity -->
<g id="edge18" class="edge">
<title>SGE_base&#45;&gt;StokesASGS_velocity</title>
<path fill="none" stroke="#000000" stroke-width=".5" d="M59.6753,-295.9353C66.8584,-266.766 92.7596,-178.5537 151,-139.5 176.3235,-122.5191 209.4036,-116.8881 238.3237,-115.8685"/>
<polygon fill="#000000" stroke="#000000" stroke-width=".5" points="238.7195,-117.6089 243.6725,-115.7301 238.6289,-114.1101 238.7195,-117.6089"/>
</g>
<!-- StokesASGS_velocity_pressure -->
<g id="node21" class="node">
<title>StokesASGS_velocity_pressure</title>
<g id="a_node21"><a xlink:href="../api/proteus.SubgridError.html#proteus.SubgridError.StokesASGS_velocity_pressure" xlink:title="StokesASGS_velocity_pressure" target="_top">
<polygon fill="none" stroke="#000000" stroke-width=".5" points="387.5,-93 220.5,-93 220.5,-74 387.5,-74 387.5,-93"/>
<text text-anchor="middle" x="304" y="-81" font-family="Vera Sans, DejaVu Sans, Liberation Sans, Arial, Helvetica, sans" font-size="10.00" fill="#000000">StokesASGS_velocity_pressure</text>
</a>
</g>
</g>
<!-- SGE_base&#45;&gt;StokesASGS_velocity_pressure -->
<g id="edge19" class="edge">
<title>SGE_base&#45;&gt;StokesASGS_velocity_pressure</title>
<path fill="none" stroke="#000000" stroke-width=".5" d="M58.6796,-295.8038C63.2939,-262.4777 83.3451,-151.9693 151,-102.5 169.38,-89.0606 192.4388,-82.4548 215.0375,-79.6251"/>
<polygon fill="#000000" stroke="#000000" stroke-width=".5" points="215.3831,-81.3473 220.1548,-79.0466 214.9898,-77.8694 215.3831,-81.3473"/>
</g>
<!-- StokesStabilization_1 -->
<g id="node22" class="node">
<title>StokesStabilization_1</title>
<g id="a_node22"><a xlink:href="../api/proteus.SubgridError.html#proteus.SubgridError.StokesStabilization_1" xlink:title="StokesStabilization_1" target="_top">
<polygon fill="none" stroke="#000000" stroke-width=".5" points="365,-56 243,-56 243,-37 365,-37 365,-56"/>
<text text-anchor="middle" x="304" y="-44" font-family="Vera Sans, DejaVu Sans, Liberation Sans, Arial, Helvetica, sans" font-size="10.00" fill="#000000">StokesStabilization_1</text>
</a>
</g>
</g>
<!-- SGE_base&#45;&gt;StokesStabilization_1 -->
<g id="edge20" class="edge">
<title>SGE_base&#45;&gt;StokesStabilization_1</title>
<path fill="none" stroke="#000000" stroke-width=".5" d="M57.9365,-295.9315C60.1747,-259.1335 73.5452,-125.7903 151,-65.5 175.2597,-46.6164 208.5484,-40.8527 237.8811,-40.2374"/>
<polygon fill="#000000" stroke="#000000" stroke-width=".5" points="237.9496,-41.9868 242.9297,-40.1808 237.9103,-38.4871 237.9496,-41.9868"/>
</g>
<!-- TwophaseStokes_LS_FC_ASGS -->
<g id="node23" class="node">
<title>TwophaseStokes_LS_FC_ASGS</title>
<g id="a_node23"><a xlink:href="../api/proteus.SubgridError.html#proteus.SubgridError.TwophaseStokes_LS_FC_ASGS" xlink:title="TwophaseStokes_LS_FC_ASGS" target="_top">
<polygon fill="none" stroke="#000000" stroke-width=".5" points="385.5,-19 222.5,-19 222.5,0 385.5,0 385.5,-19"/>
<text text-anchor="middle" x="304" y="-7" font-family="Vera Sans, DejaVu Sans, Liberation Sans, Arial, Helvetica, sans" font-size="10.00" fill="#000000">TwophaseStokes_LS_FC_ASGS</text>
</a>
</g>
</g>
<!-- SGE_base&#45;&gt;TwophaseStokes_LS_FC_ASGS -->
<g id="edge21" class="edge">
<title>SGE_base&#45;&gt;TwophaseStokes_LS_FC_ASGS</title>
<path fill="none" stroke="#000000" stroke-width=".5" d="M59.3243,-295.8457C68.0006,-250.9908 106.5186,-63.5978 151,-27.5 169.516,-12.4738 193.6929,-5.7307 217.3416,-3.3238"/>
<polygon fill="#000000" stroke="#000000" stroke-width=".5" points="217.553,-5.062 222.3777,-2.8746 217.242,-1.5759 217.553,-5.062"/>
</g>
<!-- AdvectionDiffusionReactionTransientSubscales_ASGS -->
<g id="node4" class="node">
<title>AdvectionDiffusionReactionTransientSubscales_ASGS</title>
<g id="a_node4"><a xlink:href="../api/proteus.SubgridError.html#proteus.SubgridError.AdvectionDiffusionReactionTransientSubscales_ASGS" xlink:title="track subgrid scales in time with Backward Euler" target="_top">
<polygon fill="none" stroke="#000000" stroke-width=".5" points="841.5,-574 566.5,-574 566.5,-555 841.5,-555 841.5,-574"/>
<text text-anchor="middle" x="704" y="-562" font-family="Vera Sans, DejaVu Sans, Liberation Sans, Arial, Helvetica, sans" font-size="10.00" fill="#000000">AdvectionDiffusionReactionTransientSubscales_ASGS</text>
</a>
</g>
</g>
<!-- AdvectionDiffusionReaction_ASGS&#45;&gt;AdvectionDiffusionReactionTransientSubscales_ASGS -->
<g id="edge3" class="edge">
<title>AdvectionDiffusionReaction_ASGS&#45;&gt;AdvectionDiffusionReactionTransientSubscales_ASGS</title>
<path fill="none" stroke="#000000" stroke-width=".5" d="M395.0163,-564.5C444.0386,-564.5 505.6368,-564.5 560.9094,-564.5"/>
<polygon fill="#000000" stroke="#000000" stroke-width=".5" points="561.238,-566.2501 566.238,-564.5 561.2379,-562.7501 561.238,-566.2501"/>
</g>
<!-- NavierStokesTransientSubScalesASGS_velocity_pressure -->
<g id="node16" class="node">
<title>NavierStokesTransientSubScalesASGS_velocity_pressure</title>
<g id="a_node16"><a xlink:href="../api/proteus.SubgridError.html#proteus.SubgridError.NavierStokesTransientSubScalesASGS_velocity_pressure" xlink:title="NavierStokesTransientSubScalesASGS_velocity_pressure" target="_top">
<polygon fill="none" stroke="#000000" stroke-width=".5" points="850.5,-297 557.5,-297 557.5,-278 850.5,-278 850.5,-297"/>
<text text-anchor="middle" x="704" y="-285" font-family="Vera Sans, DejaVu Sans, Liberation Sans, Arial, Helvetica, sans" font-size="10.00" fill="#000000">NavierStokesTransientSubScalesASGS_velocity_pressure</text>
</a>
</g>
</g>
<!-- NavierStokesASGS_velocity_pressure&#45;&gt;NavierStokesTransientSubScalesASGS_velocity_pressure -->
<g id="edge15" class="edge">
<title>NavierStokesASGS_velocity_pressure&#45;&gt;NavierStokesTransientSubScalesASGS_velocity_pressure</title>
<path fill="none" stroke="#000000" stroke-width=".5" d="M404.1627,-273.2577C448.9083,-275.3831 502.6209,-277.9345 552.1458,-280.2869"/>
<polygon fill="#000000" stroke="#000000" stroke-width=".5" points="552.1556,-282.0393 557.2331,-280.5286 552.3217,-278.5432 552.1556,-282.0393"/>
</g>
<!-- NavierStokesWithBodyForceASGS_velocity_pressure -->
<g id="node17" class="node">
<title>NavierStokesWithBodyForceASGS_velocity_pressure</title>
<g id="a_node17"><a xlink:href="../api/proteus.SubgridError.html#proteus.SubgridError.NavierStokesWithBodyForceASGS_velocity_pressure" xlink:title="NavierStokesWithBodyForceASGS_velocity_pressure" target="_top">
<polygon fill="none" stroke="#000000" stroke-width=".5" points="840.5,-260 567.5,-260 567.5,-241 840.5,-241 840.5,-260"/>
<text text-anchor="middle" x="704" y="-248" font-family="Vera Sans, DejaVu Sans, Liberation Sans, Arial, Helvetica, sans" font-size="10.00" fill="#000000">NavierStokesWithBodyForceASGS_velocity_pressure</text>
</a>
</g>
</g>
<!-- NavierStokesASGS_velocity_pressure&#45;&gt;NavierStokesWithBodyForceASGS_velocity_pressure -->
<g id="edge16" class="edge">
<title>NavierStokesASGS_velocity_pressure&#45;&gt;NavierStokesWithBodyForceASGS_velocity_pressure</title>
<path fill="none" stroke="#000000" stroke-width=".5" d="M404.1627,-263.9927C452.0251,-261.8389 510.1473,-259.2234 562.4296,-256.8707"/>
<polygon fill="#000000" stroke="#000000" stroke-width=".5" points="562.5542,-258.6169 567.4705,-256.6438 562.3968,-255.1205 562.5542,-258.6169"/>
</g>
<!-- SkewStabilization_1 -->
<g id="node19" class="node">
<title>SkewStabilization_1</title>
<g id="a_node19"><a xlink:href="../api/proteus.SubgridError.html#proteus.SubgridError.SkewStabilization_1" xlink:title="SkewStabilization_1" target="_top">
<polygon fill="none" stroke="#000000" stroke-width=".5" points="115,-352 0,-352 0,-333 115,-333 115,-352"/>
<text text-anchor="middle" x="57.5" y="-340" font-family="Vera Sans, DejaVu Sans, Liberation Sans, Arial, Helvetica, sans" font-size="10.00" fill="#000000">SkewStabilization_1</text>
</a>
</g>
</g>
</g>
</svg>
