1300 0 1 0           
7 SimAcis 17 ACIS 22.0.1 Linux 24 Fri Oct 25 12:07:12 2013 
1 9.9999999999999995e-07 1e-10 
body $1 -1 -1 $-1 $2 $-1 $3 T -5 -0.5 -0.50000000000000033 5 0.5 0.50000000000000033 #
string_attrib-name_attrib-gen-attrib $-1 -1 $4 $-1 $0 keep keep_all ignore copy @11 SimCompName @8 cylinder #
lump $5 -1 -1 $-1 $-1 $6 $0 T -5 -0.5 -0.50000000000000033 5 0.5 0.50000000000000033 #
transform $-1 -1 1 0 0 0 1 0 0 0 1 0 0 0 1 no_rotate no_reflect no_shear #
integer_attrib-name_attrib-gen-attrib $-1 -1 $7 $1 $0 keep keep_kept ignore copy @8 CUBIT_ID 1 #
cell_ptr-ct-attrib $-1 -1 $8 $-1 $2 $9 $-1 auto #
shell $-1 -1 -1 $-1 $-1 $-1 $10 $-1 $2 T -5 -0.5 -0.50000000000000033 5 0.5 0.50000000000000033 #
simple-snl-attrib $-1 -1 $11 $4 $0 @17 NEW_SIMPLE_ATTRIB 1 @9 ENTITY_ID 0 3 1 -2147483648 -1 #
integer_attrib-name_attrib-gen-attrib $-1 -1 $12 $5 $2 keep keep_kept ignore copy @8 CUBIT_ID 1 #
cell3d-cell $13 -1 $-1 $2 $-1 1 $14 #
face $15 -1 -1 $-1 $16 $17 $6 $-1 $18 forward single T -5 -0.5 -0.50000000000000033 5 0.5 0.50000000000000033 F #
simple-snl-attrib $-1 -1 $-1 $7 $0 @17 NEW_SIMPLE_ATTRIB 3 @13 MESH_INTERVAL @4 LIMP @4 LIMP 2 1 0 5 1 0 0 0 -2147483648 #
simple-snl-attrib $-1 -1 $19 $8 $2 @17 NEW_SIMPLE_ATTRIB 1 @9 ENTITY_ID 0 3 1 -2147483648 -1 #
integer_attrib-name_attrib-gen-attrib $-1 -1 $20 $-1 $9 keep keep_all ignore copy @9 SCORECTAG 1 #
cshell $-1 -1 $-1 $21 $9 #
integer_attrib-name_attrib-gen-attrib $-1 -1 $22 $-1 $10 keep keep_all ignore copy @9 SCORECTAG 3 #
face $23 -1 -1 $-1 $24 $25 $6 $-1 $26 forward single T 5 -0.5 -0.50000000000000033 5 0.5 0.49999999999999967 F #
loop $-1 -1 -1 $-1 $27 $28 $10 T 5 -0.5 -0.50000000000000033 5 0.5 0.49999999999999967 unknown #
cone-surface $-1 -1 -1 $-1 0 0 0 -1 0 6.1232339957367648e-17 3.0616169978683824e-17 0 0.5 1 I I 0 1 0.5 forward I I I I #
simple-snl-attrib $-1 -1 $29 $12 $2 @17 NEW_SIMPLE_ATTRIB 1 @17 MESH_OUTPUT_GROUP 0 3 1 0 1 #
integer_attrib-name_attrib-gen-attrib $-1 -1 $-1 $13 $9 lose lose ignore lose @6 GS_tag 1 #
cface $-1 -1 $30 $14 $24 0 #
integer_attrib-name_attrib-gen-attrib $-1 -1 $31 $15 $10 lose lose ignore lose @6 GS_tag 3 #
integer_attrib-name_attrib-gen-attrib $-1 -1 $32 $-1 $16 keep keep_all ignore copy @9 SCORECTAG 2 #
face $33 -1 -1 $-1 $-1 $34 $6 $-1 $35 forward single T -5 -0.5 -0.49999999999999967 -5 0.5 0.50000000000000033 F #
loop $-1 -1 -1 $-1 $-1 $36 $16 T 5 -0.5 -0.50000000000000033 5 0.5 0.49999999999999967 unknown #
plane-surface $-1 -1 -1 $-1 5 0 -3.0616169978683826e-16 1 0 -6.1232339957367648e-17 -6.1232339957367648e-17 0 -1 forward_v I I I I #
loop $-1 -1 -1 $-1 $-1 $37 $10 T -5 -0.5 -0.49999999999999967 -5 0.5 0.50000000000000033 unknown #
coedge $-1 -1 -1 $-1 $28 $28 $36 $38 reversed $17 $39 #
simple-snl-attrib $-1 -1 $40 $19 $2 @17 NEW_SIMPLE_ATTRIB 3 @11 MESH_SCHEME @7 tetmesh @4 HARD 3 1 0 0 8 1 0 0 0 1 0 0 0 #
cface $-1 -1 $41 $14 $16 0 #
cface_ptr-ct-attrib $-1 -1 $42 $22 $10 $-1 $41 #
integer_attrib-name_attrib-gen-attrib $-1 -1 $43 $23 $16 lose lose ignore lose @6 GS_tag 2 #
integer_attrib-name_attrib-gen-attrib $-1 -1 $44 $-1 $24 keep keep_all ignore copy @9 SCORECTAG 1 #
loop $-1 -1 -1 $-1 $-1 $45 $24 T -5 -0.5 -0.49999999999999967 -5 0.5 0.50000000000000033 unknown #
plane-surface $-1 -1 -1 $-1 -5 0 3.0616169978683826e-16 -1 0 6.1232339957367648e-17 6.1232339957367648e-17 0 1 forward_v I I I I #
coedge $-1 -1 -1 $-1 $36 $36 $28 $38 forward $25 $46 #
coedge $-1 -1 -1 $-1 $37 $37 $45 $47 reversed $27 $48 #
edge $49 -1 -1 $-1 $50 0 $50 6.2831853071795862 $36 $51 forward @7 unknown T 5 -0.5 -0.50000000000000033 5 0.5 0.49999999999999967 #
pcurve $-1 -1 -1 $-1 0 forward { exppc nubs 1 periodic 2 
	-6.2831853071795862 1 -0 1 
	-10 2.4492935982947059e-16 
	-10 6.2831853071795862 
	0 
	0 
	cone 0 0 0 -1 0 6.1232339957367648e-17 3.0616169978683824e-17 0 0.5 1 I I 0 1 0.5 forward I I I I 
	} 0 0 #
simple-snl-attrib $-1 -1 $52 $29 $2 @17 NEW_SIMPLE_ATTRIB 4 @14 GENESIS_ENTITY @5 Block @6 TETRA4 @0  1 1 6 1 1 0 1 0 0 #
cface $-1 -1 $-1 $14 $10 0 #
integer_attrib-name_attrib-gen-attrib $-1 -1 $53 $31 $10 keep keep_kept ignore copy @8 CUBIT_ID 1 #
cface_ptr-ct-attrib $-1 -1 $54 $32 $16 $-1 $30 #
integer_attrib-name_attrib-gen-attrib $-1 -1 $55 $33 $24 lose lose ignore lose @6 GS_tag 1 #
coedge $-1 -1 -1 $-1 $45 $45 $37 $47 forward $34 $56 #
pcurve $-1 -1 -1 $-1 0 forward { exppc nurbs 2 periodic 5 
	0 2 1.5707963267948966 2 3.1415926535897931 2 4.7123889803846897 2 6.2831853071795862 2 
	-0.5 0 1 
	-0.5 -0.49999999999999994 0.70710678118654724 
	-3.0616169978683836e-17 -0.5 1 
	0.49999999999999989 -0.5 0.70710678118654746 
	0.5 -6.1232339957367648e-17 1 
	0.50000000000000011 0.49999999999999989 0.70710678118654791 
	9.184850993605146e-17 0.5 1 
	-0.49999999999999989 0.50000000000000011 0.70710678118654713 
	-0.5 1.224646799147353e-16 1 
	1e-08 
	-1 
	plane 5 0 -3.0616169978683826e-16 1 0 -6.1232339957367648e-17 -6.1232339957367648e-17 0 -1 forward_v I I I I 
	} 0 0 #
edge $57 -1 -1 $-1 $58 0 $58 6.2831853071795862 $45 $59 forward @7 unknown T -5 -0.5 -0.49999999999999967 -5 0.5 0.50000000000000033 #
pcurve $-1 -1 -1 $-1 0 forward { exppc nubs 1 periodic 2 
	-6.2831853071795862 1 -0 1 
	10 6.2831853071795862 
	10 -2.4492935982947059e-16 
	0 
	0 
	cone 0 0 0 -1 0 6.1232339957367648e-17 3.0616169978683824e-17 0 0.5 1 I I 0 1 0.5 forward I I I I 
	} 0 0 #
integer_attrib-name_attrib-gen-attrib $-1 -1 $60 $-1 $38 keep keep_all ignore copy @9 SCORECTAG 2 #
vertex $61 -1 -1 $-1 $38 $62 #
ellipse-curve $-1 -1 -1 $-1 5 0 -3.0616169978683826e-16 1 0 -6.1232339957367648e-17 3.0616169978683824e-17 0 0.5 1 I I #
simple-snl-attrib $-1 -1 $-1 $40 $2 @17 NEW_SIMPLE_ATTRIB 3 @13 MESH_INTERVAL @4 SOFT @4 LIMP 2 0.45000000000000001 0 5 1 1 0 0 -2147483648 #
simple-snl-attrib $-1 -1 $63 $42 $10 @17 NEW_SIMPLE_ATTRIB 1 @9 ENTITY_ID 0 3 1 -2147483648 -1 #
integer_attrib-name_attrib-gen-attrib $-1 -1 $64 $43 $16 keep keep_kept ignore copy @8 CUBIT_ID 2 #
cface_ptr-ct-attrib $-1 -1 $65 $44 $24 $-1 $21 #
pcurve $-1 -1 -1 $-1 0 forward { exppc nurbs 2 periodic 5 
	0 2 1.5707963267948966 2 3.1415926535897931 2 4.7123889803846897 2 6.2831853071795862 2 
	0.5 0 1 
	0.5 0.49999999999999994 0.70710678118654746 
	3.0616169978683836e-17 0.5 1 
	-0.49999999999999994 0.5 0.70710678118654724 
	-0.5 6.1232339957367648e-17 1 
	-0.5 -0.49999999999999989 0.70710678118654779 
	-9.1848509936051484e-17 -0.5 1 
	0.49999999999999989 -0.50000000000000011 0.70710678118654713 
	0.5 -1.224646799147353e-16 1 
	1e-08 
	-1 
	plane -5 0 3.0616169978683826e-16 -1 0 6.1232339957367648e-17 6.1232339957367648e-17 0 1 forward_v I I I I 
	} 0 0 #
integer_attrib-name_attrib-gen-attrib $-1 -1 $66 $-1 $47 keep keep_all ignore copy @9 SCORECTAG 1 #
vertex $67 -1 -1 $-1 $47 $68 #
ellipse-curve $-1 -1 -1 $-1 -5 0 3.0616169978683826e-16 -1 0 6.1232339957367648e-17 3.0616169978683824e-17 0 0.5 1 I I #
integer_attrib-name_attrib-gen-attrib $-1 -1 $69 $49 $38 lose lose ignore lose @6 GS_tag 2 #
integer_attrib-name_attrib-gen-attrib $-1 -1 $70 $-1 $50 keep keep_all ignore copy @9 SCORECTAG 2 #
point $-1 -1 -1 $-1 5 0 0.49999999999999967 #
simple-snl-attrib $-1 -1 $71 $53 $10 @17 NEW_SIMPLE_ATTRIB 1 @17 MESH_OUTPUT_GROUP 0 3 1 1 1 #
simple-snl-attrib $-1 -1 $72 $54 $16 @17 NEW_SIMPLE_ATTRIB 1 @9 ENTITY_ID 0 3 2 -2147483648 -1 #
integer_attrib-name_attrib-gen-attrib $-1 -1 $73 $55 $24 keep keep_kept ignore copy @8 CUBIT_ID 3 #
integer_attrib-name_attrib-gen-attrib $-1 -1 $74 $57 $47 lose lose ignore lose @6 GS_tag 1 #
integer_attrib-name_attrib-gen-attrib $-1 -1 $75 $-1 $58 keep keep_all ignore copy @9 SCORECTAG 1 #
point $-1 -1 -1 $-1 -5 0 0.50000000000000033 #
integer_attrib-name_attrib-gen-attrib $-1 -1 $76 $60 $38 keep keep_kept ignore copy @8 CUBIT_ID 1 #
integer_attrib-name_attrib-gen-attrib $-1 -1 $77 $61 $50 lose lose ignore lose @6 GS_tag 2 #
simple-snl-attrib $-1 -1 $78 $63 $10 @17 NEW_SIMPLE_ATTRIB 1 @11 VERTEX_TYPE 0 4 0 0 0 0 #
simple-snl-attrib $-1 -1 $79 $64 $16 @17 NEW_SIMPLE_ATTRIB 1 @17 MESH_OUTPUT_GROUP 0 3 1 1 2 #
simple-snl-attrib $-1 -1 $80 $65 $24 @17 NEW_SIMPLE_ATTRIB 1 @9 ENTITY_ID 0 3 3 -2147483648 -1 #
integer_attrib-name_attrib-gen-attrib $-1 -1 $81 $66 $47 keep keep_kept ignore copy @8 CUBIT_ID 2 #
integer_attrib-name_attrib-gen-attrib $-1 -1 $82 $67 $58 lose lose ignore lose @6 GS_tag 1 #
simple-snl-attrib $-1 -1 $83 $69 $38 @17 NEW_SIMPLE_ATTRIB 1 @9 ENTITY_ID 0 3 1 -2147483648 -1 #
integer_attrib-name_attrib-gen-attrib $-1 -1 $84 $70 $50 keep keep_kept ignore copy @8 CUBIT_ID 1 #
simple-snl-attrib $-1 -1 $85 $71 $10 @17 NEW_SIMPLE_ATTRIB 3 @11 MESH_SCHEME @7 trimesh @4 SOFT 3 1 0 0 8 1 0 0 0 1 0 0 0 #
simple-snl-attrib $-1 -1 $86 $72 $16 @17 NEW_SIMPLE_ATTRIB 1 @11 VERTEX_TYPE 0 4 0 0 0 0 #
simple-snl-attrib $-1 -1 $87 $73 $24 @17 NEW_SIMPLE_ATTRIB 1 @17 MESH_OUTPUT_GROUP 0 3 1 1 3 #
simple-snl-attrib $-1 -1 $88 $74 $47 @17 NEW_SIMPLE_ATTRIB 1 @9 ENTITY_ID 0 3 2 -2147483648 -1 #
integer_attrib-name_attrib-gen-attrib $-1 -1 $89 $75 $58 keep keep_kept ignore copy @8 CUBIT_ID 2 #
simple-snl-attrib $-1 -1 $-1 $76 $38 @17 NEW_SIMPLE_ATTRIB 3 @13 MESH_INTERVAL @4 SOFT @4 LIMP 2 0.45000000000000001 0 5 7 1 7 0 -2147483648 #
simple-snl-attrib $-1 -1 $90 $77 $50 @17 NEW_SIMPLE_ATTRIB 1 @9 ENTITY_ID 0 3 1 -2147483648 -1 #
simple-snl-attrib $-1 -1 $91 $78 $10 @17 NEW_SIMPLE_ATTRIB 3 @14 GENESIS_ENTITY @7 SideSet @0  0 8 1 1 0 0 1 0 1 0 #
simple-snl-attrib $-1 -1 $92 $79 $16 @17 NEW_SIMPLE_ATTRIB 3 @11 MESH_SCHEME @7 trimesh @4 SOFT 3 1 0 0 8 1 0 0 0 1 0 0 0 #
simple-snl-attrib $-1 -1 $93 $80 $24 @17 NEW_SIMPLE_ATTRIB 1 @11 VERTEX_TYPE 0 4 0 0 0 0 #
simple-snl-attrib $-1 -1 $-1 $81 $47 @17 NEW_SIMPLE_ATTRIB 3 @13 MESH_INTERVAL @4 SOFT @4 LIMP 2 0.45000000000000001 0 5 7 1 7 0 -2147483648 #
simple-snl-attrib $-1 -1 $94 $82 $58 @17 NEW_SIMPLE_ATTRIB 1 @9 ENTITY_ID 0 3 2 -2147483648 -1 #
simple-snl-attrib $-1 -1 $-1 $84 $50 @17 NEW_SIMPLE_ATTRIB 3 @13 MESH_INTERVAL @4 LIMP @4 LIMP 2 1 0 5 0 0 0 0 -2147483648 #
simple-snl-attrib $-1 -1 $-1 $85 $10 @17 NEW_SIMPLE_ATTRIB 3 @13 MESH_INTERVAL @4 SOFT @4 SOFT 2 0.45000000000000001 0 5 1 1 0 0 22 #
simple-snl-attrib $-1 -1 $95 $86 $16 @17 NEW_SIMPLE_ATTRIB 3 @14 GENESIS_ENTITY @7 SideSet @0  0 8 1 2 0 0 1 0 1 0 #
simple-snl-attrib $-1 -1 $96 $87 $24 @17 NEW_SIMPLE_ATTRIB 3 @11 MESH_SCHEME @7 trimesh @4 SOFT 3 1 0 0 8 1 0 0 0 1 0 0 0 #
simple-snl-attrib $-1 -1 $-1 $89 $58 @17 NEW_SIMPLE_ATTRIB 3 @13 MESH_INTERVAL @4 LIMP @4 LIMP 2 1 0 5 0 0 0 0 -2147483648 #
simple-snl-attrib $-1 -1 $-1 $92 $16 @17 NEW_SIMPLE_ATTRIB 3 @13 MESH_INTERVAL @4 SOFT @4 LIMP 2 0.45000000000000001 0 5 1 1 0 0 1 #
simple-snl-attrib $-1 -1 $97 $93 $24 @17 NEW_SIMPLE_ATTRIB 3 @14 GENESIS_ENTITY @7 SideSet @0  0 8 1 3 0 0 1 0 1 0 #
simple-snl-attrib $-1 -1 $-1 $96 $24 @17 NEW_SIMPLE_ATTRIB 3 @13 MESH_INTERVAL @4 SOFT @4 LIMP 2 0.45000000000000001 0 5 1 1 0 0 1 #
End-of-ACIS-data 