**ABCDEFGHIJKLMNOPQRSTUVWXYZabcdefghijklmnopqrstuvwxyz**************************
**PARASOLID !"#$%&'()*+,-./:;<=>?@[\]^_`{|}~0123456789**************************
**PART1;
MC=SUSE Linux-64;
MC_MODEL=authenticamd family 15 model 4 stepping 2, amd phenom(tm) ii x4 955 processor;
MC_ID=remus;
OS=linux;
OS_RELEASE=2.6.32-5-amd64 #1 smp mon oct 12 05:47:33 utc 2015;
FRU=mdc_ugii_v7.0_djl_can_vrh;
APPL=unigraphics;
SITE=unknown;
USER=zhanga;
FORMAT=text;
GUISE=transmit;
KEY=Floating_Bar_Falling;
FILE=/lore/zhanga/proteus_working_version/proteus_working/proteus/MeshAdaptPUMI/test/floating_bar_scorec_error/simModel/falling_bar/Floating_Bar_Falling.x_t;
DATE=15-jan-2016;
**PART2;
SCH=SCH_2400143_20000;
USFLD_SIZE=0;
**PART3;
**END_OF_HEADER*****************************************************************
T51 : TRANSMIT FILE created by modeller version 240014323 SCH_2400143_20000_1300
6186 0 12 27 CCCCCCCCCCCCCCCCCCCCCCCA16 index_map_offset0 0 1 dA9 index_map82 0
 A17 node_id_index_map82 0 A20 schema_embedding_map82 0 Z1 269 2 3 0 0 0 0 1e3 1
e-8 0 0 0 1 0 1 1 4 5 6 7 8 9 10 0 0 0 0 81 255 1 2 245 11 1 12 0 0 0 13 70 11 C
I9 list_type0 0 1 uI10 notransmit0 0 1 lCCCDCCDI12 finger_index0 0 1 dI12 finger
_block1012 0 CZ3 0 4 T1 0 0 4 20 1 14 14 13 255 4 91 0 1 15 16 0 0 17 0 50 255 5
 90 0 16 18 0 0 +1 -275536429610035e-32 1 0 1 275536429610035e-32 0 -27553642961
0035e-32 1 30 255 6 86 0 19 20 0 0 +1 -275536429610035e-32 1 -1 0 0 29 255 7 67
 0 21 22 0 0 1 1 19 255 8 1 0 1 17 0 23 V16 255 9 73 0 ?24 0 25 20 0 0 1 18 255
 10 15 0 26 0 27 28 ?1 17 255 26 0 29 30 31 10 32 33 0 34 +18 27 10 0 31 10 35 3
6 ?1 29 28 17 0 10 36 37 1 1 1 29 36 12 0 27 38 28 1 1 173587950654322e-30 29 37
 70 0 39 28 40 0 -275536429610035e-32 1 18 39 60 0 41 42 43 37 ?1 29 40 69 0 42
 37 22 0 0 0 18 42 58 0 44 45 39 40 ?1 29 22 68 0 45 40 7 0 1 173587950654322e-3
0 18 45 56 0 46 21 42 22 ?1 17 46 0 47 48 24 45 44 49 0 50 +18 21 54 0 51 52 45
 7 ?1 17 51 0 53 34 50 21 54 55 0 56 +18 52 2 0 30 35 21 57 ?1 17 30 0 29 58 26
 52 59 60 0 61 +18 35 5 0 62 27 52 38 ?1 29 57 4 0 52 63 38 1 -275536429610035e-
32 1 29 63 205 0 64 65 57 .665 .665 .95 29 38 7 0 35 57 36 1 0 0 18 64 152 0 66
 67 68 63 ?1 29 65 206 0 68 69 63 .665 .665 .75 18 68 151 0 70 64 71 65 ?1 29 69
 207 0 71 72 65 .335 .665 .75 18 71 146 0 73 68 74 69 ?1 29 72 208 0 74 75 69 .3
35 .665 .95 18 74 153 0 76 71 0 72 ?1 29 75 209 0 43 77 72 .665 .335 .95 18 43 1
48 0 78 39 79 75 ?1 29 77 210 0 79 80 75 .665 .335 .75 18 79 147 0 81 43 82 77 ?
1 29 80 211 0 82 83 77 .335 .335 .75 18 82 150 0 84 79 67 80 ?1 29 83 212 0 67 0
 80 .335 .335 .95 18 67 149 0 85 82 64 83 ?1 17 85 0 86 87 88 67 89 90 0 91 -15
 255 86 173 0 92 93 0 17 87 0 86 92 85 74 91 94 0 95 -17 88 0 86 85 92 43 96 97
 0 89 +17 89 0 98 99 100 43 85 90 0 0 +16 90 134 0 ?89 94 101 102 0 0 1 17 91 0
 103 104 95 67 87 94 0 100 +15 103 158 0 95 105 0 17 104 0 103 106 91 82 100 107
 0 108 -17 95 0 103 91 106 74 109 110 0 0 +16 94 136 0 ?91 97 90 111 0 0 1 17 10
0 0 98 89 84 67 104 107 0 0 +15 98 178 0 100 112 0 17 84 0 98 100 99 82 81 113 0
 104 +16 107 122 0 ?100 113 114 115 0 0 1 16 113 126 0 ?84 101 107 116 0 0 1 16
 114 144 0 ?92 107 117 118 0 0 1 30 115 204 0 107 0 116 0 -.335 .335 .95 -555111
512312579e-30 0 -1 30 116 203 0 113 115 119 0 -.335 .335 .75 1 0 -10092936587501
42e-30 30 119 202 0 101 116 102 0 -.665 .335 .75 0 0 1 16 101 130 0 ?99 90 113 1
19 0 0 1 30 102 201 0 90 119 120 0 -.665 .335 .95 -1 0 336431219583381e-30 30 12
0 200 0 110 102 121 0 -.335 .665 .95 -555111512312579e-30 0 -1 16 110 138 0 ?95
 122 0 120 0 0 1 30 121 199 0 122 120 123 0 -.335 .665 .75 1 0 -1009293658750142
e-30 16 122 140 0 ?73 117 110 121 0 0 1 30 123 198 0 117 121 118 0 -.665 .665 .7
5 0 0 1 16 117 142 0 ?124 114 122 123 0 0 1 30 118 197 0 114 123 125 0 -.665 .66
5 .95 -1 0 336431219583381e-30 30 125 196 0 97 118 126 0 -.665 .335 .95 0 1 0 16
 97 132 0 ?88 127 94 125 0 0 1 30 126 195 0 127 125 128 0 -.665 .335 .75 0 1 0 1
6 127 128 0 ?129 130 97 126 0 0 1 30 128 194 0 130 126 111 0 -.335 .335 .75 0 1
 0 16 130 124 0 ?108 131 127 128 0 0 1 30 111 193 0 94 128 132 0 -.335 .335 .95
 0 1 0 30 132 9 0 133 111 134 0 +1 -275536429610035e-32 1 0 275536429610035e-32
 -1 16 133 6 0 ?58 135 136 132 0 0 1 30 134 14 0 135 132 137 0 +1 0 0 0 1 173587
950654322e-30 16 135 11 0 ?31 33 133 134 0 0 1 30 137 19 0 33 134 138 0 +1 1 227
373675443232e-30 0 0 1 16 33 16 0 ?26 60 135 137 0 0 1 30 138 22 0 60 137 139 0
 +1 1 1 0 -1 -2220446049250315e-31 16 60 20 0 ?30 19 33 138 0 0 1 30 139 66 0 13
1 138 140 0 +0 -275536429610035e-32 1 0 275536429610035e-32 -1 16 131 52 0 ?141
 49 130 139 0 0 1 30 140 65 0 49 139 142 0 +0 0 0 0 1 173587950654322e-30 16 49
 50 0 ?46 55 131 140 0 0 1 30 142 64 0 55 140 143 0 +0 1 227373675443232e-30 0 0
 1 16 55 48 0 ?51 136 49 142 0 0 1 30 143 63 0 136 142 144 0 +0 1 1 0 -1 -222044
6049250315e-31 16 136 46 0 ?41 133 55 143 0 0 1 30 144 83 0 145 143 146 0 +1 1 1
 -1 0 0 16 145 71 0 ?56 25 19 144 0 0 1 30 146 84 0 25 144 20 0 +1 1 17358795065
4322e-30 -1 0 0 16 25 72 0 ?50 9 145 146 0 0 1 30 20 85 0 9 146 6 0 +1 0 0 -1 0
 0 17 50 0 53 51 32 45 48 25 0 54 +15 53 77 0 51 147 0 17 32 0 53 50 34 27 26 33
 0 0 -17 48 0 47 62 46 27 50 25 0 32 -17 54 0 148 44 149 45 51 55 0 0 -15 148 45
 0 150 151 0 17 44 0 148 150 54 42 46 49 0 24 -17 149 0 148 54 150 21 41 136 0 0
 -17 150 0 148 149 44 39 141 131 0 0 -17 41 0 152 61 56 39 149 136 0 153 +15 152
 75 0 41 154 0 17 61 0 152 59 41 52 153 19 0 155 -17 56 0 152 41 59 21 34 145 0
 149 +17 153 0 156 141 155 39 61 19 0 150 +15 156 81 0 141 16 0 17 141 0 156 157
 153 42 150 131 0 0 +17 155 0 156 153 157 52 58 133 0 0 -16 19 74 0 ?153 145 60
 6 0 0 1 17 157 0 156 155 141 35 24 9 0 0 -17 58 0 29 31 30 35 155 133 0 157 +15
 29 23 0 58 158 0 17 31 0 29 26 58 27 62 135 0 48 +17 62 0 47 24 48 35 31 135 0
 58 -15 47 79 0 46 159 0 17 24 0 47 46 62 42 157 9 0 141 +14 255 159 80 160 ?147
 16 47 4 18 -0 0 147 16 23 81 1 160 249 161 159 162 0 163 164 165 14 147 78 164
 ?154 159 53 4 166 -0 0 154 159 23 14 16 82 163 ?159 0 156 4 5 -0 0 159 0 23 50
 18 89 0 159 166 5 0 +1 0 0 0 -173587950654322e-30 1 0 -1 -173587950654322e-30 1
3 23 3 0 0 0 0 0 0 8 16 50 166 88 0 147 167 18 0 +1 1 227373675443232e-30 0 -1 0
 0 0 -1 50 167 87 0 154 168 166 0 +1 1 1 0 2220446049250315e-31 -1 0 1 222044604
9250315e-31 14 154 76 169 ?158 147 152 4 167 -0 0 158 147 23 50 168 62 0 151 170
 167 0 +0 0 0 1 0 0 0 0 -1 14 151 42 171 ?0 158 148 4 168 -0 0 0 158 23 50 170 2
5 0 158 172 168 0 +1 0 0 1 0 0 0 0 -1 14 158 24 173 ?151 154 29 4 170 +0 0 151 1
54 23 50 172 187 0 105 174 170 0 +.335 .335 .95 1 0 -555111512312579e-30 -555111
512312579e-30 0 -1 14 105 154 175 ?176 0 103 15 172 +0 0 176 0 177 50 174 188 0
 176 178 172 0 +.335 .335 .75 1009293658750142e-30 0 1 1 0 -1009293658750142e-30
 14 176 159 179 ?180 105 181 15 174 +0 0 180 105 177 50 178 189 0 180 182 174 0
 +.665 .335 .75 -1 0 0 0 0 1 14 180 164 183 ?93 176 184 15 178 +0 0 93 176 177 5
0 182 190 0 93 185 178 0 +.665 .335 .95 -336431219583381e-30 0 -1 -1 0 336431219
583381e-30 14 93 169 186 ?112 180 86 15 182 +0 0 112 180 177 50 185 191 0 187 18
8 182 0 +0 .665 0 0 -1 0 0 0 -1 14 187 179 189 ?0 112 190 15 185 +0 0 0 112 177
 50 188 192 0 112 0 185 0 +0 .335 0 0 -1 0 0 0 -1 14 112 174 191 ?187 93 98 15 1
88 -0 0 187 93 177 81 1 191 267 161 112 192 0 186 189 193 13 15 120 0 1 0 105 0
 0 17 0 13 177 185 0 0 0 0 0 0 194 105 19 194 184 0 1 0 17 177 V19 17 92 0 1 194
 8 4 S80 255 1 161 0 195 8001 0 0 0 0 3 5 0 0 0 FFFFTFTFFFFFFF2 81 1 192 266 196
 112 0 191 197 198 199 81 1 186 265 161 93 197 0 183 191 200 81 1 189 269 161 18
7 198 0 191 0 201 83 255 3 193 .5960784 .6666667 .6862745 81 1 198 268 196 187 0
 189 192 0 202 83 3 201 .5960784 .6666667 .6862745 80 1 196 203 204 8015 0 0 0 0
 3 5 0 0 0 FFFFTFFFFFFFFF2 83 1 202 0 79 255 21 204 SDL/TYSA_TRANSLUCENCY81 1 19
7 264 196 93 0 186 205 192 206 81 1 183 263 161 180 205 0 179 186 207 83 3 200 .
5960784 .6666667 .6862745 81 1 205 262 196 180 0 183 208 197 209 81 1 179 261 16
1 176 208 0 175 183 210 83 3 207 .5960784 .6666667 .6862745 81 1 208 260 196 176
 0 179 211 205 212 81 1 175 259 161 105 211 0 171 179 213 83 3 210 .5960784 .666
6667 .6862745 81 1 211 258 196 105 0 175 214 208 215 81 1 171 257 161 151 214 0
 173 175 216 83 3 213 .5960784 .6666667 .6862745 81 1 214 256 196 151 0 171 217
 211 218 81 1 173 255 161 158 217 0 169 171 219 83 3 216 .5960784 .6666667 .6862
745 81 1 217 254 196 158 0 173 220 214 221 81 1 169 253 161 154 220 0 164 173 22
2 83 3 219 .5960784 .6666667 .6862745 81 1 220 252 196 154 0 169 223 217 224 81
 1 164 251 161 147 223 0 160 169 225 83 3 222 .5960784 .6666667 .6862745 81 1 22
3 250 196 147 0 164 162 220 226 83 3 225 .5960784 .6666667 .6862745 81 1 162 248
 196 159 0 160 227 223 228 83 1 226 0 81 1 227 246 196 16 0 163 0 162 229 83 1 2
28 0 81 1 163 247 161 16 227 0 0 160 230 83 1 229 0 83 3 230 .5960784 .6666667 .
6862745 83 1 224 0 83 1 221 0 83 1 218 0 83 1 215 0 83 1 212 0 83 1 209 0 83 1 2
06 0 83 1 199 0 79 15 195 SDL/TYSA_COLOUR15 190 183 0 109 187 0 17 109 0 190 70
 76 71 95 110 0 0 -17 70 0 190 66 109 68 73 122 0 231 -17 76 0 190 109 66 74 92
 114 0 87 -17 66 0 190 76 70 64 124 117 0 96 -17 92 0 86 88 87 64 76 114 0 0 +17
 124 0 184 129 96 68 66 117 0 0 +17 96 0 184 124 78 64 88 97 0 92 -15 184 168 0
 124 180 0 17 78 0 184 96 129 43 99 101 0 88 -17 129 0 184 78 124 79 231 127 0 9
9 +17 99 0 98 84 89 79 78 101 0 0 +17 231 0 181 73 81 68 129 127 0 124 -15 181 1
63 0 73 176 0 17 73 0 181 108 231 71 70 122 0 106 +17 81 0 181 231 108 79 84 113
 0 129 -17 108 0 181 81 73 82 106 130 0 0 +17 106 0 103 95 104 71 108 130 0 109
 -83 3 165 .5960784 .6666667 .6862745 17 59 0 152 56 61 10 30 60 0 0 -17 34 0 53
 32 51 10 56 145 0 59 -74 4 CI16 index_map_offset0 0 1 dCCZ20 14 4 0 0 12 2 198
 189 0 0 0 0 0 0 0 0 0 0 0 0 0 0 0 0 81 2 12 243 232 1 0 2 0 0 233 234 80 2 232
 235 236 8004 0 0 0 0 3 5 0 0 0 FFTFFFFFFFFFFF2 3 83 1 233 7830.64 84 255 8 234
 Kg/Cu M 79 16 236 SDL/TYSA_DENSITY80 1 11 237 238 9000 0 0 0 0 3 5 0 0 0 FFTFFF
FFFFFFFF1 82 255 1 13 8 79 7 238 body_id1 0 
