<?xml version="1.0" encoding="UTF-8" standalone="no"?>
<!-- Created with Inkscape (http://www.inkscape.org/) -->

<svg
   xmlns:dc="http://purl.org/dc/elements/1.1/"
   xmlns:cc="http://creativecommons.org/ns#"
   xmlns:rdf="http://www.w3.org/1999/02/22-rdf-syntax-ns#"
   xmlns:svg="http://www.w3.org/2000/svg"
   xmlns="http://www.w3.org/2000/svg"
   xmlns:sodipodi="http://sodipodi.sourceforge.net/DTD/sodipodi-0.dtd"
   xmlns:inkscape="http://www.inkscape.org/namespaces/inkscape"
   width="9.0637732mm"
   height="6.7733335mm"
   viewBox="0 0 32.115732 24.000001"
   id="svg4733"
   version="1.1"
   inkscape:version="0.91 r13725"
   sodipodi:docname="corps_logo_cross_24.svg">
  <defs
     id="defs4735" />
  <sodipodi:namedview
     id="base"
     pagecolor="#ffffff"
     bordercolor="#666666"
     borderopacity="1.0"
     inkscape:pageopacity="0.0"
     inkscape:pageshadow="2"
     inkscape:zoom="0.35"
     inkscape:cx="-977.51331"
     inkscape:cy="249.14286"
     inkscape:document-units="px"
     inkscape:current-layer="layer1"
     showgrid="false"
     inkscape:window-width="1869"
     inkscape:window-height="1056"
     inkscape:window-x="51"
     inkscape:window-y="24"
     inkscape:window-maximized="1"
     fit-margin-top="0"
     fit-margin-left="0"
     fit-margin-right="0"
     fit-margin-bottom="0" />
  <metadata
     id="metadata4738">
    <rdf:RDF>
      <cc:Work
         rdf:about="">
        <dc:format>image/svg+xml</dc:format>
        <dc:type
           rdf:resource="http://purl.org/dc/dcmitype/StillImage" />
        <dc:title></dc:title>
      </cc:Work>
    </rdf:RDF>
  </metadata>
  <g
     inkscape:label="Layer 1"
     inkscape:groupmode="layer"
     id="layer1"
     transform="translate(-435.37046,-757.50506)">
    <path
       d="m 438.88353,781.50474 c -2.24773,0.0268 -3.58915,-1.62809 -3.50973,-3.40357 l 0.005,-17.80878 c -0.0807,-2.11262 1.44251,-2.66599 3.25339,-2.66427 l 25.51357,-0.12306 c 2.07723,0.0116 3.33352,0.33278 3.28949,3.02557 l 0.0365,17.39285 c 0.17526,2.10097 -1.26833,3.44336 -3.03864,3.40969 z m 25.636,-2.23713 c 0.9458,-0.0436 1.05918,-0.61008 0.98666,-1.23039 l 10e-4,-17.69742 c 0.003,-1.05718 -0.28973,-1.04541 -1.17984,-1.06224 l -25.66827,0.1295 c -0.56333,0.0458 -1.26484,0.11409 -1.19405,0.8829 l 0.19387,17.74384 c 0.0354,0.88191 0.2811,1.2692 1.18978,1.28604 z"
       style="fill:#ff0000;fill-opacity:1;fill-rule:nonzero;stroke:none;stroke-width:0.29059401;stroke-linecap:butt;stroke-linejoin:miter;stroke-miterlimit:4;stroke-dasharray:none;stroke-opacity:1"
       id="path30"
       inkscape:connector-curvature="0"
       sodipodi:nodetypes="cccccccccccccccccc" />
    <path
       style="color:#000000;display:inline;overflow:visible;visibility:visible;fill:#ff0000;fill-opacity:1;fill-rule:nonzero;stroke:#000000;stroke-width:0;stroke-linecap:round;stroke-linejoin:bevel;stroke-miterlimit:4;stroke-dasharray:none;stroke-dashoffset:0;stroke-opacity:1;marker:none;enable-background:accumulate"
       d="m 439.45938,760.33023 c -0.41591,0 -0.75544,0.33953 -0.75544,0.75544 l 0,16.32814 c 0,0.41591 0.33953,0.75543 0.75544,0.75543 l 24.2386,0 c 0.41591,0 0.74464,-0.33952 0.74464,-0.75543 l 0,-16.32814 c 0,-0.41591 -0.32873,-0.75544 -0.74464,-0.75544 l -24.2386,0 z m 22.83565,1.80225 c -2.52769,4.25949 -3.77164,7.49833 -4.64051,12.69127 l -4.35993,0.0108 0.0324,2.43897 -2.46055,0.0108 -0.0755,-2.47134 -4.09013,0.0324 c -0.87426,-5.03576 -2.71029,-8.96296 -5.52546,-12.6589 1.9134,1.61492 3.91623,3.03864 6.07584,4.02538 l -2.46055,-0.45326 3.31311,7.14423 2.62243,0.0216 c 0.44779,-2.61611 0.64203,-5.01391 0.0756,-7.47878 l -1.81304,0.43167 c 1.4289,-1.08033 2.64716,-2.38299 3.0649,-3.69083 0.43094,1.35743 1.47543,2.66174 2.89223,3.76637 l -1.82383,-0.47484 c -0.63539,2.46113 -0.63963,4.81942 0.0648,7.38166 l 3.14044,0.0216 2.51451,-6.71256 c -0.0527,-0.006 -1.99792,0.25286 -2.20154,0.22663 2.23752,-1.05856 3.70824,-2.26686 5.65495,-4.2628 z"
       id="rect3775"
       inkscape:connector-curvature="0" />
    <path
       style="fill:none;stroke:#000000;stroke-width:0;stroke-linecap:round;stroke-linejoin:bevel;stroke-miterlimit:4;stroke-dasharray:none;stroke-opacity:1"
       d="m 445.37862,774.30874 c -0.0376,-0.0996 -3.05534,-10.19675 -3.05534,-10.22304 0,-0.0156 0.4302,0.18681 0.95599,0.44985 l 0.956,0.47826 1.13079,3.64201 1.1308,3.64201 0.42462,0.0218 c 0.23354,0.012 0.84691,0.0335 1.36304,0.0477 l 0.93843,0.0259 -0.001,-0.22647 c -5.6e-4,-0.12455 -0.063,-1.76935 -0.13883,-3.65511 l -0.13783,-3.42866 0.73446,-0.92384 0.73445,-0.92384 0.0602,0.0983 c 0.0331,0.0541 0.31205,0.50483 0.61986,1.0017 l 0.55964,0.90341 0,3.54332 0,3.54333 0.86692,-0.0231 c 0.47681,-0.0127 1.18341,-0.0331 1.57021,-0.0454 l 0.70329,-0.0223 1.0047,-2.98922 c 0.55259,-1.64407 1.09645,-3.25616 1.20859,-3.58241 l 0.20388,-0.59318 1.50013,-0.82697 c 0.82507,-0.45483 1.50355,-0.82334 1.50774,-0.81892 0.004,0.004 -0.37321,2.43669 -0.83866,5.40503 l -0.84627,5.39699 -0.1245,0.0251 c -0.0685,0.0138 -2.73868,0.0429 -5.9338,0.0646 -7.23188,0.0492 -7.07626,0.0494 -7.09753,-0.007 z"
       id="path3792"
       inkscape:connector-curvature="0" />
    <path
       style="fill:none;stroke:#000000;stroke-width:0;stroke-linecap:round;stroke-linejoin:bevel;stroke-miterlimit:4;stroke-dasharray:none;stroke-opacity:1"
       d="m 445.37862,774.30874 c -0.0376,-0.0996 -3.05534,-10.19675 -3.05534,-10.22304 0,-0.0156 0.4302,0.18681 0.95599,0.44985 l 0.956,0.47826 1.13079,3.64201 1.1308,3.64201 0.42462,0.0218 c 0.23354,0.012 0.84691,0.0335 1.36304,0.0477 l 0.93843,0.0259 -0.001,-0.22647 c -5.6e-4,-0.12455 -0.063,-1.76935 -0.13883,-3.65511 l -0.13783,-3.42866 0.73446,-0.92384 0.73445,-0.92384 0.0602,0.0983 c 0.0331,0.0541 0.31205,0.50483 0.61986,1.0017 l 0.55964,0.90341 0,3.54332 0,3.54333 0.86692,-0.0231 c 0.47681,-0.0127 1.18341,-0.0331 1.57021,-0.0454 l 0.70329,-0.0223 1.0047,-2.98922 c 0.55259,-1.64407 1.09645,-3.25616 1.20859,-3.58241 l 0.20388,-0.59318 1.50013,-0.82697 c 0.82507,-0.45483 1.50355,-0.82334 1.50774,-0.81892 0.004,0.004 -0.37321,2.43669 -0.83866,5.40503 l -0.84627,5.39699 -0.1245,0.0251 c -0.0685,0.0138 -2.73868,0.0429 -5.9338,0.0646 -7.23188,0.0492 -7.07626,0.0494 -7.09753,-0.007 z"
       id="path3794"
       inkscape:connector-curvature="0" />
    <path
       style="fill:none;stroke:#000000;stroke-width:0;stroke-linecap:round;stroke-linejoin:bevel;stroke-miterlimit:4;stroke-dasharray:none;stroke-opacity:1"
       d="m 445.37862,774.30874 c -0.0376,-0.0996 -3.05534,-10.19675 -3.05534,-10.22304 0,-0.0156 0.4302,0.18681 0.95599,0.44985 l 0.956,0.47826 1.13079,3.64201 1.1308,3.64201 0.42462,0.0218 c 0.23354,0.012 0.84691,0.0335 1.36304,0.0477 l 0.93843,0.0259 -0.001,-0.22647 c -5.6e-4,-0.12455 -0.063,-1.76935 -0.13883,-3.65511 l -0.13783,-3.42866 0.73446,-0.92384 0.73445,-0.92384 0.0602,0.0983 c 0.0331,0.0541 0.31205,0.50483 0.61986,1.0017 l 0.55964,0.90341 0,3.54332 0,3.54333 0.86692,-0.0231 c 0.47681,-0.0127 3.9588,0.008 3.57219,-0.01 l -1.29869,-0.058 1.0047,-2.98923 c 0.55259,-1.64407 1.09645,-3.25615 1.20859,-3.5824 l 0.20388,-0.59319 1.50013,-0.82696 c 0.82507,-0.45483 1.50355,-0.82335 1.50774,-0.81893 0.004,0.004 -0.37321,2.43669 -0.83866,5.40504 l -0.84627,5.39699 -0.1245,0.0251 c -0.0685,0.0138 -2.73868,0.0429 -5.9338,0.0647 -7.23188,0.0492 -7.07626,0.0494 -7.09754,-0.007 z"
       id="path3796"
       inkscape:connector-curvature="0"
       sodipodi:nodetypes="csscccssccscccsscccsscsscscscsscc" />
  </g>
</svg>
