<?xml version="1.0" encoding="UTF-8" standalone="no"?>
<!-- Created with Inkscape (http://www.inkscape.org/) -->

<svg
   xmlns:dc="http://purl.org/dc/elements/1.1/"
   xmlns:cc="http://creativecommons.org/ns#"
   xmlns:rdf="http://www.w3.org/1999/02/22-rdf-syntax-ns#"
   xmlns:svg="http://www.w3.org/2000/svg"
   xmlns="http://www.w3.org/2000/svg"
   xmlns:sodipodi="http://sodipodi.sourceforge.net/DTD/sodipodi-0.dtd"
   xmlns:inkscape="http://www.inkscape.org/namespaces/inkscape"
   id="svg2"
   version="1.1"
   inkscape:version="0.48.4 r9939"
   width="92.903642"
   height="69.180522"
   xml:space="preserve"
   sodipodi:docname="corps_logo_cross2.svg"><metadata
     id="metadata8"><rdf:RDF><cc:Work
         rdf:about=""><dc:format>image/svg+xml</dc:format><dc:type
           rdf:resource="http://purl.org/dc/dcmitype/StillImage" /><dc:title /></cc:Work></rdf:RDF></metadata><defs
     id="defs6" /><sodipodi:namedview
     pagecolor="#ffffff"
     bordercolor="#666666"
     borderopacity="1"
     objecttolerance="10"
     gridtolerance="10"
     guidetolerance="10"
     inkscape:pageopacity="0"
     inkscape:pageshadow="2"
     inkscape:window-width="1503"
     inkscape:window-height="1028"
     id="namedview4"
     showgrid="false"
     inkscape:zoom="13.661303"
     inkscape:cx="35.819161"
     inkscape:cy="41.654722"
     inkscape:window-x="61"
     inkscape:window-y="24"
     inkscape:window-maximized="0"
     inkscape:current-layer="g12" /><g
     id="g10"
     inkscape:groupmode="layer"
     inkscape:label="corps_logo"
     transform="matrix(1.25,0,0,-1.25,0,69.180522)"><g
       id="g12"><path
         d="m 8.1910269,-0.1074472 c -5.207,-0.062 -8.3144741,3.7715528 -8.1304741,7.8845528 L 0.07318427,49.032079 c -0.187,4.894 3.34163143,6.175921 7.53663143,6.171921 l 59.1035533,0.285079 c 4.812,-0.027 7.722262,-0.770895 7.620262,-7.008895 L 74.418157,8.1887371 C 74.824157,3.3217371 71.48,0.212 67.379,0.29 z M 67.578157,5.075 c 2.191,0.101 2.453659,1.4132629 2.285659,2.8502629 L 69.867,48.922263 c 0.008,2.449 -0.671106,2.421737 -2.733106,2.460737 L 7.672,51.083 C 6.367,50.977 4.7419213,50.81871 4.9059213,49.03771 L 5.3550269,7.9331843 C 5.4370269,5.8901843 6.0062112,4.993 8.1112112,4.954 z"
         style="fill:#ff0000;fill-opacity:1;fill-rule:nonzero;stroke:none;stroke-width:0.29059401000000001;stroke-linecap:butt;stroke-linejoin:miter;stroke-miterlimit:4;stroke-opacity:1;stroke-dasharray:none"
         id="path30"
         inkscape:connector-curvature="0"
         sodipodi:nodetypes="cccccccccccccccccc" /><path
         style="color:#000000;fill:#ff0000;fill-opacity:1;fill-rule:nonzero;stroke:#000000;stroke-width:0;stroke-linecap:round;stroke-linejoin:bevel;stroke-miterlimit:4;stroke-opacity:1;stroke-dasharray:none;stroke-dashoffset:0;marker:none;visibility:visible;display:inline;overflow:visible;enable-background:accumulate"
         d="M 11.90625 8 C 10.701902 8 9.71875 8.9831522 9.71875 10.1875 L 9.71875 57.46875 C 9.71875 58.673098 10.701902 59.65625 11.90625 59.65625 L 82.09375 59.65625 C 83.298098 59.65625 84.25 58.673098 84.25 57.46875 L 84.25 10.1875 C 84.25 8.9831522 83.298098 8 82.09375 8 L 11.90625 8 z M 78.03125 13.21875 C 70.711835 25.552928 67.109749 34.931604 64.59375 49.96875 L 51.96875 50 L 52.0625 57.0625 L 44.9375 57.09375 L 44.71875 49.9375 L 32.875 50.03125 C 30.343424 35.449272 25.026843 24.077304 16.875 13.375 C 22.415609 18.05132 28.215166 22.173968 34.46875 25.03125 L 27.34375 23.71875 L 36.9375 44.40625 L 44.53125 44.46875 C 45.827906 36.893309 46.390371 29.950012 44.75 22.8125 L 39.5 24.0625 C 43.637629 20.934192 47.165349 17.162103 48.375 13.375 C 49.62285 17.305682 52.647371 21.082562 56.75 24.28125 L 51.46875 22.90625 C 49.628864 30.032915 49.616565 36.861786 51.65625 44.28125 L 60.75 44.34375 L 68.03125 24.90625 C 67.878605 24.889288 62.245885 25.638454 61.65625 25.5625 C 68.135413 22.497251 72.394166 18.998391 78.03125 13.21875 z "
         transform="matrix(0.8,0,0,-0.8,0,55.344418)"
         id="rect3775" /><path
         style="fill:none;stroke:#000000;stroke-width:0;stroke-linecap:round;stroke-linejoin:bevel;stroke-miterlimit:4;stroke-opacity:1;stroke-dasharray:none"
         d="M 29.046541,48.477423 C 28.937596,48.189038 20.199232,18.950804 20.199232,18.87466 c 0,-0.04524 1.245717,0.54094 2.76826,1.30263 l 2.768259,1.38489 3.274436,10.54613 3.274436,10.546132 1.229561,0.06305 c 0.676259,0.03468 2.452388,0.09685 3.946953,0.138166 l 2.717391,0.07511 -0.0029,-0.655763 c -0.0016,-0.360671 -0.182486,-5.123511 -0.401995,-10.584092 l -0.399106,-9.928328 2.126746,-2.675157 2.126746,-2.675157 0.174369,0.284645 c 0.0959,0.156554 0.903617,1.461835 1.794918,2.900625 l 1.620548,2.615981 0,10.260373 0,10.260374 2.510352,-0.067 c 1.380693,-0.03685 3.426772,-0.09601 4.546842,-0.131462 l 2.036489,-0.06446 2.909317,-8.655867 c 1.600123,-4.760727 3.174983,-9.428823 3.499688,-10.373547 l 0.590373,-1.717681 4.343917,-2.394632 c 2.389154,-1.317047 4.353832,-2.384153 4.365952,-2.371346 0.01212,0.01281 -1.080705,7.055893 -2.428497,15.651302 l -2.450531,15.628016 -0.360501,0.07273 c -0.198277,0.04 -7.930378,0.124246 -17.182449,0.187218 -20.941303,0.142531 -20.490665,0.142972 -20.552277,-0.02012 z"
         id="path3792"
         inkscape:connector-curvature="0"
         transform="matrix(0.8,0,0,-0.8,0,55.344418)" /><path
         style="fill:none;stroke:#000000;stroke-width:0;stroke-linecap:round;stroke-linejoin:bevel;stroke-miterlimit:4;stroke-opacity:1;stroke-dasharray:none"
         d="M 29.046541,48.477423 C 28.937596,48.189038 20.199232,18.950804 20.199232,18.87466 c 0,-0.04524 1.245717,0.54094 2.76826,1.30263 l 2.768259,1.38489 3.274436,10.54613 3.274436,10.546132 1.229561,0.06305 c 0.676259,0.03468 2.452388,0.09685 3.946953,0.138166 l 2.717391,0.07511 -0.0029,-0.655763 c -0.0016,-0.360671 -0.182486,-5.123511 -0.401995,-10.584092 l -0.399106,-9.928328 2.126746,-2.675157 2.126746,-2.675157 0.174369,0.284645 c 0.0959,0.156554 0.903617,1.461835 1.794918,2.900625 l 1.620548,2.615981 0,10.260373 0,10.260374 2.510352,-0.067 c 1.380693,-0.03685 3.426772,-0.09601 4.546842,-0.131462 l 2.036489,-0.06446 2.909317,-8.655867 c 1.600123,-4.760727 3.174983,-9.428823 3.499688,-10.373547 l 0.590373,-1.717681 4.343917,-2.394632 c 2.389154,-1.317047 4.353832,-2.384153 4.365952,-2.371346 0.01212,0.01281 -1.080705,7.055893 -2.428497,15.651302 l -2.450531,15.628016 -0.360501,0.07273 c -0.198277,0.04 -7.930378,0.124246 -17.182449,0.187218 -20.941303,0.142531 -20.490665,0.142972 -20.552277,-0.02012 z"
         id="path3794"
         inkscape:connector-curvature="0"
         transform="matrix(0.8,0,0,-0.8,0,55.344418)" /><path
         style="fill:none;stroke:#000000;stroke-width:0;stroke-linecap:round;stroke-linejoin:bevel;stroke-miterlimit:4;stroke-opacity:1;stroke-dasharray:none"
         d="M 29.046541,48.477423 C 28.937596,48.189038 20.199232,18.950804 20.199232,18.87466 c 0,-0.04524 1.245717,0.54094 2.76826,1.30263 l 2.768259,1.38489 3.274436,10.54613 3.274436,10.546132 1.229561,0.06305 c 0.676259,0.03468 2.452388,0.09685 3.946953,0.138166 l 2.717391,0.07511 -0.0029,-0.655763 c -0.0016,-0.360671 -0.182486,-5.123511 -0.401995,-10.584092 l -0.399106,-9.928328 2.126746,-2.675157 2.126746,-2.675157 0.174369,0.284645 c 0.0959,0.156554 0.903617,1.461835 1.794918,2.900625 l 1.620548,2.615981 0,10.260373 0,10.260374 2.510352,-0.067 c 1.380693,-0.03685 11.463458,0.02206 10.343943,-0.02794 l -3.760612,-0.16798 2.909317,-8.655867 c 1.600123,-4.760727 3.174983,-9.428823 3.499688,-10.373547 l 0.590373,-1.717681 4.343917,-2.394632 c 2.389154,-1.317047 4.353832,-2.384153 4.365952,-2.371346 0.01212,0.01281 -1.080705,7.055893 -2.428497,15.651302 l -2.450531,15.628016 -0.360501,0.07273 c -0.198277,0.04 -7.930378,0.124246 -17.182449,0.187218 -20.941303,0.142531 -20.490665,0.142972 -20.552277,-0.02012 z"
         id="path3796"
         inkscape:connector-curvature="0"
         transform="matrix(0.8,0,0,-0.8,0,55.344418)"
         sodipodi:nodetypes="csscccssccscccsscccsscsscscscsscc" /></g></g></svg>