**ABCDEFGHIJKLMNOPQRSTUVWXYZabcdefghijklmnopqrstuvwxyz**************************
**PARASOLID !"#$%&'()*+,-./:;<=>?@[\]^_`{|}~0123456789**************************
**PART1;
MC=SUSE Linux-64;
MC_MODEL=genuineintel family 6 model 13 stepping 7, intel(r) core(tm) i7-3820 cpu @ 3.60ghz;
MC_ID=diplomacy;
OS=linux;
OS_RELEASE=2.6.32-5-amd64 #1 smp tue dec 8 10:25:56 utc 2015;
FRU=mdc_ugii_v7.0_djl_can_vrh;
APPL=unigraphics;
SITE=unknown;
USER=zhanga;
FORMAT=text;
GUISE=transmit;
KEY=Floating_Bar;
FILE=/lore/zhanga/proteus_working_version/proteus_working/air-water-vv/3d/floating_bar_scorec/simModel/Floating_Bar.x_t;
DATE=13-jan-2016;
**PART2;
SCH=SCH_2400143_20000;
USFLD_SIZE=0;
**PART3;
**END_OF_HEADER*****************************************************************
T51 : TRANSMIT FILE created by modeller version 240014323 SCH_2400143_20000_1300
6186 0 12 27 CCCCCCCCCCCCCCCCCCCCCCCA16 index_map_offset0 0 1 dA9 index_map82 0
 A17 node_id_index_map82 0 A20 schema_embedding_map82 0 Z1 268 2 3 0 0 0 0 1e3 1
e-8 0 0 0 1 0 1 1 4 5 6 7 8 9 10 0 0 0 0 81 255 1 2 244 11 1 12 0 0 0 13 70 11 C
I9 list_type0 0 1 uI10 notransmit0 0 1 lCCCDCCDI12 finger_index0 0 1 dI12 finger
_block1012 0 CZ3 0 4 T1 0 0 4 20 1 14 14 13 255 4 91 0 1 15 16 0 0 17 0 50 255 5
 90 0 16 18 0 0 +1 -275536429610035e-32 1 0 1 275536429610035e-32 0 -27553642961
0035e-32 1 30 255 6 86 0 19 20 0 0 +1 -275536429610035e-32 1 -1 0 0 29 255 7 67
 0 21 22 0 0 1 1 19 255 8 1 0 1 17 0 23 V16 255 9 73 0 ?24 0 25 20 0 0 1 18 255
 10 15 0 26 0 27 28 ?1 17 255 26 0 29 30 31 10 32 33 0 34 +18 27 10 0 31 10 35 3
6 ?1 29 28 17 0 10 36 37 1 1 1 29 36 12 0 27 38 28 1 1 173587950654322e-30 29 37
 70 0 39 28 40 0 -275536429610035e-32 1 18 39 60 0 41 42 43 37 ?1 29 40 69 0 42
 37 22 0 0 0 18 42 58 0 44 45 39 40 ?1 29 22 68 0 45 40 7 0 1 173587950654322e-3
0 18 45 56 0 46 21 42 22 ?1 17 46 0 47 48 24 45 44 49 0 50 +18 21 54 0 51 52 45
 7 ?1 17 51 0 53 34 50 21 54 55 0 56 +18 52 2 0 30 35 21 57 ?1 17 30 0 29 58 26
 52 59 60 0 61 +18 35 5 0 62 27 52 38 ?1 29 57 4 0 52 63 38 1 -275536429610035e-
32 1 29 63 204 0 64 65 57 .665 .665 .35 29 38 7 0 35 57 36 1 0 0 18 64 151 0 66
 67 68 63 ?1 29 65 205 0 68 69 63 .665 .665 .15 18 68 150 0 70 64 71 65 ?1 29 69
 206 0 71 72 65 .335 .665 .15 18 71 145 0 73 68 74 69 ?1 29 72 207 0 74 75 69 .3
35 .665 .35 18 74 152 0 76 71 0 72 ?1 29 75 208 0 43 77 72 .665 .335 .35 18 43 1
47 0 78 39 79 75 ?1 29 77 209 0 79 80 75 .665 .335 .15 18 79 146 0 81 43 82 77 ?
1 29 80 210 0 82 83 77 .335 .335 .15 18 82 149 0 84 79 67 80 ?1 29 83 211 0 67 0
 80 .335 .335 .35 18 67 148 0 85 82 64 83 ?1 17 85 0 86 87 88 67 89 90 0 91 -15
 255 86 172 0 92 93 0 17 87 0 86 92 85 74 91 94 0 95 -17 88 0 86 85 92 43 96 97
 0 89 +17 89 0 98 99 100 43 85 90 0 0 +16 90 133 0 ?89 94 101 102 0 0 1 17 91 0
 103 104 95 67 87 94 0 100 +15 103 157 0 95 105 0 17 104 0 103 106 91 82 100 107
 0 108 -17 95 0 103 91 106 74 109 110 0 0 +16 94 135 0 ?91 97 90 111 0 0 1 17 10
0 0 98 89 84 67 104 107 0 0 +15 98 177 0 100 112 0 17 84 0 98 100 99 82 81 113 0
 104 +16 107 121 0 ?100 113 114 115 0 0 1 16 113 125 0 ?84 101 107 116 0 0 1 16
 114 143 0 ?92 107 117 118 0 0 1 30 115 203 0 107 0 116 0 -.335 .335 .35 1110223
024625156e-30 0 -1 30 116 202 0 113 115 119 0 -.335 .335 .15 1 0 0 30 119 201 0
 101 116 102 0 -.665 .335 .15 -1110223024625156e-30 0 1 16 101 129 0 ?99 90 113
 119 0 0 1 30 102 200 0 90 119 120 0 -.665 .335 .35 -1 0 0 30 120 199 0 110 102
 121 0 -.335 .665 .35 1110223024625156e-30 0 -1 16 110 137 0 ?95 122 0 120 0 0 1
 30 121 198 0 122 120 123 0 -.335 .665 .15 1 0 0 16 122 139 0 ?73 117 110 121 0
 0 1 30 123 197 0 117 121 118 0 -.665 .665 .15 -1110223024625156e-30 0 1 16 117
 141 0 ?124 114 122 123 0 0 1 30 118 196 0 114 123 125 0 -.665 .665 .35 -1 0 0 3
0 125 195 0 97 118 126 0 -.665 .335 .35 0 1 0 16 97 131 0 ?88 127 94 125 0 0 1 3
0 126 194 0 127 125 128 0 -.665 .335 .15 0 1 0 16 127 127 0 ?129 130 97 126 0 0
 1 30 128 193 0 130 126 111 0 -.335 .335 .15 0 1 0 16 130 123 0 ?108 131 127 128
 0 0 1 30 111 192 0 94 128 132 0 -.335 .335 .35 0 1 0 30 132 9 0 133 111 134 0 +
1 -275536429610035e-32 1 0 275536429610035e-32 -1 16 133 6 0 ?58 135 136 132 0 0
 1 30 134 14 0 135 132 137 0 +1 0 0 0 1 173587950654322e-30 16 135 11 0 ?31 33 1
33 134 0 0 1 30 137 19 0 33 134 138 0 +1 1 227373675443232e-30 0 0 1 16 33 16 0
 ?26 60 135 137 0 0 1 30 138 22 0 60 137 139 0 +1 1 1 0 -1 -2220446049250315e-31
 16 60 20 0 ?30 19 33 138 0 0 1 30 139 66 0 131 138 140 0 +0 -275536429610035e-3
2 1 0 275536429610035e-32 -1 16 131 52 0 ?141 49 130 139 0 0 1 30 140 65 0 49 13
9 142 0 +0 0 0 0 1 173587950654322e-30 16 49 50 0 ?46 55 131 140 0 0 1 30 142 64
 0 55 140 143 0 +0 1 227373675443232e-30 0 0 1 16 55 48 0 ?51 136 49 142 0 0 1 3
0 143 63 0 136 142 144 0 +0 1 1 0 -1 -2220446049250315e-31 16 136 46 0 ?41 133 5
5 143 0 0 1 30 144 83 0 145 143 146 0 +1 1 1 -1 0 0 16 145 71 0 ?56 25 19 144 0
 0 1 30 146 84 0 25 144 20 0 +1 1 173587950654322e-30 -1 0 0 16 25 72 0 ?50 9 14
5 146 0 0 1 30 20 85 0 9 146 6 0 +1 0 0 -1 0 0 17 50 0 53 51 32 45 48 25 0 54 +1
5 53 77 0 51 147 0 17 32 0 53 50 34 27 26 33 0 0 -17 48 0 47 62 46 27 50 25 0 32
 -17 54 0 148 44 149 45 51 55 0 0 -15 148 45 0 150 151 0 17 44 0 148 150 54 42 4
6 49 0 24 -17 149 0 148 54 150 21 41 136 0 0 -17 150 0 148 149 44 39 141 131 0 0
 -17 41 0 152 61 56 39 149 136 0 153 +15 152 75 0 41 154 0 17 61 0 152 59 41 52
 153 19 0 155 -17 56 0 152 41 59 21 34 145 0 149 +17 153 0 156 141 155 39 61 19
 0 150 +15 156 81 0 141 16 0 17 141 0 156 157 153 42 150 131 0 0 +17 155 0 156 1
53 157 52 58 133 0 0 -16 19 74 0 ?153 145 60 6 0 0 1 17 157 0 156 155 141 35 24
 9 0 0 -17 58 0 29 31 30 35 155 133 0 157 +15 29 23 0 58 158 0 17 31 0 29 26 58
 27 62 135 0 48 +17 62 0 47 24 48 35 31 135 0 58 -15 47 79 0 46 159 0 17 24 0 47
 46 62 42 157 9 0 141 +14 255 159 80 160 ?147 16 47 4 18 -0 0 147 16 23 81 1 160
 248 161 159 162 0 163 164 165 14 147 78 164 ?154 159 53 4 166 -0 0 154 159 23 1
4 16 82 163 ?159 0 156 4 5 -0 0 159 0 23 50 18 89 0 159 166 5 0 +1 0 0 0 -173587
950654322e-30 1 0 -1 -173587950654322e-30 13 23 3 0 0 0 0 0 0 8 16 50 166 88 0 1
47 167 18 0 +1 1 227373675443232e-30 0 -1 0 0 0 -1 50 167 87 0 154 168 166 0 +1
 1 1 0 2220446049250315e-31 -1 0 1 2220446049250315e-31 14 154 76 169 ?158 147 1
52 4 167 -0 0 158 147 23 50 168 62 0 151 170 167 0 +0 0 0 1 0 0 0 0 -1 14 151 42
 171 ?0 158 148 4 168 -0 0 0 158 23 50 170 25 0 158 172 168 0 +1 0 0 1 0 0 0 0 -
1 14 158 24 173 ?151 154 29 4 170 +0 0 151 154 23 50 172 186 0 105 174 170 0 +.3
35 .335 .35 1 0 1110223024625156e-30 1110223024625156e-30 0 -1 14 105 153 175 ?1
76 0 103 15 172 +0 0 176 0 177 50 174 187 0 176 178 172 0 +.335 .335 .15 0 0 1 1
 0 0 14 176 158 179 ?180 105 181 15 174 +0 0 180 105 177 50 178 188 0 180 182 17
4 0 +.665 .335 .15 -1 0 -1110223024625156e-30 -1110223024625156e-30 0 1 14 180 1
63 183 ?93 176 184 15 178 +0 0 93 176 177 50 182 189 0 93 185 178 0 +.665 .335 .
35 0 0 -1 -1 0 0 14 93 168 186 ?112 180 86 15 182 +0 0 112 180 177 50 185 190 0
 187 188 182 0 +0 .665 0 0 -1 0 0 0 -1 14 187 178 189 ?0 112 190 15 185 +0 0 0 1
12 177 50 188 191 0 112 0 185 0 +0 .335 0 0 -1 0 0 0 -1 14 112 173 191 ?187 93 9
8 15 188 -0 0 187 93 177 81 1 191 266 161 112 192 0 186 189 193 13 15 119 0 1 0
 105 0 0 17 0 13 177 184 0 0 0 0 0 0 194 105 19 194 183 0 1 0 17 177 V19 17 92 0
 1 194 8 4 S80 255 1 161 0 195 8001 0 0 0 0 3 5 0 0 0 FFFFTFTFFFFFFF2 81 1 192 2
65 196 112 0 191 197 198 199 81 1 186 264 161 93 197 0 183 191 200 81 1 189 268
 161 187 198 0 191 0 201 83 255 3 193 .5960784 .6666667 .6862745 81 1 198 267 19
6 187 0 189 192 0 202 83 3 201 .5960784 .6666667 .6862745 80 1 196 203 204 8015
 0 0 0 0 3 5 0 0 0 FFFFTFFFFFFFFF2 83 1 202 0 79 255 21 204 SDL/TYSA_TRANSLUCENC
Y81 1 197 263 196 93 0 186 205 192 206 81 1 183 262 161 180 205 0 179 186 207 83
 3 200 .5960784 .6666667 .6862745 81 1 205 261 196 180 0 183 208 197 209 81 1 17
9 260 161 176 208 0 175 183 210 83 3 207 .5960784 .6666667 .6862745 81 1 208 259
 196 176 0 179 211 205 212 81 1 175 258 161 105 211 0 171 179 213 83 3 210 .5960
784 .6666667 .6862745 81 1 211 257 196 105 0 175 214 208 215 81 1 171 256 161 15
1 214 0 173 175 216 83 3 213 .5960784 .6666667 .6862745 81 1 214 255 196 151 0 1
71 217 211 218 81 1 173 254 161 158 217 0 169 171 219 83 3 216 .5960784 .6666667
 .6862745 81 1 217 253 196 158 0 173 220 214 221 81 1 169 252 161 154 220 0 164
 173 222 83 3 219 .5960784 .6666667 .6862745 81 1 220 251 196 154 0 169 223 217
 224 81 1 164 250 161 147 223 0 160 169 225 83 3 222 .5960784 .6666667 .6862745
 81 1 223 249 196 147 0 164 162 220 226 83 3 225 .5960784 .6666667 .6862745 81 1
 162 247 196 159 0 160 227 223 228 83 1 226 0 81 1 227 245 196 16 0 163 0 162 22
9 83 1 228 0 81 1 163 246 161 16 227 0 0 160 230 83 1 229 0 83 3 230 .5960784 .6
666667 .6862745 83 1 224 0 83 1 221 0 83 1 218 0 83 1 215 0 83 1 212 0 83 1 209
 0 83 1 206 0 83 1 199 0 79 15 195 SDL/TYSA_COLOUR15 190 182 0 109 187 0 17 109
 0 190 70 76 71 95 110 0 0 -17 70 0 190 66 109 68 73 122 0 231 -17 76 0 190 109
 66 74 92 114 0 87 -17 66 0 190 76 70 64 124 117 0 96 -17 92 0 86 88 87 64 76 11
4 0 0 +17 124 0 184 129 96 68 66 117 0 0 +17 96 0 184 124 78 64 88 97 0 92 -15 1
84 167 0 124 180 0 17 78 0 184 96 129 43 99 101 0 88 -17 129 0 184 78 124 79 231
 127 0 99 +17 99 0 98 84 89 79 78 101 0 0 +17 231 0 181 73 81 68 129 127 0 124 -
15 181 162 0 73 176 0 17 73 0 181 108 231 71 70 122 0 106 +17 81 0 181 231 108 7
9 84 113 0 129 -17 108 0 181 81 73 82 106 130 0 0 +17 106 0 103 95 104 71 108 13
0 0 109 -83 3 165 .5960784 .6666667 .6862745 17 59 0 152 56 61 10 30 60 0 0 -17
 34 0 53 32 51 10 56 145 0 59 -74 4 CI16 index_map_offset0 0 1 dCCZ20 14 4 0 0 1
2 2 198 189 0 0 0 0 0 0 0 0 0 0 0 0 0 0 0 0 81 2 12 241 232 1 0 2 0 0 233 234 80
 2 232 235 236 8004 0 0 0 0 3 5 0 0 0 FFTFFFFFFFFFFF2 3 83 1 233 7830.64 84 255
 8 234 Kg/Cu M 79 16 236 SDL/TYSA_DENSITY80 1 11 237 238 9000 0 0 0 0 3 5 0 0 0
 FFTFFFFFFFFFFF1 82 255 1 13 8 79 7 238 body_id1 0 
